<svg xmlns="http://www.w3.org/2000/svg" viewBox="0 0 1000 1000" preserveAspectRatio="xMidYMid slice" fill="none" stroke-linecap="round" stroke-linejoin="round"><g fill="#0f3d2e"><circle cx="491.2" cy="508.1" r="0.65" opacity="0.054"/><circle cx="501.4" cy="483.1" r="0.67" opacity="0.056"/><circle cx="512.8" cy="516.4" r="0.68" opacity="0.057"/><circle cx="476.3" cy="496.2" r="0.7" opacity="0.058"/><circle cx="522.4" cy="485.2" r="0.71" opacity="0.059"/><circle cx="493" cy="528.5" r="0.72" opacity="0.06"/><circle cx="484.7" cy="472.2" r="0.73" opacity="0.061"/><circle cx="532.2" cy="510.7" r="0.74" opacity="0.061"/><circle cx="467.2" cy="514.8" r="0.74" opacity="0.062"/><circle cx="514.8" cy="465.1" r="0.75" opacity="0.063"/><circle cx="513.4" cy="537.5" r="0.76" opacity="0.063"/><circle cx="463.2" cy="480.7" r="0.77" opacity="0.064"/><circle cx="541.8" cy="488.7" r="0.77" opacity="0.065"/><circle cx="476.1" cy="538" r="0.78" opacity="0.065"/><circle cx="491.5" cy="454.3" r="0.79" opacity="0.066"/><circle cx="538.4" cy="528.8" r="0.79" opacity="0.066"/><circle cx="450.8" cy="505.1" r="0.8" opacity="0.067"/><circle cx="533.7" cy="461.8" r="0.8" opacity="0.067"/><circle cx="501.2" cy="552.3" r="0.81" opacity="0.068"/><circle cx="462.7" cy="461.4" r="0.81" opacity="0.068"/><circle cx="554.9" cy="503.2" r="0.82" opacity="0.069"/><circle cx="456.5" cy="535.7" r="0.83" opacity="0.069"/><circle cx="507.9" cy="443" r="0.83" opacity="0.069"/><circle cx="533.6" cy="548.3" r="0.84" opacity="0.07"/><circle cx="441.4" cy="487" r="0.84" opacity="0.07"/><circle cx="552.9" cy="469.2" r="0.84" opacity="0.071"/><circle cx="481.7" cy="559.6" r="0.85" opacity="0.071"/><circle cx="472.6" cy="442.7" r="0.85" opacity="0.071"/><circle cx="560" cy="523.9" r="0.86" opacity="0.072"/><circle cx="438.6" cy="523.6" r="0.86" opacity="0.072"/><circle cx="529.6" cy="440.1" r="0.87" opacity="0.073"/><circle cx="519.2" cy="565.1" r="0.87" opacity="0.073"/><circle cx="440.8" cy="464.6" r="0.88" opacity="0.073"/><circle cx="568.5" cy="485.7" r="0.88" opacity="0.074"/><circle cx="458.8" cy="557.8" r="0.88" opacity="0.074"/><circle cx="491" cy="428.6" r="0.89" opacity="0.074"/><circle cx="555.8" cy="547" r="0.89" opacity="0.075"/><circle cx="426.1" cy="503.4" r="0.9" opacity="0.075"/><circle cx="552.7" cy="446.7" r="0.9" opacity="0.075"/><circle cx="497.4" cy="575.8" r="0.9" opacity="0.076"/><circle cx="449.9" cy="441.7" r="0.91" opacity="0.076"/><circle cx="577.3" cy="508.9" r="0.91" opacity="0.076"/><circle cx="436.4" cy="546.4" r="0.91" opacity="0.077"/><circle cx="515.5" cy="421.9" r="0.92" opacity="0.077"/><circle cx="542.1" cy="568.6" r="0.92" opacity="0.077"/><circle cx="421.7" cy="477.8" r="0.93" opacity="0.077"/><circle cx="573.4" cy="462.8" r="0.93" opacity="0.078"/><circle cx="471" cy="577.9" r="0.93" opacity="0.078"/><circle cx="468.1" cy="422.3" r="0.94" opacity="0.078"/><circle cx="576.9" cy="535.9" r="0.94" opacity="0.079"/><circle cx="418.4" cy="526.1" r="0.94" opacity="0.079"/><circle cx="542.7" cy="424.8" r="0.95" opacity="0.079"/><circle cx="519.8" cy="585.1" r="0.95" opacity="0.079"/><circle cx="427.1" cy="450.4" r="0.95" opacity="0.08"/><circle cx="588" cy="486.8" r="0.96" opacity="0.08"/><circle cx="443.7" cy="570" r="0.96" opacity="0.08"/><circle cx="493.8" cy="409.6" r="0.96" opacity="0.081"/><circle cx="566.4" cy="562.8" r="0.97" opacity="0.081"/><circle cx="407.8" cy="498.9" r="0.97" opacity="0.081"/><circle cx="569.1" cy="437.8" r="0.97" opacity="0.081"/><circle cx="491.3" cy="593.3" r="0.97" opacity="0.082"/><circle cx="442.6" cy="424.9" r="0.98" opacity="0.082"/><circle cx="593.8" cy="516.4" r="0.98" opacity="0.082"/><circle cx="419.3" cy="552" r="0.98" opacity="0.082"/><circle cx="524.2" cy="406.3" r="0.99" opacity="0.083"/><circle cx="546.1" cy="585.9" r="0.99" opacity="0.083"/><circle cx="407.2" cy="467.9" r="0.99" opacity="0.083"/><circle cx="590.7" cy="460.4" r="1" opacity="0.083"/><circle cx="459.9" cy="591.3" r="1" opacity="0.084"/><circle cx="467.3" cy="405.1" r="1" opacity="0.084"/><circle cx="589" cy="547.9" r="1" opacity="0.084"/><circle cx="401.4" cy="525.3" r="1.01" opacity="0.084"/><circle cx="555.7" cy="413.9" r="1.01" opacity="0.085"/><circle cx="517.6" cy="601.7" r="1.01" opacity="0.085"/><circle cx="417.6" cy="436.7" r="1.02" opacity="0.085"/><circle cx="604.2" cy="490.5" r="1.02" opacity="0.085"/><circle cx="429.4" cy="578.1" r="1.02" opacity="0.085"/><circle cx="498.9" cy="394" r="1.02" opacity="0.086"/><circle cx="573.1" cy="577.6" r="1.03" opacity="0.086"/><circle cx="392.9" cy="492.5" r="1.03" opacity="0.086"/><circle cx="584.3" cy="432.5" r="1.03" opacity="0.086"/><circle cx="483.8" cy="607.4" r="1.03" opacity="0.087"/><circle cx="438.7" cy="409.5" r="1.04" opacity="0.087"/><circle cx="607.1" cy="525.1" r="1.04" opacity="0.087"/><circle cx="403.7" cy="554.5" r="1.04" opacity="0.087"/><circle cx="534" cy="394" r="1.05" opacity="0.087"/><circle cx="547.1" cy="601.5" r="1.05" opacity="0.088"/><circle cx="395.9" cy="457.1" r="1.05" opacity="0.088"/><circle cx="606.2" cy="460.7" r="1.05" opacity="0.088"/><circle cx="448.3" cy="601.4" r="1.06" opacity="0.088"/><circle cx="469" cy="389.8" r="1.06" opacity="0.089"/><circle cx="598" cy="560.3" r="1.06" opacity="0.089"/><circle cx="386.4" cy="522.3" r="1.06" opacity="0.089"/><circle cx="568.7" cy="406.1" r="1.07" opacity="0.089"/><circle cx="513.2" cy="616.2" r="1.07" opacity="0.089"/><circle cx="411" cy="423.2" r="1.07" opacity="0.09"/><circle cx="618.1" cy="496.1" r="1.07" opacity="0.09"/><circle cx="415.4" cy="583.4" r="1.08" opacity="0.09"/><circle cx="505.6" cy="380.7" r="1.08" opacity="0.09"/><circle cx="577.1" cy="591.9" r="1.08" opacity="0.09"/><circle cx="380.4" cy="484.7" r="1.08" opacity="0.091"/><circle cx="598.8" cy="429.8" r="1.08" opacity="0.091"/><circle cx="474.9" cy="619.2" r="1.09" opacity="0.091"/><circle cx="437.3" cy="394.9" r="1.09" opacity="0.091"/><circle cx="617.9" cy="534.9" r="1.09" opacity="0.091"/><circle cx="389.1" cy="554.5" r="1.09" opacity="0.092"/><circle cx="544.7" cy="384.2" r="1.1" opacity="0.092"/><circle cx="545.9" cy="616" r="1.1" opacity="0.092"/><circle cx="387.1" cy="445.7" r="1.1" opacity="0.092"/><circle cx="620.4" cy="463.2" r="1.1" opacity="0.092"/><circle cx="436.2" cy="609.2" r="1.11" opacity="0.093"/><circle cx="472.7" cy="376" r="1.11" opacity="0.093"/><circle cx="604.6" cy="573" r="1.11" opacity="0.093"/><circle cx="373.1" cy="517.4" r="1.11" opacity="0.093"/><circle cx="581.9" cy="400.7" r="1.11" opacity="0.093"/><circle cx="507.2" cy="629" r="1.12" opacity="0.094"/><circle cx="406.8" cy="409.7" r="1.12" opacity="0.094"/><circle cx="630.3" cy="503.2" r="1.12" opacity="0.094"/><circle cx="401.7" cy="586.4" r="1.12" opacity="0.094"/><circle cx="513.7" cy="369.3" r="1.13" opacity="0.094"/><circle cx="578.9" cy="605.8" r="1.13" opacity="0.094"/><circle cx="369.7" cy="475.6" r="1.13" opacity="0.095"/><circle cx="612.7" cy="429.3" r="1.13" opacity="0.095"/><circle cx="465" cy="629" r="1.13" opacity="0.095"/><circle cx="438" cy="381" r="1.14" opacity="0.095"/><circle cx="626.7" cy="545.6" r="1.14" opacity="0.095"/><circle cx="375.4" cy="552.6" r="1.14" opacity="0.096"/><circle cx="556.1" cy="376.4" r="1.14" opacity="0.096"/><circle cx="542.8" cy="629.4" r="1.15" opacity="0.096"/><circle cx="380.3" cy="433.7" r="1.15" opacity="0.096"/><circle cx="633.4" cy="467.5" r="1.15" opacity="0.096"/><circle cx="423.7" cy="614.8" r="1.15" opacity="0.096"/><circle cx="478.1" cy="363.4" r="1.15" opacity="0.097"/><circle cx="609.2" cy="585.9" r="1.16" opacity="0.097"/><circle cx="361" cy="510.9" r="1.16" opacity="0.097"/><circle cx="595.1" cy="397.3" r="1.16" opacity="0.097"/><circle cx="499.8" cy="640.5" r="1.16" opacity="0.097"/><circle cx="404.6" cy="396.2" r="1.16" opacity="0.097"/><circle cx="641" cy="511.6" r="1.17" opacity="0.098"/><circle cx="388.1" cy="587.4" r="1.17" opacity="0.098"/><circle cx="523" cy="359.4" r="1.17" opacity="0.098"/><circle cx="578.7" cy="619.4" r="1.17" opacity="0.098"/><circle cx="360.7" cy="465.5" r="1.17" opacity="0.098"/><circle cx="626.2" cy="430.6" r="1.18" opacity="0.099"/><circle cx="454.1" cy="637" r="1.18" opacity="0.099"/><circle cx="440.6" cy="367.7" r="1.18" opacity="0.099"/><circle cx="633.8" cy="557.1" r="1.18" opacity="0.099"/><circle cx="362.5" cy="549" r="1.18" opacity="0.099"/><circle cx="568.1" cy="370.3" r="1.19" opacity="0.099"/><circle cx="538" cy="642" r="1.19" opacity="0.1"/><circle cx="375.4" cy="421.2" r="1.19" opacity="0.1"/><circle cx="645.5" cy="473.3" r="1.19" opacity="0.1"/><circle cx="410.9" cy="618.7" r="1.19" opacity="0.1"/><circle cx="485" cy="351.8" r="1.2" opacity="0.1"/><circle cx="611.9" cy="599" r="1.2" opacity="0.1"/><circle cx="350.2" cy="503.1" r="1.2" opacity="0.1"/><circle cx="608.3" cy="395.7" r="1.2" opacity="0.101"/><circle cx="491.1" cy="650.6" r="1.2" opacity="0.101"/><circle cx="404.2" cy="382.9" r="1.21" opacity="0.101"/><circle cx="650.3" cy="521.1" r="1.21" opacity="0.101"/><circle cx="374.8" cy="586.7" r="1.21" opacity="0.101"/><circle cx="533.3" cy="350.9" r="1.21" opacity="0.101"/><circle cx="576.8" cy="632.5" r="1.21" opacity="0.102"/><circle cx="353.2" cy="454.6" r="1.21" opacity="0.102"/><circle cx="639.1" cy="433.6" r="1.22" opacity="0.102"/><circle cx="442.6" cy="643.6" r="1.22" opacity="0.102"/><circle cx="444.7" cy="355.1" r="1.22" opacity="0.102"/><circle cx="639.3" cy="569.2" r="1.22" opacity="0.102"/><circle cx="350.3" cy="543.8" r="1.22" opacity="0.103"/><circle cx="580.6" cy="365.9" r="1.23" opacity="0.103"/><circle cx="531.8" cy="653.7" r="1.23" opacity="0.103"/><circle cx="372" cy="408.4" r="1.23" opacity="0.103"/><circle cx="656.6" cy="480.5" r="1.23" opacity="0.103"/><circle cx="397.8" cy="620.9" r="1.23" opacity="0.103"/><circle cx="493.1" cy="341.4" r="1.23" opacity="0.103"/><circle cx="613" cy="612.2" r="1.24" opacity="0.104"/><circle cx="340.5" cy="494.1" r="1.24" opacity="0.104"/><circle cx="621.6" cy="395.8" r="1.24" opacity="0.104"/><circle cx="481.3" cy="659.5" r="1.24" opacity="0.104"/><circle cx="405.4" cy="369.8" r="1.24" opacity="0.104"/><circle cx="658.3" cy="531.6" r="1.25" opacity="0.104"/><circle cx="361.8" cy="584.3" r="1.25" opacity="0.105"/><circle cx="544.5" cy="343.9" r="1.25" opacity="0.105"/><circle cx="573.4" cy="645.3" r="1.25" opacity="0.105"/><circle cx="347.1" cy="442.8" r="1.25" opacity="0.105"/><circle cx="651.5" cy="438.2" r="1.25" opacity="0.105"/><circle cx="430.4" cy="648.6" r="1.26" opacity="0.105"/><circle cx="450.2" cy="343.2" r="1.26" opacity="0.105"/><circle cx="643.3" cy="581.7" r="1.26" opacity="0.106"/><circle cx="338.8" cy="537.2" r="1.26" opacity="0.106"/><circle cx="593.5" cy="363" r="1.26" opacity="0.106"/><circle cx="524.3" cy="664.5" r="1.27" opacity="0.106"/><circle cx="370.3" cy="395.3" r="1.27" opacity="0.106"/><circle cx="666.8" cy="488.9" r="1.27" opacity="0.106"/><circle cx="384.7" cy="621.6" r="1.27" opacity="0.106"/><circle cx="502.3" cy="332" r="1.27" opacity="0.107"/><circle cx="612.5" cy="625.4" r="1.27" opacity="0.107"/><circle cx="331.9" cy="484.1" r="1.28" opacity="0.107"/><circle cx="634.7" cy="397.4" r="1.28" opacity="0.107"/><circle cx="470.5" cy="667.1" r="1.28" opacity="0.107"/><circle cx="408.1" cy="356.8" r="1.28" opacity="0.107"/><circle cx="665" cy="543" r="1.28" opacity="0.107"/><circle cx="349.2" cy="580.5" r="1.28" opacity="0.108"/><circle cx="556.4" cy="338.1" r="1.29" opacity="0.108"/><circle cx="568.5" cy="657.6" r="1.29" opacity="0.108"/><circle cx="342.4" cy="430.5" r="1.29" opacity="0.108"/><circle cx="663.3" cy="444.1" r="1.29" opacity="0.108"/><circle cx="417.7" cy="652.2" r="1.29" opacity="0.108"/><circle cx="457.2" cy="331.9" r="1.29" opacity="0.108"/><circle cx="645.8" cy="594.7" r="1.3" opacity="0.109"/><circle cx="328.2" cy="529.4" r="1.3" opacity="0.109"/><circle cx="606.6" cy="361.6" r="1.3" opacity="0.109"/><circle cx="515.6" cy="674.4" r="1.3" opacity="0.109"/><circle cx="370" cy="382.1" r="1.3" opacity="0.109"/><circle cx="675.9" cy="498.5" r="1.3" opacity="0.109"/><circle cx="371.4" cy="620.7" r="1.31" opacity="0.109"/><circle cx="512.6" cy="323.7" r="1.31" opacity="0.11"/><circle cx="610.5" cy="638.5" r="1.31" opacity="0.11"/><circle cx="324.5" cy="473.1" r="1.31" opacity="0.11"/><circle cx="647.6" cy="400.5" r="1.31" opacity="0.11"/><circle cx="459" cy="673.6" r="1.31" opacity="0.11"/><circle cx="412.2" cy="344.2" r="1.32" opacity="0.11"/><circle cx="670.5" cy="555.1" r="1.32" opacity="0.11"/><circle cx="337" cy="575.3" r="1.32" opacity="0.11"/><circle cx="568.9" cy="333.7" r="1.32" opacity="0.111"/><circle cx="562.3" cy="669.3" r="1.32" opacity="0.111"/><circle cx="339.1" cy="417.6" r="1.32" opacity="0.111"/><circle cx="674.5" cy="451.3" r="1.32" opacity="0.111"/><circle cx="404.6" cy="654.5" r="1.33" opacity="0.111"/><circle cx="465.3" cy="321.4" r="1.33" opacity="0.111"/><circle cx="647" cy="608" r="1.33" opacity="0.111"/><circle cx="318.4" cy="520.4" r="1.33" opacity="0.112"/><circle cx="619.9" cy="361.5" r="1.33" opacity="0.112"/><circle cx="505.8" cy="683.5" r="1.33" opacity="0.112"/><circle cx="371.1" cy="368.8" r="1.34" opacity="0.112"/><circle cx="684.1" cy="509" r="1.34" opacity="0.112"/><circle cx="358.3" cy="618.5" r="1.34" opacity="0.112"/><circle cx="523.8" cy="316.4" r="1.34" opacity="0.112"/><circle cx="607.2" cy="651.4" r="1.34" opacity="0.112"/><circle cx="318.2" cy="461.3" r="1.34" opacity="0.113"/><circle cx="660.2" cy="404.9" r="1.35" opacity="0.113"/><circle cx="446.7" cy="678.9" r="1.35" opacity="0.113"/><circle cx="417.7" cy="332" r="1.35" opacity="0.113"/><circle cx="674.8" cy="567.8" r="1.35" opacity="0.113"/><circle cx="325.2" cy="568.8" r="1.35" opacity="0.113"/><circle cx="581.9" cy="330.5" r="1.35" opacity="0.113"/><circle cx="554.8" cy="680.5" r="1.35" opacity="0.114"/><circle cx="337" cy="404.4" r="1.36" opacity="0.114"/><circle cx="685" cy="459.7" r="1.36" opacity="0.114"/><circle cx="391.2" cy="655.4" r="1.36" opacity="0.114"/><circle cx="474.5" cy="311.6" r="1.36" opacity="0.114"/><circle cx="646.8" cy="621.4" r="1.36" opacity="0.114"/><circle cx="309.4" cy="510.3" r="1.36" opacity="0.114"/><circle cx="633.3" cy="362.9" r="1.36" opacity="0.114"/><circle cx="495" cy="691.6" r="1.37" opacity="0.115"/><circle cx="373.5" cy="355.5" r="1.37" opacity="0.115"/><circle cx="691.3" cy="520.4" r="1.37" opacity="0.115"/><circle cx="345.3" cy="614.9" r="1.37" opacity="0.115"/><circle cx="535.9" cy="310.2" r="1.37" opacity="0.115"/><circle cx="602.5" cy="664.1" r="1.37" opacity="0.115"/><circle cx="313" cy="448.8" r="1.38" opacity="0.115"/><circle cx="672.4" cy="410.6" r="1.38" opacity="0.115"/><circle cx="433.8" cy="683" r="1.38" opacity="0.116"/><circle cx="424.4" cy="320.3" r="1.38" opacity="0.116"/><circle cx="677.8" cy="581" r="1.38" opacity="0.116"/><circle cx="314.1" cy="561.1" r="1.38" opacity="0.116"/><circle cx="595.4" cy="328.7" r="1.38" opacity="0.116"/><circle cx="546.2" cy="690.9" r="1.39" opacity="0.116"/><circle cx="336.3" cy="390.8" r="1.39" opacity="0.116"/><circle cx="694.8" cy="469.2" r="1.39" opacity="0.116"/><circle cx="377.6" cy="655" r="1.39" opacity="0.117"/><circle cx="484.8" cy="302.7" r="1.39" opacity="0.117"/><circle cx="645.2" cy="635" r="1.39" opacity="0.117"/><circle cx="301.4" cy="499.3" r="1.39" opacity="0.117"/><circle cx="646.7" cy="365.6" r="1.4" opacity="0.117"/><circle cx="483.3" cy="698.7" r="1.4" opacity="0.117"/><circle cx="377.3" cy="342.4" r="1.4" opacity="0.117"/><circle cx="697.4" cy="532.7" r="1.4" opacity="0.117"/><circle cx="332.5" cy="610" r="1.4" opacity="0.118"/><circle cx="548.6" cy="305.2" r="1.4" opacity="0.118"/><circle cx="596.6" cy="676.4" r="1.4" opacity="0.118"/><circle cx="309" cy="435.7" r="1.41" opacity="0.118"/><circle cx="684.3" cy="417.6" r="1.41" opacity="0.118"/><circle cx="420.3" cy="685.9" r="1.41" opacity="0.118"/><circle cx="432.4" cy="309" r="1.41" opacity="0.118"/><circle cx="679.5" cy="594.6" r="1.41" opacity="0.118"/><circle cx="303.5" cy="552.3" r="1.41" opacity="0.118"/><circle cx="609.1" cy="328.1" r="1.41" opacity="0.119"/><circle cx="536.5" cy="700.7" r="1.42" opacity="0.119"/><circle cx="336.8" cy="377" r="1.42" opacity="0.119"/><circle cx="703.7" cy="479.7" r="1.42" opacity="0.119"/><circle cx="363.9" cy="653.3" r="1.42" opacity="0.119"/><circle cx="496.1" cy="294.6" r="1.42" opacity="0.119"/><circle cx="642.4" cy="648.5" r="1.42" opacity="0.119"/><circle cx="294.3" cy="487.4" r="1.42" opacity="0.119"/><circle cx="660" cy="369.5" r="1.43" opacity="0.12"/><circle cx="470.9" cy="704.7" r="1.43" opacity="0.12"/><circle cx="382.4" cy="329.5" r="1.43" opacity="0.12"/><circle cx="702.4" cy="545.6" r="1.43" opacity="0.12"/><circle cx="320" cy="603.9" r="1.43" opacity="0.12"/><circle cx="561.9" cy="301.2" r="1.43" opacity="0.12"/><circle cx="589.4" cy="688.4" r="1.43" opacity="0.12"/><circle cx="306.2" cy="422.1" r="1.44" opacity="0.12"/><circle cx="695.6" cy="425.7" r="1.44" opacity="0.12"/><circle cx="406.5" cy="687.6" r="1.44" opacity="0.121"/><circle cx="441.4" cy="298.4" r="1.44" opacity="0.121"/><circle cx="680" cy="608.6" r="1.44" opacity="0.121"/><circle cx="293.7" cy="542.3" r="1.44" opacity="0.121"/><circle cx="623.1" cy="328.7" r="1.44" opacity="0.121"/><circle cx="525.7" cy="709.7" r="1.45" opacity="0.121"/><circle cx="338.6" cy="363.1" r="1.45" opacity="0.121"/><circle cx="711.8" cy="491.1" r="1.45" opacity="0.121"/><circle cx="350.1" cy="650.4" r="1.45" opacity="0.122"/><circle cx="508.2" cy="287.5" r="1.45" opacity="0.122"/><circle cx="638.3" cy="662" r="1.45" opacity="0.122"/><circle cx="288.2" cy="474.7" r="1.45" opacity="0.122"/><circle cx="673.1" cy="374.7" r="1.45" opacity="0.122"/><circle cx="457.7" cy="709.8" r="1.46" opacity="0.122"/><circle cx="388.7" cy="316.9" r="1.46" opacity="0.122"/><circle cx="706.3" cy="559.2" r="1.46" opacity="0.122"/><circle cx="307.9" cy="596.6" r="1.46" opacity="0.122"/><circle cx="575.8" cy="298.4" r="1.46" opacity="0.123"/><circle cx="581.1" cy="699.8" r="1.46" opacity="0.123"/><circle cx="304.6" cy="408" r="1.46" opacity="0.123"/><circle cx="706.3" cy="434.9" r="1.47" opacity="0.123"/><circle cx="392.3" cy="688" r="1.47" opacity="0.123"/><circle cx="451.6" cy="288.5" r="1.47" opacity="0.123"/><circle cx="679.3" cy="622.8" r="1.47" opacity="0.123"/><circle cx="284.6" cy="531.4" r="1.47" opacity="0.123"/><circle cx="637.2" cy="330.6" r="1.47" opacity="0.123"/><circle cx="514.1" cy="717.9" r="1.47" opacity="0.124"/><circle cx="341.7" cy="349.2" r="1.47" opacity="0.124"/><circle cx="719" cy="503.4" r="1.48" opacity="0.124"/><circle cx="336.5" cy="646.2" r="1.48" opacity="0.124"/><circle cx="521.1" cy="281.4" r="1.48" opacity="0.124"/><circle cx="633" cy="675.2" r="1.48" opacity="0.124"/><circle cx="283.1" cy="461.4" r="1.48" opacity="0.124"/><circle cx="685.9" cy="381.1" r="1.48" opacity="0.124"/><circle cx="443.9" cy="713.7" r="1.48" opacity="0.124"/><circle cx="396.1" cy="304.6" r="1.49" opacity="0.125"/><circle cx="709.1" cy="573.2" r="1.49" opacity="0.125"/><circle cx="296.3" cy="588.1" r="1.49" opacity="0.125"/><circle cx="590" cy="296.8" r="1.49" opacity="0.125"/><circle cx="571.7" cy="710.7" r="1.49" opacity="0.125"/><circle cx="304.1" cy="393.6" r="1.49" opacity="0.125"/><circle cx="716.4" cy="445.2" r="1.49" opacity="0.125"/><circle cx="377.9" cy="687.3" r="1.49" opacity="0.125"/><circle cx="462.7" cy="279.3" r="1.5" opacity="0.125"/><circle cx="677.4" cy="637.1" r="1.5" opacity="0.126"/><circle cx="276.4" cy="519.6" r="1.5" opacity="0.126"/><circle cx="651.3" cy="333.7" r="1.5" opacity="0.126"/><circle cx="501.6" cy="725.1" r="1.5" opacity="0.126"/><circle cx="345.9" cy="335.4" r="1.5" opacity="0.126"/><circle cx="725.2" cy="516.5" r="1.5" opacity="0.126"/><circle cx="323.1" cy="640.7" r="1.5" opacity="0.126"/><circle cx="534.6" cy="276.2" r="1.51" opacity="0.126"/><circle cx="626.5" cy="688.2" r="1.51" opacity="0.126"/><circle cx="279.1" cy="447.4" r="1.51" opacity="0.126"/><circle cx="698.3" cy="388.7" r="1.51" opacity="0.127"/><circle cx="429.6" cy="716.5" r="1.51" opacity="0.127"/><circle cx="404.7" cy="292.9" r="1.51" opacity="0.127"/><circle cx="710.8" cy="587.7" r="1.51" opacity="0.127"/><circle cx="285.3" cy="578.6" r="1.51" opacity="0.127"/><circle cx="604.7" cy="296.4" r="1.52" opacity="0.127"/><circle cx="561.3" cy="720.9" r="1.52" opacity="0.127"/><circle cx="304.9" cy="379" r="1.52" opacity="0.127"/><circle cx="725.7" cy="456.5" r="1.52" opacity="0.127"/><circle cx="363.4" cy="685.3" r="1.52" opacity="0.128"/><circle cx="474.7" cy="270.9" r="1.52" opacity="0.128"/><circle cx="674.2" cy="651.4" r="1.52" opacity="0.128"/><circle cx="269" cy="506.9" r="1.52" opacity="0.128"/><circle cx="665.4" cy="338.1" r="1.53" opacity="0.128"/><circle cx="488.3" cy="731.5" r="1.53" opacity="0.128"/><circle cx="351.5" cy="321.7" r="1.53" opacity="0.128"/><circle cx="730.4" cy="530.3" r="1.53" opacity="0.128"/><circle cx="309.9" cy="634.1" r="1.53" opacity="0.128"/><circle cx="548.8" cy="272.2" r="1.53" opacity="0.128"/><circle cx="618.8" cy="700.8" r="1.53" opacity="0.129"/><circle cx="276.2" cy="432.9" r="1.53" opacity="0.129"/><circle cx="710.2" cy="397.5" r="1.54" opacity="0.129"/><circle cx="414.9" cy="718.2" r="1.54" opacity="0.129"/><circle cx="414.4" cy="281.6" r="1.54" opacity="0.129"/><circle cx="711.3" cy="602.6" r="1.54" opacity="0.129"/><circle cx="274.9" cy="568" r="1.54" opacity="0.129"/><circle cx="619.5" cy="297.1" r="1.54" opacity="0.129"/><circle cx="549.8" cy="730.4" r="1.54" opacity="0.129"/><circle cx="306.9" cy="364.3" r="1.54" opacity="0.13"/><circle cx="734.3" cy="468.7" r="1.55" opacity="0.13"/><circle cx="348.8" cy="682.1" r="1.55" opacity="0.13"/><circle cx="487.6" cy="263.3" r="1.55" opacity="0.13"/><circle cx="669.8" cy="665.7" r="1.55" opacity="0.13"/><circle cx="262.5" cy="493.4" r="1.55" opacity="0.13"/><circle cx="679.3" cy="343.6" r="1.55" opacity="0.13"/><circle cx="474.3" cy="736.8" r="1.55" opacity="0.13"/><circle cx="358.1" cy="308.3" r="1.55" opacity="0.13"/><circle cx="734.6" cy="544.7" r="1.56" opacity="0.13"/><circle cx="297" cy="626.3" r="1.56" opacity="0.131"/><circle cx="563.6" cy="269.2" r="1.56" opacity="0.131"/><circle cx="609.9" cy="713" r="1.56" opacity="0.131"/><circle cx="274.5" cy="417.9" r="1.56" opacity="0.131"/><circle cx="721.7" cy="407.3" r="1.56" opacity="0.131"/><circle cx="399.8" cy="718.8" r="1.56" opacity="0.131"/><circle cx="425.2" cy="271" r="1.56" opacity="0.131"/><circle cx="710.5" cy="617.7" r="1.56" opacity="0.131"/><circle cx="265.2" cy="556.4" r="1.57" opacity="0.131"/><circle cx="634.5" cy="299.1" r="1.57" opacity="0.131"/><circle cx="537.5" cy="739.2" r="1.57" opacity="0.132"/><circle cx="310" cy="349.4" r="1.57" opacity="0.132"/><circle cx="742" cy="481.8" r="1.57" opacity="0.132"/><circle cx="334.3" cy="677.7" r="1.57" opacity="0.132"/><circle cx="501.3" cy="256.7" r="1.57" opacity="0.132"/><circle cx="664.2" cy="679.9" r="1.57" opacity="0.132"/><circle cx="257" cy="479.2" r="1.58" opacity="0.132"/><circle cx="692.9" cy="350.4" r="1.58" opacity="0.132"/><circle cx="459.7" cy="741.1" r="1.58" opacity="0.132"/><circle cx="366" cy="295.2" r="1.58" opacity="0.132"/><circle cx="737.7" cy="559.7" r="1.58" opacity="0.133"/><circle cx="284.6" cy="617.4" r="1.58" opacity="0.133"/><circle cx="578.8" cy="267.3" r="1.58" opacity="0.133"/><circle cx="600" cy="724.7" r="1.58" opacity="0.133"/><circle cx="273.9" cy="402.6" r="1.58" opacity="0.133"/><circle cx="732.5" cy="418.1" r="1.59" opacity="0.133"/><circle cx="384.5" cy="718.1" r="1.59" opacity="0.133"/><circle cx="436.9" cy="261.1" r="1.59" opacity="0.133"/><circle cx="708.6" cy="632.9" r="1.59" opacity="0.133"/><circle cx="256.2" cy="543.9" r="1.59" opacity="0.133"/><circle cx="649.6" cy="302.2" r="1.59" opacity="0.134"/><circle cx="524.2" cy="747.1" r="1.59" opacity="0.134"/><circle cx="314.4" cy="334.7" r="1.59" opacity="0.134"/><circle cx="748.8" cy="495.7" r="1.6" opacity="0.134"/><circle cx="319.9" cy="672.1" r="1.6" opacity="0.134"/><circle cx="515.7" cy="251.1" r="1.6" opacity="0.134"/><circle cx="657.5" cy="693.8" r="1.6" opacity="0.134"/><circle cx="252.6" cy="464.3" r="1.6" opacity="0.134"/><circle cx="706.3" cy="358.2" r="1.6" opacity="0.134"/><circle cx="444.5" cy="744.3" r="1.6" opacity="0.134"/><circle cx="375" cy="282.5" r="1.6" opacity="0.134"/><circle cx="739.6" cy="575.1" r="1.6" opacity="0.135"/><circle cx="272.7" cy="607.4" r="1.61" opacity="0.135"/><circle cx="594.3" cy="266.6" r="1.61" opacity="0.135"/><circle cx="589.1" cy="735.7" r="1.61" opacity="0.135"/><circle cx="274.4" cy="387" r="1.61" opacity="0.135"/><circle cx="742.7" cy="430" r="1.61" opacity="0.135"/><circle cx="369" cy="716.3" r="1.61" opacity="0.135"/><circle cx="449.5" cy="251.9" r="1.61" opacity="0.135"/><circle cx="705.5" cy="648.2" r="1.61" opacity="0.135"/><circle cx="248.1" cy="530.5" r="1.61" opacity="0.135"/><circle cx="664.6" cy="306.6" r="1.62" opacity="0.136"/><circle cx="510.2" cy="754.1" r="1.62" opacity="0.136"/><circle cx="320" cy="320" r="1.62" opacity="0.136"/><circle cx="754.6" cy="510.2" r="1.62" opacity="0.136"/><circle cx="305.7" cy="665.4" r="1.62" opacity="0.136"/><circle cx="530.7" cy="246.4" r="1.62" opacity="0.136"/><circle cx="649.6" cy="707.4" r="1.62" opacity="0.136"/><circle cx="249.2" cy="449" r="1.62" opacity="0.136"/><circle cx="719.2" cy="367.3" r="1.62" opacity="0.136"/><circle cx="428.9" cy="746.5" r="1.63" opacity="0.136"/><circle cx="385" cy="270.4" r="1.63" opacity="0.137"/><circle cx="740.5" cy="590.9" r="1.63" opacity="0.137"/><circle cx="261.4" cy="596.4" r="1.63" opacity="0.137"/><circle cx="610.1" cy="267.1" r="1.63" opacity="0.137"/><circle cx="577.1" cy="746.1" r="1.63" opacity="0.137"/><circle cx="276.2" cy="371.3" r="1.63" opacity="0.137"/><circle cx="752.1" cy="442.7" r="1.63" opacity="0.137"/><circle cx="353.4" cy="713.3" r="1.64" opacity="0.137"/><circle cx="463.1" cy="243.6" r="1.64" opacity="0.137"/><circle cx="701.2" cy="663.5" r="1.64" opacity="0.137"/><circle cx="240.9" cy="516.3" r="1.64" opacity="0.137"/><circle cx="679.5" cy="312.1" r="1.64" opacity="0.138"/><circle cx="495.5" cy="760.1" r="1.64" opacity="0.138"/><circle cx="326.8" cy="305.6" r="1.64" opacity="0.138"/><circle cx="759.5" cy="525.4" r="1.64" opacity="0.138"/><circle cx="291.8" cy="657.4" r="1.64" opacity="0.138"/><circle cx="546.3" cy="242.9" r="1.65" opacity="0.138"/><circle cx="640.5" cy="720.6" r="1.65" opacity="0.138"/><circle cx="246.9" cy="433.1" r="1.65" opacity="0.138"/><circle cx="731.6" cy="377.4" r="1.65" opacity="0.138"/><circle cx="412.9" cy="747.5" r="1.65" opacity="0.138"/><circle cx="396.1" cy="258.8" r="1.65" opacity="0.138"/><circle cx="740.2" cy="606.9" r="1.65" opacity="0.139"/><circle cx="250.7" cy="584.4" r="1.65" opacity="0.139"/><circle cx="626.1" cy="268.7" r="1.65" opacity="0.139"/><circle cx="564.2" cy="755.8" r="1.65" opacity="0.139"/><circle cx="279.1" cy="355.4" r="1.66" opacity="0.139"/><circle cx="760.6" cy="456.4" r="1.66" opacity="0.139"/><circle cx="337.9" cy="709" r="1.66" opacity="0.139"/><circle cx="477.4" cy="236.2" r="1.66" opacity="0.139"/><circle cx="695.8" cy="678.7" r="1.66" opacity="0.139"/><circle cx="234.6" cy="501.4" r="1.66" opacity="0.139"/><circle cx="694.3" cy="318.8" r="1.66" opacity="0.139"/><circle cx="480.1" cy="765.2" r="1.66" opacity="0.14"/><circle cx="334.7" cy="291.4" r="1.66" opacity="0.14"/><circle cx="763.2" cy="541.2" r="1.67" opacity="0.14"/><circle cx="278.4" cy="648.4" r="1.67" opacity="0.14"/><circle cx="562.3" cy="240.4" r="1.67" opacity="0.14"/><circle cx="630.4" cy="733.3" r="1.67" opacity="0.14"/><circle cx="245.7" cy="416.9" r="1.67" opacity="0.14"/><circle cx="743.5" cy="388.5" r="1.67" opacity="0.14"/><circle cx="396.6" cy="747.3" r="1.67" opacity="0.14"/><circle cx="408.2" cy="247.9" r="1.67" opacity="0.14"/><circle cx="738.7" cy="623.2" r="1.67" opacity="0.14"/><circle cx="240.8" cy="571.4" r="1.68" opacity="0.141"/><circle cx="642.2" cy="271.5" r="1.68" opacity="0.141"/><circle cx="550.5" cy="764.6" r="1.68" opacity="0.141"/><circle cx="283.2" cy="339.6" r="1.68" opacity="0.141"/><circle cx="768.4" cy="470.8" r="1.68" opacity="0.141"/><circle cx="322.4" cy="703.6" r="1.68" opacity="0.141"/><circle cx="492.4" cy="229.6" r="1.68" opacity="0.141"/><circle cx="689.1" cy="693.8" r="1.68" opacity="0.141"/><circle cx="229.4" cy="485.8" r="1.68" opacity="0.141"/><circle cx="708.7" cy="326.7" r="1.69" opacity="0.141"/><circle cx="464.1" cy="769.1" r="1.69" opacity="0.141"/><circle cx="343.7" cy="277.6" r="1.69" opacity="0.142"/><circle cx="765.9" cy="557.5" r="1.69" opacity="0.142"/><circle cx="265.4" cy="638.2" r="1.69" opacity="0.142"/><circle cx="578.8" cy="239" r="1.69" opacity="0.142"/><circle cx="619.2" cy="745.4" r="1.69" opacity="0.142"/><circle cx="245.7" cy="400.3" r="1.69" opacity="0.142"/><circle cx="754.7" cy="400.7" r="1.69" opacity="0.142"/><circle cx="380" cy="745.9" r="1.69" opacity="0.142"/><circle cx="421.3" cy="237.6" r="1.7" opacity="0.142"/><circle cx="736" cy="639.6" r="1.7" opacity="0.142"/><circle cx="231.7" cy="557.5" r="1.7" opacity="0.142"/><circle cx="658.3" cy="275.5" r="1.7" opacity="0.143"/><circle cx="535.9" cy="772.6" r="1.7" opacity="0.143"/><circle cx="288.6" cy="323.8" r="1.7" opacity="0.143"/><circle cx="775.1" cy="486.1" r="1.7" opacity="0.143"/><circle cx="307.1" cy="697" r="1.7" opacity="0.143"/><circle cx="508.2" cy="224.1" r="1.7" opacity="0.143"/><circle cx="681.2" cy="708.5" r="1.71" opacity="0.143"/><circle cx="225.1" cy="469.7" r="1.71" opacity="0.143"/><circle cx="722.8" cy="335.8" r="1.71" opacity="0.143"/><circle cx="447.6" cy="772" r="1.71" opacity="0.143"/><circle cx="353.9" cy="264.3" r="1.71" opacity="0.143"/><circle cx="767.5" cy="574.2" r="1.71" opacity="0.143"/><circle cx="252.9" cy="627" r="1.71" opacity="0.144"/><circle cx="595.6" cy="238.9" r="1.71" opacity="0.144"/><circle cx="607" cy="757" r="1.71" opacity="0.144"/><circle cx="246.9" cy="383.6" r="1.71" opacity="0.144"/><circle cx="765.2" cy="413.8" r="1.72" opacity="0.144"/><circle cx="363.4" cy="743.4" r="1.72" opacity="0.144"/><circle cx="435.3" cy="228.2" r="1.72" opacity="0.144"/><circle cx="732.1" cy="656" r="1.72" opacity="0.144"/><circle cx="223.4" cy="542.8" r="1.72" opacity="0.144"/><circle cx="674.4" cy="280.8" r="1.72" opacity="0.144"/><circle cx="520.5" cy="779.6" r="1.72" opacity="0.144"/><circle cx="295.1" cy="308.2" r="1.72" opacity="0.145"/><circle cx="780.9" cy="502" r="1.72" opacity="0.145"/><circle cx="292" cy="689.2" r="1.72" opacity="0.145"/><circle cx="524.5" cy="219.6" r="1.73" opacity="0.145"/><circle cx="672.3" cy="722.9" r="1.73" opacity="0.145"/><circle cx="222" cy="453" r="1.73" opacity="0.145"/><circle cx="736.4" cy="345.9" r="1.73" opacity="0.145"/><circle cx="430.7" cy="773.8" r="1.73" opacity="0.145"/><circle cx="365.1" cy="251.6" r="1.73" opacity="0.145"/><circle cx="767.9" cy="591.2" r="1.73" opacity="0.145"/><circle cx="241.1" cy="614.7" r="1.73" opacity="0.145"/><circle cx="612.6" cy="239.8" r="1.73" opacity="0.145"/><circle cx="593.8" cy="767.8" r="1.73" opacity="0.146"/><circle cx="249.3" cy="366.7" r="1.74" opacity="0.146"/><circle cx="774.9" cy="427.9" r="1.74" opacity="0.146"/><circle cx="346.7" cy="739.7" r="1.74" opacity="0.146"/><circle cx="450.1" cy="219.7" r="1.74" opacity="0.146"/><circle cx="727" cy="672.3" r="1.74" opacity="0.146"/><circle cx="216.1" cy="527.3" r="1.74" opacity="0.146"/><circle cx="690.3" cy="287.2" r="1.74" opacity="0.146"/><circle cx="504.5" cy="785.7" r="1.74" opacity="0.146"/><circle cx="302.8" cy="292.9" r="1.74" opacity="0.146"/><circle cx="785.6" cy="518.5" r="1.74" opacity="0.146"/><circle cx="277.4" cy="680.3" r="1.75" opacity="0.147"/><circle cx="541.4" cy="216.3" r="1.75" opacity="0.147"/><circle cx="662.1" cy="736.8" r="1.75" opacity="0.147"/><circle cx="220" cy="435.9" r="1.75" opacity="0.147"/><circle cx="749.5" cy="357.1" r="1.75" opacity="0.147"/><circle cx="413.5" cy="774.4" r="1.75" opacity="0.147"/><circle cx="377.4" cy="239.4" r="1.75" opacity="0.147"/><circle cx="767.1" cy="608.4" r="1.75" opacity="0.147"/><circle cx="229.9" cy="601.5" r="1.75" opacity="0.147"/><circle cx="629.7" cy="242" r="1.75" opacity="0.147"/><circle cx="579.7" cy="777.8" r="1.76" opacity="0.147"/><circle cx="252.9" cy="349.7" r="1.76" opacity="0.147"/><circle cx="783.8" cy="442.8" r="1.76" opacity="0.148"/><circle cx="330.1" cy="734.7" r="1.76" opacity="0.148"/><circle cx="465.7" cy="212" r="1.76" opacity="0.148"/><circle cx="720.7" cy="688.5" r="1.76" opacity="0.148"/><circle cx="209.7" cy="511.2" r="1.76" opacity="0.148"/><circle cx="705.9" cy="294.8" r="1.76" opacity="0.148"/><circle cx="487.8" cy="790.7" r="1.76" opacity="0.148"/><circle cx="311.6" cy="277.9" r="1.76" opacity="0.148"/><circle cx="789.3" cy="535.5" r="1.77" opacity="0.148"/><circle cx="263.1" cy="670.2" r="1.77" opacity="0.148"/><circle cx="558.7" cy="214" r="1.77" opacity="0.148"/><circle cx="650.9" cy="750.2" r="1.77" opacity="0.148"/><circle cx="219.1" cy="418.4" r="1.77" opacity="0.149"/><circle cx="762" cy="369.4" r="1.77" opacity="0.149"/><circle cx="396" cy="773.9" r="1.77" opacity="0.149"/><circle cx="390.6" cy="228" r="1.77" opacity="0.149"/><circle cx="765.1" cy="625.9" r="1.77" opacity="0.149"/><circle cx="219.6" cy="587.3" r="1.77" opacity="0.149"/><circle cx="647" cy="245.4" r="1.78" opacity="0.149"/><circle cx="564.7" cy="787" r="1.78" opacity="0.149"/><circle cx="257.6" cy="332.8" r="1.78" opacity="0.149"/><circle cx="791.7" cy="458.5" r="1.78" opacity="0.149"/><circle cx="313.6" cy="728.5" r="1.78" opacity="0.149"/><circle cx="482" cy="205.4" r="1.78" opacity="0.149"/><circle cx="713.2" cy="704.5" r="1.78" opacity="0.15"/><circle cx="204.4" cy="494.3" r="1.78" opacity="0.15"/><circle cx="721.3" cy="303.5" r="1.78" opacity="0.15"/><circle cx="470.6" cy="794.7" r="1.78" opacity="0.15"/><circle cx="321.6" cy="263.3" r="1.79" opacity="0.15"/><circle cx="791.8" cy="553" r="1.79" opacity="0.15"/><circle cx="249.3" cy="659.1" r="1.79" opacity="0.15"/><circle cx="576.4" cy="212.9" r="1.79" opacity="0.15"/><circle cx="638.7" cy="763" r="1.79" opacity="0.15"/><circle cx="219.5" cy="400.7" r="1.79" opacity="0.15"/><circle cx="773.7" cy="382.7" r="1.79" opacity="0.15"/><circle cx="378.3" cy="772.1" r="1.79" opacity="0.15"/><circle cx="404.8" cy="217.3" r="1.79" opacity="0.15"/><circle cx="761.9" cy="643.4" r="1.79" opacity="0.151"/><circle cx="210.1" cy="572.3" r="1.8" opacity="0.151"/><circle cx="664.2" cy="250.1" r="1.8" opacity="0.151"/><circle cx="548.9" cy="795.3" r="1.8" opacity="0.151"/><circle cx="263.7" cy="316" r="1.8" opacity="0.151"/><circle cx="798.7" cy="474.9" r="1.8" opacity="0.151"/><circle cx="297.3" cy="721.2" r="1.8" opacity="0.151"/><circle cx="499" cy="199.8" r="1.8" opacity="0.151"/><circle cx="704.5" cy="720.1" r="1.8" opacity="0.151"/><circle cx="200.2" cy="476.9" r="1.8" opacity="0.151"/><circle cx="736.2" cy="313.5" r="1.8" opacity="0.151"/><circle cx="452.9" cy="797.5" r="1.8" opacity="0.151"/><circle cx="332.7" cy="249.2" r="1.81" opacity="0.152"/><circle cx="793.2" cy="570.9" r="1.81" opacity="0.152"/><circle cx="236.2" cy="646.8" r="1.81" opacity="0.152"/><circle cx="594.4" cy="213" r="1.81" opacity="0.152"/><circle cx="625.4" cy="775.2" r="1.81" opacity="0.152"/><circle cx="221" cy="382.7" r="1.81" opacity="0.152"/><circle cx="784.8" cy="396.9" r="1.81" opacity="0.152"/><circle cx="360.5" cy="769.1" r="1.81" opacity="0.152"/><circle cx="420" cy="207.4" r="1.81" opacity="0.152"/><circle cx="757.4" cy="660.9" r="1.81" opacity="0.152"/><circle cx="201.5" cy="556.4" r="1.82" opacity="0.152"/><circle cx="681.3" cy="255.9" r="1.82" opacity="0.152"/><circle cx="532.3" cy="802.6" r="1.82" opacity="0.152"/><circle cx="270.9" cy="299.4" r="1.82" opacity="0.153"/><circle cx="804.7" cy="492" r="1.82" opacity="0.153"/><circle cx="281.3" cy="712.6" r="1.82" opacity="0.153"/><circle cx="516.5" cy="195.2" r="1.82" opacity="0.153"/><circle cx="694.7" cy="735.4" r="1.82" opacity="0.153"/><circle cx="197.1" cy="459" r="1.82" opacity="0.153"/><circle cx="750.6" cy="324.5" r="1.82" opacity="0.153"/><circle cx="434.8" cy="799.1" r="1.82" opacity="0.153"/><circle cx="344.9" cy="235.7" r="1.83" opacity="0.153"/><circle cx="793.4" cy="589.1" r="1.83" opacity="0.153"/><circle cx="223.7" cy="633.6" r="1.83" opacity="0.153"/><circle cx="612.6" cy="214.3" r="1.83" opacity="0.153"/><circle cx="611.1" cy="786.5" r="1.83" opacity="0.154"/><circle cx="223.8" cy="364.7" r="1.83" opacity="0.154"/><circle cx="795" cy="412.1" r="1.83" opacity="0.154"/><circle cx="342.7" cy="764.9" r="1.83" opacity="0.154"/><circle cx="435.9" cy="198.5" r="1.83" opacity="0.154"/><circle cx="751.8" cy="678.3" r="1.83" opacity="0.154"/><circle cx="193.8" cy="539.8" r="1.84" opacity="0.154"/><circle cx="698.2" cy="263" r="1.84" opacity="0.154"/><circle cx="515.1" cy="808.8" r="1.84" opacity="0.154"/><circle cx="279.3" cy="283.1" r="1.84" opacity="0.154"/><circle cx="809.5" cy="509.7" r="1.84" opacity="0.154"/><circle cx="265.7" cy="702.9" r="1.84" opacity="0.154"/><circle cx="534.6" cy="191.8" r="1.84" opacity="0.154"/><circle cx="683.7" cy="750.1" r="1.84" opacity="0.155"/><circle cx="195.1" cy="440.7" r="1.84" opacity="0.155"/><circle cx="764.5" cy="336.7" r="1.84" opacity="0.155"/><circle cx="416.3" cy="799.6" r="1.84" opacity="0.155"/><circle cx="358.2" cy="222.9" r="1.85" opacity="0.155"/><circle cx="792.4" cy="607.6" r="1.85" opacity="0.155"/><circle cx="212" cy="619.3" r="1.85" opacity="0.155"/><circle cx="630.9" cy="216.8" r="1.85" opacity="0.155"/><circle cx="596" cy="797.1" r="1.85" opacity="0.155"/><circle cx="227.8" cy="346.6" r="1.85" opacity="0.155"/><circle cx="804.3" cy="428.1" r="1.85" opacity="0.155"/><circle cx="325" cy="759.4" r="1.85" opacity="0.155"/><circle cx="452.6" cy="190.5" r="1.85" opacity="0.155"/><circle cx="744.9" cy="695.5" r="1.85" opacity="0.156"/><circle cx="187.2" cy="522.4" r="1.85" opacity="0.156"/><circle cx="714.8" cy="271.2" r="1.86" opacity="0.156"/><circle cx="497.3" cy="814.1" r="1.86" opacity="0.156"/><circle cx="288.9" cy="267.2" r="1.86" opacity="0.156"/><circle cx="813.3" cy="528" r="1.86" opacity="0.156"/><circle cx="250.6" cy="692" r="1.86" opacity="0.156"/><circle cx="553.1" cy="189.5" r="1.86" opacity="0.156"/><circle cx="671.7" cy="764.4" r="1.86" opacity="0.156"/><circle cx="194.3" cy="422.1" r="1.86" opacity="0.156"/><circle cx="777.7" cy="349.9" r="1.86" opacity="0.156"/><circle cx="397.7" cy="798.9" r="1.86" opacity="0.156"/><circle cx="372.4" cy="210.8" r="1.86" opacity="0.156"/><circle cx="790.1" cy="626.1" r="1.87" opacity="0.157"/><circle cx="201" cy="604.1" r="1.87" opacity="0.157"/><circle cx="649.2" cy="220.5" r="1.87" opacity="0.157"/><circle cx="579.9" cy="806.8" r="1.87" opacity="0.157"/><circle cx="233" cy="328.6" r="1.87" opacity="0.157"/><circle cx="812.7" cy="444.9" r="1.87" opacity="0.157"/><circle cx="307.5" cy="752.7" r="1.87" opacity="0.157"/><circle cx="470.1" cy="183.5" r="1.87" opacity="0.157"/><circle cx="736.8" cy="712.5" r="1.87" opacity="0.157"/><circle cx="181.6" cy="504.4" r="1.87" opacity="0.157"/><circle cx="731.1" cy="280.7" r="1.87" opacity="0.157"/><circle cx="478.9" cy="818.1" r="1.88" opacity="0.157"/><circle cx="299.6" cy="251.7" r="1.88" opacity="0.157"/><circle cx="815.9" cy="546.6" r="1.88" opacity="0.158"/><circle cx="236" cy="680.1" r="1.88" opacity="0.158"/><circle cx="571.9" cy="188.4" r="1.88" opacity="0.158"/><circle cx="658.5" cy="777.9" r="1.88" opacity="0.158"/><circle cx="194.8" cy="403.2" r="1.88" opacity="0.158"/><circle cx="790.2" cy="364.1" r="1.88" opacity="0.158"/><circle cx="378.8" cy="796.9" r="1.88" opacity="0.158"/><circle cx="387.6" cy="199.4" r="1.88" opacity="0.158"/><circle cx="786.6" cy="644.8" r="1.88" opacity="0.158"/><circle cx="191" cy="588" r="1.89" opacity="0.158"/><circle cx="667.5" cy="225.5" r="1.89" opacity="0.158"/><circle cx="563" cy="815.5" r="1.89" opacity="0.158"/><circle cx="239.5" cy="310.7" r="1.89" opacity="0.158"/><circle cx="820" cy="462.4" r="1.89" opacity="0.159"/><circle cx="290.2" cy="744.8" r="1.89" opacity="0.159"/><circle cx="488.2" cy="177.6" r="1.89" opacity="0.159"/><circle cx="727.5" cy="729.1" r="1.89" opacity="0.159"/><circle cx="177.2" cy="485.9" r="1.89" opacity="0.159"/><circle cx="747" cy="291.3" r="1.89" opacity="0.159"/><circle cx="460" cy="821.1" r="1.89" opacity="0.159"/><circle cx="311.5" cy="236.7" r="1.9" opacity="0.159"/><circle cx="817.3" cy="565.7" r="1.9" opacity="0.159"/><circle cx="222.1" cy="667" r="1.9" opacity="0.159"/><circle cx="591.1" cy="188.6" r="1.9" opacity="0.159"/><circle cx="644.4" cy="790.8" r="1.9" opacity="0.159"/><circle cx="196.5" cy="384.1" r="1.9" opacity="0.159"/><circle cx="801.9" cy="379.3" r="1.9" opacity="0.16"/><circle cx="359.9" cy="793.6" r="1.9" opacity="0.16"/><circle cx="403.7" cy="189" r="1.9" opacity="0.16"/><circle cx="781.8" cy="663.4" r="1.9" opacity="0.16"/><circle cx="181.9" cy="571.1" r="1.9" opacity="0.16"/><circle cx="685.7" cy="231.8" r="1.9" opacity="0.16"/><circle cx="545.4" cy="823.3" r="1.91" opacity="0.16"/><circle cx="247.2" cy="293.1" r="1.91" opacity="0.16"/><circle cx="826.3" cy="480.6" r="1.91" opacity="0.16"/><circle cx="273.2" cy="735.7" r="1.91" opacity="0.16"/><circle cx="506.9" cy="172.8" r="1.91" opacity="0.16"/><circle cx="717" cy="745.3" r="1.91" opacity="0.16"/><circle cx="173.9" cy="466.9" r="1.91" opacity="0.16"/><circle cx="762.3" cy="303.1" r="1.91" opacity="0.16"/><circle cx="440.8" cy="822.8" r="1.91" opacity="0.161"/><circle cx="324.5" cy="222.4" r="1.91" opacity="0.161"/><circle cx="817.4" cy="585.1" r="1.91" opacity="0.161"/><circle cx="208.8" cy="652.9" r="1.92" opacity="0.161"/><circle cx="610.4" cy="190" r="1.92" opacity="0.161"/><circle cx="629.2" cy="802.9" r="1.92" opacity="0.161"/><circle cx="199.4" cy="364.9" r="1.92" opacity="0.161"/><circle cx="812.7" cy="395.4" r="1.92" opacity="0.161"/><circle cx="341" cy="789.1" r="1.92" opacity="0.161"/><circle cx="420.7" cy="179.5" r="1.92" opacity="0.161"/><circle cx="775.8" cy="681.9" r="1.92" opacity="0.161"/><circle cx="173.7" cy="553.4" r="1.92" opacity="0.161"/><circle cx="703.7" cy="239.3" r="1.92" opacity="0.161"/><circle cx="527.1" cy="829.9" r="1.92" opacity="0.162"/><circle cx="256.2" cy="275.8" r="1.93" opacity="0.162"/><circle cx="831.5" cy="499.4" r="1.93" opacity="0.162"/><circle cx="256.6" cy="725.4" r="1.93" opacity="0.162"/><circle cx="526" cy="169.1" r="1.93" opacity="0.162"/><circle cx="705.4" cy="761" r="1.93" opacity="0.162"/><circle cx="171.8" cy="447.4" r="1.93" opacity="0.162"/><circle cx="777" cy="316" r="1.93" opacity="0.162"/><circle cx="421.2" cy="823.3" r="1.93" opacity="0.162"/><circle cx="338.6" cy="208.8" r="1.93" opacity="0.162"/><circle cx="816.4" cy="604.6" r="1.93" opacity="0.162"/><circle cx="196.4" cy="637.7" r="1.93" opacity="0.162"/><circle cx="629.8" cy="192.7" r="1.93" opacity="0.162"/><circle cx="613.1" cy="814.1" r="1.94" opacity="0.162"/><circle cx="203.7" cy="345.7" r="1.94" opacity="0.163"/><circle cx="822.6" cy="412.4" r="1.94" opacity="0.163"/><circle cx="322.2" cy="783.4" r="1.94" opacity="0.163"/><circle cx="438.4" cy="171" r="1.94" opacity="0.163"/><circle cx="768.5" cy="700.2" r="1.94" opacity="0.163"/><circle cx="166.7" cy="535" r="1.94" opacity="0.163"/><circle cx="721.3" cy="248.1" r="1.94" opacity="0.163"/><circle cx="508.2" cy="835.5" r="1.94" opacity="0.163"/><circle cx="266.3" cy="258.9" r="1.94" opacity="0.163"/><circle cx="835.5" cy="518.8" r="1.94" opacity="0.163"/><circle cx="240.6" cy="713.9" r="1.94" opacity="0.163"/><circle cx="545.7" cy="166.7" r="1.95" opacity="0.163"/><circle cx="692.6" cy="776.1" r="1.95" opacity="0.163"/><circle cx="171" cy="427.7" r="1.95" opacity="0.163"/><circle cx="791" cy="329.9" r="1.95" opacity="0.164"/><circle cx="401.4" cy="822.5" r="1.95" opacity="0.164"/><circle cx="353.6" cy="195.9" r="1.95" opacity="0.164"/><circle cx="814" cy="624.3" r="1.95" opacity="0.164"/><circle cx="184.7" cy="621.7" r="1.95" opacity="0.164"/><circle cx="649.3" cy="196.6" r="1.95" opacity="0.164"/><circle cx="596.1" cy="824.4" r="1.95" opacity="0.164"/><circle cx="209.2" cy="326.6" r="1.95" opacity="0.164"/><circle cx="831.5" cy="430.1" r="1.96" opacity="0.164"/><circle cx="303.6" cy="776.3" r="1.96" opacity="0.164"/><circle cx="456.9" cy="163.6" r="1.96" opacity="0.164"/><circle cx="760" cy="718.2" r="1.96" opacity="0.164"/><circle cx="160.8" cy="516" r="1.96" opacity="0.164"/><circle cx="738.6" cy="258" r="1.96" opacity="0.164"/><circle cx="488.7" cy="839.9" r="1.96" opacity="0.165"/><circle cx="277.7" cy="242.4" r="1.96" opacity="0.165"/><circle cx="838.3" cy="538.5" r="1.96" opacity="0.165"/><circle cx="225.1" cy="701.2" r="1.96" opacity="0.165"/><circle cx="565.6" cy="165.5" r="1.96" opacity="0.165"/><circle cx="678.7" cy="790.5" r="1.96" opacity="0.165"/><circle cx="171.4" cy="407.6" r="1.97" opacity="0.165"/><circle cx="804.3" cy="345" r="1.97" opacity="0.165"/><circle cx="381.4" cy="820.5" r="1.97" opacity="0.165"/><circle cx="369.7" cy="183.9" r="1.97" opacity="0.165"/><circle cx="810.4" cy="644.1" r="1.97" opacity="0.165"/><circle cx="174" cy="604.7" r="1.97" opacity="0.165"/><circle cx="668.7" cy="201.8" r="1.97" opacity="0.165"/><circle cx="578.3" cy="833.7" r="1.97" opacity="0.165"/><circle cx="216" cy="307.7" r="1.97" opacity="0.166"/><circle cx="839.3" cy="448.7" r="1.97" opacity="0.166"/><circle cx="285.3" cy="768" r="1.97" opacity="0.166"/><circle cx="476" cy="157.2" r="1.97" opacity="0.166"/><circle cx="750.2" cy="735.8" r="1.98" opacity="0.166"/><circle cx="156" cy="496.4" r="1.98" opacity="0.166"/><circle cx="755.4" cy="269.2" r="1.98" opacity="0.166"/><circle cx="468.8" cy="843" r="1.98" opacity="0.166"/><circle cx="290.2" cy="226.6" r="1.98" opacity="0.166"/><circle cx="839.9" cy="558.7" r="1.98" opacity="0.166"/><circle cx="210.3" cy="687.4" r="1.98" opacity="0.166"/><circle cx="585.9" cy="165.5" r="1.98" opacity="0.166"/><circle cx="663.8" cy="804.2" r="1.98" opacity="0.166"/><circle cx="173.1" cy="387.4" r="1.98" opacity="0.166"/><circle cx="816.8" cy="361" r="1.98" opacity="0.167"/><circle cx="361.4" cy="817.2" r="1.98" opacity="0.167"/><circle cx="386.7" cy="172.7" r="1.99" opacity="0.167"/><circle cx="805.4" cy="663.8" r="1.99" opacity="0.167"/><circle cx="164.3" cy="586.8" r="1.99" opacity="0.167"/><circle cx="688" cy="208.4" r="1.99" opacity="0.167"/><circle cx="559.7" cy="842" r="1.99" opacity="0.167"/><circle cx="224" cy="289" r="1.99" opacity="0.167"/><circle cx="846.1" cy="467.9" r="1.99" opacity="0.167"/><circle cx="267.3" cy="758.5" r="1.99" opacity="0.167"/><circle cx="495.7" cy="152" r="1.99" opacity="0.167"/><circle cx="739.2" cy="753" r="1.99" opacity="0.167"/><circle cx="152.4" cy="476.3" r="1.99" opacity="0.167"/><circle cx="771.7" cy="281.6" r="1.99" opacity="0.167"/><circle cx="448.4" cy="845" r="2" opacity="0.167"/><circle cx="303.8" cy="211.3" r="2" opacity="0.168"/><circle cx="840.2" cy="579.2" r="2" opacity="0.168"/><circle cx="196.2" cy="672.6" r="2" opacity="0.168"/><circle cx="606.3" cy="166.9" r="2" opacity="0.168"/><circle cx="647.9" cy="817.1" r="2" opacity="0.168"/><circle cx="176.1" cy="367.2" r="2" opacity="0.168"/><circle cx="828.3" cy="377.9" r="2" opacity="0.168"/><circle cx="341.4" cy="812.6" r="2" opacity="0.168"/><circle cx="404.5" cy="162.6" r="2" opacity="0.168"/><circle cx="799.2" cy="683.3" r="2" opacity="0.168"/><circle cx="155.6" cy="568.2" r="2" opacity="0.168"/><circle cx="707" cy="216.2" r="2.01" opacity="0.168"/><circle cx="540.4" cy="849.2" r="2.01" opacity="0.168"/><circle cx="233.4" cy="270.7" r="2.01" opacity="0.168"/><circle cx="851.7" cy="487.7" r="2.01" opacity="0.169"/><circle cx="249.7" cy="747.7" r="2.01" opacity="0.169"/><circle cx="516" cy="148" r="2.01" opacity="0.169"/><circle cx="727.1" cy="769.7" r="2.01" opacity="0.169"/><circle cx="150.1" cy="455.8" r="2.01" opacity="0.169"/><circle cx="787.3" cy="295.1" r="2.01" opacity="0.169"/><circle cx="427.8" cy="845.7" r="2.01" opacity="0.169"/><circle cx="318.5" cy="196.8" r="2.01" opacity="0.169"/><circle cx="839.2" cy="599.8" r="2.01" opacity="0.169"/><circle cx="182.9" cy="656.7" r="2.01" opacity="0.169"/><circle cx="626.8" cy="169.6" r="2.02" opacity="0.169"/><circle cx="630.9" cy="829.1" r="2.02" opacity="0.169"/><circle cx="180.4" cy="346.9" r="2.02" opacity="0.169"/><circle cx="838.9" cy="395.7" r="2.02" opacity="0.169"/><circle cx="321.5" cy="806.6" r="2.02" opacity="0.169"/><circle cx="423.2" cy="153.4" r="2.02" opacity="0.17"/><circle cx="791.6" cy="702.7" r="2.02" opacity="0.17"/><circle cx="148" cy="548.8" r="2.02" opacity="0.17"/><circle cx="725.7" cy="225.2" r="2.02" opacity="0.17"/><circle cx="520.5" cy="855.2" r="2.02" opacity="0.17"/><circle cx="243.9" cy="252.7" r="2.02" opacity="0.17"/><circle cx="856.1" cy="508.1" r="2.02" opacity="0.17"/><circle cx="232.7" cy="735.7" r="2.03" opacity="0.17"/><circle cx="536.7" cy="145.3" r="2.03" opacity="0.17"/><circle cx="713.7" cy="785.7" r="2.03" opacity="0.17"/><circle cx="149" cy="434.9" r="2.03" opacity="0.17"/><circle cx="802.3" cy="309.7" r="2.03" opacity="0.17"/><circle cx="406.9" cy="845.1" r="2.03" opacity="0.17"/><circle cx="334.3" cy="183.1" r="2.03" opacity="0.17"/><circle cx="836.9" cy="620.6" r="2.03" opacity="0.171"/><circle cx="170.5" cy="639.9" r="2.03" opacity="0.171"/><circle cx="647.4" cy="173.5" r="2.03" opacity="0.171"/><circle cx="613.1" cy="840.1" r="2.03" opacity="0.171"/><circle cx="186.1" cy="326.7" r="2.03" opacity="0.171"/><circle cx="848.4" cy="414.4" r="2.04" opacity="0.171"/><circle cx="301.9" cy="799.4" r="2.04" opacity="0.171"/><circle cx="442.6" cy="145.4" r="2.04" opacity="0.171"/><circle cx="782.8" cy="721.8" r="2.04" opacity="0.171"/><circle cx="141.6" cy="528.8" r="2.04" opacity="0.171"/><circle cx="744" cy="235.6" r="2.04" opacity="0.171"/></g></svg>