<svg xmlns="http://www.w3.org/2000/svg" viewBox="0 0 1000 1000" preserveAspectRatio="xMidYMid slice" fill="none" stroke-linecap="round" stroke-linejoin="round"><g fill="#0f3d2e"><circle cx="497.9" cy="512.8" r="0.65" opacity="0.054"/><circle cx="482.6" cy="494" r="0.67" opacity="0.056"/><circle cx="510.7" cy="480.2" r="0.69" opacity="0.058"/><circle cx="520.5" cy="516" r="0.7" opacity="0.059"/><circle cx="478.6" cy="519.6" r="0.72" opacity="0.06"/><circle cx="482.7" cy="473.3" r="0.73" opacity="0.061"/><circle cx="531.5" cy="486.3" r="0.74" opacity="0.062"/><circle cx="508.9" cy="535.7" r="0.75" opacity="0.062"/><circle cx="461.1" cy="503.1" r="0.76" opacity="0.063"/><circle cx="503.6" cy="459" r="0.76" opacity="0.064"/><circle cx="541.7" cy="510.8" r="0.77" opacity="0.065"/><circle cx="481.7" cy="541.1" r="0.78" opacity="0.065"/><circle cx="460.9" cy="474.1" r="0.79" opacity="0.066"/><circle cx="533.2" cy="464.4" r="0.79" opacity="0.066"/><circle cx="530.7" cy="539.9" r="0.8" opacity="0.067"/><circle cx="454.1" cy="524.4" r="0.81" opacity="0.068"/><circle cx="483" cy="449.2" r="0.81" opacity="0.068"/><circle cx="554.5" cy="491.4" r="0.82" opacity="0.069"/><circle cx="499.5" cy="556.7" r="0.83" opacity="0.069"/><circle cx="442.7" cy="489.9" r="0.83" opacity="0.07"/><circle cx="519.9" cy="443.8" r="0.84" opacity="0.07"/><circle cx="553.3" cy="529.6" r="0.84" opacity="0.071"/><circle cx="461.2" cy="548.8" r="0.85" opacity="0.071"/><circle cx="457.4" cy="452.7" r="0.85" opacity="0.071"/><circle cx="554.8" cy="465.1" r="0.86" opacity="0.072"/><circle cx="525.9" cy="561" r="0.87" opacity="0.072"/><circle cx="434.3" cy="515.8" r="0.87" opacity="0.073"/><circle cx="495.2" cy="431.4" r="0.88" opacity="0.073"/><circle cx="569.7" cy="506.7" r="0.88" opacity="0.074"/><circle cx="481.6" cy="568.8" r="0.88" opacity="0.074"/><circle cx="434.1" cy="470" r="0.89" opacity="0.074"/><circle cx="541.1" cy="439" r="0.89" opacity="0.075"/><circle cx="554.2" cy="551.4" r="0.9" opacity="0.075"/><circle cx="439.5" cy="545.6" r="0.9" opacity="0.076"/><circle cx="464.5" cy="431.8" r="0.91" opacity="0.076"/><circle cx="574.2" cy="475.9" r="0.91" opacity="0.076"/><circle cx="511.7" cy="578.2" r="0.92" opacity="0.077"/><circle cx="419.9" cy="498.6" r="0.92" opacity="0.077"/><circle cx="514.8" cy="420.2" r="0.92" opacity="0.077"/><circle cx="577.3" cy="528.1" r="0.93" opacity="0.078"/><circle cx="459" cy="572.4" r="0.93" opacity="0.078"/><circle cx="434.5" cy="447" r="0.94" opacity="0.078"/><circle cx="563.8" cy="443.5" r="0.94" opacity="0.079"/><circle cx="545.7" cy="573.1" r="0.94" opacity="0.079"/><circle cx="419.4" cy="533.4" r="0.95" opacity="0.079"/><circle cx="480.2" cy="414.1" r="0.95" opacity="0.08"/><circle cx="589" cy="494.6" r="0.96" opacity="0.08"/><circle cx="490.6" cy="589.6" r="0.96" opacity="0.08"/><circle cx="412.3" cy="475.7" r="0.96" opacity="0.081"/><circle cx="538.8" cy="416.7" r="0.97" opacity="0.081"/><circle cx="576.5" cy="552.6" r="0.97" opacity="0.081"/><circle cx="434.9" cy="567.4" r="0.97" opacity="0.082"/><circle cx="443.7" cy="423.9" r="0.98" opacity="0.082"/><circle cx="585.1" cy="456.6" r="0.98" opacity="0.082"/><circle cx="529" cy="591.9" r="0.99" opacity="0.082"/><circle cx="403.7" cy="513.5" r="0.99" opacity="0.083"/><circle cx="502.6" cy="401.9" r="0.99" opacity="0.083"/><circle cx="597.2" cy="518.9" r="1" opacity="0.083"/><circle cx="465" cy="593.5" r="1" opacity="0.084"/><circle cx="412.8" cy="449.7" r="1" opacity="0.084"/><circle cx="564.6" cy="421.7" r="1.01" opacity="0.084"/><circle cx="567.2" cy="577.3" r="1.01" opacity="0.084"/><circle cx="412" cy="553.9" r="1.01" opacity="0.085"/><circle cx="461" cy="403.6" r="1.02" opacity="0.085"/><circle cx="602.3" cy="477.3" r="1.02" opacity="0.085"/><circle cx="505.5" cy="605.5" r="1.02" opacity="0.086"/><circle cx="394.3" cy="488" r="1.03" opacity="0.086"/><circle cx="529.5" cy="397" r="1.03" opacity="0.086"/><circle cx="597.5" cy="546.5" r="1.03" opacity="0.086"/><circle cx="437.6" cy="589.1" r="1.04" opacity="0.087"/><circle cx="421.9" cy="423.2" r="1.04" opacity="0.087"/><circle cx="589.2" cy="435.2" r="1.04" opacity="0.087"/><circle cx="549.6" cy="599.4" r="1.04" opacity="0.087"/><circle cx="393.1" cy="532.7" r="1.05" opacity="0.088"/><circle cx="485.3" cy="388.4" r="1.05" opacity="0.088"/><circle cx="613.3" cy="504" r="1.05" opacity="0.088"/><circle cx="477.3" cy="611.8" r="1.06" opacity="0.088"/><circle cx="392.8" cy="458.9" r="1.06" opacity="0.089"/><circle cx="558.6" cy="400.4" r="1.06" opacity="0.089"/><circle cx="589.1" cy="574.7" r="1.07" opacity="0.089"/><circle cx="411" cy="576" r="1.07" opacity="0.089"/><circle cx="439.4" cy="399.1" r="1.07" opacity="0.09"/><circle cx="610.2" cy="456.6" r="1.07" opacity="0.09"/><circle cx="524.8" cy="616.5" r="1.08" opacity="0.09"/><circle cx="380.3" cy="505.2" r="1.08" opacity="0.09"/><circle cx="514.7" cy="380.3" r="1.08" opacity="0.091"/><circle cx="616.3" cy="534.4" r="1.09" opacity="0.091"/><circle cx="446.5" cy="609.6" r="1.09" opacity="0.091"/><circle cx="400.2" cy="428.8" r="1.09" opacity="0.091"/><circle cx="587.2" cy="412.8" r="1.09" opacity="0.092"/><circle cx="572" cy="601" r="1.1" opacity="0.092"/><circle cx="387.9" cy="554.7" r="1.1" opacity="0.092"/><circle cx="464.4" cy="379.8" r="1.1" opacity="0.092"/><circle cx="625.1" cy="484.6" r="1.1" opacity="0.092"/><circle cx="494.5" cy="626.6" r="1.11" opacity="0.093"/><circle cx="375.4" cy="473.5" r="1.11" opacity="0.093"/><circle cx="546.9" cy="380.9" r="1.11" opacity="0.093"/><circle cx="610.3" cy="566.3" r="1.11" opacity="0.093"/><circle cx="416" cy="598.4" r="1.12" opacity="0.094"/><circle cx="416.4" cy="400.4" r="1.12" opacity="0.094"/><circle cx="612.6" cy="433.7" r="1.12" opacity="0.094"/><circle cx="547.1" cy="622.6" r="1.13" opacity="0.094"/><circle cx="370.7" cy="526.3" r="1.13" opacity="0.094"/><circle cx="495.4" cy="367.5" r="1.13" opacity="0.095"/><circle cx="632.1" cy="517.4" r="1.13" opacity="0.095"/><circle cx="460.9" cy="628" r="1.14" opacity="0.095"/><circle cx="379.7" cy="440" r="1.14" opacity="0.095"/><circle cx="579.4" cy="390.7" r="1.14" opacity="0.096"/><circle cx="595.1" cy="596.8" r="1.14" opacity="0.096"/><circle cx="388.3" cy="578.2" r="1.15" opacity="0.096"/><circle cx="441" cy="376.4" r="1.15" opacity="0.096"/><circle cx="632.2" cy="462.1" r="1.15" opacity="0.096"/><circle cx="515.6" cy="637.3" r="1.15" opacity="0.097"/><circle cx="361.4" cy="492.7" r="1.16" opacity="0.097"/><circle cx="530.2" cy="363.9" r="1.16" opacity="0.097"/><circle cx="629.8" cy="552.5" r="1.16" opacity="0.097"/><circle cx="426.5" cy="619.9" r="1.16" opacity="0.097"/><circle cx="393.4" cy="407.4" r="1.16" opacity="0.098"/><circle cx="609.4" cy="409.8" r="1.17" opacity="0.098"/><circle cx="571.2" cy="623.3" r="1.17" opacity="0.098"/><circle cx="366.1" cy="550.1" r="1.17" opacity="0.098"/><circle cx="472.6" cy="359" r="1.17" opacity="0.098"/><circle cx="644.1" cy="496.2" r="1.18" opacity="0.099"/><circle cx="479.9" cy="643.4" r="1.18" opacity="0.099"/><circle cx="361.4" cy="456.3" r="1.18" opacity="0.099"/><circle cx="566.2" cy="370" r="1.18" opacity="0.099"/><circle cx="617.8" cy="587.1" r="1.19" opacity="0.099"/><circle cx="394.2" cy="602.2" r="1.19" opacity="0.1"/><circle cx="416.4" cy="378.3" r="1.19" opacity="0.1"/><circle cx="634.3" cy="437.4" r="1.19" opacity="0.1"/><circle cx="539.8" cy="643.4" r="1.2" opacity="0.1"/><circle cx="351.5" cy="515.6" r="1.2" opacity="0.1"/><circle cx="509.2" cy="350.4" r="1.2" opacity="0.101"/><circle cx="646.6" cy="533.9" r="1.2" opacity="0.101"/><circle cx="442.2" cy="639.5" r="1.2" opacity="0.101"/><circle cx="371.4" cy="419.7" r="1.21" opacity="0.101"/><circle cx="600.8" cy="386" r="1.21" opacity="0.101"/><circle cx="596.1" cy="618.7" r="1.21" opacity="0.101"/><circle cx="366.6" cy="575.5" r="1.21" opacity="0.102"/><circle cx="447.4" cy="355.5" r="1.22" opacity="0.102"/><circle cx="651.8" cy="471.9" r="1.22" opacity="0.102"/><circle cx="502.7" cy="654.9" r="1.22" opacity="0.102"/><circle cx="346.3" cy="477" r="1.22" opacity="0.102"/><circle cx="548.2" cy="351.6" r="1.22" opacity="0.103"/><circle cx="638.9" cy="572.3" r="1.23" opacity="0.103"/><circle cx="405.5" cy="625.4" r="1.23" opacity="0.103"/><circle cx="391.5" cy="385.7" r="1.23" opacity="0.103"/><circle cx="631.1" cy="411.6" r="1.23" opacity="0.103"/><circle cx="565.8" cy="644.4" r="1.23" opacity="0.103"/><circle cx="346.2" cy="541.2" r="1.24" opacity="0.104"/><circle cx="484.7" cy="341" r="1.24" opacity="0.104"/><circle cx="659.9" cy="511.2" r="1.24" opacity="0.104"/><circle cx="462.5" cy="656.4" r="1.24" opacity="0.104"/><circle cx="351.5" cy="437" r="1.25" opacity="0.104"/><circle cx="587" cy="363.5" r="1.25" opacity="0.105"/><circle cx="620.7" cy="608.6" r="1.25" opacity="0.105"/><circle cx="372.5" cy="601.4" r="1.25" opacity="0.105"/><circle cx="420.8" cy="357.1" r="1.25" opacity="0.105"/><circle cx="654.5" cy="445.3" r="1.26" opacity="0.105"/><circle cx="528.6" cy="661.9" r="1.26" opacity="0.105"/><circle cx="335.1" cy="501.4" r="1.26" opacity="0.106"/><circle cx="525.9" cy="336.6" r="1.26" opacity="0.106"/><circle cx="657.4" cy="552.7" r="1.26" opacity="0.106"/><circle cx="421.8" cy="647" r="1.27" opacity="0.106"/><circle cx="367.5" cy="398.3" r="1.27" opacity="0.106"/><circle cx="622.5" cy="385.8" r="1.27" opacity="0.106"/><circle cx="592.7" cy="640.1" r="1.27" opacity="0.107"/><circle cx="346.1" cy="568.5" r="1.27" opacity="0.107"/><circle cx="457.7" cy="336.4" r="1.28" opacity="0.107"/><circle cx="668.9" cy="485.2" r="1.28" opacity="0.107"/><circle cx="486.7" cy="669.5" r="1.28" opacity="0.107"/><circle cx="334.6" cy="458.8" r="1.28" opacity="0.107"/><circle cx="568.2" cy="343.2" r="1.28" opacity="0.108"/><circle cx="643.8" cy="593.4" r="1.29" opacity="0.108"/><circle cx="383.8" cy="626.8" r="1.29" opacity="0.108"/><circle cx="393.8" cy="364.1" r="1.29" opacity="0.108"/><circle cx="652" cy="417.5" r="1.29" opacity="0.108"/><circle cx="556.5" cy="664" r="1.29" opacity="0.108"/><circle cx="328.5" cy="528.7" r="1.3" opacity="0.109"/><circle cx="500" cy="325.6" r="1.3" opacity="0.109"/><circle cx="672.5" cy="528.9" r="1.3" opacity="0.109"/><circle cx="442.9" cy="665.8" r="1.3" opacity="0.109"/><circle cx="345.5" cy="416.1" r="1.3" opacity="0.109"/><circle cx="608.6" cy="361" r="1.31" opacity="0.109"/><circle cx="619.5" cy="630.4" r="1.31" opacity="0.11"/><circle cx="351.3" cy="596.6" r="1.31" opacity="0.11"/><circle cx="429.1" cy="337" r="1.31" opacity="0.11"/><circle cx="673" cy="456.9" r="1.31" opacity="0.11"/><circle cx="514" cy="678.2" r="1.31" opacity="0.11"/><circle cx="321.5" cy="484.4" r="1.32" opacity="0.11"/><circle cx="545" cy="326.1" r="1.32" opacity="0.111"/><circle cx="664.6" cy="573.3" r="1.32" opacity="0.111"/><circle cx="400.3" cy="650.6" r="1.32" opacity="0.111"/><circle cx="367.6" cy="376.5" r="1.32" opacity="0.111"/><circle cx="644" cy="389.5" r="1.33" opacity="0.111"/><circle cx="585.4" cy="660.7" r="1.33" opacity="0.111"/><circle cx="327" cy="557.9" r="1.33" opacity="0.111"/><circle cx="471.4" cy="319.3" r="1.33" opacity="0.112"/><circle cx="683.4" cy="501.6" r="1.33" opacity="0.112"/><circle cx="468.1" cy="681.1" r="1.34" opacity="0.112"/><circle cx="326.3" cy="438.5" r="1.34" opacity="0.112"/><circle cx="589.6" cy="338.4" r="1.34" opacity="0.112"/><circle cx="645" cy="615.3" r="1.34" opacity="0.112"/><circle cx="362" cy="624.2" r="1.34" opacity="0.113"/><circle cx="400" cy="343" r="1.34" opacity="0.113"/><circle cx="671.8" cy="427.1" r="1.35" opacity="0.113"/><circle cx="543.7" cy="681.9" r="1.35" opacity="0.113"/><circle cx="313" cy="513.1" r="1.35" opacity="0.113"/><circle cx="518" cy="312.9" r="1.35" opacity="0.113"/><circle cx="682" cy="548.8" r="1.35" opacity="0.113"/><circle cx="421.7" cy="671.8" r="1.36" opacity="0.114"/><circle cx="343.1" cy="394.2" r="1.36" opacity="0.114"/><circle cx="630.6" cy="362.4" r="1.36" opacity="0.114"/><circle cx="614.4" cy="651.9" r="1.36" opacity="0.114"/><circle cx="330.9" cy="588" r="1.36" opacity="0.114"/><circle cx="441" cy="318.3" r="1.36" opacity="0.114"/><circle cx="689.4" cy="471.7" r="1.37" opacity="0.115"/><circle cx="496.7" cy="691.9" r="1.37" opacity="0.115"/><circle cx="310.8" cy="464.9" r="1.37" opacity="0.115"/><circle cx="565.9" cy="318.8" r="1.37" opacity="0.115"/><circle cx="668.2" cy="595.2" r="1.37" opacity="0.115"/><circle cx="378.1" cy="650.5" r="1.37" opacity="0.115"/><circle cx="371.4" cy="354.6" r="1.38" opacity="0.115"/><circle cx="665" cy="396.9" r="1.38" opacity="0.116"/><circle cx="574.6" cy="680.2" r="1.38" opacity="0.116"/><circle cx="309.6" cy="544" r="1.38" opacity="0.116"/><circle cx="488" cy="304.5" r="1.38" opacity="0.116"/><circle cx="695.2" cy="520.5" r="1.39" opacity="0.116"/><circle cx="447.4" cy="689.6" r="1.39" opacity="0.116"/><circle cx="321.3" cy="416.7" r="1.39" opacity="0.116"/><circle cx="611.9" cy="337.2" r="1.39" opacity="0.117"/><circle cx="642.4" cy="637.5" r="1.39" opacity="0.117"/><circle cx="340.5" cy="618" r="1.39" opacity="0.117"/><circle cx="409.7" cy="322.8" r="1.4" opacity="0.117"/><circle cx="690.1" cy="440.1" r="1.4" opacity="0.117"/><circle cx="527.8" cy="697.8" r="1.4" opacity="0.117"/><circle cx="299.9" cy="494.8" r="1.4" opacity="0.117"/><circle cx="538.3" cy="303.1" r="1.4" opacity="0.118"/><circle cx="688.2" cy="570.4" r="1.4" opacity="0.118"/><circle cx="399.3" cy="674.4" r="1.41" opacity="0.118"/><circle cx="344.3" cy="371.6" r="1.41" opacity="0.118"/><circle cx="652.6" cy="367.3" r="1.41" opacity="0.118"/><circle cx="605.9" cy="672.8" r="1.41" opacity="0.118"/><circle cx="311.7" cy="576.1" r="1.41" opacity="0.118"/><circle cx="456" cy="301.3" r="1.41" opacity="0.119"/><circle cx="703.6" cy="489.3" r="1.42" opacity="0.119"/><circle cx="476.9" cy="703" r="1.42" opacity="0.119"/><circle cx="303.2" cy="443.6" r="1.42" opacity="0.119"/><circle cx="588.3" cy="314.8" r="1.42" opacity="0.119"/><circle cx="668.4" cy="617.9" r="1.42" opacity="0.119"/><circle cx="355.6" cy="646.9" r="1.42" opacity="0.119"/><circle cx="378.7" cy="333" r="1.43" opacity="0.12"/><circle cx="685.1" cy="407.7" r="1.43" opacity="0.12"/><circle cx="560.6" cy="698.1" r="1.43" opacity="0.12"/><circle cx="294.2" cy="527.1" r="1.43" opacity="0.12"/><circle cx="507.3" cy="292.1" r="1.43" opacity="0.12"/><circle cx="704.2" cy="541.5" r="1.43" opacity="0.12"/><circle cx="425.2" cy="694.9" r="1.44" opacity="0.12"/><circle cx="319.7" cy="393.8" r="1.44" opacity="0.12"/><circle cx="634.7" cy="339.4" r="1.44" opacity="0.121"/><circle cx="636.4" cy="659.7" r="1.44" opacity="0.121"/><circle cx="319.6" cy="608.4" r="1.44" opacity="0.121"/><circle cx="422.7" cy="303.8" r="1.44" opacity="0.121"/><circle cx="706.6" cy="456.1" r="1.44" opacity="0.121"/><circle cx="509.2" cy="711.4" r="1.45" opacity="0.121"/><circle cx="289.6" cy="474.2" r="1.45" opacity="0.121"/><circle cx="560.3" cy="296.3" r="1.45" opacity="0.122"/><circle cx="691.3" cy="593.3" r="1.45" opacity="0.122"/><circle cx="376.2" cy="673.6" r="1.45" opacity="0.122"/><circle cx="349" cy="349" r="1.45" opacity="0.122"/><circle cx="674.2" cy="375.7" r="1.46" opacity="0.122"/><circle cx="594" cy="692.7" r="1.46" opacity="0.122"/><circle cx="294.1" cy="561" r="1.46" opacity="0.122"/><circle cx="473.8" cy="286.4" r="1.46" opacity="0.122"/><circle cx="715.4" cy="509.4" r="1.46" opacity="0.123"/><circle cx="455.1" cy="711.3" r="1.46" opacity="0.123"/><circle cx="298.7" cy="420.7" r="1.47" opacity="0.123"/><circle cx="611.6" cy="314.2" r="1.47" opacity="0.123"/><circle cx="665.1" cy="641" r="1.47" opacity="0.123"/><circle cx="333.4" cy="639.8" r="1.47" opacity="0.123"/><circle cx="389.4" cy="312.2" r="1.47" opacity="0.123"/><circle cx="703.8" cy="421.8" r="1.47" opacity="0.124"/><circle cx="543.6" cy="714.3" r="1.47" opacity="0.124"/><circle cx="281.1" cy="507.6" r="1.48" opacity="0.124"/><circle cx="528.6" cy="282.4" r="1.48" opacity="0.124"/><circle cx="710.2" cy="564.3" r="1.48" opacity="0.124"/><circle cx="401.7" cy="697.1" r="1.48" opacity="0.124"/><circle cx="321.5" cy="370.3" r="1.48" opacity="0.124"/><circle cx="657.6" cy="345.1" r="1.48" opacity="0.124"/><circle cx="627" cy="681.3" r="1.49" opacity="0.125"/><circle cx="299.8" cy="595.5" r="1.49" opacity="0.125"/><circle cx="438.8" cy="286.5" r="1.49" opacity="0.125"/><circle cx="721.1" cy="474.8" r="1.49" opacity="0.125"/><circle cx="488.3" cy="722.6" r="1.49" opacity="0.125"/><circle cx="282" cy="451.7" r="1.49" opacity="0.125"/><circle cx="583.8" cy="292.6" r="1.49" opacity="0.125"/><circle cx="691" cy="617.1" r="1.5" opacity="0.125"/><circle cx="352.8" cy="669.4" r="1.5" opacity="0.126"/><circle cx="357" cy="326.5" r="1.5" opacity="0.126"/><circle cx="695" cy="387.4" r="1.5" opacity="0.126"/><circle cx="579" cy="711.3" r="1.5" opacity="0.126"/><circle cx="278.2" cy="543.1" r="1.5" opacity="0.126"/><circle cx="494.1" cy="273.8" r="1.51" opacity="0.126"/><circle cx="724.5" cy="531.5" r="1.51" opacity="0.126"/><circle cx="431.7" cy="716.5" r="1.51" opacity="0.126"/><circle cx="297.4" cy="396.8" r="1.51" opacity="0.127"/><circle cx="635.5" cy="316.9" r="1.51" opacity="0.127"/><circle cx="658.5" cy="664.1" r="1.51" opacity="0.127"/><circle cx="311.7" cy="629.4" r="1.51" opacity="0.127"/><circle cx="403.3" cy="292.6" r="1.52" opacity="0.127"/><circle cx="720.9" cy="438.7" r="1.52" opacity="0.127"/><circle cx="524" cy="728.4" r="1.52" opacity="0.127"/><circle cx="270.4" cy="486" r="1.52" opacity="0.127"/><circle cx="551.8" cy="275.5" r="1.52" opacity="0.128"/><circle cx="713.2" cy="588.3" r="1.52" opacity="0.128"/><circle cx="377.5" cy="696" r="1.52" opacity="0.128"/><circle cx="326.6" cy="346.6" r="1.53" opacity="0.128"/><circle cx="680.2" cy="354.1" r="1.53" opacity="0.128"/><circle cx="614.3" cy="702.1" r="1.53" opacity="0.128"/><circle cx="281.5" cy="579.5" r="1.53" opacity="0.128"/><circle cx="457.6" cy="271" r="1.53" opacity="0.128"/><circle cx="733.2" cy="495.9" r="1.53" opacity="0.129"/><circle cx="465.5" cy="731.1" r="1.53" opacity="0.129"/><circle cx="277.5" cy="427.7" r="1.54" opacity="0.129"/><circle cx="608.2" cy="292.1" r="1.54" opacity="0.129"/><circle cx="687.5" cy="641.3" r="1.54" opacity="0.129"/><circle cx="329.5" cy="661.8" r="1.54" opacity="0.129"/><circle cx="368.3" cy="304.8" r="1.54" opacity="0.129"/><circle cx="714.6" cy="402.2" r="1.54" opacity="0.129"/><circle cx="561.1" cy="728.1" r="1.54" opacity="0.13"/><circle cx="264.6" cy="522.7" r="1.55" opacity="0.13"/><circle cx="516.5" cy="263.7" r="1.55" opacity="0.13"/><circle cx="730.7" cy="555.4" r="1.55" opacity="0.13"/><circle cx="407.2" cy="718.7" r="1.55" opacity="0.13"/><circle cx="299.3" cy="372.2" r="1.55" opacity="0.13"/><circle cx="659.4" cy="322.9" r="1.55" opacity="0.13"/><circle cx="648.6" cy="686.8" r="1.55" opacity="0.13"/><circle cx="291" cy="615.9" r="1.56" opacity="0.131"/><circle cx="420.1" cy="274.4" r="1.56" opacity="0.131"/><circle cx="736.1" cy="458.4" r="1.56" opacity="0.131"/><circle cx="502.1" cy="740.1" r="1.56" opacity="0.131"/><circle cx="262.5" cy="462.4" r="1.56" opacity="0.131"/><circle cx="576.4" cy="271.7" r="1.56" opacity="0.131"/><circle cx="712.9" cy="613.2" r="1.56" opacity="0.131"/><circle cx="353" cy="691.6" r="1.57" opacity="0.131"/><circle cx="335.1" cy="323.1" r="1.57" opacity="0.131"/><circle cx="701.9" cy="366.3" r="1.57" opacity="0.132"/><circle cx="598.6" cy="721.5" r="1.57" opacity="0.132"/><circle cx="264.9" cy="560.8" r="1.57" opacity="0.132"/><circle cx="478.8" cy="257.7" r="1.57" opacity="0.132"/><circle cx="742.8" cy="519.1" r="1.57" opacity="0.132"/><circle cx="441" cy="736.7" r="1.58" opacity="0.132"/><circle cx="276" cy="402.6" r="1.58" opacity="0.132"/><circle cx="633.2" cy="294.9" r="1.58" opacity="0.132"/><circle cx="680.6" cy="665.5" r="1.58" opacity="0.133"/><circle cx="306.7" cy="651" r="1.58" opacity="0.133"/><circle cx="382.8" cy="284.1" r="1.58" opacity="0.133"/><circle cx="732.6" cy="419.9" r="1.58" opacity="0.133"/><circle cx="540.7" cy="742.9" r="1.59" opacity="0.133"/><circle cx="253.3" cy="500" r="1.59" opacity="0.133"/><circle cx="540.8" cy="256.4" r="1.59" opacity="0.133"/><circle cx="733.9" cy="580.5" r="1.59" opacity="0.133"/><circle cx="381.8" cy="717.7" r="1.59" opacity="0.133"/><circle cx="304.6" cy="347.3" r="1.59" opacity="0.134"/><circle cx="683.1" cy="332.2" r="1.59" opacity="0.134"/><circle cx="635.5" cy="708.6" r="1.59" opacity="0.134"/><circle cx="271.6" cy="599.3" r="1.6" opacity="0.134"/><circle cx="439.7" cy="258" r="1.6" opacity="0.134"/><circle cx="749" cy="480.4" r="1.6" opacity="0.134"/><circle cx="478.2" cy="749.1" r="1.6" opacity="0.134"/><circle cx="257.6" cy="437.3" r="1.6" opacity="0.134"/><circle cx="602" cy="270.9" r="1.6" opacity="0.134"/><circle cx="709.4" cy="638.6" r="1.6" opacity="0.135"/><circle cx="328.5" cy="683.9" r="1.61" opacity="0.135"/><circle cx="346.7" cy="300.3" r="1.61" opacity="0.135"/><circle cx="722.6" cy="381.7" r="1.61" opacity="0.135"/><circle cx="580.1" cy="739.4" r="1.61" opacity="0.135"/><circle cx="250.4" cy="539.5" r="1.61" opacity="0.135"/><circle cx="502.2" cy="246.9" r="1.61" opacity="0.135"/><circle cx="749.6" cy="544" r="1.61" opacity="0.135"/><circle cx="415.3" cy="739.2" r="1.61" opacity="0.135"/><circle cx="277.8" cy="376.8" r="1.62" opacity="0.136"/><circle cx="658.4" cy="300.9" r="1.62" opacity="0.136"/><circle cx="670.5" cy="689.3" r="1.62" opacity="0.136"/><circle cx="284.9" cy="637.1" r="1.62" opacity="0.136"/><circle cx="400.2" cy="264.9" r="1.62" opacity="0.136"/><circle cx="748.7" cy="440.3" r="1.62" opacity="0.136"/><circle cx="517.9" cy="755.4" r="1.62" opacity="0.136"/><circle cx="244.8" cy="475.4" r="1.63" opacity="0.136"/><circle cx="566.4" cy="252" r="1.63" opacity="0.136"/><circle cx="733.9" cy="606.6" r="1.63" opacity="0.137"/><circle cx="356.1" cy="713.4" r="1.63" opacity="0.137"/><circle cx="313.1" cy="322.6" r="1.63" opacity="0.137"/><circle cx="706.1" cy="344.7" r="1.63" opacity="0.137"/><circle cx="619.3" cy="729.2" r="1.63" opacity="0.137"/><circle cx="254" cy="579.9" r="1.63" opacity="0.137"/><circle cx="461.7" cy="243.8" r="1.64" opacity="0.137"/><circle cx="759.3" cy="504.5" r="1.64" opacity="0.137"/><circle cx="452.7" cy="755.3" r="1.64" opacity="0.137"/><circle cx="255.7" cy="411.1" r="1.64" opacity="0.138"/><circle cx="628.2" cy="273.4" r="1.64" opacity="0.138"/><circle cx="702.6" cy="664" r="1.64" opacity="0.138"/><circle cx="304.5" cy="672.9" r="1.64" opacity="0.138"/><circle cx="361.5" cy="278.4" r="1.65" opacity="0.138"/><circle cx="741.7" cy="399.9" r="1.65" opacity="0.138"/><circle cx="558.9" cy="755.2" r="1.65" opacity="0.138"/><circle cx="238.2" cy="516" r="1.65" opacity="0.138"/><circle cx="527.4" cy="238.9" r="1.65" opacity="0.138"/><circle cx="753.3" cy="570.3" r="1.65" opacity="0.139"/><circle cx="388.8" cy="738.6" r="1.65" opacity="0.139"/><circle cx="282.8" cy="350.7" r="1.65" opacity="0.139"/><circle cx="683.3" cy="310.2" r="1.66" opacity="0.139"/><circle cx="657.1" cy="712.4" r="1.66" opacity="0.139"/><circle cx="264.3" cy="620.1" r="1.66" opacity="0.139"/><circle cx="420.4" cy="247.4" r="1.66" opacity="0.139"/><circle cx="762.6" cy="463.1" r="1.66" opacity="0.139"/><circle cx="493.1" cy="765.4" r="1.66" opacity="0.139"/><circle cx="239.1" cy="449.3" r="1.66" opacity="0.14"/><circle cx="593.2" cy="250.7" r="1.66" opacity="0.14"/><circle cx="730.7" cy="633.2" r="1.67" opacity="0.14"/><circle cx="330.3" cy="705.8" r="1.67" opacity="0.14"/><circle cx="324.8" cy="298.5" r="1.67" opacity="0.14"/><circle cx="728" cy="360.3" r="1.67" opacity="0.14"/><circle cx="600.3" cy="748.2" r="1.67" opacity="0.14"/><circle cx="238.4" cy="558" r="1.67" opacity="0.14"/><circle cx="486" cy="232.1" r="1.67" opacity="0.14"/><circle cx="766.9" cy="530.4" r="1.67" opacity="0.14"/><circle cx="425.9" cy="758.5" r="1.68" opacity="0.141"/><circle cx="257" cy="384.1" r="1.68" opacity="0.141"/><circle cx="654.6" cy="279.2" r="1.68" opacity="0.141"/><circle cx="692.5" cy="689.2" r="1.68" opacity="0.141"/><circle cx="281.4" cy="658.8" r="1.68" opacity="0.141"/><circle cx="379.3" cy="257.9" r="1.68" opacity="0.141"/><circle cx="759" cy="420.8" r="1.68" opacity="0.141"/><circle cx="535.4" cy="768.8" r="1.68" opacity="0.141"/><circle cx="228.7" cy="490.5" r="1.69" opacity="0.141"/><circle cx="554.2" cy="233.7" r="1.69" opacity="0.142"/><circle cx="754" cy="597.5" r="1.69" opacity="0.142"/><circle cx="361.8" cy="734.7" r="1.69" opacity="0.142"/><circle cx="291.1" cy="324.7" r="1.69" opacity="0.142"/><circle cx="707.6" cy="322.7" r="1.69" opacity="0.142"/><circle cx="640.8" cy="734.3" r="1.69" opacity="0.142"/><circle cx="245.4" cy="600.3" r="1.69" opacity="0.142"/><circle cx="443" cy="232.1" r="1.7" opacity="0.142"/><circle cx="774" cy="488" r="1.7" opacity="0.142"/><circle cx="466.5" cy="772.5" r="1.7" opacity="0.142"/><circle cx="236.5" cy="421.9" r="1.7" opacity="0.143"/><circle cx="620.6" cy="252.7" r="1.7" opacity="0.143"/><circle cx="724.3" cy="660" r="1.7" opacity="0.143"/><circle cx="305" cy="695" r="1.7" opacity="0.143"/><circle cx="339.7" cy="275.2" r="1.7" opacity="0.143"/><circle cx="748.4" cy="378.8" r="1.71" opacity="0.143"/><circle cx="578.6" cy="765.3" r="1.71" opacity="0.143"/><circle cx="225.1" cy="533.8" r="1.71" opacity="0.143"/><circle cx="512.1" cy="223" r="1.71" opacity="0.143"/><circle cx="771.5" cy="557.7" r="1.71" opacity="0.144"/><circle cx="398.1" cy="758.6" r="1.71" opacity="0.144"/><circle cx="261.5" cy="356.7" r="1.71" opacity="0.144"/><circle cx="680.9" cy="288.2" r="1.71" opacity="0.144"/><circle cx="679.2" cy="713.6" r="1.72" opacity="0.144"/><circle cx="259.5" cy="641.7" r="1.72" opacity="0.144"/><circle cx="399.9" cy="239.1" r="1.72" opacity="0.144"/><circle cx="774.1" cy="444.2" r="1.72" opacity="0.144"/><circle cx="509.8" cy="779.9" r="1.72" opacity="0.144"/><circle cx="222.1" cy="463.4" r="1.72" opacity="0.144"/><circle cx="582" cy="231.6" r="1.72" opacity="0.145"/><circle cx="751.4" cy="625.4" r="1.72" opacity="0.145"/><circle cx="334.7" cy="727.5" r="1.72" opacity="0.145"/><circle cx="302.7" cy="299.2" r="1.73" opacity="0.145"/><circle cx="730.9" cy="338.3" r="1.73" opacity="0.145"/><circle cx="621.5" cy="754.6" r="1.73" opacity="0.145"/><circle cx="228.5" cy="577.8" r="1.73" opacity="0.145"/><circle cx="468" cy="219.1" r="1.73" opacity="0.145"/><circle cx="782.6" cy="514.8" r="1.73" opacity="0.145"/><circle cx="438.7" cy="776.6" r="1.73" opacity="0.145"/><circle cx="237" cy="393.8" r="1.73" opacity="0.146"/><circle cx="648.4" cy="257.9" r="1.74" opacity="0.146"/><circle cx="714.5" cy="686.5" r="1.74" opacity="0.146"/><circle cx="280.5" cy="681" r="1.74" opacity="0.146"/><circle cx="357.6" cy="253.3" r="1.74" opacity="0.146"/><circle cx="767.1" cy="400.2" r="1.74" opacity="0.146"/><circle cx="554.5" cy="780.2" r="1.74" opacity="0.146"/><circle cx="214.4" cy="507.5" r="1.74" opacity="0.146"/><circle cx="539.8" cy="216.8" r="1.74" opacity="0.146"/><circle cx="773" cy="586.1" r="1.75" opacity="0.146"/><circle cx="369.9" cy="755.4" r="1.75" opacity="0.147"/><circle cx="269.4" cy="329.4" r="1.75" opacity="0.147"/><circle cx="706.6" cy="300.5" r="1.75" opacity="0.147"/><circle cx="662.8" cy="736.9" r="1.75" opacity="0.147"/><circle cx="239.2" cy="621.6" r="1.75" opacity="0.147"/><circle cx="423" cy="222.4" r="1.75" opacity="0.147"/><circle cx="786.8" cy="469.9" r="1.75" opacity="0.147"/><circle cx="482.4" cy="788.1" r="1.75" opacity="0.147"/><circle cx="218.5" cy="435" r="1.76" opacity="0.147"/><circle cx="610.7" cy="232.8" r="1.76" opacity="0.147"/><circle cx="745.5" cy="653.4" r="1.76" opacity="0.148"/><circle cx="308" cy="717.1" r="1.76" opacity="0.148"/><circle cx="317.4" cy="274.5" r="1.76" opacity="0.148"/><circle cx="752.7" cy="357" r="1.76" opacity="0.148"/><circle cx="599.4" cy="773.2" r="1.76" opacity="0.148"/><circle cx="213.9" cy="553" r="1.76" opacity="0.148"/><circle cx="494.9" cy="208.8" r="1.77" opacity="0.148"/><circle cx="788.4" cy="543.1" r="1.77" opacity="0.148"/><circle cx="409.8" cy="777.6" r="1.77" opacity="0.148"/><circle cx="240.9" cy="365.1" r="1.77" opacity="0.148"/><circle cx="676" cy="266.5" r="1.77" opacity="0.149"/><circle cx="701.5" cy="712.3" r="1.77" opacity="0.149"/><circle cx="257.1" cy="663.8" r="1.77" opacity="0.149"/><circle cx="378.4" cy="233.1" r="1.77" opacity="0.149"/><circle cx="783.6" cy="424" r="1.77" opacity="0.149"/><circle cx="528.2" cy="792.5" r="1.78" opacity="0.149"/><circle cx="206.6" cy="479.5" r="1.78" opacity="0.149"/><circle cx="568.7" cy="213.7" r="1.78" opacity="0.149"/><circle cx="771.3" cy="615.2" r="1.78" opacity="0.149"/><circle cx="341.5" cy="748.8" r="1.78" opacity="0.149"/><circle cx="280.5" cy="302.4" r="1.78" opacity="0.149"/><circle cx="731.3" cy="316" r="1.78" opacity="0.15"/><circle cx="643.4" cy="758.8" r="1.78" opacity="0.15"/><circle cx="220.8" cy="598.9" r="1.78" opacity="0.15"/><circle cx="448.5" cy="208.1" r="1.79" opacity="0.15"/><circle cx="796.7" cy="497.4" r="1.79" opacity="0.15"/><circle cx="453.5" cy="793.4" r="1.79" opacity="0.15"/><circle cx="218.1" cy="405.7" r="1.79" opacity="0.15"/><circle cx="639.7" cy="237.2" r="1.79" opacity="0.15"/><circle cx="736.3" cy="681.3" r="1.79" opacity="0.15"/><circle cx="281.9" cy="703.3" r="1.79" opacity="0.15"/><circle cx="335.3" cy="251.1" r="1.79" opacity="0.151"/><circle cx="772.9" cy="378.5" r="1.79" opacity="0.151"/><circle cx="574.9" cy="789.5" r="1.8" opacity="0.151"/><circle cx="201.9" cy="526.1" r="1.8" opacity="0.151"/><circle cx="523.5" cy="201.4" r="1.8" opacity="0.151"/><circle cx="790.9" cy="572.5" r="1.8" opacity="0.151"/><circle cx="380.3" cy="775.2" r="1.8" opacity="0.151"/><circle cx="248.1" cy="336.4" r="1.8" opacity="0.151"/><circle cx="703.1" cy="278.3" r="1.8" opacity="0.151"/><circle cx="685.3" cy="737.2" r="1.8" opacity="0.151"/><circle cx="235.3" cy="643.7" r="1.81" opacity="0.151"/><circle cx="401.8" cy="214.9" r="1.81" opacity="0.152"/><circle cx="797.7" cy="450.2" r="1.81" opacity="0.152"/><circle cx="500" cy="802.1" r="1.81" opacity="0.152"/><circle cx="201.8" cy="450.1" r="1.81" opacity="0.152"/><circle cx="598.5" cy="213.8" r="1.81" opacity="0.152"/><circle cx="766.2" cy="644.5" r="1.81" opacity="0.152"/><circle cx="313.3" cy="738.9" r="1.81" opacity="0.152"/><circle cx="295" cy="276.2" r="1.81" opacity="0.152"/><circle cx="754.8" cy="334.6" r="1.82" opacity="0.152"/><circle cx="621.2" cy="778.8" r="1.82" opacity="0.152"/><circle cx="204.7" cy="573.6" r="1.82" opacity="0.153"/><circle cx="476.1" cy="196.3" r="1.82" opacity="0.153"/><circle cx="803.7" cy="526.6" r="1.82" opacity="0.153"/><circle cx="423.6" cy="795.4" r="1.82" opacity="0.153"/><circle cx="221" cy="375.8" r="1.82" opacity="0.153"/><circle cx="668.7" cy="245.1" r="1.82" opacity="0.153"/><circle cx="723.8" cy="708.7" r="1.82" opacity="0.153"/><circle cx="257" cy="686.4" r="1.83" opacity="0.153"/><circle cx="356.1" cy="229.3" r="1.83" opacity="0.153"/><circle cx="791" cy="402.6" r="1.83" opacity="0.153"/><circle cx="548" cy="803.3" r="1.83" opacity="0.153"/><circle cx="192.7" cy="497.3" r="1.83" opacity="0.154"/><circle cx="553.4" cy="197" r="1.83" opacity="0.154"/><circle cx="790.2" cy="602.8" r="1.83" opacity="0.154"/><circle cx="350.6" cy="769.5" r="1.83" opacity="0.154"/><circle cx="258.6" cy="308" r="1.83" opacity="0.154"/><circle cx="729.4" cy="293.4" r="1.83" opacity="0.154"/><circle cx="666" cy="760.6" r="1.84" opacity="0.154"/><circle cx="215.3" cy="620.8" r="1.84" opacity="0.154"/><circle cx="427.7" cy="199" r="1.84" opacity="0.154"/><circle cx="809.1" cy="478.4" r="1.84" opacity="0.154"/><circle cx="470.3" cy="808.7" r="1.84" opacity="0.154"/><circle cx="200.2" cy="419.7" r="1.84" opacity="0.155"/><circle cx="628.8" cy="217.3" r="1.84" opacity="0.155"/><circle cx="757.8" cy="673.9" r="1.84" opacity="0.155"/><circle cx="285.8" cy="725.7" r="1.84" opacity="0.155"/><circle cx="312.6" cy="251.3" r="1.85" opacity="0.155"/><circle cx="776.5" cy="356.1" r="1.85" opacity="0.155"/><circle cx="596.4" cy="796.7" r="1.85" opacity="0.155"/><circle cx="191.2" cy="546.2" r="1.85" opacity="0.155"/><circle cx="505.5" cy="187.5" r="1.85" opacity="0.155"/><circle cx="807.6" cy="557" r="1.85" opacity="0.155"/><circle cx="392.9" cy="794.2" r="1.85" opacity="0.155"/><circle cx="227.3" cy="345.7" r="1.85" opacity="0.156"/><circle cx="697.4" cy="256.3" r="1.85" opacity="0.156"/><circle cx="708" cy="735.1" r="1.86" opacity="0.156"/><circle cx="233.6" cy="666.5" r="1.86" opacity="0.156"/><circle cx="379.7" cy="209.5" r="1.86" opacity="0.156"/><circle cx="806.6" cy="429.2" r="1.86" opacity="0.156"/><circle cx="519.2" cy="814.4" r="1.86" opacity="0.156"/><circle cx="186.5" cy="467" r="1.86" opacity="0.156"/><circle cx="584.3" cy="196" r="1.86" opacity="0.156"/><circle cx="786.2" cy="633.4" r="1.86" opacity="0.156"/><circle cx="321" cy="760.5" r="1.86" opacity="0.156"/><circle cx="272.5" cy="280.3" r="1.87" opacity="0.157"/><circle cx="754.5" cy="311.7" r="1.87" opacity="0.157"/><circle cx="643.8" cy="782.3" r="1.87" opacity="0.157"/><circle cx="197.6" cy="595.4" r="1.87" opacity="0.157"/><circle cx="455.8" cy="185.7" r="1.87" opacity="0.157"/><circle cx="817.5" cy="508.3" r="1.87" opacity="0.157"/><circle cx="439.3" cy="812.1" r="1.87" opacity="0.157"/><circle cx="202" cy="388.6" r="1.87" opacity="0.157"/><circle cx="659.2" cy="224.2" r="1.87" opacity="0.157"/><circle cx="745.9" cy="702.7" r="1.87" opacity="0.157"/><circle cx="259.3" cy="709.3" r="1.88" opacity="0.157"/><circle cx="333.2" cy="227.8" r="1.88" opacity="0.158"/><circle cx="796.2" cy="380.3" r="1.88" opacity="0.158"/><circle cx="569.2" cy="812.2" r="1.88" opacity="0.158"/><circle cx="180.4" cy="516.7" r="1.88" opacity="0.158"/><circle cx="536.3" cy="181.8" r="1.88" opacity="0.158"/><circle cx="808.1" cy="588.4" r="1.88" opacity="0.158"/><circle cx="361.9" cy="789.6" r="1.88" opacity="0.158"/><circle cx="237" cy="315.8" r="1.88" opacity="0.158"/><circle cx="725.2" cy="270.8" r="1.89" opacity="0.158"/><circle cx="689" cy="760.2" r="1.89" opacity="0.158"/><circle cx="212" cy="643.6" r="1.89" opacity="0.158"/><circle cx="405.8" cy="191.9" r="1.89" opacity="0.159"/><circle cx="819.6" cy="457.9" r="1.89" opacity="0.159"/><circle cx="488.7" cy="822.5" r="1.89" opacity="0.159"/><circle cx="183.6" cy="435.6" r="1.89" opacity="0.159"/><circle cx="615.8" cy="198.3" r="1.89" opacity="0.159"/><circle cx="778.7" cy="664.2" r="1.89" opacity="0.159"/><circle cx="291.9" cy="748" r="1.89" opacity="0.159"/><circle cx="289.6" cy="253.7" r="1.9" opacity="0.159"/><circle cx="777.9" cy="333" r="1.9" opacity="0.159"/><circle cx="618.9" cy="801.9" r="1.9" opacity="0.159"/><circle cx="182.4" cy="567.5" r="1.9" opacity="0.159"/><circle cx="485.8" cy="175.3" r="1.9" opacity="0.159"/><circle cx="822.8" cy="539.6" r="1.9" opacity="0.16"/><circle cx="407.5" cy="812.1" r="1.9" opacity="0.16"/><circle cx="207.2" cy="357.2" r="1.9" opacity="0.16"/><circle cx="689.3" cy="234.6" r="1.9" opacity="0.16"/><circle cx="730.7" cy="730.7" r="1.91" opacity="0.16"/><circle cx="234.1" cy="689.6" r="1.91" opacity="0.16"/><circle cx="356.7" cy="206.3" r="1.91" opacity="0.16"/><circle cx="813.6" cy="407.1" r="1.91" opacity="0.16"/><circle cx="539.9" cy="824.9" r="1.91" opacity="0.16"/><circle cx="172.7" cy="485.7" r="1.91" opacity="0.16"/><circle cx="568.2" cy="179.3" r="1.91" opacity="0.16"/><circle cx="805.3" cy="620.3" r="1.91" opacity="0.161"/><circle cx="330.9" cy="781.5" r="1.91" opacity="0.161"/><circle cx="250.1" cy="286.6" r="1.91" opacity="0.161"/><circle cx="751.9" cy="288.6" r="1.92" opacity="0.161"/><circle cx="667" cy="783.6" r="1.92" opacity="0.161"/><circle cx="192.5" cy="618" r="1.92" opacity="0.161"/><circle cx="434.3" cy="177" r="1.92" opacity="0.161"/><circle cx="829.7" cy="488.5" r="1.92" opacity="0.161"/><circle cx="456.9" cy="827.3" r="1.92" opacity="0.161"/><circle cx="184" cy="403.4" r="1.92" opacity="0.161"/><circle cx="647.5" cy="204.1" r="1.92" opacity="0.161"/><circle cx="767.7" cy="694.5" r="1.92" opacity="0.161"/><circle cx="263.8" cy="732.1" r="1.92" opacity="0.162"/><circle cx="309.9" cy="228.5" r="1.93" opacity="0.162"/><circle cx="799.4" cy="357.2" r="1.93" opacity="0.162"/><circle cx="591.5" cy="819.1" r="1.93" opacity="0.162"/><circle cx="169.9" cy="537.6" r="1.93" opacity="0.162"/><circle cx="517.4" cy="168" r="1.93" opacity="0.162"/><circle cx="824.8" cy="572" r="1.93" opacity="0.162"/><circle cx="375.3" cy="808.7" r="1.93" opacity="0.162"/><circle cx="215.9" cy="325.9" r="1.93" opacity="0.162"/><circle cx="718.8" cy="248.3" r="1.93" opacity="0.162"/><circle cx="712.3" cy="757.5" r="1.93" opacity="0.162"/><circle cx="210.8" cy="667" r="1.94" opacity="0.162"/><circle cx="383" cy="186.9" r="1.94" opacity="0.163"/><circle cx="828.3" cy="436.2" r="1.94" opacity="0.163"/><circle cx="508.8" cy="834.6" r="1.94" opacity="0.163"/><circle cx="168.3" cy="453.4" r="1.94" opacity="0.163"/><circle cx="600.8" cy="180.3" r="1.94" opacity="0.163"/><circle cx="798.9" cy="652.3" r="1.94" opacity="0.163"/><circle cx="300.3" cy="769.9" r="1.94" opacity="0.163"/><circle cx="266.6" cy="258.3" r="1.94" opacity="0.163"/><circle cx="777.1" cy="309.5" r="1.94" opacity="0.163"/><circle cx="642.2" cy="805" r="1.95" opacity="0.163"/><circle cx="175.5" cy="590" r="1.95" opacity="0.163"/><circle cx="464.8" cy="164.8" r="1.95" opacity="0.164"/><circle cx="836.6" cy="520.6" r="1.95" opacity="0.164"/><circle cx="424.1" cy="828.8" r="1.95" opacity="0.164"/><circle cx="188" cy="370.7" r="1.95" opacity="0.164"/><circle cx="679.1" cy="213.4" r="1.95" opacity="0.164"/><circle cx="753.3" cy="724.1" r="1.95" opacity="0.164"/><circle cx="236.9" cy="713" r="1.95" opacity="0.164"/><circle cx="333.2" cy="205.2" r="1.95" opacity="0.164"/><circle cx="818.6" cy="384.1" r="1.96" opacity="0.164"/><circle cx="561.8" cy="833.6" r="1.96" opacity="0.164"/><circle cx="160.6" cy="505.9" r="1.96" opacity="0.164"/><circle cx="550.2" cy="164" r="1.96" opacity="0.164"/><circle cx="823.4" cy="605.1" r="1.96" opacity="0.165"/><circle cx="342.9" cy="801.8" r="1.96" opacity="0.165"/><circle cx="228.1" cy="295.1" r="1.96" opacity="0.165"/><circle cx="747.2" cy="265.5" r="1.96" opacity="0.165"/><circle cx="690.7" cy="782.7" r="1.96" opacity="0.165"/><circle cx="189.5" cy="641.5" r="1.96" opacity="0.165"/><circle cx="411.6" cy="170.2" r="1.97" opacity="0.165"/><circle cx="840.2" cy="467.2" r="1.97" opacity="0.165"/><circle cx="476.1" cy="841.1" r="1.97" opacity="0.165"/><circle cx="167.2" cy="420.1" r="1.97" opacity="0.165"/><circle cx="633.8" cy="184.8" r="1.97" opacity="0.165"/><circle cx="789" cy="684.1" r="1.97" opacity="0.165"/><circle cx="270.5" cy="754.9" r="1.97" opacity="0.166"/><circle cx="286.3" cy="231.4" r="1.97" opacity="0.166"/><circle cx="800.4" cy="333.5" r="1.97" opacity="0.166"/><circle cx="614.7" cy="824" r="1.97" opacity="0.166"/><circle cx="161.3" cy="559.7" r="1.98" opacity="0.166"/><circle cx="497" cy="155.8" r="1.98" opacity="0.166"/><circle cx="840.2" cy="553.9" r="1.98" opacity="0.166"/><circle cx="390.6" cy="826.9" r="1.98" opacity="0.166"/><circle cx="195.4" cy="338.1" r="1.98" opacity="0.166"/><circle cx="710.1" cy="226.2" r="1.98" opacity="0.166"/><circle cx="735.6" cy="752.6" r="1.98" opacity="0.166"/><circle cx="211.8" cy="690.8" r="1.98" opacity="0.166"/><circle cx="359.3" cy="184" r="1.98" opacity="0.167"/><circle cx="835.1" cy="413.3" r="1.98" opacity="0.167"/><circle cx="530.2" cy="845.1" r="1.99" opacity="0.167"/><circle cx="154.4" cy="472.8" r="1.99" opacity="0.167"/><circle cx="583.9" cy="163.4" r="1.99" opacity="0.167"/><circle cx="818.3" cy="638.4" r="1.99" opacity="0.167"/><circle cx="310.8" cy="791.3" r="1.99" opacity="0.167"/><circle cx="243.7" cy="265.2" r="1.99" opacity="0.167"/><circle cx="774.1" cy="285.8" r="1.99" opacity="0.167"/><circle cx="666.1" cy="805.9" r="1.99" opacity="0.167"/><circle cx="170.6" cy="613.4" r="1.99" opacity="0.167"/><circle cx="442.5" cy="156.2" r="1.99" opacity="0.167"/><circle cx="848.8" cy="500" r="2" opacity="0.167"/><circle cx="442.4" cy="844.3" r="2" opacity="0.168"/><circle cx="169.7" cy="386.3" r="2" opacity="0.168"/><circle cx="666.8" cy="192.8" r="2" opacity="0.168"/><circle cx="775.6" cy="715.4" r="2" opacity="0.168"/><circle cx="241.9" cy="736.5" r="2" opacity="0.168"/><circle cx="309.2" cy="206.2" r="2" opacity="0.168"/><circle cx="821.4" cy="360.2" r="2" opacity="0.168"/><circle cx="584.9" cy="840.3" r="2" opacity="0.168"/><circle cx="150.1" cy="527.5" r="2" opacity="0.168"/><circle cx="530.6" cy="150.1" r="2" opacity="0.168"/><circle cx="840.3" cy="588" r="2.01" opacity="0.168"/><circle cx="356.9" cy="821.3" r="2.01" opacity="0.168"/><circle cx="206.5" cy="305.7" r="2.01" opacity="0.169"/><circle cx="740.2" cy="242.4" r="2.01" opacity="0.169"/><circle cx="714.6" cy="779.6" r="2.01" opacity="0.169"/><circle cx="188.6" cy="665.6" r="2.01" opacity="0.169"/><circle cx="388" cy="165.3" r="2.01" opacity="0.169"/><circle cx="848.8" cy="444.8" r="2.01" opacity="0.169"/><circle cx="496.9" cy="853.4" r="2.01" opacity="0.169"/><circle cx="151.7" cy="438.6" r="2.01" opacity="0.169"/><circle cx="618.1" cy="166.4" r="2.02" opacity="0.169"/><circle cx="809.7" cy="671.7" r="2.02" opacity="0.169"/><circle cx="279.4" cy="777.3" r="2.02" opacity="0.169"/><circle cx="262.7" cy="236.5" r="2.02" opacity="0.169"/><circle cx="799.3" cy="309.3" r="2.02" opacity="0.17"/><circle cx="638.7" cy="826.8" r="2.02" opacity="0.17"/><circle cx="154.5" cy="582.9" r="2.02" opacity="0.17"/><circle cx="475.2" cy="145.3" r="2.02" opacity="0.17"/><circle cx="854.1" cy="534.1" r="2.02" opacity="0.17"/><circle cx="407.9" cy="843.9" r="2.02" opacity="0.17"/><circle cx="175.8" cy="352.3" r="2.03" opacity="0.17"/><circle cx="699.3" cy="204.5" r="2.03" opacity="0.17"/><circle cx="758.8" cy="745.6" r="2.03" opacity="0.17"/><circle cx="214.9" cy="714.8" r="2.03" opacity="0.17"/><circle cx="335.1" cy="183.2" r="2.03" opacity="0.17"/><circle cx="839.9" cy="389.5" r="2.03" opacity="0.17"/><circle cx="552.9" cy="853.7" r="2.03" opacity="0.17"/><circle cx="142.1" cy="493.8" r="2.03" opacity="0.171"/><circle cx="565.3" cy="147.8" r="2.03" opacity="0.171"/><circle cx="836.8" cy="622.6" r="2.03" opacity="0.171"/><circle cx="323.4" cy="812.1" r="2.03" opacity="0.171"/><circle cx="221.1" cy="274.2" r="2.04" opacity="0.171"/><circle cx="768.9" cy="262.1" r="2.04" opacity="0.171"/><circle cx="690.4" cy="804.7" r="2.04" opacity="0.171"/><circle cx="167.8" cy="637.6" r="2.04" opacity="0.171"/><circle cx="419.1" cy="149.4" r="2.04" opacity="0.171"/><circle cx="859.4" cy="478" r="2.04" opacity="0.171"/><circle cx="462.3" cy="858.3" r="2.04" opacity="0.171"/><circle cx="152.6" cy="403.7" r="2.04" opacity="0.171"/><circle cx="652.5" cy="173.1" r="2.04" opacity="0.172"/><circle cx="797.5" cy="704.5" r="2.04" opacity="0.172"/><circle cx="249.1" cy="759.8" r="2.04" opacity="0.172"/><circle cx="285" cy="209.5" r="2.05" opacity="0.172"/><circle cx="822.3" cy="335.8" r="2.05" opacity="0.172"/><circle cx="608.8" cy="845.2" r="2.05" opacity="0.172"/><circle cx="141.4" cy="550.4" r="2.05" opacity="0.172"/><circle cx="509.5" cy="137.8" r="2.05" opacity="0.172"/><circle cx="855.9" cy="569.2" r="2.05" opacity="0.172"/><circle cx="372.9" cy="839.9" r="2.05" opacity="0.172"/><circle cx="185.6" cy="318.5" r="2.05" opacity="0.172"/><circle cx="731.1" cy="219.7" r="2.05" opacity="0.172"/><circle cx="738.5" cy="774.4" r="2.05" opacity="0.172"/><circle cx="189.8" cy="690.1" r="2.06" opacity="0.173"/><circle cx="363.6" cy="162.5" r="2.06" opacity="0.173"/><circle cx="855.6" cy="421.2" r="2.06" opacity="0.173"/><circle cx="519.1" cy="864" r="2.06" opacity="0.173"/><circle cx="137.6" cy="458.7" r="2.06" opacity="0.173"/><circle cx="600.6" cy="149.2" r="2.06" opacity="0.173"/><circle cx="829.6" cy="657.2" r="2.06" opacity="0.173"/><circle cx="290.4" cy="799.3" r="2.06" opacity="0.173"/><circle cx="239.2" cy="243.7" r="2.06" opacity="0.173"/><circle cx="796" cy="285" r="2.06" opacity="0.173"/><circle cx="663.3" cy="827.6" r="2.06" opacity="0.173"/><circle cx="149.7" cy="607.1" r="2.07" opacity="0.173"/><circle cx="452.2" cy="136.6" r="2.07" opacity="0.173"/><circle cx="866.6" cy="512.8" r="2.07" opacity="0.174"/><circle cx="426.8" cy="859.6" r="2.07" opacity="0.174"/><circle cx="157.2" cy="368.4" r="2.07" opacity="0.174"/><circle cx="686.5" cy="183.4" r="2.07" opacity="0.174"/></g></svg>