<svg xmlns="http://www.w3.org/2000/svg" viewBox="0 0 1000 1000" preserveAspectRatio="xMidYMid slice" fill="none" stroke-linecap="round" stroke-linejoin="round"><g fill="#0f3d2e"><circle cx="489.7" cy="509.5" r="0.66" opacity="0.055"/><circle cx="501.7" cy="480.3" r="0.68" opacity="0.057"/><circle cx="514.8" cy="519.2" r="0.7" opacity="0.058"/><circle cx="472.4" cy="495.1" r="0.71" opacity="0.059"/><circle cx="526.4" cy="483.2" r="0.73" opacity="0.061"/><circle cx="491.1" cy="533.1" r="0.74" opacity="0.062"/><circle cx="482.9" cy="467.1" r="0.75" opacity="0.062"/><circle cx="537.2" cy="513.5" r="0.76" opacity="0.063"/><circle cx="461.2" cy="516.1" r="0.77" opacity="0.064"/><circle cx="518.7" cy="459.9" r="0.78" opacity="0.065"/><circle cx="514" cy="544.3" r="0.79" opacity="0.066"/><circle cx="458" cy="475.8" r="0.79" opacity="0.066"/><circle cx="549.3" cy="489.1" r="0.8" opacity="0.067"/><circle cx="470" cy="542.9" r="0.81" opacity="0.068"/><circle cx="492.9" cy="446.2" r="0.82" opacity="0.068"/><circle cx="542.9" cy="536" r="0.82" opacity="0.069"/><circle cx="442.3" cy="502.5" r="0.83" opacity="0.069"/><circle cx="542" cy="458" r="0.84" opacity="0.07"/><circle cx="497.3" cy="561" r="0.84" opacity="0.071"/><circle cx="459.8" cy="452" r="0.85" opacity="0.071"/><circle cx="563.6" cy="508.4" r="0.86" opacity="0.072"/><circle cx="446.2" cy="537.7" r="0.86" opacity="0.072"/><circle cx="514.5" cy="434.4" r="0.87" opacity="0.073"/><circle cx="534.3" cy="559.4" r="0.87" opacity="0.073"/><circle cx="433.2" cy="479" r="0.88" opacity="0.074"/><circle cx="564.7" cy="469.8" r="0.89" opacity="0.074"/><circle cx="472.2" cy="567.2" r="0.89" opacity="0.075"/><circle cx="474.7" cy="430.4" r="0.9" opacity="0.075"/><circle cx="566.9" cy="534.8" r="0.9" opacity="0.075"/><circle cx="425.9" cy="519.8" r="0.91" opacity="0.076"/><circle cx="541.9" cy="434.3" r="0.91" opacity="0.076"/><circle cx="513.8" cy="578" r="0.92" opacity="0.077"/><circle cx="436.2" cy="451" r="0.92" opacity="0.077"/><circle cx="581.3" cy="492.9" r="0.93" opacity="0.077"/><circle cx="444" cy="561.1" r="0.93" opacity="0.078"/><circle cx="500" cy="416" r="0.94" opacity="0.078"/><circle cx="557.5" cy="562.8" r="0.94" opacity="0.079"/><circle cx="414" cy="492.5" r="0.95" opacity="0.079"/><circle cx="569.4" cy="446.8" r="0.95" opacity="0.079"/><circle cx="484.6" cy="587.2" r="0.95" opacity="0.08"/><circle cx="451.8" cy="424.4" r="0.96" opacity="0.08"/><circle cx="587.6" cy="523.5" r="0.96" opacity="0.081"/><circle cx="418.6" cy="542.4" r="0.97" opacity="0.081"/><circle cx="531.8" cy="412.7" r="0.97" opacity="0.081"/><circle cx="535.9" cy="586.8" r="0.98" opacity="0.082"/><circle cx="413.9" cy="459.9" r="0.98" opacity="0.082"/><circle cx="591.5" cy="471.1" r="0.98" opacity="0.082"/><circle cx="451.5" cy="584" r="0.99" opacity="0.083"/><circle cx="478.8" cy="404.3" r="0.99" opacity="0.083"/><circle cx="581.1" cy="556.8" r="1" opacity="0.083"/><circle cx="400.9" cy="513.1" r="1" opacity="0.084"/><circle cx="564.9" cy="422.7" r="1" opacity="0.084"/><circle cx="504.4" cy="601.8" r="1.01" opacity="0.084"/><circle cx="427.3" cy="427.3" r="1.01" opacity="0.085"/><circle cx="603.7" cy="504.5" r="1.02" opacity="0.085"/><circle cx="419.7" cy="567.3" r="1.02" opacity="0.085"/><circle cx="513.8" cy="395.2" r="1.02" opacity="0.086"/><circle cx="561.2" cy="587.3" r="1.03" opacity="0.086"/><circle cx="395" cy="476.7" r="1.03" opacity="0.086"/><circle cx="593.9" cy="445.8" r="1.03" opacity="0.087"/><circle cx="467.1" cy="604.3" r="1.04" opacity="0.087"/><circle cx="453.4" cy="400.1" r="1.04" opacity="0.087"/><circle cx="602.7" cy="542.5" r="1.04" opacity="0.087"/><circle cx="394.8" cy="538.3" r="1.05" opacity="0.088"/><circle cx="552.1" cy="399.9" r="1.05" opacity="0.088"/><circle cx="529.4" cy="609.9" r="1.05" opacity="0.088"/><circle cx="403.4" cy="438.4" r="1.06" opacity="0.089"/><circle cx="613.7" cy="480" r="1.06" opacity="0.089"/><circle cx="429.2" cy="592.3" r="1.07" opacity="0.089"/><circle cx="489.8" cy="383.3" r="1.07" opacity="0.089"/><circle cx="587" cy="579.7" r="1.07" opacity="0.09"/><circle cx="381.2" cy="500" r="1.08" opacity="0.09"/><circle cx="588.2" cy="419.2" r="1.08" opacity="0.09"/><circle cx="489.5" cy="620" r="1.08" opacity="0.091"/><circle cx="426.2" cy="403.8" r="1.08" opacity="0.091"/><circle cx="620.2" cy="521.2" r="1.09" opacity="0.091"/><circle cx="396.4" cy="566" r="1.09" opacity="0.091"/><circle cx="532" cy="380.6" r="1.09" opacity="0.092"/><circle cx="557.5" cy="610.4" r="1.1" opacity="0.092"/><circle cx="382.3" cy="457.2" r="1.1" opacity="0.092"/><circle cx="616.4" cy="451.8" r="1.1" opacity="0.092"/><circle cx="446.4" cy="614.9" r="1.11" opacity="0.093"/><circle cx="461.6" cy="378.4" r="1.11" opacity="0.093"/><circle cx="611.1" cy="564.2" r="1.11" opacity="0.093"/><circle cx="374" cy="527.9" r="1.12" opacity="0.093"/><circle cx="574.5" cy="393.6" r="1.12" opacity="0.094"/><circle cx="517" cy="629.5" r="1.12" opacity="0.094"/><circle cx="399.4" cy="415.6" r="1.13" opacity="0.094"/><circle cx="632" cy="494.2" r="1.13" opacity="0.094"/><circle cx="406.1" cy="593.9" r="1.13" opacity="0.095"/><circle cx="505.8" cy="366.6" r="1.13" opacity="0.095"/><circle cx="586.3" cy="602.9" r="1.14" opacity="0.095"/><circle cx="366.1" cy="482.4" r="1.14" opacity="0.095"/><circle cx="611.2" cy="422.1" r="1.14" opacity="0.096"/><circle cx="470.5" cy="633.2" r="1.15" opacity="0.096"/><circle cx="431.4" cy="381.2" r="1.15" opacity="0.096"/><circle cx="631.5" cy="541.5" r="1.15" opacity="0.096"/><circle cx="374.4" cy="558.6" r="1.15" opacity="0.097"/><circle cx="553.3" cy="371.3" r="1.16" opacity="0.097"/><circle cx="547.9" cy="631.6" r="1.16" opacity="0.097"/><circle cx="375.2" cy="435" r="1.16" opacity="0.097"/><circle cx="636.6" cy="463.4" r="1.17" opacity="0.098"/><circle cx="423.7" cy="619.8" r="1.17" opacity="0.098"/><circle cx="475.2" cy="359.4" r="1.17" opacity="0.098"/><circle cx="613.8" cy="587.3" r="1.17" opacity="0.098"/><circle cx="356.4" cy="512.6" r="1.18" opacity="0.099"/><circle cx="597.8" cy="393.2" r="1.18" opacity="0.099"/><circle cx="500" cy="645.5" r="1.18" opacity="0.099"/><circle cx="401.3" cy="392.2" r="1.18" opacity="0.099"/><circle cx="646.3" cy="512.8" r="1.19" opacity="0.099"/><circle cx="383" cy="589.8" r="1.19" opacity="0.1"/><circle cx="525.7" cy="354.1" r="1.19" opacity="0.1"/><circle cx="580" cy="625.5" r="1.2" opacity="0.1"/><circle cx="355.6" cy="461.3" r="1.2" opacity="0.1"/><circle cx="633.2" cy="430.7" r="1.2" opacity="0.101"/><circle cx="448.4" cy="641.7" r="1.2" opacity="0.101"/><circle cx="442" cy="360.1" r="1.21" opacity="0.101"/><circle cx="637.8" cy="564.3" r="1.21" opacity="0.101"/><circle cx="354.3" cy="545.9" r="1.21" opacity="0.101"/><circle cx="576.7" cy="367.2" r="1.21" opacity="0.102"/><circle cx="533.3" cy="650.3" r="1.22" opacity="0.102"/><circle cx="373.3" cy="411.3" r="1.22" opacity="0.102"/><circle cx="653.9" cy="479.7" r="1.22" opacity="0.102"/><circle cx="399.8" cy="619.4" r="1.22" opacity="0.103"/><circle cx="493.2" cy="343.6" r="1.23" opacity="0.103"/><circle cx="611.1" cy="611.1" r="1.23" opacity="0.103"/><circle cx="342.4" cy="493.1" r="1.23" opacity="0.103"/><circle cx="621.3" cy="398.2" r="1.23" opacity="0.103"/><circle cx="479.2" cy="657.6" r="1.24" opacity="0.104"/><circle cx="408.4" cy="369.2" r="1.24" opacity="0.104"/><circle cx="656.4" cy="534.7" r="1.24" opacity="0.104"/><circle cx="360.7" cy="580.4" r="1.24" opacity="0.104"/><circle cx="548.6" cy="346" r="1.25" opacity="0.104"/><circle cx="568.5" cy="646.9" r="1.25" opacity="0.105"/><circle cx="349.7" cy="437.8" r="1.25" opacity="0.105"/><circle cx="653.4" cy="444.2" r="1.25" opacity="0.105"/><circle cx="424.3" cy="645.4" r="1.26" opacity="0.105"/><circle cx="457.4" cy="341.1" r="1.26" opacity="0.105"/><circle cx="639.2" cy="588.7" r="1.26" opacity="0.106"/><circle cx="336.9" cy="528.8" r="1.26" opacity="0.106"/><circle cx="601.2" cy="368.1" r="1.26" opacity="0.106"/><circle cx="514.5" cy="666.2" r="1.27" opacity="0.106"/><circle cx="376.6" cy="386.9" r="1.27" opacity="0.106"/><circle cx="668" cy="500" r="1.27" opacity="0.107"/><circle cx="375.7" cy="613.9" r="1.27" opacity="0.107"/><circle cx="514.7" cy="331.5" r="1.28" opacity="0.107"/><circle cx="603.3" cy="634.7" r="1.28" opacity="0.107"/><circle cx="332.3" cy="470.4" r="1.28" opacity="0.107"/><circle cx="644.1" cy="408.2" r="1.28" opacity="0.108"/><circle cx="455.6" cy="665.6" r="1.29" opacity="0.108"/><circle cx="420.6" cy="347.4" r="1.29" opacity="0.108"/><circle cx="662.2" cy="559" r="1.29" opacity="0.108"/><circle cx="340" cy="566.3" r="1.29" opacity="0.108"/><circle cx="573.4" cy="342.5" r="1.29" opacity="0.109"/><circle cx="552.4" cy="666.2" r="1.3" opacity="0.109"/><circle cx="348.6" cy="412.6" r="1.3" opacity="0.109"/><circle cx="671.3" cy="462" r="1.3" opacity="0.109"/><circle cx="399.1" cy="644.2" r="1.3" opacity="0.109"/><circle cx="477" cy="325" r="1.31" opacity="0.109"/><circle cx="635.7" cy="613.8" r="1.31" opacity="0.11"/><circle cx="322.5" cy="507.7" r="1.31" opacity="0.11"/><circle cx="626" cy="374" r="1.31" opacity="0.11"/><circle cx="492.2" cy="678.6" r="1.31" opacity="0.11"/><circle cx="384.8" cy="362.7" r="1.32" opacity="0.11"/><circle cx="678.3" cy="523.5" r="1.32" opacity="0.111"/><circle cx="352.2" cy="603.5" r="1.32" opacity="0.111"/><circle cx="539.2" cy="323.4" r="1.32" opacity="0.111"/><circle cx="590.7" cy="657.1" r="1.33" opacity="0.111"/><circle cx="326.4" cy="445.3" r="1.33" opacity="0.111"/><circle cx="665.4" cy="422.9" r="1.33" opacity="0.111"/><circle cx="429.9" cy="669.1" r="1.33" opacity="0.112"/><circle cx="437.2" cy="327.5" r="1.33" opacity="0.112"/><circle cx="663.3" cy="585" r="1.34" opacity="0.112"/><circle cx="321.6" cy="547.8" r="1.34" opacity="0.112"/><circle cx="599.5" cy="343.8" r="1.34" opacity="0.112"/><circle cx="532.3" cy="682.9" r="1.34" opacity="0.113"/><circle cx="352.2" cy="386.6" r="1.35" opacity="0.113"/><circle cx="686.1" cy="483.7" r="1.35" opacity="0.113"/><circle cx="373.5" cy="638.1" r="1.35" opacity="0.113"/><circle cx="500" cy="312.2" r="1.35" opacity="0.113"/><circle cx="627.2" cy="638.9" r="1.35" opacity="0.113"/><circle cx="311.8" cy="483.5" r="1.36" opacity="0.114"/><circle cx="650.3" cy="384.7" r="1.36" opacity="0.114"/><circle cx="467" cy="687" r="1.36" opacity="0.114"/><circle cx="397.7" cy="339.4" r="1.36" opacity="0.114"/><circle cx="684.4" cy="549.4" r="1.36" opacity="0.114"/><circle cx="330.2" cy="588.4" r="1.37" opacity="0.114"/><circle cx="565.7" cy="319.6" r="1.37" opacity="0.115"/><circle cx="573.7" cy="677.8" r="1.37" opacity="0.115"/><circle cx="325.1" cy="418.4" r="1.37" opacity="0.115"/><circle cx="684.5" cy="441.8" r="1.37" opacity="0.115"/><circle cx="403" cy="668" r="1.38" opacity="0.115"/><circle cx="457.9" cy="310.1" r="1.38" opacity="0.116"/><circle cx="659.7" cy="611.8" r="1.38" opacity="0.116"/><circle cx="306.2" cy="525.5" r="1.38" opacity="0.116"/><circle cx="626" cy="349.9" r="1.38" opacity="0.116"/><circle cx="508.6" cy="696.3" r="1.39" opacity="0.116"/><circle cx="360.7" cy="360.7" r="1.39" opacity="0.116"/><circle cx="697.3" cy="508.6" r="1.39" opacity="0.117"/><circle cx="348.3" cy="627.3" r="1.39" opacity="0.117"/><circle cx="525.9" cy="303.2" r="1.39" opacity="0.117"/><circle cx="614.1" cy="663" r="1.4" opacity="0.117"/><circle cx="305.3" cy="456.8" r="1.4" opacity="0.117"/><circle cx="673.2" cy="400" r="1.4" opacity="0.117"/><circle cx="439.7" cy="691.2" r="1.4" opacity="0.118"/><circle cx="415.1" cy="317.9" r="1.4" opacity="0.118"/><circle cx="686.1" cy="577.1" r="1.41" opacity="0.118"/><circle cx="310.3" cy="569.1" r="1.41" opacity="0.118"/><circle cx="593.5" cy="320.5" r="1.41" opacity="0.118"/><circle cx="552.5" cy="696" r="1.41" opacity="0.118"/><circle cx="328.5" cy="390.7" r="1.41" opacity="0.119"/><circle cx="700.7" cy="464.6" r="1.42" opacity="0.119"/><circle cx="375.6" cy="662.1" r="1.42" opacity="0.119"/><circle cx="482.2" cy="296" r="1.42" opacity="0.119"/><circle cx="651.3" cy="638.7" r="1.42" opacity="0.119"/><circle cx="294.2" cy="500" r="1.42" opacity="0.119"/><circle cx="652.1" cy="360.7" r="1.42" opacity="0.119"/><circle cx="482" cy="705.9" r="1.43" opacity="0.12"/><circle cx="373.9" cy="335.6" r="1.43" opacity="0.12"/><circle cx="704.5" cy="536.1" r="1.43" opacity="0.12"/><circle cx="324.5" cy="611.8" r="1.43" opacity="0.12"/><circle cx="554" cy="298.5" r="1.43" opacity="0.12"/><circle cx="596.5" cy="685.4" r="1.44" opacity="0.12"/><circle cx="303.1" cy="428.3" r="1.44" opacity="0.121"/><circle cx="694" cy="419.6" r="1.44" opacity="0.121"/><circle cx="411.1" cy="690.7" r="1.44" opacity="0.121"/><circle cx="436.6" cy="298.8" r="1.44" opacity="0.121"/><circle cx="683.1" cy="605.7" r="1.45" opacity="0.121"/><circle cx="293.2" cy="545.9" r="1.45" opacity="0.121"/><circle cx="621.8" cy="326.1" r="1.45" opacity="0.122"/><circle cx="527.8" cy="711" r="1.45" opacity="0.122"/><circle cx="336.6" cy="362.9" r="1.45" opacity="0.122"/><circle cx="713.5" cy="490.7" r="1.45" opacity="0.122"/><circle cx="348.6" cy="651.4" r="1.46" opacity="0.122"/><circle cx="509.4" cy="285.6" r="1.46" opacity="0.122"/><circle cx="638.2" cy="664.8" r="1.46" opacity="0.122"/><circle cx="286.3" cy="471.9" r="1.46" opacity="0.123"/><circle cx="676.9" cy="376.1" r="1.46" opacity="0.123"/><circle cx="453.2" cy="711.3" r="1.47" opacity="0.123"/><circle cx="391.6" cy="312.2" r="1.47" opacity="0.123"/><circle cx="707.3" cy="565.4" r="1.47" opacity="0.123"/><circle cx="302.6" cy="592" r="1.47" opacity="0.123"/><circle cx="583.5" cy="298.4" r="1.47" opacity="0.124"/><circle cx="574.8" cy="705.5" r="1.47" opacity="0.124"/><circle cx="305.6" cy="398.8" r="1.48" opacity="0.124"/><circle cx="712.1" cy="443.2" r="1.48" opacity="0.124"/><circle cx="381.8" cy="685.6" r="1.48" opacity="0.124"/><circle cx="461.7" cy="282.9" r="1.48" opacity="0.124"/><circle cx="675.3" cy="634.5" r="1.48" opacity="0.124"/><circle cx="279.5" cy="519.3" r="1.49" opacity="0.125"/><circle cx="649.8" cy="336.5" r="1.49" opacity="0.125"/><circle cx="500" cy="722.2" r="1.49" opacity="0.125"/><circle cx="349.6" cy="335.8" r="1.49" opacity="0.125"/><circle cx="722.3" cy="519.4" r="1.49" opacity="0.125"/><circle cx="322.6" cy="636.1" r="1.49" opacity="0.125"/><circle cx="538.9" cy="279.4" r="1.5" opacity="0.125"/><circle cx="620.6" cy="689.3" r="1.5" opacity="0.126"/><circle cx="282.8" cy="441.8" r="1.5" opacity="0.126"/><circle cx="699.9" cy="396" r="1.5" opacity="0.126"/><circle cx="422.8" cy="712.1" r="1.5" opacity="0.126"/><circle cx="413.4" cy="291" r="1.5" opacity="0.126"/><circle cx="705.4" cy="595.8" r="1.51" opacity="0.126"/><circle cx="283.5" cy="568.3" r="1.51" opacity="0.126"/><circle cx="613.7" cy="303" r="1.51" opacity="0.127"/><circle cx="549.3" cy="722.5" r="1.51" opacity="0.127"/><circle cx="313" cy="369" r="1.51" opacity="0.127"/><circle cx="726.8" cy="470.1" r="1.52" opacity="0.127"/><circle cx="352.7" cy="675.6" r="1.52" opacity="0.127"/><circle cx="490" cy="270.6" r="1.52" opacity="0.127"/><circle cx="662.7" cy="662.7" r="1.52" opacity="0.127"/><circle cx="269.8" cy="489.9" r="1.52" opacity="0.128"/><circle cx="676.9" cy="351.6" r="1.52" opacity="0.128"/><circle cx="469.8" cy="729.3" r="1.53" opacity="0.128"/><circle cx="367.1" cy="310.2" r="1.53" opacity="0.128"/><circle cx="726.7" cy="550.2" r="1.53" opacity="0.128"/><circle cx="298.6" cy="616.3" r="1.53" opacity="0.128"/><circle cx="570.1" cy="277.8" r="1.53" opacity="0.128"/><circle cx="598.7" cy="711.6" r="1.53" opacity="0.129"/><circle cx="284" cy="410.5" r="1.54" opacity="0.129"/><circle cx="720.1" cy="419.9" r="1.54" opacity="0.129"/><circle cx="391.6" cy="708.2" r="1.54" opacity="0.129"/><circle cx="439.2" cy="272.9" r="1.54" opacity="0.129"/><circle cx="698.6" cy="626.5" r="1.54" opacity="0.129"/><circle cx="267.7" cy="541" r="1.54" opacity="0.129"/><circle cx="643.9" cy="312.5" r="1.55" opacity="0.13"/><circle cx="520.6" cy="735.9" r="1.55" opacity="0.13"/><circle cx="325.1" cy="339.8" r="1.55" opacity="0.13"/><circle cx="737.6" cy="500" r="1.55" opacity="0.13"/><circle cx="324.5" cy="660.8" r="1.55" opacity="0.13"/><circle cx="520.8" cy="262.5" r="1.55" opacity="0.13"/><circle cx="645.4" cy="689.5" r="1.56" opacity="0.13"/><circle cx="264.4" cy="458.5" r="1.56" opacity="0.131"/><circle cx="702.1" cy="371.2" r="1.56" opacity="0.131"/><circle cx="437.9" cy="731.9" r="1.56" opacity="0.131"/><circle cx="389" cy="286.7" r="1.56" opacity="0.131"/><circle cx="726.3" cy="582.4" r="1.56" opacity="0.131"/><circle cx="277.1" cy="592.3" r="1.57" opacity="0.131"/><circle cx="602.1" cy="281" r="1.57" opacity="0.131"/><circle cx="572.8" cy="730.9" r="1.57" opacity="0.132"/><circle cx="290" cy="378.8" r="1.57" opacity="0.132"/><circle cx="737.1" cy="447.4" r="1.57" opacity="0.132"/><circle cx="360.5" cy="699.3" r="1.57" opacity="0.132"/><circle cx="468.2" cy="258.4" r="1.57" opacity="0.132"/><circle cx="687" cy="656.9" r="1.58" opacity="0.132"/><circle cx="255.7" cy="510.7" r="1.58" opacity="0.132"/><circle cx="673.2" cy="326.8" r="1.58" opacity="0.132"/><circle cx="489.3" cy="745.1" r="1.58" opacity="0.133"/><circle cx="342.1" cy="311.8" r="1.58" opacity="0.133"/><circle cx="744" cy="532.1" r="1.58" opacity="0.133"/><circle cx="298.1" cy="641.4" r="1.59" opacity="0.133"/><circle cx="553.4" cy="259" r="1.59" opacity="0.133"/><circle cx="623.6" cy="714.2" r="1.59" opacity="0.133"/><circle cx="263.8" cy="425.5" r="1.59" opacity="0.133"/><circle cx="724.8" cy="395.2" r="1.59" opacity="0.134"/><circle cx="404.9" cy="729.6" r="1.59" opacity="0.134"/><circle cx="414.9" cy="266.1" r="1.6" opacity="0.134"/><circle cx="721.1" cy="615.1" r="1.6" opacity="0.134"/><circle cx="258.9" cy="564.6" r="1.6" opacity="0.134"/><circle cx="634.4" cy="289.1" r="1.6" opacity="0.134"/><circle cx="543.5" cy="746.6" r="1.6" opacity="0.134"/><circle cx="301" cy="347.3" r="1.6" opacity="0.134"/><circle cx="750.3" cy="478.1" r="1.6" opacity="0.135"/><circle cx="330" cy="685.5" r="1.61" opacity="0.135"/><circle cx="500" cy="248" r="1.61" opacity="0.135"/><circle cx="670.5" cy="686.1" r="1.61" opacity="0.135"/><circle cx="248.2" cy="478" r="1.61" opacity="0.135"/><circle cx="700.8" cy="345.9" r="1.61" opacity="0.135"/><circle cx="456" cy="749.7" r="1.61" opacity="0.135"/><circle cx="363.6" cy="285.8" r="1.62" opacity="0.136"/><circle cx="745.7" cy="565.8" r="1.62" opacity="0.136"/><circle cx="274.1" cy="617.6" r="1.62" opacity="0.136"/><circle cx="587.2" cy="260.3" r="1.62" opacity="0.136"/><circle cx="597.8" cy="736" r="1.62" opacity="0.136"/><circle cx="268.1" cy="391.9" r="1.62" opacity="0.136"/><circle cx="744.4" cy="422.9" r="1.62" opacity="0.136"/><circle cx="371.7" cy="722.2" r="1.63" opacity="0.136"/><circle cx="444.4" cy="249.1" r="1.63" opacity="0.137"/><circle cx="710.8" cy="647.6" r="1.63" opacity="0.137"/><circle cx="244.4" cy="533.6" r="1.63" opacity="0.137"/><circle cx="665.9" cy="302.2" r="1.63" opacity="0.137"/><circle cx="511.3" cy="758.3" r="1.63" opacity="0.137"/><circle cx="316.9" cy="316.9" r="1.64" opacity="0.137"/><circle cx="759" cy="511.3" r="1.64" opacity="0.137"/><circle cx="301.1" cy="666.9" r="1.64" opacity="0.137"/><circle cx="533.9" cy="242.2" r="1.64" opacity="0.138"/><circle cx="649.4" cy="713.3" r="1.64" opacity="0.138"/><circle cx="245.4" cy="443.6" r="1.64" opacity="0.138"/><circle cx="726.2" cy="369.4" r="1.64" opacity="0.138"/><circle cx="421.4" cy="749.4" r="1.65" opacity="0.138"/><circle cx="389.3" cy="262.6" r="1.65" opacity="0.138"/><circle cx="742.3" cy="600.4" r="1.65" opacity="0.138"/><circle cx="253.2" cy="589.8" r="1.65" opacity="0.138"/><circle cx="621.5" cy="266.7" r="1.65" opacity="0.139"/><circle cx="568.2" cy="754.4" r="1.65" opacity="0.139"/><circle cx="277.5" cy="358.3" r="1.66" opacity="0.139"/><circle cx="760.1" cy="454.1" r="1.66" opacity="0.139"/><circle cx="339" cy="709.9" r="1.66" opacity="0.139"/><circle cx="476.9" cy="236.1" r="1.66" opacity="0.139"/><circle cx="695.6" cy="679.2" r="1.66" opacity="0.139"/><circle cx="234.4" cy="500" r="1.66" opacity="0.139"/><circle cx="696.1" cy="320.3" r="1.66" opacity="0.14"/><circle cx="476.8" cy="765.4" r="1.67" opacity="0.14"/><circle cx="337.6" cy="288.4" r="1.67" opacity="0.14"/><circle cx="763" cy="546.4" r="1.67" opacity="0.14"/><circle cx="274.4" cy="643.7" r="1.67" opacity="0.14"/><circle cx="569.3" cy="241.3" r="1.67" opacity="0.14"/><circle cx="623.8" cy="737.9" r="1.67" opacity="0.14"/><circle cx="247.6" cy="408.1" r="1.67" opacity="0.14"/><circle cx="748.5" cy="397.1" r="1.68" opacity="0.141"/><circle cx="386.2" cy="744.1" r="1.68" opacity="0.141"/><circle cx="418.9" cy="242.8" r="1.68" opacity="0.141"/><circle cx="733.8" cy="635" r="1.68" opacity="0.141"/><circle cx="236" cy="558.5" r="1.68" opacity="0.141"/><circle cx="655.3" cy="278.2" r="1.68" opacity="0.141"/><circle cx="535.4" cy="768.8" r="1.68" opacity="0.141"/><circle cx="292" cy="325.5" r="1.69" opacity="0.141"/><circle cx="771.6" cy="488.1" r="1.69" opacity="0.142"/><circle cx="307.5" cy="692.5" r="1.69" opacity="0.142"/><circle cx="511.9" cy="227.7" r="1.69" opacity="0.142"/><circle cx="675.4" cy="709.1" r="1.69" opacity="0.142"/><circle cx="229.1" cy="464.3" r="1.69" opacity="0.142"/><circle cx="724.1" cy="343.1" r="1.69" opacity="0.142"/><circle cx="440.7" cy="767.5" r="1.7" opacity="0.142"/><circle cx="362.8" cy="262.4" r="1.7" opacity="0.142"/><circle cx="762" cy="582.6" r="1.7" opacity="0.143"/><circle cx="250.7" cy="616.2" r="1.7" opacity="0.143"/><circle cx="605.4" cy="245.6" r="1.7" opacity="0.143"/><circle cx="594.3" cy="759.1" r="1.7" opacity="0.143"/><circle cx="255.1" cy="372.5" r="1.7" opacity="0.143"/><circle cx="767.1" cy="428.4" r="1.71" opacity="0.143"/><circle cx="351.3" cy="733.5" r="1.71" opacity="0.143"/><circle cx="451.9" cy="227" r="1.71" opacity="0.143"/><circle cx="720.2" cy="669" r="1.71" opacity="0.143"/><circle cx="223.2" cy="524.2" r="1.71" opacity="0.144"/><circle cx="688" cy="294.9" r="1.71" opacity="0.144"/><circle cx="500" cy="778.6" r="1.71" opacity="0.144"/><circle cx="311.5" cy="294.3" r="1.72" opacity="0.144"/><circle cx="778.2" cy="524.3" r="1.72" opacity="0.144"/><circle cx="278.1" cy="670.2" r="1.72" opacity="0.144"/><circle cx="548.6" cy="224.3" r="1.72" opacity="0.144"/><circle cx="650.6" cy="736.4" r="1.72" opacity="0.144"/><circle cx="228.9" cy="427.3" r="1.72" opacity="0.145"/><circle cx="749.3" cy="370.2" r="1.72" opacity="0.145"/><circle cx="403.8" cy="764.4" r="1.73" opacity="0.145"/><circle cx="392.2" cy="239.7" r="1.73" opacity="0.145"/><circle cx="755.7" cy="619.2" r="1.73" opacity="0.145"/><circle cx="230.6" cy="584.9" r="1.73" opacity="0.145"/><circle cx="641.4" cy="255.1" r="1.73" opacity="0.145"/><circle cx="561.3" cy="776.4" r="1.73" opacity="0.145"/><circle cx="267.8" cy="337.4" r="1.73" opacity="0.145"/><circle cx="781.4" cy="463" r="1.74" opacity="0.146"/><circle cx="317.3" cy="717.7" r="1.74" opacity="0.146"/><circle cx="487.6" cy="215.8" r="1.74" opacity="0.146"/><circle cx="701.4" cy="701.4" r="1.74" opacity="0.146"/><circle cx="215.1" cy="487.6" r="1.74" opacity="0.146"/><circle cx="718.7" cy="316.5" r="1.74" opacity="0.146"/><circle cx="462.7" cy="783.4" r="1.74" opacity="0.146"/><circle cx="335.8" cy="265.5" r="1.74" opacity="0.146"/><circle cx="779.8" cy="562" r="1.75" opacity="0.147"/><circle cx="251.5" cy="643.5" r="1.75" opacity="0.147"/><circle cx="586.4" cy="226" r="1.75" opacity="0.147"/><circle cx="621.5" cy="760.7" r="1.75" opacity="0.147"/><circle cx="234" cy="389.8" r="1.75" opacity="0.147"/><circle cx="770.9" cy="401.4" r="1.75" opacity="0.147"/><circle cx="366.7" cy="756" r="1.75" opacity="0.147"/><circle cx="425.2" cy="220.9" r="1.76" opacity="0.147"/><circle cx="744" cy="655.4" r="1.76" opacity="0.147"/><circle cx="214.8" cy="550.3" r="1.76" opacity="0.148"/><circle cx="676.5" cy="269.9" r="1.76" opacity="0.148"/><circle cx="525.3" cy="789.2" r="1.76" opacity="0.148"/><circle cx="285.7" cy="303.6" r="1.76" opacity="0.148"/><circle cx="791" cy="500" r="1.76" opacity="0.148"/><circle cx="285.2" cy="696.8" r="1.77" opacity="0.148"/><circle cx="525.4" cy="209.5" r="1.77" opacity="0.148"/><circle cx="677.8" cy="731.7" r="1.77" opacity="0.148"/><circle cx="212.1" cy="449.2" r="1.77" opacity="0.148"/><circle cx="746.8" cy="342.8" r="1.77" opacity="0.149"/><circle cx="424.2" cy="783" r="1.77" opacity="0.149"/><circle cx="364.6" cy="239.8" r="1.77" opacity="0.149"/><circle cx="776" cy="600.4" r="1.77" opacity="0.149"/><circle cx="228.4" cy="612.5" r="1.78" opacity="0.149"/><circle cx="624.4" cy="233.2" r="1.78" opacity="0.149"/><circle cx="588.6" cy="781" r="1.78" opacity="0.149"/><circle cx="244.5" cy="352.5" r="1.78" opacity="0.149"/><circle cx="788.3" cy="436.1" r="1.78" opacity="0.149"/><circle cx="330.4" cy="742.2" r="1.78" opacity="0.15"/><circle cx="461.4" cy="206.5" r="1.78" opacity="0.15"/><circle cx="727" cy="690.5" r="1.79" opacity="0.15"/><circle cx="203.6" cy="512.9" r="1.79" opacity="0.15"/><circle cx="710" cy="290" r="1.79" opacity="0.15"/><circle cx="487" cy="797" r="1.79" opacity="0.15"/><circle cx="308.7" cy="272" r="1.79" opacity="0.15"/><circle cx="795.4" cy="538.9" r="1.79" opacity="0.15"/><circle cx="255.6" cy="671.1" r="1.79" opacity="0.15"/><circle cx="564.6" cy="208.4" r="1.79" opacity="0.151"/><circle cx="649.5" cy="758.9" r="1.8" opacity="0.151"/><circle cx="214.6" cy="410" r="1.8" opacity="0.151"/><circle cx="771.5" cy="373.4" r="1.8" opacity="0.151"/><circle cx="385.2" cy="777.1" r="1.8" opacity="0.151"/><circle cx="397.3" cy="217.8" r="1.8" opacity="0.151"/><circle cx="766.6" cy="638.8" r="1.8" opacity="0.151"/><circle cx="209.3" cy="577.9" r="1.8" opacity="0.151"/><circle cx="661.9" cy="245.9" r="1.8" opacity="0.151"/><circle cx="552.4" cy="797" r="1.81" opacity="0.152"/><circle cx="260.5" cy="316.2" r="1.81" opacity="0.152"/><circle cx="801.1" cy="473.7" r="1.81" opacity="0.152"/><circle cx="295.6" cy="723.1" r="1.81" opacity="0.152"/><circle cx="500" cy="197.1" r="1.81" opacity="0.152"/><circle cx="704.8" cy="723.5" r="1.81" opacity="0.152"/><circle cx="197.6" cy="473.5" r="1.81" opacity="0.152"/><circle cx="741" cy="315" r="1.82" opacity="0.152"/><circle cx="447.2" cy="799.5" r="1.82" opacity="0.152"/><circle cx="336.4" cy="243.2" r="1.82" opacity="0.153"/><circle cx="794.4" cy="578.9" r="1.82" opacity="0.153"/><circle cx="229.4" cy="640.9" r="1.82" opacity="0.153"/><circle cx="604.5" cy="213" r="1.82" opacity="0.153"/><circle cx="617" cy="782.5" r="1.82" opacity="0.153"/><circle cx="222.6" cy="370.6" r="1.82" opacity="0.153"/><circle cx="792.2" cy="407.9" r="1.83" opacity="0.153"/><circle cx="346.6" cy="765.6" r="1.83" opacity="0.153"/><circle cx="433.5" cy="200.2" r="1.83" opacity="0.153"/><circle cx="751.8" cy="676.3" r="1.83" opacity="0.154"/><circle cx="195" cy="540.2" r="1.83" opacity="0.154"/><circle cx="698" cy="264.1" r="1.83" opacity="0.154"/><circle cx="513.4" cy="808" r="1.83" opacity="0.154"/><circle cx="281.8" cy="281.8" r="1.83" opacity="0.154"/><circle cx="808.7" cy="513.5" r="1.84" opacity="0.154"/><circle cx="263.1" cy="698.8" r="1.84" opacity="0.154"/><circle cx="540.4" cy="193.1" r="1.84" opacity="0.154"/><circle cx="677.8" cy="753.9" r="1.84" opacity="0.154"/><circle cx="197.1" cy="432.9" r="1.84" opacity="0.154"/><circle cx="768.9" cy="344.7" r="1.84" opacity="0.155"/><circle cx="406.5" cy="796.5" r="1.84" opacity="0.155"/><circle cx="368.5" cy="218" r="1.84" opacity="0.155"/><circle cx="787.8" cy="619.2" r="1.85" opacity="0.155"/><circle cx="207" cy="606.6" r="1.85" opacity="0.155"/><circle cx="644.1" cy="223.2" r="1.85" opacity="0.155"/><circle cx="580.9" cy="801.8" r="1.85" opacity="0.155"/><circle cx="236.2" cy="332" r="1.85" opacity="0.155"/><circle cx="808.3" cy="445.6" r="1.85" opacity="0.155"/><circle cx="309.2" cy="748.6" r="1.85" opacity="0.156"/><circle cx="472.7" cy="187.5" r="1.85" opacity="0.156"/><circle cx="731.5" cy="712.1" r="1.86" opacity="0.156"/><circle cx="185.7" cy="500" r="1.86" opacity="0.156"/><circle cx="732" cy="287.5" r="1.86" opacity="0.156"/><circle cx="472.6" cy="813.7" r="1.86" opacity="0.156"/><circle cx="308.1" cy="249.9" r="1.86" opacity="0.156"/><circle cx="810.8" cy="554.8" r="1.86" opacity="0.156"/><circle cx="233.6" cy="669.7" r="1.86" opacity="0.156"/><circle cx="581.8" cy="194.6" r="1.86" opacity="0.156"/><circle cx="646.1" cy="780.7" r="1.87" opacity="0.157"/><circle cx="202.3" cy="391.7" r="1.87" opacity="0.157"/><circle cx="793" cy="378.7" r="1.87" opacity="0.157"/><circle cx="365.9" cy="787.7" r="1.87" opacity="0.157"/><circle cx="404.5" cy="197" r="1.87" opacity="0.157"/><circle cx="775.4" cy="659" r="1.87" opacity="0.157"/><circle cx="189.2" cy="568.9" r="1.87" opacity="0.157"/><circle cx="682.8" cy="239" r="1.87" opacity="0.157"/><circle cx="541.6" cy="816.2" r="1.88" opacity="0.157"/><circle cx="255.4" cy="294.8" r="1.88" opacity="0.158"/><circle cx="819.3" cy="486.1" r="1.88" opacity="0.158"/><circle cx="273.8" cy="726.2" r="1.88" opacity="0.158"/><circle cx="514" cy="180.1" r="1.88" opacity="0.158"/><circle cx="706" cy="745.5" r="1.88" opacity="0.158"/><circle cx="182" cy="458.1" r="1.88" opacity="0.158"/><circle cx="763" cy="315.8" r="1.88" opacity="0.158"/><circle cx="430.4" cy="813.8" r="1.89" opacity="0.158"/><circle cx="339.2" cy="221.4" r="1.89" opacity="0.158"/><circle cx="807.1" cy="596.8" r="1.89" opacity="0.158"/><circle cx="207.9" cy="636.2" r="1.89" opacity="0.159"/><circle cx="623.5" cy="201.9" r="1.89" opacity="0.159"/><circle cx="610.4" cy="803.4" r="1.89" opacity="0.159"/><circle cx="213.3" cy="350.8" r="1.89" opacity="0.159"/><circle cx="812.5" cy="416.3" r="1.89" opacity="0.159"/><circle cx="326" cy="773.1" r="1.9" opacity="0.159"/><circle cx="443.7" cy="180.8" r="1.9" opacity="0.159"/><circle cx="757.4" cy="697.5" r="1.9" opacity="0.159"/><circle cx="176.5" cy="528.3" r="1.9" opacity="0.159"/><circle cx="719.6" cy="260.4" r="1.9" opacity="0.159"/><circle cx="500" cy="825.3" r="1.9" opacity="0.16"/><circle cx="280" cy="259.9" r="1.9" opacity="0.16"/><circle cx="824.7" cy="528.4" r="1.9" opacity="0.16"/><circle cx="241.2" cy="698.6" r="1.9" opacity="0.16"/><circle cx="556.7" cy="178.4" r="1.91" opacity="0.16"/><circle cx="675.6" cy="775.6" r="1.91" opacity="0.16"/><circle cx="184" cy="415.3" r="1.91" opacity="0.16"/><circle cx="790.4" cy="348.8" r="1.91" opacity="0.16"/><circle cx="387.9" cy="808" r="1.91" opacity="0.16"/><circle cx="374.5" cy="196.9" r="1.91" opacity="0.16"/><circle cx="797.6" cy="638.8" r="1.91" opacity="0.161"/><circle cx="186.6" cy="598.8" r="1.91" opacity="0.161"/><circle cx="664.5" cy="215.1" r="1.92" opacity="0.161"/><circle cx="571.3" cy="821.4" r="1.92" opacity="0.161"/><circle cx="230.1" cy="311" r="1.92" opacity="0.161"/><circle cx="827" cy="457" r="1.92" opacity="0.161"/><circle cx="287.8" cy="752.9" r="1.92" opacity="0.161"/><circle cx="485.6" cy="169.9" r="1.92" opacity="0.161"/><circle cx="733.8" cy="733.8" r="1.92" opacity="0.161"/><circle cx="169.3" cy="485.6" r="1.92" opacity="0.161"/><circle cx="753.8" cy="287" r="1.93" opacity="0.162"/><circle cx="456.7" cy="828.8" r="1.93" opacity="0.162"/><circle cx="309.6" cy="228.1" r="1.93" opacity="0.162"/><circle cx="824.3" cy="571.9" r="1.93" opacity="0.162"/><circle cx="212.1" cy="666.2" r="1.93" opacity="0.162"/><circle cx="600.1" cy="182.6" r="1.93" opacity="0.162"/><circle cx="640.8" cy="801.9" r="1.93" opacity="0.162"/><circle cx="192" cy="372.4" r="1.93" opacity="0.162"/><circle cx="813.5" cy="385.9" r="1.93" opacity="0.162"/><circle cx="345.8" cy="796.2" r="1.94" opacity="0.162"/><circle cx="413.5" cy="177.1" r="1.94" opacity="0.163"/><circle cx="782.1" cy="679.7" r="1.94" opacity="0.163"/><circle cx="170.3" cy="558.1" r="1.94" opacity="0.163"/><circle cx="704" cy="234.1" r="1.94" opacity="0.163"/><circle cx="529.2" cy="834.1" r="1.94" opacity="0.163"/><circle cx="252.5" cy="273.2" r="1.94" opacity="0.163"/><circle cx="836" cy="500" r="1.94" opacity="0.163"/><circle cx="252.1" cy="727.2" r="1.95" opacity="0.163"/><circle cx="529.3" cy="164.7" r="1.95" opacity="0.163"/><circle cx="705.1" cy="767.3" r="1.95" opacity="0.163"/><circle cx="168" cy="441.5" r="1.95" opacity="0.164"/><circle cx="784.6" cy="318.7" r="1.95" opacity="0.164"/><circle cx="412.6" cy="826.2" r="1.95" opacity="0.164"/><circle cx="343.9" cy="200.2" r="1.95" opacity="0.164"/><circle cx="817.9" cy="615.7" r="1.95" opacity="0.164"/><circle cx="187.2" cy="629.6" r="1.95" opacity="0.164"/><circle cx="643.2" cy="192.8" r="1.96" opacity="0.164"/><circle cx="602" cy="823.5" r="1.96" opacity="0.164"/><circle cx="206" cy="330.3" r="1.96" opacity="0.164"/><circle cx="831.7" cy="426.5" r="1.96" opacity="0.164"/><circle cx="305" cy="778.6" r="1.96" opacity="0.165"/><circle cx="455.6" cy="162.6" r="1.96" opacity="0.165"/><circle cx="760.9" cy="719" r="1.96" opacity="0.165"/><circle cx="159.4" cy="514.9" r="1.96" opacity="0.165"/><circle cx="741.3" cy="258.7" r="1.96" opacity="0.165"/><circle cx="485.1" cy="841.2" r="1.97" opacity="0.165"/><circle cx="280.3" cy="238.2" r="1.97" opacity="0.165"/><circle cx="839.1" cy="544.6" r="1.97" opacity="0.165"/><circle cx="219.6" cy="696.4" r="1.97" opacity="0.165"/><circle cx="574.2" cy="165.5" r="1.97" opacity="0.165"/><circle cx="671.5" cy="797" r="1.97" opacity="0.166"/><circle cx="172.7" cy="396.8" r="1.97" opacity="0.166"/><circle cx="811.3" cy="354.8" r="1.97" opacity="0.166"/><circle cx="368.4" cy="817.6" r="1.98" opacity="0.166"/><circle cx="382.3" cy="176.7" r="1.98" opacity="0.166"/><circle cx="805.4" cy="659" r="1.98" opacity="0.166"/><circle cx="167.1" cy="589.2" r="1.98" opacity="0.166"/><circle cx="685.3" cy="209.1" r="1.98" opacity="0.166"/><circle cx="559.9" cy="840" r="1.98" opacity="0.166"/><circle cx="225.9" cy="289.7" r="1.98" opacity="0.166"/><circle cx="844.5" cy="469.9" r="1.98" opacity="0.166"/><circle cx="266.2" cy="755.1" r="1.98" opacity="0.167"/><circle cx="500" cy="153.7" r="1.99" opacity="0.167"/><circle cx="734.2" cy="755.6" r="1.99" opacity="0.167"/><circle cx="154.4" cy="469.8" r="1.99" opacity="0.167"/><circle cx="775.4" cy="288.6" r="1.99" opacity="0.167"/><circle cx="439.7" cy="842.2" r="1.99" opacity="0.167"/><circle cx="313.2" cy="206.7" r="1.99" opacity="0.167"/><circle cx="836.2" cy="590.1" r="1.99" opacity="0.167"/><circle cx="191" cy="660.8" r="1.99" opacity="0.167"/><circle cx="619.2" cy="172.4" r="1.99" opacity="0.167"/><circle cx="633.5" cy="822.3" r="2" opacity="0.168"/><circle cx="183.6" cy="352.4" r="2" opacity="0.168"/><circle cx="833.3" cy="394.9" r="2" opacity="0.168"/><circle cx="325.1" cy="802.9" r="2" opacity="0.168"/><circle cx="424.2" cy="158.3" r="2" opacity="0.168"/><circle cx="786.9" cy="700.9" r="2" opacity="0.168"/><circle cx="152.4" cy="545.8" r="2" opacity="0.168"/><circle cx="725.5" cy="231.2" r="2" opacity="0.168"/><circle cx="515.3" cy="850.8" r="2" opacity="0.168"/><circle cx="251.5" cy="251.5" r="2.01" opacity="0.168"/><circle cx="851.3" cy="515.3" r="2.01" opacity="0.168"/><circle cx="230.4" cy="726.2" r="2.01" opacity="0.169"/><circle cx="546" cy="150.8" r="2.01" opacity="0.169"/><circle cx="702.2" cy="788.8" r="2.01" opacity="0.169"/><circle cx="155.6" cy="423.6" r="2.01" opacity="0.169"/><circle cx="805.8" cy="323.5" r="2.01" opacity="0.169"/><circle cx="393.7" cy="837" r="2.01" opacity="0.169"/><circle cx="350.6" cy="179.5" r="2.01" opacity="0.169"/><circle cx="827" cy="635.4" r="2.02" opacity="0.169"/><circle cx="167.2" cy="621.1" r="2.02" opacity="0.169"/><circle cx="663.7" cy="185.6" r="2.02" opacity="0.169"/><circle cx="591.8" cy="842.6" r="2.02" opacity="0.169"/><circle cx="200.6" cy="309.3" r="2.02" opacity="0.17"/><circle cx="849.9" cy="438.3" r="2.02" opacity="0.17"/><circle cx="283.6" cy="782.1" r="2.02" opacity="0.17"/><circle cx="469" cy="145.5" r="2.02" opacity="0.17"/><circle cx="762.5" cy="740.6" r="2.02" opacity="0.17"/><circle cx="143.6" cy="500" r="2.03" opacity="0.17"/><circle cx="763" cy="259" r="2.03" opacity="0.17"/><circle cx="468.9" cy="855.6" r="2.03" opacity="0.17"/><circle cx="282.5" cy="216.6" r="2.03" opacity="0.17"/><circle cx="852" cy="562.1" r="2.03" opacity="0.17"/><circle cx="198.3" cy="692.2" r="2.03" opacity="0.171"/><circle cx="592.7" cy="154.2" r="2.03" opacity="0.171"/><circle cx="665.4" cy="817.8" r="2.03" opacity="0.171"/><circle cx="163" cy="377.4" r="2.03" opacity="0.171"/><circle cx="831.5" cy="362.7" r="2.04" opacity="0.171"/><circle cx="348.2" cy="825.5" r="2.04" opacity="0.171"/><circle cx="391.9" cy="157.2" r="2.04" opacity="0.171"/><circle cx="811.5" cy="679.8" r="2.04" opacity="0.171"/><circle cx="148.6" cy="577.9" r="2.04" opacity="0.171"/><circle cx="706.6" cy="204.9" r="2.04" opacity="0.171"/><circle cx="547.1" cy="857.4" r="2.04" opacity="0.171"/><circle cx="223.6" cy="268.1" r="2.04" opacity="0.172"/><circle cx="860.7" cy="484.3" r="2.04" opacity="0.172"/><circle cx="244.5" cy="755.5" r="2.05" opacity="0.172"/><circle cx="515.8" cy="138.8" r="2.05" opacity="0.172"/><circle cx="732.6" cy="777.2" r="2.05" opacity="0.172"/><circle cx="141" cy="452.7" r="2.05" opacity="0.172"/><circle cx="796.8" cy="292.1" r="2.05" opacity="0.172"/><circle cx="421.5" cy="854.1" r="2.05" opacity="0.172"/><circle cx="318.5" cy="185.7" r="2.05" opacity="0.172"/><circle cx="846.4" cy="609.2" r="2.05" opacity="0.172"/><circle cx="170.6" cy="653.6" r="2.05" opacity="0.172"/><circle cx="639.2" cy="164" r="2.05" opacity="0.173"/><circle cx="624.5" cy="842" r="2.06" opacity="0.173"/><circle cx="176.9" cy="331.8" r="2.06" opacity="0.173"/><circle cx="852.1" cy="405.7" r="2.06" opacity="0.173"/><circle cx="304" cy="807.7" r="2.06" opacity="0.173"/><circle cx="436.6" cy="140.5" r="2.06" opacity="0.173"/><circle cx="789.8" cy="722.4" r="2.06" opacity="0.173"/><circle cx="135.8" cy="531.9" r="2.06" opacity="0.173"/><circle cx="747.2" cy="230.2" r="2.06" opacity="0.173"/><circle cx="500" cy="866.1" r="2.06" opacity="0.173"/><circle cx="252.5" cy="229.9" r="2.07" opacity="0.173"/><circle cx="865.3" cy="532" r="2.07" opacity="0.174"/><circle cx="208.9" cy="723.4" r="2.07" opacity="0.174"/><circle cx="563.8" cy="138.4" r="2.07" opacity="0.174"/><circle cx="697.4" cy="809.9" r="2.07" opacity="0.174"/><circle cx="144.8" cy="404.8" r="2.07" opacity="0.174"/><circle cx="826.4" cy="330.1" r="2.07" opacity="0.174"/><circle cx="374" cy="846.1" r="2.07" opacity="0.174"/><circle cx="359" cy="159.5" r="2.07" opacity="0.174"/><circle cx="834.3" cy="655.9" r="2.08" opacity="0.174"/><circle cx="148" cy="611" r="2.08" opacity="0.174"/><circle cx="684.7" cy="180.1" r="2.08" opacity="0.174"/><circle cx="580" cy="860.8" r="2.08" opacity="0.175"/><circle cx="197" cy="287.8" r="2.08" opacity="0.175"/><circle cx="867" cy="451.7" r="2.08" opacity="0.175"/></g></svg>