<svg xmlns="http://www.w3.org/2000/svg" viewBox="0 0 1000 1000" preserveAspectRatio="xMidYMid slice" fill="none" stroke-linecap="round" stroke-linejoin="round"><g stroke="#0f3d2e" stroke-width="0.7"><line x1="-450" y1="-260" x2="1450" y2="-260" opacity="0.05"/><line x1="-450" y1="-230" x2="1450" y2="-230" opacity="0.05"/><line x1="-450" y1="-200" x2="1450" y2="-200" opacity="0.05"/><line x1="-450" y1="-170" x2="1450" y2="-170" opacity="0.05"/><line x1="-450" y1="-140" x2="1450" y2="-140" opacity="0.05"/><line x1="-450" y1="-110" x2="1450" y2="-110" opacity="0.05"/><line x1="-450" y1="-80" x2="1450" y2="-80" opacity="0.05"/><line x1="-450" y1="-50" x2="1450" y2="-50" opacity="0.05"/><line x1="-450" y1="-20" x2="1450" y2="-20" opacity="0.05"/><line x1="-450" y1="10" x2="1450" y2="10" opacity="0.05"/><line x1="-450" y1="40" x2="1450" y2="40" opacity="0.05"/><line x1="-450" y1="70" x2="1450" y2="70" opacity="0.05"/><line x1="-450" y1="100" x2="1450" y2="100" opacity="0.05"/><line x1="-450" y1="130" x2="1450" y2="130" opacity="0.05"/><line x1="-450" y1="160" x2="1450" y2="160" opacity="0.05"/><line x1="-450" y1="190" x2="1450" y2="190" opacity="0.05"/><line x1="-450" y1="220" x2="1450" y2="220" opacity="0.05"/><line x1="-450" y1="250" x2="1450" y2="250" opacity="0.05"/><line x1="-450" y1="280" x2="1450" y2="280" opacity="0.05"/><line x1="-450" y1="310" x2="1450" y2="310" opacity="0.05"/><line x1="-450" y1="340" x2="1450" y2="340" opacity="0.05"/><line x1="-450" y1="370" x2="1450" y2="370" opacity="0.05"/><line x1="-450" y1="400" x2="1450" y2="400" opacity="0.05"/><line x1="-450" y1="430" x2="1450" y2="430" opacity="0.05"/><line x1="-450" y1="460" x2="1450" y2="460" opacity="0.05"/><line x1="-450" y1="490" x2="1450" y2="490" opacity="0.05"/><line x1="-450" y1="520" x2="1450" y2="520" opacity="0.05"/><line x1="-450" y1="550" x2="1450" y2="550" opacity="0.05"/><line x1="-450" y1="580" x2="1450" y2="580" opacity="0.05"/><line x1="-450" y1="610" x2="1450" y2="610" opacity="0.05"/><line x1="-450" y1="640" x2="1450" y2="640" opacity="0.05"/><line x1="-450" y1="670" x2="1450" y2="670" opacity="0.05"/><line x1="-450" y1="700" x2="1450" y2="700" opacity="0.05"/><line x1="-450" y1="730" x2="1450" y2="730" opacity="0.05"/><line x1="-450" y1="760" x2="1450" y2="760" opacity="0.05"/><line x1="-450" y1="790" x2="1450" y2="790" opacity="0.05"/><line x1="-450" y1="820" x2="1450" y2="820" opacity="0.05"/><line x1="-450" y1="850" x2="1450" y2="850" opacity="0.05"/><line x1="-450" y1="880" x2="1450" y2="880" opacity="0.05"/><line x1="-450" y1="910" x2="1450" y2="910" opacity="0.05"/><line x1="-450" y1="940" x2="1450" y2="940" opacity="0.05"/><line x1="-450" y1="970" x2="1450" y2="970" opacity="0.05"/><line x1="-450" y1="1000" x2="1450" y2="1000" opacity="0.05"/><line x1="-450" y1="1030" x2="1450" y2="1030" opacity="0.05"/><line x1="-450" y1="1060" x2="1450" y2="1060" opacity="0.05"/><line x1="-450" y1="1090" x2="1450" y2="1090" opacity="0.05"/><line x1="-450" y1="1120" x2="1450" y2="1120" opacity="0.05"/><line x1="-450" y1="1150" x2="1450" y2="1150" opacity="0.05"/><line x1="-450" y1="1180" x2="1450" y2="1180" opacity="0.05"/><line x1="-450" y1="1210" x2="1450" y2="1210" opacity="0.05"/><line x1="-450" y1="1240" x2="1450" y2="1240" opacity="0.05"/><line x1="178.2" y1="-673.2" x2="1715.3" y2="443.5" opacity="0.05"/><line x1="160.5" y1="-649" x2="1697.6" y2="467.8" opacity="0.05"/><line x1="142.9" y1="-624.7" x2="1680" y2="492.1" opacity="0.05"/><line x1="125.2" y1="-600.4" x2="1662.4" y2="516.4" opacity="0.05"/><line x1="107.6" y1="-576.2" x2="1644.7" y2="540.6" opacity="0.05"/><line x1="90" y1="-551.9" x2="1627.1" y2="564.9" opacity="0.05"/><line x1="72.3" y1="-527.6" x2="1609.5" y2="589.2" opacity="0.05"/><line x1="54.7" y1="-503.4" x2="1591.8" y2="613.4" opacity="0.05"/><line x1="37.1" y1="-479.1" x2="1574.2" y2="637.7" opacity="0.05"/><line x1="19.4" y1="-454.8" x2="1556.6" y2="662" opacity="0.05"/><line x1="1.8" y1="-430.5" x2="1538.9" y2="686.2" opacity="0.05"/><line x1="-15.8" y1="-406.3" x2="1521.3" y2="710.5" opacity="0.05"/><line x1="-33.5" y1="-382" x2="1503.7" y2="734.8" opacity="0.05"/><line x1="-51.1" y1="-357.7" x2="1486" y2="759.1" opacity="0.05"/><line x1="-68.7" y1="-333.5" x2="1468.4" y2="783.3" opacity="0.05"/><line x1="-86.4" y1="-309.2" x2="1450.8" y2="807.6" opacity="0.05"/><line x1="-104" y1="-284.9" x2="1433.1" y2="831.9" opacity="0.05"/><line x1="-121.6" y1="-260.7" x2="1415.5" y2="856.1" opacity="0.05"/><line x1="-139.3" y1="-236.4" x2="1397.9" y2="880.4" opacity="0.05"/><line x1="-156.9" y1="-212.1" x2="1380.2" y2="904.7" opacity="0.05"/><line x1="-174.5" y1="-187.8" x2="1362.6" y2="929" opacity="0.05"/><line x1="-192.2" y1="-163.6" x2="1345" y2="953.2" opacity="0.05"/><line x1="-209.8" y1="-139.3" x2="1327.3" y2="977.5" opacity="0.05"/><line x1="-227.4" y1="-115" x2="1309.7" y2="1001.8" opacity="0.05"/><line x1="-245.1" y1="-90.8" x2="1292.1" y2="1026" opacity="0.05"/><line x1="-262.7" y1="-66.5" x2="1274.4" y2="1050.3" opacity="0.05"/><line x1="-280.3" y1="-42.2" x2="1256.8" y2="1074.6" opacity="0.05"/><line x1="-298" y1="-17.9" x2="1239.2" y2="1098.8" opacity="0.05"/><line x1="-315.6" y1="6.3" x2="1221.5" y2="1123.1" opacity="0.05"/><line x1="-333.2" y1="30.6" x2="1203.9" y2="1147.4" opacity="0.05"/><line x1="-350.9" y1="54.9" x2="1186.3" y2="1171.7" opacity="0.05"/><line x1="-368.5" y1="79.1" x2="1168.6" y2="1195.9" opacity="0.05"/><line x1="-386.1" y1="103.4" x2="1151" y2="1220.2" opacity="0.05"/><line x1="-403.8" y1="127.7" x2="1133.4" y2="1244.5" opacity="0.05"/><line x1="-421.4" y1="151.9" x2="1115.7" y2="1268.7" opacity="0.05"/><line x1="-439" y1="176.2" x2="1098.1" y2="1293" opacity="0.05"/><line x1="-456.7" y1="200.5" x2="1080.5" y2="1317.3" opacity="0.05"/><line x1="-474.3" y1="224.8" x2="1062.8" y2="1341.6" opacity="0.05"/><line x1="-491.9" y1="249" x2="1045.2" y2="1365.8" opacity="0.05"/><line x1="-509.6" y1="273.3" x2="1027.6" y2="1390.1" opacity="0.05"/><line x1="-527.2" y1="297.6" x2="1009.9" y2="1414.4" opacity="0.05"/><line x1="-544.8" y1="321.8" x2="992.3" y2="1438.6" opacity="0.05"/><line x1="-562.5" y1="346.1" x2="974.7" y2="1462.9" opacity="0.05"/><line x1="-580.1" y1="370.4" x2="957" y2="1487.2" opacity="0.05"/><line x1="-597.7" y1="394.7" x2="939.4" y2="1511.4" opacity="0.05"/><line x1="-615.4" y1="418.9" x2="921.8" y2="1535.7" opacity="0.05"/><line x1="-633" y1="443.2" x2="904.1" y2="1560" opacity="0.05"/><line x1="-650.6" y1="467.5" x2="886.5" y2="1584.3" opacity="0.05"/><line x1="-668.3" y1="491.7" x2="868.9" y2="1608.5" opacity="0.05"/><line x1="-685.9" y1="516" x2="851.2" y2="1632.8" opacity="0.05"/><line x1="-703.5" y1="540.3" x2="833.6" y2="1657.1" opacity="0.05"/><line x1="929.2" y1="-638.4" x2="1516.4" y2="1168.7" opacity="0.05"/><line x1="900.7" y1="-629.1" x2="1487.8" y2="1177.9" opacity="0.05"/><line x1="872.2" y1="-619.8" x2="1459.3" y2="1187.2" opacity="0.05"/><line x1="843.6" y1="-610.5" x2="1430.8" y2="1196.5" opacity="0.05"/><line x1="815.1" y1="-601.3" x2="1402.2" y2="1205.7" opacity="0.05"/><line x1="786.6" y1="-592" x2="1373.7" y2="1215" opacity="0.05"/><line x1="758" y1="-582.7" x2="1345.2" y2="1224.3" opacity="0.05"/><line x1="729.5" y1="-573.5" x2="1316.6" y2="1233.5" opacity="0.05"/><line x1="701" y1="-564.2" x2="1288.1" y2="1242.8" opacity="0.05"/><line x1="672.5" y1="-554.9" x2="1259.6" y2="1252.1" opacity="0.05"/><line x1="643.9" y1="-545.7" x2="1231.1" y2="1261.4" opacity="0.05"/><line x1="615.4" y1="-536.4" x2="1202.5" y2="1270.6" opacity="0.05"/><line x1="586.9" y1="-527.1" x2="1174" y2="1279.9" opacity="0.05"/><line x1="558.3" y1="-517.8" x2="1145.5" y2="1289.2" opacity="0.05"/><line x1="529.8" y1="-508.6" x2="1116.9" y2="1298.4" opacity="0.05"/><line x1="501.3" y1="-499.3" x2="1088.4" y2="1307.7" opacity="0.05"/><line x1="472.7" y1="-490" x2="1059.9" y2="1317" opacity="0.05"/><line x1="444.2" y1="-480.8" x2="1031.3" y2="1326.2" opacity="0.05"/><line x1="415.7" y1="-471.5" x2="1002.8" y2="1335.5" opacity="0.05"/><line x1="387.1" y1="-462.2" x2="974.3" y2="1344.8" opacity="0.05"/><line x1="358.6" y1="-452.9" x2="945.7" y2="1354.1" opacity="0.05"/><line x1="330.1" y1="-443.7" x2="917.2" y2="1363.3" opacity="0.05"/><line x1="301.5" y1="-434.4" x2="888.7" y2="1372.6" opacity="0.05"/><line x1="273" y1="-425.1" x2="860.1" y2="1381.9" opacity="0.05"/><line x1="244.5" y1="-415.9" x2="831.6" y2="1391.1" opacity="0.05"/><line x1="215.9" y1="-406.6" x2="803.1" y2="1400.4" opacity="0.05"/><line x1="187.4" y1="-397.3" x2="774.5" y2="1409.7" opacity="0.05"/><line x1="158.9" y1="-388.1" x2="746" y2="1419" opacity="0.05"/><line x1="130.3" y1="-378.8" x2="717.5" y2="1428.2" opacity="0.05"/><line x1="101.8" y1="-369.5" x2="688.9" y2="1437.5" opacity="0.05"/><line x1="73.3" y1="-360.2" x2="660.4" y2="1446.8" opacity="0.05"/><line x1="44.8" y1="-351" x2="631.9" y2="1456" opacity="0.05"/><line x1="16.2" y1="-341.7" x2="603.4" y2="1465.3" opacity="0.05"/><line x1="-12.3" y1="-332.4" x2="574.8" y2="1474.6" opacity="0.05"/><line x1="-40.8" y1="-323.2" x2="546.3" y2="1483.8" opacity="0.05"/><line x1="-69.4" y1="-313.9" x2="517.8" y2="1493.1" opacity="0.05"/><line x1="-97.9" y1="-304.6" x2="489.2" y2="1502.4" opacity="0.05"/><line x1="-126.4" y1="-295.3" x2="460.7" y2="1511.7" opacity="0.05"/><line x1="-155" y1="-286.1" x2="432.2" y2="1520.9" opacity="0.05"/><line x1="-183.5" y1="-276.8" x2="403.6" y2="1530.2" opacity="0.05"/><line x1="-212" y1="-267.5" x2="375.1" y2="1539.5" opacity="0.05"/><line x1="-240.6" y1="-258.3" x2="346.6" y2="1548.7" opacity="0.05"/><line x1="-269.1" y1="-249" x2="318" y2="1558" opacity="0.05"/><line x1="-297.6" y1="-239.7" x2="289.5" y2="1567.3" opacity="0.05"/><line x1="-326.2" y1="-230.5" x2="261" y2="1576.6" opacity="0.05"/><line x1="-354.7" y1="-221.2" x2="232.4" y2="1585.8" opacity="0.05"/><line x1="-383.2" y1="-211.9" x2="203.9" y2="1595.1" opacity="0.05"/><line x1="-411.8" y1="-202.6" x2="175.4" y2="1604.4" opacity="0.05"/><line x1="-440.3" y1="-193.4" x2="146.8" y2="1613.6" opacity="0.05"/><line x1="-468.8" y1="-184.1" x2="118.3" y2="1622.9" opacity="0.05"/><line x1="-497.3" y1="-174.8" x2="89.8" y2="1632.2" opacity="0.05"/><line x1="1516.4" y1="-168.7" x2="929.2" y2="1638.4" opacity="0.05"/><line x1="1487.8" y1="-177.9" x2="900.7" y2="1629.1" opacity="0.05"/><line x1="1459.3" y1="-187.2" x2="872.2" y2="1619.8" opacity="0.05"/><line x1="1430.8" y1="-196.5" x2="843.6" y2="1610.5" opacity="0.05"/><line x1="1402.2" y1="-205.7" x2="815.1" y2="1601.3" opacity="0.05"/><line x1="1373.7" y1="-215" x2="786.6" y2="1592" opacity="0.05"/><line x1="1345.2" y1="-224.3" x2="758" y2="1582.7" opacity="0.05"/><line x1="1316.6" y1="-233.5" x2="729.5" y2="1573.5" opacity="0.05"/><line x1="1288.1" y1="-242.8" x2="701" y2="1564.2" opacity="0.05"/><line x1="1259.6" y1="-252.1" x2="672.5" y2="1554.9" opacity="0.05"/><line x1="1231.1" y1="-261.4" x2="643.9" y2="1545.7" opacity="0.05"/><line x1="1202.5" y1="-270.6" x2="615.4" y2="1536.4" opacity="0.05"/><line x1="1174" y1="-279.9" x2="586.9" y2="1527.1" opacity="0.05"/><line x1="1145.5" y1="-289.2" x2="558.3" y2="1517.8" opacity="0.05"/><line x1="1116.9" y1="-298.4" x2="529.8" y2="1508.6" opacity="0.05"/><line x1="1088.4" y1="-307.7" x2="501.3" y2="1499.3" opacity="0.05"/><line x1="1059.9" y1="-317" x2="472.7" y2="1490" opacity="0.05"/><line x1="1031.3" y1="-326.2" x2="444.2" y2="1480.8" opacity="0.05"/><line x1="1002.8" y1="-335.5" x2="415.7" y2="1471.5" opacity="0.05"/><line x1="974.3" y1="-344.8" x2="387.1" y2="1462.2" opacity="0.05"/><line x1="945.7" y1="-354.1" x2="358.6" y2="1452.9" opacity="0.05"/><line x1="917.2" y1="-363.3" x2="330.1" y2="1443.7" opacity="0.05"/><line x1="888.7" y1="-372.6" x2="301.5" y2="1434.4" opacity="0.05"/><line x1="860.1" y1="-381.9" x2="273" y2="1425.1" opacity="0.05"/><line x1="831.6" y1="-391.1" x2="244.5" y2="1415.9" opacity="0.05"/><line x1="803.1" y1="-400.4" x2="215.9" y2="1406.6" opacity="0.05"/><line x1="774.5" y1="-409.7" x2="187.4" y2="1397.3" opacity="0.05"/><line x1="746" y1="-419" x2="158.9" y2="1388.1" opacity="0.05"/><line x1="717.5" y1="-428.2" x2="130.3" y2="1378.8" opacity="0.05"/><line x1="688.9" y1="-437.5" x2="101.8" y2="1369.5" opacity="0.05"/><line x1="660.4" y1="-446.8" x2="73.3" y2="1360.2" opacity="0.05"/><line x1="631.9" y1="-456" x2="44.8" y2="1351" opacity="0.05"/><line x1="603.4" y1="-465.3" x2="16.2" y2="1341.7" opacity="0.05"/><line x1="574.8" y1="-474.6" x2="-12.3" y2="1332.4" opacity="0.05"/><line x1="546.3" y1="-483.8" x2="-40.8" y2="1323.2" opacity="0.05"/><line x1="517.8" y1="-493.1" x2="-69.4" y2="1313.9" opacity="0.05"/><line x1="489.2" y1="-502.4" x2="-97.9" y2="1304.6" opacity="0.05"/><line x1="460.7" y1="-511.7" x2="-126.4" y2="1295.3" opacity="0.05"/><line x1="432.2" y1="-520.9" x2="-155" y2="1286.1" opacity="0.05"/><line x1="403.6" y1="-530.2" x2="-183.5" y2="1276.8" opacity="0.05"/><line x1="375.1" y1="-539.5" x2="-212" y2="1267.5" opacity="0.05"/><line x1="346.6" y1="-548.7" x2="-240.6" y2="1258.3" opacity="0.05"/><line x1="318" y1="-558" x2="-269.1" y2="1249" opacity="0.05"/><line x1="289.5" y1="-567.3" x2="-297.6" y2="1239.7" opacity="0.05"/><line x1="261" y1="-576.6" x2="-326.2" y2="1230.5" opacity="0.05"/><line x1="232.4" y1="-585.8" x2="-354.7" y2="1221.2" opacity="0.05"/><line x1="203.9" y1="-595.1" x2="-383.2" y2="1211.9" opacity="0.05"/><line x1="175.4" y1="-604.4" x2="-411.8" y2="1202.6" opacity="0.05"/><line x1="146.8" y1="-613.6" x2="-440.3" y2="1193.4" opacity="0.05"/><line x1="118.3" y1="-622.9" x2="-468.8" y2="1184.1" opacity="0.05"/><line x1="89.8" y1="-632.2" x2="-497.3" y2="1174.8" opacity="0.05"/><line x1="1715.3" y1="556.5" x2="178.2" y2="1673.2" opacity="0.05"/><line x1="1697.6" y1="532.2" x2="160.5" y2="1649" opacity="0.05"/><line x1="1680" y1="507.9" x2="142.9" y2="1624.7" opacity="0.05"/><line x1="1662.4" y1="483.6" x2="125.2" y2="1600.4" opacity="0.05"/><line x1="1644.7" y1="459.4" x2="107.6" y2="1576.2" opacity="0.05"/><line x1="1627.1" y1="435.1" x2="90" y2="1551.9" opacity="0.05"/><line x1="1609.5" y1="410.8" x2="72.3" y2="1527.6" opacity="0.05"/><line x1="1591.8" y1="386.6" x2="54.7" y2="1503.4" opacity="0.05"/><line x1="1574.2" y1="362.3" x2="37.1" y2="1479.1" opacity="0.05"/><line x1="1556.6" y1="338" x2="19.4" y2="1454.8" opacity="0.05"/><line x1="1538.9" y1="313.8" x2="1.8" y2="1430.5" opacity="0.05"/><line x1="1521.3" y1="289.5" x2="-15.8" y2="1406.3" opacity="0.05"/><line x1="1503.7" y1="265.2" x2="-33.5" y2="1382" opacity="0.05"/><line x1="1486" y1="240.9" x2="-51.1" y2="1357.7" opacity="0.05"/><line x1="1468.4" y1="216.7" x2="-68.7" y2="1333.5" opacity="0.05"/><line x1="1450.8" y1="192.4" x2="-86.4" y2="1309.2" opacity="0.05"/><line x1="1433.1" y1="168.1" x2="-104" y2="1284.9" opacity="0.05"/><line x1="1415.5" y1="143.9" x2="-121.6" y2="1260.7" opacity="0.05"/><line x1="1397.9" y1="119.6" x2="-139.3" y2="1236.4" opacity="0.05"/><line x1="1380.2" y1="95.3" x2="-156.9" y2="1212.1" opacity="0.05"/><line x1="1362.6" y1="71" x2="-174.5" y2="1187.8" opacity="0.05"/><line x1="1345" y1="46.8" x2="-192.2" y2="1163.6" opacity="0.05"/><line x1="1327.3" y1="22.5" x2="-209.8" y2="1139.3" opacity="0.05"/><line x1="1309.7" y1="-1.8" x2="-227.4" y2="1115" opacity="0.05"/><line x1="1292.1" y1="-26" x2="-245.1" y2="1090.8" opacity="0.05"/><line x1="1274.4" y1="-50.3" x2="-262.7" y2="1066.5" opacity="0.05"/><line x1="1256.8" y1="-74.6" x2="-280.3" y2="1042.2" opacity="0.05"/><line x1="1239.2" y1="-98.8" x2="-298" y2="1017.9" opacity="0.05"/><line x1="1221.5" y1="-123.1" x2="-315.6" y2="993.7" opacity="0.05"/><line x1="1203.9" y1="-147.4" x2="-333.2" y2="969.4" opacity="0.05"/><line x1="1186.3" y1="-171.7" x2="-350.9" y2="945.1" opacity="0.05"/><line x1="1168.6" y1="-195.9" x2="-368.5" y2="920.9" opacity="0.05"/><line x1="1151" y1="-220.2" x2="-386.1" y2="896.6" opacity="0.05"/><line x1="1133.4" y1="-244.5" x2="-403.8" y2="872.3" opacity="0.05"/><line x1="1115.7" y1="-268.7" x2="-421.4" y2="848.1" opacity="0.05"/><line x1="1098.1" y1="-293" x2="-439" y2="823.8" opacity="0.05"/><line x1="1080.5" y1="-317.3" x2="-456.7" y2="799.5" opacity="0.05"/><line x1="1062.8" y1="-341.6" x2="-474.3" y2="775.2" opacity="0.05"/><line x1="1045.2" y1="-365.8" x2="-491.9" y2="751" opacity="0.05"/><line x1="1027.6" y1="-390.1" x2="-509.6" y2="726.7" opacity="0.05"/><line x1="1009.9" y1="-414.4" x2="-527.2" y2="702.4" opacity="0.05"/><line x1="992.3" y1="-438.6" x2="-544.8" y2="678.2" opacity="0.05"/><line x1="974.7" y1="-462.9" x2="-562.5" y2="653.9" opacity="0.05"/><line x1="957" y1="-487.2" x2="-580.1" y2="629.6" opacity="0.05"/><line x1="939.4" y1="-511.4" x2="-597.7" y2="605.3" opacity="0.05"/><line x1="921.8" y1="-535.7" x2="-615.4" y2="581.1" opacity="0.05"/><line x1="904.1" y1="-560" x2="-633" y2="556.8" opacity="0.05"/><line x1="886.5" y1="-584.3" x2="-650.6" y2="532.5" opacity="0.05"/><line x1="868.9" y1="-608.5" x2="-668.3" y2="508.3" opacity="0.05"/><line x1="851.2" y1="-632.8" x2="-685.9" y2="484" opacity="0.05"/><line x1="833.6" y1="-657.1" x2="-703.5" y2="459.7" opacity="0.05"/></g></svg>