<svg xmlns="http://www.w3.org/2000/svg" viewBox="0 0 1000 1000" preserveAspectRatio="xMidYMid slice" fill="none" stroke-linecap="round" stroke-linejoin="round"><g stroke="#0f3d2e" stroke-width="0.7"><line x1="-450" y1="-260" x2="1450" y2="-260" opacity="0.05"/><line x1="-450" y1="-232" x2="1450" y2="-232" opacity="0.05"/><line x1="-450" y1="-204" x2="1450" y2="-204" opacity="0.05"/><line x1="-450" y1="-176" x2="1450" y2="-176" opacity="0.05"/><line x1="-450" y1="-148" x2="1450" y2="-148" opacity="0.05"/><line x1="-450" y1="-120" x2="1450" y2="-120" opacity="0.05"/><line x1="-450" y1="-92" x2="1450" y2="-92" opacity="0.05"/><line x1="-450" y1="-64" x2="1450" y2="-64" opacity="0.05"/><line x1="-450" y1="-36" x2="1450" y2="-36" opacity="0.05"/><line x1="-450" y1="-8" x2="1450" y2="-8" opacity="0.05"/><line x1="-450" y1="20" x2="1450" y2="20" opacity="0.05"/><line x1="-450" y1="48" x2="1450" y2="48" opacity="0.05"/><line x1="-450" y1="76" x2="1450" y2="76" opacity="0.05"/><line x1="-450" y1="104" x2="1450" y2="104" opacity="0.05"/><line x1="-450" y1="132" x2="1450" y2="132" opacity="0.05"/><line x1="-450" y1="160" x2="1450" y2="160" opacity="0.05"/><line x1="-450" y1="188" x2="1450" y2="188" opacity="0.05"/><line x1="-450" y1="216" x2="1450" y2="216" opacity="0.05"/><line x1="-450" y1="244" x2="1450" y2="244" opacity="0.05"/><line x1="-450" y1="272" x2="1450" y2="272" opacity="0.05"/><line x1="-450" y1="300" x2="1450" y2="300" opacity="0.05"/><line x1="-450" y1="328" x2="1450" y2="328" opacity="0.05"/><line x1="-450" y1="356" x2="1450" y2="356" opacity="0.05"/><line x1="-450" y1="384" x2="1450" y2="384" opacity="0.05"/><line x1="-450" y1="412" x2="1450" y2="412" opacity="0.05"/><line x1="-450" y1="440" x2="1450" y2="440" opacity="0.05"/><line x1="-450" y1="468" x2="1450" y2="468" opacity="0.05"/><line x1="-450" y1="496" x2="1450" y2="496" opacity="0.05"/><line x1="-450" y1="524" x2="1450" y2="524" opacity="0.05"/><line x1="-450" y1="552" x2="1450" y2="552" opacity="0.05"/><line x1="-450" y1="580" x2="1450" y2="580" opacity="0.05"/><line x1="-450" y1="608" x2="1450" y2="608" opacity="0.05"/><line x1="-450" y1="636" x2="1450" y2="636" opacity="0.05"/><line x1="-450" y1="664" x2="1450" y2="664" opacity="0.05"/><line x1="-450" y1="692" x2="1450" y2="692" opacity="0.05"/><line x1="-450" y1="720" x2="1450" y2="720" opacity="0.05"/><line x1="-450" y1="748" x2="1450" y2="748" opacity="0.05"/><line x1="-450" y1="776" x2="1450" y2="776" opacity="0.05"/><line x1="-450" y1="804" x2="1450" y2="804" opacity="0.05"/><line x1="-450" y1="832" x2="1450" y2="832" opacity="0.05"/><line x1="-450" y1="860" x2="1450" y2="860" opacity="0.05"/><line x1="-450" y1="888" x2="1450" y2="888" opacity="0.05"/><line x1="-450" y1="916" x2="1450" y2="916" opacity="0.05"/><line x1="-450" y1="944" x2="1450" y2="944" opacity="0.05"/><line x1="-450" y1="972" x2="1450" y2="972" opacity="0.05"/><line x1="-450" y1="1000" x2="1450" y2="1000" opacity="0.05"/><line x1="-450" y1="1028" x2="1450" y2="1028" opacity="0.05"/><line x1="-450" y1="1056" x2="1450" y2="1056" opacity="0.05"/><line x1="-450" y1="1084" x2="1450" y2="1084" opacity="0.05"/><line x1="-450" y1="1112" x2="1450" y2="1112" opacity="0.05"/><line x1="-450" y1="1140" x2="1450" y2="1140" opacity="0.05"/><line x1="-450" y1="1168" x2="1450" y2="1168" opacity="0.05"/><line x1="-450" y1="1196" x2="1450" y2="1196" opacity="0.05"/><line x1="-450" y1="1224" x2="1450" y2="1224" opacity="0.05"/><line x1="-450" y1="1252" x2="1450" y2="1252" opacity="0.05"/><line x1="57.3" y1="-633.2" x2="1702.7" y2="316.8" opacity="0.05"/><line x1="43.3" y1="-608.9" x2="1688.7" y2="341.1" opacity="0.05"/><line x1="29.3" y1="-584.7" x2="1674.7" y2="365.3" opacity="0.05"/><line x1="15.3" y1="-560.4" x2="1660.7" y2="389.6" opacity="0.05"/><line x1="1.3" y1="-536.2" x2="1646.7" y2="413.8" opacity="0.05"/><line x1="-12.7" y1="-511.9" x2="1632.7" y2="438.1" opacity="0.05"/><line x1="-26.7" y1="-487.7" x2="1618.7" y2="462.3" opacity="0.05"/><line x1="-40.7" y1="-463.4" x2="1604.7" y2="486.6" opacity="0.05"/><line x1="-54.7" y1="-439.2" x2="1590.7" y2="510.8" opacity="0.05"/><line x1="-68.7" y1="-414.9" x2="1576.7" y2="535.1" opacity="0.05"/><line x1="-82.7" y1="-390.7" x2="1562.7" y2="559.3" opacity="0.05"/><line x1="-96.7" y1="-366.4" x2="1548.7" y2="583.6" opacity="0.05"/><line x1="-110.7" y1="-342.2" x2="1534.7" y2="607.8" opacity="0.05"/><line x1="-124.7" y1="-317.9" x2="1520.7" y2="632.1" opacity="0.05"/><line x1="-138.7" y1="-293.7" x2="1506.7" y2="656.3" opacity="0.05"/><line x1="-152.7" y1="-269.4" x2="1492.7" y2="680.6" opacity="0.05"/><line x1="-166.7" y1="-245.2" x2="1478.7" y2="704.8" opacity="0.05"/><line x1="-180.7" y1="-221" x2="1464.7" y2="729" opacity="0.05"/><line x1="-194.7" y1="-196.7" x2="1450.7" y2="753.3" opacity="0.05"/><line x1="-208.7" y1="-172.5" x2="1436.7" y2="777.5" opacity="0.05"/><line x1="-222.7" y1="-148.2" x2="1422.7" y2="801.8" opacity="0.05"/><line x1="-236.7" y1="-124" x2="1408.7" y2="826" opacity="0.05"/><line x1="-250.7" y1="-99.7" x2="1394.7" y2="850.3" opacity="0.05"/><line x1="-264.7" y1="-75.5" x2="1380.7" y2="874.5" opacity="0.05"/><line x1="-278.7" y1="-51.2" x2="1366.7" y2="898.8" opacity="0.05"/><line x1="-292.7" y1="-27" x2="1352.7" y2="923" opacity="0.05"/><line x1="-306.7" y1="-2.7" x2="1338.7" y2="947.3" opacity="0.05"/><line x1="-320.7" y1="21.5" x2="1324.7" y2="971.5" opacity="0.05"/><line x1="-334.7" y1="45.8" x2="1310.7" y2="995.8" opacity="0.05"/><line x1="-348.7" y1="70" x2="1296.7" y2="1020" opacity="0.05"/><line x1="-362.7" y1="94.3" x2="1282.7" y2="1044.3" opacity="0.05"/><line x1="-376.7" y1="118.5" x2="1268.7" y2="1068.5" opacity="0.05"/><line x1="-390.7" y1="142.8" x2="1254.7" y2="1092.8" opacity="0.05"/><line x1="-404.7" y1="167" x2="1240.7" y2="1117" opacity="0.05"/><line x1="-418.7" y1="191.3" x2="1226.7" y2="1141.3" opacity="0.05"/><line x1="-432.7" y1="215.5" x2="1212.7" y2="1165.5" opacity="0.05"/><line x1="-446.7" y1="239.8" x2="1198.7" y2="1189.8" opacity="0.05"/><line x1="-460.7" y1="264" x2="1184.7" y2="1214" opacity="0.05"/><line x1="-474.7" y1="288.3" x2="1170.7" y2="1238.3" opacity="0.05"/><line x1="-488.7" y1="312.5" x2="1156.7" y2="1262.5" opacity="0.05"/><line x1="-502.7" y1="336.8" x2="1142.7" y2="1286.8" opacity="0.05"/><line x1="-516.7" y1="361" x2="1128.7" y2="1311" opacity="0.05"/><line x1="-530.7" y1="385.3" x2="1114.7" y2="1335.3" opacity="0.05"/><line x1="-544.7" y1="409.5" x2="1100.7" y2="1359.5" opacity="0.05"/><line x1="-558.7" y1="433.8" x2="1086.7" y2="1383.8" opacity="0.05"/><line x1="-572.7" y1="458" x2="1072.7" y2="1408" opacity="0.05"/><line x1="-586.7" y1="482.3" x2="1058.7" y2="1432.3" opacity="0.05"/><line x1="-600.7" y1="506.5" x2="1044.7" y2="1456.5" opacity="0.05"/><line x1="-614.7" y1="530.8" x2="1030.7" y2="1480.8" opacity="0.05"/><line x1="-628.7" y1="555" x2="1016.7" y2="1505" opacity="0.05"/><line x1="-642.7" y1="579.3" x2="1002.7" y2="1529.3" opacity="0.05"/><line x1="-656.7" y1="603.5" x2="988.7" y2="1553.5" opacity="0.05"/><line x1="-670.7" y1="627.8" x2="974.7" y2="1577.8" opacity="0.05"/><line x1="-684.7" y1="652" x2="960.7" y2="1602" opacity="0.05"/><line x1="-698.7" y1="676.3" x2="946.7" y2="1626.3" opacity="0.05"/><line x1="683.2" y1="-702.7" x2="1633.2" y2="942.7" opacity="0.05"/><line x1="658.9" y1="-688.7" x2="1608.9" y2="956.7" opacity="0.05"/><line x1="634.7" y1="-674.7" x2="1584.7" y2="970.7" opacity="0.05"/><line x1="610.4" y1="-660.7" x2="1560.4" y2="984.7" opacity="0.05"/><line x1="586.2" y1="-646.7" x2="1536.2" y2="998.7" opacity="0.05"/><line x1="561.9" y1="-632.7" x2="1511.9" y2="1012.7" opacity="0.05"/><line x1="537.7" y1="-618.7" x2="1487.7" y2="1026.7" opacity="0.05"/><line x1="513.4" y1="-604.7" x2="1463.4" y2="1040.7" opacity="0.05"/><line x1="489.2" y1="-590.7" x2="1439.2" y2="1054.7" opacity="0.05"/><line x1="464.9" y1="-576.7" x2="1414.9" y2="1068.7" opacity="0.05"/><line x1="440.7" y1="-562.7" x2="1390.7" y2="1082.7" opacity="0.05"/><line x1="416.4" y1="-548.7" x2="1366.4" y2="1096.7" opacity="0.05"/><line x1="392.2" y1="-534.7" x2="1342.2" y2="1110.7" opacity="0.05"/><line x1="367.9" y1="-520.7" x2="1317.9" y2="1124.7" opacity="0.05"/><line x1="343.7" y1="-506.7" x2="1293.7" y2="1138.7" opacity="0.05"/><line x1="319.4" y1="-492.7" x2="1269.4" y2="1152.7" opacity="0.05"/><line x1="295.2" y1="-478.7" x2="1245.2" y2="1166.7" opacity="0.05"/><line x1="271" y1="-464.7" x2="1221" y2="1180.7" opacity="0.05"/><line x1="246.7" y1="-450.7" x2="1196.7" y2="1194.7" opacity="0.05"/><line x1="222.5" y1="-436.7" x2="1172.5" y2="1208.7" opacity="0.05"/><line x1="198.2" y1="-422.7" x2="1148.2" y2="1222.7" opacity="0.05"/><line x1="174" y1="-408.7" x2="1124" y2="1236.7" opacity="0.05"/><line x1="149.7" y1="-394.7" x2="1099.7" y2="1250.7" opacity="0.05"/><line x1="125.5" y1="-380.7" x2="1075.5" y2="1264.7" opacity="0.05"/><line x1="101.2" y1="-366.7" x2="1051.2" y2="1278.7" opacity="0.05"/><line x1="77" y1="-352.7" x2="1027" y2="1292.7" opacity="0.05"/><line x1="52.7" y1="-338.7" x2="1002.7" y2="1306.7" opacity="0.05"/><line x1="28.5" y1="-324.7" x2="978.5" y2="1320.7" opacity="0.05"/><line x1="4.2" y1="-310.7" x2="954.2" y2="1334.7" opacity="0.05"/><line x1="-20" y1="-296.7" x2="930" y2="1348.7" opacity="0.05"/><line x1="-44.3" y1="-282.7" x2="905.7" y2="1362.7" opacity="0.05"/><line x1="-68.5" y1="-268.7" x2="881.5" y2="1376.7" opacity="0.05"/><line x1="-92.8" y1="-254.7" x2="857.2" y2="1390.7" opacity="0.05"/><line x1="-117" y1="-240.7" x2="833" y2="1404.7" opacity="0.05"/><line x1="-141.3" y1="-226.7" x2="808.7" y2="1418.7" opacity="0.05"/><line x1="-165.5" y1="-212.7" x2="784.5" y2="1432.7" opacity="0.05"/><line x1="-189.8" y1="-198.7" x2="760.2" y2="1446.7" opacity="0.05"/><line x1="-214" y1="-184.7" x2="736" y2="1460.7" opacity="0.05"/><line x1="-238.3" y1="-170.7" x2="711.7" y2="1474.7" opacity="0.05"/><line x1="-262.5" y1="-156.7" x2="687.5" y2="1488.7" opacity="0.05"/><line x1="-286.8" y1="-142.7" x2="663.2" y2="1502.7" opacity="0.05"/><line x1="-311" y1="-128.7" x2="639" y2="1516.7" opacity="0.05"/><line x1="-335.3" y1="-114.7" x2="614.7" y2="1530.7" opacity="0.05"/><line x1="-359.5" y1="-100.7" x2="590.5" y2="1544.7" opacity="0.05"/><line x1="-383.8" y1="-86.7" x2="566.2" y2="1558.7" opacity="0.05"/><line x1="-408" y1="-72.7" x2="542" y2="1572.7" opacity="0.05"/><line x1="-432.3" y1="-58.7" x2="517.7" y2="1586.7" opacity="0.05"/><line x1="-456.5" y1="-44.7" x2="493.5" y2="1600.7" opacity="0.05"/><line x1="-480.8" y1="-30.7" x2="469.2" y2="1614.7" opacity="0.05"/><line x1="-505" y1="-16.7" x2="445" y2="1628.7" opacity="0.05"/><line x1="-529.3" y1="-2.7" x2="420.7" y2="1642.7" opacity="0.05"/><line x1="-553.5" y1="11.3" x2="396.5" y2="1656.7" opacity="0.05"/><line x1="-577.8" y1="25.3" x2="372.2" y2="1670.7" opacity="0.05"/><line x1="-602" y1="39.3" x2="348" y2="1684.7" opacity="0.05"/><line x1="-626.3" y1="53.3" x2="323.7" y2="1698.7" opacity="0.05"/><line x1="1260" y1="-450" x2="1260" y2="1450" opacity="0.05"/><line x1="1232" y1="-450" x2="1232" y2="1450" opacity="0.05"/><line x1="1204" y1="-450" x2="1204" y2="1450" opacity="0.05"/><line x1="1176" y1="-450" x2="1176" y2="1450" opacity="0.05"/><line x1="1148" y1="-450" x2="1148" y2="1450" opacity="0.05"/><line x1="1120" y1="-450" x2="1120" y2="1450" opacity="0.05"/><line x1="1092" y1="-450" x2="1092" y2="1450" opacity="0.05"/><line x1="1064" y1="-450" x2="1064" y2="1450" opacity="0.05"/><line x1="1036" y1="-450" x2="1036" y2="1450" opacity="0.05"/><line x1="1008" y1="-450" x2="1008" y2="1450" opacity="0.05"/><line x1="980" y1="-450" x2="980" y2="1450" opacity="0.05"/><line x1="952" y1="-450" x2="952" y2="1450" opacity="0.05"/><line x1="924" y1="-450" x2="924" y2="1450" opacity="0.05"/><line x1="896" y1="-450" x2="896" y2="1450" opacity="0.05"/><line x1="868" y1="-450" x2="868" y2="1450" opacity="0.05"/><line x1="840" y1="-450" x2="840" y2="1450" opacity="0.05"/><line x1="812" y1="-450" x2="812" y2="1450" opacity="0.05"/><line x1="784" y1="-450" x2="784" y2="1450" opacity="0.05"/><line x1="756" y1="-450" x2="756" y2="1450" opacity="0.05"/><line x1="728" y1="-450" x2="728" y2="1450" opacity="0.05"/><line x1="700" y1="-450" x2="700" y2="1450" opacity="0.05"/><line x1="672" y1="-450" x2="672" y2="1450" opacity="0.05"/><line x1="644" y1="-450" x2="644" y2="1450" opacity="0.05"/><line x1="616" y1="-450" x2="616" y2="1450" opacity="0.05"/><line x1="588" y1="-450" x2="588" y2="1450" opacity="0.05"/><line x1="560" y1="-450" x2="560" y2="1450" opacity="0.05"/><line x1="532" y1="-450" x2="532" y2="1450" opacity="0.05"/><line x1="504" y1="-450" x2="504" y2="1450" opacity="0.05"/><line x1="476" y1="-450" x2="476" y2="1450" opacity="0.05"/><line x1="448" y1="-450" x2="448" y2="1450" opacity="0.05"/><line x1="420" y1="-450" x2="420" y2="1450" opacity="0.05"/><line x1="392" y1="-450" x2="392" y2="1450" opacity="0.05"/><line x1="364" y1="-450" x2="364" y2="1450" opacity="0.05"/><line x1="336" y1="-450" x2="336" y2="1450" opacity="0.05"/><line x1="308" y1="-450" x2="308" y2="1450" opacity="0.05"/><line x1="280" y1="-450" x2="280" y2="1450" opacity="0.05"/><line x1="252" y1="-450" x2="252" y2="1450" opacity="0.05"/><line x1="224" y1="-450" x2="224" y2="1450" opacity="0.05"/><line x1="196" y1="-450" x2="196" y2="1450" opacity="0.05"/><line x1="168" y1="-450" x2="168" y2="1450" opacity="0.05"/><line x1="140" y1="-450" x2="140" y2="1450" opacity="0.05"/><line x1="112" y1="-450" x2="112" y2="1450" opacity="0.05"/><line x1="84" y1="-450" x2="84" y2="1450" opacity="0.05"/><line x1="56" y1="-450" x2="56" y2="1450" opacity="0.05"/><line x1="28" y1="-450" x2="28" y2="1450" opacity="0.05"/><line x1="0" y1="-450" x2="0" y2="1450" opacity="0.05"/><line x1="-28" y1="-450" x2="-28" y2="1450" opacity="0.05"/><line x1="-56" y1="-450" x2="-56" y2="1450" opacity="0.05"/><line x1="-84" y1="-450" x2="-84" y2="1450" opacity="0.05"/><line x1="-112" y1="-450" x2="-112" y2="1450" opacity="0.05"/><line x1="-140" y1="-450" x2="-140" y2="1450" opacity="0.05"/><line x1="-168" y1="-450" x2="-168" y2="1450" opacity="0.05"/><line x1="-196" y1="-450" x2="-196" y2="1450" opacity="0.05"/><line x1="-224" y1="-450" x2="-224" y2="1450" opacity="0.05"/><line x1="-252" y1="-450" x2="-252" y2="1450" opacity="0.05"/><line x1="1633.2" y1="57.3" x2="683.2" y2="1702.7" opacity="0.05"/><line x1="1608.9" y1="43.3" x2="658.9" y2="1688.7" opacity="0.05"/><line x1="1584.7" y1="29.3" x2="634.7" y2="1674.7" opacity="0.05"/><line x1="1560.4" y1="15.3" x2="610.4" y2="1660.7" opacity="0.05"/><line x1="1536.2" y1="1.3" x2="586.2" y2="1646.7" opacity="0.05"/><line x1="1511.9" y1="-12.7" x2="561.9" y2="1632.7" opacity="0.05"/><line x1="1487.7" y1="-26.7" x2="537.7" y2="1618.7" opacity="0.05"/><line x1="1463.4" y1="-40.7" x2="513.4" y2="1604.7" opacity="0.05"/><line x1="1439.2" y1="-54.7" x2="489.2" y2="1590.7" opacity="0.05"/><line x1="1414.9" y1="-68.7" x2="464.9" y2="1576.7" opacity="0.05"/><line x1="1390.7" y1="-82.7" x2="440.7" y2="1562.7" opacity="0.05"/><line x1="1366.4" y1="-96.7" x2="416.4" y2="1548.7" opacity="0.05"/><line x1="1342.2" y1="-110.7" x2="392.2" y2="1534.7" opacity="0.05"/><line x1="1317.9" y1="-124.7" x2="367.9" y2="1520.7" opacity="0.05"/><line x1="1293.7" y1="-138.7" x2="343.7" y2="1506.7" opacity="0.05"/><line x1="1269.4" y1="-152.7" x2="319.4" y2="1492.7" opacity="0.05"/><line x1="1245.2" y1="-166.7" x2="295.2" y2="1478.7" opacity="0.05"/><line x1="1221" y1="-180.7" x2="271" y2="1464.7" opacity="0.05"/><line x1="1196.7" y1="-194.7" x2="246.7" y2="1450.7" opacity="0.05"/><line x1="1172.5" y1="-208.7" x2="222.5" y2="1436.7" opacity="0.05"/><line x1="1148.2" y1="-222.7" x2="198.2" y2="1422.7" opacity="0.05"/><line x1="1124" y1="-236.7" x2="174" y2="1408.7" opacity="0.05"/><line x1="1099.7" y1="-250.7" x2="149.7" y2="1394.7" opacity="0.05"/><line x1="1075.5" y1="-264.7" x2="125.5" y2="1380.7" opacity="0.05"/><line x1="1051.2" y1="-278.7" x2="101.2" y2="1366.7" opacity="0.05"/><line x1="1027" y1="-292.7" x2="77" y2="1352.7" opacity="0.05"/><line x1="1002.7" y1="-306.7" x2="52.7" y2="1338.7" opacity="0.05"/><line x1="978.5" y1="-320.7" x2="28.5" y2="1324.7" opacity="0.05"/><line x1="954.2" y1="-334.7" x2="4.2" y2="1310.7" opacity="0.05"/><line x1="930" y1="-348.7" x2="-20" y2="1296.7" opacity="0.05"/><line x1="905.7" y1="-362.7" x2="-44.3" y2="1282.7" opacity="0.05"/><line x1="881.5" y1="-376.7" x2="-68.5" y2="1268.7" opacity="0.05"/><line x1="857.2" y1="-390.7" x2="-92.8" y2="1254.7" opacity="0.05"/><line x1="833" y1="-404.7" x2="-117" y2="1240.7" opacity="0.05"/><line x1="808.7" y1="-418.7" x2="-141.3" y2="1226.7" opacity="0.05"/><line x1="784.5" y1="-432.7" x2="-165.5" y2="1212.7" opacity="0.05"/><line x1="760.2" y1="-446.7" x2="-189.8" y2="1198.7" opacity="0.05"/><line x1="736" y1="-460.7" x2="-214" y2="1184.7" opacity="0.05"/><line x1="711.7" y1="-474.7" x2="-238.3" y2="1170.7" opacity="0.05"/><line x1="687.5" y1="-488.7" x2="-262.5" y2="1156.7" opacity="0.05"/><line x1="663.2" y1="-502.7" x2="-286.8" y2="1142.7" opacity="0.05"/><line x1="639" y1="-516.7" x2="-311" y2="1128.7" opacity="0.05"/><line x1="614.7" y1="-530.7" x2="-335.3" y2="1114.7" opacity="0.05"/><line x1="590.5" y1="-544.7" x2="-359.5" y2="1100.7" opacity="0.05"/><line x1="566.2" y1="-558.7" x2="-383.8" y2="1086.7" opacity="0.05"/><line x1="542" y1="-572.7" x2="-408" y2="1072.7" opacity="0.05"/><line x1="517.7" y1="-586.7" x2="-432.3" y2="1058.7" opacity="0.05"/><line x1="493.5" y1="-600.7" x2="-456.5" y2="1044.7" opacity="0.05"/><line x1="469.2" y1="-614.7" x2="-480.8" y2="1030.7" opacity="0.05"/><line x1="445" y1="-628.7" x2="-505" y2="1016.7" opacity="0.05"/><line x1="420.7" y1="-642.7" x2="-529.3" y2="1002.7" opacity="0.05"/><line x1="396.5" y1="-656.7" x2="-553.5" y2="988.7" opacity="0.05"/><line x1="372.2" y1="-670.7" x2="-577.8" y2="974.7" opacity="0.05"/><line x1="348" y1="-684.7" x2="-602" y2="960.7" opacity="0.05"/><line x1="323.7" y1="-698.7" x2="-626.3" y2="946.7" opacity="0.05"/><line x1="1702.7" y1="683.2" x2="57.3" y2="1633.2" opacity="0.05"/><line x1="1688.7" y1="658.9" x2="43.3" y2="1608.9" opacity="0.05"/><line x1="1674.7" y1="634.7" x2="29.3" y2="1584.7" opacity="0.05"/><line x1="1660.7" y1="610.4" x2="15.3" y2="1560.4" opacity="0.05"/><line x1="1646.7" y1="586.2" x2="1.3" y2="1536.2" opacity="0.05"/><line x1="1632.7" y1="561.9" x2="-12.7" y2="1511.9" opacity="0.05"/><line x1="1618.7" y1="537.7" x2="-26.7" y2="1487.7" opacity="0.05"/><line x1="1604.7" y1="513.4" x2="-40.7" y2="1463.4" opacity="0.05"/><line x1="1590.7" y1="489.2" x2="-54.7" y2="1439.2" opacity="0.05"/><line x1="1576.7" y1="464.9" x2="-68.7" y2="1414.9" opacity="0.05"/><line x1="1562.7" y1="440.7" x2="-82.7" y2="1390.7" opacity="0.05"/><line x1="1548.7" y1="416.4" x2="-96.7" y2="1366.4" opacity="0.05"/><line x1="1534.7" y1="392.2" x2="-110.7" y2="1342.2" opacity="0.05"/><line x1="1520.7" y1="367.9" x2="-124.7" y2="1317.9" opacity="0.05"/><line x1="1506.7" y1="343.7" x2="-138.7" y2="1293.7" opacity="0.05"/><line x1="1492.7" y1="319.4" x2="-152.7" y2="1269.4" opacity="0.05"/><line x1="1478.7" y1="295.2" x2="-166.7" y2="1245.2" opacity="0.05"/><line x1="1464.7" y1="271" x2="-180.7" y2="1221" opacity="0.05"/><line x1="1450.7" y1="246.7" x2="-194.7" y2="1196.7" opacity="0.05"/><line x1="1436.7" y1="222.5" x2="-208.7" y2="1172.5" opacity="0.05"/><line x1="1422.7" y1="198.2" x2="-222.7" y2="1148.2" opacity="0.05"/><line x1="1408.7" y1="174" x2="-236.7" y2="1124" opacity="0.05"/><line x1="1394.7" y1="149.7" x2="-250.7" y2="1099.7" opacity="0.05"/><line x1="1380.7" y1="125.5" x2="-264.7" y2="1075.5" opacity="0.05"/><line x1="1366.7" y1="101.2" x2="-278.7" y2="1051.2" opacity="0.05"/><line x1="1352.7" y1="77" x2="-292.7" y2="1027" opacity="0.05"/><line x1="1338.7" y1="52.7" x2="-306.7" y2="1002.7" opacity="0.05"/><line x1="1324.7" y1="28.5" x2="-320.7" y2="978.5" opacity="0.05"/><line x1="1310.7" y1="4.2" x2="-334.7" y2="954.2" opacity="0.05"/><line x1="1296.7" y1="-20" x2="-348.7" y2="930" opacity="0.05"/><line x1="1282.7" y1="-44.3" x2="-362.7" y2="905.7" opacity="0.05"/><line x1="1268.7" y1="-68.5" x2="-376.7" y2="881.5" opacity="0.05"/><line x1="1254.7" y1="-92.8" x2="-390.7" y2="857.2" opacity="0.05"/><line x1="1240.7" y1="-117" x2="-404.7" y2="833" opacity="0.05"/><line x1="1226.7" y1="-141.3" x2="-418.7" y2="808.7" opacity="0.05"/><line x1="1212.7" y1="-165.5" x2="-432.7" y2="784.5" opacity="0.05"/><line x1="1198.7" y1="-189.8" x2="-446.7" y2="760.2" opacity="0.05"/><line x1="1184.7" y1="-214" x2="-460.7" y2="736" opacity="0.05"/><line x1="1170.7" y1="-238.3" x2="-474.7" y2="711.7" opacity="0.05"/><line x1="1156.7" y1="-262.5" x2="-488.7" y2="687.5" opacity="0.05"/><line x1="1142.7" y1="-286.8" x2="-502.7" y2="663.2" opacity="0.05"/><line x1="1128.7" y1="-311" x2="-516.7" y2="639" opacity="0.05"/><line x1="1114.7" y1="-335.3" x2="-530.7" y2="614.7" opacity="0.05"/><line x1="1100.7" y1="-359.5" x2="-544.7" y2="590.5" opacity="0.05"/><line x1="1086.7" y1="-383.8" x2="-558.7" y2="566.2" opacity="0.05"/><line x1="1072.7" y1="-408" x2="-572.7" y2="542" opacity="0.05"/><line x1="1058.7" y1="-432.3" x2="-586.7" y2="517.7" opacity="0.05"/><line x1="1044.7" y1="-456.5" x2="-600.7" y2="493.5" opacity="0.05"/><line x1="1030.7" y1="-480.8" x2="-614.7" y2="469.2" opacity="0.05"/><line x1="1016.7" y1="-505" x2="-628.7" y2="445" opacity="0.05"/><line x1="1002.7" y1="-529.3" x2="-642.7" y2="420.7" opacity="0.05"/><line x1="988.7" y1="-553.5" x2="-656.7" y2="396.5" opacity="0.05"/><line x1="974.7" y1="-577.8" x2="-670.7" y2="372.2" opacity="0.05"/><line x1="960.7" y1="-602" x2="-684.7" y2="348" opacity="0.05"/><line x1="946.7" y1="-626.3" x2="-698.7" y2="323.7" opacity="0.05"/></g></svg>