<svg xmlns="http://www.w3.org/2000/svg" viewBox="0 0 1000 1000" preserveAspectRatio="xMidYMid slice" fill="none" stroke-linecap="round" stroke-linejoin="round"><g stroke="#0f3d2e" stroke-width="0.7"><line x1="-450" y1="-260" x2="1450" y2="-260" opacity="0.05"/><line x1="-450" y1="-234" x2="1450" y2="-234" opacity="0.05"/><line x1="-450" y1="-208" x2="1450" y2="-208" opacity="0.05"/><line x1="-450" y1="-182" x2="1450" y2="-182" opacity="0.05"/><line x1="-450" y1="-156" x2="1450" y2="-156" opacity="0.05"/><line x1="-450" y1="-130" x2="1450" y2="-130" opacity="0.05"/><line x1="-450" y1="-104" x2="1450" y2="-104" opacity="0.05"/><line x1="-450" y1="-78" x2="1450" y2="-78" opacity="0.05"/><line x1="-450" y1="-52" x2="1450" y2="-52" opacity="0.05"/><line x1="-450" y1="-26" x2="1450" y2="-26" opacity="0.05"/><line x1="-450" y1="0" x2="1450" y2="0" opacity="0.05"/><line x1="-450" y1="26" x2="1450" y2="26" opacity="0.05"/><line x1="-450" y1="52" x2="1450" y2="52" opacity="0.05"/><line x1="-450" y1="78" x2="1450" y2="78" opacity="0.05"/><line x1="-450" y1="104" x2="1450" y2="104" opacity="0.05"/><line x1="-450" y1="130" x2="1450" y2="130" opacity="0.05"/><line x1="-450" y1="156" x2="1450" y2="156" opacity="0.05"/><line x1="-450" y1="182" x2="1450" y2="182" opacity="0.05"/><line x1="-450" y1="208" x2="1450" y2="208" opacity="0.05"/><line x1="-450" y1="234" x2="1450" y2="234" opacity="0.05"/><line x1="-450" y1="260" x2="1450" y2="260" opacity="0.05"/><line x1="-450" y1="286" x2="1450" y2="286" opacity="0.05"/><line x1="-450" y1="312" x2="1450" y2="312" opacity="0.05"/><line x1="-450" y1="338" x2="1450" y2="338" opacity="0.05"/><line x1="-450" y1="364" x2="1450" y2="364" opacity="0.05"/><line x1="-450" y1="390" x2="1450" y2="390" opacity="0.05"/><line x1="-450" y1="416" x2="1450" y2="416" opacity="0.05"/><line x1="-450" y1="442" x2="1450" y2="442" opacity="0.05"/><line x1="-450" y1="468" x2="1450" y2="468" opacity="0.05"/><line x1="-450" y1="494" x2="1450" y2="494" opacity="0.05"/><line x1="-450" y1="520" x2="1450" y2="520" opacity="0.05"/><line x1="-450" y1="546" x2="1450" y2="546" opacity="0.05"/><line x1="-450" y1="572" x2="1450" y2="572" opacity="0.05"/><line x1="-450" y1="598" x2="1450" y2="598" opacity="0.05"/><line x1="-450" y1="624" x2="1450" y2="624" opacity="0.05"/><line x1="-450" y1="650" x2="1450" y2="650" opacity="0.05"/><line x1="-450" y1="676" x2="1450" y2="676" opacity="0.05"/><line x1="-450" y1="702" x2="1450" y2="702" opacity="0.05"/><line x1="-450" y1="728" x2="1450" y2="728" opacity="0.05"/><line x1="-450" y1="754" x2="1450" y2="754" opacity="0.05"/><line x1="-450" y1="780" x2="1450" y2="780" opacity="0.05"/><line x1="-450" y1="806" x2="1450" y2="806" opacity="0.05"/><line x1="-450" y1="832" x2="1450" y2="832" opacity="0.05"/><line x1="-450" y1="858" x2="1450" y2="858" opacity="0.05"/><line x1="-450" y1="884" x2="1450" y2="884" opacity="0.05"/><line x1="-450" y1="910" x2="1450" y2="910" opacity="0.05"/><line x1="-450" y1="936" x2="1450" y2="936" opacity="0.05"/><line x1="-450" y1="962" x2="1450" y2="962" opacity="0.05"/><line x1="-450" y1="988" x2="1450" y2="988" opacity="0.05"/><line x1="-450" y1="1014" x2="1450" y2="1014" opacity="0.05"/><line x1="-450" y1="1040" x2="1450" y2="1040" opacity="0.05"/><line x1="-450" y1="1066" x2="1450" y2="1066" opacity="0.05"/><line x1="-450" y1="1092" x2="1450" y2="1092" opacity="0.05"/><line x1="-450" y1="1118" x2="1450" y2="1118" opacity="0.05"/><line x1="-450" y1="1144" x2="1450" y2="1144" opacity="0.05"/><line x1="-450" y1="1170" x2="1450" y2="1170" opacity="0.05"/><line x1="-450" y1="1196" x2="1450" y2="1196" opacity="0.05"/><line x1="-450" y1="1222" x2="1450" y2="1222" opacity="0.05"/><line x1="-450" y1="1248" x2="1450" y2="1248" opacity="0.05"/><line x1="-26.2" y1="-596.9" x2="1685.7" y2="227.5" opacity="0.05"/><line x1="-37.4" y1="-573.5" x2="1674.4" y2="250.9" opacity="0.05"/><line x1="-48.7" y1="-550.1" x2="1663.1" y2="274.3" opacity="0.05"/><line x1="-60" y1="-526.7" x2="1651.8" y2="297.7" opacity="0.05"/><line x1="-71.3" y1="-503.2" x2="1640.5" y2="321.2" opacity="0.05"/><line x1="-82.6" y1="-479.8" x2="1629.3" y2="344.6" opacity="0.05"/><line x1="-93.9" y1="-456.4" x2="1618" y2="368" opacity="0.05"/><line x1="-105.1" y1="-432.9" x2="1606.7" y2="391.4" opacity="0.05"/><line x1="-116.4" y1="-409.5" x2="1595.4" y2="414.9" opacity="0.05"/><line x1="-127.7" y1="-386.1" x2="1584.1" y2="438.3" opacity="0.05"/><line x1="-139" y1="-362.7" x2="1572.9" y2="461.7" opacity="0.05"/><line x1="-150.3" y1="-339.2" x2="1561.6" y2="485.1" opacity="0.05"/><line x1="-161.5" y1="-315.8" x2="1550.3" y2="508.6" opacity="0.05"/><line x1="-172.8" y1="-292.4" x2="1539" y2="532" opacity="0.05"/><line x1="-184.1" y1="-269" x2="1527.7" y2="555.4" opacity="0.05"/><line x1="-195.4" y1="-245.5" x2="1516.5" y2="578.8" opacity="0.05"/><line x1="-206.7" y1="-222.1" x2="1505.2" y2="602.3" opacity="0.05"/><line x1="-217.9" y1="-198.7" x2="1493.9" y2="625.7" opacity="0.05"/><line x1="-229.2" y1="-175.3" x2="1482.6" y2="649.1" opacity="0.05"/><line x1="-240.5" y1="-151.8" x2="1471.3" y2="672.5" opacity="0.05"/><line x1="-251.8" y1="-128.4" x2="1460.1" y2="696" opacity="0.05"/><line x1="-263.1" y1="-105" x2="1448.8" y2="719.4" opacity="0.05"/><line x1="-274.4" y1="-81.6" x2="1437.5" y2="742.8" opacity="0.05"/><line x1="-285.6" y1="-58.1" x2="1426.2" y2="766.2" opacity="0.05"/><line x1="-296.9" y1="-34.7" x2="1414.9" y2="789.7" opacity="0.05"/><line x1="-308.2" y1="-11.3" x2="1403.6" y2="813.1" opacity="0.05"/><line x1="-319.5" y1="12.1" x2="1392.4" y2="836.5" opacity="0.05"/><line x1="-330.8" y1="35.6" x2="1381.1" y2="859.9" opacity="0.05"/><line x1="-342" y1="59" x2="1369.8" y2="883.4" opacity="0.05"/><line x1="-353.3" y1="82.4" x2="1358.5" y2="906.8" opacity="0.05"/><line x1="-364.6" y1="105.8" x2="1347.2" y2="930.2" opacity="0.05"/><line x1="-375.9" y1="129.3" x2="1336" y2="953.6" opacity="0.05"/><line x1="-387.2" y1="152.7" x2="1324.7" y2="977.1" opacity="0.05"/><line x1="-398.4" y1="176.1" x2="1313.4" y2="1000.5" opacity="0.05"/><line x1="-409.7" y1="199.5" x2="1302.1" y2="1023.9" opacity="0.05"/><line x1="-421" y1="223" x2="1290.8" y2="1047.3" opacity="0.05"/><line x1="-432.3" y1="246.4" x2="1279.6" y2="1070.8" opacity="0.05"/><line x1="-443.6" y1="269.8" x2="1268.3" y2="1094.2" opacity="0.05"/><line x1="-454.8" y1="293.2" x2="1257" y2="1117.6" opacity="0.05"/><line x1="-466.1" y1="316.7" x2="1245.7" y2="1141" opacity="0.05"/><line x1="-477.4" y1="340.1" x2="1234.4" y2="1164.5" opacity="0.05"/><line x1="-488.7" y1="363.5" x2="1223.2" y2="1187.9" opacity="0.05"/><line x1="-500" y1="386.9" x2="1211.9" y2="1211.3" opacity="0.05"/><line x1="-511.3" y1="410.4" x2="1200.6" y2="1234.7" opacity="0.05"/><line x1="-522.5" y1="433.8" x2="1189.3" y2="1258.2" opacity="0.05"/><line x1="-533.8" y1="457.2" x2="1178" y2="1281.6" opacity="0.05"/><line x1="-545.1" y1="480.6" x2="1166.7" y2="1305" opacity="0.05"/><line x1="-556.4" y1="504.1" x2="1155.5" y2="1328.4" opacity="0.05"/><line x1="-567.7" y1="527.5" x2="1144.2" y2="1351.9" opacity="0.05"/><line x1="-578.9" y1="550.9" x2="1132.9" y2="1375.3" opacity="0.05"/><line x1="-590.2" y1="574.3" x2="1121.6" y2="1398.7" opacity="0.05"/><line x1="-601.5" y1="597.8" x2="1110.3" y2="1422.1" opacity="0.05"/><line x1="-612.8" y1="621.2" x2="1099.1" y2="1445.6" opacity="0.05"/><line x1="-624.1" y1="644.6" x2="1087.8" y2="1469" opacity="0.05"/><line x1="-635.3" y1="668" x2="1076.5" y2="1492.4" opacity="0.05"/><line x1="-646.6" y1="691.5" x2="1065.2" y2="1515.8" opacity="0.05"/><line x1="-657.9" y1="714.9" x2="1053.9" y2="1539.3" opacity="0.05"/><line x1="-669.2" y1="738.3" x2="1042.7" y2="1562.7" opacity="0.05"/><line x1="-680.5" y1="761.7" x2="1031.4" y2="1586.1" opacity="0.05"/><line x1="501.9" y1="-716.6" x2="1686.5" y2="768.9" opacity="0.05"/><line x1="481.5" y1="-700.4" x2="1666.2" y2="785.1" opacity="0.05"/><line x1="461.2" y1="-684.2" x2="1645.9" y2="801.3" opacity="0.05"/><line x1="440.9" y1="-668" x2="1625.5" y2="817.5" opacity="0.05"/><line x1="420.6" y1="-651.7" x2="1605.2" y2="833.7" opacity="0.05"/><line x1="400.2" y1="-635.5" x2="1584.9" y2="849.9" opacity="0.05"/><line x1="379.9" y1="-619.3" x2="1564.5" y2="866.2" opacity="0.05"/><line x1="359.6" y1="-603.1" x2="1544.2" y2="882.4" opacity="0.05"/><line x1="339.3" y1="-586.9" x2="1523.9" y2="898.6" opacity="0.05"/><line x1="318.9" y1="-570.7" x2="1503.6" y2="914.8" opacity="0.05"/><line x1="298.6" y1="-554.5" x2="1483.2" y2="931" opacity="0.05"/><line x1="278.3" y1="-538.3" x2="1462.9" y2="947.2" opacity="0.05"/><line x1="257.9" y1="-522.1" x2="1442.6" y2="963.4" opacity="0.05"/><line x1="237.6" y1="-505.9" x2="1422.2" y2="979.6" opacity="0.05"/><line x1="217.3" y1="-489.6" x2="1401.9" y2="995.8" opacity="0.05"/><line x1="197" y1="-473.4" x2="1381.6" y2="1012" opacity="0.05"/><line x1="176.6" y1="-457.2" x2="1361.3" y2="1028.3" opacity="0.05"/><line x1="156.3" y1="-441" x2="1340.9" y2="1044.5" opacity="0.05"/><line x1="136" y1="-424.8" x2="1320.6" y2="1060.7" opacity="0.05"/><line x1="115.7" y1="-408.6" x2="1300.3" y2="1076.9" opacity="0.05"/><line x1="95.3" y1="-392.4" x2="1280" y2="1093.1" opacity="0.05"/><line x1="75" y1="-376.2" x2="1259.6" y2="1109.3" opacity="0.05"/><line x1="54.7" y1="-360" x2="1239.3" y2="1125.5" opacity="0.05"/><line x1="34.3" y1="-343.7" x2="1219" y2="1141.7" opacity="0.05"/><line x1="14" y1="-327.5" x2="1198.6" y2="1157.9" opacity="0.05"/><line x1="-6.3" y1="-311.3" x2="1178.3" y2="1174.2" opacity="0.05"/><line x1="-26.6" y1="-295.1" x2="1158" y2="1190.4" opacity="0.05"/><line x1="-47" y1="-278.9" x2="1137.7" y2="1206.6" opacity="0.05"/><line x1="-67.3" y1="-262.7" x2="1117.3" y2="1222.8" opacity="0.05"/><line x1="-87.6" y1="-246.5" x2="1097" y2="1239" opacity="0.05"/><line x1="-108" y1="-230.3" x2="1076.7" y2="1255.2" opacity="0.05"/><line x1="-128.3" y1="-214.1" x2="1056.4" y2="1271.4" opacity="0.05"/><line x1="-148.6" y1="-197.8" x2="1036" y2="1287.6" opacity="0.05"/><line x1="-168.9" y1="-181.6" x2="1015.7" y2="1303.8" opacity="0.05"/><line x1="-189.3" y1="-165.4" x2="995.4" y2="1320.1" opacity="0.05"/><line x1="-209.6" y1="-149.2" x2="975" y2="1336.3" opacity="0.05"/><line x1="-229.9" y1="-133" x2="954.7" y2="1352.5" opacity="0.05"/><line x1="-250.2" y1="-116.8" x2="934.4" y2="1368.7" opacity="0.05"/><line x1="-270.6" y1="-100.6" x2="914.1" y2="1384.9" opacity="0.05"/><line x1="-290.9" y1="-84.4" x2="893.7" y2="1401.1" opacity="0.05"/><line x1="-311.2" y1="-68.2" x2="873.4" y2="1417.3" opacity="0.05"/><line x1="-331.6" y1="-52" x2="853.1" y2="1433.5" opacity="0.05"/><line x1="-351.9" y1="-35.7" x2="832.7" y2="1449.7" opacity="0.05"/><line x1="-372.2" y1="-19.5" x2="812.4" y2="1465.9" opacity="0.05"/><line x1="-392.5" y1="-3.3" x2="792.1" y2="1482.2" opacity="0.05"/><line x1="-412.9" y1="12.9" x2="771.8" y2="1498.4" opacity="0.05"/><line x1="-433.2" y1="29.1" x2="751.4" y2="1514.6" opacity="0.05"/><line x1="-453.5" y1="45.3" x2="731.1" y2="1530.8" opacity="0.05"/><line x1="-473.8" y1="61.5" x2="710.8" y2="1547" opacity="0.05"/><line x1="-494.2" y1="77.7" x2="690.5" y2="1563.2" opacity="0.05"/><line x1="-514.5" y1="93.9" x2="670.1" y2="1579.4" opacity="0.05"/><line x1="-534.8" y1="110.2" x2="649.8" y2="1595.6" opacity="0.05"/><line x1="-555.2" y1="126.4" x2="629.5" y2="1611.8" opacity="0.05"/><line x1="-575.5" y1="142.6" x2="609.1" y2="1628.1" opacity="0.05"/><line x1="-595.8" y1="158.8" x2="588.8" y2="1644.3" opacity="0.05"/><line x1="-616.1" y1="175" x2="568.5" y2="1660.5" opacity="0.05"/><line x1="-636.5" y1="191.2" x2="548.2" y2="1676.7" opacity="0.05"/><line x1="-656.8" y1="207.4" x2="527.8" y2="1692.9" opacity="0.05"/><line x1="-677.1" y1="223.6" x2="507.5" y2="1709.1" opacity="0.05"/><line x1="1029.6" y1="-595.3" x2="1452.3" y2="1257.1" opacity="0.05"/><line x1="1004.2" y1="-589.5" x2="1427" y2="1262.9" opacity="0.05"/><line x1="978.9" y1="-583.7" x2="1401.6" y2="1268.6" opacity="0.05"/><line x1="953.5" y1="-577.9" x2="1376.3" y2="1274.4" opacity="0.05"/><line x1="928.2" y1="-572.2" x2="1350.9" y2="1280.2" opacity="0.05"/><line x1="902.8" y1="-566.4" x2="1325.6" y2="1286" opacity="0.05"/><line x1="877.5" y1="-560.6" x2="1300.3" y2="1291.8" opacity="0.05"/><line x1="852.1" y1="-554.8" x2="1274.9" y2="1297.6" opacity="0.05"/><line x1="826.8" y1="-549" x2="1249.6" y2="1303.3" opacity="0.05"/><line x1="801.4" y1="-543.2" x2="1224.2" y2="1309.1" opacity="0.05"/><line x1="776.1" y1="-537.4" x2="1198.9" y2="1314.9" opacity="0.05"/><line x1="750.7" y1="-531.7" x2="1173.5" y2="1320.7" opacity="0.05"/><line x1="725.4" y1="-525.9" x2="1148.2" y2="1326.5" opacity="0.05"/><line x1="700" y1="-520.1" x2="1122.8" y2="1332.3" opacity="0.05"/><line x1="674.7" y1="-514.3" x2="1097.5" y2="1338.1" opacity="0.05"/><line x1="649.3" y1="-508.5" x2="1072.1" y2="1343.8" opacity="0.05"/><line x1="624" y1="-502.7" x2="1046.8" y2="1349.6" opacity="0.05"/><line x1="598.6" y1="-496.9" x2="1021.4" y2="1355.4" opacity="0.05"/><line x1="573.3" y1="-491.2" x2="996.1" y2="1361.2" opacity="0.05"/><line x1="547.9" y1="-485.4" x2="970.7" y2="1367" opacity="0.05"/><line x1="522.6" y1="-479.6" x2="945.4" y2="1372.8" opacity="0.05"/><line x1="497.2" y1="-473.8" x2="920" y2="1378.6" opacity="0.05"/><line x1="471.9" y1="-468" x2="894.7" y2="1384.3" opacity="0.05"/><line x1="446.5" y1="-462.2" x2="869.3" y2="1390.1" opacity="0.05"/><line x1="421.2" y1="-456.4" x2="844" y2="1395.9" opacity="0.05"/><line x1="395.8" y1="-450.7" x2="818.6" y2="1401.7" opacity="0.05"/><line x1="370.5" y1="-444.9" x2="793.3" y2="1407.5" opacity="0.05"/><line x1="345.2" y1="-439.1" x2="767.9" y2="1413.3" opacity="0.05"/><line x1="319.8" y1="-433.3" x2="742.6" y2="1419.1" opacity="0.05"/><line x1="294.5" y1="-427.5" x2="717.2" y2="1424.8" opacity="0.05"/><line x1="269.1" y1="-421.7" x2="691.9" y2="1430.6" opacity="0.05"/><line x1="243.8" y1="-415.9" x2="666.5" y2="1436.4" opacity="0.05"/><line x1="218.4" y1="-410.2" x2="641.2" y2="1442.2" opacity="0.05"/><line x1="193.1" y1="-404.4" x2="615.9" y2="1448" opacity="0.05"/><line x1="167.7" y1="-398.6" x2="590.5" y2="1453.8" opacity="0.05"/><line x1="142.4" y1="-392.8" x2="565.2" y2="1459.6" opacity="0.05"/><line x1="117" y1="-387" x2="539.8" y2="1465.3" opacity="0.05"/><line x1="91.7" y1="-381.2" x2="514.5" y2="1471.1" opacity="0.05"/><line x1="66.3" y1="-375.4" x2="489.1" y2="1476.9" opacity="0.05"/><line x1="41" y1="-369.7" x2="463.8" y2="1482.7" opacity="0.05"/><line x1="15.6" y1="-363.9" x2="438.4" y2="1488.5" opacity="0.05"/><line x1="-9.7" y1="-358.1" x2="413.1" y2="1494.3" opacity="0.05"/><line x1="-35.1" y1="-352.3" x2="387.7" y2="1500.1" opacity="0.05"/><line x1="-60.4" y1="-346.5" x2="362.4" y2="1505.8" opacity="0.05"/><line x1="-85.8" y1="-340.7" x2="337" y2="1511.6" opacity="0.05"/><line x1="-111.1" y1="-334.9" x2="311.7" y2="1517.4" opacity="0.05"/><line x1="-136.5" y1="-329.2" x2="286.3" y2="1523.2" opacity="0.05"/><line x1="-161.8" y1="-323.4" x2="261" y2="1529" opacity="0.05"/><line x1="-187.2" y1="-317.6" x2="235.6" y2="1534.8" opacity="0.05"/><line x1="-212.5" y1="-311.8" x2="210.3" y2="1540.6" opacity="0.05"/><line x1="-237.9" y1="-306" x2="184.9" y2="1546.3" opacity="0.05"/><line x1="-263.2" y1="-300.2" x2="159.6" y2="1552.1" opacity="0.05"/><line x1="-288.6" y1="-294.4" x2="134.2" y2="1557.9" opacity="0.05"/><line x1="-313.9" y1="-288.7" x2="108.9" y2="1563.7" opacity="0.05"/><line x1="-339.2" y1="-282.9" x2="83.5" y2="1569.5" opacity="0.05"/><line x1="-364.6" y1="-277.1" x2="58.2" y2="1575.3" opacity="0.05"/><line x1="-389.9" y1="-271.3" x2="32.8" y2="1581.1" opacity="0.05"/><line x1="-415.3" y1="-265.5" x2="7.5" y2="1586.8" opacity="0.05"/><line x1="-440.6" y1="-259.7" x2="-17.9" y2="1592.6" opacity="0.05"/><line x1="1452.3" y1="-257.1" x2="1029.6" y2="1595.3" opacity="0.05"/><line x1="1427" y1="-262.9" x2="1004.2" y2="1589.5" opacity="0.05"/><line x1="1401.6" y1="-268.6" x2="978.9" y2="1583.7" opacity="0.05"/><line x1="1376.3" y1="-274.4" x2="953.5" y2="1577.9" opacity="0.05"/><line x1="1350.9" y1="-280.2" x2="928.2" y2="1572.2" opacity="0.05"/><line x1="1325.6" y1="-286" x2="902.8" y2="1566.4" opacity="0.05"/><line x1="1300.3" y1="-291.8" x2="877.5" y2="1560.6" opacity="0.05"/><line x1="1274.9" y1="-297.6" x2="852.1" y2="1554.8" opacity="0.05"/><line x1="1249.6" y1="-303.3" x2="826.8" y2="1549" opacity="0.05"/><line x1="1224.2" y1="-309.1" x2="801.4" y2="1543.2" opacity="0.05"/><line x1="1198.9" y1="-314.9" x2="776.1" y2="1537.4" opacity="0.05"/><line x1="1173.5" y1="-320.7" x2="750.7" y2="1531.7" opacity="0.05"/><line x1="1148.2" y1="-326.5" x2="725.4" y2="1525.9" opacity="0.05"/><line x1="1122.8" y1="-332.3" x2="700" y2="1520.1" opacity="0.05"/><line x1="1097.5" y1="-338.1" x2="674.7" y2="1514.3" opacity="0.05"/><line x1="1072.1" y1="-343.8" x2="649.3" y2="1508.5" opacity="0.05"/><line x1="1046.8" y1="-349.6" x2="624" y2="1502.7" opacity="0.05"/><line x1="1021.4" y1="-355.4" x2="598.6" y2="1496.9" opacity="0.05"/><line x1="996.1" y1="-361.2" x2="573.3" y2="1491.2" opacity="0.05"/><line x1="970.7" y1="-367" x2="547.9" y2="1485.4" opacity="0.05"/><line x1="945.4" y1="-372.8" x2="522.6" y2="1479.6" opacity="0.05"/><line x1="920" y1="-378.6" x2="497.2" y2="1473.8" opacity="0.05"/><line x1="894.7" y1="-384.3" x2="471.9" y2="1468" opacity="0.05"/><line x1="869.3" y1="-390.1" x2="446.5" y2="1462.2" opacity="0.05"/><line x1="844" y1="-395.9" x2="421.2" y2="1456.4" opacity="0.05"/><line x1="818.6" y1="-401.7" x2="395.8" y2="1450.7" opacity="0.05"/><line x1="793.3" y1="-407.5" x2="370.5" y2="1444.9" opacity="0.05"/><line x1="767.9" y1="-413.3" x2="345.2" y2="1439.1" opacity="0.05"/><line x1="742.6" y1="-419.1" x2="319.8" y2="1433.3" opacity="0.05"/><line x1="717.2" y1="-424.8" x2="294.5" y2="1427.5" opacity="0.05"/><line x1="691.9" y1="-430.6" x2="269.1" y2="1421.7" opacity="0.05"/><line x1="666.5" y1="-436.4" x2="243.8" y2="1415.9" opacity="0.05"/><line x1="641.2" y1="-442.2" x2="218.4" y2="1410.2" opacity="0.05"/><line x1="615.9" y1="-448" x2="193.1" y2="1404.4" opacity="0.05"/><line x1="590.5" y1="-453.8" x2="167.7" y2="1398.6" opacity="0.05"/><line x1="565.2" y1="-459.6" x2="142.4" y2="1392.8" opacity="0.05"/><line x1="539.8" y1="-465.3" x2="117" y2="1387" opacity="0.05"/><line x1="514.5" y1="-471.1" x2="91.7" y2="1381.2" opacity="0.05"/><line x1="489.1" y1="-476.9" x2="66.3" y2="1375.4" opacity="0.05"/><line x1="463.8" y1="-482.7" x2="41" y2="1369.7" opacity="0.05"/><line x1="438.4" y1="-488.5" x2="15.6" y2="1363.9" opacity="0.05"/><line x1="413.1" y1="-494.3" x2="-9.7" y2="1358.1" opacity="0.05"/><line x1="387.7" y1="-500.1" x2="-35.1" y2="1352.3" opacity="0.05"/><line x1="362.4" y1="-505.8" x2="-60.4" y2="1346.5" opacity="0.05"/><line x1="337" y1="-511.6" x2="-85.8" y2="1340.7" opacity="0.05"/><line x1="311.7" y1="-517.4" x2="-111.1" y2="1334.9" opacity="0.05"/><line x1="286.3" y1="-523.2" x2="-136.5" y2="1329.2" opacity="0.05"/><line x1="261" y1="-529" x2="-161.8" y2="1323.4" opacity="0.05"/><line x1="235.6" y1="-534.8" x2="-187.2" y2="1317.6" opacity="0.05"/><line x1="210.3" y1="-540.6" x2="-212.5" y2="1311.8" opacity="0.05"/><line x1="184.9" y1="-546.3" x2="-237.9" y2="1306" opacity="0.05"/><line x1="159.6" y1="-552.1" x2="-263.2" y2="1300.2" opacity="0.05"/><line x1="134.2" y1="-557.9" x2="-288.6" y2="1294.4" opacity="0.05"/><line x1="108.9" y1="-563.7" x2="-313.9" y2="1288.7" opacity="0.05"/><line x1="83.5" y1="-569.5" x2="-339.2" y2="1282.9" opacity="0.05"/><line x1="58.2" y1="-575.3" x2="-364.6" y2="1277.1" opacity="0.05"/><line x1="32.8" y1="-581.1" x2="-389.9" y2="1271.3" opacity="0.05"/><line x1="7.5" y1="-586.8" x2="-415.3" y2="1265.5" opacity="0.05"/><line x1="-17.9" y1="-592.6" x2="-440.6" y2="1259.7" opacity="0.05"/><line x1="1686.5" y1="231.1" x2="501.9" y2="1716.6" opacity="0.05"/><line x1="1666.2" y1="214.9" x2="481.5" y2="1700.4" opacity="0.05"/><line x1="1645.9" y1="198.7" x2="461.2" y2="1684.2" opacity="0.05"/><line x1="1625.5" y1="182.5" x2="440.9" y2="1668" opacity="0.05"/><line x1="1605.2" y1="166.3" x2="420.6" y2="1651.7" opacity="0.05"/><line x1="1584.9" y1="150.1" x2="400.2" y2="1635.5" opacity="0.05"/><line x1="1564.5" y1="133.8" x2="379.9" y2="1619.3" opacity="0.05"/><line x1="1544.2" y1="117.6" x2="359.6" y2="1603.1" opacity="0.05"/><line x1="1523.9" y1="101.4" x2="339.3" y2="1586.9" opacity="0.05"/><line x1="1503.6" y1="85.2" x2="318.9" y2="1570.7" opacity="0.05"/><line x1="1483.2" y1="69" x2="298.6" y2="1554.5" opacity="0.05"/><line x1="1462.9" y1="52.8" x2="278.3" y2="1538.3" opacity="0.05"/><line x1="1442.6" y1="36.6" x2="257.9" y2="1522.1" opacity="0.05"/><line x1="1422.2" y1="20.4" x2="237.6" y2="1505.9" opacity="0.05"/><line x1="1401.9" y1="4.2" x2="217.3" y2="1489.6" opacity="0.05"/><line x1="1381.6" y1="-12" x2="197" y2="1473.4" opacity="0.05"/><line x1="1361.3" y1="-28.3" x2="176.6" y2="1457.2" opacity="0.05"/><line x1="1340.9" y1="-44.5" x2="156.3" y2="1441" opacity="0.05"/><line x1="1320.6" y1="-60.7" x2="136" y2="1424.8" opacity="0.05"/><line x1="1300.3" y1="-76.9" x2="115.7" y2="1408.6" opacity="0.05"/><line x1="1280" y1="-93.1" x2="95.3" y2="1392.4" opacity="0.05"/><line x1="1259.6" y1="-109.3" x2="75" y2="1376.2" opacity="0.05"/><line x1="1239.3" y1="-125.5" x2="54.7" y2="1360" opacity="0.05"/><line x1="1219" y1="-141.7" x2="34.3" y2="1343.7" opacity="0.05"/><line x1="1198.6" y1="-157.9" x2="14" y2="1327.5" opacity="0.05"/><line x1="1178.3" y1="-174.2" x2="-6.3" y2="1311.3" opacity="0.05"/><line x1="1158" y1="-190.4" x2="-26.6" y2="1295.1" opacity="0.05"/><line x1="1137.7" y1="-206.6" x2="-47" y2="1278.9" opacity="0.05"/><line x1="1117.3" y1="-222.8" x2="-67.3" y2="1262.7" opacity="0.05"/><line x1="1097" y1="-239" x2="-87.6" y2="1246.5" opacity="0.05"/><line x1="1076.7" y1="-255.2" x2="-108" y2="1230.3" opacity="0.05"/><line x1="1056.4" y1="-271.4" x2="-128.3" y2="1214.1" opacity="0.05"/><line x1="1036" y1="-287.6" x2="-148.6" y2="1197.8" opacity="0.05"/><line x1="1015.7" y1="-303.8" x2="-168.9" y2="1181.6" opacity="0.05"/><line x1="995.4" y1="-320.1" x2="-189.3" y2="1165.4" opacity="0.05"/><line x1="975" y1="-336.3" x2="-209.6" y2="1149.2" opacity="0.05"/><line x1="954.7" y1="-352.5" x2="-229.9" y2="1133" opacity="0.05"/><line x1="934.4" y1="-368.7" x2="-250.2" y2="1116.8" opacity="0.05"/><line x1="914.1" y1="-384.9" x2="-270.6" y2="1100.6" opacity="0.05"/><line x1="893.7" y1="-401.1" x2="-290.9" y2="1084.4" opacity="0.05"/><line x1="873.4" y1="-417.3" x2="-311.2" y2="1068.2" opacity="0.05"/><line x1="853.1" y1="-433.5" x2="-331.6" y2="1052" opacity="0.05"/><line x1="832.7" y1="-449.7" x2="-351.9" y2="1035.7" opacity="0.05"/><line x1="812.4" y1="-465.9" x2="-372.2" y2="1019.5" opacity="0.05"/><line x1="792.1" y1="-482.2" x2="-392.5" y2="1003.3" opacity="0.05"/><line x1="771.8" y1="-498.4" x2="-412.9" y2="987.1" opacity="0.05"/><line x1="751.4" y1="-514.6" x2="-433.2" y2="970.9" opacity="0.05"/><line x1="731.1" y1="-530.8" x2="-453.5" y2="954.7" opacity="0.05"/><line x1="710.8" y1="-547" x2="-473.8" y2="938.5" opacity="0.05"/><line x1="690.5" y1="-563.2" x2="-494.2" y2="922.3" opacity="0.05"/><line x1="670.1" y1="-579.4" x2="-514.5" y2="906.1" opacity="0.05"/><line x1="649.8" y1="-595.6" x2="-534.8" y2="889.8" opacity="0.05"/><line x1="629.5" y1="-611.8" x2="-555.2" y2="873.6" opacity="0.05"/><line x1="609.1" y1="-628.1" x2="-575.5" y2="857.4" opacity="0.05"/><line x1="588.8" y1="-644.3" x2="-595.8" y2="841.2" opacity="0.05"/><line x1="568.5" y1="-660.5" x2="-616.1" y2="825" opacity="0.05"/><line x1="548.2" y1="-676.7" x2="-636.5" y2="808.8" opacity="0.05"/><line x1="527.8" y1="-692.9" x2="-656.8" y2="792.6" opacity="0.05"/><line x1="507.5" y1="-709.1" x2="-677.1" y2="776.4" opacity="0.05"/><line x1="1685.7" y1="772.5" x2="-26.2" y2="1596.9" opacity="0.05"/><line x1="1674.4" y1="749.1" x2="-37.4" y2="1573.5" opacity="0.05"/><line x1="1663.1" y1="725.7" x2="-48.7" y2="1550.1" opacity="0.05"/><line x1="1651.8" y1="702.3" x2="-60" y2="1526.7" opacity="0.05"/><line x1="1640.5" y1="678.8" x2="-71.3" y2="1503.2" opacity="0.05"/><line x1="1629.3" y1="655.4" x2="-82.6" y2="1479.8" opacity="0.05"/><line x1="1618" y1="632" x2="-93.9" y2="1456.4" opacity="0.05"/><line x1="1606.7" y1="608.6" x2="-105.1" y2="1432.9" opacity="0.05"/><line x1="1595.4" y1="585.1" x2="-116.4" y2="1409.5" opacity="0.05"/><line x1="1584.1" y1="561.7" x2="-127.7" y2="1386.1" opacity="0.05"/><line x1="1572.9" y1="538.3" x2="-139" y2="1362.7" opacity="0.05"/><line x1="1561.6" y1="514.9" x2="-150.3" y2="1339.2" opacity="0.05"/><line x1="1550.3" y1="491.4" x2="-161.5" y2="1315.8" opacity="0.05"/><line x1="1539" y1="468" x2="-172.8" y2="1292.4" opacity="0.05"/><line x1="1527.7" y1="444.6" x2="-184.1" y2="1269" opacity="0.05"/><line x1="1516.5" y1="421.2" x2="-195.4" y2="1245.5" opacity="0.05"/><line x1="1505.2" y1="397.7" x2="-206.7" y2="1222.1" opacity="0.05"/><line x1="1493.9" y1="374.3" x2="-217.9" y2="1198.7" opacity="0.05"/><line x1="1482.6" y1="350.9" x2="-229.2" y2="1175.3" opacity="0.05"/><line x1="1471.3" y1="327.5" x2="-240.5" y2="1151.8" opacity="0.05"/><line x1="1460.1" y1="304" x2="-251.8" y2="1128.4" opacity="0.05"/><line x1="1448.8" y1="280.6" x2="-263.1" y2="1105" opacity="0.05"/><line x1="1437.5" y1="257.2" x2="-274.4" y2="1081.6" opacity="0.05"/><line x1="1426.2" y1="233.8" x2="-285.6" y2="1058.1" opacity="0.05"/><line x1="1414.9" y1="210.3" x2="-296.9" y2="1034.7" opacity="0.05"/><line x1="1403.6" y1="186.9" x2="-308.2" y2="1011.3" opacity="0.05"/><line x1="1392.4" y1="163.5" x2="-319.5" y2="987.9" opacity="0.05"/><line x1="1381.1" y1="140.1" x2="-330.8" y2="964.4" opacity="0.05"/><line x1="1369.8" y1="116.6" x2="-342" y2="941" opacity="0.05"/><line x1="1358.5" y1="93.2" x2="-353.3" y2="917.6" opacity="0.05"/><line x1="1347.2" y1="69.8" x2="-364.6" y2="894.2" opacity="0.05"/><line x1="1336" y1="46.4" x2="-375.9" y2="870.7" opacity="0.05"/><line x1="1324.7" y1="22.9" x2="-387.2" y2="847.3" opacity="0.05"/><line x1="1313.4" y1="-0.5" x2="-398.4" y2="823.9" opacity="0.05"/><line x1="1302.1" y1="-23.9" x2="-409.7" y2="800.5" opacity="0.05"/><line x1="1290.8" y1="-47.3" x2="-421" y2="777" opacity="0.05"/><line x1="1279.6" y1="-70.8" x2="-432.3" y2="753.6" opacity="0.05"/><line x1="1268.3" y1="-94.2" x2="-443.6" y2="730.2" opacity="0.05"/><line x1="1257" y1="-117.6" x2="-454.8" y2="706.8" opacity="0.05"/><line x1="1245.7" y1="-141" x2="-466.1" y2="683.3" opacity="0.05"/><line x1="1234.4" y1="-164.5" x2="-477.4" y2="659.9" opacity="0.05"/><line x1="1223.2" y1="-187.9" x2="-488.7" y2="636.5" opacity="0.05"/><line x1="1211.9" y1="-211.3" x2="-500" y2="613.1" opacity="0.05"/><line x1="1200.6" y1="-234.7" x2="-511.3" y2="589.6" opacity="0.05"/><line x1="1189.3" y1="-258.2" x2="-522.5" y2="566.2" opacity="0.05"/><line x1="1178" y1="-281.6" x2="-533.8" y2="542.8" opacity="0.05"/><line x1="1166.7" y1="-305" x2="-545.1" y2="519.4" opacity="0.05"/><line x1="1155.5" y1="-328.4" x2="-556.4" y2="495.9" opacity="0.05"/><line x1="1144.2" y1="-351.9" x2="-567.7" y2="472.5" opacity="0.05"/><line x1="1132.9" y1="-375.3" x2="-578.9" y2="449.1" opacity="0.05"/><line x1="1121.6" y1="-398.7" x2="-590.2" y2="425.7" opacity="0.05"/><line x1="1110.3" y1="-422.1" x2="-601.5" y2="402.2" opacity="0.05"/><line x1="1099.1" y1="-445.6" x2="-612.8" y2="378.8" opacity="0.05"/><line x1="1087.8" y1="-469" x2="-624.1" y2="355.4" opacity="0.05"/><line x1="1076.5" y1="-492.4" x2="-635.3" y2="332" opacity="0.05"/><line x1="1065.2" y1="-515.8" x2="-646.6" y2="308.5" opacity="0.05"/><line x1="1053.9" y1="-539.3" x2="-657.9" y2="285.1" opacity="0.05"/><line x1="1042.7" y1="-562.7" x2="-669.2" y2="261.7" opacity="0.05"/><line x1="1031.4" y1="-586.1" x2="-680.5" y2="238.3" opacity="0.05"/></g></svg>