<svg xmlns="http://www.w3.org/2000/svg" viewBox="0 0 1000 1000" preserveAspectRatio="xMidYMid slice" fill="none" stroke-linecap="round" stroke-linejoin="round"><g stroke="#0f3d2e" stroke-width="0.7"><line x1="-450" y1="-260" x2="1450" y2="-260" opacity="0.05"/><line x1="-450" y1="-236" x2="1450" y2="-236" opacity="0.05"/><line x1="-450" y1="-212" x2="1450" y2="-212" opacity="0.05"/><line x1="-450" y1="-188" x2="1450" y2="-188" opacity="0.05"/><line x1="-450" y1="-164" x2="1450" y2="-164" opacity="0.05"/><line x1="-450" y1="-140" x2="1450" y2="-140" opacity="0.05"/><line x1="-450" y1="-116" x2="1450" y2="-116" opacity="0.05"/><line x1="-450" y1="-92" x2="1450" y2="-92" opacity="0.05"/><line x1="-450" y1="-68" x2="1450" y2="-68" opacity="0.05"/><line x1="-450" y1="-44" x2="1450" y2="-44" opacity="0.05"/><line x1="-450" y1="-20" x2="1450" y2="-20" opacity="0.05"/><line x1="-450" y1="4" x2="1450" y2="4" opacity="0.05"/><line x1="-450" y1="28" x2="1450" y2="28" opacity="0.05"/><line x1="-450" y1="52" x2="1450" y2="52" opacity="0.05"/><line x1="-450" y1="76" x2="1450" y2="76" opacity="0.05"/><line x1="-450" y1="100" x2="1450" y2="100" opacity="0.05"/><line x1="-450" y1="124" x2="1450" y2="124" opacity="0.05"/><line x1="-450" y1="148" x2="1450" y2="148" opacity="0.05"/><line x1="-450" y1="172" x2="1450" y2="172" opacity="0.05"/><line x1="-450" y1="196" x2="1450" y2="196" opacity="0.05"/><line x1="-450" y1="220" x2="1450" y2="220" opacity="0.05"/><line x1="-450" y1="244" x2="1450" y2="244" opacity="0.05"/><line x1="-450" y1="268" x2="1450" y2="268" opacity="0.05"/><line x1="-450" y1="292" x2="1450" y2="292" opacity="0.05"/><line x1="-450" y1="316" x2="1450" y2="316" opacity="0.05"/><line x1="-450" y1="340" x2="1450" y2="340" opacity="0.05"/><line x1="-450" y1="364" x2="1450" y2="364" opacity="0.05"/><line x1="-450" y1="388" x2="1450" y2="388" opacity="0.05"/><line x1="-450" y1="412" x2="1450" y2="412" opacity="0.05"/><line x1="-450" y1="436" x2="1450" y2="436" opacity="0.05"/><line x1="-450" y1="460" x2="1450" y2="460" opacity="0.05"/><line x1="-450" y1="484" x2="1450" y2="484" opacity="0.05"/><line x1="-450" y1="508" x2="1450" y2="508" opacity="0.05"/><line x1="-450" y1="532" x2="1450" y2="532" opacity="0.05"/><line x1="-450" y1="556" x2="1450" y2="556" opacity="0.05"/><line x1="-450" y1="580" x2="1450" y2="580" opacity="0.05"/><line x1="-450" y1="604" x2="1450" y2="604" opacity="0.05"/><line x1="-450" y1="628" x2="1450" y2="628" opacity="0.05"/><line x1="-450" y1="652" x2="1450" y2="652" opacity="0.05"/><line x1="-450" y1="676" x2="1450" y2="676" opacity="0.05"/><line x1="-450" y1="700" x2="1450" y2="700" opacity="0.05"/><line x1="-450" y1="724" x2="1450" y2="724" opacity="0.05"/><line x1="-450" y1="748" x2="1450" y2="748" opacity="0.05"/><line x1="-450" y1="772" x2="1450" y2="772" opacity="0.05"/><line x1="-450" y1="796" x2="1450" y2="796" opacity="0.05"/><line x1="-450" y1="820" x2="1450" y2="820" opacity="0.05"/><line x1="-450" y1="844" x2="1450" y2="844" opacity="0.05"/><line x1="-450" y1="868" x2="1450" y2="868" opacity="0.05"/><line x1="-450" y1="892" x2="1450" y2="892" opacity="0.05"/><line x1="-450" y1="916" x2="1450" y2="916" opacity="0.05"/><line x1="-450" y1="940" x2="1450" y2="940" opacity="0.05"/><line x1="-450" y1="964" x2="1450" y2="964" opacity="0.05"/><line x1="-450" y1="988" x2="1450" y2="988" opacity="0.05"/><line x1="-450" y1="1012" x2="1450" y2="1012" opacity="0.05"/><line x1="-450" y1="1036" x2="1450" y2="1036" opacity="0.05"/><line x1="-450" y1="1060" x2="1450" y2="1060" opacity="0.05"/><line x1="-450" y1="1084" x2="1450" y2="1084" opacity="0.05"/><line x1="-450" y1="1108" x2="1450" y2="1108" opacity="0.05"/><line x1="-450" y1="1132" x2="1450" y2="1132" opacity="0.05"/><line x1="-450" y1="1156" x2="1450" y2="1156" opacity="0.05"/><line x1="-450" y1="1180" x2="1450" y2="1180" opacity="0.05"/><line x1="-450" y1="1204" x2="1450" y2="1204" opacity="0.05"/><line x1="-450" y1="1228" x2="1450" y2="1228" opacity="0.05"/><line x1="-450" y1="1252" x2="1450" y2="1252" opacity="0.05"/><line x1="-132.8" y1="-539.1" x2="1652.6" y2="110.8" opacity="0.05"/><line x1="-141" y1="-516.5" x2="1644.4" y2="133.3" opacity="0.05"/><line x1="-149.2" y1="-494" x2="1636.2" y2="155.9" opacity="0.05"/><line x1="-157.4" y1="-471.4" x2="1628" y2="178.4" opacity="0.05"/><line x1="-165.6" y1="-448.9" x2="1619.8" y2="201" opacity="0.05"/><line x1="-173.8" y1="-426.3" x2="1611.6" y2="223.5" opacity="0.05"/><line x1="-182" y1="-403.8" x2="1603.4" y2="246.1" opacity="0.05"/><line x1="-190.2" y1="-381.2" x2="1595.2" y2="268.6" opacity="0.05"/><line x1="-198.4" y1="-358.7" x2="1587" y2="291.2" opacity="0.05"/><line x1="-206.6" y1="-336.1" x2="1578.8" y2="313.7" opacity="0.05"/><line x1="-214.9" y1="-313.6" x2="1570.6" y2="336.3" opacity="0.05"/><line x1="-223.1" y1="-291" x2="1562.3" y2="358.8" opacity="0.05"/><line x1="-231.3" y1="-268.5" x2="1554.1" y2="381.4" opacity="0.05"/><line x1="-239.5" y1="-245.9" x2="1545.9" y2="403.9" opacity="0.05"/><line x1="-247.7" y1="-223.3" x2="1537.7" y2="426.5" opacity="0.05"/><line x1="-255.9" y1="-200.8" x2="1529.5" y2="449" opacity="0.05"/><line x1="-264.1" y1="-178.2" x2="1521.3" y2="471.6" opacity="0.05"/><line x1="-272.3" y1="-155.7" x2="1513.1" y2="494.1" opacity="0.05"/><line x1="-280.5" y1="-133.1" x2="1504.9" y2="516.7" opacity="0.05"/><line x1="-288.7" y1="-110.6" x2="1496.7" y2="539.3" opacity="0.05"/><line x1="-296.9" y1="-88" x2="1488.5" y2="561.8" opacity="0.05"/><line x1="-305.2" y1="-65.5" x2="1480.3" y2="584.4" opacity="0.05"/><line x1="-313.4" y1="-42.9" x2="1472.1" y2="606.9" opacity="0.05"/><line x1="-321.6" y1="-20.4" x2="1463.8" y2="629.5" opacity="0.05"/><line x1="-329.8" y1="2.2" x2="1455.6" y2="652" opacity="0.05"/><line x1="-338" y1="24.7" x2="1447.4" y2="674.6" opacity="0.05"/><line x1="-346.2" y1="47.3" x2="1439.2" y2="697.1" opacity="0.05"/><line x1="-354.4" y1="69.8" x2="1431" y2="719.7" opacity="0.05"/><line x1="-362.6" y1="92.4" x2="1422.8" y2="742.2" opacity="0.05"/><line x1="-370.8" y1="114.9" x2="1414.6" y2="764.8" opacity="0.05"/><line x1="-379" y1="137.5" x2="1406.4" y2="787.3" opacity="0.05"/><line x1="-387.2" y1="160" x2="1398.2" y2="809.9" opacity="0.05"/><line x1="-395.4" y1="182.6" x2="1390" y2="832.4" opacity="0.05"/><line x1="-403.7" y1="205.2" x2="1381.8" y2="855" opacity="0.05"/><line x1="-411.9" y1="227.7" x2="1373.6" y2="877.5" opacity="0.05"/><line x1="-420.1" y1="250.3" x2="1365.3" y2="900.1" opacity="0.05"/><line x1="-428.3" y1="272.8" x2="1357.1" y2="922.6" opacity="0.05"/><line x1="-436.5" y1="295.4" x2="1348.9" y2="945.2" opacity="0.05"/><line x1="-444.7" y1="317.9" x2="1340.7" y2="967.8" opacity="0.05"/><line x1="-452.9" y1="340.5" x2="1332.5" y2="990.3" opacity="0.05"/><line x1="-461.1" y1="363" x2="1324.3" y2="1012.9" opacity="0.05"/><line x1="-469.3" y1="385.6" x2="1316.1" y2="1035.4" opacity="0.05"/><line x1="-477.5" y1="408.1" x2="1307.9" y2="1058" opacity="0.05"/><line x1="-485.7" y1="430.7" x2="1299.7" y2="1080.5" opacity="0.05"/><line x1="-493.9" y1="453.2" x2="1291.5" y2="1103.1" opacity="0.05"/><line x1="-502.2" y1="475.8" x2="1283.3" y2="1125.6" opacity="0.05"/><line x1="-510.4" y1="498.3" x2="1275.1" y2="1148.2" opacity="0.05"/><line x1="-518.6" y1="520.9" x2="1266.8" y2="1170.7" opacity="0.05"/><line x1="-526.8" y1="543.4" x2="1258.6" y2="1193.3" opacity="0.05"/><line x1="-535" y1="566" x2="1250.4" y2="1215.8" opacity="0.05"/><line x1="-543.2" y1="588.5" x2="1242.2" y2="1238.4" opacity="0.05"/><line x1="-551.4" y1="611.1" x2="1234" y2="1260.9" opacity="0.05"/><line x1="-559.6" y1="633.7" x2="1225.8" y2="1283.5" opacity="0.05"/><line x1="-567.8" y1="656.2" x2="1217.6" y2="1306" opacity="0.05"/><line x1="-576" y1="678.8" x2="1209.4" y2="1328.6" opacity="0.05"/><line x1="-584.2" y1="701.3" x2="1201.2" y2="1351.1" opacity="0.05"/><line x1="-592.4" y1="723.9" x2="1193" y2="1373.7" opacity="0.05"/><line x1="-600.7" y1="746.4" x2="1184.8" y2="1396.3" opacity="0.05"/><line x1="-608.9" y1="769" x2="1176.6" y2="1418.8" opacity="0.05"/><line x1="-617.1" y1="791.5" x2="1168.3" y2="1441.4" opacity="0.05"/><line x1="-625.3" y1="814.1" x2="1160.1" y2="1463.9" opacity="0.05"/><line x1="-633.5" y1="836.6" x2="1151.9" y2="1486.5" opacity="0.05"/><line x1="-641.7" y1="859.2" x2="1143.7" y2="1509" opacity="0.05"/><line x1="-649.9" y1="881.7" x2="1135.5" y2="1531.6" opacity="0.05"/><line x1="260.8" y1="-692.8" x2="1716.3" y2="528.5" opacity="0.05"/><line x1="245.3" y1="-674.5" x2="1700.8" y2="546.8" opacity="0.05"/><line x1="229.9" y1="-656.1" x2="1685.4" y2="565.2" opacity="0.05"/><line x1="214.5" y1="-637.7" x2="1670" y2="583.6" opacity="0.05"/><line x1="199.1" y1="-619.3" x2="1654.6" y2="602" opacity="0.05"/><line x1="183.6" y1="-600.9" x2="1639.1" y2="620.4" opacity="0.05"/><line x1="168.2" y1="-582.5" x2="1623.7" y2="638.8" opacity="0.05"/><line x1="152.8" y1="-564.1" x2="1608.3" y2="657.1" opacity="0.05"/><line x1="137.4" y1="-545.8" x2="1592.8" y2="675.5" opacity="0.05"/><line x1="121.9" y1="-527.4" x2="1577.4" y2="693.9" opacity="0.05"/><line x1="106.5" y1="-509" x2="1562" y2="712.3" opacity="0.05"/><line x1="91.1" y1="-490.6" x2="1546.6" y2="730.7" opacity="0.05"/><line x1="75.7" y1="-472.2" x2="1531.1" y2="749.1" opacity="0.05"/><line x1="60.2" y1="-453.8" x2="1515.7" y2="767.5" opacity="0.05"/><line x1="44.8" y1="-435.5" x2="1500.3" y2="785.8" opacity="0.05"/><line x1="29.4" y1="-417.1" x2="1484.9" y2="804.2" opacity="0.05"/><line x1="13.9" y1="-398.7" x2="1469.4" y2="822.6" opacity="0.05"/><line x1="-1.5" y1="-380.3" x2="1454" y2="841" opacity="0.05"/><line x1="-16.9" y1="-361.9" x2="1438.6" y2="859.4" opacity="0.05"/><line x1="-32.3" y1="-343.5" x2="1423.1" y2="877.8" opacity="0.05"/><line x1="-47.8" y1="-325.1" x2="1407.7" y2="896.2" opacity="0.05"/><line x1="-63.2" y1="-306.8" x2="1392.3" y2="914.5" opacity="0.05"/><line x1="-78.6" y1="-288.4" x2="1376.9" y2="932.9" opacity="0.05"/><line x1="-94" y1="-270" x2="1361.4" y2="951.3" opacity="0.05"/><line x1="-109.5" y1="-251.6" x2="1346" y2="969.7" opacity="0.05"/><line x1="-124.9" y1="-233.2" x2="1330.6" y2="988.1" opacity="0.05"/><line x1="-140.3" y1="-214.8" x2="1315.2" y2="1006.5" opacity="0.05"/><line x1="-155.8" y1="-196.4" x2="1299.7" y2="1024.9" opacity="0.05"/><line x1="-171.2" y1="-178.1" x2="1284.3" y2="1043.2" opacity="0.05"/><line x1="-186.6" y1="-159.7" x2="1268.9" y2="1061.6" opacity="0.05"/><line x1="-202" y1="-141.3" x2="1253.5" y2="1080" opacity="0.05"/><line x1="-217.5" y1="-122.9" x2="1238" y2="1098.4" opacity="0.05"/><line x1="-232.9" y1="-104.5" x2="1222.6" y2="1116.8" opacity="0.05"/><line x1="-248.3" y1="-86.1" x2="1207.2" y2="1135.2" opacity="0.05"/><line x1="-263.7" y1="-67.7" x2="1191.7" y2="1153.5" opacity="0.05"/><line x1="-279.2" y1="-49.4" x2="1176.3" y2="1171.9" opacity="0.05"/><line x1="-294.6" y1="-31" x2="1160.9" y2="1190.3" opacity="0.05"/><line x1="-310" y1="-12.6" x2="1145.5" y2="1208.7" opacity="0.05"/><line x1="-325.4" y1="5.8" x2="1130" y2="1227.1" opacity="0.05"/><line x1="-340.9" y1="24.2" x2="1114.6" y2="1245.5" opacity="0.05"/><line x1="-356.3" y1="42.6" x2="1099.2" y2="1263.9" opacity="0.05"/><line x1="-371.7" y1="60.9" x2="1083.8" y2="1282.2" opacity="0.05"/><line x1="-387.2" y1="79.3" x2="1068.3" y2="1300.6" opacity="0.05"/><line x1="-402.6" y1="97.7" x2="1052.9" y2="1319" opacity="0.05"/><line x1="-418" y1="116.1" x2="1037.5" y2="1337.4" opacity="0.05"/><line x1="-433.4" y1="134.5" x2="1022.1" y2="1355.8" opacity="0.05"/><line x1="-448.9" y1="152.9" x2="1006.6" y2="1374.2" opacity="0.05"/><line x1="-464.3" y1="171.3" x2="991.2" y2="1392.6" opacity="0.05"/><line x1="-479.7" y1="189.6" x2="975.8" y2="1410.9" opacity="0.05"/><line x1="-495.1" y1="208" x2="960.3" y2="1429.3" opacity="0.05"/><line x1="-510.6" y1="226.4" x2="944.9" y2="1447.7" opacity="0.05"/><line x1="-526" y1="244.8" x2="929.5" y2="1466.1" opacity="0.05"/><line x1="-541.4" y1="263.2" x2="914.1" y2="1484.5" opacity="0.05"/><line x1="-556.8" y1="281.6" x2="898.6" y2="1502.9" opacity="0.05"/><line x1="-572.3" y1="300" x2="883.2" y2="1521.2" opacity="0.05"/><line x1="-587.7" y1="318.3" x2="867.8" y2="1539.6" opacity="0.05"/><line x1="-603.1" y1="336.7" x2="852.4" y2="1558" opacity="0.05"/><line x1="-618.6" y1="355.1" x2="836.9" y2="1576.4" opacity="0.05"/><line x1="-634" y1="373.5" x2="821.5" y2="1594.8" opacity="0.05"/><line x1="-649.4" y1="391.9" x2="806.1" y2="1613.2" opacity="0.05"/><line x1="-664.8" y1="410.3" x2="790.6" y2="1631.6" opacity="0.05"/><line x1="-680.3" y1="428.6" x2="775.2" y2="1649.9" opacity="0.05"/><line x1="-695.7" y1="447" x2="759.8" y2="1668.3" opacity="0.05"/><line x1="-711.1" y1="465.4" x2="744.4" y2="1686.7" opacity="0.05"/><line x1="683.2" y1="-702.7" x2="1633.2" y2="942.7" opacity="0.05"/><line x1="662.4" y1="-690.7" x2="1612.4" y2="954.7" opacity="0.05"/><line x1="641.6" y1="-678.7" x2="1591.6" y2="966.7" opacity="0.05"/><line x1="620.8" y1="-666.7" x2="1570.8" y2="978.7" opacity="0.05"/><line x1="600" y1="-654.7" x2="1550" y2="990.7" opacity="0.05"/><line x1="579.3" y1="-642.7" x2="1529.3" y2="1002.7" opacity="0.05"/><line x1="558.5" y1="-630.7" x2="1508.5" y2="1014.7" opacity="0.05"/><line x1="537.7" y1="-618.7" x2="1487.7" y2="1026.7" opacity="0.05"/><line x1="516.9" y1="-606.7" x2="1466.9" y2="1038.7" opacity="0.05"/><line x1="496.1" y1="-594.7" x2="1446.1" y2="1050.7" opacity="0.05"/><line x1="475.3" y1="-582.7" x2="1425.3" y2="1062.7" opacity="0.05"/><line x1="454.5" y1="-570.7" x2="1404.5" y2="1074.7" opacity="0.05"/><line x1="433.8" y1="-558.7" x2="1383.8" y2="1086.7" opacity="0.05"/><line x1="413" y1="-546.7" x2="1363" y2="1098.7" opacity="0.05"/><line x1="392.2" y1="-534.7" x2="1342.2" y2="1110.7" opacity="0.05"/><line x1="371.4" y1="-522.7" x2="1321.4" y2="1122.7" opacity="0.05"/><line x1="350.6" y1="-510.7" x2="1300.6" y2="1134.7" opacity="0.05"/><line x1="329.8" y1="-498.7" x2="1279.8" y2="1146.7" opacity="0.05"/><line x1="309.1" y1="-486.7" x2="1259.1" y2="1158.7" opacity="0.05"/><line x1="288.3" y1="-474.7" x2="1238.3" y2="1170.7" opacity="0.05"/><line x1="267.5" y1="-462.7" x2="1217.5" y2="1182.7" opacity="0.05"/><line x1="246.7" y1="-450.7" x2="1196.7" y2="1194.7" opacity="0.05"/><line x1="225.9" y1="-438.7" x2="1175.9" y2="1206.7" opacity="0.05"/><line x1="205.1" y1="-426.7" x2="1155.1" y2="1218.7" opacity="0.05"/><line x1="184.3" y1="-414.7" x2="1134.3" y2="1230.7" opacity="0.05"/><line x1="163.6" y1="-402.7" x2="1113.6" y2="1242.7" opacity="0.05"/><line x1="142.8" y1="-390.7" x2="1092.8" y2="1254.7" opacity="0.05"/><line x1="122" y1="-378.7" x2="1072" y2="1266.7" opacity="0.05"/><line x1="101.2" y1="-366.7" x2="1051.2" y2="1278.7" opacity="0.05"/><line x1="80.4" y1="-354.7" x2="1030.4" y2="1290.7" opacity="0.05"/><line x1="59.6" y1="-342.7" x2="1009.6" y2="1302.7" opacity="0.05"/><line x1="38.9" y1="-330.7" x2="988.9" y2="1314.7" opacity="0.05"/><line x1="18.1" y1="-318.7" x2="968.1" y2="1326.7" opacity="0.05"/><line x1="-2.7" y1="-306.7" x2="947.3" y2="1338.7" opacity="0.05"/><line x1="-23.5" y1="-294.7" x2="926.5" y2="1350.7" opacity="0.05"/><line x1="-44.3" y1="-282.7" x2="905.7" y2="1362.7" opacity="0.05"/><line x1="-65.1" y1="-270.7" x2="884.9" y2="1374.7" opacity="0.05"/><line x1="-85.9" y1="-258.7" x2="864.1" y2="1386.7" opacity="0.05"/><line x1="-106.6" y1="-246.7" x2="843.4" y2="1398.7" opacity="0.05"/><line x1="-127.4" y1="-234.7" x2="822.6" y2="1410.7" opacity="0.05"/><line x1="-148.2" y1="-222.7" x2="801.8" y2="1422.7" opacity="0.05"/><line x1="-169" y1="-210.7" x2="781" y2="1434.7" opacity="0.05"/><line x1="-189.8" y1="-198.7" x2="760.2" y2="1446.7" opacity="0.05"/><line x1="-210.6" y1="-186.7" x2="739.4" y2="1458.7" opacity="0.05"/><line x1="-231.3" y1="-174.7" x2="718.7" y2="1470.7" opacity="0.05"/><line x1="-252.1" y1="-162.7" x2="697.9" y2="1482.7" opacity="0.05"/><line x1="-272.9" y1="-150.7" x2="677.1" y2="1494.7" opacity="0.05"/><line x1="-293.7" y1="-138.7" x2="656.3" y2="1506.7" opacity="0.05"/><line x1="-314.5" y1="-126.7" x2="635.5" y2="1518.7" opacity="0.05"/><line x1="-335.3" y1="-114.7" x2="614.7" y2="1530.7" opacity="0.05"/><line x1="-356.1" y1="-102.7" x2="593.9" y2="1542.7" opacity="0.05"/><line x1="-376.8" y1="-90.7" x2="573.2" y2="1554.7" opacity="0.05"/><line x1="-397.6" y1="-78.7" x2="552.4" y2="1566.7" opacity="0.05"/><line x1="-418.4" y1="-66.7" x2="531.6" y2="1578.7" opacity="0.05"/><line x1="-439.2" y1="-54.7" x2="510.8" y2="1590.7" opacity="0.05"/><line x1="-460" y1="-42.7" x2="490" y2="1602.7" opacity="0.05"/><line x1="-480.8" y1="-30.7" x2="469.2" y2="1614.7" opacity="0.05"/><line x1="-501.5" y1="-18.7" x2="448.5" y2="1626.7" opacity="0.05"/><line x1="-522.3" y1="-6.7" x2="427.7" y2="1638.7" opacity="0.05"/><line x1="-543.1" y1="5.3" x2="406.9" y2="1650.7" opacity="0.05"/><line x1="-563.9" y1="17.3" x2="386.1" y2="1662.7" opacity="0.05"/><line x1="-584.7" y1="29.3" x2="365.3" y2="1674.7" opacity="0.05"/><line x1="-605.5" y1="41.3" x2="344.5" y2="1686.7" opacity="0.05"/><line x1="-626.3" y1="53.3" x2="323.7" y2="1698.7" opacity="0.05"/><line x1="1083.5" y1="-567.5" x2="1413.4" y2="1303.6" opacity="0.05"/><line x1="1059.9" y1="-563.4" x2="1389.8" y2="1307.8" opacity="0.05"/><line x1="1036.2" y1="-559.2" x2="1366.1" y2="1311.9" opacity="0.05"/><line x1="1012.6" y1="-555" x2="1342.5" y2="1316.1" opacity="0.05"/><line x1="988.9" y1="-550.9" x2="1318.9" y2="1320.3" opacity="0.05"/><line x1="965.3" y1="-546.7" x2="1295.2" y2="1324.4" opacity="0.05"/><line x1="941.7" y1="-542.5" x2="1271.6" y2="1328.6" opacity="0.05"/><line x1="918" y1="-538.4" x2="1248" y2="1332.8" opacity="0.05"/><line x1="894.4" y1="-534.2" x2="1224.3" y2="1336.9" opacity="0.05"/><line x1="870.8" y1="-530" x2="1200.7" y2="1341.1" opacity="0.05"/><line x1="847.1" y1="-525.9" x2="1177.1" y2="1345.3" opacity="0.05"/><line x1="823.5" y1="-521.7" x2="1153.4" y2="1349.4" opacity="0.05"/><line x1="799.9" y1="-517.5" x2="1129.8" y2="1353.6" opacity="0.05"/><line x1="776.2" y1="-513.4" x2="1106.2" y2="1357.8" opacity="0.05"/><line x1="752.6" y1="-509.2" x2="1082.5" y2="1361.9" opacity="0.05"/><line x1="729" y1="-505" x2="1058.9" y2="1366.1" opacity="0.05"/><line x1="705.3" y1="-500.9" x2="1035.3" y2="1370.3" opacity="0.05"/><line x1="681.7" y1="-496.7" x2="1011.6" y2="1374.4" opacity="0.05"/><line x1="658.1" y1="-492.5" x2="988" y2="1378.6" opacity="0.05"/><line x1="634.4" y1="-488.4" x2="964.3" y2="1382.8" opacity="0.05"/><line x1="610.8" y1="-484.2" x2="940.7" y2="1386.9" opacity="0.05"/><line x1="587.1" y1="-480" x2="917.1" y2="1391.1" opacity="0.05"/><line x1="563.5" y1="-475.9" x2="893.4" y2="1395.3" opacity="0.05"/><line x1="539.9" y1="-471.7" x2="869.8" y2="1399.4" opacity="0.05"/><line x1="516.2" y1="-467.5" x2="846.2" y2="1403.6" opacity="0.05"/><line x1="492.6" y1="-463.4" x2="822.5" y2="1407.8" opacity="0.05"/><line x1="469" y1="-459.2" x2="798.9" y2="1412" opacity="0.05"/><line x1="445.3" y1="-455" x2="775.3" y2="1416.1" opacity="0.05"/><line x1="421.7" y1="-450.8" x2="751.6" y2="1420.3" opacity="0.05"/><line x1="398.1" y1="-446.7" x2="728" y2="1424.5" opacity="0.05"/><line x1="374.4" y1="-442.5" x2="704.4" y2="1428.6" opacity="0.05"/><line x1="350.8" y1="-438.3" x2="680.7" y2="1432.8" opacity="0.05"/><line x1="327.2" y1="-434.2" x2="657.1" y2="1437" opacity="0.05"/><line x1="303.5" y1="-430" x2="633.5" y2="1441.1" opacity="0.05"/><line x1="279.9" y1="-425.8" x2="609.8" y2="1445.3" opacity="0.05"/><line x1="256.2" y1="-421.7" x2="586.2" y2="1449.5" opacity="0.05"/><line x1="232.6" y1="-417.5" x2="562.5" y2="1453.6" opacity="0.05"/><line x1="209" y1="-413.3" x2="538.9" y2="1457.8" opacity="0.05"/><line x1="185.3" y1="-409.2" x2="515.3" y2="1462" opacity="0.05"/><line x1="161.7" y1="-405" x2="491.6" y2="1466.1" opacity="0.05"/><line x1="138.1" y1="-400.8" x2="468" y2="1470.3" opacity="0.05"/><line x1="114.4" y1="-396.7" x2="444.4" y2="1474.5" opacity="0.05"/><line x1="90.8" y1="-392.5" x2="420.7" y2="1478.6" opacity="0.05"/><line x1="67.2" y1="-388.3" x2="397.1" y2="1482.8" opacity="0.05"/><line x1="43.5" y1="-384.2" x2="373.5" y2="1487" opacity="0.05"/><line x1="19.9" y1="-380" x2="349.8" y2="1491.1" opacity="0.05"/><line x1="-3.7" y1="-375.8" x2="326.2" y2="1495.3" opacity="0.05"/><line x1="-27.4" y1="-371.7" x2="302.6" y2="1499.5" opacity="0.05"/><line x1="-51" y1="-367.5" x2="278.9" y2="1503.6" opacity="0.05"/><line x1="-74.6" y1="-363.3" x2="255.3" y2="1507.8" opacity="0.05"/><line x1="-98.3" y1="-359.2" x2="231.7" y2="1512" opacity="0.05"/><line x1="-121.9" y1="-355" x2="208" y2="1516.1" opacity="0.05"/><line x1="-145.6" y1="-350.8" x2="184.4" y2="1520.3" opacity="0.05"/><line x1="-169.2" y1="-346.7" x2="160.7" y2="1524.5" opacity="0.05"/><line x1="-192.8" y1="-342.5" x2="137.1" y2="1528.6" opacity="0.05"/><line x1="-216.5" y1="-338.3" x2="113.5" y2="1532.8" opacity="0.05"/><line x1="-240.1" y1="-334.2" x2="89.8" y2="1537" opacity="0.05"/><line x1="-263.7" y1="-330" x2="66.2" y2="1541.1" opacity="0.05"/><line x1="-287.4" y1="-325.8" x2="42.6" y2="1545.3" opacity="0.05"/><line x1="-311" y1="-321.7" x2="18.9" y2="1549.5" opacity="0.05"/><line x1="-334.6" y1="-317.5" x2="-4.7" y2="1553.6" opacity="0.05"/><line x1="-358.3" y1="-313.3" x2="-28.3" y2="1557.8" opacity="0.05"/><line x1="-381.9" y1="-309.2" x2="-52" y2="1562" opacity="0.05"/><line x1="-405.5" y1="-305" x2="-75.6" y2="1566.2" opacity="0.05"/><line x1="1413.4" y1="-303.6" x2="1083.5" y2="1567.5" opacity="0.05"/><line x1="1389.8" y1="-307.8" x2="1059.9" y2="1563.4" opacity="0.05"/><line x1="1366.1" y1="-311.9" x2="1036.2" y2="1559.2" opacity="0.05"/><line x1="1342.5" y1="-316.1" x2="1012.6" y2="1555" opacity="0.05"/><line x1="1318.9" y1="-320.3" x2="988.9" y2="1550.9" opacity="0.05"/><line x1="1295.2" y1="-324.4" x2="965.3" y2="1546.7" opacity="0.05"/><line x1="1271.6" y1="-328.6" x2="941.7" y2="1542.5" opacity="0.05"/><line x1="1248" y1="-332.8" x2="918" y2="1538.4" opacity="0.05"/><line x1="1224.3" y1="-336.9" x2="894.4" y2="1534.2" opacity="0.05"/><line x1="1200.7" y1="-341.1" x2="870.8" y2="1530" opacity="0.05"/><line x1="1177.1" y1="-345.3" x2="847.1" y2="1525.9" opacity="0.05"/><line x1="1153.4" y1="-349.4" x2="823.5" y2="1521.7" opacity="0.05"/><line x1="1129.8" y1="-353.6" x2="799.9" y2="1517.5" opacity="0.05"/><line x1="1106.2" y1="-357.8" x2="776.2" y2="1513.4" opacity="0.05"/><line x1="1082.5" y1="-361.9" x2="752.6" y2="1509.2" opacity="0.05"/><line x1="1058.9" y1="-366.1" x2="729" y2="1505" opacity="0.05"/><line x1="1035.3" y1="-370.3" x2="705.3" y2="1500.9" opacity="0.05"/><line x1="1011.6" y1="-374.4" x2="681.7" y2="1496.7" opacity="0.05"/><line x1="988" y1="-378.6" x2="658.1" y2="1492.5" opacity="0.05"/><line x1="964.3" y1="-382.8" x2="634.4" y2="1488.4" opacity="0.05"/><line x1="940.7" y1="-386.9" x2="610.8" y2="1484.2" opacity="0.05"/><line x1="917.1" y1="-391.1" x2="587.1" y2="1480" opacity="0.05"/><line x1="893.4" y1="-395.3" x2="563.5" y2="1475.9" opacity="0.05"/><line x1="869.8" y1="-399.4" x2="539.9" y2="1471.7" opacity="0.05"/><line x1="846.2" y1="-403.6" x2="516.2" y2="1467.5" opacity="0.05"/><line x1="822.5" y1="-407.8" x2="492.6" y2="1463.4" opacity="0.05"/><line x1="798.9" y1="-412" x2="469" y2="1459.2" opacity="0.05"/><line x1="775.3" y1="-416.1" x2="445.3" y2="1455" opacity="0.05"/><line x1="751.6" y1="-420.3" x2="421.7" y2="1450.8" opacity="0.05"/><line x1="728" y1="-424.5" x2="398.1" y2="1446.7" opacity="0.05"/><line x1="704.4" y1="-428.6" x2="374.4" y2="1442.5" opacity="0.05"/><line x1="680.7" y1="-432.8" x2="350.8" y2="1438.3" opacity="0.05"/><line x1="657.1" y1="-437" x2="327.2" y2="1434.2" opacity="0.05"/><line x1="633.5" y1="-441.1" x2="303.5" y2="1430" opacity="0.05"/><line x1="609.8" y1="-445.3" x2="279.9" y2="1425.8" opacity="0.05"/><line x1="586.2" y1="-449.5" x2="256.2" y2="1421.7" opacity="0.05"/><line x1="562.5" y1="-453.6" x2="232.6" y2="1417.5" opacity="0.05"/><line x1="538.9" y1="-457.8" x2="209" y2="1413.3" opacity="0.05"/><line x1="515.3" y1="-462" x2="185.3" y2="1409.2" opacity="0.05"/><line x1="491.6" y1="-466.1" x2="161.7" y2="1405" opacity="0.05"/><line x1="468" y1="-470.3" x2="138.1" y2="1400.8" opacity="0.05"/><line x1="444.4" y1="-474.5" x2="114.4" y2="1396.7" opacity="0.05"/><line x1="420.7" y1="-478.6" x2="90.8" y2="1392.5" opacity="0.05"/><line x1="397.1" y1="-482.8" x2="67.2" y2="1388.3" opacity="0.05"/><line x1="373.5" y1="-487" x2="43.5" y2="1384.2" opacity="0.05"/><line x1="349.8" y1="-491.1" x2="19.9" y2="1380" opacity="0.05"/><line x1="326.2" y1="-495.3" x2="-3.7" y2="1375.8" opacity="0.05"/><line x1="302.6" y1="-499.5" x2="-27.4" y2="1371.7" opacity="0.05"/><line x1="278.9" y1="-503.6" x2="-51" y2="1367.5" opacity="0.05"/><line x1="255.3" y1="-507.8" x2="-74.6" y2="1363.3" opacity="0.05"/><line x1="231.7" y1="-512" x2="-98.3" y2="1359.2" opacity="0.05"/><line x1="208" y1="-516.1" x2="-121.9" y2="1355" opacity="0.05"/><line x1="184.4" y1="-520.3" x2="-145.6" y2="1350.8" opacity="0.05"/><line x1="160.7" y1="-524.5" x2="-169.2" y2="1346.7" opacity="0.05"/><line x1="137.1" y1="-528.6" x2="-192.8" y2="1342.5" opacity="0.05"/><line x1="113.5" y1="-532.8" x2="-216.5" y2="1338.3" opacity="0.05"/><line x1="89.8" y1="-537" x2="-240.1" y2="1334.2" opacity="0.05"/><line x1="66.2" y1="-541.1" x2="-263.7" y2="1330" opacity="0.05"/><line x1="42.6" y1="-545.3" x2="-287.4" y2="1325.8" opacity="0.05"/><line x1="18.9" y1="-549.5" x2="-311" y2="1321.7" opacity="0.05"/><line x1="-4.7" y1="-553.6" x2="-334.6" y2="1317.5" opacity="0.05"/><line x1="-28.3" y1="-557.8" x2="-358.3" y2="1313.3" opacity="0.05"/><line x1="-52" y1="-562" x2="-381.9" y2="1309.2" opacity="0.05"/><line x1="-75.6" y1="-566.2" x2="-405.5" y2="1305" opacity="0.05"/><line x1="1633.2" y1="57.3" x2="683.2" y2="1702.7" opacity="0.05"/><line x1="1612.4" y1="45.3" x2="662.4" y2="1690.7" opacity="0.05"/><line x1="1591.6" y1="33.3" x2="641.6" y2="1678.7" opacity="0.05"/><line x1="1570.8" y1="21.3" x2="620.8" y2="1666.7" opacity="0.05"/><line x1="1550" y1="9.3" x2="600" y2="1654.7" opacity="0.05"/><line x1="1529.3" y1="-2.7" x2="579.3" y2="1642.7" opacity="0.05"/><line x1="1508.5" y1="-14.7" x2="558.5" y2="1630.7" opacity="0.05"/><line x1="1487.7" y1="-26.7" x2="537.7" y2="1618.7" opacity="0.05"/><line x1="1466.9" y1="-38.7" x2="516.9" y2="1606.7" opacity="0.05"/><line x1="1446.1" y1="-50.7" x2="496.1" y2="1594.7" opacity="0.05"/><line x1="1425.3" y1="-62.7" x2="475.3" y2="1582.7" opacity="0.05"/><line x1="1404.5" y1="-74.7" x2="454.5" y2="1570.7" opacity="0.05"/><line x1="1383.8" y1="-86.7" x2="433.8" y2="1558.7" opacity="0.05"/><line x1="1363" y1="-98.7" x2="413" y2="1546.7" opacity="0.05"/><line x1="1342.2" y1="-110.7" x2="392.2" y2="1534.7" opacity="0.05"/><line x1="1321.4" y1="-122.7" x2="371.4" y2="1522.7" opacity="0.05"/><line x1="1300.6" y1="-134.7" x2="350.6" y2="1510.7" opacity="0.05"/><line x1="1279.8" y1="-146.7" x2="329.8" y2="1498.7" opacity="0.05"/><line x1="1259.1" y1="-158.7" x2="309.1" y2="1486.7" opacity="0.05"/><line x1="1238.3" y1="-170.7" x2="288.3" y2="1474.7" opacity="0.05"/><line x1="1217.5" y1="-182.7" x2="267.5" y2="1462.7" opacity="0.05"/><line x1="1196.7" y1="-194.7" x2="246.7" y2="1450.7" opacity="0.05"/><line x1="1175.9" y1="-206.7" x2="225.9" y2="1438.7" opacity="0.05"/><line x1="1155.1" y1="-218.7" x2="205.1" y2="1426.7" opacity="0.05"/><line x1="1134.3" y1="-230.7" x2="184.3" y2="1414.7" opacity="0.05"/><line x1="1113.6" y1="-242.7" x2="163.6" y2="1402.7" opacity="0.05"/><line x1="1092.8" y1="-254.7" x2="142.8" y2="1390.7" opacity="0.05"/><line x1="1072" y1="-266.7" x2="122" y2="1378.7" opacity="0.05"/><line x1="1051.2" y1="-278.7" x2="101.2" y2="1366.7" opacity="0.05"/><line x1="1030.4" y1="-290.7" x2="80.4" y2="1354.7" opacity="0.05"/><line x1="1009.6" y1="-302.7" x2="59.6" y2="1342.7" opacity="0.05"/><line x1="988.9" y1="-314.7" x2="38.9" y2="1330.7" opacity="0.05"/><line x1="968.1" y1="-326.7" x2="18.1" y2="1318.7" opacity="0.05"/><line x1="947.3" y1="-338.7" x2="-2.7" y2="1306.7" opacity="0.05"/><line x1="926.5" y1="-350.7" x2="-23.5" y2="1294.7" opacity="0.05"/><line x1="905.7" y1="-362.7" x2="-44.3" y2="1282.7" opacity="0.05"/><line x1="884.9" y1="-374.7" x2="-65.1" y2="1270.7" opacity="0.05"/><line x1="864.1" y1="-386.7" x2="-85.9" y2="1258.7" opacity="0.05"/><line x1="843.4" y1="-398.7" x2="-106.6" y2="1246.7" opacity="0.05"/><line x1="822.6" y1="-410.7" x2="-127.4" y2="1234.7" opacity="0.05"/><line x1="801.8" y1="-422.7" x2="-148.2" y2="1222.7" opacity="0.05"/><line x1="781" y1="-434.7" x2="-169" y2="1210.7" opacity="0.05"/><line x1="760.2" y1="-446.7" x2="-189.8" y2="1198.7" opacity="0.05"/><line x1="739.4" y1="-458.7" x2="-210.6" y2="1186.7" opacity="0.05"/><line x1="718.7" y1="-470.7" x2="-231.3" y2="1174.7" opacity="0.05"/><line x1="697.9" y1="-482.7" x2="-252.1" y2="1162.7" opacity="0.05"/><line x1="677.1" y1="-494.7" x2="-272.9" y2="1150.7" opacity="0.05"/><line x1="656.3" y1="-506.7" x2="-293.7" y2="1138.7" opacity="0.05"/><line x1="635.5" y1="-518.7" x2="-314.5" y2="1126.7" opacity="0.05"/><line x1="614.7" y1="-530.7" x2="-335.3" y2="1114.7" opacity="0.05"/><line x1="593.9" y1="-542.7" x2="-356.1" y2="1102.7" opacity="0.05"/><line x1="573.2" y1="-554.7" x2="-376.8" y2="1090.7" opacity="0.05"/><line x1="552.4" y1="-566.7" x2="-397.6" y2="1078.7" opacity="0.05"/><line x1="531.6" y1="-578.7" x2="-418.4" y2="1066.7" opacity="0.05"/><line x1="510.8" y1="-590.7" x2="-439.2" y2="1054.7" opacity="0.05"/><line x1="490" y1="-602.7" x2="-460" y2="1042.7" opacity="0.05"/><line x1="469.2" y1="-614.7" x2="-480.8" y2="1030.7" opacity="0.05"/><line x1="448.5" y1="-626.7" x2="-501.5" y2="1018.7" opacity="0.05"/><line x1="427.7" y1="-638.7" x2="-522.3" y2="1006.7" opacity="0.05"/><line x1="406.9" y1="-650.7" x2="-543.1" y2="994.7" opacity="0.05"/><line x1="386.1" y1="-662.7" x2="-563.9" y2="982.7" opacity="0.05"/><line x1="365.3" y1="-674.7" x2="-584.7" y2="970.7" opacity="0.05"/><line x1="344.5" y1="-686.7" x2="-605.5" y2="958.7" opacity="0.05"/><line x1="323.7" y1="-698.7" x2="-626.3" y2="946.7" opacity="0.05"/><line x1="1716.3" y1="471.5" x2="260.8" y2="1692.8" opacity="0.05"/><line x1="1700.8" y1="453.2" x2="245.3" y2="1674.5" opacity="0.05"/><line x1="1685.4" y1="434.8" x2="229.9" y2="1656.1" opacity="0.05"/><line x1="1670" y1="416.4" x2="214.5" y2="1637.7" opacity="0.05"/><line x1="1654.6" y1="398" x2="199.1" y2="1619.3" opacity="0.05"/><line x1="1639.1" y1="379.6" x2="183.6" y2="1600.9" opacity="0.05"/><line x1="1623.7" y1="361.2" x2="168.2" y2="1582.5" opacity="0.05"/><line x1="1608.3" y1="342.9" x2="152.8" y2="1564.1" opacity="0.05"/><line x1="1592.8" y1="324.5" x2="137.4" y2="1545.8" opacity="0.05"/><line x1="1577.4" y1="306.1" x2="121.9" y2="1527.4" opacity="0.05"/><line x1="1562" y1="287.7" x2="106.5" y2="1509" opacity="0.05"/><line x1="1546.6" y1="269.3" x2="91.1" y2="1490.6" opacity="0.05"/><line x1="1531.1" y1="250.9" x2="75.7" y2="1472.2" opacity="0.05"/><line x1="1515.7" y1="232.5" x2="60.2" y2="1453.8" opacity="0.05"/><line x1="1500.3" y1="214.2" x2="44.8" y2="1435.5" opacity="0.05"/><line x1="1484.9" y1="195.8" x2="29.4" y2="1417.1" opacity="0.05"/><line x1="1469.4" y1="177.4" x2="13.9" y2="1398.7" opacity="0.05"/><line x1="1454" y1="159" x2="-1.5" y2="1380.3" opacity="0.05"/><line x1="1438.6" y1="140.6" x2="-16.9" y2="1361.9" opacity="0.05"/><line x1="1423.1" y1="122.2" x2="-32.3" y2="1343.5" opacity="0.05"/><line x1="1407.7" y1="103.8" x2="-47.8" y2="1325.1" opacity="0.05"/><line x1="1392.3" y1="85.5" x2="-63.2" y2="1306.8" opacity="0.05"/><line x1="1376.9" y1="67.1" x2="-78.6" y2="1288.4" opacity="0.05"/><line x1="1361.4" y1="48.7" x2="-94" y2="1270" opacity="0.05"/><line x1="1346" y1="30.3" x2="-109.5" y2="1251.6" opacity="0.05"/><line x1="1330.6" y1="11.9" x2="-124.9" y2="1233.2" opacity="0.05"/><line x1="1315.2" y1="-6.5" x2="-140.3" y2="1214.8" opacity="0.05"/><line x1="1299.7" y1="-24.9" x2="-155.8" y2="1196.4" opacity="0.05"/><line x1="1284.3" y1="-43.2" x2="-171.2" y2="1178.1" opacity="0.05"/><line x1="1268.9" y1="-61.6" x2="-186.6" y2="1159.7" opacity="0.05"/><line x1="1253.5" y1="-80" x2="-202" y2="1141.3" opacity="0.05"/><line x1="1238" y1="-98.4" x2="-217.5" y2="1122.9" opacity="0.05"/><line x1="1222.6" y1="-116.8" x2="-232.9" y2="1104.5" opacity="0.05"/><line x1="1207.2" y1="-135.2" x2="-248.3" y2="1086.1" opacity="0.05"/><line x1="1191.7" y1="-153.5" x2="-263.7" y2="1067.7" opacity="0.05"/><line x1="1176.3" y1="-171.9" x2="-279.2" y2="1049.4" opacity="0.05"/><line x1="1160.9" y1="-190.3" x2="-294.6" y2="1031" opacity="0.05"/><line x1="1145.5" y1="-208.7" x2="-310" y2="1012.6" opacity="0.05"/><line x1="1130" y1="-227.1" x2="-325.4" y2="994.2" opacity="0.05"/><line x1="1114.6" y1="-245.5" x2="-340.9" y2="975.8" opacity="0.05"/><line x1="1099.2" y1="-263.9" x2="-356.3" y2="957.4" opacity="0.05"/><line x1="1083.8" y1="-282.2" x2="-371.7" y2="939.1" opacity="0.05"/><line x1="1068.3" y1="-300.6" x2="-387.2" y2="920.7" opacity="0.05"/><line x1="1052.9" y1="-319" x2="-402.6" y2="902.3" opacity="0.05"/><line x1="1037.5" y1="-337.4" x2="-418" y2="883.9" opacity="0.05"/><line x1="1022.1" y1="-355.8" x2="-433.4" y2="865.5" opacity="0.05"/><line x1="1006.6" y1="-374.2" x2="-448.9" y2="847.1" opacity="0.05"/><line x1="991.2" y1="-392.6" x2="-464.3" y2="828.7" opacity="0.05"/><line x1="975.8" y1="-410.9" x2="-479.7" y2="810.4" opacity="0.05"/><line x1="960.3" y1="-429.3" x2="-495.1" y2="792" opacity="0.05"/><line x1="944.9" y1="-447.7" x2="-510.6" y2="773.6" opacity="0.05"/><line x1="929.5" y1="-466.1" x2="-526" y2="755.2" opacity="0.05"/><line x1="914.1" y1="-484.5" x2="-541.4" y2="736.8" opacity="0.05"/><line x1="898.6" y1="-502.9" x2="-556.8" y2="718.4" opacity="0.05"/><line x1="883.2" y1="-521.2" x2="-572.3" y2="700" opacity="0.05"/><line x1="867.8" y1="-539.6" x2="-587.7" y2="681.7" opacity="0.05"/><line x1="852.4" y1="-558" x2="-603.1" y2="663.3" opacity="0.05"/><line x1="836.9" y1="-576.4" x2="-618.6" y2="644.9" opacity="0.05"/><line x1="821.5" y1="-594.8" x2="-634" y2="626.5" opacity="0.05"/><line x1="806.1" y1="-613.2" x2="-649.4" y2="608.1" opacity="0.05"/><line x1="790.6" y1="-631.6" x2="-664.8" y2="589.7" opacity="0.05"/><line x1="775.2" y1="-649.9" x2="-680.3" y2="571.4" opacity="0.05"/><line x1="759.8" y1="-668.3" x2="-695.7" y2="553" opacity="0.05"/><line x1="744.4" y1="-686.7" x2="-711.1" y2="534.6" opacity="0.05"/><line x1="1652.6" y1="889.2" x2="-132.8" y2="1539.1" opacity="0.05"/><line x1="1644.4" y1="866.7" x2="-141" y2="1516.5" opacity="0.05"/><line x1="1636.2" y1="844.1" x2="-149.2" y2="1494" opacity="0.05"/><line x1="1628" y1="821.6" x2="-157.4" y2="1471.4" opacity="0.05"/><line x1="1619.8" y1="799" x2="-165.6" y2="1448.9" opacity="0.05"/><line x1="1611.6" y1="776.5" x2="-173.8" y2="1426.3" opacity="0.05"/><line x1="1603.4" y1="753.9" x2="-182" y2="1403.8" opacity="0.05"/><line x1="1595.2" y1="731.4" x2="-190.2" y2="1381.2" opacity="0.05"/><line x1="1587" y1="708.8" x2="-198.4" y2="1358.7" opacity="0.05"/><line x1="1578.8" y1="686.3" x2="-206.6" y2="1336.1" opacity="0.05"/><line x1="1570.6" y1="663.7" x2="-214.9" y2="1313.6" opacity="0.05"/><line x1="1562.3" y1="641.2" x2="-223.1" y2="1291" opacity="0.05"/><line x1="1554.1" y1="618.6" x2="-231.3" y2="1268.5" opacity="0.05"/><line x1="1545.9" y1="596.1" x2="-239.5" y2="1245.9" opacity="0.05"/><line x1="1537.7" y1="573.5" x2="-247.7" y2="1223.3" opacity="0.05"/><line x1="1529.5" y1="551" x2="-255.9" y2="1200.8" opacity="0.05"/><line x1="1521.3" y1="528.4" x2="-264.1" y2="1178.2" opacity="0.05"/><line x1="1513.1" y1="505.9" x2="-272.3" y2="1155.7" opacity="0.05"/><line x1="1504.9" y1="483.3" x2="-280.5" y2="1133.1" opacity="0.05"/><line x1="1496.7" y1="460.7" x2="-288.7" y2="1110.6" opacity="0.05"/><line x1="1488.5" y1="438.2" x2="-296.9" y2="1088" opacity="0.05"/><line x1="1480.3" y1="415.6" x2="-305.2" y2="1065.5" opacity="0.05"/><line x1="1472.1" y1="393.1" x2="-313.4" y2="1042.9" opacity="0.05"/><line x1="1463.8" y1="370.5" x2="-321.6" y2="1020.4" opacity="0.05"/><line x1="1455.6" y1="348" x2="-329.8" y2="997.8" opacity="0.05"/><line x1="1447.4" y1="325.4" x2="-338" y2="975.3" opacity="0.05"/><line x1="1439.2" y1="302.9" x2="-346.2" y2="952.7" opacity="0.05"/><line x1="1431" y1="280.3" x2="-354.4" y2="930.2" opacity="0.05"/><line x1="1422.8" y1="257.8" x2="-362.6" y2="907.6" opacity="0.05"/><line x1="1414.6" y1="235.2" x2="-370.8" y2="885.1" opacity="0.05"/><line x1="1406.4" y1="212.7" x2="-379" y2="862.5" opacity="0.05"/><line x1="1398.2" y1="190.1" x2="-387.2" y2="840" opacity="0.05"/><line x1="1390" y1="167.6" x2="-395.4" y2="817.4" opacity="0.05"/><line x1="1381.8" y1="145" x2="-403.7" y2="794.8" opacity="0.05"/><line x1="1373.6" y1="122.5" x2="-411.9" y2="772.3" opacity="0.05"/><line x1="1365.3" y1="99.9" x2="-420.1" y2="749.7" opacity="0.05"/><line x1="1357.1" y1="77.4" x2="-428.3" y2="727.2" opacity="0.05"/><line x1="1348.9" y1="54.8" x2="-436.5" y2="704.6" opacity="0.05"/><line x1="1340.7" y1="32.2" x2="-444.7" y2="682.1" opacity="0.05"/><line x1="1332.5" y1="9.7" x2="-452.9" y2="659.5" opacity="0.05"/><line x1="1324.3" y1="-12.9" x2="-461.1" y2="637" opacity="0.05"/><line x1="1316.1" y1="-35.4" x2="-469.3" y2="614.4" opacity="0.05"/><line x1="1307.9" y1="-58" x2="-477.5" y2="591.9" opacity="0.05"/><line x1="1299.7" y1="-80.5" x2="-485.7" y2="569.3" opacity="0.05"/><line x1="1291.5" y1="-103.1" x2="-493.9" y2="546.8" opacity="0.05"/><line x1="1283.3" y1="-125.6" x2="-502.2" y2="524.2" opacity="0.05"/><line x1="1275.1" y1="-148.2" x2="-510.4" y2="501.7" opacity="0.05"/><line x1="1266.8" y1="-170.7" x2="-518.6" y2="479.1" opacity="0.05"/><line x1="1258.6" y1="-193.3" x2="-526.8" y2="456.6" opacity="0.05"/><line x1="1250.4" y1="-215.8" x2="-535" y2="434" opacity="0.05"/><line x1="1242.2" y1="-238.4" x2="-543.2" y2="411.5" opacity="0.05"/><line x1="1234" y1="-260.9" x2="-551.4" y2="388.9" opacity="0.05"/><line x1="1225.8" y1="-283.5" x2="-559.6" y2="366.3" opacity="0.05"/><line x1="1217.6" y1="-306" x2="-567.8" y2="343.8" opacity="0.05"/><line x1="1209.4" y1="-328.6" x2="-576" y2="321.2" opacity="0.05"/><line x1="1201.2" y1="-351.1" x2="-584.2" y2="298.7" opacity="0.05"/><line x1="1193" y1="-373.7" x2="-592.4" y2="276.1" opacity="0.05"/><line x1="1184.8" y1="-396.3" x2="-600.7" y2="253.6" opacity="0.05"/><line x1="1176.6" y1="-418.8" x2="-608.9" y2="231" opacity="0.05"/><line x1="1168.3" y1="-441.4" x2="-617.1" y2="208.5" opacity="0.05"/><line x1="1160.1" y1="-463.9" x2="-625.3" y2="185.9" opacity="0.05"/><line x1="1151.9" y1="-486.5" x2="-633.5" y2="163.4" opacity="0.05"/><line x1="1143.7" y1="-509" x2="-641.7" y2="140.8" opacity="0.05"/><line x1="1135.5" y1="-531.6" x2="-649.9" y2="118.3" opacity="0.05"/></g></svg>