<svg xmlns="http://www.w3.org/2000/svg" viewBox="0 0 1000 1000" preserveAspectRatio="xMidYMid slice" fill="none" stroke-linecap="round" stroke-linejoin="round"><g stroke="#0f3d2e" stroke-width="0.7"><line x1="-450" y1="-260" x2="1450" y2="-260" opacity="0.05"/><line x1="-450" y1="-233" x2="1450" y2="-233" opacity="0.05"/><line x1="-450" y1="-206" x2="1450" y2="-206" opacity="0.05"/><line x1="-450" y1="-179" x2="1450" y2="-179" opacity="0.05"/><line x1="-450" y1="-152" x2="1450" y2="-152" opacity="0.05"/><line x1="-450" y1="-125" x2="1450" y2="-125" opacity="0.05"/><line x1="-450" y1="-98" x2="1450" y2="-98" opacity="0.05"/><line x1="-450" y1="-71" x2="1450" y2="-71" opacity="0.05"/><line x1="-450" y1="-44" x2="1450" y2="-44" opacity="0.05"/><line x1="-450" y1="-17" x2="1450" y2="-17" opacity="0.05"/><line x1="-450" y1="10" x2="1450" y2="10" opacity="0.05"/><line x1="-450" y1="37" x2="1450" y2="37" opacity="0.05"/><line x1="-450" y1="64" x2="1450" y2="64" opacity="0.05"/><line x1="-450" y1="91" x2="1450" y2="91" opacity="0.05"/><line x1="-450" y1="118" x2="1450" y2="118" opacity="0.05"/><line x1="-450" y1="145" x2="1450" y2="145" opacity="0.05"/><line x1="-450" y1="172" x2="1450" y2="172" opacity="0.05"/><line x1="-450" y1="199" x2="1450" y2="199" opacity="0.05"/><line x1="-450" y1="226" x2="1450" y2="226" opacity="0.05"/><line x1="-450" y1="253" x2="1450" y2="253" opacity="0.05"/><line x1="-450" y1="280" x2="1450" y2="280" opacity="0.05"/><line x1="-450" y1="307" x2="1450" y2="307" opacity="0.05"/><line x1="-450" y1="334" x2="1450" y2="334" opacity="0.05"/><line x1="-450" y1="361" x2="1450" y2="361" opacity="0.05"/><line x1="-450" y1="388" x2="1450" y2="388" opacity="0.05"/><line x1="-450" y1="415" x2="1450" y2="415" opacity="0.05"/><line x1="-450" y1="442" x2="1450" y2="442" opacity="0.05"/><line x1="-450" y1="469" x2="1450" y2="469" opacity="0.05"/><line x1="-450" y1="496" x2="1450" y2="496" opacity="0.05"/><line x1="-450" y1="523" x2="1450" y2="523" opacity="0.05"/><line x1="-450" y1="550" x2="1450" y2="550" opacity="0.05"/><line x1="-450" y1="577" x2="1450" y2="577" opacity="0.05"/><line x1="-450" y1="604" x2="1450" y2="604" opacity="0.05"/><line x1="-450" y1="631" x2="1450" y2="631" opacity="0.05"/><line x1="-450" y1="658" x2="1450" y2="658" opacity="0.05"/><line x1="-450" y1="685" x2="1450" y2="685" opacity="0.05"/><line x1="-450" y1="712" x2="1450" y2="712" opacity="0.05"/><line x1="-450" y1="739" x2="1450" y2="739" opacity="0.05"/><line x1="-450" y1="766" x2="1450" y2="766" opacity="0.05"/><line x1="-450" y1="793" x2="1450" y2="793" opacity="0.05"/><line x1="-450" y1="820" x2="1450" y2="820" opacity="0.05"/><line x1="-450" y1="847" x2="1450" y2="847" opacity="0.05"/><line x1="-450" y1="874" x2="1450" y2="874" opacity="0.05"/><line x1="-450" y1="901" x2="1450" y2="901" opacity="0.05"/><line x1="-450" y1="928" x2="1450" y2="928" opacity="0.05"/><line x1="-450" y1="955" x2="1450" y2="955" opacity="0.05"/><line x1="-450" y1="982" x2="1450" y2="982" opacity="0.05"/><line x1="-450" y1="1009" x2="1450" y2="1009" opacity="0.05"/><line x1="-450" y1="1036" x2="1450" y2="1036" opacity="0.05"/><line x1="-450" y1="1063" x2="1450" y2="1063" opacity="0.05"/><line x1="-450" y1="1090" x2="1450" y2="1090" opacity="0.05"/><line x1="-450" y1="1117" x2="1450" y2="1117" opacity="0.05"/><line x1="-450" y1="1144" x2="1450" y2="1144" opacity="0.05"/><line x1="-450" y1="1171" x2="1450" y2="1171" opacity="0.05"/><line x1="-450" y1="1198" x2="1450" y2="1198" opacity="0.05"/><line x1="-450" y1="1225" x2="1450" y2="1225" opacity="0.05"/><line x1="-450" y1="1252" x2="1450" y2="1252" opacity="0.05"/><line x1="-86.8" y1="-565.7" x2="1668.5" y2="161.4" opacity="0.05"/><line x1="-97.2" y1="-540.8" x2="1658.2" y2="186.3" opacity="0.05"/><line x1="-107.5" y1="-515.8" x2="1647.9" y2="211.3" opacity="0.05"/><line x1="-117.8" y1="-490.9" x2="1637.5" y2="236.2" opacity="0.05"/><line x1="-128.2" y1="-465.9" x2="1627.2" y2="261.2" opacity="0.05"/><line x1="-138.5" y1="-441" x2="1616.9" y2="286.1" opacity="0.05"/><line x1="-148.8" y1="-416" x2="1606.5" y2="311.1" opacity="0.05"/><line x1="-159.2" y1="-391.1" x2="1596.2" y2="336" opacity="0.05"/><line x1="-169.5" y1="-366.1" x2="1585.9" y2="361" opacity="0.05"/><line x1="-179.8" y1="-341.2" x2="1575.5" y2="385.9" opacity="0.05"/><line x1="-190.2" y1="-316.3" x2="1565.2" y2="410.8" opacity="0.05"/><line x1="-200.5" y1="-291.3" x2="1554.9" y2="435.8" opacity="0.05"/><line x1="-210.8" y1="-266.4" x2="1544.5" y2="460.7" opacity="0.05"/><line x1="-221.2" y1="-241.4" x2="1534.2" y2="485.7" opacity="0.05"/><line x1="-231.5" y1="-216.5" x2="1523.9" y2="510.6" opacity="0.05"/><line x1="-241.8" y1="-191.5" x2="1513.5" y2="535.6" opacity="0.05"/><line x1="-252.2" y1="-166.6" x2="1503.2" y2="560.5" opacity="0.05"/><line x1="-262.5" y1="-141.6" x2="1492.9" y2="585.5" opacity="0.05"/><line x1="-272.8" y1="-116.7" x2="1482.5" y2="610.4" opacity="0.05"/><line x1="-283.2" y1="-91.7" x2="1472.2" y2="635.4" opacity="0.05"/><line x1="-293.5" y1="-66.8" x2="1461.9" y2="660.3" opacity="0.05"/><line x1="-303.8" y1="-41.9" x2="1451.5" y2="685.2" opacity="0.05"/><line x1="-314.2" y1="-16.9" x2="1441.2" y2="710.2" opacity="0.05"/><line x1="-324.5" y1="8" x2="1430.9" y2="735.1" opacity="0.05"/><line x1="-334.8" y1="33" x2="1420.5" y2="760.1" opacity="0.05"/><line x1="-345.2" y1="57.9" x2="1410.2" y2="785" opacity="0.05"/><line x1="-355.5" y1="82.9" x2="1399.9" y2="810" opacity="0.05"/><line x1="-365.8" y1="107.8" x2="1389.5" y2="834.9" opacity="0.05"/><line x1="-376.2" y1="132.8" x2="1379.2" y2="859.9" opacity="0.05"/><line x1="-386.5" y1="157.7" x2="1368.9" y2="884.8" opacity="0.05"/><line x1="-396.8" y1="182.6" x2="1358.6" y2="909.7" opacity="0.05"/><line x1="-407.2" y1="207.6" x2="1348.2" y2="934.7" opacity="0.05"/><line x1="-417.5" y1="232.5" x2="1337.9" y2="959.6" opacity="0.05"/><line x1="-427.8" y1="257.5" x2="1327.6" y2="984.6" opacity="0.05"/><line x1="-438.1" y1="282.4" x2="1317.2" y2="1009.5" opacity="0.05"/><line x1="-448.5" y1="307.4" x2="1306.9" y2="1034.5" opacity="0.05"/><line x1="-458.8" y1="332.3" x2="1296.6" y2="1059.4" opacity="0.05"/><line x1="-469.1" y1="357.3" x2="1286.2" y2="1084.4" opacity="0.05"/><line x1="-479.5" y1="382.2" x2="1275.9" y2="1109.3" opacity="0.05"/><line x1="-489.8" y1="407.1" x2="1265.6" y2="1134.2" opacity="0.05"/><line x1="-500.1" y1="432.1" x2="1255.2" y2="1159.2" opacity="0.05"/><line x1="-510.5" y1="457" x2="1244.9" y2="1184.1" opacity="0.05"/><line x1="-520.8" y1="482" x2="1234.6" y2="1209.1" opacity="0.05"/><line x1="-531.1" y1="506.9" x2="1224.2" y2="1234" opacity="0.05"/><line x1="-541.5" y1="531.9" x2="1213.9" y2="1259" opacity="0.05"/><line x1="-551.8" y1="556.8" x2="1203.6" y2="1283.9" opacity="0.05"/><line x1="-562.1" y1="581.8" x2="1193.2" y2="1308.9" opacity="0.05"/><line x1="-572.5" y1="606.7" x2="1182.9" y2="1333.8" opacity="0.05"/><line x1="-582.8" y1="631.7" x2="1172.6" y2="1358.7" opacity="0.05"/><line x1="-593.1" y1="656.6" x2="1162.2" y2="1383.7" opacity="0.05"/><line x1="-603.5" y1="681.5" x2="1151.9" y2="1408.6" opacity="0.05"/><line x1="-613.8" y1="706.5" x2="1141.6" y2="1433.6" opacity="0.05"/><line x1="-624.1" y1="731.4" x2="1131.2" y2="1458.5" opacity="0.05"/><line x1="-634.5" y1="756.4" x2="1120.9" y2="1483.5" opacity="0.05"/><line x1="-644.8" y1="781.3" x2="1110.6" y2="1508.4" opacity="0.05"/><line x1="-655.1" y1="806.3" x2="1100.2" y2="1533.4" opacity="0.05"/><line x1="-665.5" y1="831.2" x2="1089.9" y2="1558.3" opacity="0.05"/><line x1="365.6" y1="-709.2" x2="1709.2" y2="634.4" opacity="0.05"/><line x1="346.6" y1="-690.1" x2="1690.1" y2="653.4" opacity="0.05"/><line x1="327.5" y1="-671" x2="1671" y2="672.5" opacity="0.05"/><line x1="308.4" y1="-651.9" x2="1651.9" y2="691.6" opacity="0.05"/><line x1="289.3" y1="-632.8" x2="1632.8" y2="710.7" opacity="0.05"/><line x1="270.2" y1="-613.7" x2="1613.7" y2="729.8" opacity="0.05"/><line x1="251.1" y1="-594.6" x2="1594.6" y2="748.9" opacity="0.05"/><line x1="232" y1="-575.5" x2="1575.5" y2="768" opacity="0.05"/><line x1="212.9" y1="-556.4" x2="1556.4" y2="787.1" opacity="0.05"/><line x1="193.8" y1="-537.3" x2="1537.3" y2="806.2" opacity="0.05"/><line x1="174.7" y1="-518.2" x2="1518.2" y2="825.3" opacity="0.05"/><line x1="155.6" y1="-499.1" x2="1499.1" y2="844.4" opacity="0.05"/><line x1="136.5" y1="-480" x2="1480" y2="863.5" opacity="0.05"/><line x1="117.5" y1="-461" x2="1461" y2="882.5" opacity="0.05"/><line x1="98.4" y1="-441.9" x2="1441.9" y2="901.6" opacity="0.05"/><line x1="79.3" y1="-422.8" x2="1422.8" y2="920.7" opacity="0.05"/><line x1="60.2" y1="-403.7" x2="1403.7" y2="939.8" opacity="0.05"/><line x1="41.1" y1="-384.6" x2="1384.6" y2="958.9" opacity="0.05"/><line x1="22" y1="-365.5" x2="1365.5" y2="978" opacity="0.05"/><line x1="2.9" y1="-346.4" x2="1346.4" y2="997.1" opacity="0.05"/><line x1="-16.2" y1="-327.3" x2="1327.3" y2="1016.2" opacity="0.05"/><line x1="-35.3" y1="-308.2" x2="1308.2" y2="1035.3" opacity="0.05"/><line x1="-54.4" y1="-289.1" x2="1289.1" y2="1054.4" opacity="0.05"/><line x1="-73.5" y1="-270" x2="1270" y2="1073.5" opacity="0.05"/><line x1="-92.6" y1="-250.9" x2="1250.9" y2="1092.6" opacity="0.05"/><line x1="-111.6" y1="-231.9" x2="1231.9" y2="1111.6" opacity="0.05"/><line x1="-130.7" y1="-212.8" x2="1212.8" y2="1130.7" opacity="0.05"/><line x1="-149.8" y1="-193.7" x2="1193.7" y2="1149.8" opacity="0.05"/><line x1="-168.9" y1="-174.6" x2="1174.6" y2="1168.9" opacity="0.05"/><line x1="-188" y1="-155.5" x2="1155.5" y2="1188" opacity="0.05"/><line x1="-207.1" y1="-136.4" x2="1136.4" y2="1207.1" opacity="0.05"/><line x1="-226.2" y1="-117.3" x2="1117.3" y2="1226.2" opacity="0.05"/><line x1="-245.3" y1="-98.2" x2="1098.2" y2="1245.3" opacity="0.05"/><line x1="-264.4" y1="-79.1" x2="1079.1" y2="1264.4" opacity="0.05"/><line x1="-283.5" y1="-60" x2="1060" y2="1283.5" opacity="0.05"/><line x1="-302.6" y1="-40.9" x2="1040.9" y2="1302.6" opacity="0.05"/><line x1="-321.7" y1="-21.8" x2="1021.8" y2="1321.7" opacity="0.05"/><line x1="-340.7" y1="-2.8" x2="1002.8" y2="1340.7" opacity="0.05"/><line x1="-359.8" y1="16.3" x2="983.7" y2="1359.8" opacity="0.05"/><line x1="-378.9" y1="35.4" x2="964.6" y2="1378.9" opacity="0.05"/><line x1="-398" y1="54.5" x2="945.5" y2="1398" opacity="0.05"/><line x1="-417.1" y1="73.6" x2="926.4" y2="1417.1" opacity="0.05"/><line x1="-436.2" y1="92.7" x2="907.3" y2="1436.2" opacity="0.05"/><line x1="-455.3" y1="111.8" x2="888.2" y2="1455.3" opacity="0.05"/><line x1="-474.4" y1="130.9" x2="869.1" y2="1474.4" opacity="0.05"/><line x1="-493.5" y1="150" x2="850" y2="1493.5" opacity="0.05"/><line x1="-512.6" y1="169.1" x2="830.9" y2="1512.6" opacity="0.05"/><line x1="-531.7" y1="188.2" x2="811.8" y2="1531.7" opacity="0.05"/><line x1="-550.8" y1="207.3" x2="792.7" y2="1550.8" opacity="0.05"/><line x1="-569.9" y1="226.3" x2="773.7" y2="1569.9" opacity="0.05"/><line x1="-588.9" y1="245.4" x2="754.6" y2="1588.9" opacity="0.05"/><line x1="-608" y1="264.5" x2="735.5" y2="1608" opacity="0.05"/><line x1="-627.1" y1="283.6" x2="716.4" y2="1627.1" opacity="0.05"/><line x1="-646.2" y1="302.7" x2="697.3" y2="1646.2" opacity="0.05"/><line x1="-665.3" y1="321.8" x2="678.2" y2="1665.3" opacity="0.05"/><line x1="-684.4" y1="340.9" x2="659.1" y2="1684.4" opacity="0.05"/><line x1="-703.5" y1="360" x2="640" y2="1703.5" opacity="0.05"/><line x1="838.6" y1="-668.5" x2="1565.7" y2="1086.8" opacity="0.05"/><line x1="813.7" y1="-658.2" x2="1540.8" y2="1097.2" opacity="0.05"/><line x1="788.7" y1="-647.9" x2="1515.8" y2="1107.5" opacity="0.05"/><line x1="763.8" y1="-637.5" x2="1490.9" y2="1117.8" opacity="0.05"/><line x1="738.8" y1="-627.2" x2="1465.9" y2="1128.2" opacity="0.05"/><line x1="713.9" y1="-616.9" x2="1441" y2="1138.5" opacity="0.05"/><line x1="688.9" y1="-606.5" x2="1416" y2="1148.8" opacity="0.05"/><line x1="664" y1="-596.2" x2="1391.1" y2="1159.2" opacity="0.05"/><line x1="639" y1="-585.9" x2="1366.1" y2="1169.5" opacity="0.05"/><line x1="614.1" y1="-575.5" x2="1341.2" y2="1179.8" opacity="0.05"/><line x1="589.2" y1="-565.2" x2="1316.3" y2="1190.2" opacity="0.05"/><line x1="564.2" y1="-554.9" x2="1291.3" y2="1200.5" opacity="0.05"/><line x1="539.3" y1="-544.5" x2="1266.4" y2="1210.8" opacity="0.05"/><line x1="514.3" y1="-534.2" x2="1241.4" y2="1221.2" opacity="0.05"/><line x1="489.4" y1="-523.9" x2="1216.5" y2="1231.5" opacity="0.05"/><line x1="464.4" y1="-513.5" x2="1191.5" y2="1241.8" opacity="0.05"/><line x1="439.5" y1="-503.2" x2="1166.6" y2="1252.2" opacity="0.05"/><line x1="414.5" y1="-492.9" x2="1141.6" y2="1262.5" opacity="0.05"/><line x1="389.6" y1="-482.5" x2="1116.7" y2="1272.8" opacity="0.05"/><line x1="364.6" y1="-472.2" x2="1091.7" y2="1283.2" opacity="0.05"/><line x1="339.7" y1="-461.9" x2="1066.8" y2="1293.5" opacity="0.05"/><line x1="314.8" y1="-451.5" x2="1041.9" y2="1303.8" opacity="0.05"/><line x1="289.8" y1="-441.2" x2="1016.9" y2="1314.2" opacity="0.05"/><line x1="264.9" y1="-430.9" x2="992" y2="1324.5" opacity="0.05"/><line x1="239.9" y1="-420.5" x2="967" y2="1334.8" opacity="0.05"/><line x1="215" y1="-410.2" x2="942.1" y2="1345.2" opacity="0.05"/><line x1="190" y1="-399.9" x2="917.1" y2="1355.5" opacity="0.05"/><line x1="165.1" y1="-389.5" x2="892.2" y2="1365.8" opacity="0.05"/><line x1="140.1" y1="-379.2" x2="867.2" y2="1376.2" opacity="0.05"/><line x1="115.2" y1="-368.9" x2="842.3" y2="1386.5" opacity="0.05"/><line x1="90.3" y1="-358.6" x2="817.4" y2="1396.8" opacity="0.05"/><line x1="65.3" y1="-348.2" x2="792.4" y2="1407.2" opacity="0.05"/><line x1="40.4" y1="-337.9" x2="767.5" y2="1417.5" opacity="0.05"/><line x1="15.4" y1="-327.6" x2="742.5" y2="1427.8" opacity="0.05"/><line x1="-9.5" y1="-317.2" x2="717.6" y2="1438.1" opacity="0.05"/><line x1="-34.5" y1="-306.9" x2="692.6" y2="1448.5" opacity="0.05"/><line x1="-59.4" y1="-296.6" x2="667.7" y2="1458.8" opacity="0.05"/><line x1="-84.4" y1="-286.2" x2="642.7" y2="1469.1" opacity="0.05"/><line x1="-109.3" y1="-275.9" x2="617.8" y2="1479.5" opacity="0.05"/><line x1="-134.2" y1="-265.6" x2="592.9" y2="1489.8" opacity="0.05"/><line x1="-159.2" y1="-255.2" x2="567.9" y2="1500.1" opacity="0.05"/><line x1="-184.1" y1="-244.9" x2="543" y2="1510.5" opacity="0.05"/><line x1="-209.1" y1="-234.6" x2="518" y2="1520.8" opacity="0.05"/><line x1="-234" y1="-224.2" x2="493.1" y2="1531.1" opacity="0.05"/><line x1="-259" y1="-213.9" x2="468.1" y2="1541.5" opacity="0.05"/><line x1="-283.9" y1="-203.6" x2="443.2" y2="1551.8" opacity="0.05"/><line x1="-308.9" y1="-193.2" x2="418.2" y2="1562.1" opacity="0.05"/><line x1="-333.8" y1="-182.9" x2="393.3" y2="1572.5" opacity="0.05"/><line x1="-358.7" y1="-172.6" x2="368.3" y2="1582.8" opacity="0.05"/><line x1="-383.7" y1="-162.2" x2="343.4" y2="1593.1" opacity="0.05"/><line x1="-408.6" y1="-151.9" x2="318.5" y2="1603.5" opacity="0.05"/><line x1="-433.6" y1="-141.6" x2="293.5" y2="1613.8" opacity="0.05"/><line x1="-458.5" y1="-131.2" x2="268.6" y2="1624.1" opacity="0.05"/><line x1="-483.5" y1="-120.9" x2="243.6" y2="1634.5" opacity="0.05"/><line x1="-508.4" y1="-110.6" x2="218.7" y2="1644.8" opacity="0.05"/><line x1="-533.4" y1="-100.2" x2="193.7" y2="1655.1" opacity="0.05"/><line x1="-558.3" y1="-89.9" x2="168.8" y2="1665.5" opacity="0.05"/><line x1="1260" y1="-450" x2="1260" y2="1450" opacity="0.05"/><line x1="1233" y1="-450" x2="1233" y2="1450" opacity="0.05"/><line x1="1206" y1="-450" x2="1206" y2="1450" opacity="0.05"/><line x1="1179" y1="-450" x2="1179" y2="1450" opacity="0.05"/><line x1="1152" y1="-450" x2="1152" y2="1450" opacity="0.05"/><line x1="1125" y1="-450" x2="1125" y2="1450" opacity="0.05"/><line x1="1098" y1="-450" x2="1098" y2="1450" opacity="0.05"/><line x1="1071" y1="-450" x2="1071" y2="1450" opacity="0.05"/><line x1="1044" y1="-450" x2="1044" y2="1450" opacity="0.05"/><line x1="1017" y1="-450" x2="1017" y2="1450" opacity="0.05"/><line x1="990" y1="-450" x2="990" y2="1450" opacity="0.05"/><line x1="963" y1="-450" x2="963" y2="1450" opacity="0.05"/><line x1="936" y1="-450" x2="936" y2="1450" opacity="0.05"/><line x1="909" y1="-450" x2="909" y2="1450" opacity="0.05"/><line x1="882" y1="-450" x2="882" y2="1450" opacity="0.05"/><line x1="855" y1="-450" x2="855" y2="1450" opacity="0.05"/><line x1="828" y1="-450" x2="828" y2="1450" opacity="0.05"/><line x1="801" y1="-450" x2="801" y2="1450" opacity="0.05"/><line x1="774" y1="-450" x2="774" y2="1450" opacity="0.05"/><line x1="747" y1="-450" x2="747" y2="1450" opacity="0.05"/><line x1="720" y1="-450" x2="720" y2="1450" opacity="0.05"/><line x1="693" y1="-450" x2="693" y2="1450" opacity="0.05"/><line x1="666" y1="-450" x2="666" y2="1450" opacity="0.05"/><line x1="639" y1="-450" x2="639" y2="1450" opacity="0.05"/><line x1="612" y1="-450" x2="612" y2="1450" opacity="0.05"/><line x1="585" y1="-450" x2="585" y2="1450" opacity="0.05"/><line x1="558" y1="-450" x2="558" y2="1450" opacity="0.05"/><line x1="531" y1="-450" x2="531" y2="1450" opacity="0.05"/><line x1="504" y1="-450" x2="504" y2="1450" opacity="0.05"/><line x1="477" y1="-450" x2="477" y2="1450" opacity="0.05"/><line x1="450" y1="-450" x2="450" y2="1450" opacity="0.05"/><line x1="423" y1="-450" x2="423" y2="1450" opacity="0.05"/><line x1="396" y1="-450" x2="396" y2="1450" opacity="0.05"/><line x1="369" y1="-450" x2="369" y2="1450" opacity="0.05"/><line x1="342" y1="-450" x2="342" y2="1450" opacity="0.05"/><line x1="315" y1="-450" x2="315" y2="1450" opacity="0.05"/><line x1="288" y1="-450" x2="288" y2="1450" opacity="0.05"/><line x1="261" y1="-450" x2="261" y2="1450" opacity="0.05"/><line x1="234" y1="-450" x2="234" y2="1450" opacity="0.05"/><line x1="207" y1="-450" x2="207" y2="1450" opacity="0.05"/><line x1="180" y1="-450" x2="180" y2="1450" opacity="0.05"/><line x1="153" y1="-450" x2="153" y2="1450" opacity="0.05"/><line x1="126" y1="-450" x2="126" y2="1450" opacity="0.05"/><line x1="99" y1="-450" x2="99" y2="1450" opacity="0.05"/><line x1="72" y1="-450" x2="72" y2="1450" opacity="0.05"/><line x1="45" y1="-450" x2="45" y2="1450" opacity="0.05"/><line x1="18" y1="-450" x2="18" y2="1450" opacity="0.05"/><line x1="-9" y1="-450" x2="-9" y2="1450" opacity="0.05"/><line x1="-36" y1="-450" x2="-36" y2="1450" opacity="0.05"/><line x1="-63" y1="-450" x2="-63" y2="1450" opacity="0.05"/><line x1="-90" y1="-450" x2="-90" y2="1450" opacity="0.05"/><line x1="-117" y1="-450" x2="-117" y2="1450" opacity="0.05"/><line x1="-144" y1="-450" x2="-144" y2="1450" opacity="0.05"/><line x1="-171" y1="-450" x2="-171" y2="1450" opacity="0.05"/><line x1="-198" y1="-450" x2="-198" y2="1450" opacity="0.05"/><line x1="-225" y1="-450" x2="-225" y2="1450" opacity="0.05"/><line x1="-252" y1="-450" x2="-252" y2="1450" opacity="0.05"/><line x1="1565.7" y1="-86.8" x2="838.6" y2="1668.5" opacity="0.05"/><line x1="1540.8" y1="-97.2" x2="813.7" y2="1658.2" opacity="0.05"/><line x1="1515.8" y1="-107.5" x2="788.7" y2="1647.9" opacity="0.05"/><line x1="1490.9" y1="-117.8" x2="763.8" y2="1637.5" opacity="0.05"/><line x1="1465.9" y1="-128.2" x2="738.8" y2="1627.2" opacity="0.05"/><line x1="1441" y1="-138.5" x2="713.9" y2="1616.9" opacity="0.05"/><line x1="1416" y1="-148.8" x2="688.9" y2="1606.5" opacity="0.05"/><line x1="1391.1" y1="-159.2" x2="664" y2="1596.2" opacity="0.05"/><line x1="1366.1" y1="-169.5" x2="639" y2="1585.9" opacity="0.05"/><line x1="1341.2" y1="-179.8" x2="614.1" y2="1575.5" opacity="0.05"/><line x1="1316.3" y1="-190.2" x2="589.2" y2="1565.2" opacity="0.05"/><line x1="1291.3" y1="-200.5" x2="564.2" y2="1554.9" opacity="0.05"/><line x1="1266.4" y1="-210.8" x2="539.3" y2="1544.5" opacity="0.05"/><line x1="1241.4" y1="-221.2" x2="514.3" y2="1534.2" opacity="0.05"/><line x1="1216.5" y1="-231.5" x2="489.4" y2="1523.9" opacity="0.05"/><line x1="1191.5" y1="-241.8" x2="464.4" y2="1513.5" opacity="0.05"/><line x1="1166.6" y1="-252.2" x2="439.5" y2="1503.2" opacity="0.05"/><line x1="1141.6" y1="-262.5" x2="414.5" y2="1492.9" opacity="0.05"/><line x1="1116.7" y1="-272.8" x2="389.6" y2="1482.5" opacity="0.05"/><line x1="1091.7" y1="-283.2" x2="364.6" y2="1472.2" opacity="0.05"/><line x1="1066.8" y1="-293.5" x2="339.7" y2="1461.9" opacity="0.05"/><line x1="1041.9" y1="-303.8" x2="314.8" y2="1451.5" opacity="0.05"/><line x1="1016.9" y1="-314.2" x2="289.8" y2="1441.2" opacity="0.05"/><line x1="992" y1="-324.5" x2="264.9" y2="1430.9" opacity="0.05"/><line x1="967" y1="-334.8" x2="239.9" y2="1420.5" opacity="0.05"/><line x1="942.1" y1="-345.2" x2="215" y2="1410.2" opacity="0.05"/><line x1="917.1" y1="-355.5" x2="190" y2="1399.9" opacity="0.05"/><line x1="892.2" y1="-365.8" x2="165.1" y2="1389.5" opacity="0.05"/><line x1="867.2" y1="-376.2" x2="140.1" y2="1379.2" opacity="0.05"/><line x1="842.3" y1="-386.5" x2="115.2" y2="1368.9" opacity="0.05"/><line x1="817.4" y1="-396.8" x2="90.3" y2="1358.6" opacity="0.05"/><line x1="792.4" y1="-407.2" x2="65.3" y2="1348.2" opacity="0.05"/><line x1="767.5" y1="-417.5" x2="40.4" y2="1337.9" opacity="0.05"/><line x1="742.5" y1="-427.8" x2="15.4" y2="1327.6" opacity="0.05"/><line x1="717.6" y1="-438.1" x2="-9.5" y2="1317.2" opacity="0.05"/><line x1="692.6" y1="-448.5" x2="-34.5" y2="1306.9" opacity="0.05"/><line x1="667.7" y1="-458.8" x2="-59.4" y2="1296.6" opacity="0.05"/><line x1="642.7" y1="-469.1" x2="-84.4" y2="1286.2" opacity="0.05"/><line x1="617.8" y1="-479.5" x2="-109.3" y2="1275.9" opacity="0.05"/><line x1="592.9" y1="-489.8" x2="-134.2" y2="1265.6" opacity="0.05"/><line x1="567.9" y1="-500.1" x2="-159.2" y2="1255.2" opacity="0.05"/><line x1="543" y1="-510.5" x2="-184.1" y2="1244.9" opacity="0.05"/><line x1="518" y1="-520.8" x2="-209.1" y2="1234.6" opacity="0.05"/><line x1="493.1" y1="-531.1" x2="-234" y2="1224.2" opacity="0.05"/><line x1="468.1" y1="-541.5" x2="-259" y2="1213.9" opacity="0.05"/><line x1="443.2" y1="-551.8" x2="-283.9" y2="1203.6" opacity="0.05"/><line x1="418.2" y1="-562.1" x2="-308.9" y2="1193.2" opacity="0.05"/><line x1="393.3" y1="-572.5" x2="-333.8" y2="1182.9" opacity="0.05"/><line x1="368.3" y1="-582.8" x2="-358.7" y2="1172.6" opacity="0.05"/><line x1="343.4" y1="-593.1" x2="-383.7" y2="1162.2" opacity="0.05"/><line x1="318.5" y1="-603.5" x2="-408.6" y2="1151.9" opacity="0.05"/><line x1="293.5" y1="-613.8" x2="-433.6" y2="1141.6" opacity="0.05"/><line x1="268.6" y1="-624.1" x2="-458.5" y2="1131.2" opacity="0.05"/><line x1="243.6" y1="-634.5" x2="-483.5" y2="1120.9" opacity="0.05"/><line x1="218.7" y1="-644.8" x2="-508.4" y2="1110.6" opacity="0.05"/><line x1="193.7" y1="-655.1" x2="-533.4" y2="1100.2" opacity="0.05"/><line x1="168.8" y1="-665.5" x2="-558.3" y2="1089.9" opacity="0.05"/><line x1="1709.2" y1="365.6" x2="365.6" y2="1709.2" opacity="0.05"/><line x1="1690.1" y1="346.6" x2="346.6" y2="1690.1" opacity="0.05"/><line x1="1671" y1="327.5" x2="327.5" y2="1671" opacity="0.05"/><line x1="1651.9" y1="308.4" x2="308.4" y2="1651.9" opacity="0.05"/><line x1="1632.8" y1="289.3" x2="289.3" y2="1632.8" opacity="0.05"/><line x1="1613.7" y1="270.2" x2="270.2" y2="1613.7" opacity="0.05"/><line x1="1594.6" y1="251.1" x2="251.1" y2="1594.6" opacity="0.05"/><line x1="1575.5" y1="232" x2="232" y2="1575.5" opacity="0.05"/><line x1="1556.4" y1="212.9" x2="212.9" y2="1556.4" opacity="0.05"/><line x1="1537.3" y1="193.8" x2="193.8" y2="1537.3" opacity="0.05"/><line x1="1518.2" y1="174.7" x2="174.7" y2="1518.2" opacity="0.05"/><line x1="1499.1" y1="155.6" x2="155.6" y2="1499.1" opacity="0.05"/><line x1="1480" y1="136.5" x2="136.5" y2="1480" opacity="0.05"/><line x1="1461" y1="117.5" x2="117.5" y2="1461" opacity="0.05"/><line x1="1441.9" y1="98.4" x2="98.4" y2="1441.9" opacity="0.05"/><line x1="1422.8" y1="79.3" x2="79.3" y2="1422.8" opacity="0.05"/><line x1="1403.7" y1="60.2" x2="60.2" y2="1403.7" opacity="0.05"/><line x1="1384.6" y1="41.1" x2="41.1" y2="1384.6" opacity="0.05"/><line x1="1365.5" y1="22" x2="22" y2="1365.5" opacity="0.05"/><line x1="1346.4" y1="2.9" x2="2.9" y2="1346.4" opacity="0.05"/><line x1="1327.3" y1="-16.2" x2="-16.2" y2="1327.3" opacity="0.05"/><line x1="1308.2" y1="-35.3" x2="-35.3" y2="1308.2" opacity="0.05"/><line x1="1289.1" y1="-54.4" x2="-54.4" y2="1289.1" opacity="0.05"/><line x1="1270" y1="-73.5" x2="-73.5" y2="1270" opacity="0.05"/><line x1="1250.9" y1="-92.6" x2="-92.6" y2="1250.9" opacity="0.05"/><line x1="1231.9" y1="-111.6" x2="-111.6" y2="1231.9" opacity="0.05"/><line x1="1212.8" y1="-130.7" x2="-130.7" y2="1212.8" opacity="0.05"/><line x1="1193.7" y1="-149.8" x2="-149.8" y2="1193.7" opacity="0.05"/><line x1="1174.6" y1="-168.9" x2="-168.9" y2="1174.6" opacity="0.05"/><line x1="1155.5" y1="-188" x2="-188" y2="1155.5" opacity="0.05"/><line x1="1136.4" y1="-207.1" x2="-207.1" y2="1136.4" opacity="0.05"/><line x1="1117.3" y1="-226.2" x2="-226.2" y2="1117.3" opacity="0.05"/><line x1="1098.2" y1="-245.3" x2="-245.3" y2="1098.2" opacity="0.05"/><line x1="1079.1" y1="-264.4" x2="-264.4" y2="1079.1" opacity="0.05"/><line x1="1060" y1="-283.5" x2="-283.5" y2="1060" opacity="0.05"/><line x1="1040.9" y1="-302.6" x2="-302.6" y2="1040.9" opacity="0.05"/><line x1="1021.8" y1="-321.7" x2="-321.7" y2="1021.8" opacity="0.05"/><line x1="1002.8" y1="-340.7" x2="-340.7" y2="1002.8" opacity="0.05"/><line x1="983.7" y1="-359.8" x2="-359.8" y2="983.7" opacity="0.05"/><line x1="964.6" y1="-378.9" x2="-378.9" y2="964.6" opacity="0.05"/><line x1="945.5" y1="-398" x2="-398" y2="945.5" opacity="0.05"/><line x1="926.4" y1="-417.1" x2="-417.1" y2="926.4" opacity="0.05"/><line x1="907.3" y1="-436.2" x2="-436.2" y2="907.3" opacity="0.05"/><line x1="888.2" y1="-455.3" x2="-455.3" y2="888.2" opacity="0.05"/><line x1="869.1" y1="-474.4" x2="-474.4" y2="869.1" opacity="0.05"/><line x1="850" y1="-493.5" x2="-493.5" y2="850" opacity="0.05"/><line x1="830.9" y1="-512.6" x2="-512.6" y2="830.9" opacity="0.05"/><line x1="811.8" y1="-531.7" x2="-531.7" y2="811.8" opacity="0.05"/><line x1="792.7" y1="-550.8" x2="-550.8" y2="792.7" opacity="0.05"/><line x1="773.7" y1="-569.9" x2="-569.9" y2="773.7" opacity="0.05"/><line x1="754.6" y1="-588.9" x2="-588.9" y2="754.6" opacity="0.05"/><line x1="735.5" y1="-608" x2="-608" y2="735.5" opacity="0.05"/><line x1="716.4" y1="-627.1" x2="-627.1" y2="716.4" opacity="0.05"/><line x1="697.3" y1="-646.2" x2="-646.2" y2="697.3" opacity="0.05"/><line x1="678.2" y1="-665.3" x2="-665.3" y2="678.2" opacity="0.05"/><line x1="659.1" y1="-684.4" x2="-684.4" y2="659.1" opacity="0.05"/><line x1="640" y1="-703.5" x2="-703.5" y2="640" opacity="0.05"/><line x1="1668.5" y1="838.6" x2="-86.8" y2="1565.7" opacity="0.05"/><line x1="1658.2" y1="813.7" x2="-97.2" y2="1540.8" opacity="0.05"/><line x1="1647.9" y1="788.7" x2="-107.5" y2="1515.8" opacity="0.05"/><line x1="1637.5" y1="763.8" x2="-117.8" y2="1490.9" opacity="0.05"/><line x1="1627.2" y1="738.8" x2="-128.2" y2="1465.9" opacity="0.05"/><line x1="1616.9" y1="713.9" x2="-138.5" y2="1441" opacity="0.05"/><line x1="1606.5" y1="688.9" x2="-148.8" y2="1416" opacity="0.05"/><line x1="1596.2" y1="664" x2="-159.2" y2="1391.1" opacity="0.05"/><line x1="1585.9" y1="639" x2="-169.5" y2="1366.1" opacity="0.05"/><line x1="1575.5" y1="614.1" x2="-179.8" y2="1341.2" opacity="0.05"/><line x1="1565.2" y1="589.2" x2="-190.2" y2="1316.3" opacity="0.05"/><line x1="1554.9" y1="564.2" x2="-200.5" y2="1291.3" opacity="0.05"/><line x1="1544.5" y1="539.3" x2="-210.8" y2="1266.4" opacity="0.05"/><line x1="1534.2" y1="514.3" x2="-221.2" y2="1241.4" opacity="0.05"/><line x1="1523.9" y1="489.4" x2="-231.5" y2="1216.5" opacity="0.05"/><line x1="1513.5" y1="464.4" x2="-241.8" y2="1191.5" opacity="0.05"/><line x1="1503.2" y1="439.5" x2="-252.2" y2="1166.6" opacity="0.05"/><line x1="1492.9" y1="414.5" x2="-262.5" y2="1141.6" opacity="0.05"/><line x1="1482.5" y1="389.6" x2="-272.8" y2="1116.7" opacity="0.05"/><line x1="1472.2" y1="364.6" x2="-283.2" y2="1091.7" opacity="0.05"/><line x1="1461.9" y1="339.7" x2="-293.5" y2="1066.8" opacity="0.05"/><line x1="1451.5" y1="314.8" x2="-303.8" y2="1041.9" opacity="0.05"/><line x1="1441.2" y1="289.8" x2="-314.2" y2="1016.9" opacity="0.05"/><line x1="1430.9" y1="264.9" x2="-324.5" y2="992" opacity="0.05"/><line x1="1420.5" y1="239.9" x2="-334.8" y2="967" opacity="0.05"/><line x1="1410.2" y1="215" x2="-345.2" y2="942.1" opacity="0.05"/><line x1="1399.9" y1="190" x2="-355.5" y2="917.1" opacity="0.05"/><line x1="1389.5" y1="165.1" x2="-365.8" y2="892.2" opacity="0.05"/><line x1="1379.2" y1="140.1" x2="-376.2" y2="867.2" opacity="0.05"/><line x1="1368.9" y1="115.2" x2="-386.5" y2="842.3" opacity="0.05"/><line x1="1358.6" y1="90.3" x2="-396.8" y2="817.4" opacity="0.05"/><line x1="1348.2" y1="65.3" x2="-407.2" y2="792.4" opacity="0.05"/><line x1="1337.9" y1="40.4" x2="-417.5" y2="767.5" opacity="0.05"/><line x1="1327.6" y1="15.4" x2="-427.8" y2="742.5" opacity="0.05"/><line x1="1317.2" y1="-9.5" x2="-438.1" y2="717.6" opacity="0.05"/><line x1="1306.9" y1="-34.5" x2="-448.5" y2="692.6" opacity="0.05"/><line x1="1296.6" y1="-59.4" x2="-458.8" y2="667.7" opacity="0.05"/><line x1="1286.2" y1="-84.4" x2="-469.1" y2="642.7" opacity="0.05"/><line x1="1275.9" y1="-109.3" x2="-479.5" y2="617.8" opacity="0.05"/><line x1="1265.6" y1="-134.2" x2="-489.8" y2="592.9" opacity="0.05"/><line x1="1255.2" y1="-159.2" x2="-500.1" y2="567.9" opacity="0.05"/><line x1="1244.9" y1="-184.1" x2="-510.5" y2="543" opacity="0.05"/><line x1="1234.6" y1="-209.1" x2="-520.8" y2="518" opacity="0.05"/><line x1="1224.2" y1="-234" x2="-531.1" y2="493.1" opacity="0.05"/><line x1="1213.9" y1="-259" x2="-541.5" y2="468.1" opacity="0.05"/><line x1="1203.6" y1="-283.9" x2="-551.8" y2="443.2" opacity="0.05"/><line x1="1193.2" y1="-308.9" x2="-562.1" y2="418.2" opacity="0.05"/><line x1="1182.9" y1="-333.8" x2="-572.5" y2="393.3" opacity="0.05"/><line x1="1172.6" y1="-358.7" x2="-582.8" y2="368.3" opacity="0.05"/><line x1="1162.2" y1="-383.7" x2="-593.1" y2="343.4" opacity="0.05"/><line x1="1151.9" y1="-408.6" x2="-603.5" y2="318.5" opacity="0.05"/><line x1="1141.6" y1="-433.6" x2="-613.8" y2="293.5" opacity="0.05"/><line x1="1131.2" y1="-458.5" x2="-624.1" y2="268.6" opacity="0.05"/><line x1="1120.9" y1="-483.5" x2="-634.5" y2="243.6" opacity="0.05"/><line x1="1110.6" y1="-508.4" x2="-644.8" y2="218.7" opacity="0.05"/><line x1="1100.2" y1="-533.4" x2="-655.1" y2="193.7" opacity="0.05"/><line x1="1089.9" y1="-558.3" x2="-665.5" y2="168.8" opacity="0.05"/></g></svg>