<svg xmlns="http://www.w3.org/2000/svg" viewBox="0 0 1000 1000" preserveAspectRatio="xMidYMid slice" fill="none" stroke-linecap="round" stroke-linejoin="round"><g stroke="#0f3d2e" stroke-width="0.7"><line x1="-450" y1="-260" x2="1450" y2="-260" opacity="0.05"/><line x1="-450" y1="-237" x2="1450" y2="-237" opacity="0.05"/><line x1="-450" y1="-214" x2="1450" y2="-214" opacity="0.05"/><line x1="-450" y1="-191" x2="1450" y2="-191" opacity="0.05"/><line x1="-450" y1="-168" x2="1450" y2="-168" opacity="0.05"/><line x1="-450" y1="-145" x2="1450" y2="-145" opacity="0.05"/><line x1="-450" y1="-122" x2="1450" y2="-122" opacity="0.05"/><line x1="-450" y1="-99" x2="1450" y2="-99" opacity="0.05"/><line x1="-450" y1="-76" x2="1450" y2="-76" opacity="0.05"/><line x1="-450" y1="-53" x2="1450" y2="-53" opacity="0.05"/><line x1="-450" y1="-30" x2="1450" y2="-30" opacity="0.05"/><line x1="-450" y1="-7" x2="1450" y2="-7" opacity="0.05"/><line x1="-450" y1="16" x2="1450" y2="16" opacity="0.05"/><line x1="-450" y1="39" x2="1450" y2="39" opacity="0.05"/><line x1="-450" y1="62" x2="1450" y2="62" opacity="0.05"/><line x1="-450" y1="85" x2="1450" y2="85" opacity="0.05"/><line x1="-450" y1="108" x2="1450" y2="108" opacity="0.05"/><line x1="-450" y1="131" x2="1450" y2="131" opacity="0.05"/><line x1="-450" y1="154" x2="1450" y2="154" opacity="0.05"/><line x1="-450" y1="177" x2="1450" y2="177" opacity="0.05"/><line x1="-450" y1="200" x2="1450" y2="200" opacity="0.05"/><line x1="-450" y1="223" x2="1450" y2="223" opacity="0.05"/><line x1="-450" y1="246" x2="1450" y2="246" opacity="0.05"/><line x1="-450" y1="269" x2="1450" y2="269" opacity="0.05"/><line x1="-450" y1="292" x2="1450" y2="292" opacity="0.05"/><line x1="-450" y1="315" x2="1450" y2="315" opacity="0.05"/><line x1="-450" y1="338" x2="1450" y2="338" opacity="0.05"/><line x1="-450" y1="361" x2="1450" y2="361" opacity="0.05"/><line x1="-450" y1="384" x2="1450" y2="384" opacity="0.05"/><line x1="-450" y1="407" x2="1450" y2="407" opacity="0.05"/><line x1="-450" y1="430" x2="1450" y2="430" opacity="0.05"/><line x1="-450" y1="453" x2="1450" y2="453" opacity="0.05"/><line x1="-450" y1="476" x2="1450" y2="476" opacity="0.05"/><line x1="-450" y1="499" x2="1450" y2="499" opacity="0.05"/><line x1="-450" y1="522" x2="1450" y2="522" opacity="0.05"/><line x1="-450" y1="545" x2="1450" y2="545" opacity="0.05"/><line x1="-450" y1="568" x2="1450" y2="568" opacity="0.05"/><line x1="-450" y1="591" x2="1450" y2="591" opacity="0.05"/><line x1="-450" y1="614" x2="1450" y2="614" opacity="0.05"/><line x1="-450" y1="637" x2="1450" y2="637" opacity="0.05"/><line x1="-450" y1="660" x2="1450" y2="660" opacity="0.05"/><line x1="-450" y1="683" x2="1450" y2="683" opacity="0.05"/><line x1="-450" y1="706" x2="1450" y2="706" opacity="0.05"/><line x1="-450" y1="729" x2="1450" y2="729" opacity="0.05"/><line x1="-450" y1="752" x2="1450" y2="752" opacity="0.05"/><line x1="-450" y1="775" x2="1450" y2="775" opacity="0.05"/><line x1="-450" y1="798" x2="1450" y2="798" opacity="0.05"/><line x1="-450" y1="821" x2="1450" y2="821" opacity="0.05"/><line x1="-450" y1="844" x2="1450" y2="844" opacity="0.05"/><line x1="-450" y1="867" x2="1450" y2="867" opacity="0.05"/><line x1="-450" y1="890" x2="1450" y2="890" opacity="0.05"/><line x1="-450" y1="913" x2="1450" y2="913" opacity="0.05"/><line x1="-450" y1="936" x2="1450" y2="936" opacity="0.05"/><line x1="-450" y1="959" x2="1450" y2="959" opacity="0.05"/><line x1="-450" y1="982" x2="1450" y2="982" opacity="0.05"/><line x1="-450" y1="1005" x2="1450" y2="1005" opacity="0.05"/><line x1="-450" y1="1028" x2="1450" y2="1028" opacity="0.05"/><line x1="-450" y1="1051" x2="1450" y2="1051" opacity="0.05"/><line x1="-450" y1="1074" x2="1450" y2="1074" opacity="0.05"/><line x1="-450" y1="1097" x2="1450" y2="1097" opacity="0.05"/><line x1="-450" y1="1120" x2="1450" y2="1120" opacity="0.05"/><line x1="-450" y1="1143" x2="1450" y2="1143" opacity="0.05"/><line x1="-450" y1="1166" x2="1450" y2="1166" opacity="0.05"/><line x1="-450" y1="1189" x2="1450" y2="1189" opacity="0.05"/><line x1="-450" y1="1212" x2="1450" y2="1212" opacity="0.05"/><line x1="-450" y1="1235" x2="1450" y2="1235" opacity="0.05"/><line x1="-450" y1="1258" x2="1450" y2="1258" opacity="0.05"/><line x1="-168.7" y1="-516.4" x2="1638.4" y2="70.8" opacity="0.05"/><line x1="-175.8" y1="-494.5" x2="1631.2" y2="92.6" opacity="0.05"/><line x1="-182.9" y1="-472.6" x2="1624.1" y2="114.5" opacity="0.05"/><line x1="-190" y1="-450.7" x2="1617" y2="136.4" opacity="0.05"/><line x1="-197.1" y1="-428.9" x2="1609.9" y2="158.3" opacity="0.05"/><line x1="-204.2" y1="-407" x2="1602.8" y2="180.1" opacity="0.05"/><line x1="-211.3" y1="-385.1" x2="1595.7" y2="202" opacity="0.05"/><line x1="-218.4" y1="-363.2" x2="1588.6" y2="223.9" opacity="0.05"/><line x1="-225.5" y1="-341.4" x2="1581.5" y2="245.8" opacity="0.05"/><line x1="-232.6" y1="-319.5" x2="1574.4" y2="267.6" opacity="0.05"/><line x1="-239.7" y1="-297.6" x2="1567.3" y2="289.5" opacity="0.05"/><line x1="-246.8" y1="-275.8" x2="1560.2" y2="311.4" opacity="0.05"/><line x1="-253.9" y1="-253.9" x2="1553.1" y2="333.3" opacity="0.05"/><line x1="-261" y1="-232" x2="1546" y2="355.1" opacity="0.05"/><line x1="-268.2" y1="-210.1" x2="1538.9" y2="377" opacity="0.05"/><line x1="-275.3" y1="-188.3" x2="1531.7" y2="398.9" opacity="0.05"/><line x1="-282.4" y1="-166.4" x2="1524.6" y2="420.8" opacity="0.05"/><line x1="-289.5" y1="-144.5" x2="1517.5" y2="442.6" opacity="0.05"/><line x1="-296.6" y1="-122.6" x2="1510.4" y2="464.5" opacity="0.05"/><line x1="-303.7" y1="-100.8" x2="1503.3" y2="486.4" opacity="0.05"/><line x1="-310.8" y1="-78.9" x2="1496.2" y2="508.2" opacity="0.05"/><line x1="-317.9" y1="-57" x2="1489.1" y2="530.1" opacity="0.05"/><line x1="-325" y1="-35.1" x2="1482" y2="552" opacity="0.05"/><line x1="-332.1" y1="-13.3" x2="1474.9" y2="573.9" opacity="0.05"/><line x1="-339.2" y1="8.6" x2="1467.8" y2="595.7" opacity="0.05"/><line x1="-346.3" y1="30.5" x2="1460.7" y2="617.6" opacity="0.05"/><line x1="-353.4" y1="52.4" x2="1453.6" y2="639.5" opacity="0.05"/><line x1="-360.6" y1="74.2" x2="1446.5" y2="661.4" opacity="0.05"/><line x1="-367.7" y1="96.1" x2="1439.3" y2="683.2" opacity="0.05"/><line x1="-374.8" y1="118" x2="1432.2" y2="705.1" opacity="0.05"/><line x1="-381.9" y1="139.9" x2="1425.1" y2="727" opacity="0.05"/><line x1="-389" y1="161.7" x2="1418" y2="748.9" opacity="0.05"/><line x1="-396.1" y1="183.6" x2="1410.9" y2="770.7" opacity="0.05"/><line x1="-403.2" y1="205.5" x2="1403.8" y2="792.6" opacity="0.05"/><line x1="-410.3" y1="227.4" x2="1396.7" y2="814.5" opacity="0.05"/><line x1="-417.4" y1="249.2" x2="1389.6" y2="836.4" opacity="0.05"/><line x1="-424.5" y1="271.1" x2="1382.5" y2="858.2" opacity="0.05"/><line x1="-431.6" y1="293" x2="1375.4" y2="880.1" opacity="0.05"/><line x1="-438.7" y1="314.9" x2="1368.3" y2="902" opacity="0.05"/><line x1="-445.8" y1="336.7" x2="1361.2" y2="923.9" opacity="0.05"/><line x1="-452.9" y1="358.6" x2="1354.1" y2="945.7" opacity="0.05"/><line x1="-460.1" y1="380.5" x2="1347" y2="967.6" opacity="0.05"/><line x1="-467.2" y1="402.4" x2="1339.8" y2="989.5" opacity="0.05"/><line x1="-474.3" y1="424.2" x2="1332.7" y2="1011.4" opacity="0.05"/><line x1="-481.4" y1="446.1" x2="1325.6" y2="1033.2" opacity="0.05"/><line x1="-488.5" y1="468" x2="1318.5" y2="1055.1" opacity="0.05"/><line x1="-495.6" y1="489.8" x2="1311.4" y2="1077" opacity="0.05"/><line x1="-502.7" y1="511.7" x2="1304.3" y2="1098.9" opacity="0.05"/><line x1="-509.8" y1="533.6" x2="1297.2" y2="1120.7" opacity="0.05"/><line x1="-516.9" y1="555.5" x2="1290.1" y2="1142.6" opacity="0.05"/><line x1="-524" y1="577.3" x2="1283" y2="1164.5" opacity="0.05"/><line x1="-531.1" y1="599.2" x2="1275.9" y2="1186.4" opacity="0.05"/><line x1="-538.2" y1="621.1" x2="1268.8" y2="1208.2" opacity="0.05"/><line x1="-545.3" y1="643" x2="1261.7" y2="1230.1" opacity="0.05"/><line x1="-552.4" y1="664.8" x2="1254.6" y2="1252" opacity="0.05"/><line x1="-559.6" y1="686.7" x2="1247.5" y2="1273.8" opacity="0.05"/><line x1="-566.7" y1="708.6" x2="1240.3" y2="1295.7" opacity="0.05"/><line x1="-573.8" y1="730.5" x2="1233.2" y2="1317.6" opacity="0.05"/><line x1="-580.9" y1="752.3" x2="1226.1" y2="1339.5" opacity="0.05"/><line x1="-588" y1="774.2" x2="1219" y2="1361.3" opacity="0.05"/><line x1="-595.1" y1="796.1" x2="1211.9" y2="1383.2" opacity="0.05"/><line x1="-602.2" y1="818" x2="1204.8" y2="1405.1" opacity="0.05"/><line x1="-609.3" y1="839.8" x2="1197.7" y2="1427" opacity="0.05"/><line x1="-616.4" y1="861.7" x2="1190.6" y2="1448.8" opacity="0.05"/><line x1="-623.5" y1="883.6" x2="1183.5" y2="1470.7" opacity="0.05"/><line x1="-630.6" y1="905.5" x2="1176.4" y2="1492.6" opacity="0.05"/><line x1="-637.7" y1="927.3" x2="1169.3" y2="1514.5" opacity="0.05"/><line x1="178.2" y1="-673.2" x2="1715.3" y2="443.5" opacity="0.05"/><line x1="164.6" y1="-654.6" x2="1701.8" y2="462.2" opacity="0.05"/><line x1="151.1" y1="-636" x2="1688.2" y2="480.8" opacity="0.05"/><line x1="137.6" y1="-617.4" x2="1674.7" y2="499.4" opacity="0.05"/><line x1="124.1" y1="-598.8" x2="1661.2" y2="518" opacity="0.05"/><line x1="110.6" y1="-580.2" x2="1647.7" y2="536.6" opacity="0.05"/><line x1="97" y1="-561.6" x2="1634.2" y2="555.2" opacity="0.05"/><line x1="83.5" y1="-543" x2="1620.6" y2="573.8" opacity="0.05"/><line x1="70" y1="-524.4" x2="1607.1" y2="592.4" opacity="0.05"/><line x1="56.5" y1="-505.8" x2="1593.6" y2="611" opacity="0.05"/><line x1="43" y1="-487.2" x2="1580.1" y2="629.6" opacity="0.05"/><line x1="29.4" y1="-468.6" x2="1566.6" y2="648.2" opacity="0.05"/><line x1="15.9" y1="-450" x2="1553.1" y2="666.8" opacity="0.05"/><line x1="2.4" y1="-431.4" x2="1539.5" y2="685.4" opacity="0.05"/><line x1="-11.1" y1="-412.7" x2="1526" y2="704" opacity="0.05"/><line x1="-24.6" y1="-394.1" x2="1512.5" y2="722.7" opacity="0.05"/><line x1="-38.2" y1="-375.5" x2="1499" y2="741.3" opacity="0.05"/><line x1="-51.7" y1="-356.9" x2="1485.5" y2="759.9" opacity="0.05"/><line x1="-65.2" y1="-338.3" x2="1471.9" y2="778.5" opacity="0.05"/><line x1="-78.7" y1="-319.7" x2="1458.4" y2="797.1" opacity="0.05"/><line x1="-92.2" y1="-301.1" x2="1444.9" y2="815.7" opacity="0.05"/><line x1="-105.7" y1="-282.5" x2="1431.4" y2="834.3" opacity="0.05"/><line x1="-119.3" y1="-263.9" x2="1417.9" y2="852.9" opacity="0.05"/><line x1="-132.8" y1="-245.3" x2="1404.3" y2="871.5" opacity="0.05"/><line x1="-146.3" y1="-226.7" x2="1390.8" y2="890.1" opacity="0.05"/><line x1="-159.8" y1="-208.1" x2="1377.3" y2="908.7" opacity="0.05"/><line x1="-173.3" y1="-189.5" x2="1363.8" y2="927.3" opacity="0.05"/><line x1="-186.9" y1="-170.8" x2="1350.3" y2="945.9" opacity="0.05"/><line x1="-200.4" y1="-152.2" x2="1336.7" y2="964.6" opacity="0.05"/><line x1="-213.9" y1="-133.6" x2="1323.2" y2="983.2" opacity="0.05"/><line x1="-227.4" y1="-115" x2="1309.7" y2="1001.8" opacity="0.05"/><line x1="-240.9" y1="-96.4" x2="1296.2" y2="1020.4" opacity="0.05"/><line x1="-254.5" y1="-77.8" x2="1282.7" y2="1039" opacity="0.05"/><line x1="-268" y1="-59.2" x2="1269.2" y2="1057.6" opacity="0.05"/><line x1="-281.5" y1="-40.6" x2="1255.6" y2="1076.2" opacity="0.05"/><line x1="-295" y1="-22" x2="1242.1" y2="1094.8" opacity="0.05"/><line x1="-308.5" y1="-3.4" x2="1228.6" y2="1113.4" opacity="0.05"/><line x1="-322.1" y1="15.2" x2="1215.1" y2="1132" opacity="0.05"/><line x1="-335.6" y1="33.8" x2="1201.6" y2="1150.6" opacity="0.05"/><line x1="-349.1" y1="52.4" x2="1188" y2="1169.2" opacity="0.05"/><line x1="-362.6" y1="71" x2="1174.5" y2="1187.8" opacity="0.05"/><line x1="-376.1" y1="89.7" x2="1161" y2="1206.4" opacity="0.05"/><line x1="-389.6" y1="108.3" x2="1147.5" y2="1225.1" opacity="0.05"/><line x1="-403.2" y1="126.9" x2="1134" y2="1243.7" opacity="0.05"/><line x1="-416.7" y1="145.5" x2="1120.4" y2="1262.3" opacity="0.05"/><line x1="-430.2" y1="164.1" x2="1106.9" y2="1280.9" opacity="0.05"/><line x1="-443.7" y1="182.7" x2="1093.4" y2="1299.5" opacity="0.05"/><line x1="-457.2" y1="201.3" x2="1079.9" y2="1318.1" opacity="0.05"/><line x1="-470.8" y1="219.9" x2="1066.4" y2="1336.7" opacity="0.05"/><line x1="-484.3" y1="238.5" x2="1052.8" y2="1355.3" opacity="0.05"/><line x1="-497.8" y1="257.1" x2="1039.3" y2="1373.9" opacity="0.05"/><line x1="-511.3" y1="275.7" x2="1025.8" y2="1392.5" opacity="0.05"/><line x1="-524.8" y1="294.3" x2="1012.3" y2="1411.1" opacity="0.05"/><line x1="-538.4" y1="312.9" x2="998.8" y2="1429.7" opacity="0.05"/><line x1="-551.9" y1="331.6" x2="985.3" y2="1448.3" opacity="0.05"/><line x1="-565.4" y1="350.2" x2="971.7" y2="1466.9" opacity="0.05"/><line x1="-578.9" y1="368.8" x2="958.2" y2="1485.6" opacity="0.05"/><line x1="-592.4" y1="387.4" x2="944.7" y2="1504.2" opacity="0.05"/><line x1="-606" y1="406" x2="931.2" y2="1522.8" opacity="0.05"/><line x1="-619.5" y1="424.6" x2="917.7" y2="1541.4" opacity="0.05"/><line x1="-633" y1="443.2" x2="904.1" y2="1560" opacity="0.05"/><line x1="-646.5" y1="461.8" x2="890.6" y2="1578.6" opacity="0.05"/><line x1="-660" y1="480.4" x2="877.1" y2="1597.2" opacity="0.05"/><line x1="-673.6" y1="499" x2="863.6" y2="1615.8" opacity="0.05"/><line x1="-687.1" y1="517.6" x2="850.1" y2="1634.4" opacity="0.05"/><line x1="-700.6" y1="536.2" x2="836.5" y2="1653" opacity="0.05"/><line x1="-714.1" y1="554.8" x2="823" y2="1671.6" opacity="0.05"/><line x1="556.5" y1="-715.3" x2="1673.2" y2="821.8" opacity="0.05"/><line x1="537.8" y1="-701.8" x2="1654.6" y2="835.4" opacity="0.05"/><line x1="519.2" y1="-688.2" x2="1636" y2="848.9" opacity="0.05"/><line x1="500.6" y1="-674.7" x2="1617.4" y2="862.4" opacity="0.05"/><line x1="482" y1="-661.2" x2="1598.8" y2="875.9" opacity="0.05"/><line x1="463.4" y1="-647.7" x2="1580.2" y2="889.4" opacity="0.05"/><line x1="444.8" y1="-634.2" x2="1561.6" y2="903" opacity="0.05"/><line x1="426.2" y1="-620.6" x2="1543" y2="916.5" opacity="0.05"/><line x1="407.6" y1="-607.1" x2="1524.4" y2="930" opacity="0.05"/><line x1="389" y1="-593.6" x2="1505.8" y2="943.5" opacity="0.05"/><line x1="370.4" y1="-580.1" x2="1487.2" y2="957" opacity="0.05"/><line x1="351.8" y1="-566.6" x2="1468.6" y2="970.6" opacity="0.05"/><line x1="333.2" y1="-553.1" x2="1450" y2="984.1" opacity="0.05"/><line x1="314.6" y1="-539.5" x2="1431.4" y2="997.6" opacity="0.05"/><line x1="296" y1="-526" x2="1412.7" y2="1011.1" opacity="0.05"/><line x1="277.3" y1="-512.5" x2="1394.1" y2="1024.6" opacity="0.05"/><line x1="258.7" y1="-499" x2="1375.5" y2="1038.2" opacity="0.05"/><line x1="240.1" y1="-485.5" x2="1356.9" y2="1051.7" opacity="0.05"/><line x1="221.5" y1="-471.9" x2="1338.3" y2="1065.2" opacity="0.05"/><line x1="202.9" y1="-458.4" x2="1319.7" y2="1078.7" opacity="0.05"/><line x1="184.3" y1="-444.9" x2="1301.1" y2="1092.2" opacity="0.05"/><line x1="165.7" y1="-431.4" x2="1282.5" y2="1105.7" opacity="0.05"/><line x1="147.1" y1="-417.9" x2="1263.9" y2="1119.3" opacity="0.05"/><line x1="128.5" y1="-404.3" x2="1245.3" y2="1132.8" opacity="0.05"/><line x1="109.9" y1="-390.8" x2="1226.7" y2="1146.3" opacity="0.05"/><line x1="91.3" y1="-377.3" x2="1208.1" y2="1159.8" opacity="0.05"/><line x1="72.7" y1="-363.8" x2="1189.5" y2="1173.3" opacity="0.05"/><line x1="54.1" y1="-350.3" x2="1170.8" y2="1186.9" opacity="0.05"/><line x1="35.4" y1="-336.7" x2="1152.2" y2="1200.4" opacity="0.05"/><line x1="16.8" y1="-323.2" x2="1133.6" y2="1213.9" opacity="0.05"/><line x1="-1.8" y1="-309.7" x2="1115" y2="1227.4" opacity="0.05"/><line x1="-20.4" y1="-296.2" x2="1096.4" y2="1240.9" opacity="0.05"/><line x1="-39" y1="-282.7" x2="1077.8" y2="1254.5" opacity="0.05"/><line x1="-57.6" y1="-269.2" x2="1059.2" y2="1268" opacity="0.05"/><line x1="-76.2" y1="-255.6" x2="1040.6" y2="1281.5" opacity="0.05"/><line x1="-94.8" y1="-242.1" x2="1022" y2="1295" opacity="0.05"/><line x1="-113.4" y1="-228.6" x2="1003.4" y2="1308.5" opacity="0.05"/><line x1="-132" y1="-215.1" x2="984.8" y2="1322.1" opacity="0.05"/><line x1="-150.6" y1="-201.6" x2="966.2" y2="1335.6" opacity="0.05"/><line x1="-169.2" y1="-188" x2="947.6" y2="1349.1" opacity="0.05"/><line x1="-187.8" y1="-174.5" x2="929" y2="1362.6" opacity="0.05"/><line x1="-206.4" y1="-161" x2="910.3" y2="1376.1" opacity="0.05"/><line x1="-225.1" y1="-147.5" x2="891.7" y2="1389.6" opacity="0.05"/><line x1="-243.7" y1="-134" x2="873.1" y2="1403.2" opacity="0.05"/><line x1="-262.3" y1="-120.4" x2="854.5" y2="1416.7" opacity="0.05"/><line x1="-280.9" y1="-106.9" x2="835.9" y2="1430.2" opacity="0.05"/><line x1="-299.5" y1="-93.4" x2="817.3" y2="1443.7" opacity="0.05"/><line x1="-318.1" y1="-79.9" x2="798.7" y2="1457.2" opacity="0.05"/><line x1="-336.7" y1="-66.4" x2="780.1" y2="1470.8" opacity="0.05"/><line x1="-355.3" y1="-52.8" x2="761.5" y2="1484.3" opacity="0.05"/><line x1="-373.9" y1="-39.3" x2="742.9" y2="1497.8" opacity="0.05"/><line x1="-392.5" y1="-25.8" x2="724.3" y2="1511.3" opacity="0.05"/><line x1="-411.1" y1="-12.3" x2="705.7" y2="1524.8" opacity="0.05"/><line x1="-429.7" y1="1.2" x2="687.1" y2="1538.4" opacity="0.05"/><line x1="-448.3" y1="14.7" x2="668.4" y2="1551.9" opacity="0.05"/><line x1="-466.9" y1="28.3" x2="649.8" y2="1565.4" opacity="0.05"/><line x1="-485.6" y1="41.8" x2="631.2" y2="1578.9" opacity="0.05"/><line x1="-504.2" y1="55.3" x2="612.6" y2="1592.4" opacity="0.05"/><line x1="-522.8" y1="68.8" x2="594" y2="1606" opacity="0.05"/><line x1="-541.4" y1="82.3" x2="575.4" y2="1619.5" opacity="0.05"/><line x1="-560" y1="95.9" x2="556.8" y2="1633" opacity="0.05"/><line x1="-578.6" y1="109.4" x2="538.2" y2="1646.5" opacity="0.05"/><line x1="-597.2" y1="122.9" x2="519.6" y2="1660" opacity="0.05"/><line x1="-615.8" y1="136.4" x2="501" y2="1673.6" opacity="0.05"/><line x1="-634.4" y1="149.9" x2="482.4" y2="1687.1" opacity="0.05"/><line x1="-653" y1="163.5" x2="463.8" y2="1700.6" opacity="0.05"/><line x1="-671.6" y1="177" x2="445.2" y2="1714.1" opacity="0.05"/><line x1="929.2" y1="-638.4" x2="1516.4" y2="1168.7" opacity="0.05"/><line x1="907.4" y1="-631.2" x2="1494.5" y2="1175.8" opacity="0.05"/><line x1="885.5" y1="-624.1" x2="1472.6" y2="1182.9" opacity="0.05"/><line x1="863.6" y1="-617" x2="1450.7" y2="1190" opacity="0.05"/><line x1="841.7" y1="-609.9" x2="1428.9" y2="1197.1" opacity="0.05"/><line x1="819.9" y1="-602.8" x2="1407" y2="1204.2" opacity="0.05"/><line x1="798" y1="-595.7" x2="1385.1" y2="1211.3" opacity="0.05"/><line x1="776.1" y1="-588.6" x2="1363.2" y2="1218.4" opacity="0.05"/><line x1="754.2" y1="-581.5" x2="1341.4" y2="1225.5" opacity="0.05"/><line x1="732.4" y1="-574.4" x2="1319.5" y2="1232.6" opacity="0.05"/><line x1="710.5" y1="-567.3" x2="1297.6" y2="1239.7" opacity="0.05"/><line x1="688.6" y1="-560.2" x2="1275.8" y2="1246.8" opacity="0.05"/><line x1="666.7" y1="-553.1" x2="1253.9" y2="1253.9" opacity="0.05"/><line x1="644.9" y1="-546" x2="1232" y2="1261" opacity="0.05"/><line x1="623" y1="-538.9" x2="1210.1" y2="1268.2" opacity="0.05"/><line x1="601.1" y1="-531.7" x2="1188.3" y2="1275.3" opacity="0.05"/><line x1="579.2" y1="-524.6" x2="1166.4" y2="1282.4" opacity="0.05"/><line x1="557.4" y1="-517.5" x2="1144.5" y2="1289.5" opacity="0.05"/><line x1="535.5" y1="-510.4" x2="1122.6" y2="1296.6" opacity="0.05"/><line x1="513.6" y1="-503.3" x2="1100.8" y2="1303.7" opacity="0.05"/><line x1="491.8" y1="-496.2" x2="1078.9" y2="1310.8" opacity="0.05"/><line x1="469.9" y1="-489.1" x2="1057" y2="1317.9" opacity="0.05"/><line x1="448" y1="-482" x2="1035.1" y2="1325" opacity="0.05"/><line x1="426.1" y1="-474.9" x2="1013.3" y2="1332.1" opacity="0.05"/><line x1="404.3" y1="-467.8" x2="991.4" y2="1339.2" opacity="0.05"/><line x1="382.4" y1="-460.7" x2="969.5" y2="1346.3" opacity="0.05"/><line x1="360.5" y1="-453.6" x2="947.6" y2="1353.4" opacity="0.05"/><line x1="338.6" y1="-446.5" x2="925.8" y2="1360.6" opacity="0.05"/><line x1="316.8" y1="-439.3" x2="903.9" y2="1367.7" opacity="0.05"/><line x1="294.9" y1="-432.2" x2="882" y2="1374.8" opacity="0.05"/><line x1="273" y1="-425.1" x2="860.1" y2="1381.9" opacity="0.05"/><line x1="251.1" y1="-418" x2="838.3" y2="1389" opacity="0.05"/><line x1="229.3" y1="-410.9" x2="816.4" y2="1396.1" opacity="0.05"/><line x1="207.4" y1="-403.8" x2="794.5" y2="1403.2" opacity="0.05"/><line x1="185.5" y1="-396.7" x2="772.6" y2="1410.3" opacity="0.05"/><line x1="163.6" y1="-389.6" x2="750.8" y2="1417.4" opacity="0.05"/><line x1="141.8" y1="-382.5" x2="728.9" y2="1424.5" opacity="0.05"/><line x1="119.9" y1="-375.4" x2="707" y2="1431.6" opacity="0.05"/><line x1="98" y1="-368.3" x2="685.1" y2="1438.7" opacity="0.05"/><line x1="76.1" y1="-361.2" x2="663.3" y2="1445.8" opacity="0.05"/><line x1="54.3" y1="-354.1" x2="641.4" y2="1452.9" opacity="0.05"/><line x1="32.4" y1="-347" x2="619.5" y2="1460.1" opacity="0.05"/><line x1="10.5" y1="-339.8" x2="597.6" y2="1467.2" opacity="0.05"/><line x1="-11.4" y1="-332.7" x2="575.8" y2="1474.3" opacity="0.05"/><line x1="-33.2" y1="-325.6" x2="553.9" y2="1481.4" opacity="0.05"/><line x1="-55.1" y1="-318.5" x2="532" y2="1488.5" opacity="0.05"/><line x1="-77" y1="-311.4" x2="510.2" y2="1495.6" opacity="0.05"/><line x1="-98.9" y1="-304.3" x2="488.3" y2="1502.7" opacity="0.05"/><line x1="-120.7" y1="-297.2" x2="466.4" y2="1509.8" opacity="0.05"/><line x1="-142.6" y1="-290.1" x2="444.5" y2="1516.9" opacity="0.05"/><line x1="-164.5" y1="-283" x2="422.7" y2="1524" opacity="0.05"/><line x1="-186.4" y1="-275.9" x2="400.8" y2="1531.1" opacity="0.05"/><line x1="-208.2" y1="-268.8" x2="378.9" y2="1538.2" opacity="0.05"/><line x1="-230.1" y1="-261.7" x2="357" y2="1545.3" opacity="0.05"/><line x1="-252" y1="-254.6" x2="335.2" y2="1552.4" opacity="0.05"/><line x1="-273.8" y1="-247.5" x2="313.3" y2="1559.6" opacity="0.05"/><line x1="-295.7" y1="-240.3" x2="291.4" y2="1566.7" opacity="0.05"/><line x1="-317.6" y1="-233.2" x2="269.5" y2="1573.8" opacity="0.05"/><line x1="-339.5" y1="-226.1" x2="247.7" y2="1580.9" opacity="0.05"/><line x1="-361.3" y1="-219" x2="225.8" y2="1588" opacity="0.05"/><line x1="-383.2" y1="-211.9" x2="203.9" y2="1595.1" opacity="0.05"/><line x1="-405.1" y1="-204.8" x2="182" y2="1602.2" opacity="0.05"/><line x1="-427" y1="-197.7" x2="160.2" y2="1609.3" opacity="0.05"/><line x1="-448.8" y1="-190.6" x2="138.3" y2="1616.4" opacity="0.05"/><line x1="-470.7" y1="-183.5" x2="116.4" y2="1623.5" opacity="0.05"/><line x1="-492.6" y1="-176.4" x2="94.5" y2="1630.6" opacity="0.05"/><line x1="-514.5" y1="-169.3" x2="72.7" y2="1637.7" opacity="0.05"/><line x1="1260" y1="-450" x2="1260" y2="1450" opacity="0.05"/><line x1="1237" y1="-450" x2="1237" y2="1450" opacity="0.05"/><line x1="1214" y1="-450" x2="1214" y2="1450" opacity="0.05"/><line x1="1191" y1="-450" x2="1191" y2="1450" opacity="0.05"/><line x1="1168" y1="-450" x2="1168" y2="1450" opacity="0.05"/><line x1="1145" y1="-450" x2="1145" y2="1450" opacity="0.05"/><line x1="1122" y1="-450" x2="1122" y2="1450" opacity="0.05"/><line x1="1099" y1="-450" x2="1099" y2="1450" opacity="0.05"/><line x1="1076" y1="-450" x2="1076" y2="1450" opacity="0.05"/><line x1="1053" y1="-450" x2="1053" y2="1450" opacity="0.05"/><line x1="1030" y1="-450" x2="1030" y2="1450" opacity="0.05"/><line x1="1007" y1="-450" x2="1007" y2="1450" opacity="0.05"/><line x1="984" y1="-450" x2="984" y2="1450" opacity="0.05"/><line x1="961" y1="-450" x2="961" y2="1450" opacity="0.05"/><line x1="938" y1="-450" x2="938" y2="1450" opacity="0.05"/><line x1="915" y1="-450" x2="915" y2="1450" opacity="0.05"/><line x1="892" y1="-450" x2="892" y2="1450" opacity="0.05"/><line x1="869" y1="-450" x2="869" y2="1450" opacity="0.05"/><line x1="846" y1="-450" x2="846" y2="1450" opacity="0.05"/><line x1="823" y1="-450" x2="823" y2="1450" opacity="0.05"/><line x1="800" y1="-450" x2="800" y2="1450" opacity="0.05"/><line x1="777" y1="-450" x2="777" y2="1450" opacity="0.05"/><line x1="754" y1="-450" x2="754" y2="1450" opacity="0.05"/><line x1="731" y1="-450" x2="731" y2="1450" opacity="0.05"/><line x1="708" y1="-450" x2="708" y2="1450" opacity="0.05"/><line x1="685" y1="-450" x2="685" y2="1450" opacity="0.05"/><line x1="662" y1="-450" x2="662" y2="1450" opacity="0.05"/><line x1="639" y1="-450" x2="639" y2="1450" opacity="0.05"/><line x1="616" y1="-450" x2="616" y2="1450" opacity="0.05"/><line x1="593" y1="-450" x2="593" y2="1450" opacity="0.05"/><line x1="570" y1="-450" x2="570" y2="1450" opacity="0.05"/><line x1="547" y1="-450" x2="547" y2="1450" opacity="0.05"/><line x1="524" y1="-450" x2="524" y2="1450" opacity="0.05"/><line x1="501" y1="-450" x2="501" y2="1450" opacity="0.05"/><line x1="478" y1="-450" x2="478" y2="1450" opacity="0.05"/><line x1="455" y1="-450" x2="455" y2="1450" opacity="0.05"/><line x1="432" y1="-450" x2="432" y2="1450" opacity="0.05"/><line x1="409" y1="-450" x2="409" y2="1450" opacity="0.05"/><line x1="386" y1="-450" x2="386" y2="1450" opacity="0.05"/><line x1="363" y1="-450" x2="363" y2="1450" opacity="0.05"/><line x1="340" y1="-450" x2="340" y2="1450" opacity="0.05"/><line x1="317" y1="-450" x2="317" y2="1450" opacity="0.05"/><line x1="294" y1="-450" x2="294" y2="1450" opacity="0.05"/><line x1="271" y1="-450" x2="271" y2="1450" opacity="0.05"/><line x1="248" y1="-450" x2="248" y2="1450" opacity="0.05"/><line x1="225" y1="-450" x2="225" y2="1450" opacity="0.05"/><line x1="202" y1="-450" x2="202" y2="1450" opacity="0.05"/><line x1="179" y1="-450" x2="179" y2="1450" opacity="0.05"/><line x1="156" y1="-450" x2="156" y2="1450" opacity="0.05"/><line x1="133" y1="-450" x2="133" y2="1450" opacity="0.05"/><line x1="110" y1="-450" x2="110" y2="1450" opacity="0.05"/><line x1="87" y1="-450" x2="87" y2="1450" opacity="0.05"/><line x1="64" y1="-450" x2="64" y2="1450" opacity="0.05"/><line x1="41" y1="-450" x2="41" y2="1450" opacity="0.05"/><line x1="18" y1="-450" x2="18" y2="1450" opacity="0.05"/><line x1="-5" y1="-450" x2="-5" y2="1450" opacity="0.05"/><line x1="-28" y1="-450" x2="-28" y2="1450" opacity="0.05"/><line x1="-51" y1="-450" x2="-51" y2="1450" opacity="0.05"/><line x1="-74" y1="-450" x2="-74" y2="1450" opacity="0.05"/><line x1="-97" y1="-450" x2="-97" y2="1450" opacity="0.05"/><line x1="-120" y1="-450" x2="-120" y2="1450" opacity="0.05"/><line x1="-143" y1="-450" x2="-143" y2="1450" opacity="0.05"/><line x1="-166" y1="-450" x2="-166" y2="1450" opacity="0.05"/><line x1="-189" y1="-450" x2="-189" y2="1450" opacity="0.05"/><line x1="-212" y1="-450" x2="-212" y2="1450" opacity="0.05"/><line x1="-235" y1="-450" x2="-235" y2="1450" opacity="0.05"/><line x1="-258" y1="-450" x2="-258" y2="1450" opacity="0.05"/><line x1="1516.4" y1="-168.7" x2="929.2" y2="1638.4" opacity="0.05"/><line x1="1494.5" y1="-175.8" x2="907.4" y2="1631.2" opacity="0.05"/><line x1="1472.6" y1="-182.9" x2="885.5" y2="1624.1" opacity="0.05"/><line x1="1450.7" y1="-190" x2="863.6" y2="1617" opacity="0.05"/><line x1="1428.9" y1="-197.1" x2="841.7" y2="1609.9" opacity="0.05"/><line x1="1407" y1="-204.2" x2="819.9" y2="1602.8" opacity="0.05"/><line x1="1385.1" y1="-211.3" x2="798" y2="1595.7" opacity="0.05"/><line x1="1363.2" y1="-218.4" x2="776.1" y2="1588.6" opacity="0.05"/><line x1="1341.4" y1="-225.5" x2="754.2" y2="1581.5" opacity="0.05"/><line x1="1319.5" y1="-232.6" x2="732.4" y2="1574.4" opacity="0.05"/><line x1="1297.6" y1="-239.7" x2="710.5" y2="1567.3" opacity="0.05"/><line x1="1275.8" y1="-246.8" x2="688.6" y2="1560.2" opacity="0.05"/><line x1="1253.9" y1="-253.9" x2="666.7" y2="1553.1" opacity="0.05"/><line x1="1232" y1="-261" x2="644.9" y2="1546" opacity="0.05"/><line x1="1210.1" y1="-268.2" x2="623" y2="1538.9" opacity="0.05"/><line x1="1188.3" y1="-275.3" x2="601.1" y2="1531.7" opacity="0.05"/><line x1="1166.4" y1="-282.4" x2="579.2" y2="1524.6" opacity="0.05"/><line x1="1144.5" y1="-289.5" x2="557.4" y2="1517.5" opacity="0.05"/><line x1="1122.6" y1="-296.6" x2="535.5" y2="1510.4" opacity="0.05"/><line x1="1100.8" y1="-303.7" x2="513.6" y2="1503.3" opacity="0.05"/><line x1="1078.9" y1="-310.8" x2="491.8" y2="1496.2" opacity="0.05"/><line x1="1057" y1="-317.9" x2="469.9" y2="1489.1" opacity="0.05"/><line x1="1035.1" y1="-325" x2="448" y2="1482" opacity="0.05"/><line x1="1013.3" y1="-332.1" x2="426.1" y2="1474.9" opacity="0.05"/><line x1="991.4" y1="-339.2" x2="404.3" y2="1467.8" opacity="0.05"/><line x1="969.5" y1="-346.3" x2="382.4" y2="1460.7" opacity="0.05"/><line x1="947.6" y1="-353.4" x2="360.5" y2="1453.6" opacity="0.05"/><line x1="925.8" y1="-360.6" x2="338.6" y2="1446.5" opacity="0.05"/><line x1="903.9" y1="-367.7" x2="316.8" y2="1439.3" opacity="0.05"/><line x1="882" y1="-374.8" x2="294.9" y2="1432.2" opacity="0.05"/><line x1="860.1" y1="-381.9" x2="273" y2="1425.1" opacity="0.05"/><line x1="838.3" y1="-389" x2="251.1" y2="1418" opacity="0.05"/><line x1="816.4" y1="-396.1" x2="229.3" y2="1410.9" opacity="0.05"/><line x1="794.5" y1="-403.2" x2="207.4" y2="1403.8" opacity="0.05"/><line x1="772.6" y1="-410.3" x2="185.5" y2="1396.7" opacity="0.05"/><line x1="750.8" y1="-417.4" x2="163.6" y2="1389.6" opacity="0.05"/><line x1="728.9" y1="-424.5" x2="141.8" y2="1382.5" opacity="0.05"/><line x1="707" y1="-431.6" x2="119.9" y2="1375.4" opacity="0.05"/><line x1="685.1" y1="-438.7" x2="98" y2="1368.3" opacity="0.05"/><line x1="663.3" y1="-445.8" x2="76.1" y2="1361.2" opacity="0.05"/><line x1="641.4" y1="-452.9" x2="54.3" y2="1354.1" opacity="0.05"/><line x1="619.5" y1="-460.1" x2="32.4" y2="1347" opacity="0.05"/><line x1="597.6" y1="-467.2" x2="10.5" y2="1339.8" opacity="0.05"/><line x1="575.8" y1="-474.3" x2="-11.4" y2="1332.7" opacity="0.05"/><line x1="553.9" y1="-481.4" x2="-33.2" y2="1325.6" opacity="0.05"/><line x1="532" y1="-488.5" x2="-55.1" y2="1318.5" opacity="0.05"/><line x1="510.2" y1="-495.6" x2="-77" y2="1311.4" opacity="0.05"/><line x1="488.3" y1="-502.7" x2="-98.9" y2="1304.3" opacity="0.05"/><line x1="466.4" y1="-509.8" x2="-120.7" y2="1297.2" opacity="0.05"/><line x1="444.5" y1="-516.9" x2="-142.6" y2="1290.1" opacity="0.05"/><line x1="422.7" y1="-524" x2="-164.5" y2="1283" opacity="0.05"/><line x1="400.8" y1="-531.1" x2="-186.4" y2="1275.9" opacity="0.05"/><line x1="378.9" y1="-538.2" x2="-208.2" y2="1268.8" opacity="0.05"/><line x1="357" y1="-545.3" x2="-230.1" y2="1261.7" opacity="0.05"/><line x1="335.2" y1="-552.4" x2="-252" y2="1254.6" opacity="0.05"/><line x1="313.3" y1="-559.6" x2="-273.8" y2="1247.5" opacity="0.05"/><line x1="291.4" y1="-566.7" x2="-295.7" y2="1240.3" opacity="0.05"/><line x1="269.5" y1="-573.8" x2="-317.6" y2="1233.2" opacity="0.05"/><line x1="247.7" y1="-580.9" x2="-339.5" y2="1226.1" opacity="0.05"/><line x1="225.8" y1="-588" x2="-361.3" y2="1219" opacity="0.05"/><line x1="203.9" y1="-595.1" x2="-383.2" y2="1211.9" opacity="0.05"/><line x1="182" y1="-602.2" x2="-405.1" y2="1204.8" opacity="0.05"/><line x1="160.2" y1="-609.3" x2="-427" y2="1197.7" opacity="0.05"/><line x1="138.3" y1="-616.4" x2="-448.8" y2="1190.6" opacity="0.05"/><line x1="116.4" y1="-623.5" x2="-470.7" y2="1183.5" opacity="0.05"/><line x1="94.5" y1="-630.6" x2="-492.6" y2="1176.4" opacity="0.05"/><line x1="72.7" y1="-637.7" x2="-514.5" y2="1169.3" opacity="0.05"/><line x1="1673.2" y1="178.2" x2="556.5" y2="1715.3" opacity="0.05"/><line x1="1654.6" y1="164.6" x2="537.8" y2="1701.8" opacity="0.05"/><line x1="1636" y1="151.1" x2="519.2" y2="1688.2" opacity="0.05"/><line x1="1617.4" y1="137.6" x2="500.6" y2="1674.7" opacity="0.05"/><line x1="1598.8" y1="124.1" x2="482" y2="1661.2" opacity="0.05"/><line x1="1580.2" y1="110.6" x2="463.4" y2="1647.7" opacity="0.05"/><line x1="1561.6" y1="97" x2="444.8" y2="1634.2" opacity="0.05"/><line x1="1543" y1="83.5" x2="426.2" y2="1620.6" opacity="0.05"/><line x1="1524.4" y1="70" x2="407.6" y2="1607.1" opacity="0.05"/><line x1="1505.8" y1="56.5" x2="389" y2="1593.6" opacity="0.05"/><line x1="1487.2" y1="43" x2="370.4" y2="1580.1" opacity="0.05"/><line x1="1468.6" y1="29.4" x2="351.8" y2="1566.6" opacity="0.05"/><line x1="1450" y1="15.9" x2="333.2" y2="1553.1" opacity="0.05"/><line x1="1431.4" y1="2.4" x2="314.6" y2="1539.5" opacity="0.05"/><line x1="1412.7" y1="-11.1" x2="296" y2="1526" opacity="0.05"/><line x1="1394.1" y1="-24.6" x2="277.3" y2="1512.5" opacity="0.05"/><line x1="1375.5" y1="-38.2" x2="258.7" y2="1499" opacity="0.05"/><line x1="1356.9" y1="-51.7" x2="240.1" y2="1485.5" opacity="0.05"/><line x1="1338.3" y1="-65.2" x2="221.5" y2="1471.9" opacity="0.05"/><line x1="1319.7" y1="-78.7" x2="202.9" y2="1458.4" opacity="0.05"/><line x1="1301.1" y1="-92.2" x2="184.3" y2="1444.9" opacity="0.05"/><line x1="1282.5" y1="-105.7" x2="165.7" y2="1431.4" opacity="0.05"/><line x1="1263.9" y1="-119.3" x2="147.1" y2="1417.9" opacity="0.05"/><line x1="1245.3" y1="-132.8" x2="128.5" y2="1404.3" opacity="0.05"/><line x1="1226.7" y1="-146.3" x2="109.9" y2="1390.8" opacity="0.05"/><line x1="1208.1" y1="-159.8" x2="91.3" y2="1377.3" opacity="0.05"/><line x1="1189.5" y1="-173.3" x2="72.7" y2="1363.8" opacity="0.05"/><line x1="1170.8" y1="-186.9" x2="54.1" y2="1350.3" opacity="0.05"/><line x1="1152.2" y1="-200.4" x2="35.4" y2="1336.7" opacity="0.05"/><line x1="1133.6" y1="-213.9" x2="16.8" y2="1323.2" opacity="0.05"/><line x1="1115" y1="-227.4" x2="-1.8" y2="1309.7" opacity="0.05"/><line x1="1096.4" y1="-240.9" x2="-20.4" y2="1296.2" opacity="0.05"/><line x1="1077.8" y1="-254.5" x2="-39" y2="1282.7" opacity="0.05"/><line x1="1059.2" y1="-268" x2="-57.6" y2="1269.2" opacity="0.05"/><line x1="1040.6" y1="-281.5" x2="-76.2" y2="1255.6" opacity="0.05"/><line x1="1022" y1="-295" x2="-94.8" y2="1242.1" opacity="0.05"/><line x1="1003.4" y1="-308.5" x2="-113.4" y2="1228.6" opacity="0.05"/><line x1="984.8" y1="-322.1" x2="-132" y2="1215.1" opacity="0.05"/><line x1="966.2" y1="-335.6" x2="-150.6" y2="1201.6" opacity="0.05"/><line x1="947.6" y1="-349.1" x2="-169.2" y2="1188" opacity="0.05"/><line x1="929" y1="-362.6" x2="-187.8" y2="1174.5" opacity="0.05"/><line x1="910.3" y1="-376.1" x2="-206.4" y2="1161" opacity="0.05"/><line x1="891.7" y1="-389.6" x2="-225.1" y2="1147.5" opacity="0.05"/><line x1="873.1" y1="-403.2" x2="-243.7" y2="1134" opacity="0.05"/><line x1="854.5" y1="-416.7" x2="-262.3" y2="1120.4" opacity="0.05"/><line x1="835.9" y1="-430.2" x2="-280.9" y2="1106.9" opacity="0.05"/><line x1="817.3" y1="-443.7" x2="-299.5" y2="1093.4" opacity="0.05"/><line x1="798.7" y1="-457.2" x2="-318.1" y2="1079.9" opacity="0.05"/><line x1="780.1" y1="-470.8" x2="-336.7" y2="1066.4" opacity="0.05"/><line x1="761.5" y1="-484.3" x2="-355.3" y2="1052.8" opacity="0.05"/><line x1="742.9" y1="-497.8" x2="-373.9" y2="1039.3" opacity="0.05"/><line x1="724.3" y1="-511.3" x2="-392.5" y2="1025.8" opacity="0.05"/><line x1="705.7" y1="-524.8" x2="-411.1" y2="1012.3" opacity="0.05"/><line x1="687.1" y1="-538.4" x2="-429.7" y2="998.8" opacity="0.05"/><line x1="668.4" y1="-551.9" x2="-448.3" y2="985.3" opacity="0.05"/><line x1="649.8" y1="-565.4" x2="-466.9" y2="971.7" opacity="0.05"/><line x1="631.2" y1="-578.9" x2="-485.6" y2="958.2" opacity="0.05"/><line x1="612.6" y1="-592.4" x2="-504.2" y2="944.7" opacity="0.05"/><line x1="594" y1="-606" x2="-522.8" y2="931.2" opacity="0.05"/><line x1="575.4" y1="-619.5" x2="-541.4" y2="917.7" opacity="0.05"/><line x1="556.8" y1="-633" x2="-560" y2="904.1" opacity="0.05"/><line x1="538.2" y1="-646.5" x2="-578.6" y2="890.6" opacity="0.05"/><line x1="519.6" y1="-660" x2="-597.2" y2="877.1" opacity="0.05"/><line x1="501" y1="-673.6" x2="-615.8" y2="863.6" opacity="0.05"/><line x1="482.4" y1="-687.1" x2="-634.4" y2="850.1" opacity="0.05"/><line x1="463.8" y1="-700.6" x2="-653" y2="836.5" opacity="0.05"/><line x1="445.2" y1="-714.1" x2="-671.6" y2="823" opacity="0.05"/><line x1="1715.3" y1="556.5" x2="178.2" y2="1673.2" opacity="0.05"/><line x1="1701.8" y1="537.8" x2="164.6" y2="1654.6" opacity="0.05"/><line x1="1688.2" y1="519.2" x2="151.1" y2="1636" opacity="0.05"/><line x1="1674.7" y1="500.6" x2="137.6" y2="1617.4" opacity="0.05"/><line x1="1661.2" y1="482" x2="124.1" y2="1598.8" opacity="0.05"/><line x1="1647.7" y1="463.4" x2="110.6" y2="1580.2" opacity="0.05"/><line x1="1634.2" y1="444.8" x2="97" y2="1561.6" opacity="0.05"/><line x1="1620.6" y1="426.2" x2="83.5" y2="1543" opacity="0.05"/><line x1="1607.1" y1="407.6" x2="70" y2="1524.4" opacity="0.05"/><line x1="1593.6" y1="389" x2="56.5" y2="1505.8" opacity="0.05"/><line x1="1580.1" y1="370.4" x2="43" y2="1487.2" opacity="0.05"/><line x1="1566.6" y1="351.8" x2="29.4" y2="1468.6" opacity="0.05"/><line x1="1553.1" y1="333.2" x2="15.9" y2="1450" opacity="0.05"/><line x1="1539.5" y1="314.6" x2="2.4" y2="1431.4" opacity="0.05"/><line x1="1526" y1="296" x2="-11.1" y2="1412.7" opacity="0.05"/><line x1="1512.5" y1="277.3" x2="-24.6" y2="1394.1" opacity="0.05"/><line x1="1499" y1="258.7" x2="-38.2" y2="1375.5" opacity="0.05"/><line x1="1485.5" y1="240.1" x2="-51.7" y2="1356.9" opacity="0.05"/><line x1="1471.9" y1="221.5" x2="-65.2" y2="1338.3" opacity="0.05"/><line x1="1458.4" y1="202.9" x2="-78.7" y2="1319.7" opacity="0.05"/><line x1="1444.9" y1="184.3" x2="-92.2" y2="1301.1" opacity="0.05"/><line x1="1431.4" y1="165.7" x2="-105.7" y2="1282.5" opacity="0.05"/><line x1="1417.9" y1="147.1" x2="-119.3" y2="1263.9" opacity="0.05"/><line x1="1404.3" y1="128.5" x2="-132.8" y2="1245.3" opacity="0.05"/><line x1="1390.8" y1="109.9" x2="-146.3" y2="1226.7" opacity="0.05"/><line x1="1377.3" y1="91.3" x2="-159.8" y2="1208.1" opacity="0.05"/><line x1="1363.8" y1="72.7" x2="-173.3" y2="1189.5" opacity="0.05"/><line x1="1350.3" y1="54.1" x2="-186.9" y2="1170.8" opacity="0.05"/><line x1="1336.7" y1="35.4" x2="-200.4" y2="1152.2" opacity="0.05"/><line x1="1323.2" y1="16.8" x2="-213.9" y2="1133.6" opacity="0.05"/><line x1="1309.7" y1="-1.8" x2="-227.4" y2="1115" opacity="0.05"/><line x1="1296.2" y1="-20.4" x2="-240.9" y2="1096.4" opacity="0.05"/><line x1="1282.7" y1="-39" x2="-254.5" y2="1077.8" opacity="0.05"/><line x1="1269.2" y1="-57.6" x2="-268" y2="1059.2" opacity="0.05"/><line x1="1255.6" y1="-76.2" x2="-281.5" y2="1040.6" opacity="0.05"/><line x1="1242.1" y1="-94.8" x2="-295" y2="1022" opacity="0.05"/><line x1="1228.6" y1="-113.4" x2="-308.5" y2="1003.4" opacity="0.05"/><line x1="1215.1" y1="-132" x2="-322.1" y2="984.8" opacity="0.05"/><line x1="1201.6" y1="-150.6" x2="-335.6" y2="966.2" opacity="0.05"/><line x1="1188" y1="-169.2" x2="-349.1" y2="947.6" opacity="0.05"/><line x1="1174.5" y1="-187.8" x2="-362.6" y2="929" opacity="0.05"/><line x1="1161" y1="-206.4" x2="-376.1" y2="910.3" opacity="0.05"/><line x1="1147.5" y1="-225.1" x2="-389.6" y2="891.7" opacity="0.05"/><line x1="1134" y1="-243.7" x2="-403.2" y2="873.1" opacity="0.05"/><line x1="1120.4" y1="-262.3" x2="-416.7" y2="854.5" opacity="0.05"/><line x1="1106.9" y1="-280.9" x2="-430.2" y2="835.9" opacity="0.05"/><line x1="1093.4" y1="-299.5" x2="-443.7" y2="817.3" opacity="0.05"/><line x1="1079.9" y1="-318.1" x2="-457.2" y2="798.7" opacity="0.05"/><line x1="1066.4" y1="-336.7" x2="-470.8" y2="780.1" opacity="0.05"/><line x1="1052.8" y1="-355.3" x2="-484.3" y2="761.5" opacity="0.05"/><line x1="1039.3" y1="-373.9" x2="-497.8" y2="742.9" opacity="0.05"/><line x1="1025.8" y1="-392.5" x2="-511.3" y2="724.3" opacity="0.05"/><line x1="1012.3" y1="-411.1" x2="-524.8" y2="705.7" opacity="0.05"/><line x1="998.8" y1="-429.7" x2="-538.4" y2="687.1" opacity="0.05"/><line x1="985.3" y1="-448.3" x2="-551.9" y2="668.4" opacity="0.05"/><line x1="971.7" y1="-466.9" x2="-565.4" y2="649.8" opacity="0.05"/><line x1="958.2" y1="-485.6" x2="-578.9" y2="631.2" opacity="0.05"/><line x1="944.7" y1="-504.2" x2="-592.4" y2="612.6" opacity="0.05"/><line x1="931.2" y1="-522.8" x2="-606" y2="594" opacity="0.05"/><line x1="917.7" y1="-541.4" x2="-619.5" y2="575.4" opacity="0.05"/><line x1="904.1" y1="-560" x2="-633" y2="556.8" opacity="0.05"/><line x1="890.6" y1="-578.6" x2="-646.5" y2="538.2" opacity="0.05"/><line x1="877.1" y1="-597.2" x2="-660" y2="519.6" opacity="0.05"/><line x1="863.6" y1="-615.8" x2="-673.6" y2="501" opacity="0.05"/><line x1="850.1" y1="-634.4" x2="-687.1" y2="482.4" opacity="0.05"/><line x1="836.5" y1="-653" x2="-700.6" y2="463.8" opacity="0.05"/><line x1="823" y1="-671.6" x2="-714.1" y2="445.2" opacity="0.05"/><line x1="1638.4" y1="929.2" x2="-168.7" y2="1516.4" opacity="0.05"/><line x1="1631.2" y1="907.4" x2="-175.8" y2="1494.5" opacity="0.05"/><line x1="1624.1" y1="885.5" x2="-182.9" y2="1472.6" opacity="0.05"/><line x1="1617" y1="863.6" x2="-190" y2="1450.7" opacity="0.05"/><line x1="1609.9" y1="841.7" x2="-197.1" y2="1428.9" opacity="0.05"/><line x1="1602.8" y1="819.9" x2="-204.2" y2="1407" opacity="0.05"/><line x1="1595.7" y1="798" x2="-211.3" y2="1385.1" opacity="0.05"/><line x1="1588.6" y1="776.1" x2="-218.4" y2="1363.2" opacity="0.05"/><line x1="1581.5" y1="754.2" x2="-225.5" y2="1341.4" opacity="0.05"/><line x1="1574.4" y1="732.4" x2="-232.6" y2="1319.5" opacity="0.05"/><line x1="1567.3" y1="710.5" x2="-239.7" y2="1297.6" opacity="0.05"/><line x1="1560.2" y1="688.6" x2="-246.8" y2="1275.8" opacity="0.05"/><line x1="1553.1" y1="666.7" x2="-253.9" y2="1253.9" opacity="0.05"/><line x1="1546" y1="644.9" x2="-261" y2="1232" opacity="0.05"/><line x1="1538.9" y1="623" x2="-268.2" y2="1210.1" opacity="0.05"/><line x1="1531.7" y1="601.1" x2="-275.3" y2="1188.3" opacity="0.05"/><line x1="1524.6" y1="579.2" x2="-282.4" y2="1166.4" opacity="0.05"/><line x1="1517.5" y1="557.4" x2="-289.5" y2="1144.5" opacity="0.05"/><line x1="1510.4" y1="535.5" x2="-296.6" y2="1122.6" opacity="0.05"/><line x1="1503.3" y1="513.6" x2="-303.7" y2="1100.8" opacity="0.05"/><line x1="1496.2" y1="491.8" x2="-310.8" y2="1078.9" opacity="0.05"/><line x1="1489.1" y1="469.9" x2="-317.9" y2="1057" opacity="0.05"/><line x1="1482" y1="448" x2="-325" y2="1035.1" opacity="0.05"/><line x1="1474.9" y1="426.1" x2="-332.1" y2="1013.3" opacity="0.05"/><line x1="1467.8" y1="404.3" x2="-339.2" y2="991.4" opacity="0.05"/><line x1="1460.7" y1="382.4" x2="-346.3" y2="969.5" opacity="0.05"/><line x1="1453.6" y1="360.5" x2="-353.4" y2="947.6" opacity="0.05"/><line x1="1446.5" y1="338.6" x2="-360.6" y2="925.8" opacity="0.05"/><line x1="1439.3" y1="316.8" x2="-367.7" y2="903.9" opacity="0.05"/><line x1="1432.2" y1="294.9" x2="-374.8" y2="882" opacity="0.05"/><line x1="1425.1" y1="273" x2="-381.9" y2="860.1" opacity="0.05"/><line x1="1418" y1="251.1" x2="-389" y2="838.3" opacity="0.05"/><line x1="1410.9" y1="229.3" x2="-396.1" y2="816.4" opacity="0.05"/><line x1="1403.8" y1="207.4" x2="-403.2" y2="794.5" opacity="0.05"/><line x1="1396.7" y1="185.5" x2="-410.3" y2="772.6" opacity="0.05"/><line x1="1389.6" y1="163.6" x2="-417.4" y2="750.8" opacity="0.05"/><line x1="1382.5" y1="141.8" x2="-424.5" y2="728.9" opacity="0.05"/><line x1="1375.4" y1="119.9" x2="-431.6" y2="707" opacity="0.05"/><line x1="1368.3" y1="98" x2="-438.7" y2="685.1" opacity="0.05"/><line x1="1361.2" y1="76.1" x2="-445.8" y2="663.3" opacity="0.05"/><line x1="1354.1" y1="54.3" x2="-452.9" y2="641.4" opacity="0.05"/><line x1="1347" y1="32.4" x2="-460.1" y2="619.5" opacity="0.05"/><line x1="1339.8" y1="10.5" x2="-467.2" y2="597.6" opacity="0.05"/><line x1="1332.7" y1="-11.4" x2="-474.3" y2="575.8" opacity="0.05"/><line x1="1325.6" y1="-33.2" x2="-481.4" y2="553.9" opacity="0.05"/><line x1="1318.5" y1="-55.1" x2="-488.5" y2="532" opacity="0.05"/><line x1="1311.4" y1="-77" x2="-495.6" y2="510.2" opacity="0.05"/><line x1="1304.3" y1="-98.9" x2="-502.7" y2="488.3" opacity="0.05"/><line x1="1297.2" y1="-120.7" x2="-509.8" y2="466.4" opacity="0.05"/><line x1="1290.1" y1="-142.6" x2="-516.9" y2="444.5" opacity="0.05"/><line x1="1283" y1="-164.5" x2="-524" y2="422.7" opacity="0.05"/><line x1="1275.9" y1="-186.4" x2="-531.1" y2="400.8" opacity="0.05"/><line x1="1268.8" y1="-208.2" x2="-538.2" y2="378.9" opacity="0.05"/><line x1="1261.7" y1="-230.1" x2="-545.3" y2="357" opacity="0.05"/><line x1="1254.6" y1="-252" x2="-552.4" y2="335.2" opacity="0.05"/><line x1="1247.5" y1="-273.8" x2="-559.6" y2="313.3" opacity="0.05"/><line x1="1240.3" y1="-295.7" x2="-566.7" y2="291.4" opacity="0.05"/><line x1="1233.2" y1="-317.6" x2="-573.8" y2="269.5" opacity="0.05"/><line x1="1226.1" y1="-339.5" x2="-580.9" y2="247.7" opacity="0.05"/><line x1="1219" y1="-361.3" x2="-588" y2="225.8" opacity="0.05"/><line x1="1211.9" y1="-383.2" x2="-595.1" y2="203.9" opacity="0.05"/><line x1="1204.8" y1="-405.1" x2="-602.2" y2="182" opacity="0.05"/><line x1="1197.7" y1="-427" x2="-609.3" y2="160.2" opacity="0.05"/><line x1="1190.6" y1="-448.8" x2="-616.4" y2="138.3" opacity="0.05"/><line x1="1183.5" y1="-470.7" x2="-623.5" y2="116.4" opacity="0.05"/><line x1="1176.4" y1="-492.6" x2="-630.6" y2="94.5" opacity="0.05"/><line x1="1169.3" y1="-514.5" x2="-637.7" y2="72.7" opacity="0.05"/></g></svg>