<svg xmlns="http://www.w3.org/2000/svg" viewBox="0 0 1000 1000" preserveAspectRatio="xMidYMid slice" fill="none" stroke-linecap="round" stroke-linejoin="round"><g fill="#0f3d2e"><circle cx="885.8" cy="556.1" r="1.6" opacity="0.167"/><circle cx="845.1" cy="542.8" r="1.6" opacity="0.155"/><circle cx="845.1" cy="569.3" r="1.6" opacity="0.156"/><circle cx="845.1" cy="500" r="1.6" opacity="0.154"/><circle cx="804.4" cy="556.1" r="1.6" opacity="0.145"/><circle cx="779.2" cy="590.7" r="1.6" opacity="0.14"/><circle cx="911" cy="590.7" r="1.6" opacity="0.175"/><circle cx="885.8" cy="625.4" r="1.6" opacity="0.171"/><circle cx="911" cy="633.5" r="1.6" opacity="0.178"/><circle cx="951.8" cy="646.8" r="1.6" opacity="0.19"/><circle cx="819.9" cy="604" r="1.6" opacity="0.152"/><circle cx="860.7" cy="590.7" r="1.6" opacity="0.162"/><circle cx="911" cy="478.6" r="1.6" opacity="0.173"/><circle cx="951.8" cy="465.3" r="1.6" opacity="0.184"/><circle cx="885.8" cy="443.9" r="1.6" opacity="0.167"/><circle cx="870.3" cy="465.3" r="1.6" opacity="0.162"/><circle cx="926.6" cy="387.9" r="1.6" opacity="0.181"/><circle cx="951.8" cy="353.2" r="1.6" opacity="0.19"/><circle cx="951.8" cy="422.5" r="1.6" opacity="0.185"/><circle cx="926.6" cy="430.7" r="1.6" opacity="0.178"/><circle cx="951.8" cy="577.5" r="1.6" opacity="0.185"/><circle cx="951.8" cy="604" r="1.6" opacity="0.187"/><circle cx="951.8" cy="508.2" r="1.6" opacity="0.184"/><circle cx="911" cy="521.4" r="1.6" opacity="0.173"/><circle cx="926.6" cy="542.8" r="1.6" opacity="0.177"/><circle cx="885.8" cy="513.2" r="1.6" opacity="0.166"/><circle cx="672.6" cy="513.2" r="1.6" opacity="0.107"/><circle cx="672.6" cy="556.1" r="1.6" opacity="0.11"/><circle cx="713.3" cy="500" r="1.6" opacity="0.118"/><circle cx="697.7" cy="478.6" r="1.6" opacity="0.114"/><circle cx="672.6" cy="443.9" r="1.6" opacity="0.11"/><circle cx="754" cy="556.1" r="1.6" opacity="0.131"/><circle cx="713.3" cy="569.3" r="1.6" opacity="0.121"/><circle cx="713.3" cy="542.8" r="1.6" opacity="0.12"/><circle cx="565.9" cy="478.6" r="1.6" opacity="0.079"/><circle cx="606.6" cy="465.3" r="1.6" opacity="0.091"/><circle cx="565.9" cy="521.4" r="1.6" opacity="0.079"/><circle cx="540.7" cy="513.2" r="1.6" opacity="0.072"/><circle cx="500" cy="500" r="1.6" opacity="0.06"/><circle cx="631.8" cy="542.8" r="1.6" opacity="0.098"/><circle cx="631.8" cy="500" r="1.6" opacity="0.096"/><circle cx="606.6" cy="508.2" r="1.6" opacity="0.089"/><circle cx="647.4" cy="478.6" r="1.6" opacity="0.101"/><circle cx="845.1" cy="430.7" r="1.6" opacity="0.156"/><circle cx="845.1" cy="387.9" r="1.6" opacity="0.159"/><circle cx="885.8" cy="374.6" r="1.6" opacity="0.171"/><circle cx="885.8" cy="401.1" r="1.6" opacity="0.169"/><circle cx="738.5" cy="465.3" r="1.6" opacity="0.126"/><circle cx="779.2" cy="478.6" r="1.6" opacity="0.137"/><circle cx="738.5" cy="422.5" r="1.6" opacity="0.129"/><circle cx="713.3" cy="430.7" r="1.6" opacity="0.121"/><circle cx="804.4" cy="401.1" r="1.6" opacity="0.148"/><circle cx="804.4" cy="443.9" r="1.6" opacity="0.145"/><circle cx="779.2" cy="435.8" r="1.6" opacity="0.138"/><circle cx="819.9" cy="465.3" r="1.6" opacity="0.148"/><circle cx="804.4" cy="513.2" r="1.6" opacity="0.143"/><circle cx="779.2" cy="521.4" r="1.6" opacity="0.137"/><circle cx="754" cy="513.2" r="1.6" opacity="0.13"/><circle cx="845.1" cy="681.4" r="1.6" opacity="0.167"/><circle cx="804.4" cy="668.2" r="1.6" opacity="0.155"/><circle cx="819.9" cy="646.8" r="1.6" opacity="0.156"/><circle cx="779.2" cy="702.8" r="1.6" opacity="0.154"/><circle cx="779.2" cy="633.5" r="1.6" opacity="0.145"/><circle cx="885.8" cy="668.2" r="1.6" opacity="0.175"/><circle cx="845.1" cy="638.6" r="1.6" opacity="0.162"/><circle cx="819.9" cy="758.9" r="1.6" opacity="0.173"/><circle cx="845.1" cy="793.6" r="1.6" opacity="0.184"/><circle cx="779.2" cy="772.2" r="1.6" opacity="0.167"/><circle cx="779.2" cy="745.7" r="1.6" opacity="0.162"/><circle cx="779.2" cy="841.5" r="1.6" opacity="0.181"/><circle cx="779.2" cy="884.3" r="1.6" opacity="0.19"/><circle cx="819.9" cy="828.2" r="1.6" opacity="0.185"/><circle cx="804.4" cy="806.8" r="1.6" opacity="0.178"/><circle cx="911" cy="702.8" r="1.6" opacity="0.185"/><circle cx="926.6" cy="681.4" r="1.6" opacity="0.187"/><circle cx="870.3" cy="758.9" r="1.6" opacity="0.184"/><circle cx="845.1" cy="724.3" r="1.6" opacity="0.173"/><circle cx="870.3" cy="716.1" r="1.6" opacity="0.177"/><circle cx="819.9" cy="716.1" r="1.6" opacity="0.166"/><circle cx="647.4" cy="590.7" r="1.6" opacity="0.107"/><circle cx="672.6" cy="625.4" r="1.6" opacity="0.118"/><circle cx="647.4" cy="633.5" r="1.6" opacity="0.114"/><circle cx="606.6" cy="646.8" r="1.6" opacity="0.11"/><circle cx="738.5" cy="604" r="1.6" opacity="0.131"/><circle cx="697.7" cy="590.7" r="1.6" opacity="0.12"/><circle cx="540.7" cy="556.1" r="1.6" opacity="0.079"/><circle cx="565.9" cy="590.7" r="1.6" opacity="0.091"/><circle cx="606.6" cy="577.5" r="1.6" opacity="0.096"/><circle cx="591.1" cy="556.1" r="1.6" opacity="0.089"/><circle cx="606.6" cy="604" r="1.6" opacity="0.101"/><circle cx="738.5" cy="758.9" r="1.6" opacity="0.156"/><circle cx="713.3" cy="793.6" r="1.6" opacity="0.159"/><circle cx="738.5" cy="828.2" r="1.6" opacity="0.171"/><circle cx="754" cy="806.8" r="1.6" opacity="0.169"/><circle cx="672.6" cy="668.2" r="1.6" opacity="0.126"/><circle cx="713.3" cy="681.4" r="1.6" opacity="0.137"/><circle cx="647.4" cy="702.8" r="1.6" opacity="0.129"/><circle cx="631.8" cy="681.4" r="1.6" opacity="0.121"/><circle cx="688.1" cy="758.9" r="1.6" opacity="0.148"/><circle cx="713.3" cy="724.3" r="1.6" opacity="0.145"/><circle cx="688.1" cy="716.1" r="1.6" opacity="0.138"/><circle cx="738.5" cy="716.1" r="1.6" opacity="0.148"/><circle cx="754" cy="668.2" r="1.6" opacity="0.143"/><circle cx="738.5" cy="646.8" r="1.6" opacity="0.137"/><circle cx="713.3" cy="638.6" r="1.6" opacity="0.13"/><circle cx="565.9" cy="884.3" r="1.6" opacity="0.167"/><circle cx="565.9" cy="841.5" r="1.6" opacity="0.155"/><circle cx="540.7" cy="849.6" r="1.6" opacity="0.156"/><circle cx="606.6" cy="828.2" r="1.6" opacity="0.154"/><circle cx="540.7" cy="806.8" r="1.6" opacity="0.145"/><circle cx="500" cy="793.6" r="1.6" opacity="0.14"/><circle cx="540.7" cy="918.9" r="1.6" opacity="0.175"/><circle cx="500" cy="905.7" r="1.6" opacity="0.171"/><circle cx="500" cy="932.2" r="1.6" opacity="0.178"/><circle cx="500" cy="975" r="1.6" opacity="0.19"/><circle cx="500" cy="836.4" r="1.6" opacity="0.152"/><circle cx="525.2" cy="871" r="1.6" opacity="0.162"/><circle cx="647.4" cy="884.3" r="1.6" opacity="0.173"/><circle cx="672.6" cy="918.9" r="1.6" opacity="0.184"/><circle cx="672.6" cy="849.6" r="1.6" opacity="0.167"/><circle cx="647.4" cy="841.5" r="1.6" opacity="0.162"/><circle cx="738.5" cy="871" r="1.6" opacity="0.181"/><circle cx="713.3" cy="905.7" r="1.6" opacity="0.185"/><circle cx="697.7" cy="884.3" r="1.6" opacity="0.178"/><circle cx="565.9" cy="953.6" r="1.6" opacity="0.185"/><circle cx="540.7" cy="961.8" r="1.6" opacity="0.187"/><circle cx="631.8" cy="932.2" r="1.6" opacity="0.184"/><circle cx="606.6" cy="897.5" r="1.6" opacity="0.173"/><circle cx="591.1" cy="918.9" r="1.6" opacity="0.177"/><circle cx="606.6" cy="871" r="1.6" opacity="0.166"/><circle cx="540.7" cy="668.2" r="1.6" opacity="0.107"/><circle cx="500" cy="681.4" r="1.6" opacity="0.11"/><circle cx="565.9" cy="702.8" r="1.6" opacity="0.118"/><circle cx="581.5" cy="681.4" r="1.6" opacity="0.114"/><circle cx="525.2" cy="758.9" r="1.6" opacity="0.131"/><circle cx="500" cy="724.3" r="1.6" opacity="0.121"/><circle cx="525.2" cy="716.1" r="1.6" opacity="0.12"/><circle cx="500" cy="569.3" r="1.6" opacity="0.079"/><circle cx="500" cy="542.8" r="1.6" opacity="0.072"/><circle cx="500" cy="638.6" r="1.6" opacity="0.098"/><circle cx="540.7" cy="625.4" r="1.6" opacity="0.096"/><circle cx="525.2" cy="604" r="1.6" opacity="0.089"/><circle cx="565.9" cy="633.5" r="1.6" opacity="0.101"/><circle cx="672.6" cy="806.8" r="1.6" opacity="0.156"/><circle cx="713.3" cy="836.4" r="1.6" opacity="0.169"/><circle cx="606.6" cy="716.1" r="1.6" opacity="0.126"/><circle cx="606.6" cy="758.9" r="1.6" opacity="0.137"/><circle cx="647.4" cy="772.2" r="1.6" opacity="0.145"/><circle cx="647.4" cy="745.7" r="1.6" opacity="0.138"/><circle cx="631.8" cy="793.6" r="1.6" opacity="0.148"/><circle cx="581.5" cy="793.6" r="1.6" opacity="0.143"/><circle cx="565.9" cy="772.2" r="1.6" opacity="0.137"/><circle cx="565.9" cy="745.7" r="1.6" opacity="0.13"/><circle cx="434.1" cy="884.3" r="1.6" opacity="0.167"/><circle cx="434.1" cy="841.5" r="1.6" opacity="0.155"/><circle cx="459.3" cy="849.6" r="1.6" opacity="0.156"/><circle cx="393.4" cy="828.2" r="1.6" opacity="0.154"/><circle cx="459.3" cy="806.8" r="1.6" opacity="0.145"/><circle cx="459.3" cy="918.9" r="1.6" opacity="0.175"/><circle cx="474.8" cy="871" r="1.6" opacity="0.162"/><circle cx="352.6" cy="884.3" r="1.6" opacity="0.173"/><circle cx="327.4" cy="918.9" r="1.6" opacity="0.184"/><circle cx="327.4" cy="849.6" r="1.6" opacity="0.167"/><circle cx="352.6" cy="841.5" r="1.6" opacity="0.162"/><circle cx="261.5" cy="871" r="1.6" opacity="0.181"/><circle cx="220.8" cy="884.3" r="1.6" opacity="0.19"/><circle cx="286.7" cy="905.7" r="1.6" opacity="0.185"/><circle cx="302.3" cy="884.3" r="1.6" opacity="0.178"/><circle cx="434.1" cy="953.6" r="1.6" opacity="0.185"/><circle cx="459.3" cy="961.8" r="1.6" opacity="0.187"/><circle cx="368.2" cy="932.2" r="1.6" opacity="0.184"/><circle cx="393.4" cy="897.5" r="1.6" opacity="0.173"/><circle cx="408.9" cy="918.9" r="1.6" opacity="0.177"/><circle cx="393.4" cy="871" r="1.6" opacity="0.166"/><circle cx="459.3" cy="668.2" r="1.6" opacity="0.107"/><circle cx="434.1" cy="702.8" r="1.6" opacity="0.118"/><circle cx="418.5" cy="681.4" r="1.6" opacity="0.114"/><circle cx="393.4" cy="646.8" r="1.6" opacity="0.11"/><circle cx="474.8" cy="758.9" r="1.6" opacity="0.131"/><circle cx="474.8" cy="716.1" r="1.6" opacity="0.12"/><circle cx="459.3" cy="556.1" r="1.6" opacity="0.079"/><circle cx="434.1" cy="590.7" r="1.6" opacity="0.091"/><circle cx="459.3" cy="625.4" r="1.6" opacity="0.096"/><circle cx="474.8" cy="604" r="1.6" opacity="0.089"/><circle cx="434.1" cy="633.5" r="1.6" opacity="0.101"/><circle cx="327.4" cy="806.8" r="1.6" opacity="0.156"/><circle cx="286.7" cy="793.6" r="1.6" opacity="0.159"/><circle cx="261.5" cy="828.2" r="1.6" opacity="0.171"/><circle cx="286.7" cy="836.4" r="1.6" opacity="0.169"/><circle cx="393.4" cy="716.1" r="1.6" opacity="0.126"/><circle cx="393.4" cy="758.9" r="1.6" opacity="0.137"/><circle cx="352.6" cy="702.8" r="1.6" opacity="0.129"/><circle cx="368.2" cy="681.4" r="1.6" opacity="0.121"/><circle cx="311.9" cy="758.9" r="1.6" opacity="0.148"/><circle cx="352.6" cy="772.2" r="1.6" opacity="0.145"/><circle cx="352.6" cy="745.7" r="1.6" opacity="0.138"/><circle cx="368.2" cy="793.6" r="1.6" opacity="0.148"/><circle cx="418.5" cy="793.6" r="1.6" opacity="0.143"/><circle cx="434.1" cy="772.2" r="1.6" opacity="0.137"/><circle cx="434.1" cy="745.7" r="1.6" opacity="0.13"/><circle cx="154.9" cy="681.4" r="1.6" opacity="0.167"/><circle cx="195.6" cy="668.2" r="1.6" opacity="0.155"/><circle cx="180.1" cy="646.8" r="1.6" opacity="0.156"/><circle cx="220.8" cy="702.8" r="1.6" opacity="0.154"/><circle cx="220.8" cy="633.5" r="1.6" opacity="0.145"/><circle cx="220.8" cy="590.7" r="1.6" opacity="0.14"/><circle cx="114.2" cy="668.2" r="1.6" opacity="0.175"/><circle cx="114.2" cy="625.4" r="1.6" opacity="0.171"/><circle cx="89" cy="633.5" r="1.6" opacity="0.178"/><circle cx="48.2" cy="646.8" r="1.6" opacity="0.19"/><circle cx="180.1" cy="604" r="1.6" opacity="0.152"/><circle cx="154.9" cy="638.6" r="1.6" opacity="0.162"/><circle cx="180.1" cy="758.9" r="1.6" opacity="0.173"/><circle cx="154.9" cy="793.6" r="1.6" opacity="0.184"/><circle cx="220.8" cy="772.2" r="1.6" opacity="0.167"/><circle cx="220.8" cy="745.7" r="1.6" opacity="0.162"/><circle cx="220.8" cy="841.5" r="1.6" opacity="0.181"/><circle cx="180.1" cy="828.2" r="1.6" opacity="0.185"/><circle cx="195.6" cy="806.8" r="1.6" opacity="0.178"/><circle cx="89" cy="702.8" r="1.6" opacity="0.185"/><circle cx="73.4" cy="681.4" r="1.6" opacity="0.187"/><circle cx="129.7" cy="758.9" r="1.6" opacity="0.184"/><circle cx="154.9" cy="724.3" r="1.6" opacity="0.173"/><circle cx="129.7" cy="716.1" r="1.6" opacity="0.177"/><circle cx="180.1" cy="716.1" r="1.6" opacity="0.166"/><circle cx="352.6" cy="590.7" r="1.6" opacity="0.107"/><circle cx="327.4" cy="556.1" r="1.6" opacity="0.11"/><circle cx="327.4" cy="625.4" r="1.6" opacity="0.118"/><circle cx="352.6" cy="633.5" r="1.6" opacity="0.114"/><circle cx="261.5" cy="604" r="1.6" opacity="0.131"/><circle cx="286.7" cy="569.3" r="1.6" opacity="0.121"/><circle cx="302.3" cy="590.7" r="1.6" opacity="0.12"/><circle cx="434.1" cy="521.4" r="1.6" opacity="0.079"/><circle cx="459.3" cy="513.2" r="1.6" opacity="0.072"/><circle cx="368.2" cy="542.8" r="1.6" opacity="0.098"/><circle cx="393.4" cy="577.5" r="1.6" opacity="0.096"/><circle cx="408.9" cy="556.1" r="1.6" opacity="0.089"/><circle cx="393.4" cy="604" r="1.6" opacity="0.101"/><circle cx="261.5" cy="758.9" r="1.6" opacity="0.156"/><circle cx="246" cy="806.8" r="1.6" opacity="0.169"/><circle cx="327.4" cy="668.2" r="1.6" opacity="0.126"/><circle cx="286.7" cy="681.4" r="1.6" opacity="0.137"/><circle cx="286.7" cy="724.3" r="1.6" opacity="0.145"/><circle cx="311.9" cy="716.1" r="1.6" opacity="0.138"/><circle cx="261.5" cy="716.1" r="1.6" opacity="0.148"/><circle cx="246" cy="668.2" r="1.6" opacity="0.143"/><circle cx="261.5" cy="646.8" r="1.6" opacity="0.137"/><circle cx="286.7" cy="638.6" r="1.6" opacity="0.13"/><circle cx="114.2" cy="556.1" r="1.6" opacity="0.167"/><circle cx="154.9" cy="542.8" r="1.6" opacity="0.155"/><circle cx="154.9" cy="569.3" r="1.6" opacity="0.156"/><circle cx="154.9" cy="500" r="1.6" opacity="0.154"/><circle cx="195.6" cy="556.1" r="1.6" opacity="0.145"/><circle cx="89" cy="590.7" r="1.6" opacity="0.175"/><circle cx="139.3" cy="590.7" r="1.6" opacity="0.162"/><circle cx="89" cy="478.6" r="1.6" opacity="0.173"/><circle cx="48.2" cy="465.3" r="1.6" opacity="0.184"/><circle cx="114.2" cy="443.9" r="1.6" opacity="0.167"/><circle cx="129.7" cy="465.3" r="1.6" opacity="0.162"/><circle cx="73.4" cy="387.9" r="1.6" opacity="0.181"/><circle cx="48.2" cy="353.2" r="1.6" opacity="0.19"/><circle cx="48.2" cy="422.5" r="1.6" opacity="0.185"/><circle cx="73.4" cy="430.7" r="1.6" opacity="0.178"/><circle cx="48.2" cy="577.5" r="1.6" opacity="0.185"/><circle cx="48.2" cy="604" r="1.6" opacity="0.187"/><circle cx="48.2" cy="508.2" r="1.6" opacity="0.184"/><circle cx="89" cy="521.4" r="1.6" opacity="0.173"/><circle cx="73.4" cy="542.8" r="1.6" opacity="0.177"/><circle cx="114.2" cy="513.2" r="1.6" opacity="0.166"/><circle cx="327.4" cy="513.2" r="1.6" opacity="0.107"/><circle cx="286.7" cy="500" r="1.6" opacity="0.118"/><circle cx="302.3" cy="478.6" r="1.6" opacity="0.114"/><circle cx="327.4" cy="443.9" r="1.6" opacity="0.11"/><circle cx="246" cy="556.1" r="1.6" opacity="0.131"/><circle cx="286.7" cy="542.8" r="1.6" opacity="0.12"/><circle cx="434.1" cy="478.6" r="1.6" opacity="0.079"/><circle cx="393.4" cy="465.3" r="1.6" opacity="0.091"/><circle cx="368.2" cy="500" r="1.6" opacity="0.096"/><circle cx="393.4" cy="508.2" r="1.6" opacity="0.089"/><circle cx="352.6" cy="478.6" r="1.6" opacity="0.101"/><circle cx="154.9" cy="430.7" r="1.6" opacity="0.156"/><circle cx="154.9" cy="387.9" r="1.6" opacity="0.159"/><circle cx="114.2" cy="374.6" r="1.6" opacity="0.171"/><circle cx="114.2" cy="401.1" r="1.6" opacity="0.169"/><circle cx="261.5" cy="465.3" r="1.6" opacity="0.126"/><circle cx="220.8" cy="478.6" r="1.6" opacity="0.137"/><circle cx="261.5" cy="422.5" r="1.6" opacity="0.129"/><circle cx="286.7" cy="430.7" r="1.6" opacity="0.121"/><circle cx="195.6" cy="401.1" r="1.6" opacity="0.148"/><circle cx="195.6" cy="443.9" r="1.6" opacity="0.145"/><circle cx="220.8" cy="435.8" r="1.6" opacity="0.138"/><circle cx="180.1" cy="465.3" r="1.6" opacity="0.148"/><circle cx="195.6" cy="513.2" r="1.6" opacity="0.143"/><circle cx="220.8" cy="521.4" r="1.6" opacity="0.137"/><circle cx="246" cy="513.2" r="1.6" opacity="0.13"/><circle cx="220.8" cy="227.8" r="1.6" opacity="0.167"/><circle cx="246" cy="262.5" r="1.6" opacity="0.155"/><circle cx="261.5" cy="241.1" r="1.6" opacity="0.156"/><circle cx="220.8" cy="297.2" r="1.6" opacity="0.154"/><circle cx="286.7" cy="275.7" r="1.6" opacity="0.145"/><circle cx="327.4" cy="262.5" r="1.6" opacity="0.14"/><circle cx="220.8" cy="185" r="1.6" opacity="0.175"/><circle cx="261.5" cy="171.8" r="1.6" opacity="0.171"/><circle cx="246" cy="150.4" r="1.6" opacity="0.178"/><circle cx="220.8" cy="115.7" r="1.6" opacity="0.19"/><circle cx="302.3" cy="227.8" r="1.6" opacity="0.152"/><circle cx="261.5" cy="214.6" r="1.6" opacity="0.162"/><circle cx="154.9" cy="275.7" r="1.6" opacity="0.173"/><circle cx="114.2" cy="262.5" r="1.6" opacity="0.184"/><circle cx="154.9" cy="318.6" r="1.6" opacity="0.167"/><circle cx="180.1" cy="310.4" r="1.6" opacity="0.162"/><circle cx="89" cy="340" r="1.6" opacity="0.181"/><circle cx="89" cy="297.2" r="1.6" opacity="0.185"/><circle cx="114.2" cy="305.3" r="1.6" opacity="0.178"/><circle cx="180.1" cy="171.8" r="1.6" opacity="0.185"/><circle cx="195.6" cy="150.4" r="1.6" opacity="0.187"/><circle cx="139.3" cy="227.8" r="1.6" opacity="0.184"/><circle cx="180.1" cy="241.1" r="1.6" opacity="0.173"/><circle cx="180.1" cy="214.6" r="1.6" opacity="0.177"/><circle cx="195.6" cy="262.5" r="1.6" opacity="0.166"/><circle cx="368.2" cy="387.9" r="1.6" opacity="0.107"/><circle cx="393.4" cy="353.2" r="1.6" opacity="0.11"/><circle cx="327.4" cy="374.6" r="1.6" opacity="0.118"/><circle cx="327.4" cy="401.1" r="1.6" opacity="0.114"/><circle cx="327.4" cy="305.3" r="1.6" opacity="0.131"/><circle cx="368.2" cy="318.6" r="1.6" opacity="0.121"/><circle cx="352.6" cy="340" r="1.6" opacity="0.12"/><circle cx="459.3" cy="443.9" r="1.6" opacity="0.079"/><circle cx="474.8" cy="465.3" r="1.6" opacity="0.072"/><circle cx="418.5" cy="387.9" r="1.6" opacity="0.098"/><circle cx="393.4" cy="422.5" r="1.6" opacity="0.096"/><circle cx="418.5" cy="430.7" r="1.6" opacity="0.089"/><circle cx="368.2" cy="430.7" r="1.6" opacity="0.101"/><circle cx="180.1" cy="353.2" r="1.6" opacity="0.156"/><circle cx="129.7" cy="353.2" r="1.6" opacity="0.169"/><circle cx="286.7" cy="387.9" r="1.6" opacity="0.126"/><circle cx="261.5" cy="353.2" r="1.6" opacity="0.137"/><circle cx="220.8" cy="366.5" r="1.6" opacity="0.145"/><circle cx="236.4" cy="387.9" r="1.6" opacity="0.138"/><circle cx="220.8" cy="340" r="1.6" opacity="0.148"/><circle cx="261.5" cy="310.4" r="1.6" opacity="0.143"/><circle cx="286.7" cy="318.6" r="1.6" opacity="0.137"/><circle cx="302.3" cy="340" r="1.6" opacity="0.13"/><circle cx="327.4" cy="150.4" r="1.6" opacity="0.167"/><circle cx="352.6" cy="185" r="1.6" opacity="0.155"/><circle cx="327.4" cy="193.2" r="1.6" opacity="0.156"/><circle cx="393.4" cy="171.8" r="1.6" opacity="0.154"/><circle cx="352.6" cy="227.8" r="1.6" opacity="0.145"/><circle cx="286.7" cy="137.1" r="1.6" opacity="0.175"/><circle cx="302.3" cy="185" r="1.6" opacity="0.162"/><circle cx="393.4" cy="102.5" r="1.6" opacity="0.173"/><circle cx="393.4" cy="59.7" r="1.6" opacity="0.184"/><circle cx="434.1" cy="115.7" r="1.6" opacity="0.167"/><circle cx="418.5" cy="137.1" r="1.6" opacity="0.162"/><circle cx="474.8" cy="59.7" r="1.6" opacity="0.181"/><circle cx="500" cy="25" r="1.6" opacity="0.19"/><circle cx="434.1" cy="46.4" r="1.6" opacity="0.185"/><circle cx="434.1" cy="72.9" r="1.6" opacity="0.178"/><circle cx="286.7" cy="94.3" r="1.6" opacity="0.185"/><circle cx="261.5" cy="102.5" r="1.6" opacity="0.187"/><circle cx="352.6" cy="72.9" r="1.6" opacity="0.184"/><circle cx="352.6" cy="115.7" r="1.6" opacity="0.173"/><circle cx="327.4" cy="107.5" r="1.6" opacity="0.177"/><circle cx="368.2" cy="137.1" r="1.6" opacity="0.166"/><circle cx="434.1" cy="340" r="1.6" opacity="0.107"/><circle cx="434.1" cy="297.2" r="1.6" opacity="0.118"/><circle cx="459.3" cy="305.3" r="1.6" opacity="0.114"/><circle cx="500" cy="318.6" r="1.6" opacity="0.11"/><circle cx="368.2" cy="275.7" r="1.6" opacity="0.131"/><circle cx="393.4" cy="310.4" r="1.6" opacity="0.12"/><circle cx="500" cy="430.7" r="1.6" opacity="0.079"/><circle cx="500" cy="387.9" r="1.6" opacity="0.091"/><circle cx="459.3" cy="374.6" r="1.6" opacity="0.096"/><circle cx="459.3" cy="401.1" r="1.6" opacity="0.089"/><circle cx="474.8" cy="353.2" r="1.6" opacity="0.101"/><circle cx="459.3" cy="150.4" r="1.6" opacity="0.156"/><circle cx="500" cy="137.1" r="1.6" opacity="0.159"/><circle cx="500" cy="94.3" r="1.6" opacity="0.171"/><circle cx="474.8" cy="102.5" r="1.6" opacity="0.169"/><circle cx="459.3" cy="262.5" r="1.6" opacity="0.126"/><circle cx="434.1" cy="227.8" r="1.6" opacity="0.137"/><circle cx="500" cy="249.3" r="1.6" opacity="0.129"/><circle cx="500" cy="275.7" r="1.6" opacity="0.121"/><circle cx="500" cy="180" r="1.6" opacity="0.148"/><circle cx="459.3" cy="193.2" r="1.6" opacity="0.145"/><circle cx="474.8" cy="214.6" r="1.6" opacity="0.138"/><circle cx="434.1" cy="185" r="1.6" opacity="0.148"/><circle cx="393.4" cy="214.6" r="1.6" opacity="0.143"/><circle cx="393.4" cy="241.1" r="1.6" opacity="0.137"/><circle cx="408.9" cy="262.5" r="1.6" opacity="0.13"/><circle cx="672.6" cy="150.4" r="1.6" opacity="0.167"/><circle cx="647.4" cy="185" r="1.6" opacity="0.155"/><circle cx="672.6" cy="193.2" r="1.6" opacity="0.156"/><circle cx="606.6" cy="171.8" r="1.6" opacity="0.154"/><circle cx="647.4" cy="227.8" r="1.6" opacity="0.145"/><circle cx="672.6" cy="262.5" r="1.6" opacity="0.14"/><circle cx="713.3" cy="137.1" r="1.6" opacity="0.175"/><circle cx="738.5" cy="171.8" r="1.6" opacity="0.171"/><circle cx="754" cy="150.4" r="1.6" opacity="0.178"/><circle cx="779.2" cy="115.7" r="1.6" opacity="0.19"/><circle cx="697.7" cy="227.8" r="1.6" opacity="0.152"/><circle cx="697.7" cy="185" r="1.6" opacity="0.162"/><circle cx="606.6" cy="102.5" r="1.6" opacity="0.173"/><circle cx="606.6" cy="59.7" r="1.6" opacity="0.184"/><circle cx="565.9" cy="115.7" r="1.6" opacity="0.167"/><circle cx="581.5" cy="137.1" r="1.6" opacity="0.162"/><circle cx="525.2" cy="59.7" r="1.6" opacity="0.181"/><circle cx="565.9" cy="46.4" r="1.6" opacity="0.185"/><circle cx="565.9" cy="72.9" r="1.6" opacity="0.178"/><circle cx="713.3" cy="94.3" r="1.6" opacity="0.185"/><circle cx="738.5" cy="102.5" r="1.6" opacity="0.187"/><circle cx="647.4" cy="72.9" r="1.6" opacity="0.184"/><circle cx="647.4" cy="115.7" r="1.6" opacity="0.173"/><circle cx="672.6" cy="107.5" r="1.6" opacity="0.177"/><circle cx="631.8" cy="137.1" r="1.6" opacity="0.166"/><circle cx="565.9" cy="340" r="1.6" opacity="0.107"/><circle cx="606.6" cy="353.2" r="1.6" opacity="0.11"/><circle cx="565.9" cy="297.2" r="1.6" opacity="0.118"/><circle cx="540.7" cy="305.3" r="1.6" opacity="0.114"/><circle cx="631.8" cy="275.7" r="1.6" opacity="0.131"/><circle cx="631.8" cy="318.6" r="1.6" opacity="0.121"/><circle cx="606.6" cy="310.4" r="1.6" opacity="0.12"/><circle cx="540.7" cy="443.9" r="1.6" opacity="0.079"/><circle cx="525.2" cy="465.3" r="1.6" opacity="0.072"/><circle cx="581.5" cy="387.9" r="1.6" opacity="0.098"/><circle cx="540.7" cy="374.6" r="1.6" opacity="0.096"/><circle cx="540.7" cy="401.1" r="1.6" opacity="0.089"/><circle cx="525.2" cy="353.2" r="1.6" opacity="0.101"/><circle cx="540.7" cy="150.4" r="1.6" opacity="0.156"/><circle cx="525.2" cy="102.5" r="1.6" opacity="0.169"/><circle cx="540.7" cy="262.5" r="1.6" opacity="0.126"/><circle cx="565.9" cy="227.8" r="1.6" opacity="0.137"/><circle cx="540.7" cy="193.2" r="1.6" opacity="0.145"/><circle cx="525.2" cy="214.6" r="1.6" opacity="0.138"/><circle cx="565.9" cy="185" r="1.6" opacity="0.148"/><circle cx="606.6" cy="214.6" r="1.6" opacity="0.143"/><circle cx="606.6" cy="241.1" r="1.6" opacity="0.137"/><circle cx="591.1" cy="262.5" r="1.6" opacity="0.13"/><circle cx="779.2" cy="227.8" r="1.6" opacity="0.167"/><circle cx="754" cy="262.5" r="1.6" opacity="0.155"/><circle cx="738.5" cy="241.1" r="1.6" opacity="0.156"/><circle cx="779.2" cy="297.2" r="1.6" opacity="0.154"/><circle cx="713.3" cy="275.7" r="1.6" opacity="0.145"/><circle cx="779.2" cy="185" r="1.6" opacity="0.175"/><circle cx="738.5" cy="214.6" r="1.6" opacity="0.162"/><circle cx="845.1" cy="275.7" r="1.6" opacity="0.173"/><circle cx="885.8" cy="262.5" r="1.6" opacity="0.184"/><circle cx="845.1" cy="318.6" r="1.6" opacity="0.167"/><circle cx="819.9" cy="310.4" r="1.6" opacity="0.162"/><circle cx="911" cy="340" r="1.6" opacity="0.181"/><circle cx="911" cy="297.2" r="1.6" opacity="0.185"/><circle cx="885.8" cy="305.3" r="1.6" opacity="0.178"/><circle cx="819.9" cy="171.8" r="1.6" opacity="0.185"/><circle cx="804.4" cy="150.4" r="1.6" opacity="0.187"/><circle cx="860.7" cy="227.8" r="1.6" opacity="0.184"/><circle cx="819.9" cy="241.1" r="1.6" opacity="0.173"/><circle cx="819.9" cy="214.6" r="1.6" opacity="0.177"/><circle cx="804.4" cy="262.5" r="1.6" opacity="0.166"/><circle cx="631.8" cy="387.9" r="1.6" opacity="0.107"/><circle cx="672.6" cy="374.6" r="1.6" opacity="0.118"/><circle cx="672.6" cy="401.1" r="1.6" opacity="0.114"/><circle cx="672.6" cy="305.3" r="1.6" opacity="0.131"/><circle cx="647.4" cy="340" r="1.6" opacity="0.12"/><circle cx="606.6" cy="422.5" r="1.6" opacity="0.096"/><circle cx="581.5" cy="430.7" r="1.6" opacity="0.089"/><circle cx="631.8" cy="430.7" r="1.6" opacity="0.101"/><circle cx="819.9" cy="353.2" r="1.6" opacity="0.156"/><circle cx="870.3" cy="353.2" r="1.6" opacity="0.169"/><circle cx="713.3" cy="387.9" r="1.6" opacity="0.126"/><circle cx="738.5" cy="353.2" r="1.6" opacity="0.137"/><circle cx="779.2" cy="366.5" r="1.6" opacity="0.145"/><circle cx="763.6" cy="387.9" r="1.6" opacity="0.138"/><circle cx="779.2" cy="340" r="1.6" opacity="0.148"/><circle cx="738.5" cy="310.4" r="1.6" opacity="0.143"/><circle cx="713.3" cy="318.6" r="1.6" opacity="0.137"/><circle cx="697.7" cy="340" r="1.6" opacity="0.13"/></g></svg>