<svg xmlns="http://www.w3.org/2000/svg" viewBox="0 0 1000 1000" preserveAspectRatio="xMidYMid slice" fill="none" stroke-linecap="round" stroke-linejoin="round"><g stroke="#0f3d2e" stroke-width="0.6"><path d="M872.3 615.7L834.2 596.3L830 622.4" opacity="0.13"/><path d="M834.2 596.3L872.3 615.7L840.9 554" opacity="0.13"/><path d="M791.9 603L761.6 633.3L830 622.4" opacity="0.13"/><path d="M834.2 596.3L791.9 603L840.9 554" opacity="0.13"/><path d="M791.9 603L834.2 596.3L830 622.4" opacity="0.13"/><path d="M891.8 653.9L872.3 615.7L861.5 684.2" opacity="0.13"/><path d="M885.1 696.2L891.8 653.9L923.2 715.6" opacity="0.13"/><path d="M891.8 653.9L885.1 696.2L861.5 684.2" opacity="0.13"/><path d="M799.7 652.7L761.6 633.3L830 622.4" opacity="0.13"/><path d="M842 646L799.7 652.7L861.5 684.2" opacity="0.13"/><path d="M799.7 652.7L842 646L830 622.4" opacity="0.13"/><path d="M872.3 615.7L842 646L830 622.4" opacity="0.13"/><path d="M842 646L872.3 615.7L861.5 684.2" opacity="0.13"/><path d="M909.3 543.1L951.6 536.4L889.9 505" opacity="0.13"/><path d="M871.1 523.7L909.3 543.1L840.9 554" opacity="0.13"/><path d="M909.3 543.1L871.1 523.7L889.9 505" opacity="0.13"/><path d="M938.9 456L969.2 425.7L958.3 494.1" opacity="0.13"/><path d="M932.2 498.3L938.9 456L889.9 505" opacity="0.13"/><path d="M938.9 456L932.2 498.3L958.3 494.1" opacity="0.13"/><path d="M951.6 536.4L932.2 498.3L958.3 494.1" opacity="0.13"/><path d="M932.2 498.3L951.6 536.4L889.9 505" opacity="0.13"/><path d="M891.8 653.9L872.3 615.7L934.1 647.2" opacity="0.13"/><path d="M929.9 673.3L891.8 653.9L923.2 715.6" opacity="0.13"/><path d="M891.8 653.9L929.9 673.3L934.1 647.2" opacity="0.13"/><path d="M944.9 578.7L951.6 536.4L902.6 585.4" opacity="0.13"/><path d="M914.6 609L944.9 578.7L934.1 647.2" opacity="0.13"/><path d="M944.9 578.7L914.6 609L902.6 585.4" opacity="0.13"/><path d="M872.3 615.7L914.6 609L902.6 585.4" opacity="0.13"/><path d="M914.6 609L872.3 615.7L934.1 647.2" opacity="0.13"/><path d="M872.3 615.7L879 573.4L902.6 585.4" opacity="0.13"/><path d="M879 573.4L872.3 615.7L840.9 554" opacity="0.13"/><path d="M909.3 543.1L951.6 536.4L902.6 585.4" opacity="0.13"/><path d="M879 573.4L909.3 543.1L840.9 554" opacity="0.13"/><path d="M909.3 543.1L879 573.4L902.6 585.4" opacity="0.13"/><path d="M668.4 540.1L661.7 582.4L710.7 533.4" opacity="0.13"/><path d="M698.6 509.8L668.4 540.1L679.2 471.6" opacity="0.13"/><path d="M668.4 540.1L698.6 509.8L710.7 533.4" opacity="0.13"/><path d="M742.1 595.1L761.6 633.3L699.8 601.8" opacity="0.13"/><path d="M704 575.7L742.1 595.1L710.7 533.4" opacity="0.13"/><path d="M742.1 595.1L704 575.7L699.8 601.8" opacity="0.13"/><path d="M661.7 582.4L704 575.7L699.8 601.8" opacity="0.13"/><path d="M704 575.7L661.7 582.4L710.7 533.4" opacity="0.13"/><path d="M568.4 489.2L610.8 482.5L561.7 531.5" opacity="0.13"/><path d="M538.2 519.4L568.4 489.2L500 500" opacity="0.13"/><path d="M568.4 489.2L538.2 519.4L561.7 531.5" opacity="0.13"/><path d="M623.5 562.9L661.7 582.4L630.2 520.6" opacity="0.13"/><path d="M604.1 524.8L623.5 562.9L561.7 531.5" opacity="0.13"/><path d="M623.5 562.9L604.1 524.8L630.2 520.6" opacity="0.13"/><path d="M610.8 482.5L604.1 524.8L630.2 520.6" opacity="0.13"/><path d="M604.1 524.8L610.8 482.5L561.7 531.5" opacity="0.13"/><path d="M610.8 482.5L648.9 501.9L630.2 520.6" opacity="0.13"/><path d="M648.9 501.9L610.8 482.5L679.2 471.6" opacity="0.13"/><path d="M668.4 540.1L661.7 582.4L630.2 520.6" opacity="0.13"/><path d="M648.9 501.9L668.4 540.1L679.2 471.6" opacity="0.13"/><path d="M668.4 540.1L648.9 501.9L630.2 520.6" opacity="0.13"/><path d="M851.7 485.5L858.4 443.2L889.9 505" opacity="0.13"/><path d="M871.1 523.7L851.7 485.5L840.9 554" opacity="0.13"/><path d="M851.7 485.5L871.1 523.7L889.9 505" opacity="0.13"/><path d="M938.9 456L969.2 425.7L900.7 436.5" opacity="0.13"/><path d="M896.6 462.7L938.9 456L889.9 505" opacity="0.13"/><path d="M938.9 456L896.6 462.7L900.7 436.5" opacity="0.13"/><path d="M858.4 443.2L896.6 462.7L900.7 436.5" opacity="0.13"/><path d="M896.6 462.7L858.4 443.2L889.9 505" opacity="0.13"/><path d="M740.9 503.1L779.1 522.5L747.6 460.8" opacity="0.13"/><path d="M721.5 464.9L740.9 503.1L679.2 471.6" opacity="0.13"/><path d="M740.9 503.1L721.5 464.9L747.6 460.8" opacity="0.13"/><path d="M816.1 449.9L858.4 443.2L809.4 492.2" opacity="0.13"/><path d="M785.8 480.2L816.1 449.9L747.6 460.8" opacity="0.13"/><path d="M816.1 449.9L785.8 480.2L809.4 492.2" opacity="0.13"/><path d="M779.1 522.5L785.8 480.2L809.4 492.2" opacity="0.13"/><path d="M785.8 480.2L779.1 522.5L747.6 460.8" opacity="0.13"/><path d="M779.1 522.5L821.4 515.8L809.4 492.2" opacity="0.13"/><path d="M821.4 515.8L779.1 522.5L840.9 554" opacity="0.13"/><path d="M851.7 485.5L858.4 443.2L809.4 492.2" opacity="0.13"/><path d="M821.4 515.8L851.7 485.5L840.9 554" opacity="0.13"/><path d="M851.7 485.5L821.4 515.8L809.4 492.2" opacity="0.13"/><path d="M779.1 522.5L798.6 560.7L772.4 564.8" opacity="0.13"/><path d="M798.6 560.7L779.1 522.5L840.9 554" opacity="0.13"/><path d="M791.9 603L761.6 633.3L772.4 564.8" opacity="0.13"/><path d="M798.6 560.7L791.9 603L840.9 554" opacity="0.13"/><path d="M791.9 603L798.6 560.7L772.4 564.8" opacity="0.13"/><path d="M740.9 503.1L779.1 522.5L710.7 533.4" opacity="0.13"/><path d="M698.6 509.8L740.9 503.1L679.2 471.6" opacity="0.13"/><path d="M740.9 503.1L698.6 509.8L710.7 533.4" opacity="0.13"/><path d="M742.1 595.1L761.6 633.3L772.4 564.8" opacity="0.13"/><path d="M748.8 552.8L742.1 595.1L710.7 533.4" opacity="0.13"/><path d="M742.1 595.1L748.8 552.8L772.4 564.8" opacity="0.13"/><path d="M779.1 522.5L748.8 552.8L772.4 564.8" opacity="0.13"/><path d="M748.8 552.8L779.1 522.5L710.7 533.4" opacity="0.13"/><path d="M812.5 733.2L774.3 713.7L793 695" opacity="0.13"/><path d="M774.3 713.7L812.5 733.2L744 744" opacity="0.13"/><path d="M754.9 675.6L761.6 633.3L793 695" opacity="0.13"/><path d="M774.3 713.7L754.9 675.6L744 744" opacity="0.13"/><path d="M754.9 675.6L774.3 713.7L793 695" opacity="0.13"/><path d="M854.8 726.5L812.5 733.2L861.5 684.2" opacity="0.13"/><path d="M885.1 696.2L854.8 726.5L923.2 715.6" opacity="0.13"/><path d="M854.8 726.5L885.1 696.2L861.5 684.2" opacity="0.13"/><path d="M799.7 652.7L761.6 633.3L793 695" opacity="0.13"/><path d="M819.2 690.9L799.7 652.7L861.5 684.2" opacity="0.13"/><path d="M799.7 652.7L819.2 690.9L793 695" opacity="0.13"/><path d="M812.5 733.2L819.2 690.9L793 695" opacity="0.13"/><path d="M819.2 690.9L812.5 733.2L861.5 684.2" opacity="0.13"/><path d="M775.5 805.8L794.9 843.9L733.2 812.5" opacity="0.13"/><path d="M737.3 786.3L775.5 805.8L744 744" opacity="0.13"/><path d="M775.5 805.8L737.3 786.3L733.2 812.5" opacity="0.13"/><path d="M722.3 880.9L715.6 923.2L764.6 874.2" opacity="0.13"/><path d="M752.6 850.6L722.3 880.9L733.2 812.5" opacity="0.13"/><path d="M722.3 880.9L752.6 850.6L764.6 874.2" opacity="0.13"/><path d="M794.9 843.9L752.6 850.6L764.6 874.2" opacity="0.13"/><path d="M752.6 850.6L794.9 843.9L733.2 812.5" opacity="0.13"/><path d="M854.8 726.5L812.5 733.2L874.2 764.6" opacity="0.13"/><path d="M892.9 745.9L854.8 726.5L923.2 715.6" opacity="0.13"/><path d="M854.8 726.5L892.9 745.9L874.2 764.6" opacity="0.13"/><path d="M825.2 813.7L794.9 843.9L805.8 775.5" opacity="0.13"/><path d="M831.9 771.3L825.2 813.7L874.2 764.6" opacity="0.13"/><path d="M825.2 813.7L831.9 771.3L805.8 775.5" opacity="0.13"/><path d="M812.5 733.2L831.9 771.3L805.8 775.5" opacity="0.13"/><path d="M831.9 771.3L812.5 733.2L874.2 764.6" opacity="0.13"/><path d="M812.5 733.2L782.2 763.5L805.8 775.5" opacity="0.13"/><path d="M782.2 763.5L812.5 733.2L744 744" opacity="0.13"/><path d="M775.5 805.8L794.9 843.9L805.8 775.5" opacity="0.13"/><path d="M782.2 763.5L775.5 805.8L744 744" opacity="0.13"/><path d="M775.5 805.8L782.2 763.5L805.8 775.5" opacity="0.13"/><path d="M631.4 612.7L661.7 582.4L650.8 650.8" opacity="0.13"/><path d="M624.7 655L631.4 612.7L582.4 661.7" opacity="0.13"/><path d="M631.4 612.7L624.7 655L650.8 650.8" opacity="0.13"/><path d="M719.3 640L761.6 633.3L699.8 601.8" opacity="0.13"/><path d="M681.1 620.5L719.3 640L650.8 650.8" opacity="0.13"/><path d="M719.3 640L681.1 620.5L699.8 601.8" opacity="0.13"/><path d="M661.7 582.4L681.1 620.5L699.8 601.8" opacity="0.13"/><path d="M681.1 620.5L661.7 582.4L650.8 650.8" opacity="0.13"/><path d="M531.5 561.7L550.9 599.9L561.7 531.5" opacity="0.13"/><path d="M538.2 519.4L531.5 561.7L500 500" opacity="0.13"/><path d="M531.5 561.7L538.2 519.4L561.7 531.5" opacity="0.13"/><path d="M623.5 562.9L661.7 582.4L593.2 593.2" opacity="0.13"/><path d="M581.2 569.6L623.5 562.9L561.7 531.5" opacity="0.13"/><path d="M623.5 562.9L581.2 569.6L593.2 593.2" opacity="0.13"/><path d="M550.9 599.9L581.2 569.6L593.2 593.2" opacity="0.13"/><path d="M581.2 569.6L550.9 599.9L561.7 531.5" opacity="0.13"/><path d="M550.9 599.9L589.1 619.4L593.2 593.2" opacity="0.13"/><path d="M589.1 619.4L550.9 599.9L582.4 661.7" opacity="0.13"/><path d="M631.4 612.7L661.7 582.4L593.2 593.2" opacity="0.13"/><path d="M589.1 619.4L631.4 612.7L582.4 661.7" opacity="0.13"/><path d="M631.4 612.7L589.1 619.4L593.2 593.2" opacity="0.13"/><path d="M695 793L664.7 823.3L733.2 812.5" opacity="0.13"/><path d="M737.3 786.3L695 793L744 744" opacity="0.13"/><path d="M695 793L737.3 786.3L733.2 812.5" opacity="0.13"/><path d="M722.3 880.9L715.6 923.2L684.2 861.5" opacity="0.13"/><path d="M702.9 842.8L722.3 880.9L733.2 812.5" opacity="0.13"/><path d="M722.3 880.9L702.9 842.8L684.2 861.5" opacity="0.13"/><path d="M664.7 823.3L702.9 842.8L684.2 861.5" opacity="0.13"/><path d="M702.9 842.8L664.7 823.3L733.2 812.5" opacity="0.13"/><path d="M644.1 693.1L682.3 712.6L613.8 723.4" opacity="0.13"/><path d="M601.8 699.8L644.1 693.1L582.4 661.7" opacity="0.13"/><path d="M644.1 693.1L601.8 699.8L613.8 723.4" opacity="0.13"/><path d="M645.3 785.2L664.7 823.3L675.6 754.9" opacity="0.13"/><path d="M652 742.9L645.3 785.2L613.8 723.4" opacity="0.13"/><path d="M645.3 785.2L652 742.9L675.6 754.9" opacity="0.13"/><path d="M682.3 712.6L652 742.9L675.6 754.9" opacity="0.13"/><path d="M652 742.9L682.3 712.6L613.8 723.4" opacity="0.13"/><path d="M682.3 712.6L701.7 750.7L675.6 754.9" opacity="0.13"/><path d="M701.7 750.7L682.3 712.6L744 744" opacity="0.13"/><path d="M695 793L664.7 823.3L675.6 754.9" opacity="0.13"/><path d="M701.7 750.7L695 793L744 744" opacity="0.13"/><path d="M695 793L701.7 750.7L675.6 754.9" opacity="0.13"/><path d="M682.3 712.6L724.6 705.9L712.6 682.3" opacity="0.13"/><path d="M724.6 705.9L682.3 712.6L744 744" opacity="0.13"/><path d="M754.9 675.6L761.6 633.3L712.6 682.3" opacity="0.13"/><path d="M724.6 705.9L754.9 675.6L744 744" opacity="0.13"/><path d="M754.9 675.6L724.6 705.9L712.6 682.3" opacity="0.13"/><path d="M644.1 693.1L682.3 712.6L650.8 650.8" opacity="0.13"/><path d="M624.7 655L644.1 693.1L582.4 661.7" opacity="0.13"/><path d="M644.1 693.1L624.7 655L650.8 650.8" opacity="0.13"/><path d="M719.3 640L761.6 633.3L712.6 682.3" opacity="0.13"/><path d="M689 670.3L719.3 640L650.8 650.8" opacity="0.13"/><path d="M719.3 640L689 670.3L712.6 682.3" opacity="0.13"/><path d="M682.3 712.6L689 670.3L712.6 682.3" opacity="0.13"/><path d="M689 670.3L682.3 712.6L650.8 650.8" opacity="0.13"/><path d="M505 889.9L511.7 847.6L485.5 851.7" opacity="0.13"/><path d="M511.7 847.6L505 889.9L554 840.9" opacity="0.13"/><path d="M492.2 809.4L454.1 790L485.5 851.7" opacity="0.13"/><path d="M511.7 847.6L492.2 809.4L554 840.9" opacity="0.13"/><path d="M492.2 809.4L511.7 847.6L485.5 851.7" opacity="0.13"/><path d="M474.7 920.1L505 889.9L436.5 900.7" opacity="0.13"/><path d="M432.4 926.8L474.7 920.1L425.7 969.2" opacity="0.13"/><path d="M474.7 920.1L432.4 926.8L436.5 900.7" opacity="0.13"/><path d="M447.4 832.3L454.1 790L485.5 851.7" opacity="0.13"/><path d="M466.8 870.4L447.4 832.3L436.5 900.7" opacity="0.13"/><path d="M447.4 832.3L466.8 870.4L485.5 851.7" opacity="0.13"/><path d="M505 889.9L466.8 870.4L485.5 851.7" opacity="0.13"/><path d="M466.8 870.4L505 889.9L436.5 900.7" opacity="0.13"/><path d="M585.4 902.6L604.9 940.8L615.7 872.3" opacity="0.13"/><path d="M592.1 860.3L585.4 902.6L554 840.9" opacity="0.13"/><path d="M585.4 902.6L592.1 860.3L615.7 872.3" opacity="0.13"/><path d="M677.5 903.8L715.6 923.2L647.2 934.1" opacity="0.13"/><path d="M635.2 910.5L677.5 903.8L615.7 872.3" opacity="0.13"/><path d="M677.5 903.8L635.2 910.5L647.2 934.1" opacity="0.13"/><path d="M604.9 940.8L635.2 910.5L647.2 934.1" opacity="0.13"/><path d="M635.2 910.5L604.9 940.8L615.7 872.3" opacity="0.13"/><path d="M474.7 920.1L505 889.9L494.1 958.3" opacity="0.13"/><path d="M468 962.5L474.7 920.1L425.7 969.2" opacity="0.13"/><path d="M474.7 920.1L468 962.5L494.1 958.3" opacity="0.13"/><path d="M562.6 947.5L604.9 940.8L543.1 909.3" opacity="0.13"/><path d="M524.4 928L562.6 947.5L494.1 958.3" opacity="0.13"/><path d="M562.6 947.5L524.4 928L543.1 909.3" opacity="0.13"/><path d="M505 889.9L524.4 928L543.1 909.3" opacity="0.13"/><path d="M524.4 928L505 889.9L494.1 958.3" opacity="0.13"/><path d="M505 889.9L547.3 883.2L543.1 909.3" opacity="0.13"/><path d="M547.3 883.2L505 889.9L554 840.9" opacity="0.13"/><path d="M585.4 902.6L604.9 940.8L543.1 909.3" opacity="0.13"/><path d="M547.3 883.2L585.4 902.6L554 840.9" opacity="0.13"/><path d="M585.4 902.6L547.3 883.2L543.1 909.3" opacity="0.13"/><path d="M513.9 672.5L471.6 679.2L533.4 710.7" opacity="0.13"/><path d="M552.1 691.9L513.9 672.5L582.4 661.7" opacity="0.13"/><path d="M513.9 672.5L552.1 691.9L533.4 710.7" opacity="0.13"/><path d="M484.4 759.7L454.1 790L464.9 721.5" opacity="0.13"/><path d="M491.1 717.4L484.4 759.7L533.4 710.7" opacity="0.13"/><path d="M484.4 759.7L491.1 717.4L464.9 721.5" opacity="0.13"/><path d="M471.6 679.2L491.1 717.4L464.9 721.5" opacity="0.13"/><path d="M491.1 717.4L471.6 679.2L533.4 710.7" opacity="0.13"/><path d="M531.5 561.7L550.9 599.9L489.2 568.4" opacity="0.13"/><path d="M493.3 542.3L531.5 561.7L500 500" opacity="0.13"/><path d="M531.5 561.7L493.3 542.3L489.2 568.4" opacity="0.13"/><path d="M478.3 636.9L471.6 679.2L520.6 630.2" opacity="0.13"/><path d="M508.6 606.6L478.3 636.9L489.2 568.4" opacity="0.13"/><path d="M478.3 636.9L508.6 606.6L520.6 630.2" opacity="0.13"/><path d="M550.9 599.9L508.6 606.6L520.6 630.2" opacity="0.13"/><path d="M508.6 606.6L550.9 599.9L489.2 568.4" opacity="0.13"/><path d="M550.9 599.9L544.2 642.2L520.6 630.2" opacity="0.13"/><path d="M544.2 642.2L550.9 599.9L582.4 661.7" opacity="0.13"/><path d="M513.9 672.5L471.6 679.2L520.6 630.2" opacity="0.13"/><path d="M544.2 642.2L513.9 672.5L582.4 661.7" opacity="0.13"/><path d="M513.9 672.5L544.2 642.2L520.6 630.2" opacity="0.13"/><path d="M622.4 830L664.7 823.3L615.7 872.3" opacity="0.13"/><path d="M592.1 860.3L622.4 830L554 840.9" opacity="0.13"/><path d="M622.4 830L592.1 860.3L615.7 872.3" opacity="0.13"/><path d="M677.5 903.8L715.6 923.2L684.2 861.5" opacity="0.13"/><path d="M658 865.6L677.5 903.8L615.7 872.3" opacity="0.13"/><path d="M677.5 903.8L658 865.6L684.2 861.5" opacity="0.13"/><path d="M664.7 823.3L658 865.6L684.2 861.5" opacity="0.13"/><path d="M658 865.6L664.7 823.3L615.7 872.3" opacity="0.13"/><path d="M571.5 730.1L564.8 772.4L613.8 723.4" opacity="0.13"/><path d="M601.8 699.8L571.5 730.1L582.4 661.7" opacity="0.13"/><path d="M571.5 730.1L601.8 699.8L613.8 723.4" opacity="0.13"/><path d="M645.3 785.2L664.7 823.3L603 791.9" opacity="0.13"/><path d="M607.1 765.7L645.3 785.2L613.8 723.4" opacity="0.13"/><path d="M645.3 785.2L607.1 765.7L603 791.9" opacity="0.13"/><path d="M564.8 772.4L607.1 765.7L603 791.9" opacity="0.13"/><path d="M607.1 765.7L564.8 772.4L613.8 723.4" opacity="0.13"/><path d="M564.8 772.4L584.3 810.6L603 791.9" opacity="0.13"/><path d="M584.3 810.6L564.8 772.4L554 840.9" opacity="0.13"/><path d="M622.4 830L664.7 823.3L603 791.9" opacity="0.13"/><path d="M584.3 810.6L622.4 830L554 840.9" opacity="0.13"/><path d="M622.4 830L584.3 810.6L603 791.9" opacity="0.13"/><path d="M564.8 772.4L534.5 802.7L522.5 779.1" opacity="0.13"/><path d="M534.5 802.7L564.8 772.4L554 840.9" opacity="0.13"/><path d="M492.2 809.4L454.1 790L522.5 779.1" opacity="0.13"/><path d="M534.5 802.7L492.2 809.4L554 840.9" opacity="0.13"/><path d="M492.2 809.4L534.5 802.7L522.5 779.1" opacity="0.13"/><path d="M571.5 730.1L564.8 772.4L533.4 710.7" opacity="0.13"/><path d="M552.1 691.9L571.5 730.1L582.4 661.7" opacity="0.13"/><path d="M571.5 730.1L552.1 691.9L533.4 710.7" opacity="0.13"/><path d="M484.4 759.7L454.1 790L522.5 779.1" opacity="0.13"/><path d="M526.7 753L484.4 759.7L533.4 710.7" opacity="0.13"/><path d="M484.4 759.7L526.7 753L522.5 779.1" opacity="0.13"/><path d="M564.8 772.4L526.7 753L522.5 779.1" opacity="0.13"/><path d="M526.7 753L564.8 772.4L533.4 710.7" opacity="0.13"/><path d="M374.8 869.2L381.5 826.9L405.1 839" opacity="0.13"/><path d="M381.5 826.9L374.8 869.2L343.3 807.5" opacity="0.13"/><path d="M411.8 796.7L454.1 790L405.1 839" opacity="0.13"/><path d="M381.5 826.9L411.8 796.7L343.3 807.5" opacity="0.13"/><path d="M411.8 796.7L381.5 826.9L405.1 839" opacity="0.13"/><path d="M394.2 907.4L374.8 869.2L436.5 900.7" opacity="0.13"/><path d="M432.4 926.8L394.2 907.4L425.7 969.2" opacity="0.13"/><path d="M394.2 907.4L432.4 926.8L436.5 900.7" opacity="0.13"/><path d="M447.4 832.3L454.1 790L405.1 839" opacity="0.13"/><path d="M417.1 862.5L447.4 832.3L436.5 900.7" opacity="0.13"/><path d="M447.4 832.3L417.1 862.5L405.1 839" opacity="0.13"/><path d="M374.8 869.2L417.1 862.5L405.1 839" opacity="0.13"/><path d="M417.1 862.5L374.8 869.2L436.5 900.7" opacity="0.13"/><path d="M294.3 856.5L264 886.8L274.9 818.3" opacity="0.13"/><path d="M301 814.2L294.3 856.5L343.3 807.5" opacity="0.13"/><path d="M294.3 856.5L301 814.2L274.9 818.3" opacity="0.13"/><path d="M206.4 829.2L164.1 835.9L225.9 867.3" opacity="0.13"/><path d="M244.6 848.6L206.4 829.2L274.9 818.3" opacity="0.13"/><path d="M206.4 829.2L244.6 848.6L225.9 867.3" opacity="0.13"/><path d="M264 886.8L244.6 848.6L225.9 867.3" opacity="0.13"/><path d="M244.6 848.6L264 886.8L274.9 818.3" opacity="0.13"/><path d="M394.2 907.4L374.8 869.2L363.9 937.7" opacity="0.13"/><path d="M387.5 949.7L394.2 907.4L425.7 969.2" opacity="0.13"/><path d="M394.2 907.4L387.5 949.7L363.9 937.7" opacity="0.13"/><path d="M302.2 906.2L264 886.8L332.5 875.9" opacity="0.13"/><path d="M344.5 899.5L302.2 906.2L363.9 937.7" opacity="0.13"/><path d="M302.2 906.2L344.5 899.5L332.5 875.9" opacity="0.13"/><path d="M374.8 869.2L344.5 899.5L332.5 875.9" opacity="0.13"/><path d="M344.5 899.5L374.8 869.2L363.9 937.7" opacity="0.13"/><path d="M374.8 869.2L336.6 849.8L332.5 875.9" opacity="0.13"/><path d="M336.6 849.8L374.8 869.2L343.3 807.5" opacity="0.13"/><path d="M294.3 856.5L264 886.8L332.5 875.9" opacity="0.13"/><path d="M336.6 849.8L294.3 856.5L343.3 807.5" opacity="0.13"/><path d="M294.3 856.5L336.6 849.8L332.5 875.9" opacity="0.13"/><path d="M433.5 659.8L471.6 679.2L403.2 690" opacity="0.13"/><path d="M391.2 666.5L433.5 659.8L371.7 628.3" opacity="0.13"/><path d="M433.5 659.8L391.2 666.5L403.2 690" opacity="0.13"/><path d="M434.6 751.8L454.1 790L464.9 721.5" opacity="0.13"/><path d="M441.3 709.5L434.6 751.8L403.2 690" opacity="0.13"/><path d="M434.6 751.8L441.3 709.5L464.9 721.5" opacity="0.13"/><path d="M471.6 679.2L441.3 709.5L464.9 721.5" opacity="0.13"/><path d="M441.3 709.5L471.6 679.2L403.2 690" opacity="0.13"/><path d="M451 549L420.7 579.3L489.2 568.4" opacity="0.13"/><path d="M493.3 542.3L451 549L500 500" opacity="0.13"/><path d="M451 549L493.3 542.3L489.2 568.4" opacity="0.13"/><path d="M478.3 636.9L471.6 679.2L440.2 617.5" opacity="0.13"/><path d="M458.9 598.7L478.3 636.9L489.2 568.4" opacity="0.13"/><path d="M478.3 636.9L458.9 598.7L440.2 617.5" opacity="0.13"/><path d="M420.7 579.3L458.9 598.7L440.2 617.5" opacity="0.13"/><path d="M458.9 598.7L420.7 579.3L489.2 568.4" opacity="0.13"/><path d="M420.7 579.3L414 621.6L440.2 617.5" opacity="0.13"/><path d="M414 621.6L420.7 579.3L371.7 628.3" opacity="0.13"/><path d="M433.5 659.8L471.6 679.2L440.2 617.5" opacity="0.13"/><path d="M414 621.6L433.5 659.8L371.7 628.3" opacity="0.13"/><path d="M433.5 659.8L414 621.6L440.2 617.5" opacity="0.13"/><path d="M281.6 776L243.4 756.6L274.9 818.3" opacity="0.13"/><path d="M301 814.2L281.6 776L343.3 807.5" opacity="0.13"/><path d="M281.6 776L301 814.2L274.9 818.3" opacity="0.13"/><path d="M206.4 829.2L164.1 835.9L213.1 786.9" opacity="0.13"/><path d="M236.7 798.9L206.4 829.2L274.9 818.3" opacity="0.13"/><path d="M206.4 829.2L236.7 798.9L213.1 786.9" opacity="0.13"/><path d="M243.4 756.6L236.7 798.9L213.1 786.9" opacity="0.13"/><path d="M236.7 798.9L243.4 756.6L274.9 818.3" opacity="0.13"/><path d="M360.9 696.7L354.2 739L322.7 677.3" opacity="0.13"/><path d="M341.4 658.6L360.9 696.7L371.7 628.3" opacity="0.13"/><path d="M360.9 696.7L341.4 658.6L322.7 677.3" opacity="0.13"/><path d="M273.7 726.3L243.4 756.6L311.9 745.7" opacity="0.13"/><path d="M316 719.6L273.7 726.3L322.7 677.3" opacity="0.13"/><path d="M273.7 726.3L316 719.6L311.9 745.7" opacity="0.13"/><path d="M354.2 739L316 719.6L311.9 745.7" opacity="0.13"/><path d="M316 719.6L354.2 739L322.7 677.3" opacity="0.13"/><path d="M354.2 739L323.9 769.3L311.9 745.7" opacity="0.13"/><path d="M323.9 769.3L354.2 739L343.3 807.5" opacity="0.13"/><path d="M281.6 776L243.4 756.6L311.9 745.7" opacity="0.13"/><path d="M323.9 769.3L281.6 776L343.3 807.5" opacity="0.13"/><path d="M281.6 776L323.9 769.3L311.9 745.7" opacity="0.13"/><path d="M354.2 739L373.6 777.2L392.3 758.5" opacity="0.13"/><path d="M373.6 777.2L354.2 739L343.3 807.5" opacity="0.13"/><path d="M411.8 796.7L454.1 790L392.3 758.5" opacity="0.13"/><path d="M373.6 777.2L411.8 796.7L343.3 807.5" opacity="0.13"/><path d="M411.8 796.7L373.6 777.2L392.3 758.5" opacity="0.13"/><path d="M360.9 696.7L354.2 739L403.2 690" opacity="0.13"/><path d="M391.2 666.5L360.9 696.7L371.7 628.3" opacity="0.13"/><path d="M360.9 696.7L391.2 666.5L403.2 690" opacity="0.13"/><path d="M434.6 751.8L454.1 790L392.3 758.5" opacity="0.13"/><path d="M396.5 732.3L434.6 751.8L403.2 690" opacity="0.13"/><path d="M434.6 751.8L396.5 732.3L392.3 758.5" opacity="0.13"/><path d="M354.2 739L396.5 732.3L392.3 758.5" opacity="0.13"/><path d="M396.5 732.3L354.2 739L403.2 690" opacity="0.13"/><path d="M130.8 625.2L173.1 618.5L161 594.9" opacity="0.13"/><path d="M173.1 618.5L130.8 625.2L192.5 656.7" opacity="0.13"/><path d="M203.3 588.2L210 545.9L161 594.9" opacity="0.13"/><path d="M173.1 618.5L203.3 588.2L192.5 656.7" opacity="0.13"/><path d="M203.3 588.2L173.1 618.5L161 594.9" opacity="0.13"/><path d="M92.6 605.8L130.8 625.2L99.3 563.5" opacity="0.13"/><path d="M73.2 567.6L92.6 605.8L30.8 574.3" opacity="0.13"/><path d="M92.6 605.8L73.2 567.6L99.3 563.5" opacity="0.13"/><path d="M167.7 552.6L210 545.9L161 594.9" opacity="0.13"/><path d="M137.5 582.9L167.7 552.6L99.3 563.5" opacity="0.13"/><path d="M167.7 552.6L137.5 582.9L161 594.9" opacity="0.13"/><path d="M130.8 625.2L137.5 582.9L161 594.9" opacity="0.13"/><path d="M137.5 582.9L130.8 625.2L99.3 563.5" opacity="0.13"/><path d="M143.5 705.7L113.2 736L181.7 725.1" opacity="0.13"/><path d="M185.8 699L143.5 705.7L192.5 656.7" opacity="0.13"/><path d="M143.5 705.7L185.8 699L181.7 725.1" opacity="0.13"/><path d="M170.8 793.6L164.1 835.9L132.7 774.1" opacity="0.13"/><path d="M151.4 755.4L170.8 793.6L181.7 725.1" opacity="0.13"/><path d="M170.8 793.6L151.4 755.4L132.7 774.1" opacity="0.13"/><path d="M113.2 736L151.4 755.4L132.7 774.1" opacity="0.13"/><path d="M151.4 755.4L113.2 736L181.7 725.1" opacity="0.13"/><path d="M92.6 605.8L130.8 625.2L62.3 636.1" opacity="0.13"/><path d="M50.3 612.5L92.6 605.8L30.8 574.3" opacity="0.13"/><path d="M92.6 605.8L50.3 612.5L62.3 636.1" opacity="0.13"/><path d="M93.8 697.8L113.2 736L124.1 667.5" opacity="0.13"/><path d="M100.5 655.5L93.8 697.8L62.3 636.1" opacity="0.13"/><path d="M93.8 697.8L100.5 655.5L124.1 667.5" opacity="0.13"/><path d="M130.8 625.2L100.5 655.5L124.1 667.5" opacity="0.13"/><path d="M100.5 655.5L130.8 625.2L62.3 636.1" opacity="0.13"/><path d="M130.8 625.2L150.2 663.4L124.1 667.5" opacity="0.13"/><path d="M150.2 663.4L130.8 625.2L192.5 656.7" opacity="0.13"/><path d="M143.5 705.7L113.2 736L124.1 667.5" opacity="0.13"/><path d="M150.2 663.4L143.5 705.7L192.5 656.7" opacity="0.13"/><path d="M143.5 705.7L150.2 663.4L124.1 667.5" opacity="0.13"/><path d="M340.2 566.5L320.8 528.4L310 596.8" opacity="0.13"/><path d="M333.5 608.8L340.2 566.5L371.7 628.3" opacity="0.13"/><path d="M340.2 566.5L333.5 608.8L310 596.8" opacity="0.13"/><path d="M248.2 565.4L210 545.9L278.5 535.1" opacity="0.13"/><path d="M290.5 558.7L248.2 565.4L310 596.8" opacity="0.13"/><path d="M248.2 565.4L290.5 558.7L278.5 535.1" opacity="0.13"/><path d="M320.8 528.4L290.5 558.7L278.5 535.1" opacity="0.13"/><path d="M290.5 558.7L320.8 528.4L310 596.8" opacity="0.13"/><path d="M451 549L420.7 579.3L431.6 510.8" opacity="0.13"/><path d="M457.7 506.7L451 549L500 500" opacity="0.13"/><path d="M451 549L457.7 506.7L431.6 510.8" opacity="0.13"/><path d="M363.1 521.7L320.8 528.4L382.5 559.8" opacity="0.13"/><path d="M401.3 541.1L363.1 521.7L431.6 510.8" opacity="0.13"/><path d="M363.1 521.7L401.3 541.1L382.5 559.8" opacity="0.13"/><path d="M420.7 579.3L401.3 541.1L382.5 559.8" opacity="0.13"/><path d="M401.3 541.1L420.7 579.3L431.6 510.8" opacity="0.13"/><path d="M420.7 579.3L378.4 586L382.5 559.8" opacity="0.13"/><path d="M378.4 586L420.7 579.3L371.7 628.3" opacity="0.13"/><path d="M340.2 566.5L320.8 528.4L382.5 559.8" opacity="0.13"/><path d="M378.4 586L340.2 566.5L371.7 628.3" opacity="0.13"/><path d="M340.2 566.5L378.4 586L382.5 559.8" opacity="0.13"/><path d="M224 718.4L243.4 756.6L181.7 725.1" opacity="0.13"/><path d="M185.8 699L224 718.4L192.5 656.7" opacity="0.13"/><path d="M224 718.4L185.8 699L181.7 725.1" opacity="0.13"/><path d="M170.8 793.6L164.1 835.9L213.1 786.9" opacity="0.13"/><path d="M201.1 763.3L170.8 793.6L181.7 725.1" opacity="0.13"/><path d="M170.8 793.6L201.1 763.3L213.1 786.9" opacity="0.13"/><path d="M243.4 756.6L201.1 763.3L213.1 786.9" opacity="0.13"/><path d="M201.1 763.3L243.4 756.6L181.7 725.1" opacity="0.13"/><path d="M303.3 639.1L261 645.8L322.7 677.3" opacity="0.13"/><path d="M341.4 658.6L303.3 639.1L371.7 628.3" opacity="0.13"/><path d="M303.3 639.1L341.4 658.6L322.7 677.3" opacity="0.13"/><path d="M273.7 726.3L243.4 756.6L254.3 688.1" opacity="0.13"/><path d="M280.4 684L273.7 726.3L322.7 677.3" opacity="0.13"/><path d="M273.7 726.3L280.4 684L254.3 688.1" opacity="0.13"/><path d="M261 645.8L280.4 684L254.3 688.1" opacity="0.13"/><path d="M280.4 684L261 645.8L322.7 677.3" opacity="0.13"/><path d="M261 645.8L230.7 676.1L254.3 688.1" opacity="0.13"/><path d="M230.7 676.1L261 645.8L192.5 656.7" opacity="0.13"/><path d="M224 718.4L243.4 756.6L254.3 688.1" opacity="0.13"/><path d="M230.7 676.1L224 718.4L192.5 656.7" opacity="0.13"/><path d="M224 718.4L230.7 676.1L254.3 688.1" opacity="0.13"/><path d="M261 645.8L222.8 626.4L241.5 607.7" opacity="0.13"/><path d="M222.8 626.4L261 645.8L192.5 656.7" opacity="0.13"/><path d="M203.3 588.2L210 545.9L241.5 607.7" opacity="0.13"/><path d="M222.8 626.4L203.3 588.2L192.5 656.7" opacity="0.13"/><path d="M203.3 588.2L222.8 626.4L241.5 607.7" opacity="0.13"/><path d="M303.3 639.1L261 645.8L310 596.8" opacity="0.13"/><path d="M333.5 608.8L303.3 639.1L371.7 628.3" opacity="0.13"/><path d="M303.3 639.1L333.5 608.8L310 596.8" opacity="0.13"/><path d="M248.2 565.4L210 545.9L241.5 607.7" opacity="0.13"/><path d="M267.7 603.5L248.2 565.4L310 596.8" opacity="0.13"/><path d="M248.2 565.4L267.7 603.5L241.5 607.7" opacity="0.13"/><path d="M261 645.8L267.7 603.5L241.5 607.7" opacity="0.13"/><path d="M267.7 603.5L261 645.8L310 596.8" opacity="0.13"/><path d="M110.1 495L152.4 488.3L148.3 514.5" opacity="0.13"/><path d="M152.4 488.3L110.1 495L159.1 446" opacity="0.13"/><path d="M190.6 507.8L210 545.9L148.3 514.5" opacity="0.13"/><path d="M152.4 488.3L190.6 507.8L159.1 446" opacity="0.13"/><path d="M190.6 507.8L152.4 488.3L148.3 514.5" opacity="0.13"/><path d="M79.9 525.3L110.1 495L99.3 563.5" opacity="0.13"/><path d="M73.2 567.6L79.9 525.3L30.8 574.3" opacity="0.13"/><path d="M79.9 525.3L73.2 567.6L99.3 563.5" opacity="0.13"/><path d="M167.7 552.6L210 545.9L148.3 514.5" opacity="0.13"/><path d="M129.6 533.2L167.7 552.6L99.3 563.5" opacity="0.13"/><path d="M167.7 552.6L129.6 533.2L148.3 514.5" opacity="0.13"/><path d="M110.1 495L129.6 533.2L148.3 514.5" opacity="0.13"/><path d="M129.6 533.2L110.1 495L99.3 563.5" opacity="0.13"/><path d="M97.4 414.6L59.2 395.1L127.7 384.3" opacity="0.13"/><path d="M139.7 407.9L97.4 414.6L159.1 446" opacity="0.13"/><path d="M97.4 414.6L139.7 407.9L127.7 384.3" opacity="0.13"/><path d="M96.2 322.5L76.8 284.4L65.9 352.8" opacity="0.13"/><path d="M89.5 364.8L96.2 322.5L127.7 384.3" opacity="0.13"/><path d="M96.2 322.5L89.5 364.8L65.9 352.8" opacity="0.13"/><path d="M59.2 395.1L89.5 364.8L65.9 352.8" opacity="0.13"/><path d="M89.5 364.8L59.2 395.1L127.7 384.3" opacity="0.13"/><path d="M79.9 525.3L110.1 495L41.7 505.9" opacity="0.13"/><path d="M37.5 532L79.9 525.3L30.8 574.3" opacity="0.13"/><path d="M79.9 525.3L37.5 532L41.7 505.9" opacity="0.13"/><path d="M52.5 437.4L59.2 395.1L90.7 456.9" opacity="0.13"/><path d="M72 475.6L52.5 437.4L41.7 505.9" opacity="0.13"/><path d="M52.5 437.4L72 475.6L90.7 456.9" opacity="0.13"/><path d="M110.1 495L72 475.6L90.7 456.9" opacity="0.13"/><path d="M72 475.6L110.1 495L41.7 505.9" opacity="0.13"/><path d="M110.1 495L116.8 452.7L90.7 456.9" opacity="0.13"/><path d="M116.8 452.7L110.1 495L159.1 446" opacity="0.13"/><path d="M97.4 414.6L59.2 395.1L90.7 456.9" opacity="0.13"/><path d="M116.8 452.7L97.4 414.6L159.1 446" opacity="0.13"/><path d="M97.4 414.6L116.8 452.7L90.7 456.9" opacity="0.13"/><path d="M327.5 486.1L320.8 528.4L289.3 466.6" opacity="0.13"/><path d="M308.1 447.9L327.5 486.1L338.3 417.6" opacity="0.13"/><path d="M327.5 486.1L308.1 447.9L289.3 466.6" opacity="0.13"/><path d="M240.3 515.6L210 545.9L278.5 535.1" opacity="0.13"/><path d="M282.6 508.9L240.3 515.6L289.3 466.6" opacity="0.13"/><path d="M240.3 515.6L282.6 508.9L278.5 535.1" opacity="0.13"/><path d="M320.8 528.4L282.6 508.9L278.5 535.1" opacity="0.13"/><path d="M282.6 508.9L320.8 528.4L289.3 466.6" opacity="0.13"/><path d="M438.3 468.5L400.1 449.1L431.6 510.8" opacity="0.13"/><path d="M457.7 506.7L438.3 468.5L500 500" opacity="0.13"/><path d="M438.3 468.5L457.7 506.7L431.6 510.8" opacity="0.13"/><path d="M363.1 521.7L320.8 528.4L369.8 479.4" opacity="0.13"/><path d="M393.4 491.4L363.1 521.7L431.6 510.8" opacity="0.13"/><path d="M363.1 521.7L393.4 491.4L369.8 479.4" opacity="0.13"/><path d="M400.1 449.1L393.4 491.4L369.8 479.4" opacity="0.13"/><path d="M393.4 491.4L400.1 449.1L431.6 510.8" opacity="0.13"/><path d="M400.1 449.1L357.8 455.8L369.8 479.4" opacity="0.13"/><path d="M357.8 455.8L400.1 449.1L338.3 417.6" opacity="0.13"/><path d="M327.5 486.1L320.8 528.4L369.8 479.4" opacity="0.13"/><path d="M357.8 455.8L327.5 486.1L338.3 417.6" opacity="0.13"/><path d="M327.5 486.1L357.8 455.8L369.8 479.4" opacity="0.13"/><path d="M170 377.6L176.7 335.3L127.7 384.3" opacity="0.13"/><path d="M139.7 407.9L170 377.6L159.1 446" opacity="0.13"/><path d="M170 377.6L139.7 407.9L127.7 384.3" opacity="0.13"/><path d="M96.2 322.5L76.8 284.4L138.5 315.8" opacity="0.13"/><path d="M134.4 342L96.2 322.5L127.7 384.3" opacity="0.13"/><path d="M96.2 322.5L134.4 342L138.5 315.8" opacity="0.13"/><path d="M176.7 335.3L134.4 342L138.5 315.8" opacity="0.13"/><path d="M134.4 342L176.7 335.3L127.7 384.3" opacity="0.13"/><path d="M269.9 428.5L227.6 435.2L276.6 386.2" opacity="0.13"/><path d="M300.2 398.2L269.9 428.5L338.3 417.6" opacity="0.13"/><path d="M269.9 428.5L300.2 398.2L276.6 386.2" opacity="0.13"/><path d="M214.8 354.7L176.7 335.3L208.1 397" opacity="0.13"/><path d="M234.3 392.9L214.8 354.7L276.6 386.2" opacity="0.13"/><path d="M214.8 354.7L234.3 392.9L208.1 397" opacity="0.13"/><path d="M227.6 435.2L234.3 392.9L208.1 397" opacity="0.13"/><path d="M234.3 392.9L227.6 435.2L276.6 386.2" opacity="0.13"/><path d="M227.6 435.2L189.4 415.7L208.1 397" opacity="0.13"/><path d="M189.4 415.7L227.6 435.2L159.1 446" opacity="0.13"/><path d="M170 377.6L176.7 335.3L208.1 397" opacity="0.13"/><path d="M189.4 415.7L170 377.6L159.1 446" opacity="0.13"/><path d="M170 377.6L189.4 415.7L208.1 397" opacity="0.13"/><path d="M227.6 435.2L197.3 465.5L220.9 477.5" opacity="0.13"/><path d="M197.3 465.5L227.6 435.2L159.1 446" opacity="0.13"/><path d="M190.6 507.8L210 545.9L220.9 477.5" opacity="0.13"/><path d="M197.3 465.5L190.6 507.8L159.1 446" opacity="0.13"/><path d="M190.6 507.8L197.3 465.5L220.9 477.5" opacity="0.13"/><path d="M269.9 428.5L227.6 435.2L289.3 466.6" opacity="0.13"/><path d="M308.1 447.9L269.9 428.5L338.3 417.6" opacity="0.13"/><path d="M269.9 428.5L308.1 447.9L289.3 466.6" opacity="0.13"/><path d="M240.3 515.6L210 545.9L220.9 477.5" opacity="0.13"/><path d="M247 473.3L240.3 515.6L289.3 466.6" opacity="0.13"/><path d="M240.3 515.6L247 473.3L220.9 477.5" opacity="0.13"/><path d="M227.6 435.2L247 473.3L220.9 477.5" opacity="0.13"/><path d="M247 473.3L227.6 435.2L289.3 466.6" opacity="0.13"/><path d="M266.8 187.5L286.3 225.7L305 207" opacity="0.13"/><path d="M286.3 225.7L266.8 187.5L256 256" opacity="0.13"/><path d="M324.4 245.1L366.7 238.4L305 207" opacity="0.13"/><path d="M286.3 225.7L324.4 245.1L256 256" opacity="0.13"/><path d="M324.4 245.1L286.3 225.7L305 207" opacity="0.13"/><path d="M273.5 145.2L266.8 187.5L315.8 138.5" opacity="0.13"/><path d="M303.8 114.9L273.5 145.2L284.4 76.8" opacity="0.13"/><path d="M273.5 145.2L303.8 114.9L315.8 138.5" opacity="0.13"/><path d="M347.3 200.3L366.7 238.4L305 207" opacity="0.13"/><path d="M309.1 180.8L347.3 200.3L315.8 138.5" opacity="0.13"/><path d="M347.3 200.3L309.1 180.8L305 207" opacity="0.13"/><path d="M266.8 187.5L309.1 180.8L305 207" opacity="0.13"/><path d="M309.1 180.8L266.8 187.5L315.8 138.5" opacity="0.13"/><path d="M194.2 224.5L156.1 205.1L187.5 266.8" opacity="0.13"/><path d="M213.7 262.7L194.2 224.5L256 256" opacity="0.13"/><path d="M194.2 224.5L213.7 262.7L187.5 266.8" opacity="0.13"/><path d="M119.1 277.7L76.8 284.4L125.8 235.4" opacity="0.13"/><path d="M149.4 247.4L119.1 277.7L187.5 266.8" opacity="0.13"/><path d="M119.1 277.7L149.4 247.4L125.8 235.4" opacity="0.13"/><path d="M156.1 205.1L149.4 247.4L125.8 235.4" opacity="0.13"/><path d="M149.4 247.4L156.1 205.1L187.5 266.8" opacity="0.13"/><path d="M273.5 145.2L266.8 187.5L235.4 125.8" opacity="0.13"/><path d="M254.1 107.1L273.5 145.2L284.4 76.8" opacity="0.13"/><path d="M273.5 145.2L254.1 107.1L235.4 125.8" opacity="0.13"/><path d="M186.3 174.8L156.1 205.1L224.5 194.2" opacity="0.13"/><path d="M228.7 168.1L186.3 174.8L235.4 125.8" opacity="0.13"/><path d="M186.3 174.8L228.7 168.1L224.5 194.2" opacity="0.13"/><path d="M266.8 187.5L228.7 168.1L224.5 194.2" opacity="0.13"/><path d="M228.7 168.1L266.8 187.5L235.4 125.8" opacity="0.13"/><path d="M266.8 187.5L236.5 217.8L224.5 194.2" opacity="0.13"/><path d="M236.5 217.8L266.8 187.5L256 256" opacity="0.13"/><path d="M194.2 224.5L156.1 205.1L224.5 194.2" opacity="0.13"/><path d="M236.5 217.8L194.2 224.5L256 256" opacity="0.13"/><path d="M194.2 224.5L236.5 217.8L224.5 194.2" opacity="0.13"/><path d="M387.3 368.6L417.6 338.3L349.2 349.2" opacity="0.13"/><path d="M345 375.3L387.3 368.6L338.3 417.6" opacity="0.13"/><path d="M387.3 368.6L345 375.3L349.2 349.2" opacity="0.13"/><path d="M360 280.7L366.7 238.4L398.2 300.2" opacity="0.13"/><path d="M379.5 318.9L360 280.7L349.2 349.2" opacity="0.13"/><path d="M360 280.7L379.5 318.9L398.2 300.2" opacity="0.13"/><path d="M417.6 338.3L379.5 318.9L398.2 300.2" opacity="0.13"/><path d="M379.5 318.9L417.6 338.3L349.2 349.2" opacity="0.13"/><path d="M438.3 468.5L400.1 449.1L468.5 438.3" opacity="0.13"/><path d="M480.6 461.8L438.3 468.5L500 500" opacity="0.13"/><path d="M438.3 468.5L480.6 461.8L468.5 438.3" opacity="0.13"/><path d="M437.1 376.5L417.6 338.3L406.8 406.8" opacity="0.13"/><path d="M430.4 418.8L437.1 376.5L468.5 438.3" opacity="0.13"/><path d="M437.1 376.5L430.4 418.8L406.8 406.8" opacity="0.13"/><path d="M400.1 449.1L430.4 418.8L406.8 406.8" opacity="0.13"/><path d="M430.4 418.8L400.1 449.1L468.5 438.3" opacity="0.13"/><path d="M400.1 449.1L380.6 410.9L406.8 406.8" opacity="0.13"/><path d="M380.6 410.9L400.1 449.1L338.3 417.6" opacity="0.13"/><path d="M387.3 368.6L417.6 338.3L406.8 406.8" opacity="0.13"/><path d="M380.6 410.9L387.3 368.6L338.3 417.6" opacity="0.13"/><path d="M387.3 368.6L380.6 410.9L406.8 406.8" opacity="0.13"/><path d="M207 305L176.7 335.3L187.5 266.8" opacity="0.13"/><path d="M213.7 262.7L207 305L256 256" opacity="0.13"/><path d="M207 305L213.7 262.7L187.5 266.8" opacity="0.13"/><path d="M119.1 277.7L76.8 284.4L138.5 315.8" opacity="0.13"/><path d="M157.2 297.1L119.1 277.7L187.5 266.8" opacity="0.13"/><path d="M119.1 277.7L157.2 297.1L138.5 315.8" opacity="0.13"/><path d="M176.7 335.3L157.2 297.1L138.5 315.8" opacity="0.13"/><path d="M157.2 297.1L176.7 335.3L187.5 266.8" opacity="0.13"/><path d="M306.9 355.9L287.4 317.7L276.6 386.2" opacity="0.13"/><path d="M300.2 398.2L306.9 355.9L338.3 417.6" opacity="0.13"/><path d="M306.9 355.9L300.2 398.2L276.6 386.2" opacity="0.13"/><path d="M214.8 354.7L176.7 335.3L245.1 324.4" opacity="0.13"/><path d="M257.1 348L214.8 354.7L276.6 386.2" opacity="0.13"/><path d="M214.8 354.7L257.1 348L245.1 324.4" opacity="0.13"/><path d="M287.4 317.7L257.1 348L245.1 324.4" opacity="0.13"/><path d="M257.1 348L287.4 317.7L276.6 386.2" opacity="0.13"/><path d="M287.4 317.7L249.3 298.3L245.1 324.4" opacity="0.13"/><path d="M249.3 298.3L287.4 317.7L256 256" opacity="0.13"/><path d="M207 305L176.7 335.3L245.1 324.4" opacity="0.13"/><path d="M249.3 298.3L207 305L256 256" opacity="0.13"/><path d="M207 305L249.3 298.3L245.1 324.4" opacity="0.13"/><path d="M287.4 317.7L294.1 275.4L317.7 287.4" opacity="0.13"/><path d="M294.1 275.4L287.4 317.7L256 256" opacity="0.13"/><path d="M324.4 245.1L366.7 238.4L317.7 287.4" opacity="0.13"/><path d="M294.1 275.4L324.4 245.1L256 256" opacity="0.13"/><path d="M324.4 245.1L294.1 275.4L317.7 287.4" opacity="0.13"/><path d="M306.9 355.9L287.4 317.7L349.2 349.2" opacity="0.13"/><path d="M345 375.3L306.9 355.9L338.3 417.6" opacity="0.13"/><path d="M306.9 355.9L345 375.3L349.2 349.2" opacity="0.13"/><path d="M360 280.7L366.7 238.4L317.7 287.4" opacity="0.13"/><path d="M329.7 311L360 280.7L349.2 349.2" opacity="0.13"/><path d="M360 280.7L329.7 311L317.7 287.4" opacity="0.13"/><path d="M287.4 317.7L329.7 311L317.7 287.4" opacity="0.13"/><path d="M329.7 311L287.4 317.7L349.2 349.2" opacity="0.13"/><path d="M384.3 127.7L403.7 165.8L377.6 170" opacity="0.13"/><path d="M403.7 165.8L384.3 127.7L446 159.1" opacity="0.13"/><path d="M397 208.1L366.7 238.4L377.6 170" opacity="0.13"/><path d="M403.7 165.8L397 208.1L446 159.1" opacity="0.13"/><path d="M397 208.1L403.7 165.8L377.6 170" opacity="0.13"/><path d="M346.1 108.2L384.3 127.7L315.8 138.5" opacity="0.13"/><path d="M303.8 114.9L346.1 108.2L284.4 76.8" opacity="0.13"/><path d="M346.1 108.2L303.8 114.9L315.8 138.5" opacity="0.13"/><path d="M347.3 200.3L366.7 238.4L377.6 170" opacity="0.13"/><path d="M354 158L347.3 200.3L315.8 138.5" opacity="0.13"/><path d="M347.3 200.3L354 158L377.6 170" opacity="0.13"/><path d="M384.3 127.7L354 158L377.6 170" opacity="0.13"/><path d="M354 158L384.3 127.7L315.8 138.5" opacity="0.13"/><path d="M456.9 90.7L463.6 48.4L495 110.1" opacity="0.13"/><path d="M476.3 128.9L456.9 90.7L446 159.1" opacity="0.13"/><path d="M456.9 90.7L476.3 128.9L495 110.1" opacity="0.13"/><path d="M544 61.1L574.3 30.8L505.9 41.7" opacity="0.13"/><path d="M501.7 67.8L544 61.1L495 110.1" opacity="0.13"/><path d="M544 61.1L501.7 67.8L505.9 41.7" opacity="0.13"/><path d="M463.6 48.4L501.7 67.8L505.9 41.7" opacity="0.13"/><path d="M501.7 67.8L463.6 48.4L495 110.1" opacity="0.13"/><path d="M346.1 108.2L384.3 127.7L352.8 65.9" opacity="0.13"/><path d="M326.7 70.1L346.1 108.2L284.4 76.8" opacity="0.13"/><path d="M346.1 108.2L326.7 70.1L352.8 65.9" opacity="0.13"/><path d="M421.3 55.1L463.6 48.4L414.6 97.4" opacity="0.13"/><path d="M391 85.4L421.3 55.1L352.8 65.9" opacity="0.13"/><path d="M421.3 55.1L391 85.4L414.6 97.4" opacity="0.13"/><path d="M384.3 127.7L391 85.4L414.6 97.4" opacity="0.13"/><path d="M391 85.4L384.3 127.7L352.8 65.9" opacity="0.13"/><path d="M384.3 127.7L426.6 121L414.6 97.4" opacity="0.13"/><path d="M426.6 121L384.3 127.7L446 159.1" opacity="0.13"/><path d="M456.9 90.7L463.6 48.4L414.6 97.4" opacity="0.13"/><path d="M426.6 121L456.9 90.7L446 159.1" opacity="0.13"/><path d="M456.9 90.7L426.6 121L414.6 97.4" opacity="0.13"/><path d="M459.9 331.6L417.6 338.3L466.6 289.3" opacity="0.13"/><path d="M490.2 301.4L459.9 331.6L528.4 320.8" opacity="0.13"/><path d="M459.9 331.6L490.2 301.4L466.6 289.3" opacity="0.13"/><path d="M404.9 257.9L366.7 238.4L398.2 300.2" opacity="0.13"/><path d="M424.3 296L404.9 257.9L466.6 289.3" opacity="0.13"/><path d="M404.9 257.9L424.3 296L398.2 300.2" opacity="0.13"/><path d="M417.6 338.3L424.3 296L398.2 300.2" opacity="0.13"/><path d="M424.3 296L417.6 338.3L466.6 289.3" opacity="0.13"/><path d="M510.8 431.6L517.5 389.2L468.5 438.3" opacity="0.13"/><path d="M480.6 461.8L510.8 431.6L500 500" opacity="0.13"/><path d="M510.8 431.6L480.6 461.8L468.5 438.3" opacity="0.13"/><path d="M437.1 376.5L417.6 338.3L479.4 369.8" opacity="0.13"/><path d="M475.2 395.9L437.1 376.5L468.5 438.3" opacity="0.13"/><path d="M437.1 376.5L475.2 395.9L479.4 369.8" opacity="0.13"/><path d="M517.5 389.2L475.2 395.9L479.4 369.8" opacity="0.13"/><path d="M475.2 395.9L517.5 389.2L468.5 438.3" opacity="0.13"/><path d="M517.5 389.2L498.1 351.1L479.4 369.8" opacity="0.13"/><path d="M498.1 351.1L517.5 389.2L528.4 320.8" opacity="0.13"/><path d="M459.9 331.6L417.6 338.3L479.4 369.8" opacity="0.13"/><path d="M498.1 351.1L459.9 331.6L528.4 320.8" opacity="0.13"/><path d="M459.9 331.6L498.1 351.1L479.4 369.8" opacity="0.13"/><path d="M514.5 148.3L556.8 141.6L495 110.1" opacity="0.13"/><path d="M476.3 128.9L514.5 148.3L446 159.1" opacity="0.13"/><path d="M514.5 148.3L476.3 128.9L495 110.1" opacity="0.13"/><path d="M544 61.1L574.3 30.8L563.5 99.3" opacity="0.13"/><path d="M537.3 103.4L544 61.1L495 110.1" opacity="0.13"/><path d="M544 61.1L537.3 103.4L563.5 99.3" opacity="0.13"/><path d="M556.8 141.6L537.3 103.4L563.5 99.3" opacity="0.13"/><path d="M537.3 103.4L556.8 141.6L495 110.1" opacity="0.13"/><path d="M496.9 259.1L477.5 220.9L539.2 252.4" opacity="0.13"/><path d="M535.1 278.5L496.9 259.1L528.4 320.8" opacity="0.13"/><path d="M496.9 259.1L535.1 278.5L539.2 252.4" opacity="0.13"/><path d="M550.1 183.9L556.8 141.6L507.8 190.6" opacity="0.13"/><path d="M519.8 214.2L550.1 183.9L539.2 252.4" opacity="0.13"/><path d="M550.1 183.9L519.8 214.2L507.8 190.6" opacity="0.13"/><path d="M477.5 220.9L519.8 214.2L507.8 190.6" opacity="0.13"/><path d="M519.8 214.2L477.5 220.9L539.2 252.4" opacity="0.13"/><path d="M477.5 220.9L484.2 178.6L507.8 190.6" opacity="0.13"/><path d="M484.2 178.6L477.5 220.9L446 159.1" opacity="0.13"/><path d="M514.5 148.3L556.8 141.6L507.8 190.6" opacity="0.13"/><path d="M484.2 178.6L514.5 148.3L446 159.1" opacity="0.13"/><path d="M514.5 148.3L484.2 178.6L507.8 190.6" opacity="0.13"/><path d="M477.5 220.9L439.3 201.4L435.2 227.6" opacity="0.13"/><path d="M439.3 201.4L477.5 220.9L446 159.1" opacity="0.13"/><path d="M397 208.1L366.7 238.4L435.2 227.6" opacity="0.13"/><path d="M439.3 201.4L397 208.1L446 159.1" opacity="0.13"/><path d="M397 208.1L439.3 201.4L435.2 227.6" opacity="0.13"/><path d="M496.9 259.1L477.5 220.9L466.6 289.3" opacity="0.13"/><path d="M490.2 301.4L496.9 259.1L528.4 320.8" opacity="0.13"/><path d="M496.9 259.1L490.2 301.4L466.6 289.3" opacity="0.13"/><path d="M404.9 257.9L366.7 238.4L435.2 227.6" opacity="0.13"/><path d="M447.2 251.2L404.9 257.9L466.6 289.3" opacity="0.13"/><path d="M404.9 257.9L447.2 251.2L435.2 227.6" opacity="0.13"/><path d="M477.5 220.9L447.2 251.2L435.2 227.6" opacity="0.13"/><path d="M447.2 251.2L477.5 220.9L466.6 289.3" opacity="0.13"/><path d="M725.1 181.7L694.8 212L718.4 224" opacity="0.13"/><path d="M694.8 212L725.1 181.7L656.7 192.5" opacity="0.13"/><path d="M688.1 254.3L707.6 292.4L718.4 224" opacity="0.13"/><path d="M694.8 212L688.1 254.3L656.7 192.5" opacity="0.13"/><path d="M688.1 254.3L694.8 212L718.4 224" opacity="0.13"/><path d="M767.4 175L725.1 181.7L786.9 213.1" opacity="0.13"/><path d="M805.6 194.4L767.4 175L835.9 164.1" opacity="0.13"/><path d="M767.4 175L805.6 194.4L786.9 213.1" opacity="0.13"/><path d="M737.9 262.1L707.6 292.4L718.4 224" opacity="0.13"/><path d="M744.6 219.8L737.9 262.1L786.9 213.1" opacity="0.13"/><path d="M737.9 262.1L744.6 219.8L718.4 224" opacity="0.13"/><path d="M725.1 181.7L744.6 219.8L718.4 224" opacity="0.13"/><path d="M744.6 219.8L725.1 181.7L786.9 213.1" opacity="0.13"/><path d="M667.5 124.1L674.2 81.8L625.2 130.8" opacity="0.13"/><path d="M637.2 154.3L667.5 124.1L656.7 192.5" opacity="0.13"/><path d="M667.5 124.1L637.2 154.3L625.2 130.8" opacity="0.13"/><path d="M593.8 69L574.3 30.8L636.1 62.3" opacity="0.13"/><path d="M631.9 88.5L593.8 69L625.2 130.8" opacity="0.13"/><path d="M593.8 69L631.9 88.5L636.1 62.3" opacity="0.13"/><path d="M674.2 81.8L631.9 88.5L636.1 62.3" opacity="0.13"/><path d="M631.9 88.5L674.2 81.8L625.2 130.8" opacity="0.13"/><path d="M767.4 175L725.1 181.7L774.1 132.7" opacity="0.13"/><path d="M797.7 144.7L767.4 175L835.9 164.1" opacity="0.13"/><path d="M767.4 175L797.7 144.7L774.1 132.7" opacity="0.13"/><path d="M712.4 101.2L674.2 81.8L705.7 143.5" opacity="0.13"/><path d="M731.8 139.4L712.4 101.2L774.1 132.7" opacity="0.13"/><path d="M712.4 101.2L731.8 139.4L705.7 143.5" opacity="0.13"/><path d="M725.1 181.7L731.8 139.4L705.7 143.5" opacity="0.13"/><path d="M731.8 139.4L725.1 181.7L774.1 132.7" opacity="0.13"/><path d="M725.1 181.7L687 162.2L705.7 143.5" opacity="0.13"/><path d="M687 162.2L725.1 181.7L656.7 192.5" opacity="0.13"/><path d="M667.5 124.1L674.2 81.8L705.7 143.5" opacity="0.13"/><path d="M687 162.2L667.5 124.1L656.7 192.5" opacity="0.13"/><path d="M667.5 124.1L687 162.2L705.7 143.5" opacity="0.13"/><path d="M590.1 352.3L628.3 371.7L596.8 310" opacity="0.13"/><path d="M570.7 314.1L590.1 352.3L528.4 320.8" opacity="0.13"/><path d="M590.1 352.3L570.7 314.1L596.8 310" opacity="0.13"/><path d="M665.3 299.1L707.6 292.4L658.6 341.4" opacity="0.13"/><path d="M635 329.4L665.3 299.1L596.8 310" opacity="0.13"/><path d="M665.3 299.1L635 329.4L658.6 341.4" opacity="0.13"/><path d="M628.3 371.7L635 329.4L658.6 341.4" opacity="0.13"/><path d="M635 329.4L628.3 371.7L596.8 310" opacity="0.13"/><path d="M510.8 431.6L517.5 389.2L549 451" opacity="0.13"/><path d="M530.3 469.7L510.8 431.6L500 500" opacity="0.13"/><path d="M510.8 431.6L530.3 469.7L549 451" opacity="0.13"/><path d="M598 402L628.3 371.7L559.8 382.5" opacity="0.13"/><path d="M555.7 408.7L598 402L549 451" opacity="0.13"/><path d="M598 402L555.7 408.7L559.8 382.5" opacity="0.13"/><path d="M517.5 389.2L555.7 408.7L559.8 382.5" opacity="0.13"/><path d="M555.7 408.7L517.5 389.2L549 451" opacity="0.13"/><path d="M517.5 389.2L547.8 359L559.8 382.5" opacity="0.13"/><path d="M547.8 359L517.5 389.2L528.4 320.8" opacity="0.13"/><path d="M590.1 352.3L628.3 371.7L559.8 382.5" opacity="0.13"/><path d="M547.8 359L590.1 352.3L528.4 320.8" opacity="0.13"/><path d="M590.1 352.3L547.8 359L559.8 382.5" opacity="0.13"/><path d="M594.9 161L556.8 141.6L625.2 130.8" opacity="0.13"/><path d="M637.2 154.3L594.9 161L656.7 192.5" opacity="0.13"/><path d="M594.9 161L637.2 154.3L625.2 130.8" opacity="0.13"/><path d="M593.8 69L574.3 30.8L563.5 99.3" opacity="0.13"/><path d="M587.1 111.3L593.8 69L625.2 130.8" opacity="0.13"/><path d="M593.8 69L587.1 111.3L563.5 99.3" opacity="0.13"/><path d="M556.8 141.6L587.1 111.3L563.5 99.3" opacity="0.13"/><path d="M587.1 111.3L556.8 141.6L625.2 130.8" opacity="0.13"/><path d="M577.4 271.8L607.7 241.5L539.2 252.4" opacity="0.13"/><path d="M535.1 278.5L577.4 271.8L528.4 320.8" opacity="0.13"/><path d="M577.4 271.8L535.1 278.5L539.2 252.4" opacity="0.13"/><path d="M550.1 183.9L556.8 141.6L588.2 203.3" opacity="0.13"/><path d="M569.5 222.1L550.1 183.9L539.2 252.4" opacity="0.13"/><path d="M550.1 183.9L569.5 222.1L588.2 203.3" opacity="0.13"/><path d="M607.7 241.5L569.5 222.1L588.2 203.3" opacity="0.13"/><path d="M569.5 222.1L607.7 241.5L539.2 252.4" opacity="0.13"/><path d="M607.7 241.5L614.4 199.2L588.2 203.3" opacity="0.13"/><path d="M614.4 199.2L607.7 241.5L656.7 192.5" opacity="0.13"/><path d="M594.9 161L556.8 141.6L588.2 203.3" opacity="0.13"/><path d="M614.4 199.2L594.9 161L656.7 192.5" opacity="0.13"/><path d="M594.9 161L614.4 199.2L588.2 203.3" opacity="0.13"/><path d="M607.7 241.5L650 234.8L645.8 261" opacity="0.13"/><path d="M650 234.8L607.7 241.5L656.7 192.5" opacity="0.13"/><path d="M688.1 254.3L707.6 292.4L645.8 261" opacity="0.13"/><path d="M650 234.8L688.1 254.3L656.7 192.5" opacity="0.13"/><path d="M688.1 254.3L650 234.8L645.8 261" opacity="0.13"/><path d="M577.4 271.8L607.7 241.5L596.8 310" opacity="0.13"/><path d="M570.7 314.1L577.4 271.8L528.4 320.8" opacity="0.13"/><path d="M577.4 271.8L570.7 314.1L596.8 310" opacity="0.13"/><path d="M665.3 299.1L707.6 292.4L645.8 261" opacity="0.13"/><path d="M627.1 279.7L665.3 299.1L596.8 310" opacity="0.13"/><path d="M665.3 299.1L627.1 279.7L645.8 261" opacity="0.13"/><path d="M607.7 241.5L627.1 279.7L645.8 261" opacity="0.13"/><path d="M627.1 279.7L607.7 241.5L596.8 310" opacity="0.13"/><path d="M818.3 274.9L788 305.2L776 281.6" opacity="0.13"/><path d="M788 305.2L818.3 274.9L807.5 343.3" opacity="0.13"/><path d="M745.7 311.9L707.6 292.4L776 281.6" opacity="0.13"/><path d="M788 305.2L745.7 311.9L807.5 343.3" opacity="0.13"/><path d="M745.7 311.9L788 305.2L776 281.6" opacity="0.13"/><path d="M825 232.6L818.3 274.9L786.9 213.1" opacity="0.13"/><path d="M805.6 194.4L825 232.6L835.9 164.1" opacity="0.13"/><path d="M825 232.6L805.6 194.4L786.9 213.1" opacity="0.13"/><path d="M737.9 262.1L707.6 292.4L776 281.6" opacity="0.13"/><path d="M780.2 255.4L737.9 262.1L786.9 213.1" opacity="0.13"/><path d="M737.9 262.1L780.2 255.4L776 281.6" opacity="0.13"/><path d="M818.3 274.9L780.2 255.4L776 281.6" opacity="0.13"/><path d="M780.2 255.4L818.3 274.9L786.9 213.1" opacity="0.13"/><path d="M875.9 332.5L918.2 325.8L869.2 374.8" opacity="0.13"/><path d="M845.7 362.8L875.9 332.5L807.5 343.3" opacity="0.13"/><path d="M875.9 332.5L845.7 362.8L869.2 374.8" opacity="0.13"/><path d="M931 406.2L969.2 425.7L937.7 363.9" opacity="0.13"/><path d="M911.5 368.1L931 406.2L869.2 374.8" opacity="0.13"/><path d="M931 406.2L911.5 368.1L937.7 363.9" opacity="0.13"/><path d="M918.2 325.8L911.5 368.1L937.7 363.9" opacity="0.13"/><path d="M911.5 368.1L918.2 325.8L869.2 374.8" opacity="0.13"/><path d="M825 232.6L818.3 274.9L867.3 225.9" opacity="0.13"/><path d="M855.3 202.3L825 232.6L835.9 164.1" opacity="0.13"/><path d="M825 232.6L855.3 202.3L867.3 225.9" opacity="0.13"/><path d="M898.8 287.6L918.2 325.8L856.5 294.3" opacity="0.13"/><path d="M860.6 268.2L898.8 287.6L867.3 225.9" opacity="0.13"/><path d="M898.8 287.6L860.6 268.2L856.5 294.3" opacity="0.13"/><path d="M818.3 274.9L860.6 268.2L856.5 294.3" opacity="0.13"/><path d="M860.6 268.2L818.3 274.9L867.3 225.9" opacity="0.13"/><path d="M818.3 274.9L837.8 313L856.5 294.3" opacity="0.13"/><path d="M837.8 313L818.3 274.9L807.5 343.3" opacity="0.13"/><path d="M875.9 332.5L918.2 325.8L856.5 294.3" opacity="0.13"/><path d="M837.8 313L875.9 332.5L807.5 343.3" opacity="0.13"/><path d="M875.9 332.5L837.8 313L856.5 294.3" opacity="0.13"/><path d="M647.7 409.9L628.3 371.7L690 403.2" opacity="0.13"/><path d="M685.9 429.3L647.7 409.9L679.2 471.6" opacity="0.13"/><path d="M647.7 409.9L685.9 429.3L690 403.2" opacity="0.13"/><path d="M700.9 334.7L707.6 292.4L658.6 341.4" opacity="0.13"/><path d="M670.6 365L700.9 334.7L690 403.2" opacity="0.13"/><path d="M700.9 334.7L670.6 365L658.6 341.4" opacity="0.13"/><path d="M628.3 371.7L670.6 365L658.6 341.4" opacity="0.13"/><path d="M670.6 365L628.3 371.7L690 403.2" opacity="0.13"/><path d="M568.4 489.2L610.8 482.5L549 451" opacity="0.13"/><path d="M530.3 469.7L568.4 489.2L500 500" opacity="0.13"/><path d="M568.4 489.2L530.3 469.7L549 451" opacity="0.13"/><path d="M598 402L628.3 371.7L617.5 440.2" opacity="0.13"/><path d="M591.3 444.3L598 402L549 451" opacity="0.13"/><path d="M598 402L591.3 444.3L617.5 440.2" opacity="0.13"/><path d="M610.8 482.5L591.3 444.3L617.5 440.2" opacity="0.13"/><path d="M591.3 444.3L610.8 482.5L549 451" opacity="0.13"/><path d="M610.8 482.5L641 452.2L617.5 440.2" opacity="0.13"/><path d="M641 452.2L610.8 482.5L679.2 471.6" opacity="0.13"/><path d="M647.7 409.9L628.3 371.7L617.5 440.2" opacity="0.13"/><path d="M641 452.2L647.7 409.9L679.2 471.6" opacity="0.13"/><path d="M647.7 409.9L641 452.2L617.5 440.2" opacity="0.13"/><path d="M839 405.1L858.4 443.2L869.2 374.8" opacity="0.13"/><path d="M845.7 362.8L839 405.1L807.5 343.3" opacity="0.13"/><path d="M839 405.1L845.7 362.8L869.2 374.8" opacity="0.13"/><path d="M931 406.2L969.2 425.7L900.7 436.5" opacity="0.13"/><path d="M888.7 412.9L931 406.2L869.2 374.8" opacity="0.13"/><path d="M931 406.2L888.7 412.9L900.7 436.5" opacity="0.13"/><path d="M858.4 443.2L888.7 412.9L900.7 436.5" opacity="0.13"/><path d="M888.7 412.9L858.4 443.2L869.2 374.8" opacity="0.13"/><path d="M728.2 422.6L758.5 392.3L747.6 460.8" opacity="0.13"/><path d="M721.5 464.9L728.2 422.6L679.2 471.6" opacity="0.13"/><path d="M728.2 422.6L721.5 464.9L747.6 460.8" opacity="0.13"/><path d="M816.1 449.9L858.4 443.2L796.7 411.8" opacity="0.13"/><path d="M777.9 430.5L816.1 449.9L747.6 460.8" opacity="0.13"/><path d="M816.1 449.9L777.9 430.5L796.7 411.8" opacity="0.13"/><path d="M758.5 392.3L777.9 430.5L796.7 411.8" opacity="0.13"/><path d="M777.9 430.5L758.5 392.3L747.6 460.8" opacity="0.13"/><path d="M758.5 392.3L800.8 385.6L796.7 411.8" opacity="0.13"/><path d="M800.8 385.6L758.5 392.3L807.5 343.3" opacity="0.13"/><path d="M839 405.1L858.4 443.2L796.7 411.8" opacity="0.13"/><path d="M800.8 385.6L839 405.1L807.5 343.3" opacity="0.13"/><path d="M839 405.1L800.8 385.6L796.7 411.8" opacity="0.13"/><path d="M758.5 392.3L765.2 350L739 354.2" opacity="0.13"/><path d="M765.2 350L758.5 392.3L807.5 343.3" opacity="0.13"/><path d="M745.7 311.9L707.6 292.4L739 354.2" opacity="0.13"/><path d="M765.2 350L745.7 311.9L807.5 343.3" opacity="0.13"/><path d="M745.7 311.9L765.2 350L739 354.2" opacity="0.13"/><path d="M728.2 422.6L758.5 392.3L690 403.2" opacity="0.13"/><path d="M685.9 429.3L728.2 422.6L679.2 471.6" opacity="0.13"/><path d="M728.2 422.6L685.9 429.3L690 403.2" opacity="0.13"/><path d="M700.9 334.7L707.6 292.4L739 354.2" opacity="0.13"/><path d="M720.3 372.9L700.9 334.7L690 403.2" opacity="0.13"/><path d="M700.9 334.7L720.3 372.9L739 354.2" opacity="0.13"/><path d="M758.5 392.3L720.3 372.9L739 354.2" opacity="0.13"/><path d="M720.3 372.9L758.5 392.3L690 403.2" opacity="0.13"/></g></svg>