<svg xmlns="http://www.w3.org/2000/svg" viewBox="0 0 1000 1000" preserveAspectRatio="xMidYMid slice" fill="none" stroke-linecap="round" stroke-linejoin="round"><g stroke="#0f3d2e" stroke-width="0.6"><path d="M849.6 672.6L815 647.4L806.8 672.6" opacity="0.13"/><path d="M815 647.4L849.6 672.6L828.2 606.6" opacity="0.13"/><path d="M772.2 647.4L737.5 672.6L806.8 672.6" opacity="0.13"/><path d="M815 647.4L772.2 647.4L828.2 606.6" opacity="0.13"/><path d="M772.2 647.4L815 647.4L806.8 672.6" opacity="0.13"/><path d="M862.9 713.3L849.6 672.6L828.2 738.5" opacity="0.13"/><path d="M849.6 754L862.9 713.3L884.3 779.2" opacity="0.13"/><path d="M862.9 713.3L849.6 754L828.2 738.5" opacity="0.13"/><path d="M772.2 697.7L737.5 672.6L806.8 672.6" opacity="0.13"/><path d="M815 697.7L772.2 697.7L828.2 738.5" opacity="0.13"/><path d="M772.2 697.7L815 697.7L806.8 672.6" opacity="0.13"/><path d="M849.6 672.6L815 697.7L806.8 672.6" opacity="0.13"/><path d="M815 697.7L849.6 672.6L828.2 738.5" opacity="0.13"/><path d="M897.5 606.6L940.3 606.6L884.3 565.9" opacity="0.13"/><path d="M862.9 581.5L897.5 606.6L828.2 606.6" opacity="0.13"/><path d="M897.5 606.6L862.9 581.5L884.3 565.9" opacity="0.13"/><path d="M940.3 525.2L975 500L953.6 565.9" opacity="0.13"/><path d="M927.1 565.9L940.3 525.2L884.3 565.9" opacity="0.13"/><path d="M940.3 525.2L927.1 565.9L953.6 565.9" opacity="0.13"/><path d="M940.3 606.6L927.1 565.9L953.6 565.9" opacity="0.13"/><path d="M927.1 565.9L940.3 606.6L884.3 565.9" opacity="0.13"/><path d="M862.9 713.3L849.6 672.6L905.7 713.3" opacity="0.13"/><path d="M897.5 738.5L862.9 713.3L884.3 779.2" opacity="0.13"/><path d="M862.9 713.3L897.5 738.5L905.7 713.3" opacity="0.13"/><path d="M927.1 647.4L940.3 606.6L884.3 647.4" opacity="0.13"/><path d="M892.5 672.6L927.1 647.4L905.7 713.3" opacity="0.13"/><path d="M927.1 647.4L892.5 672.6L884.3 647.4" opacity="0.13"/><path d="M849.6 672.6L892.5 672.6L884.3 647.4" opacity="0.13"/><path d="M892.5 672.6L849.6 672.6L905.7 713.3" opacity="0.13"/><path d="M849.6 672.6L862.9 631.8L884.3 647.4" opacity="0.13"/><path d="M862.9 631.8L849.6 672.6L828.2 606.6" opacity="0.13"/><path d="M897.5 606.6L940.3 606.6L884.3 647.4" opacity="0.13"/><path d="M862.9 631.8L897.5 606.6L828.2 606.6" opacity="0.13"/><path d="M897.5 606.6L862.9 631.8L884.3 647.4" opacity="0.13"/><path d="M660 565.9L646.8 606.6L702.8 565.9" opacity="0.13"/><path d="M694.7 540.7L660 565.9L681.4 500" opacity="0.13"/><path d="M660 565.9L694.7 540.7L702.8 565.9" opacity="0.13"/><path d="M724.3 631.8L737.5 672.6L681.4 631.8" opacity="0.13"/><path d="M689.6 606.6L724.3 631.8L702.8 565.9" opacity="0.13"/><path d="M724.3 631.8L689.6 606.6L681.4 631.8" opacity="0.13"/><path d="M646.8 606.6L689.6 606.6L681.4 631.8" opacity="0.13"/><path d="M689.6 606.6L646.8 606.6L702.8 565.9" opacity="0.13"/><path d="M569.3 500L612.1 500L556.1 540.7" opacity="0.13"/><path d="M534.7 525.2L569.3 500L500 500" opacity="0.13"/><path d="M569.3 500L534.7 525.2L556.1 540.7" opacity="0.13"/><path d="M612.1 581.5L646.8 606.6L625.4 540.7" opacity="0.13"/><path d="M598.9 540.7L612.1 581.5L556.1 540.7" opacity="0.13"/><path d="M612.1 581.5L598.9 540.7L625.4 540.7" opacity="0.13"/><path d="M612.1 500L598.9 540.7L625.4 540.7" opacity="0.13"/><path d="M598.9 540.7L612.1 500L556.1 540.7" opacity="0.13"/><path d="M612.1 500L646.8 525.2L625.4 540.7" opacity="0.13"/><path d="M646.8 525.2L612.1 500L681.4 500" opacity="0.13"/><path d="M660 565.9L646.8 606.6L625.4 540.7" opacity="0.13"/><path d="M646.8 525.2L660 565.9L681.4 500" opacity="0.13"/><path d="M660 565.9L646.8 525.2L625.4 540.7" opacity="0.13"/><path d="M849.6 540.7L862.9 500L884.3 565.9" opacity="0.13"/><path d="M862.9 581.5L849.6 540.7L828.2 606.6" opacity="0.13"/><path d="M849.6 540.7L862.9 581.5L884.3 565.9" opacity="0.13"/><path d="M940.3 525.2L975 500L905.7 500" opacity="0.13"/><path d="M897.5 525.2L940.3 525.2L884.3 565.9" opacity="0.13"/><path d="M940.3 525.2L897.5 525.2L905.7 500" opacity="0.13"/><path d="M862.9 500L897.5 525.2L905.7 500" opacity="0.13"/><path d="M897.5 525.2L862.9 500L884.3 565.9" opacity="0.13"/><path d="M737.5 540.7L772.2 565.9L750.7 500" opacity="0.13"/><path d="M724.3 500L737.5 540.7L681.4 500" opacity="0.13"/><path d="M737.5 540.7L724.3 500L750.7 500" opacity="0.13"/><path d="M820 500L862.9 500L806.8 540.7" opacity="0.13"/><path d="M785.4 525.2L820 500L750.7 500" opacity="0.13"/><path d="M820 500L785.4 525.2L806.8 540.7" opacity="0.13"/><path d="M772.2 565.9L785.4 525.2L806.8 540.7" opacity="0.13"/><path d="M785.4 525.2L772.2 565.9L750.7 500" opacity="0.13"/><path d="M772.2 565.9L815 565.9L806.8 540.7" opacity="0.13"/><path d="M815 565.9L772.2 565.9L828.2 606.6" opacity="0.13"/><path d="M849.6 540.7L862.9 500L806.8 540.7" opacity="0.13"/><path d="M815 565.9L849.6 540.7L828.2 606.6" opacity="0.13"/><path d="M849.6 540.7L815 565.9L806.8 540.7" opacity="0.13"/><path d="M772.2 565.9L785.4 606.6L758.9 606.6" opacity="0.13"/><path d="M785.4 606.6L772.2 565.9L828.2 606.6" opacity="0.13"/><path d="M772.2 647.4L737.5 672.6L758.9 606.6" opacity="0.13"/><path d="M785.4 606.6L772.2 647.4L828.2 606.6" opacity="0.13"/><path d="M772.2 647.4L785.4 606.6L758.9 606.6" opacity="0.13"/><path d="M737.5 540.7L772.2 565.9L702.8 565.9" opacity="0.13"/><path d="M694.7 540.7L737.5 540.7L681.4 500" opacity="0.13"/><path d="M737.5 540.7L694.7 540.7L702.8 565.9" opacity="0.13"/><path d="M724.3 631.8L737.5 672.6L758.9 606.6" opacity="0.13"/><path d="M737.5 591.1L724.3 631.8L702.8 565.9" opacity="0.13"/><path d="M724.3 631.8L737.5 591.1L758.9 606.6" opacity="0.13"/><path d="M772.2 565.9L737.5 591.1L758.9 606.6" opacity="0.13"/><path d="M737.5 591.1L772.2 565.9L702.8 565.9" opacity="0.13"/><path d="M772.2 779.2L737.5 754L758.9 738.5" opacity="0.13"/><path d="M737.5 754L772.2 779.2L702.8 779.2" opacity="0.13"/><path d="M724.3 713.3L737.5 672.6L758.9 738.5" opacity="0.13"/><path d="M737.5 754L724.3 713.3L702.8 779.2" opacity="0.13"/><path d="M724.3 713.3L737.5 754L758.9 738.5" opacity="0.13"/><path d="M815 779.2L772.2 779.2L828.2 738.5" opacity="0.13"/><path d="M849.6 754L815 779.2L884.3 779.2" opacity="0.13"/><path d="M815 779.2L849.6 754L828.2 738.5" opacity="0.13"/><path d="M772.2 697.7L737.5 672.6L758.9 738.5" opacity="0.13"/><path d="M785.4 738.5L772.2 697.7L828.2 738.5" opacity="0.13"/><path d="M772.2 697.7L785.4 738.5L758.9 738.5" opacity="0.13"/><path d="M772.2 779.2L785.4 738.5L758.9 738.5" opacity="0.13"/><path d="M785.4 738.5L772.2 779.2L828.2 738.5" opacity="0.13"/><path d="M724.3 845.1L737.5 885.8L681.4 845.1" opacity="0.13"/><path d="M689.6 819.9L724.3 845.1L702.8 779.2" opacity="0.13"/><path d="M724.3 845.1L689.6 819.9L681.4 845.1" opacity="0.13"/><path d="M660 911L646.8 951.8L702.8 911" opacity="0.13"/><path d="M694.7 885.8L660 911L681.4 845.1" opacity="0.13"/><path d="M660 911L694.7 885.8L702.8 911" opacity="0.13"/><path d="M737.5 885.8L694.7 885.8L702.8 911" opacity="0.13"/><path d="M694.7 885.8L737.5 885.8L681.4 845.1" opacity="0.13"/><path d="M815 779.2L772.2 779.2L828.2 819.9" opacity="0.13"/><path d="M849.6 804.4L815 779.2L884.3 779.2" opacity="0.13"/><path d="M815 779.2L849.6 804.4L828.2 819.9" opacity="0.13"/><path d="M772.2 860.7L737.5 885.8L758.9 819.9" opacity="0.13"/><path d="M785.4 819.9L772.2 860.7L828.2 819.9" opacity="0.13"/><path d="M772.2 860.7L785.4 819.9L758.9 819.9" opacity="0.13"/><path d="M772.2 779.2L785.4 819.9L758.9 819.9" opacity="0.13"/><path d="M785.4 819.9L772.2 779.2L828.2 819.9" opacity="0.13"/><path d="M772.2 779.2L737.5 804.4L758.9 819.9" opacity="0.13"/><path d="M737.5 804.4L772.2 779.2L702.8 779.2" opacity="0.13"/><path d="M724.3 845.1L737.5 885.8L758.9 819.9" opacity="0.13"/><path d="M737.5 804.4L724.3 845.1L702.8 779.2" opacity="0.13"/><path d="M724.3 845.1L737.5 804.4L758.9 819.9" opacity="0.13"/><path d="M612.1 631.8L646.8 606.6L625.4 672.6" opacity="0.13"/><path d="M598.9 672.6L612.1 631.8L556.1 672.6" opacity="0.13"/><path d="M612.1 631.8L598.9 672.6L625.4 672.6" opacity="0.13"/><path d="M694.7 672.6L737.5 672.6L681.4 631.8" opacity="0.13"/><path d="M660 647.4L694.7 672.6L625.4 672.6" opacity="0.13"/><path d="M694.7 672.6L660 647.4L681.4 631.8" opacity="0.13"/><path d="M646.8 606.6L660 647.4L681.4 631.8" opacity="0.13"/><path d="M660 647.4L646.8 606.6L625.4 672.6" opacity="0.13"/><path d="M521.4 565.9L534.7 606.6L556.1 540.7" opacity="0.13"/><path d="M534.7 525.2L521.4 565.9L500 500" opacity="0.13"/><path d="M521.4 565.9L534.7 525.2L556.1 540.7" opacity="0.13"/><path d="M612.1 581.5L646.8 606.6L577.5 606.6" opacity="0.13"/><path d="M569.3 581.5L612.1 581.5L556.1 540.7" opacity="0.13"/><path d="M612.1 581.5L569.3 581.5L577.5 606.6" opacity="0.13"/><path d="M534.7 606.6L569.3 581.5L577.5 606.6" opacity="0.13"/><path d="M569.3 581.5L534.7 606.6L556.1 540.7" opacity="0.13"/><path d="M534.7 606.6L569.3 631.8L577.5 606.6" opacity="0.13"/><path d="M569.3 631.8L534.7 606.6L556.1 672.6" opacity="0.13"/><path d="M612.1 631.8L646.8 606.6L577.5 606.6" opacity="0.13"/><path d="M569.3 631.8L612.1 631.8L556.1 672.6" opacity="0.13"/><path d="M612.1 631.8L569.3 631.8L577.5 606.6" opacity="0.13"/><path d="M646.8 819.9L612.1 845.1L681.4 845.1" opacity="0.13"/><path d="M689.6 819.9L646.8 819.9L702.8 779.2" opacity="0.13"/><path d="M646.8 819.9L689.6 819.9L681.4 845.1" opacity="0.13"/><path d="M660 911L646.8 951.8L625.4 885.8" opacity="0.13"/><path d="M646.8 870.3L660 911L681.4 845.1" opacity="0.13"/><path d="M660 911L646.8 870.3L625.4 885.8" opacity="0.13"/><path d="M612.1 845.1L646.8 870.3L625.4 885.8" opacity="0.13"/><path d="M646.8 870.3L612.1 845.1L681.4 845.1" opacity="0.13"/><path d="M612.1 713.3L646.8 738.5L577.5 738.5" opacity="0.13"/><path d="M569.3 713.3L612.1 713.3L556.1 672.6" opacity="0.13"/><path d="M612.1 713.3L569.3 713.3L577.5 738.5" opacity="0.13"/><path d="M598.9 804.4L612.1 845.1L633.5 779.2" opacity="0.13"/><path d="M612.1 763.6L598.9 804.4L577.5 738.5" opacity="0.13"/><path d="M598.9 804.4L612.1 763.6L633.5 779.2" opacity="0.13"/><path d="M646.8 738.5L612.1 763.6L633.5 779.2" opacity="0.13"/><path d="M612.1 763.6L646.8 738.5L577.5 738.5" opacity="0.13"/><path d="M646.8 738.5L660 779.2L633.5 779.2" opacity="0.13"/><path d="M660 779.2L646.8 738.5L702.8 779.2" opacity="0.13"/><path d="M646.8 819.9L612.1 845.1L633.5 779.2" opacity="0.13"/><path d="M660 779.2L646.8 819.9L702.8 779.2" opacity="0.13"/><path d="M646.8 819.9L660 779.2L633.5 779.2" opacity="0.13"/><path d="M646.8 738.5L689.6 738.5L681.4 713.3" opacity="0.13"/><path d="M689.6 738.5L646.8 738.5L702.8 779.2" opacity="0.13"/><path d="M724.3 713.3L737.5 672.6L681.4 713.3" opacity="0.13"/><path d="M689.6 738.5L724.3 713.3L702.8 779.2" opacity="0.13"/><path d="M724.3 713.3L689.6 738.5L681.4 713.3" opacity="0.13"/><path d="M612.1 713.3L646.8 738.5L625.4 672.6" opacity="0.13"/><path d="M598.9 672.6L612.1 713.3L556.1 672.6" opacity="0.13"/><path d="M612.1 713.3L598.9 672.6L625.4 672.6" opacity="0.13"/><path d="M694.7 672.6L737.5 672.6L681.4 713.3" opacity="0.13"/><path d="M660 697.7L694.7 672.6L625.4 672.6" opacity="0.13"/><path d="M694.7 672.6L660 697.7L681.4 713.3" opacity="0.13"/><path d="M646.8 738.5L660 697.7L681.4 713.3" opacity="0.13"/><path d="M660 697.7L646.8 738.5L625.4 672.6" opacity="0.13"/><path d="M443.9 885.8L457.2 845.1L430.7 845.1" opacity="0.13"/><path d="M457.2 845.1L443.9 885.8L500 845.1" opacity="0.13"/><path d="M443.9 804.4L409.3 779.2L430.7 845.1" opacity="0.13"/><path d="M457.2 845.1L443.9 804.4L500 845.1" opacity="0.13"/><path d="M443.9 804.4L457.2 845.1L430.7 845.1" opacity="0.13"/><path d="M409.3 911L443.9 885.8L374.6 885.8" opacity="0.13"/><path d="M366.5 911L409.3 911L353.2 951.8" opacity="0.13"/><path d="M409.3 911L366.5 911L374.6 885.8" opacity="0.13"/><path d="M396 819.9L409.3 779.2L430.7 845.1" opacity="0.13"/><path d="M409.3 860.7L396 819.9L374.6 885.8" opacity="0.13"/><path d="M396 819.9L409.3 860.7L430.7 845.1" opacity="0.13"/><path d="M443.9 885.8L409.3 860.7L430.7 845.1" opacity="0.13"/><path d="M409.3 860.7L443.9 885.8L374.6 885.8" opacity="0.13"/><path d="M521.4 911L534.7 951.8L556.1 885.8" opacity="0.13"/><path d="M534.7 870.3L521.4 911L500 845.1" opacity="0.13"/><path d="M521.4 911L534.7 870.3L556.1 885.8" opacity="0.13"/><path d="M612.1 926.6L646.8 951.8L577.5 951.8" opacity="0.13"/><path d="M569.3 926.6L612.1 926.6L556.1 885.8" opacity="0.13"/><path d="M612.1 926.6L569.3 926.6L577.5 951.8" opacity="0.13"/><path d="M534.7 951.8L569.3 926.6L577.5 951.8" opacity="0.13"/><path d="M569.3 926.6L534.7 951.8L556.1 885.8" opacity="0.13"/><path d="M409.3 911L443.9 885.8L422.5 951.8" opacity="0.13"/><path d="M396 951.8L409.3 911L353.2 951.8" opacity="0.13"/><path d="M409.3 911L396 951.8L422.5 951.8" opacity="0.13"/><path d="M491.8 951.8L534.7 951.8L478.6 911" opacity="0.13"/><path d="M457.2 926.6L491.8 951.8L422.5 951.8" opacity="0.13"/><path d="M491.8 951.8L457.2 926.6L478.6 911" opacity="0.13"/><path d="M443.9 885.8L457.2 926.6L478.6 911" opacity="0.13"/><path d="M457.2 926.6L443.9 885.8L422.5 951.8" opacity="0.13"/><path d="M443.9 885.8L486.8 885.8L478.6 911" opacity="0.13"/><path d="M486.8 885.8L443.9 885.8L500 845.1" opacity="0.13"/><path d="M521.4 911L534.7 951.8L478.6 911" opacity="0.13"/><path d="M486.8 885.8L521.4 911L500 845.1" opacity="0.13"/><path d="M521.4 911L486.8 885.8L478.6 911" opacity="0.13"/><path d="M486.8 672.6L443.9 672.6L500 713.3" opacity="0.13"/><path d="M521.4 697.7L486.8 672.6L556.1 672.6" opacity="0.13"/><path d="M486.8 672.6L521.4 697.7L500 713.3" opacity="0.13"/><path d="M443.9 754L409.3 779.2L430.7 713.3" opacity="0.13"/><path d="M457.2 713.3L443.9 754L500 713.3" opacity="0.13"/><path d="M443.9 754L457.2 713.3L430.7 713.3" opacity="0.13"/><path d="M443.9 672.6L457.2 713.3L430.7 713.3" opacity="0.13"/><path d="M457.2 713.3L443.9 672.6L500 713.3" opacity="0.13"/><path d="M521.4 565.9L534.7 606.6L478.6 565.9" opacity="0.13"/><path d="M486.8 540.7L521.4 565.9L500 500" opacity="0.13"/><path d="M521.4 565.9L486.8 540.7L478.6 565.9" opacity="0.13"/><path d="M457.2 631.8L443.9 672.6L500 631.8" opacity="0.13"/><path d="M491.8 606.6L457.2 631.8L478.6 565.9" opacity="0.13"/><path d="M457.2 631.8L491.8 606.6L500 631.8" opacity="0.13"/><path d="M534.7 606.6L491.8 606.6L500 631.8" opacity="0.13"/><path d="M491.8 606.6L534.7 606.6L478.6 565.9" opacity="0.13"/><path d="M534.7 606.6L521.4 647.4L500 631.8" opacity="0.13"/><path d="M521.4 647.4L534.7 606.6L556.1 672.6" opacity="0.13"/><path d="M486.8 672.6L443.9 672.6L500 631.8" opacity="0.13"/><path d="M521.4 647.4L486.8 672.6L556.1 672.6" opacity="0.13"/><path d="M486.8 672.6L521.4 647.4L500 631.8" opacity="0.13"/><path d="M569.3 845.1L612.1 845.1L556.1 885.8" opacity="0.13"/><path d="M534.7 870.3L569.3 845.1L500 845.1" opacity="0.13"/><path d="M569.3 845.1L534.7 870.3L556.1 885.8" opacity="0.13"/><path d="M612.1 926.6L646.8 951.8L625.4 885.8" opacity="0.13"/><path d="M598.9 885.8L612.1 926.6L556.1 885.8" opacity="0.13"/><path d="M612.1 926.6L598.9 885.8L625.4 885.8" opacity="0.13"/><path d="M612.1 845.1L598.9 885.8L625.4 885.8" opacity="0.13"/><path d="M598.9 885.8L612.1 845.1L556.1 885.8" opacity="0.13"/><path d="M534.7 738.5L521.4 779.2L577.5 738.5" opacity="0.13"/><path d="M569.3 713.3L534.7 738.5L556.1 672.6" opacity="0.13"/><path d="M534.7 738.5L569.3 713.3L577.5 738.5" opacity="0.13"/><path d="M598.9 804.4L612.1 845.1L556.1 804.4" opacity="0.13"/><path d="M564.2 779.2L598.9 804.4L577.5 738.5" opacity="0.13"/><path d="M598.9 804.4L564.2 779.2L556.1 804.4" opacity="0.13"/><path d="M521.4 779.2L564.2 779.2L556.1 804.4" opacity="0.13"/><path d="M564.2 779.2L521.4 779.2L577.5 738.5" opacity="0.13"/><path d="M521.4 779.2L534.7 819.9L556.1 804.4" opacity="0.13"/><path d="M534.7 819.9L521.4 779.2L500 845.1" opacity="0.13"/><path d="M569.3 845.1L612.1 845.1L556.1 804.4" opacity="0.13"/><path d="M534.7 819.9L569.3 845.1L500 845.1" opacity="0.13"/><path d="M569.3 845.1L534.7 819.9L556.1 804.4" opacity="0.13"/><path d="M521.4 779.2L486.8 804.4L478.6 779.2" opacity="0.13"/><path d="M486.8 804.4L521.4 779.2L500 845.1" opacity="0.13"/><path d="M443.9 804.4L409.3 779.2L478.6 779.2" opacity="0.13"/><path d="M486.8 804.4L443.9 804.4L500 845.1" opacity="0.13"/><path d="M443.9 804.4L486.8 804.4L478.6 779.2" opacity="0.13"/><path d="M534.7 738.5L521.4 779.2L500 713.3" opacity="0.13"/><path d="M521.4 697.7L534.7 738.5L556.1 672.6" opacity="0.13"/><path d="M534.7 738.5L521.4 697.7L500 713.3" opacity="0.13"/><path d="M443.9 754L409.3 779.2L478.6 779.2" opacity="0.13"/><path d="M486.8 754L443.9 754L500 713.3" opacity="0.13"/><path d="M443.9 754L486.8 754L478.6 779.2" opacity="0.13"/><path d="M521.4 779.2L486.8 754L478.6 779.2" opacity="0.13"/><path d="M486.8 754L521.4 779.2L500 713.3" opacity="0.13"/><path d="M318.6 845.1L331.8 804.4L353.2 819.9" opacity="0.13"/><path d="M331.8 804.4L318.6 845.1L297.2 779.2" opacity="0.13"/><path d="M366.5 779.2L409.3 779.2L353.2 819.9" opacity="0.13"/><path d="M331.8 804.4L366.5 779.2L297.2 779.2" opacity="0.13"/><path d="M366.5 779.2L331.8 804.4L353.2 819.9" opacity="0.13"/><path d="M331.8 885.8L318.6 845.1L374.6 885.8" opacity="0.13"/><path d="M366.5 911L331.8 885.8L353.2 951.8" opacity="0.13"/><path d="M331.8 885.8L366.5 911L374.6 885.8" opacity="0.13"/><path d="M396 819.9L409.3 779.2L353.2 819.9" opacity="0.13"/><path d="M361.4 845.1L396 819.9L374.6 885.8" opacity="0.13"/><path d="M396 819.9L361.4 845.1L353.2 819.9" opacity="0.13"/><path d="M318.6 845.1L361.4 845.1L353.2 819.9" opacity="0.13"/><path d="M361.4 845.1L318.6 845.1L374.6 885.8" opacity="0.13"/><path d="M241.1 819.9L206.4 845.1L227.8 779.2" opacity="0.13"/><path d="M254.3 779.2L241.1 819.9L297.2 779.2" opacity="0.13"/><path d="M241.1 819.9L254.3 779.2L227.8 779.2" opacity="0.13"/><path d="M158.5 779.2L115.7 779.2L171.8 819.9" opacity="0.13"/><path d="M193.2 804.4L158.5 779.2L227.8 779.2" opacity="0.13"/><path d="M158.5 779.2L193.2 804.4L171.8 819.9" opacity="0.13"/><path d="M206.4 845.1L193.2 804.4L171.8 819.9" opacity="0.13"/><path d="M193.2 804.4L206.4 845.1L227.8 779.2" opacity="0.13"/><path d="M331.8 885.8L318.6 845.1L297.2 911" opacity="0.13"/><path d="M318.6 926.6L331.8 885.8L353.2 951.8" opacity="0.13"/><path d="M331.8 885.8L318.6 926.6L297.2 911" opacity="0.13"/><path d="M241.1 870.3L206.4 845.1L275.7 845.1" opacity="0.13"/><path d="M283.9 870.3L241.1 870.3L297.2 911" opacity="0.13"/><path d="M241.1 870.3L283.9 870.3L275.7 845.1" opacity="0.13"/><path d="M318.6 845.1L283.9 870.3L275.7 845.1" opacity="0.13"/><path d="M283.9 870.3L318.6 845.1L297.2 911" opacity="0.13"/><path d="M318.6 845.1L283.9 819.9L275.7 845.1" opacity="0.13"/><path d="M283.9 819.9L318.6 845.1L297.2 779.2" opacity="0.13"/><path d="M241.1 819.9L206.4 845.1L275.7 845.1" opacity="0.13"/><path d="M283.9 819.9L241.1 819.9L297.2 779.2" opacity="0.13"/><path d="M241.1 819.9L283.9 819.9L275.7 845.1" opacity="0.13"/><path d="M409.3 647.4L443.9 672.6L374.6 672.6" opacity="0.13"/><path d="M366.5 647.4L409.3 647.4L353.2 606.6" opacity="0.13"/><path d="M409.3 647.4L366.5 647.4L374.6 672.6" opacity="0.13"/><path d="M396 738.5L409.3 779.2L430.7 713.3" opacity="0.13"/><path d="M409.3 697.7L396 738.5L374.6 672.6" opacity="0.13"/><path d="M396 738.5L409.3 697.7L430.7 713.3" opacity="0.13"/><path d="M443.9 672.6L409.3 697.7L430.7 713.3" opacity="0.13"/><path d="M409.3 697.7L443.9 672.6L374.6 672.6" opacity="0.13"/><path d="M443.9 540.7L409.3 565.9L478.6 565.9" opacity="0.13"/><path d="M486.8 540.7L443.9 540.7L500 500" opacity="0.13"/><path d="M443.9 540.7L486.8 540.7L478.6 565.9" opacity="0.13"/><path d="M457.2 631.8L443.9 672.6L422.5 606.6" opacity="0.13"/><path d="M443.9 591.1L457.2 631.8L478.6 565.9" opacity="0.13"/><path d="M457.2 631.8L443.9 591.1L422.5 606.6" opacity="0.13"/><path d="M409.3 565.9L443.9 591.1L422.5 606.6" opacity="0.13"/><path d="M443.9 591.1L409.3 565.9L478.6 565.9" opacity="0.13"/><path d="M409.3 565.9L396 606.6L422.5 606.6" opacity="0.13"/><path d="M396 606.6L409.3 565.9L353.2 606.6" opacity="0.13"/><path d="M409.3 647.4L443.9 672.6L422.5 606.6" opacity="0.13"/><path d="M396 606.6L409.3 647.4L353.2 606.6" opacity="0.13"/><path d="M409.3 647.4L396 606.6L422.5 606.6" opacity="0.13"/><path d="M241.1 738.5L206.4 713.3L227.8 779.2" opacity="0.13"/><path d="M254.3 779.2L241.1 738.5L297.2 779.2" opacity="0.13"/><path d="M241.1 738.5L254.3 779.2L227.8 779.2" opacity="0.13"/><path d="M158.5 779.2L115.7 779.2L171.8 738.5" opacity="0.13"/><path d="M193.2 754L158.5 779.2L227.8 779.2" opacity="0.13"/><path d="M158.5 779.2L193.2 754L171.8 738.5" opacity="0.13"/><path d="M206.4 713.3L193.2 754L171.8 738.5" opacity="0.13"/><path d="M193.2 754L206.4 713.3L227.8 779.2" opacity="0.13"/><path d="M331.8 672.6L318.6 713.3L297.2 647.4" opacity="0.13"/><path d="M318.6 631.8L331.8 672.6L353.2 606.6" opacity="0.13"/><path d="M331.8 672.6L318.6 631.8L297.2 647.4" opacity="0.13"/><path d="M241.1 688.1L206.4 713.3L275.7 713.3" opacity="0.13"/><path d="M283.9 688.1L241.1 688.1L297.2 647.4" opacity="0.13"/><path d="M241.1 688.1L283.9 688.1L275.7 713.3" opacity="0.13"/><path d="M318.6 713.3L283.9 688.1L275.7 713.3" opacity="0.13"/><path d="M283.9 688.1L318.6 713.3L297.2 647.4" opacity="0.13"/><path d="M318.6 713.3L283.9 738.5L275.7 713.3" opacity="0.13"/><path d="M283.9 738.5L318.6 713.3L297.2 779.2" opacity="0.13"/><path d="M241.1 738.5L206.4 713.3L275.7 713.3" opacity="0.13"/><path d="M283.9 738.5L241.1 738.5L297.2 779.2" opacity="0.13"/><path d="M241.1 738.5L283.9 738.5L275.7 713.3" opacity="0.13"/><path d="M318.6 713.3L331.8 754L353.2 738.5" opacity="0.13"/><path d="M331.8 754L318.6 713.3L297.2 779.2" opacity="0.13"/><path d="M366.5 779.2L409.3 779.2L353.2 738.5" opacity="0.13"/><path d="M331.8 754L366.5 779.2L297.2 779.2" opacity="0.13"/><path d="M366.5 779.2L331.8 754L353.2 738.5" opacity="0.13"/><path d="M331.8 672.6L318.6 713.3L374.6 672.6" opacity="0.13"/><path d="M366.5 647.4L331.8 672.6L353.2 606.6" opacity="0.13"/><path d="M331.8 672.6L366.5 647.4L374.6 672.6" opacity="0.13"/><path d="M396 738.5L409.3 779.2L353.2 738.5" opacity="0.13"/><path d="M361.4 713.3L396 738.5L374.6 672.6" opacity="0.13"/><path d="M396 738.5L361.4 713.3L353.2 738.5" opacity="0.13"/><path d="M318.6 713.3L361.4 713.3L353.2 738.5" opacity="0.13"/><path d="M361.4 713.3L318.6 713.3L374.6 672.6" opacity="0.13"/><path d="M115.7 565.9L158.5 565.9L150.4 540.7" opacity="0.13"/><path d="M158.5 565.9L115.7 565.9L171.8 606.6" opacity="0.13"/><path d="M193.2 540.7L206.4 500L150.4 540.7" opacity="0.13"/><path d="M158.5 565.9L193.2 540.7L171.8 606.6" opacity="0.13"/><path d="M193.2 540.7L158.5 565.9L150.4 540.7" opacity="0.13"/><path d="M81.1 540.7L115.7 565.9L94.3 500" opacity="0.13"/><path d="M67.8 500L81.1 540.7L25 500" opacity="0.13"/><path d="M81.1 540.7L67.8 500L94.3 500" opacity="0.13"/><path d="M163.6 500L206.4 500L150.4 540.7" opacity="0.13"/><path d="M129 525.2L163.6 500L94.3 500" opacity="0.13"/><path d="M163.6 500L129 525.2L150.4 540.7" opacity="0.13"/><path d="M115.7 565.9L129 525.2L150.4 540.7" opacity="0.13"/><path d="M129 525.2L115.7 565.9L94.3 500" opacity="0.13"/><path d="M115.7 647.4L81.1 672.6L150.4 672.6" opacity="0.13"/><path d="M158.5 647.4L115.7 647.4L171.8 606.6" opacity="0.13"/><path d="M115.7 647.4L158.5 647.4L150.4 672.6" opacity="0.13"/><path d="M129 738.5L115.7 779.2L94.3 713.3" opacity="0.13"/><path d="M115.7 697.7L129 738.5L150.4 672.6" opacity="0.13"/><path d="M129 738.5L115.7 697.7L94.3 713.3" opacity="0.13"/><path d="M81.1 672.6L115.7 697.7L94.3 713.3" opacity="0.13"/><path d="M115.7 697.7L81.1 672.6L150.4 672.6" opacity="0.13"/><path d="M81.1 540.7L115.7 565.9L46.4 565.9" opacity="0.13"/><path d="M38.2 540.7L81.1 540.7L25 500" opacity="0.13"/><path d="M81.1 540.7L38.2 540.7L46.4 565.9" opacity="0.13"/><path d="M67.8 631.8L81.1 672.6L102.5 606.6" opacity="0.13"/><path d="M81.1 591.1L67.8 631.8L46.4 565.9" opacity="0.13"/><path d="M67.8 631.8L81.1 591.1L102.5 606.6" opacity="0.13"/><path d="M115.7 565.9L81.1 591.1L102.5 606.6" opacity="0.13"/><path d="M81.1 591.1L115.7 565.9L46.4 565.9" opacity="0.13"/><path d="M115.7 565.9L129 606.6L102.5 606.6" opacity="0.13"/><path d="M129 606.6L115.7 565.9L171.8 606.6" opacity="0.13"/><path d="M115.7 647.4L81.1 672.6L102.5 606.6" opacity="0.13"/><path d="M129 606.6L115.7 647.4L171.8 606.6" opacity="0.13"/><path d="M115.7 647.4L129 606.6L102.5 606.6" opacity="0.13"/><path d="M331.8 540.7L318.6 500L297.2 565.9" opacity="0.13"/><path d="M318.6 581.5L331.8 540.7L353.2 606.6" opacity="0.13"/><path d="M331.8 540.7L318.6 581.5L297.2 565.9" opacity="0.13"/><path d="M241.1 525.2L206.4 500L275.7 500" opacity="0.13"/><path d="M283.9 525.2L241.1 525.2L297.2 565.9" opacity="0.13"/><path d="M241.1 525.2L283.9 525.2L275.7 500" opacity="0.13"/><path d="M318.6 500L283.9 525.2L275.7 500" opacity="0.13"/><path d="M283.9 525.2L318.6 500L297.2 565.9" opacity="0.13"/><path d="M443.9 540.7L409.3 565.9L430.7 500" opacity="0.13"/><path d="M457.2 500L443.9 540.7L500 500" opacity="0.13"/><path d="M443.9 540.7L457.2 500L430.7 500" opacity="0.13"/><path d="M361.4 500L318.6 500L374.6 540.7" opacity="0.13"/><path d="M396 525.2L361.4 500L430.7 500" opacity="0.13"/><path d="M361.4 500L396 525.2L374.6 540.7" opacity="0.13"/><path d="M409.3 565.9L396 525.2L374.6 540.7" opacity="0.13"/><path d="M396 525.2L409.3 565.9L430.7 500" opacity="0.13"/><path d="M409.3 565.9L366.5 565.9L374.6 540.7" opacity="0.13"/><path d="M366.5 565.9L409.3 565.9L353.2 606.6" opacity="0.13"/><path d="M331.8 540.7L318.6 500L374.6 540.7" opacity="0.13"/><path d="M366.5 565.9L331.8 540.7L353.2 606.6" opacity="0.13"/><path d="M331.8 540.7L366.5 565.9L374.6 540.7" opacity="0.13"/><path d="M193.2 672.6L206.4 713.3L150.4 672.6" opacity="0.13"/><path d="M158.5 647.4L193.2 672.6L171.8 606.6" opacity="0.13"/><path d="M193.2 672.6L158.5 647.4L150.4 672.6" opacity="0.13"/><path d="M129 738.5L115.7 779.2L171.8 738.5" opacity="0.13"/><path d="M163.6 713.3L129 738.5L150.4 672.6" opacity="0.13"/><path d="M129 738.5L163.6 713.3L171.8 738.5" opacity="0.13"/><path d="M206.4 713.3L163.6 713.3L171.8 738.5" opacity="0.13"/><path d="M163.6 713.3L206.4 713.3L150.4 672.6" opacity="0.13"/><path d="M283.9 606.6L241.1 606.6L297.2 647.4" opacity="0.13"/><path d="M318.6 631.8L283.9 606.6L353.2 606.6" opacity="0.13"/><path d="M283.9 606.6L318.6 631.8L297.2 647.4" opacity="0.13"/><path d="M241.1 688.1L206.4 713.3L227.8 647.4" opacity="0.13"/><path d="M254.3 647.4L241.1 688.1L297.2 647.4" opacity="0.13"/><path d="M241.1 688.1L254.3 647.4L227.8 647.4" opacity="0.13"/><path d="M241.1 606.6L254.3 647.4L227.8 647.4" opacity="0.13"/><path d="M254.3 647.4L241.1 606.6L297.2 647.4" opacity="0.13"/><path d="M241.1 606.6L206.4 631.8L227.8 647.4" opacity="0.13"/><path d="M206.4 631.8L241.1 606.6L171.8 606.6" opacity="0.13"/><path d="M193.2 672.6L206.4 713.3L227.8 647.4" opacity="0.13"/><path d="M206.4 631.8L193.2 672.6L171.8 606.6" opacity="0.13"/><path d="M193.2 672.6L206.4 631.8L227.8 647.4" opacity="0.13"/><path d="M241.1 606.6L206.4 581.5L227.8 565.9" opacity="0.13"/><path d="M206.4 581.5L241.1 606.6L171.8 606.6" opacity="0.13"/><path d="M193.2 540.7L206.4 500L227.8 565.9" opacity="0.13"/><path d="M206.4 581.5L193.2 540.7L171.8 606.6" opacity="0.13"/><path d="M193.2 540.7L206.4 581.5L227.8 565.9" opacity="0.13"/><path d="M283.9 606.6L241.1 606.6L297.2 565.9" opacity="0.13"/><path d="M318.6 581.5L283.9 606.6L353.2 606.6" opacity="0.13"/><path d="M283.9 606.6L318.6 581.5L297.2 565.9" opacity="0.13"/><path d="M241.1 525.2L206.4 500L227.8 565.9" opacity="0.13"/><path d="M254.3 565.9L241.1 525.2L297.2 565.9" opacity="0.13"/><path d="M241.1 525.2L254.3 565.9L227.8 565.9" opacity="0.13"/><path d="M241.1 606.6L254.3 565.9L227.8 565.9" opacity="0.13"/><path d="M254.3 565.9L241.1 606.6L297.2 565.9" opacity="0.13"/><path d="M115.7 434.1L158.5 434.1L150.4 459.3" opacity="0.13"/><path d="M158.5 434.1L115.7 434.1L171.8 393.4" opacity="0.13"/><path d="M193.2 459.3L206.4 500L150.4 459.3" opacity="0.13"/><path d="M158.5 434.1L193.2 459.3L171.8 393.4" opacity="0.13"/><path d="M193.2 459.3L158.5 434.1L150.4 459.3" opacity="0.13"/><path d="M81.1 459.3L115.7 434.1L94.3 500" opacity="0.13"/><path d="M67.8 500L81.1 459.3L25 500" opacity="0.13"/><path d="M81.1 459.3L67.8 500L94.3 500" opacity="0.13"/><path d="M163.6 500L206.4 500L150.4 459.3" opacity="0.13"/><path d="M129 474.8L163.6 500L94.3 500" opacity="0.13"/><path d="M163.6 500L129 474.8L150.4 459.3" opacity="0.13"/><path d="M115.7 434.1L129 474.8L150.4 459.3" opacity="0.13"/><path d="M129 474.8L115.7 434.1L94.3 500" opacity="0.13"/><path d="M115.7 352.6L81.1 327.4L150.4 327.4" opacity="0.13"/><path d="M158.5 352.6L115.7 352.6L171.8 393.4" opacity="0.13"/><path d="M115.7 352.6L158.5 352.6L150.4 327.4" opacity="0.13"/><path d="M129 261.5L115.7 220.8L94.3 286.7" opacity="0.13"/><path d="M115.7 302.3L129 261.5L150.4 327.4" opacity="0.13"/><path d="M129 261.5L115.7 302.3L94.3 286.7" opacity="0.13"/><path d="M81.1 327.4L115.7 302.3L94.3 286.7" opacity="0.13"/><path d="M115.7 302.3L81.1 327.4L150.4 327.4" opacity="0.13"/><path d="M81.1 459.3L115.7 434.1L46.4 434.1" opacity="0.13"/><path d="M38.2 459.3L81.1 459.3L25 500" opacity="0.13"/><path d="M81.1 459.3L38.2 459.3L46.4 434.1" opacity="0.13"/><path d="M67.8 368.2L81.1 327.4L102.5 393.4" opacity="0.13"/><path d="M81.1 408.9L67.8 368.2L46.4 434.1" opacity="0.13"/><path d="M67.8 368.2L81.1 408.9L102.5 393.4" opacity="0.13"/><path d="M115.7 434.1L81.1 408.9L102.5 393.4" opacity="0.13"/><path d="M81.1 408.9L115.7 434.1L46.4 434.1" opacity="0.13"/><path d="M115.7 434.1L129 393.4L102.5 393.4" opacity="0.13"/><path d="M129 393.4L115.7 434.1L171.8 393.4" opacity="0.13"/><path d="M115.7 352.6L81.1 327.4L102.5 393.4" opacity="0.13"/><path d="M129 393.4L115.7 352.6L171.8 393.4" opacity="0.13"/><path d="M115.7 352.6L129 393.4L102.5 393.4" opacity="0.13"/><path d="M331.8 459.3L318.6 500L297.2 434.1" opacity="0.13"/><path d="M318.6 418.5L331.8 459.3L353.2 393.4" opacity="0.13"/><path d="M331.8 459.3L318.6 418.5L297.2 434.1" opacity="0.13"/><path d="M241.1 474.8L206.4 500L275.7 500" opacity="0.13"/><path d="M283.9 474.8L241.1 474.8L297.2 434.1" opacity="0.13"/><path d="M241.1 474.8L283.9 474.8L275.7 500" opacity="0.13"/><path d="M318.6 500L283.9 474.8L275.7 500" opacity="0.13"/><path d="M283.9 474.8L318.6 500L297.2 434.1" opacity="0.13"/><path d="M443.9 459.3L409.3 434.1L430.7 500" opacity="0.13"/><path d="M457.2 500L443.9 459.3L500 500" opacity="0.13"/><path d="M443.9 459.3L457.2 500L430.7 500" opacity="0.13"/><path d="M361.4 500L318.6 500L374.6 459.3" opacity="0.13"/><path d="M396 474.8L361.4 500L430.7 500" opacity="0.13"/><path d="M361.4 500L396 474.8L374.6 459.3" opacity="0.13"/><path d="M409.3 434.1L396 474.8L374.6 459.3" opacity="0.13"/><path d="M396 474.8L409.3 434.1L430.7 500" opacity="0.13"/><path d="M409.3 434.1L366.5 434.1L374.6 459.3" opacity="0.13"/><path d="M366.5 434.1L409.3 434.1L353.2 393.4" opacity="0.13"/><path d="M331.8 459.3L318.6 500L374.6 459.3" opacity="0.13"/><path d="M366.5 434.1L331.8 459.3L353.2 393.4" opacity="0.13"/><path d="M331.8 459.3L366.5 434.1L374.6 459.3" opacity="0.13"/><path d="M193.2 327.4L206.4 286.7L150.4 327.4" opacity="0.13"/><path d="M158.5 352.6L193.2 327.4L171.8 393.4" opacity="0.13"/><path d="M193.2 327.4L158.5 352.6L150.4 327.4" opacity="0.13"/><path d="M129 261.5L115.7 220.8L171.8 261.5" opacity="0.13"/><path d="M163.6 286.7L129 261.5L150.4 327.4" opacity="0.13"/><path d="M129 261.5L163.6 286.7L171.8 261.5" opacity="0.13"/><path d="M206.4 286.7L163.6 286.7L171.8 261.5" opacity="0.13"/><path d="M163.6 286.7L206.4 286.7L150.4 327.4" opacity="0.13"/><path d="M283.9 393.4L241.1 393.4L297.2 352.6" opacity="0.13"/><path d="M318.6 368.2L283.9 393.4L353.2 393.4" opacity="0.13"/><path d="M283.9 393.4L318.6 368.2L297.2 352.6" opacity="0.13"/><path d="M241.1 311.9L206.4 286.7L227.8 352.6" opacity="0.13"/><path d="M254.3 352.6L241.1 311.9L297.2 352.6" opacity="0.13"/><path d="M241.1 311.9L254.3 352.6L227.8 352.6" opacity="0.13"/><path d="M241.1 393.4L254.3 352.6L227.8 352.6" opacity="0.13"/><path d="M254.3 352.6L241.1 393.4L297.2 352.6" opacity="0.13"/><path d="M241.1 393.4L206.4 368.2L227.8 352.6" opacity="0.13"/><path d="M206.4 368.2L241.1 393.4L171.8 393.4" opacity="0.13"/><path d="M193.2 327.4L206.4 286.7L227.8 352.6" opacity="0.13"/><path d="M206.4 368.2L193.2 327.4L171.8 393.4" opacity="0.13"/><path d="M193.2 327.4L206.4 368.2L227.8 352.6" opacity="0.13"/><path d="M241.1 393.4L206.4 418.5L227.8 434.1" opacity="0.13"/><path d="M206.4 418.5L241.1 393.4L171.8 393.4" opacity="0.13"/><path d="M193.2 459.3L206.4 500L227.8 434.1" opacity="0.13"/><path d="M206.4 418.5L193.2 459.3L171.8 393.4" opacity="0.13"/><path d="M193.2 459.3L206.4 418.5L227.8 434.1" opacity="0.13"/><path d="M283.9 393.4L241.1 393.4L297.2 434.1" opacity="0.13"/><path d="M318.6 418.5L283.9 393.4L353.2 393.4" opacity="0.13"/><path d="M283.9 393.4L318.6 418.5L297.2 434.1" opacity="0.13"/><path d="M241.1 474.8L206.4 500L227.8 434.1" opacity="0.13"/><path d="M254.3 434.1L241.1 474.8L297.2 434.1" opacity="0.13"/><path d="M241.1 474.8L254.3 434.1L227.8 434.1" opacity="0.13"/><path d="M241.1 393.4L254.3 434.1L227.8 434.1" opacity="0.13"/><path d="M254.3 434.1L241.1 393.4L297.2 434.1" opacity="0.13"/><path d="M318.6 154.9L331.8 195.6L353.2 180.1" opacity="0.13"/><path d="M331.8 195.6L318.6 154.9L297.2 220.8" opacity="0.13"/><path d="M366.5 220.8L409.3 220.8L353.2 180.1" opacity="0.13"/><path d="M331.8 195.6L366.5 220.8L297.2 220.8" opacity="0.13"/><path d="M366.5 220.8L331.8 195.6L353.2 180.1" opacity="0.13"/><path d="M331.8 114.2L318.6 154.9L374.6 114.2" opacity="0.13"/><path d="M366.5 89L331.8 114.2L353.2 48.2" opacity="0.13"/><path d="M331.8 114.2L366.5 89L374.6 114.2" opacity="0.13"/><path d="M396 180.1L409.3 220.8L353.2 180.1" opacity="0.13"/><path d="M361.4 154.9L396 180.1L374.6 114.2" opacity="0.13"/><path d="M396 180.1L361.4 154.9L353.2 180.1" opacity="0.13"/><path d="M318.6 154.9L361.4 154.9L353.2 180.1" opacity="0.13"/><path d="M361.4 154.9L318.6 154.9L374.6 114.2" opacity="0.13"/><path d="M241.1 180.1L206.4 154.9L227.8 220.8" opacity="0.13"/><path d="M254.3 220.8L241.1 180.1L297.2 220.8" opacity="0.13"/><path d="M241.1 180.1L254.3 220.8L227.8 220.8" opacity="0.13"/><path d="M158.5 220.8L115.7 220.8L171.8 180.1" opacity="0.13"/><path d="M193.2 195.6L158.5 220.8L227.8 220.8" opacity="0.13"/><path d="M158.5 220.8L193.2 195.6L171.8 180.1" opacity="0.13"/><path d="M206.4 154.9L193.2 195.6L171.8 180.1" opacity="0.13"/><path d="M193.2 195.6L206.4 154.9L227.8 220.8" opacity="0.13"/><path d="M331.8 114.2L318.6 154.9L297.2 89" opacity="0.13"/><path d="M318.6 73.4L331.8 114.2L353.2 48.2" opacity="0.13"/><path d="M331.8 114.2L318.6 73.4L297.2 89" opacity="0.13"/><path d="M241.1 129.7L206.4 154.9L275.7 154.9" opacity="0.13"/><path d="M283.9 129.7L241.1 129.7L297.2 89" opacity="0.13"/><path d="M241.1 129.7L283.9 129.7L275.7 154.9" opacity="0.13"/><path d="M318.6 154.9L283.9 129.7L275.7 154.9" opacity="0.13"/><path d="M283.9 129.7L318.6 154.9L297.2 89" opacity="0.13"/><path d="M318.6 154.9L283.9 180.1L275.7 154.9" opacity="0.13"/><path d="M283.9 180.1L318.6 154.9L297.2 220.8" opacity="0.13"/><path d="M241.1 180.1L206.4 154.9L275.7 154.9" opacity="0.13"/><path d="M283.9 180.1L241.1 180.1L297.2 220.8" opacity="0.13"/><path d="M241.1 180.1L283.9 180.1L275.7 154.9" opacity="0.13"/><path d="M409.3 352.6L443.9 327.4L374.6 327.4" opacity="0.13"/><path d="M366.5 352.6L409.3 352.6L353.2 393.4" opacity="0.13"/><path d="M409.3 352.6L366.5 352.6L374.6 327.4" opacity="0.13"/><path d="M396 261.5L409.3 220.8L430.7 286.7" opacity="0.13"/><path d="M409.3 302.3L396 261.5L374.6 327.4" opacity="0.13"/><path d="M396 261.5L409.3 302.3L430.7 286.7" opacity="0.13"/><path d="M443.9 327.4L409.3 302.3L430.7 286.7" opacity="0.13"/><path d="M409.3 302.3L443.9 327.4L374.6 327.4" opacity="0.13"/><path d="M443.9 459.3L409.3 434.1L478.6 434.1" opacity="0.13"/><path d="M486.8 459.3L443.9 459.3L500 500" opacity="0.13"/><path d="M443.9 459.3L486.8 459.3L478.6 434.1" opacity="0.13"/><path d="M457.2 368.2L443.9 327.4L422.5 393.4" opacity="0.13"/><path d="M443.9 408.9L457.2 368.2L478.6 434.1" opacity="0.13"/><path d="M457.2 368.2L443.9 408.9L422.5 393.4" opacity="0.13"/><path d="M409.3 434.1L443.9 408.9L422.5 393.4" opacity="0.13"/><path d="M443.9 408.9L409.3 434.1L478.6 434.1" opacity="0.13"/><path d="M409.3 434.1L396 393.4L422.5 393.4" opacity="0.13"/><path d="M396 393.4L409.3 434.1L353.2 393.4" opacity="0.13"/><path d="M409.3 352.6L443.9 327.4L422.5 393.4" opacity="0.13"/><path d="M396 393.4L409.3 352.6L353.2 393.4" opacity="0.13"/><path d="M409.3 352.6L396 393.4L422.5 393.4" opacity="0.13"/><path d="M241.1 261.5L206.4 286.7L227.8 220.8" opacity="0.13"/><path d="M254.3 220.8L241.1 261.5L297.2 220.8" opacity="0.13"/><path d="M241.1 261.5L254.3 220.8L227.8 220.8" opacity="0.13"/><path d="M158.5 220.8L115.7 220.8L171.8 261.5" opacity="0.13"/><path d="M193.2 246L158.5 220.8L227.8 220.8" opacity="0.13"/><path d="M158.5 220.8L193.2 246L171.8 261.5" opacity="0.13"/><path d="M206.4 286.7L193.2 246L171.8 261.5" opacity="0.13"/><path d="M193.2 246L206.4 286.7L227.8 220.8" opacity="0.13"/><path d="M331.8 327.4L318.6 286.7L297.2 352.6" opacity="0.13"/><path d="M318.6 368.2L331.8 327.4L353.2 393.4" opacity="0.13"/><path d="M331.8 327.4L318.6 368.2L297.2 352.6" opacity="0.13"/><path d="M241.1 311.9L206.4 286.7L275.7 286.7" opacity="0.13"/><path d="M283.9 311.9L241.1 311.9L297.2 352.6" opacity="0.13"/><path d="M241.1 311.9L283.9 311.9L275.7 286.7" opacity="0.13"/><path d="M318.6 286.7L283.9 311.9L275.7 286.7" opacity="0.13"/><path d="M283.9 311.9L318.6 286.7L297.2 352.6" opacity="0.13"/><path d="M318.6 286.7L283.9 261.5L275.7 286.7" opacity="0.13"/><path d="M283.9 261.5L318.6 286.7L297.2 220.8" opacity="0.13"/><path d="M241.1 261.5L206.4 286.7L275.7 286.7" opacity="0.13"/><path d="M283.9 261.5L241.1 261.5L297.2 220.8" opacity="0.13"/><path d="M241.1 261.5L283.9 261.5L275.7 286.7" opacity="0.13"/><path d="M318.6 286.7L331.8 246L353.2 261.5" opacity="0.13"/><path d="M331.8 246L318.6 286.7L297.2 220.8" opacity="0.13"/><path d="M366.5 220.8L409.3 220.8L353.2 261.5" opacity="0.13"/><path d="M331.8 246L366.5 220.8L297.2 220.8" opacity="0.13"/><path d="M366.5 220.8L331.8 246L353.2 261.5" opacity="0.13"/><path d="M331.8 327.4L318.6 286.7L374.6 327.4" opacity="0.13"/><path d="M366.5 352.6L331.8 327.4L353.2 393.4" opacity="0.13"/><path d="M331.8 327.4L366.5 352.6L374.6 327.4" opacity="0.13"/><path d="M396 261.5L409.3 220.8L353.2 261.5" opacity="0.13"/><path d="M361.4 286.7L396 261.5L374.6 327.4" opacity="0.13"/><path d="M396 261.5L361.4 286.7L353.2 261.5" opacity="0.13"/><path d="M318.6 286.7L361.4 286.7L353.2 261.5" opacity="0.13"/><path d="M361.4 286.7L318.6 286.7L374.6 327.4" opacity="0.13"/><path d="M443.9 114.2L457.2 154.9L430.7 154.9" opacity="0.13"/><path d="M457.2 154.9L443.9 114.2L500 154.9" opacity="0.13"/><path d="M443.9 195.6L409.3 220.8L430.7 154.9" opacity="0.13"/><path d="M457.2 154.9L443.9 195.6L500 154.9" opacity="0.13"/><path d="M443.9 195.6L457.2 154.9L430.7 154.9" opacity="0.13"/><path d="M409.3 89L443.9 114.2L374.6 114.2" opacity="0.13"/><path d="M366.5 89L409.3 89L353.2 48.2" opacity="0.13"/><path d="M409.3 89L366.5 89L374.6 114.2" opacity="0.13"/><path d="M396 180.1L409.3 220.8L430.7 154.9" opacity="0.13"/><path d="M409.3 139.3L396 180.1L374.6 114.2" opacity="0.13"/><path d="M396 180.1L409.3 139.3L430.7 154.9" opacity="0.13"/><path d="M443.9 114.2L409.3 139.3L430.7 154.9" opacity="0.13"/><path d="M409.3 139.3L443.9 114.2L374.6 114.2" opacity="0.13"/><path d="M521.4 89L534.7 48.2L556.1 114.2" opacity="0.13"/><path d="M534.7 129.7L521.4 89L500 154.9" opacity="0.13"/><path d="M521.4 89L534.7 129.7L556.1 114.2" opacity="0.13"/><path d="M612.1 73.4L646.8 48.2L577.5 48.2" opacity="0.13"/><path d="M569.3 73.4L612.1 73.4L556.1 114.2" opacity="0.13"/><path d="M612.1 73.4L569.3 73.4L577.5 48.2" opacity="0.13"/><path d="M534.7 48.2L569.3 73.4L577.5 48.2" opacity="0.13"/><path d="M569.3 73.4L534.7 48.2L556.1 114.2" opacity="0.13"/><path d="M409.3 89L443.9 114.2L422.5 48.2" opacity="0.13"/><path d="M396 48.2L409.3 89L353.2 48.2" opacity="0.13"/><path d="M409.3 89L396 48.2L422.5 48.2" opacity="0.13"/><path d="M491.8 48.2L534.7 48.2L478.6 89" opacity="0.13"/><path d="M457.2 73.4L491.8 48.2L422.5 48.2" opacity="0.13"/><path d="M491.8 48.2L457.2 73.4L478.6 89" opacity="0.13"/><path d="M443.9 114.2L457.2 73.4L478.6 89" opacity="0.13"/><path d="M457.2 73.4L443.9 114.2L422.5 48.2" opacity="0.13"/><path d="M443.9 114.2L486.8 114.2L478.6 89" opacity="0.13"/><path d="M486.8 114.2L443.9 114.2L500 154.9" opacity="0.13"/><path d="M521.4 89L534.7 48.2L478.6 89" opacity="0.13"/><path d="M486.8 114.2L521.4 89L500 154.9" opacity="0.13"/><path d="M521.4 89L486.8 114.2L478.6 89" opacity="0.13"/><path d="M486.8 327.4L443.9 327.4L500 286.7" opacity="0.13"/><path d="M521.4 302.3L486.8 327.4L556.1 327.4" opacity="0.13"/><path d="M486.8 327.4L521.4 302.3L500 286.7" opacity="0.13"/><path d="M443.9 246L409.3 220.8L430.7 286.7" opacity="0.13"/><path d="M457.2 286.7L443.9 246L500 286.7" opacity="0.13"/><path d="M443.9 246L457.2 286.7L430.7 286.7" opacity="0.13"/><path d="M443.9 327.4L457.2 286.7L430.7 286.7" opacity="0.13"/><path d="M457.2 286.7L443.9 327.4L500 286.7" opacity="0.13"/><path d="M521.4 434.1L534.7 393.4L478.6 434.1" opacity="0.13"/><path d="M486.8 459.3L521.4 434.1L500 500" opacity="0.13"/><path d="M521.4 434.1L486.8 459.3L478.6 434.1" opacity="0.13"/><path d="M457.2 368.2L443.9 327.4L500 368.2" opacity="0.13"/><path d="M491.8 393.4L457.2 368.2L478.6 434.1" opacity="0.13"/><path d="M457.2 368.2L491.8 393.4L500 368.2" opacity="0.13"/><path d="M534.7 393.4L491.8 393.4L500 368.2" opacity="0.13"/><path d="M491.8 393.4L534.7 393.4L478.6 434.1" opacity="0.13"/><path d="M534.7 393.4L521.4 352.6L500 368.2" opacity="0.13"/><path d="M521.4 352.6L534.7 393.4L556.1 327.4" opacity="0.13"/><path d="M486.8 327.4L443.9 327.4L500 368.2" opacity="0.13"/><path d="M521.4 352.6L486.8 327.4L556.1 327.4" opacity="0.13"/><path d="M486.8 327.4L521.4 352.6L500 368.2" opacity="0.13"/><path d="M569.3 154.9L612.1 154.9L556.1 114.2" opacity="0.13"/><path d="M534.7 129.7L569.3 154.9L500 154.9" opacity="0.13"/><path d="M569.3 154.9L534.7 129.7L556.1 114.2" opacity="0.13"/><path d="M612.1 73.4L646.8 48.2L625.4 114.2" opacity="0.13"/><path d="M598.9 114.2L612.1 73.4L556.1 114.2" opacity="0.13"/><path d="M612.1 73.4L598.9 114.2L625.4 114.2" opacity="0.13"/><path d="M612.1 154.9L598.9 114.2L625.4 114.2" opacity="0.13"/><path d="M598.9 114.2L612.1 154.9L556.1 114.2" opacity="0.13"/><path d="M534.7 261.5L521.4 220.8L577.5 261.5" opacity="0.13"/><path d="M569.3 286.7L534.7 261.5L556.1 327.4" opacity="0.13"/><path d="M534.7 261.5L569.3 286.7L577.5 261.5" opacity="0.13"/><path d="M598.9 195.6L612.1 154.9L556.1 195.6" opacity="0.13"/><path d="M564.2 220.8L598.9 195.6L577.5 261.5" opacity="0.13"/><path d="M598.9 195.6L564.2 220.8L556.1 195.6" opacity="0.13"/><path d="M521.4 220.8L564.2 220.8L556.1 195.6" opacity="0.13"/><path d="M564.2 220.8L521.4 220.8L577.5 261.5" opacity="0.13"/><path d="M521.4 220.8L534.7 180.1L556.1 195.6" opacity="0.13"/><path d="M534.7 180.1L521.4 220.8L500 154.9" opacity="0.13"/><path d="M569.3 154.9L612.1 154.9L556.1 195.6" opacity="0.13"/><path d="M534.7 180.1L569.3 154.9L500 154.9" opacity="0.13"/><path d="M569.3 154.9L534.7 180.1L556.1 195.6" opacity="0.13"/><path d="M521.4 220.8L486.8 195.6L478.6 220.8" opacity="0.13"/><path d="M486.8 195.6L521.4 220.8L500 154.9" opacity="0.13"/><path d="M443.9 195.6L409.3 220.8L478.6 220.8" opacity="0.13"/><path d="M486.8 195.6L443.9 195.6L500 154.9" opacity="0.13"/><path d="M443.9 195.6L486.8 195.6L478.6 220.8" opacity="0.13"/><path d="M534.7 261.5L521.4 220.8L500 286.7" opacity="0.13"/><path d="M521.4 302.3L534.7 261.5L556.1 327.4" opacity="0.13"/><path d="M534.7 261.5L521.4 302.3L500 286.7" opacity="0.13"/><path d="M443.9 246L409.3 220.8L478.6 220.8" opacity="0.13"/><path d="M486.8 246L443.9 246L500 286.7" opacity="0.13"/><path d="M443.9 246L486.8 246L478.6 220.8" opacity="0.13"/><path d="M521.4 220.8L486.8 246L478.6 220.8" opacity="0.13"/><path d="M486.8 246L521.4 220.8L500 286.7" opacity="0.13"/><path d="M772.2 220.8L737.5 246L758.9 261.5" opacity="0.13"/><path d="M737.5 246L772.2 220.8L702.8 220.8" opacity="0.13"/><path d="M724.3 286.7L737.5 327.4L758.9 261.5" opacity="0.13"/><path d="M737.5 246L724.3 286.7L702.8 220.8" opacity="0.13"/><path d="M724.3 286.7L737.5 246L758.9 261.5" opacity="0.13"/><path d="M815 220.8L772.2 220.8L828.2 261.5" opacity="0.13"/><path d="M849.6 246L815 220.8L884.3 220.8" opacity="0.13"/><path d="M815 220.8L849.6 246L828.2 261.5" opacity="0.13"/><path d="M772.2 302.3L737.5 327.4L758.9 261.5" opacity="0.13"/><path d="M785.4 261.5L772.2 302.3L828.2 261.5" opacity="0.13"/><path d="M772.2 302.3L785.4 261.5L758.9 261.5" opacity="0.13"/><path d="M772.2 220.8L785.4 261.5L758.9 261.5" opacity="0.13"/><path d="M785.4 261.5L772.2 220.8L828.2 261.5" opacity="0.13"/><path d="M724.3 154.9L737.5 114.2L681.4 154.9" opacity="0.13"/><path d="M689.6 180.1L724.3 154.9L702.8 220.8" opacity="0.13"/><path d="M724.3 154.9L689.6 180.1L681.4 154.9" opacity="0.13"/><path d="M660 89L646.8 48.2L702.8 89" opacity="0.13"/><path d="M694.7 114.2L660 89L681.4 154.9" opacity="0.13"/><path d="M660 89L694.7 114.2L702.8 89" opacity="0.13"/><path d="M737.5 114.2L694.7 114.2L702.8 89" opacity="0.13"/><path d="M694.7 114.2L737.5 114.2L681.4 154.9" opacity="0.13"/><path d="M815 220.8L772.2 220.8L828.2 180.1" opacity="0.13"/><path d="M849.6 195.6L815 220.8L884.3 220.8" opacity="0.13"/><path d="M815 220.8L849.6 195.6L828.2 180.1" opacity="0.13"/><path d="M772.2 139.3L737.5 114.2L758.9 180.1" opacity="0.13"/><path d="M785.4 180.1L772.2 139.3L828.2 180.1" opacity="0.13"/><path d="M772.2 139.3L785.4 180.1L758.9 180.1" opacity="0.13"/><path d="M772.2 220.8L785.4 180.1L758.9 180.1" opacity="0.13"/><path d="M785.4 180.1L772.2 220.8L828.2 180.1" opacity="0.13"/><path d="M772.2 220.8L737.5 195.6L758.9 180.1" opacity="0.13"/><path d="M737.5 195.6L772.2 220.8L702.8 220.8" opacity="0.13"/><path d="M724.3 154.9L737.5 114.2L758.9 180.1" opacity="0.13"/><path d="M737.5 195.6L724.3 154.9L702.8 220.8" opacity="0.13"/><path d="M724.3 154.9L737.5 195.6L758.9 180.1" opacity="0.13"/><path d="M612.1 368.2L646.8 393.4L625.4 327.4" opacity="0.13"/><path d="M598.9 327.4L612.1 368.2L556.1 327.4" opacity="0.13"/><path d="M612.1 368.2L598.9 327.4L625.4 327.4" opacity="0.13"/><path d="M694.7 327.4L737.5 327.4L681.4 368.2" opacity="0.13"/><path d="M660 352.6L694.7 327.4L625.4 327.4" opacity="0.13"/><path d="M694.7 327.4L660 352.6L681.4 368.2" opacity="0.13"/><path d="M646.8 393.4L660 352.6L681.4 368.2" opacity="0.13"/><path d="M660 352.6L646.8 393.4L625.4 327.4" opacity="0.13"/><path d="M521.4 434.1L534.7 393.4L556.1 459.3" opacity="0.13"/><path d="M534.7 474.8L521.4 434.1L500 500" opacity="0.13"/><path d="M521.4 434.1L534.7 474.8L556.1 459.3" opacity="0.13"/><path d="M612.1 418.5L646.8 393.4L577.5 393.4" opacity="0.13"/><path d="M569.3 418.5L612.1 418.5L556.1 459.3" opacity="0.13"/><path d="M612.1 418.5L569.3 418.5L577.5 393.4" opacity="0.13"/><path d="M534.7 393.4L569.3 418.5L577.5 393.4" opacity="0.13"/><path d="M569.3 418.5L534.7 393.4L556.1 459.3" opacity="0.13"/><path d="M534.7 393.4L569.3 368.2L577.5 393.4" opacity="0.13"/><path d="M569.3 368.2L534.7 393.4L556.1 327.4" opacity="0.13"/><path d="M612.1 368.2L646.8 393.4L577.5 393.4" opacity="0.13"/><path d="M569.3 368.2L612.1 368.2L556.1 327.4" opacity="0.13"/><path d="M612.1 368.2L569.3 368.2L577.5 393.4" opacity="0.13"/><path d="M646.8 180.1L612.1 154.9L681.4 154.9" opacity="0.13"/><path d="M689.6 180.1L646.8 180.1L702.8 220.8" opacity="0.13"/><path d="M646.8 180.1L689.6 180.1L681.4 154.9" opacity="0.13"/><path d="M660 89L646.8 48.2L625.4 114.2" opacity="0.13"/><path d="M646.8 129.7L660 89L681.4 154.9" opacity="0.13"/><path d="M660 89L646.8 129.7L625.4 114.2" opacity="0.13"/><path d="M612.1 154.9L646.8 129.7L625.4 114.2" opacity="0.13"/><path d="M646.8 129.7L612.1 154.9L681.4 154.9" opacity="0.13"/><path d="M612.1 286.7L646.8 261.5L577.5 261.5" opacity="0.13"/><path d="M569.3 286.7L612.1 286.7L556.1 327.4" opacity="0.13"/><path d="M612.1 286.7L569.3 286.7L577.5 261.5" opacity="0.13"/><path d="M598.9 195.6L612.1 154.9L633.5 220.8" opacity="0.13"/><path d="M612.1 236.4L598.9 195.6L577.5 261.5" opacity="0.13"/><path d="M598.9 195.6L612.1 236.4L633.5 220.8" opacity="0.13"/><path d="M646.8 261.5L612.1 236.4L633.5 220.8" opacity="0.13"/><path d="M612.1 236.4L646.8 261.5L577.5 261.5" opacity="0.13"/><path d="M646.8 261.5L660 220.8L633.5 220.8" opacity="0.13"/><path d="M660 220.8L646.8 261.5L702.8 220.8" opacity="0.13"/><path d="M646.8 180.1L612.1 154.9L633.5 220.8" opacity="0.13"/><path d="M660 220.8L646.8 180.1L702.8 220.8" opacity="0.13"/><path d="M646.8 180.1L660 220.8L633.5 220.8" opacity="0.13"/><path d="M646.8 261.5L689.6 261.5L681.4 286.7" opacity="0.13"/><path d="M689.6 261.5L646.8 261.5L702.8 220.8" opacity="0.13"/><path d="M724.3 286.7L737.5 327.4L681.4 286.7" opacity="0.13"/><path d="M689.6 261.5L724.3 286.7L702.8 220.8" opacity="0.13"/><path d="M724.3 286.7L689.6 261.5L681.4 286.7" opacity="0.13"/><path d="M612.1 286.7L646.8 261.5L625.4 327.4" opacity="0.13"/><path d="M598.9 327.4L612.1 286.7L556.1 327.4" opacity="0.13"/><path d="M612.1 286.7L598.9 327.4L625.4 327.4" opacity="0.13"/><path d="M694.7 327.4L737.5 327.4L681.4 286.7" opacity="0.13"/><path d="M660 302.3L694.7 327.4L625.4 327.4" opacity="0.13"/><path d="M694.7 327.4L660 302.3L681.4 286.7" opacity="0.13"/><path d="M646.8 261.5L660 302.3L681.4 286.7" opacity="0.13"/><path d="M660 302.3L646.8 261.5L625.4 327.4" opacity="0.13"/><path d="M849.6 327.4L815 352.6L806.8 327.4" opacity="0.13"/><path d="M815 352.6L849.6 327.4L828.2 393.4" opacity="0.13"/><path d="M772.2 352.6L737.5 327.4L806.8 327.4" opacity="0.13"/><path d="M815 352.6L772.2 352.6L828.2 393.4" opacity="0.13"/><path d="M772.2 352.6L815 352.6L806.8 327.4" opacity="0.13"/><path d="M862.9 286.7L849.6 327.4L828.2 261.5" opacity="0.13"/><path d="M849.6 246L862.9 286.7L884.3 220.8" opacity="0.13"/><path d="M862.9 286.7L849.6 246L828.2 261.5" opacity="0.13"/><path d="M772.2 302.3L737.5 327.4L806.8 327.4" opacity="0.13"/><path d="M815 302.3L772.2 302.3L828.2 261.5" opacity="0.13"/><path d="M772.2 302.3L815 302.3L806.8 327.4" opacity="0.13"/><path d="M849.6 327.4L815 302.3L806.8 327.4" opacity="0.13"/><path d="M815 302.3L849.6 327.4L828.2 261.5" opacity="0.13"/><path d="M897.5 393.4L940.3 393.4L884.3 434.1" opacity="0.13"/><path d="M862.9 418.5L897.5 393.4L828.2 393.4" opacity="0.13"/><path d="M897.5 393.4L862.9 418.5L884.3 434.1" opacity="0.13"/><path d="M940.3 474.8L975 500L953.6 434.1" opacity="0.13"/><path d="M927.1 434.1L940.3 474.8L884.3 434.1" opacity="0.13"/><path d="M940.3 474.8L927.1 434.1L953.6 434.1" opacity="0.13"/><path d="M940.3 393.4L927.1 434.1L953.6 434.1" opacity="0.13"/><path d="M927.1 434.1L940.3 393.4L884.3 434.1" opacity="0.13"/><path d="M862.9 286.7L849.6 327.4L905.7 286.7" opacity="0.13"/><path d="M897.5 261.5L862.9 286.7L884.3 220.8" opacity="0.13"/><path d="M862.9 286.7L897.5 261.5L905.7 286.7" opacity="0.13"/><path d="M927.1 352.6L940.3 393.4L884.3 352.6" opacity="0.13"/><path d="M892.5 327.4L927.1 352.6L905.7 286.7" opacity="0.13"/><path d="M927.1 352.6L892.5 327.4L884.3 352.6" opacity="0.13"/><path d="M849.6 327.4L892.5 327.4L884.3 352.6" opacity="0.13"/><path d="M892.5 327.4L849.6 327.4L905.7 286.7" opacity="0.13"/><path d="M849.6 327.4L862.9 368.2L884.3 352.6" opacity="0.13"/><path d="M862.9 368.2L849.6 327.4L828.2 393.4" opacity="0.13"/><path d="M897.5 393.4L940.3 393.4L884.3 352.6" opacity="0.13"/><path d="M862.9 368.2L897.5 393.4L828.2 393.4" opacity="0.13"/><path d="M897.5 393.4L862.9 368.2L884.3 352.6" opacity="0.13"/><path d="M660 434.1L646.8 393.4L702.8 434.1" opacity="0.13"/><path d="M694.7 459.3L660 434.1L681.4 500" opacity="0.13"/><path d="M660 434.1L694.7 459.3L702.8 434.1" opacity="0.13"/><path d="M724.3 368.2L737.5 327.4L681.4 368.2" opacity="0.13"/><path d="M689.6 393.4L724.3 368.2L702.8 434.1" opacity="0.13"/><path d="M724.3 368.2L689.6 393.4L681.4 368.2" opacity="0.13"/><path d="M646.8 393.4L689.6 393.4L681.4 368.2" opacity="0.13"/><path d="M689.6 393.4L646.8 393.4L702.8 434.1" opacity="0.13"/><path d="M569.3 500L612.1 500L556.1 459.3" opacity="0.13"/><path d="M534.7 474.8L569.3 500L500 500" opacity="0.13"/><path d="M569.3 500L534.7 474.8L556.1 459.3" opacity="0.13"/><path d="M612.1 418.5L646.8 393.4L625.4 459.3" opacity="0.13"/><path d="M598.9 459.3L612.1 418.5L556.1 459.3" opacity="0.13"/><path d="M612.1 418.5L598.9 459.3L625.4 459.3" opacity="0.13"/><path d="M612.1 500L598.9 459.3L625.4 459.3" opacity="0.13"/><path d="M598.9 459.3L612.1 500L556.1 459.3" opacity="0.13"/><path d="M612.1 500L646.8 474.8L625.4 459.3" opacity="0.13"/><path d="M646.8 474.8L612.1 500L681.4 500" opacity="0.13"/><path d="M660 434.1L646.8 393.4L625.4 459.3" opacity="0.13"/><path d="M646.8 474.8L660 434.1L681.4 500" opacity="0.13"/><path d="M660 434.1L646.8 474.8L625.4 459.3" opacity="0.13"/><path d="M849.6 459.3L862.9 500L884.3 434.1" opacity="0.13"/><path d="M862.9 418.5L849.6 459.3L828.2 393.4" opacity="0.13"/><path d="M849.6 459.3L862.9 418.5L884.3 434.1" opacity="0.13"/><path d="M940.3 474.8L975 500L905.7 500" opacity="0.13"/><path d="M897.5 474.8L940.3 474.8L884.3 434.1" opacity="0.13"/><path d="M940.3 474.8L897.5 474.8L905.7 500" opacity="0.13"/><path d="M862.9 500L897.5 474.8L905.7 500" opacity="0.13"/><path d="M897.5 474.8L862.9 500L884.3 434.1" opacity="0.13"/><path d="M737.5 459.3L772.2 434.1L750.7 500" opacity="0.13"/><path d="M724.3 500L737.5 459.3L681.4 500" opacity="0.13"/><path d="M737.5 459.3L724.3 500L750.7 500" opacity="0.13"/><path d="M820 500L862.9 500L806.8 459.3" opacity="0.13"/><path d="M785.4 474.8L820 500L750.7 500" opacity="0.13"/><path d="M820 500L785.4 474.8L806.8 459.3" opacity="0.13"/><path d="M772.2 434.1L785.4 474.8L806.8 459.3" opacity="0.13"/><path d="M785.4 474.8L772.2 434.1L750.7 500" opacity="0.13"/><path d="M772.2 434.1L815 434.1L806.8 459.3" opacity="0.13"/><path d="M815 434.1L772.2 434.1L828.2 393.4" opacity="0.13"/><path d="M849.6 459.3L862.9 500L806.8 459.3" opacity="0.13"/><path d="M815 434.1L849.6 459.3L828.2 393.4" opacity="0.13"/><path d="M849.6 459.3L815 434.1L806.8 459.3" opacity="0.13"/><path d="M772.2 434.1L785.4 393.4L758.9 393.4" opacity="0.13"/><path d="M785.4 393.4L772.2 434.1L828.2 393.4" opacity="0.13"/><path d="M772.2 352.6L737.5 327.4L758.9 393.4" opacity="0.13"/><path d="M785.4 393.4L772.2 352.6L828.2 393.4" opacity="0.13"/><path d="M772.2 352.6L785.4 393.4L758.9 393.4" opacity="0.13"/><path d="M737.5 459.3L772.2 434.1L702.8 434.1" opacity="0.13"/><path d="M694.7 459.3L737.5 459.3L681.4 500" opacity="0.13"/><path d="M737.5 459.3L694.7 459.3L702.8 434.1" opacity="0.13"/><path d="M724.3 368.2L737.5 327.4L758.9 393.4" opacity="0.13"/><path d="M737.5 408.9L724.3 368.2L702.8 434.1" opacity="0.13"/><path d="M724.3 368.2L737.5 408.9L758.9 393.4" opacity="0.13"/><path d="M772.2 434.1L737.5 408.9L758.9 393.4" opacity="0.13"/><path d="M737.5 408.9L772.2 434.1L702.8 434.1" opacity="0.13"/></g></svg>