<svg xmlns="http://www.w3.org/2000/svg" viewBox="0 0 1000 1000" preserveAspectRatio="xMidYMid slice" fill="none" stroke-linecap="round" stroke-linejoin="round"><g stroke="#0f3d2e" stroke-width="0.6"><path d="M779.2 772.2L754 737.5L738.5 758.9" opacity="0.13"/><path d="M754 737.5L779.2 772.2L779.2 702.8" opacity="0.13"/><path d="M713.3 724.3L672.6 737.5L738.5 758.9" opacity="0.13"/><path d="M754 737.5L713.3 724.3L779.2 702.8" opacity="0.13"/><path d="M713.3 724.3L754 737.5L738.5 758.9" opacity="0.13"/><path d="M779.2 815L779.2 772.2L738.5 828.2" opacity="0.13"/><path d="M754 849.6L779.2 815L779.2 884.3" opacity="0.13"/><path d="M779.2 815L754 849.6L738.5 828.2" opacity="0.13"/><path d="M697.7 772.2L672.6 737.5L738.5 758.9" opacity="0.13"/><path d="M738.5 785.4L697.7 772.2L738.5 828.2" opacity="0.13"/><path d="M697.7 772.2L738.5 785.4L738.5 758.9" opacity="0.13"/><path d="M779.2 772.2L738.5 785.4L738.5 758.9" opacity="0.13"/><path d="M738.5 785.4L779.2 772.2L738.5 828.2" opacity="0.13"/><path d="M845.1 724.3L885.8 737.5L845.1 681.4" opacity="0.13"/><path d="M819.9 689.6L845.1 724.3L779.2 702.8" opacity="0.13"/><path d="M845.1 724.3L819.9 689.6L845.1 681.4" opacity="0.13"/><path d="M911 660L951.8 646.8L911 702.8" opacity="0.13"/><path d="M885.8 694.7L911 660L845.1 681.4" opacity="0.13"/><path d="M911 660L885.8 694.7L911 702.8" opacity="0.13"/><path d="M885.8 737.5L885.8 694.7L911 702.8" opacity="0.13"/><path d="M885.8 694.7L885.8 737.5L845.1 681.4" opacity="0.13"/><path d="M779.2 815L779.2 772.2L819.9 828.2" opacity="0.13"/><path d="M804.4 849.6L779.2 815L779.2 884.3" opacity="0.13"/><path d="M779.2 815L804.4 849.6L819.9 828.2" opacity="0.13"/><path d="M860.7 772.2L885.8 737.5L819.9 758.9" opacity="0.13"/><path d="M819.9 785.4L860.7 772.2L819.9 828.2" opacity="0.13"/><path d="M860.7 772.2L819.9 785.4L819.9 758.9" opacity="0.13"/><path d="M779.2 772.2L819.9 785.4L819.9 758.9" opacity="0.13"/><path d="M819.9 785.4L779.2 772.2L819.9 828.2" opacity="0.13"/><path d="M779.2 772.2L804.4 737.5L819.9 758.9" opacity="0.13"/><path d="M804.4 737.5L779.2 772.2L779.2 702.8" opacity="0.13"/><path d="M845.1 724.3L885.8 737.5L819.9 758.9" opacity="0.13"/><path d="M804.4 737.5L845.1 724.3L779.2 702.8" opacity="0.13"/><path d="M845.1 724.3L804.4 737.5L819.9 758.9" opacity="0.13"/><path d="M631.8 612.1L606.6 646.8L672.6 625.4" opacity="0.13"/><path d="M672.6 598.9L631.8 612.1L672.6 556.1" opacity="0.13"/><path d="M631.8 612.1L672.6 598.9L672.6 625.4" opacity="0.13"/><path d="M672.6 694.7L672.6 737.5L631.8 681.4" opacity="0.13"/><path d="M647.4 660L672.6 694.7L672.6 625.4" opacity="0.13"/><path d="M672.6 694.7L647.4 660L631.8 681.4" opacity="0.13"/><path d="M606.6 646.8L647.4 660L631.8 681.4" opacity="0.13"/><path d="M647.4 660L606.6 646.8L672.6 625.4" opacity="0.13"/><path d="M565.9 521.4L606.6 534.7L540.7 556.1" opacity="0.13"/><path d="M525.2 534.7L565.9 521.4L500 500" opacity="0.13"/><path d="M565.9 521.4L525.2 534.7L540.7 556.1" opacity="0.13"/><path d="M581.5 612.1L606.6 646.8L606.6 577.5" opacity="0.13"/><path d="M581.5 569.3L581.5 612.1L540.7 556.1" opacity="0.13"/><path d="M581.5 612.1L581.5 569.3L606.6 577.5" opacity="0.13"/><path d="M606.6 534.7L581.5 569.3L606.6 577.5" opacity="0.13"/><path d="M581.5 569.3L606.6 534.7L540.7 556.1" opacity="0.13"/><path d="M606.6 534.7L631.8 569.3L606.6 577.5" opacity="0.13"/><path d="M631.8 569.3L606.6 534.7L672.6 556.1" opacity="0.13"/><path d="M631.8 612.1L606.6 646.8L606.6 577.5" opacity="0.13"/><path d="M631.8 569.3L631.8 612.1L672.6 556.1" opacity="0.13"/><path d="M631.8 612.1L631.8 569.3L606.6 577.5" opacity="0.13"/><path d="M819.9 646.8L845.1 612.1L845.1 681.4" opacity="0.13"/><path d="M819.9 689.6L819.9 646.8L779.2 702.8" opacity="0.13"/><path d="M819.9 646.8L819.9 689.6L845.1 681.4" opacity="0.13"/><path d="M911 660L951.8 646.8L885.8 625.4" opacity="0.13"/><path d="M870.3 646.8L911 660L845.1 681.4" opacity="0.13"/><path d="M911 660L870.3 646.8L885.8 625.4" opacity="0.13"/><path d="M845.1 612.1L870.3 646.8L885.8 625.4" opacity="0.13"/><path d="M870.3 646.8L845.1 612.1L845.1 681.4" opacity="0.13"/><path d="M713.3 612.1L738.5 646.8L738.5 577.5" opacity="0.13"/><path d="M713.3 569.3L713.3 612.1L672.6 556.1" opacity="0.13"/><path d="M713.3 612.1L713.3 569.3L738.5 577.5" opacity="0.13"/><path d="M804.4 598.9L845.1 612.1L779.2 633.5" opacity="0.13"/><path d="M763.6 612.1L804.4 598.9L738.5 577.5" opacity="0.13"/><path d="M804.4 598.9L763.6 612.1L779.2 633.5" opacity="0.13"/><path d="M738.5 646.8L763.6 612.1L779.2 633.5" opacity="0.13"/><path d="M763.6 612.1L738.5 646.8L738.5 577.5" opacity="0.13"/><path d="M738.5 646.8L779.2 660L779.2 633.5" opacity="0.13"/><path d="M779.2 660L738.5 646.8L779.2 702.8" opacity="0.13"/><path d="M819.9 646.8L845.1 612.1L779.2 633.5" opacity="0.13"/><path d="M779.2 660L819.9 646.8L779.2 702.8" opacity="0.13"/><path d="M819.9 646.8L779.2 660L779.2 633.5" opacity="0.13"/><path d="M738.5 646.8L738.5 689.6L713.3 681.4" opacity="0.13"/><path d="M738.5 689.6L738.5 646.8L779.2 702.8" opacity="0.13"/><path d="M713.3 724.3L672.6 737.5L713.3 681.4" opacity="0.13"/><path d="M738.5 689.6L713.3 724.3L779.2 702.8" opacity="0.13"/><path d="M713.3 724.3L738.5 689.6L713.3 681.4" opacity="0.13"/><path d="M713.3 612.1L738.5 646.8L672.6 625.4" opacity="0.13"/><path d="M672.6 598.9L713.3 612.1L672.6 556.1" opacity="0.13"/><path d="M713.3 612.1L672.6 598.9L672.6 625.4" opacity="0.13"/><path d="M672.6 694.7L672.6 737.5L713.3 681.4" opacity="0.13"/><path d="M697.7 660L672.6 694.7L672.6 625.4" opacity="0.13"/><path d="M672.6 694.7L697.7 660L713.3 681.4" opacity="0.13"/><path d="M738.5 646.8L697.7 660L713.3 681.4" opacity="0.13"/><path d="M697.7 660L738.5 646.8L672.6 625.4" opacity="0.13"/><path d="M672.6 849.6L647.4 815L672.6 806.8" opacity="0.13"/><path d="M647.4 815L672.6 849.6L606.6 828.2" opacity="0.13"/><path d="M647.4 772.2L672.6 737.5L672.6 806.8" opacity="0.13"/><path d="M647.4 815L647.4 772.2L606.6 828.2" opacity="0.13"/><path d="M647.4 772.2L647.4 815L672.6 806.8" opacity="0.13"/><path d="M713.3 862.9L672.6 849.6L738.5 828.2" opacity="0.13"/><path d="M754 849.6L713.3 862.9L779.2 884.3" opacity="0.13"/><path d="M713.3 862.9L754 849.6L738.5 828.2" opacity="0.13"/><path d="M697.7 772.2L672.6 737.5L672.6 806.8" opacity="0.13"/><path d="M697.7 815L697.7 772.2L738.5 828.2" opacity="0.13"/><path d="M697.7 772.2L697.7 815L672.6 806.8" opacity="0.13"/><path d="M672.6 849.6L697.7 815L672.6 806.8" opacity="0.13"/><path d="M697.7 815L672.6 849.6L738.5 828.2" opacity="0.13"/><path d="M606.6 897.5L606.6 940.3L565.9 884.3" opacity="0.13"/><path d="M581.5 862.9L606.6 897.5L606.6 828.2" opacity="0.13"/><path d="M606.6 897.5L581.5 862.9L565.9 884.3" opacity="0.13"/><path d="M525.2 940.3L500 975L565.9 953.6" opacity="0.13"/><path d="M565.9 927.1L525.2 940.3L565.9 884.3" opacity="0.13"/><path d="M525.2 940.3L565.9 927.1L565.9 953.6" opacity="0.13"/><path d="M606.6 940.3L565.9 927.1L565.9 953.6" opacity="0.13"/><path d="M565.9 927.1L606.6 940.3L565.9 884.3" opacity="0.13"/><path d="M713.3 862.9L672.6 849.6L713.3 905.7" opacity="0.13"/><path d="M738.5 897.5L713.3 862.9L779.2 884.3" opacity="0.13"/><path d="M713.3 862.9L738.5 897.5L713.3 905.7" opacity="0.13"/><path d="M647.4 927.1L606.6 940.3L647.4 884.3" opacity="0.13"/><path d="M672.6 892.5L647.4 927.1L713.3 905.7" opacity="0.13"/><path d="M647.4 927.1L672.6 892.5L647.4 884.3" opacity="0.13"/><path d="M672.6 849.6L672.6 892.5L647.4 884.3" opacity="0.13"/><path d="M672.6 892.5L672.6 849.6L713.3 905.7" opacity="0.13"/><path d="M672.6 849.6L631.8 862.9L647.4 884.3" opacity="0.13"/><path d="M631.8 862.9L672.6 849.6L606.6 828.2" opacity="0.13"/><path d="M606.6 897.5L606.6 940.3L647.4 884.3" opacity="0.13"/><path d="M631.8 862.9L606.6 897.5L606.6 828.2" opacity="0.13"/><path d="M606.6 897.5L631.8 862.9L647.4 884.3" opacity="0.13"/><path d="M565.9 660L606.6 646.8L565.9 702.8" opacity="0.13"/><path d="M540.7 694.7L565.9 660L500 681.4" opacity="0.13"/><path d="M565.9 660L540.7 694.7L565.9 702.8" opacity="0.13"/><path d="M631.8 724.3L672.6 737.5L631.8 681.4" opacity="0.13"/><path d="M606.6 689.6L631.8 724.3L565.9 702.8" opacity="0.13"/><path d="M631.8 724.3L606.6 689.6L631.8 681.4" opacity="0.13"/><path d="M606.6 646.8L606.6 689.6L631.8 681.4" opacity="0.13"/><path d="M606.6 689.6L606.6 646.8L565.9 702.8" opacity="0.13"/><path d="M500 569.3L500 612.1L540.7 556.1" opacity="0.13"/><path d="M525.2 534.7L500 569.3L500 500" opacity="0.13"/><path d="M500 569.3L525.2 534.7L540.7 556.1" opacity="0.13"/><path d="M581.5 612.1L606.6 646.8L540.7 625.4" opacity="0.13"/><path d="M540.7 598.9L581.5 612.1L540.7 556.1" opacity="0.13"/><path d="M581.5 612.1L540.7 598.9L540.7 625.4" opacity="0.13"/><path d="M500 612.1L540.7 598.9L540.7 625.4" opacity="0.13"/><path d="M540.7 598.9L500 612.1L540.7 556.1" opacity="0.13"/><path d="M500 612.1L525.2 646.8L540.7 625.4" opacity="0.13"/><path d="M525.2 646.8L500 612.1L500 681.4" opacity="0.13"/><path d="M565.9 660L606.6 646.8L540.7 625.4" opacity="0.13"/><path d="M525.2 646.8L565.9 660L500 681.4" opacity="0.13"/><path d="M565.9 660L525.2 646.8L540.7 625.4" opacity="0.13"/><path d="M540.7 849.6L500 862.9L565.9 884.3" opacity="0.13"/><path d="M581.5 862.9L540.7 849.6L606.6 828.2" opacity="0.13"/><path d="M540.7 849.6L581.5 862.9L565.9 884.3" opacity="0.13"/><path d="M525.2 940.3L500 975L500 905.7" opacity="0.13"/><path d="M525.2 897.5L525.2 940.3L565.9 884.3" opacity="0.13"/><path d="M525.2 940.3L525.2 897.5L500 905.7" opacity="0.13"/><path d="M500 862.9L525.2 897.5L500 905.7" opacity="0.13"/><path d="M525.2 897.5L500 862.9L565.9 884.3" opacity="0.13"/><path d="M540.7 737.5L565.9 772.2L500 750.7" opacity="0.13"/><path d="M500 724.3L540.7 737.5L500 681.4" opacity="0.13"/><path d="M540.7 737.5L500 724.3L500 750.7" opacity="0.13"/><path d="M500 820L500 862.9L540.7 806.8" opacity="0.13"/><path d="M525.2 785.4L500 820L500 750.7" opacity="0.13"/><path d="M500 820L525.2 785.4L540.7 806.8" opacity="0.13"/><path d="M565.9 772.2L525.2 785.4L540.7 806.8" opacity="0.13"/><path d="M525.2 785.4L565.9 772.2L500 750.7" opacity="0.13"/><path d="M565.9 772.2L565.9 815L540.7 806.8" opacity="0.13"/><path d="M565.9 815L565.9 772.2L606.6 828.2" opacity="0.13"/><path d="M540.7 849.6L500 862.9L540.7 806.8" opacity="0.13"/><path d="M565.9 815L540.7 849.6L606.6 828.2" opacity="0.13"/><path d="M540.7 849.6L565.9 815L540.7 806.8" opacity="0.13"/><path d="M565.9 772.2L606.6 785.4L606.6 758.9" opacity="0.13"/><path d="M606.6 785.4L565.9 772.2L606.6 828.2" opacity="0.13"/><path d="M647.4 772.2L672.6 737.5L606.6 758.9" opacity="0.13"/><path d="M606.6 785.4L647.4 772.2L606.6 828.2" opacity="0.13"/><path d="M647.4 772.2L606.6 785.4L606.6 758.9" opacity="0.13"/><path d="M540.7 737.5L565.9 772.2L565.9 702.8" opacity="0.13"/><path d="M540.7 694.7L540.7 737.5L500 681.4" opacity="0.13"/><path d="M540.7 737.5L540.7 694.7L565.9 702.8" opacity="0.13"/><path d="M631.8 724.3L672.6 737.5L606.6 758.9" opacity="0.13"/><path d="M591.1 737.5L631.8 724.3L565.9 702.8" opacity="0.13"/><path d="M631.8 724.3L591.1 737.5L606.6 758.9" opacity="0.13"/><path d="M565.9 772.2L591.1 737.5L606.6 758.9" opacity="0.13"/><path d="M591.1 737.5L565.9 772.2L565.9 702.8" opacity="0.13"/><path d="M327.4 849.6L352.6 815L327.4 806.8" opacity="0.13"/><path d="M352.6 815L327.4 849.6L393.4 828.2" opacity="0.13"/><path d="M352.6 772.2L327.4 737.5L327.4 806.8" opacity="0.13"/><path d="M352.6 815L352.6 772.2L393.4 828.2" opacity="0.13"/><path d="M352.6 772.2L352.6 815L327.4 806.8" opacity="0.13"/><path d="M286.7 862.9L327.4 849.6L261.5 828.2" opacity="0.13"/><path d="M246 849.6L286.7 862.9L220.8 884.3" opacity="0.13"/><path d="M286.7 862.9L246 849.6L261.5 828.2" opacity="0.13"/><path d="M302.3 772.2L327.4 737.5L327.4 806.8" opacity="0.13"/><path d="M302.3 815L302.3 772.2L261.5 828.2" opacity="0.13"/><path d="M302.3 772.2L302.3 815L327.4 806.8" opacity="0.13"/><path d="M327.4 849.6L302.3 815L327.4 806.8" opacity="0.13"/><path d="M302.3 815L327.4 849.6L261.5 828.2" opacity="0.13"/><path d="M393.4 897.5L393.4 940.3L434.1 884.3" opacity="0.13"/><path d="M418.5 862.9L393.4 897.5L393.4 828.2" opacity="0.13"/><path d="M393.4 897.5L418.5 862.9L434.1 884.3" opacity="0.13"/><path d="M474.8 940.3L500 975L434.1 953.6" opacity="0.13"/><path d="M434.1 927.1L474.8 940.3L434.1 884.3" opacity="0.13"/><path d="M474.8 940.3L434.1 927.1L434.1 953.6" opacity="0.13"/><path d="M393.4 940.3L434.1 927.1L434.1 953.6" opacity="0.13"/><path d="M434.1 927.1L393.4 940.3L434.1 884.3" opacity="0.13"/><path d="M286.7 862.9L327.4 849.6L286.7 905.7" opacity="0.13"/><path d="M261.5 897.5L286.7 862.9L220.8 884.3" opacity="0.13"/><path d="M286.7 862.9L261.5 897.5L286.7 905.7" opacity="0.13"/><path d="M352.6 927.1L393.4 940.3L352.6 884.3" opacity="0.13"/><path d="M327.4 892.5L352.6 927.1L286.7 905.7" opacity="0.13"/><path d="M352.6 927.1L327.4 892.5L352.6 884.3" opacity="0.13"/><path d="M327.4 849.6L327.4 892.5L352.6 884.3" opacity="0.13"/><path d="M327.4 892.5L327.4 849.6L286.7 905.7" opacity="0.13"/><path d="M327.4 849.6L368.2 862.9L352.6 884.3" opacity="0.13"/><path d="M368.2 862.9L327.4 849.6L393.4 828.2" opacity="0.13"/><path d="M393.4 897.5L393.4 940.3L352.6 884.3" opacity="0.13"/><path d="M368.2 862.9L393.4 897.5L393.4 828.2" opacity="0.13"/><path d="M393.4 897.5L368.2 862.9L352.6 884.3" opacity="0.13"/><path d="M434.1 660L393.4 646.8L434.1 702.8" opacity="0.13"/><path d="M459.3 694.7L434.1 660L500 681.4" opacity="0.13"/><path d="M434.1 660L459.3 694.7L434.1 702.8" opacity="0.13"/><path d="M368.2 724.3L327.4 737.5L368.2 681.4" opacity="0.13"/><path d="M393.4 689.6L368.2 724.3L434.1 702.8" opacity="0.13"/><path d="M368.2 724.3L393.4 689.6L368.2 681.4" opacity="0.13"/><path d="M393.4 646.8L393.4 689.6L368.2 681.4" opacity="0.13"/><path d="M393.4 689.6L393.4 646.8L434.1 702.8" opacity="0.13"/><path d="M500 569.3L500 612.1L459.3 556.1" opacity="0.13"/><path d="M474.8 534.7L500 569.3L500 500" opacity="0.13"/><path d="M500 569.3L474.8 534.7L459.3 556.1" opacity="0.13"/><path d="M418.5 612.1L393.4 646.8L459.3 625.4" opacity="0.13"/><path d="M459.3 598.9L418.5 612.1L459.3 556.1" opacity="0.13"/><path d="M418.5 612.1L459.3 598.9L459.3 625.4" opacity="0.13"/><path d="M500 612.1L459.3 598.9L459.3 625.4" opacity="0.13"/><path d="M459.3 598.9L500 612.1L459.3 556.1" opacity="0.13"/><path d="M500 612.1L474.8 646.8L459.3 625.4" opacity="0.13"/><path d="M474.8 646.8L500 612.1L500 681.4" opacity="0.13"/><path d="M434.1 660L393.4 646.8L459.3 625.4" opacity="0.13"/><path d="M474.8 646.8L434.1 660L500 681.4" opacity="0.13"/><path d="M434.1 660L474.8 646.8L459.3 625.4" opacity="0.13"/><path d="M459.3 849.6L500 862.9L434.1 884.3" opacity="0.13"/><path d="M418.5 862.9L459.3 849.6L393.4 828.2" opacity="0.13"/><path d="M459.3 849.6L418.5 862.9L434.1 884.3" opacity="0.13"/><path d="M474.8 940.3L500 975L500 905.7" opacity="0.13"/><path d="M474.8 897.5L474.8 940.3L434.1 884.3" opacity="0.13"/><path d="M474.8 940.3L474.8 897.5L500 905.7" opacity="0.13"/><path d="M500 862.9L474.8 897.5L500 905.7" opacity="0.13"/><path d="M474.8 897.5L500 862.9L434.1 884.3" opacity="0.13"/><path d="M459.3 737.5L434.1 772.2L500 750.7" opacity="0.13"/><path d="M500 724.3L459.3 737.5L500 681.4" opacity="0.13"/><path d="M459.3 737.5L500 724.3L500 750.7" opacity="0.13"/><path d="M500 820L500 862.9L459.3 806.8" opacity="0.13"/><path d="M474.8 785.4L500 820L500 750.7" opacity="0.13"/><path d="M500 820L474.8 785.4L459.3 806.8" opacity="0.13"/><path d="M434.1 772.2L474.8 785.4L459.3 806.8" opacity="0.13"/><path d="M474.8 785.4L434.1 772.2L500 750.7" opacity="0.13"/><path d="M434.1 772.2L434.1 815L459.3 806.8" opacity="0.13"/><path d="M434.1 815L434.1 772.2L393.4 828.2" opacity="0.13"/><path d="M459.3 849.6L500 862.9L459.3 806.8" opacity="0.13"/><path d="M434.1 815L459.3 849.6L393.4 828.2" opacity="0.13"/><path d="M459.3 849.6L434.1 815L459.3 806.8" opacity="0.13"/><path d="M434.1 772.2L393.4 785.4L393.4 758.9" opacity="0.13"/><path d="M393.4 785.4L434.1 772.2L393.4 828.2" opacity="0.13"/><path d="M352.6 772.2L327.4 737.5L393.4 758.9" opacity="0.13"/><path d="M393.4 785.4L352.6 772.2L393.4 828.2" opacity="0.13"/><path d="M352.6 772.2L393.4 785.4L393.4 758.9" opacity="0.13"/><path d="M459.3 737.5L434.1 772.2L434.1 702.8" opacity="0.13"/><path d="M459.3 694.7L459.3 737.5L500 681.4" opacity="0.13"/><path d="M459.3 737.5L459.3 694.7L434.1 702.8" opacity="0.13"/><path d="M368.2 724.3L327.4 737.5L393.4 758.9" opacity="0.13"/><path d="M408.9 737.5L368.2 724.3L434.1 702.8" opacity="0.13"/><path d="M368.2 724.3L408.9 737.5L393.4 758.9" opacity="0.13"/><path d="M434.1 772.2L408.9 737.5L393.4 758.9" opacity="0.13"/><path d="M408.9 737.5L434.1 772.2L434.1 702.8" opacity="0.13"/><path d="M220.8 772.2L246 737.5L261.5 758.9" opacity="0.13"/><path d="M246 737.5L220.8 772.2L220.8 702.8" opacity="0.13"/><path d="M286.7 724.3L327.4 737.5L261.5 758.9" opacity="0.13"/><path d="M246 737.5L286.7 724.3L220.8 702.8" opacity="0.13"/><path d="M286.7 724.3L246 737.5L261.5 758.9" opacity="0.13"/><path d="M220.8 815L220.8 772.2L261.5 828.2" opacity="0.13"/><path d="M246 849.6L220.8 815L220.8 884.3" opacity="0.13"/><path d="M220.8 815L246 849.6L261.5 828.2" opacity="0.13"/><path d="M302.3 772.2L327.4 737.5L261.5 758.9" opacity="0.13"/><path d="M261.5 785.4L302.3 772.2L261.5 828.2" opacity="0.13"/><path d="M302.3 772.2L261.5 785.4L261.5 758.9" opacity="0.13"/><path d="M220.8 772.2L261.5 785.4L261.5 758.9" opacity="0.13"/><path d="M261.5 785.4L220.8 772.2L261.5 828.2" opacity="0.13"/><path d="M154.9 724.3L114.2 737.5L154.9 681.4" opacity="0.13"/><path d="M180.1 689.6L154.9 724.3L220.8 702.8" opacity="0.13"/><path d="M154.9 724.3L180.1 689.6L154.9 681.4" opacity="0.13"/><path d="M89 660L48.2 646.8L89 702.8" opacity="0.13"/><path d="M114.2 694.7L89 660L154.9 681.4" opacity="0.13"/><path d="M89 660L114.2 694.7L89 702.8" opacity="0.13"/><path d="M114.2 737.5L114.2 694.7L89 702.8" opacity="0.13"/><path d="M114.2 694.7L114.2 737.5L154.9 681.4" opacity="0.13"/><path d="M220.8 815L220.8 772.2L180.1 828.2" opacity="0.13"/><path d="M195.6 849.6L220.8 815L220.8 884.3" opacity="0.13"/><path d="M220.8 815L195.6 849.6L180.1 828.2" opacity="0.13"/><path d="M139.3 772.2L114.2 737.5L180.1 758.9" opacity="0.13"/><path d="M180.1 785.4L139.3 772.2L180.1 828.2" opacity="0.13"/><path d="M139.3 772.2L180.1 785.4L180.1 758.9" opacity="0.13"/><path d="M220.8 772.2L180.1 785.4L180.1 758.9" opacity="0.13"/><path d="M180.1 785.4L220.8 772.2L180.1 828.2" opacity="0.13"/><path d="M220.8 772.2L195.6 737.5L180.1 758.9" opacity="0.13"/><path d="M195.6 737.5L220.8 772.2L220.8 702.8" opacity="0.13"/><path d="M154.9 724.3L114.2 737.5L180.1 758.9" opacity="0.13"/><path d="M195.6 737.5L154.9 724.3L220.8 702.8" opacity="0.13"/><path d="M154.9 724.3L195.6 737.5L180.1 758.9" opacity="0.13"/><path d="M368.2 612.1L393.4 646.8L327.4 625.4" opacity="0.13"/><path d="M327.4 598.9L368.2 612.1L327.4 556.1" opacity="0.13"/><path d="M368.2 612.1L327.4 598.9L327.4 625.4" opacity="0.13"/><path d="M327.4 694.7L327.4 737.5L368.2 681.4" opacity="0.13"/><path d="M352.6 660L327.4 694.7L327.4 625.4" opacity="0.13"/><path d="M327.4 694.7L352.6 660L368.2 681.4" opacity="0.13"/><path d="M393.4 646.8L352.6 660L368.2 681.4" opacity="0.13"/><path d="M352.6 660L393.4 646.8L327.4 625.4" opacity="0.13"/><path d="M434.1 521.4L393.4 534.7L459.3 556.1" opacity="0.13"/><path d="M474.8 534.7L434.1 521.4L500 500" opacity="0.13"/><path d="M434.1 521.4L474.8 534.7L459.3 556.1" opacity="0.13"/><path d="M418.5 612.1L393.4 646.8L393.4 577.5" opacity="0.13"/><path d="M418.5 569.3L418.5 612.1L459.3 556.1" opacity="0.13"/><path d="M418.5 612.1L418.5 569.3L393.4 577.5" opacity="0.13"/><path d="M393.4 534.7L418.5 569.3L393.4 577.5" opacity="0.13"/><path d="M418.5 569.3L393.4 534.7L459.3 556.1" opacity="0.13"/><path d="M393.4 534.7L368.2 569.3L393.4 577.5" opacity="0.13"/><path d="M368.2 569.3L393.4 534.7L327.4 556.1" opacity="0.13"/><path d="M368.2 612.1L393.4 646.8L393.4 577.5" opacity="0.13"/><path d="M368.2 569.3L368.2 612.1L327.4 556.1" opacity="0.13"/><path d="M368.2 612.1L368.2 569.3L393.4 577.5" opacity="0.13"/><path d="M180.1 646.8L154.9 612.1L154.9 681.4" opacity="0.13"/><path d="M180.1 689.6L180.1 646.8L220.8 702.8" opacity="0.13"/><path d="M180.1 646.8L180.1 689.6L154.9 681.4" opacity="0.13"/><path d="M89 660L48.2 646.8L114.2 625.4" opacity="0.13"/><path d="M129.7 646.8L89 660L154.9 681.4" opacity="0.13"/><path d="M89 660L129.7 646.8L114.2 625.4" opacity="0.13"/><path d="M154.9 612.1L129.7 646.8L114.2 625.4" opacity="0.13"/><path d="M129.7 646.8L154.9 612.1L154.9 681.4" opacity="0.13"/><path d="M286.7 612.1L261.5 646.8L261.5 577.5" opacity="0.13"/><path d="M286.7 569.3L286.7 612.1L327.4 556.1" opacity="0.13"/><path d="M286.7 612.1L286.7 569.3L261.5 577.5" opacity="0.13"/><path d="M195.6 598.9L154.9 612.1L220.8 633.5" opacity="0.13"/><path d="M236.4 612.1L195.6 598.9L261.5 577.5" opacity="0.13"/><path d="M195.6 598.9L236.4 612.1L220.8 633.5" opacity="0.13"/><path d="M261.5 646.8L236.4 612.1L220.8 633.5" opacity="0.13"/><path d="M236.4 612.1L261.5 646.8L261.5 577.5" opacity="0.13"/><path d="M261.5 646.8L220.8 660L220.8 633.5" opacity="0.13"/><path d="M220.8 660L261.5 646.8L220.8 702.8" opacity="0.13"/><path d="M180.1 646.8L154.9 612.1L220.8 633.5" opacity="0.13"/><path d="M220.8 660L180.1 646.8L220.8 702.8" opacity="0.13"/><path d="M180.1 646.8L220.8 660L220.8 633.5" opacity="0.13"/><path d="M261.5 646.8L261.5 689.6L286.7 681.4" opacity="0.13"/><path d="M261.5 689.6L261.5 646.8L220.8 702.8" opacity="0.13"/><path d="M286.7 724.3L327.4 737.5L286.7 681.4" opacity="0.13"/><path d="M261.5 689.6L286.7 724.3L220.8 702.8" opacity="0.13"/><path d="M286.7 724.3L261.5 689.6L286.7 681.4" opacity="0.13"/><path d="M286.7 612.1L261.5 646.8L327.4 625.4" opacity="0.13"/><path d="M327.4 598.9L286.7 612.1L327.4 556.1" opacity="0.13"/><path d="M286.7 612.1L327.4 598.9L327.4 625.4" opacity="0.13"/><path d="M327.4 694.7L327.4 737.5L286.7 681.4" opacity="0.13"/><path d="M302.3 660L327.4 694.7L327.4 625.4" opacity="0.13"/><path d="M327.4 694.7L302.3 660L286.7 681.4" opacity="0.13"/><path d="M261.5 646.8L302.3 660L286.7 681.4" opacity="0.13"/><path d="M302.3 660L261.5 646.8L327.4 625.4" opacity="0.13"/><path d="M114.2 443.9L154.9 457.2L154.9 430.7" opacity="0.13"/><path d="M154.9 457.2L114.2 443.9L154.9 500" opacity="0.13"/><path d="M195.6 443.9L220.8 409.3L154.9 430.7" opacity="0.13"/><path d="M154.9 457.2L195.6 443.9L154.9 500" opacity="0.13"/><path d="M195.6 443.9L154.9 457.2L154.9 430.7" opacity="0.13"/><path d="M89 409.3L114.2 443.9L114.2 374.6" opacity="0.13"/><path d="M89 366.5L89 409.3L48.2 353.2" opacity="0.13"/><path d="M89 409.3L89 366.5L114.2 374.6" opacity="0.13"/><path d="M180.1 396L220.8 409.3L154.9 430.7" opacity="0.13"/><path d="M139.3 409.3L180.1 396L114.2 374.6" opacity="0.13"/><path d="M180.1 396L139.3 409.3L154.9 430.7" opacity="0.13"/><path d="M114.2 443.9L139.3 409.3L154.9 430.7" opacity="0.13"/><path d="M139.3 409.3L114.2 443.9L114.2 374.6" opacity="0.13"/><path d="M89 521.4L48.2 534.7L114.2 556.1" opacity="0.13"/><path d="M129.7 534.7L89 521.4L154.9 500" opacity="0.13"/><path d="M89 521.4L129.7 534.7L114.2 556.1" opacity="0.13"/><path d="M73.4 612.1L48.2 646.8L48.2 577.5" opacity="0.13"/><path d="M73.4 569.3L73.4 612.1L114.2 556.1" opacity="0.13"/><path d="M73.4 612.1L73.4 569.3L48.2 577.5" opacity="0.13"/><path d="M48.2 534.7L73.4 569.3L48.2 577.5" opacity="0.13"/><path d="M73.4 569.3L48.2 534.7L114.2 556.1" opacity="0.13"/><path d="M89 409.3L114.2 443.9L48.2 422.5" opacity="0.13"/><path d="M48.2 396L89 409.3L48.2 353.2" opacity="0.13"/><path d="M89 409.3L48.2 396L48.2 422.5" opacity="0.13"/><path d="M48.2 491.8L48.2 534.7L89 478.6" opacity="0.13"/><path d="M73.4 457.2L48.2 491.8L48.2 422.5" opacity="0.13"/><path d="M48.2 491.8L73.4 457.2L89 478.6" opacity="0.13"/><path d="M114.2 443.9L73.4 457.2L89 478.6" opacity="0.13"/><path d="M73.4 457.2L114.2 443.9L48.2 422.5" opacity="0.13"/><path d="M114.2 443.9L114.2 486.8L89 478.6" opacity="0.13"/><path d="M114.2 486.8L114.2 443.9L154.9 500" opacity="0.13"/><path d="M89 521.4L48.2 534.7L89 478.6" opacity="0.13"/><path d="M114.2 486.8L89 521.4L154.9 500" opacity="0.13"/><path d="M89 521.4L114.2 486.8L89 478.6" opacity="0.13"/><path d="M327.4 486.8L327.4 443.9L286.7 500" opacity="0.13"/><path d="M302.3 521.4L327.4 486.8L327.4 556.1" opacity="0.13"/><path d="M327.4 486.8L302.3 521.4L286.7 500" opacity="0.13"/><path d="M246 443.9L220.8 409.3L286.7 430.7" opacity="0.13"/><path d="M286.7 457.2L246 443.9L286.7 500" opacity="0.13"/><path d="M246 443.9L286.7 457.2L286.7 430.7" opacity="0.13"/><path d="M327.4 443.9L286.7 457.2L286.7 430.7" opacity="0.13"/><path d="M286.7 457.2L327.4 443.9L286.7 500" opacity="0.13"/><path d="M434.1 521.4L393.4 534.7L434.1 478.6" opacity="0.13"/><path d="M459.3 486.8L434.1 521.4L500 500" opacity="0.13"/><path d="M434.1 521.4L459.3 486.8L434.1 478.6" opacity="0.13"/><path d="M368.2 457.2L327.4 443.9L368.2 500" opacity="0.13"/><path d="M393.4 491.8L368.2 457.2L434.1 478.6" opacity="0.13"/><path d="M368.2 457.2L393.4 491.8L368.2 500" opacity="0.13"/><path d="M393.4 534.7L393.4 491.8L368.2 500" opacity="0.13"/><path d="M393.4 491.8L393.4 534.7L434.1 478.6" opacity="0.13"/><path d="M393.4 534.7L352.6 521.4L368.2 500" opacity="0.13"/><path d="M352.6 521.4L393.4 534.7L327.4 556.1" opacity="0.13"/><path d="M327.4 486.8L327.4 443.9L368.2 500" opacity="0.13"/><path d="M352.6 521.4L327.4 486.8L327.4 556.1" opacity="0.13"/><path d="M327.4 486.8L352.6 521.4L368.2 500" opacity="0.13"/><path d="M154.9 569.3L154.9 612.1L114.2 556.1" opacity="0.13"/><path d="M129.7 534.7L154.9 569.3L154.9 500" opacity="0.13"/><path d="M154.9 569.3L129.7 534.7L114.2 556.1" opacity="0.13"/><path d="M73.4 612.1L48.2 646.8L114.2 625.4" opacity="0.13"/><path d="M114.2 598.9L73.4 612.1L114.2 556.1" opacity="0.13"/><path d="M73.4 612.1L114.2 598.9L114.2 625.4" opacity="0.13"/><path d="M154.9 612.1L114.2 598.9L114.2 625.4" opacity="0.13"/><path d="M114.2 598.9L154.9 612.1L114.2 556.1" opacity="0.13"/><path d="M261.5 534.7L220.8 521.4L261.5 577.5" opacity="0.13"/><path d="M286.7 569.3L261.5 534.7L327.4 556.1" opacity="0.13"/><path d="M261.5 534.7L286.7 569.3L261.5 577.5" opacity="0.13"/><path d="M195.6 598.9L154.9 612.1L195.6 556.1" opacity="0.13"/><path d="M220.8 564.2L195.6 598.9L261.5 577.5" opacity="0.13"/><path d="M195.6 598.9L220.8 564.2L195.6 556.1" opacity="0.13"/><path d="M220.8 521.4L220.8 564.2L195.6 556.1" opacity="0.13"/><path d="M220.8 564.2L220.8 521.4L261.5 577.5" opacity="0.13"/><path d="M220.8 521.4L180.1 534.7L195.6 556.1" opacity="0.13"/><path d="M180.1 534.7L220.8 521.4L154.9 500" opacity="0.13"/><path d="M154.9 569.3L154.9 612.1L195.6 556.1" opacity="0.13"/><path d="M180.1 534.7L154.9 569.3L154.9 500" opacity="0.13"/><path d="M154.9 569.3L180.1 534.7L195.6 556.1" opacity="0.13"/><path d="M220.8 521.4L195.6 486.8L220.8 478.6" opacity="0.13"/><path d="M195.6 486.8L220.8 521.4L154.9 500" opacity="0.13"/><path d="M195.6 443.9L220.8 409.3L220.8 478.6" opacity="0.13"/><path d="M195.6 486.8L195.6 443.9L154.9 500" opacity="0.13"/><path d="M195.6 443.9L195.6 486.8L220.8 478.6" opacity="0.13"/><path d="M261.5 534.7L220.8 521.4L286.7 500" opacity="0.13"/><path d="M302.3 521.4L261.5 534.7L327.4 556.1" opacity="0.13"/><path d="M261.5 534.7L302.3 521.4L286.7 500" opacity="0.13"/><path d="M246 443.9L220.8 409.3L220.8 478.6" opacity="0.13"/><path d="M246 486.8L246 443.9L286.7 500" opacity="0.13"/><path d="M246 443.9L246 486.8L220.8 478.6" opacity="0.13"/><path d="M220.8 521.4L246 486.8L220.8 478.6" opacity="0.13"/><path d="M246 486.8L220.8 521.4L286.7 500" opacity="0.13"/><path d="M154.9 318.6L195.6 331.8L180.1 353.2" opacity="0.13"/><path d="M195.6 331.8L154.9 318.6L220.8 297.2" opacity="0.13"/><path d="M220.8 366.5L220.8 409.3L180.1 353.2" opacity="0.13"/><path d="M195.6 331.8L220.8 366.5L220.8 297.2" opacity="0.13"/><path d="M220.8 366.5L195.6 331.8L180.1 353.2" opacity="0.13"/><path d="M114.2 331.8L154.9 318.6L114.2 374.6" opacity="0.13"/><path d="M89 366.5L114.2 331.8L48.2 353.2" opacity="0.13"/><path d="M114.2 331.8L89 366.5L114.2 374.6" opacity="0.13"/><path d="M180.1 396L220.8 409.3L180.1 353.2" opacity="0.13"/><path d="M154.9 361.4L180.1 396L114.2 374.6" opacity="0.13"/><path d="M180.1 396L154.9 361.4L180.1 353.2" opacity="0.13"/><path d="M154.9 318.6L154.9 361.4L180.1 353.2" opacity="0.13"/><path d="M154.9 361.4L154.9 318.6L114.2 374.6" opacity="0.13"/><path d="M180.1 241.1L154.9 206.4L220.8 227.8" opacity="0.13"/><path d="M220.8 254.3L180.1 241.1L220.8 297.2" opacity="0.13"/><path d="M180.1 241.1L220.8 254.3L220.8 227.8" opacity="0.13"/><path d="M220.8 158.5L220.8 115.7L180.1 171.8" opacity="0.13"/><path d="M195.6 193.2L220.8 158.5L220.8 227.8" opacity="0.13"/><path d="M220.8 158.5L195.6 193.2L180.1 171.8" opacity="0.13"/><path d="M154.9 206.4L195.6 193.2L180.1 171.8" opacity="0.13"/><path d="M195.6 193.2L154.9 206.4L220.8 227.8" opacity="0.13"/><path d="M114.2 331.8L154.9 318.6L89 297.2" opacity="0.13"/><path d="M73.4 318.6L114.2 331.8L48.2 353.2" opacity="0.13"/><path d="M114.2 331.8L73.4 318.6L89 297.2" opacity="0.13"/><path d="M129.7 241.1L154.9 206.4L154.9 275.7" opacity="0.13"/><path d="M129.7 283.9L129.7 241.1L89 297.2" opacity="0.13"/><path d="M129.7 241.1L129.7 283.9L154.9 275.7" opacity="0.13"/><path d="M154.9 318.6L129.7 283.9L154.9 275.7" opacity="0.13"/><path d="M129.7 283.9L154.9 318.6L89 297.2" opacity="0.13"/><path d="M154.9 318.6L180.1 283.9L154.9 275.7" opacity="0.13"/><path d="M180.1 283.9L154.9 318.6L220.8 297.2" opacity="0.13"/><path d="M180.1 241.1L154.9 206.4L154.9 275.7" opacity="0.13"/><path d="M180.1 283.9L180.1 241.1L220.8 297.2" opacity="0.13"/><path d="M180.1 241.1L180.1 283.9L154.9 275.7" opacity="0.13"/><path d="M352.6 409.3L327.4 443.9L327.4 374.6" opacity="0.13"/><path d="M352.6 366.5L352.6 409.3L393.4 353.2" opacity="0.13"/><path d="M352.6 409.3L352.6 366.5L327.4 374.6" opacity="0.13"/><path d="M261.5 396L220.8 409.3L286.7 430.7" opacity="0.13"/><path d="M302.3 409.3L261.5 396L327.4 374.6" opacity="0.13"/><path d="M261.5 396L302.3 409.3L286.7 430.7" opacity="0.13"/><path d="M327.4 443.9L302.3 409.3L286.7 430.7" opacity="0.13"/><path d="M302.3 409.3L327.4 443.9L327.4 374.6" opacity="0.13"/><path d="M459.3 443.9L434.1 409.3L434.1 478.6" opacity="0.13"/><path d="M459.3 486.8L459.3 443.9L500 500" opacity="0.13"/><path d="M459.3 443.9L459.3 486.8L434.1 478.6" opacity="0.13"/><path d="M368.2 457.2L327.4 443.9L393.4 422.5" opacity="0.13"/><path d="M408.9 443.9L368.2 457.2L434.1 478.6" opacity="0.13"/><path d="M368.2 457.2L408.9 443.9L393.4 422.5" opacity="0.13"/><path d="M434.1 409.3L408.9 443.9L393.4 422.5" opacity="0.13"/><path d="M408.9 443.9L434.1 409.3L434.1 478.6" opacity="0.13"/><path d="M434.1 409.3L393.4 396L393.4 422.5" opacity="0.13"/><path d="M393.4 396L434.1 409.3L393.4 353.2" opacity="0.13"/><path d="M352.6 409.3L327.4 443.9L393.4 422.5" opacity="0.13"/><path d="M393.4 396L352.6 409.3L393.4 353.2" opacity="0.13"/><path d="M352.6 409.3L393.4 396L393.4 422.5" opacity="0.13"/><path d="M261.5 241.1L286.7 206.4L220.8 227.8" opacity="0.13"/><path d="M220.8 254.3L261.5 241.1L220.8 297.2" opacity="0.13"/><path d="M261.5 241.1L220.8 254.3L220.8 227.8" opacity="0.13"/><path d="M220.8 158.5L220.8 115.7L261.5 171.8" opacity="0.13"/><path d="M246 193.2L220.8 158.5L220.8 227.8" opacity="0.13"/><path d="M220.8 158.5L246 193.2L261.5 171.8" opacity="0.13"/><path d="M286.7 206.4L246 193.2L261.5 171.8" opacity="0.13"/><path d="M246 193.2L286.7 206.4L220.8 227.8" opacity="0.13"/><path d="M327.4 331.8L286.7 318.6L352.6 297.2" opacity="0.13"/><path d="M368.2 318.6L327.4 331.8L393.4 353.2" opacity="0.13"/><path d="M327.4 331.8L368.2 318.6L352.6 297.2" opacity="0.13"/><path d="M311.9 241.1L286.7 206.4L286.7 275.7" opacity="0.13"/><path d="M311.9 283.9L311.9 241.1L352.6 297.2" opacity="0.13"/><path d="M311.9 241.1L311.9 283.9L286.7 275.7" opacity="0.13"/><path d="M286.7 318.6L311.9 283.9L286.7 275.7" opacity="0.13"/><path d="M311.9 283.9L286.7 318.6L352.6 297.2" opacity="0.13"/><path d="M286.7 318.6L261.5 283.9L286.7 275.7" opacity="0.13"/><path d="M261.5 283.9L286.7 318.6L220.8 297.2" opacity="0.13"/><path d="M261.5 241.1L286.7 206.4L286.7 275.7" opacity="0.13"/><path d="M261.5 283.9L261.5 241.1L220.8 297.2" opacity="0.13"/><path d="M261.5 241.1L261.5 283.9L286.7 275.7" opacity="0.13"/><path d="M286.7 318.6L246 331.8L261.5 353.2" opacity="0.13"/><path d="M246 331.8L286.7 318.6L220.8 297.2" opacity="0.13"/><path d="M220.8 366.5L220.8 409.3L261.5 353.2" opacity="0.13"/><path d="M246 331.8L220.8 366.5L220.8 297.2" opacity="0.13"/><path d="M220.8 366.5L246 331.8L261.5 353.2" opacity="0.13"/><path d="M327.4 331.8L286.7 318.6L327.4 374.6" opacity="0.13"/><path d="M352.6 366.5L327.4 331.8L393.4 353.2" opacity="0.13"/><path d="M327.4 331.8L352.6 366.5L327.4 374.6" opacity="0.13"/><path d="M261.5 396L220.8 409.3L261.5 353.2" opacity="0.13"/><path d="M286.7 361.4L261.5 396L327.4 374.6" opacity="0.13"/><path d="M261.5 396L286.7 361.4L261.5 353.2" opacity="0.13"/><path d="M286.7 318.6L286.7 361.4L261.5 353.2" opacity="0.13"/><path d="M286.7 361.4L286.7 318.6L327.4 374.6" opacity="0.13"/><path d="M434.1 115.7L434.1 158.5L459.3 150.4" opacity="0.13"/><path d="M434.1 158.5L434.1 115.7L393.4 171.8" opacity="0.13"/><path d="M459.3 193.2L500 206.4L459.3 150.4" opacity="0.13"/><path d="M434.1 158.5L459.3 193.2L393.4 171.8" opacity="0.13"/><path d="M459.3 193.2L434.1 158.5L459.3 150.4" opacity="0.13"/><path d="M459.3 81.1L434.1 115.7L500 94.3" opacity="0.13"/><path d="M500 67.8L459.3 81.1L500 25" opacity="0.13"/><path d="M459.3 81.1L500 67.8L500 94.3" opacity="0.13"/><path d="M500 163.6L500 206.4L459.3 150.4" opacity="0.13"/><path d="M474.8 129L500 163.6L500 94.3" opacity="0.13"/><path d="M500 163.6L474.8 129L459.3 150.4" opacity="0.13"/><path d="M434.1 115.7L474.8 129L459.3 150.4" opacity="0.13"/><path d="M474.8 129L434.1 115.7L500 94.3" opacity="0.13"/><path d="M352.6 115.7L327.4 81.1L327.4 150.4" opacity="0.13"/><path d="M352.6 158.5L352.6 115.7L393.4 171.8" opacity="0.13"/><path d="M352.6 115.7L352.6 158.5L327.4 150.4" opacity="0.13"/><path d="M261.5 129L220.8 115.7L286.7 94.3" opacity="0.13"/><path d="M302.3 115.7L261.5 129L327.4 150.4" opacity="0.13"/><path d="M261.5 129L302.3 115.7L286.7 94.3" opacity="0.13"/><path d="M327.4 81.1L302.3 115.7L286.7 94.3" opacity="0.13"/><path d="M302.3 115.7L327.4 81.1L327.4 150.4" opacity="0.13"/><path d="M459.3 81.1L434.1 115.7L434.1 46.4" opacity="0.13"/><path d="M459.3 38.2L459.3 81.1L500 25" opacity="0.13"/><path d="M459.3 81.1L459.3 38.2L434.1 46.4" opacity="0.13"/><path d="M368.2 67.8L327.4 81.1L393.4 102.5" opacity="0.13"/><path d="M408.9 81.1L368.2 67.8L434.1 46.4" opacity="0.13"/><path d="M368.2 67.8L408.9 81.1L393.4 102.5" opacity="0.13"/><path d="M434.1 115.7L408.9 81.1L393.4 102.5" opacity="0.13"/><path d="M408.9 81.1L434.1 115.7L434.1 46.4" opacity="0.13"/><path d="M434.1 115.7L393.4 129L393.4 102.5" opacity="0.13"/><path d="M393.4 129L434.1 115.7L393.4 171.8" opacity="0.13"/><path d="M352.6 115.7L327.4 81.1L393.4 102.5" opacity="0.13"/><path d="M393.4 129L352.6 115.7L393.4 171.8" opacity="0.13"/><path d="M352.6 115.7L393.4 129L393.4 102.5" opacity="0.13"/><path d="M459.3 331.8L500 318.6L434.1 297.2" opacity="0.13"/><path d="M418.5 318.6L459.3 331.8L393.4 353.2" opacity="0.13"/><path d="M459.3 331.8L418.5 318.6L434.1 297.2" opacity="0.13"/><path d="M474.8 241.1L500 206.4L500 275.7" opacity="0.13"/><path d="M474.8 283.9L474.8 241.1L434.1 297.2" opacity="0.13"/><path d="M474.8 241.1L474.8 283.9L500 275.7" opacity="0.13"/><path d="M500 318.6L474.8 283.9L500 275.7" opacity="0.13"/><path d="M474.8 283.9L500 318.6L434.1 297.2" opacity="0.13"/><path d="M459.3 443.9L434.1 409.3L500 430.7" opacity="0.13"/><path d="M500 457.2L459.3 443.9L500 500" opacity="0.13"/><path d="M459.3 443.9L500 457.2L500 430.7" opacity="0.13"/><path d="M500 361.4L500 318.6L459.3 374.6" opacity="0.13"/><path d="M474.8 396L500 361.4L500 430.7" opacity="0.13"/><path d="M500 361.4L474.8 396L459.3 374.6" opacity="0.13"/><path d="M434.1 409.3L474.8 396L459.3 374.6" opacity="0.13"/><path d="M474.8 396L434.1 409.3L500 430.7" opacity="0.13"/><path d="M434.1 409.3L434.1 366.5L459.3 374.6" opacity="0.13"/><path d="M434.1 366.5L434.1 409.3L393.4 353.2" opacity="0.13"/><path d="M459.3 331.8L500 318.6L459.3 374.6" opacity="0.13"/><path d="M434.1 366.5L459.3 331.8L393.4 353.2" opacity="0.13"/><path d="M459.3 331.8L434.1 366.5L459.3 374.6" opacity="0.13"/><path d="M327.4 193.2L286.7 206.4L327.4 150.4" opacity="0.13"/><path d="M352.6 158.5L327.4 193.2L393.4 171.8" opacity="0.13"/><path d="M327.4 193.2L352.6 158.5L327.4 150.4" opacity="0.13"/><path d="M261.5 129L220.8 115.7L261.5 171.8" opacity="0.13"/><path d="M286.7 163.6L261.5 129L327.4 150.4" opacity="0.13"/><path d="M261.5 129L286.7 163.6L261.5 171.8" opacity="0.13"/><path d="M286.7 206.4L286.7 163.6L261.5 171.8" opacity="0.13"/><path d="M286.7 163.6L286.7 206.4L327.4 150.4" opacity="0.13"/><path d="M393.4 283.9L393.4 241.1L352.6 297.2" opacity="0.13"/><path d="M368.2 318.6L393.4 283.9L393.4 353.2" opacity="0.13"/><path d="M393.4 283.9L368.2 318.6L352.6 297.2" opacity="0.13"/><path d="M311.9 241.1L286.7 206.4L352.6 227.8" opacity="0.13"/><path d="M352.6 254.3L311.9 241.1L352.6 297.2" opacity="0.13"/><path d="M311.9 241.1L352.6 254.3L352.6 227.8" opacity="0.13"/><path d="M393.4 241.1L352.6 254.3L352.6 227.8" opacity="0.13"/><path d="M352.6 254.3L393.4 241.1L352.6 297.2" opacity="0.13"/><path d="M393.4 241.1L368.2 206.4L352.6 227.8" opacity="0.13"/><path d="M368.2 206.4L393.4 241.1L393.4 171.8" opacity="0.13"/><path d="M327.4 193.2L286.7 206.4L352.6 227.8" opacity="0.13"/><path d="M368.2 206.4L327.4 193.2L393.4 171.8" opacity="0.13"/><path d="M327.4 193.2L368.2 206.4L352.6 227.8" opacity="0.13"/><path d="M393.4 241.1L418.5 206.4L434.1 227.8" opacity="0.13"/><path d="M418.5 206.4L393.4 241.1L393.4 171.8" opacity="0.13"/><path d="M459.3 193.2L500 206.4L434.1 227.8" opacity="0.13"/><path d="M418.5 206.4L459.3 193.2L393.4 171.8" opacity="0.13"/><path d="M459.3 193.2L418.5 206.4L434.1 227.8" opacity="0.13"/><path d="M393.4 283.9L393.4 241.1L434.1 297.2" opacity="0.13"/><path d="M418.5 318.6L393.4 283.9L393.4 353.2" opacity="0.13"/><path d="M393.4 283.9L418.5 318.6L434.1 297.2" opacity="0.13"/><path d="M474.8 241.1L500 206.4L434.1 227.8" opacity="0.13"/><path d="M434.1 254.3L474.8 241.1L434.1 297.2" opacity="0.13"/><path d="M474.8 241.1L434.1 254.3L434.1 227.8" opacity="0.13"/><path d="M393.4 241.1L434.1 254.3L434.1 227.8" opacity="0.13"/><path d="M434.1 254.3L393.4 241.1L434.1 297.2" opacity="0.13"/><path d="M565.9 115.7L565.9 158.5L540.7 150.4" opacity="0.13"/><path d="M565.9 158.5L565.9 115.7L606.6 171.8" opacity="0.13"/><path d="M540.7 193.2L500 206.4L540.7 150.4" opacity="0.13"/><path d="M565.9 158.5L540.7 193.2L606.6 171.8" opacity="0.13"/><path d="M540.7 193.2L565.9 158.5L540.7 150.4" opacity="0.13"/><path d="M540.7 81.1L565.9 115.7L500 94.3" opacity="0.13"/><path d="M500 67.8L540.7 81.1L500 25" opacity="0.13"/><path d="M540.7 81.1L500 67.8L500 94.3" opacity="0.13"/><path d="M500 163.6L500 206.4L540.7 150.4" opacity="0.13"/><path d="M525.2 129L500 163.6L500 94.3" opacity="0.13"/><path d="M500 163.6L525.2 129L540.7 150.4" opacity="0.13"/><path d="M565.9 115.7L525.2 129L540.7 150.4" opacity="0.13"/><path d="M525.2 129L565.9 115.7L500 94.3" opacity="0.13"/><path d="M647.4 115.7L672.6 81.1L672.6 150.4" opacity="0.13"/><path d="M647.4 158.5L647.4 115.7L606.6 171.8" opacity="0.13"/><path d="M647.4 115.7L647.4 158.5L672.6 150.4" opacity="0.13"/><path d="M738.5 129L779.2 115.7L713.3 94.3" opacity="0.13"/><path d="M697.7 115.7L738.5 129L672.6 150.4" opacity="0.13"/><path d="M738.5 129L697.7 115.7L713.3 94.3" opacity="0.13"/><path d="M672.6 81.1L697.7 115.7L713.3 94.3" opacity="0.13"/><path d="M697.7 115.7L672.6 81.1L672.6 150.4" opacity="0.13"/><path d="M540.7 81.1L565.9 115.7L565.9 46.4" opacity="0.13"/><path d="M540.7 38.2L540.7 81.1L500 25" opacity="0.13"/><path d="M540.7 81.1L540.7 38.2L565.9 46.4" opacity="0.13"/><path d="M631.8 67.8L672.6 81.1L606.6 102.5" opacity="0.13"/><path d="M591.1 81.1L631.8 67.8L565.9 46.4" opacity="0.13"/><path d="M631.8 67.8L591.1 81.1L606.6 102.5" opacity="0.13"/><path d="M565.9 115.7L591.1 81.1L606.6 102.5" opacity="0.13"/><path d="M591.1 81.1L565.9 115.7L565.9 46.4" opacity="0.13"/><path d="M565.9 115.7L606.6 129L606.6 102.5" opacity="0.13"/><path d="M606.6 129L565.9 115.7L606.6 171.8" opacity="0.13"/><path d="M647.4 115.7L672.6 81.1L606.6 102.5" opacity="0.13"/><path d="M606.6 129L647.4 115.7L606.6 171.8" opacity="0.13"/><path d="M647.4 115.7L606.6 129L606.6 102.5" opacity="0.13"/><path d="M540.7 331.8L500 318.6L565.9 297.2" opacity="0.13"/><path d="M581.5 318.6L540.7 331.8L606.6 353.2" opacity="0.13"/><path d="M540.7 331.8L581.5 318.6L565.9 297.2" opacity="0.13"/><path d="M525.2 241.1L500 206.4L500 275.7" opacity="0.13"/><path d="M525.2 283.9L525.2 241.1L565.9 297.2" opacity="0.13"/><path d="M525.2 241.1L525.2 283.9L500 275.7" opacity="0.13"/><path d="M500 318.6L525.2 283.9L500 275.7" opacity="0.13"/><path d="M525.2 283.9L500 318.6L565.9 297.2" opacity="0.13"/><path d="M540.7 443.9L565.9 409.3L500 430.7" opacity="0.13"/><path d="M500 457.2L540.7 443.9L500 500" opacity="0.13"/><path d="M540.7 443.9L500 457.2L500 430.7" opacity="0.13"/><path d="M500 361.4L500 318.6L540.7 374.6" opacity="0.13"/><path d="M525.2 396L500 361.4L500 430.7" opacity="0.13"/><path d="M500 361.4L525.2 396L540.7 374.6" opacity="0.13"/><path d="M565.9 409.3L525.2 396L540.7 374.6" opacity="0.13"/><path d="M525.2 396L565.9 409.3L500 430.7" opacity="0.13"/><path d="M565.9 409.3L565.9 366.5L540.7 374.6" opacity="0.13"/><path d="M565.9 366.5L565.9 409.3L606.6 353.2" opacity="0.13"/><path d="M540.7 331.8L500 318.6L540.7 374.6" opacity="0.13"/><path d="M565.9 366.5L540.7 331.8L606.6 353.2" opacity="0.13"/><path d="M540.7 331.8L565.9 366.5L540.7 374.6" opacity="0.13"/><path d="M672.6 193.2L713.3 206.4L672.6 150.4" opacity="0.13"/><path d="M647.4 158.5L672.6 193.2L606.6 171.8" opacity="0.13"/><path d="M672.6 193.2L647.4 158.5L672.6 150.4" opacity="0.13"/><path d="M738.5 129L779.2 115.7L738.5 171.8" opacity="0.13"/><path d="M713.3 163.6L738.5 129L672.6 150.4" opacity="0.13"/><path d="M738.5 129L713.3 163.6L738.5 171.8" opacity="0.13"/><path d="M713.3 206.4L713.3 163.6L738.5 171.8" opacity="0.13"/><path d="M713.3 163.6L713.3 206.4L672.6 150.4" opacity="0.13"/><path d="M606.6 283.9L606.6 241.1L647.4 297.2" opacity="0.13"/><path d="M631.8 318.6L606.6 283.9L606.6 353.2" opacity="0.13"/><path d="M606.6 283.9L631.8 318.6L647.4 297.2" opacity="0.13"/><path d="M688.1 241.1L713.3 206.4L647.4 227.8" opacity="0.13"/><path d="M647.4 254.3L688.1 241.1L647.4 297.2" opacity="0.13"/><path d="M688.1 241.1L647.4 254.3L647.4 227.8" opacity="0.13"/><path d="M606.6 241.1L647.4 254.3L647.4 227.8" opacity="0.13"/><path d="M647.4 254.3L606.6 241.1L647.4 297.2" opacity="0.13"/><path d="M606.6 241.1L631.8 206.4L647.4 227.8" opacity="0.13"/><path d="M631.8 206.4L606.6 241.1L606.6 171.8" opacity="0.13"/><path d="M672.6 193.2L713.3 206.4L647.4 227.8" opacity="0.13"/><path d="M631.8 206.4L672.6 193.2L606.6 171.8" opacity="0.13"/><path d="M672.6 193.2L631.8 206.4L647.4 227.8" opacity="0.13"/><path d="M606.6 241.1L581.5 206.4L565.9 227.8" opacity="0.13"/><path d="M581.5 206.4L606.6 241.1L606.6 171.8" opacity="0.13"/><path d="M540.7 193.2L500 206.4L565.9 227.8" opacity="0.13"/><path d="M581.5 206.4L540.7 193.2L606.6 171.8" opacity="0.13"/><path d="M540.7 193.2L581.5 206.4L565.9 227.8" opacity="0.13"/><path d="M606.6 283.9L606.6 241.1L565.9 297.2" opacity="0.13"/><path d="M581.5 318.6L606.6 283.9L606.6 353.2" opacity="0.13"/><path d="M606.6 283.9L581.5 318.6L565.9 297.2" opacity="0.13"/><path d="M525.2 241.1L500 206.4L565.9 227.8" opacity="0.13"/><path d="M565.9 254.3L525.2 241.1L565.9 297.2" opacity="0.13"/><path d="M525.2 241.1L565.9 254.3L565.9 227.8" opacity="0.13"/><path d="M606.6 241.1L565.9 254.3L565.9 227.8" opacity="0.13"/><path d="M565.9 254.3L606.6 241.1L565.9 297.2" opacity="0.13"/><path d="M845.1 318.6L804.4 331.8L819.9 353.2" opacity="0.13"/><path d="M804.4 331.8L845.1 318.6L779.2 297.2" opacity="0.13"/><path d="M779.2 366.5L779.2 409.3L819.9 353.2" opacity="0.13"/><path d="M804.4 331.8L779.2 366.5L779.2 297.2" opacity="0.13"/><path d="M779.2 366.5L804.4 331.8L819.9 353.2" opacity="0.13"/><path d="M885.8 331.8L845.1 318.6L885.8 374.6" opacity="0.13"/><path d="M911 366.5L885.8 331.8L951.8 353.2" opacity="0.13"/><path d="M885.8 331.8L911 366.5L885.8 374.6" opacity="0.13"/><path d="M819.9 396L779.2 409.3L819.9 353.2" opacity="0.13"/><path d="M845.1 361.4L819.9 396L885.8 374.6" opacity="0.13"/><path d="M819.9 396L845.1 361.4L819.9 353.2" opacity="0.13"/><path d="M845.1 318.6L845.1 361.4L819.9 353.2" opacity="0.13"/><path d="M845.1 361.4L845.1 318.6L885.8 374.6" opacity="0.13"/><path d="M819.9 241.1L845.1 206.4L779.2 227.8" opacity="0.13"/><path d="M779.2 254.3L819.9 241.1L779.2 297.2" opacity="0.13"/><path d="M819.9 241.1L779.2 254.3L779.2 227.8" opacity="0.13"/><path d="M779.2 158.5L779.2 115.7L819.9 171.8" opacity="0.13"/><path d="M804.4 193.2L779.2 158.5L779.2 227.8" opacity="0.13"/><path d="M779.2 158.5L804.4 193.2L819.9 171.8" opacity="0.13"/><path d="M845.1 206.4L804.4 193.2L819.9 171.8" opacity="0.13"/><path d="M804.4 193.2L845.1 206.4L779.2 227.8" opacity="0.13"/><path d="M885.8 331.8L845.1 318.6L911 297.2" opacity="0.13"/><path d="M926.6 318.6L885.8 331.8L951.8 353.2" opacity="0.13"/><path d="M885.8 331.8L926.6 318.6L911 297.2" opacity="0.13"/><path d="M870.3 241.1L845.1 206.4L845.1 275.7" opacity="0.13"/><path d="M870.3 283.9L870.3 241.1L911 297.2" opacity="0.13"/><path d="M870.3 241.1L870.3 283.9L845.1 275.7" opacity="0.13"/><path d="M845.1 318.6L870.3 283.9L845.1 275.7" opacity="0.13"/><path d="M870.3 283.9L845.1 318.6L911 297.2" opacity="0.13"/><path d="M845.1 318.6L819.9 283.9L845.1 275.7" opacity="0.13"/><path d="M819.9 283.9L845.1 318.6L779.2 297.2" opacity="0.13"/><path d="M819.9 241.1L845.1 206.4L845.1 275.7" opacity="0.13"/><path d="M819.9 283.9L819.9 241.1L779.2 297.2" opacity="0.13"/><path d="M819.9 241.1L819.9 283.9L845.1 275.7" opacity="0.13"/><path d="M647.4 409.3L672.6 443.9L672.6 374.6" opacity="0.13"/><path d="M647.4 366.5L647.4 409.3L606.6 353.2" opacity="0.13"/><path d="M647.4 409.3L647.4 366.5L672.6 374.6" opacity="0.13"/><path d="M738.5 396L779.2 409.3L713.3 430.7" opacity="0.13"/><path d="M697.7 409.3L738.5 396L672.6 374.6" opacity="0.13"/><path d="M738.5 396L697.7 409.3L713.3 430.7" opacity="0.13"/><path d="M672.6 443.9L697.7 409.3L713.3 430.7" opacity="0.13"/><path d="M697.7 409.3L672.6 443.9L672.6 374.6" opacity="0.13"/><path d="M540.7 443.9L565.9 409.3L565.9 478.6" opacity="0.13"/><path d="M540.7 486.8L540.7 443.9L500 500" opacity="0.13"/><path d="M540.7 443.9L540.7 486.8L565.9 478.6" opacity="0.13"/><path d="M631.8 457.2L672.6 443.9L606.6 422.5" opacity="0.13"/><path d="M591.1 443.9L631.8 457.2L565.9 478.6" opacity="0.13"/><path d="M631.8 457.2L591.1 443.9L606.6 422.5" opacity="0.13"/><path d="M565.9 409.3L591.1 443.9L606.6 422.5" opacity="0.13"/><path d="M591.1 443.9L565.9 409.3L565.9 478.6" opacity="0.13"/><path d="M565.9 409.3L606.6 396L606.6 422.5" opacity="0.13"/><path d="M606.6 396L565.9 409.3L606.6 353.2" opacity="0.13"/><path d="M647.4 409.3L672.6 443.9L606.6 422.5" opacity="0.13"/><path d="M606.6 396L647.4 409.3L606.6 353.2" opacity="0.13"/><path d="M647.4 409.3L606.6 396L606.6 422.5" opacity="0.13"/><path d="M738.5 241.1L713.3 206.4L779.2 227.8" opacity="0.13"/><path d="M779.2 254.3L738.5 241.1L779.2 297.2" opacity="0.13"/><path d="M738.5 241.1L779.2 254.3L779.2 227.8" opacity="0.13"/><path d="M779.2 158.5L779.2 115.7L738.5 171.8" opacity="0.13"/><path d="M754 193.2L779.2 158.5L779.2 227.8" opacity="0.13"/><path d="M779.2 158.5L754 193.2L738.5 171.8" opacity="0.13"/><path d="M713.3 206.4L754 193.2L738.5 171.8" opacity="0.13"/><path d="M754 193.2L713.3 206.4L779.2 227.8" opacity="0.13"/><path d="M672.6 331.8L713.3 318.6L647.4 297.2" opacity="0.13"/><path d="M631.8 318.6L672.6 331.8L606.6 353.2" opacity="0.13"/><path d="M672.6 331.8L631.8 318.6L647.4 297.2" opacity="0.13"/><path d="M688.1 241.1L713.3 206.4L713.3 275.7" opacity="0.13"/><path d="M688.1 283.9L688.1 241.1L647.4 297.2" opacity="0.13"/><path d="M688.1 241.1L688.1 283.9L713.3 275.7" opacity="0.13"/><path d="M713.3 318.6L688.1 283.9L713.3 275.7" opacity="0.13"/><path d="M688.1 283.9L713.3 318.6L647.4 297.2" opacity="0.13"/><path d="M713.3 318.6L738.5 283.9L713.3 275.7" opacity="0.13"/><path d="M738.5 283.9L713.3 318.6L779.2 297.2" opacity="0.13"/><path d="M738.5 241.1L713.3 206.4L713.3 275.7" opacity="0.13"/><path d="M738.5 283.9L738.5 241.1L779.2 297.2" opacity="0.13"/><path d="M738.5 241.1L738.5 283.9L713.3 275.7" opacity="0.13"/><path d="M713.3 318.6L754 331.8L738.5 353.2" opacity="0.13"/><path d="M754 331.8L713.3 318.6L779.2 297.2" opacity="0.13"/><path d="M779.2 366.5L779.2 409.3L738.5 353.2" opacity="0.13"/><path d="M754 331.8L779.2 366.5L779.2 297.2" opacity="0.13"/><path d="M779.2 366.5L754 331.8L738.5 353.2" opacity="0.13"/><path d="M672.6 331.8L713.3 318.6L672.6 374.6" opacity="0.13"/><path d="M647.4 366.5L672.6 331.8L606.6 353.2" opacity="0.13"/><path d="M672.6 331.8L647.4 366.5L672.6 374.6" opacity="0.13"/><path d="M738.5 396L779.2 409.3L738.5 353.2" opacity="0.13"/><path d="M713.3 361.4L738.5 396L672.6 374.6" opacity="0.13"/><path d="M738.5 396L713.3 361.4L738.5 353.2" opacity="0.13"/><path d="M713.3 318.6L713.3 361.4L738.5 353.2" opacity="0.13"/><path d="M713.3 361.4L713.3 318.6L672.6 374.6" opacity="0.13"/><path d="M885.8 443.9L845.1 457.2L845.1 430.7" opacity="0.13"/><path d="M845.1 457.2L885.8 443.9L845.1 500" opacity="0.13"/><path d="M804.4 443.9L779.2 409.3L845.1 430.7" opacity="0.13"/><path d="M845.1 457.2L804.4 443.9L845.1 500" opacity="0.13"/><path d="M804.4 443.9L845.1 457.2L845.1 430.7" opacity="0.13"/><path d="M911 409.3L885.8 443.9L885.8 374.6" opacity="0.13"/><path d="M911 366.5L911 409.3L951.8 353.2" opacity="0.13"/><path d="M911 409.3L911 366.5L885.8 374.6" opacity="0.13"/><path d="M819.9 396L779.2 409.3L845.1 430.7" opacity="0.13"/><path d="M860.7 409.3L819.9 396L885.8 374.6" opacity="0.13"/><path d="M819.9 396L860.7 409.3L845.1 430.7" opacity="0.13"/><path d="M885.8 443.9L860.7 409.3L845.1 430.7" opacity="0.13"/><path d="M860.7 409.3L885.8 443.9L885.8 374.6" opacity="0.13"/><path d="M911 521.4L951.8 534.7L885.8 556.1" opacity="0.13"/><path d="M870.3 534.7L911 521.4L845.1 500" opacity="0.13"/><path d="M911 521.4L870.3 534.7L885.8 556.1" opacity="0.13"/><path d="M926.6 612.1L951.8 646.8L951.8 577.5" opacity="0.13"/><path d="M926.6 569.3L926.6 612.1L885.8 556.1" opacity="0.13"/><path d="M926.6 612.1L926.6 569.3L951.8 577.5" opacity="0.13"/><path d="M951.8 534.7L926.6 569.3L951.8 577.5" opacity="0.13"/><path d="M926.6 569.3L951.8 534.7L885.8 556.1" opacity="0.13"/><path d="M911 409.3L885.8 443.9L951.8 422.5" opacity="0.13"/><path d="M951.8 396L911 409.3L951.8 353.2" opacity="0.13"/><path d="M911 409.3L951.8 396L951.8 422.5" opacity="0.13"/><path d="M951.8 491.8L951.8 534.7L911 478.6" opacity="0.13"/><path d="M926.6 457.2L951.8 491.8L951.8 422.5" opacity="0.13"/><path d="M951.8 491.8L926.6 457.2L911 478.6" opacity="0.13"/><path d="M885.8 443.9L926.6 457.2L911 478.6" opacity="0.13"/><path d="M926.6 457.2L885.8 443.9L951.8 422.5" opacity="0.13"/><path d="M885.8 443.9L885.8 486.8L911 478.6" opacity="0.13"/><path d="M885.8 486.8L885.8 443.9L845.1 500" opacity="0.13"/><path d="M911 521.4L951.8 534.7L911 478.6" opacity="0.13"/><path d="M885.8 486.8L911 521.4L845.1 500" opacity="0.13"/><path d="M911 521.4L885.8 486.8L911 478.6" opacity="0.13"/><path d="M672.6 486.8L672.6 443.9L713.3 500" opacity="0.13"/><path d="M697.7 521.4L672.6 486.8L672.6 556.1" opacity="0.13"/><path d="M672.6 486.8L697.7 521.4L713.3 500" opacity="0.13"/><path d="M754 443.9L779.2 409.3L713.3 430.7" opacity="0.13"/><path d="M713.3 457.2L754 443.9L713.3 500" opacity="0.13"/><path d="M754 443.9L713.3 457.2L713.3 430.7" opacity="0.13"/><path d="M672.6 443.9L713.3 457.2L713.3 430.7" opacity="0.13"/><path d="M713.3 457.2L672.6 443.9L713.3 500" opacity="0.13"/><path d="M565.9 521.4L606.6 534.7L565.9 478.6" opacity="0.13"/><path d="M540.7 486.8L565.9 521.4L500 500" opacity="0.13"/><path d="M565.9 521.4L540.7 486.8L565.9 478.6" opacity="0.13"/><path d="M631.8 457.2L672.6 443.9L631.8 500" opacity="0.13"/><path d="M606.6 491.8L631.8 457.2L565.9 478.6" opacity="0.13"/><path d="M631.8 457.2L606.6 491.8L631.8 500" opacity="0.13"/><path d="M606.6 534.7L606.6 491.8L631.8 500" opacity="0.13"/><path d="M606.6 491.8L606.6 534.7L565.9 478.6" opacity="0.13"/><path d="M606.6 534.7L647.4 521.4L631.8 500" opacity="0.13"/><path d="M647.4 521.4L606.6 534.7L672.6 556.1" opacity="0.13"/><path d="M672.6 486.8L672.6 443.9L631.8 500" opacity="0.13"/><path d="M647.4 521.4L672.6 486.8L672.6 556.1" opacity="0.13"/><path d="M672.6 486.8L647.4 521.4L631.8 500" opacity="0.13"/><path d="M845.1 569.3L845.1 612.1L885.8 556.1" opacity="0.13"/><path d="M870.3 534.7L845.1 569.3L845.1 500" opacity="0.13"/><path d="M845.1 569.3L870.3 534.7L885.8 556.1" opacity="0.13"/><path d="M926.6 612.1L951.8 646.8L885.8 625.4" opacity="0.13"/><path d="M885.8 598.9L926.6 612.1L885.8 556.1" opacity="0.13"/><path d="M926.6 612.1L885.8 598.9L885.8 625.4" opacity="0.13"/><path d="M845.1 612.1L885.8 598.9L885.8 625.4" opacity="0.13"/><path d="M885.8 598.9L845.1 612.1L885.8 556.1" opacity="0.13"/><path d="M738.5 534.7L779.2 521.4L738.5 577.5" opacity="0.13"/><path d="M713.3 569.3L738.5 534.7L672.6 556.1" opacity="0.13"/><path d="M738.5 534.7L713.3 569.3L738.5 577.5" opacity="0.13"/><path d="M804.4 598.9L845.1 612.1L804.4 556.1" opacity="0.13"/><path d="M779.2 564.2L804.4 598.9L738.5 577.5" opacity="0.13"/><path d="M804.4 598.9L779.2 564.2L804.4 556.1" opacity="0.13"/><path d="M779.2 521.4L779.2 564.2L804.4 556.1" opacity="0.13"/><path d="M779.2 564.2L779.2 521.4L738.5 577.5" opacity="0.13"/><path d="M779.2 521.4L819.9 534.7L804.4 556.1" opacity="0.13"/><path d="M819.9 534.7L779.2 521.4L845.1 500" opacity="0.13"/><path d="M845.1 569.3L845.1 612.1L804.4 556.1" opacity="0.13"/><path d="M819.9 534.7L845.1 569.3L845.1 500" opacity="0.13"/><path d="M845.1 569.3L819.9 534.7L804.4 556.1" opacity="0.13"/><path d="M779.2 521.4L804.4 486.8L779.2 478.6" opacity="0.13"/><path d="M804.4 486.8L779.2 521.4L845.1 500" opacity="0.13"/><path d="M804.4 443.9L779.2 409.3L779.2 478.6" opacity="0.13"/><path d="M804.4 486.8L804.4 443.9L845.1 500" opacity="0.13"/><path d="M804.4 443.9L804.4 486.8L779.2 478.6" opacity="0.13"/><path d="M738.5 534.7L779.2 521.4L713.3 500" opacity="0.13"/><path d="M697.7 521.4L738.5 534.7L672.6 556.1" opacity="0.13"/><path d="M738.5 534.7L697.7 521.4L713.3 500" opacity="0.13"/><path d="M754 443.9L779.2 409.3L779.2 478.6" opacity="0.13"/><path d="M754 486.8L754 443.9L713.3 500" opacity="0.13"/><path d="M754 443.9L754 486.8L779.2 478.6" opacity="0.13"/><path d="M779.2 521.4L754 486.8L779.2 478.6" opacity="0.13"/><path d="M754 486.8L779.2 521.4L713.3 500" opacity="0.13"/></g></svg>