<svg xmlns="http://www.w3.org/2000/svg" viewBox="0 0 1000 1000" preserveAspectRatio="xMidYMid slice" fill="none" stroke-linecap="round" stroke-linejoin="round"><g stroke="#0f3d2e" stroke-width="1"><path d="M499.9 500L499.9 500L499.9 500L499.9 500L499.9 500L499.9 500L499.9 500L499.9 499.9L499.9 499.9L499.9 499.9L499.9 499.9L499.9 499.9L499.9 499.9L499.9 499.9L499.9 499.9L499.9 499.9L499.9 499.9L499.9 499.9L499.9 499.9L499.9 499.9L499.9 499.9L499.9 499.8L499.9 499.8L499.9 499.8L499.9 499.8L499.9 499.8L500 499.8L500 499.8L500 499.8L500 499.8L500 499.8L500 499.8L500 499.8L500 499.8L500 499.8L500 499.8L500 499.8L500.1 499.8L500.1 499.8L500.1 499.8L500.1 499.8L500.1 499.8L500.1 499.8L500.1 499.8L500.1 499.8L500.1 499.8L500.1 499.8L500.2 499.8L500.2 499.8L500.2 499.9L500.2 499.9L500.2 499.9L500.2 499.9L500.2 499.9L500.2 499.9L500.2 499.9L500.2 499.9L500.2 499.9L500.2 499.9L500.2 500L500.2 500L500.3 500L500.3 500L500.3 500L500.3 500L500.3 500L500.3 500L500.3 500.1L500.3 500.1L500.3 500.1L500.3 500.1L500.3 500.1L500.3 500.1L500.2 500.1L500.2 500.2L500.2 500.2L500.2 500.2L500.2 500.2L500.2 500.2L500.2 500.2L500.2 500.2L500.2 500.2L500.2 500.3L500.2 500.3L500.2 500.3L500.1 500.3L500.1 500.3L500.1 500.3L500.1 500.3L500.1 500.3L500.1 500.3L500.1 500.3L500 500.3L500 500.3L500 500.3L500 500.3L500 500.3L500 500.3L499.9 500.3L499.9 500.3L499.9 500.3L499.9 500.3L499.9 500.3L499.8 500.3L499.8 500.3L499.8 500.3L499.8 500.3L499.8 500.3L499.8 500.3L499.7 500.3L499.7 500.3L499.7 500.3L499.7 500.3L499.7 500.2L499.7 500.2L499.6 500.2L499.6 500.2L499.6 500.2L499.6 500.2L499.6 500.1L499.6 500.1L499.6 500.1L499.6 500.1L499.6 500.1L499.6 500L499.5 500L499.5 500L499.5 500L499.5 499.9L499.5 499.9L499.5 499.9L499.5 499.9L499.5 499.9L499.5 499.8L499.6 499.8L499.6 499.8L499.6 499.8L499.6 499.7L499.6 499.7L499.6 499.7L499.6 499.7L499.6 499.6L499.6 499.6L499.7 499.6L499.7 499.6L499.7 499.6L499.7 499.5L499.7 499.5L499.8 499.5L499.8 499.5L499.8 499.5L499.8 499.5L499.9 499.4L499.9 499.4L499.9 499.4L499.9 499.4L500 499.4L500 499.4L500 499.4L500.1 499.4L500.1 499.4L500.1 499.4L500.2 499.4L500.2 499.4L500.2 499.4L500.2 499.4L500.3 499.4L500.3 499.4L500.3 499.4L500.4 499.4L500.4 499.5L500.4 499.5L500.5 499.5L500.5 499.5L500.5 499.5L500.6 499.6L500.6 499.6L500.6 499.6L500.6 499.6L500.7 499.7L500.7 499.7L500.7 499.7L500.7 499.8L500.7 499.8L500.7 499.8L500.8 499.9L500.8 499.9L500.8 499.9L500.8 500L500.8 500L500.8 500.1L500.8 500.1L500.8 500.1L500.8 500.2L500.8 500.2L500.8 500.3L500.8 500.3L500.8 500.4L500.8 500.4L500.8 500.4L500.7 500.5L500.7 500.5L500.7 500.6L500.7 500.6L500.7 500.6L500.6 500.7L500.6 500.7L500.6 500.8L500.5 500.8L500.5 500.8L500.5 500.9L500.4 500.9L500.4 500.9L500.3 500.9L500.3 501L500.2 501L500.2 501L500.1 501L500.1 501L500 501.1L500 501.1L499.9 501.1L499.9 501.1L499.8 501.1L499.8 501.1L499.7 501.1L499.7 501.1L499.6 501.1L499.6 501L499.5 501L499.4 501L499.4 501L499.3 501L499.3 500.9L499.2 500.9L499.2 500.9L499.1 500.9L499.1 500.8L499 500.8L499 500.7L498.9 500.7L498.9 500.6L498.8 500.6L498.8 500.5L498.8 500.5L498.7 500.4L498.7 500.4L498.7 500.3L498.7 500.2L498.6 500.2L498.6 500.1L498.6 500L498.6 500L498.6 499.9L498.6 499.8L498.6 499.7L498.6 499.7L498.6 499.6L498.6 499.5L498.6 499.4L498.6 499.4L498.6 499.3L498.7 499.2L498.7 499.1L498.7 499.1L498.8 499L498.8 498.9L498.9 498.9L498.9 498.8L499 498.7L499 498.7L499.1 498.6L499.1 498.5L499.2 498.5L499.3 498.4L499.3 498.4L499.4 498.3L499.5 498.3L499.6 498.3L499.7 498.2L499.8 498.2L499.8 498.2L499.9 498.1L500 498.1L500.1 498.1L500.2 498.1L500.3 498.1L500.4 498.1L500.5 498.1L500.6 498.1L500.7 498.1L500.8 498.2L500.9 498.2L501 498.2L501.1 498.3L501.2 498.3L501.3 498.3L501.4 498.4L501.5 498.5L501.6 498.5L501.7 498.6L501.7 498.7L501.8 498.7L501.9 498.8L502 498.9L502 499L502.1 499.1L502.2 499.2L502.2 499.3L502.3 499.4L502.3 499.5L502.4 499.6L502.4 499.7L502.4 499.9L502.5 500L502.5 500.1L502.5 500.2L502.5 500.4L502.5 500.5L502.5 500.6L502.5 500.8L502.5 500.9L502.5 501L502.4 501.1L502.4 501.3L502.3 501.4L502.3 501.5L502.2 501.7L502.2 501.8L502.1 501.9L502 502L501.9 502.2L501.8 502.3L501.7 502.4L501.6 502.5L501.5 502.6L501.4 502.7L501.3 502.8L501.1 502.9L501 502.9L500.9 503L500.7 503.1L500.6 503.1L500.4 503.2L500.3 503.2L500.1 503.3L499.9 503.3L499.8 503.3L499.6 503.3L499.4 503.3L499.2 503.3L499.1 503.3L498.9 503.3L498.7 503.3L498.5 503.2L498.4 503.2L498.2 503.1L498 503.1L497.9 503L497.7 502.9L497.5 502.8L497.4 502.7L497.2 502.6L497.1 502.5L496.9 502.3L496.8 502.2L496.6 502.1L496.5 501.9L496.4 501.7L496.3 501.6L496.2 501.4L496 501.2L496 501L495.9 500.8L495.8 500.6L495.7 500.4L495.7 500.2L495.6 500L495.6 499.8L495.6 499.6L495.6 499.3L495.6 499.1L495.6 498.9L495.6 498.6L495.6 498.4L495.7 498.2L495.7 497.9L495.8 497.7L495.9 497.5L496 497.3L496.1 497L496.2 496.8L496.3 496.6L496.5 496.4L496.6 496.2L496.8 496L497 495.8L497.2 495.6L497.4 495.4L497.6 495.3L497.8 495.1L498 495L498.3 494.8L498.5 494.7L498.8 494.6L499 494.5L499.3 494.4L499.6 494.3L499.9 494.2L500.2 494.2L500.5 494.1L500.8 494.1L501.1 494.1L501.4 494.1L501.7 494.1L502 494.2L502.3 494.2L502.6 494.3L502.9 494.4L503.2 494.5L503.5 494.6L503.8 494.8L504.1 494.9L504.4 495.1L504.7 495.3L505 495.5L505.2 495.7L505.5 495.9L505.7 496.2L506 496.4L506.2 496.7L506.4 497L506.6 497.3L506.8 497.6L507 497.9L507.1 498.2L507.3 498.6L507.4 498.9L507.5 499.3L507.6 499.7L507.7 500.1L507.7 500.5L507.8 500.9L507.8 501.3L507.8 501.7L507.8 502.1L507.7 502.5L507.7 502.9L507.6 503.3L507.5 503.7L507.4 504.1L507.2 504.5L507 504.9L506.8 505.3L506.6 505.7L506.4 506.1L506.1 506.4L505.9 506.8L505.6 507.1L505.2 507.5L504.9 507.8L504.6 508.1L504.2 508.4L503.8 508.7L503.4 508.9L503 509.2L502.5 509.4L502.1 509.6L501.6 509.8L501.1 509.9L500.6 510.1L500.1 510.2L499.6 510.3L499.1 510.3L498.6 510.3L498 510.4L497.5 510.3L497 510.3L496.4 510.2L495.9 510.1L495.3 510L494.8 509.8L494.2 509.6L493.7 509.4L493.2 509.2L492.7 508.9L492.2 508.6L491.7 508.3L491.2 507.9L490.7 507.5L490.3 507.1L489.8 506.7L489.4 506.2L489 505.8L488.6 505.2L488.3 504.7L488 504.2L487.7 503.6L487.4 503L487.1 502.4L486.9 501.7L486.7 501.1L486.6 500.4L486.4 499.8L486.3 499.1L486.3 498.4L486.3 497.7L486.3 497L486.3 496.3L486.4 495.5L486.5 494.8L486.7 494.1L486.9 493.4L487.1 492.7L487.4 492L487.7 491.3L488 490.6L488.4 489.9L488.8 489.2L489.3 488.6L489.8 487.9L490.3 487.3L490.9 486.7L491.5 486.2L492.1 485.6L492.8 485.1L493.4 484.7L494.2 484.2L494.9 483.8L495.7 483.4L496.5 483.1L497.3 482.8L498.2 482.5L499 482.3L499.9 482.1L500.8 481.9L501.8 481.8L502.7 481.8L503.6 481.8L504.6 481.8L505.5 481.9L506.5 482L507.4 482.2L508.4 482.5L509.3 482.8L510.3 483.1L511.2 483.5L512.1 483.9L513 484.4L513.9 484.9L514.8 485.5L515.6 486.2L516.5 486.8L517.3 487.6L518 488.3L518.7 489.2L519.4 490L520.1 490.9L520.7 491.9L521.3 492.8L521.8 493.9L522.3 494.9L522.7 496L523.1 497.1L523.4 498.3L523.7 499.4L523.9 500.6L524.1 501.8L524.2 503.1L524.2 504.3L524.2 505.5L524.1 506.8L523.9 508.1L523.7 509.3L523.4 510.6L523.1 511.9L522.6 513.1L522.1 514.4L521.6 515.6L521 516.8L520.3 518L519.5 519.2L518.7 520.3L517.8 521.4L516.9 522.5L515.9 523.5L514.8 524.5L513.7 525.4L512.6 526.3L511.3 527.1L510 527.9L508.7 528.7L507.3 529.3L505.9 529.9L504.4 530.4L502.9 530.9L501.4 531.3L499.8 531.6L498.3 531.8L496.6 532L495 532.1L493.3 532.1L491.7 532L490 531.8L488.3 531.6L486.6 531.2L484.9 530.8L483.3 530.3L481.6 529.7L480 529L478.4 528.2L476.8 527.3L475.2 526.3L473.7 525.3L472.2 524.2L470.8 523L469.4 521.7L468.1 520.3L466.8 518.8L465.6 517.3L464.4 515.7L463.4 514L462.4 512.3L461.5 510.5L460.6 508.6L459.9 506.7L459.2 504.7L458.7 502.7L458.2 500.7L457.9 498.6L457.6 496.4L457.5 494.3L457.4 492.1L457.5 489.9L457.7 487.6L458 485.4L458.4 483.2L458.9 480.9L459.5 478.7L460.3 476.5L461.2 474.3L462.2 472.2L463.3 470.1L464.5 468L465.8 465.9L467.3 463.9L468.9 462L470.5 460.1L472.3 458.3L474.2 456.6L476.2 455L478.3 453.4L480.4 452L482.7 450.6L485.1 449.4L487.5 448.2L490 447.2L492.6 446.3L495.3 445.5L498 444.8L500.7 444.3L503.6 443.9L506.4 443.6L509.3 443.5L512.2 443.5L515.2 443.7L518.1 444L521.1 444.5L524 445.2L527 445.9L529.9 446.9L532.9 448L535.7 449.2L538.6 450.6L541.4 452.2L544.1 453.9L546.8 455.8L549.3 457.8L551.9 460L554.3 462.3L556.6 464.7L558.8 467.3L560.9 470L562.9 472.8L564.8 475.8L566.5 478.9L568.1 482.1L569.5 485.4L570.8 488.8L571.9 492.2L572.9 495.8L573.7 499.4" opacity="0.13"/><path d="M500.1 499.9L500.1 499.9L500.1 499.9L500.1 499.9L500.1 499.9L500.1 499.9L500.1 499.9L500.1 499.9L500.1 499.9L500.1 499.9L500.1 499.9L500.1 499.9L500.1 499.9L500.2 499.9L500.2 499.9L500.2 500L500.2 500L500.2 500L500.2 500L500.2 500L500.2 500L500.2 500L500.2 500L500.2 500L500.2 500L500.2 500L500.2 500L500.2 500.1L500.2 500.1L500.2 500.1L500.2 500.1L500.2 500.1L500.2 500.1L500.2 500.1L500.2 500.1L500.2 500.1L500.1 500.1L500.1 500.1L500.1 500.2L500.1 500.2L500.1 500.2L500.1 500.2L500.1 500.2L500.1 500.2L500.1 500.2L500.1 500.2L500.1 500.2L500.1 500.2L500 500.2L500 500.2L500 500.2L500 500.2L500 500.2L500 500.2L500 500.2L500 500.2L500 500.2L499.9 500.2L499.9 500.2L499.9 500.2L499.9 500.2L499.9 500.2L499.9 500.2L499.9 500.2L499.9 500.2L499.8 500.2L499.8 500.2L499.8 500.2L499.8 500.2L499.8 500.2L499.8 500.2L499.8 500.2L499.8 500.2L499.8 500.1L499.7 500.1L499.7 500.1L499.7 500.1L499.7 500.1L499.7 500.1L499.7 500.1L499.7 500.1L499.7 500L499.7 500L499.7 500L499.7 500L499.7 500L499.7 500L499.7 499.9L499.7 499.9L499.7 499.9L499.7 499.9L499.7 499.9L499.7 499.9L499.7 499.8L499.7 499.8L499.7 499.8L499.7 499.8L499.7 499.8L499.7 499.8L499.7 499.8L499.8 499.7L499.8 499.7L499.8 499.7L499.8 499.7L499.8 499.7L499.8 499.7L499.8 499.7L499.8 499.6L499.9 499.6L499.9 499.6L499.9 499.6L499.9 499.6L499.9 499.6L500 499.6L500 499.6L500 499.6L500 499.6L500 499.6L500.1 499.6L500.1 499.6L500.1 499.6L500.1 499.6L500.1 499.6L500.2 499.6L500.2 499.6L500.2 499.6L500.2 499.6L500.3 499.6L500.3 499.6L500.3 499.6L500.3 499.7L500.3 499.7L500.4 499.7L500.4 499.7L500.4 499.7L500.4 499.7L500.4 499.7L500.4 499.8L500.5 499.8L500.5 499.8L500.5 499.8L500.5 499.9L500.5 499.9L500.5 499.9L500.5 499.9L500.5 500L500.5 500L500.6 500L500.6 500L500.6 500.1L500.6 500.1L500.6 500.1L500.6 500.2L500.6 500.2L500.5 500.2L500.5 500.2L500.5 500.3L500.5 500.3L500.5 500.3L500.5 500.4L500.5 500.4L500.5 500.4L500.5 500.4L500.4 500.5L500.4 500.5L500.4 500.5L500.4 500.5L500.3 500.6L500.3 500.6L500.3 500.6L500.3 500.6L500.2 500.6L500.2 500.7L500.2 500.7L500.1 500.7L500.1 500.7L500.1 500.7L500 500.7L500 500.7L500 500.7L499.9 500.7L499.9 500.7L499.9 500.7L499.8 500.7L499.8 500.7L499.7 500.7L499.7 500.7L499.7 500.7L499.6 500.7L499.6 500.7L499.5 500.7L499.5 500.7L499.5 500.6L499.4 500.6L499.4 500.6L499.4 500.6L499.3 500.5L499.3 500.5L499.3 500.5L499.2 500.4L499.2 500.4L499.2 500.4L499.2 500.3L499.1 500.3L499.1 500.2L499.1 500.2L499.1 500.2L499.1 500.1L499 500.1L499 500L499 500L499 499.9L499 499.9L499 499.8L499 499.8L499 499.7L499 499.7L499 499.6L499.1 499.6L499.1 499.5L499.1 499.5L499.1 499.4L499.1 499.4L499.2 499.3L499.2 499.3L499.2 499.2L499.2 499.2L499.3 499.1L499.3 499.1L499.4 499L499.4 499L499.4 499L499.5 498.9L499.5 498.9L499.6 498.9L499.6 498.8L499.7 498.8L499.8 498.8L499.8 498.8L499.9 498.7L499.9 498.7L500 498.7L500.1 498.7L500.1 498.7L500.2 498.7L500.3 498.7L500.3 498.7L500.4 498.7L500.5 498.7L500.5 498.7L500.6 498.8L500.7 498.8L500.7 498.8L500.8 498.8L500.9 498.9L500.9 498.9L501 498.9L501.1 499L501.1 499L501.2 499.1L501.2 499.1L501.3 499.2L501.4 499.2L501.4 499.3L501.4 499.4L501.5 499.4L501.5 499.5L501.6 499.6L501.6 499.7L501.6 499.7L501.7 499.8L501.7 499.9L501.7 500L501.7 500.1L501.7 500.1L501.7 500.2L501.7 500.3L501.7 500.4L501.7 500.5L501.7 500.6L501.7 500.7L501.7 500.8L501.6 500.9L501.6 501L501.6 501L501.5 501.1L501.5 501.2L501.4 501.3L501.4 501.4L501.3 501.5L501.3 501.5L501.2 501.6L501.1 501.7L501 501.8L501 501.8L500.9 501.9L500.8 502L500.7 502L500.6 502.1L500.5 502.1L500.4 502.1L500.3 502.2L500.2 502.2L500.1 502.2L500 502.3L499.9 502.3L499.7 502.3L499.6 502.3L499.5 502.3L499.4 502.3L499.3 502.3L499.1 502.3L499 502.2L498.9 502.2L498.8 502.2L498.7 502.1L498.5 502.1L498.4 502L498.3 501.9L498.2 501.9L498.1 501.8L498 501.7L497.9 501.6L497.8 501.5L497.7 501.4L497.6 501.3L497.5 501.2L497.4 501.1L497.4 501L497.3 500.9L497.2 500.7L497.2 500.6L497.1 500.4L497.1 500.3L497 500.2L497 500L497 499.9L497 499.7L497 499.6L497 499.4L497 499.2L497 499.1L497 498.9L497 498.8L497.1 498.6L497.1 498.4L497.2 498.3L497.2 498.1L497.3 498L497.4 497.8L497.5 497.7L497.6 497.5L497.7 497.4L497.8 497.3L497.9 497.1L498.1 497L498.2 496.9L498.3 496.8L498.5 496.7L498.6 496.5L498.8 496.5L499 496.4L499.1 496.3L499.3 496.2L499.5 496.1L499.7 496.1L499.9 496L500.1 496L500.3 496L500.5 496L500.7 496L500.9 496L501.1 496L501.3 496L501.6 496L501.8 496.1L502 496.2L502.2 496.2L502.4 496.3L502.6 496.4L502.8 496.5L503 496.6L503.2 496.7L503.4 496.9L503.6 497L503.7 497.2L503.9 497.3L504.1 497.5L504.2 497.7L504.4 497.9L504.5 498.1L504.7 498.3L504.8 498.5L504.9 498.8L505 499L505.1 499.2L505.2 499.5L505.2 499.8L505.3 500L505.3 500.3L505.3 500.6L505.4 500.8L505.4 501.1L505.3 501.4L505.3 501.7L505.3 501.9L505.2 502.2L505.1 502.5L505.1 502.8L505 503.1L504.8 503.3L504.7 503.6L504.6 503.9L504.4 504.1L504.2 504.4L504 504.6L503.8 504.9L503.6 505.1L503.4 505.3L503.2 505.5L502.9 505.7L502.6 505.9L502.4 506.1L502.1 506.3L501.8 506.4L501.5 506.6L501.1 506.7L500.8 506.8L500.5 506.9L500.1 507L499.8 507L499.4 507.1L499.1 507.1L498.7 507.1L498.3 507.1L498 507.1L497.6 507L497.2 506.9L496.8 506.9L496.5 506.8L496.1 506.6L495.7 506.5L495.4 506.3L495 506.1L494.7 505.9L494.3 505.7L494 505.5L493.7 505.2L493.4 504.9L493.1 504.6L492.8 504.3L492.5 504L492.2 503.6L492 503.3L491.8 502.9L491.6 502.5L491.4 502.1L491.2 501.7L491 501.2L490.9 500.8L490.8 500.4L490.7 499.9L490.6 499.4L490.6 498.9L490.6 498.5L490.6 498L490.6 497.5L490.7 497L490.7 496.5L490.8 496L491 495.5L491.1 495L491.3 494.5L491.5 494.1L491.8 493.6L492 493.1L492.3 492.7L492.6 492.2L492.9 491.8L493.3 491.4L493.7 491L494.1 490.6L494.5 490.2L495 489.8L495.5 489.5L495.9 489.2L496.5 488.9L497 488.6L497.5 488.4L498.1 488.2L498.7 488L499.3 487.8L499.9 487.7L500.5 487.6L501.1 487.5L501.8 487.5L502.4 487.5L503.1 487.5L503.7 487.6L504.4 487.7L505 487.8L505.7 488L506.3 488.1L507 488.4L507.6 488.6L508.3 488.9L508.9 489.3L509.5 489.6L510.1 490L510.7 490.5L511.2 490.9L511.8 491.4L512.3 491.9L512.8 492.5L513.3 493.1L513.7 493.7L514.2 494.3L514.6 495L514.9 495.7L515.3 496.4L515.6 497.2L515.8 497.9L516 498.7L516.2 499.5L516.4 500.3L516.5 501.2L516.6 502L516.6 502.8L516.6 503.7L516.5 504.6L516.4 505.4L516.3 506.3L516.1 507.2L515.8 508L515.6 508.9L515.2 509.8L514.9 510.6L514.4 511.4L514 512.3L513.5 513.1L512.9 513.8L512.3 514.6L511.7 515.3L511 516L510.3 516.7L509.5 517.4L508.7 518L507.9 518.6L507 519.1L506.1 519.6L505.1 520.1L504.2 520.5L503.2 520.8L502.1 521.2L501.1 521.4L500 521.7L498.9 521.8L497.8 521.9L496.7 522L495.6 522L494.4 522L493.3 521.8L492.1 521.7L491 521.4L489.8 521.2L488.7 520.8L487.5 520.4L486.4 519.9L485.3 519.4L484.2 518.8L483.1 518.2L482.1 517.4L481.1 516.7L480.1 515.8L479.1 515L478.2 514L477.3 513L476.5 512L475.7 510.9L475 509.8L474.3 508.6L473.6 507.3L473.1 506.1L472.5 504.8L472.1 503.4L471.7 502L471.4 500.6L471.1 499.2L470.9 497.7L470.8 496.2L470.8 494.7L470.8 493.2L470.9 491.7L471.1 490.2L471.4 488.6L471.8 487.1L472.2 485.6L472.7 484.1L473.3 482.6L474 481.1L474.7 479.6L475.6 478.2L476.5 476.8L477.4 475.4L478.5 474.1L479.7 472.8L480.9 471.6L482.2 470.4L483.5 469.2L484.9 468.2L486.4 467.2L488 466.2L489.6 465.4L491.2 464.6L493 463.8L494.7 463.2L496.5 462.7L498.4 462.2L500.3 461.8L502.2 461.5L504.2 461.3L506.2 461.3L508.2 461.3L510.2 461.4L512.2 461.6L514.2 461.9L516.3 462.3L518.3 462.9L520.3 463.5L522.3 464.2L524.3 465.1L526.2 466L528.2 467.1L530 468.3L531.9 469.5L533.7 470.9L535.4 472.4L537.1 473.9L538.7 475.6L540.2 477.4L541.6 479.2L543 481.1L544.3 483.2L545.5 485.3L546.6 487.5L547.6 489.7L548.5 492L549.3 494.4L549.9 496.8L550.5 499.3L550.9 501.9L551.2 504.5L551.4 507.1L551.4 509.7L551.3 512.4L551.1 515.1L550.7 517.8L550.2 520.5L549.6 523.2L548.8 525.8L547.9 528.5L546.8 531.1L545.6 533.7L544.3 536.3L542.8 538.8L541.2 541.3L539.4 543.7L537.5 546L535.5 548.2L533.3 550.4L531 552.5L528.6 554.5L526.1 556.3L523.5 558.1L520.7 559.7L517.9 561.2L514.9 562.6L511.9 563.8L508.7 564.9L505.5 565.9L502.3 566.7L498.9 567.3L495.5 567.8L492.1 568.1L488.6 568.2L485 568.2L481.5 567.9L477.9 567.5L474.3 566.9L470.8 566.2L467.2 565.2L463.7 564.1" opacity="0.13"/><path d="M500.1 500.1L500.1 500.1L500.1 500.1L500.1 500.1L500 500.1L500 500.1L500 500.2L500 500.2L500 500.2L500 500.2L500 500.2L500 500.2L500 500.2L500 500.2L500 500.2L500 500.2L500 500.2L499.9 500.2L499.9 500.2L499.9 500.2L499.9 500.2L499.9 500.2L499.9 500.1L499.9 500.1L499.9 500.1L499.9 500.1L499.9 500.1L499.9 500.1L499.9 500.1L499.8 500.1L499.8 500.1L499.8 500.1L499.8 500.1L499.8 500.1L499.8 500.1L499.8 500.1L499.8 500.1L499.8 500L499.8 500L499.8 500L499.8 500L499.8 500L499.8 500L499.8 500L499.8 500L499.8 500L499.8 500L499.8 499.9L499.8 499.9L499.8 499.9L499.8 499.9L499.8 499.9L499.8 499.9L499.8 499.9L499.8 499.9L499.8 499.9L499.8 499.8L499.8 499.8L499.8 499.8L499.8 499.8L499.8 499.8L499.9 499.8L499.9 499.8L499.9 499.8L499.9 499.8L499.9 499.8L499.9 499.8L499.9 499.7L499.9 499.7L499.9 499.7L500 499.7L500 499.7L500 499.7L500 499.7L500 499.7L500 499.7L500 499.7L500.1 499.7L500.1 499.7L500.1 499.7L500.1 499.7L500.1 499.7L500.1 499.7L500.1 499.7L500.2 499.7L500.2 499.7L500.2 499.7L500.2 499.8L500.2 499.8L500.2 499.8L500.2 499.8L500.3 499.8L500.3 499.8L500.3 499.8L500.3 499.8L500.3 499.8L500.3 499.9L500.3 499.9L500.3 499.9L500.3 499.9L500.4 499.9L500.4 499.9L500.4 500L500.4 500L500.4 500L500.4 500L500.4 500L500.4 500L500.4 500.1L500.4 500.1L500.4 500.1L500.4 500.1L500.4 500.1L500.4 500.2L500.4 500.2L500.4 500.2L500.4 500.2L500.3 500.2L500.3 500.3L500.3 500.3L500.3 500.3L500.3 500.3L500.3 500.3L500.3 500.4L500.3 500.4L500.2 500.4L500.2 500.4L500.2 500.4L500.2 500.4L500.2 500.4L500.1 500.5L500.1 500.5L500.1 500.5L500.1 500.5L500.1 500.5L500 500.5L500 500.5L500 500.5L500 500.5L499.9 500.5L499.9 500.5L499.9 500.5L499.8 500.5L499.8 500.5L499.8 500.5L499.8 500.5L499.7 500.5L499.7 500.5L499.7 500.5L499.7 500.4L499.6 500.4L499.6 500.4L499.6 500.4L499.6 500.4L499.5 500.4L499.5 500.3L499.5 500.3L499.5 500.3L499.5 500.3L499.4 500.3L499.4 500.2L499.4 500.2L499.4 500.2L499.4 500.1L499.4 500.1L499.4 500.1L499.3 500.1L499.3 500L499.3 500L499.3 500L499.3 499.9L499.3 499.9L499.3 499.8L499.3 499.8L499.3 499.8L499.3 499.7L499.3 499.7L499.4 499.7L499.4 499.6L499.4 499.6L499.4 499.6L499.4 499.5L499.4 499.5L499.5 499.5L499.5 499.4L499.5 499.4L499.5 499.4L499.6 499.3L499.6 499.3L499.6 499.3L499.6 499.3L499.7 499.2L499.7 499.2L499.8 499.2L499.8 499.2L499.8 499.2L499.9 499.2L499.9 499.1L500 499.1L500 499.1L500 499.1L500.1 499.1L500.1 499.1L500.2 499.1L500.2 499.1L500.3 499.1L500.3 499.1L500.4 499.1L500.4 499.1L500.5 499.2L500.5 499.2L500.6 499.2L500.6 499.2L500.6 499.2L500.7 499.3L500.7 499.3L500.8 499.3L500.8 499.4L500.8 499.4L500.9 499.4L500.9 499.5L501 499.5L501 499.6L501 499.6L501 499.7L501.1 499.7L501.1 499.8L501.1 499.8L501.1 499.9L501.1 499.9L501.2 500L501.2 500L501.2 500.1L501.2 500.2L501.2 500.2L501.2 500.3L501.2 500.3L501.2 500.4L501.2 500.5L501.1 500.5L501.1 500.6L501.1 500.6L501.1 500.7L501.1 500.8L501 500.8L501 500.9L501 500.9L500.9 501L500.9 501.1L500.8 501.1L500.8 501.2L500.7 501.2L500.7 501.3L500.6 501.3L500.5 501.3L500.5 501.4L500.4 501.4L500.4 501.4L500.3 501.5L500.2 501.5L500.1 501.5L500.1 501.5L500 501.6L499.9 501.6L499.8 501.6L499.7 501.6L499.7 501.6L499.6 501.6L499.5 501.6L499.4 501.5L499.3 501.5L499.3 501.5L499.2 501.5L499.1 501.5L499 501.4L498.9 501.4L498.9 501.3L498.8 501.3L498.7 501.2L498.6 501.2L498.6 501.1L498.5 501.1L498.4 501L498.4 500.9L498.3 500.8L498.3 500.8L498.2 500.7L498.2 500.6L498.1 500.5L498.1 500.4L498 500.3L498 500.2L498 500.1L498 500L497.9 499.9L497.9 499.8L497.9 499.7L497.9 499.6L497.9 499.5L497.9 499.4L497.9 499.3L498 499.2L498 499.1L498 498.9L498.1 498.8L498.1 498.7L498.2 498.6L498.2 498.5L498.3 498.4L498.3 498.3L498.4 498.2L498.5 498.1L498.6 498L498.7 498L498.7 497.9L498.8 497.8L498.9 497.7L499.1 497.6L499.2 497.6L499.3 497.5L499.4 497.5L499.5 497.4L499.7 497.4L499.8 497.3L499.9 497.3L500.1 497.3L500.2 497.2L500.3 497.2L500.5 497.2L500.6 497.2L500.8 497.2L500.9 497.3L501 497.3L501.2 497.3L501.3 497.4L501.5 497.4L501.6 497.5L501.8 497.5L501.9 497.6L502 497.7L502.2 497.8L502.3 497.8L502.4 497.9L502.6 498L502.7 498.2L502.8 498.3L502.9 498.4L503 498.5L503.1 498.7L503.2 498.8L503.3 499L503.3 499.1L503.4 499.3L503.5 499.5L503.5 499.6L503.6 499.8L503.6 500L503.6 500.2L503.7 500.4L503.7 500.5L503.7 500.7L503.7 500.9L503.6 501.1L503.6 501.3L503.6 501.5L503.5 501.7L503.5 501.9L503.4 502.1L503.3 502.3L503.2 502.4L503.1 502.6L503 502.8L502.9 503L502.8 503.2L502.6 503.3L502.5 503.5L502.3 503.6L502.2 503.8L502 503.9L501.8 504.1L501.6 504.2L501.4 504.3L501.2 504.4L501 504.5L500.8 504.6L500.6 504.7L500.3 504.7L500.1 504.8L499.9 504.8L499.6 504.8L499.4 504.9L499.1 504.9L498.9 504.9L498.6 504.8L498.4 504.8L498.1 504.8L497.9 504.7L497.6 504.6L497.3 504.6L497.1 504.5L496.9 504.3L496.6 504.2L496.4 504.1L496.1 503.9L495.9 503.8L495.7 503.6L495.5 503.4L495.3 503.2L495.1 503L494.9 502.8L494.7 502.5L494.5 502.3L494.4 502L494.2 501.7L494.1 501.5L494 501.2L493.9 500.9L493.8 500.6L493.7 500.3L493.6 500L493.6 499.6L493.6 499.3L493.5 499L493.5 498.6L493.6 498.3L493.6 498L493.6 497.6L493.7 497.3L493.8 497L493.9 496.6L494 496.3L494.2 496L494.3 495.6L494.5 495.3L494.7 495L494.9 494.7L495.1 494.4L495.4 494.1L495.6 493.8L495.9 493.6L496.2 493.3L496.5 493.1L496.8 492.8L497.2 492.6L497.5 492.4L497.9 492.2L498.3 492.1L498.7 491.9L499.1 491.8L499.5 491.7L499.9 491.6L500.3 491.5L500.7 491.5L501.2 491.4L501.6 491.4L502.1 491.4L502.5 491.5L502.9 491.5L503.4 491.6L503.8 491.7L504.3 491.9L504.7 492L505.2 492.2L505.6 492.4L506 492.6L506.5 492.9L506.9 493.1L507.3 493.4L507.7 493.7L508 494.1L508.4 494.4L508.7 494.8L509.1 495.2L509.4 495.6L509.7 496.1L510 496.5L510.2 497L510.4 497.5L510.6 498L510.8 498.5L511 499.1L511.1 499.6L511.2 500.2L511.3 500.7L511.4 501.3L511.4 501.9L511.4 502.5L511.3 503.1L511.3 503.7L511.2 504.3L511 504.9L510.9 505.5L510.7 506L510.5 506.6L510.2 507.2L509.9 507.8L509.6 508.3L509.3 508.9L508.9 509.4L508.5 510L508.1 510.5L507.6 510.9L507.1 511.4L506.6 511.9L506 512.3L505.5 512.7L504.9 513.1L504.2 513.4L503.6 513.7L502.9 514L502.2 514.3L501.5 514.5L500.8 514.7L500.1 514.8L499.3 515L498.6 515L497.8 515.1L497 515.1L496.3 515.1L495.5 515L494.7 514.9L493.9 514.7L493.1 514.5L492.3 514.3L491.5 514L490.8 513.7L490 513.3L489.2 512.9L488.5 512.5L487.8 512L487.1 511.5L486.4 510.9L485.7 510.3L485.1 509.7L484.5 509L483.9 508.3L483.4 507.6L482.9 506.8L482.4 506L482 505.1L481.6 504.3L481.2 503.4L480.9 502.4L480.6 501.5L480.4 500.5L480.2 499.5L480.1 498.5L480 497.5L480 496.5L480 495.5L480.1 494.4L480.2 493.4L480.4 492.3L480.6 491.3L480.9 490.2L481.2 489.2L481.6 488.2L482.1 487.1L482.6 486.1L483.2 485.1L483.8 484.2L484.5 483.2L485.2 482.3L486 481.4L486.8 480.6L487.7 479.8L488.6 479L489.5 478.3L490.6 477.6L491.6 476.9L492.7 476.3L493.9 475.8L495 475.3L496.2 474.8L497.5 474.4L498.8 474.1L500.1 473.8L501.4 473.6L502.7 473.5L504.1 473.4L505.4 473.4L506.8 473.5L508.2 473.6L509.6 473.8L511 474.1L512.4 474.5L513.8 474.9L515.1 475.4L516.5 476L517.8 476.6L519.2 477.3L520.5 478.1L521.7 479L522.9 479.9L524.1 480.9L525.3 482L526.4 483.1L527.4 484.3L528.5 485.6L529.4 486.9L530.3 488.3L531.1 489.7L531.9 491.2L532.6 492.8L533.2 494.3L533.7 496L534.2 497.6L534.6 499.4L534.9 501.1L535.1 502.9L535.2 504.7L535.3 506.5L535.2 508.3L535.1 510.1L534.8 512L534.5 513.8L534.1 515.7L533.5 517.5L532.9 519.3L532.2 521.2L531.4 522.9L530.5 524.7L529.5 526.4L528.4 528.1L527.2 529.8L525.9 531.4L524.5 532.9L523 534.4L521.5 535.8L519.8 537.2L518.1 538.5L516.3 539.7L514.4 540.8L512.5 541.9L510.5 542.8L508.4 543.7L506.2 544.5L504.1 545.1L501.8 545.7L499.5 546.1L497.2 546.5L494.8 546.7L492.4 546.8L490 546.8L487.6 546.6L485.1 546.4L482.7 546L480.2 545.5L477.8 544.8L475.3 544L472.9 543.1L470.5 542.1L468.2 540.9L465.9 539.7L463.6 538.2L461.4 536.7L459.2 535.1L457.2 533.3L455.2 531.4L453.2 529.3L451.4 527.2L449.6 525L448 522.6L446.4 520.2L445 517.6L443.7 515L442.5 512.3L441.4 509.5L440.5 506.6L439.7 503.6L439 500.6L438.5 497.6L438.2 494.4L438 491.3L437.9 488.1L438 484.9L438.3 481.6L438.8 478.4L439.4 475.1L440.2 471.9L441.1 468.6L442.3 465.4L443.5 462.2L445 459.1L446.6 456L448.5 453L450.4 450L452.6 447.1L454.9 444.3L457.3 441.6L459.9 439L462.7 436.5" opacity="0.13"/></g></svg>