<svg xmlns="http://www.w3.org/2000/svg" viewBox="0 0 1000 1000" preserveAspectRatio="xMidYMid slice" fill="none" stroke-linecap="round" stroke-linejoin="round"><g stroke="#0f3d2e" stroke-width="1"><path d="M499.9 500L499.9 500L499.9 500L499.9 500L499.9 500L499.9 500L499.9 500L499.9 500L499.9 499.9L499.9 499.9L499.9 499.9L499.9 499.9L499.9 499.9L499.9 499.9L499.9 499.9L499.9 499.9L499.9 499.9L499.9 499.9L499.9 499.9L499.9 499.9L499.9 499.9L499.9 499.9L499.9 499.9L499.9 499.9L499.9 499.9L500 499.9L500 499.8L500 499.8L500 499.8L500 499.8L500 499.8L500 499.8L500 499.8L500 499.8L500 499.8L500 499.8L500 499.8L500 499.8L500.1 499.8L500.1 499.8L500.1 499.8L500.1 499.8L500.1 499.8L500.1 499.8L500.1 499.8L500.1 499.9L500.1 499.9L500.1 499.9L500.1 499.9L500.2 499.9L500.2 499.9L500.2 499.9L500.2 499.9L500.2 499.9L500.2 499.9L500.2 499.9L500.2 499.9L500.2 499.9L500.2 499.9L500.2 500L500.2 500L500.2 500L500.2 500L500.2 500L500.2 500L500.2 500L500.2 500L500.2 500L500.2 500.1L500.2 500.1L500.2 500.1L500.2 500.1L500.2 500.1L500.2 500.1L500.2 500.1L500.2 500.1L500.2 500.2L500.2 500.2L500.2 500.2L500.2 500.2L500.2 500.2L500.2 500.2L500.2 500.2L500.1 500.2L500.1 500.2L500.1 500.3L500.1 500.3L500.1 500.3L500.1 500.3L500.1 500.3L500.1 500.3L500 500.3L500 500.3L500 500.3L500 500.3L500 500.3L500 500.3L500 500.3L499.9 500.3L499.9 500.3L499.9 500.3L499.9 500.3L499.9 500.3L499.9 500.3L499.8 500.3L499.8 500.3L499.8 500.3L499.8 500.3L499.8 500.3L499.8 500.3L499.7 500.3L499.7 500.2L499.7 500.2L499.7 500.2L499.7 500.2L499.7 500.2L499.7 500.2L499.6 500.2L499.6 500.1L499.6 500.1L499.6 500.1L499.6 500.1L499.6 500.1L499.6 500.1L499.6 500L499.6 500L499.6 500L499.6 500L499.6 499.9L499.6 499.9L499.6 499.9L499.6 499.9L499.6 499.9L499.6 499.8L499.6 499.8L499.6 499.8L499.6 499.8L499.6 499.7L499.6 499.7L499.6 499.7L499.6 499.7L499.6 499.7L499.7 499.6L499.7 499.6L499.7 499.6L499.7 499.6L499.7 499.6L499.7 499.5L499.8 499.5L499.8 499.5L499.8 499.5L499.8 499.5L499.9 499.5L499.9 499.5L499.9 499.4L499.9 499.4L500 499.4L500 499.4L500 499.4L500.1 499.4L500.1 499.4L500.1 499.4L500.1 499.4L500.2 499.4L500.2 499.4L500.2 499.4L500.3 499.4L500.3 499.4L500.3 499.4L500.4 499.5L500.4 499.5L500.4 499.5L500.5 499.5L500.5 499.5L500.5 499.5L500.5 499.6L500.6 499.6L500.6 499.6L500.6 499.6L500.6 499.7L500.7 499.7L500.7 499.7L500.7 499.8L500.7 499.8L500.7 499.8L500.8 499.9L500.8 499.9L500.8 499.9L500.8 500L500.8 500L500.8 500.1L500.8 500.1L500.8 500.1L500.8 500.2L500.8 500.2L500.8 500.3L500.8 500.3L500.8 500.4L500.8 500.4L500.8 500.4L500.8 500.5L500.7 500.5L500.7 500.6L500.7 500.6L500.7 500.7L500.6 500.7L500.6 500.7L500.6 500.8L500.5 500.8L500.5 500.8L500.5 500.9L500.4 500.9L500.4 500.9L500.3 501L500.3 501L500.3 501L500.2 501L500.2 501.1L500.1 501.1L500 501.1L500 501.1L499.9 501.1L499.9 501.1L499.8 501.1L499.8 501.1L499.7 501.1L499.7 501.1L499.6 501.1L499.5 501.1L499.5 501.1L499.4 501.1L499.4 501L499.3 501L499.2 501L499.2 501L499.1 500.9L499.1 500.9L499 500.9L499 500.8L498.9 500.8L498.9 500.7L498.8 500.7L498.8 500.6L498.7 500.6L498.7 500.5L498.7 500.4L498.6 500.4L498.6 500.3L498.6 500.2L498.5 500.2L498.5 500.1L498.5 500L498.5 499.9L498.5 499.9L498.5 499.8L498.5 499.7L498.5 499.6L498.5 499.6L498.5 499.5L498.5 499.4L498.5 499.3L498.5 499.2L498.6 499.2L498.6 499.1L498.6 499L498.7 498.9L498.7 498.8L498.8 498.8L498.8 498.7L498.9 498.6L498.9 498.5L499 498.5L499.1 498.4L499.1 498.4L499.2 498.3L499.3 498.2L499.4 498.2L499.5 498.1L499.5 498.1L499.6 498.1L499.7 498L499.8 498L499.9 498L500 497.9L500.1 497.9L500.2 497.9L500.3 497.9L500.5 497.9L500.6 497.9L500.7 497.9L500.8 497.9L500.9 498L501 498L501.1 498L501.2 498.1L501.3 498.1L501.4 498.2L501.5 498.2L501.7 498.3L501.8 498.3L501.9 498.4L501.9 498.5L502 498.6L502.1 498.7L502.2 498.8L502.3 498.9L502.4 499L502.5 499.1L502.5 499.2L502.6 499.3L502.6 499.4L502.7 499.6L502.7 499.7L502.8 499.8L502.8 500L502.8 500.1L502.9 500.3L502.9 500.4L502.9 500.6L502.9 500.7L502.9 500.9L502.8 501L502.8 501.2L502.8 501.3L502.7 501.5L502.7 501.6L502.6 501.8L502.6 501.9L502.5 502.1L502.4 502.2L502.3 502.3L502.2 502.5L502.1 502.6L502 502.7L501.9 502.9L501.7 503L501.6 503.1L501.5 503.2L501.3 503.3L501.2 503.4L501 503.5L500.8 503.6L500.7 503.7L500.5 503.7L500.3 503.8L500.1 503.8L499.9 503.9L499.7 503.9L499.5 503.9L499.3 503.9L499.1 503.9L498.9 503.9L498.7 503.9L498.5 503.9L498.3 503.8L498.1 503.8L497.9 503.7L497.7 503.6L497.5 503.5L497.3 503.4L497.1 503.3L496.9 503.2L496.7 503.1L496.5 502.9L496.3 502.8L496.1 502.6L496 502.5L495.8 502.3L495.7 502.1L495.5 501.9L495.4 501.7L495.3 501.5L495.1 501.2L495 501L494.9 500.8L494.9 500.5L494.8 500.3L494.7 500L494.7 499.7L494.7 499.5L494.6 499.2L494.6 498.9L494.6 498.6L494.7 498.3L494.7 498.1L494.7 497.8L494.8 497.5L494.9 497.2L495 496.9L495.1 496.6L495.2 496.4L495.4 496.1L495.5 495.8L495.7 495.6L495.9 495.3L496.1 495.1L496.3 494.8L496.5 494.6L496.8 494.4L497 494.1L497.3 493.9L497.6 493.8L497.9 493.6L498.2 493.4L498.5 493.3L498.8 493.1L499.2 493L499.5 492.9L499.9 492.8L500.2 492.7L500.6 492.7L501 492.7L501.3 492.6L501.7 492.6L502.1 492.7L502.5 492.7L502.9 492.8L503.3 492.9L503.7 493L504.1 493.1L504.4 493.2L504.8 493.4L505.2 493.6L505.6 493.8L505.9 494L506.3 494.3L506.6 494.5L507 494.8L507.3 495.1L507.6 495.4L507.9 495.8L508.2 496.1L508.4 496.5L508.7 496.9L508.9 497.3L509.1 497.8L509.3 498.2L509.5 498.6L509.7 499.1L509.8 499.6L509.9 500.1L510 500.6L510 501.1L510.1 501.6L510.1 502.1L510.1 502.7L510 503.2L509.9 503.7L509.8 504.3L509.7 504.8L509.5 505.3L509.4 505.9L509.2 506.4L508.9 506.9L508.6 507.4L508.3 507.9L508 508.4L507.7 508.9L507.3 509.3L506.9 509.8L506.4 510.2L506 510.6L505.5 511L505 511.4L504.5 511.8L503.9 512.1L503.3 512.4L502.7 512.7L502.1 512.9L501.5 513.1L500.8 513.3L500.2 513.5L499.5 513.6L498.8 513.7L498.1 513.8L497.4 513.8L496.7 513.8L495.9 513.7L495.2 513.6L494.5 513.5L493.7 513.4L493 513.2L492.3 512.9L491.6 512.7L490.8 512.3L490.1 512L489.5 511.6L488.8 511.2L488.1 510.7L487.5 510.2L486.8 509.6L486.2 509.1L485.7 508.5L485.1 507.8L484.6 507.1L484.1 506.4L483.6 505.7L483.2 504.9L482.8 504.1L482.4 503.2L482.1 502.4L481.9 501.5L481.6 500.6L481.4 499.7L481.3 498.7L481.2 497.8L481.1 496.8L481.1 495.8L481.2 494.8L481.3 493.8L481.4 492.8L481.6 491.8L481.9 490.8L482.2 489.8L482.5 488.9L482.9 487.9L483.4 486.9L483.9 486L484.5 485L485.1 484.1L485.8 483.2L486.5 482.3L487.3 481.5L488.1 480.7L488.9 479.9L489.9 479.2L490.8 478.5L491.8 477.8L492.9 477.2L494 476.7L495.1 476.2L496.2 475.7L497.4 475.3L498.7 475L499.9 474.7L501.2 474.4L502.5 474.3L503.8 474.2L505.1 474.1L506.5 474.2L507.9 474.3L509.2 474.4L510.6 474.7L512 475L513.3 475.4L514.7 475.8L516 476.4L517.4 477L518.7 477.7L520 478.4L521.2 479.2L522.5 480.1L523.7 481.1L524.8 482.1L526 483.2L527 484.4L528.1 485.6L529.1 486.9L530 488.2L530.8 489.6L531.6 491.1L532.3 492.6L533 494.2L533.6 495.8L534.1 497.5L534.5 499.2L534.9 500.9L535.1 502.7L535.3 504.5L535.4 506.3L535.4 508.1L535.3 510L535.1 511.8L534.8 513.7L534.4 515.6L533.9 517.5L533.3 519.3L532.7 521.2L531.9 523L531 524.8L530 526.6L528.9 528.4L527.8 530.1L526.5 531.8L525.1 533.4L523.6 534.9L522.1 536.4L520.4 537.9L518.7 539.2L516.9 540.5L515 541.7L513 542.8L511 543.9L508.9 544.8L506.7 545.7L504.4 546.4L502.1 547L499.8 547.6L497.4 548L494.9 548.2L492.4 548.4L489.9 548.5L487.4 548.4L484.8 548.2L482.3 547.8L479.7 547.4L477.1 546.7L474.6 546L472 545.1L469.5 544.1L467 543L464.6 541.7L462.1 540.2L459.8 538.7L457.5 537L455.2 535.2L453.1 533.2L451 531.1L449 528.9L447.1 526.6L445.2 524.2L443.5 521.6L442 519L440.5 516.2L439.2 513.3L437.9 510.4L436.9 507.4L435.9 504.2L435.2 501L434.5 497.8L434.1 494.4L433.8 491.1L433.7 487.6L433.7 484.2L433.9 480.7L434.3 477.2L434.9 473.7L435.6 470.2L436.6 466.7L437.7 463.2L439 459.7L440.5 456.3L442.2 452.9L444.1 449.5L446.1 446.3L448.4 443.1L450.8 440L453.4 437L456.2 434.1L459.1 431.3L462.2 428.6L465.5 426.1L468.9 423.7L472.5 421.4L476.2 419.3L480.1 417.4L484.1 415.7L488.2 414.2L492.4 412.8L496.8 411.7L501.2 410.7L505.7 410L510.3 409.5L515 409.2L519.7 409.2L524.4 409.4L529.2 409.8L534 410.5L538.8 411.4L543.7 412.6L548.5 414L553.2 415.7L557.9 417.7L562.6 419.9L567.2 422.3L571.7 425L576.1 428L580.4 431.2L584.6 434.7L588.7 438.4L592.5 442.3L596.3 446.5L599.8 450.9L603.2 455.5L606.3 460.3L609.3 465.3L612 470.5L614.5 475.9L616.7 481.5L618.6 487.2L620.3 493.1L621.7 499.1" opacity="0.13"/><path d="M500 499.9L500 499.9L500 499.9L500 499.9L500 499.9L500 499.9L500 499.9L500 499.9L500 499.9L500 499.9L500 499.9L500 499.9L500 499.9L500 499.9L500.1 499.9L500.1 499.9L500.1 499.9L500.1 499.9L500.1 499.9L500.1 499.9L500.1 499.9L500.1 499.9L500.1 499.9L500.1 499.9L500.1 499.9L500.1 499.9L500.1 499.9L500.1 499.9L500.1 499.9L500.1 499.9L500.2 499.9L500.2 499.9L500.2 500L500.2 500L500.2 500L500.2 500L500.2 500L500.2 500L500.2 500L500.2 500L500.2 500L500.2 500L500.2 500L500.2 500L500.2 500.1L500.2 500.1L500.2 500.1L500.2 500.1L500.2 500.1L500.2 500.1L500.2 500.1L500.2 500.1L500.2 500.1L500.1 500.1L500.1 500.2L500.1 500.2L500.1 500.2L500.1 500.2L500.1 500.2L500.1 500.2L500.1 500.2L500.1 500.2L500.1 500.2L500.1 500.2L500.1 500.2L500 500.2L500 500.2L500 500.2L500 500.2L500 500.2L500 500.2L500 500.2L500 500.2L500 500.2L499.9 500.2L499.9 500.2L499.9 500.2L499.9 500.2L499.9 500.2L499.9 500.2L499.9 500.2L499.8 500.2L499.8 500.2L499.8 500.2L499.8 500.2L499.8 500.2L499.8 500.2L499.8 500.2L499.8 500.2L499.8 500.2L499.7 500.2L499.7 500.1L499.7 500.1L499.7 500.1L499.7 500.1L499.7 500.1L499.7 500.1L499.7 500.1L499.7 500L499.7 500L499.7 500L499.7 500L499.7 500L499.7 500L499.7 499.9L499.7 499.9L499.7 499.9L499.7 499.9L499.7 499.9L499.7 499.9L499.7 499.8L499.7 499.8L499.7 499.8L499.7 499.8L499.7 499.8L499.7 499.7L499.7 499.7L499.7 499.7L499.7 499.7L499.8 499.7L499.8 499.7L499.8 499.7L499.8 499.6L499.8 499.6L499.8 499.6L499.9 499.6L499.9 499.6L499.9 499.6L499.9 499.6L499.9 499.6L500 499.6L500 499.6L500 499.5L500 499.5L500 499.5L500.1 499.5L500.1 499.5L500.1 499.5L500.1 499.5L500.2 499.5L500.2 499.5L500.2 499.6L500.2 499.6L500.3 499.6L500.3 499.6L500.3 499.6L500.3 499.6L500.4 499.6L500.4 499.6L500.4 499.6L500.4 499.7L500.4 499.7L500.5 499.7L500.5 499.7L500.5 499.7L500.5 499.8L500.5 499.8L500.6 499.8L500.6 499.8L500.6 499.9L500.6 499.9L500.6 499.9L500.6 500L500.6 500L500.6 500L500.6 500.1L500.6 500.1L500.6 500.1L500.6 500.1L500.6 500.2L500.6 500.2L500.6 500.3L500.6 500.3L500.6 500.3L500.6 500.4L500.6 500.4L500.6 500.4L500.6 500.4L500.5 500.5L500.5 500.5L500.5 500.5L500.5 500.6L500.4 500.6L500.4 500.6L500.4 500.7L500.4 500.7L500.3 500.7L500.3 500.7L500.3 500.8L500.2 500.8L500.2 500.8L500.2 500.8L500.1 500.8L500.1 500.8L500 500.8L500 500.9L499.9 500.9L499.9 500.9L499.9 500.9L499.8 500.9L499.8 500.9L499.7 500.9L499.7 500.9L499.6 500.8L499.6 500.8L499.5 500.8L499.5 500.8L499.4 500.8L499.4 500.8L499.4 500.7L499.3 500.7L499.3 500.7L499.2 500.7L499.2 500.6L499.2 500.6L499.1 500.6L499.1 500.5L499 500.5L499 500.4L499 500.4L499 500.3L498.9 500.3L498.9 500.2L498.9 500.2L498.9 500.1L498.8 500.1L498.8 500L498.8 500L498.8 499.9L498.8 499.8L498.8 499.8L498.8 499.7L498.8 499.6L498.8 499.6L498.8 499.5L498.8 499.5L498.9 499.4L498.9 499.3L498.9 499.3L498.9 499.2L499 499.1L499 499.1L499 499L499.1 499L499.1 498.9L499.2 498.9L499.2 498.8L499.3 498.8L499.3 498.7L499.4 498.7L499.5 498.6L499.5 498.6L499.6 498.5L499.7 498.5L499.7 498.5L499.8 498.5L499.9 498.4L500 498.4L500 498.4L500.1 498.4L500.2 498.4L500.3 498.4L500.4 498.4L500.4 498.4L500.5 498.4L500.6 498.4L500.7 498.4L500.8 498.4L500.9 498.5L501 498.5L501 498.5L501.1 498.6L501.2 498.6L501.3 498.7L501.4 498.7L501.5 498.8L501.5 498.8L501.6 498.9L501.7 499L501.7 499L501.8 499.1L501.9 499.2L501.9 499.3L502 499.4L502 499.5L502.1 499.6L502.1 499.7L502.1 499.8L502.2 499.9L502.2 500L502.2 500.1L502.2 500.2L502.2 500.3L502.2 500.4L502.2 500.6L502.2 500.7L502.2 500.8L502.2 500.9L502.2 501L502.1 501.2L502.1 501.3L502 501.4L502 501.5L501.9 501.6L501.9 501.7L501.8 501.8L501.7 501.9L501.6 502L501.5 502.1L501.4 502.2L501.3 502.3L501.2 502.4L501.1 502.5L501 502.6L500.9 502.7L500.8 502.7L500.6 502.8L500.5 502.8L500.4 502.9L500.2 502.9L500.1 503L499.9 503L499.8 503L499.6 503L499.5 503.1L499.3 503.1L499.1 503L499 503L498.8 503L498.6 503L498.5 502.9L498.3 502.9L498.2 502.8L498 502.7L497.9 502.7L497.7 502.6L497.5 502.5L497.4 502.4L497.3 502.3L497.1 502.2L497 502L496.9 501.9L496.7 501.8L496.6 501.6L496.5 501.5L496.4 501.3L496.3 501.1L496.2 500.9L496.1 500.8L496.1 500.6L496 500.4L495.9 500.2L495.9 500L495.9 499.8L495.8 499.6L495.8 499.3L495.8 499.1L495.8 498.9L495.8 498.7L495.9 498.5L495.9 498.2L496 498L496 497.8L496.1 497.6L496.2 497.4L496.3 497.1L496.4 496.9L496.5 496.7L496.7 496.5L496.8 496.3L497 496.1L497.1 495.9L497.3 495.8L497.5 495.6L497.7 495.4L497.9 495.3L498.1 495.1L498.4 495L498.6 494.9L498.9 494.7L499.1 494.6L499.4 494.6L499.6 494.5L499.9 494.4L500.2 494.4L500.5 494.3L500.8 494.3L501.1 494.3L501.4 494.3L501.7 494.3L502 494.3L502.3 494.4L502.6 494.5L502.9 494.5L503.2 494.6L503.5 494.7L503.8 494.9L504.1 495L504.4 495.2L504.6 495.4L504.9 495.6L505.2 495.8L505.4 496L505.7 496.2L505.9 496.5L506.2 496.8L506.4 497L506.6 497.3L506.8 497.6L507 498L507.1 498.3L507.3 498.6L507.4 499L507.5 499.4L507.6 499.7L507.7 500.1L507.8 500.5L507.8 500.9L507.8 501.3L507.8 501.7L507.8 502.1L507.8 502.5L507.7 503L507.6 503.4L507.5 503.8L507.4 504.2L507.3 504.6L507.1 505L506.9 505.4L506.7 505.8L506.5 506.2L506.2 506.6L505.9 507L505.6 507.3L505.3 507.7L505 508L504.6 508.3L504.2 508.6L503.8 508.9L503.4 509.2L503 509.4L502.5 509.7L502.1 509.9L501.6 510.1L501.1 510.2L500.6 510.4L500.1 510.5L499.5 510.6L499 510.7L498.4 510.7L497.9 510.7L497.3 510.7L496.8 510.7L496.2 510.6L495.6 510.5L495.1 510.4L494.5 510.2L493.9 510L493.4 509.8L492.8 509.6L492.3 509.3L491.7 509L491.2 508.6L490.7 508.3L490.2 507.9L489.7 507.4L489.2 507L488.8 506.5L488.4 506L488 505.5L487.6 504.9L487.2 504.3L486.9 503.7L486.6 503.1L486.3 502.4L486.1 501.8L485.9 501.1L485.7 500.4L485.5 499.7L485.4 498.9L485.4 498.2L485.3 497.4L485.3 496.7L485.4 495.9L485.4 495.1L485.6 494.3L485.7 493.6L485.9 492.8L486.2 492L486.4 491.2L486.8 490.5L487.1 489.7L487.5 489L488 488.3L488.5 487.5L489 486.9L489.6 486.2L490.2 485.5L490.8 484.9L491.5 484.3L492.2 483.7L493 483.2L493.7 482.7L494.6 482.2L495.4 481.8L496.3 481.4L497.2 481.1L498.1 480.8L499.1 480.5L500.1 480.3L501.1 480.1L502.1 480L503.1 479.9L504.1 479.9L505.2 479.9L506.3 480L507.3 480.1L508.4 480.3L509.4 480.6L510.5 480.9L511.6 481.3L512.6 481.7L513.7 482.2L514.7 482.7L515.7 483.3L516.7 483.9L517.6 484.6L518.5 485.4L519.4 486.2L520.3 487L521.1 488L521.9 488.9L522.7 489.9L523.4 491L524.1 492.1L524.7 493.2L525.2 494.4L525.7 495.6L526.2 496.9L526.6 498.2L526.9 499.5L527.2 500.9L527.3 502.3L527.5 503.7L527.5 505.1L527.5 506.5L527.4 508L527.3 509.4L527 510.9L526.7 512.3L526.3 513.8L525.9 515.2L525.3 516.7L524.7 518.1L524 519.5L523.2 520.9L522.4 522.2L521.5 523.6L520.5 524.9L519.4 526.1L518.2 527.3L517 528.5L515.7 529.6L514.4 530.6L513 531.6L511.5 532.6L509.9 533.4L508.3 534.2L506.7 535L505 535.6L503.2 536.2L501.4 536.6L499.6 537L497.7 537.3L495.8 537.5L493.9 537.7L491.9 537.7L489.9 537.6L487.9 537.4L486 537.2L484 536.8L482 536.3L480 535.7L478 535L476 534.2L474.1 533.3L472.2 532.3L470.3 531.1L468.5 529.9L466.7 528.6L465 527.2L463.3 525.6L461.7 524L460.1 522.3L458.6 520.5L457.2 518.6L455.9 516.6L454.7 514.5L453.6 512.3L452.5 510.1L451.6 507.8L450.8 505.4L450.1 503L449.5 500.5L449 497.9L448.7 495.3L448.5 492.7L448.4 490L448.4 487.3L448.6 484.6L449 481.9L449.4 479.2L450 476.4L450.8 473.7L451.7 471L452.7 468.3L453.9 465.6L455.2 463L456.7 460.4L458.3 457.9L460.1 455.4L462 453L464 450.7L466.2 448.4L468.5 446.3L470.9 444.2L473.5 442.2L476.2 440.4L479 438.7L481.9 437.1L484.9 435.6L488 434.3L491.2 433.1L494.5 432.1L497.9 431.2L501.4 430.5L504.9 429.9L508.5 429.6L512.1 429.4L515.8 429.4L519.5 429.5L523.2 429.9L527 430.5L530.7 431.2L534.5 432.2L538.2 433.3L541.9 434.6L545.6 436.2L549.2 437.9L552.7 439.9L556.2 442L559.7 444.3L563 446.8L566.2 449.6L569.4 452.5L572.4 455.5L575.3 458.8L578 462.2L580.6 465.8L583 469.6L585.3 473.5L587.4 477.6L589.3 481.8L591 486.2L592.5 490.6L593.7 495.2L594.8 499.9L595.6 504.7L596.3 509.6L596.6 514.5L596.7 519.5L596.6 524.6L596.2 529.7L595.6 534.8L594.6 539.9L593.5 545L592 550.2L590.3 555.2L588.3 560.3L586 565.3L583.5 570.2L580.7 575L577.6 579.7L574.2 584.4L570.6 588.9L566.8 593.2L562.7 597.4L558.3 601.4L553.7 605.2L548.8 608.9L543.8 612.3L538.5 615.5" opacity="0.13"/><path d="M500.1 499.9L500.1 499.9L500.1 499.9L500.1 499.9L500.1 499.9L500.1 500L500.1 500L500.1 500L500.1 500L500.1 500L500.1 500L500.1 500L500.1 500L500.1 500L500.1 500L500.1 500L500.1 500L500.1 500L500.1 500L500.1 500L500.1 500.1L500.1 500.1L500.1 500.1L500.1 500.1L500.1 500.1L500.1 500.1L500.1 500.1L500.1 500.1L500.1 500.1L500.1 500.1L500.1 500.1L500.1 500.1L500.1 500.1L500.1 500.1L500.1 500.1L500.1 500.2L500.1 500.2L500.1 500.2L500.1 500.2L500 500.2L500 500.2L500 500.2L500 500.2L500 500.2L500 500.2L500 500.2L500 500.2L500 500.2L500 500.2L500 500.2L499.9 500.2L499.9 500.2L499.9 500.2L499.9 500.2L499.9 500.2L499.9 500.2L499.9 500.2L499.9 500.2L499.9 500.2L499.9 500.2L499.8 500.2L499.8 500.1L499.8 500.1L499.8 500.1L499.8 500.1L499.8 500.1L499.8 500.1L499.8 500.1L499.8 500.1L499.8 500.1L499.8 500.1L499.8 500.1L499.8 500L499.7 500L499.7 500L499.7 500L499.7 500L499.7 500L499.7 500L499.7 500L499.7 499.9L499.7 499.9L499.7 499.9L499.7 499.9L499.7 499.9L499.7 499.9L499.8 499.9L499.8 499.8L499.8 499.8L499.8 499.8L499.8 499.8L499.8 499.8L499.8 499.8L499.8 499.8L499.8 499.8L499.8 499.7L499.8 499.7L499.8 499.7L499.9 499.7L499.9 499.7L499.9 499.7L499.9 499.7L499.9 499.7L499.9 499.7L500 499.7L500 499.7L500 499.6L500 499.6L500 499.6L500 499.6L500.1 499.6L500.1 499.6L500.1 499.6L500.1 499.6L500.1 499.6L500.2 499.6L500.2 499.7L500.2 499.7L500.2 499.7L500.2 499.7L500.2 499.7L500.3 499.7L500.3 499.7L500.3 499.7L500.3 499.7L500.3 499.7L500.4 499.8L500.4 499.8L500.4 499.8L500.4 499.8L500.4 499.8L500.4 499.8L500.4 499.9L500.4 499.9L500.5 499.9L500.5 499.9L500.5 499.9L500.5 500L500.5 500L500.5 500L500.5 500L500.5 500.1L500.5 500.1L500.5 500.1L500.5 500.1L500.5 500.2L500.5 500.2L500.5 500.2L500.5 500.3L500.5 500.3L500.5 500.3L500.4 500.3L500.4 500.4L500.4 500.4L500.4 500.4L500.4 500.4L500.4 500.4L500.3 500.5L500.3 500.5L500.3 500.5L500.3 500.5L500.3 500.6L500.2 500.6L500.2 500.6L500.2 500.6L500.1 500.6L500.1 500.6L500.1 500.6L500.1 500.6L500 500.7L500 500.7L500 500.7L499.9 500.7L499.9 500.7L499.9 500.7L499.8 500.7L499.8 500.7L499.7 500.7L499.7 500.7L499.7 500.6L499.6 500.6L499.6 500.6L499.6 500.6L499.5 500.6L499.5 500.6L499.5 500.6L499.4 500.5L499.4 500.5L499.4 500.5L499.3 500.5L499.3 500.4L499.3 500.4L499.3 500.4L499.2 500.3L499.2 500.3L499.2 500.3L499.2 500.2L499.1 500.2L499.1 500.1L499.1 500.1L499.1 500L499.1 500L499.1 500L499.1 499.9L499.1 499.9L499.1 499.8L499.1 499.8L499.1 499.7L499.1 499.7L499.1 499.6L499.1 499.6L499.1 499.5L499.1 499.5L499.2 499.4L499.2 499.4L499.2 499.3L499.2 499.3L499.3 499.2L499.3 499.2L499.3 499.2L499.4 499.1L499.4 499.1L499.4 499L499.5 499L499.5 499L499.6 498.9L499.6 498.9L499.7 498.9L499.7 498.8L499.8 498.8L499.9 498.8L499.9 498.8L500 498.8L500 498.8L500.1 498.7L500.2 498.7L500.2 498.7L500.3 498.7L500.4 498.7L500.4 498.7L500.5 498.8L500.6 498.8L500.6 498.8L500.7 498.8L500.8 498.8L500.8 498.9L500.9 498.9L501 498.9L501 499L501.1 499L501.1 499.1L501.2 499.1L501.3 499.2L501.3 499.2L501.4 499.3L501.4 499.3L501.5 499.4L501.5 499.5L501.5 499.5L501.6 499.6L501.6 499.7L501.6 499.8L501.7 499.8L501.7 499.9L501.7 500L501.7 500.1L501.7 500.2L501.7 500.3L501.7 500.4L501.7 500.5L501.7 500.5L501.7 500.6L501.7 500.7L501.7 500.8L501.6 500.9L501.6 501L501.6 501.1L501.5 501.2L501.5 501.3L501.4 501.4L501.4 501.4L501.3 501.5L501.3 501.6L501.2 501.7L501.1 501.8L501 501.8L501 501.9L500.9 502L500.8 502L500.7 502.1L500.6 502.1L500.5 502.2L500.4 502.2L500.3 502.3L500.2 502.3L500 502.3L499.9 502.3L499.8 502.4L499.7 502.4L499.6 502.4L499.4 502.4L499.3 502.4L499.2 502.4L499.1 502.3L498.9 502.3L498.8 502.3L498.7 502.2L498.6 502.2L498.4 502.1L498.3 502.1L498.2 502L498.1 501.9L498 501.8L497.9 501.8L497.7 501.7L497.6 501.6L497.5 501.5L497.4 501.4L497.4 501.2L497.3 501.1L497.2 501L497.1 500.8L497 500.7L497 500.6L496.9 500.4L496.9 500.3L496.8 500.1L496.8 500L496.8 499.8L496.8 499.6L496.8 499.5L496.7 499.3L496.8 499.1L496.8 499L496.8 498.8L496.8 498.6L496.9 498.4L496.9 498.3L497 498.1L497.1 497.9L497.1 497.8L497.2 497.6L497.3 497.4L497.4 497.3L497.5 497.1L497.7 497L497.8 496.8L497.9 496.7L498.1 496.6L498.2 496.4L498.4 496.3L498.6 496.2L498.8 496.1L498.9 496L499.1 495.9L499.3 495.8L499.5 495.8L499.8 495.7L500 495.6L500.2 495.6L500.4 495.6L500.6 495.6L500.9 495.5L501.1 495.6L501.3 495.6L501.6 495.6L501.8 495.6L502 495.7L502.3 495.8L502.5 495.8L502.7 495.9L503 496L503.2 496.1L503.4 496.3L503.6 496.4L503.9 496.6L504.1 496.7L504.3 496.9L504.5 497.1L504.6 497.3L504.8 497.5L505 497.7L505.1 498L505.3 498.2L505.4 498.4L505.6 498.7L505.7 499L505.8 499.3L505.9 499.5L505.9 499.8L506 500.1L506 500.4L506.1 500.7L506.1 501.1L506.1 501.4L506.1 501.7L506 502L506 502.3L505.9 502.7L505.8 503L505.7 503.3L505.6 503.6L505.5 503.9L505.3 504.3L505.2 504.6L505 504.9L504.8 505.2L504.6 505.4L504.3 505.7L504.1 506L503.8 506.3L503.5 506.5L503.2 506.7L502.9 507L502.6 507.2L502.3 507.4L501.9 507.5L501.6 507.7L501.2 507.9L500.8 508L500.4 508.1L500 508.2L499.6 508.3L499.2 508.3L498.7 508.3L498.3 508.3L497.9 508.3L497.4 508.3L497 508.2L496.5 508.2L496.1 508.1L495.7 507.9L495.2 507.8L494.8 507.6L494.4 507.4L493.9 507.2L493.5 506.9L493.1 506.7L492.7 506.4L492.3 506.1L491.9 505.7L491.6 505.4L491.2 505L490.9 504.6L490.6 504.2L490.3 503.8L490 503.3L489.8 502.8L489.5 502.3L489.3 501.8L489.1 501.3L489 500.8L488.8 500.2L488.7 499.7L488.7 499.1L488.6 498.5L488.6 497.9L488.6 497.3L488.6 496.7L488.7 496.1L488.8 495.5L488.9 494.9L489.1 494.3L489.3 493.7L489.5 493.1L489.7 492.5L490 491.9L490.3 491.4L490.7 490.8L491.1 490.2L491.5 489.7L491.9 489.2L492.4 488.7L492.9 488.2L493.5 487.7L494 487.3L494.6 486.9L495.2 486.5L495.9 486.1L496.5 485.8L497.2 485.5L497.9 485.2L498.6 485L499.4 484.8L500.1 484.6L500.9 484.5L501.7 484.4L502.5 484.4L503.3 484.4L504.1 484.4L505 484.5L505.8 484.6L506.6 484.7L507.5 484.9L508.3 485.2L509.1 485.5L509.9 485.8L510.7 486.2L511.5 486.6L512.3 487.1L513.1 487.6L513.8 488.1L514.5 488.7L515.2 489.3L515.9 490L516.5 490.7L517.1 491.5L517.7 492.3L518.3 493.1L518.8 494L519.2 494.9L519.7 495.8L520.1 496.7L520.4 497.7L520.7 498.7L520.9 499.8L521.1 500.8L521.3 501.9L521.4 503L521.4 504.1L521.4 505.2L521.3 506.3L521.2 507.5L521 508.6L520.7 509.7L520.4 510.9L520.1 512L519.6 513.1L519.1 514.2L518.6 515.3L518 516.4L517.3 517.4L516.6 518.5L515.8 519.5L515 520.4L514.1 521.4L513.1 522.3L512.1 523.1L511 523.9L509.9 524.7L508.8 525.4L507.6 526.1L506.3 526.7L505 527.3L503.7 527.7L502.3 528.2L500.9 528.5L499.5 528.8L498 529.1L496.5 529.2L495 529.3L493.5 529.3L492 529.2L490.4 529.1L488.9 528.9L487.3 528.6L485.8 528.2L484.2 527.7L482.7 527.1L481.2 526.5L479.6 525.8L478.2 525L476.7 524.1L475.3 523.1L473.9 522.1L472.6 521L471.3 519.8L470 518.5L468.8 517.1L467.7 515.7L466.6 514.2L465.6 512.7L464.6 511L463.8 509.4L463 507.6L462.3 505.8L461.7 504L461.1 502L460.7 500.1L460.3 498.1L460.1 496.1L459.9 494.1L459.9 492L459.9 489.9L460.1 487.8L460.3 485.6L460.7 483.5L461.2 481.4L461.8 479.3L462.5 477.2L463.3 475.1L464.3 473L465.3 470.9L466.5 468.9L467.8 467L469.1 465.1L470.6 463.2L472.2 461.4L473.9 459.7L475.7 458L477.7 456.4L479.7 454.9L481.8 453.5L484 452.1L486.2 450.9L488.6 449.8L491 448.7L493.5 447.8L496.1 447.1L498.7 446.4L501.4 445.9L504.2 445.5L507 445.2L509.8 445.1L512.7 445.1L515.5 445.2L518.4 445.5L521.4 446L524.3 446.6L527.2 447.3L530.1 448.3L533 449.3L535.8 450.5L538.6 451.9L541.4 453.4L544.1 455.1L546.8 456.9L549.3 458.9L551.8 461.1L554.3 463.3L556.6 465.8L558.8 468.3L560.9 471L562.9 473.8L564.8 476.8L566.6 479.8L568.2 483L569.6 486.3L570.9 489.7L572.1 493.2L573 496.8L573.8 500.4L574.5 504.2L574.9 508L575.2 511.8L575.2 515.7L575.1 519.6L574.8 523.6L574.2 527.6L573.5 531.6L572.5 535.6L571.4 539.5L570 543.5L568.4 547.4L566.6 551.3L564.6 555.1L562.4 558.8L560 562.5L557.4 566.1L554.6 569.6L551.5 572.9L548.3 576.2L544.9 579.3L541.3 582.2L537.5 585L533.5 587.7L529.4 590.1L525.1 592.4L520.6 594.5L516.1 596.4L511.3 598L506.5 599.5L501.5 600.7L496.4 601.6L491.3 602.3L486 602.8L480.7 603L475.4 602.9L469.9 602.6L464.5 602L459 601.1L453.6 599.9L448.1 598.4L442.7 596.7L437.3 594.6L432 592.3L426.7 589.7L421.6 586.8L416.5 583.6L411.5 580.1L406.7 576.3L402 572.3" opacity="0.13"/><path d="M500.1 500.1L500.1 500.1L500.1 500.1L500.1 500.1L500.1 500.1L500.1 500.1L500.1 500.1L500.1 500.1L500.1 500.1L500.1 500.1L500.1 500.1L500.1 500.1L500 500.1L500 500.1L500 500.1L500 500.1L500 500.1L500 500.1L500 500.1L500 500.1L500 500.1L500 500.1L500 500.1L500 500.1L500 500.1L500 500.1L499.9 500.1L499.9 500.1L499.9 500.1L499.9 500.1L499.9 500.1L499.9 500.1L499.9 500.1L499.9 500.1L499.9 500.1L499.9 500.1L499.9 500.1L499.9 500.1L499.9 500.1L499.8 500.1L499.8 500.1L499.8 500.1L499.8 500.1L499.8 500.1L499.8 500.1L499.8 500L499.8 500L499.8 500L499.8 500L499.8 500L499.8 500L499.8 500L499.8 500L499.8 500L499.8 500L499.8 500L499.8 499.9L499.8 499.9L499.8 499.9L499.8 499.9L499.8 499.9L499.8 499.9L499.8 499.9L499.8 499.9L499.8 499.9L499.8 499.8L499.8 499.8L499.8 499.8L499.8 499.8L499.9 499.8L499.9 499.8L499.9 499.8L499.9 499.8L499.9 499.8L499.9 499.8L499.9 499.8L499.9 499.8L499.9 499.7L500 499.7L500 499.7L500 499.7L500 499.7L500 499.7L500 499.7L500 499.7L500 499.7L500.1 499.7L500.1 499.7L500.1 499.7L500.1 499.7L500.1 499.7L500.1 499.7L500.2 499.7L500.2 499.7L500.2 499.7L500.2 499.8L500.2 499.8L500.2 499.8L500.2 499.8L500.2 499.8L500.3 499.8L500.3 499.8L500.3 499.8L500.3 499.8L500.3 499.8L500.3 499.9L500.3 499.9L500.3 499.9L500.3 499.9L500.4 499.9L500.4 499.9L500.4 500L500.4 500L500.4 500L500.4 500L500.4 500L500.4 500.1L500.4 500.1L500.4 500.1L500.4 500.1L500.4 500.1L500.4 500.2L500.4 500.2L500.4 500.2L500.4 500.2L500.4 500.2L500.3 500.3L500.3 500.3L500.3 500.3L500.3 500.3L500.3 500.3L500.3 500.4L500.3 500.4L500.3 500.4L500.2 500.4L500.2 500.4L500.2 500.4L500.2 500.4L500.2 500.5L500.1 500.5L500.1 500.5L500.1 500.5L500.1 500.5L500 500.5L500 500.5L500 500.5L500 500.5L499.9 500.5L499.9 500.5L499.9 500.5L499.9 500.5L499.8 500.5L499.8 500.5L499.8 500.5L499.7 500.5L499.7 500.5L499.7 500.5L499.7 500.5L499.6 500.5L499.6 500.4L499.6 500.4L499.6 500.4L499.5 500.4L499.5 500.4L499.5 500.4L499.5 500.3L499.4 500.3L499.4 500.3L499.4 500.3L499.4 500.2L499.4 500.2L499.3 500.2L499.3 500.1L499.3 500.1L499.3 500.1L499.3 500L499.3 500L499.3 500L499.3 499.9L499.3 499.9L499.3 499.9L499.3 499.8L499.3 499.8L499.3 499.7L499.3 499.7L499.3 499.7L499.3 499.6L499.3 499.6L499.3 499.5L499.4 499.5L499.4 499.5L499.4 499.4L499.4 499.4L499.4 499.4L499.5 499.3L499.5 499.3L499.5 499.3L499.6 499.2L499.6 499.2L499.6 499.2L499.7 499.2L499.7 499.1L499.8 499.1L499.8 499.1L499.8 499.1L499.9 499.1L499.9 499L500 499L500 499L500.1 499L500.1 499L500.2 499L500.2 499L500.3 499L500.3 499L500.4 499L500.4 499L500.5 499.1L500.5 499.1L500.6 499.1L500.6 499.1L500.7 499.1L500.7 499.2L500.8 499.2L500.8 499.2L500.9 499.3L500.9 499.3L501 499.3L501 499.4L501.1 499.4L501.1 499.5L501.1 499.5L501.2 499.6L501.2 499.6L501.2 499.7L501.3 499.8L501.3 499.8L501.3 499.9L501.3 500L501.3 500L501.3 500.1L501.3 500.2L501.3 500.2L501.3 500.3L501.3 500.4L501.3 500.4L501.3 500.5L501.3 500.6L501.3 500.6L501.3 500.7L501.3 500.8L501.2 500.9L501.2 500.9L501.2 501L501.1 501.1L501.1 501.1L501 501.2L501 501.3L500.9 501.3L500.9 501.4L500.8 501.4L500.7 501.5L500.7 501.5L500.6 501.6L500.5 501.6L500.4 501.7L500.4 501.7L500.3 501.7L500.2 501.8L500.1 501.8L500 501.8L499.9 501.8L499.8 501.8L499.7 501.8L499.6 501.8L499.5 501.8L499.4 501.8L499.4 501.8L499.3 501.8L499.2 501.8L499.1 501.8L499 501.7L498.9 501.7L498.8 501.6L498.7 501.6L498.6 501.5L498.5 501.5L498.4 501.4L498.3 501.4L498.2 501.3L498.2 501.2L498.1 501.1L498 501L497.9 500.9L497.9 500.9L497.8 500.8L497.7 500.6L497.7 500.5L497.6 500.4L497.6 500.3L497.6 500.2L497.5 500.1L497.5 499.9L497.5 499.8L497.5 499.7L497.5 499.6L497.5 499.4L497.5 499.3L497.5 499.2L497.5 499L497.5 498.9L497.6 498.8L497.6 498.6L497.7 498.5L497.7 498.4L497.8 498.2L497.8 498.1L497.9 498L498 497.9L498.1 497.7L498.2 497.6L498.3 497.5L498.4 497.4L498.5 497.3L498.6 497.2L498.8 497.1L498.9 497L499.1 496.9L499.2 496.9L499.4 496.8L499.5 496.7L499.7 496.7L499.8 496.6L500 496.6L500.2 496.6L500.3 496.6L500.5 496.5L500.7 496.5L500.9 496.5L501.1 496.6L501.2 496.6L501.4 496.6L501.6 496.7L501.8 496.7L502 496.8L502.2 496.8L502.3 496.9L502.5 497L502.7 497.1L502.9 497.2L503 497.3L503.2 497.5L503.3 497.6L503.5 497.8L503.6 497.9L503.8 498.1L503.9 498.3L504 498.4L504.1 498.6L504.2 498.8L504.3 499L504.4 499.2L504.5 499.5L504.6 499.7L504.6 499.9L504.7 500.1L504.7 500.4L504.7 500.6L504.7 500.9L504.7 501.1L504.7 501.4L504.7 501.6L504.7 501.9L504.6 502.1L504.5 502.4L504.5 502.6L504.4 502.9L504.3 503.1L504.1 503.3L504 503.6L503.9 503.8L503.7 504L503.5 504.3L503.4 504.5L503.2 504.7L502.9 504.9L502.7 505.1L502.5 505.3L502.2 505.4L502 505.6L501.7 505.7L501.5 505.9L501.2 506L500.9 506.1L500.6 506.2L500.3 506.3L499.9 506.4L499.6 506.4L499.3 506.5L499 506.5L498.6 506.5L498.3 506.5L497.9 506.4L497.6 506.4L497.3 506.3L496.9 506.3L496.6 506.2L496.2 506L495.9 505.9L495.6 505.7L495.2 505.6L494.9 505.4L494.6 505.2L494.3 504.9L494 504.7L493.7 504.4L493.4 504.2L493.2 503.9L492.9 503.5L492.7 503.2L492.4 502.9L492.2 502.5L492 502.1L491.8 501.8L491.7 501.4L491.5 501L491.4 500.5L491.3 500.1L491.2 499.7L491.2 499.2L491.1 498.8L491.1 498.3L491.1 497.9L491.2 497.4L491.2 496.9L491.3 496.4L491.4 496L491.5 495.5L491.7 495L491.8 494.6L492 494.1L492.3 493.7L492.5 493.2L492.8 492.8L493.1 492.4L493.4 491.9L493.8 491.5L494.2 491.1L494.5 490.8L495 490.4L495.4 490.1L495.9 489.8L496.3 489.5L496.8 489.2L497.4 488.9L497.9 488.7L498.5 488.5L499 488.3L499.6 488.2L500.2 488L500.8 487.9L501.4 487.9L502 487.8L502.7 487.8L503.3 487.9L504 487.9L504.6 488L505.2 488.1L505.9 488.3L506.5 488.5L507.2 488.7L507.8 489L508.4 489.3L509 489.6L509.6 490L510.2 490.4L510.8 490.8L511.4 491.3L511.9 491.8L512.4 492.3L512.9 492.9L513.4 493.5L513.8 494.1L514.3 494.7L514.7 495.4L515 496.1L515.3 496.8L515.6 497.6L515.9 498.3L516.1 499.1L516.3 499.9L516.5 500.8L516.6 501.6L516.6 502.4L516.7 503.3L516.6 504.2L516.6 505L516.5 505.9L516.3 506.8L516.1 507.7L515.9 508.6L515.6 509.4L515.2 510.3L514.8 511.2L514.4 512L513.9 512.9L513.4 513.7L512.8 514.5L512.2 515.2L511.5 516L510.8 516.7L510.1 517.4L509.3 518.1L508.5 518.7L507.6 519.3L506.7 519.8L505.7 520.4L504.8 520.8L503.8 521.3L502.7 521.6L501.7 522L500.6 522.2L499.4 522.5L498.3 522.6L497.1 522.7L496 522.8L494.8 522.8L493.6 522.7L492.4 522.6L491.2 522.4L490 522.2L488.8 521.9L487.6 521.5L486.4 521L485.2 520.5L484 520L482.9 519.3L481.7 518.6L480.6 517.9L479.6 517.1L478.5 516.2L477.5 515.2L476.6 514.2L475.6 513.2L474.7 512.1L473.9 510.9L473.1 509.7L472.4 508.4L471.7 507.1L471.1 505.7L470.6 504.3L470.1 502.9L469.7 501.4L469.4 499.9L469.1 498.3L468.9 496.8L468.8 495.2L468.8 493.5L468.8 491.9L469 490.3L469.2 488.6L469.5 487L469.9 485.3L470.4 483.7L470.9 482L471.6 480.4L472.3 478.8L473.1 477.2L474.1 475.6L475.1 474.1L476.1 472.6L477.3 471.2L478.6 469.8L479.9 468.4L481.3 467.2L482.8 465.9L484.4 464.8L486 463.7L487.7 462.6L489.5 461.7L491.4 460.8L493.3 460L495.2 459.3L497.2 458.7L499.3 458.2L501.4 457.8L503.5 457.5L505.7 457.4L507.9 457.3L510.1 457.3L512.4 457.4L514.6 457.7L516.9 458L519.2 458.5L521.4 459.1L523.7 459.9L525.9 460.7L528.1 461.7L530.3 462.7L532.5 464L534.6 465.3L536.6 466.7L538.6 468.3L540.6 469.9L542.4 471.7L544.2 473.6L546 475.6L547.6 477.7L549.1 479.9L550.6 482.2L551.9 484.6L553.2 487.1L554.3 489.7L555.3 492.3L556.2 495.1L556.9 497.9L557.5 500.7L558 503.6L558.3 506.6L558.5 509.6L558.5 512.6L558.4 515.7L558.1 518.8L557.7 521.9L557.1 525L556.3 528.1L555.4 531.2L554.3 534.2L553.1 537.3L551.6 540.3L550.1 543.2L548.3 546.1L546.4 549L544.3 551.8L542.1 554.5L539.7 557.1L537.2 559.6L534.5 562L531.7 564.3L528.7 566.4L525.6 568.5L522.4 570.4L519.1 572.1L515.6 573.7L512 575.1L508.3 576.4L504.5 577.5L500.7 578.4L496.7 579.1L492.7 579.7L488.6 580L484.5 580.1L480.3 580L476.1 579.7L471.8 579.2L467.6 578.5L463.3 577.6L459.1 576.4L454.9 575L450.7 573.4L446.6 571.5L442.5 569.5L438.5 567.2L434.5 564.7L430.7 561.9L427 559L423.3 555.8L419.9 552.4L416.5 548.8L413.3 545L410.3 541.1L407.4 536.9L404.7 532.5L402.3 528L400 523.3L397.9 518.5L396.1 513.5L394.5 508.4L393.1 503.1L392 497.8L391.2 492.3L390.6 486.7L390.4 481.1L390.3 475.4L390.6 469.6L391.2 463.8L392.1 458L393.2 452.2L394.7 446.4L396.5 440.6L398.6 434.9L401 429.2" opacity="0.13"/><path d="M500 500.1L500 500.1L500 500.1L499.9 500.1L499.9 500.1L499.9 500.1L499.9 500.1L499.9 500.1L499.9 500.1L499.9 500.1L499.9 500.1L499.9 500.1L499.9 500.1L499.9 500.1L499.9 500.1L499.9 500.1L499.9 500.1L499.9 500.1L499.9 500.1L499.9 500L499.9 500L499.9 500L499.9 500L499.8 500L499.8 500L499.8 500L499.8 500L499.8 500L499.8 500L499.8 500L499.8 500L499.8 500L499.8 499.9L499.8 499.9L499.8 499.9L499.8 499.9L499.9 499.9L499.9 499.9L499.9 499.9L499.9 499.9L499.9 499.9L499.9 499.9L499.9 499.9L499.9 499.9L499.9 499.8L499.9 499.8L499.9 499.8L499.9 499.8L499.9 499.8L499.9 499.8L499.9 499.8L499.9 499.8L500 499.8L500 499.8L500 499.8L500 499.8L500 499.8L500 499.8L500 499.8L500 499.8L500 499.8L500 499.8L500.1 499.8L500.1 499.8L500.1 499.8L500.1 499.8L500.1 499.8L500.1 499.8L500.1 499.8L500.1 499.8L500.2 499.8L500.2 499.8L500.2 499.8L500.2 499.8L500.2 499.8L500.2 499.8L500.2 499.9L500.2 499.9L500.2 499.9L500.2 499.9L500.2 499.9L500.3 499.9L500.3 499.9L500.3 499.9L500.3 499.9L500.3 500L500.3 500L500.3 500L500.3 500L500.3 500L500.3 500L500.3 500L500.3 500.1L500.3 500.1L500.3 500.1L500.3 500.1L500.3 500.1L500.3 500.1L500.3 500.2L500.3 500.2L500.3 500.2L500.3 500.2L500.3 500.2L500.2 500.2L500.2 500.2L500.2 500.3L500.2 500.3L500.2 500.3L500.2 500.3L500.2 500.3L500.2 500.3L500.1 500.3L500.1 500.3L500.1 500.4L500.1 500.4L500.1 500.4L500.1 500.4L500 500.4L500 500.4L500 500.4L500 500.4L500 500.4L499.9 500.4L499.9 500.4L499.9 500.4L499.9 500.4L499.9 500.4L499.8 500.4L499.8 500.4L499.8 500.4L499.8 500.4L499.8 500.4L499.7 500.4L499.7 500.4L499.7 500.3L499.7 500.3L499.7 500.3L499.6 500.3L499.6 500.3L499.6 500.3L499.6 500.3L499.6 500.2L499.5 500.2L499.5 500.2L499.5 500.2L499.5 500.1L499.5 500.1L499.5 500.1L499.5 500.1L499.5 500L499.5 500L499.5 500L499.4 500L499.4 499.9L499.4 499.9L499.4 499.9L499.4 499.9L499.4 499.8L499.4 499.8L499.5 499.8L499.5 499.7L499.5 499.7L499.5 499.7L499.5 499.6L499.5 499.6L499.5 499.6L499.5 499.6L499.6 499.5L499.6 499.5L499.6 499.5L499.6 499.5L499.6 499.4L499.7 499.4L499.7 499.4L499.7 499.4L499.8 499.3L499.8 499.3L499.8 499.3L499.8 499.3L499.9 499.3L499.9 499.3L500 499.3L500 499.3L500 499.2L500.1 499.2L500.1 499.2L500.1 499.2L500.2 499.2L500.2 499.2L500.3 499.2L500.3 499.2L500.3 499.3L500.4 499.3L500.4 499.3L500.5 499.3L500.5 499.3L500.5 499.3L500.6 499.4L500.6 499.4L500.7 499.4L500.7 499.4L500.7 499.5L500.8 499.5L500.8 499.5L500.8 499.6L500.9 499.6L500.9 499.6L500.9 499.7L500.9 499.7L501 499.8L501 499.8L501 499.9L501 499.9L501 500L501 500L501 500.1L501 500.1L501 500.2L501 500.2L501 500.3L501 500.3L501 500.4L501 500.5L501 500.5L501 500.6L501 500.6L500.9 500.7L500.9 500.7L500.9 500.8L500.9 500.8L500.8 500.9L500.8 500.9L500.8 501L500.7 501L500.7 501.1L500.6 501.1L500.6 501.2L500.5 501.2L500.5 501.2L500.4 501.3L500.3 501.3L500.3 501.3L500.2 501.4L500.1 501.4L500.1 501.4L500 501.4L499.9 501.4L499.9 501.4L499.8 501.4L499.7 501.4L499.6 501.4L499.6 501.4L499.5 501.4L499.4 501.4L499.3 501.4L499.3 501.4L499.2 501.3L499.1 501.3L499 501.3L499 501.2L498.9 501.2L498.8 501.2L498.7 501.1L498.7 501.1L498.6 501L498.6 500.9L498.5 500.9L498.4 500.8L498.4 500.7L498.3 500.7L498.3 500.6L498.2 500.5L498.2 500.4L498.2 500.3L498.1 500.2L498.1 500.1L498.1 500L498.1 499.9L498 499.8L498 499.7L498 499.6L498 499.5L498 499.4L498.1 499.3L498.1 499.2L498.1 499.1L498.1 499L498.1 498.9L498.2 498.8L498.2 498.7L498.3 498.6L498.3 498.5L498.4 498.4L498.5 498.3L498.5 498.2L498.6 498.1L498.7 498.1L498.8 498L498.9 497.9L499 497.8L499.1 497.7L499.2 497.7L499.3 497.6L499.4 497.6L499.5 497.5L499.6 497.5L499.8 497.4L499.9 497.4L500 497.4L500.1 497.3L500.3 497.3L500.4 497.3L500.6 497.3L500.7 497.3L500.8 497.3L501 497.3L501.1 497.4L501.3 497.4L501.4 497.4L501.6 497.5L501.7 497.6L501.8 497.6L502 497.7L502.1 497.8L502.2 497.9L502.4 497.9L502.5 498L502.6 498.2L502.7 498.3L502.8 498.4L502.9 498.5L503 498.7L503.1 498.8L503.2 498.9L503.3 499.1L503.4 499.3L503.4 499.4L503.5 499.6L503.6 499.8L503.6 499.9L503.6 500.1L503.7 500.3L503.7 500.5L503.7 500.7L503.7 500.9L503.7 501.1L503.6 501.3L503.6 501.5L503.6 501.7L503.5 501.9L503.5 502.1L503.4 502.2L503.3 502.4L503.2 502.6L503.1 502.8L503 503L502.9 503.2L502.7 503.3L502.6 503.5L502.4 503.7L502.3 503.8L502.1 504L501.9 504.1L501.7 504.2L501.5 504.4L501.3 504.5L501.1 504.6L500.9 504.7L500.7 504.8L500.4 504.8L500.2 504.9L499.9 505L499.7 505L499.4 505L499.2 505L498.9 505L498.6 505L498.4 505L498.1 505L497.8 504.9L497.6 504.9L497.3 504.8L497 504.7L496.8 504.6L496.5 504.4L496.3 504.3L496 504.2L495.8 504L495.5 503.8L495.3 503.6L495.1 503.4L494.9 503.2L494.6 503L494.4 502.7L494.3 502.5L494.1 502.2L493.9 501.9L493.8 501.6L493.6 501.3L493.5 501L493.4 500.7L493.3 500.4L493.2 500L493.2 499.7L493.1 499.4L493.1 499L493.1 498.6L493.1 498.3L493.1 497.9L493.2 497.6L493.2 497.2L493.3 496.8L493.4 496.5L493.5 496.1L493.7 495.7L493.8 495.4L494 495L494.2 494.7L494.4 494.3L494.7 494L494.9 493.7L495.2 493.4L495.5 493.1L495.8 492.8L496.1 492.5L496.5 492.2L496.8 492L497.2 491.8L497.6 491.6L498 491.4L498.4 491.2L498.9 491L499.3 490.9L499.8 490.8L500.2 490.7L500.7 490.6L501.2 490.6L501.7 490.5L502.1 490.5L502.6 490.6L503.1 490.6L503.6 490.7L504.1 490.8L504.6 490.9L505.1 491.1L505.6 491.3L506.1 491.5L506.6 491.7L507.1 492L507.6 492.3L508 492.6L508.5 492.9L508.9 493.3L509.3 493.7L509.7 494.1L510.1 494.5L510.5 495L510.8 495.5L511.1 496L511.4 496.5L511.7 497L512 497.6L512.2 498.2L512.4 498.8L512.6 499.4L512.7 500L512.8 500.7L512.9 501.3L512.9 502L513 502.7L512.9 503.3L512.9 504L512.8 504.7L512.7 505.4L512.5 506.1L512.3 506.8L512.1 507.4L511.8 508.1L511.5 508.8L511.2 509.4L510.8 510.1L510.4 510.7L509.9 511.3L509.4 511.9L508.9 512.5L508.4 513.1L507.8 513.6L507.1 514.1L506.5 514.6L505.8 515.1L505.1 515.5L504.4 515.9L503.6 516.2L502.8 516.6L502 516.9L501.2 517.1L500.3 517.3L499.5 517.5L498.6 517.6L497.7 517.7L496.7 517.7L495.8 517.7L494.9 517.7L494 517.6L493 517.4L492.1 517.2L491.1 517L490.2 516.7L489.3 516.3L488.4 515.9L487.5 515.5L486.6 515L485.7 514.4L484.8 513.8L484 513.2L483.2 512.5L482.4 511.8L481.7 511L481 510.1L480.3 509.3L479.6 508.4L479 507.4L478.5 506.4L478 505.4L477.5 504.3L477.1 503.2L476.7 502.1L476.4 500.9L476.1 499.7L476 498.5L475.8 497.3L475.7 496.1L475.7 494.8L475.8 493.5L475.9 492.3L476.1 491L476.3 489.7L476.6 488.4L477 487.1L477.4 485.8L478 484.6L478.6 483.3L479.2 482.1L479.9 480.9L480.7 479.7L481.6 478.6L482.5 477.4L483.5 476.4L484.5 475.3L485.6 474.3L486.8 473.4L488 472.5L489.3 471.6L490.7 470.8L492 470.1L493.5 469.4L495 468.8L496.5 468.3L498.1 467.9L499.7 467.5L501.3 467.2L503 467L504.7 466.8L506.4 466.8L508.1 466.8L509.9 466.9L511.6 467.1L513.4 467.4L515.2 467.8L516.9 468.3L518.7 468.9L520.4 469.5L522.1 470.3L523.8 471.1L525.5 472.1L527.1 473.1L528.7 474.3L530.3 475.5L531.8 476.8L533.2 478.2L534.6 479.7L535.9 481.3L537.2 482.9L538.4 484.6L539.5 486.4L540.5 488.3L541.5 490.2L542.3 492.3L543.1 494.3L543.8 496.4L544.3 498.6L544.8 500.9L545.1 503.1L545.4 505.4L545.5 507.8L545.5 510.1L545.4 512.5L545.2 514.9L544.8 517.3L544.3 519.7L543.7 522.2L543 524.6L542.1 526.9L541.1 529.3L540 531.6L538.8 533.9L537.4 536.2L535.9 538.4L534.3 540.5L532.5 542.6L530.7 544.6L528.7 546.6L526.6 548.4L524.4 550.2L522 551.9L519.6 553.4L517.1 554.9L514.5 556.3L511.8 557.5L509 558.6L506.1 559.5L503.1 560.4L500.1 561.1L497 561.6L493.9 562L490.7 562.2L487.5 562.3L484.2 562.2L480.9 562L477.7 561.6L474.3 561L471 560.2L467.8 559.3L464.5 558.2L461.2 556.9L458 555.4L454.8 553.8L451.7 552L448.7 550L445.7 547.9L442.8 545.5L440 543.1L437.3 540.4L434.7 537.6L432.3 534.6L429.9 531.5L427.7 528.3L425.6 524.9L423.7 521.3L422 517.7L420.4 513.9L419 510L417.8 506L416.8 501.9L415.9 497.7L415.3 493.4L414.9 489.1L414.7 484.7L414.7 480.3L415 475.8L415.5 471.3L416.2 466.8L417.1 462.2L418.3 457.7L419.7 453.2L421.4 448.8L423.2 444.3L425.4 440L427.8 435.7L430.4 431.5L433.2 427.4L436.3 423.3L439.6 419.5L443.1 415.7L446.9 412.1L450.9 408.6L455.1 405.3L459.4 402.2L464 399.3L468.8 396.6L473.7 394.2L478.8 391.9L484.1 389.9L489.5 388.1L495.1 386.6L500.8 385.4L506.6 384.4L512.4 383.7L518.4 383.3L524.5 383.2L530.6 383.4L536.7 383.9" opacity="0.13"/></g></svg>