<svg xmlns="http://www.w3.org/2000/svg" viewBox="0 0 1000 1000" preserveAspectRatio="xMidYMid slice" fill="none" stroke-linecap="round" stroke-linejoin="round"><g stroke="#0f3d2e" stroke-width="1"><path d="M499.9 500L499.9 500L499.9 500L499.9 500L499.9 500L499.9 500L499.9 500L499.9 500L499.9 500L499.9 500L499.9 499.9L499.9 499.9L499.9 499.9L499.9 499.9L499.9 499.9L499.9 499.9L499.9 499.9L499.9 499.9L499.9 499.9L499.9 499.9L499.9 499.9L499.9 499.9L499.9 499.9L499.9 499.9L500 499.9L500 499.9L500 499.9L500 499.9L500 499.9L500 499.9L500 499.9L500 499.9L500 499.9L500 499.9L500 499.9L500 499.9L500 499.9L500 499.9L500 499.9L500.1 499.9L500.1 499.9L500.1 499.9L500.1 499.9L500.1 499.9L500.1 499.9L500.1 499.9L500.1 499.9L500.1 499.9L500.1 499.9L500.1 499.9L500.1 499.9L500.1 499.9L500.2 499.9L500.2 499.9L500.2 499.9L500.2 499.9L500.2 499.9L500.2 499.9L500.2 500L500.2 500L500.2 500L500.2 500L500.2 500L500.2 500L500.2 500L500.2 500L500.2 500L500.2 500L500.2 500.1L500.2 500.1L500.2 500.1L500.2 500.1L500.2 500.1L500.2 500.1L500.2 500.1L500.2 500.1L500.2 500.1L500.2 500.2L500.2 500.2L500.2 500.2L500.2 500.2L500.2 500.2L500.1 500.2L500.1 500.2L500.1 500.2L500.1 500.2L500.1 500.2L500.1 500.2L500.1 500.3L500.1 500.3L500.1 500.3L500 500.3L500 500.3L500 500.3L500 500.3L500 500.3L500 500.3L500 500.3L499.9 500.3L499.9 500.3L499.9 500.3L499.9 500.3L499.9 500.3L499.9 500.3L499.9 500.3L499.8 500.3L499.8 500.3L499.8 500.3L499.8 500.3L499.8 500.2L499.8 500.2L499.7 500.2L499.7 500.2L499.7 500.2L499.7 500.2L499.7 500.2L499.7 500.2L499.7 500.2L499.7 500.1L499.6 500.1L499.6 500.1L499.6 500.1L499.6 500.1L499.6 500.1L499.6 500L499.6 500L499.6 500L499.6 500L499.6 500L499.6 499.9L499.6 499.9L499.6 499.9L499.6 499.9L499.6 499.8L499.6 499.8L499.6 499.8L499.6 499.8L499.6 499.8L499.6 499.7L499.6 499.7L499.6 499.7L499.7 499.7L499.7 499.7L499.7 499.6L499.7 499.6L499.7 499.6L499.7 499.6L499.8 499.6L499.8 499.5L499.8 499.5L499.8 499.5L499.8 499.5L499.9 499.5L499.9 499.5L499.9 499.5L499.9 499.4L500 499.4L500 499.4L500 499.4L500.1 499.4L500.1 499.4L500.1 499.4L500.1 499.4L500.2 499.4L500.2 499.4L500.2 499.4L500.3 499.4L500.3 499.4L500.3 499.5L500.4 499.5L500.4 499.5L500.4 499.5L500.5 499.5L500.5 499.5L500.5 499.5L500.5 499.6L500.6 499.6L500.6 499.6L500.6 499.6L500.6 499.7L500.7 499.7L500.7 499.7L500.7 499.8L500.7 499.8L500.7 499.8L500.8 499.9L500.8 499.9L500.8 499.9L500.8 500L500.8 500L500.8 500.1L500.8 500.1L500.8 500.1L500.8 500.2L500.8 500.2L500.8 500.3L500.8 500.3L500.8 500.4L500.8 500.4L500.8 500.5L500.8 500.5L500.7 500.5L500.7 500.6L500.7 500.6L500.7 500.7L500.7 500.7L500.6 500.7L500.6 500.8L500.6 500.8L500.5 500.9L500.5 500.9L500.4 500.9L500.4 501L500.4 501L500.3 501L500.3 501L500.2 501.1L500.2 501.1L500.1 501.1L500.1 501.1L500 501.1L499.9 501.1L499.9 501.2L499.8 501.2L499.8 501.2L499.7 501.2L499.6 501.2L499.6 501.1L499.5 501.1L499.5 501.1L499.4 501.1L499.3 501.1L499.3 501.1L499.2 501L499.1 501L499.1 501L499 500.9L499 500.9L498.9 500.9L498.9 500.8L498.8 500.8L498.8 500.7L498.7 500.6L498.7 500.6L498.6 500.5L498.6 500.5L498.5 500.4L498.5 500.3L498.5 500.3L498.5 500.2L498.4 500.1L498.4 500L498.4 499.9L498.4 499.9L498.4 499.8L498.4 499.7L498.4 499.6L498.4 499.5L498.4 499.4L498.4 499.3L498.4 499.3L498.4 499.2L498.5 499.1L498.5 499L498.5 498.9L498.6 498.8L498.6 498.7L498.7 498.7L498.7 498.6L498.8 498.5L498.8 498.4L498.9 498.3L499 498.3L499.1 498.2L499.1 498.1L499.2 498.1L499.3 498L499.4 498L499.5 497.9L499.6 497.9L499.7 497.8L499.8 497.8L499.9 497.8L500 497.7L500.1 497.7L500.3 497.7L500.4 497.7L500.5 497.7L500.6 497.7L500.7 497.7L500.9 497.7L501 497.7L501.1 497.8L501.2 497.8L501.4 497.8L501.5 497.9L501.6 497.9L501.7 498L501.8 498.1L502 498.1L502.1 498.2L502.2 498.3L502.3 498.4L502.4 498.5L502.5 498.6L502.6 498.7L502.7 498.8L502.8 499L502.8 499.1L502.9 499.2L503 499.4L503 499.5L503.1 499.7L503.1 499.8L503.2 500L503.2 500.1L503.2 500.3L503.3 500.5L503.3 500.6L503.3 500.8L503.3 501L503.2 501.2L503.2 501.3L503.2 501.5L503.1 501.7L503.1 501.9L503 502L502.9 502.2L502.9 502.4L502.8 502.5L502.7 502.7L502.6 502.9L502.4 503L502.3 503.2L502.2 503.3L502 503.5L501.9 503.6L501.7 503.7L501.5 503.8L501.4 504L501.2 504.1L501 504.2L500.8 504.3L500.6 504.3L500.3 504.4L500.1 504.5L499.9 504.5L499.7 504.6L499.4 504.6L499.2 504.6L499 504.6L498.7 504.6L498.5 504.6L498.2 504.6L498 504.5L497.7 504.5L497.5 504.4L497.2 504.3L497 504.2L496.8 504.1L496.5 504L496.3 503.8L496.1 503.7L495.8 503.5L495.6 503.3L495.4 503.1L495.2 502.9L495 502.7L494.8 502.5L494.6 502.3L494.5 502L494.3 501.8L494.2 501.5L494 501.2L493.9 500.9L493.8 500.6L493.7 500.3L493.6 500L493.6 499.7L493.5 499.3L493.5 499L493.5 498.7L493.5 498.3L493.5 498L493.5 497.6L493.6 497.3L493.7 496.9L493.8 496.6L493.9 496.2L494 495.9L494.2 495.6L494.3 495.2L494.5 494.9L494.7 494.6L494.9 494.2L495.2 493.9L495.4 493.6L495.7 493.3L496 493L496.3 492.8L496.7 492.5L497 492.3L497.4 492L497.7 491.8L498.1 491.6L498.5 491.5L498.9 491.3L499.4 491.2L499.8 491.1L500.3 491L500.7 490.9L501.2 490.8L501.7 490.8L502.2 490.8L502.6 490.8L503.1 490.9L503.6 490.9L504.1 491L504.6 491.1L505.1 491.3L505.6 491.5L506.1 491.7L506.6 491.9L507 492.1L507.5 492.4L508 492.7L508.4 493L508.8 493.4L509.3 493.8L509.7 494.2L510.1 494.6L510.4 495.1L510.8 495.6L511.1 496.1L511.4 496.6L511.7 497.1L512 497.7L512.2 498.3L512.4 498.9L512.6 499.5L512.7 500.1L512.8 500.8L512.9 501.4L513 502.1L513 502.8L513 503.4L512.9 504.1L512.9 504.8L512.7 505.5L512.6 506.2L512.4 506.9L512.2 507.6L511.9 508.3L511.6 509L511.3 509.7L510.9 510.3L510.5 511L510 511.6L509.5 512.2L509 512.8L508.4 513.4L507.9 514L507.2 514.5L506.6 515L505.9 515.5L505.1 515.9L504.4 516.4L503.6 516.7L502.8 517.1L502 517.4L501.1 517.7L500.2 517.9L499.3 518.1L498.4 518.2L497.5 518.3L496.5 518.4L495.5 518.4L494.6 518.3L493.6 518.2L492.6 518.1L491.6 517.9L490.6 517.6L489.7 517.3L488.7 517L487.7 516.6L486.7 516.1L485.8 515.6L484.9 515L484 514.4L483.1 513.8L482.2 513L481.4 512.3L480.6 511.4L479.8 510.6L479.1 509.7L478.4 508.7L477.7 507.7L477.1 506.6L476.6 505.6L476.1 504.4L475.6 503.3L475.2 502.1L474.8 500.8L474.6 499.6L474.3 498.3L474.2 497L474.1 495.6L474 494.3L474.1 492.9L474.2 491.5L474.4 490.1L474.6 488.7L474.9 487.3L475.3 486L475.8 484.6L476.3 483.2L476.9 481.8L477.6 480.5L478.4 479.2L479.2 477.9L480.2 476.6L481.1 475.4L482.2 474.2L483.3 473L484.5 471.9L485.8 470.9L487.1 469.9L488.5 468.9L490 468L491.5 467.2L493.1 466.5L494.7 465.8L496.4 465.2L498.1 464.7L499.9 464.2L501.7 463.9L503.5 463.6L505.4 463.4L507.3 463.3L509.2 463.3L511.2 463.4L513.1 463.7L515.1 464L517.1 464.4L519 464.9L521 465.5L522.9 466.2L524.9 467L526.8 468L528.7 469L530.5 470.2L532.3 471.4L534.1 472.8L535.8 474.2L537.4 475.8L539 477.4L540.5 479.2L542 481L543.4 483L544.7 485L545.8 487.1L546.9 489.3L547.9 491.6L548.8 493.9L549.6 496.3L550.3 498.8L550.9 501.3L551.3 503.9L551.6 506.5L551.8 509.2L551.8 511.9L551.7 514.6L551.5 517.4L551.1 520.2L550.6 522.9L549.9 525.7L549.1 528.5L548.2 531.3L547.1 534L545.8 536.7L544.4 539.4L542.8 542L541.1 544.6L539.3 547.1L537.3 549.6L535.2 551.9L532.9 554.2L530.5 556.4L527.9 558.5L525.2 560.5L522.4 562.3L519.5 564.1L516.4 565.7L513.3 567.2L510 568.5L506.6 569.7L503.2 570.7L499.7 571.5L496 572.2L492.3 572.7L488.6 573.1L484.8 573.2L480.9 573.2L477.1 572.9L473.1 572.5L469.2 571.8L465.3 571L461.4 569.9L457.5 568.6L453.6 567.2L449.7 565.5L445.9 563.6L442.2 561.5L438.5 559.1L434.9 556.6L431.4 553.9L428 550.9L424.7 547.8L421.6 544.5L418.6 540.9L415.7 537.2L413 533.3L410.5 529.3L408.1 525L405.9 520.6L404 516.1L402.2 511.4L400.7 506.6L399.4 501.6L398.3 496.5L397.5 491.4L396.9 486.1L396.6 480.8L396.6 475.3L396.8 469.9L397.3 464.4L398.1 458.8L399.2 453.3L400.6 447.7L402.2 442.2L404.2 436.7L406.5 431.2L409 425.8L411.9 420.5L415 415.3L418.5 410.1L422.2 405.1L426.3 400.3L430.6 395.6L435.2 391.1L440 386.7L445.2 382.6L450.6 378.6L456.2 375L462.1 371.5L468.2 368.4L474.6 365.5L481.1 362.9L487.9 360.6L494.8 358.6L501.9 356.9L509.1 355.6L516.5 354.7L524 354.1L531.6 353.9L539.3 354L547.1 354.6L554.9 355.6L562.7 356.9L570.6 358.7L578.4 360.9L586.2 363.5L594 366.5L601.6 369.9L609.2 373.8L616.7 378.1L624 382.8L631.1 387.9L638 393.4L644.8 399.3L651.3 405.7L657.5 412.4L663.5 419.5L669.2 427L674.5 434.8L679.5 443L684.2 451.5L688.4 460.3L692.3 469.5L695.7 478.9L698.7 488.6L701.2 498.5" opacity="0.13"/><path d="M499.9 499.9L500 499.9L500 499.9L500 499.9L500 499.9L500 499.9L500 499.9L500 499.9L500 499.9L500 499.9L500 499.9L500 499.9L500 499.9L500 499.9L500 499.9L500 499.9L500 499.9L500 499.9L500 499.9L500.1 499.9L500.1 499.9L500.1 499.9L500.1 499.9L500.1 499.9L500.1 499.9L500.1 499.9L500.1 499.9L500.1 499.9L500.1 499.9L500.1 499.9L500.1 499.9L500.1 499.9L500.1 499.9L500.1 499.9L500.1 499.9L500.1 500L500.1 500L500.1 500L500.1 500L500.2 500L500.2 500L500.2 500L500.2 500L500.2 500L500.2 500L500.2 500L500.2 500L500.2 500L500.2 500.1L500.2 500.1L500.2 500.1L500.2 500.1L500.2 500.1L500.2 500.1L500.1 500.1L500.1 500.1L500.1 500.1L500.1 500.1L500.1 500.1L500.1 500.1L500.1 500.2L500.1 500.2L500.1 500.2L500.1 500.2L500.1 500.2L500.1 500.2L500.1 500.2L500.1 500.2L500.1 500.2L500 500.2L500 500.2L500 500.2L500 500.2L500 500.2L500 500.2L500 500.2L500 500.2L500 500.2L499.9 500.2L499.9 500.2L499.9 500.2L499.9 500.2L499.9 500.2L499.9 500.2L499.9 500.2L499.9 500.2L499.8 500.2L499.8 500.2L499.8 500.2L499.8 500.2L499.8 500.2L499.8 500.2L499.8 500.2L499.8 500.2L499.8 500.1L499.7 500.1L499.7 500.1L499.7 500.1L499.7 500.1L499.7 500.1L499.7 500.1L499.7 500.1L499.7 500L499.7 500L499.7 500L499.7 500L499.7 500L499.7 500L499.7 499.9L499.7 499.9L499.7 499.9L499.7 499.9L499.7 499.9L499.7 499.9L499.7 499.8L499.7 499.8L499.7 499.8L499.7 499.8L499.7 499.8L499.7 499.8L499.7 499.7L499.7 499.7L499.8 499.7L499.8 499.7L499.8 499.7L499.8 499.7L499.8 499.6L499.8 499.6L499.8 499.6L499.9 499.6L499.9 499.6L499.9 499.6L499.9 499.6L499.9 499.6L500 499.6L500 499.6L500 499.6L500 499.5L500 499.5L500.1 499.5L500.1 499.5L500.1 499.5L500.1 499.5L500.2 499.5L500.2 499.5L500.2 499.6L500.2 499.6L500.3 499.6L500.3 499.6L500.3 499.6L500.3 499.6L500.4 499.6L500.4 499.6L500.4 499.6L500.4 499.7L500.4 499.7L500.5 499.7L500.5 499.7L500.5 499.7L500.5 499.8L500.5 499.8L500.6 499.8L500.6 499.8L500.6 499.9L500.6 499.9L500.6 499.9L500.6 500L500.6 500L500.6 500L500.6 500L500.6 500.1L500.7 500.1L500.7 500.1L500.6 500.2L500.6 500.2L500.6 500.3L500.6 500.3L500.6 500.3L500.6 500.4L500.6 500.4L500.6 500.4L500.6 500.5L500.6 500.5L500.5 500.5L500.5 500.6L500.5 500.6L500.5 500.6L500.4 500.7L500.4 500.7L500.4 500.7L500.4 500.7L500.3 500.8L500.3 500.8L500.2 500.8L500.2 500.8L500.2 500.8L500.1 500.9L500.1 500.9L500 500.9L500 500.9L500 500.9L499.9 500.9L499.9 500.9L499.8 500.9L499.8 500.9L499.7 500.9L499.7 500.9L499.6 500.9L499.6 500.9L499.5 500.9L499.5 500.9L499.4 500.8L499.4 500.8L499.3 500.8L499.3 500.8L499.2 500.7L499.2 500.7L499.1 500.7L499.1 500.6L499.1 500.6L499 500.6L499 500.5L498.9 500.5L498.9 500.4L498.9 500.4L498.8 500.3L498.8 500.3L498.8 500.2L498.8 500.1L498.8 500.1L498.7 500L498.7 500L498.7 499.9L498.7 499.8L498.7 499.8L498.7 499.7L498.7 499.6L498.7 499.6L498.7 499.5L498.7 499.4L498.8 499.3L498.8 499.3L498.8 499.2L498.8 499.1L498.9 499.1L498.9 499L498.9 498.9L499 498.9L499 498.8L499.1 498.8L499.1 498.7L499.2 498.6L499.2 498.6L499.3 498.5L499.4 498.5L499.4 498.4L499.5 498.4L499.6 498.3L499.7 498.3L499.8 498.3L499.8 498.3L499.9 498.2L500 498.2L500.1 498.2L500.2 498.2L500.3 498.2L500.4 498.2L500.5 498.2L500.6 498.2L500.7 498.2L500.8 498.2L500.9 498.2L501 498.3L501.1 498.3L501.2 498.3L501.3 498.4L501.4 498.4L501.5 498.5L501.6 498.5L501.6 498.6L501.7 498.7L501.8 498.7L501.9 498.8L502 498.9L502 499L502.1 499.1L502.2 499.2L502.3 499.3L502.3 499.4L502.4 499.5L502.4 499.6L502.5 499.7L502.5 499.8L502.5 500L502.6 500.1L502.6 500.2L502.6 500.4L502.6 500.5L502.6 500.6L502.6 500.8L502.6 500.9L502.6 501L502.5 501.2L502.5 501.3L502.4 501.5L502.4 501.6L502.3 501.7L502.3 501.9L502.2 502L502.1 502.1L502 502.3L501.9 502.4L501.8 502.5L501.7 502.6L501.6 502.7L501.5 502.9L501.4 503L501.2 503.1L501.1 503.1L500.9 503.2L500.8 503.3L500.6 503.4L500.5 503.4L500.3 503.5L500.1 503.5L499.9 503.6L499.8 503.6L499.6 503.6L499.4 503.7L499.2 503.7L499 503.7L498.8 503.6L498.6 503.6L498.4 503.6L498.2 503.5L498 503.5L497.8 503.4L497.6 503.3L497.4 503.3L497.2 503.2L497.1 503L496.9 502.9L496.7 502.8L496.5 502.7L496.4 502.5L496.2 502.3L496 502.2L495.9 502L495.7 501.8L495.6 501.6L495.5 501.4L495.4 501.2L495.3 501L495.2 500.7L495.1 500.5L495 500.3L494.9 500L494.9 499.8L494.9 499.5L494.8 499.2L494.8 499L494.8 498.7L494.8 498.4L494.9 498.1L494.9 497.9L495 497.6L495 497.3L495.1 497L495.2 496.8L495.4 496.5L495.5 496.2L495.6 496L495.8 495.7L496 495.4L496.2 495.2L496.4 494.9L496.6 494.7L496.8 494.5L497.1 494.3L497.3 494.1L497.6 493.9L497.9 493.7L498.2 493.5L498.5 493.4L498.8 493.2L499.1 493.1L499.5 493L499.8 492.9L500.2 492.8L500.6 492.8L500.9 492.7L501.3 492.7L501.7 492.7L502.1 492.7L502.5 492.7L502.9 492.8L503.2 492.9L503.6 493L504 493.1L504.4 493.2L504.8 493.4L505.2 493.5L505.6 493.7L505.9 494L506.3 494.2L506.7 494.5L507 494.7L507.3 495L507.7 495.4L508 495.7L508.3 496.1L508.5 496.5L508.8 496.8L509 497.3L509.3 497.7L509.5 498.1L509.7 498.6L509.8 499.1L510 499.6L510.1 500.1L510.2 500.6L510.3 501.1L510.3 501.6L510.3 502.2L510.3 502.7L510.3 503.3L510.2 503.8L510.1 504.4L510 504.9L509.9 505.5L509.7 506L509.5 506.6L509.2 507.1L509 507.6L508.7 508.2L508.3 508.7L508 509.2L507.6 509.7L507.2 510.2L506.7 510.6L506.3 511.1L505.8 511.5L505.2 511.9L504.7 512.3L504.1 512.6L503.5 513L502.9 513.3L502.3 513.6L501.6 513.8L500.9 514L500.2 514.2L499.5 514.4L498.8 514.5L498 514.5L497.3 514.6L496.5 514.6L495.7 514.6L495 514.5L494.2 514.4L493.4 514.2L492.6 514L491.8 513.8L491 513.5L490.3 513.2L489.5 512.8L488.8 512.4L488 512L487.3 511.5L486.6 511L485.9 510.4L485.3 509.8L484.6 509.1L484 508.4L483.4 507.7L482.9 507L482.3 506.2L481.9 505.3L481.4 504.5L481 503.6L480.6 502.6L480.3 501.7L480 500.7L479.8 499.7L479.6 498.7L479.5 497.6L479.4 496.6L479.4 495.5L479.4 494.4L479.5 493.3L479.6 492.2L479.8 491.1L480.1 490L480.4 488.9L480.7 487.8L481.2 486.7L481.7 485.6L482.2 484.6L482.8 483.5L483.5 482.5L484.2 481.5L485 480.5L485.8 479.5L486.7 478.6L487.7 477.8L488.7 476.9L489.7 476.1L490.8 475.4L492 474.7L493.2 474L494.4 473.4L495.7 472.9L497.1 472.4L498.4 472L499.8 471.6L501.3 471.3L502.7 471.1L504.2 470.9L505.7 470.9L507.2 470.9L508.8 471L510.3 471.1L511.9 471.4L513.5 471.7L515 472.1L516.6 472.6L518.1 473.1L519.7 473.8L521.2 474.5L522.7 475.3L524.1 476.3L525.6 477.2L527 478.3L528.3 479.5L529.7 480.7L530.9 482L532.1 483.4L533.3 484.8L534.4 486.4L535.4 488L536.4 489.7L537.2 491.4L538 493.2L538.8 495L539.4 497L539.9 498.9L540.4 500.9L540.7 503L541 505.1L541.1 507.2L541.2 509.3L541.1 511.5L540.9 513.7L540.6 515.9L540.2 518.1L539.7 520.3L539.1 522.5L538.3 524.7L537.4 526.9L536.4 529L535.3 531.2L534.1 533.3L532.8 535.3L531.3 537.3L529.7 539.2L528 541.1L526.2 543L524.3 544.7L522.3 546.4L520.2 547.9L517.9 549.4L515.6 550.8L513.2 552.1L510.7 553.3L508.1 554.3L505.4 555.3L502.7 556.1L499.9 556.8L497 557.3L494.1 557.8L491.1 558L488.1 558.1L485 558.1L482 557.9L478.8 557.6L475.7 557.1L472.6 556.4L469.5 555.6L466.4 554.6L463.3 553.4L460.2 552.1L457.2 550.6L454.2 548.9L451.3 547.1L448.5 545.1L445.7 542.9L443 540.6L440.4 538.1L437.9 535.5L435.5 532.7L433.2 529.7L431 526.7L429 523.4L427.1 520.1L425.4 516.6L423.8 513L422.4 509.3L421.2 505.4L420.1 501.5L419.3 497.5L418.6 493.4L418.2 489.2L417.9 485L417.9 480.7L418 476.3L418.4 471.9L419 467.5L419.9 463.1L421 458.7L422.3 454.3L423.8 450L425.6 445.6L427.6 441.3L429.9 437.1L432.4 432.9L435.1 428.9L438.1 424.9L441.3 421L444.7 417.3L448.3 413.7L452.2 410.2L456.2 406.9L460.5 403.8L465 400.9L469.6 398.1L474.5 395.6L479.5 393.3L484.7 391.2L490.1 389.3L495.6 387.8L501.2 386.4L506.9 385.4L512.8 384.6L518.8 384.1L524.8 383.9L530.9 384.1L537.1 384.5L543.3 385.2L549.5 386.3L555.7 387.7L561.9 389.4L568.1 391.4L574.3 393.8L580.4 396.5L586.4 399.6L592.3 403L598.1 406.7L603.8 410.7L609.3 415.1L614.7 419.8L619.9 424.8L624.8 430.1L629.6 435.7L634.1 441.7L638.4 447.9L642.4 454.3L646.1 461.1L649.5 468.1L652.6 475.3L655.3 482.8L657.7 490.5L659.7 498.4L661.4 506.4L662.6 514.6L663.5 523L663.9 531.5L663.9 540.1L663.5 548.7L662.6 557.5L661.3 566.3L659.6 575.1L657.3 583.9L654.6 592.6L651.5 601.4L647.8 610L643.7 618.5L639.1 627L634.1 635.2L628.6 643.3L622.6 651.2L616.1 658.9L609.3 666.4L601.9 673.5" opacity="0.13"/><path d="M500.1 499.9L500.1 499.9L500.1 499.9L500.1 499.9L500.1 499.9L500.1 499.9L500.1 499.9L500.1 499.9L500.1 499.9L500.1 499.9L500.1 499.9L500.1 499.9L500.1 500L500.1 500L500.1 500L500.1 500L500.1 500L500.1 500L500.1 500L500.1 500L500.1 500L500.1 500L500.1 500L500.1 500L500.1 500L500.1 500L500.1 500L500.1 500L500.1 500L500.1 500.1L500.1 500.1L500.1 500.1L500.1 500.1L500.1 500.1L500.1 500.1L500.1 500.1L500.1 500.1L500.1 500.1L500.1 500.1L500.1 500.1L500.1 500.1L500.1 500.1L500.1 500.1L500.1 500.1L500.1 500.1L500.1 500.2L500.1 500.2L500 500.2L500 500.2L500 500.2L500 500.2L500 500.2L500 500.2L500 500.2L500 500.2L500 500.2L500 500.2L500 500.2L499.9 500.2L499.9 500.2L499.9 500.2L499.9 500.2L499.9 500.2L499.9 500.2L499.9 500.2L499.9 500.2L499.9 500.2L499.9 500.2L499.9 500.2L499.8 500.1L499.8 500.1L499.8 500.1L499.8 500.1L499.8 500.1L499.8 500.1L499.8 500.1L499.8 500.1L499.8 500.1L499.8 500.1L499.8 500.1L499.8 500L499.8 500L499.8 500L499.7 500L499.7 500L499.7 500L499.7 500L499.7 500L499.7 499.9L499.7 499.9L499.7 499.9L499.7 499.9L499.7 499.9L499.7 499.9L499.8 499.9L499.8 499.8L499.8 499.8L499.8 499.8L499.8 499.8L499.8 499.8L499.8 499.8L499.8 499.8L499.8 499.8L499.8 499.7L499.8 499.7L499.8 499.7L499.9 499.7L499.9 499.7L499.9 499.7L499.9 499.7L499.9 499.7L499.9 499.7L499.9 499.7L500 499.7L500 499.6L500 499.6L500 499.6L500 499.6L500.1 499.6L500.1 499.6L500.1 499.6L500.1 499.6L500.1 499.6L500.1 499.6L500.2 499.6L500.2 499.6L500.2 499.7L500.2 499.7L500.2 499.7L500.3 499.7L500.3 499.7L500.3 499.7L500.3 499.7L500.3 499.7L500.4 499.7L500.4 499.8L500.4 499.8L500.4 499.8L500.4 499.8L500.4 499.8L500.4 499.8L500.5 499.9L500.5 499.9L500.5 499.9L500.5 499.9L500.5 500L500.5 500L500.5 500L500.5 500L500.5 500.1L500.5 500.1L500.5 500.1L500.5 500.1L500.5 500.2L500.5 500.2L500.5 500.2L500.5 500.3L500.5 500.3L500.5 500.3L500.5 500.3L500.5 500.4L500.4 500.4L500.4 500.4L500.4 500.4L500.4 500.5L500.4 500.5L500.4 500.5L500.3 500.5L500.3 500.6L500.3 500.6L500.3 500.6L500.2 500.6L500.2 500.6L500.2 500.7L500.1 500.7L500.1 500.7L500.1 500.7L500 500.7L500 500.7L500 500.7L499.9 500.7L499.9 500.7L499.9 500.7L499.8 500.7L499.8 500.7L499.7 500.7L499.7 500.7L499.7 500.7L499.6 500.7L499.6 500.7L499.5 500.7L499.5 500.7L499.5 500.6L499.4 500.6L499.4 500.6L499.4 500.6L499.3 500.5L499.3 500.5L499.3 500.5L499.2 500.4L499.2 500.4L499.2 500.4L499.1 500.3L499.1 500.3L499.1 500.3L499.1 500.2L499 500.2L499 500.1L499 500.1L499 500L499 500L499 499.9L499 499.9L499 499.8L499 499.8L499 499.7L499 499.7L499 499.6L499 499.5L499 499.5L499 499.4L499 499.4L499.1 499.3L499.1 499.3L499.1 499.2L499.1 499.2L499.2 499.1L499.2 499.1L499.3 499L499.3 499L499.3 498.9L499.4 498.9L499.4 498.8L499.5 498.8L499.6 498.8L499.6 498.7L499.7 498.7L499.7 498.7L499.8 498.6L499.9 498.6L499.9 498.6L500 498.6L500.1 498.6L500.2 498.6L500.2 498.5L500.3 498.5L500.4 498.5L500.5 498.5L500.5 498.6L500.6 498.6L500.7 498.6L500.8 498.6L500.9 498.6L500.9 498.7L501 498.7L501.1 498.7L501.2 498.8L501.2 498.8L501.3 498.9L501.4 498.9L501.4 499L501.5 499.1L501.6 499.1L501.6 499.2L501.7 499.3L501.7 499.3L501.8 499.4L501.8 499.5L501.9 499.6L501.9 499.7L501.9 499.8L502 499.9L502 500L502 500.1L502 500.2L502.1 500.3L502.1 500.4L502.1 500.5L502.1 500.6L502 500.7L502 500.8L502 500.9L502 501L501.9 501.2L501.9 501.3L501.9 501.4L501.8 501.5L501.8 501.6L501.7 501.7L501.6 501.8L501.5 501.9L501.5 502L501.4 502.1L501.3 502.2L501.2 502.3L501.1 502.3L501 502.4L500.9 502.5L500.7 502.6L500.6 502.6L500.5 502.7L500.4 502.7L500.2 502.8L500.1 502.8L500 502.8L499.8 502.9L499.7 502.9L499.5 502.9L499.4 502.9L499.2 502.9L499.1 502.9L498.9 502.9L498.7 502.8L498.6 502.8L498.4 502.8L498.3 502.7L498.1 502.7L498 502.6L497.8 502.5L497.7 502.4L497.5 502.3L497.4 502.2L497.2 502.1L497.1 502L497 501.9L496.9 501.7L496.7 501.6L496.6 501.4L496.5 501.3L496.4 501.1L496.3 501L496.2 500.8L496.2 500.6L496.1 500.4L496 500.2L496 500L496 499.8L495.9 499.6L495.9 499.4L495.9 499.2L495.9 499L495.9 498.8L495.9 498.5L496 498.3L496 498.1L496.1 497.9L496.1 497.7L496.2 497.4L496.3 497.2L496.4 497L496.5 496.8L496.7 496.6L496.8 496.4L496.9 496.2L497.1 496L497.3 495.8L497.5 495.6L497.7 495.5L497.9 495.3L498.1 495.1L498.3 495L498.5 494.9L498.8 494.7L499 494.6L499.3 494.5L499.6 494.4L499.9 494.4L500.1 494.3L500.4 494.3L500.7 494.2L501 494.2L501.3 494.2L501.6 494.2L501.9 494.2L502.2 494.3L502.6 494.3L502.9 494.4L503.2 494.5L503.5 494.6L503.8 494.7L504.1 494.9L504.4 495L504.7 495.2L505 495.4L505.3 495.6L505.5 495.8L505.8 496.1L506.1 496.3L506.3 496.6L506.5 496.9L506.8 497.2L507 497.5L507.2 497.8L507.4 498.1L507.5 498.5L507.7 498.9L507.8 499.2L507.9 499.6L508 500L508.1 500.4L508.2 500.8L508.2 501.3L508.2 501.7L508.2 502.1L508.2 502.6L508.1 503L508.1 503.4L508 503.9L507.8 504.3L507.7 504.8L507.5 505.2L507.3 505.6L507.1 506L506.9 506.5L506.6 506.9L506.4 507.3L506 507.7L505.7 508.1L505.4 508.4L505 508.8L504.6 509.1L504.2 509.4L503.8 509.7L503.3 510L502.8 510.3L502.3 510.5L501.8 510.8L501.3 511L500.8 511.1L500.2 511.3L499.6 511.4L499.1 511.5L498.5 511.5L497.9 511.6L497.3 511.6L496.6 511.6L496 511.5L495.4 511.4L494.8 511.3L494.2 511.1L493.5 511L492.9 510.7L492.3 510.5L491.7 510.2L491.1 509.9L490.5 509.5L489.9 509.1L489.4 508.7L488.8 508.3L488.3 507.8L487.8 507.3L487.3 506.7L486.9 506.2L486.4 505.6L486 504.9L485.6 504.3L485.3 503.6L484.9 502.9L484.6 502.1L484.4 501.4L484.2 500.6L484 499.8L483.8 499L483.7 498.2L483.6 497.3L483.6 496.5L483.6 495.6L483.7 494.7L483.8 493.9L484 493L484.2 492.1L484.4 491.2L484.7 490.4L485 489.5L485.4 488.6L485.8 487.8L486.3 487L486.8 486.1L487.4 485.3L488 484.6L488.7 483.8L489.4 483.1L490.2 482.4L491 481.7L491.8 481.1L492.7 480.5L493.6 479.9L494.5 479.4L495.5 478.9L496.5 478.5L497.6 478.1L498.7 477.7L499.8 477.5L500.9 477.2L502.1 477.1L503.3 476.9L504.5 476.9L505.7 476.9L506.9 476.9L508.1 477.1L509.4 477.2L510.6 477.5L511.9 477.8L513.1 478.2L514.3 478.6L515.5 479.2L516.8 479.7L517.9 480.4L519.1 481.1L520.3 481.9L521.4 482.7L522.5 483.6L523.5 484.6L524.5 485.6L525.5 486.7L526.4 487.9L527.3 489.1L528.1 490.4L528.8 491.7L529.5 493.1L530.2 494.5L530.8 496L531.3 497.5L531.7 499.1L532 500.6L532.3 502.3L532.5 503.9L532.7 505.6L532.7 507.3L532.6 509L532.5 510.8L532.3 512.5L532 514.3L531.6 516L531 517.8L530.5 519.5L529.8 521.3L529 523L528.1 524.7L527.1 526.3L526.1 527.9L524.9 529.5L523.7 531.1L522.3 532.6L520.9 534L519.4 535.4L517.8 536.8L516.1 538L514.3 539.2L512.5 540.3L510.6 541.3L508.6 542.3L506.5 543.1L504.4 543.9L502.3 544.5L500 545.1L497.8 545.5L495.4 545.9L493.1 546.1L490.7 546.2L488.3 546.2L485.8 546L483.3 545.7L480.9 545.4L478.4 544.8L475.9 544.2L473.4 543.4L471 542.5L468.6 541.4L466.2 540.2L463.8 538.9L461.5 537.5L459.2 535.9L457 534.2L454.8 532.3L452.8 530.4L450.8 528.3L448.8 526.1L447 523.8L445.3 521.3L443.7 518.8L442.2 516.1L440.8 513.3L439.6 510.5L438.4 507.5L437.5 504.5L436.6 501.4L435.9 498.2L435.4 494.9L435 491.6L434.8 488.2L434.8 484.8L434.9 481.4L435.2 477.9L435.7 474.4L436.3 470.9L437.2 467.4L438.2 463.9L439.4 460.4L440.8 457L442.4 453.6L444.2 450.2L446.2 446.9L448.3 443.7L450.7 440.5L453.2 437.4L455.9 434.5L458.8 431.6L461.8 428.8L465.1 426.2L468.4 423.7L472 421.4L475.7 419.2L479.5 417.2L483.5 415.3L487.6 413.7L491.9 412.2L496.2 410.9L500.7 409.9L505.3 409L509.9 408.4L514.6 408L519.4 407.8L524.3 407.9L529.2 408.2L534.1 408.8L539 409.6L544 410.7L548.9 412.1L553.8 413.7L558.7 415.6L563.6 417.7L568.4 420.1L573.1 422.8L577.7 425.7L582.2 428.9L586.6 432.4L590.9 436.1L595 440L598.9 444.2L602.7 448.7L606.3 453.4L609.7 458.3L612.9 463.4L615.9 468.8L618.6 474.3L621 480.1L623.2 486L625.1 492.1L626.8 498.3L628.1 504.7L629.1 511.2L629.8 517.9L630.2 524.6L630.2 531.4L629.9 538.3L629.2 545.3L628.2 552.2L626.8 559.2L625.1 566.2L623 573.2L620.5 580.1L617.6 587L614.3 593.8L610.7 600.5L606.7 607.1L602.4 613.5L597.6 619.8L592.5 625.9L587.1 631.8L581.3 637.5L575.1 642.9L568.6 648.1L561.8 653.1L554.7 657.7L547.3 662L539.5 666L531.5 669.6L523.3 672.8L514.8 675.7L506 678.2L497.1 680.2L488 681.9L478.7 683L469.2 683.7L459.6 684L449.9 683.8L440.1 683L430.3 681.8L420.4 680L410.6 677.8L400.7 675" opacity="0.13"/><path d="M500.1 500L500.1 500L500.1 500L500.1 500L500.1 500L500.1 500L500.1 500L500.1 500L500.1 500L500.1 500L500.1 500.1L500.1 500.1L500.1 500.1L500.1 500.1L500.1 500.1L500.1 500.1L500.1 500.1L500.1 500.1L500.1 500.1L500.1 500.1L500.1 500.1L500.1 500.1L500.1 500.1L500.1 500.1L500 500.1L500 500.1L500 500.1L500 500.1L500 500.1L500 500.1L500 500.1L500 500.1L500 500.1L500 500.1L500 500.1L500 500.1L500 500.1L500 500.1L500 500.1L499.9 500.1L499.9 500.1L499.9 500.1L499.9 500.1L499.9 500.1L499.9 500.1L499.9 500.1L499.9 500.1L499.9 500.1L499.9 500.1L499.9 500.1L499.9 500.1L499.9 500.1L499.8 500.1L499.8 500.1L499.8 500.1L499.8 500.1L499.8 500.1L499.8 500.1L499.8 500L499.8 500L499.8 500L499.8 500L499.8 500L499.8 500L499.8 500L499.8 500L499.8 500L499.8 500L499.8 499.9L499.8 499.9L499.8 499.9L499.8 499.9L499.8 499.9L499.8 499.9L499.8 499.9L499.8 499.9L499.8 499.9L499.8 499.8L499.8 499.8L499.8 499.8L499.8 499.8L499.8 499.8L499.9 499.8L499.9 499.8L499.9 499.8L499.9 499.8L499.9 499.8L499.9 499.8L499.9 499.7L499.9 499.7L499.9 499.7L500 499.7L500 499.7L500 499.7L500 499.7L500 499.7L500 499.7L500 499.7L500.1 499.7L500.1 499.7L500.1 499.7L500.1 499.7L500.1 499.7L500.1 499.7L500.1 499.7L500.2 499.7L500.2 499.7L500.2 499.7L500.2 499.7L500.2 499.8L500.2 499.8L500.3 499.8L500.3 499.8L500.3 499.8L500.3 499.8L500.3 499.8L500.3 499.8L500.3 499.8L500.3 499.9L500.4 499.9L500.4 499.9L500.4 499.9L500.4 499.9L500.4 499.9L500.4 500L500.4 500L500.4 500L500.4 500L500.4 500L500.4 500.1L500.4 500.1L500.4 500.1L500.4 500.1L500.4 500.2L500.4 500.2L500.4 500.2L500.4 500.2L500.4 500.2L500.4 500.3L500.4 500.3L500.4 500.3L500.3 500.3L500.3 500.3L500.3 500.4L500.3 500.4L500.3 500.4L500.3 500.4L500.2 500.4L500.2 500.5L500.2 500.5L500.2 500.5L500.2 500.5L500.1 500.5L500.1 500.5L500.1 500.5L500.1 500.6L500 500.6L500 500.6L500 500.6L499.9 500.6L499.9 500.6L499.9 500.6L499.9 500.6L499.8 500.6L499.8 500.6L499.8 500.6L499.7 500.6L499.7 500.6L499.7 500.5L499.6 500.5L499.6 500.5L499.6 500.5L499.5 500.5L499.5 500.5L499.5 500.5L499.5 500.4L499.4 500.4L499.4 500.4L499.4 500.4L499.4 500.3L499.3 500.3L499.3 500.3L499.3 500.2L499.3 500.2L499.3 500.2L499.2 500.1L499.2 500.1L499.2 500.1L499.2 500L499.2 500L499.2 499.9L499.2 499.9L499.2 499.9L499.2 499.8L499.2 499.8L499.2 499.7L499.2 499.7L499.2 499.6L499.2 499.6L499.2 499.5L499.2 499.5L499.3 499.5L499.3 499.4L499.3 499.4L499.3 499.3L499.3 499.3L499.4 499.3L499.4 499.2L499.4 499.2L499.5 499.1L499.5 499.1L499.6 499.1L499.6 499L499.6 499L499.7 499L499.7 499L499.8 498.9L499.8 498.9L499.9 498.9L499.9 498.9L500 498.9L500.1 498.9L500.1 498.8L500.2 498.8L500.2 498.8L500.3 498.8L500.4 498.8L500.4 498.9L500.5 498.9L500.5 498.9L500.6 498.9L500.7 498.9L500.7 498.9L500.8 499L500.9 499L500.9 499L501 499.1L501 499.1L501.1 499.1L501.1 499.2L501.2 499.2L501.2 499.3L501.3 499.4L501.3 499.4L501.4 499.5L501.4 499.5L501.5 499.6L501.5 499.7L501.5 499.7L501.5 499.8L501.6 499.9L501.6 500L501.6 500.1L501.6 500.1L501.6 500.2L501.6 500.3L501.6 500.4L501.6 500.5L501.6 500.6L501.6 500.7L501.6 500.7L501.6 500.8L501.5 500.9L501.5 501L501.5 501.1L501.4 501.2L501.4 501.3L501.3 501.3L501.3 501.4L501.2 501.5L501.2 501.6L501.1 501.7L501 501.7L500.9 501.8L500.9 501.9L500.8 501.9L500.7 502L500.6 502L500.5 502.1L500.4 502.1L500.3 502.2L500.2 502.2L500.1 502.2L500 502.3L499.9 502.3L499.7 502.3L499.6 502.3L499.5 502.3L499.4 502.3L499.3 502.3L499.1 502.3L499 502.3L498.9 502.2L498.8 502.2L498.6 502.2L498.5 502.1L498.4 502.1L498.3 502L498.2 501.9L498 501.9L497.9 501.8L497.8 501.7L497.7 501.6L497.6 501.5L497.5 501.4L497.4 501.3L497.3 501.2L497.2 501L497.2 500.9L497.1 500.8L497 500.6L497 500.5L496.9 500.3L496.9 500.2L496.8 500L496.8 499.9L496.8 499.7L496.7 499.5L496.7 499.4L496.7 499.2L496.7 499L496.8 498.8L496.8 498.7L496.8 498.5L496.9 498.3L496.9 498.1L497 498L497.1 497.8L497.1 497.6L497.2 497.5L497.3 497.3L497.4 497.1L497.6 497L497.7 496.8L497.8 496.7L498 496.5L498.1 496.4L498.3 496.3L498.5 496.2L498.6 496L498.8 495.9L499 495.8L499.2 495.7L499.4 495.7L499.7 495.6L499.9 495.5L500.1 495.5L500.3 495.4L500.6 495.4L500.8 495.4L501 495.4L501.3 495.4L501.5 495.4L501.8 495.4L502 495.5L502.3 495.5L502.5 495.6L502.8 495.7L503 495.8L503.2 495.9L503.5 496L503.7 496.2L503.9 496.3L504.2 496.5L504.4 496.7L504.6 496.9L504.8 497.1L505 497.3L505.2 497.5L505.4 497.7L505.5 498L505.7 498.2L505.8 498.5L506 498.8L506.1 499.1L506.2 499.4L506.3 499.7L506.4 500L506.4 500.3L506.5 500.7L506.5 501L506.5 501.3L506.5 501.7L506.5 502L506.5 502.4L506.4 502.7L506.3 503.1L506.2 503.4L506.1 503.8L506 504.1L505.8 504.4L505.7 504.8L505.5 505.1L505.3 505.4L505.1 505.8L504.8 506.1L504.6 506.4L504.3 506.7L504 507L503.7 507.2L503.3 507.5L503 507.7L502.6 508L502.3 508.2L501.9 508.4L501.5 508.5L501.1 508.7L500.6 508.8L500.2 508.9L499.7 509L499.3 509.1L498.8 509.2L498.3 509.2L497.8 509.2L497.4 509.2L496.9 509.1L496.4 509.1L495.9 509L495.4 508.9L494.9 508.7L494.4 508.5L493.9 508.3L493.4 508.1L493 507.9L492.5 507.6L492 507.3L491.6 507L491.2 506.6L490.7 506.2L490.3 505.8L489.9 505.4L489.6 504.9L489.2 504.4L488.9 503.9L488.6 503.4L488.3 502.9L488 502.3L487.8 501.7L487.6 501.1L487.4 500.5L487.3 499.9L487.2 499.2L487.1 498.6L487 497.9L487 497.2L487 496.6L487.1 495.9L487.1 495.2L487.3 494.5L487.4 493.8L487.6 493.1L487.8 492.4L488.1 491.7L488.4 491L488.7 490.3L489.1 489.7L489.5 489L490 488.4L490.5 487.8L491 487.2L491.6 486.6L492.1 486L492.8 485.5L493.4 485L494.1 484.5L494.9 484.1L495.6 483.6L496.4 483.3L497.2 482.9L498 482.6L498.9 482.3L499.8 482.1L500.7 481.9L501.6 481.8L502.5 481.7L503.5 481.6L504.5 481.6L505.4 481.7L506.4 481.8L507.4 481.9L508.4 482.1L509.4 482.4L510.3 482.7L511.3 483L512.3 483.4L513.3 483.9L514.2 484.4L515.1 485L516 485.6L516.9 486.2L517.8 487L518.6 487.7L519.4 488.6L520.2 489.4L520.9 490.3L521.6 491.3L522.3 492.3L522.9 493.4L523.4 494.4L523.9 495.6L524.4 496.7L524.8 497.9L525.2 499.2L525.4 500.4L525.7 501.7L525.8 503L525.9 504.4L526 505.7L525.9 507.1L525.8 508.5L525.6 509.9L525.4 511.3L525.1 512.7L524.7 514L524.2 515.4L523.7 516.8L523.1 518.2L522.4 519.5L521.6 520.8L520.8 522.1L519.8 523.4L518.9 524.6L517.8 525.8L516.7 527L515.5 528.1L514.2 529.1L512.9 530.1L511.5 531.1L510 532L508.5 532.8L506.9 533.5L505.3 534.2L503.6 534.8L501.9 535.3L500.1 535.8L498.3 536.1L496.5 536.4L494.6 536.6L492.7 536.7L490.8 536.7L488.8 536.6L486.9 536.3L484.9 536L482.9 535.6L481 535.1L479 534.5L477.1 533.8L475.1 533L473.2 532L471.3 531L469.5 529.8L467.7 528.6L465.9 527.2L464.2 525.8L462.6 524.2L461 522.6L459.5 520.8L458 519L456.6 517L455.3 515L454.2 512.9L453.1 510.7L452.1 508.4L451.2 506.1L450.4 503.7L449.7 501.2L449.1 498.7L448.7 496.1L448.4 493.5L448.2 490.8L448.2 488.1L448.3 485.4L448.5 482.6L448.9 479.8L449.4 477.1L450.1 474.3L450.9 471.5L451.8 468.7L452.9 466L454.2 463.3L455.6 460.6L457.2 458L458.9 455.4L460.7 452.9L462.7 450.4L464.8 448.1L467.1 445.8L469.5 443.6L472.1 441.5L474.8 439.5L477.6 437.7L480.5 435.9L483.6 434.3L486.7 432.8L490 431.5L493.4 430.3L496.8 429.3L500.3 428.5L504 427.8L507.7 427.3L511.4 426.9L515.2 426.8L519.1 426.8L522.9 427.1L526.9 427.5L530.8 428.2L534.7 429L538.6 430.1L542.5 431.4L546.4 432.8L550.3 434.5L554.1 436.4L557.8 438.5L561.5 440.9L565.1 443.4L568.6 446.1L572 449.1L575.3 452.2L578.4 455.5L581.4 459.1L584.3 462.8L587 466.7L589.5 470.7L591.9 475L594.1 479.4L596 483.9L597.8 488.6L599.3 493.4L600.6 498.4L601.7 503.5L602.5 508.6L603.1 513.9L603.4 519.2L603.4 524.7L603.2 530.1L602.7 535.6L601.9 541.2L600.8 546.7L599.4 552.3L597.8 557.8L595.8 563.3L593.5 568.8L591 574.2L588.1 579.5L585 584.7L581.5 589.9L577.8 594.9L573.7 599.7L569.4 604.4L564.8 608.9L560 613.3L554.8 617.4L549.4 621.4L543.8 625L537.9 628.5L531.8 631.6L525.4 634.5L518.9 637.1L512.1 639.4L505.2 641.4L498.1 643.1L490.9 644.4L483.5 645.3L476 645.9L468.4 646.1L460.7 646L452.9 645.4L445.1 644.4L437.3 643.1L429.4 641.3L421.6 639.1L413.8 636.5L406 633.5L398.4 630.1L390.8 626.2L383.3 621.9L376 617.2L368.9 612.1L362 606.6L355.2 600.7L348.7 594.3L342.5 587.6L336.5 580.5L330.8 573L325.5 565.2L320.5 557L315.8 548.5L311.6 539.7L307.7 530.5L304.3 521.1L301.3 511.4L298.8 501.5" opacity="0.13"/><path d="M500.1 500.1L500 500.1L500 500.1L500 500.1L500 500.1L500 500.1L500 500.1L500 500.1L500 500.1L500 500.1L500 500.1L500 500.1L500 500.1L500 500.1L500 500.1L500 500.1L500 500.1L500 500.1L500 500.1L499.9 500.1L499.9 500.1L499.9 500.1L499.9 500.1L499.9 500.1L499.9 500.1L499.9 500.1L499.9 500.1L499.9 500.1L499.9 500.1L499.9 500.1L499.9 500.1L499.9 500.1L499.9 500.1L499.9 500.1L499.9 500.1L499.9 500L499.9 500L499.9 500L499.9 500L499.8 500L499.8 500L499.8 500L499.8 500L499.8 500L499.8 500L499.8 500L499.8 500L499.8 500L499.8 499.9L499.8 499.9L499.8 499.9L499.8 499.9L499.8 499.9L499.8 499.9L499.9 499.9L499.9 499.9L499.9 499.9L499.9 499.9L499.9 499.9L499.9 499.9L499.9 499.8L499.9 499.8L499.9 499.8L499.9 499.8L499.9 499.8L499.9 499.8L499.9 499.8L499.9 499.8L499.9 499.8L500 499.8L500 499.8L500 499.8L500 499.8L500 499.8L500 499.8L500 499.8L500 499.8L500 499.8L500.1 499.8L500.1 499.8L500.1 499.8L500.1 499.8L500.1 499.8L500.1 499.8L500.1 499.8L500.1 499.8L500.2 499.8L500.2 499.8L500.2 499.8L500.2 499.8L500.2 499.8L500.2 499.8L500.2 499.8L500.2 499.8L500.2 499.9L500.3 499.9L500.3 499.9L500.3 499.9L500.3 499.9L500.3 499.9L500.3 499.9L500.3 499.9L500.3 500L500.3 500L500.3 500L500.3 500L500.3 500L500.3 500L500.3 500.1L500.3 500.1L500.3 500.1L500.3 500.1L500.3 500.1L500.3 500.1L500.3 500.2L500.3 500.2L500.3 500.2L500.3 500.2L500.3 500.2L500.3 500.2L500.3 500.3L500.3 500.3L500.2 500.3L500.2 500.3L500.2 500.3L500.2 500.3L500.2 500.4L500.2 500.4L500.2 500.4L500.1 500.4L500.1 500.4L500.1 500.4L500.1 500.4L500.1 500.4L500 500.4L500 500.4L500 500.4L500 500.5L500 500.5L499.9 500.5L499.9 500.5L499.9 500.5L499.9 500.5L499.8 500.5L499.8 500.5L499.8 500.4L499.8 500.4L499.7 500.4L499.7 500.4L499.7 500.4L499.7 500.4L499.6 500.4L499.6 500.4L499.6 500.4L499.6 500.3L499.6 500.3L499.5 500.3L499.5 500.3L499.5 500.3L499.5 500.2L499.5 500.2L499.4 500.2L499.4 500.2L499.4 500.1L499.4 500.1L499.4 500.1L499.4 500L499.4 500L499.4 500L499.4 500L499.4 499.9L499.3 499.9L499.3 499.9L499.4 499.8L499.4 499.8L499.4 499.7L499.4 499.7L499.4 499.7L499.4 499.6L499.4 499.6L499.4 499.6L499.4 499.5L499.4 499.5L499.5 499.5L499.5 499.4L499.5 499.4L499.5 499.4L499.6 499.3L499.6 499.3L499.6 499.3L499.6 499.3L499.7 499.2L499.7 499.2L499.8 499.2L499.8 499.2L499.8 499.2L499.9 499.1L499.9 499.1L500 499.1L500 499.1L500 499.1L500.1 499.1L500.1 499.1L500.2 499.1L500.2 499.1L500.3 499.1L500.3 499.1L500.4 499.1L500.4 499.1L500.5 499.1L500.5 499.1L500.6 499.2L500.6 499.2L500.7 499.2L500.7 499.2L500.8 499.3L500.8 499.3L500.9 499.3L500.9 499.4L500.9 499.4L501 499.4L501 499.5L501.1 499.5L501.1 499.6L501.1 499.6L501.2 499.7L501.2 499.7L501.2 499.8L501.2 499.9L501.2 499.9L501.3 500L501.3 500L501.3 500.1L501.3 500.2L501.3 500.2L501.3 500.3L501.3 500.4L501.3 500.4L501.3 500.5L501.3 500.6L501.2 500.7L501.2 500.7L501.2 500.8L501.2 500.9L501.1 500.9L501.1 501L501.1 501.1L501 501.1L501 501.2L500.9 501.2L500.9 501.3L500.8 501.4L500.8 501.4L500.7 501.5L500.6 501.5L500.6 501.6L500.5 501.6L500.4 501.7L500.3 501.7L500.2 501.7L500.2 501.7L500.1 501.8L500 501.8L499.9 501.8L499.8 501.8L499.7 501.8L499.6 501.8L499.5 501.8L499.4 501.8L499.3 501.8L499.2 501.8L499.1 501.8L499 501.7L498.9 501.7L498.8 501.7L498.7 501.6L498.6 501.6L498.5 501.5L498.4 501.5L498.4 501.4L498.3 501.3L498.2 501.3L498.1 501.2L498 501.1L498 501L497.9 500.9L497.8 500.8L497.7 500.7L497.7 500.6L497.6 500.5L497.6 500.4L497.5 500.3L497.5 500.2L497.5 500L497.4 499.9L497.4 499.8L497.4 499.6L497.4 499.5L497.4 499.4L497.4 499.2L497.4 499.1L497.4 499L497.5 498.8L497.5 498.7L497.6 498.5L497.6 498.4L497.7 498.3L497.7 498.1L497.8 498L497.9 497.9L498 497.7L498.1 497.6L498.2 497.5L498.3 497.4L498.4 497.3L498.5 497.1L498.6 497L498.8 496.9L498.9 496.9L499.1 496.8L499.2 496.7L499.4 496.6L499.5 496.6L499.7 496.5L499.9 496.5L500.1 496.4L500.2 496.4L500.4 496.4L500.6 496.3L500.8 496.3L501 496.3L501.2 496.4L501.4 496.4L501.6 496.4L501.8 496.5L502 496.5L502.2 496.6L502.4 496.7L502.6 496.7L502.8 496.8L502.9 497L503.1 497.1L503.3 497.2L503.5 497.3L503.6 497.5L503.8 497.7L504 497.8L504.1 498L504.3 498.2L504.4 498.4L504.5 498.6L504.6 498.8L504.7 499L504.8 499.3L504.9 499.5L505 499.7L505.1 500L505.1 500.2L505.1 500.5L505.2 500.8L505.2 501L505.2 501.3L505.2 501.6L505.1 501.9L505.1 502.1L505 502.4L505 502.7L504.9 503L504.8 503.2L504.6 503.5L504.5 503.8L504.4 504L504.2 504.3L504 504.6L503.8 504.8L503.6 505.1L503.4 505.3L503.2 505.5L502.9 505.7L502.7 505.9L502.4 506.1L502.1 506.3L501.8 506.5L501.5 506.6L501.2 506.8L500.9 506.9L500.5 507L500.2 507.1L499.8 507.2L499.4 507.2L499.1 507.3L498.7 507.3L498.3 507.3L497.9 507.3L497.5 507.3L497.1 507.2L496.8 507.1L496.4 507L496 506.9L495.6 506.8L495.2 506.6L494.8 506.5L494.4 506.3L494.1 506L493.7 505.8L493.3 505.5L493 505.3L492.7 505L492.3 504.6L492 504.3L491.7 503.9L491.5 503.5L491.2 503.2L491 502.7L490.7 502.3L490.5 501.9L490.3 501.4L490.2 500.9L490 500.4L489.9 499.9L489.8 499.4L489.7 498.9L489.7 498.4L489.7 497.8L489.7 497.3L489.7 496.7L489.8 496.2L489.9 495.6L490 495.1L490.1 494.5L490.3 494L490.5 493.4L490.8 492.9L491 492.4L491.3 491.8L491.7 491.3L492 490.8L492.4 490.3L492.8 489.8L493.3 489.4L493.7 488.9L494.2 488.5L494.8 488.1L495.3 487.7L495.9 487.4L496.5 487L497.1 486.7L497.7 486.4L498.4 486.2L499.1 486L499.8 485.8L500.5 485.6L501.2 485.5L502 485.5L502.7 485.4L503.5 485.4L504.3 485.4L505 485.5L505.8 485.6L506.6 485.8L507.4 486L508.2 486.2L509 486.5L509.7 486.8L510.5 487.2L511.2 487.6L512 488L512.7 488.5L513.4 489L514.1 489.6L514.7 490.2L515.4 490.9L516 491.6L516.6 492.3L517.1 493L517.7 493.8L518.1 494.7L518.6 495.5L519 496.4L519.4 497.4L519.7 498.3L520 499.3L520.2 500.3L520.4 501.3L520.5 502.4L520.6 503.4L520.6 504.5L520.6 505.6L520.5 506.7L520.4 507.8L520.2 508.9L519.9 510L519.6 511.1L519.3 512.2L518.8 513.3L518.3 514.4L517.8 515.4L517.2 516.5L516.5 517.5L515.8 518.5L515 519.5L514.2 520.5L513.3 521.4L512.3 522.2L511.3 523.1L510.3 523.9L509.2 524.6L508 525.3L506.8 526L505.6 526.6L504.3 527.1L502.9 527.6L501.6 528L500.2 528.4L498.7 528.7L497.3 528.9L495.8 529.1L494.3 529.1L492.8 529.1L491.2 529L489.7 528.9L488.1 528.6L486.5 528.3L485 527.9L483.4 527.4L481.9 526.9L480.3 526.2L478.8 525.5L477.3 524.7L475.9 523.7L474.4 522.8L473 521.7L471.7 520.5L470.3 519.3L469.1 518L467.9 516.6L466.7 515.2L465.6 513.6L464.6 512L463.6 510.3L462.8 508.6L462 506.8L461.2 505L460.6 503L460.1 501.1L459.6 499.1L459.3 497L459 494.9L458.9 492.8L458.8 490.7L458.9 488.5L459.1 486.3L459.4 484.1L459.8 481.9L460.3 479.7L460.9 477.5L461.7 475.3L462.6 473.1L463.6 471L464.7 468.8L465.9 466.7L467.2 464.7L468.7 462.7L470.3 460.8L472 458.9L473.8 457L475.7 455.3L477.7 453.6L479.8 452.1L482.1 450.6L484.4 449.2L486.8 447.9L489.3 446.7L491.9 445.7L494.6 444.7L497.3 443.9L500.1 443.2L503 442.7L505.9 442.2L508.9 442L511.9 441.9L515 441.9L518 442.1L521.2 442.4L524.3 442.9L527.4 443.6L530.5 444.4L533.6 445.4L536.7 446.6L539.8 447.9L542.8 449.4L545.8 451.1L548.7 452.9L551.5 454.9L554.3 457.1L557 459.4L559.6 461.9L562.1 464.5L564.5 467.3L566.8 470.3L569 473.3L571 476.6L572.9 479.9L574.6 483.4L576.2 487L577.6 490.7L578.8 494.6L579.9 498.5L580.7 502.5L581.4 506.6L581.8 510.8L582.1 515L582.1 519.3L582 523.7L581.6 528.1L581 532.5L580.1 536.9L579 541.3L577.7 545.7L576.2 550L574.4 554.4L572.4 558.7L570.1 562.9L567.6 567.1L564.9 571.1L561.9 575.1L558.7 579L555.3 582.7L551.7 586.3L547.8 589.8L543.8 593.1L539.5 596.2L535 599.1L530.4 601.9L525.5 604.4L520.5 606.7L515.3 608.8L509.9 610.7L504.4 612.2L498.8 613.6L493.1 614.6L487.2 615.4L481.2 615.9L475.2 616.1L469.1 615.9L462.9 615.5L456.7 614.8L450.5 613.7L444.3 612.3L438.1 610.6L431.9 608.6L425.7 606.2L419.6 603.5L413.6 600.4L407.7 597L401.9 593.3L396.2 589.3L390.7 584.9L385.3 580.2L380.1 575.2L375.2 569.9L370.4 564.3L365.9 558.3L361.6 552.1L357.6 545.7L353.9 538.9L350.5 531.9L347.4 524.7L344.7 517.2L342.3 509.5L340.3 501.6L338.6 493.6L337.4 485.4L336.5 477L336.1 468.5L336.1 459.9L336.5 451.3L337.4 442.5L338.7 433.7L340.4 424.9L342.7 416.1L345.4 407.4L348.5 398.6L352.2 390L356.3 381.5L360.9 373L365.9 364.8L371.4 356.7L377.4 348.8L383.9 341.1L390.7 333.6L398.1 326.5" opacity="0.13"/><path d="M499.9 500.1L499.9 500.1L499.9 500.1L499.9 500.1L499.9 500.1L499.9 500.1L499.9 500.1L499.9 500.1L499.9 500.1L499.9 500.1L499.9 500.1L499.9 500.1L499.9 500L499.9 500L499.9 500L499.9 500L499.9 500L499.9 500L499.9 500L499.9 500L499.9 500L499.9 500L499.9 500L499.9 500L499.9 500L499.9 500L499.9 500L499.9 500L499.9 500L499.9 499.9L499.9 499.9L499.9 499.9L499.9 499.9L499.9 499.9L499.9 499.9L499.9 499.9L499.9 499.9L499.9 499.9L499.9 499.9L499.9 499.9L499.9 499.9L499.9 499.9L499.9 499.9L499.9 499.9L499.9 499.9L499.9 499.8L499.9 499.8L500 499.8L500 499.8L500 499.8L500 499.8L500 499.8L500 499.8L500 499.8L500 499.8L500 499.8L500 499.8L500 499.8L500.1 499.8L500.1 499.8L500.1 499.8L500.1 499.8L500.1 499.8L500.1 499.8L500.1 499.8L500.1 499.8L500.1 499.8L500.1 499.8L500.1 499.8L500.2 499.9L500.2 499.9L500.2 499.9L500.2 499.9L500.2 499.9L500.2 499.9L500.2 499.9L500.2 499.9L500.2 499.9L500.2 499.9L500.2 499.9L500.2 500L500.2 500L500.2 500L500.3 500L500.3 500L500.3 500L500.3 500L500.3 500L500.3 500.1L500.3 500.1L500.3 500.1L500.3 500.1L500.3 500.1L500.3 500.1L500.2 500.1L500.2 500.2L500.2 500.2L500.2 500.2L500.2 500.2L500.2 500.2L500.2 500.2L500.2 500.2L500.2 500.2L500.2 500.3L500.2 500.3L500.2 500.3L500.1 500.3L500.1 500.3L500.1 500.3L500.1 500.3L500.1 500.3L500.1 500.3L500.1 500.3L500 500.3L500 500.4L500 500.4L500 500.4L500 500.4L499.9 500.4L499.9 500.4L499.9 500.4L499.9 500.4L499.9 500.4L499.9 500.4L499.8 500.4L499.8 500.4L499.8 500.3L499.8 500.3L499.8 500.3L499.7 500.3L499.7 500.3L499.7 500.3L499.7 500.3L499.7 500.3L499.6 500.3L499.6 500.2L499.6 500.2L499.6 500.2L499.6 500.2L499.6 500.2L499.6 500.2L499.5 500.1L499.5 500.1L499.5 500.1L499.5 500.1L499.5 500L499.5 500L499.5 500L499.5 500L499.5 499.9L499.5 499.9L499.5 499.9L499.5 499.9L499.5 499.8L499.5 499.8L499.5 499.8L499.5 499.7L499.5 499.7L499.5 499.7L499.5 499.7L499.5 499.6L499.6 499.6L499.6 499.6L499.6 499.6L499.6 499.5L499.6 499.5L499.6 499.5L499.7 499.5L499.7 499.4L499.7 499.4L499.7 499.4L499.8 499.4L499.8 499.4L499.8 499.3L499.9 499.3L499.9 499.3L499.9 499.3L500 499.3L500 499.3L500 499.3L500.1 499.3L500.1 499.3L500.1 499.3L500.2 499.3L500.2 499.3L500.3 499.3L500.3 499.3L500.3 499.3L500.4 499.3L500.4 499.3L500.5 499.3L500.5 499.3L500.5 499.4L500.6 499.4L500.6 499.4L500.6 499.4L500.7 499.5L500.7 499.5L500.7 499.5L500.8 499.6L500.8 499.6L500.8 499.6L500.9 499.7L500.9 499.7L500.9 499.7L500.9 499.8L501 499.8L501 499.9L501 499.9L501 500L501 500L501 500.1L501 500.1L501 500.2L501 500.2L501 500.3L501 500.3L501 500.4L501 500.5L501 500.5L501 500.6L501 500.6L500.9 500.7L500.9 500.7L500.9 500.8L500.9 500.8L500.8 500.9L500.8 500.9L500.7 501L500.7 501L500.7 501.1L500.6 501.1L500.6 501.2L500.5 501.2L500.4 501.2L500.4 501.3L500.3 501.3L500.3 501.3L500.2 501.4L500.1 501.4L500.1 501.4L500 501.4L499.9 501.4L499.8 501.4L499.8 501.5L499.7 501.5L499.6 501.5L499.5 501.5L499.5 501.4L499.4 501.4L499.3 501.4L499.2 501.4L499.1 501.4L499.1 501.3L499 501.3L498.9 501.3L498.8 501.2L498.8 501.2L498.7 501.1L498.6 501.1L498.6 501L498.5 500.9L498.4 500.9L498.4 500.8L498.3 500.7L498.3 500.7L498.2 500.6L498.2 500.5L498.1 500.4L498.1 500.3L498.1 500.2L498 500.1L498 500L498 499.9L498 499.8L497.9 499.7L497.9 499.6L497.9 499.5L497.9 499.4L498 499.3L498 499.2L498 499.1L498 499L498.1 498.8L498.1 498.7L498.1 498.6L498.2 498.5L498.2 498.4L498.3 498.3L498.4 498.2L498.5 498.1L498.5 498L498.6 497.9L498.7 497.8L498.8 497.7L498.9 497.7L499 497.6L499.1 497.5L499.3 497.4L499.4 497.4L499.5 497.3L499.6 497.3L499.8 497.2L499.9 497.2L500 497.2L500.2 497.1L500.3 497.1L500.5 497.1L500.6 497.1L500.8 497.1L500.9 497.1L501.1 497.1L501.3 497.2L501.4 497.2L501.6 497.2L501.7 497.3L501.9 497.3L502 497.4L502.2 497.5L502.3 497.6L502.5 497.7L502.6 497.8L502.8 497.9L502.9 498L503 498.1L503.1 498.3L503.3 498.4L503.4 498.6L503.5 498.7L503.6 498.9L503.7 499L503.8 499.2L503.8 499.4L503.9 499.6L504 499.8L504 500L504 500.2L504.1 500.4L504.1 500.6L504.1 500.8L504.1 501L504.1 501.2L504.1 501.5L504 501.7L504 501.9L503.9 502.1L503.9 502.3L503.8 502.6L503.7 502.8L503.6 503L503.5 503.2L503.3 503.4L503.2 503.6L503.1 503.8L502.9 504L502.7 504.2L502.5 504.4L502.3 504.5L502.1 504.7L501.9 504.9L501.7 505L501.5 505.1L501.2 505.3L501 505.4L500.7 505.5L500.4 505.6L500.1 505.6L499.9 505.7L499.6 505.7L499.3 505.8L499 505.8L498.7 505.8L498.4 505.8L498.1 505.8L497.8 505.7L497.4 505.7L497.1 505.6L496.8 505.5L496.5 505.4L496.2 505.3L495.9 505.1L495.6 505L495.3 504.8L495 504.6L494.7 504.4L494.5 504.2L494.2 503.9L493.9 503.7L493.7 503.4L493.5 503.1L493.2 502.8L493 502.5L492.8 502.2L492.6 501.9L492.5 501.5L492.3 501.1L492.2 500.8L492.1 500.4L492 500L491.9 499.6L491.8 499.2L491.8 498.7L491.8 498.3L491.8 497.9L491.8 497.4L491.9 497L491.9 496.6L492 496.1L492.2 495.7L492.3 495.2L492.5 494.8L492.7 494.4L492.9 494L493.1 493.5L493.4 493.1L493.6 492.7L494 492.3L494.3 491.9L494.6 491.6L495 491.2L495.4 490.9L495.8 490.6L496.2 490.3L496.7 490L497.2 489.7L497.7 489.5L498.2 489.2L498.7 489L499.2 488.9L499.8 488.7L500.4 488.6L500.9 488.5L501.5 488.5L502.1 488.4L502.7 488.4L503.4 488.4L504 488.5L504.6 488.6L505.2 488.7L505.8 488.9L506.5 489L507.1 489.3L507.7 489.5L508.3 489.8L508.9 490.1L509.5 490.5L510.1 490.9L510.6 491.3L511.2 491.7L511.7 492.2L512.2 492.7L512.7 493.3L513.1 493.8L513.6 494.4L514 495.1L514.4 495.7L514.7 496.4L515.1 497.1L515.4 497.9L515.6 498.6L515.8 499.4L516 500.2L516.2 501L516.3 501.8L516.4 502.7L516.4 503.5L516.4 504.4L516.3 505.3L516.2 506.1L516 507L515.8 507.9L515.6 508.8L515.3 509.6L515 510.5L514.6 511.4L514.2 512.2L513.7 513L513.2 513.9L512.6 514.7L512 515.4L511.3 516.2L510.6 516.9L509.8 517.6L509 518.3L508.2 518.9L507.3 519.5L506.4 520.1L505.5 520.6L504.5 521.1L503.5 521.5L502.4 521.9L501.3 522.3L500.2 522.5L499.1 522.8L497.9 522.9L496.7 523.1L495.5 523.1L494.3 523.1L493.1 523.1L491.9 522.9L490.6 522.8L489.4 522.5L488.1 522.2L486.9 521.8L485.7 521.4L484.5 520.8L483.2 520.3L482.1 519.6L480.9 518.9L479.7 518.1L478.6 517.3L477.5 516.4L476.5 515.4L475.5 514.4L474.5 513.3L473.6 512.1L472.7 510.9L471.9 509.6L471.2 508.3L470.5 506.9L469.8 505.5L469.2 504L468.7 502.5L468.3 500.9L468 499.4L467.7 497.7L467.5 496.1L467.3 494.4L467.3 492.7L467.4 491L467.5 489.2L467.7 487.5L468 485.7L468.4 484L469 482.2L469.5 480.5L470.2 478.7L471 477L471.9 475.3L472.9 473.7L473.9 472.1L475.1 470.5L476.3 468.9L477.7 467.4L479.1 466L480.6 464.6L482.2 463.2L483.9 462L485.7 460.8L487.5 459.7L489.4 458.7L491.4 457.7L493.5 456.9L495.6 456.1L497.7 455.5L500 454.9L502.2 454.5L504.6 454.1L506.9 453.9L509.3 453.8L511.7 453.8L514.2 454L516.7 454.3L519.1 454.6L521.6 455.2L524.1 455.8L526.6 456.6L529 457.5L531.4 458.6L533.8 459.8L536.2 461.1L538.5 462.5L540.8 464.1L543 465.8L545.2 467.7L547.2 469.6L549.2 471.7L551.2 473.9L553 476.2L554.7 478.7L556.3 481.2L557.8 483.9L559.2 486.7L560.4 489.5L561.6 492.5L562.5 495.5L563.4 498.6L564.1 501.8L564.6 505.1L565 508.4L565.2 511.8L565.2 515.2L565.1 518.6L564.8 522.1L564.3 525.6L563.7 529.1L562.8 532.6L561.8 536.1L560.6 539.6L559.2 543L557.6 546.4L555.8 549.8L553.8 553.1L551.7 556.3L549.3 559.5L546.8 562.6L544.1 565.5L541.2 568.4L538.2 571.2L534.9 573.8L531.6 576.3L528 578.6L524.3 580.8L520.5 582.8L516.5 584.7L512.4 586.3L508.1 587.8L503.8 589.1L499.3 590.1L494.7 591L490.1 591.6L485.4 592L480.6 592.2L475.7 592.1L470.8 591.8L465.9 591.2L461 590.4L456 589.3L451.1 587.9L446.2 586.3L441.3 584.4L436.4 582.3L431.6 579.9L426.9 577.2L422.3 574.3L417.8 571.1L413.4 567.6L409.1 563.9L405 560L401.1 555.8L397.3 551.3L393.7 546.6L390.3 541.7L387.1 536.6L384.1 531.2L381.4 525.7L379 519.9L376.8 514L374.9 507.9L373.2 501.7L371.9 495.3L370.9 488.8L370.2 482.1L369.8 475.4L369.8 468.6L370.1 461.7L370.8 454.7L371.8 447.8L373.2 440.8L374.9 433.8L377 426.8L379.5 419.9L382.4 413L385.7 406.2L389.3 399.5L393.3 392.9L397.6 386.5L402.4 380.2L407.5 374.1L412.9 368.2L418.7 362.5L424.9 357.1L431.4 351.9L438.2 346.9L445.3 342.3L452.7 338L460.5 334L468.5 330.4L476.7 327.2L485.2 324.3L494 321.8L502.9 319.8L512 318.1L521.3 317L530.8 316.3L540.4 316L550.1 316.2L559.9 317L569.7 318.2L579.6 320L589.4 322.2L599.3 325" opacity="0.13"/></g></svg>