<svg xmlns="http://www.w3.org/2000/svg" viewBox="0 0 1000 1000" preserveAspectRatio="xMidYMid slice" fill="none" stroke-linecap="round" stroke-linejoin="round"><g stroke="#0f3d2e" stroke-width="1"><path d="M499.8 500L499.8 500L499.8 500L499.8 500L499.8 500L499.8 500L499.8 499.9L499.8 499.9L499.8 499.9L499.8 499.9L499.8 499.9L499.8 499.9L499.8 499.9L499.8 499.9L499.8 499.9L499.8 499.9L499.8 499.8L499.9 499.8L499.9 499.8L499.9 499.8L499.9 499.8L499.9 499.8L499.9 499.8L499.9 499.8L499.9 499.8L499.9 499.8L499.9 499.8L499.9 499.8L500 499.8L500 499.8L500 499.8L500 499.8L500 499.8L500 499.8L500 499.8L500 499.8L500.1 499.8L500.1 499.8L500.1 499.8L500.1 499.8L500.1 499.8L500.1 499.8L500.1 499.8L500.1 499.8L500.2 499.8L500.2 499.8L500.2 499.8L500.2 499.8L500.2 499.8L500.2 499.8L500.2 499.8L500.2 499.8L500.2 499.9L500.3 499.9L500.3 499.9L500.3 499.9L500.3 499.9L500.3 499.9L500.3 499.9L500.3 499.9L500.3 500L500.3 500L500.3 500L500.3 500L500.3 500L500.3 500L500.3 500.1L500.3 500.1L500.3 500.1L500.3 500.1L500.3 500.1L500.3 500.1L500.3 500.1L500.3 500.2L500.3 500.2L500.3 500.2L500.3 500.2L500.3 500.2L500.3 500.2L500.2 500.3L500.2 500.3L500.2 500.3L500.2 500.3L500.2 500.3L500.2 500.3L500.2 500.3L500.1 500.3L500.1 500.3L500.1 500.4L500.1 500.4L500.1 500.4L500.1 500.4L500 500.4L500 500.4L500 500.4L500 500.4L500 500.4L499.9 500.4L499.9 500.4L499.9 500.4L499.9 500.4L499.9 500.4L499.8 500.4L499.8 500.4L499.8 500.4L499.8 500.4L499.8 500.4L499.7 500.3L499.7 500.3L499.7 500.3L499.7 500.3L499.7 500.3L499.7 500.3L499.6 500.3L499.6 500.3L499.6 500.2L499.6 500.2L499.6 500.2L499.6 500.2L499.6 500.2L499.5 500.1L499.5 500.1L499.5 500.1L499.5 500.1L499.5 500L499.5 500L499.5 500L499.5 500L499.5 499.9L499.5 499.9L499.5 499.9L499.5 499.9L499.5 499.8L499.5 499.8L499.5 499.8L499.5 499.8L499.5 499.7L499.5 499.7L499.6 499.7L499.6 499.7L499.6 499.6L499.6 499.6L499.6 499.6L499.6 499.6L499.7 499.5L499.7 499.5L499.7 499.5L499.7 499.5L499.7 499.5L499.8 499.5L499.8 499.4L499.8 499.4L499.8 499.4L499.9 499.4L499.9 499.4L499.9 499.4L500 499.4L500 499.4L500 499.4L500.1 499.4L500.1 499.4L500.1 499.4L500.2 499.4L500.2 499.4L500.2 499.4L500.3 499.4L500.3 499.4L500.3 499.4L500.4 499.4L500.4 499.4L500.4 499.4L500.4 499.5L500.5 499.5L500.5 499.5L500.5 499.5L500.6 499.5L500.6 499.6L500.6 499.6L500.6 499.6L500.7 499.7L500.7 499.7L500.7 499.7L500.7 499.8L500.7 499.8L500.8 499.8L500.8 499.9L500.8 499.9L500.8 499.9L500.8 500L500.8 500L500.8 500.1L500.8 500.1L500.8 500.1L500.8 500.2L500.8 500.2L500.8 500.3L500.8 500.3L500.8 500.4L500.8 500.4L500.7 500.4L500.7 500.5L500.7 500.5L500.7 500.6L500.7 500.6L500.6 500.6L500.6 500.7L500.6 500.7L500.6 500.7L500.5 500.8L500.5 500.8L500.4 500.8L500.4 500.9L500.4 500.9L500.3 500.9L500.3 500.9L500.2 500.9L500.2 501L500.1 501L500.1 501L500 501L500 501L499.9 501L499.9 501L499.8 501L499.8 501L499.7 501L499.7 501L499.6 501L499.6 501L499.5 501L499.5 501L499.4 500.9L499.4 500.9L499.3 500.9L499.3 500.9L499.2 500.8L499.2 500.8L499.1 500.8L499.1 500.7L499 500.7L499 500.6L499 500.6L498.9 500.5L498.9 500.5L498.9 500.4L498.8 500.4L498.8 500.3L498.8 500.3L498.8 500.2L498.7 500.1L498.7 500.1L498.7 500L498.7 500L498.7 499.9L498.7 499.8L498.7 499.8L498.7 499.7L498.7 499.6L498.7 499.6L498.7 499.5L498.8 499.4L498.8 499.4L498.8 499.3L498.8 499.2L498.9 499.2L498.9 499.1L498.9 499L499 499L499 498.9L499.1 498.9L499.1 498.8L499.2 498.8L499.2 498.7L499.3 498.7L499.4 498.6L499.4 498.6L499.5 498.5L499.6 498.5L499.6 498.5L499.7 498.5L499.8 498.4L499.9 498.4L499.9 498.4L500 498.4L500.1 498.4L500.2 498.4L500.3 498.4L500.4 498.4L500.4 498.4L500.5 498.4L500.6 498.4L500.7 498.4L500.8 498.4L500.9 498.5L500.9 498.5L501 498.5L501.1 498.6L501.2 498.6L501.3 498.7L501.3 498.7L501.4 498.8L501.5 498.9L501.5 498.9L501.6 499L501.7 499.1L501.7 499.2L501.8 499.2L501.8 499.3L501.9 499.4L501.9 499.5L501.9 499.6L502 499.7L502 499.8L502 499.9L502.1 500L502.1 500.1L502.1 500.2L502.1 500.3L502.1 500.4L502.1 500.5L502.1 500.6L502 500.7L502 500.8L502 500.9L501.9 501L501.9 501.1L501.9 501.3L501.8 501.4L501.8 501.5L501.7 501.6L501.6 501.6L501.6 501.7L501.5 501.8L501.4 501.9L501.3 502L501.2 502.1L501.1 502.1L501 502.2L500.9 502.3L500.8 502.3L500.7 502.4L500.6 502.4L500.4 502.5L500.3 502.5L500.2 502.6L500.1 502.6L499.9 502.6L499.8 502.6L499.7 502.6L499.5 502.6L499.4 502.6L499.3 502.6L499.1 502.6L499 502.6L498.9 502.5L498.7 502.5L498.6 502.4L498.5 502.4L498.3 502.3L498.2 502.3L498.1 502.2L498 502.1L497.8 502L497.7 501.9L497.6 501.8L497.5 501.7L497.4 501.6L497.3 501.5L497.2 501.3L497.1 501.2L497.1 501.1L497 500.9L496.9 500.8L496.9 500.6L496.8 500.5L496.8 500.3L496.7 500.2L496.7 500L496.7 499.8L496.7 499.7L496.7 499.5L496.7 499.3L496.7 499.2L496.7 499L496.7 498.8L496.8 498.6L496.8 498.5L496.9 498.3L497 498.1L497 498L497.1 497.8L497.2 497.6L497.3 497.5L497.4 497.3L497.5 497.2L497.7 497.1L497.8 496.9L497.9 496.8L498.1 496.7L498.2 496.5L498.4 496.4L498.6 496.3L498.8 496.2L498.9 496.1L499.1 496.1L499.3 496L499.5 495.9L499.7 495.9L499.9 495.9L500.1 495.8L500.3 495.8L500.5 495.8L500.8 495.8L501 495.8L501.2 495.8L501.4 495.9L501.6 495.9L501.8 496L502.1 496L502.3 496.1L502.5 496.2L502.7 496.3L502.9 496.4L503.1 496.5L503.3 496.7L503.5 496.8L503.7 497L503.8 497.1L504 497.3L504.2 497.5L504.3 497.7L504.5 497.9L504.6 498.1L504.7 498.3L504.8 498.6L504.9 498.8L505 499L505.1 499.3L505.2 499.5L505.2 499.8L505.3 500L505.3 500.3L505.3 500.6L505.3 500.9L505.3 501.1L505.3 501.4L505.3 501.7L505.2 502L505.1 502.2L505.1 502.5L505 502.8L504.9 503L504.7 503.3L504.6 503.6L504.4 503.8L504.3 504.1L504.1 504.3L503.9 504.5L503.7 504.8L503.5 505L503.3 505.2L503 505.4L502.8 505.6L502.5 505.7L502.2 505.9L502 506.1L501.7 506.2L501.4 506.3L501 506.4L500.7 506.5L500.4 506.6L500.1 506.7L499.7 506.7L499.4 506.7L499.1 506.7L498.7 506.7L498.4 506.7L498 506.7L497.7 506.6L497.3 506.5L497 506.4L496.6 506.3L496.3 506.2L496 506.1L495.6 505.9L495.3 505.7L495 505.5L494.7 505.3L494.4 505.1L494.1 504.8L493.8 504.5L493.5 504.3L493.3 504L493 503.6L492.8 503.3L492.6 503L492.4 502.6L492.2 502.3L492.1 501.9L491.9 501.5L491.8 501.1L491.7 500.7L491.6 500.3L491.5 499.9L491.5 499.4L491.5 499L491.5 498.6L491.5 498.1L491.5 497.7L491.6 497.2L491.7 496.8L491.8 496.4L491.9 495.9L492.1 495.5L492.2 495.1L492.4 494.6L492.7 494.2L492.9 493.8L493.2 493.4L493.5 493L493.8 492.7L494.1 492.3L494.5 492L494.8 491.6L495.2 491.3L495.6 491L496.1 490.8L496.5 490.5L496.9 490.3L497.4 490L497.9 489.9L498.4 489.7L498.9 489.5L499.4 489.4L500 489.3L500.5 489.3L501 489.2L501.6 489.2L502.1 489.2L502.7 489.2L503.3 489.3L503.8 489.4L504.4 489.5L504.9 489.7L505.5 489.9L506 490.1L506.6 490.3L507.1 490.6L507.6 490.9L508.1 491.2L508.6 491.6L509.1 492L509.5 492.4L510 492.8L510.4 493.3L510.8 493.7L511.2 494.2L511.6 494.8L511.9 495.3L512.2 495.9L512.5 496.5L512.7 497.1L513 497.7L513.2 498.4L513.3 499L513.5 499.7L513.6 500.3L513.6 501L513.7 501.7L513.7 502.4L513.6 503.1L513.6 503.8L513.5 504.5L513.3 505.2L513.1 506L512.9 506.6L512.7 507.3L512.4 508L512 508.7L511.7 509.4L511.3 510L510.8 510.6L510.4 511.2L509.9 511.8L509.3 512.4L508.8 513L508.2 513.5L507.5 514L506.9 514.4L506.2 514.9L505.5 515.3L504.8 515.7L504 516L503.2 516.3L502.4 516.6L501.6 516.8L500.8 517L499.9 517.1L499.1 517.2L498.2 517.3L497.3 517.3L496.4 517.3L495.5 517.2L494.6 517.1L493.7 516.9L492.8 516.7L492 516.5L491.1 516.2L490.2 515.8L489.3 515.4L488.5 515L487.7 514.5L486.9 514L486.1 513.4L485.3 512.8L484.6 512.1L483.9 511.4L483.2 510.7L482.6 509.9L482 509.1L481.4 508.2L480.9 507.3L480.4 506.4L479.9 505.5L479.5 504.5L479.2 503.5L478.9 502.5L478.6 501.4L478.4 500.3L478.2 499.3L478.1 498.2L478.1 497L478.1 495.9L478.2 494.8L478.3 493.7L478.5 492.5L478.7 491.4L479 490.3L479.4 489.2L479.8 488.1L480.3 487L480.8 485.9L481.4 484.8L482 483.8L482.7 482.8L483.5 481.8L484.3 480.9L485.2 480L486.1 479.1L487.1 478.3L488.1 477.5L489.1 476.7L490.2 476L491.4 475.4L492.6 474.8L493.8 474.3L495.1 473.8L496.3 473.4L497.7 473L499 472.8L500.4 472.5L501.8 472.4L503.2 472.3L504.6 472.3L506 472.3L507.4 472.5L508.9 472.7L510.3 472.9L511.7 473.3L513.1 473.7L514.5 474.2L515.9 474.8L517.3 475.4L518.6 476.1L520 476.9L521.3 477.8L522.5 478.7L523.7 479.7L524.9 480.8L526 481.9L527.1 483.1L528.1 484.4L529.1 485.7L530 487.1L530.8 488.5L531.6 490L532.3 491.5L532.9 493.1L533.5 494.7L533.9 496.3L534.3 498L534.7 499.7" opacity="0.13"/><path d="M499.9 499.9L499.9 499.9L499.9 499.8L499.9 499.8L499.9 499.8L499.9 499.8L499.9 499.8L499.9 499.8L499.9 499.8L499.9 499.8L499.9 499.8L500 499.8L500 499.8L500 499.8L500 499.8L500 499.8L500 499.8L500 499.8L500 499.8L500 499.8L500 499.8L500.1 499.8L500.1 499.8L500.1 499.8L500.1 499.8L500.1 499.8L500.1 499.8L500.1 499.8L500.1 499.8L500.1 499.8L500.2 499.8L500.2 499.8L500.2 499.8L500.2 499.8L500.2 499.8L500.2 499.9L500.2 499.9L500.2 499.9L500.2 499.9L500.2 499.9L500.2 499.9L500.3 499.9L500.3 499.9L500.3 499.9L500.3 500L500.3 500L500.3 500L500.3 500L500.3 500L500.3 500L500.3 500L500.3 500.1L500.3 500.1L500.3 500.1L500.3 500.1L500.3 500.1L500.3 500.1L500.3 500.1L500.3 500.2L500.3 500.2L500.2 500.2L500.2 500.2L500.2 500.2L500.2 500.2L500.2 500.2L500.2 500.2L500.2 500.3L500.2 500.3L500.2 500.3L500.1 500.3L500.1 500.3L500.1 500.3L500.1 500.3L500.1 500.3L500.1 500.3L500.1 500.3L500 500.3L500 500.3L500 500.3L500 500.4L500 500.4L500 500.4L499.9 500.4L499.9 500.4L499.9 500.4L499.9 500.3L499.9 500.3L499.8 500.3L499.8 500.3L499.8 500.3L499.8 500.3L499.8 500.3L499.8 500.3L499.7 500.3L499.7 500.3L499.7 500.3L499.7 500.3L499.7 500.2L499.7 500.2L499.7 500.2L499.6 500.2L499.6 500.2L499.6 500.2L499.6 500.1L499.6 500.1L499.6 500.1L499.6 500.1L499.6 500.1L499.6 500L499.6 500L499.6 500L499.6 500L499.6 500L499.6 499.9L499.6 499.9L499.6 499.9L499.6 499.9L499.6 499.8L499.6 499.8L499.6 499.8L499.6 499.8L499.6 499.7L499.6 499.7L499.6 499.7L499.6 499.7L499.6 499.7L499.7 499.6L499.7 499.6L499.7 499.6L499.7 499.6L499.7 499.6L499.7 499.5L499.8 499.5L499.8 499.5L499.8 499.5L499.8 499.5L499.9 499.5L499.9 499.5L499.9 499.5L499.9 499.5L500 499.4L500 499.4L500 499.4L500 499.4L500.1 499.4L500.1 499.4L500.1 499.4L500.2 499.4L500.2 499.4L500.2 499.4L500.3 499.5L500.3 499.5L500.3 499.5L500.3 499.5L500.4 499.5L500.4 499.5L500.4 499.5L500.4 499.6L500.5 499.6L500.5 499.6L500.5 499.6L500.5 499.6L500.6 499.7L500.6 499.7L500.6 499.7L500.6 499.7L500.6 499.8L500.7 499.8L500.7 499.8L500.7 499.9L500.7 499.9L500.7 499.9L500.7 500L500.7 500L500.7 500L500.7 500.1L500.7 500.1L500.7 500.2L500.7 500.2L500.7 500.2L500.7 500.3L500.7 500.3L500.7 500.3L500.7 500.4L500.7 500.4L500.6 500.4L500.6 500.5L500.6 500.5L500.6 500.5L500.6 500.6L500.5 500.6L500.5 500.6L500.5 500.7L500.4 500.7L500.4 500.7L500.4 500.8L500.3 500.8L500.3 500.8L500.3 500.8L500.2 500.8L500.2 500.9L500.1 500.9L500.1 500.9L500.1 500.9L500 500.9L500 500.9L499.9 500.9L499.9 500.9L499.8 500.9L499.8 500.9L499.7 500.9L499.7 500.9L499.6 500.9L499.6 500.9L499.5 500.9L499.5 500.8L499.5 500.8L499.4 500.8L499.4 500.8L499.3 500.7L499.3 500.7L499.2 500.7L499.2 500.6L499.2 500.6L499.1 500.6L499.1 500.5L499.1 500.5L499 500.4L499 500.4L499 500.4L499 500.3L498.9 500.3L498.9 500.2L498.9 500.1L498.9 500.1L498.9 500L498.9 500L498.9 499.9L498.8 499.9L498.8 499.8L498.9 499.7L498.9 499.7L498.9 499.6L498.9 499.6L498.9 499.5L498.9 499.4L498.9 499.4L499 499.3L499 499.3L499 499.2L499 499.2L499.1 499.1L499.1 499.1L499.2 499L499.2 499L499.3 498.9L499.3 498.9L499.4 498.8L499.4 498.8L499.5 498.8L499.5 498.7L499.6 498.7L499.7 498.7L499.7 498.6L499.8 498.6L499.9 498.6L499.9 498.6L500 498.6L500.1 498.5L500.1 498.5L500.2 498.5L500.3 498.5L500.4 498.5L500.4 498.6L500.5 498.6L500.6 498.6L500.7 498.6L500.7 498.6L500.8 498.7L500.9 498.7L501 498.7L501 498.8L501.1 498.8L501.2 498.9L501.2 498.9L501.3 499L501.4 499L501.4 499.1L501.5 499.2L501.5 499.2L501.6 499.3L501.6 499.4L501.6 499.4L501.7 499.5L501.7 499.6L501.8 499.7L501.8 499.8L501.8 499.9L501.8 500L501.8 500.1L501.8 500.1L501.8 500.2L501.8 500.3L501.8 500.4L501.8 500.5L501.8 500.6L501.8 500.7L501.8 500.8L501.7 500.9L501.7 501L501.7 501.1L501.6 501.2L501.6 501.3L501.5 501.4L501.5 501.4L501.4 501.5L501.3 501.6L501.3 501.7L501.2 501.8L501.1 501.8L501 501.9L500.9 502L500.8 502L500.7 502.1L500.6 502.1L500.5 502.2L500.4 502.2L500.3 502.2L500.2 502.3L500.1 502.3L500 502.3L499.9 502.3L499.8 502.3L499.6 502.3L499.5 502.3L499.4 502.3L499.3 502.3L499.1 502.3L499 502.3L498.9 502.2L498.8 502.2L498.7 502.1L498.6 502.1L498.4 502L498.3 502L498.2 501.9L498.1 501.8L498 501.7L497.9 501.6L497.8 501.5L497.7 501.4L497.6 501.3L497.6 501.2L497.5 501.1L497.4 501L497.3 500.9L497.3 500.7L497.2 500.6L497.2 500.5L497.1 500.3L497.1 500.2L497.1 500L497.1 499.9L497 499.7L497 499.6L497 499.4L497.1 499.3L497.1 499.1L497.1 499L497.1 498.8L497.2 498.7L497.2 498.5L497.3 498.4L497.3 498.2L497.4 498.1L497.5 497.9L497.6 497.8L497.7 497.7L497.8 497.5L497.9 497.4L498 497.3L498.1 497.2L498.3 497.1L498.4 497L498.5 496.9L498.7 496.8L498.8 496.7L499 496.6L499.2 496.5L499.3 496.5L499.5 496.4L499.7 496.4L499.9 496.3L500.1 496.3L500.2 496.3L500.4 496.3L500.6 496.3L500.8 496.3L501 496.3L501.2 496.3L501.4 496.3L501.6 496.4L501.8 496.5L502 496.5L502.2 496.6L502.3 496.7L502.5 496.8L502.7 496.9L502.9 497L503 497.1L503.2 497.3L503.4 497.4L503.5 497.6L503.7 497.7L503.8 497.9L503.9 498.1L504 498.3L504.2 498.5L504.3 498.7L504.4 498.9L504.4 499.1L504.5 499.3L504.6 499.5L504.6 499.7L504.7 500L504.7 500.2L504.7 500.4L504.7 500.7L504.7 500.9L504.7 501.2L504.7 501.4L504.6 501.7L504.6 501.9L504.5 502.2L504.4 502.4L504.3 502.6L504.2 502.9L504.1 503.1L504 503.3L503.9 503.5L503.7 503.8L503.5 504L503.4 504.2L503.2 504.4L503 504.6L502.8 504.7L502.5 504.9L502.3 505.1L502.1 505.2L501.8 505.3L501.6 505.5L501.3 505.6L501 505.7L500.7 505.8L500.4 505.8L500.2 505.9L499.9 505.9L499.6 506L499.3 506L499 506L498.6 506L498.3 505.9L498 505.9L497.7 505.8L497.4 505.8L497.1 505.7L496.8 505.6L496.5 505.4L496.2 505.3L495.9 505.1L495.6 505L495.3 504.8L495.1 504.6L494.8 504.3L494.6 504.1L494.3 503.9L494.1 503.6L493.9 503.3L493.7 503L493.5 502.7L493.3 502.4L493.1 502.1L493 501.8L492.9 501.4L492.7 501.1L492.6 500.7L492.6 500.4L492.5 500L492.4 499.6L492.4 499.2L492.4 498.8L492.4 498.4L492.5 498.1L492.5 497.7L492.6 497.3L492.7 496.9L492.8 496.5L492.9 496.1L493.1 495.7L493.2 495.3L493.4 495L493.6 494.6L493.9 494.3L494.1 493.9L494.4 493.6L494.7 493.3L495 492.9L495.3 492.6L495.6 492.4L496 492.1L496.4 491.8L496.8 491.6L497.2 491.4L497.6 491.2L498 491L498.5 490.9L498.9 490.7L499.4 490.6L499.8 490.5L500.3 490.5L500.8 490.4L501.3 490.4L501.8 490.4L502.3 490.4L502.8 490.5L503.3 490.6L503.7 490.7L504.2 490.8L504.7 491L505.2 491.1L505.7 491.3L506.2 491.6L506.6 491.8L507.1 492.1L507.5 492.4L508 492.8L508.4 493.1L508.8 493.5L509.1 493.9L509.5 494.3L509.9 494.8L510.2 495.2L510.5 495.7L510.8 496.2L511 496.7L511.3 497.3L511.5 497.8L511.7 498.4L511.8 498.9L511.9 499.5L512 500.1L512.1 500.7L512.1 501.4L512.2 502L512.1 502.6L512.1 503.2L512 503.9L511.9 504.5L511.7 505.1L511.5 505.7L511.3 506.3L511.1 507L510.8 507.6L510.5 508.1L510.1 508.7L509.8 509.3L509.3 509.8L508.9 510.4L508.4 510.9L507.9 511.4L507.4 511.9L506.9 512.3L506.3 512.7L505.7 513.1L505.1 513.5L504.4 513.8L503.8 514.1L503.1 514.4L502.4 514.7L501.6 514.9L500.9 515L500.1 515.2L499.4 515.3L498.6 515.4L497.8 515.4L497 515.4L496.2 515.3L495.5 515.2L494.7 515.1L493.9 514.9L493.1 514.7L492.3 514.4L491.5 514.1L490.7 513.8L490 513.4L489.3 513L488.5 512.5L487.8 512.1L487.1 511.5L486.5 510.9L485.9 510.3L485.2 509.7L484.7 509L484.1 508.3L483.6 507.5L483.1 506.8L482.7 505.9L482.3 505.1L481.9 504.2L481.6 503.4L481.3 502.5L481 501.5L480.8 500.6L480.7 499.6L480.6 498.6L480.5 497.7L480.5 496.7L480.6 495.7L480.7 494.7L480.8 493.7L481 492.7L481.3 491.6L481.6 490.7L481.9 489.7L482.3 488.7L482.8 487.7L483.3 486.8L483.9 485.9L484.5 485L485.1 484.1L485.8 483.2L486.6 482.4L487.4 481.6L488.2 480.9L489.1 480.2L490.1 479.5L491 478.9L492 478.3L493.1 477.8L494.2 477.3L495.3 476.8L496.4 476.4L497.6 476.1L498.8 475.8L500 475.6L501.2 475.5L502.4 475.4L503.7 475.4L505 475.4L506.2 475.5L507.5 475.6L508.8 475.9L510 476.2L511.3 476.5L512.6 476.9L513.8 477.4L515 478L516.2 478.6L517.4 479.3L518.6 480L519.7 480.8L520.8 481.7L521.8 482.6L522.8 483.6L523.8 484.7L524.7 485.8L525.6 486.9L526.4 488.1L527.2 489.4L527.9 490.7L528.5 492L529.1 493.4L529.6 494.9L530.1 496.3L530.4 497.8L530.7 499.3L531 500.9L531.1 502.4L531.2 504L531.2 505.6L531.1 507.2L530.9 508.8L530.7 510.4L530.3 512L529.9 513.6L529.4 515.2L528.8 516.8L528.2 518.4L527.4 519.9L526.6 521.4L525.7 522.9L524.7 524.3" opacity="0.13"/><path d="M500 499.8L500 499.8L500 499.8L500 499.8L500 499.8L500 499.8L500.1 499.8L500.1 499.8L500.1 499.8L500.1 499.8L500.1 499.8L500.1 499.8L500.1 499.8L500.1 499.8L500.1 499.8L500.1 499.8L500.2 499.8L500.2 499.9L500.2 499.9L500.2 499.9L500.2 499.9L500.2 499.9L500.2 499.9L500.2 499.9L500.2 499.9L500.2 499.9L500.2 499.9L500.2 499.9L500.2 500L500.2 500L500.2 500L500.2 500L500.2 500L500.2 500L500.2 500L500.2 500L500.2 500.1L500.2 500.1L500.2 500.1L500.2 500.1L500.2 500.1L500.2 500.1L500.2 500.1L500.2 500.1L500.2 500.2L500.2 500.2L500.2 500.2L500.2 500.2L500.2 500.2L500.2 500.2L500.2 500.2L500.2 500.2L500.1 500.2L500.1 500.3L500.1 500.3L500.1 500.3L500.1 500.3L500.1 500.3L500.1 500.3L500.1 500.3L500 500.3L500 500.3L500 500.3L500 500.3L500 500.3L500 500.3L499.9 500.3L499.9 500.3L499.9 500.3L499.9 500.3L499.9 500.3L499.9 500.3L499.9 500.3L499.8 500.3L499.8 500.3L499.8 500.3L499.8 500.3L499.8 500.3L499.8 500.3L499.7 500.2L499.7 500.2L499.7 500.2L499.7 500.2L499.7 500.2L499.7 500.2L499.7 500.2L499.7 500.1L499.7 500.1L499.6 500.1L499.6 500.1L499.6 500.1L499.6 500.1L499.6 500L499.6 500L499.6 500L499.6 500L499.6 500L499.6 499.9L499.6 499.9L499.6 499.9L499.6 499.9L499.6 499.9L499.6 499.8L499.6 499.8L499.6 499.8L499.6 499.8L499.6 499.8L499.7 499.7L499.7 499.7L499.7 499.7L499.7 499.7L499.7 499.7L499.7 499.7L499.7 499.6L499.7 499.6L499.8 499.6L499.8 499.6L499.8 499.6L499.8 499.6L499.8 499.6L499.9 499.5L499.9 499.5L499.9 499.5L499.9 499.5L500 499.5L500 499.5L500 499.5L500 499.5L500.1 499.5L500.1 499.5L500.1 499.5L500.1 499.5L500.2 499.5L500.2 499.5L500.2 499.5L500.2 499.5L500.3 499.5L500.3 499.5L500.3 499.6L500.3 499.6L500.4 499.6L500.4 499.6L500.4 499.6L500.4 499.6L500.5 499.7L500.5 499.7L500.5 499.7L500.5 499.7L500.5 499.7L500.5 499.8L500.6 499.8L500.6 499.8L500.6 499.8L500.6 499.9L500.6 499.9L500.6 499.9L500.6 500L500.6 500L500.6 500L500.6 500.1L500.6 500.1L500.6 500.1L500.6 500.2L500.6 500.2L500.6 500.2L500.6 500.3L500.6 500.3L500.6 500.3L500.6 500.4L500.6 500.4L500.6 500.4L500.5 500.4L500.5 500.5L500.5 500.5L500.5 500.5L500.5 500.6L500.4 500.6L500.4 500.6L500.4 500.6L500.3 500.7L500.3 500.7L500.3 500.7L500.2 500.7L500.2 500.7L500.2 500.8L500.1 500.8L500.1 500.8L500.1 500.8L500 500.8L500 500.8L499.9 500.8L499.9 500.8L499.9 500.8L499.8 500.8L499.8 500.8L499.7 500.8L499.7 500.8L499.6 500.8L499.6 500.8L499.6 500.7L499.5 500.7L499.5 500.7L499.4 500.7L499.4 500.7L499.4 500.6L499.3 500.6L499.3 500.6L499.3 500.6L499.2 500.5L499.2 500.5L499.2 500.4L499.1 500.4L499.1 500.4L499.1 500.3L499.1 500.3L499.1 500.2L499 500.2L499 500.1L499 500.1L499 500L499 500L499 499.9L499 499.9L499 499.8L499 499.8L499 499.7L499 499.7L499 499.6L499 499.6L499 499.5L499 499.5L499.1 499.4L499.1 499.4L499.1 499.3L499.1 499.3L499.2 499.2L499.2 499.2L499.2 499.1L499.3 499.1L499.3 499L499.4 499L499.4 499L499.5 498.9L499.5 498.9L499.6 498.9L499.6 498.8L499.7 498.8L499.7 498.8L499.8 498.8L499.9 498.7L499.9 498.7L500 498.7L500 498.7L500.1 498.7L500.2 498.7L500.2 498.7L500.3 498.7L500.4 498.7L500.4 498.7L500.5 498.7L500.6 498.8L500.6 498.8L500.7 498.8L500.8 498.8L500.8 498.9L500.9 498.9L501 498.9L501 499L501.1 499L501.1 499.1L501.2 499.1L501.2 499.2L501.3 499.2L501.3 499.3L501.4 499.4L501.4 499.4L501.5 499.5L501.5 499.6L501.5 499.6L501.5 499.7L501.6 499.8L501.6 499.9L501.6 499.9L501.6 500L501.6 500.1L501.6 500.2L501.6 500.3L501.6 500.4L501.6 500.4L501.6 500.5L501.6 500.6L501.6 500.7L501.6 500.8L501.5 500.9L501.5 500.9L501.5 501L501.4 501.1L501.4 501.2L501.3 501.3L501.3 501.3L501.2 501.4L501.1 501.5L501.1 501.5L501 501.6L500.9 501.7L500.8 501.7L500.8 501.8L500.7 501.8L500.6 501.9L500.5 501.9L500.4 501.9L500.3 502L500.2 502L500.1 502L500 502.1L499.9 502.1L499.8 502.1L499.7 502.1L499.6 502.1L499.5 502.1L499.4 502.1L499.3 502L499.2 502L499.1 502L499 501.9L498.9 501.9L498.7 501.9L498.6 501.8L498.5 501.8L498.4 501.7L498.4 501.6L498.3 501.6L498.2 501.5L498.1 501.4L498 501.3L497.9 501.2L497.9 501.1L497.8 501L497.7 500.9L497.7 500.8L497.6 500.7L497.6 500.6L497.5 500.4L497.5 500.3L497.4 500.2L497.4 500.1L497.4 499.9L497.4 499.8L497.4 499.7L497.4 499.5L497.4 499.4L497.4 499.3L497.4 499.1L497.4 499L497.5 498.9L497.5 498.7L497.6 498.6L497.6 498.5L497.7 498.3L497.7 498.2L497.8 498.1L497.9 498L498 497.8L498.1 497.7L498.2 497.6L498.3 497.5L498.4 497.4L498.5 497.3L498.7 497.2L498.8 497.1L498.9 497.1L499.1 497L499.2 496.9L499.4 496.9L499.5 496.8L499.7 496.8L499.8 496.7L500 496.7L500.2 496.7L500.3 496.7L500.5 496.7L500.7 496.7L500.8 496.7L501 496.7L501.2 496.7L501.4 496.8L501.5 496.8L501.7 496.9L501.9 497L502 497L502.2 497.1L502.4 497.2L502.5 497.3L502.7 497.4L502.8 497.5L502.9 497.7L503.1 497.8L503.2 497.9L503.3 498.1L503.5 498.2L503.6 498.4L503.7 498.6L503.8 498.8L503.9 498.9L503.9 499.1L504 499.3L504.1 499.5L504.1 499.7L504.1 499.9L504.2 500.1L504.2 500.3L504.2 500.5L504.2 500.8L504.2 501L504.2 501.2L504.1 501.4L504.1 501.6L504 501.8L504 502.1L503.9 502.3L503.8 502.5L503.7 502.7L503.6 502.9L503.5 503.1L503.3 503.3L503.2 503.5L503 503.7L502.9 503.8L502.7 504L502.5 504.2L502.3 504.3L502.1 504.5L501.9 504.6L501.7 504.7L501.4 504.8L501.2 504.9L501 505L500.7 505.1L500.5 505.2L500.2 505.2L500 505.3L499.7 505.3L499.4 505.3L499.1 505.3L498.9 505.3L498.6 505.3L498.3 505.3L498 505.2L497.8 505.1L497.5 505.1L497.2 505L497 504.9L496.7 504.7L496.4 504.6L496.2 504.4L495.9 504.3L495.7 504.1L495.5 503.9L495.2 503.7L495 503.5L494.8 503.3L494.6 503L494.4 502.8L494.3 502.5L494.1 502.2L493.9 502L493.8 501.7L493.7 501.4L493.6 501L493.5 500.7L493.4 500.4L493.3 500.1L493.3 499.7L493.3 499.4L493.3 499.1L493.3 498.7L493.3 498.4L493.3 498L493.4 497.7L493.5 497.3L493.6 497L493.7 496.6L493.8 496.3L493.9 496L494.1 495.6L494.3 495.3L494.5 495L494.7 494.7L494.9 494.4L495.2 494.1L495.5 493.8L495.7 493.5L496 493.3L496.4 493L496.7 492.8L497 492.6L497.4 492.4L497.7 492.2L498.1 492.1L498.5 491.9L498.9 491.8L499.3 491.7L499.7 491.6L500.1 491.5L500.6 491.5L501 491.5L501.4 491.5L501.9 491.5L502.3 491.5L502.8 491.6L503.2 491.7L503.6 491.8L504.1 491.9L504.5 492.1L504.9 492.2L505.4 492.4L505.8 492.7L506.2 492.9L506.6 493.2L507 493.5L507.3 493.8L507.7 494.1L508 494.5L508.4 494.8L508.7 495.2L509 495.6L509.2 496.1L509.5 496.5L509.7 496.9L510 497.4L510.1 497.9L510.3 498.4L510.5 498.9L510.6 499.4L510.7 500L510.7 500.5L510.8 501L510.8 501.6L510.8 502.1L510.8 502.7L510.7 503.3L510.6 503.8L510.5 504.4L510.3 504.9L510.1 505.5L509.9 506L509.7 506.6L509.4 507.1L509.1 507.6L508.8 508.1L508.4 508.6L508 509.1L507.6 509.5L507.2 510L506.7 510.4L506.3 510.8L505.8 511.2L505.2 511.6L504.7 511.9L504.1 512.2L503.5 512.5L502.9 512.7L502.3 513L501.6 513.2L501 513.3L500.3 513.5L499.7 513.6L499 513.6L498.3 513.7L497.6 513.7L496.9 513.6L496.2 513.6L495.5 513.5L494.8 513.3L494 513.1L493.4 512.9L492.7 512.7L492 512.4L491.3 512L490.6 511.7L490 511.3L489.4 510.8L488.8 510.4L488.2 509.9L487.6 509.3L487 508.8L486.5 508.2L486 507.5L485.6 506.9L485.1 506.2L484.7 505.5L484.3 504.8L484 504L483.7 503.2L483.4 502.4L483.2 501.6L483 500.8L482.9 499.9L482.8 499.1L482.7 498.2L482.7 497.3L482.7 496.4L482.8 495.5L482.9 494.6L483.1 493.7L483.3 492.8L483.5 492L483.8 491.1L484.2 490.2L484.6 489.3L485 488.5L485.5 487.7L486 486.9L486.6 486.1L487.2 485.3L487.9 484.6L488.6 483.9L489.3 483.2L490.1 482.6L490.9 482L491.8 481.4L492.7 480.9L493.6 480.4L494.5 479.9L495.5 479.5L496.5 479.2L497.5 478.9L498.6 478.6L499.7 478.4L500.7 478.2L501.8 478.1L503 478.1L504.1 478.1L505.2 478.2L506.3 478.3L507.5 478.5L508.6 478.7L509.7 479L510.8 479.4L511.9 479.8L513 480.3L514.1 480.8L515.2 481.4L516.2 482L517.2 482.7L518.2 483.5L519.1 484.3L520 485.2L520.9 486.1L521.7 487.1L522.5 488.1L523.3 489.1L524 490.2L524.6 491.4L525.2 492.6L525.7 493.8L526.2 495.1L526.6 496.3L527 497.7L527.2 499L527.5 500.4L527.6 501.8L527.7 503.2L527.7 504.6L527.7 506L527.5 507.4L527.3 508.9L527.1 510.3L526.7 511.7L526.3 513.1L525.8 514.5L525.2 515.9L524.6 517.3L523.9 518.6L523.1 520L522.2 521.3L521.3 522.5L520.3 523.7L519.2 524.9L518.1 526L516.9 527.1L515.6 528.1L514.3 529.1L512.9 530L511.5 530.8L510 531.6L508.5 532.3L506.9 532.9L505.3 533.5L503.7 533.9L502 534.3L500.3 534.7" opacity="0.13"/><path d="M500.1 499.9L500.1 499.9L500.2 499.9L500.2 499.9L500.2 499.9L500.2 499.9L500.2 499.9L500.2 499.9L500.2 499.9L500.2 499.9L500.2 499.9L500.2 500L500.2 500L500.2 500L500.2 500L500.2 500L500.2 500L500.2 500L500.2 500L500.2 500L500.2 500L500.2 500.1L500.2 500.1L500.2 500.1L500.2 500.1L500.2 500.1L500.2 500.1L500.2 500.1L500.2 500.1L500.2 500.1L500.2 500.2L500.2 500.2L500.2 500.2L500.2 500.2L500.2 500.2L500.1 500.2L500.1 500.2L500.1 500.2L500.1 500.2L500.1 500.2L500.1 500.2L500.1 500.3L500.1 500.3L500.1 500.3L500 500.3L500 500.3L500 500.3L500 500.3L500 500.3L500 500.3L500 500.3L499.9 500.3L499.9 500.3L499.9 500.3L499.9 500.3L499.9 500.3L499.9 500.3L499.9 500.3L499.8 500.3L499.8 500.3L499.8 500.2L499.8 500.2L499.8 500.2L499.8 500.2L499.8 500.2L499.8 500.2L499.7 500.2L499.7 500.2L499.7 500.2L499.7 500.1L499.7 500.1L499.7 500.1L499.7 500.1L499.7 500.1L499.7 500.1L499.7 500.1L499.7 500L499.7 500L499.7 500L499.6 500L499.6 500L499.6 500L499.6 499.9L499.6 499.9L499.6 499.9L499.7 499.9L499.7 499.9L499.7 499.8L499.7 499.8L499.7 499.8L499.7 499.8L499.7 499.8L499.7 499.8L499.7 499.7L499.7 499.7L499.7 499.7L499.7 499.7L499.8 499.7L499.8 499.7L499.8 499.7L499.8 499.6L499.8 499.6L499.8 499.6L499.9 499.6L499.9 499.6L499.9 499.6L499.9 499.6L499.9 499.6L500 499.6L500 499.6L500 499.6L500 499.6L500 499.6L500.1 499.6L500.1 499.6L500.1 499.6L500.1 499.6L500.2 499.6L500.2 499.6L500.2 499.6L500.2 499.6L500.3 499.6L500.3 499.6L500.3 499.6L500.3 499.6L500.3 499.6L500.4 499.7L500.4 499.7L500.4 499.7L500.4 499.7L500.4 499.7L500.5 499.7L500.5 499.8L500.5 499.8L500.5 499.8L500.5 499.8L500.5 499.9L500.5 499.9L500.5 499.9L500.5 499.9L500.6 500L500.6 500L500.6 500L500.6 500L500.6 500.1L500.6 500.1L500.6 500.1L500.6 500.2L500.6 500.2L500.6 500.2L500.5 500.3L500.5 500.3L500.5 500.3L500.5 500.3L500.5 500.4L500.5 500.4L500.5 500.4L500.4 500.4L500.4 500.5L500.4 500.5L500.4 500.5L500.4 500.5L500.3 500.6L500.3 500.6L500.3 500.6L500.3 500.6L500.2 500.6L500.2 500.7L500.2 500.7L500.1 500.7L500.1 500.7L500.1 500.7L500 500.7L500 500.7L500 500.7L499.9 500.7L499.9 500.7L499.8 500.7L499.8 500.7L499.8 500.7L499.7 500.7L499.7 500.7L499.7 500.7L499.6 500.7L499.6 500.7L499.6 500.6L499.5 500.6L499.5 500.6L499.5 500.6L499.4 500.6L499.4 500.5L499.4 500.5L499.3 500.5L499.3 500.4L499.3 500.4L499.2 500.4L499.2 500.3L499.2 500.3L499.2 500.3L499.2 500.2L499.1 500.2L499.1 500.1L499.1 500.1L499.1 500.1L499.1 500L499.1 500L499.1 499.9L499.1 499.9L499.1 499.8L499.1 499.8L499.1 499.7L499.1 499.7L499.1 499.6L499.1 499.6L499.1 499.5L499.2 499.5L499.2 499.5L499.2 499.4L499.2 499.4L499.3 499.3L499.3 499.3L499.3 499.2L499.4 499.2L499.4 499.2L499.4 499.1L499.5 499.1L499.5 499.1L499.6 499L499.6 499L499.6 499L499.7 499L499.7 498.9L499.8 498.9L499.9 498.9L499.9 498.9L500 498.9L500 498.9L500.1 498.9L500.1 498.8L500.2 498.8L500.3 498.9L500.3 498.9L500.4 498.9L500.4 498.9L500.5 498.9L500.6 498.9L500.6 498.9L500.7 499L500.7 499L500.8 499L500.8 499L500.9 499.1L500.9 499.1L501 499.2L501 499.2L501.1 499.3L501.1 499.3L501.2 499.4L501.2 499.4L501.2 499.5L501.3 499.5L501.3 499.6L501.3 499.7L501.4 499.7L501.4 499.8L501.4 499.9L501.4 499.9L501.4 500L501.5 500.1L501.5 500.1L501.5 500.2L501.5 500.3L501.5 500.4L501.4 500.4L501.4 500.5L501.4 500.6L501.4 500.7L501.4 500.7L501.3 500.8L501.3 500.9L501.3 501L501.2 501L501.2 501.1L501.1 501.2L501.1 501.2L501 501.3L501 501.4L500.9 501.4L500.8 501.5L500.8 501.5L500.7 501.6L500.6 501.6L500.6 501.6L500.5 501.7L500.4 501.7L500.3 501.8L500.2 501.8L500.1 501.8L500 501.8L499.9 501.8L499.9 501.8L499.8 501.8L499.7 501.8L499.6 501.8L499.5 501.8L499.4 501.8L499.3 501.8L499.2 501.8L499.1 501.7L499 501.7L498.9 501.7L498.8 501.6L498.7 501.6L498.6 501.5L498.6 501.5L498.5 501.4L498.4 501.3L498.3 501.3L498.2 501.2L498.2 501.1L498.1 501L498 500.9L498 500.8L497.9 500.7L497.9 500.6L497.8 500.5L497.8 500.4L497.8 500.3L497.7 500.2L497.7 500.1L497.7 500L497.7 499.9L497.7 499.8L497.7 499.6L497.7 499.5L497.7 499.4L497.7 499.3L497.7 499.1L497.7 499L497.8 498.9L497.8 498.8L497.9 498.7L497.9 498.6L498 498.4L498 498.3L498.1 498.2L498.2 498.1L498.3 498L498.4 497.9L498.5 497.8L498.6 497.7L498.7 497.6L498.8 497.6L498.9 497.5L499 497.4L499.1 497.3L499.3 497.3L499.4 497.2L499.5 497.2L499.7 497.1L499.8 497.1L500 497.1L500.1 497.1L500.3 497L500.4 497L500.6 497L500.7 497.1L500.9 497.1L501 497.1L501.2 497.1L501.3 497.2L501.5 497.2L501.6 497.3L501.8 497.3L501.9 497.4L502.1 497.5L502.2 497.6L502.3 497.7L502.5 497.8L502.6 497.9L502.7 498L502.8 498.1L502.9 498.3L503 498.4L503.1 498.5L503.2 498.7L503.3 498.8L503.4 499L503.5 499.2L503.5 499.3L503.6 499.5L503.6 499.7L503.7 499.9L503.7 500.1L503.7 500.2L503.7 500.4L503.7 500.6L503.7 500.8L503.7 501L503.7 501.2L503.7 501.4L503.6 501.6L503.5 501.8L503.5 502L503.4 502.2L503.3 502.3L503.2 502.5L503.1 502.7L503 502.9L502.9 503L502.7 503.2L502.6 503.4L502.4 503.5L502.3 503.7L502.1 503.8L501.9 503.9L501.7 504L501.5 504.2L501.3 504.3L501.1 504.4L500.9 504.4L500.7 504.5L500.5 504.6L500.3 504.6L500 504.7L499.8 504.7L499.6 504.7L499.3 504.7L499.1 504.7L498.8 504.7L498.6 504.7L498.3 504.6L498.1 504.6L497.8 504.5L497.6 504.4L497.4 504.3L497.1 504.2L496.9 504.1L496.7 504L496.5 503.9L496.2 503.7L496 503.5L495.8 503.4L495.6 503.2L495.4 503L495.3 502.8L495.1 502.5L494.9 502.3L494.8 502.1L494.7 501.8L494.5 501.6L494.4 501.3L494.3 501L494.2 500.7L494.2 500.4L494.1 500.2L494.1 499.9L494 499.6L494 499.3L494 499L494 498.6L494.1 498.3L494.1 498L494.2 497.7L494.2 497.4L494.3 497.1L494.4 496.8L494.6 496.5L494.7 496.2L494.9 495.9L495 495.6L495.2 495.3L495.4 495.1L495.7 494.8L495.9 494.6L496.1 494.3L496.4 494.1L496.7 493.9L497 493.7L497.3 493.5L497.6 493.3L497.9 493.1L498.2 493L498.6 492.9L498.9 492.7L499.3 492.6L499.6 492.6L500 492.5L500.4 492.4L500.8 492.4L501.2 492.4L501.6 492.4L501.9 492.5L502.3 492.5L502.7 492.6L503.1 492.7L503.5 492.8L503.9 492.9L504.3 493.1L504.7 493.2L505 493.4L505.4 493.6L505.7 493.9L506.1 494.1L506.4 494.4L506.7 494.7L507.1 495L507.4 495.3L507.6 495.6L507.9 496L508.2 496.4L508.4 496.8L508.6 497.2L508.8 497.6L509 498L509.1 498.5L509.3 498.9L509.4 499.4L509.5 499.8L509.5 500.3L509.6 500.8L509.6 501.3L509.6 501.8L509.6 502.3L509.5 502.8L509.4 503.3L509.3 503.7L509.2 504.2L509 504.7L508.9 505.2L508.7 505.7L508.4 506.2L508.2 506.6L507.9 507.1L507.6 507.5L507.2 508L506.9 508.4L506.5 508.8L506.1 509.1L505.7 509.5L505.2 509.9L504.8 510.2L504.3 510.5L503.8 510.8L503.3 511L502.7 511.3L502.2 511.5L501.6 511.7L501.1 511.8L500.5 511.9L499.9 512L499.3 512.1L498.6 512.1L498 512.2L497.4 512.1L496.8 512.1L496.1 512L495.5 511.9L494.9 511.7L494.3 511.5L493.7 511.3L493 511.1L492.4 510.8L491.9 510.5L491.3 510.1L490.7 509.8L490.2 509.3L489.6 508.9L489.1 508.4L488.6 507.9L488.1 507.4L487.7 506.9L487.3 506.3L486.9 505.7L486.5 505.1L486.2 504.4L485.9 503.8L485.6 503.1L485.3 502.4L485.1 501.6L485 500.9L484.8 500.1L484.7 499.4L484.6 498.6L484.6 497.8L484.6 497L484.7 496.2L484.8 495.5L484.9 494.7L485.1 493.9L485.3 493.1L485.6 492.3L485.9 491.5L486.2 490.7L486.6 490L487 489.3L487.5 488.5L487.9 487.8L488.5 487.1L489.1 486.5L489.7 485.9L490.3 485.2L491 484.7L491.7 484.1L492.5 483.6L493.2 483.1L494.1 482.7L494.9 482.3L495.8 481.9L496.6 481.6L497.5 481.3L498.5 481L499.4 480.8L500.4 480.7L501.4 480.6L502.3 480.5L503.3 480.5L504.3 480.6L505.3 480.7L506.3 480.8L507.3 481L508.4 481.3L509.3 481.6L510.3 481.9L511.3 482.3L512.3 482.8L513.2 483.3L514.1 483.9L515 484.5L515.9 485.1L516.8 485.8L517.6 486.6L518.4 487.4L519.1 488.2L519.8 489.1L520.5 490.1L521.1 491L521.7 492L522.2 493.1L522.7 494.2L523.2 495.3L523.6 496.4L523.9 497.6L524.2 498.8L524.4 500L524.5 501.2L524.6 502.4L524.6 503.7L524.6 505L524.5 506.2L524.4 507.5L524.1 508.8L523.8 510L523.5 511.3L523.1 512.6L522.6 513.8L522 515L521.4 516.2L520.7 517.4L520 518.6L519.2 519.7L518.3 520.8L517.4 521.8L516.4 522.8L515.3 523.8L514.2 524.7L513.1 525.6L511.9 526.4L510.6 527.2L509.3 527.9L508 528.5L506.6 529.1L505.1 529.6L503.7 530.1L502.2 530.4L500.7 530.7L499.1 531L497.6 531.1L496 531.2L494.4 531.2L492.8 531.1L491.2 530.9L489.6 530.7L488 530.3L486.4 529.9L484.8 529.4L483.2 528.8L481.6 528.2L480.1 527.4L478.6 526.6L477.1 525.7L475.7 524.7" opacity="0.13"/><path d="M500.2 500L500.2 500L500.2 500L500.2 500L500.2 500L500.2 500L500.2 500.1L500.2 500.1L500.2 500.1L500.2 500.1L500.2 500.1L500.2 500.1L500.2 500.1L500.2 500.1L500.2 500.1L500.2 500.1L500.2 500.2L500.1 500.2L500.1 500.2L500.1 500.2L500.1 500.2L500.1 500.2L500.1 500.2L500.1 500.2L500.1 500.2L500.1 500.2L500.1 500.2L500.1 500.2L500 500.2L500 500.2L500 500.2L500 500.2L500 500.2L500 500.2L500 500.2L500 500.2L499.9 500.2L499.9 500.2L499.9 500.2L499.9 500.2L499.9 500.2L499.9 500.2L499.9 500.2L499.9 500.2L499.8 500.2L499.8 500.2L499.8 500.2L499.8 500.2L499.8 500.2L499.8 500.2L499.8 500.2L499.8 500.2L499.8 500.1L499.7 500.1L499.7 500.1L499.7 500.1L499.7 500.1L499.7 500.1L499.7 500.1L499.7 500.1L499.7 500L499.7 500L499.7 500L499.7 500L499.7 500L499.7 500L499.7 499.9L499.7 499.9L499.7 499.9L499.7 499.9L499.7 499.9L499.7 499.9L499.7 499.9L499.7 499.8L499.7 499.8L499.7 499.8L499.7 499.8L499.7 499.8L499.7 499.8L499.8 499.7L499.8 499.7L499.8 499.7L499.8 499.7L499.8 499.7L499.8 499.7L499.8 499.7L499.9 499.7L499.9 499.7L499.9 499.6L499.9 499.6L499.9 499.6L499.9 499.6L500 499.6L500 499.6L500 499.6L500 499.6L500 499.6L500.1 499.6L500.1 499.6L500.1 499.6L500.1 499.6L500.1 499.6L500.2 499.6L500.2 499.6L500.2 499.6L500.2 499.6L500.2 499.6L500.3 499.7L500.3 499.7L500.3 499.7L500.3 499.7L500.3 499.7L500.3 499.7L500.4 499.7L500.4 499.7L500.4 499.8L500.4 499.8L500.4 499.8L500.4 499.8L500.4 499.8L500.5 499.9L500.5 499.9L500.5 499.9L500.5 499.9L500.5 500L500.5 500L500.5 500L500.5 500L500.5 500.1L500.5 500.1L500.5 500.1L500.5 500.1L500.5 500.2L500.5 500.2L500.5 500.2L500.5 500.2L500.5 500.3L500.5 500.3L500.4 500.3L500.4 500.3L500.4 500.4L500.4 500.4L500.4 500.4L500.4 500.4L500.3 500.5L500.3 500.5L500.3 500.5L500.3 500.5L500.3 500.5L500.2 500.5L500.2 500.6L500.2 500.6L500.2 500.6L500.1 500.6L500.1 500.6L500.1 500.6L500 500.6L500 500.6L500 500.6L499.9 500.6L499.9 500.6L499.9 500.6L499.8 500.6L499.8 500.6L499.8 500.6L499.7 500.6L499.7 500.6L499.7 500.6L499.6 500.6L499.6 500.6L499.6 500.6L499.6 500.5L499.5 500.5L499.5 500.5L499.5 500.5L499.4 500.5L499.4 500.4L499.4 500.4L499.4 500.4L499.3 500.3L499.3 500.3L499.3 500.3L499.3 500.2L499.3 500.2L499.2 500.2L499.2 500.1L499.2 500.1L499.2 500.1L499.2 500L499.2 500L499.2 499.9L499.2 499.9L499.2 499.9L499.2 499.8L499.2 499.8L499.2 499.7L499.2 499.7L499.2 499.6L499.2 499.6L499.3 499.6L499.3 499.5L499.3 499.5L499.3 499.4L499.3 499.4L499.4 499.4L499.4 499.3L499.4 499.3L499.4 499.3L499.5 499.2L499.5 499.2L499.6 499.2L499.6 499.1L499.6 499.1L499.7 499.1L499.7 499.1L499.8 499.1L499.8 499L499.9 499L499.9 499L500 499L500 499L500.1 499L500.1 499L500.2 499L500.2 499L500.3 499L500.3 499L500.4 499L500.4 499L500.5 499L500.5 499L500.6 499.1L500.6 499.1L500.7 499.1L500.7 499.1L500.8 499.2L500.8 499.2L500.9 499.2L500.9 499.3L501 499.3L501 499.4L501 499.4L501.1 499.5L501.1 499.5L501.1 499.6L501.2 499.6L501.2 499.7L501.2 499.7L501.2 499.8L501.3 499.9L501.3 499.9L501.3 500L501.3 500L501.3 500.1L501.3 500.2L501.3 500.2L501.3 500.3L501.3 500.4L501.3 500.4L501.3 500.5L501.2 500.6L501.2 500.6L501.2 500.7L501.2 500.8L501.1 500.8L501.1 500.9L501.1 501L501 501L501 501.1L500.9 501.1L500.9 501.2L500.8 501.2L500.8 501.3L500.7 501.3L500.6 501.4L500.6 501.4L500.5 501.5L500.4 501.5L500.4 501.5L500.3 501.5L500.2 501.6L500.1 501.6L500.1 501.6L500 501.6L499.9 501.6L499.8 501.6L499.7 501.6L499.6 501.6L499.6 501.6L499.5 501.6L499.4 501.6L499.3 501.6L499.2 501.6L499.1 501.5L499.1 501.5L499 501.5L498.9 501.4L498.8 501.4L498.7 501.3L498.7 501.3L498.6 501.2L498.5 501.1L498.5 501.1L498.4 501L498.3 500.9L498.3 500.8L498.2 500.8L498.2 500.7L498.1 500.6L498.1 500.5L498.1 500.4L498 500.3L498 500.2L498 500.1L497.9 500L497.9 499.9L497.9 499.8L497.9 499.7L497.9 499.6L497.9 499.5L497.9 499.4L498 499.3L498 499.2L498 499.1L498.1 499L498.1 498.9L498.1 498.7L498.2 498.6L498.2 498.5L498.3 498.4L498.4 498.4L498.4 498.3L498.5 498.2L498.6 498.1L498.7 498L498.8 497.9L498.9 497.9L499 497.8L499.1 497.7L499.2 497.7L499.3 497.6L499.4 497.6L499.6 497.5L499.7 497.5L499.8 497.4L499.9 497.4L500.1 497.4L500.2 497.4L500.3 497.4L500.5 497.4L500.6 497.4L500.7 497.4L500.9 497.4L501 497.4L501.1 497.5L501.3 497.5L501.4 497.6L501.5 497.6L501.7 497.7L501.8 497.7L501.9 497.8L502 497.9L502.2 498L502.3 498.1L502.4 498.2L502.5 498.3L502.6 498.4L502.7 498.5L502.8 498.7L502.9 498.8L502.9 498.9L503 499.1L503.1 499.2L503.1 499.4L503.2 499.5L503.2 499.7L503.3 499.8L503.3 500L503.3 500.2L503.3 500.3L503.3 500.5L503.3 500.7L503.3 500.8L503.3 501L503.3 501.2L503.2 501.4L503.2 501.5L503.1 501.7L503 501.9L503 502L502.9 502.2L502.8 502.4L502.7 502.5L502.6 502.7L502.5 502.8L502.3 502.9L502.2 503.1L502.1 503.2L501.9 503.3L501.8 503.5L501.6 503.6L501.4 503.7L501.2 503.8L501.1 503.9L500.9 503.9L500.7 504L500.5 504.1L500.3 504.1L500.1 504.1L499.9 504.2L499.7 504.2L499.5 504.2L499.2 504.2L499 504.2L498.8 504.2L498.6 504.1L498.4 504.1L498.2 504L497.9 504L497.7 503.9L497.5 503.8L497.3 503.7L497.1 503.6L496.9 503.5L496.7 503.3L496.5 503.2L496.3 503L496.2 502.9L496 502.7L495.8 502.5L495.7 502.3L495.5 502.1L495.4 501.9L495.3 501.7L495.2 501.4L495.1 501.2L495 501L494.9 500.7L494.8 500.5L494.8 500.2L494.7 500L494.7 499.7L494.7 499.4L494.7 499.1L494.7 498.9L494.7 498.6L494.7 498.3L494.8 498L494.9 497.8L494.9 497.5L495 497.2L495.1 497L495.3 496.7L495.4 496.4L495.6 496.2L495.7 495.9L495.9 495.7L496.1 495.5L496.3 495.2L496.5 495L496.7 494.8L497 494.6L497.2 494.4L497.5 494.3L497.8 494.1L498 493.9L498.3 493.8L498.6 493.7L499 493.6L499.3 493.5L499.6 493.4L499.9 493.3L500.3 493.3L500.6 493.3L500.9 493.3L501.3 493.3L501.6 493.3L502 493.3L502.3 493.4L502.7 493.5L503 493.6L503.4 493.7L503.7 493.8L504 493.9L504.4 494.1L504.7 494.3L505 494.5L505.3 494.7L505.6 494.9L505.9 495.2L506.2 495.5L506.5 495.7L506.7 496L507 496.4L507.2 496.7L507.4 497L507.6 497.4L507.8 497.7L507.9 498.1L508.1 498.5L508.2 498.9L508.3 499.3L508.4 499.7L508.5 500.1L508.5 500.6L508.5 501L508.5 501.4L508.5 501.9L508.5 502.3L508.4 502.8L508.3 503.2L508.2 503.6L508.1 504.1L507.9 504.5L507.8 504.9L507.6 505.4L507.3 505.8L507.1 506.2L506.8 506.6L506.5 507L506.2 507.3L505.9 507.7L505.5 508L505.2 508.4L504.8 508.7L504.4 509L503.9 509.2L503.5 509.5L503.1 509.7L502.6 510L502.1 510.1L501.6 510.3L501.1 510.5L500.6 510.6L500 510.7L499.5 510.7L499 510.8L498.4 510.8L497.9 510.8L497.3 510.8L496.7 510.7L496.2 510.6L495.6 510.5L495.1 510.3L494.5 510.1L494 509.9L493.4 509.7L492.9 509.4L492.4 509.1L491.9 508.8L491.4 508.4L490.9 508L490.5 507.6L490 507.2L489.6 506.7L489.2 506.3L488.8 505.8L488.4 505.2L488.1 504.7L487.8 504.1L487.5 503.5L487.3 502.9L487 502.3L486.8 501.6L486.7 501L486.5 500.3L486.4 499.7L486.4 499L486.3 498.3L486.3 497.6L486.4 496.9L486.4 496.2L486.5 495.5L486.7 494.8L486.9 494L487.1 493.4L487.3 492.7L487.6 492L488 491.3L488.3 490.6L488.7 490L489.2 489.4L489.6 488.8L490.1 488.2L490.7 487.6L491.2 487L491.8 486.5L492.5 486L493.1 485.6L493.8 485.1L494.5 484.7L495.2 484.3L496 484L496.8 483.7L497.6 483.4L498.4 483.2L499.2 483L500.1 482.9L500.9 482.8L501.8 482.7L502.7 482.7L503.6 482.7L504.5 482.8L505.4 482.9L506.3 483.1L507.2 483.3L508 483.5L508.9 483.8L509.8 484.2L510.7 484.6L511.5 485L512.3 485.5L513.1 486L513.9 486.6L514.7 487.2L515.4 487.9L516.1 488.6L516.8 489.3L517.4 490.1L518 490.9L518.6 491.8L519.1 492.7L519.6 493.6L520.1 494.5L520.5 495.5L520.8 496.5L521.1 497.5L521.4 498.6L521.6 499.7L521.8 500.7L521.9 501.8L521.9 503L521.9 504.1L521.8 505.2L521.7 506.3L521.5 507.5L521.3 508.6L521 509.7L520.6 510.8L520.2 511.9L519.7 513L519.2 514.1L518.6 515.2L518 516.2L517.3 517.2L516.5 518.2L515.7 519.1L514.8 520L513.9 520.9L512.9 521.7L511.9 522.5L510.9 523.3L509.8 524L508.6 524.6L507.4 525.2L506.2 525.7L504.9 526.2L503.7 526.6L502.3 527L501 527.2L499.6 527.5L498.2 527.6L496.8 527.7L495.4 527.7L494 527.7L492.6 527.5L491.1 527.3L489.7 527.1L488.3 526.7L486.9 526.3L485.5 525.8L484.1 525.2L482.7 524.6L481.4 523.9L480 523.1L478.7 522.2L477.5 521.3L476.3 520.3L475.1 519.2L474 518.1L472.9 516.9L471.9 515.6L470.9 514.3L470 512.9L469.2 511.5L468.4 510L467.7 508.5L467.1 506.9L466.5 505.3L466.1 503.7L465.7 502L465.3 500.3" opacity="0.13"/><path d="M500.1 500.1L500.1 500.1L500.1 500.2L500.1 500.2L500.1 500.2L500.1 500.2L500.1 500.2L500.1 500.2L500.1 500.2L500.1 500.2L500.1 500.2L500 500.2L500 500.2L500 500.2L500 500.2L500 500.2L500 500.2L500 500.2L500 500.2L500 500.2L500 500.2L499.9 500.2L499.9 500.2L499.9 500.2L499.9 500.2L499.9 500.2L499.9 500.2L499.9 500.2L499.9 500.2L499.9 500.2L499.8 500.2L499.8 500.2L499.8 500.2L499.8 500.2L499.8 500.2L499.8 500.1L499.8 500.1L499.8 500.1L499.8 500.1L499.8 500.1L499.8 500.1L499.7 500.1L499.7 500.1L499.7 500.1L499.7 500L499.7 500L499.7 500L499.7 500L499.7 500L499.7 500L499.7 500L499.7 499.9L499.7 499.9L499.7 499.9L499.7 499.9L499.7 499.9L499.7 499.9L499.7 499.9L499.7 499.8L499.7 499.8L499.8 499.8L499.8 499.8L499.8 499.8L499.8 499.8L499.8 499.8L499.8 499.8L499.8 499.7L499.8 499.7L499.8 499.7L499.9 499.7L499.9 499.7L499.9 499.7L499.9 499.7L499.9 499.7L499.9 499.7L499.9 499.7L500 499.7L500 499.7L500 499.7L500 499.6L500 499.6L500 499.6L500.1 499.6L500.1 499.6L500.1 499.6L500.1 499.7L500.1 499.7L500.2 499.7L500.2 499.7L500.2 499.7L500.2 499.7L500.2 499.7L500.2 499.7L500.3 499.7L500.3 499.7L500.3 499.7L500.3 499.7L500.3 499.8L500.3 499.8L500.3 499.8L500.4 499.8L500.4 499.8L500.4 499.8L500.4 499.9L500.4 499.9L500.4 499.9L500.4 499.9L500.4 499.9L500.4 500L500.4 500L500.4 500L500.4 500L500.4 500L500.4 500.1L500.4 500.1L500.4 500.1L500.4 500.1L500.4 500.2L500.4 500.2L500.4 500.2L500.4 500.2L500.4 500.3L500.4 500.3L500.4 500.3L500.4 500.3L500.4 500.3L500.3 500.4L500.3 500.4L500.3 500.4L500.3 500.4L500.3 500.4L500.3 500.5L500.2 500.5L500.2 500.5L500.2 500.5L500.2 500.5L500.1 500.5L500.1 500.5L500.1 500.5L500.1 500.5L500 500.6L500 500.6L500 500.6L500 500.6L499.9 500.6L499.9 500.6L499.9 500.6L499.8 500.6L499.8 500.6L499.8 500.6L499.7 500.5L499.7 500.5L499.7 500.5L499.7 500.5L499.6 500.5L499.6 500.5L499.6 500.5L499.6 500.4L499.5 500.4L499.5 500.4L499.5 500.4L499.5 500.4L499.4 500.3L499.4 500.3L499.4 500.3L499.4 500.3L499.4 500.2L499.3 500.2L499.3 500.2L499.3 500.1L499.3 500.1L499.3 500.1L499.3 500L499.3 500L499.3 500L499.3 499.9L499.3 499.9L499.3 499.8L499.3 499.8L499.3 499.8L499.3 499.7L499.3 499.7L499.3 499.7L499.3 499.6L499.3 499.6L499.4 499.6L499.4 499.5L499.4 499.5L499.4 499.5L499.4 499.4L499.5 499.4L499.5 499.4L499.5 499.3L499.6 499.3L499.6 499.3L499.6 499.2L499.7 499.2L499.7 499.2L499.7 499.2L499.8 499.2L499.8 499.1L499.9 499.1L499.9 499.1L499.9 499.1L500 499.1L500 499.1L500.1 499.1L500.1 499.1L500.2 499.1L500.2 499.1L500.3 499.1L500.3 499.1L500.4 499.1L500.4 499.1L500.5 499.1L500.5 499.2L500.5 499.2L500.6 499.2L500.6 499.2L500.7 499.3L500.7 499.3L500.8 499.3L500.8 499.4L500.8 499.4L500.9 499.4L500.9 499.5L500.9 499.5L501 499.6L501 499.6L501 499.6L501 499.7L501.1 499.7L501.1 499.8L501.1 499.9L501.1 499.9L501.1 500L501.1 500L501.1 500.1L501.2 500.1L501.2 500.2L501.1 500.3L501.1 500.3L501.1 500.4L501.1 500.4L501.1 500.5L501.1 500.6L501.1 500.6L501 500.7L501 500.7L501 500.8L501 500.8L500.9 500.9L500.9 500.9L500.8 501L500.8 501L500.7 501.1L500.7 501.1L500.6 501.2L500.6 501.2L500.5 501.2L500.5 501.3L500.4 501.3L500.3 501.3L500.3 501.4L500.2 501.4L500.1 501.4L500.1 501.4L500 501.4L499.9 501.5L499.9 501.5L499.8 501.5L499.7 501.5L499.6 501.5L499.6 501.4L499.5 501.4L499.4 501.4L499.3 501.4L499.3 501.4L499.2 501.3L499.1 501.3L499 501.3L499 501.2L498.9 501.2L498.8 501.1L498.8 501.1L498.7 501L498.6 501L498.6 500.9L498.5 500.8L498.5 500.8L498.4 500.7L498.4 500.6L498.4 500.6L498.3 500.5L498.3 500.4L498.2 500.3L498.2 500.2L498.2 500.1L498.2 500L498.2 499.9L498.2 499.9L498.2 499.8L498.2 499.7L498.2 499.6L498.2 499.5L498.2 499.4L498.2 499.3L498.2 499.2L498.3 499.1L498.3 499L498.3 498.9L498.4 498.8L498.4 498.7L498.5 498.6L498.5 498.6L498.6 498.5L498.7 498.4L498.7 498.3L498.8 498.2L498.9 498.2L499 498.1L499.1 498L499.2 498L499.3 497.9L499.4 497.9L499.5 497.8L499.6 497.8L499.7 497.8L499.8 497.7L499.9 497.7L500 497.7L500.1 497.7L500.2 497.7L500.4 497.7L500.5 497.7L500.6 497.7L500.7 497.7L500.9 497.7L501 497.7L501.1 497.8L501.2 497.8L501.3 497.9L501.4 497.9L501.6 498L501.7 498L501.8 498.1L501.9 498.2L502 498.3L502.1 498.4L502.2 498.5L502.3 498.6L502.4 498.7L502.4 498.8L502.5 498.9L502.6 499L502.7 499.1L502.7 499.3L502.8 499.4L502.8 499.5L502.9 499.7L502.9 499.8L502.9 500L502.9 500.1L503 500.3L503 500.4L503 500.6L502.9 500.7L502.9 500.9L502.9 501L502.9 501.2L502.8 501.3L502.8 501.5L502.7 501.6L502.7 501.8L502.6 501.9L502.5 502.1L502.4 502.2L502.3 502.3L502.2 502.5L502.1 502.6L502 502.7L501.9 502.8L501.7 502.9L501.6 503L501.5 503.1L501.3 503.2L501.2 503.3L501 503.4L500.8 503.5L500.7 503.5L500.5 503.6L500.3 503.6L500.1 503.7L499.9 503.7L499.8 503.7L499.6 503.7L499.4 503.7L499.2 503.7L499 503.7L498.8 503.7L498.6 503.7L498.4 503.6L498.2 503.5L498 503.5L497.8 503.4L497.7 503.3L497.5 503.2L497.3 503.1L497.1 503L497 502.9L496.8 502.7L496.6 502.6L496.5 502.4L496.3 502.3L496.2 502.1L496.1 501.9L496 501.7L495.8 501.5L495.7 501.3L495.6 501.1L495.6 500.9L495.5 500.7L495.4 500.5L495.4 500.3L495.3 500L495.3 499.8L495.3 499.6L495.3 499.3L495.3 499.1L495.3 498.8L495.3 498.6L495.4 498.3L495.4 498.1L495.5 497.8L495.6 497.6L495.7 497.4L495.8 497.1L495.9 496.9L496 496.7L496.1 496.5L496.3 496.2L496.5 496L496.6 495.8L496.8 495.6L497 495.4L497.2 495.3L497.5 495.1L497.7 494.9L497.9 494.8L498.2 494.7L498.4 494.5L498.7 494.4L499 494.3L499.3 494.2L499.6 494.2L499.8 494.1L500.1 494.1L500.4 494L500.7 494L501 494L501.4 494L501.7 494.1L502 494.1L502.3 494.2L502.6 494.2L502.9 494.3L503.2 494.4L503.5 494.6L503.8 494.7L504.1 494.9L504.4 495L504.7 495.2L504.9 495.4L505.2 495.7L505.4 495.9L505.7 496.1L505.9 496.4L506.1 496.7L506.3 497L506.5 497.3L506.7 497.6L506.9 497.9L507 498.2L507.1 498.6L507.3 498.9L507.4 499.3L507.4 499.6L507.5 500L507.6 500.4L507.6 500.8L507.6 501.2L507.6 501.6L507.5 501.9L507.5 502.3L507.4 502.7L507.3 503.1L507.2 503.5L507.1 503.9L506.9 504.3L506.8 504.7L506.6 505L506.4 505.4L506.1 505.7L505.9 506.1L505.6 506.4L505.3 506.7L505 507.1L504.7 507.4L504.4 507.6L504 507.9L503.6 508.2L503.2 508.4L502.8 508.6L502.4 508.8L502 509L501.5 509.1L501.1 509.3L500.6 509.4L500.2 509.5L499.7 509.5L499.2 509.6L498.7 509.6L498.2 509.6L497.7 509.6L497.2 509.5L496.7 509.4L496.3 509.3L495.8 509.2L495.3 509L494.8 508.9L494.3 508.7L493.8 508.4L493.4 508.2L492.9 507.9L492.5 507.6L492 507.2L491.6 506.9L491.2 506.5L490.9 506.1L490.5 505.7L490.1 505.2L489.8 504.8L489.5 504.3L489.2 503.8L489 503.3L488.7 502.7L488.5 502.2L488.3 501.6L488.2 501.1L488.1 500.5L488 499.9L487.9 499.3L487.9 498.6L487.8 498L487.9 497.4L487.9 496.8L488 496.1L488.1 495.5L488.3 494.9L488.5 494.3L488.7 493.7L488.9 493L489.2 492.4L489.5 491.9L489.9 491.3L490.2 490.7L490.7 490.2L491.1 489.6L491.6 489.1L492.1 488.6L492.6 488.1L493.1 487.7L493.7 487.3L494.3 486.9L494.9 486.5L495.6 486.2L496.2 485.9L496.9 485.6L497.6 485.3L498.4 485.1L499.1 485L499.9 484.8L500.6 484.7L501.4 484.6L502.2 484.6L503 484.6L503.8 484.7L504.5 484.8L505.3 484.9L506.1 485.1L506.9 485.3L507.7 485.6L508.5 485.9L509.3 486.2L510 486.6L510.7 487L511.5 487.5L512.2 487.9L512.9 488.5L513.5 489.1L514.1 489.7L514.8 490.3L515.3 491L515.9 491.7L516.4 492.5L516.9 493.2L517.3 494.1L517.7 494.9L518.1 495.8L518.4 496.6L518.7 497.5L519 498.5L519.2 499.4L519.3 500.4L519.4 501.4L519.5 502.3L519.5 503.3L519.4 504.3L519.3 505.3L519.2 506.3L519 507.3L518.7 508.4L518.4 509.3L518.1 510.3L517.7 511.3L517.2 512.3L516.7 513.2L516.1 514.1L515.5 515L514.9 515.9L514.2 516.8L513.4 517.6L512.6 518.4L511.8 519.1L510.9 519.8L509.9 520.5L509 521.1L508 521.7L506.9 522.2L505.8 522.7L504.7 523.2L503.6 523.6L502.4 523.9L501.2 524.2L500 524.4L498.8 524.5L497.6 524.6L496.3 524.6L495 524.6L493.8 524.5L492.5 524.4L491.2 524.1L490 523.8L488.7 523.5L487.4 523.1L486.2 522.6L485 522L483.8 521.4L482.6 520.7L481.4 520L480.3 519.2L479.2 518.3L478.2 517.4L477.2 516.4L476.2 515.3L475.3 514.2L474.4 513.1L473.6 511.9L472.8 510.6L472.1 509.3L471.5 508L470.9 506.6L470.4 505.1L469.9 503.7L469.6 502.2L469.3 500.7L469 499.1L468.9 497.6L468.8 496L468.8 494.4L468.9 492.8L469.1 491.2L469.3 489.6L469.7 488L470.1 486.4L470.6 484.8L471.2 483.2L471.8 481.6L472.6 480.1L473.4 478.6L474.3 477.1L475.3 475.7" opacity="0.13"/><path d="M500 500.2L500 500.2L500 500.2L500 500.2L500 500.2L500 500.2L499.9 500.2L499.9 500.2L499.9 500.2L499.9 500.2L499.9 500.2L499.9 500.2L499.9 500.2L499.9 500.2L499.9 500.2L499.9 500.2L499.8 500.2L499.8 500.1L499.8 500.1L499.8 500.1L499.8 500.1L499.8 500.1L499.8 500.1L499.8 500.1L499.8 500.1L499.8 500.1L499.8 500.1L499.8 500.1L499.8 500L499.8 500L499.8 500L499.8 500L499.8 500L499.8 500L499.8 500L499.8 500L499.8 499.9L499.8 499.9L499.8 499.9L499.8 499.9L499.8 499.9L499.8 499.9L499.8 499.9L499.8 499.9L499.8 499.8L499.8 499.8L499.8 499.8L499.8 499.8L499.8 499.8L499.8 499.8L499.8 499.8L499.8 499.8L499.9 499.8L499.9 499.7L499.9 499.7L499.9 499.7L499.9 499.7L499.9 499.7L499.9 499.7L499.9 499.7L500 499.7L500 499.7L500 499.7L500 499.7L500 499.7L500 499.7L500.1 499.7L500.1 499.7L500.1 499.7L500.1 499.7L500.1 499.7L500.1 499.7L500.1 499.7L500.2 499.7L500.2 499.7L500.2 499.7L500.2 499.7L500.2 499.7L500.2 499.7L500.3 499.8L500.3 499.8L500.3 499.8L500.3 499.8L500.3 499.8L500.3 499.8L500.3 499.8L500.3 499.9L500.3 499.9L500.4 499.9L500.4 499.9L500.4 499.9L500.4 499.9L500.4 500L500.4 500L500.4 500L500.4 500L500.4 500L500.4 500.1L500.4 500.1L500.4 500.1L500.4 500.1L500.4 500.1L500.4 500.2L500.4 500.2L500.4 500.2L500.4 500.2L500.4 500.2L500.3 500.3L500.3 500.3L500.3 500.3L500.3 500.3L500.3 500.3L500.3 500.3L500.3 500.4L500.3 500.4L500.2 500.4L500.2 500.4L500.2 500.4L500.2 500.4L500.2 500.4L500.1 500.5L500.1 500.5L500.1 500.5L500.1 500.5L500 500.5L500 500.5L500 500.5L500 500.5L499.9 500.5L499.9 500.5L499.9 500.5L499.9 500.5L499.8 500.5L499.8 500.5L499.8 500.5L499.8 500.5L499.7 500.5L499.7 500.5L499.7 500.4L499.7 500.4L499.6 500.4L499.6 500.4L499.6 500.4L499.6 500.4L499.5 500.3L499.5 500.3L499.5 500.3L499.5 500.3L499.5 500.3L499.5 500.2L499.4 500.2L499.4 500.2L499.4 500.2L499.4 500.1L499.4 500.1L499.4 500.1L499.4 500L499.4 500L499.4 500L499.4 499.9L499.4 499.9L499.4 499.9L499.4 499.8L499.4 499.8L499.4 499.8L499.4 499.7L499.4 499.7L499.4 499.7L499.4 499.6L499.4 499.6L499.4 499.6L499.5 499.6L499.5 499.5L499.5 499.5L499.5 499.5L499.5 499.4L499.6 499.4L499.6 499.4L499.6 499.4L499.7 499.3L499.7 499.3L499.7 499.3L499.8 499.3L499.8 499.3L499.8 499.2L499.9 499.2L499.9 499.2L499.9 499.2L500 499.2L500 499.2L500.1 499.2L500.1 499.2L500.1 499.2L500.2 499.2L500.2 499.2L500.3 499.2L500.3 499.2L500.4 499.2L500.4 499.2L500.4 499.3L500.5 499.3L500.5 499.3L500.6 499.3L500.6 499.3L500.6 499.4L500.7 499.4L500.7 499.4L500.7 499.4L500.8 499.5L500.8 499.5L500.8 499.6L500.9 499.6L500.9 499.6L500.9 499.7L500.9 499.7L500.9 499.8L501 499.8L501 499.9L501 499.9L501 500L501 500L501 500.1L501 500.1L501 500.2L501 500.2L501 500.3L501 500.3L501 500.4L501 500.4L501 500.5L501 500.5L500.9 500.6L500.9 500.6L500.9 500.7L500.9 500.7L500.8 500.8L500.8 500.8L500.8 500.9L500.7 500.9L500.7 501L500.6 501L500.6 501L500.5 501.1L500.5 501.1L500.4 501.1L500.4 501.2L500.3 501.2L500.3 501.2L500.2 501.2L500.1 501.3L500.1 501.3L500 501.3L500 501.3L499.9 501.3L499.8 501.3L499.8 501.3L499.7 501.3L499.6 501.3L499.6 501.3L499.5 501.3L499.4 501.2L499.4 501.2L499.3 501.2L499.2 501.2L499.2 501.1L499.1 501.1L499 501.1L499 501L498.9 501L498.9 500.9L498.8 500.9L498.8 500.8L498.7 500.8L498.7 500.7L498.6 500.6L498.6 500.6L498.5 500.5L498.5 500.4L498.5 500.4L498.5 500.3L498.4 500.2L498.4 500.1L498.4 500.1L498.4 500L498.4 499.9L498.4 499.8L498.4 499.7L498.4 499.6L498.4 499.6L498.4 499.5L498.4 499.4L498.4 499.3L498.4 499.2L498.5 499.1L498.5 499.1L498.5 499L498.6 498.9L498.6 498.8L498.7 498.7L498.7 498.7L498.8 498.6L498.9 498.5L498.9 498.5L499 498.4L499.1 498.3L499.2 498.3L499.2 498.2L499.3 498.2L499.4 498.1L499.5 498.1L499.6 498.1L499.7 498L499.8 498L499.9 498L500 497.9L500.1 497.9L500.2 497.9L500.3 497.9L500.4 497.9L500.5 497.9L500.6 497.9L500.7 498L500.8 498L500.9 498L501 498.1L501.1 498.1L501.3 498.1L501.4 498.2L501.5 498.2L501.6 498.3L501.6 498.4L501.7 498.4L501.8 498.5L501.9 498.6L502 498.7L502.1 498.8L502.1 498.9L502.2 499L502.3 499.1L502.3 499.2L502.4 499.3L502.4 499.4L502.5 499.6L502.5 499.7L502.6 499.8L502.6 499.9L502.6 500.1L502.6 500.2L502.6 500.3L502.6 500.5L502.6 500.6L502.6 500.7L502.6 500.9L502.6 501L502.5 501.1L502.5 501.3L502.4 501.4L502.4 501.5L502.3 501.7L502.3 501.8L502.2 501.9L502.1 502L502 502.2L501.9 502.3L501.8 502.4L501.7 502.5L501.6 502.6L501.5 502.7L501.3 502.8L501.2 502.9L501.1 502.9L500.9 503L500.8 503.1L500.6 503.1L500.5 503.2L500.3 503.2L500.2 503.3L500 503.3L499.8 503.3L499.7 503.3L499.5 503.3L499.3 503.3L499.2 503.3L499 503.3L498.8 503.3L498.6 503.2L498.5 503.2L498.3 503.1L498.1 503L498 503L497.8 502.9L497.6 502.8L497.5 502.7L497.3 502.6L497.2 502.5L497.1 502.3L496.9 502.2L496.8 502.1L496.7 501.9L496.5 501.8L496.4 501.6L496.3 501.4L496.2 501.2L496.1 501.1L496.1 500.9L496 500.7L495.9 500.5L495.9 500.3L495.9 500.1L495.8 499.9L495.8 499.7L495.8 499.5L495.8 499.2L495.8 499L495.8 498.8L495.9 498.6L495.9 498.4L496 498.2L496 497.9L496.1 497.7L496.2 497.5L496.3 497.3L496.4 497.1L496.5 496.9L496.7 496.7L496.8 496.5L497 496.3L497.1 496.2L497.3 496L497.5 495.8L497.7 495.7L497.9 495.5L498.1 495.4L498.3 495.3L498.6 495.2L498.8 495.1L499 495L499.3 494.9L499.5 494.8L499.8 494.8L500 494.7L500.3 494.7L500.6 494.7L500.9 494.7L501.1 494.7L501.4 494.7L501.7 494.7L502 494.8L502.2 494.9L502.5 494.9L502.8 495L503 495.1L503.3 495.3L503.6 495.4L503.8 495.6L504.1 495.7L504.3 495.9L504.5 496.1L504.8 496.3L505 496.5L505.2 496.7L505.4 497L505.6 497.2L505.7 497.5L505.9 497.8L506.1 498L506.2 498.3L506.3 498.6L506.4 499L506.5 499.3L506.6 499.6L506.7 499.9L506.7 500.3L506.7 500.6L506.7 500.9L506.7 501.3L506.7 501.6L506.7 502L506.6 502.3L506.5 502.7L506.4 503L506.3 503.4L506.2 503.7L506.1 504L505.9 504.4L505.7 504.7L505.5 505L505.3 505.3L505.1 505.6L504.8 505.9L504.5 506.2L504.3 506.5L504 506.7L503.6 507L503.3 507.2L503 507.4L502.6 507.6L502.3 507.8L501.9 507.9L501.5 508.1L501.1 508.2L500.7 508.3L500.3 508.4L499.9 508.5L499.4 508.5L499 508.5L498.6 508.5L498.1 508.5L497.7 508.5L497.2 508.4L496.8 508.3L496.4 508.2L495.9 508.1L495.5 507.9L495.1 507.8L494.6 507.6L494.2 507.3L493.8 507.1L493.4 506.8L493 506.5L492.7 506.2L492.3 505.9L492 505.5L491.6 505.2L491.3 504.8L491 504.4L490.8 503.9L490.5 503.5L490.3 503.1L490 502.6L489.9 502.1L489.7 501.6L489.5 501.1L489.4 500.6L489.3 500L489.3 499.5L489.2 499L489.2 498.4L489.2 497.9L489.2 497.3L489.3 496.7L489.4 496.2L489.5 495.6L489.7 495.1L489.9 494.5L490.1 494L490.3 493.4L490.6 492.9L490.9 492.4L491.2 491.9L491.6 491.4L492 490.9L492.4 490.5L492.8 490L493.3 489.6L493.7 489.2L494.2 488.8L494.8 488.4L495.3 488.1L495.9 487.8L496.5 487.5L497.1 487.3L497.7 487L498.4 486.8L499 486.7L499.7 486.5L500.3 486.4L501 486.4L501.7 486.3L502.4 486.3L503.1 486.4L503.8 486.4L504.5 486.5L505.2 486.7L506 486.9L506.6 487.1L507.3 487.3L508 487.6L508.7 488L509.4 488.3L510 488.7L510.6 489.2L511.2 489.6L511.8 490.1L512.4 490.7L513 491.2L513.5 491.8L514 492.5L514.4 493.1L514.9 493.8L515.3 494.5L515.7 495.2L516 496L516.3 496.8L516.6 497.6L516.8 498.4L517 499.2L517.1 500.1L517.2 500.9L517.3 501.8L517.3 502.7L517.3 503.6L517.2 504.5L517.1 505.4L516.9 506.3L516.7 507.2L516.5 508L516.2 508.9L515.8 509.8L515.4 510.7L515 511.5L514.5 512.3L514 513.1L513.4 513.9L512.8 514.7L512.1 515.4L511.4 516.1L510.7 516.8L509.9 517.4L509.1 518L508.2 518.6L507.3 519.1L506.4 519.6L505.5 520.1L504.5 520.5L503.5 520.8L502.5 521.1L501.4 521.4L500.3 521.6L499.3 521.8L498.2 521.9L497 521.9L495.9 521.9L494.8 521.8L493.7 521.7L492.5 521.5L491.4 521.3L490.3 521L489.2 520.6L488.1 520.2L487 519.7L485.9 519.2L484.8 518.6L483.8 518L482.8 517.3L481.8 516.5L480.9 515.7L480 514.8L479.1 513.9L478.3 512.9L477.5 511.9L476.7 510.9L476 509.8L475.4 508.6L474.8 507.4L474.3 506.2L473.8 504.9L473.4 503.7L473 502.3L472.8 501L472.5 499.6L472.4 498.2L472.3 496.8L472.3 495.4L472.3 494L472.5 492.6L472.7 491.1L472.9 489.7L473.3 488.3L473.7 486.9L474.2 485.5L474.8 484.1L475.4 482.7L476.1 481.4L476.9 480L477.8 478.7L478.7 477.5L479.7 476.3L480.8 475.1L481.9 474L483.1 472.9L484.4 471.9L485.7 470.9L487.1 470L488.5 469.2L490 468.4L491.5 467.7L493.1 467.1L494.7 466.5L496.3 466.1L498 465.7L499.7 465.3" opacity="0.13"/><path d="M499.9 500.1L499.9 500.1L499.8 500.1L499.8 500.1L499.8 500.1L499.8 500.1L499.8 500.1L499.8 500.1L499.8 500.1L499.8 500.1L499.8 500.1L499.8 500L499.8 500L499.8 500L499.8 500L499.8 500L499.8 500L499.8 500L499.8 500L499.8 500L499.8 500L499.8 499.9L499.8 499.9L499.8 499.9L499.8 499.9L499.8 499.9L499.8 499.9L499.8 499.9L499.8 499.9L499.8 499.9L499.8 499.8L499.8 499.8L499.8 499.8L499.8 499.8L499.8 499.8L499.9 499.8L499.9 499.8L499.9 499.8L499.9 499.8L499.9 499.8L499.9 499.8L499.9 499.7L499.9 499.7L499.9 499.7L500 499.7L500 499.7L500 499.7L500 499.7L500 499.7L500 499.7L500 499.7L500.1 499.7L500.1 499.7L500.1 499.7L500.1 499.7L500.1 499.7L500.1 499.7L500.1 499.7L500.2 499.7L500.2 499.7L500.2 499.8L500.2 499.8L500.2 499.8L500.2 499.8L500.2 499.8L500.2 499.8L500.3 499.8L500.3 499.8L500.3 499.8L500.3 499.9L500.3 499.9L500.3 499.9L500.3 499.9L500.3 499.9L500.3 499.9L500.3 499.9L500.3 500L500.3 500L500.3 500L500.4 500L500.4 500L500.4 500L500.4 500.1L500.4 500.1L500.4 500.1L500.3 500.1L500.3 500.1L500.3 500.2L500.3 500.2L500.3 500.2L500.3 500.2L500.3 500.2L500.3 500.2L500.3 500.3L500.3 500.3L500.3 500.3L500.3 500.3L500.2 500.3L500.2 500.3L500.2 500.3L500.2 500.4L500.2 500.4L500.2 500.4L500.1 500.4L500.1 500.4L500.1 500.4L500.1 500.4L500.1 500.4L500 500.4L500 500.4L500 500.4L500 500.4L500 500.4L499.9 500.4L499.9 500.4L499.9 500.4L499.9 500.4L499.8 500.4L499.8 500.4L499.8 500.4L499.8 500.4L499.7 500.4L499.7 500.4L499.7 500.4L499.7 500.4L499.7 500.4L499.6 500.3L499.6 500.3L499.6 500.3L499.6 500.3L499.6 500.3L499.5 500.3L499.5 500.2L499.5 500.2L499.5 500.2L499.5 500.2L499.5 500.1L499.5 500.1L499.5 500.1L499.5 500.1L499.4 500L499.4 500L499.4 500L499.4 500L499.4 499.9L499.4 499.9L499.4 499.9L499.4 499.8L499.4 499.8L499.4 499.8L499.5 499.7L499.5 499.7L499.5 499.7L499.5 499.7L499.5 499.6L499.5 499.6L499.5 499.6L499.6 499.6L499.6 499.5L499.6 499.5L499.6 499.5L499.6 499.5L499.7 499.4L499.7 499.4L499.7 499.4L499.7 499.4L499.8 499.4L499.8 499.3L499.8 499.3L499.9 499.3L499.9 499.3L499.9 499.3L500 499.3L500 499.3L500 499.3L500.1 499.3L500.1 499.3L500.2 499.3L500.2 499.3L500.2 499.3L500.3 499.3L500.3 499.3L500.3 499.3L500.4 499.3L500.4 499.3L500.4 499.4L500.5 499.4L500.5 499.4L500.5 499.4L500.6 499.4L500.6 499.5L500.6 499.5L500.7 499.5L500.7 499.6L500.7 499.6L500.8 499.6L500.8 499.7L500.8 499.7L500.8 499.7L500.8 499.8L500.9 499.8L500.9 499.9L500.9 499.9L500.9 499.9L500.9 500L500.9 500L500.9 500.1L500.9 500.1L500.9 500.2L500.9 500.2L500.9 500.3L500.9 500.3L500.9 500.4L500.9 500.4L500.9 500.5L500.8 500.5L500.8 500.5L500.8 500.6L500.8 500.6L500.7 500.7L500.7 500.7L500.7 500.8L500.6 500.8L500.6 500.8L500.6 500.9L500.5 500.9L500.5 500.9L500.4 501L500.4 501L500.4 501L500.3 501L500.3 501.1L500.2 501.1L500.1 501.1L500.1 501.1L500 501.1L500 501.1L499.9 501.1L499.9 501.2L499.8 501.2L499.7 501.1L499.7 501.1L499.6 501.1L499.6 501.1L499.5 501.1L499.4 501.1L499.4 501.1L499.3 501L499.3 501L499.2 501L499.2 501L499.1 500.9L499.1 500.9L499 500.8L499 500.8L498.9 500.7L498.9 500.7L498.8 500.6L498.8 500.6L498.8 500.5L498.7 500.5L498.7 500.4L498.7 500.3L498.6 500.3L498.6 500.2L498.6 500.1L498.6 500.1L498.6 500L498.5 499.9L498.5 499.9L498.5 499.8L498.5 499.7L498.5 499.6L498.6 499.6L498.6 499.5L498.6 499.4L498.6 499.3L498.6 499.3L498.7 499.2L498.7 499.1L498.7 499L498.8 499L498.8 498.9L498.9 498.8L498.9 498.8L499 498.7L499 498.6L499.1 498.6L499.2 498.5L499.2 498.5L499.3 498.4L499.4 498.4L499.4 498.4L499.5 498.3L499.6 498.3L499.7 498.2L499.8 498.2L499.9 498.2L500 498.2L500.1 498.2L500.1 498.2L500.2 498.2L500.3 498.2L500.4 498.2L500.5 498.2L500.6 498.2L500.7 498.2L500.8 498.2L500.9 498.3L501 498.3L501.1 498.3L501.2 498.4L501.3 498.4L501.4 498.5L501.4 498.5L501.5 498.6L501.6 498.7L501.7 498.7L501.8 498.8L501.8 498.9L501.9 499L502 499.1L502 499.2L502.1 499.3L502.1 499.4L502.2 499.5L502.2 499.6L502.2 499.7L502.3 499.8L502.3 499.9L502.3 500L502.3 500.1L502.3 500.2L502.3 500.4L502.3 500.5L502.3 500.6L502.3 500.7L502.3 500.9L502.3 501L502.2 501.1L502.2 501.2L502.1 501.3L502.1 501.4L502 501.6L502 501.7L501.9 501.8L501.8 501.9L501.7 502L501.6 502.1L501.5 502.2L501.4 502.3L501.3 502.4L501.2 502.4L501.1 502.5L501 502.6L500.9 502.7L500.7 502.7L500.6 502.8L500.5 502.8L500.3 502.9L500.2 502.9L500 502.9L499.9 502.9L499.7 503L499.6 503L499.4 503L499.3 502.9L499.1 502.9L499 502.9L498.8 502.9L498.7 502.8L498.5 502.8L498.4 502.7L498.2 502.7L498.1 502.6L497.9 502.5L497.8 502.4L497.7 502.3L497.5 502.2L497.4 502.1L497.3 502L497.2 501.9L497.1 501.7L497 501.6L496.9 501.5L496.8 501.3L496.7 501.2L496.6 501L496.5 500.8L496.5 500.7L496.4 500.5L496.4 500.3L496.3 500.1L496.3 499.9L496.3 499.8L496.3 499.6L496.3 499.4L496.3 499.2L496.3 499L496.3 498.8L496.3 498.6L496.4 498.4L496.5 498.2L496.5 498L496.6 497.8L496.7 497.7L496.8 497.5L496.9 497.3L497 497.1L497.1 497L497.3 496.8L497.4 496.6L497.6 496.5L497.7 496.3L497.9 496.2L498.1 496.1L498.3 496L498.5 495.8L498.7 495.7L498.9 495.6L499.1 495.6L499.3 495.5L499.5 495.4L499.7 495.4L500 495.3L500.2 495.3L500.4 495.3L500.7 495.3L500.9 495.3L501.2 495.3L501.4 495.3L501.7 495.4L501.9 495.4L502.2 495.5L502.4 495.6L502.6 495.7L502.9 495.8L503.1 495.9L503.3 496L503.5 496.1L503.8 496.3L504 496.5L504.2 496.6L504.4 496.8L504.6 497L504.7 497.2L504.9 497.5L505.1 497.7L505.2 497.9L505.3 498.2L505.5 498.4L505.6 498.7L505.7 499L505.8 499.3L505.8 499.6L505.9 499.8L505.9 500.1L506 500.4L506 500.7L506 501L506 501.4L505.9 501.7L505.9 502L505.8 502.3L505.8 502.6L505.7 502.9L505.6 503.2L505.4 503.5L505.3 503.8L505.1 504.1L505 504.4L504.8 504.7L504.6 504.9L504.3 505.2L504.1 505.4L503.9 505.7L503.6 505.9L503.3 506.1L503 506.3L502.7 506.5L502.4 506.7L502.1 506.9L501.8 507L501.4 507.1L501.1 507.3L500.7 507.4L500.4 507.4L500 507.5L499.6 507.6L499.2 507.6L498.8 507.6L498.4 507.6L498.1 507.5L497.7 507.5L497.3 507.4L496.9 507.3L496.5 507.2L496.1 507.1L495.7 506.9L495.3 506.8L495 506.6L494.6 506.4L494.3 506.1L493.9 505.9L493.6 505.6L493.3 505.3L492.9 505L492.6 504.7L492.4 504.4L492.1 504L491.8 503.6L491.6 503.2L491.4 502.8L491.2 502.4L491 502L490.9 501.5L490.7 501.1L490.6 500.6L490.5 500.2L490.5 499.7L490.4 499.2L490.4 498.7L490.4 498.2L490.4 497.7L490.5 497.2L490.6 496.7L490.7 496.3L490.8 495.8L491 495.3L491.1 494.8L491.3 494.3L491.6 493.8L491.8 493.4L492.1 492.9L492.4 492.5L492.8 492L493.1 491.6L493.5 491.2L493.9 490.9L494.3 490.5L494.8 490.1L495.2 489.8L495.7 489.5L496.2 489.2L496.7 489L497.3 488.7L497.8 488.5L498.4 488.3L498.9 488.2L499.5 488.1L500.1 488L500.7 487.9L501.4 487.9L502 487.8L502.6 487.9L503.2 487.9L503.9 488L504.5 488.1L505.1 488.3L505.7 488.5L506.3 488.7L507 488.9L507.6 489.2L508.1 489.5L508.7 489.9L509.3 490.2L509.8 490.7L510.4 491.1L510.9 491.6L511.4 492.1L511.9 492.6L512.3 493.1L512.7 493.7L513.1 494.3L513.5 494.9L513.8 495.6L514.1 496.2L514.4 496.9L514.7 497.6L514.9 498.4L515 499.1L515.2 499.9L515.3 500.6L515.4 501.4L515.4 502.2L515.4 503L515.3 503.8L515.2 504.5L515.1 505.3L514.9 506.1L514.7 506.9L514.4 507.7L514.1 508.5L513.8 509.3L513.4 510L513 510.7L512.5 511.5L512.1 512.2L511.5 512.9L510.9 513.5L510.3 514.1L509.7 514.8L509 515.3L508.3 515.9L507.5 516.4L506.8 516.9L505.9 517.3L505.1 517.7L504.2 518.1L503.4 518.4L502.5 518.7L501.5 519L500.6 519.2L499.6 519.3L498.6 519.4L497.7 519.5L496.7 519.5L495.7 519.4L494.7 519.3L493.7 519.2L492.7 519L491.6 518.7L490.7 518.4L489.7 518.1L488.7 517.7L487.7 517.2L486.8 516.7L485.9 516.1L485 515.5L484.1 514.9L483.2 514.2L482.4 513.4L481.6 512.6L480.9 511.8L480.2 510.9L479.5 509.9L478.9 509L478.3 508L477.8 506.9L477.3 505.8L476.8 504.7L476.4 503.6L476.1 502.4L475.8 501.2L475.6 500L475.5 498.8L475.4 497.6L475.4 496.3L475.4 495L475.5 493.8L475.6 492.5L475.9 491.2L476.2 490L476.5 488.7L476.9 487.4L477.4 486.2L478 485L478.6 483.8L479.3 482.6L480 481.4L480.8 480.3L481.7 479.2L482.6 478.2L483.6 477.2L484.7 476.2L485.8 475.3L486.9 474.4L488.1 473.6L489.4 472.8L490.7 472.1L492 471.5L493.4 470.9L494.9 470.4L496.3 469.9L497.8 469.6L499.3 469.3L500.9 469L502.4 468.9L504 468.8L505.6 468.8L507.2 468.9L508.8 469.1L510.4 469.3L512 469.7L513.6 470.1L515.2 470.6L516.8 471.2L518.4 471.8L519.9 472.6L521.4 473.4L522.9 474.3L524.3 475.3" opacity="0.13"/></g></svg>