<svg xmlns="http://www.w3.org/2000/svg" viewBox="0 0 1000 1000" preserveAspectRatio="xMidYMid slice" fill="none" stroke-linecap="round" stroke-linejoin="round"><g stroke="#0f3d2e" stroke-width="1"><path d="M500 500L500 500L500 500L500 500L500 500L500 500L500 500L500 500L500 500L500 500L500 500L500 500L500 500L500 500L500 500L500 500L500 500L500 500L500 500L500 499.9L500 499.9L500 499.9L500 499.9L500 499.9L500 499.9L500 499.9L500 499.9L500 499.9L500 499.9L500 499.9L500 499.9L500 499.9L500 499.9L500 499.9L500 499.9L500 499.9L500 499.9L500 499.9L500 499.9L500 499.9L500 499.9L500 499.9L500 499.9L500 499.9L500.1 499.9L500.1 499.9L500.1 499.9L500.1 499.9L500.1 499.9L500.1 499.9L500.1 499.9L500.1 499.9L500.1 499.9L500.1 500L500.1 500L500.1 500L500.1 500L500.1 500L500.1 500L500.1 500L500.1 500L500.1 500L500.1 500L500.1 500L500.1 500L500.1 500L500.1 500L500.1 500L500.1 500L500.1 500L500.1 500L500.1 500.1L500.1 500.1L500.1 500.1L500.1 500.1L500.1 500.1L500.1 500.1L500.1 500.1L500.1 500.1L500.1 500.1L500.1 500.1L500.1 500.1L500.1 500.1L500.1 500.1L500.1 500.1L500.1 500.2L500.1 500.2L500.1 500.2L500.1 500.2L500 500.2L500 500.2L500 500.2L500 500.2L500 500.2L500 500.2L500 500.2L500 500.2L500 500.2L500 500.2L500 500.2L499.9 500.2L499.9 500.2L499.9 500.2L499.9 500.2L499.9 500.2L499.9 500.2L499.9 500.2L499.9 500.2L499.8 500.2L499.8 500.2L499.8 500.2L499.8 500.2L499.8 500.2L499.8 500.2L499.8 500.1L499.8 500.1L499.8 500.1L499.8 500.1L499.7 500.1L499.7 500.1L499.7 500.1L499.7 500.1L499.7 500.1L499.7 500L499.7 500L499.7 500L499.7 500L499.7 500L499.7 500L499.7 499.9L499.7 499.9L499.7 499.9L499.7 499.9L499.7 499.9L499.7 499.9L499.7 499.8L499.7 499.8L499.7 499.8L499.7 499.8L499.7 499.8L499.7 499.7L499.7 499.7L499.7 499.7L499.7 499.7L499.8 499.7L499.8 499.7L499.8 499.6L499.8 499.6L499.8 499.6L499.8 499.6L499.8 499.6L499.9 499.6L499.9 499.6L499.9 499.5L499.9 499.5L499.9 499.5L500 499.5L500 499.5L500 499.5L500 499.5L500.1 499.5L500.1 499.5L500.1 499.5L500.2 499.5L500.2 499.5L500.2 499.5L500.2 499.5L500.3 499.5L500.3 499.5L500.3 499.5L500.4 499.5L500.4 499.5L500.4 499.5L500.5 499.6L500.5 499.6L500.5 499.6L500.5 499.6L500.6 499.6L500.6 499.7L500.6 499.7L500.6 499.7L500.7 499.7L500.7 499.8L500.7 499.8L500.7 499.8L500.7 499.9L500.8 499.9L500.8 499.9L500.8 500L500.8 500L500.8 500.1L500.8 500.1L500.8 500.1L500.8 500.2L500.8 500.2L500.8 500.3L500.8 500.3L500.8 500.4L500.8 500.4L500.8 500.5L500.8 500.5L500.8 500.6L500.8 500.6L500.7 500.7L500.7 500.7L500.7 500.8L500.7 500.8L500.6 500.8L500.6 500.9L500.6 500.9L500.5 501L500.5 501L500.4 501.1L500.4 501.1L500.3 501.1L500.3 501.2L500.2 501.2L500.2 501.2L500.1 501.2L500.1 501.3L500 501.3L499.9 501.3L499.9 501.3L499.8 501.3L499.7 501.3L499.7 501.3L499.6 501.3L499.5 501.3L499.4 501.3L499.4 501.3L499.3 501.3L499.2 501.3L499.1 501.3L499.1 501.2L499 501.2L498.9 501.2L498.8 501.1L498.8 501.1L498.7 501L498.6 501L498.5 500.9L498.5 500.9L498.4 500.8L498.3 500.7L498.3 500.7L498.2 500.6L498.2 500.5L498.1 500.4L498.1 500.3L498 500.2L498 500.1L498 500L497.9 499.9L497.9 499.8L497.9 499.7L497.9 499.6L497.9 499.5L497.9 499.4L497.9 499.3L497.9 499.1L497.9 499L497.9 498.9L497.9 498.8L498 498.7L498 498.5L498 498.4L498.1 498.3L498.2 498.2L498.2 498L498.3 497.9L498.4 497.8L498.5 497.7L498.6 497.6L498.7 497.5L498.8 497.4L498.9 497.3L499 497.2L499.1 497.1L499.3 497L499.4 496.9L499.6 496.9L499.7 496.8L499.9 496.7L500 496.7L500.2 496.7L500.4 496.6L500.6 496.6L500.7 496.6L500.9 496.6L501.1 496.6L501.3 496.6L501.5 496.6L501.7 496.6L501.9 496.7L502.1 496.7L502.3 496.8L502.5 496.8L502.7 496.9L502.9 497L503 497.1L503.2 497.2L503.4 497.4L503.6 497.5L503.8 497.6L504 497.8L504.1 498L504.3 498.2L504.4 498.3L504.6 498.5L504.7 498.8L504.8 499L505 499.2L505.1 499.5L505.2 499.7L505.3 500L505.3 500.2L505.4 500.5L505.4 500.8L505.5 501.1L505.5 501.4L505.5 501.7L505.5 502L505.5 502.3L505.4 502.6L505.4 502.9L505.3 503.2L505.2 503.5L505.1 503.8L505 504.1L504.9 504.4L504.7 504.8L504.5 505.1L504.3 505.4L504.1 505.7L503.9 505.9L503.6 506.2L503.4 506.5L503.1 506.8L502.8 507L502.5 507.2L502.1 507.5L501.8 507.7L501.4 507.9L501 508.1L500.6 508.2L500.2 508.4L499.8 508.5L499.4 508.6L498.9 508.7L498.5 508.8L498 508.8L497.5 508.8L497.1 508.8L496.6 508.8L496.1 508.7L495.6 508.7L495.1 508.6L494.6 508.4L494.1 508.3L493.6 508.1L493.1 507.9L492.6 507.6L492.1 507.4L491.6 507.1L491.1 506.7L490.7 506.4L490.2 506L489.8 505.6L489.4 505.1L489 504.7L488.6 504.2L488.2 503.6L487.8 503.1L487.5 502.5L487.2 501.9L486.9 501.3L486.7 500.7L486.5 500L486.3 499.3L486.1 498.6L486 497.9L485.9 497.1L485.9 496.4L485.9 495.6L485.9 494.8L486 494.1L486.1 493.3L486.2 492.5L486.4 491.7L486.6 490.9L486.9 490L487.2 489.2L487.6 488.5L488 487.7L488.5 486.9L489 486.1L489.5 485.4L490.1 484.6L490.8 483.9L491.5 483.2L492.2 482.6L493 481.9L493.8 481.3L494.7 480.8L495.6 480.2L496.5 479.7L497.5 479.3L498.5 478.8L499.6 478.5L500.6 478.2L501.8 477.9L502.9 477.7L504.1 477.5L505.3 477.4L506.5 477.4L507.7 477.4L509 477.5L510.3 477.6L511.5 477.8L512.8 478.1L514.1 478.4L515.4 478.9L516.7 479.3L518 479.9L519.2 480.5L520.5 481.2L521.7 482L522.9 482.9L524.1 483.8L525.3 484.8L526.4 485.9L527.5 487L528.5 488.2L529.5 489.5L530.5 490.9L531.3 492.3L532.2 493.8L532.9 495.3L533.6 496.9L534.2 498.6L534.8 500.3L535.3 502.1L535.6 503.9L535.9 505.8L536.1 507.7L536.3 509.6L536.3 511.6L536.2 513.6L536 515.6L535.7 517.6L535.3 519.7L534.8 521.8L534.2 523.8L533.4 525.9L532.6 527.9L531.6 530L530.5 532L529.3 534L528 536L526.6 537.9L525 539.7L523.4 541.6L521.6 543.3L519.7 545L517.7 546.6L515.5 548.2L513.3 549.6L511 551L508.5 552.3L506 553.4L503.4 554.5L500.7 555.4L497.9 556.2L495 556.9L492 557.4L489 557.8L485.9 558L482.8 558.1L479.6 558L476.4 557.8L473.1 557.4L469.8 556.8L466.5 556.1L463.2 555.2L459.9 554.1L456.6 552.8L453.3 551.3L450.1 549.7L446.9 547.8L443.7 545.8L440.6 543.6L437.6 541.1L434.6 538.5L431.8 535.8L429 532.8L426.4 529.7L423.8 526.3L421.4 522.8L419.2 519.2L417.1 515.3L415.2 511.3L413.4 507.2L411.9 502.9L410.5 498.5L409.3 493.9L408.4 489.2L407.7 484.4L407.2 479.5L406.9 474.5L406.9 469.4L407.2 464.3L407.7 459.1L408.5 453.9L409.6 448.6L411 443.3L412.6 438L414.5 432.7L416.8 427.4L419.3 422.2L422.1 417L425.3 411.9L428.7 406.9L432.4 402L436.5 397.2L440.8 392.6L445.4 388.1L450.4 383.8L455.6 379.6L461.1 375.7L466.8 372L472.9 368.6L479.2 365.4L485.7 362.4L492.5 359.8L499.5 357.5L506.7 355.5L514.1 353.8L521.8 352.5L529.5 351.6L537.5 351L545.6 350.9L553.8 351.1L562 351.8L570.4 352.9L578.9 354.4L587.3 356.4L595.8 358.8L604.3 361.8L612.8 365.1L621.2 369L629.5 373.3L637.7 378.1L645.8 383.4L653.8 389.2L661.5 395.5L669 402.2L676.3 409.5L683.4 417.2L690.1 425.3L696.5 433.9L702.6 443L708.3 452.5L713.6 462.4L718.5 472.7L722.9 483.4L726.8 494.5L730.2 505.9L733.1 517.7L735.5 529.7L737.2 542.1L738.4 554.7L738.9 567.6L738.8 580.6L738 593.9L736.5 607.2L734.3 620.7L731.5 634.3L727.8 647.9L723.5 661.5L718.4 675.1L712.5 688.6L705.9 702L698.5 715.2L690.4 728.2L681.4 741.1L671.7 753.6L661.2 765.8L649.9 777.7L637.9 789.1L625.2 800.1L611.7 810.6L597.5 820.6L582.6 830L567 838.8L550.7 846.8L533.8 854.2L516.3 860.8L498.2 866.7L479.6 871.6L460.5 875.7L440.8 878.9L420.8 881.2L400.4 882.4L379.6 882.7L358.5 881.9L337.2 880L315.6 877L293.9 872.8L272.2 867.6L250.4 861.1L228.6 853.4L206.9 844.5L185.4 834.4L164.1 823.1L143 810.5L122.3 796.7L102 781.7L82.2 765.4L63 747.9L44.4 729.1L26.4 709.2L9.3 688L-7.1 665.8L-22.5 642.3L-37 617.8L-50.4 592.2L-62.7 565.5L-73.8 537.9L-83.6 509.3L-92.2 479.8L-99.4 449.5L-105.1 418.4L-109.3 386.6L-112 354.1L-113.1 321L-112.5 287.4L-110.2 253.4L-106.1 219L-100.3 184.4L-92.6 149.6L-83 114.6L-71.5 79.7L-58.1 44.9L-42.7 10.3L-25.4 -24L-6.1 -57.9L15.2 -91.3L38.5 -124.1L63.8 -156.2L91 -187.4L120.2 -217.6L151.4 -246.9L184.4 -274.9L219.4 -301.6L256.2 -326.9L294.8 -350.8L335.1 -373L377.1 -393.4L420.7 -412L465.9 -428.7L512.5 -443.3L560.6 -455.7L609.9 -465.8L660.4 -473.6L712 -479L764.6 -481.8L818.1 -481.9L872.3 -479.4L927.2 -474.1L982.5 -465.9L1038.2 -454.8L1094.1 -440.7L1150 -423.6L1205.9 -403.4L1261.5 -380.1L1316.7 -353.6L1371.3 -324L1425.1 -291.2L1478.1 -255.2L1530 -216.1L1580.5 -173.7L1629.7 -128.2L1677.2 -79.6L1722.9 -27.9L1766.6 26.8L1808.2 84.5L1847.3 145.2" opacity="0.13"/><path d="M500 500L500 500L500 500L500 500L500 500L500 500L500 500L500 500L500 500L500 500L500 500L500 500L500 500L500 500L500 500L500 500L500 500L500 500L500 500L500.1 500L500.1 500L500.1 500L500.1 500L500.1 500L500.1 500L500.1 500L500.1 500L500.1 500L500.1 500L500.1 500L500.1 500L500.1 500L500.1 500L500.1 500L500.1 500L500.1 500L500.1 500L500.1 500L500.1 500L500.1 500L500.1 500L500.1 500L500.1 500L500.1 500L500.1 500.1L500.1 500.1L500.1 500.1L500.1 500.1L500.1 500.1L500.1 500.1L500.1 500.1L500.1 500.1L500.1 500.1L500 500.1L500 500.1L500 500.1L500 500.1L500 500.1L500 500.1L500 500.1L500 500.1L500 500.1L500 500.1L500 500.1L500 500.1L500 500.1L500 500.1L500 500.1L500 500.1L500 500.1L500 500.1L499.9 500.1L499.9 500.1L499.9 500.1L499.9 500.1L499.9 500.1L499.9 500.1L499.9 500.1L499.9 500.1L499.9 500.1L499.9 500.1L499.9 500.1L499.9 500.1L499.9 500.1L499.9 500.1L499.8 500.1L499.8 500.1L499.8 500.1L499.8 500.1L499.8 500L499.8 500L499.8 500L499.8 500L499.8 500L499.8 500L499.8 500L499.8 500L499.8 500L499.8 500L499.8 500L499.8 499.9L499.8 499.9L499.8 499.9L499.8 499.9L499.8 499.9L499.8 499.9L499.8 499.9L499.8 499.9L499.8 499.8L499.8 499.8L499.8 499.8L499.8 499.8L499.8 499.8L499.8 499.8L499.9 499.8L499.9 499.8L499.9 499.8L499.9 499.8L499.9 499.7L499.9 499.7L499.9 499.7L499.9 499.7L499.9 499.7L500 499.7L500 499.7L500 499.7L500 499.7L500 499.7L500 499.7L500.1 499.7L500.1 499.7L500.1 499.7L500.1 499.7L500.1 499.7L500.1 499.7L500.2 499.7L500.2 499.7L500.2 499.7L500.2 499.7L500.2 499.7L500.3 499.7L500.3 499.7L500.3 499.7L500.3 499.7L500.3 499.8L500.3 499.8L500.4 499.8L500.4 499.8L500.4 499.8L500.4 499.8L500.4 499.8L500.4 499.9L500.4 499.9L500.5 499.9L500.5 499.9L500.5 499.9L500.5 500L500.5 500L500.5 500L500.5 500L500.5 500.1L500.5 500.1L500.5 500.1L500.5 500.2L500.5 500.2L500.5 500.2L500.5 500.2L500.5 500.3L500.5 500.3L500.5 500.3L500.5 500.4L500.5 500.4L500.5 500.4L500.4 500.5L500.4 500.5L500.4 500.5L500.4 500.5L500.4 500.6L500.3 500.6L500.3 500.6L500.3 500.6L500.3 500.7L500.2 500.7L500.2 500.7L500.2 500.7L500.1 500.7L500.1 500.8L500.1 500.8L500 500.8L500 500.8L499.9 500.8L499.9 500.8L499.9 500.8L499.8 500.8L499.8 500.8L499.7 500.8L499.7 500.8L499.6 500.8L499.6 500.8L499.5 500.8L499.5 500.8L499.4 500.8L499.4 500.8L499.3 500.7L499.3 500.7L499.2 500.7L499.2 500.7L499.2 500.6L499.1 500.6L499.1 500.6L499 500.5L499 500.5L498.9 500.4L498.9 500.4L498.9 500.3L498.8 500.3L498.8 500.2L498.8 500.2L498.8 500.1L498.7 500.1L498.7 500L498.7 499.9L498.7 499.9L498.7 499.8L498.7 499.7L498.7 499.7L498.7 499.6L498.7 499.5L498.7 499.4L498.7 499.4L498.7 499.3L498.7 499.2L498.7 499.1L498.8 499.1L498.8 499L498.8 498.9L498.9 498.8L498.9 498.8L499 498.7L499 498.6L499.1 498.5L499.1 498.5L499.2 498.4L499.3 498.3L499.3 498.3L499.4 498.2L499.5 498.2L499.6 498.1L499.7 498.1L499.8 498L499.9 498L500 498L500.1 497.9L500.2 497.9L500.3 497.9L500.4 497.9L500.5 497.9L500.6 497.9L500.7 497.9L500.9 497.9L501 497.9L501.1 497.9L501.2 497.9L501.3 498L501.5 498L501.6 498L501.7 498.1L501.8 498.2L502 498.2L502.1 498.3L502.2 498.4L502.3 498.5L502.4 498.6L502.5 498.7L502.6 498.8L502.7 498.9L502.8 499L502.9 499.1L503 499.3L503.1 499.4L503.1 499.6L503.2 499.7L503.3 499.9L503.3 500L503.3 500.2L503.4 500.4L503.4 500.6L503.4 500.7L503.4 500.9L503.4 501.1L503.4 501.3L503.4 501.5L503.4 501.7L503.3 501.9L503.3 502.1L503.2 502.3L503.2 502.5L503.1 502.7L503 502.9L502.9 503L502.8 503.2L502.6 503.4L502.5 503.6L502.4 503.8L502.2 504L502 504.1L501.8 504.3L501.7 504.4L501.5 504.6L501.2 504.7L501 504.8L500.8 505L500.5 505.1L500.3 505.2L500 505.3L499.8 505.3L499.5 505.4L499.2 505.4L498.9 505.5L498.6 505.5L498.3 505.5L498 505.5L497.7 505.5L497.4 505.4L497.1 505.4L496.8 505.3L496.5 505.2L496.2 505.1L495.9 505L495.6 504.9L495.2 504.7L494.9 504.5L494.6 504.3L494.3 504.1L494.1 503.9L493.8 503.6L493.5 503.4L493.2 503.1L493 502.8L492.8 502.5L492.5 502.1L492.3 501.8L492.1 501.4L491.9 501L491.8 500.6L491.6 500.2L491.5 499.8L491.4 499.4L491.3 498.9L491.2 498.5L491.2 498L491.2 497.5L491.2 497.1L491.2 496.6L491.3 496.1L491.3 495.6L491.4 495.1L491.6 494.6L491.7 494.1L491.9 493.6L492.1 493.1L492.4 492.6L492.6 492.1L492.9 491.6L493.3 491.1L493.6 490.7L494 490.2L494.4 489.8L494.9 489.4L495.3 489L495.8 488.6L496.4 488.2L496.9 487.8L497.5 487.5L498.1 487.2L498.7 486.9L499.3 486.7L500 486.5L500.7 486.3L501.4 486.1L502.1 486L502.9 485.9L503.6 485.9L504.4 485.9L505.2 485.9L505.9 486L506.7 486.1L507.5 486.2L508.3 486.4L509.1 486.6L510 486.9L510.8 487.2L511.5 487.6L512.3 488L513.1 488.5L513.9 489L514.6 489.5L515.4 490.1L516.1 490.8L516.8 491.5L517.4 492.2L518.1 493L518.7 493.8L519.2 494.7L519.8 495.6L520.3 496.5L520.7 497.5L521.2 498.5L521.5 499.6L521.8 500.6L522.1 501.8L522.3 502.9L522.5 504.1L522.6 505.3L522.6 506.5L522.6 507.7L522.5 509L522.4 510.3L522.2 511.5L521.9 512.8L521.6 514.1L521.1 515.4L520.7 516.7L520.1 518L519.5 519.2L518.8 520.5L518 521.7L517.1 522.9L516.2 524.1L515.2 525.3L514.1 526.4L513 527.5L511.8 528.5L510.5 529.5L509.1 530.5L507.7 531.3L506.2 532.2L504.7 532.9L503.1 533.6L501.4 534.2L499.7 534.8L497.9 535.3L496.1 535.6L494.2 535.9L492.3 536.1L490.4 536.3L488.4 536.3L486.4 536.2L484.4 536L482.4 535.7L480.3 535.3L478.2 534.8L476.2 534.2L474.1 533.4L472.1 532.6L470 531.6L468 530.5L466 529.3L464 528L462.1 526.6L460.3 525L458.4 523.4L456.7 521.6L455 519.7L453.4 517.7L451.8 515.5L450.4 513.3L449 511L447.7 508.5L446.6 506L445.5 503.4L444.6 500.7L443.8 497.9L443.1 495L442.6 492L442.2 489L442 485.9L441.9 482.8L442 479.6L442.2 476.4L442.6 473.1L443.2 469.8L443.9 466.5L444.8 463.2L445.9 459.9L447.2 456.6L448.7 453.3L450.3 450.1L452.2 446.9L454.2 443.7L456.4 440.6L458.9 437.6L461.5 434.6L464.2 431.8L467.2 429L470.3 426.4L473.7 423.8L477.2 421.4L480.8 419.2L484.7 417.1L488.7 415.2L492.8 413.4L497.1 411.9L501.5 410.5L506.1 409.3L510.8 408.4L515.6 407.7L520.5 407.2L525.5 406.9L530.6 406.9L535.7 407.2L540.9 407.7L546.1 408.5L551.4 409.6L556.7 411L562 412.6L567.3 414.5L572.6 416.8L577.8 419.3L583 422.1L588.1 425.3L593.1 428.7L598 432.4L602.8 436.5L607.4 440.8L611.9 445.4L616.2 450.4L620.4 455.6L624.3 461.1L628 466.8L631.4 472.9L634.6 479.2L637.6 485.7L640.2 492.5L642.5 499.5L644.5 506.7L646.2 514.1L647.5 521.8L648.4 529.5L649 537.5L649.1 545.6L648.9 553.8L648.2 562L647.1 570.4L645.6 578.9L643.6 587.3L641.2 595.8L638.2 604.3L634.9 612.8L631 621.2L626.7 629.5L621.9 637.7L616.6 645.8L610.8 653.8L604.5 661.5L597.8 669L590.5 676.3L582.8 683.4L574.7 690.1L566.1 696.5L557 702.6L547.5 708.3L537.6 713.6L527.3 718.5L516.6 722.9L505.5 726.8L494.1 730.2L482.3 733.1L470.3 735.5L457.9 737.2L445.3 738.4L432.4 738.9L419.4 738.8L406.1 738L392.8 736.5L379.3 734.3L365.7 731.5L352.1 727.8L338.5 723.5L324.9 718.4L311.4 712.5L298 705.9L284.8 698.5L271.8 690.4L258.9 681.4L246.4 671.7L234.2 661.2L222.3 649.9L210.9 637.9L199.9 625.2L189.4 611.7L179.4 597.5L170 582.6L161.2 567L153.2 550.7L145.8 533.8L139.2 516.3L133.3 498.2L128.4 479.6L124.3 460.5L121.1 440.8L118.8 420.8L117.6 400.4L117.3 379.6L118.1 358.5L120 337.2L123 315.6L127.2 293.9L132.4 272.2L138.9 250.4L146.6 228.6L155.5 206.9L165.6 185.4L176.9 164.1L189.5 143L203.3 122.3L218.3 102L234.6 82.2L252.1 63L270.9 44.4L290.8 26.4L312 9.3L334.2 -7.1L357.7 -22.5L382.2 -37L407.8 -50.4L434.5 -62.7L462.1 -73.8L490.7 -83.6L520.2 -92.2L550.5 -99.4L581.6 -105.1L613.4 -109.3L645.9 -112L679 -113.1L712.6 -112.5L746.6 -110.2L781 -106.1L815.6 -100.3L850.4 -92.6L885.4 -83L920.3 -71.5L955.1 -58.1L989.7 -42.7L1024 -25.4L1057.9 -6.1L1091.3 15.2L1124.1 38.5L1156.2 63.8L1187.4 91L1217.6 120.2L1246.9 151.4L1274.9 184.4L1301.6 219.4L1326.9 256.2L1350.8 294.8L1373 335.1L1393.4 377.1L1412 420.7L1428.7 465.9L1443.3 512.5L1455.7 560.6L1465.8 609.9L1473.6 660.4L1479 712L1481.8 764.6L1481.9 818.1L1479.4 872.3L1474.1 927.2L1465.9 982.5L1454.8 1038.2L1440.7 1094.1L1423.6 1150L1403.4 1205.9L1380.1 1261.5L1353.6 1316.7L1324 1371.3L1291.2 1425.1L1255.2 1478.1L1216.1 1530L1173.7 1580.5L1128.2 1629.7L1079.6 1677.2L1027.9 1722.9L973.2 1766.6L915.5 1808.2L854.8 1847.3" opacity="0.13"/><path d="M500 500L500 500L500 500L500 500L500 500L500 500L500 500L500 500L500 500L500 500L500 500L500 500L500 500L500 500L500 500L500 500L500 500L500 500L500 500L500 500.1L500 500.1L500 500.1L500 500.1L500 500.1L500 500.1L500 500.1L500 500.1L500 500.1L500 500.1L500 500.1L500 500.1L500 500.1L500 500.1L500 500.1L500 500.1L500 500.1L500 500.1L500 500.1L500 500.1L500 500.1L500 500.1L500 500.1L500 500.1L500 500.1L499.9 500.1L499.9 500.1L499.9 500.1L499.9 500.1L499.9 500.1L499.9 500.1L499.9 500.1L499.9 500.1L499.9 500.1L499.9 500L499.9 500L499.9 500L499.9 500L499.9 500L499.9 500L499.9 500L499.9 500L499.9 500L499.9 500L499.9 500L499.9 500L499.9 500L499.9 500L499.9 500L499.9 500L499.9 500L499.9 500L499.9 499.9L499.9 499.9L499.9 499.9L499.9 499.9L499.9 499.9L499.9 499.9L499.9 499.9L499.9 499.9L499.9 499.9L499.9 499.9L499.9 499.9L499.9 499.9L499.9 499.9L499.9 499.9L499.9 499.8L499.9 499.8L499.9 499.8L499.9 499.8L500 499.8L500 499.8L500 499.8L500 499.8L500 499.8L500 499.8L500 499.8L500 499.8L500 499.8L500 499.8L500 499.8L500.1 499.8L500.1 499.8L500.1 499.8L500.1 499.8L500.1 499.8L500.1 499.8L500.1 499.8L500.1 499.8L500.2 499.8L500.2 499.8L500.2 499.8L500.2 499.8L500.2 499.8L500.2 499.8L500.2 499.9L500.2 499.9L500.2 499.9L500.2 499.9L500.3 499.9L500.3 499.9L500.3 499.9L500.3 499.9L500.3 499.9L500.3 500L500.3 500L500.3 500L500.3 500L500.3 500L500.3 500L500.3 500.1L500.3 500.1L500.3 500.1L500.3 500.1L500.3 500.1L500.3 500.1L500.3 500.2L500.3 500.2L500.3 500.2L500.3 500.2L500.3 500.2L500.3 500.3L500.3 500.3L500.3 500.3L500.3 500.3L500.2 500.3L500.2 500.3L500.2 500.4L500.2 500.4L500.2 500.4L500.2 500.4L500.2 500.4L500.1 500.4L500.1 500.4L500.1 500.5L500.1 500.5L500.1 500.5L500 500.5L500 500.5L500 500.5L500 500.5L499.9 500.5L499.9 500.5L499.9 500.5L499.8 500.5L499.8 500.5L499.8 500.5L499.8 500.5L499.7 500.5L499.7 500.5L499.7 500.5L499.6 500.5L499.6 500.5L499.6 500.5L499.5 500.4L499.5 500.4L499.5 500.4L499.5 500.4L499.4 500.4L499.4 500.3L499.4 500.3L499.4 500.3L499.3 500.3L499.3 500.2L499.3 500.2L499.3 500.2L499.3 500.1L499.2 500.1L499.2 500.1L499.2 500L499.2 500L499.2 499.9L499.2 499.9L499.2 499.9L499.2 499.8L499.2 499.8L499.2 499.7L499.2 499.7L499.2 499.6L499.2 499.6L499.2 499.5L499.2 499.5L499.2 499.4L499.2 499.4L499.3 499.3L499.3 499.3L499.3 499.2L499.3 499.2L499.4 499.2L499.4 499.1L499.4 499.1L499.5 499L499.5 499L499.6 498.9L499.6 498.9L499.7 498.9L499.7 498.8L499.8 498.8L499.8 498.8L499.9 498.8L499.9 498.7L500 498.7L500.1 498.7L500.1 498.7L500.2 498.7L500.3 498.7L500.3 498.7L500.4 498.7L500.5 498.7L500.6 498.7L500.6 498.7L500.7 498.7L500.8 498.7L500.9 498.7L500.9 498.8L501 498.8L501.1 498.8L501.2 498.9L501.2 498.9L501.3 499L501.4 499L501.5 499.1L501.5 499.1L501.6 499.2L501.7 499.3L501.7 499.3L501.8 499.4L501.8 499.5L501.9 499.6L501.9 499.7L502 499.8L502 499.9L502 500L502.1 500.1L502.1 500.2L502.1 500.3L502.1 500.4L502.1 500.5L502.1 500.6L502.1 500.7L502.1 500.9L502.1 501L502.1 501.1L502.1 501.2L502 501.3L502 501.5L502 501.6L501.9 501.7L501.8 501.8L501.8 502L501.7 502.1L501.6 502.2L501.5 502.3L501.4 502.4L501.3 502.5L501.2 502.6L501.1 502.7L501 502.8L500.9 502.9L500.7 503L500.6 503.1L500.4 503.1L500.3 503.2L500.1 503.3L500 503.3L499.8 503.3L499.6 503.4L499.4 503.4L499.3 503.4L499.1 503.4L498.9 503.4L498.7 503.4L498.5 503.4L498.3 503.4L498.1 503.3L497.9 503.3L497.7 503.2L497.5 503.2L497.3 503.1L497.1 503L497 502.9L496.8 502.8L496.6 502.6L496.4 502.5L496.2 502.4L496 502.2L495.9 502L495.7 501.8L495.6 501.7L495.4 501.5L495.3 501.2L495.2 501L495 500.8L494.9 500.5L494.8 500.3L494.7 500L494.7 499.8L494.6 499.5L494.6 499.2L494.5 498.9L494.5 498.6L494.5 498.3L494.5 498L494.5 497.7L494.6 497.4L494.6 497.1L494.7 496.8L494.8 496.5L494.9 496.2L495 495.9L495.1 495.6L495.3 495.2L495.5 494.9L495.7 494.6L495.9 494.3L496.1 494.1L496.4 493.8L496.6 493.5L496.9 493.2L497.2 493L497.5 492.8L497.9 492.5L498.2 492.3L498.6 492.1L499 491.9L499.4 491.8L499.8 491.6L500.2 491.5L500.6 491.4L501.1 491.3L501.5 491.2L502 491.2L502.5 491.2L502.9 491.2L503.4 491.2L503.9 491.3L504.4 491.3L504.9 491.4L505.4 491.6L505.9 491.7L506.4 491.9L506.9 492.1L507.4 492.4L507.9 492.6L508.4 492.9L508.9 493.3L509.3 493.6L509.8 494L510.2 494.4L510.6 494.9L511 495.3L511.4 495.8L511.8 496.4L512.2 496.9L512.5 497.5L512.8 498.1L513.1 498.7L513.3 499.3L513.5 500L513.7 500.7L513.9 501.4L514 502.1L514.1 502.9L514.1 503.6L514.1 504.4L514.1 505.2L514 505.9L513.9 506.7L513.8 507.5L513.6 508.3L513.4 509.1L513.1 510L512.8 510.8L512.4 511.5L512 512.3L511.5 513.1L511 513.9L510.5 514.6L509.9 515.4L509.2 516.1L508.5 516.8L507.8 517.4L507 518.1L506.2 518.7L505.3 519.2L504.4 519.8L503.5 520.3L502.5 520.7L501.5 521.2L500.4 521.5L499.4 521.8L498.2 522.1L497.1 522.3L495.9 522.5L494.7 522.6L493.5 522.6L492.3 522.6L491 522.5L489.7 522.4L488.5 522.2L487.2 521.9L485.9 521.6L484.6 521.1L483.3 520.7L482 520.1L480.8 519.5L479.5 518.8L478.3 518L477.1 517.1L475.9 516.2L474.7 515.2L473.6 514.1L472.5 513L471.5 511.8L470.5 510.5L469.5 509.1L468.7 507.7L467.8 506.2L467.1 504.7L466.4 503.1L465.8 501.4L465.2 499.7L464.7 497.9L464.4 496.1L464.1 494.2L463.9 492.3L463.7 490.4L463.7 488.4L463.8 486.4L464 484.4L464.3 482.4L464.7 480.3L465.2 478.2L465.8 476.2L466.6 474.1L467.4 472.1L468.4 470L469.5 468L470.7 466L472 464L473.4 462.1L475 460.3L476.6 458.4L478.4 456.7L480.3 455L482.3 453.4L484.5 451.8L486.7 450.4L489 449L491.5 447.7L494 446.6L496.6 445.5L499.3 444.6L502.1 443.8L505 443.1L508 442.6L511 442.2L514.1 442L517.2 441.9L520.4 442L523.6 442.2L526.9 442.6L530.2 443.2L533.5 443.9L536.8 444.8L540.1 445.9L543.4 447.2L546.7 448.7L549.9 450.3L553.1 452.2L556.3 454.2L559.4 456.4L562.4 458.9L565.4 461.5L568.2 464.2L571 467.2L573.6 470.3L576.2 473.7L578.6 477.2L580.8 480.8L582.9 484.7L584.8 488.7L586.6 492.8L588.1 497.1L589.5 501.5L590.7 506.1L591.6 510.8L592.3 515.6L592.8 520.5L593.1 525.5L593.1 530.6L592.8 535.7L592.3 540.9L591.5 546.1L590.4 551.4L589 556.7L587.4 562L585.5 567.3L583.2 572.6L580.7 577.8L577.9 583L574.7 588.1L571.3 593.1L567.6 598L563.5 602.8L559.2 607.4L554.6 611.9L549.6 616.2L544.4 620.4L538.9 624.3L533.2 628L527.1 631.4L520.8 634.6L514.3 637.6L507.5 640.2L500.5 642.5L493.3 644.5L485.9 646.2L478.2 647.5L470.5 648.4L462.5 649L454.4 649.1L446.2 648.9L438 648.2L429.6 647.1L421.1 645.6L412.7 643.6L404.2 641.2L395.7 638.2L387.2 634.9L378.8 631L370.5 626.7L362.3 621.9L354.2 616.6L346.2 610.8L338.5 604.5L331 597.8L323.7 590.5L316.6 582.8L309.9 574.7L303.5 566.1L297.4 557L291.7 547.5L286.4 537.6L281.5 527.3L277.1 516.6L273.2 505.5L269.8 494.1L266.9 482.3L264.5 470.3L262.8 457.9L261.6 445.3L261.1 432.4L261.2 419.4L262 406.1L263.5 392.8L265.7 379.3L268.5 365.7L272.2 352.1L276.5 338.5L281.6 324.9L287.5 311.4L294.1 298L301.5 284.8L309.6 271.8L318.6 258.9L328.3 246.4L338.8 234.2L350.1 222.3L362.1 210.9L374.8 199.9L388.3 189.4L402.5 179.4L417.4 170L433 161.2L449.3 153.2L466.2 145.8L483.7 139.2L501.8 133.3L520.4 128.4L539.5 124.3L559.2 121.1L579.2 118.8L599.6 117.6L620.4 117.3L641.5 118.1L662.8 120L684.4 123L706.1 127.2L727.8 132.4L749.6 138.9L771.4 146.6L793.1 155.5L814.6 165.6L835.9 176.9L857 189.5L877.7 203.3L898 218.3L917.8 234.6L937 252.1L955.6 270.9L973.6 290.8L990.7 312L1007.1 334.2L1022.5 357.7L1037 382.2L1050.4 407.8L1062.7 434.5L1073.8 462.1L1083.6 490.7L1092.2 520.2L1099.4 550.5L1105.1 581.6L1109.3 613.4L1112 645.9L1113.1 679L1112.5 712.6L1110.2 746.6L1106.1 781L1100.3 815.6L1092.6 850.4L1083 885.4L1071.5 920.3L1058.1 955.1L1042.7 989.7L1025.4 1024L1006.1 1057.9L984.8 1091.3L961.5 1124.1L936.2 1156.2L909 1187.4L879.8 1217.6L848.6 1246.9L815.6 1274.9L780.6 1301.6L743.8 1326.9L705.2 1350.8L664.9 1373L622.9 1393.4L579.3 1412L534.1 1428.7L487.5 1443.3L439.4 1455.7L390.1 1465.8L339.6 1473.6L288 1479L235.4 1481.8L181.9 1481.9L127.7 1479.4L72.8 1474.1L17.5 1465.9L-38.2 1454.8L-94.1 1440.7L-150 1423.6L-205.9 1403.4L-261.5 1380.1L-316.7 1353.6L-371.3 1324L-425.1 1291.2L-478.1 1255.2L-530 1216.1L-580.5 1173.7L-629.7 1128.2L-677.2 1079.6L-722.9 1027.9L-766.6 973.2L-808.2 915.5L-847.3 854.8" opacity="0.13"/><path d="M500 500L500 500L500 500L500 500L500 500L500 500L500 500L500 500L500 500L500 500L500 500L500 500L500 500L500 500L500 500L500 500L500 500L500 500L500 500L499.9 500L499.9 500L499.9 500L499.9 500L499.9 500L499.9 500L499.9 500L499.9 500L499.9 500L499.9 500L499.9 500L499.9 500L499.9 500L499.9 500L499.9 500L499.9 500L499.9 500L499.9 500L499.9 500L499.9 500L499.9 500L499.9 500L499.9 500L499.9 500L499.9 500L499.9 499.9L499.9 499.9L499.9 499.9L499.9 499.9L499.9 499.9L499.9 499.9L499.9 499.9L499.9 499.9L499.9 499.9L500 499.9L500 499.9L500 499.9L500 499.9L500 499.9L500 499.9L500 499.9L500 499.9L500 499.9L500 499.9L500 499.9L500 499.9L500 499.9L500 499.9L500 499.9L500 499.9L500 499.9L500 499.9L500.1 499.9L500.1 499.9L500.1 499.9L500.1 499.9L500.1 499.9L500.1 499.9L500.1 499.9L500.1 499.9L500.1 499.9L500.1 499.9L500.1 499.9L500.1 499.9L500.1 499.9L500.1 499.9L500.2 499.9L500.2 499.9L500.2 499.9L500.2 499.9L500.2 500L500.2 500L500.2 500L500.2 500L500.2 500L500.2 500L500.2 500L500.2 500L500.2 500L500.2 500L500.2 500L500.2 500.1L500.2 500.1L500.2 500.1L500.2 500.1L500.2 500.1L500.2 500.1L500.2 500.1L500.2 500.1L500.2 500.2L500.2 500.2L500.2 500.2L500.2 500.2L500.2 500.2L500.2 500.2L500.1 500.2L500.1 500.2L500.1 500.2L500.1 500.2L500.1 500.3L500.1 500.3L500.1 500.3L500.1 500.3L500.1 500.3L500 500.3L500 500.3L500 500.3L500 500.3L500 500.3L500 500.3L499.9 500.3L499.9 500.3L499.9 500.3L499.9 500.3L499.9 500.3L499.9 500.3L499.8 500.3L499.8 500.3L499.8 500.3L499.8 500.3L499.8 500.3L499.7 500.3L499.7 500.3L499.7 500.3L499.7 500.3L499.7 500.2L499.7 500.2L499.6 500.2L499.6 500.2L499.6 500.2L499.6 500.2L499.6 500.2L499.6 500.1L499.6 500.1L499.5 500.1L499.5 500.1L499.5 500.1L499.5 500L499.5 500L499.5 500L499.5 500L499.5 499.9L499.5 499.9L499.5 499.9L499.5 499.8L499.5 499.8L499.5 499.8L499.5 499.8L499.5 499.7L499.5 499.7L499.5 499.7L499.5 499.6L499.5 499.6L499.5 499.6L499.6 499.5L499.6 499.5L499.6 499.5L499.6 499.5L499.6 499.4L499.7 499.4L499.7 499.4L499.7 499.4L499.7 499.3L499.8 499.3L499.8 499.3L499.8 499.3L499.9 499.3L499.9 499.2L499.9 499.2L500 499.2L500 499.2L500.1 499.2L500.1 499.2L500.1 499.2L500.2 499.2L500.2 499.2L500.3 499.2L500.3 499.2L500.4 499.2L500.4 499.2L500.5 499.2L500.5 499.2L500.6 499.2L500.6 499.2L500.7 499.3L500.7 499.3L500.8 499.3L500.8 499.3L500.8 499.4L500.9 499.4L500.9 499.4L501 499.5L501 499.5L501.1 499.6L501.1 499.6L501.1 499.7L501.2 499.7L501.2 499.8L501.2 499.8L501.2 499.9L501.3 499.9L501.3 500L501.3 500.1L501.3 500.1L501.3 500.2L501.3 500.3L501.3 500.3L501.3 500.4L501.3 500.5L501.3 500.6L501.3 500.6L501.3 500.7L501.3 500.8L501.3 500.9L501.2 500.9L501.2 501L501.2 501.1L501.1 501.2L501.1 501.2L501 501.3L501 501.4L500.9 501.5L500.9 501.5L500.8 501.6L500.7 501.7L500.7 501.7L500.6 501.8L500.5 501.8L500.4 501.9L500.3 501.9L500.2 502L500.1 502L500 502L499.9 502.1L499.8 502.1L499.7 502.1L499.6 502.1L499.5 502.1L499.4 502.1L499.3 502.1L499.1 502.1L499 502.1L498.9 502.1L498.8 502.1L498.7 502L498.5 502L498.4 502L498.3 501.9L498.2 501.8L498 501.8L497.9 501.7L497.8 501.6L497.7 501.5L497.6 501.4L497.5 501.3L497.4 501.2L497.3 501.1L497.2 501L497.1 500.9L497 500.7L496.9 500.6L496.9 500.4L496.8 500.3L496.7 500.1L496.7 500L496.7 499.8L496.6 499.6L496.6 499.4L496.6 499.3L496.6 499.1L496.6 498.9L496.6 498.7L496.6 498.5L496.6 498.3L496.7 498.1L496.7 497.9L496.8 497.7L496.8 497.5L496.9 497.3L497 497.1L497.1 497L497.2 496.8L497.4 496.6L497.5 496.4L497.6 496.2L497.8 496L498 495.9L498.2 495.7L498.3 495.6L498.5 495.4L498.8 495.3L499 495.2L499.2 495L499.5 494.9L499.7 494.8L500 494.7L500.2 494.7L500.5 494.6L500.8 494.6L501.1 494.5L501.4 494.5L501.7 494.5L502 494.5L502.3 494.5L502.6 494.6L502.9 494.6L503.2 494.7L503.5 494.8L503.8 494.9L504.1 495L504.4 495.1L504.8 495.3L505.1 495.5L505.4 495.7L505.7 495.9L505.9 496.1L506.2 496.4L506.5 496.6L506.8 496.9L507 497.2L507.2 497.5L507.5 497.9L507.7 498.2L507.9 498.6L508.1 499L508.2 499.4L508.4 499.8L508.5 500.2L508.6 500.6L508.7 501.1L508.8 501.5L508.8 502L508.8 502.5L508.8 502.9L508.8 503.4L508.7 503.9L508.7 504.4L508.6 504.9L508.4 505.4L508.3 505.9L508.1 506.4L507.9 506.9L507.6 507.4L507.4 507.9L507.1 508.4L506.7 508.9L506.4 509.3L506 509.8L505.6 510.2L505.1 510.6L504.7 511L504.2 511.4L503.6 511.8L503.1 512.2L502.5 512.5L501.9 512.8L501.3 513.1L500.7 513.3L500 513.5L499.3 513.7L498.6 513.9L497.9 514L497.1 514.1L496.4 514.1L495.6 514.1L494.8 514.1L494.1 514L493.3 513.9L492.5 513.8L491.7 513.6L490.9 513.4L490 513.1L489.2 512.8L488.5 512.4L487.7 512L486.9 511.5L486.1 511L485.4 510.5L484.6 509.9L483.9 509.2L483.2 508.5L482.6 507.8L481.9 507L481.3 506.2L480.8 505.3L480.2 504.4L479.7 503.5L479.3 502.5L478.8 501.5L478.5 500.4L478.2 499.4L477.9 498.2L477.7 497.1L477.5 495.9L477.4 494.7L477.4 493.5L477.4 492.3L477.5 491L477.6 489.7L477.8 488.5L478.1 487.2L478.4 485.9L478.9 484.6L479.3 483.3L479.9 482L480.5 480.8L481.2 479.5L482 478.3L482.9 477.1L483.8 475.9L484.8 474.7L485.9 473.6L487 472.5L488.2 471.5L489.5 470.5L490.9 469.5L492.3 468.7L493.8 467.8L495.3 467.1L496.9 466.4L498.6 465.8L500.3 465.2L502.1 464.7L503.9 464.4L505.8 464.1L507.7 463.9L509.6 463.7L511.6 463.7L513.6 463.8L515.6 464L517.6 464.3L519.7 464.7L521.8 465.2L523.8 465.8L525.9 466.6L527.9 467.4L530 468.4L532 469.5L534 470.7L536 472L537.9 473.4L539.7 475L541.6 476.6L543.3 478.4L545 480.3L546.6 482.3L548.2 484.5L549.6 486.7L551 489L552.3 491.5L553.4 494L554.5 496.6L555.4 499.3L556.2 502.1L556.9 505L557.4 508L557.8 511L558 514.1L558.1 517.2L558 520.4L557.8 523.6L557.4 526.9L556.8 530.2L556.1 533.5L555.2 536.8L554.1 540.1L552.8 543.4L551.3 546.7L549.7 549.9L547.8 553.1L545.8 556.3L543.6 559.4L541.1 562.4L538.5 565.4L535.8 568.2L532.8 571L529.7 573.6L526.3 576.2L522.8 578.6L519.2 580.8L515.3 582.9L511.3 584.8L507.2 586.6L502.9 588.1L498.5 589.5L493.9 590.7L489.2 591.6L484.4 592.3L479.5 592.8L474.5 593.1L469.4 593.1L464.3 592.8L459.1 592.3L453.9 591.5L448.6 590.4L443.3 589L438 587.4L432.7 585.5L427.4 583.2L422.2 580.7L417 577.9L411.9 574.7L406.9 571.3L402 567.6L397.2 563.5L392.6 559.2L388.1 554.6L383.8 549.6L379.6 544.4L375.7 538.9L372 533.2L368.6 527.1L365.4 520.8L362.4 514.3L359.8 507.5L357.5 500.5L355.5 493.3L353.8 485.9L352.5 478.2L351.6 470.5L351 462.5L350.9 454.4L351.1 446.2L351.8 438L352.9 429.6L354.4 421.1L356.4 412.7L358.8 404.2L361.8 395.7L365.1 387.2L369 378.8L373.3 370.5L378.1 362.3L383.4 354.2L389.2 346.2L395.5 338.5L402.2 331L409.5 323.7L417.2 316.6L425.3 309.9L433.9 303.5L443 297.4L452.5 291.7L462.4 286.4L472.7 281.5L483.4 277.1L494.5 273.2L505.9 269.8L517.7 266.9L529.7 264.5L542.1 262.8L554.7 261.6L567.6 261.1L580.6 261.2L593.9 262L607.2 263.5L620.7 265.7L634.3 268.5L647.9 272.2L661.5 276.5L675.1 281.6L688.6 287.5L702 294.1L715.2 301.5L728.2 309.6L741.1 318.6L753.6 328.3L765.8 338.8L777.7 350.1L789.1 362.1L800.1 374.8L810.6 388.3L820.6 402.5L830 417.4L838.8 433L846.8 449.3L854.2 466.2L860.8 483.7L866.7 501.8L871.6 520.4L875.7 539.5L878.9 559.2L881.2 579.2L882.4 599.6L882.7 620.4L881.9 641.5L880 662.8L877 684.4L872.8 706.1L867.6 727.8L861.1 749.6L853.4 771.4L844.5 793.1L834.4 814.6L823.1 835.9L810.5 857L796.7 877.7L781.7 898L765.4 917.8L747.9 937L729.1 955.6L709.2 973.6L688 990.7L665.8 1007.1L642.3 1022.5L617.8 1037L592.2 1050.4L565.5 1062.7L537.9 1073.8L509.3 1083.6L479.8 1092.2L449.5 1099.4L418.4 1105.1L386.6 1109.3L354.1 1112L321 1113.1L287.4 1112.5L253.4 1110.2L219 1106.1L184.4 1100.3L149.6 1092.6L114.6 1083L79.7 1071.5L44.9 1058.1L10.3 1042.7L-24 1025.4L-57.9 1006.1L-91.3 984.8L-124.1 961.5L-156.2 936.2L-187.4 909L-217.6 879.8L-246.9 848.6L-274.9 815.6L-301.6 780.6L-326.9 743.8L-350.8 705.2L-373 664.9L-393.4 622.9L-412 579.3L-428.7 534.1L-443.3 487.5L-455.7 439.4L-465.8 390.1L-473.6 339.6L-479 288L-481.8 235.4L-481.9 181.9L-479.4 127.7L-474.1 72.8L-465.9 17.5L-454.8 -38.2L-440.7 -94.1L-423.6 -150L-403.4 -205.9L-380.1 -261.5L-353.6 -316.7L-324 -371.3L-291.2 -425.1L-255.2 -478.1L-216.1 -530L-173.7 -580.5L-128.2 -629.7L-79.6 -677.2L-27.9 -722.9L26.8 -766.6L84.5 -808.2L145.2 -847.3" opacity="0.13"/></g></svg>