<svg xmlns="http://www.w3.org/2000/svg" viewBox="0 0 1000 1000" preserveAspectRatio="xMidYMid slice" fill="none" stroke-linecap="round" stroke-linejoin="round"><g stroke="#0f3d2e" stroke-width="1"><path d="M499.8 500L499.8 500L499.8 500L499.8 500L499.8 500L499.8 500L499.8 499.9L499.8 499.9L499.8 499.9L499.8 499.9L499.8 499.9L499.8 499.9L499.9 499.9L499.9 499.9L499.9 499.9L499.9 499.9L499.9 499.9L499.9 499.9L499.9 499.9L499.9 499.8L499.9 499.8L499.9 499.8L499.9 499.8L499.9 499.8L499.9 499.8L499.9 499.8L499.9 499.8L500 499.8L500 499.8L500 499.8L500 499.8L500 499.8L500 499.8L500 499.8L500 499.8L500 499.8L500 499.8L500.1 499.8L500.1 499.8L500.1 499.8L500.1 499.8L500.1 499.8L500.1 499.8L500.1 499.8L500.1 499.8L500.1 499.8L500.2 499.8L500.2 499.8L500.2 499.8L500.2 499.8L500.2 499.9L500.2 499.9L500.2 499.9L500.2 499.9L500.2 499.9L500.2 499.9L500.2 499.9L500.3 499.9L500.3 499.9L500.3 499.9L500.3 500L500.3 500L500.3 500L500.3 500L500.3 500L500.3 500L500.3 500L500.3 500.1L500.3 500.1L500.3 500.1L500.3 500.1L500.3 500.1L500.3 500.1L500.3 500.1L500.3 500.2L500.3 500.2L500.2 500.2L500.2 500.2L500.2 500.2L500.2 500.2L500.2 500.2L500.2 500.3L500.2 500.3L500.2 500.3L500.2 500.3L500.1 500.3L500.1 500.3L500.1 500.3L500.1 500.3L500.1 500.3L500.1 500.3L500.1 500.3L500 500.4L500 500.4L500 500.4L500 500.4L500 500.4L499.9 500.4L499.9 500.4L499.9 500.4L499.9 500.4L499.9 500.4L499.9 500.4L499.8 500.4L499.8 500.3L499.8 500.3L499.8 500.3L499.8 500.3L499.7 500.3L499.7 500.3L499.7 500.3L499.7 500.3L499.7 500.3L499.7 500.2L499.6 500.2L499.6 500.2L499.6 500.2L499.6 500.2L499.6 500.2L499.6 500.1L499.6 500.1L499.6 500.1L499.6 500.1L499.5 500.1L499.5 500L499.5 500L499.5 500L499.5 500L499.5 499.9L499.5 499.9L499.5 499.9L499.5 499.9L499.5 499.8L499.5 499.8L499.5 499.8L499.5 499.8L499.6 499.7L499.6 499.7L499.6 499.7L499.6 499.7L499.6 499.7L499.6 499.6L499.6 499.6L499.6 499.6L499.7 499.6L499.7 499.5L499.7 499.5L499.7 499.5L499.8 499.5L499.8 499.5L499.8 499.5L499.8 499.4L499.9 499.4L499.9 499.4L499.9 499.4L499.9 499.4L500 499.4L500 499.4L500 499.4L500.1 499.4L500.1 499.4L500.1 499.4L500.2 499.4L500.2 499.4L500.2 499.4L500.3 499.4L500.3 499.4L500.3 499.4L500.3 499.4L500.4 499.4L500.4 499.5L500.4 499.5L500.5 499.5L500.5 499.5L500.5 499.5L500.6 499.6L500.6 499.6L500.6 499.6L500.6 499.6L500.7 499.7L500.7 499.7L500.7 499.7L500.7 499.8L500.7 499.8L500.8 499.8L500.8 499.9L500.8 499.9L500.8 499.9L500.8 500L500.8 500L500.8 500.1L500.8 500.1L500.8 500.1L500.8 500.2L500.8 500.2L500.8 500.3L500.8 500.3L500.8 500.4L500.8 500.4L500.8 500.4L500.7 500.5L500.7 500.5L500.7 500.6L500.7 500.6L500.7 500.6L500.6 500.7L500.6 500.7L500.6 500.7L500.5 500.8L500.5 500.8L500.5 500.8L500.4 500.9L500.4 500.9L500.3 500.9L500.3 501L500.2 501L500.2 501L500.1 501L500.1 501L500 501L500 501L499.9 501.1L499.9 501.1L499.8 501.1L499.8 501.1L499.7 501.1L499.7 501L499.6 501L499.6 501L499.5 501L499.4 501L499.4 501L499.3 501L499.3 500.9L499.2 500.9L499.2 500.9L499.1 500.8L499.1 500.8L499 500.8L499 500.7L499 500.7L498.9 500.6L498.9 500.6L498.8 500.5L498.8 500.5L498.8 500.4L498.7 500.3L498.7 500.3L498.7 500.2L498.7 500.2L498.7 500.1L498.6 500L498.6 500L498.6 499.9L498.6 499.8L498.6 499.7L498.6 499.7L498.6 499.6L498.6 499.5L498.6 499.5L498.7 499.4L498.7 499.3L498.7 499.2L498.7 499.2L498.8 499.1L498.8 499L498.9 499L498.9 498.9L498.9 498.8L499 498.8L499 498.7L499.1 498.7L499.2 498.6L499.2 498.6L499.3 498.5L499.4 498.5L499.4 498.4L499.5 498.4L499.6 498.3L499.7 498.3L499.8 498.3L499.8 498.3L499.9 498.2L500 498.2L500.1 498.2L500.2 498.2L500.3 498.2L500.4 498.2L500.5 498.2L500.6 498.2L500.7 498.2L500.8 498.2L500.9 498.3L501 498.3L501 498.3L501.1 498.4L501.2 498.4L501.3 498.5L501.4 498.5L501.5 498.6L501.6 498.7L501.6 498.7L501.7 498.8L501.8 498.9L501.9 499L501.9 499L502 499.1L502.1 499.2L502.1 499.3L502.2 499.4L502.2 499.5L502.2 499.6L502.3 499.8L502.3 499.9L502.3 500L502.3 500.1L502.4 500.2L502.4 500.3L502.4 500.5L502.4 500.6L502.3 500.7L502.3 500.8L502.3 501L502.3 501.1L502.2 501.2L502.2 501.3L502.1 501.4L502.1 501.6L502 501.7L501.9 501.8L501.9 501.9L501.8 502L501.7 502.1L501.6 502.2L501.5 502.3L501.4 502.4L501.3 502.5L501.2 502.6L501.1 502.6L500.9 502.7L500.8 502.8L500.7 502.8L500.5 502.9L500.4 503L500.2 503L500.1 503L499.9 503.1L499.8 503.1L499.6 503.1L499.5 503.1L499.3 503.1L499.1 503.1L499 503L498.8 503L498.7 503L498.5 502.9L498.3 502.9L498.2 502.8L498 502.7L497.9 502.7L497.7 502.6L497.6 502.5L497.4 502.4L497.3 502.3L497.2 502.2L497 502L496.9 501.9L496.8 501.7L496.7 501.6L496.6 501.4L496.5 501.3L496.4 501.1L496.3 500.9L496.2 500.8L496.2 500.6L496.1 500.4L496.1 500.2L496 500L496 499.8L496 499.6L496 499.4L496 499.2L496 499L496 498.8L496 498.6L496.1 498.3L496.1 498.1L496.2 497.9L496.3 497.7L496.4 497.5L496.5 497.3L496.6 497.1L496.7 496.9L496.8 496.7L497 496.6L497.1 496.4L497.3 496.2L497.5 496L497.6 495.9L497.8 495.7L498 495.6L498.2 495.5L498.5 495.3L498.7 495.2L498.9 495.1L499.1 495L499.4 495L499.6 494.9L499.9 494.8L500.2 494.8L500.4 494.8L500.7 494.7L501 494.7L501.2 494.7L501.5 494.8L501.8 494.8L502.1 494.9L502.3 494.9L502.6 495L502.9 495.1L503.1 495.2L503.4 495.3L503.7 495.5L503.9 495.6L504.2 495.8L504.4 496L504.6 496.2L504.9 496.4L505.1 496.6L505.3 496.8L505.5 497.1L505.7 497.3L505.9 497.6L506 497.9L506.2 498.1L506.3 498.4L506.4 498.8L506.5 499.1L506.6 499.4L506.7 499.7L506.8 500.1L506.8 500.4L506.9 500.7L506.9 501.1L506.9 501.5L506.8 501.8L506.8 502.2L506.7 502.5L506.7 502.9L506.6 503.2L506.5 503.6L506.3 503.9L506.2 504.3L506 504.6L505.8 505L505.6 505.3L505.4 505.6L505.1 505.9L504.9 506.2L504.6 506.5L504.3 506.8L504 507.1L503.6 507.3L503.3 507.6L502.9 507.8L502.6 508L502.2 508.2L501.8 508.3L501.4 508.5L501 508.6L500.5 508.7L500.1 508.8L499.7 508.9L499.2 508.9L498.8 509L498.3 509L497.8 509L497.4 508.9L496.9 508.8L496.4 508.7L496 508.6L495.5 508.5L495 508.3L494.6 508.1L494.1 507.9L493.7 507.7L493.3 507.4L492.8 507.1L492.4 506.8L492 506.5L491.6 506.1L491.3 505.8L490.9 505.4L490.6 504.9L490.3 504.5L490 504L489.7 503.6L489.4 503.1L489.2 502.6L489 502L488.8 501.5L488.6 500.9L488.5 500.4L488.4 499.8L488.3 499.2L488.3 498.6L488.3 498L488.3 497.4L488.3 496.8L488.4 496.2L488.5 495.6L488.7 495L488.8 494.4L489 493.8L489.3 493.2L489.5 492.6L489.8 492L490.2 491.4L490.5 490.9L490.9 490.3L491.3 489.8L491.8 489.3L492.3 488.8L492.8 488.3L493.3 487.9L493.9 487.4L494.5 487L495.1 486.7L495.7 486.3L496.4 486L497.1 485.7L497.8 485.5L498.5 485.2L499.2 485.1L499.9 484.9L500.7 484.8L501.5 484.7L502.3 484.7L503 484.7L503.8 484.7L504.6 484.8L505.4 484.9L506.2 485.1L507 485.3L507.8 485.6L508.6 485.8L509.4 486.2L510.1 486.6L510.9 487L511.6 487.4L512.4 487.9L513.1 488.5L513.7 489L514.4 489.6L515 490.3L515.6 491L516.2 491.7L516.7 492.4L517.2 493.2L517.7 494.1L518.1 494.9L518.5 495.8L518.8 496.7L519.2 497.6L519.4 498.6L519.6 499.5L519.8 500.5L519.9 501.5L520 502.5L520 503.5L520 504.6L519.9 505.6L519.7 506.7L519.5 507.7L519.3 508.8L519 509.8L518.6 510.8L518.2 511.8L517.8 512.8L517.3 513.8L516.7 514.8L516.1 515.7L515.4 516.7L514.7 517.6L513.9 518.4L513 519.3L512.2 520.1L511.2 520.8L510.3 521.5L509.3 522.2L508.2 522.8L507.1 523.4L506 524L504.8 524.4L503.6 524.9L502.4 525.2L501.2 525.5L499.9 525.8L498.6 525.9L497.3 526.1L495.9 526.1L494.6 526.1L493.2 526L491.9 525.9L490.5 525.6L489.1 525.4L487.8 525L486.4 524.6L485.1 524L483.8 523.5L482.5 522.8L481.2 522.1L479.9 521.3L478.7 520.5L477.5 519.5L476.4 518.6L475.3 517.5L474.2 516.4L473.2 515.2L472.2 514L471.3 512.7L470.5 511.3L469.7 509.9L469 508.4L468.3 506.9L467.8 505.4L467.2 503.8L466.8 502.2L466.5 500.5L466.2 498.8L466 497.1L465.9 495.4L465.9 493.6L466 491.9L466.1 490.1L466.4 488.3L466.7 486.5L467.2 484.8L467.7 483L468.3 481.3L469 479.5L469.8 477.8L470.7 476.1L471.7 474.5L472.8 472.9L474 471.3L475.2 469.8L476.6 468.3L478 466.9L479.5 465.5L481.1 464.3L482.8 463L484.5 461.9L486.3 460.9L488.2 459.9L490.1 459L492.1 458.2L494.2 457.5L496.3 456.9L498.4 456.4L500.6 456L502.8 455.7L505.1 455.5L507.3 455.4L509.6 455.5L512 455.7L514.3 455.9L516.6 456.3L518.9 456.8L521.2 457.5L523.5 458.3L525.8 459.1L528.1 460.1L530.3 461.3L532.4 462.5L534.6 463.9L536.6 465.3L538.7 466.9L540.6 468.6L542.5 470.5L544.3 472.4L546 474.4L547.6 476.6L549.1 478.8L550.6 481.1L551.9 483.5L553.1 486L554.2 488.6L555.2 491.2L556 494L556.7 496.7L557.3 499.6" opacity="0.13"/><path d="M499.9 499.9L499.9 499.9L499.9 499.9L499.9 499.9L499.9 499.9L499.9 499.8L499.9 499.8L499.9 499.8L500 499.8L500 499.8L500 499.8L500 499.8L500 499.8L500 499.8L500 499.8L500 499.8L500 499.8L500 499.8L500 499.8L500.1 499.8L500.1 499.8L500.1 499.8L500.1 499.8L500.1 499.8L500.1 499.8L500.1 499.8L500.1 499.8L500.1 499.8L500.1 499.8L500.1 499.9L500.2 499.9L500.2 499.9L500.2 499.9L500.2 499.9L500.2 499.9L500.2 499.9L500.2 499.9L500.2 499.9L500.2 499.9L500.2 499.9L500.2 499.9L500.2 500L500.2 500L500.2 500L500.2 500L500.2 500L500.2 500L500.2 500L500.2 500L500.2 500L500.2 500.1L500.2 500.1L500.2 500.1L500.2 500.1L500.2 500.1L500.2 500.1L500.2 500.1L500.2 500.1L500.2 500.2L500.2 500.2L500.2 500.2L500.2 500.2L500.2 500.2L500.2 500.2L500.2 500.2L500.1 500.2L500.1 500.2L500.1 500.3L500.1 500.3L500.1 500.3L500.1 500.3L500.1 500.3L500.1 500.3L500 500.3L500 500.3L500 500.3L500 500.3L500 500.3L500 500.3L500 500.3L499.9 500.3L499.9 500.3L499.9 500.3L499.9 500.3L499.9 500.3L499.9 500.3L499.8 500.3L499.8 500.3L499.8 500.3L499.8 500.3L499.8 500.3L499.8 500.3L499.8 500.2L499.7 500.2L499.7 500.2L499.7 500.2L499.7 500.2L499.7 500.2L499.7 500.2L499.7 500.2L499.7 500.1L499.6 500.1L499.6 500.1L499.6 500.1L499.6 500.1L499.6 500.1L499.6 500L499.6 500L499.6 500L499.6 500L499.6 500L499.6 499.9L499.6 499.9L499.6 499.9L499.6 499.9L499.6 499.8L499.6 499.8L499.6 499.8L499.6 499.8L499.6 499.8L499.6 499.7L499.6 499.7L499.7 499.7L499.7 499.7L499.7 499.7L499.7 499.6L499.7 499.6L499.7 499.6L499.7 499.6L499.8 499.6L499.8 499.6L499.8 499.5L499.8 499.5L499.8 499.5L499.9 499.5L499.9 499.5L499.9 499.5L499.9 499.5L500 499.5L500 499.5L500 499.5L500 499.5L500.1 499.5L500.1 499.5L500.1 499.5L500.2 499.5L500.2 499.5L500.2 499.5L500.2 499.5L500.3 499.5L500.3 499.5L500.3 499.5L500.4 499.5L500.4 499.5L500.4 499.6L500.4 499.6L500.5 499.6L500.5 499.6L500.5 499.6L500.5 499.7L500.5 499.7L500.6 499.7L500.6 499.7L500.6 499.8L500.6 499.8L500.6 499.8L500.6 499.9L500.7 499.9L500.7 499.9L500.7 499.9L500.7 500L500.7 500L500.7 500.1L500.7 500.1L500.7 500.1L500.7 500.2L500.7 500.2L500.7 500.2L500.7 500.3L500.7 500.3L500.7 500.3L500.7 500.4L500.6 500.4L500.6 500.4L500.6 500.5L500.6 500.5L500.6 500.5L500.5 500.6L500.5 500.6L500.5 500.6L500.5 500.7L500.4 500.7L500.4 500.7L500.4 500.7L500.3 500.8L500.3 500.8L500.3 500.8L500.2 500.8L500.2 500.9L500.1 500.9L500.1 500.9L500 500.9L500 500.9L500 500.9L499.9 500.9L499.9 500.9L499.8 500.9L499.8 500.9L499.7 500.9L499.7 500.9L499.6 500.9L499.6 500.9L499.5 500.9L499.5 500.8L499.4 500.8L499.4 500.8L499.3 500.8L499.3 500.7L499.3 500.7L499.2 500.7L499.2 500.6L499.1 500.6L499.1 500.6L499.1 500.5L499 500.5L499 500.4L499 500.4L498.9 500.3L498.9 500.3L498.9 500.2L498.9 500.2L498.9 500.1L498.8 500.1L498.8 500L498.8 500L498.8 499.9L498.8 499.8L498.8 499.8L498.8 499.7L498.8 499.7L498.8 499.6L498.8 499.5L498.9 499.5L498.9 499.4L498.9 499.4L498.9 499.3L498.9 499.2L499 499.2L499 499.1L499 499.1L499.1 499L499.1 499L499.2 498.9L499.2 498.8L499.3 498.8L499.3 498.8L499.4 498.7L499.5 498.7L499.5 498.6L499.6 498.6L499.7 498.6L499.7 498.5L499.8 498.5L499.9 498.5L499.9 498.5L500 498.5L500.1 498.5L500.2 498.5L500.3 498.4L500.3 498.4L500.4 498.5L500.5 498.5L500.6 498.5L500.7 498.5L500.7 498.5L500.8 498.5L500.9 498.6L501 498.6L501.1 498.6L501.1 498.7L501.2 498.7L501.3 498.8L501.3 498.8L501.4 498.9L501.5 499L501.5 499L501.6 499.1L501.7 499.2L501.7 499.3L501.8 499.3L501.8 499.4L501.8 499.5L501.9 499.6L501.9 499.7L501.9 499.8L502 499.9L502 500L502 500.1L502 500.2L502 500.3L502 500.4L502 500.5L502 500.6L502 500.7L502 500.8L501.9 500.9L501.9 501L501.9 501.1L501.8 501.2L501.8 501.3L501.7 501.4L501.7 501.5L501.6 501.6L501.5 501.7L501.5 501.8L501.4 501.9L501.3 502L501.2 502.1L501.1 502.1L501 502.2L500.9 502.3L500.8 502.3L500.7 502.4L500.6 502.4L500.5 502.5L500.3 502.5L500.2 502.6L500.1 502.6L500 502.6L499.8 502.6L499.7 502.6L499.5 502.6L499.4 502.6L499.3 502.6L499.1 502.6L499 502.6L498.9 502.6L498.7 502.5L498.6 502.5L498.5 502.4L498.3 502.4L498.2 502.3L498.1 502.2L497.9 502.1L497.8 502L497.7 502L497.6 501.9L497.5 501.7L497.4 501.6L497.3 501.5L497.2 501.4L497.1 501.2L497 501.1L496.9 501L496.8 500.8L496.8 500.7L496.7 500.5L496.7 500.3L496.6 500.2L496.6 500L496.6 499.8L496.6 499.7L496.5 499.5L496.5 499.3L496.6 499.1L496.6 498.9L496.6 498.8L496.6 498.6L496.7 498.4L496.7 498.2L496.8 498.1L496.9 497.9L497 497.7L497.1 497.5L497.2 497.4L497.3 497.2L497.4 497L497.5 496.9L497.7 496.7L497.8 496.6L498 496.5L498.1 496.3L498.3 496.2L498.5 496.1L498.7 496L498.9 495.9L499.1 495.8L499.3 495.7L499.5 495.7L499.7 495.6L499.9 495.6L500.1 495.5L500.3 495.5L500.6 495.5L500.8 495.5L501 495.5L501.3 495.5L501.5 495.5L501.7 495.6L502 495.6L502.2 495.7L502.5 495.8L502.7 495.9L502.9 496L503.1 496.1L503.3 496.2L503.6 496.4L503.8 496.5L504 496.7L504.2 496.9L504.4 497.1L504.5 497.3L504.7 497.5L504.9 497.7L505 497.9L505.2 498.2L505.3 498.4L505.4 498.7L505.5 498.9L505.6 499.2L505.7 499.5L505.8 499.7L505.8 500L505.9 500.3L505.9 500.6L505.9 500.9L505.9 501.2L505.9 501.5L505.8 501.8L505.8 502.2L505.7 502.5L505.6 502.8L505.5 503.1L505.4 503.4L505.3 503.7L505.2 504L505 504.3L504.8 504.5L504.6 504.8L504.4 505.1L504.2 505.3L503.9 505.6L503.7 505.8L503.4 506.1L503.1 506.3L502.8 506.5L502.5 506.7L502.2 506.8L501.9 507L501.6 507.2L501.2 507.3L500.8 507.4L500.5 507.5L500.1 507.6L499.7 507.6L499.3 507.7L498.9 507.7L498.6 507.7L498.2 507.7L497.8 507.7L497.4 507.6L496.9 507.5L496.5 507.4L496.1 507.3L495.8 507.2L495.4 507L495 506.8L494.6 506.6L494.2 506.4L493.9 506.1L493.5 505.9L493.2 505.6L492.8 505.3L492.5 505L492.2 504.6L491.9 504.3L491.6 503.9L491.4 503.5L491.2 503.1L490.9 502.7L490.7 502.2L490.6 501.8L490.4 501.3L490.3 500.8L490.1 500.3L490.1 499.9L490 499.3L490 498.8L489.9 498.3L489.9 497.8L490 497.3L490 496.8L490.1 496.2L490.3 495.7L490.4 495.2L490.6 494.7L490.8 494.2L491 493.6L491.3 493.1L491.5 492.7L491.8 492.2L492.2 491.7L492.5 491.3L492.9 490.8L493.3 490.4L493.8 490L494.2 489.6L494.7 489.2L495.2 488.9L495.7 488.6L496.3 488.3L496.9 488L497.4 487.8L498 487.5L498.7 487.3L499.3 487.2L499.9 487.1L500.6 487L501.2 486.9L501.9 486.9L502.6 486.9L503.3 486.9L503.9 487L504.6 487.1L505.3 487.2L506 487.4L506.7 487.6L507.4 487.8L508 488.1L508.7 488.4L509.3 488.8L510 489.2L510.6 489.6L511.2 490.1L511.8 490.6L512.3 491.1L512.9 491.6L513.4 492.2L513.9 492.8L514.3 493.5L514.8 494.2L515.2 494.9L515.5 495.6L515.9 496.3L516.2 497.1L516.4 497.9L516.7 498.7L516.8 499.5L517 500.4L517.1 501.3L517.2 502.1L517.2 503L517.1 503.9L517.1 504.8L517 505.7L516.8 506.6L516.6 507.5L516.3 508.4L516 509.2L515.7 510.1L515.3 511L514.8 511.8L514.3 512.7L513.8 513.5L513.2 514.3L512.6 515L511.9 515.8L511.2 516.5L510.5 517.2L509.7 517.8L508.9 518.5L508 519L507.1 519.6L506.2 520.1L505.2 520.5L504.2 521L503.2 521.3L502.1 521.6L501 521.9L499.9 522.1L498.8 522.3L497.7 522.4L496.6 522.4L495.4 522.4L494.2 522.3L493.1 522.2L491.9 522L490.7 521.8L489.6 521.5L488.4 521.1L487.3 520.7L486.1 520.2L485 519.6L483.9 519L482.8 518.3L481.8 517.6L480.8 516.8L479.8 516L478.8 515.1L477.9 514.1L477 513.1L476.2 512L475.4 510.9L474.7 509.8L474 508.6L473.4 507.3L472.8 506L472.3 504.7L471.9 503.3L471.5 501.9L471.2 500.5L471 499.1L470.8 497.6L470.7 496.1L470.7 494.6L470.8 493.1L470.9 491.6L471.1 490.1L471.4 488.5L471.8 487L472.2 485.5L472.8 484L473.4 482.5L474.1 481L474.8 479.6L475.7 478.2L476.6 476.8L477.6 475.4L478.7 474.1L479.8 472.9L481 471.6L482.3 470.5L483.7 469.4L485.1 468.3L486.6 467.3L488.2 466.4L489.8 465.6L491.4 464.8L493.1 464.1L494.9 463.5L496.7 463L498.5 462.6L500.4 462.2L502.3 462L504.3 461.8L506.2 461.7L508.2 461.8L510.2 461.9L512.2 462.2L514.2 462.5L516.1 462.9L518.1 463.5L520.1 464.1L522.1 464.9L524 465.7L525.9 466.7L527.8 467.8L529.6 468.9L531.4 470.2L533.1 471.6L534.8 473L536.4 474.6L537.9 476.2L539.4 478L540.8 479.8L542.1 481.7L543.4 483.7L544.5 485.8L545.5 487.9L546.5 490.1L547.3 492.4L548 494.7L548.7 497.1L549.2 499.5L549.5 502L549.8 504.5L549.9 507L549.9 509.6L549.8 512.2L549.6 514.8L549.2 517.4L548.7 520L548 522.6L547.2 525.2L546.3 527.8L545.2 530.3L544 532.8L542.7 535.3L541.2 537.7L539.6 540L537.9 542.3L536.1 544.5" opacity="0.13"/><path d="M500 499.8L500 499.8L500.1 499.8L500.1 499.8L500.1 499.8L500.1 499.9L500.1 499.9L500.1 499.9L500.1 499.9L500.1 499.9L500.1 499.9L500.1 499.9L500.1 499.9L500.1 499.9L500.1 499.9L500.2 499.9L500.2 499.9L500.2 499.9L500.2 499.9L500.2 499.9L500.2 499.9L500.2 499.9L500.2 500L500.2 500L500.2 500L500.2 500L500.2 500L500.2 500L500.2 500L500.2 500L500.2 500L500.2 500L500.2 500.1L500.2 500.1L500.2 500.1L500.2 500.1L500.2 500.1L500.2 500.1L500.2 500.1L500.2 500.1L500.2 500.1L500.2 500.1L500.2 500.2L500.2 500.2L500.2 500.2L500.1 500.2L500.1 500.2L500.1 500.2L500.1 500.2L500.1 500.2L500.1 500.2L500.1 500.2L500.1 500.2L500.1 500.2L500.1 500.2L500 500.3L500 500.3L500 500.3L500 500.3L500 500.3L500 500.3L500 500.3L500 500.3L499.9 500.3L499.9 500.3L499.9 500.3L499.9 500.3L499.9 500.3L499.9 500.3L499.9 500.2L499.8 500.2L499.8 500.2L499.8 500.2L499.8 500.2L499.8 500.2L499.8 500.2L499.8 500.2L499.8 500.2L499.7 500.2L499.7 500.2L499.7 500.1L499.7 500.1L499.7 500.1L499.7 500.1L499.7 500.1L499.7 500.1L499.7 500.1L499.7 500L499.7 500L499.7 500L499.7 500L499.7 500L499.6 500L499.6 499.9L499.6 499.9L499.7 499.9L499.7 499.9L499.7 499.9L499.7 499.9L499.7 499.8L499.7 499.8L499.7 499.8L499.7 499.8L499.7 499.8L499.7 499.7L499.7 499.7L499.7 499.7L499.7 499.7L499.8 499.7L499.8 499.7L499.8 499.7L499.8 499.6L499.8 499.6L499.8 499.6L499.9 499.6L499.9 499.6L499.9 499.6L499.9 499.6L499.9 499.6L500 499.6L500 499.6L500 499.5L500 499.5L500 499.5L500.1 499.5L500.1 499.5L500.1 499.5L500.1 499.5L500.2 499.5L500.2 499.6L500.2 499.6L500.2 499.6L500.3 499.6L500.3 499.6L500.3 499.6L500.3 499.6L500.3 499.6L500.4 499.6L500.4 499.7L500.4 499.7L500.4 499.7L500.4 499.7L500.5 499.7L500.5 499.7L500.5 499.8L500.5 499.8L500.5 499.8L500.5 499.8L500.6 499.9L500.6 499.9L500.6 499.9L500.6 500L500.6 500L500.6 500L500.6 500L500.6 500.1L500.6 500.1L500.6 500.1L500.6 500.2L500.6 500.2L500.6 500.2L500.6 500.3L500.6 500.3L500.6 500.3L500.5 500.4L500.5 500.4L500.5 500.4L500.5 500.4L500.5 500.5L500.5 500.5L500.4 500.5L500.4 500.5L500.4 500.6L500.4 500.6L500.3 500.6L500.3 500.6L500.3 500.7L500.2 500.7L500.2 500.7L500.2 500.7L500.1 500.7L500.1 500.7L500.1 500.8L500 500.8L500 500.8L500 500.8L499.9 500.8L499.9 500.8L499.8 500.8L499.8 500.8L499.8 500.8L499.7 500.8L499.7 500.8L499.6 500.7L499.6 500.7L499.6 500.7L499.5 500.7L499.5 500.7L499.4 500.7L499.4 500.6L499.4 500.6L499.3 500.6L499.3 500.6L499.3 500.5L499.2 500.5L499.2 500.5L499.2 500.4L499.1 500.4L499.1 500.3L499.1 500.3L499.1 500.3L499.1 500.2L499 500.2L499 500.1L499 500.1L499 500L499 500L499 499.9L499 499.9L499 499.8L499 499.8L499 499.7L499 499.7L499 499.6L499 499.6L499 499.5L499 499.4L499.1 499.4L499.1 499.3L499.1 499.3L499.2 499.2L499.2 499.2L499.2 499.1L499.3 499.1L499.3 499.1L499.3 499L499.4 499L499.4 498.9L499.5 498.9L499.5 498.9L499.6 498.8L499.6 498.8L499.7 498.8L499.8 498.8L499.8 498.7L499.9 498.7L499.9 498.7L500 498.7L500.1 498.7L500.1 498.7L500.2 498.7L500.3 498.7L500.4 498.7L500.4 498.7L500.5 498.7L500.6 498.7L500.6 498.7L500.7 498.7L500.8 498.8L500.8 498.8L500.9 498.8L501 498.9L501 498.9L501.1 499L501.1 499L501.2 499.1L501.3 499.1L501.3 499.2L501.4 499.2L501.4 499.3L501.5 499.4L501.5 499.4L501.5 499.5L501.6 499.6L501.6 499.7L501.6 499.7L501.7 499.8L501.7 499.9L501.7 500L501.7 500.1L501.7 500.2L501.7 500.2L501.7 500.3L501.7 500.4L501.7 500.5L501.7 500.6L501.7 500.7L501.7 500.8L501.6 500.9L501.6 501L501.6 501.1L501.5 501.1L501.5 501.2L501.4 501.3L501.4 501.4L501.3 501.5L501.3 501.5L501.2 501.6L501.1 501.7L501 501.8L501 501.8L500.9 501.9L500.8 501.9L500.7 502L500.6 502.1L500.5 502.1L500.4 502.1L500.3 502.2L500.2 502.2L500.1 502.2L500 502.2L499.8 502.3L499.7 502.3L499.6 502.3L499.5 502.3L499.4 502.3L499.3 502.2L499.1 502.2L499 502.2L498.9 502.2L498.8 502.1L498.7 502.1L498.6 502L498.4 502L498.3 501.9L498.2 501.8L498.1 501.8L498 501.7L497.9 501.6L497.8 501.5L497.7 501.4L497.6 501.3L497.6 501.2L497.5 501.1L497.4 501L497.3 500.8L497.3 500.7L497.2 500.6L497.2 500.4L497.1 500.3L497.1 500.2L497.1 500L497.1 499.9L497 499.7L497 499.6L497 499.4L497 499.3L497.1 499.1L497.1 498.9L497.1 498.8L497.2 498.6L497.2 498.5L497.3 498.3L497.3 498.2L497.4 498L497.5 497.9L497.6 497.7L497.7 497.6L497.8 497.5L497.9 497.3L498 497.2L498.1 497.1L498.2 497L498.4 496.9L498.5 496.8L498.7 496.7L498.8 496.6L499 496.5L499.2 496.4L499.4 496.3L499.5 496.3L499.7 496.2L499.9 496.2L500.1 496.2L500.3 496.1L500.5 496.1L500.7 496.1L500.9 496.1L501.1 496.1L501.3 496.2L501.5 496.2L501.7 496.3L501.9 496.3L502.1 496.4L502.3 496.5L502.5 496.6L502.7 496.7L502.9 496.8L503.1 496.9L503.2 497L503.4 497.2L503.6 497.3L503.7 497.5L503.9 497.6L504 497.8L504.2 498L504.3 498.2L504.4 498.4L504.5 498.6L504.6 498.8L504.7 499.1L504.8 499.3L504.9 499.5L504.9 499.8L505 500L505 500.3L505.1 500.5L505.1 500.8L505.1 501L505 501.3L505 501.6L505 501.8L504.9 502.1L504.8 502.4L504.8 502.6L504.7 502.9L504.6 503.1L504.4 503.4L504.3 503.6L504.1 503.9L504 504.1L503.8 504.4L503.6 504.6L503.4 504.8L503.2 505L503 505.2L502.7 505.4L502.5 505.6L502.2 505.7L501.9 505.9L501.6 506L501.4 506.1L501.1 506.3L500.7 506.3L500.4 506.4L500.1 506.5L499.8 506.6L499.5 506.6L499.1 506.6L498.8 506.6L498.4 506.6L498.1 506.6L497.7 506.5L497.4 506.5L497.1 506.4L496.7 506.3L496.4 506.1L496 506L495.7 505.9L495.4 505.7L495.1 505.5L494.7 505.3L494.4 505.1L494.1 504.8L493.9 504.5L493.6 504.3L493.3 504L493.1 503.7L492.8 503.3L492.6 503L492.4 502.7L492.2 502.3L492.1 501.9L491.9 501.5L491.8 501.1L491.6 500.7L491.5 500.3L491.5 499.9L491.4 499.5L491.4 499L491.4 498.6L491.4 498.1L491.4 497.7L491.5 497.2L491.5 496.8L491.6 496.3L491.8 495.9L491.9 495.4L492.1 495L492.3 494.6L492.5 494.1L492.7 493.7L493 493.3L493.3 492.9L493.6 492.5L493.9 492.1L494.3 491.8L494.6 491.4L495 491.1L495.4 490.8L495.9 490.5L496.3 490.2L496.8 489.9L497.3 489.7L497.8 489.5L498.3 489.3L498.8 489.1L499.4 489L499.9 488.9L500.5 488.8L501 488.7L501.6 488.7L502.2 488.7L502.8 488.7L503.4 488.8L503.9 488.9L504.5 489L505.1 489.2L505.7 489.3L506.3 489.5L506.9 489.8L507.4 490.1L508 490.4L508.5 490.7L509.1 491.1L509.6 491.4L510.1 491.9L510.6 492.3L511 492.8L511.5 493.3L511.9 493.8L512.3 494.4L512.7 495L513 495.6L513.3 496.2L513.6 496.8L513.9 497.5L514.1 498.2L514.3 498.9L514.5 499.6L514.6 500.3L514.7 501L514.7 501.8L514.7 502.5L514.7 503.3L514.7 504.1L514.6 504.8L514.4 505.6L514.2 506.4L514 507.1L513.8 507.9L513.5 508.7L513.1 509.4L512.8 510.1L512.3 510.8L511.9 511.5L511.4 512.2L510.9 512.9L510.3 513.5L509.7 514.1L509 514.7L508.4 515.3L507.6 515.8L506.9 516.3L506.1 516.8L505.3 517.2L504.5 517.6L503.6 518L502.8 518.3L501.9 518.6L500.9 518.8L500 519L499 519.1L498.1 519.2L497.1 519.2L496.1 519.2L495.1 519.2L494.1 519.1L493.1 518.9L492.1 518.7L491.1 518.4L490.1 518.1L489.1 517.8L488.1 517.3L487.2 516.9L486.2 516.3L485.3 515.8L484.4 515.1L483.5 514.5L482.7 513.7L481.9 513L481.1 512.2L480.3 511.3L479.6 510.4L478.9 509.4L478.3 508.4L477.7 507.4L477.2 506.3L476.7 505.2L476.3 504.1L475.9 502.9L475.6 501.7L475.3 500.5L475.1 499.3L475 498L474.9 496.7L474.9 495.4L474.9 494.1L475 492.8L475.2 491.5L475.4 490.2L475.8 488.9L476.1 487.6L476.6 486.3L477.1 485L477.7 483.8L478.4 482.5L479.1 481.3L479.9 480.1L480.7 479L481.6 477.8L482.6 476.7L483.7 475.7L484.8 474.7L485.9 473.8L487.2 472.9L488.4 472L489.8 471.2L491.1 470.5L492.6 469.8L494 469.2L495.5 468.7L497.1 468.3L498.7 467.9L500.3 467.6L501.9 467.4L503.6 467.2L505.2 467.2L506.9 467.2L508.6 467.3L510.4 467.5L512.1 467.8L513.8 468.2L515.5 468.6L517.2 469.2L518.9 469.8L520.5 470.5L522.2 471.4L523.8 472.3L525.3 473.3L526.9 474.4L528.3 475.5L529.8 476.8L531.2 478.1L532.5 479.5L533.8 481L535 482.6L536.1 484.2L537.2 485.9L538.2 487.7L539 489.5L539.9 491.4L540.6 493.4L541.2 495.4L541.8 497.4L542.2 499.5L542.5 501.6L542.7 503.8L542.9 505.9L542.9 508.1L542.8 510.4L542.6 512.6L542.2 514.8L541.8 517.1L541.2 519.3L540.6 521.5L539.8 523.7L538.9 525.9L537.9 528.1L536.7 530.2L535.5 532.2L534.1 534.3L532.6 536.2L531 538.1L529.3 540L527.5 541.7L525.6 543.4L523.6 545L521.5 546.6L519.3 548L517.1 549.3L514.7 550.5L512.3 551.6L509.7 552.6L507.2 553.5L504.5 554.3L501.8 554.9L499.1 555.4L496.3 555.7L493.4 555.9L490.6 556L487.7 555.9" opacity="0.13"/><path d="M500.1 499.9L500.1 499.9L500.2 499.9L500.2 500L500.2 500L500.2 500L500.2 500L500.2 500L500.2 500L500.2 500L500.2 500L500.2 500L500.2 500L500.2 500L500.2 500L500.2 500.1L500.2 500.1L500.2 500.1L500.2 500.1L500.2 500.1L500.2 500.1L500.2 500.1L500.2 500.1L500.1 500.1L500.1 500.1L500.1 500.1L500.1 500.2L500.1 500.2L500.1 500.2L500.1 500.2L500.1 500.2L500.1 500.2L500.1 500.2L500.1 500.2L500.1 500.2L500.1 500.2L500 500.2L500 500.2L500 500.2L500 500.2L500 500.2L500 500.2L500 500.2L500 500.2L500 500.2L499.9 500.2L499.9 500.2L499.9 500.2L499.9 500.2L499.9 500.2L499.9 500.2L499.9 500.2L499.9 500.2L499.9 500.2L499.8 500.2L499.8 500.2L499.8 500.2L499.8 500.2L499.8 500.2L499.8 500.2L499.8 500.1L499.8 500.1L499.8 500.1L499.8 500.1L499.7 500.1L499.7 500.1L499.7 500.1L499.7 500.1L499.7 500.1L499.7 500L499.7 500L499.7 500L499.7 500L499.7 500L499.7 500L499.7 500L499.7 499.9L499.7 499.9L499.7 499.9L499.7 499.9L499.7 499.9L499.7 499.9L499.7 499.8L499.7 499.8L499.7 499.8L499.7 499.8L499.7 499.8L499.8 499.8L499.8 499.8L499.8 499.7L499.8 499.7L499.8 499.7L499.8 499.7L499.8 499.7L499.8 499.7L499.9 499.7L499.9 499.7L499.9 499.7L499.9 499.6L499.9 499.6L499.9 499.6L500 499.6L500 499.6L500 499.6L500 499.6L500 499.6L500.1 499.6L500.1 499.6L500.1 499.6L500.1 499.6L500.1 499.6L500.2 499.6L500.2 499.6L500.2 499.6L500.2 499.6L500.2 499.6L500.3 499.7L500.3 499.7L500.3 499.7L500.3 499.7L500.3 499.7L500.3 499.7L500.4 499.7L500.4 499.7L500.4 499.8L500.4 499.8L500.4 499.8L500.4 499.8L500.5 499.8L500.5 499.9L500.5 499.9L500.5 499.9L500.5 499.9L500.5 500L500.5 500L500.5 500L500.5 500L500.5 500.1L500.5 500.1L500.5 500.1L500.5 500.1L500.5 500.2L500.5 500.2L500.5 500.2L500.5 500.2L500.5 500.3L500.5 500.3L500.5 500.3L500.4 500.4L500.4 500.4L500.4 500.4L500.4 500.4L500.4 500.4L500.4 500.5L500.3 500.5L500.3 500.5L500.3 500.5L500.3 500.6L500.2 500.6L500.2 500.6L500.2 500.6L500.2 500.6L500.1 500.6L500.1 500.6L500.1 500.6L500 500.7L500 500.7L500 500.7L499.9 500.7L499.9 500.7L499.9 500.7L499.8 500.7L499.8 500.7L499.8 500.7L499.7 500.7L499.7 500.6L499.7 500.6L499.6 500.6L499.6 500.6L499.6 500.6L499.5 500.6L499.5 500.6L499.5 500.5L499.4 500.5L499.4 500.5L499.4 500.5L499.3 500.4L499.3 500.4L499.3 500.4L499.3 500.3L499.2 500.3L499.2 500.3L499.2 500.2L499.2 500.2L499.2 500.1L499.2 500.1L499.1 500.1L499.1 500L499.1 500L499.1 499.9L499.1 499.9L499.1 499.8L499.1 499.8L499.1 499.8L499.1 499.7L499.1 499.7L499.2 499.6L499.2 499.6L499.2 499.5L499.2 499.5L499.2 499.4L499.2 499.4L499.3 499.4L499.3 499.3L499.3 499.3L499.4 499.2L499.4 499.2L499.4 499.2L499.5 499.1L499.5 499.1L499.6 499.1L499.6 499L499.6 499L499.7 499L499.7 499L499.8 498.9L499.8 498.9L499.9 498.9L500 498.9L500 498.9L500.1 498.9L500.1 498.9L500.2 498.9L500.2 498.9L500.3 498.9L500.4 498.9L500.4 498.9L500.5 498.9L500.5 498.9L500.6 498.9L500.7 498.9L500.7 499L500.8 499L500.8 499L500.9 499.1L500.9 499.1L501 499.1L501 499.2L501.1 499.2L501.1 499.3L501.2 499.3L501.2 499.4L501.3 499.4L501.3 499.5L501.3 499.6L501.4 499.6L501.4 499.7L501.4 499.8L501.4 499.8L501.5 499.9L501.5 500L501.5 500.1L501.5 500.1L501.5 500.2L501.5 500.3L501.5 500.4L501.5 500.4L501.5 500.5L501.5 500.6L501.4 500.7L501.4 500.7L501.4 500.8L501.4 500.9L501.3 501L501.3 501L501.2 501.1L501.2 501.2L501.1 501.3L501.1 501.3L501 501.4L501 501.5L500.9 501.5L500.8 501.6L500.8 501.6L500.7 501.7L500.6 501.7L500.5 501.8L500.4 501.8L500.3 501.8L500.3 501.9L500.2 501.9L500.1 501.9L500 501.9L499.9 501.9L499.8 501.9L499.7 502L499.6 501.9L499.5 501.9L499.4 501.9L499.3 501.9L499.2 501.9L499.1 501.9L499 501.8L498.9 501.8L498.8 501.7L498.7 501.7L498.6 501.6L498.5 501.6L498.4 501.5L498.3 501.4L498.2 501.4L498.1 501.3L498.1 501.2L498 501.1L497.9 501L497.8 500.9L497.8 500.8L497.7 500.7L497.7 500.6L497.6 500.5L497.6 500.4L497.5 500.3L497.5 500.1L497.5 500L497.5 499.9L497.5 499.8L497.5 499.6L497.5 499.5L497.5 499.4L497.5 499.2L497.5 499.1L497.5 499L497.6 498.8L497.6 498.7L497.6 498.6L497.7 498.4L497.8 498.3L497.8 498.2L497.9 498.1L498 498L498.1 497.8L498.2 497.7L498.3 497.6L498.4 497.5L498.5 497.4L498.6 497.3L498.7 497.2L498.9 497.1L499 497.1L499.1 497L499.3 496.9L499.4 496.9L499.6 496.8L499.7 496.8L499.9 496.7L500.1 496.7L500.2 496.7L500.4 496.7L500.6 496.7L500.8 496.7L500.9 496.7L501.1 496.7L501.3 496.7L501.4 496.8L501.6 496.8L501.8 496.9L502 497L502.1 497L502.3 497.1L502.5 497.2L502.6 497.3L502.8 497.4L502.9 497.6L503.1 497.7L503.2 497.8L503.3 498L503.5 498.1L503.6 498.3L503.7 498.4L503.8 498.6L503.9 498.8L504 499L504.1 499.2L504.1 499.4L504.2 499.6L504.2 499.8L504.3 500L504.3 500.2L504.3 500.4L504.3 500.7L504.3 500.9L504.3 501.1L504.3 501.3L504.3 501.6L504.2 501.8L504.2 502L504.1 502.2L504 502.5L503.9 502.7L503.8 502.9L503.7 503.1L503.6 503.3L503.4 503.5L503.3 503.7L503.1 503.9L502.9 504.1L502.7 504.3L502.5 504.4L502.3 504.6L502.1 504.8L501.9 504.9L501.7 505L501.4 505.2L501.2 505.3L500.9 505.4L500.7 505.4L500.4 505.5L500.1 505.6L499.8 505.6L499.5 505.7L499.3 505.7L499 505.7L498.7 505.7L498.4 505.6L498.1 505.6L497.8 505.5L497.5 505.5L497.2 505.4L496.9 505.3L496.6 505.2L496.3 505L496 504.9L495.8 504.7L495.5 504.5L495.2 504.3L495 504.1L494.7 503.9L494.5 503.7L494.3 503.4L494.1 503.2L493.9 502.9L493.7 502.6L493.5 502.3L493.3 502L493.2 501.7L493 501.3L492.9 501L492.8 500.6L492.7 500.3L492.7 499.9L492.6 499.6L492.6 499.2L492.6 498.8L492.6 498.4L492.6 498L492.7 497.6L492.7 497.3L492.8 496.9L492.9 496.5L493 496.1L493.2 495.7L493.4 495.4L493.5 495L493.7 494.6L494 494.3L494.2 493.9L494.5 493.6L494.8 493.3L495.1 492.9L495.4 492.6L495.7 492.4L496.1 492.1L496.4 491.8L496.8 491.6L497.2 491.4L497.6 491.2L498.1 491L498.5 490.8L499 490.7L499.4 490.6L499.9 490.5L500.4 490.4L500.9 490.3L501.4 490.3L501.9 490.3L502.4 490.3L502.9 490.4L503.4 490.5L503.9 490.6L504.4 490.7L504.9 490.8L505.4 491L505.9 491.2L506.4 491.5L506.8 491.7L507.3 492L507.8 492.3L508.2 492.6L508.6 493L509 493.4L509.4 493.8L509.8 494.2L510.2 494.7L510.5 495.2L510.8 495.6L511.1 496.2L511.4 496.7L511.7 497.2L511.9 497.8L512.1 498.4L512.3 499L512.4 499.6L512.5 500.2L512.6 500.9L512.6 501.5L512.7 502.2L512.6 502.8L512.6 503.5L512.5 504.1L512.4 504.8L512.2 505.4L512.1 506.1L511.8 506.8L511.6 507.4L511.3 508L511 508.7L510.6 509.3L510.2 509.9L509.8 510.5L509.3 511L508.9 511.6L508.3 512.1L507.8 512.6L507.2 513.1L506.6 513.6L506 514L505.3 514.4L504.6 514.8L503.9 515.1L503.2 515.4L502.4 515.7L501.6 515.9L500.8 516.1L500 516.3L499.2 516.4L498.4 516.5L497.5 516.5L496.7 516.5L495.8 516.5L495 516.4L494.1 516.2L493.3 516.1L492.4 515.8L491.5 515.6L490.7 515.3L489.9 514.9L489 514.5L488.2 514.1L487.4 513.6L486.6 513L485.9 512.5L485.2 511.8L484.5 511.2L483.8 510.5L483.1 509.7L482.5 508.9L481.9 508.1L481.4 507.3L480.9 506.4L480.4 505.5L480 504.5L479.6 503.6L479.3 502.6L479 501.5L478.8 500.5L478.6 499.4L478.5 498.3L478.4 497.2L478.4 496.1L478.5 495L478.5 493.9L478.7 492.8L478.9 491.7L479.2 490.5L479.5 489.4L479.9 488.3L480.3 487.2L480.8 486.1L481.4 485L482 484L482.7 483L483.4 482L484.2 481L485 480.1L485.9 479.2L486.9 478.3L487.9 477.5L488.9 476.7L490 476L491.2 475.3L492.3 474.7L493.6 474.1L494.8 473.6L496.1 473.2L497.4 472.8L498.8 472.4L500.2 472.2L501.6 472L503 471.9L504.4 471.8L505.9 471.8L507.4 471.9L508.8 472.1L510.3 472.3L511.8 472.6L513.2 473L514.7 473.5L516.1 474.1L517.5 474.7L519 475.4L520.3 476.2L521.7 477L523 477.9L524.3 478.9L525.5 480L526.7 481.1L527.9 482.4L528.9 483.6L530 485L531 486.4L531.9 487.8L532.7 489.4L533.5 490.9L534.2 492.5L534.8 494.2L535.4 495.9L535.8 497.7L536.2 499.5L536.5 501.3L536.7 503.1L536.8 505L536.8 506.9L536.7 508.8L536.6 510.7L536.3 512.6L535.9 514.6L535.4 516.5L534.9 518.4L534.2 520.3L533.4 522.1L532.5 524L531.6 525.8L530.5 527.6L529.3 529.3L528.1 531L526.7 532.7L525.3 534.2L523.7 535.8L522.1 537.2L520.4 538.6L518.6 539.9L516.7 541.1L514.7 542.3L512.7 543.3L510.6 544.3L508.5 545.1L506.3 545.9L504 546.5L501.7 547.1L499.3 547.5L496.9 547.8L494.5 548L492 548.1L489.5 548L487 547.9L484.5 547.6L482 547.1L479.5 546.6L477 545.9L474.5 545L472.1 544.1L469.7 543L467.3 541.8L464.9 540.4L462.6 539L460.4 537.4L458.2 535.6L456.1 533.8L454.1 531.8L452.2 529.7L450.3 527.5L448.6 525.2" opacity="0.13"/><path d="M500.1 500.1L500.1 500.1L500.1 500.1L500.1 500.1L500.1 500.1L500.1 500.1L500.1 500.1L500.1 500.1L500.1 500.1L500.1 500.1L500.1 500.1L500.1 500.1L500.1 500.2L500.1 500.2L500.1 500.2L500.1 500.2L500.1 500.2L500.1 500.2L500 500.2L500 500.2L500 500.2L500 500.2L500 500.2L500 500.2L500 500.2L500 500.2L500 500.2L500 500.2L499.9 500.2L499.9 500.2L499.9 500.2L499.9 500.2L499.9 500.2L499.9 500.2L499.9 500.2L499.9 500.2L499.9 500.2L499.9 500.2L499.8 500.2L499.8 500.2L499.8 500.1L499.8 500.1L499.8 500.1L499.8 500.1L499.8 500.1L499.8 500.1L499.8 500.1L499.8 500.1L499.8 500.1L499.8 500.1L499.8 500L499.8 500L499.8 500L499.7 500L499.7 500L499.7 500L499.7 500L499.7 500L499.7 499.9L499.7 499.9L499.7 499.9L499.7 499.9L499.7 499.9L499.8 499.9L499.8 499.9L499.8 499.9L499.8 499.8L499.8 499.8L499.8 499.8L499.8 499.8L499.8 499.8L499.8 499.8L499.8 499.8L499.8 499.8L499.8 499.7L499.9 499.7L499.9 499.7L499.9 499.7L499.9 499.7L499.9 499.7L499.9 499.7L499.9 499.7L499.9 499.7L500 499.7L500 499.7L500 499.7L500 499.7L500 499.7L500 499.7L500.1 499.7L500.1 499.7L500.1 499.7L500.1 499.7L500.1 499.7L500.2 499.7L500.2 499.7L500.2 499.7L500.2 499.7L500.2 499.7L500.2 499.7L500.3 499.7L500.3 499.7L500.3 499.7L500.3 499.8L500.3 499.8L500.3 499.8L500.3 499.8L500.4 499.8L500.4 499.8L500.4 499.8L500.4 499.9L500.4 499.9L500.4 499.9L500.4 499.9L500.4 499.9L500.4 500L500.4 500L500.4 500L500.4 500L500.4 500.1L500.4 500.1L500.4 500.1L500.4 500.1L500.4 500.1L500.4 500.2L500.4 500.2L500.4 500.2L500.4 500.2L500.4 500.3L500.4 500.3L500.4 500.3L500.4 500.3L500.4 500.3L500.3 500.4L500.3 500.4L500.3 500.4L500.3 500.4L500.3 500.4L500.3 500.5L500.2 500.5L500.2 500.5L500.2 500.5L500.2 500.5L500.1 500.5L500.1 500.5L500.1 500.5L500.1 500.6L500 500.6L500 500.6L500 500.6L499.9 500.6L499.9 500.6L499.9 500.6L499.9 500.6L499.8 500.6L499.8 500.6L499.8 500.6L499.7 500.6L499.7 500.5L499.7 500.5L499.6 500.5L499.6 500.5L499.6 500.5L499.6 500.5L499.5 500.5L499.5 500.4L499.5 500.4L499.5 500.4L499.4 500.4L499.4 500.3L499.4 500.3L499.4 500.3L499.4 500.3L499.3 500.2L499.3 500.2L499.3 500.2L499.3 500.1L499.3 500.1L499.3 500.1L499.3 500L499.3 500L499.3 499.9L499.2 499.9L499.2 499.9L499.2 499.8L499.3 499.8L499.3 499.8L499.3 499.7L499.3 499.7L499.3 499.6L499.3 499.6L499.3 499.6L499.3 499.5L499.4 499.5L499.4 499.4L499.4 499.4L499.4 499.4L499.4 499.3L499.5 499.3L499.5 499.3L499.5 499.2L499.6 499.2L499.6 499.2L499.7 499.2L499.7 499.1L499.7 499.1L499.8 499.1L499.8 499.1L499.9 499.1L499.9 499.1L500 499L500 499L500.1 499L500.1 499L500.2 499L500.2 499L500.3 499L500.3 499L500.4 499L500.4 499L500.5 499.1L500.5 499.1L500.6 499.1L500.6 499.1L500.7 499.1L500.7 499.2L500.8 499.2L500.8 499.2L500.8 499.3L500.9 499.3L500.9 499.3L501 499.4L501 499.4L501 499.5L501.1 499.5L501.1 499.6L501.1 499.6L501.2 499.7L501.2 499.7L501.2 499.8L501.2 499.9L501.2 499.9L501.3 500L501.3 500L501.3 500.1L501.3 500.2L501.3 500.2L501.3 500.3L501.3 500.4L501.3 500.4L501.3 500.5L501.2 500.6L501.2 500.6L501.2 500.7L501.2 500.8L501.1 500.8L501.1 500.9L501.1 501L501 501L501 501.1L500.9 501.1L500.9 501.2L500.8 501.2L500.8 501.3L500.7 501.3L500.7 501.4L500.6 501.4L500.5 501.5L500.4 501.5L500.4 501.5L500.3 501.6L500.2 501.6L500.1 501.6L500.1 501.6L500 501.7L499.9 501.7L499.8 501.7L499.7 501.7L499.6 501.7L499.6 501.7L499.5 501.7L499.4 501.6L499.3 501.6L499.2 501.6L499.1 501.6L499 501.5L498.9 501.5L498.9 501.5L498.8 501.4L498.7 501.4L498.6 501.3L498.5 501.2L498.5 501.2L498.4 501.1L498.3 501L498.3 501L498.2 500.9L498.2 500.8L498.1 500.7L498.1 500.6L498 500.5L498 500.4L497.9 500.3L497.9 500.2L497.9 500.1L497.8 500L497.8 499.9L497.8 499.8L497.8 499.7L497.8 499.6L497.8 499.5L497.8 499.4L497.8 499.2L497.9 499.1L497.9 499L497.9 498.9L498 498.8L498 498.7L498.1 498.6L498.1 498.5L498.2 498.3L498.3 498.2L498.3 498.1L498.4 498L498.5 498L498.6 497.9L498.7 497.8L498.8 497.7L498.9 497.6L499 497.5L499.1 497.5L499.3 497.4L499.4 497.4L499.5 497.3L499.6 497.3L499.8 497.2L499.9 497.2L500.1 497.2L500.2 497.2L500.3 497.1L500.5 497.1L500.6 497.1L500.8 497.2L500.9 497.2L501.1 497.2L501.2 497.2L501.4 497.3L501.5 497.3L501.7 497.4L501.8 497.5L502 497.5L502.1 497.6L502.2 497.7L502.4 497.8L502.5 497.9L502.6 498L502.7 498.1L502.9 498.2L503 498.4L503.1 498.5L503.2 498.7L503.3 498.8L503.3 499L503.4 499.1L503.5 499.3L503.5 499.5L503.6 499.6L503.6 499.8L503.7 500L503.7 500.2L503.7 500.4L503.7 500.6L503.7 500.8L503.7 500.9L503.7 501.1L503.7 501.3L503.6 501.5L503.6 501.7L503.5 501.9L503.4 502.1L503.4 502.3L503.3 502.5L503.2 502.7L503.1 502.8L502.9 503L502.8 503.2L502.7 503.4L502.5 503.5L502.4 503.7L502.2 503.8L502 504L501.8 504.1L501.6 504.2L501.4 504.3L501.2 504.4L501 504.5L500.8 504.6L500.6 504.7L500.3 504.7L500.1 504.8L499.9 504.8L499.6 504.9L499.4 504.9L499.1 504.9L498.9 504.9L498.6 504.8L498.4 504.8L498.1 504.8L497.9 504.7L497.6 504.6L497.3 504.5L497.1 504.4L496.9 504.3L496.6 504.2L496.4 504.1L496.1 503.9L495.9 503.7L495.7 503.6L495.5 503.4L495.3 503.2L495.1 503L494.9 502.7L494.7 502.5L494.6 502.2L494.4 502L494.3 501.7L494.2 501.4L494 501.2L493.9 500.9L493.8 500.6L493.8 500.3L493.7 500L493.7 499.6L493.6 499.3L493.6 499L493.6 498.7L493.7 498.3L493.7 498L493.8 497.7L493.8 497.3L493.9 497L494 496.7L494.1 496.3L494.3 496L494.4 495.7L494.6 495.4L494.8 495.1L495 494.8L495.2 494.5L495.5 494.2L495.7 494L496 493.7L496.3 493.5L496.6 493.2L496.9 493L497.3 492.8L497.6 492.6L498 492.4L498.3 492.3L498.7 492.1L499.1 492L499.5 491.9L499.9 491.8L500.3 491.8L500.7 491.7L501.1 491.7L501.6 491.7L502 491.7L502.4 491.7L502.9 491.8L503.3 491.9L503.7 492L504.2 492.1L504.6 492.3L505 492.5L505.4 492.7L505.8 492.9L506.2 493.1L506.6 493.4L507 493.7L507.4 494L507.7 494.3L508.1 494.7L508.4 495L508.7 495.4L509 495.8L509.3 496.2L509.6 496.7L509.8 497.1L510 497.6L510.2 498.1L510.4 498.6L510.5 499.1L510.6 499.6L510.7 500.2L510.8 500.7L510.8 501.3L510.9 501.8L510.8 502.4L510.8 502.9L510.7 503.5L510.6 504.1L510.5 504.6L510.4 505.2L510.2 505.8L509.9 506.3L509.7 506.9L509.4 507.4L509.1 507.9L508.8 508.5L508.4 509L508 509.5L507.6 509.9L507.2 510.4L506.7 510.8L506.2 511.2L505.7 511.6L505.1 512L504.6 512.3L504 512.7L503.4 513L502.7 513.2L502.1 513.5L501.4 513.7L500.8 513.8L500.1 514L499.4 514.1L498.6 514.1L497.9 514.2L497.2 514.2L496.5 514.1L495.7 514.1L495 514L494.2 513.8L493.5 513.6L492.8 513.4L492 513.1L491.3 512.8L490.6 512.5L489.9 512.1L489.2 511.7L488.6 511.2L487.9 510.7L487.3 510.2L486.7 509.6L486.1 509L485.6 508.4L485 507.7L484.5 507L484.1 506.3L483.6 505.5L483.2 504.7L482.9 503.9L482.5 503.1L482.3 502.2L482 501.4L481.8 500.5L481.7 499.6L481.6 498.6L481.5 497.7L481.5 496.7L481.5 495.8L481.6 494.8L481.7 493.8L481.9 492.9L482.1 491.9L482.4 491L482.7 490L483.1 489.1L483.5 488.1L484 487.2L484.5 486.3L485.1 485.4L485.7 484.6L486.4 483.7L487.1 482.9L487.9 482.2L488.7 481.4L489.6 480.7L490.5 480.1L491.4 479.4L492.4 478.8L493.4 478.3L494.4 477.8L495.5 477.4L496.6 477L497.7 476.6L498.9 476.4L500.1 476.1L501.3 476L502.5 475.9L503.7 475.8L505 475.8L506.3 475.9L507.5 476L508.8 476.2L510 476.5L511.3 476.8L512.5 477.2L513.8 477.7L515 478.2L516.2 478.8L517.4 479.5L518.6 480.2L519.7 481L520.8 481.9L521.9 482.8L522.9 483.8L523.9 484.8L524.8 485.9L525.7 487L526.5 488.2L527.3 489.5L528.1 490.8L528.7 492.1L529.3 493.5L529.9 495L530.3 496.4L530.7 497.9L531.1 499.5L531.3 501L531.5 502.6L531.6 504.2L531.6 505.8L531.5 507.5L531.4 509.1L531.2 510.8L530.8 512.4L530.4 514.1L530 515.7L529.4 517.3L528.7 518.9L528 520.5L527.1 522.1L526.2 523.6L525.2 525.1L524.1 526.6L523 528L521.7 529.3L520.4 530.6L519 531.9L517.6 533.1L516 534.2L514.4 535.3L512.7 536.2L511 537.2L509.2 538L507.4 538.7L505.5 539.4L503.5 539.9L501.5 540.4L499.5 540.8L497.4 541L495.4 541.2L493.2 541.3L491.1 541.2L489 541.1L486.8 540.8L484.7 540.5L482.5 540L480.4 539.4L478.2 538.7L476.1 537.9L474.1 537L472 535.9L470 534.8L468 533.5L466.1 532.1L464.2 530.7L462.4 529.1L460.7 527.4L459 525.6L457.4 523.7L455.9 521.8L454.5 519.7L453.2 517.6L452 515.3L450.8 513L449.8 510.6L448.9 508.2L448.1 505.7L447.5 503.1L446.9 500.5L446.5 497.8L446.2 495.1L446.1 492.3L446.1 489.6L446.2 486.8L446.5 484L446.9 481.1L447.5 478.3L448.2 475.5" opacity="0.13"/><path d="M500 500.2L500 500.2L500 500.2L500 500.2L500 500.2L500 500.2L500 500.2L500 500.2L500 500.2L500 500.2L500 500.2L499.9 500.2L499.9 500.2L499.9 500.2L499.9 500.2L499.9 500.2L499.9 500.2L499.9 500.2L499.9 500.1L499.9 500.1L499.9 500.1L499.9 500.1L499.9 500.1L499.8 500.1L499.8 500.1L499.8 500.1L499.8 500.1L499.8 500.1L499.8 500.1L499.8 500.1L499.8 500.1L499.8 500.1L499.8 500L499.8 500L499.8 500L499.8 500L499.8 500L499.8 500L499.8 500L499.8 500L499.8 500L499.8 499.9L499.8 499.9L499.8 499.9L499.8 499.9L499.8 499.9L499.8 499.9L499.8 499.9L499.8 499.9L499.8 499.9L499.8 499.8L499.8 499.8L499.8 499.8L499.8 499.8L499.8 499.8L499.9 499.8L499.9 499.8L499.9 499.8L499.9 499.8L499.9 499.8L499.9 499.7L499.9 499.7L499.9 499.7L499.9 499.7L500 499.7L500 499.7L500 499.7L500 499.7L500 499.7L500 499.7L500 499.7L500.1 499.7L500.1 499.7L500.1 499.7L500.1 499.7L500.1 499.7L500.1 499.7L500.1 499.7L500.2 499.7L500.2 499.7L500.2 499.7L500.2 499.8L500.2 499.8L500.2 499.8L500.2 499.8L500.3 499.8L500.3 499.8L500.3 499.8L500.3 499.8L500.3 499.8L500.3 499.9L500.3 499.9L500.3 499.9L500.3 499.9L500.3 499.9L500.4 499.9L500.4 500L500.4 500L500.4 500L500.4 500L500.4 500L500.4 500L500.4 500.1L500.4 500.1L500.4 500.1L500.4 500.1L500.4 500.1L500.4 500.2L500.4 500.2L500.4 500.2L500.3 500.2L500.3 500.2L500.3 500.3L500.3 500.3L500.3 500.3L500.3 500.3L500.3 500.3L500.3 500.3L500.3 500.4L500.2 500.4L500.2 500.4L500.2 500.4L500.2 500.4L500.2 500.4L500.1 500.4L500.1 500.5L500.1 500.5L500.1 500.5L500.1 500.5L500 500.5L500 500.5L500 500.5L500 500.5L499.9 500.5L499.9 500.5L499.9 500.5L499.9 500.5L499.8 500.5L499.8 500.5L499.8 500.5L499.7 500.5L499.7 500.5L499.7 500.4L499.7 500.4L499.7 500.4L499.6 500.4L499.6 500.4L499.6 500.4L499.6 500.4L499.5 500.3L499.5 500.3L499.5 500.3L499.5 500.3L499.5 500.2L499.4 500.2L499.4 500.2L499.4 500.2L499.4 500.1L499.4 500.1L499.4 500.1L499.4 500L499.4 500L499.4 500L499.4 500L499.4 499.9L499.4 499.9L499.4 499.9L499.4 499.8L499.4 499.8L499.4 499.8L499.4 499.7L499.4 499.7L499.4 499.7L499.4 499.6L499.4 499.6L499.4 499.6L499.5 499.5L499.5 499.5L499.5 499.5L499.5 499.4L499.6 499.4L499.6 499.4L499.6 499.4L499.6 499.3L499.7 499.3L499.7 499.3L499.7 499.3L499.8 499.2L499.8 499.2L499.8 499.2L499.9 499.2L499.9 499.2L500 499.2L500 499.2L500 499.2L500.1 499.2L500.1 499.2L500.2 499.2L500.2 499.2L500.3 499.2L500.3 499.2L500.3 499.2L500.4 499.2L500.4 499.2L500.5 499.2L500.5 499.2L500.6 499.3L500.6 499.3L500.6 499.3L500.7 499.3L500.7 499.4L500.8 499.4L500.8 499.4L500.8 499.5L500.9 499.5L500.9 499.5L500.9 499.6L501 499.6L501 499.7L501 499.7L501 499.8L501 499.8L501.1 499.9L501.1 499.9L501.1 500L501.1 500L501.1 500.1L501.1 500.1L501.1 500.2L501.1 500.3L501.1 500.3L501.1 500.4L501.1 500.4L501.1 500.5L501 500.5L501 500.6L501 500.7L501 500.7L500.9 500.8L500.9 500.8L500.9 500.9L500.8 500.9L500.8 501L500.8 501L500.7 501.1L500.7 501.1L500.6 501.2L500.6 501.2L500.5 501.2L500.4 501.3L500.4 501.3L500.3 501.3L500.3 501.3L500.2 501.4L500.1 501.4L500.1 501.4L500 501.4L499.9 501.4L499.8 501.4L499.8 501.4L499.7 501.4L499.6 501.4L499.5 501.4L499.5 501.4L499.4 501.4L499.3 501.4L499.2 501.3L499.2 501.3L499.1 501.3L499 501.3L499 501.2L498.9 501.2L498.8 501.1L498.8 501.1L498.7 501L498.6 501L498.6 500.9L498.5 500.8L498.5 500.8L498.4 500.7L498.4 500.6L498.3 500.5L498.3 500.5L498.3 500.4L498.2 500.3L498.2 500.2L498.2 500.1L498.2 500L498.1 499.9L498.1 499.8L498.1 499.7L498.1 499.6L498.1 499.5L498.1 499.4L498.1 499.3L498.2 499.3L498.2 499.2L498.2 499.1L498.3 499L498.3 498.9L498.3 498.8L498.4 498.7L498.4 498.6L498.5 498.5L498.6 498.4L498.6 498.3L498.7 498.2L498.8 498.2L498.9 498.1L499 498L499.1 498L499.2 497.9L499.3 497.8L499.4 497.8L499.5 497.7L499.6 497.7L499.7 497.7L499.8 497.6L499.9 497.6L500 497.6L500.2 497.6L500.3 497.5L500.4 497.5L500.5 497.5L500.7 497.6L500.8 497.6L500.9 497.6L501.1 497.6L501.2 497.7L501.3 497.7L501.4 497.8L501.6 497.8L501.7 497.9L501.8 497.9L501.9 498L502 498.1L502.1 498.2L502.2 498.3L502.3 498.4L502.4 498.5L502.5 498.6L502.6 498.7L502.7 498.8L502.8 499L502.9 499.1L502.9 499.2L503 499.4L503 499.5L503.1 499.7L503.1 499.8L503.2 500L503.2 500.1L503.2 500.3L503.2 500.5L503.2 500.6L503.2 500.8L503.2 501L503.2 501.1L503.1 501.3L503.1 501.5L503 501.6L503 501.8L502.9 502L502.8 502.1L502.7 502.3L502.6 502.4L502.5 502.6L502.4 502.7L502.3 502.9L502.2 503L502 503.1L501.9 503.3L501.7 503.4L501.6 503.5L501.4 503.6L501.2 503.7L501.1 503.8L500.9 503.9L500.7 503.9L500.5 504L500.3 504.1L500.1 504.1L499.9 504.1L499.7 504.2L499.5 504.2L499.3 504.2L499 504.2L498.8 504.2L498.6 504.1L498.4 504.1L498.2 504L497.9 504L497.7 503.9L497.5 503.8L497.3 503.7L497.1 503.6L496.9 503.5L496.7 503.4L496.5 503.2L496.3 503.1L496.1 502.9L496 502.7L495.8 502.5L495.6 502.4L495.5 502.1L495.3 501.9L495.2 501.7L495.1 501.5L495 501.3L494.9 501L494.8 500.8L494.7 500.5L494.7 500.2L494.6 500L494.6 499.7L494.5 499.4L494.5 499.1L494.5 498.9L494.6 498.6L494.6 498.3L494.6 498L494.7 497.7L494.8 497.4L494.9 497.2L495 496.9L495.1 496.6L495.2 496.3L495.4 496.1L495.5 495.8L495.7 495.5L495.9 495.3L496.1 495.1L496.3 494.8L496.6 494.6L496.8 494.4L497.1 494.2L497.4 494L497.6 493.8L497.9 493.7L498.2 493.5L498.5 493.4L498.9 493.3L499.2 493.1L499.5 493.1L499.9 493L500.2 492.9L500.6 492.9L501 492.9L501.3 492.9L501.7 492.9L502.1 492.9L502.4 493L502.8 493L503.2 493.1L503.6 493.2L503.9 493.4L504.3 493.5L504.6 493.7L505 493.9L505.3 494.1L505.7 494.3L506 494.6L506.3 494.8L506.6 495.1L506.9 495.4L507.2 495.7L507.5 496L507.7 496.4L508 496.8L508.2 497.1L508.4 497.5L508.6 497.9L508.8 498.4L508.9 498.8L509 499.2L509.1 499.7L509.2 500.1L509.3 500.6L509.3 501.1L509.3 501.5L509.3 502L509.3 502.5L509.2 503L509.1 503.5L509 504L508.9 504.4L508.7 504.9L508.6 505.4L508.3 505.9L508.1 506.3L507.8 506.8L507.6 507.2L507.2 507.7L506.9 508.1L506.6 508.5L506.2 508.9L505.8 509.3L505.3 509.6L504.9 510L504.4 510.3L503.9 510.6L503.4 510.9L502.9 511.1L502.4 511.3L501.8 511.5L501.3 511.7L500.7 511.9L500.1 512L499.5 512.1L498.9 512.1L498.2 512.2L497.6 512.2L497 512.1L496.4 512.1L495.7 512L495.1 511.9L494.5 511.7L493.8 511.5L493.2 511.3L492.6 511L492 510.7L491.4 510.4L490.8 510L490.2 509.6L489.7 509.2L489.1 508.8L488.6 508.3L488.1 507.8L487.6 507.2L487.2 506.6L486.7 506.1L486.3 505.4L486 504.8L485.6 504.1L485.3 503.4L485 502.7L484.8 502L484.6 501.2L484.4 500.4L484.3 499.7L484.2 498.9L484.1 498.1L484.1 497.2L484.1 496.4L484.2 495.6L484.3 494.8L484.4 493.9L484.6 493.1L484.9 492.3L485.1 491.5L485.5 490.6L485.8 489.8L486.2 489.1L486.7 488.3L487.2 487.5L487.7 486.8L488.3 486.1L488.9 485.4L489.6 484.7L490.3 484.1L491 483.5L491.8 482.9L492.6 482.4L493.4 481.9L494.3 481.4L495.2 481L496.1 480.6L497 480.3L498 480L499 479.7L500 479.5L501.1 479.4L502.1 479.3L503.2 479.2L504.2 479.2L505.3 479.3L506.4 479.4L507.5 479.6L508.6 479.8L509.6 480.1L510.7 480.4L511.8 480.8L512.8 481.3L513.9 481.8L514.9 482.4L515.9 483L516.9 483.7L517.8 484.4L518.7 485.2L519.6 486L520.4 486.9L521.3 487.8L522 488.8L522.7 489.9L523.4 490.9L524.1 492L524.6 493.2L525.1 494.4L525.6 495.6L526 496.9L526.4 498.2L526.7 499.5L526.9 500.8L527 502.2L527.1 503.6L527.1 505L527.1 506.4L527 507.8L526.8 509.2L526.5 510.6L526.2 512L525.7 513.4L525.2 514.8L524.7 516.2L524.1 517.6L523.3 518.9L522.6 520.2L521.7 521.5L520.8 522.7L519.8 524L518.7 525.1L517.6 526.3L516.4 527.3L515.1 528.4L513.8 529.3L512.4 530.2L511 531.1L509.5 531.9L508 532.6L506.4 533.2L504.8 533.8L503.1 534.3L501.4 534.7L499.7 535L497.9 535.2L496.1 535.4L494.3 535.4L492.5 535.4L490.6 535.3L488.8 535.1L486.9 534.8L485.1 534.4L483.2 533.9L481.4 533.3L479.6 532.6L477.8 531.8L476 530.9L474.3 529.9L472.6 528.8L471 527.7L469.4 526.4L467.8 525L466.3 523.6L464.9 522.1L463.5 520.5L462.2 518.8L461 517L459.9 515.2L458.8 513.2L457.8 511.3L457 509.2L456.2 507.1L455.5 505L454.9 502.8L454.5 500.5L454.1 498.2L453.9 495.9L453.7 493.5L453.7 491.2L453.8 488.8L454.1 486.3L454.4 483.9L454.9 481.5L455.5 479.1L456.2 476.7L457.1 474.3L458.1 472L459.2 469.7L460.4 467.4L461.8 465.2L463.2 463L464.8 460.9L466.5 458.8L468.4 456.8L470.3 454.9L472.4 453.1L474.6 451.3L476.8 449.7L479.2 448.2L481.6 446.7L484.2 445.4L486.8 444.2" opacity="0.13"/><path d="M499.9 500.1L499.9 500.1L499.9 500.1L499.9 500.1L499.9 500.1L499.9 500.1L499.9 500.1L499.9 500.1L499.8 500.1L499.8 500.1L499.8 500.1L499.8 500.1L499.8 500.1L499.8 500L499.8 500L499.8 500L499.8 500L499.8 500L499.8 500L499.8 500L499.8 500L499.8 500L499.8 500L499.8 500L499.8 499.9L499.8 499.9L499.8 499.9L499.8 499.9L499.8 499.9L499.8 499.9L499.8 499.9L499.8 499.9L499.8 499.9L499.8 499.9L499.9 499.8L499.9 499.8L499.9 499.8L499.9 499.8L499.9 499.8L499.9 499.8L499.9 499.8L499.9 499.8L499.9 499.8L499.9 499.8L499.9 499.8L499.9 499.8L500 499.8L500 499.8L500 499.8L500 499.8L500 499.8L500 499.8L500 499.8L500 499.8L500.1 499.8L500.1 499.8L500.1 499.8L500.1 499.8L500.1 499.8L500.1 499.8L500.1 499.8L500.1 499.8L500.2 499.8L500.2 499.8L500.2 499.8L500.2 499.8L500.2 499.8L500.2 499.8L500.2 499.8L500.2 499.8L500.3 499.8L500.3 499.9L500.3 499.9L500.3 499.9L500.3 499.9L500.3 499.9L500.3 499.9L500.3 499.9L500.3 500L500.3 500L500.3 500L500.3 500L500.3 500L500.3 500L500.3 500.1L500.3 500.1L500.3 500.1L500.3 500.1L500.3 500.1L500.3 500.1L500.3 500.2L500.3 500.2L500.3 500.2L500.3 500.2L500.3 500.2L500.3 500.2L500.3 500.3L500.3 500.3L500.2 500.3L500.2 500.3L500.2 500.3L500.2 500.3L500.2 500.3L500.2 500.3L500.2 500.4L500.1 500.4L500.1 500.4L500.1 500.4L500.1 500.4L500.1 500.4L500 500.4L500 500.4L500 500.4L500 500.4L500 500.4L499.9 500.4L499.9 500.4L499.9 500.4L499.9 500.4L499.9 500.4L499.8 500.4L499.8 500.4L499.8 500.4L499.8 500.4L499.7 500.4L499.7 500.4L499.7 500.4L499.7 500.4L499.7 500.3L499.6 500.3L499.6 500.3L499.6 500.3L499.6 500.3L499.6 500.3L499.6 500.2L499.5 500.2L499.5 500.2L499.5 500.2L499.5 500.1L499.5 500.1L499.5 500.1L499.5 500.1L499.5 500L499.5 500L499.5 500L499.4 500L499.4 499.9L499.4 499.9L499.4 499.9L499.4 499.8L499.5 499.8L499.5 499.8L499.5 499.8L499.5 499.7L499.5 499.7L499.5 499.7L499.5 499.6L499.5 499.6L499.5 499.6L499.6 499.6L499.6 499.5L499.6 499.5L499.6 499.5L499.6 499.5L499.7 499.4L499.7 499.4L499.7 499.4L499.7 499.4L499.8 499.4L499.8 499.4L499.8 499.3L499.9 499.3L499.9 499.3L499.9 499.3L500 499.3L500 499.3L500 499.3L500.1 499.3L500.1 499.3L500.1 499.3L500.2 499.3L500.2 499.3L500.3 499.3L500.3 499.3L500.3 499.3L500.4 499.3L500.4 499.3L500.4 499.3L500.5 499.4L500.5 499.4L500.6 499.4L500.6 499.4L500.6 499.5L500.7 499.5L500.7 499.5L500.7 499.5L500.7 499.6L500.8 499.6L500.8 499.6L500.8 499.7L500.8 499.7L500.9 499.8L500.9 499.8L500.9 499.8L500.9 499.9L500.9 499.9L500.9 500L500.9 500L500.9 500.1L500.9 500.1L500.9 500.2L500.9 500.2L500.9 500.3L500.9 500.3L500.9 500.4L500.9 500.4L500.9 500.5L500.9 500.5L500.9 500.6L500.8 500.6L500.8 500.7L500.8 500.7L500.8 500.7L500.7 500.8L500.7 500.8L500.7 500.9L500.6 500.9L500.6 501L500.5 501L500.5 501L500.4 501.1L500.4 501.1L500.3 501.1L500.3 501.1L500.2 501.2L500.2 501.2L500.1 501.2L500.1 501.2L500 501.2L499.9 501.2L499.9 501.2L499.8 501.2L499.7 501.2L499.7 501.2L499.6 501.2L499.5 501.2L499.5 501.2L499.4 501.2L499.4 501.2L499.3 501.1L499.2 501.1L499.2 501.1L499.1 501L499 501L499 501L498.9 500.9L498.9 500.9L498.8 500.8L498.8 500.8L498.7 500.7L498.7 500.7L498.6 500.6L498.6 500.5L498.6 500.5L498.5 500.4L498.5 500.3L498.5 500.3L498.5 500.2L498.4 500.1L498.4 500L498.4 499.9L498.4 499.9L498.4 499.8L498.4 499.7L498.4 499.6L498.4 499.5L498.4 499.4L498.4 499.4L498.4 499.3L498.5 499.2L498.5 499.1L498.5 499L498.6 498.9L498.6 498.9L498.7 498.8L498.7 498.7L498.8 498.6L498.8 498.6L498.9 498.5L499 498.4L499 498.4L499.1 498.3L499.2 498.3L499.3 498.2L499.4 498.1L499.4 498.1L499.5 498.1L499.6 498L499.7 498L499.8 498L499.9 497.9L500 497.9L500.1 497.9L500.2 497.9L500.4 497.9L500.5 497.9L500.6 497.9L500.7 497.9L500.8 497.9L500.9 498L501 498L501.1 498L501.2 498.1L501.3 498.1L501.4 498.2L501.5 498.2L501.6 498.3L501.7 498.4L501.8 498.4L501.9 498.5L502 498.6L502.1 498.7L502.2 498.8L502.3 498.9L502.3 499L502.4 499.1L502.5 499.2L502.5 499.3L502.6 499.5L502.6 499.6L502.6 499.7L502.7 499.9L502.7 500L502.7 500.1L502.7 500.3L502.8 500.4L502.8 500.5L502.7 500.7L502.7 500.8L502.7 501L502.7 501.1L502.6 501.3L502.6 501.4L502.5 501.5L502.5 501.7L502.4 501.8L502.3 502L502.3 502.1L502.2 502.2L502.1 502.3L502 502.5L501.9 502.6L501.8 502.7L501.6 502.8L501.5 502.9L501.4 503L501.2 503.1L501.1 503.2L500.9 503.3L500.8 503.3L500.6 503.4L500.4 503.4L500.3 503.5L500.1 503.5L499.9 503.6L499.7 503.6L499.6 503.6L499.4 503.6L499.2 503.6L499 503.6L498.8 503.5L498.6 503.5L498.4 503.5L498.2 503.4L498.1 503.4L497.9 503.3L497.7 503.2L497.5 503.1L497.3 503L497.2 502.9L497 502.8L496.8 502.6L496.7 502.5L496.5 502.3L496.4 502.2L496.3 502L496.1 501.9L496 501.7L495.9 501.5L495.8 501.3L495.7 501.1L495.6 500.9L495.5 500.7L495.5 500.4L495.4 500.2L495.4 500L495.3 499.8L495.3 499.5L495.3 499.3L495.3 499L495.3 498.8L495.4 498.5L495.4 498.3L495.4 498.1L495.5 497.8L495.6 497.6L495.7 497.3L495.8 497.1L495.9 496.9L496 496.6L496.2 496.4L496.3 496.2L496.5 496L496.7 495.8L496.8 495.6L497 495.4L497.3 495.2L497.5 495L497.7 494.9L498 494.7L498.2 494.6L498.5 494.4L498.7 494.3L499 494.2L499.3 494.1L499.6 494L499.9 494L500.2 493.9L500.5 493.9L500.8 493.9L501.1 493.9L501.4 493.9L501.8 493.9L502.1 494L502.4 494L502.7 494.1L503 494.2L503.4 494.3L503.7 494.4L504 494.6L504.3 494.7L504.6 494.9L504.9 495.1L505.1 495.3L505.4 495.5L505.7 495.8L505.9 496L506.2 496.3L506.4 496.6L506.6 496.9L506.8 497.2L507 497.5L507.2 497.9L507.4 498.2L507.5 498.6L507.6 498.9L507.7 499.3L507.8 499.7L507.9 500.1L508 500.5L508 500.9L508 501.3L508 501.7L508 502.1L507.9 502.5L507.8 503L507.8 503.4L507.6 503.8L507.5 504.2L507.3 504.6L507.2 505L507 505.4L506.7 505.8L506.5 506.2L506.2 506.6L506 506.9L505.6 507.3L505.3 507.6L505 507.9L504.6 508.3L504.2 508.5L503.8 508.8L503.4 509.1L503 509.3L502.5 509.5L502.1 509.7L501.6 509.9L501.1 510.1L500.6 510.2L500.1 510.3L499.6 510.4L499.1 510.4L498.5 510.5L498 510.5L497.4 510.4L496.9 510.4L496.4 510.3L495.8 510.2L495.3 510L494.7 509.9L494.2 509.7L493.7 509.5L493.1 509.2L492.6 508.9L492.1 508.6L491.6 508.3L491.1 507.9L490.7 507.5L490.2 507.1L489.8 506.7L489.4 506.2L489 505.7L488.6 505.2L488.3 504.7L488 504.1L487.7 503.6L487.4 503L487.2 502.3L486.9 501.7L486.8 501.1L486.6 500.4L486.5 499.7L486.4 499.1L486.4 498.4L486.3 497.7L486.4 497L486.4 496.2L486.5 495.5L486.6 494.8L486.8 494.1L487 493.4L487.2 492.7L487.5 492L487.8 491.3L488.2 490.6L488.6 490L489 489.3L489.4 488.7L489.9 488.1L490.5 487.5L491 486.9L491.6 486.4L492.2 485.8L492.9 485.3L493.6 484.9L494.3 484.4L495 484L495.8 483.7L496.6 483.4L497.4 483.1L498.3 482.8L499.1 482.6L500 482.4L500.9 482.3L501.8 482.2L502.7 482.2L503.6 482.2L504.5 482.2L505.4 482.3L506.4 482.5L507.3 482.7L508.2 482.9L509.2 483.2L510.1 483.5L511 483.9L511.9 484.4L512.7 484.8L513.6 485.4L514.4 486L515.2 486.6L516 487.2L516.8 488L517.5 488.7L518.2 489.5L518.9 490.4L519.5 491.2L520.1 492.2L520.6 493.1L521.1 494.1L521.6 495.1L522 496.2L522.3 497.3L522.6 498.4L522.9 499.5L523.1 500.6L523.2 501.8L523.3 503L523.3 504.2L523.3 505.4L523.1 506.6L523 507.8L522.8 509L522.5 510.3L522.1 511.5L521.7 512.7L521.2 513.8L520.7 515L520.1 516.2L519.4 517.3L518.7 518.4L517.9 519.5L517 520.5L516.1 521.5L515.1 522.5L514.1 523.4L513 524.3L511.9 525.1L510.7 525.9L509.5 526.6L508.2 527.3L506.9 527.9L505.6 528.5L504.2 529L502.7 529.4L501.3 529.7L499.8 530L498.3 530.2L496.7 530.4L495.2 530.4L493.6 530.4L492 530.3L490.4 530.1L488.9 529.9L487.3 529.5L485.7 529.1L484.1 528.6L482.6 528L481 527.3L479.5 526.5L478 525.7L476.6 524.8L475.1 523.8L473.8 522.7L472.4 521.6L471.1 520.3L469.9 519L468.7 517.6L467.6 516.2L466.6 514.7L465.6 513.1L464.7 511.5L463.8 509.8L463.1 508L462.4 506.2L461.8 504.4L461.3 502.5L460.9 500.5L460.6 498.6L460.4 496.6L460.3 494.5L460.3 492.5L460.4 490.4L460.5 488.4L460.8 486.3L461.3 484.2L461.8 482.2L462.4 480.1L463.1 478.1L464 476L464.9 474.1L466 472.1L467.1 470.2L468.4 468.3L469.7 466.5L471.2 464.7L472.8 463L474.4 461.4L476.2 459.8L478.1 458.3L480 456.9L482 455.6L484.1 454.3L486.3 453.2L488.6 452.2L490.9 451.3L493.3 450.4L495.8 449.7L498.3 449.2L500.8 448.7L503.4 448.4L506 448.2L508.7 448.1L511.4 448.2L514.1 448.4L516.8 448.7L519.5 449.2L522.2 449.8L524.9 450.5L527.5 451.4L530.2 452.4L532.8 453.6L535.4 454.9" opacity="0.13"/></g></svg>