<svg xmlns="http://www.w3.org/2000/svg" viewBox="0 0 1000 1000" preserveAspectRatio="xMidYMid slice" fill="none" stroke-linecap="round" stroke-linejoin="round"><g stroke="#0f3d2e" stroke-width="0.9"><path d="M500 500L500.3 500L500.5 500.1L500.8 500.1L501.1 500.2L501.3 500.3L501.5 500.5L501.8 500.6L502 500.8L502.2 501.1L502.4 501.3L502.5 501.6L502.7 501.8L502.8 502.1L502.9 502.4L503 502.8L503 503.1L503 503.4L503 503.8L503 504.2L502.9 504.5L502.8 504.9L502.7 505.3L502.5 505.7L502.3 506L502.1 506.4L501.9 506.8L501.6 507.1L501.3 507.4L500.9 507.8L500.6 508.1L500.2 508.4L499.7 508.6L499.3 508.9L498.8 509.1L498.3 509.3L497.8 509.5L497.2 509.6L496.7 509.7L496.1 509.8L495.5 509.8L494.9 509.8L494.3 509.8L493.6 509.7L493 509.6L492.4 509.5L491.7 509.3L491.1 509L490.4 508.8L489.8 508.4L489.2 508.1L488.6 507.7L488 507.2L487.4 506.8L486.8 506.2L486.3 505.7L485.8 505.1L485.3 504.4L484.8 503.7L484.4 503L484 502.3L483.6 501.5L483.3 500.7L483 499.9L482.7 499L482.6 498.1L482.4 497.2L482.3 496.3L482.2 495.3L482.2 494.3L482.3 493.4L482.4 492.4L482.6 491.4L482.8 490.4L483.1 489.4L483.4 488.4L483.8 487.4L484.2 486.5L484.7 485.5L485.3 484.6L485.9 483.7L486.6 482.8L487.3 481.9L488.1 481L488.9 480.2L489.8 479.5L490.7 478.7L491.7 478L492.7 477.4L493.8 476.8L494.9 476.2L496 475.8L497.2 475.3L498.4 474.9L499.7 474.6L501 474.4L502.3 474.2L503.6 474.1L504.9 474L506.3 474L507.7 474.1L509 474.3L510.4 474.5L511.8 474.8L513.2 475.2L514.5 475.6L515.9 476.2L517.2 476.8L518.5 477.5L519.8 478.2L521 479L522.3 479.9L523.5 480.9L524.6 481.9L525.7 483.1L526.7 484.2L527.7 485.4L528.7 486.7L529.5 488.1L530.4 489.5L531.1 490.9L531.8 492.5L532.4 494L532.9 495.6L533.4 497.2L533.7 498.9L534 500.6L534.2 502.3L534.3 504L534.3 505.8L534.3 507.6L534.1 509.3L533.9 511.1L533.5 512.9L533.1 514.6L532.5 516.4L531.9 518.1L531.2 519.9L530.4 521.6L529.5 523.2L528.5 524.8L527.4 526.4L526.2 527.9L525 529.4L523.7 530.9L522.2 532.2L520.7 533.5L519.2 534.8L517.5 535.9L515.8 537L514 538L512.2 538.9L510.3 539.7L508.4 540.5L506.4 541.1L504.3 541.6L502.3 542.1L500.2 542.4L498 542.6L495.9 542.7L493.7 542.7L491.5 542.6L489.3 542.4L487.2 542.1L485 541.7L482.8 541.1L480.7 540.4L478.5 539.7L476.4 538.8L474.4 537.8L472.4 536.6L470.4 535.4L468.5 534.1L466.6 532.7L464.8 531.1L463.1 529.5L461.5 527.8L459.9 526L458.4 524.1L457 522.1L455.7 520L454.5 517.9L453.4 515.7L452.4 513.4L451.6 511.1L450.8 508.7L450.2 506.2L449.7 503.8L449.3 501.3L449 498.7L448.8 496.1L448.8 493.6L449 491L449.2 488.4L449.6 485.8L450.1 483.2L450.8 480.6L451.5 478.1L452.5 475.5L453.5 473.1L454.7 470.6L456 468.2L457.4 465.9L459 463.6L460.7 461.5L462.5 459.3L464.4 457.3L466.4 455.4L468.5 453.5L470.7 451.8L473 450.1L475.4 448.6L477.9 447.2L480.5 445.9L483.2 444.7L485.9 443.7L488.7 442.8L491.5 442L494.4 441.4L497.3 440.9L500.3 440.6L503.2 440.4L506.2 440.4L509.3 440.5L512.3 440.8L515.3 441.2L518.3 441.8L521.3 442.5L524.2 443.4L527.1 444.4L530 445.6L532.8 447L535.6 448.5L538.3 450.1L540.9 451.9L543.5 453.8L545.9 455.8L548.3 458L550.5 460.3L552.7 462.7L554.7 465.2L556.6 467.9L558.4 470.6L560 473.5L561.5 476.4L562.9 479.4L564.1 482.5L565.1 485.7L566 488.9L566.8 492.2L567.4 495.5L567.8 498.9L568 502.3L568.1 505.7L568 509.1L567.7 512.6L567.2 516L566.6 519.4L565.8 522.8L564.8 526.2L563.7 529.5L562.4 532.8L560.9 536L559.3 539.1L557.4 542.2L555.5 545.2L553.3 548.1L551.1 550.9L548.6 553.6L546.1 556.1L543.4 558.6L540.5 560.9L537.6 563.1L534.5 565.1L531.3 567L528 568.8L524.7 570.3L521.2 571.7L517.6 573L514 574L510.3 574.9L506.6 575.6L502.8 576.1L499 576.4L495.2 576.5L491.3 576.5L487.5 576.2L483.6 575.7L479.8 575.1L476 574.2L472.2 573.2L468.5 572L464.8 570.5L461.2 568.9L457.6 567.1L454.2 565.2L450.8 563L447.6 560.7L444.4 558.2L441.4 555.5L438.5 552.7L435.7 549.7L433.1 546.6L430.6 543.3L428.3 539.9L426.1 536.4L424.2 532.8L422.4 529L420.8 525.2L419.3 521.3L418.1 517.3L417.1 513.2L416.3 509.1L415.6 504.9L415.2 500.7L415 496.4L415 492.2L415.3 487.9L415.7 483.6L416.4 479.4L417.3 475.1L418.4 470.9L419.7 466.8L421.2 462.7L422.9 458.7L424.8 454.7L427 450.9L429.3 447.1L431.8 443.5L434.5 440L437.4 436.6L440.5 433.3L443.7 430.2L447.1 427.3L450.7 424.5L454.4 421.9L458.2 419.5L462.2 417.2L466.3 415.2L470.4 413.4L474.7 411.7L479.1 410.3L483.6 409.1L488.1 408.2L492.7 407.4L497.3 406.9L502 406.6L506.7 406.5L511.4 406.7L516.1 407.1L520.7 407.8L525.4 408.7L530 409.8L534.6 411.2L539.1 412.8L543.5 414.6L547.9 416.6L552.1 418.9L556.3 421.4L560.3 424.1L564.2 427L567.9 430.1L571.5 433.4L575 436.9L578.3 440.6L581.4 444.4L584.3 448.4L587 452.5L589.5 456.8L591.8 461.2L593.9 465.8L595.7 470.4L597.3 475.2L598.7 480L599.9 485L600.7 489.9L601.4 495L601.8 500L601.9 505.1L601.8 510.3L601.4 515.4L600.8 520.5L599.9 525.6L598.8 530.6L597.4 535.6L595.7 540.5L593.8 545.4L591.7 550.1L589.3 554.8L586.7 559.3L583.8 563.8L580.7 568L577.4 572.2L573.9 576.2L570.2 580L566.3 583.6L562.2 587L557.9 590.2L553.4 593.2L548.8 596L544.1 598.6L539.2 600.9L534.2 603L529.1 604.9L523.8 606.4L518.5 607.8L513.2 608.8L507.7 609.6L502.2 610.1L496.7 610.4L491.2 610.3L485.7 610L480.1 609.4L474.6 608.6L469.1 607.4L463.7 606L458.4 604.3L453.1 602.4L447.9 600.1L442.8 597.6L437.9 594.9L433.1 591.9L428.4 588.6L423.9 585.1L419.5 581.4L415.4 577.5L411.4 573.3L407.6 569L404.1 564.4L400.7 559.7L397.6 554.8L394.8 549.7L392.2 544.5L389.8 539.1L387.8 533.6L386 528L384.4 522.4L383.2 516.6L382.2 510.8L381.6 504.9L381.2 498.9L381.1 493L381.4 487L381.9 481.1L382.7 475.1L383.9 469.2L385.3 463.4L387 457.6L389 451.9L391.3 446.3L393.9 440.8L396.8 435.4L399.9 430.2L403.3 425.1L407 420.2L410.9 415.5L415 410.9L419.4 406.6L424 402.5L428.8 398.6L433.8 394.9L439 391.5L444.4 388.3L449.9 385.4L455.6 382.8L461.5 380.5L467.4 378.5L473.5 376.7L479.6 375.3L485.9 374.2L492.1 373.3L498.5 372.8L504.8 372.7L511.2 372.8L517.6 373.2L524 374L530.3 375.1L536.6 376.5L542.8 378.2L548.9 380.3L555 382.6L560.9 385.3L566.7 388.2L572.3 391.5L577.8 395L583.2 398.8L588.3 402.9L593.2 407.3L597.9 411.9L602.4 416.7L606.7 421.8L610.7 427L614.4 432.5L617.9 438.2L621.1 444.1L624 450.1L626.6 456.3L628.9 462.6L630.8 469L632.5 475.5L633.8 482.1L634.8 488.8L635.5 495.6L635.8 502.3L635.8 509.1L635.4 516L634.7 522.7L633.7 529.5L632.3 536.2L630.6 542.9L628.5 549.4L626.1 555.9L623.4 562.3L620.4 568.5L617 574.6L613.4 580.5L609.4 586.2L605.2 591.8L600.7 597.1L595.9 602.2L590.8 607.1L585.5 611.7L580 616L574.2 620.1L568.3 623.9L562.1 627.4L555.8 630.6L549.3 633.5L542.6 636L535.8 638.3L528.9 640.1L521.9 641.7L514.8 642.9L507.7 643.7L500.5 644.2L493.3 644.3L486.1 644L478.8 643.4L471.6 642.5L464.5 641.1L457.4 639.4L450.4 637.4L443.5 635L436.7 632.2L430 629.1L423.5 625.7L417.2 622L411 617.9L405.1 613.5L399.3 608.8L393.8 603.8L388.6 598.6L383.6 593.1L378.9 587.3L374.4 581.3L370.3 575L366.5 568.6L363 561.9L359.8 555.1L356.9 548.1L354.5 541L352.3 533.7L350.6 526.3L349.2 518.9L348.1 511.3L347.5 503.7L347.2 496.1L347.4 488.4L347.9 480.8L348.7 473.2L350 465.6L351.7 458L353.7 450.6L356.1 443.2L358.9 436L362 428.9L365.5 422L369.3 415.2L373.5 408.6L378 402.2L382.9 396.1L388 390.2L393.5 384.5L399.2 379.1L405.2 374L411.5 369.2L418 364.7L424.7 360.5L431.6 356.7L438.8 353.2L446.1 350.1L453.6 347.3L461.2 344.9L469 342.9L476.8 341.3L484.7 340.1L492.7 339.2L500.8 338.8L508.9 338.8L516.9 339.2L525 339.9L533 341.1L541 342.7L548.9 344.7L556.7 347.1L564.3 349.9L571.9 353L579.3 356.6L586.5 360.5L593.5 364.7L600.3 369.4L606.9 374.3L613.2 379.6L619.3 385.3L625.1 391.2L630.6 397.4L635.8 403.9L640.6 410.7L645.1 417.7L649.3 424.9L653.1 432.4L656.6 440L659.6 447.8L662.3 455.8L664.6 463.9L666.4 472.1L667.9 480.5L668.9 488.8L669.5 497.3L669.7 505.8L669.5 514.3L668.8 522.8L667.8 531.2L666.2 539.6L664.3 548L662 556.2L659.2 564.3L656 572.3L652.5 580.2L648.5 587.8L644.2 595.3L639.4 602.5L634.3 609.5L628.9 616.3L623.1 622.8L617 629L610.6 634.9L603.9 640.5L596.9 645.7L589.6 650.6L582.1 655.1L574.3 659.3L566.4 663L558.3 666.4L549.9 669.4L541.5 671.9L532.9 674L524.2 675.7L515.4 677L506.5 677.8L497.6 678.2L488.7 678.1L479.8 677.6L470.9 676.6L462.1 675.2L453.3 673.4L444.6 671.1L436 668.3L427.6 665.2L419.3 661.6L411.2 657.6L403.3 653.2L395.6 648.4L388.1 643.2L380.9 637.6L374 631.7L367.4 625.4L361.1 618.8L355.1 611.9L349.5 604.6L344.2 597.1L339.3 589.4L334.8 581.3L330.7 573.1L327 564.6L323.7 556L320.9 547.2L318.5 538.2L316.5 529.1L315 520L314 510.7L313.4 501.4L313.3 492.1L313.7 482.7L314.5 473.4L315.8 464.1L317.6 454.9L319.8 445.7L322.5 436.7L325.6 427.8L329.2 419.1L333.2 410.5L337.7 402.1L342.5 394L347.8 386.1L353.5 378.5L359.6 371.1L366 364.1L372.8 357.3L379.9 350.9L387.3 344.9L395.1 339.3L403.1 334L411.4 329.1L419.9 324.6L428.7 320.6L437.7 317L446.8 313.9L456.1 311.2L465.6 309L475.1 307.2L484.8 305.9L494.5 305.1L504.2 304.8L514 305L523.8 305.7L533.5 306.9L543.2 308.5L552.7 310.7L562.2 313.3L571.6 316.4L580.8 319.9L589.8 323.9L598.6 328.4L607.2 333.3L615.6 338.7L623.7 344.4L631.5 350.6L639 357.2L646.1 364.1L652.9 371.4L659.4 379.1L665.4 387L671.1 395.3L676.4 403.9L681.2 412.7L685.6 421.7L689.5 431L693 440.5L696 450.1L698.5 459.9L700.5 469.9L702 479.9L703.1 490L703.6 500.2L703.6 510.4L703.1 520.6L702.1 530.7L700.5 540.8L698.5 550.9L696 560.8L692.9 570.6L689.4 580.3L685.4 589.8L680.9 599.1L676 608.1L670.6 616.9L664.7 625.5L658.5 633.7L651.8 641.7L644.7 649.3L637.2 656.5L629.4 663.4L621.3 669.9L612.8 675.9L604 681.6L594.9 686.8L585.5 691.6L575.9 695.8L566.1 699.7L556.2 703L546 705.8L535.7 708.1L525.3 709.9L514.8 711.2L504.2 711.9L493.6 712.1L483 711.8L472.4 711L461.8 709.6L451.4 707.7L441 705.2L430.7 702.3L420.6 698.8L410.6 694.9L400.9 690.4L391.3 685.4L382.1 680L373 674.1L364.3 667.7L355.9 660.9L347.9 653.7L340.2 646.1L332.9 638.1L326 629.8L319.5 621.1L313.4 612L307.8 602.7L302.7 593.1L298 583.2L293.9 573.1L290.2 562.8L287.1 552.3L284.5 541.6L282.4 530.8L280.9 519.9L279.9 509L279.4 497.9L279.5 486.9L280.2 475.9L281.4 464.9L283.2 453.9L285.5 443.1L288.3 432.4L291.7 421.8L295.7 411.4L300.1 401.1L305.1 391.1L310.5 381.4L316.5 371.9L322.9 362.7L329.7 353.9L337.1 345.4L344.8 337.2L353 329.5L361.5 322.1L370.4 315.2L379.7 308.7L389.3 302.7L399.1 297.2L409.3 292.1L419.7 287.6L430.3 283.6L441.2 280.1L452.2 277.2L463.3 274.8L474.6 273L485.9 271.7L497.4 271.1L508.8 270.9L520.3 271.4L531.7 272.4L543.1 274L554.4 276.2L565.6 279L576.7 282.3L587.5 286.1L598.2 290.5L608.7 295.4L618.9 300.9L628.9 306.9L638.5 313.3L647.9 320.3L656.9 327.7L665.5 335.6L673.7 343.9L681.5 352.6L688.8 361.7L695.7 371.1L702.2 380.9L708.1 391.1L713.5 401.5L718.4 412.2L722.8 423.1L726.6 434.3L729.9 445.6L732.6 457.1L734.7 468.8L736.3 480.5L737.2 492.3L737.6 504.2L737.3 516.1L736.5 528L735.1 539.8L733 551.6L730.4 563.2L727.2 574.7L723.5 586.1L719.1 597.3L714.2 608.2L708.8 618.9L702.8 629.4L696.3 639.5L689.3 649.3L681.8 658.7L673.9 667.8L665.4 676.5L656.6 684.8L647.3 692.6L637.7 699.9L627.7 706.8L617.3 713.1L606.6 719L595.6 724.3L584.4 729L572.9 733.2L561.3 736.8L549.4 739.9L537.4 742.3L525.3 744.1L513 745.3L500.8 746L488.5 746L476.1 745.3L463.9 744.1L451.7 742.3L439.6 739.8L427.6 736.8L415.7 733.1L404.1 728.8L392.6 724L381.5 718.6L370.5 712.6L359.9 706.1L349.6 699.1L339.7 691.5L330.1 683.5L321 674.9L312.3 665.9L304 656.5L296.2 646.7L288.9 636.5L282.1 625.9L275.9 615L270.1 603.7L265 592.2L260.4 580.4L256.4 568.4L253.1 556.2L250.3 543.9L248.1 531.4L246.6 518.8L245.7 506.1L245.5 493.4L245.9 480.6L246.9 467.9L248.5 455.3L250.8 442.7L253.7 430.2L257.3 417.9L261.4 405.8L266.2 393.9L271.6 382.2L277.5 370.8L284 359.7L291.1 348.9L298.7 338.5L306.8 328.4L315.4 318.8L324.5 309.6L334.1 300.9L344.1 292.6L354.5 284.9L365.3 277.6L376.4 270.9L387.9 264.8L399.7 259.2L411.8 254.3L424.1 249.9L436.6 246.2L449.3 243.1L462.2 240.6L475.2 238.7L488.3 237.6L501.4 237L514.6 237.2L527.7 237.9L540.8 239.4L553.8 241.5L566.8 244.2L579.5 247.6L592.1 251.7L604.5 256.3L616.7 261.6L628.6 267.5L640.2 274L651.5 281.1L662.4 288.7L672.9 296.9L683.1 305.6L692.7 314.8L702 324.5L710.7 334.6L718.9 345.2L726.6 356.2L733.7 367.6L740.3 379.3L746.3 391.3L751.7 403.7L756.4 416.3L760.5 429.2L764 442.2L766.8 455.4L769 468.8L770.5 482.3L771.3 495.8L771.5 509.4L770.9 523L769.7 536.5L767.8 550L765.2 563.4L762 576.6L758.1 589.7L753.5 602.6L748.3 615.3L742.5 627.6L736.1 639.7L729 651.5L721.4 662.9L713.1 674L704.4 684.6L695.1 694.8L685.3 704.5L675 713.7L664.3 722.4L653.1 730.5L641.5 738.1L629.6 745.1L617.3 751.6L604.7 757.4L591.8 762.5L578.6 767L565.2 770.9L551.7 774.1L537.9 776.6L524.1 778.4L510.1 779.5L496.2 780L482.2 779.7L468.2 778.7L454.2 777L440.4 774.7L426.7 771.6L413.1 767.9L399.7 763.4L386.6 758.3L373.7 752.6L361.1 746.2L348.8 739.2L336.9 731.5L325.4 723.3L314.2 714.5L303.6 705.1L293.4 695.3L283.6 684.9L274.5 674L265.8 662.6L257.8 650.9L250.3 638.7L243.4 626.2L237.2 613.3L231.6 600.1L226.7 586.7L222.4 573L218.9 559.1L216 545L213.8 530.8L212.4 516.4L211.7 502L211.6 487.6L212.4 473.2L213.8 458.8L215.9 444.5L218.8 430.3L222.4 416.3L226.7 402.4L231.6 388.8L237.3 375.4L243.6 362.3L250.6 349.5L258.2 337.1L266.4 325L275.2 313.4L284.6 302.2L294.6 291.5L305.1 281.3L316.1 271.6L327.6 262.5L339.5 253.9L351.9 246L364.7 238.7L377.8 232L391.2 226L405 220.6L419 216L433.2 212L447.6 208.8L462.2 206.2L476.9 204.4L491.7 203.4L506.6 203.1L521.4 203.5L536.2 204.7L551 206.6L565.7 209.2L580.2 212.6L594.5 216.7L608.7 221.6L622.6 227.1L636.2 233.3L649.5 240.2L662.4 247.8L675 256L687.1 264.9L698.8 274.3L710 284.3L720.7 294.9L730.9 306L740.5 317.6L749.6 329.7L758 342.3L765.8 355.2L773 368.6L779.4 382.3L785.2 396.3L790.3 410.6L794.7 425.2L798.3 439.9L801.2 454.9L803.3 470L804.7 485.2L805.4 500.4L805.2 515.7L804.3 530.9L802.7 546.2L800.3 561.3L797.1 576.3L793.2 591.1L788.5 605.7L783.1 620.1L777 634.2L770.2 648.1L762.6 661.5L754.5 674.6L745.6 687.3L736.2 699.5L726.1 711.2L715.5 722.4L704.3 733.1L692.5 743.3L680.3 752.8L667.6 761.7L654.4 770L640.8 777.6L626.9 784.6L612.6 790.8L598 796.3L583.2 801.1L568.1 805.2L552.8 808.4L537.3 811L521.8 812.7L506.1 813.7L490.4 813.9L474.7 813.3L459.1 811.9L443.5 809.7L428 806.7L412.7 803L397.6 798.5L382.7 793.3L368 787.3L353.7 780.6L339.7 773.2L326.1 765L313 756.2L300.2 746.8L288 736.7L276.2 726L265 714.7L254.3 702.9L244.3 690.5L234.9 677.6L226.1 664.3L218 650.5L210.6 636.4L203.9 621.8L197.9 607L192.7 591.8L188.2 576.4L184.5 560.8L181.6 545L179.5 529L178.2 513L177.6 496.9L177.9 480.7L179 464.6L180.9 448.6L183.6 432.7L187.1 416.9L191.4 401.2L196.5 385.8L202.3 370.7L208.9 355.9L216.3 341.4L224.3 327.3L233.1 313.5L242.5 300.3L252.6 287.5L263.3 275.2L274.7 263.4L286.6 252.3L299.1 241.7L312.1 231.8L325.6 222.5L339.6 213.9L353.9 206L368.7 198.8L383.8 192.3L399.3 186.7L415 181.8L430.9 177.7L447.1 174.3L463.4 171.8L479.8 170.1L496.3 169.3L512.9 169.2L529.4 170L545.9 171.6L562.3 174.1L578.6 177.3L594.7 181.4L610.6 186.3L626.2 192L641.6 198.4L656.6 205.6L671.3 213.6L685.5 222.3L699.3 231.7L712.7 241.8L725.5 252.5L737.8 263.9L749.5 275.9L760.6 288.5L771 301.6L780.8 315.3L789.9 329.4L798.3 344L806 359L812.9 374.3L819.1 390L824.4 406.1L829 422.3L832.7 438.8L835.6 455.5L837.7 472.3L838.9 489.2L839.3 506.2L838.9 523.1L837.6 540.1L835.4 556.9L832.4 573.7L828.6 590.3L823.9 606.7L818.4 622.8L812.1 638.7L805 654.2L797.2 669.4L788.6 684.2L779.2 698.6L769.2 712.4L758.4 725.8L747 738.6L734.9 750.9L722.3 762.5L709.1 773.5L695.3 783.8L681 793.5L666.2 802.4L651 810.5L635.4 818L619.5 824.6L603.2 830.4L586.6 835.4L569.8 839.6L552.8 842.9L535.6 845.4L518.3 847L500.9 847.8L483.5 847.6L466.1 846.6L448.8 844.8L431.6 842.1L414.5 838.5L397.6 834L381 828.8L364.6 822.7L348.5 815.7L332.8 808L317.5 799.5L302.6 790.2L288.2 780.2L274.2 769.5L260.9 758L248.1 746L235.9 733.2L224.4 719.9L213.5 706L203.3 691.6L193.9 676.7L185.2 661.3L177.3 645.4L170.2 629.2L163.9 612.7L158.4 595.8L153.8 578.7L150 561.3L147.1 543.8L145.1 526.1L144 508.3L143.7 490.5L144.4 472.7L145.9 454.9L148.3 437.3L151.7 419.7L155.9 402.3L160.9 385.2L166.8 368.3L173.6 351.7L181.2 335.4L189.5 319.5L198.7 304.1L208.7 289.1L219.4 274.7L230.8 260.7L242.9 247.4L255.6 234.7L269 222.6L283 211.2L297.6 200.5L312.7 190.5L328.3 181.3L344.3 172.8L360.7 165.2L377.5 158.4L394.7 152.5L412.1 147.4L429.8 143.2L447.7 139.8L465.7 137.4L483.9 135.9L502.1 135.2L520.3 135.5L538.6 136.7L556.7 138.9L574.7 141.9L592.6 145.8L610.3 150.6L627.7 156.3L644.8 162.9L661.6 170.3L678 178.5L694 187.6L709.5 197.5L724.6 208.1L739 219.5L752.9 231.6L766.2 244.4L778.9 257.8L790.9 271.9L802.1 286.6L812.6 301.8L822.4 317.5L831.3 333.8L839.5 350.4L846.8 367.5L853.2 384.9L858.8 402.6L863.5 420.6L867.3 438.8L870.1 457.2L872.1 475.8L873.1 494.4L873.2 513.1L872.3 531.7L870.5 550.3L867.8 568.8L864.2 587.2L859.6 605.4L854.2 623.3L847.8 640.9L840.6 658.3L832.5 675.2L823.6 691.7L813.8 707.8L803.2 723.4L791.9 738.5L779.8 752.9L767 766.8L753.5 780L739.4 792.5L724.6 804.3L709.3 815.4L693.4 825.7L677 835.2L660.1 843.9L642.9 851.7L625.2 858.7L607.2 864.7L588.9 869.9L570.3 874.1L551.6 877.5L532.7 879.8L513.7 881.3L494.6 881.7L475.5 881.3L456.4 879.8L437.5 877.4L418.6 874.1L400 869.8L381.5 864.6L363.4 858.5L345.5 851.5L328 843.6L310.9 834.8L294.3 825.1L278.1 814.7L262.5 803.4L247.5 791.3L233 778.5L219.3 765L206.2 750.9L193.8 736L182.1 720.6L171.3 704.6L161.2 688L152 671L143.7 653.5L136.2 635.5L129.6 617.3L123.9 598.7L119.2 579.8L115.4 560.7L112.6 541.5L110.8 522.1L109.9 502.6L110 483.1L111 463.6L113.1 444.1L116.1 424.8L120 405.7L125 386.7L130.9 368L137.7 349.6L145.4 331.6L154 314L163.5 296.8L173.9 280L185 263.8L197 248.2L209.8 233.2L223.3 218.9L237.5 205.2L252.4 192.2L267.9 180L284.1 168.6L300.8 158L318 148.2L335.7 139.3L353.8 131.3L372.4 124.2L391.2 118L410.4 112.8L429.8 108.5L449.4 105.3L469.2 103L489.1 101.6L509 101.3L528.9 102L548.8 103.7L568.6 106.3L588.3 110L607.7 114.6L626.9 120.2L645.8 126.8L664.4 134.3L682.6 142.8L700.4 152.1L717.7 162.3L734.4 173.4L750.6 185.3L766.2 198L781.2 211.5L795.4 225.8L809 240.7L821.8 256.3L833.8 272.5L845 289.4L855.3 306.7L864.7 324.6L873.3 343L880.9 361.7L887.6 380.8L893.4 400.3L898.1 420L901.9 440L904.7 460.1L906.4 480.4L907.2 500.7L906.9 521.1L905.6 541.4L903.3 561.7L900 581.8L895.6 601.8L890.3 621.5L884 640.9L876.7 660.1L868.5 678.8L859.3 697.1L849.3 715L838.3 732.3L826.5 749.1L813.8 765.3L800.4 780.8L786.2 795.7L771.2 809.8L755.5 823.2L739.2 835.8L722.3 847.5L704.8 858.5L686.7 868.5L668.2 877.6L649.2 885.8L629.8 893L610.1 899.3L590 904.5L569.8 908.8L549.3 912L528.6 914.3L507.9 915.4L487.1 915.6L466.3 914.7L445.6 912.8L425 909.8L404.6 905.8L384.3 900.8L364.4 894.8L344.7 887.7L325.4 879.7L306.5 870.8L288.1 860.9L270.2 850.1L252.8 838.3L236 825.8L219.9 812.4L204.4 798.2L189.7 783.2L175.7 767.5L162.6 751.1L150.2 734.1L138.7 716.5L128.1 698.3L118.4 679.6L109.7 660.4L101.9 640.7L95.1 620.8L89.3 600.4L84.5 579.8L80.8 559L78.1 538L76.4 516.9L75.9 495.7L76.3 474.5L77.9 453.3L80.5 432.2L84.1 411.3L88.8 390.5L94.5 370L101.3 349.8L109 330L117.8 310.5L127.5 291.5L138.2 273L149.7 255.1L162.2 237.7L175.5 221L189.7 204.9L204.6 189.6L220.3 175L236.8 161.2L253.9 148.3L271.6 136.2L289.9 125L308.8 114.7L328.2 105.4L348 97.1L368.3 89.7L388.9 83.4L409.8 78.1L431 73.8L452.3 70.6L473.8 68.5L495.4 67.5L517 67.5L538.7 68.7L560.2 70.9L581.6 74.1L602.9 78.5L623.9 83.9L644.6 90.4L665 97.8L685 106.4L704.6 115.9L723.7 126.3L742.2 137.8L760.2 150.1L777.5 163.3L794.2 177.4L810.1 192.3L825.3 208L839.7 224.5L853.3 241.7L866 259.5L877.8 277.9L888.6 297L898.5 316.5L907.5 336.6L915.4 357.1L922.3 377.9L928.1 399.1L932.9 420.6L936.6 442.3L939.2 464.2L940.7 486.2L941.1 508.2L940.4 530.3L938.6 552.3L935.7 574.2L931.7 595.9L926.7 617.4L920.5 638.7L913.3 659.6L905.1 680.2L895.8 700.3L885.5 720L874.3 739.1L862.1 757.7L848.9 775.6L834.9 792.9L820.1 809.5L804.4 825.3L787.9 840.3L770.7 854.5L752.8 867.8L734.3 880.2L715.1 891.7L695.4 902.2L675.1 911.7L654.4 920.2L633.3 927.6L611.8 934L590.1 939.3L568 943.5L545.8 946.7L523.4 948.7L501 949.5L478.5 949.3L456.1 947.9L433.7 945.4L411.4 941.8L389.4 937.1L367.6 931.3L346.1 924.4L325 916.4L304.3 907.4L284.1 897.4L264.3 886.3L245.2 874.3L226.6 861.3L208.7 847.4L191.5 832.6L175.1 816.9L159.5 800.5L144.7 783.2L130.7 765.3L117.7 746.6L105.6 727.4L94.5 707.5L84.4 687.1L75.3 666.2L67.3 644.8L60.3 623.1L54.5 601L49.7 578.7L46.1 556.1L43.6 533.4L42.2 510.5L42 487.6L42.9 464.7L45 441.9L48.2 419.2L52.5 396.6L58 374.3L64.6 352.3L72.2 330.6L81 309.4L90.8 288.5L101.7 268.2L113.5 248.4L126.3 229.3L140.1 210.8L154.8 193L170.4 175.9L186.8 159.6L204.1 144.2L222.1 129.6L240.8 116L260.1 103.3L280.1 91.6L300.7 80.8L321.8 71.2L343.4 62.5L365.4 55L387.7 48.6L410.4 43.2L433.3 39.1L456.4 36L479.6 34.2L502.9 33.5L526.2 33.9L549.5 35.5L572.7 38.3L595.7 42.3L618.6 47.4L641.1 53.6L663.4 61L685.2 69.4L706.6 79L727.5 89.6L747.9 101.3L767.7 113.9L786.8 127.6L805.2 142.2L822.9 157.7L839.8 174L855.9 191.3L871.1 209.3L885.4 228L898.7 247.5L911.1 267.6L922.4 288.3L932.7 309.6L941.9 331.3L950.1 353.5L957.1 376.2L963 399.1L967.7 422.3L971.3 445.8L973.7 469.4L974.9 493.1" opacity="0.12"/></g></svg>