<svg xmlns="http://www.w3.org/2000/svg" viewBox="0 0 1000 1000" preserveAspectRatio="xMidYMid slice" fill="none" stroke-linecap="round" stroke-linejoin="round"><g stroke="#0f3d2e" stroke-width="0.9"><path d="M500 500L500.3 500L500.7 500.1L501 500.2L501.3 500.3L501.7 500.4L502 500.6L502.3 500.8L502.5 501.1L502.8 501.3L503 501.6L503.2 502L503.4 502.3L503.6 502.7L503.7 503.1L503.8 503.5L503.8 503.9L503.9 504.4L503.8 504.8L503.8 505.3L503.7 505.8L503.6 506.3L503.4 506.7L503.2 507.2L503 507.7L502.7 508.2L502.4 508.6L502 509.1L501.6 509.5L501.2 509.9L500.7 510.3L500.2 510.7L499.7 511L499.1 511.3L498.5 511.6L497.9 511.8L497.2 512L496.5 512.2L495.8 512.4L495 512.4L494.3 512.5L493.5 512.5L492.7 512.5L491.9 512.4L491.1 512.2L490.3 512L489.5 511.8L488.7 511.5L487.8 511.1L487 510.7L486.2 510.3L485.5 509.8L484.7 509.2L483.9 508.6L483.2 507.9L482.5 507.2L481.9 506.4L481.2 505.6L480.6 504.8L480.1 503.9L479.6 502.9L479.1 501.9L478.7 500.9L478.4 499.8L478 498.7L477.8 497.6L477.6 496.4L477.5 495.2L477.4 494L477.4 492.8L477.5 491.6L477.6 490.3L477.8 489.1L478.1 487.8L478.4 486.5L478.9 485.3L479.3 484L479.9 482.8L480.5 481.6L481.3 480.4L482 479.2L482.9 478.1L483.8 476.9L484.8 475.9L485.8 474.8L487 473.9L488.2 472.9L489.4 472L490.7 471.2L492.1 470.5L493.5 469.8L494.9 469.1L496.5 468.6L498 468.1L499.6 467.7L501.2 467.4L502.9 467.1L504.6 467L506.3 466.9L508 466.9L509.7 467L511.5 467.3L513.2 467.5L515 467.9L516.7 468.4L518.5 469L520.2 469.7L521.9 470.5L523.6 471.3L525.2 472.3L526.8 473.3L528.3 474.5L529.8 475.7L531.3 477L532.7 478.4L534 479.9L535.3 481.5L536.5 483.1L537.6 484.8L538.6 486.6L539.6 488.5L540.5 490.4L541.2 492.4L541.9 494.4L542.5 496.5L542.9 498.6L543.3 500.7L543.5 502.9L543.7 505.1L543.7 507.4L543.6 509.6L543.4 511.9L543.1 514.1L542.7 516.4L542.1 518.6L541.4 520.9L540.6 523.1L539.7 525.3L538.7 527.4L537.5 529.5L536.3 531.6L534.9 533.6L533.4 535.6L531.8 537.5L530.1 539.3L528.3 541L526.4 542.7L524.4 544.2L522.3 545.7L520.1 547.1L517.9 548.3L515.5 549.5L513.1 550.6L510.7 551.5L508.1 552.3L505.5 553L502.9 553.5L500.2 553.9L497.5 554.2L494.8 554.4L492 554.4L489.2 554.3L486.4 554L483.7 553.6L480.9 553L478.1 552.3L475.4 551.5L472.7 550.5L470 549.3L467.4 548.1L464.8 546.6L462.3 545.1L459.9 543.4L457.5 541.6L455.2 539.6L453 537.6L450.9 535.4L449 533.1L447.1 530.6L445.3 528.1L443.6 525.5L442.1 522.8L440.7 520L439.5 517.1L438.4 514.1L437.4 511.1L436.6 508L435.9 504.8L435.4 501.6L435.1 498.4L434.9 495.1L434.9 491.8L435 488.5L435.4 485.2L435.8 481.9L436.5 478.6L437.3 475.3L438.3 472.1L439.5 468.9L440.8 465.7L442.3 462.6L444 459.6L445.8 456.6L447.8 453.7L449.9 450.9L452.2 448.2L454.6 445.7L457.2 443.2L459.9 440.8L462.7 438.6L465.7 436.5L468.8 434.6L471.9 432.8L475.2 431.1L478.6 429.7L482 428.3L485.6 427.2L489.2 426.2L492.9 425.4L496.6 424.8L500.3 424.4L504.1 424.2L508 424.1L511.8 424.3L515.6 424.6L519.5 425.2L523.3 425.9L527.1 426.8L530.8 428L534.5 429.3L538.2 430.8L541.8 432.5L545.3 434.4L548.7 436.5L552.1 438.7L555.3 441.2L558.4 443.8L561.4 446.5L564.3 449.4L567 452.5L569.6 455.7L572 459.1L574.3 462.6L576.4 466.2L578.3 470L580 473.8L581.6 477.7L582.9 481.8L584 485.9L585 490.1L585.7 494.3L586.2 498.6L586.5 502.9L586.6 507.3L586.5 511.6L586.2 516L585.6 520.4L584.8 524.7L583.8 529L582.5 533.3L581.1 537.5L579.4 541.7L577.5 545.8L575.4 549.8L573.1 553.7L570.6 557.5L567.9 561.2L565 564.8L561.9 568.2L558.6 571.5L555.2 574.6L551.6 577.5L547.8 580.3L543.9 582.9L539.9 585.3L535.7 587.5L531.4 589.5L527 591.3L522.4 592.9L517.8 594.2L513.2 595.3L508.4 596.2L503.6 596.8L498.8 597.2L493.9 597.4L489 597.3L484.1 597L479.2 596.4L474.3 595.6L469.4 594.5L464.6 593.2L459.9 591.6L455.2 589.8L450.6 587.7L446.1 585.4L441.7 582.9L437.4 580.2L433.3 577.2L429.2 574L425.4 570.6L421.7 567L418.2 563.2L414.8 559.3L411.7 555.1L408.7 550.8L406 546.3L403.5 541.7L401.2 537L399.1 532.1L397.3 527.1L395.8 522L394.5 516.8L393.4 511.6L392.6 506.2L392.1 500.9L391.9 495.5L391.9 490L392.2 484.6L392.7 479.1L393.6 473.7L394.7 468.3L396.1 463L397.7 457.7L399.7 452.5L401.9 447.4L404.3 442.4L407 437.5L410 432.7L413.2 428.1L416.7 423.6L420.3 419.3L424.3 415.1L428.4 411.2L432.7 407.5L437.2 403.9L441.9 400.6L446.8 397.5L451.9 394.7L457.1 392.1L462.4 389.7L467.9 387.7L473.4 385.9L479.1 384.4L484.9 383.1L490.7 382.2L496.6 381.5L502.5 381.1L508.5 381.1L514.5 381.3L520.4 381.8L526.4 382.7L532.3 383.8L538.2 385.2L544 387L549.7 389L555.4 391.3L560.9 393.9L566.3 396.8L571.6 400L576.7 403.4L581.7 407.1L586.5 411.1L591.1 415.2L595.4 419.7L599.6 424.3L603.5 429.2L607.2 434.3L610.7 439.6L613.9 445L616.8 450.7L619.5 456.5L621.8 462.4L623.9 468.4L625.6 474.6L627.1 480.9L628.2 487.2L629 493.6L629.5 500.1L629.7 506.5L629.6 513.1L629.1 519.6L628.3 526.1L627.2 532.5L625.7 538.9L623.9 545.3L621.8 551.6L619.4 557.7L616.7 563.8L613.6 569.7L610.3 575.5L606.7 581.2L602.7 586.6L598.5 591.9L594 596.9L589.3 601.8L584.3 606.4L579.1 610.7L573.7 614.8L568 618.7L562.1 622.2L556.1 625.5L549.9 628.5L543.5 631.1L537 633.5L530.3 635.5L523.6 637.2L516.8 638.5L509.8 639.5L502.9 640.2L495.8 640.5L488.8 640.4L481.7 640L474.7 639.3L467.7 638.2L460.7 636.7L453.8 634.9L447 632.8L440.3 630.3L433.7 627.4L427.3 624.3L420.9 620.7L414.8 616.9L408.9 612.8L403.1 608.3L397.6 603.6L392.3 598.6L387.2 593.3L382.4 587.8L377.9 582L373.6 575.9L369.7 569.7L366.1 563.2L362.8 556.6L359.8 549.8L357.1 542.8L354.8 535.7L352.9 528.5L351.3 521.1L350.1 513.7L349.3 506.2L348.8 498.7L348.7 491.1L349 483.5L349.7 475.9L350.7 468.4L352.2 460.9L354 453.4L356.2 446.1L358.7 438.8L361.7 431.7L365 424.7L368.6 417.8L372.6 411.2L376.9 404.7L381.6 398.4L386.5 392.4L391.8 386.6L397.4 381.1L403.3 375.9L409.4 370.9L415.8 366.2L422.4 361.9L429.2 357.9L436.3 354.2L443.5 350.9L451 347.9L458.5 345.3L466.2 343.1L474.1 341.3L482 339.8L490 338.8L498.1 338.2L506.2 337.9L514.3 338.1L522.4 338.7L530.5 339.7L538.6 341L546.6 342.8L554.5 345L562.3 347.6L570 350.6L577.5 354L584.9 357.8L592.1 361.9L599.1 366.4L605.8 371.3L612.4 376.5L618.6 382L624.7 387.8L630.4 394L635.8 400.4L640.9 407.1L645.6 414.1L650.1 421.4L654.1 428.8L657.8 436.5L661.1 444.3L664 452.4L666.5 460.5L668.6 468.8L670.3 477.3L671.6 485.8L672.4 494.4L672.8 503L672.8 511.6L672.3 520.3L671.5 528.9L670.1 537.6L668.4 546.1L666.2 554.6L663.6 562.9L660.5 571.2L657.1 579.2L653.2 587.2L649 594.9L644.3 602.4L639.3 609.7L633.9 616.8L628.1 623.6L622 630.1L615.6 636.3L608.9 642.1L601.8 647.7L594.5 652.9L586.9 657.7L579 662.2L571 666.2L562.7 669.9L554.2 673.1L545.6 676L536.8 678.4L527.9 680.3L518.9 681.8L509.8 682.9L500.6 683.5L491.5 683.6L482.3 683.3L473.1 682.6L463.9 681.3L454.8 679.6L445.8 677.5L436.9 674.9L428.1 671.8L419.4 668.3L411 664.4L402.7 660L394.6 655.2L386.8 650L379.2 644.5L371.9 638.5L364.9 632.2L358.2 625.5L351.8 618.4L345.8 611.1L340.2 603.4L334.9 595.5L330 587.3L325.6 578.8L321.5 570.1L317.9 561.2L314.8 552.1L312.1 542.9L309.8 533.5L308 524L306.7 514.4L305.9 504.7L305.6 495L305.7 485.3L306.4 475.5L307.5 465.8L309.1 456.2L311.2 446.6L313.8 437.1L316.8 427.8L320.4 418.6L324.3 409.5L328.8 400.7L333.7 392.1L339 383.7L344.8 375.6L350.9 367.7L357.5 360.2L364.4 353L371.7 346.1L379.3 339.7L387.3 333.5L395.6 327.8L404.2 322.5L413 317.6L422.1 313.2L431.4 309.2L440.9 305.7L450.6 302.7L460.5 300.1L470.5 298L480.6 296.5L490.8 295.4L501 294.9L511.3 294.8L521.5 295.3L531.8 296.3L542 297.8L552.2 299.8L562.2 302.3L572.1 305.4L581.9 308.9L591.5 312.9L600.9 317.4L610.1 322.4L619 327.9L627.7 333.7L636 340.1L644.1 346.8L651.8 354L659.2 361.5L666.2 369.4L672.8 377.7L679 386.3L684.7 395.2L690 404.4L694.9 413.9L699.3 423.6L703.2 433.6L706.6 443.7L709.4 454.1L711.8 464.5L713.7 475.1L715 485.8L715.8 496.6L716 507.4L715.7 518.2L714.9 529L713.5 539.8L711.6 550.5L709.1 561.1L706.1 571.5L702.6 581.9L698.6 592.1L694 602L689 611.8L683.5 621.3L677.5 630.5L671 639.4L664 648L656.7 656.3L648.9 664.2L640.7 671.7L632.2 678.8L623.3 685.4L614 691.7L604.5 697.4L594.6 702.7L584.5 707.5L574.1 711.8L563.6 715.6L552.8 718.8L541.8 721.5L530.8 723.7L519.6 725.3L508.3 726.3L497 726.8L485.6 726.7L474.3 726L463 724.8L451.7 723L440.5 720.6L429.5 717.7L418.6 714.2L407.8 710.2L397.3 705.7L386.9 700.6L376.9 695L367.1 688.8L357.6 682.2L348.5 675.1L339.7 667.6L331.2 659.6L323.2 651.2L315.6 642.4L308.4 633.2L301.7 623.6L295.5 613.7L289.7 603.5L284.5 593L279.8 582.3L275.7 571.3L272 560L269 548.6L266.5 537.1L264.6 525.4L263.3 513.6L262.6 501.8L262.4 489.9L262.9 478L263.9 466.1L265.6 454.3L267.8 442.6L270.7 430.9L274.1 419.5L278.1 408.1L282.6 397L287.7 386.1L293.4 375.5L299.6 365.1L306.3 355L313.5 345.3L321.3 336L329.4 327L338.1 318.4L347.1 310.3L356.6 302.6L366.5 295.4L376.7 288.7L387.2 282.5L398.1 276.8L409.3 271.7L420.7 267.1L432.3 263.1L444.2 259.7L456.2 256.8L468.3 254.6L480.6 253L493 252L505.4 251.6L517.8 251.9L530.2 252.7L542.6 254.2L554.9 256.3L567.1 259L579.2 262.3L591.1 266.3L602.8 270.8L614.3 275.9L625.5 281.6L636.5 287.9L647.1 294.7L657.4 302L667.3 309.9L676.8 318.2L686 327.1L694.6 336.4L702.8 346.1L710.6 356.2L717.8 366.7L724.5 377.6L730.6 388.9L736.2 400.4L741.2 412.2L745.6 424.3L749.4 436.5L752.6 449L755.2 461.7L757.1 474.4L758.4 487.3L759.1 500.2L759.1 513.2L758.5 526.2L757.2 539.1L755.2 552L752.6 564.8L749.4 577.4L745.6 589.9L741.1 602.2L736 614.3L730.3 626.1L724 637.6L717.1 648.8L709.7 659.7L701.7 670.2L693.2 680.3L684.2 690L674.7 699.2L664.7 707.9L654.3 716.2L643.5 723.9L632.3 731.1L620.7 737.8L608.8 743.8L596.7 749.3L584.2 754.1L571.5 758.3L558.5 761.9L545.4 764.8L532.2 767.1L518.8 768.7L505.4 769.7L491.9 770L478.4 769.6L464.9 768.5L451.4 766.7L438.1 764.3L424.9 761.2L411.8 757.5L398.9 753.1L386.2 748L373.8 742.3L361.7 736L349.9 729.1L338.4 721.6L327.3 713.5L316.7 704.8L306.4 695.7L296.6 686L287.3 675.8L278.5 665.1L270.3 654.1L262.5 642.6L255.4 630.7L248.9 618.4L243 605.9L237.7 593L233 579.9L229 566.5L225.7 553L223 539.2L221.1 525.4L219.8 511.4L219.3 497.4L219.4 483.3L220.2 469.3L221.8 455.3L224 441.4L227 427.6L230.6 413.9L234.9 400.4L239.9 387.2L245.6 374.2L251.9 361.4L258.8 349L266.4 337L274.6 325.3L283.3 314L292.6 303.2L302.5 292.8L312.9 282.9L323.7 273.6L335.1 264.8L346.9 256.5L359 248.9L371.6 241.9L384.5 235.4L397.8 229.7L411.3 224.6L425.1 220.2L439.1 216.4L453.3 213.4L467.7 211.1L482.1 209.5L496.6 208.6L511.2 208.5L525.8 209.1L540.4 210.4L554.9 212.4L569.2 215.2L583.5 218.7L597.6 222.9L611.4 227.8L625 233.4L638.4 239.6L651.4 246.6L664 254.2L676.3 262.4L688.2 271.3L699.6 280.7L710.6 290.7L721 301.3L731 312.4L740.3 323.9L749.1 336L757.3 348.4L764.9 361.3L771.8 374.6L778 388.2L783.6 402.1L788.4 416.3L792.6 430.8L796 445.4L798.7 460.2L800.7 475.2L801.9 490.2L802.3 505.4L802 520.5L801 535.6L799.2 550.6L796.6 565.6L793.3 580.4L789.2 595.1L784.4 609.6L778.9 623.8L772.7 637.7L765.8 651.4L758.1 664.6L749.9 677.5L741 690L731.4 702L721.3 713.6L710.6 724.6L699.3 735.1L687.5 745.1L675.2 754.4L662.5 763.2L649.3 771.2L635.7 778.7L621.7 785.4L607.4 791.5L592.8 796.8L578 801.4L562.9 805.3L547.6 808.4L532.1 810.7L516.6 812.3L501 813L485.3 813L469.6 812.3L454 810.7L438.5 808.3L423.1 805.2L407.8 801.3L392.7 796.7L377.9 791.2L363.4 785.1L349.1 778.2L335.2 770.6L321.7 762.3L308.6 753.4L296 743.7L283.8 733.5L272.2 722.6L261.1 711.2L250.6 699.2L240.6 686.7L231.3 673.7L222.7 660.2L214.7 646.3L207.5 632L200.9 617.3L195.1 602.4L190 587.1L185.7 571.6L182.2 555.8L179.5 539.9L177.5 523.9L176.4 507.7L176.1 491.5L176.6 475.3L177.8 459.2L180 443L182.9 427L186.6 411.2L191.1 395.5L196.4 380.1L202.4 364.9L209.2 350.1L216.8 335.5L225.1 321.4L234.1 307.7L243.8 294.4L254.1 281.7L265.1 269.4L276.7 257.7L288.8 246.6L301.6 236.1L314.8 226.2L328.5 217L342.7 208.5L357.4 200.6L372.4 193.6L387.7 187.3L403.4 181.7L419.3 176.9L435.5 173L451.9 169.8L468.4 167.5L485.1 166L501.8 165.3L518.5 165.5L535.3 166.5L551.9 168.3L568.5 171L585 174.5L601.2 178.8L617.3 184L633.1 189.9L648.5 196.6L663.7 204.1L678.4 212.4L692.8 221.4L706.7 231.1L720.1 241.5L733 252.6L745.3 264.3L757 276.6L768.1 289.5L778.6 303L788.4 317L797.5 331.5L805.8 346.4L813.5 361.7L820.3 377.4L826.3 393.5L831.6 409.8L836 426.5L839.6 443.3L842.4 460.3L844.3 477.4L845.3 494.7L845.5 511.9L844.8 529.2L843.2 546.5L840.8 563.6L837.6 580.6L833.4 597.5L828.5 614.2L822.7 630.6L816.1 646.7L808.6 662.5L800.4 677.9L791.5 692.8L781.7 707.4L771.3 721.4L760.1 734.9L748.3 747.9L735.8 760.2L722.8 771.9L709.1 783L694.9 793.4L680.1 803.1L664.9 812L649.3 820.2L633.2 827.5L616.8 834.1L600 839.9L583 844.8L565.7 848.8L548.3 852L530.6 854.3L512.9 855.8L495.1 856.3L477.3 856L459.5 854.7L441.8 852.6L424.1 849.6L406.7 845.7L389.4 840.9L372.4 835.3L355.6 828.8L339.2 821.5L323.2 813.3L307.6 804.4L292.4 794.7L277.7 784.2L263.6 773L250 761.1L237 748.5L224.6 735.3L213 721.4L202 707L191.7 692L182.2 676.6L173.5 660.6L165.5 644.2L158.4 627.4L152.1 610.3L146.7 592.9L142.2 575.2L138.5 557.2L135.8 539.1L133.9 520.9L133 502.6L133 484.2L133.9 465.9L135.7 447.6L138.5 429.4L142.1 411.3L146.7 393.4L152.1 375.8L158.4 358.4L165.6 341.4L173.7 324.7L182.5 308.4L192.2 292.6L202.7 277.3L213.9 262.5L225.9 248.3L238.6 234.6L252 221.6L266 209.3L280.6 197.7L295.8 186.8L311.5 176.7L327.7 167.4L344.4 158.9L361.6 151.2L379.1 144.4L396.9 138.5L415 133.5L433.4 129.3L451.9 126.1L470.6 123.8L489.5 122.5L508.4 122.1L527.3 122.6L546.1 124.1L564.9 126.6L583.6 130L602.1 134.3L620.3 139.5L638.3 145.6L656 152.7L673.3 160.6L690.2 169.4L706.7 179L722.7 189.5L738.1 200.7L753 212.7L767.3 225.5L780.9 239L793.9 253.1L806.1 267.9L817.6 283.3L828.4 299.3L838.3 315.8L847.4 332.8L855.6 350.2L863 368L869.5 386.2L875 404.8L879.7 423.6L883.3 442.6L886.1 461.8L887.8 481.1L888.6 500.5L888.5 520L887.3 539.4L885.2 558.7L882.1 578L878.1 597.1L873.1 616L867.2 634.6L860.3 652.9L852.5 670.9L843.8 688.4L834.3 705.6L823.9 722.2L812.6 738.3L800.6 753.9L787.8 768.8L774.2 783.1L760 796.7L745 809.6L729.4 821.7L713.3 833.1L696.5 843.6L679.2 853.3L661.5 862.2L643.3 870.1L624.8 877.1L605.8 883.2L586.6 888.4L567.2 892.6L547.5 895.8L527.7 898L507.8 899.2L487.8 899.5L467.8 898.7L447.9 896.9L428.1 894.2L408.4 890.4L388.9 885.7L369.6 880L350.7 873.3L332.1 865.7L313.8 857.1L296 847.7L278.7 837.3L261.9 826.1L245.7 814.1L230.1 801.2L215.2 787.6L200.9 773.3L187.3 758.2L174.6 742.4L162.6 726.1L151.4 709.1L141.1 691.6L131.6 673.5L123.1 655L115.5 636.1L108.8 616.8L103.2 597.2L98.5 577.3L94.8 557.2L92.1 536.9L90.4 516.5L89.7 496L90.1 475.5L91.5 455L93.9 434.6L97.4 414.3L101.8 394.2L107.3 374.3L113.7 354.7L121.1 335.5L129.5 316.6L138.9 298.1L149.1 280.1L160.3 262.7L172.3 245.8L185.1 229.5L198.8 213.9L213.2 198.9L228.4 184.7L244.3 171.3L260.9 158.6L278 146.8L295.8 135.8L314.1 125.8L332.9 116.6L352.1 108.4L371.8 101.2L391.8 95L412.1 89.7L432.7 85.5L453.4 82.3L474.3 80.2L495.3 79.1L516.4 79L537.5 80L558.4 82.1L579.3 85.2L600 89.3L620.5 94.5L640.8 100.7L660.7 107.9L680.2 116.2L699.3 125.3L718 135.5L736.1 146.5L753.7 158.5L770.7 171.3L787 185L802.6 199.5L817.5 214.8L831.6 230.8L844.9 247.5L857.4 264.9L869 282.9L879.7 301.4L889.5 320.5L898.3 340.1L906.1 360.1L912.9 380.4L918.7 401.1L923.5 422.1L927.2 443.3L929.8 464.7L931.4 486.3L931.9 507.8L931.3 529.4L929.6 551L926.9 572.5L923 593.8L918.2 614.9L912.2 635.8L905.2 656.3L897.2 676.5L888.2 696.3L878.2 715.6L867.3 734.4L855.4 752.7L842.6 770.4L828.9 787.4L814.4 803.7L799 819.3L782.9 834.1L766.1 848.1L748.5 861.2L730.4 873.5L711.6 884.8L692.2 895.2L672.4 904.7L652 913.1L631.3 920.5L610.2 926.9L588.8 932.2L567.1 936.4L545.3 939.6L523.3 941.6L501.2 942.6L479 942.4L456.9 941.2L434.9 938.8L412.9 935.4L391.2 930.8L369.7 925.1L348.5 918.4L327.7 910.6L307.2 901.8L287.2 892L267.7 881.2L248.7 869.4L230.4 856.6L212.7 843L195.7 828.4L179.4 813L163.9 796.9L149.2 779.9L135.4 762.2L122.4 743.8L110.4 724.8L99.4 705.3L89.3 685.1L80.2 664.5L72.2 643.4L65.2 621.9L59.4 600.1L54.6 578L50.9 555.7L48.3 533.2L46.9 510.6L46.6 488L47.4 465.3L49.4 442.7L52.4 420.2L56.7 397.8L62 375.7L68.4 353.8L76 332.3L84.5 311.2L94.2 290.5L104.9 270.3L116.6 250.7L129.2 231.6L142.8 213.2L157.4 195.5L172.8 178.5L189 162.3L206.1 146.9L223.9 132.4L242.4 118.8L261.6 106.1L281.4 94.3L301.8 83.6L322.7 73.9L344.1 65.3L366 57.7L388.2 51.2L410.7 45.8L433.4 41.6L456.4 38.5L479.5 36.6L502.7 35.8L525.9 36.1L549.1 37.7L572.2 40.4L595.1 44.2L617.9 49.2L640.4 55.3L662.5 62.6L684.3 70.9L705.7 80.4L726.6 90.9L746.9 102.4L766.7 115L785.8 128.5L804.2 143L821.9 158.4L838.9 174.7L854.9 191.8L870.2 209.7L884.5 228.4L897.9 247.7L910.3 267.8L921.7 288.4L932.1 309.6L941.4 331.3L949.6 353.5L956.7 376.1L962.6 399L967.4 422.1L971.1 445.6L973.5 469.2L974.8 492.9" opacity="0.12"/><path d="M500 500L499.8 500.3L499.6 500.6L499.4 500.8L499.1 501L498.8 501.2L498.5 501.4L498.2 501.5L497.8 501.7L497.4 501.7L497.1 501.8L496.7 501.8L496.3 501.8L495.9 501.7L495.5 501.6L495.1 501.5L494.7 501.3L494.3 501.1L493.9 500.9L493.5 500.6L493.1 500.3L492.8 500L492.5 499.6L492.1 499.2L491.8 498.7L491.6 498.3L491.3 497.8L491.1 497.2L491 496.7L490.8 496.1L490.7 495.5L490.7 494.9L490.6 494.2L490.7 493.6L490.7 492.9L490.8 492.2L491 491.5L491.2 490.9L491.4 490.2L491.7 489.5L492 488.8L492.4 488.1L492.9 487.5L493.3 486.8L493.9 486.2L494.4 485.6L495.1 485L495.7 484.4L496.4 483.9L497.2 483.4L498 482.9L498.8 482.5L499.7 482.1L500.6 481.8L501.5 481.5L502.5 481.3L503.5 481.1L504.5 480.9L505.5 480.9L506.6 480.8L507.7 480.9L508.8 481L509.9 481.1L511 481.3L512.1 481.6L513.2 482L514.3 482.4L515.4 482.9L516.5 483.4L517.5 484L518.6 484.7L519.6 485.5L520.6 486.3L521.5 487.1L522.5 488.1L523.3 489.1L524.2 490.1L525 491.2L525.7 492.4L526.4 493.6L527 494.8L527.6 496.1L528.1 497.5L528.5 498.9L528.9 500.3L529.2 501.8L529.4 503.3L529.5 504.8L529.6 506.3L529.5 507.9L529.4 509.5L529.3 511.1L529 512.6L528.6 514.2L528.2 515.8L527.6 517.4L527 518.9L526.3 520.5L525.5 522L524.6 523.5L523.7 524.9L522.6 526.3L521.5 527.7L520.3 529L519 530.3L517.6 531.5L516.2 532.6L514.6 533.7L513.1 534.7L511.4 535.7L509.7 536.5L507.9 537.3L506.1 538L504.2 538.6L502.3 539.1L500.4 539.5L498.4 539.8L496.4 540L494.3 540.1L492.3 540.2L490.2 540L488.1 539.8L486 539.5L483.9 539.1L481.8 538.5L479.8 537.9L477.7 537.1L475.7 536.3L473.7 535.3L471.8 534.2L469.9 533L468 531.7L466.2 530.3L464.5 528.8L462.8 527.1L461.2 525.4L459.7 523.6L458.3 521.8L456.9 519.8L455.6 517.7L454.5 515.6L453.4 513.4L452.5 511.1L451.7 508.8L450.9 506.4L450.3 504L449.9 501.5L449.5 499L449.3 496.5L449.2 493.9L449.2 491.3L449.4 488.7L449.7 486.1L450.1 483.5L450.7 480.9L451.4 478.3L452.2 475.7L453.2 473.2L454.3 470.7L455.5 468.3L456.9 465.9L458.4 463.5L460 461.3L461.8 459.1L463.6 456.9L465.6 454.9L467.7 453L469.9 451.1L472.3 449.4L474.7 447.7L477.2 446.2L479.8 444.8L482.5 443.6L485.2 442.4L488.1 441.4L490.9 440.6L493.9 439.8L496.9 439.3L499.9 438.8L503 438.6L506.1 438.4L509.2 438.5L512.4 438.7L515.5 439.1L518.6 439.6L521.7 440.3L524.8 441.1L527.9 442.1L530.9 443.3L533.9 444.6L536.8 446.1L539.7 447.7L542.4 449.5L545.1 451.4L547.8 453.5L550.3 455.7L552.7 458.1L555 460.6L557.2 463.2L559.3 465.9L561.2 468.8L563 471.7L564.7 474.8L566.2 477.9L567.5 481.2L568.7 484.5L569.7 487.9L570.6 491.3L571.3 494.9L571.8 498.4L572.1 502L572.3 505.7L572.3 509.3L572 513L571.6 516.6L571 520.3L570.3 523.9L569.3 527.5L568.2 531.1L566.8 534.6L565.3 538.1L563.6 541.5L561.7 544.8L559.7 548.1L557.5 551.2L555.1 554.3L552.5 557.2L549.8 560L547 562.7L544 565.3L540.8 567.7L537.6 569.9L534.2 572L530.6 574L527 575.7L523.3 577.3L519.5 578.7L515.6 579.9L511.6 581L507.6 581.8L503.5 582.4L499.4 582.8L495.2 583L491.1 583L486.9 582.8L482.7 582.4L478.5 581.8L474.3 580.9L470.2 579.8L466.1 578.6L462.1 577.1L458.1 575.4L454.2 573.5L450.4 571.4L446.7 569.1L443.1 566.6L439.6 563.9L436.2 561.1L433 558L429.9 554.8L427 551.4L424.2 547.9L421.6 544.2L419.2 540.4L416.9 536.5L414.9 532.4L413.1 528.2L411.4 523.9L410 519.5L408.8 515.1L407.8 510.5L407.1 505.9L406.5 501.3L406.3 496.6L406.2 491.9L406.4 487.1L406.8 482.4L407.5 477.7L408.4 473L409.5 468.4L410.9 463.7L412.5 459.2L414.3 454.7L416.4 450.3L418.7 446L421.2 441.8L424 437.7L426.9 433.8L430.1 429.9L433.5 426.3L437 422.8L440.7 419.5L444.6 416.3L448.7 413.4L453 410.6L457.3 408L461.9 405.7L466.5 403.6L471.3 401.7L476.1 400.1L481.1 398.7L486.1 397.5L491.3 396.6L496.4 395.9L501.6 395.5L506.9 395.4L512.1 395.6L517.4 395.9L522.6 396.6L527.9 397.5L533.1 398.7L538.2 400.2L543.3 401.9L548.3 403.9L553.2 406.1L558 408.6L562.7 411.3L567.3 414.3L571.7 417.5L576 421L580.1 424.6L584 428.5L587.7 432.6L591.3 436.9L594.6 441.3L597.7 446L600.6 450.8L603.3 455.7L605.7 460.8L607.8 466L609.7 471.4L611.4 476.8L612.7 482.4L613.8 488L614.6 493.7L615.1 499.4L615.3 505.2L615.3 511L614.9 516.8L614.3 522.6L613.3 528.3L612.1 534.1L610.6 539.7L608.8 545.3L606.7 550.9L604.3 556.3L601.7 561.6L598.8 566.8L595.6 571.9L592.1 576.8L588.4 581.5L584.5 586.1L580.3 590.5L575.9 594.6L571.3 598.6L566.4 602.3L561.4 605.8L556.2 609L550.8 612L545.3 614.7L539.6 617.2L533.8 619.4L527.9 621.2L521.8 622.8L515.7 624.1L509.5 625.1L503.3 625.7L497 626.1L490.6 626.1L484.3 625.8L478 625.2L471.7 624.3L465.4 623.1L459.2 621.5L453 619.6L447 617.4L441 615L435.2 612.2L429.5 609.1L423.9 605.7L418.5 602L413.3 598.1L408.2 593.9L403.4 589.4L398.8 584.7L394.4 579.7L390.3 574.5L386.4 569.1L382.8 563.5L379.4 557.8L376.4 551.8L373.6 545.7L371.2 539.4L369 533L367.2 526.5L365.7 519.8L364.6 513.1L363.7 506.4L363.2 499.6L363.1 492.7L363.3 485.8L363.8 479L364.7 472.1L365.9 465.3L367.5 458.5L369.4 451.9L371.7 445.3L374.3 438.8L377.2 432.4L380.4 426.2L384 420.1L387.8 414.2L392 408.4L396.5 402.9L401.2 397.6L406.2 392.6L411.5 387.7L417 383.2L422.8 378.9L428.8 374.9L435 371.2L441.3 367.8L447.9 364.7L454.6 361.9L461.5 359.5L468.5 357.4L475.6 355.7L482.8 354.3L490.1 353.3L497.4 352.6L504.8 352.3L512.2 352.4L519.6 352.9L527 353.7L534.4 354.9L541.7 356.4L548.9 358.4L556 360.7L563.1 363.3L570 366.4L576.8 369.7L583.4 373.4L589.8 377.5L596 381.9L602 386.6L607.8 391.6L613.3 396.8L618.6 402.4L623.6 408.3L628.3 414.4L632.8 420.7L636.9 427.3L640.6 434.1L644.1 441.1L647.2 448.2L649.9 455.5L652.3 463L654.3 470.6L655.9 478.3L657.1 486.1L658 493.9L658.4 501.8L658.5 509.8L658.1 517.7L657.4 525.7L656.2 533.6L654.7 541.4L652.7 549.2L650.4 556.9L647.7 564.5L644.6 571.9L641.1 579.2L637.3 586.4L633.1 593.3L628.5 600.1L623.6 606.6L618.4 612.9L612.8 618.9L607 624.7L600.8 630.1L594.4 635.3L587.7 640.1L580.7 644.6L573.6 648.8L566.2 652.6L558.6 656L550.8 659.1L542.9 661.8L534.8 664L526.6 665.9L518.3 667.4L510 668.4L501.5 669.1L493.1 669.3L484.6 669.1L476.1 668.4L467.7 667.3L459.3 665.9L450.9 663.9L442.7 661.6L434.5 658.9L426.5 655.7L418.7 652.1L411 648.2L403.5 643.8L396.2 639.1L389.2 634L382.4 628.6L375.9 622.8L369.7 616.6L363.7 610.2L358.1 603.4L352.8 596.4L347.9 589.1L343.3 581.6L339.1 573.8L335.3 565.8L331.9 557.6L328.9 549.2L326.3 540.6L324.2 532L322.5 523.2L321.2 514.3L320.4 505.4L320 496.4L320 487.4L320.6 478.4L321.5 469.4L322.9 460.4L324.8 451.5L327.1 442.7L329.9 434L333.1 425.4L336.7 417L340.8 408.8L345.2 400.8L350.1 393L355.4 385.4L361 378.1L367 371.1L373.4 364.3L380.1 357.9L387.2 351.8L394.5 346.1L402.2 340.7L410.1 335.7L418.3 331.1L426.7 326.9L435.3 323.2L444.1 319.8L453.1 316.9L462.2 314.5L471.5 312.5L480.9 310.9L490.3 309.9L499.9 309.3L509.4 309.2L519 309.5L528.5 310.4L538 311.7L547.5 313.5L556.8 315.8L566.1 318.5L575.2 321.8L584.2 325.4L593 329.5L601.5 334.1L609.9 339.1L618 344.5L625.9 350.4L633.4 356.6L640.7 363.2L647.6 370.2L654.1 377.5L660.4 385.1L666.2 393.1L671.6 401.4L676.6 409.9L681.2 418.7L685.4 427.8L689.1 437L692.3 446.5L695.1 456.1L697.4 465.8L699.2 475.7L700.5 485.6L701.3 495.7L701.6 505.7L701.4 515.8L700.7 525.9L699.5 536L697.8 546L695.6 555.9L692.9 565.7L689.7 575.4L686 584.9L681.8 594.3L677.2 603.4L672.1 612.4L666.5 621L660.5 629.4L654.1 637.5L647.3 645.3L640.1 652.7L632.5 659.8L624.5 666.5L616.3 672.8L607.7 678.7L598.8 684.1L589.6 689.1L580.1 693.7L570.5 697.8L560.6 701.4L550.5 704.5L540.3 707.1L530 709.2L519.5 710.8L509 711.8L498.4 712.4L487.7 712.4L477.1 711.8L466.5 710.7L455.9 709.1L445.4 707L435.1 704.4L424.8 701.2L414.7 697.5L404.8 693.3L395.1 688.6L385.6 683.4L376.4 677.7L367.5 671.6L358.8 665L350.5 658L342.6 650.6L335 642.7L327.8 634.5L321 626L314.6 617L308.7 607.8L303.2 598.2L298.3 588.4L293.8 578.4L289.8 568.1L286.3 557.6L283.4 546.9L281 536.1L279.1 525.1L277.8 514L277 502.9L276.8 491.8L277.1 480.6L278 469.4L279.5 458.3L281.5 447.3L284.1 436.3L287.2 425.5L290.9 414.8L295.1 404.3L299.9 394.1L305.1 384L310.9 374.2L317.1 364.7L323.8 355.5L331 346.7L338.7 338.2L346.7 330.1L355.2 322.3L364 315.1L373.3 308.2L382.8 301.8L392.7 295.9L402.9 290.5L413.4 285.6L424.1 281.2L435 277.3L446.2 274L457.5 271.3L468.9 269.1L480.4 267.5L492.1 266.5L503.8 266L515.5 266.2L527.2 266.9L538.9 268.2L550.5 270.1L562 272.6L573.4 275.6L584.6 279.2L595.7 283.4L606.6 288.2L617.2 293.5L627.5 299.3L637.6 305.6L647.4 312.5L656.8 319.8L665.8 327.6L674.5 335.9L682.7 344.6L690.5 353.7L697.9 363.2L704.8 373.1L711.1 383.4L717 393.9L722.4 404.7L727.2 415.9L731.4 427.2L735.1 438.8L738.2 450.5L740.7 462.5L742.6 474.5L744 486.6L744.7 498.8L744.8 511.1L744.2 523.3L743.1 535.6L741.4 547.7L739 559.8L736 571.8L732.5 583.6L728.3 595.3L723.6 606.7L718.3 617.9L712.4 628.9L706 639.5L699 649.8L691.6 659.8L683.6 669.4L675.1 678.6L666.2 687.4L656.9 695.8L647.1 703.6L636.9 711L626.4 717.9L615.5 724.2L604.3 730L592.8 735.3L581 740L569 744L556.8 747.5L544.4 750.4L531.9 752.6L519.2 754.2L506.5 755.2L493.7 755.6L480.9 755.3L468.2 754.4L455.4 752.8L442.8 750.6L430.2 747.7L417.8 744.3L405.6 740.2L393.6 735.5L381.8 730.2L370.3 724.3L359 717.8L348.1 710.8L337.6 703.2L327.4 695.1L317.6 686.4L308.3 677.3L299.4 667.7L291 657.7L283.1 647.2L275.7 636.4L268.8 625.2L262.6 613.6L256.9 601.7L251.8 589.6L247.3 577.2L243.4 564.5L240.1 551.7L237.6 538.7L235.6 525.5L234.3 512.3L233.7 499L233.7 485.7L234.4 472.4L235.8 459.1L237.8 445.9L240.5 432.7L243.9 419.7L247.9 406.9L252.6 394.3L257.8 381.9L263.8 369.8L270.3 358L277.4 346.5L285 335.3L293.3 324.6L302.1 314.2L311.3 304.3L321.1 294.9L331.4 285.9L342.1 277.5L353.2 269.6L364.8 262.2L376.7 255.5L388.9 249.3L401.5 243.7L414.3 238.8L427.4 234.5L440.6 230.9L454.1 227.9L467.7 225.6L481.5 224L495.3 223.1L509.1 222.8L523 223.3L536.8 224.5L550.6 226.3L564.3 228.8L577.9 232.1L591.3 236L604.5 240.5L617.5 245.8L630.2 251.7L642.6 258.2L654.7 265.3L666.5 273.1L677.8 281.4L688.7 290.3L699.2 299.8L709.2 309.7L718.8 320.2L727.7 331.2L736.2 342.6L744.1 354.4L751.3 366.6L758 379.2L764 392.1L769.4 405.3L774.1 418.8L778.2 432.5L781.5 446.5L784.2 460.6L786.2 474.8L787.4 489.1L787.9 503.5L787.7 517.9L786.8 532.3L785.2 546.6L782.9 560.9L779.8 575.1L776 589.1L771.5 602.9L766.4 616.4L760.5 629.8L754 642.8L746.9 655.5L739.1 667.8L730.6 679.8L721.6 691.3L712 702.4L701.9 713L691.2 723.1L680 732.6L668.4 741.6L656.3 750L643.8 757.8L630.9 765L617.6 771.5L604 777.4L590.1 782.5L576 787L561.6 790.8L547 793.8L532.3 796.2L517.5 797.8L502.6 798.6L487.7 798.7L472.7 798.1L457.8 796.7L443 794.5L428.2 791.6L413.6 788L399.2 783.7L385.1 778.6L371.1 772.8L357.5 766.3L344.2 759.2L331.2 751.3L318.7 742.9L306.6 733.8L294.9 724.1L283.7 713.8L273 702.9L262.9 691.5L253.3 679.6L244.4 667.3L236 654.5L228.4 641.2L221.3 627.6L215 613.7L209.3 599.4L204.4 584.8L200.2 570L196.7 555L194 539.8L192.1 524.5L190.9 509.1L190.5 493.7L190.8 478.2L192 462.7L193.9 447.3L196.5 432L200 416.8L204.2 401.8L209.2 387L214.9 372.5L221.3 358.2L228.4 344.3L236.2 330.8L244.8 317.6L253.9 304.8L263.7 292.6L274.1 280.8L285.1 269.5L296.7 258.8L308.8 248.7L321.4 239.1L334.5 230.2L348 222L362 214.4L376.3 207.6L390.9 201.4L405.9 196L421.1 191.4L436.6 187.5L452.2 184.4L468 182L483.9 180.5L499.9 179.7L515.9 179.8L531.9 180.6L547.9 182.3L563.8 184.8L579.6 188L595.2 192L610.6 196.9L625.7 202.4L640.6 208.8L655.1 215.9L669.3 223.7L683.1 232.2L696.4 241.4L709.3 251.3L721.7 261.8L733.6 273L744.9 284.7L755.7 297L765.8 309.8L775.2 323.2L784 337L792.1 351.2L799.5 365.9L806.1 380.9L812 396.2L817.2 411.8L821.5 427.7L825.1 443.8L827.8 460.1L829.7 476.5L830.8 493L831.1 509.6L830.6 526.1L829.2 542.7L827 559.1L824 575.5L820.1 591.7L815.5 607.7L810 623.4L803.8 638.9L796.7 654.1L789 668.9L780.4 683.3L771.2 697.3L761.3 710.8L750.7 723.8L739.4 736.3L727.5 748.3L715.1 759.6L702 770.3L688.5 780.3L674.4 789.7L659.9 798.3L644.9 806.3L629.5 813.5L613.8 819.9L597.8 825.5L581.5 830.3L564.9 834.3L548.2 837.5L531.3 839.8L514.3 841.3L497.2 841.9L480.1 841.7L463 840.6L446 838.7L429.1 835.9L412.3 832.2L395.7 827.8L379.3 822.5L363.2 816.4L347.4 809.4L332 801.7L316.9 793.2L302.3 784L288.1 774L274.5 763.4L261.4 752L248.8 740L236.9 727.4L225.6 714.2L214.9 700.4L205 686.1L195.8 671.3L187.3 656L179.6 640.3L172.6 624.2L166.5 607.8L161.2 591.1L156.7 574.1L153.1 556.9L150.4 539.6L148.5 522.1L147.5 504.5L147.3 486.8L148.1 469.2L149.7 451.6L152.3 434.1L155.6 416.7L159.9 399.5L165 382.5L171 365.8L177.8 349.4L185.4 333.3L193.9 317.6L203.1 302.3L213.1 287.6L223.8 273.3L235.2 259.5L247.3 246.3L260.1 233.8L273.5 221.8L287.4 210.6L302 200L317 190.2L332.6 181.2L348.6 172.9L365 165.4L381.8 158.7L398.9 152.9L416.3 148L433.9 143.9L451.8 140.7L469.7 138.4L487.8 137L506 136.5L524.2 136.9L542.3 138.2L560.4 140.5L578.4 143.6L596.2 147.6L613.8 152.5L631.2 158.3L648.2 165L664.9 172.5L681.2 180.9L697.2 190L712.6 200L727.5 210.7L741.9 222.2L755.8 234.4L769 247.3L781.5 260.8L793.4 275L804.6 289.7L815 305L824.6 320.9L833.5 337.1L841.5 353.9L848.7 371L855.1 388.5L860.5 406.3L865.1 424.4L868.8 442.7L871.5 461.1L873.3 479.7L874.2 498.4L874.2 517.1L873.2 535.8L871.3 554.5L868.4 573L864.6 591.4L859.9 609.7L854.3 627.6L847.8 645.3L840.4 662.7L832.2 679.6L823.1 696.2L813.2 712.3L802.4 727.9L790.9 742.9L778.7 757.4L765.7 771.3L752 784.5L737.7 797L722.8 808.8L707.3 819.8L691.2 830L674.6 839.5L657.6 848.1L640.1 855.9L622.3 862.8L604.1 868.7L585.6 873.8L566.9 878L547.9 881.2L528.8 883.4L509.6 884.7L490.4 885.1L471.1 884.5L451.9 882.9L432.8 880.3L413.8 876.8L395 872.4L376.4 867L358.1 860.7L340.1 853.5L322.4 845.3L305.2 836.3L288.5 826.5L272.2 815.8L256.5 804.2L241.4 791.9L226.9 778.9L213 765.1L199.9 750.7L187.4 735.6L175.8 719.9L164.9 703.6L154.8 686.7L145.6 669.4L137.3 651.6L129.8 633.4L123.3 614.8L117.7 595.9L113.1 576.8L109.4 557.4L106.6 537.8L104.9 518.1L104.1 498.4L104.4 478.6L105.6 458.8L107.8 439.1L111 419.5L115.2 400L120.3 380.8L126.4 361.9L133.5 343.3L141.5 325L150.4 307.1L160.2 289.7L170.8 272.8L182.3 256.4L194.6 240.6L207.7 225.4L221.6 210.9L236.1 197.1L251.4 184L267.3 171.7L283.8 160.2L300.9 149.5L318.5 139.7L336.6 130.8L355.1 122.8L374.1 115.7L393.3 109.5L412.9 104.3L432.7 100.1L452.8 96.9L472.9 94.7L493.2 93.5L513.6 93.4L533.9 94.2L554.2 96.1L574.4 98.9L594.4 102.8L614.2 107.7L633.8 113.6L653.1 120.4L672 128.3L690.5 137L708.6 146.7L726.2 157.3L743.2 168.7L759.7 181L775.6 194.2L790.7 208.1L805.2 222.7L819 238.1L831.9 254.2L844.1 270.9L855.4 288.2L865.8 306.1L875.4 324.4L884 343.3L891.7 362.6L898.4 382.2L904.1 402.2L908.8 422.4L912.6 442.9L915.2 463.6L916.9 484.4L917.5 505.2L917 526.1L915.6 547L913 567.7L909.5 588.4L904.9 608.8L899.2 629L892.6 648.9L885 668.5L876.4 687.7L866.9 706.4L856.4 724.7L845 742.4L832.7 759.6L819.6 776.1L805.6 792L790.9 807.1L775.4 821.5L759.2 835.2L742.3 848L724.8 860L706.7 871L688 881.2L668.9 890.5L649.3 898.7L629.3 906L608.9 912.3L588.2 917.6L567.3 921.8L546.2 925L524.9 927.1L503.5 928.1L482.1 928.1L460.7 927L439.4 924.9L418.1 921.7L397.1 917.4L376.3 912L355.7 905.7L335.5 898.3L315.6 889.9L296.2 880.5L277.3 870.1L258.9 858.8L241 846.6L223.8 833.4L207.3 819.5L191.4 804.7L176.3 789.1L162 772.8L148.5 755.8L135.9 738.1L124.1 719.7L113.3 700.8L103.5 681.4L94.6 661.5L86.7 641.1L79.8 620.4L74 599.3L69.2 578L65.5 556.4L62.9 534.6L61.4 512.7L60.9 490.8L61.6 468.8L63.4 446.9L66.2 425.1L70.2 403.5L75.2 382L81.3 360.8L88.5 339.9L96.7 319.4L105.9 299.3L116.1 279.7L127.3 260.6L139.5 242.1L152.5 224.2L166.5 206.9L181.3 190.4L197 174.6L213.4 159.6L230.5 145.4L248.4 132.1L266.9 119.7L286.1 108.2L305.8 97.7L326 88.2L346.6 79.7L367.7 72.2L389.2 65.8L411 60.5L433 56.2L455.2 53.1L477.6 51.1L500.1 50.2L522.6 50.4L545 51.8L567.4 54.2L589.7 57.8L611.8 62.5L633.6 68.3L655.1 75.2L676.3 83.2L697.1 92.2L717.4 102.3L737.1 113.3L756.4 125.4L775 138.4L792.9 152.3L810.2 167.2L826.7 182.8L842.4 199.3L857.2 216.6L871.2 234.6L884.3 253.3L896.5 272.7L907.6 292.6L917.8 313.1L927 334.1L935 355.5L942 377.4L948 399.5L952.8 422L956.4 444.7L959 467.5L960.4 490.5L960.6 513.5L959.7 536.6L957.6 559.5L954.4 582.4L950.1 605.1L944.6 627.5L938 649.7L930.3 671.5L921.5 693L911.6 714L900.7 734.4L888.8 754.4L875.9 773.7L862 792.3L847.2 810.3L831.5 827.5L814.9 843.9L797.6 859.5L779.4 874.2L760.6 888L741 900.8L720.9 912.6L700.1 923.5L678.8 933.3L657.1 942L634.9 949.6L612.3 956.1L589.4 961.5L566.3 965.7L543 968.8L519.5 970.7L496 971.4L472.4 971L448.8 969.4L425.4 966.6L402.1 962.6L379 957.4L356.2 951.2L333.7 943.7L311.6 935.2L289.9 925.5L268.8 914.8" opacity="0.12"/><path d="M500 500L499.8 499.7L499.7 499.4L499.6 499L499.6 498.7L499.5 498.3L499.5 498L499.6 497.6L499.7 497.3L499.8 496.9L499.9 496.6L500.1 496.2L500.3 495.9L500.6 495.6L500.8 495.3L501.2 495L501.5 494.7L501.9 494.5L502.3 494.2L502.7 494.1L503.2 493.9L503.6 493.8L504.1 493.7L504.6 493.6L505.2 493.6L505.7 493.6L506.3 493.6L506.8 493.7L507.4 493.8L508 494L508.5 494.2L509.1 494.5L509.7 494.8L510.2 495.1L510.8 495.5L511.3 495.9L511.8 496.4L512.3 496.9L512.8 497.5L513.3 498.1L513.7 498.7L514.1 499.4L514.4 500.1L514.8 500.8L515 501.6L515.3 502.4L515.5 503.2L515.6 504.1L515.7 505L515.8 505.9L515.8 506.8L515.7 507.7L515.6 508.7L515.5 509.6L515.3 510.6L515 511.5L514.6 512.5L514.3 513.4L513.8 514.4L513.3 515.3L512.7 516.2L512.1 517.1L511.4 518L510.7 518.8L509.9 519.7L509 520.4L508.1 521.2L507.1 521.9L506.1 522.5L505.1 523.2L504 523.7L502.8 524.2L501.6 524.7L500.4 525.1L499.1 525.4L497.8 525.7L496.5 525.9L495.1 526L493.8 526.1L492.4 526.1L491 526L489.6 525.8L488.1 525.6L486.7 525.2L485.3 524.8L483.9 524.4L482.5 523.8L481.1 523.2L479.7 522.4L478.4 521.6L477.1 520.8L475.8 519.8L474.6 518.8L473.4 517.7L472.2 516.5L471.1 515.2L470.1 513.9L469.1 512.5L468.2 511.1L467.4 509.6L466.6 508L465.9 506.4L465.3 504.8L464.7 503L464.3 501.3L463.9 499.5L463.6 497.7L463.5 495.8L463.4 493.9L463.4 492L463.5 490.1L463.7 488.2L464 486.3L464.5 484.4L465 482.5L465.6 480.6L466.3 478.7L467.1 476.8L468.1 475L469.1 473.2L470.2 471.5L471.5 469.8L472.8 468.1L474.2 466.5L475.7 465L477.3 463.5L479 462.1L480.8 460.8L482.6 459.6L484.5 458.5L486.5 457.4L488.6 456.5L490.7 455.6L492.9 454.9L495.1 454.2L497.4 453.7L499.7 453.3L502 453L504.4 452.8L506.8 452.7L509.2 452.8L511.7 453L514.1 453.3L516.5 453.7L519 454.3L521.4 455L523.8 455.8L526.1 456.8L528.4 457.8L530.7 459L532.9 460.4L535.1 461.8L537.2 463.4L539.3 465L541.2 466.8L543.1 468.7L544.9 470.7L546.6 472.8L548.2 475L549.7 477.3L551.1 479.7L552.4 482.2L553.5 484.7L554.6 487.4L555.5 490L556.2 492.8L556.9 495.6L557.4 498.4L557.7 501.3L557.9 504.2L558 507.1L557.9 510.1L557.6 513L557.3 516L556.7 518.9L556 521.9L555.2 524.8L554.2 527.7L553 530.5L551.7 533.3L550.3 536.1L548.7 538.7L546.9 541.4L545 543.9L543 546.3L540.9 548.7L538.6 550.9L536.2 553.1L533.7 555.1L531 557L528.3 558.8L525.5 560.5L522.5 562L519.5 563.4L516.4 564.6L513.2 565.7L510 566.6L506.6 567.4L503.3 568L499.9 568.4L496.5 568.6L493 568.7L489.5 568.6L486 568.3L482.5 567.9L479.1 567.3L475.6 566.5L472.2 565.5L468.8 564.3L465.5 563L462.2 561.5L459 559.8L455.8 557.9L452.8 555.9L449.8 553.7L446.9 551.4L444.2 548.9L441.5 546.3L439 543.5L436.6 540.6L434.4 537.5L432.3 534.3L430.3 531L428.5 527.7L426.9 524.2L425.5 520.6L424.2 516.9L423.1 513.1L422.2 509.3L421.5 505.4L421 501.5L420.7 497.6L420.5 493.6L420.6 489.6L420.9 485.5L421.4 481.5L422.1 477.5L423 473.5L424.1 469.6L425.4 465.7L426.9 461.9L428.6 458.1L430.5 454.4L432.6 450.7L434.8 447.2L437.3 443.8L440 440.5L442.8 437.3L445.8 434.3L448.9 431.4L452.2 428.6L455.7 426L459.2 423.6L463 421.3L466.8 419.3L470.8 417.4L474.8 415.7L479 414.2L483.3 412.9L487.6 411.9L492 411L496.4 410.4L500.9 410L505.4 409.8L510 409.8L514.5 410.1L519.1 410.6L523.6 411.3L528.1 412.3L532.6 413.5L537 414.9L541.3 416.6L545.6 418.4L549.8 420.5L553.9 422.8L557.9 425.3L561.8 428.1L565.6 431L569.2 434.1L572.7 437.5L576 440.9L579.1 444.6L582.1 448.5L584.8 452.5L587.4 456.6L589.8 460.9L592 465.3L593.9 469.8L595.6 474.5L597.1 479.2L598.4 484L599.4 488.9L600.2 493.9L600.7 498.9L600.9 504L601 509L600.7 514.1L600.2 519.2L599.5 524.3L598.5 529.3L597.2 534.3L595.7 539.3L593.9 544.1L591.9 548.9L589.6 553.6L587.1 558.2L584.4 562.7L581.4 567.1L578.2 571.3L574.8 575.4L571.2 579.3L567.3 583L563.3 586.5L559.1 589.9L554.7 593L550.1 595.9L545.4 598.6L540.6 601.1L535.6 603.3L530.5 605.3L525.2 607L519.9 608.5L514.5 609.7L509 610.6L503.5 611.3L497.9 611.7L492.3 611.8L486.7 611.6L481.1 611.1L475.5 610.4L469.9 609.3L464.4 608L458.9 606.4L453.5 604.6L448.2 602.4L443 600L437.8 597.3L432.9 594.4L428 591.2L423.3 587.7L418.8 584L414.5 580.1L410.3 575.9L406.3 571.6L402.6 567L399.1 562.2L395.8 557.2L392.8 552.1L390 546.8L387.4 541.4L385.2 535.8L383.2 530.1L381.5 524.3L380.1 518.4L379 512.4L378.2 506.4L377.7 500.3L377.5 494.2L377.6 488L378 481.9L378.7 475.7L379.7 469.6L381.1 463.5L382.7 457.5L384.7 451.6L386.9 445.7L389.5 440L392.3 434.3L395.5 428.8L398.9 423.5L402.6 418.3L406.5 413.3L410.7 408.5L415.2 403.9L419.9 399.5L424.8 395.4L429.9 391.4L435.3 387.8L440.8 384.4L446.5 381.3L452.4 378.4L458.4 375.9L464.6 373.6L470.9 371.7L477.3 370L483.7 368.7L490.3 367.7L496.9 367.1L503.6 366.7L510.3 366.7L517 367.1L523.6 367.7L530.3 368.7L536.9 370.1L543.5 371.8L549.9 373.8L556.3 376.1L562.6 378.8L568.8 381.8L574.8 385.1L580.6 388.7L586.3 392.6L591.8 396.8L597.1 401.2L602.1 406L607 411L611.6 416.2L615.9 421.7L620 427.4L623.7 433.4L627.2 439.5L630.4 445.8L633.3 452.3L635.8 458.9L638.1 465.6L639.9 472.5L641.5 479.5L642.7 486.6L643.5 493.7L644 500.9L644.1 508.1L643.9 515.3L643.2 522.5L642.3 529.7L640.9 536.9L639.3 544L637.2 551L634.8 558L632 564.8L628.9 571.5L625.5 578L621.7 584.4L617.6 590.6L613.2 596.5L608.5 602.3L603.5 607.9L598.2 613.2L592.6 618.2L586.8 623L580.7 627.4L574.4 631.6L567.9 635.5L561.2 639L554.3 642.2L547.2 645.1L540 647.6L532.7 649.7L525.2 651.5L517.6 652.9L510 654L502.3 654.6L494.5 654.9L486.8 654.8L479 654.2L471.3 653.3L463.6 652L455.9 650.4L448.3 648.3L440.9 645.8L433.5 643L426.3 639.8L419.2 636.3L412.3 632.3L405.6 628.1L399.1 623.5L392.8 618.5L386.8 613.2L381 607.7L375.5 601.8L370.3 595.7L365.4 589.3L360.8 582.6L356.6 575.7L352.6 568.6L349.1 561.3L345.9 553.7L343.1 546.1L340.6 538.3L338.6 530.3L336.9 522.2L335.7 514.1L334.8 505.9L334.4 497.6L334.4 489.3L334.8 481L335.6 472.7L336.8 464.5L338.5 456.3L340.5 448.1L343 440.1L345.9 432.2L349.2 424.4L352.8 416.8L356.9 409.4L361.3 402.1L366.1 395.1L371.2 388.3L376.7 381.8L382.6 375.5L388.7 369.6L395.2 363.9L401.9 358.5L408.9 353.5L416.2 348.8L423.7 344.5L431.4 340.6L439.3 337L447.5 333.9L455.7 331.1L464.2 328.8L472.7 326.9L481.4 325.4L490.1 324.3L498.9 323.7L507.7 323.5L516.6 323.8L525.4 324.5L534.2 325.7L542.9 327.3L551.6 329.3L560.2 331.8L568.7 334.7L577 338L585.2 341.7L593.1 345.9L600.9 350.5L608.5 355.4L615.8 360.8L622.8 366.5L629.6 372.5L636.1 378.9L642.2 385.7L648 392.7L653.5 400.1L658.6 407.7L663.3 415.6L667.6 423.7L671.6 432L675.1 440.6L678.1 449.3L680.8 458.2L683 467.2L684.7 476.4L686 485.6L686.9 494.9L687.2 504.3L687.1 513.7L686.5 523L685.5 532.4L684 541.7L682 550.9L679.6 560.1L676.7 569.1L673.3 578L669.5 586.7L665.2 595.2L660.6 603.6L655.5 611.7L650 619.5L644.1 627.1L637.8 634.4L631.1 641.3L624.1 648L616.8 654.3L609.1 660.2L601.1 665.7L592.9 670.9L584.4 675.6L575.6 679.9L566.7 683.8L557.5 687.2L548.2 690.2L538.7 692.7L529 694.7L519.3 696.3L509.5 697.4L499.6 697.9L489.7 698L479.8 697.6L469.9 696.7L460 695.3L450.2 693.3L440.5 690.9L430.9 688L421.5 684.7L412.2 680.8L403.1 676.5L394.2 671.7L385.6 666.5L377.2 660.9L369.1 654.8L361.3 648.3L353.8 641.4L346.6 634.2L339.8 626.5L333.4 618.6L327.4 610.3L321.8 601.7L316.7 592.8L311.9 583.7L307.7 574.3L303.9 564.7L300.6 554.9L297.7 545L295.4 534.9L293.6 524.6L292.3 514.3L291.5 503.9L291.2 493.5L291.4 483L292.2 472.6L293.5 462.1L295.3 451.8L297.6 441.5L300.5 431.4L303.8 421.4L307.7 411.5L312.1 401.9L316.9 392.4L322.2 383.2L328 374.3L334.2 365.6L340.9 357.3L348 349.2L355.5 341.6L363.4 334.3L371.6 327.4L380.2 320.9L389.1 314.9L398.4 309.2L407.9 304.1L417.7 299.4L427.7 295.2L437.9 291.5L448.3 288.4L458.9 285.7L469.6 283.6L480.4 282L491.3 280.9L502.3 280.4L513.3 280.5L524.3 281.1L535.3 282.2L546.2 283.9L557 286.2L567.7 289L578.3 292.3L588.7 296.1L598.9 300.5L609 305.4L618.7 310.8L628.2 316.7L637.5 323.1L646.3 329.9L654.9 337.2L663.1 344.9L670.9 353L678.3 361.5L685.3 370.4L691.8 379.7L697.9 389.2L703.5 399.1L708.6 409.3L713.2 419.7L717.3 430.3L720.8 441.2L723.8 452.2L726.3 463.4L728.1 474.7L729.5 486.1L730.2 497.6L730.4 509.1L730 520.7L729 532.2L727.5 543.7L725.3 555.1L722.6 566.4L719.3 577.5L715.5 588.5L711.1 599.3L706.2 609.9L700.8 620.2L694.8 630.3L688.3 640.1L681.3 649.6L673.9 658.7L666 667.4L657.6 675.7L648.9 683.7L639.7 691.2L630.2 698.2L620.3 704.7L610 710.8L599.5 716.3L588.7 721.4L577.6 725.8L566.4 729.8L554.9 733.1L543.2 735.9L531.4 738.1L519.5 739.8L507.5 740.8L495.4 741.2L483.4 741L471.3 740.2L459.3 738.8L447.3 736.8L435.5 734.2L423.7 731L412.2 727.2L400.8 722.9L389.6 718L378.7 712.5L368 706.4L357.7 699.8L347.6 692.8L338 685.2L328.7 677.1L319.8 668.5L311.3 659.5L303.3 650.1L295.8 640.3L288.7 630.1L282.2 619.5L276.2 608.6L270.7 597.5L265.8 586L261.5 574.3L257.7 562.4L254.6 550.2L252 538L250.1 525.6L248.8 513.1L248.1 500.5L248.1 487.9L248.6 475.3L249.9 462.7L251.7 450.2L254.2 437.7L257.3 425.4L261 413.3L265.3 401.3L270.2 389.5L275.7 378L281.8 366.8L288.4 355.9L295.6 345.3L303.4 335L311.6 325.2L320.3 315.7L329.5 306.7L339.2 298.2L349.3 290.1L359.8 282.5L370.7 275.5L381.9 269L393.4 263.1L405.3 257.7L417.4 253L429.8 248.8L442.3 245.3L455.1 242.4L467.9 240.1L481 238.5L494 237.5L507.2 237.2L520.3 237.6L533.5 238.6L546.5 240.2L559.5 242.5L572.4 245.5L585.2 249.1L597.7 253.4L610.1 258.3L622.2 263.8L634 269.9L645.5 276.6L656.7 283.8L667.5 291.7L678 300L688 308.9L697.6 318.3L706.6 328.2L715.2 338.6L723.3 349.3L730.9 360.5L737.9 372.1L744.3 384L750.1 396.2L755.3 408.7L759.9 421.5L763.8 434.5L767.1 447.7L769.7 461L771.7 474.5L772.9 488.1L773.5 501.8L773.4 515.5L772.7 529.1L771.2 542.8L769.1 556.4L766.2 569.8L762.7 583.2L758.6 596.3L753.8 609.2L748.3 621.9L742.2 634.4L735.5 646.5L728.1 658.3L720.2 669.7L711.7 680.7L702.7 691.3L693.1 701.4L683 711.1L672.4 720.2L661.4 728.9L650 736.9L638.1 744.4L625.9 751.3L613.3 757.6L600.4 763.3L587.2 768.3L573.8 772.7L560.1 776.3L546.3 779.3L532.3 781.6L518.2 783.3L504.1 784.2L489.8 784.3L475.6 783.8L461.4 782.6L447.3 780.6L433.2 778L419.3 774.6L405.6 770.6L392.1 765.9L378.8 760.4L365.7 754.4L353 747.6L340.6 740.3L328.6 732.3L317 723.7L305.8 714.5L295.1 704.8L284.9 694.5L275.2 683.7L266 672.5L257.4 660.7L249.3 648.6L241.9 636L235.1 623.1L229 609.9L223.5 596.3L218.7 582.4L214.6 568.4L211.2 554.1L208.5 539.6L206.6 525L205.3 510.3L204.9 495.6L205.1 480.8L206.1 466.1L207.8 451.4L210.3 436.8L213.5 422.3L217.4 407.9L222 393.8L227.3 379.9L233.4 366.3L240.1 352.9L247.5 340L255.5 327.3L264.2 315.1L273.5 303.3L283.3 292L293.8 281.2L304.7 270.9L316.2 261.2L328.2 252L340.6 243.4L353.5 235.5L366.7 228.2L380.3 221.5L394.3 215.6L408.5 210.3L423 205.8L437.8 202L452.7 198.9L467.7 196.6L482.9 195L498.2 194.2L513.5 194.1L528.8 194.8L544.1 196.3L559.3 198.6L574.3 201.6L589.3 205.3L604 209.8L618.5 215.1L632.7 221L646.7 227.7L660.3 235.1L673.5 243.2L686.3 251.9L698.7 261.2L710.6 271.2L722.1 281.8L732.9 292.9L743.3 304.6L753 316.8L762.1 329.5L770.6 342.6L778.5 356.2L785.6 370.2L792.1 384.5L797.8 399.1L802.8 414L807 429.2L810.5 444.6L813.3 460.1L815.2 475.8L816.4 491.6L816.7 507.4L816.3 523.2L815.1 539.1L813.1 554.8L810.3 570.5L806.7 586L802.4 601.3L797.2 616.4L791.4 631.3L784.7 645.8L777.4 660.1L769.3 673.9L760.6 687.3L751.2 700.4L741.1 712.9L730.4 724.9L719.1 736.4L707.2 747.3L694.8 757.6L681.9 767.3L668.5 776.4L654.6 784.8L640.4 792.4L625.7 799.4L610.7 805.6L595.4 811.1L579.8 815.8L564 819.8L548 822.9L531.8 825.2L515.5 826.8L499.2 827.5L482.8 827.4L466.4 826.4L450.1 824.7L433.9 822.1L417.8 818.8L401.8 814.6L386.1 809.6L370.6 803.8L355.5 797.3L340.6 790L326.1 782L312.1 773.2L298.4 763.8L285.3 753.6L272.7 742.8L260.6 731.4L249 719.4L238.1 706.8L227.8 693.6L218.2 679.9L209.3 665.8L201 651.2L193.5 636.2L186.8 620.9L180.8 605.2L175.6 589.2L171.2 572.9L167.7 556.5L164.9 539.8L163 523L161.9 506.2L161.7 489.3L162.3 472.3L163.8 455.5L166.1 438.6L169.2 422L173.2 405.4L178 389.1L183.7 373L190.1 357.2L197.3 341.8L205.3 326.6L214 311.9L223.5 297.7L233.7 283.9L244.6 270.6L256.1 257.9L268.3 245.8L281.1 234.2L294.4 223.4L308.3 213.1L322.7 203.6L337.6 194.8L352.9 186.8L368.6 179.5L384.7 173L401.1 167.3L417.7 162.5L434.6 158.4L451.7 155.3L469 152.9L486.4 151.5L503.8 150.9L521.3 151.2L538.7 152.3L556.1 154.4L573.4 157.3L590.5 161L607.4 165.6L624.1 171.1L640.6 177.4L656.7 184.5L672.4 192.5L687.7 201.2L702.6 210.6L717.1 220.9L731 231.8L744.3 243.4L757.1 255.7L769.2 268.7L780.7 282.2L791.5 296.3L801.6 310.9L811 326.1L819.6 341.7L827.5 357.7L834.5 374.1L840.7 390.9L846 408L850.5 425.3L854.2 442.9L856.9 460.6L858.8 478.5L859.8 496.4L859.8 514.4L859 532.4L857.3 550.4L854.6 568.3L851.1 586L846.7 603.5L841.4 620.8L835.3 637.9L828.3 654.6L820.5 671L811.8 687L802.4 702.5L792.1 717.6L781.2 732.1L769.5 746.1L757.1 759.5L744 772.3L730.3 784.4L716 795.8L701.1 806.6L685.7 816.5L669.8 825.7L653.5 834.1L636.7 841.7L619.6 848.4L602.1 854.3L584.4 859.3L566.4 863.4L548.2 866.6L529.8 868.9L511.4 870.3L492.8 870.7L474.3 870.2L455.8 868.8L437.3 866.5L419 863.2L400.9 859.1L383 854L365.3 848L347.9 841.2L330.9 833.4L314.3 824.9L298.1 815.5L282.4 805.3L267.2 794.3L252.5 782.5L238.5 770.1L225.1 756.9L212.3 743L200.2 728.6L188.9 713.5L178.3 697.9L168.5 681.7L159.6 665.1L151.4 648L144.1 630.5L137.7 612.6L132.2 594.5L127.6 576.1L124 557.4L121.2 538.6L119.4 519.6L118.6 500.6L118.7 481.5L119.7 462.4L121.8 443.4L124.7 424.5L128.6 405.8L133.5 387.2L139.2 368.9L145.9 350.9L153.5 333.3L162 316L171.3 299.1L181.5 282.8L192.5 266.9L204.2 251.6L216.8 236.9L230 222.8L244 209.4L258.6 196.7L273.9 184.8L289.7 173.6L306.1 163.2L323 153.6L340.4 144.9L358.3 137L376.5 130.1L395 124L413.9 118.9L433 114.7L452.3 111.5L471.7 109.3L491.3 108L510.9 107.7L530.5 108.4L550.1 110.1L569.6 112.7L588.9 116.4L608.1 121L627 126.5L645.6 133L663.9 140.4L681.8 148.8L699.3 158L716.4 168.1L732.9 179L748.9 190.8L764.2 203.4L779 216.7L793 230.8L806.4 245.5L819 261L830.8 277L841.9 293.7L852 310.8L861.4 328.5L869.8 346.7L877.3 365.2L883.9 384.2L889.6 403.4L894.2 422.9L897.9 442.7L900.6 462.6L902.4 482.7L903.1 502.8L902.8 523L901.5 543.1L899.1 563.2L895.8 583.1L891.5 602.9L886.2 622.4L879.9 641.7L872.7 660.6L864.5 679.2L855.4 697.4L845.4 715.1L834.5 732.2L822.7 748.9L810.1 764.9L796.8 780.3L782.6 795.1L767.7 809.1L752.2 822.3L735.9 834.8L719.1 846.5L701.7 857.3L683.7 867.2L665.3 876.3L646.4 884.4L627.1 891.6L607.5 897.8L587.5 903L567.3 907.2L546.9 910.4L526.4 912.5L505.7 913.7L485 913.8L464.3 912.9L443.7 910.9L423.2 907.9L402.8 903.9L382.6 898.9L362.7 892.8L343.1 885.8L323.9 877.8L305.1 868.8L286.7 858.9L268.9 848.1L251.6 836.4L234.8 823.8L218.7 810.4L203.3 796.2L188.7 781.3L174.7 765.6L161.6 749.2L149.3 732.1L137.8 714.5L127.2 696.3L117.6 677.5L108.9 658.3L101.1 638.7L94.3 618.7L88.6 598.4L83.8 577.7L80.1 556.9L77.5 535.9L75.9 514.7L75.3 493.5L75.8 472.2L77.4 451L80 429.9L83.7 408.9L88.5 388.2L94.3 367.6L101.1 347.4L108.9 327.5L117.7 308L127.4 289L138.2 270.4L149.8 252.5L162.4 235L175.8 218.3L190 202.2L205 186.8L220.8 172.2L237.4 158.4L254.6 145.4L272.4 133.3L290.9 122.1L309.9 111.8L329.4 102.4L349.3 94.1L369.7 86.7L390.4 80.4L411.5 75.1L432.8 70.9L454.2 67.7L475.9 65.6L497.6 64.6L519.4 64.7L541.2 65.9L562.9 68.1L584.4 71.5L605.8 75.9L627 81.4L647.9 87.9L668.4 95.5L688.6 104.1L708.3 113.8L727.5 124.4L746.2 135.9L764.3 148.4L781.7 161.8L798.5 176L814.6 191.1L829.9 207L844.4 223.6L858 241L870.8 259L882.7 277.7L893.6 296.9L903.6 316.7L912.6 337L920.6 357.7L927.5 378.8L933.3 400.3L938.1 422L941.8 443.9L944.4 466.1L945.9 488.3L946.2 510.6L945.5 532.9L943.6 555.2L940.7 577.3L936.6 599.4L931.4 621.1L925.1 642.7L917.8 663.9L909.4 684.7L900 705.1L889.5 725L878.1 744.3L865.7 763.1L852.3 781.3L838.1 798.8L823 815.5L807 831.5L790.3 846.7L772.8 861.1L754.6 874.6L735.8 887.1L716.3 898.7L696.2 909.3L675.7 918.9L654.6 927.5L633.2 935L611.3 941.5L589.2 946.8L566.8 951.1L544.2 954.2L521.5 956.2L498.6 957L475.8 956.7L453 955.3L430.2 952.7L407.6 949L385.2 944.1L363 938.2L341.2 931.1L319.7 923L298.6 913.7L278 903.4L258 892.1L238.5 879.8L219.6 866.6L201.4 852.4L184 837.2L167.3 821.3L151.4 804.5L136.3 786.9L122.1 768.5L108.9 749.5L96.6 729.8L85.3 709.5L75.1 688.7L65.8 667.3L57.7 645.5L50.7 623.3L44.7 600.8L39.9 578L36.2 554.9L33.7 531.7L32.4 508.3L32.2 485L33.2 461.6L35.4 438.2L38.7 415L43.2 392L48.8 369.2L55.6 346.7L63.5 324.6L72.5 302.8L82.6 281.5L93.7 260.8L105.9 240.6L119.1 221L133.2 202.1L148.3 183.9L164.3 166.5L181.2 149.9L198.9 134.1L217.3 119.3L236.5 105.3L256.4 92.3" opacity="0.12"/></g></svg>