<svg xmlns="http://www.w3.org/2000/svg" viewBox="0 0 1000 1000" preserveAspectRatio="xMidYMid slice" fill="none" stroke-linecap="round" stroke-linejoin="round"><g stroke="#0f3d2e" stroke-width="0.9"><path d="M500 500L500.4 500L500.8 500.1L501.2 500.2L501.6 500.3L502 500.5L502.4 500.7L502.8 501L503.1 501.3L503.4 501.6L503.7 502L503.9 502.4L504.2 502.8L504.3 503.3L504.5 503.8L504.6 504.3L504.7 504.8L504.7 505.4L504.7 505.9L504.6 506.5L504.5 507.1L504.4 507.7L504.2 508.2L503.9 508.8L503.7 509.4L503.3 510L502.9 510.5L502.5 511.1L502 511.6L501.5 512.1L500.9 512.6L500.3 513L499.6 513.4L498.9 513.8L498.2 514.2L497.4 514.5L496.6 514.7L495.7 514.9L494.8 515.1L493.9 515.2L493 515.3L492.1 515.3L491.1 515.2L490.1 515.1L489.1 514.9L488.1 514.7L487.1 514.4L486.1 514L485.1 513.6L484.1 513.1L483.2 512.6L482.2 511.9L481.3 511.3L480.4 510.5L479.5 509.7L478.6 508.8L477.8 507.9L477.1 506.9L476.3 505.8L475.7 504.7L475.1 503.6L474.5 502.3L474 501.1L473.5 499.8L473.2 498.4L472.9 497L472.6 495.6L472.5 494.2L472.4 492.7L472.4 491.2L472.5 489.7L472.6 488.2L472.9 486.6L473.2 485.1L473.6 483.5L474.2 482L474.8 480.5L475.4 479L476.2 477.5L477.1 476L478 474.6L479.1 473.2L480.2 471.8L481.4 470.5L482.7 469.3L484.1 468L485.5 466.9L487 465.8L488.6 464.8L490.3 463.9L492 463.1L493.8 462.3L495.7 461.6L497.6 461L499.5 460.5L501.5 460.1L503.5 459.8L505.6 459.6L507.7 459.6L509.8 459.6L511.9 459.7L514.1 460L516.2 460.3L518.3 460.8L520.5 461.4L522.6 462.1L524.7 462.9L526.8 463.9L528.8 464.9L530.8 466.1L532.7 467.4L534.6 468.8L536.5 470.3L538.3 471.9L540 473.6L541.6 475.5L543.1 477.4L544.6 479.4L546 481.5L547.2 483.7L548.4 485.9L549.4 488.3L550.4 490.7L551.2 493.1L551.9 495.7L552.5 498.3L552.9 500.9L553.2 503.6L553.4 506.3L553.4 509L553.3 511.7L553.1 514.5L552.7 517.3L552.1 520L551.5 522.8L550.6 525.5L549.7 528.2L548.5 530.9L547.3 533.5L545.9 536.1L544.3 538.6L542.6 541.1L540.8 543.5L538.9 545.8L536.8 548L534.6 550.1L532.3 552.1L529.8 554.1L527.3 555.9L524.6 557.5L521.8 559.1L519 560.5L516 561.8L513 562.9L509.9 563.9L506.8 564.7L503.5 565.4L500.3 565.9L496.9 566.3L493.6 566.5L490.2 566.5L486.8 566.3L483.4 566L480 565.5L476.6 564.8L473.3 563.9L469.9 562.9L466.6 561.7L463.4 560.3L460.2 558.7L457 557L454 555.1L451 553.1L448.1 550.8L445.3 548.4L442.6 545.9L440 543.2L437.6 540.4L435.3 537.5L433.1 534.4L431.1 531.2L429.3 527.8L427.6 524.4L426 520.9L424.7 517.2L423.5 513.5L422.5 509.7L421.7 505.9L421.1 502L420.6 498L420.4 494L420.4 490L420.6 485.9L421 481.9L421.6 477.9L422.4 473.8L423.4 469.8L424.6 465.9L426.1 462L427.7 458.1L429.5 454.3L431.6 450.6L433.8 447L436.2 443.4L438.8 440L441.6 436.7L444.6 433.6L447.7 430.6L451 427.7L454.5 425L458.1 422.4L461.8 420L465.7 417.8L469.7 415.8L473.8 414L478 412.4L482.4 411L486.8 409.8L491.3 408.9L495.8 408.1L500.4 407.6L505 407.3L509.7 407.3L514.4 407.5L519.1 407.9L523.8 408.5L528.5 409.4L533.1 410.6L537.7 412L542.2 413.6L546.7 415.4L551.1 417.5L555.4 419.8L559.6 422.4L563.6 425.1L567.6 428.1L571.4 431.3L575.1 434.6L578.6 438.2L581.9 442L585.1 445.9L588 450L590.8 454.3L593.3 458.7L595.7 463.3L597.8 468L599.7 472.8L601.3 477.7L602.7 482.8L603.9 487.9L604.8 493L605.4 498.3L605.8 503.6L605.9 508.9L605.7 514.2L605.3 519.6L604.6 524.9L603.6 530.2L602.4 535.5L600.9 540.7L599.1 545.9L597 551L594.7 556L592.2 560.9L589.4 565.6L586.3 570.3L583 574.8L579.4 579.2L575.7 583.3L571.7 587.3L567.5 591.1L563.1 594.8L558.5 598.1L553.7 601.3L548.7 604.3L543.6 606.9L538.3 609.4L533 611.6L527.4 613.5L521.8 615.1L516.1 616.5L510.3 617.6L504.4 618.4L498.5 618.8L492.5 619L486.5 618.9L480.5 618.5L474.5 617.8L468.6 616.8L462.6 615.5L456.8 613.9L451 611.9L445.2 609.7L439.6 607.2L434.1 604.4L428.7 601.4L423.5 598L418.4 594.4L413.5 590.5L408.8 586.3L404.3 581.9L400 577.3L395.9 572.4L392 567.4L388.4 562.1L385.1 556.6L382 551L379.2 545.2L376.7 539.2L374.5 533.1L372.6 526.9L371 520.5L369.7 514.1L368.8 507.6L368.1 501.1L367.8 494.4L367.8 487.8L368.2 481.2L368.9 474.5L369.9 467.9L371.3 461.3L373 454.8L375 448.3L377.4 442L380.1 435.7L383.1 429.6L386.4 423.6L390 417.8L393.9 412.1L398.2 406.6L402.6 401.3L407.4 396.3L412.5 391.5L417.7 386.9L423.3 382.6L429 378.5L435 374.7L441.2 371.3L447.5 368.1L454 365.2L460.7 362.7L467.5 360.5L474.5 358.7L481.5 357.1L488.6 356L495.8 355.2L503.1 354.7L510.4 354.6L517.7 354.9L525 355.6L532.3 356.6L539.5 358L546.7 359.7L553.8 361.8L560.8 364.3L567.7 367.2L574.5 370.3L581.1 373.9L587.5 377.7L593.8 381.9L599.8 386.5L605.7 391.3L611.3 396.4L616.6 401.8L621.7 407.5L626.6 413.5L631.1 419.7L635.3 426.2L639.2 432.8L642.8 439.7L646 446.8L648.9 454L651.4 461.4L653.5 468.9L655.3 476.6L656.7 484.3L657.7 492.2L658.3 500.1L658.6 508L658.4 516L657.8 523.9L656.8 531.9L655.4 539.8L653.7 547.6L651.5 555.4L648.9 563L645.9 570.6L642.6 578L638.9 585.2L634.8 592.3L630.4 599.2L625.6 605.8L620.4 612.3L614.9 618.5L609.2 624.4L603.1 630L596.7 635.3L590 640.3L583.1 645L575.9 649.4L568.6 653.4L561 657L553.2 660.2L545.2 663.1L537.1 665.6L528.8 667.6L520.5 669.3L512 670.5L503.5 671.3L494.9 671.7L486.3 671.7L477.7 671.2L469.1 670.3L460.5 668.9L452 667.1L443.6 664.9L435.3 662.3L427 659.2L419 655.7L411.1 651.9L403.4 647.6L395.9 642.9L388.6 637.9L381.6 632.4L374.8 626.6L368.3 620.5L362.1 614L356.3 607.3L350.7 600.2L345.6 592.8L340.8 585.2L336.3 577.3L332.3 569.2L328.6 560.8L325.4 552.3L322.6 543.6L320.2 534.8L318.3 525.8L316.8 516.7L315.8 507.6L315.2 498.4L315.1 489.1L315.5 479.8L316.3 470.6L317.6 461.3L319.3 452.2L321.5 443.1L324.2 434.1L327.4 425.2L330.9 416.5L334.9 407.9L339.4 399.6L344.3 391.4L349.6 383.5L355.3 375.9L361.3 368.5L367.8 361.4L374.6 354.7L381.8 348.3L389.3 342.2L397.1 336.5L405.2 331.2L413.5 326.3L422.1 321.8L431 317.7L440.1 314.1L449.3 311L458.7 308.3L468.3 306L478 304.3L487.8 303L497.6 302.2L507.5 301.9L517.5 302.1L527.4 302.8L537.3 304L547.1 305.7L556.9 307.9L566.6 310.6L576.1 313.8L585.5 317.4L594.7 321.6L603.7 326.2L612.5 331.2L621.1 336.7L629.4 342.6L637.3 349L645 355.8L652.4 362.9L659.3 370.4L666 378.3L672.2 386.5L678 395.1L683.4 403.9L688.4 413L692.9 422.4L696.9 432L700.4 441.8L703.5 451.8L706.1 461.9L708.1 472.2L709.7 482.6L710.7 493.1L711.2 503.6L711.2 514.2L710.6 524.8L709.6 535.4L707.9 545.9L705.8 556.3L703.1 566.7L699.9 576.9L696.2 587L692 596.9L687.3 606.5L682.1 616L676.4 625.2L670.2 634.1L663.6 642.7L656.6 651L649.1 659L641.3 666.5L633 673.7L624.4 680.5L615.5 686.9L606.2 692.8L596.6 698.2L586.7 703.2L576.6 707.6L566.3 711.6L555.7 715.1L545 718L534.1 720.4L523.1 722.2L512 723.5L500.8 724.3L489.6 724.5L478.3 724.1L467.1 723.1L455.9 721.6L444.8 719.5L433.7 716.9L422.8 713.7L412.1 710L401.5 705.7L391.2 700.9L381.1 695.6L371.2 689.7L361.6 683.4L352.4 676.6L343.4 669.3L334.9 661.5L326.7 653.3L318.9 644.8L311.6 635.8L304.7 626.4L298.2 616.7L292.3 606.7L286.8 596.3L281.9 585.7L277.5 574.8L273.6 563.7L270.3 552.4L267.5 540.9L265.4 529.3L263.8 517.6L262.8 505.8L262.4 493.9L262.5 482L263.3 470.1L264.7 458.2L266.7 446.4L269.2 434.7L272.4 423.1L276.1 411.7L280.4 400.5L285.3 389.4L290.7 378.6L296.7 368.1L303.2 357.8L310.3 347.9L317.8 338.3L325.8 329.1L334.3 320.3L343.2 312L352.5 304L362.3 296.5L372.4 289.6L382.9 283.1L393.7 277.1L404.8 271.7L416.2 266.8L427.8 262.5L439.7 258.8L451.7 255.7L463.9 253.1L476.3 251.2L488.7 249.9L501.2 249.3L513.8 249.2L526.3 249.8L538.9 251L551.4 252.9L563.7 255.3L576 258.4L588.1 262.1L600.1 266.4L611.8 271.4L623.3 276.9L634.5 283L645.4 289.6L656 296.8L666.3 304.5L676.1 312.8L685.6 321.5L694.6 330.8L703.1 340.4L711.2 350.5L718.7 361.1L725.8 372L732.3 383.2L738.2 394.8L743.5 406.7L748.3 418.8L752.5 431.2L756 443.8L758.9 456.6L761.2 469.6L762.8 482.7L763.7 495.8L764 509L763.7 522.2L762.6 535.4L761 548.6L758.6 561.7L755.6 574.6L752 587.4L747.7 600.1L742.7 612.5L737.2 624.7L731 636.6L724.2 648.2L716.9 659.5L709 670.4L700.5 680.9L691.5 691L682 700.6L672 709.8L661.6 718.5L650.7 726.6L639.4 734.2L627.7 741.3L615.6 747.8L603.3 753.6L590.6 758.9L577.7 763.5L564.5 767.4L551.1 770.7L537.6 773.4L523.9 775.3L510.2 776.6L496.3 777.2L482.4 777.1L468.6 776.3L454.7 774.8L441 772.6L427.3 769.7L413.8 766.1L400.5 761.9L387.3 756.9L374.4 751.4L361.8 745.1L349.5 738.3L337.6 730.8L326 722.7L314.8 714.1L304 704.8L293.7 695.1L283.9 684.8L274.6 674L265.9 662.8L257.7 651.1L250 639L243 626.5L236.6 613.7L230.9 600.5L225.8 587.1L221.4 573.4L217.7 559.4L214.6 545.3L212.3 531.1L210.7 516.7L209.8 502.2L209.6 487.7L210.2 473.1L211.5 458.6L213.5 444.2L216.2 429.8L219.7 415.6L223.9 401.6L228.7 387.7L234.3 374.1L240.6 360.8L247.5 347.8L255.1 335.1L263.3 322.8L272.1 311L281.5 299.5L291.5 288.6L302.1 278.1L313.2 268.1L324.7 258.8L336.8 249.9L349.3 241.7L362.2 234.2L375.5 227.2L389.1 220.9L403 215.3L417.3 210.5L431.7 206.3L446.4 202.8L461.3 200.1L476.3 198.1L491.4 196.9L506.6 196.4L521.8 196.7L537 197.8L552.1 199.6L567.1 202.1L582.1 205.5L596.8 209.5L611.4 214.3L625.7 219.9L639.7 226.1L653.4 233.1L666.8 240.7L679.8 249.1L692.4 258L704.5 267.6L716.1 277.8L727.3 288.6L737.9 300L747.9 311.9L757.4 324.3L766.2 337.1L774.4 350.4L781.9 364.2L788.7 378.2L794.8 392.7L800.2 407.4L804.9 422.4L808.8 437.7L811.9 453.1L814.3 468.7L815.9 484.5L816.7 500.3L816.7 516.1L815.9 532L814.3 547.8L812 563.5L808.8 579.1L804.9 594.6L800.1 609.9L794.7 624.9L788.4 639.6L781.5 654.1L773.8 668.2L765.4 681.9L756.3 695.2L746.5 708L736.1 720.4L725.1 732.2L713.5 743.5L701.3 754.2L688.6 764.2L675.4 773.7L661.7 782.5L647.6 790.6L633 798L618.1 804.7L602.9 810.6L587.4 815.7L571.6 820.1L555.5 823.7L539.3 826.5L523 828.5L506.6 829.6L490.1 830L473.6 829.5L457.1 828.2L440.6 826L424.3 823L408.2 819.3L392.2 814.7L376.4 809.3L361 803.1L345.8 796.1L331 788.4L316.5 780L302.5 770.8L289 760.9L275.9 750.4L263.4 739.1L251.4 727.3L240 714.9L229.3 701.8L219.2 688.3L209.8 674.2L201.1 659.7L193.1 644.8L185.8 629.4L179.4 613.7L173.7 597.6L168.8 581.3L164.7 564.7L161.5 547.9L159.1 531L157.6 513.9L156.9 496.8L157.1 479.6L158.1 462.5L160 445.4L162.7 428.4L166.3 411.5L170.7 394.8L176 378.3L182.1 362.1L189 346.2L196.7 330.7L205.2 315.5L214.5 300.7L224.5 286.5L235.2 272.7L246.5 259.4L258.6 246.8L271.3 234.7L284.6 223.3L298.4 212.5L312.8 202.4L327.7 193.1L343.1 184.5L358.9 176.7L375.1 169.6L391.6 163.4L408.5 158L425.6 153.4L442.9 149.7L460.5 146.9L478.1 144.9L495.9 143.9L513.7 143.7L531.6 144.4L549.3 146L567.1 148.5L584.6 151.9L602 156.1L619.2 161.3L636.2 167.3L652.8 174.1L669.1 181.8L685 190.3L700.5 199.6L715.5 209.6L730 220.4L744 232L757.4 244.2L770.2 257.1L782.3 270.7L793.7 284.8L804.5 299.5L814.5 314.8L823.7 330.5L832.2 346.7L839.8 363.4L846.6 380.4L852.5 397.7L857.6 415.4L861.8 433.3L865.1 451.4L867.5 469.7L869 488.1L869.5 506.5L869.2 525L867.9 543.5L865.7 561.9L862.5 580.2L858.5 598.3L853.5 616.2L847.6 633.9L840.9 651.3L833.3 668.3L824.8 685L815.5 701.2L805.4 717L794.5 732.2L782.9 746.9L770.5 761.1L757.4 774.5L743.6 787.4L729.2 799.5L714.2 811L698.6 821.6L682.4 831.5L665.8 840.6L648.8 848.9L631.3 856.2L613.4 862.8L595.3 868.4L576.8 873.1L558.2 876.9L539.3 879.7L520.3 881.7L501.2 882.6L482 882.6L462.9 881.7L443.8 879.7L424.8 876.9L406 873L387.3 868.3L368.9 862.6L350.8 856L333 848.4L315.6 840L298.6 830.8L282.1 820.6L266.1 809.7L250.6 797.9L235.8 785.4L221.6 772.1L208 758.1L195.1 743.5L183 728.2L171.6 712.3L161.1 695.8L151.3 678.8L142.4 661.3L134.4 643.4L127.3 625.1L121.1 606.4L115.9 587.5L111.6 568.2L108.2 548.8L105.9 529.2L104.5 509.5L104.1 489.7L104.7 469.9L106.3 450.1L108.8 430.4L112.4 410.8L116.9 391.5L122.4 372.3L128.9 353.4L136.3 334.9L144.6 316.7L153.9 299L164 281.7L175 265L186.8 248.7L199.4 233.1L212.9 218.1L227 203.8L241.9 190.2L257.5 177.4L273.6 165.3L290.4 154.1L307.8 143.7L325.7 134.1L344 125.5L362.8 117.8L381.9 111L401.4 105.1L421.2 100.3L441.2 96.4L461.4 93.6L481.7 91.8L502.2 90.9L522.6 91.1L543.1 92.4L563.5 94.6L583.7 97.9L603.8 102.2L623.7 107.4L643.3 113.7L662.6 121L681.5 129.2L700.1 138.4L718.1 148.5L735.6 159.5L752.6 171.3L769 184.1L784.7 197.6L799.8 211.9L814.1 227L827.7 242.8L840.5 259.2L852.5 276.3L863.6 294L873.8 312.2L883.1 331L891.5 350.2L898.9 369.8L905.3 389.8L910.7 410.1L915.1 430.7L918.4 451.5L920.8 472.4L922 493.5L922.3 514.6L921.4 535.7L919.5 556.8L916.6 577.8L912.6 598.6L907.5 619.2L901.5 639.5L894.4 659.6L886.3 679.3L877.2 698.6L867.2 717.4L856.2 735.7L844.3 753.4L831.6 770.6L817.9 787.1L803.5 802.9L788.2 818L772.3 832.4L755.6 845.9L738.2 858.6L720.2 870.4L701.6 881.3L682.4 891.3L662.8 900.3L642.7 908.4L622.3 915.4L601.5 921.4L580.4 926.3L559 930.2L537.5 933.1L515.8 934.8L494 935.5L472.2 935.1L450.5 933.6L428.8 931L407.3 927.3L385.9 922.5L364.8 916.7L344 909.8L323.6 901.9L303.5 892.9L283.9 883L264.8 872L246.3 860.2L228.3 847.4L211 833.7L194.4 819.1L178.6 803.7L163.5 787.6L149.2 770.6L135.7 753L123.2 734.7L111.6 715.8L100.9 696.3L91.2 676.3L82.5 655.8L74.8 634.8L68.2 613.5L62.7 591.9L58.2 570L54.9 547.8L52.6 525.6L51.5 503.2L51.4 480.7L52.5 458.3L54.8 435.9L58.1 413.7L62.6 391.6L68.1 369.8L74.8 348.2L82.5 327L91.3 306.1L101.1 285.8L112 265.9L123.8 246.5L136.6 227.8L150.4 209.7L165 192.3L180.5 175.7L196.8 159.8L214 144.7L231.8 130.5L250.4 117.2L269.6 104.9L289.5 93.5L309.9 83.1L330.8 73.7L352.2 65.4L374 58.2L396.1 52L418.6 47L441.2 43L464.1 40.2L487.1 38.6L510.2 38.1L533.3 38.8L556.4 40.6L579.3 43.6L602.1 47.7L624.7 53L647.1 59.4L669 66.9L690.7 75.5L711.8 85.2L732.5 95.9L752.6 107.7L772.2 120.5L791.1 134.2L809.3 148.9L826.7 164.5L843.4 181L859.2 198.3L874.2 216.3L888.2 235.2L901.3 254.7L913.5 274.8L924.6 295.6L934.7 316.9L943.7 338.7L951.6 361L958.4 383.6L964 406.6L968.5 429.8L971.9 453.3L974 476.9" opacity="0.12"/><path d="M500 500L500.1 500.4L500.2 500.8L500.2 501.2L500.2 501.7L500.1 502.1L500 502.5L499.9 502.9L499.7 503.3L499.5 503.7L499.2 504.1L498.9 504.5L498.6 504.8L498.2 505.2L497.8 505.4L497.3 505.7L496.9 505.9L496.4 506.1L495.8 506.3L495.3 506.4L494.7 506.5L494.1 506.5L493.5 506.5L492.8 506.5L492.2 506.4L491.5 506.2L490.9 506L490.2 505.8L489.6 505.5L489 505.1L488.3 504.7L487.7 504.3L487.1 503.8L486.5 503.2L486 502.6L485.4 502L484.9 501.3L484.5 500.5L484 499.8L483.7 498.9L483.3 498.1L483 497.2L482.8 496.2L482.6 495.3L482.4 494.3L482.3 493.3L482.3 492.2L482.4 491.1L482.5 490.1L482.6 489L482.8 487.9L483.1 486.8L483.5 485.7L483.9 484.6L484.4 483.5L485 482.4L485.7 481.4L486.4 480.3L487.1 479.3L488 478.3L488.9 477.4L489.9 476.5L490.9 475.6L492 474.8L493.2 474L494.4 473.3L495.7 472.6L497 472L498.4 471.5L499.8 471L501.3 470.6L502.8 470.3L504.3 470.1L505.9 469.9L507.5 469.8L509.1 469.9L510.8 470L512.4 470.1L514.1 470.4L515.7 470.8L517.4 471.3L519 471.8L520.7 472.5L522.3 473.2L523.9 474L525.5 475L527 476L528.5 477.1L529.9 478.3L531.3 479.6L532.7 481L534 482.5L535.2 484L536.3 485.6L537.4 487.3L538.4 489.1L539.3 490.9L540.1 492.8L540.8 494.8L541.5 496.8L542 498.9L542.4 501L542.7 503.1L542.9 505.3L543 507.5L543 509.8L542.9 512L542.6 514.3L542.2 516.5L541.7 518.8L541.1 521.1L540.4 523.3L539.5 525.5L538.5 527.7L537.4 529.9L536.2 532L534.9 534L533.4 536L531.8 538L530.1 539.9L528.3 541.7L526.4 543.4L524.4 545L522.3 546.6L520.2 548L517.9 549.4L515.5 550.6L513.1 551.7L510.5 552.7L508 553.6L505.3 554.3L502.6 555L499.9 555.4L497.1 555.8L494.2 556L491.4 556L488.5 556L485.6 555.7L482.7 555.3L479.8 554.8L477 554.1L474.1 553.3L471.3 552.3L468.5 551.1L465.7 549.8L463 548.4L460.4 546.8L457.8 545.1L455.3 543.2L452.9 541.2L450.5 539L448.3 536.8L446.2 534.3L444.2 531.8L442.3 529.2L440.5 526.4L438.9 523.6L437.4 520.6L436 517.6L434.8 514.5L433.7 511.2L432.9 508L432.1 504.6L431.6 501.2L431.2 497.8L430.9 494.3L430.9 490.8L431 487.3L431.3 483.8L431.8 480.3L432.5 476.7L433.4 473.2L434.4 469.8L435.6 466.3L437 462.9L438.6 459.6L440.4 456.3L442.3 453.1L444.4 450L446.7 447L449.1 444.1L451.7 441.3L454.4 438.6L457.3 436.1L460.3 433.7L463.5 431.4L466.8 429.3L470.2 427.3L473.7 425.5L477.4 423.9L481.1 422.5L484.9 421.2L488.8 420.1L492.8 419.3L496.8 418.6L500.9 418.1L505 417.8L509.2 417.8L513.3 417.9L517.5 418.3L521.7 418.8L525.8 419.6L530 420.6L534.1 421.8L538.1 423.3L542.1 424.9L546 426.7L549.9 428.8L553.6 431L557.3 433.5L560.8 436.1L564.3 439L567.5 442L570.7 445.2L573.7 448.5L576.5 452.1L579.2 455.7L581.7 459.6L584 463.5L586.1 467.6L588 471.8L589.7 476.2L591.2 480.6L592.5 485.1L593.5 489.7L594.3 494.4L594.9 499.1L595.3 503.8L595.4 508.6L595.2 513.4L594.9 518.3L594.2 523.1L593.4 527.9L592.2 532.7L590.9 537.4L589.3 542.1L587.4 546.7L585.4 551.2L583 555.6L580.5 560L577.7 564.2L574.7 568.3L571.5 572.2L568.1 576L564.5 579.7L560.7 583.1L556.7 586.4L552.5 589.5L548.1 592.4L543.6 595L539 597.5L534.2 599.7L529.3 601.7L524.3 603.4L519.2 604.9L513.9 606.2L508.6 607.2L503.3 607.9L497.9 608.3L492.4 608.5L487 608.4L481.5 608L476 607.4L470.6 606.5L465.2 605.3L459.8 603.8L454.5 602L449.3 600L444.1 597.7L439.1 595.1L434.2 592.3L429.4 589.3L424.7 585.9L420.2 582.4L415.9 578.6L411.8 574.5L407.8 570.3L404.1 565.8L400.5 561.2L397.2 556.3L394.2 551.3L391.4 546.1L388.8 540.8L386.5 535.3L384.5 529.7L382.7 523.9L381.3 518.1L380.1 512.2L379.2 506.2L378.6 500.2L378.3 494.1L378.4 488L378.7 481.8L379.4 475.7L380.3 469.6L381.6 463.5L383.2 457.5L385 451.6L387.2 445.7L389.7 439.9L392.5 434.3L395.6 428.8L398.9 423.4L402.6 418.1L406.5 413.1L410.6 408.2L415.1 403.6L419.7 399.1L424.6 394.9L429.7 390.9L435.1 387.1L440.6 383.7L446.3 380.5L452.2 377.5L458.3 374.9L464.4 372.6L470.8 370.5L477.2 368.8L483.7 367.4L490.3 366.4L497 365.6L503.8 365.2L510.5 365.2L517.3 365.5L524.1 366.1L530.8 367L537.6 368.3L544.2 370L550.8 372L557.3 374.3L563.7 376.9L570 379.9L576.2 383.2L582.2 386.8L588 390.7L593.6 395L599 399.5L604.2 404.3L609.2 409.3L614 414.6L618.4 420.2L622.6 426L626.5 432L630.2 438.3L633.5 444.7L636.5 451.3L639.1 458L641.5 464.9L643.4 472L645.1 479.1L646.4 486.4L647.3 493.7L647.8 501L648 508.5L647.8 515.9L647.3 523.3L646.3 530.7L645 538.1L643.3 545.4L641.3 552.7L638.8 559.9L636.1 566.9L632.9 573.8L629.4 580.6L625.6 587.2L621.4 593.6L616.9 599.9L612 605.9L606.9 611.6L601.5 617.2L595.7 622.4L589.7 627.4L583.5 632.1L577 636.4L570.3 640.5L563.3 644.2L556.2 647.6L548.9 650.6L541.4 653.3L533.8 655.6L526 657.5L518.2 659L510.2 660.1L502.2 660.8L494.1 661.2L486.1 661.1L478 660.6L469.9 659.7L461.9 658.4L453.9 656.7L445.9 654.6L438.1 652.1L430.4 649.2L422.9 645.9L415.5 642.2L408.2 638.2L401.2 633.8L394.3 629L387.7 623.9L381.4 618.4L375.3 612.6L369.5 606.5L364 600.1L358.8 593.4L354 586.4L349.5 579.2L345.3 571.8L341.5 564.1L338.1 556.3L335.1 548.2L332.5 540L330.3 531.7L328.5 523.2L327.2 514.6L326.2 506L325.7 497.3L325.7 488.6L326 479.8L326.8 471.1L328.1 462.4L329.8 453.7L331.9 445.1L334.5 436.7L337.5 428.3L340.9 420.1L344.7 412L348.9 404.1L353.6 396.5L358.6 389L364 381.8L369.8 374.9L375.9 368.2L382.4 361.9L389.2 355.8L396.3 350.1L403.7 344.8L411.4 339.8L419.3 335.2L427.5 330.9L435.9 327.1L444.5 323.7L453.2 320.8L462.2 318.3L471.2 316.2L480.4 314.6L489.7 313.4L499 312.7L508.4 312.5L517.8 312.7L527.2 313.4L536.6 314.6L545.9 316.2L555.1 318.3L564.3 320.9L573.3 324L582.2 327.5L590.9 331.4L599.5 335.8L607.8 340.7L615.8 345.9L623.7 351.6L631.2 357.6L638.5 364.1L645.4 370.9L652 378.1L658.3 385.6L664.1 393.4L669.6 401.5L674.7 409.9L679.4 418.6L683.6 427.5L687.4 436.6L690.7 446L693.6 455.5L696 465.1L697.9 474.9L699.3 484.8L700.3 494.8L700.7 504.8L700.6 514.9L700.1 524.9L699 535L697.4 544.9L695.3 554.9L692.7 564.7L689.6 574.4L686.1 584L682 593.3L677.5 602.5L672.5 611.5L667 620.2L661.1 628.7L654.8 636.9L648.1 644.7L641 652.2L633.4 659.4L625.6 666.2L617.3 672.6L608.8 678.6L599.9 684.2L590.8 689.4L581.3 694.1L571.7 698.3L561.8 702L551.7 705.3L541.5 708L531.1 710.2L520.6 711.9L510 713.1L499.3 713.8L488.6 713.9L477.9 713.5L467.2 712.5L456.5 711L445.9 709L435.4 706.4L425.1 703.3L414.8 699.7L404.8 695.6L394.9 691L385.3 685.8L375.9 680.2L366.8 674.1L358 667.6L349.5 660.6L341.4 653.1L333.6 645.3L326.2 637L319.2 628.4L312.7 619.5L306.6 610.2L300.9 600.5L295.8 590.6L291.1 580.5L286.9 570.1L283.3 559.4L280.2 548.6L277.6 537.6L275.6 526.5L274.1 515.3L273.2 504L272.9 492.7L273.1 481.3L273.9 469.9L275.3 458.6L277.3 447.3L279.8 436.1L282.8 425.1L286.5 414.1L290.6 403.4L295.4 392.9L300.6 382.6L306.4 372.5L312.6 362.7L319.4 353.3L326.7 344.2L334.4 335.4L342.5 327L351.1 319L360.1 311.5L369.4 304.4L379.2 297.7L389.2 291.6L399.6 285.9L410.3 280.8L421.2 276.2L432.4 272.1L443.7 268.6L455.3 265.7L467 263.3L478.8 261.5L490.8 260.4L502.8 259.8L514.8 259.8L526.8 260.4L538.8 261.6L550.8 263.5L562.7 265.9L574.4 268.9L586 272.5L597.4 276.7L608.7 281.5L619.6 286.9L630.4 292.7L640.8 299.2L650.9 306.1L660.7 313.6L670.1 321.6L679.1 330L687.7 338.9L695.9 348.2L703.6 358L710.8 368.1L717.4 378.6L723.6 389.4L729.3 400.6L734.3 412L738.8 423.7L742.8 435.6L746.1 447.7L748.8 460L750.9 472.5L752.4 485L753.2 497.6L753.5 510.3L753.1 523L752 535.7L750.3 548.3L748 560.9L745 573.3L741.5 585.6L737.3 597.7L732.5 609.6L727.1 621.3L721.1 632.7L714.5 643.9L707.4 654.7L699.7 665.1L691.5 675.2L682.9 684.8L673.7 694L664 702.8L653.9 711.1L643.4 718.9L632.5 726.1L621.2 732.8L609.6 739L597.7 744.5L585.5 749.5L573 753.9L560.3 757.6L547.5 760.7L534.4 763.2L521.3 765L508 766.2L494.7 766.6L481.3 766.5L468 765.6L454.7 764.1L441.5 761.9L428.3 759.1L415.3 755.6L402.5 751.4L389.9 746.6L377.5 741.2L365.4 735.1L353.6 728.4L342.1 721.2L331 713.3L320.3 704.9L310 696L300.1 686.5L290.7 676.6L281.8 666.2L273.4 655.3L265.6 644L258.3 632.3L251.6 620.2L245.6 607.8L240.1 595.1L235.3 582.2L231.1 568.9L227.6 555.5L224.7 541.9L222.5 528.1L221.1 514.2L220.3 500.2L220.2 486.2L220.8 472.2L222.1 458.3L224.2 444.3L226.9 430.5L230.3 416.8L234.4 403.3L239.2 390L244.6 376.9L250.7 364.1L257.5 351.6L264.8 339.4L272.8 327.6L281.4 316.2L290.6 305.2L300.3 294.7L310.5 284.7L321.2 275.1L332.4 266.1L344.1 257.7L356.2 249.8L368.7 242.6L381.6 236L394.8 230L408.2 224.7L422 220L436 216.1L450.2 212.8L464.6 210.3L479.1 208.4L493.7 207.3L508.3 207L523 207.3L537.6 208.4L552.2 210.3L566.7 212.8L581.1 216.1L595.3 220.1L609.4 224.8L623.2 230.3L636.7 236.4L649.9 243.2L662.8 250.6L675.3 258.8L687.4 267.5L699 276.8L710.2 286.8L720.9 297.3L731.1 308.3L740.8 319.8L749.8 331.8L758.3 344.3L766.1 357.2L773.3 370.5L779.8 384.2L785.6 398.2L790.8 412.4L795.2 427L798.9 441.8L801.8 456.7L804 471.8L805.5 487L806.2 502.3L806.1 517.6L805.2 532.9L803.6 548.2L801.2 563.4L798.1 578.5L794.2 593.4L789.6 608.2L784.2 622.7L778.1 636.9L771.3 650.8L763.7 664.4L755.5 677.7L746.7 690.5L737.2 702.8L727 714.7L716.3 726.1L705 736.9L693.2 747.2L680.8 756.9L668 766L654.7 774.4L641 782.2L626.8 789.2L612.4 795.6L597.6 801.3L582.5 806.2L567.2 810.3L551.7 813.7L536 816.3L520.2 818.1L504.2 819.2L488.3 819.4L472.3 818.8L456.3 817.5L440.4 815.3L424.6 812.3L409 808.6L393.6 804L378.3 798.7L363.4 792.7L348.7 785.8L334.4 778.3L320.5 770L307 761L293.9 751.4L281.3 741.1L269.2 730.1L257.7 718.6L246.8 706.5L236.4 693.8L226.7 680.6L217.7 667L209.3 652.8L201.6 638.3L194.7 623.4L188.5 608.1L183.1 592.5L178.5 576.7L174.6 560.6L171.6 544.3L169.4 527.9L168 511.3L167.4 494.7L167.7 478.1L168.8 461.4L170.7 444.9L173.4 428.4L177 412L181.4 395.9L186.6 379.9L192.7 364.2L199.4 348.9L207 333.8L215.3 319.2L224.4 304.9L234.1 291.1L244.6 277.8L255.7 265L267.5 252.8L279.9 241.2L292.8 230.2L306.3 219.8L320.3 210.1L334.8 201.1L349.8 192.9L365.2 185.4L380.9 178.6L397 172.7L413.4 167.5L430 163.2L446.9 159.7L463.9 157.1L481.1 155.3L498.3 154.4L515.6 154.3L532.9 155.1L550.2 156.7L567.3 159.3L584.4 162.6L601.3 166.9L617.9 172L634.3 177.9L650.5 184.6L666.2 192.2L681.6 200.5L696.6 209.6L711.1 219.5L725.2 230L738.6 241.3L751.6 253.3L763.9 265.9L775.6 279.1L786.6 292.9L797 307.3L806.6 322.1L815.5 337.5L823.6 353.3L830.9 369.5L837.4 386.1L843.1 402.9L847.9 420.1L851.9 437.5L855 455.2L857.2 472.9L858.6 490.8L859 508.7L858.5 526.7L857.2 544.6L854.9 562.5L851.7 580.3L847.7 597.9L842.8 615.2L837 632.4L830.3 649.2L822.8 665.7L814.5 681.9L805.4 697.6L795.4 712.9L784.8 727.6L773.3 741.8L761.2 755.5L748.4 768.5L734.9 780.9L720.9 792.7L706.2 803.7L691 814L675.2 823.5L659 832.2L642.4 840.2L625.4 847.2L608 853.5L590.3 858.8L572.3 863.3L554.1 866.9L535.8 869.5L517.3 871.3L498.7 872.1L480.1 872L461.5 871L442.9 869L424.4 866.1L406.1 862.2L388 857.5L370.1 851.9L352.6 845.3L335.3 837.9L318.4 829.6L301.9 820.5L285.9 810.5L270.4 799.8L255.5 788.2L241.1 776L227.3 763L214.2 749.3L201.8 735L190 720L179.1 704.5L168.9 688.4L159.5 671.8L151 654.7L143.3 637.2L136.5 619.4L130.6 601.2L125.6 582.7L121.5 563.9L118.3 545L116.2 525.9L114.9 506.6L114.7 487.4L115.3 468.1L117 448.9L119.6 429.7L123.2 410.7L127.7 391.8L133.2 373.2L139.6 354.9L146.9 336.9L155.2 319.3L164.3 302L174.2 285.3L185 269L196.6 253.3L209 238.2L222.2 223.7L236.1 209.8L250.6 196.7L265.9 184.2L281.7 172.6L298.1 161.7L315.1 151.7L332.5 142.5L350.5 134.2L368.8 126.8L387.5 120.3L406.5 114.7L425.8 110.1L445.3 106.5L465 103.8L484.9 102.1L504.8 101.5L524.7 101.8L544.6 103.1L564.5 105.4L584.2 108.7L603.8 113L623.1 118.3L642.2 124.5L660.9 131.7L679.3 139.8L697.3 148.9L714.8 158.8L731.9 169.6L748.3 181.3L764.2 193.8L779.5 207.1L794.1 221.1L808 235.9L821.1 251.4L833.5 267.5L845.1 284.2L855.8 301.5L865.6 319.4L874.6 337.7L882.6 356.5L889.7 375.7L895.9 395.2L901 415L905.2 435.1L908.3 455.4L910.5 475.8L911.6 496.4L911.7 517L910.7 537.5L908.7 558.1L905.7 578.5L901.7 598.8L896.7 618.9L890.6 638.7L883.6 658.2L875.6 677.4L866.6 696.1L856.7 714.4L845.9 732.2L834.2 749.4L821.7 766.1L808.3 782.1L794.1 797.5L779.1 812.1L763.4 826L747.1 839.1L730 851.4L712.4 862.8L694.2 873.3L675.5 883L656.3 891.6L636.6 899.4L616.6 906.1L596.3 911.8L575.6 916.5L554.8 920.2L533.7 922.8L512.6 924.4L491.3 924.9L470.1 924.4L448.9 922.8L427.7 920.1L406.7 916.4L385.9 911.6L365.4 905.8L345.1 899L325.2 891.1L305.7 882.2L286.6 872.4L268 861.6L250 849.9L232.5 837.3L215.7 823.9L199.6 809.6L184.2 794.4L169.6 778.6L155.7 761.9L142.7 744.7L130.6 726.7L119.4 708.2L109 689.1L99.7 669.5L91.3 649.4L84 628.9L77.6 608L72.4 586.9L68.1 565.5L65 543.8L62.9 522.1L61.9 500.2L62.1 478.3L63.3 456.4L65.6 434.5L69 412.8L73.5 391.3L79 370L85.7 349L93.4 328.3L102.1 308L111.8 288.1L122.5 268.8L134.2 250L146.8 231.7L160.3 214.2L174.7 197.3L190 181.1L206 165.7L222.9 151.1L240.4 137.3L258.6 124.4L277.5 112.5L296.9 101.5L316.9 91.4L337.4 82.4L358.4 74.4L379.7 67.4L401.4 61.6L423.4 56.8L445.6 53.1L467.9 50.5L490.4 49L513 48.7L535.6 49.5L558.1 51.4L580.5 54.5L602.8 58.6L624.8 63.9L646.6 70.3L668 77.8L689.1 86.3L709.7 95.9L729.9 106.5L749.5 118.2L768.5 130.8L786.9 144.3L804.6 158.8L821.6 174.2L837.7 190.3L853.1 207.3L867.6 225.1L881.3 243.6L894 262.8L905.7 282.5L916.4 302.9L926.2 323.8L934.8 345.2L942.4 367L948.9 389.2L954.3 411.7L958.6 434.4L961.7 457.4L963.7 480.5L964.5 503.7L964.2 526.9L962.6 550.1L960 573.3L956.1 596.3L951.2 619L945.1 641.6L937.8 663.8L929.5 685.6L920 707L909.5 728L898 748.4L885.4 768.2L871.9 787.4L857.3 805.9L841.9 823.7L825.6 840.6L808.4 856.8L790.5 872.1L771.8 886.5L752.3 900L732.2 912.4L711.5 923.9L690.2 934.3L668.4 943.7" opacity="0.12"/><path d="M500 500L499.6 500.2L499.3 500.4L498.9 500.6L498.5 500.7L498 500.8L497.6 500.8L497.2 500.8L496.7 500.8L496.3 500.7L495.8 500.5L495.4 500.4L495 500.1L494.5 499.9L494.1 499.6L493.7 499.2L493.4 498.9L493 498.4L492.7 498L492.4 497.5L492.2 496.9L492 496.4L491.8 495.8L491.6 495.2L491.5 494.5L491.5 493.9L491.5 493.2L491.5 492.5L491.6 491.8L491.7 491.1L491.9 490.4L492.1 489.6L492.4 488.9L492.8 488.2L493.2 487.5L493.6 486.8L494.1 486.1L494.7 485.4L495.3 484.7L496 484.1L496.7 483.5L497.4 483L498.3 482.4L499.1 482L500 481.5L501 481.1L501.9 480.8L503 480.5L504 480.2L505.1 480.1L506.2 479.9L507.4 479.9L508.5 479.9L509.7 480L510.9 480.1L512.1 480.3L513.3 480.6L514.5 481L515.7 481.4L516.9 481.9L518.1 482.5L519.3 483.1L520.4 483.8L521.5 484.6L522.6 485.5L523.7 486.4L524.7 487.4L525.7 488.5L526.6 489.7L527.5 490.9L528.3 492.2L529.1 493.5L529.8 494.9L530.4 496.3L531 497.8L531.5 499.4L531.9 501L532.2 502.6L532.5 504.2L532.6 505.9L532.7 507.7L532.7 509.4L532.6 511.2L532.4 512.9L532.1 514.7L531.7 516.5L531.2 518.3L530.6 520L529.9 521.8L529.1 523.5L528.2 525.2L527.2 526.9L526.1 528.5L524.9 530.1L523.6 531.6L522.2 533.1L520.8 534.6L519.2 535.9L517.6 537.2L515.8 538.4L514 539.6L512.2 540.6L510.2 541.6L508.2 542.5L506.1 543.2L504 543.9L501.8 544.5L499.6 544.9L497.3 545.3L495 545.5L492.7 545.6L490.3 545.6L487.9 545.5L485.6 545.2L483.2 544.8L480.8 544.3L478.4 543.7L476 542.9L473.7 542L471.4 541L469.1 539.8L466.9 538.6L464.7 537.2L462.6 535.6L460.6 534L458.6 532.3L456.7 530.4L454.9 528.4L453.1 526.3L451.5 524.1L450 521.8L448.5 519.5L447.2 517L446 514.4L445 511.8L444 509.1L443.2 506.4L442.6 503.5L442 500.7L441.7 497.8L441.4 494.8L441.3 491.8L441.4 488.8L441.6 485.8L442 482.8L442.6 479.8L443.3 476.8L444.1 473.8L445.1 470.8L446.3 467.9L447.6 465L449.1 462.2L450.7 459.4L452.5 456.7L454.4 454.1L456.5 451.6L458.7 449.1L461 446.8L463.5 444.6L466.1 442.5L468.8 440.5L471.7 438.6L474.6 436.9L477.7 435.3L480.8 433.8L484 432.6L487.4 431.4L490.7 430.5L494.2 429.7L497.7 429.1L501.3 428.6L504.9 428.3L508.5 428.3L512.1 428.4L515.8 428.6L519.4 429.1L523.1 429.8L526.7 430.6L530.3 431.7L533.9 432.9L537.4 434.3L540.9 435.9L544.3 437.7L547.6 439.6L550.8 441.8L554 444.1L557 446.6L559.9 449.2L562.7 452L565.4 455L567.9 458.1L570.3 461.3L572.5 464.7L574.6 468.2L576.5 471.8L578.2 475.6L579.7 479.4L581 483.3L582.2 487.3L583.1 491.4L583.9 495.5L584.4 499.7L584.7 504L584.9 508.2L584.8 512.5L584.4 516.8L583.9 521.1L583.1 525.4L582.2 529.7L581 533.9L579.5 538.1L577.9 542.2L576.1 546.3L574 550.3L571.7 554.2L569.2 558L566.6 561.6L563.7 565.2L560.6 568.6L557.4 571.9L554 575L550.4 577.9L546.6 580.7L542.7 583.3L538.7 585.8L534.5 588L530.2 590L525.8 591.8L521.3 593.4L516.6 594.7L511.9 595.9L507.2 596.8L502.3 597.4L497.4 597.8L492.5 598L487.6 597.9L482.6 597.6L477.7 597L472.8 596.2L467.8 595.1L463 593.8L458.2 592.2L453.4 590.3L448.7 588.3L444.2 585.9L439.7 583.4L435.3 580.6L431.1 577.6L427 574.3L423.1 570.9L419.3 567.2L415.7 563.4L412.3 559.3L409.1 555.1L406.1 550.6L403.3 546.1L400.7 541.3L398.4 536.5L396.3 531.5L394.5 526.4L392.9 521.1L391.5 515.8L390.5 510.4L389.7 504.9L389.1 499.4L388.9 493.8L388.9 488.3L389.2 482.7L389.8 477.1L390.7 471.5L391.8 465.9L393.3 460.4L395 455L397 449.6L399.3 444.3L401.9 439.1L404.7 434L407.8 429.1L411.1 424.3L414.7 419.7L418.5 415.2L422.6 410.9L426.9 406.8L431.4 403L436.1 399.3L441 395.9L446.1 392.7L451.3 389.7L456.8 387L462.3 384.6L468 382.5L473.9 380.6L479.8 379L485.8 377.8L491.9 376.8L498.1 376.1L504.3 375.8L510.5 375.7L516.8 376L523 376.6L529.3 377.5L535.5 378.7L541.6 380.2L547.7 382L553.7 384.2L559.7 386.6L565.5 389.4L571.1 392.5L576.7 395.8L582.1 399.5L587.3 403.4L592.3 407.6L597.1 412L601.7 416.7L606.1 421.6L610.2 426.8L614.1 432.2L617.7 437.8L621 443.6L624.1 449.5L626.9 455.7L629.3 461.9L631.5 468.3L633.3 474.9L634.8 481.5L636 488.2L636.8 495L637.3 501.9L637.5 508.8L637.3 515.7L636.7 522.6L635.9 529.5L634.6 536.3L633 543.2L631.1 549.9L628.8 556.6L626.2 563.1L623.3 569.6L620 575.9L616.4 582L612.5 588L608.3 593.8L603.7 599.3L598.9 604.7L593.9 609.8L588.5 614.7L582.9 619.4L577.1 623.7L571 627.8L564.7 631.5L558.2 635L551.5 638.1L544.7 640.9L537.7 643.4L530.6 645.5L523.3 647.3L516 648.7L508.6 649.7L501.1 650.4L493.5 650.6L486 650.5L478.4 650.1L470.9 649.2L463.3 648L455.9 646.4L448.5 644.4L441.1 642L433.9 639.3L426.9 636.2L419.9 632.7L413.2 628.9L406.6 624.7L400.2 620.2L394 615.4L388.1 610.2L382.4 604.8L377 599L371.9 593L367 586.7L362.5 580.2L358.3 573.4L354.4 566.4L350.9 559.2L347.7 551.8L344.9 544.2L342.5 536.5L340.4 528.7L338.8 520.7L337.5 512.7L336.7 504.6L336.2 496.4L336.2 488.2L336.6 479.9L337.4 471.7L338.6 463.5L340.2 455.4L342.2 447.3L344.7 439.4L347.5 431.5L350.8 423.8L354.4 416.2L358.4 408.8L362.8 401.6L367.6 394.6L372.7 387.8L378.1 381.3L383.9 375.1L390.1 369.1L396.5 363.4L403.2 358.1L410.2 353.1L417.4 348.4L424.9 344.1L432.7 340.1L440.6 336.6L448.7 333.4L457 330.7L465.4 328.3L474 326.4L482.7 324.9L491.4 323.8L500.2 323.2L509.1 323L518 323.3L526.8 324L535.7 325.1L544.5 326.7L553.2 328.7L561.9 331.2L570.4 334.1L578.8 337.5L587 341.3L595 345.4L602.9 350L610.5 355L617.9 360.4L625 366.2L631.8 372.3L638.4 378.8L644.6 385.6L650.5 392.7L656 400.1L661.1 407.8L665.9 415.8L670.3 424.1L674.3 432.5L677.8 441.2L681 450L683.6 459L685.9 468.2L687.6 477.5L689 486.9L689.8 496.3L690.2 505.8L690.1 515.3L689.5 524.9L688.4 534.4L686.9 543.9L684.8 553.3L682.3 562.6L679.4 571.8L675.9 580.8L672.1 589.7L667.7 598.4L662.9 606.9L657.7 615.1L652.1 623.1L646.1 630.9L639.7 638.3L632.9 645.4L625.7 652.2L618.2 658.6L610.3 664.7L602.2 670.4L593.7 675.6L585 680.5L576.1 684.9L566.9 688.9L557.5 692.4L547.9 695.4L538.1 698L528.2 700L518.2 701.6L508.2 702.7L498 703.3L487.8 703.3L477.6 702.9L467.5 701.9L457.3 700.5L447.3 698.5L437.3 696L427.4 693L417.7 689.5L408.1 685.6L398.8 681.1L389.6 676.2L380.7 670.8L372.1 664.9L363.7 658.7L355.7 651.9L347.9 644.8L340.6 637.3L333.6 629.4L327 621.2L320.8 612.6L315 603.7L309.7 594.5L304.8 585.1L300.4 575.4L296.5 565.4L293.1 555.3L290.1 545L287.7 534.5L285.9 523.9L284.5 513.2L283.7 502.4L283.4 491.6L283.7 480.7L284.5 469.9L285.9 459.1L287.8 448.3L290.3 437.7L293.2 427.1L296.7 416.7L300.8 406.5L305.3 396.4L310.4 386.6L316 377.1L322 367.8L328.5 358.8L335.5 350.1L342.9 341.7L350.7 333.8L358.9 326.2L367.5 319L376.5 312.3L385.8 306L395.5 300.1L405.4 294.8L415.6 289.9L426.1 285.6L436.8 281.7L447.7 278.5L458.8 275.7L470 273.5L481.3 271.9L492.7 270.8L504.2 270.3L515.7 270.4L527.2 271L538.7 272.3L550.1 274.1L561.4 276.4L572.7 279.4L583.7 282.9L594.7 287L605.4 291.6L615.9 296.8L626.1 302.5L636.1 308.7L645.7 315.4L655 322.6L664 330.2L672.6 338.4L680.8 346.9L688.5 355.9L695.8 365.3L702.7 375L709 385.1L714.9 395.5L720.2 406.2L725.1 417.2L729.3 428.4L733 439.8L736.1 451.5L738.7 463.3L740.6 475.2L742 487.2L742.8 499.4L742.9 511.5L742.4 523.7L741.4 535.8L739.7 547.9L737.4 559.9L734.5 571.9L731 583.6L726.9 595.2L722.3 606.6L717 617.8L711.2 628.7L704.9 639.4L698 649.7L690.6 659.7L682.7 669.3L674.3 678.5L665.4 687.3L656.1 695.7L646.4 703.6L636.3 711L625.8 717.9L614.9 724.3L603.7 730.1L592.2 735.4L580.5 740.1L568.5 744.3L556.3 747.8L543.9 750.7L531.4 753L518.7 754.7L506 755.7L493.2 756.1L480.4 755.9L467.6 755L454.8 753.5L442.1 751.3L429.5 748.5L417 745L404.7 741L392.6 736.3L380.7 731L369.1 725.1L357.8 718.7L346.8 711.6L336.2 704L325.9 695.9L316 687.2L306.6 678.1L297.6 668.5L289.1 658.4L281.1 647.9L273.6 637L266.7 625.7L260.3 614.1L254.5 602.1L249.3 589.9L244.8 577.3L240.8 564.6L237.5 551.6L234.8 538.5L232.8 525.3L231.5 511.9L230.8 498.5L230.8 485L231.5 471.5L232.8 458L234.8 444.7L237.5 431.4L240.9 418.2L244.9 405.2L249.6 392.4L254.9 379.8L260.8 367.5L267.4 355.5L274.5 343.8L282.3 332.5L290.6 321.6L299.5 311L308.9 301L318.8 291.3L329.2 282.2L340.1 273.6L351.4 265.5L363 258L375.1 251.1L387.5 244.8L400.3 239.1L413.3 234.1L426.6 229.6L440.1 225.9L453.8 222.8L467.7 220.5L481.7 218.8L495.8 217.8L509.9 217.5L524 217.9L538.1 219.1L552.2 220.9L566.2 223.5L580 226.7L593.7 230.7L607.2 235.3L620.5 240.6L633.5 246.6L646.2 253.2L658.6 260.5L670.6 268.4L682.3 276.9L693.5 285.9L704.2 295.6L714.5 305.8L724.3 316.5L733.5 327.7L742.2 339.3L750.3 351.4L757.7 363.9L764.6 376.8L770.8 390L776.4 403.5L781.3 417.3L785.4 431.4L788.9 445.7L791.7 460.1L793.7 474.7L795.1 489.4L795.6 504.2L795.5 519L794.6 533.8L792.9 548.5L790.6 563.2L787.4 577.7L783.6 592.1L779 606.4L773.8 620.3L767.8 634.1L761.1 647.5L753.8 660.6L745.8 673.3L737.1 685.6L727.9 697.5L718 708.9L707.6 719.9L696.6 730.3L685.1 740.2L673.1 749.5L660.7 758.2L647.8 766.2L634.4 773.7L620.8 780.4L606.7 786.5L592.4 791.9L577.8 796.6L563 800.5L548 803.7L532.8 806.1L517.4 807.8L502 808.7L486.6 808.8L471.1 808.2L455.7 806.8L440.4 804.6L425.1 801.6L410 797.9L395.1 793.4L380.4 788.2L366 782.3L351.8 775.6L338 768.2L324.6 760.1L311.5 751.3L298.9 741.9L286.8 731.9L275.2 721.2L264.1 710L253.6 698.2L243.6 685.9L234.3 673.1L225.6 659.8L217.6 646.1L210.3 632L203.7 617.5L197.8 602.7L192.6 587.5L188.2 572.2L184.6 556.6L181.7 540.8L179.7 524.9L178.4 508.8L177.9 492.7L178.3 476.6L179.4 460.5L181.4 444.5L184.2 428.5L187.7 412.7L192.1 397.1L197.2 381.7L203.1 366.5L209.8 351.7L217.2 337.1L225.4 323L234.2 309.2L243.7 295.9L254 283.1L264.8 270.8L276.3 259L288.3 247.8L300.9 237.2L314.1 227.2L327.7 217.9L341.8 209.3L356.4 201.4L371.3 194.2L386.6 187.7L402.3 182L418.2 177.2L434.3 173.1L450.7 169.8L467.2 167.3L483.9 165.7L500.6 164.8L517.4 164.9L534.1 165.7L550.9 167.5L567.5 170L584 173.4L600.4 177.6L616.5 182.6L632.4 188.4L648 195.1L663.2 202.5L678.1 210.6L692.6 219.6L706.6 229.2L720.2 239.6L733.2 250.6L745.7 262.2L757.6 274.5L768.8 287.4L779.5 300.9L789.4 314.9L798.7 329.4L807.2 344.3L815 359.7L822 375.5L828.2 391.6L833.6 408L838.2 424.7L842 441.6L844.9 458.8L846.9 476L848.1 493.4L848.4 510.8L847.9 528.2L846.4 545.6L844.1 563L841 580.2L836.9 597.2L832.1 614.1L826.3 630.7L819.8 647L812.4 663L804.2 678.6L795.3 693.9L785.5 708.6L775.1 722.9L763.9 736.6L752.1 749.8L739.5 762.4L726.4 774.4L712.6 785.7L698.3 796.3L683.5 806.2L668.2 815.4L652.4 823.8L636.1 831.4L619.6 838.2L602.6 844.1L585.4 849.2L567.9 853.5L550.2 856.8L532.4 859.3L514.4 860.9L496.3 861.6L478.2 861.4L460.1 860.3L442.1 858.2L424.2 855.3L406.4 851.5L388.9 846.8L371.5 841.2L354.5 834.7L337.7 827.4L321.4 819.2L305.4 810.3L289.9 800.5L274.9 789.9L260.4 778.6L246.5 766.6L233.2 753.9L220.5 740.5L208.5 726.5L197.2 711.9L186.6 696.7L176.8 681L167.8 664.8L159.6 648.2L152.2 631.2L145.7 613.7L140 596L135.3 578L131.4 559.7L128.5 541.3L126.5 522.7L125.4 504L125.2 485.2L126 466.5L127.8 447.8L130.4 429.2L134 410.7L138.5 392.4L144 374.3L150.3 356.5L157.5 339L165.6 321.9L174.6 305.2L184.4 289L195 273.2L206.4 258L218.5 243.3L231.4 229.3L245 215.9L259.3 203.2L274.1 191.2L289.6 179.9L305.7 169.4L322.3 159.8L339.3 150.9L356.8 142.9L374.7 135.8L392.9 129.6L411.5 124.3L430.3 119.9L449.3 116.5L468.5 114L487.8 112.5L507.2 112L526.6 112.4L546 113.8L565.3 116.2L584.5 119.5L603.5 123.8L622.3 129.1L640.9 135.2L659.1 142.4L677 150.4L694.4 159.3L711.4 169.1L728 179.7L743.9 191.2L759.3 203.5L774.1 216.5L788.3 230.3L801.7 244.7L814.4 259.9L826.4 275.7L837.5 292L847.9 309L857.4 326.4L866 344.3L873.7 362.6L880.5 381.4L886.4 400.4L891.3 419.8L895.2 439.4L898.2 459.2L900.1 479.1L901.1 499.1L901.1 519.2L900 539.2L898 559.2L894.9 579.1L890.9 598.9L885.8 618.4L879.8 637.7L872.9 656.7L865 675.3L856.1 693.5L846.3 711.3L835.7 728.6L824.2 745.3L811.8 761.5L798.7 777L784.8 791.9L770.1 806.1L754.7 819.5L738.7 832.2L722 844.1L704.7 855.1L686.9 865.3L668.6 874.5L649.8 882.9L630.6 890.3L611.1 896.8L591.2 902.2L571.1 906.7L550.7 910.1L530.2 912.6L509.5 914L488.8 914.4L468.1 913.7L447.4 912L426.8 909.3L406.3 905.5L386.1 900.8L366 895L346.3 888.2L326.9 880.4L307.9 871.6L289.4 861.9L271.3 851.3L253.8 839.8L236.9 827.4L220.6 814.1L204.9 800.1L190 785.2L175.8 769.6L162.4 753.4L149.8 736.4L138.1 718.8L127.2 700.7L117.3 682L108.3 662.8L100.2 643.1L93.2 623.1L87.1 602.7L82.1 582L78.1 561.1L75.2 540L73.3 518.7L72.5 497.3L72.7 476L74 454.6L76.4 433.3L79.9 412.1L84.4 391.1L89.9 370.4L96.5 349.9L104.2 329.7L112.8 310L122.4 290.7L133 271.8L144.5 253.5L156.9 235.8L170.2 218.7L184.4 202.3L199.4 186.6L215.1 171.7L231.6 157.5L248.9 144.2L266.7 131.7L285.2 120.1L304.3 109.5L323.9 99.8L344 91.1L364.5 83.4L385.3 76.8L406.5 71.2L428 66.6L449.7 63.2L471.6 60.8L493.6 59.5L515.6 59.3L537.7 60.2L559.6 62.2L581.5 65.3L603.2 69.5L624.7 74.8L646 81.2L666.9 88.6L687.4 97.1L707.5 106.6L727.1 117.1L746.2 128.6L764.7 141L782.6 154.4L799.8 168.6L816.3 183.7L832 199.6L846.9 216.3L861 233.8L874.2 251.9L886.5 270.7L897.9 290.1L908.2 310.1L917.6 330.6L925.9 351.5L933.2 372.9L939.4 394.6L944.6 416.6L948.6 438.9L951.5 461.3L953.3 483.9L954 506.6L953.5 529.3L951.9 552L949.1 574.6L945.2 597L940.2 619.3L934.1 641.3L926.9 662.9L918.6 684.2L909.3 705.1L898.9 725.5L887.5 745.4L875 764.7L861.7 783.4L847.4 801.4L832.2 818.7L816.1 835.2L799.3 850.9L781.6 865.7L763.2 879.7L744.1 892.7L724.4 904.8L704.1 915.9L683.2 925.9L661.8 935L640 942.9L617.8 949.8L595.3 955.5L572.5 960.1L549.4 963.6L526.2 965.9L502.9 967L479.5 967L456.2 965.8L432.9 963.5L409.7 959.9L386.8 955.3L364 949.4L341.6 942.5L319.5 934.4L297.8 925.2L276.6 914.9L256 903.6L235.9 891.3L216.4 877.9L197.6 863.6L179.5 848.3L162.2 832.2L145.7 815.1L130.1 797.3" opacity="0.12"/><path d="M500 500L499.7 499.7L499.4 499.4L499.1 499.1L498.9 498.8L498.7 498.4L498.5 498L498.4 497.6L498.3 497.1L498.2 496.7L498.2 496.2L498.2 495.7L498.3 495.3L498.4 494.8L498.6 494.3L498.8 493.8L499 493.3L499.3 492.9L499.7 492.4L500.1 492L500.5 491.6L500.9 491.2L501.4 490.9L502 490.5L502.6 490.3L503.2 490L503.8 489.8L504.5 489.6L505.2 489.4L505.9 489.4L506.7 489.3L507.4 489.3L508.2 489.4L509 489.5L509.8 489.6L510.6 489.8L511.4 490.1L512.2 490.4L513.1 490.8L513.8 491.3L514.6 491.8L515.4 492.3L516.2 492.9L516.9 493.6L517.6 494.3L518.2 495.1L518.9 495.9L519.5 496.8L520 497.7L520.5 498.7L521 499.7L521.4 500.8L521.8 501.9L522.1 503L522.3 504.2L522.5 505.4L522.6 506.7L522.6 507.9L522.6 509.2L522.5 510.5L522.3 511.8L522 513.1L521.7 514.4L521.3 515.7L520.8 517L520.2 518.3L519.6 519.6L518.9 520.9L518 522.1L517.2 523.3L516.2 524.5L515.2 525.7L514.1 526.8L512.9 527.8L511.6 528.8L510.3 529.8L508.9 530.6L507.5 531.5L506 532.2L504.4 532.9L502.8 533.5L501.2 534L499.5 534.4L497.7 534.8L495.9 535L494.1 535.2L492.3 535.3L490.4 535.3L488.5 535.1L486.6 534.9L484.7 534.6L482.8 534.1L480.9 533.6L479.1 533L477.2 532.2L475.4 531.4L473.5 530.4L471.8 529.4L470 528.2L468.3 526.9L466.7 525.6L465.1 524.1L463.6 522.6L462.1 520.9L460.8 519.2L459.5 517.4L458.3 515.5L457.1 513.5L456.1 511.4L455.2 509.3L454.4 507.1L453.6 504.9L453 502.6L452.5 500.2L452.2 497.8L451.9 495.4L451.8 493L451.8 490.5L451.9 488L452.2 485.5L452.6 482.9L453.1 480.4L453.8 477.9L454.5 475.5L455.5 473L456.5 470.6L457.7 468.2L459 465.8L460.5 463.5L462.1 461.3L463.8 459.2L465.6 457.1L467.5 455.1L469.6 453.1L471.8 451.3L474 449.6L476.4 448L478.9 446.5L481.5 445.1L484.1 443.8L486.8 442.7L489.7 441.7L492.5 440.8L495.5 440.1L498.4 439.5L501.5 439.1L504.6 438.9L507.7 438.7L510.8 438.8L513.9 439L517.1 439.4L520.2 439.9L523.3 440.6L526.5 441.4L529.5 442.5L532.6 443.6L535.6 445L538.5 446.5L541.4 448.2L544.3 450L547 452L549.6 454.1L552.2 456.4L554.6 458.8L557 461.3L559.2 464L561.3 466.8L563.3 469.7L565.1 472.8L566.8 475.9L568.3 479.1L569.6 482.5L570.8 485.9L571.9 489.4L572.7 493L573.4 496.6L573.9 500.3L574.2 504L574.4 507.7L574.3 511.5L574 515.3L573.6 519.1L572.9 522.8L572.1 526.6L571.1 530.3L569.8 534L568.4 537.7L566.8 541.3L565 544.8L563 548.3L560.9 551.6L558.5 554.9L556 558L553.3 561.1L550.4 564L547.4 566.8L544.2 569.4L540.9 571.9L537.5 574.2L533.9 576.4L530.2 578.4L526.3 580.2L522.4 581.8L518.4 583.3L514.3 584.5L510.1 585.5L505.8 586.3L501.5 586.9L497.1 587.3L492.7 587.5L488.3 587.4L483.9 587.1L479.5 586.6L475 585.9L470.6 584.9L466.3 583.8L462 582.4L457.7 580.7L453.5 578.9L449.4 576.8L445.4 574.5L441.4 572L437.6 569.3L433.9 566.4L430.4 563.3L427 560L423.8 556.5L420.7 552.9L417.8 549.1L415.1 545.1L412.5 541L410.2 536.7L408.1 532.3L406.2 527.8L404.5 523.2L403 518.5L401.8 513.6L400.8 508.8L400.1 503.8L399.6 498.8L399.4 493.8L399.4 488.7L399.7 483.6L400.2 478.5L401 473.5L402.1 468.4L403.4 463.4L404.9 458.5L406.8 453.6L408.8 448.8L411.1 444.1L413.7 439.4L416.5 434.9L419.6 430.6L422.8 426.4L426.3 422.3L430 418.4L433.9 414.7L438 411.1L442.3 407.8L446.8 404.6L451.4 401.7L456.3 399L461.2 396.6L466.3 394.4L471.5 392.4L476.8 390.7L482.3 389.3L487.8 388.1L493.4 387.2L499 386.6L504.7 386.3L510.4 386.2L516.1 386.5L521.9 387L527.6 387.8L533.3 389L538.9 390.4L544.5 392.1L550 394L555.5 396.3L560.8 398.8L566 401.7L571.1 404.7L576 408.1L580.8 411.7L585.4 415.6L589.9 419.6L594.1 424L598.1 428.5L601.9 433.3L605.5 438.3L608.8 443.4L611.9 448.7L614.7 454.2L617.2 459.9L619.5 465.7L621.5 471.6L623.1 477.6L624.5 483.8L625.6 490L626.4 496.3L626.8 502.6L626.9 508.9L626.8 515.3L626.2 521.7L625.4 528.1L624.3 534.4L622.8 540.7L621 547L618.9 553.1L616.4 559.2L613.7 565.2L610.6 571L607.3 576.7L603.7 582.2L599.7 587.5L595.5 592.7L591.1 597.7L586.4 602.4L581.4 607L576.2 611.2L570.7 615.3L565.1 619L559.2 622.5L553.2 625.7L547 628.6L540.6 631.2L534.1 633.5L527.5 635.4L520.8 637L513.9 638.3L507 639.3L500.1 639.9L493.1 640.1L486 640L479 639.5L471.9 638.7L464.9 637.6L458 636L451.1 634.2L444.3 631.9L437.6 629.4L431 626.5L424.5 623.2L418.2 619.6L412.1 615.7L406.2 611.5L400.4 607L394.9 602.2L389.6 597.1L384.6 591.7L379.8 586L375.3 580.2L371.1 574L367.2 567.7L363.6 561.1L360.3 554.4L357.3 547.5L354.7 540.4L352.5 533.2L350.6 525.8L349.1 518.4L347.9 510.9L347.2 503.2L346.8 495.6L346.8 487.9L347.1 480.2L347.9 472.5L349.1 464.9L350.6 457.2L352.5 449.7L354.8 442.2L357.5 434.9L360.6 427.6L364 420.5L367.8 413.6L371.9 406.9L376.4 400.3L381.3 394L386.4 387.9L391.9 382.1L397.6 376.5L403.7 371.2L410 366.2L416.6 361.5L423.4 357.1L430.5 353.1L437.7 349.4L445.2 346.1L452.8 343.1L460.6 340.6L468.6 338.4L476.6 336.6L484.8 335.2L493 334.2L501.3 333.7L509.7 333.5L518 333.8L526.4 334.5L534.7 335.6L543 337.2L551.2 339.1L559.3 341.5L567.3 344.2L575.2 347.4L582.9 351L590.5 355L597.9 359.3L605 364.1L612 369.2L618.7 374.6L625.1 380.4L631.2 386.6L637.1 393L642.6 399.7L647.8 406.8L652.6 414.1L657.1 421.6L661.2 429.4L664.9 437.4L668.2 445.6L671.2 454L673.6 462.5L675.7 471.1L677.4 479.9L678.6 488.8L679.3 497.7L679.6 506.7L679.5 515.7L678.9 524.7L677.9 533.7L676.4 542.6L674.4 551.5L672 560.3L669.2 569L665.9 577.5L662.2 585.9L658 594.1L653.5 602.1L648.5 609.9L643.2 617.5L637.4 624.8L631.3 631.8L624.9 638.5L618 644.9L610.9 651L603.5 656.7L595.7 662L587.7 666.9L579.4 671.5L570.9 675.6L562.2 679.4L553.2 682.7L544.1 685.5L534.9 687.9L525.5 689.8L516 691.3L506.5 692.2L496.8 692.8L487.2 692.8L477.5 692.3L467.9 691.4L458.3 689.9L448.7 688L439.2 685.6L429.9 682.7L420.7 679.4L411.6 675.6L402.7 671.3L394.1 666.6L385.6 661.4L377.5 655.8L369.6 649.8L361.9 643.4L354.6 636.6L347.7 629.5L341.1 621.9L334.8 614.1L329 605.9L323.5 597.4L318.5 588.7L313.9 579.7L309.8 570.4L306.1 560.9L302.9 551.3L300.1 541.4L297.9 531.5L296.2 521.4L294.9 511.2L294.2 500.9L294 490.6L294.3 480.3L295.1 470L296.5 459.7L298.3 449.5L300.7 439.3L303.6 429.3L307 419.4L310.9 409.7L315.3 400.1L320.1 390.8L325.5 381.7L331.3 372.9L337.5 364.4L344.2 356.1L351.3 348.2L358.8 340.6L366.6 333.5L374.9 326.7L383.5 320.3L392.4 314.3L401.6 308.8L411.1 303.7L420.9 299.1L430.9 295L441.1 291.4L451.5 288.3L462.1 285.8L472.8 283.7L483.6 282.2L494.5 281.3L505.4 280.8L516.4 281L527.4 281.6L538.3 282.9L549.2 284.6L560.1 287L570.8 289.8L581.3 293.2L591.7 297.2L602 301.7L611.9 306.6L621.7 312.1L631.2 318.1L640.4 324.5L649.2 331.5L657.8 338.8L665.9 346.6L673.7 354.9L681.1 363.5L688 372.5L694.5 381.8L700.6 391.5L706.1 401.4L711.2 411.7L715.7 422.2L719.7 433L723.2 443.9L726.2 455.1L728.5 466.4L730.3 477.8L731.6 489.3L732.3 500.9L732.3 512.6L731.8 524.2L730.8 535.8L729.1 547.4L726.8 558.9L724 570.3L720.6 581.5L716.6 592.6L712.1 603.5L707.1 614.2L701.4 624.6L695.3 634.8L688.7 644.6L681.5 654.1L673.9 663.3L665.8 672.1L657.3 680.5L648.3 688.4L639 696L629.2 703L619.1 709.6L608.7 715.7L597.9 721.2L586.9 726.2L575.6 730.7L564.1 734.6L552.4 737.9L540.5 740.6L528.5 742.8L516.3 744.3L504.1 745.2L491.8 745.6L479.5 745.3L467.3 744.4L455 742.8L442.8 740.7L430.8 737.9L418.8 734.6L407 730.6L395.5 726.1L384.1 720.9L373 715.2L362.2 708.9L351.6 702.1L341.5 694.8L331.6 686.9L322.2 678.6L313.2 669.8L304.6 660.5L296.5 650.8L288.9 640.6L281.7 630.1L275.1 619.2L269.1 608L263.6 596.5L258.7 584.7L254.3 572.7L250.6 560.4L247.5 547.9L245 535.3L243.1 522.6L241.9 509.7L241.3 496.8L241.4 483.8L242.1 470.9L243.4 458L245.5 445.1L248.1 432.3L251.4 419.7L255.3 407.2L259.9 395L265.1 382.9L270.8 371.1L277.2 359.6L284.2 348.4L291.7 337.5L299.8 327L308.3 317L317.4 307.3L327 298.1L337.1 289.4L347.6 281.2L358.5 273.5L369.8 266.3L381.4 259.7L393.4 253.7L405.7 248.3L418.3 243.5L431.1 239.3L444.1 235.8L457.3 232.9L470.7 230.7L484.2 229.1L497.7 228.3L511.3 228.1L524.9 228.6L538.5 229.7L552.1 231.6L565.5 234.1L578.8 237.3L592 241.2L605 245.7L617.8 250.9L630.3 256.7L642.5 263.2L654.4 270.3L665.9 277.9L677.1 286.2L687.8 295L698.1 304.3L708 314.2L717.3 324.6L726.1 335.4L734.4 346.7L742.2 358.4L749.3 370.5L755.9 382.9L761.8 395.7L767.1 408.8L771.7 422.1L775.7 435.7L779 449.5L781.5 463.4L783.4 477.5L784.6 491.7L785.1 505.9L784.9 520.2L783.9 534.5L782.3 548.7L779.9 562.8L776.8 576.8L773 590.7L768.5 604.4L763.4 617.9L757.5 631.1L751 644L743.9 656.6L736.1 668.8L727.7 680.7L718.7 692.1L709.1 703.1L699 713.6L688.3 723.6L677.2 733L665.5 742L653.4 750.3L640.9 758L628.1 765.1L614.8 771.6L601.2 777.4L587.4 782.5L573.3 786.9L558.9 790.6L544.4 793.6L529.7 795.9L514.9 797.4L500 798.2L485.1 798.2L470.1 797.5L455.2 796.1L440.4 793.9L425.7 791L411.1 787.3L396.7 782.9L382.6 777.7L368.7 771.9L355 765.4L341.7 758.2L328.8 750.3L316.2 741.7L304.1 732.6L292.4 722.8L281.3 712.4L270.6 701.5L260.5 690.1L251 678.1L242 665.7L233.7 652.8L226 639.5L219 625.8L212.7 611.7L207.1 597.3L202.2 582.7L198 567.8L194.6 552.7L191.9 537.4L190 522L188.9 506.5L188.5 490.9L188.9 475.3L190.1 459.7L192.1 444.2L194.9 428.8L198.4 413.5L202.7 398.4L207.8 383.5L213.6 368.9L220.1 354.6L227.4 340.6L235.3 326.9L244 313.6L253.3 300.8L263.2 288.4L273.8 276.6L285 265.2L296.7 254.5L309 244.3L321.8 234.7L335 225.8L348.7 217.5L362.9 209.9L377.4 203L392.2 196.9L407.4 191.5L422.8 186.8L438.5 182.9L454.4 179.8L470.4 177.5L486.5 176L502.7 175.4L519 175.5L535.2 176.4L551.4 178.2L567.5 180.7L583.5 184.1L599.3 188.3L614.9 193.2L630.3 199L645.3 205.5L660.1 212.7L674.5 220.7L688.4 229.5L702 238.9L715.1 249L727.6 259.8L739.6 271.1L751.1 283.1L762 295.7L772.2 308.8L781.8 322.4L790.6 336.5L798.8 351.1L806.3 366L813 381.3L818.9 397L824.1 413L828.4 429.2L832 445.6L834.7 462.2L836.6 479L837.6 495.8L837.9 512.7L837.2 529.6L835.7 546.5L833.4 563.3L830.2 580L826.2 596.5L821.4 612.8L815.7 628.9L809.3 644.7L802 660.2L794 675.3L785.2 690L775.7 704.3L765.5 718.1L754.6 731.3L743 744.1L730.8 756.2L717.9 767.8L704.5 778.6L690.6 788.9L676.1 798.4L661.2 807.2L645.8 815.3L630 822.5L613.9 829L597.4 834.7L580.6 839.6L563.7 843.6L546.5 846.8L529.1 849.1L511.6 850.5L494.1 851.1L476.5 850.7L459 849.6L441.5 847.5L424.1 844.5L406.9 840.7L389.8 836L373 830.5L356.5 824.1L340.3 816.9L324.4 808.9L309 800.1L294 790.5L279.5 780.2L265.5 769.1L252 757.4L239.1 745L226.9 731.9L215.3 718.2L204.4 703.9L194.3 689.1L184.8 673.8L176.1 658L168.3 641.8L161.2 625.2L155 608.2L149.6 591L145.1 573.4L141.4 555.7L138.7 537.7L136.8 519.6L135.9 501.4L135.8 483.2L136.7 465L138.5 446.8L141.2 428.8L144.8 410.8L149.3 393L154.7 375.5L160.9 358.2L168.1 341.3L176.1 324.7L184.9 308.5L194.5 292.8L204.9 277.5L216.1 262.8L228 248.6L240.6 235L253.9 222L267.8 209.8L282.3 198.2L297.5 187.3L313.1 177.2L329.3 167.9L346 159.4L363 151.8L380.5 145L398.2 139L416.3 134L434.6 129.8L453.2 126.6L471.9 124.3L490.7 123L509.5 122.5L528.4 123.1L547.3 124.6L566 127L584.7 130.3L603.2 134.6L621.4 139.8L639.5 146L657.1 153L674.5 160.9L691.4 169.7L707.9 179.3L723.9 189.8L739.4 201L754.3 213L768.7 225.8L782.3 239.3L795.3 253.5L807.6 268.3L819.2 283.7L829.9 299.7L839.9 316.3L849 333.3L857.3 350.8L864.7 368.7L871.2 387L876.8 405.6L881.5 424.4L885.2 443.5L888 462.8L889.8 482.2L890.6 501.7L890.4 521.3L889.3 540.8L887.2 560.3L884.1 579.6L880.1 598.8L875 617.8L869.1 636.6L862.2 655L854.3 673.1L845.6 690.8L836 708.1L825.5 724.8L814.2 741.1L802.1 756.8L789.2 771.8L775.5 786.2L761.2 800L746.1 813L730.4 825.2L714.1 836.7L697.2 847.3L679.8 857.1L661.9 866.1L643.5 874.1L624.8 881.2L605.7 887.4L586.3 892.6L566.6 896.8L546.8 900L526.7 902.3L506.6 903.6L486.4 903.8L466.2 903L446.1 901.3L426 898.5L406.1 894.7L386.3 889.9L366.9 884.1L347.7 877.4L328.8 869.7L310.4 861L292.3 851.5L274.8 841L257.8 829.7L241.4 817.5L225.5 804.5L210.4 790.7L195.9 776.1L182.1 760.8L169.2 744.9L157 728.3L145.7 711L135.2 693.3L125.6 675L116.9 656.2L109.2 637L102.4 617.4L96.7 597.5L91.9 577.3L88.1 556.9L85.4 536.2L83.7 515.5L83 494.6L83.4 473.8L84.8 452.9L87.2 432.2L90.7 411.6L95.2 391.1L100.8 370.9L107.4 350.9L114.9 331.3L123.4 312.1L132.9 293.3L143.4 275L154.7 257.2L167 240L180 223.4L194 207.5L208.7 192.2L224.2 177.7L240.3 164L257.2 151.1L274.7 139.1L292.9 127.9L311.5 117.6L330.7 108.3L350.3 99.9L370.4 92.6L390.8 86.2L411.6 80.8L432.5 76.5L453.7 73.3L475.1 71.1L496.6 69.9L518.1 69.9L539.6 70.9L561.1 73L582.4 76.2L603.6 80.4L624.5 85.7L645.2 92.1L665.6 99.5L685.6 107.8L705.2 117.2L724.3 127.6L742.8 138.9L760.8 151.2L778.2 164.3L794.9 178.4L810.9 193.2L826.2 208.8L840.6 225.2L854.3 242.4L867.1 260.2L879 278.6L889.9 297.6L899.9 317.2L909 337.2L917 357.8L924 378.7L929.9 399.9L934.8 421.4L938.6 443.2L941.3 465.2L942.9 487.3L943.4 509.4L942.8 531.6L941.1 553.7L938.3 575.8L934.3 597.7L929.3 619.4L923.2 640.8L916 662L907.8 682.7L898.5 703.1L888.3 722.9L877 742.3L864.7 761.1L851.6 779.2L837.5 796.7L822.5 813.5L806.7 829.6L790.2 844.8L772.8 859.2L754.8 872.7L736 885.4L716.7 897.1L696.7 907.8L676.3 917.5L655.3 926.2L634 933.8L612.2 940.4L590.2 945.8L567.8 950.2L545.3 953.4L522.6 955.6L499.8 956.5L477 956.4L454.1 955.1L431.4 952.6L408.8 949L386.3 944.3L364.1 938.5L342.3 931.5L320.7 923.5L299.6 914.4L278.9 904.2L258.8 893L239.2 880.8L220.2 867.7L201.9 853.5L184.4 838.5L167.5 822.6L151.5 805.9L136.3 788.3L122 770L108.7 751L96.2 731.4L84.8 711.1L74.4 690.2L65 668.9L56.7 647.1L49.5 624.8L43.4 602.3L38.5 579.4L34.7 556.3L32 533L30.5 509.6L30.2 486.1L31.1 462.6L33.1 439.1L36.4 415.8L40.7 392.6L46.3 369.7L52.9 347L60.8 324.7L69.7 302.8L79.7 281.4L90.8 260.4L102.9 240.1" opacity="0.12"/><path d="M500 500L500.1 499.6L500.3 499.2L500.6 498.9L500.8 498.5L501.1 498.2L501.5 497.9L501.8 497.7L502.2 497.5L502.6 497.3L503.1 497.1L503.5 497L504 496.9L504.5 496.9L505 496.9L505.5 496.9L506 497L506.6 497.2L507.1 497.4L507.6 497.6L508.1 497.9L508.6 498.2L509.1 498.6L509.6 499L510.1 499.4L510.5 499.9L510.9 500.5L511.3 501.1L511.6 501.7L512 502.3L512.2 503L512.5 503.8L512.7 504.5L512.8 505.3L512.9 506.1L512.9 507L512.9 507.8L512.9 508.7L512.8 509.6L512.6 510.5L512.4 511.4L512.1 512.3L511.7 513.2L511.3 514.1L510.8 515L510.3 515.8L509.7 516.7L509.1 517.5L508.4 518.3L507.6 519.1L506.8 519.9L505.9 520.6L504.9 521.3L503.9 521.9L502.9 522.5L501.8 523L500.6 523.5L499.5 523.9L498.2 524.3L497 524.6L495.7 524.8L494.3 525L493 525.1L491.6 525.1L490.2 525L488.8 524.9L487.4 524.7L486 524.4L484.5 524L483.1 523.5L481.7 523L480.3 522.4L478.9 521.7L477.5 520.9L476.2 520L474.9 519L473.6 518L472.4 516.9L471.2 515.7L470.1 514.4L469 513L468 511.6L467.1 510.1L466.2 508.6L465.4 506.9L464.7 505.3L464.1 503.5L463.5 501.8L463 499.9L462.7 498.1L462.4 496.2L462.2 494.2L462.1 492.3L462.2 490.3L462.3 488.3L462.5 486.3L462.9 484.2L463.3 482.2L463.9 480.2L464.6 478.2L465.4 476.2L466.3 474.3L467.3 472.3L468.4 470.5L469.6 468.6L471 466.8L472.4 465.1L473.9 463.4L475.6 461.8L477.3 460.2L479.1 458.8L481 457.4L483 456.1L485.1 454.9L487.3 453.8L489.5 452.9L491.8 452L494.2 451.2L496.6 450.6L499 450L501.6 449.6L504.1 449.3L506.7 449.2L509.3 449.2L511.9 449.3L514.6 449.6L517.2 450L519.8 450.5L522.5 451.2L525.1 452L527.6 452.9L530.2 454L532.7 455.2L535.2 456.6L537.6 458.1L539.9 459.7L542.2 461.5L544.4 463.4L546.5 465.4L548.5 467.5L550.4 469.8L552.3 472.1L554 474.6L555.6 477.2L557 479.8L558.4 482.6L559.6 485.4L560.6 488.4L561.6 491.3L562.3 494.4L562.9 497.5L563.4 500.6L563.7 503.8L563.9 507.1L563.9 510.3L563.7 513.6L563.3 516.9L562.8 520.1L562.1 523.4L561.2 526.6L560.2 529.8L559 533L557.6 536.2L556.1 539.2L554.4 542.2L552.5 545.2L550.5 548L548.4 550.8L546 553.5L543.6 556L540.9 558.5L538.2 560.8L535.3 563L532.3 565.1L529.2 567L525.9 568.8L522.6 570.4L519.2 571.8L515.6 573.1L512 574.2L508.3 575.1L504.6 575.9L500.8 576.4L497 576.8L493.1 577L489.2 576.9L485.3 576.7L481.4 576.3L477.5 575.7L473.6 574.9L469.7 573.8L465.9 572.6L462.1 571.2L458.4 569.6L454.7 567.7L451.1 565.7L447.6 563.5L444.2 561.1L441 558.6L437.8 555.8L434.8 552.9L431.9 549.8L429.1 546.6L426.5 543.2L424.1 539.7L421.8 536L419.7 532.2L417.8 528.3L416.1 524.3L414.6 520.1L413.2 515.9L412.1 511.6L411.3 507.2L410.6 502.8L410.1 498.3L409.9 493.8L409.9 489.3L410.2 484.7L410.6 480.1L411.3 475.6L412.3 471.1L413.4 466.6L414.8 462.1L416.4 457.7L418.3 453.4L420.4 449.1L422.7 445L425.2 440.9L427.9 437L430.9 433.1L434 429.5L437.3 425.9L440.9 422.6L444.6 419.4L448.4 416.3L452.5 413.5L456.7 410.8L461 408.4L465.5 406.2L470.1 404.2L474.8 402.4L479.7 400.8L484.6 399.5L489.6 398.5L494.7 397.7L499.8 397.1L504.9 396.8L510.1 396.8L515.3 397L520.5 397.5L525.8 398.2L530.9 399.2L536.1 400.5L541.2 402L546.2 403.8L551.1 405.9L556 408.2L560.7 410.8L565.4 413.6L569.9 416.6L574.3 419.9L578.5 423.5L582.5 427.2L586.4 431.1L590 435.3L593.5 439.7L596.8 444.2L599.8 448.9L602.6 453.8L605.2 458.8L607.5 464L609.6 469.3L611.4 474.7L612.9 480.3L614.2 485.9L615.2 491.6L615.9 497.3L616.3 503.1L616.4 509L616.2 514.8L615.8 520.7L615 526.6L613.9 532.4L612.6 538.2L610.9 543.9L609 549.6L606.7 555.1L604.2 560.6L601.4 566L598.3 571.2L594.9 576.3L591.3 581.2L587.4 586L583.3 590.6L579 594.9L574.4 599.1L569.6 603L564.5 606.7L559.3 610.2L553.9 613.4L548.3 616.4L542.6 619L536.7 621.4L530.7 623.5L524.6 625.3L518.4 626.8L512 628L505.6 628.8L499.2 629.4L492.7 629.6L486.2 629.5L479.7 629L473.2 628.3L466.7 627.2L460.2 625.7L453.9 624L447.6 621.9L441.3 619.5L435.2 616.8L429.3 613.8L423.4 610.5L417.7 606.8L412.2 602.9L406.9 598.7L401.8 594.2L396.9 589.4L392.2 584.4L387.8 579.2L383.6 573.7L379.7 568L376.1 562.1L372.8 556L369.7 549.7L367 543.3L364.6 536.7L362.5 530L360.8 523.1L359.4 516.2L358.3 509.2L357.6 502.1L357.3 494.9L357.3 487.8L357.7 480.6L358.4 473.4L359.5 466.3L361 459.2L362.8 452.2L365 445.2L367.5 438.4L370.4 431.6L373.6 425L377.1 418.5L381 412.3L385.2 406.2L389.7 400.3L394.6 394.6L399.7 389.1L405.1 383.9L410.8 379L416.7 374.3L422.9 370L429.3 365.9L435.9 362.1L442.7 358.7L449.7 355.6L456.8 352.9L464.1 350.5L471.6 348.5L479.1 346.9L486.8 345.6L494.5 344.7L502.3 344.2L510.1 344.1L517.9 344.4L525.7 345L533.5 346.1L541.3 347.6L549 349.4L556.6 351.7L564.1 354.3L571.5 357.3L578.8 360.7L585.8 364.5L592.8 368.6L599.5 373L606 377.9L612.2 383L618.2 388.5L624 394.3L629.4 400.3L634.6 406.7L639.5 413.3L644 420.2L648.2 427.3L652 434.6L655.5 442.2L658.6 449.9L661.3 457.7L663.6 465.8L665.5 473.9L667.1 482.2L668.2 490.5L668.8 499L669.1 507.4L668.9 515.9L668.3 524.4L667.3 532.8L665.9 541.3L664 549.6L661.7 557.9L659 566.1L655.9 574.1L652.4 582L648.4 589.7L644.1 597.3L639.4 604.6L634.3 611.7L628.9 618.6L623.1 625.2L617 631.5L610.5 637.5L603.7 643.2L596.7 648.5L589.3 653.6L581.8 658.2L573.9 662.5L565.9 666.4L557.6 669.8L549.2 672.9L540.5 675.6L531.8 677.8L522.9 679.6L514 680.9L504.9 681.8L495.8 682.2L486.7 682.2L477.5 681.7L468.4 680.8L459.3 679.4L450.3 677.5L441.3 675.2L432.5 672.5L423.8 669.3L415.2 665.6L406.9 661.5L398.7 657L390.7 652.1L383 646.8L375.5 641.1L368.3 635L361.4 628.5L354.9 621.7L348.6 614.6L342.7 607.1L337.2 599.3L332.1 591.2L327.4 582.9L323 574.4L319.2 565.6L315.7 556.6L312.7 547.4L310.2 538L308.1 528.6L306.5 519L305.3 509.3L304.7 499.6L304.6 489.8L304.9 480L305.7 470.2L307 460.4L308.8 450.7L311.1 441.1L313.9 431.6L317.2 422.2L320.9 413L325.1 404L329.8 395.1L334.9 386.5L340.5 378.2L346.4 370.1L352.8 362.3L359.6 354.8L366.7 347.6L374.3 340.8L382.1 334.4L390.3 328.4L398.8 322.7L407.6 317.5L416.7 312.7L426 308.4L435.5 304.6L445.3 301.2L455.2 298.3L465.3 295.9L475.5 294L485.8 292.6L496.1 291.7L506.6 291.4L517 291.5L527.5 292.2L537.9 293.5L548.3 295.2L558.6 297.5L568.7 300.2L578.8 303.5L588.7 307.3L598.4 311.6L607.9 316.4L617.2 321.7L626.2 327.4L634.9 333.6L643.3 340.3L651.4 347.3L659.2 354.8L666.6 362.7L673.6 370.9L680.2 379.5L686.3 388.5L692 397.7L697.3 407.3L702 417.1L706.3 427.2L710.1 437.4L713.4 447.9L716.1 458.6L718.4 469.4L720 480.3L721.2 491.3L721.7 502.4L721.8 513.5L721.2 524.6L720.1 535.7L718.5 546.7L716.3 557.7L713.5 568.6L710.2 579.3L706.4 589.9L702 600.3L697.1 610.4L691.7 620.4L685.8 630L679.4 639.4L672.5 648.5L665.2 657.2L657.4 665.6L649.2 673.6L640.6 681.1L631.6 688.3L622.3 695L612.6 701.2L602.6 707L592.3 712.2L581.7 717L570.9 721.2L559.9 724.8L548.6 728L537.2 730.5L525.7 732.5L514.1 733.9L502.4 734.8L490.6 735L478.9 734.7L467.1 733.7L455.4 732.2L443.7 730.1L432.2 727.4L420.8 724.1L409.5 720.3L398.4 715.9L387.6 710.9L377 705.4L366.6 699.3L356.6 692.7L346.8 685.6L337.5 678.1L328.5 670L319.9 661.5L311.7 652.6L304 643.2L296.7 633.5L289.9 623.3L283.7 612.9L277.9 602.1L272.7 591L268 579.7L263.9 568.1L260.4 556.3L257.5 544.4L255.2 532.3L253.4 520L252.3 507.7L251.8 495.3L252 482.9L252.7 470.4L254.1 458L256.1 445.7L258.7 433.5L261.9 421.4L265.8 409.4L270.2 397.6L275.2 386.1L280.8 374.8L287 363.8L293.7 353L301 342.7L308.8 332.6L317.1 323L325.9 313.8L335.2 305L344.8 296.7L355 288.8L365.5 281.5L376.4 274.6L387.6 268.4L399.2 262.7L411 257.5L423.1 253L435.4 249L448 245.7L460.7 243L473.5 241L486.5 239.5L499.5 238.8L512.6 238.6L525.7 239.2L538.8 240.4L551.8 242.2L564.7 244.7L577.5 247.9L590.1 251.7L602.6 256.1L614.9 261.2L626.8 266.8L638.6 273.1L650 280L661 287.4L671.7 295.4L682 303.9L691.9 313L701.3 322.5L710.3 332.5L718.7 343L726.6 353.9L734 365.2L740.8 376.9L747.1 388.9L752.7 401.2L757.7 413.9L762.1 426.7L765.9 439.8L768.9 453.1L771.4 466.6L773.1 480.1L774.2 493.8L774.6 507.5L774.3 521.3L773.3 535L771.6 548.7L769.2 562.3L766.2 575.8L762.5 589.2L758.1 602.3L753 615.3L747.3 628L741 640.4L734 652.5L726.4 664.2L718.3 675.6L709.5 686.6L700.3 697.1L690.4 707.2L680.1 716.7L669.3 725.8L658 734.3L646.4 742.3L634.3 749.7L621.8 756.5L609 762.6L595.9 768.1L582.5 773L568.8 777.2L555 780.7L540.9 783.5L526.7 785.6L512.5 787L498.1 787.7L483.7 787.7L469.3 786.9L454.9 785.4L440.6 783.2L426.4 780.3L412.4 776.7L398.5 772.3L384.9 767.3L371.5 761.6L358.4 755.2L345.6 748.2L333.1 740.5L321 732.2L309.4 723.3L298.2 713.8L287.4 703.7L277.2 693.1L267.5 682L258.4 670.4L249.8 658.3L241.8 645.8L234.5 632.9L227.8 619.7L221.8 606.1L216.4 592.1L211.7 578L207.8 563.6L204.6 548.9L202.1 534.2L200.3 519.3L199.3 504.3L199.1 489.2L199.6 474.1L200.8 459.1L202.8 444.1L205.6 429.2L209.1 414.5L213.3 399.9L218.3 385.6L224 371.4L230.4 357.6L237.5 344.1L245.2 330.9L253.7 318.2L262.7 305.8L272.4 293.9L282.7 282.5L293.6 271.6L305 261.3L316.9 251.5L329.3 242.3L342.2 233.7L355.5 225.8L369.2 218.5L383.3 212L397.7 206.1L412.4 200.9L427.4 196.5L442.5 192.9L457.9 190L473.4 187.8L489 186.5L504.7 185.9L520.4 186.1L536.2 187.1L551.8 188.9L567.4 191.4L582.8 194.8L598.1 198.9L613.2 203.8L628 209.4L642.6 215.8L656.8 222.9L670.7 230.8L684.2 239.3L697.2 248.5L709.8 258.4L721.9 268.8L733.5 279.9L744.5 291.6L755 303.8L764.8 316.6L774 329.8L782.5 343.5L790.4 357.7L797.5 372.2L803.9 387.1L809.6 402.3L814.5 417.8L818.6 433.5L822 449.4L824.5 465.6L826.2 481.8L827.2 498.1L827.3 514.5L826.6 530.9L825 547.2L822.7 563.5L819.5 579.6L815.5 595.6L810.7 611.4L805.2 627L798.8 642.2L791.7 657.2L783.9 671.8L775.3 686L766 699.8L756 713.1L745.3 725.9L734 738.2L722.1 749.9L709.6 761L696.5 771.5L682.9 781.3L668.9 790.5L654.3 798.9L639.4 806.7L624 813.6L608.3 819.8L592.3 825.2L576 829.9L559.5 833.7L542.8 836.6L526 838.8L509 840.1L492 840.5L475 840.1L458 838.9L441 836.7L424.1 833.8L407.4 830L390.9 825.3L374.7 819.9L358.7 813.6L343 806.5L327.6 798.6L312.7 790L298.2 780.6L284.2 770.5L270.6 759.7L257.6 748.2L245.2 736.1L233.4 723.3L222.3 710L211.8 696.1L202 681.6L192.9 666.7L184.6 651.3L177 635.5L170.2 619.4L164.3 602.9L159.2 586.1L154.9 569L151.4 551.7L148.9 534.3L147.2 516.7L146.4 499.1L146.4 481.4L147.4 463.7L149.2 446L152 428.5L155.6 411.1L160 393.8L165.4 376.8L171.6 360.1L178.6 343.7L186.4 327.6L195.1 311.9L204.5 296.7L214.7 281.9L225.6 267.7L237.3 254L249.6 240.8L262.6 228.3L276.2 216.5L290.4 205.3L305.2 194.8L320.5 185.1L336.3 176.2L352.5 168L369.1 160.7L386.1 154.1L403.4 148.5L421 143.7L438.9 139.8L456.9 136.7L475.1 134.6L493.4 133.4L511.7 133.1L530.1 133.7L548.4 135.3L566.6 137.7L584.7 141.1L602.7 145.4L620.4 150.6L637.9 156.6L655 163.6L671.9 171.4L688.3 180L704.3 189.5L719.8 199.7L734.8 210.8L749.2 222.5L763.1 235.1L776.3 248.3L788.9 262.1L800.7 276.6L811.9 291.7L822.3 307.3L831.9 323.4L840.6 340.1L848.6 357.1L855.7 374.6L861.9 392.4L867.3 410.5L871.7 428.9L875.2 447.5L877.8 466.3L879.4 485.2L880.1 504.2L879.8 523.2L878.6 542.2L876.4 561.2L873.3 580L869.2 598.6L864.3 617.1L858.3 635.3L851.5 653.2L843.8 670.8L835.2 688L825.7 704.7L815.4 721L804.3 736.7L792.4 751.9L779.8 766.5L766.4 780.4L752.3 793.7L737.6 806.3L722.2 818.1L706.3 829.2L689.8 839.5L672.7 848.9L655.3 857.5L637.3 865.2L619.1 872L600.4 877.9L581.5 882.9L562.3 886.9L543 889.9L523.4 892L503.8 893.1L484.2 893.2L464.5 892.3L444.9 890.5L425.3 887.7L406 883.9L386.8 879.1L367.8 873.3L349.2 866.7L330.9 859L312.9 850.5L295.4 841.1L278.4 830.8L261.9 819.6L245.9 807.7L230.6 794.9L215.9 781.3L201.9 767.1L188.6 752.1L176 736.5L164.3 720.2L153.3 703.4L143.2 686L134 668.1L125.6 649.7L118.2 631L111.8 611.9L106.2 592.4L101.7 572.7L98.2 552.8L95.6 532.6L94.1 512.4L93.5 492.1L94 471.7L95.5 451.4L98 431.2L101.6 411.1L106.1 391.2L111.6 371.5L118.1 352.1L125.6 333.1L134.1 314.4L143.4 296.1L153.7 278.3L164.9 261L176.9 244.3L189.8 228.2L203.5 212.8L217.9 198L233.1 183.9L248.9 170.7L265.5 158.2L282.6 146.5L300.4 135.7L318.6 125.8L337.4 116.9L356.6 108.8L376.2 101.7L396.2 95.6L416.4 90.5L436.9 86.5L457.6 83.4L478.5 81.4L499.4 80.4L520.4 80.5L541.4 81.6L562.3 83.8L583.1 87L603.8 91.3L624.2 96.6L644.4 102.9L664.2 110.2L683.6 118.6L702.7 127.8L721.2 138.1L739.3 149.2L756.8 161.3L773.7 174.2L789.9 188L805.4 202.6L820.2 218L834.2 234L847.4 250.8L859.8 268.3L871.3 286.4L881.9 305L891.6 324.1L900.2 343.8L908 363.8L914.7 384.3L920.3 405.1L925 426.1L928.5 447.4L931 468.9L932.5 490.4L932.8 512.1L932.1 533.7L930.3 555.3L927.4 576.8L923.5 598.2L918.4 619.4L912.3 640.3L905.2 660.8L897 681.1L887.9 700.9L877.7 720.2L866.6 739.1L854.5 757.3L841.5 775L827.7 792L813 808.3L797.5 823.9L781.2 838.6L764.1 852.6L746.4 865.7L728 877.9L709.1 889.2L689.5 899.6L669.5 908.9L649 917.3L628.1 924.6L606.8 930.9L585.2 936.1L563.3 940.2L541.3 943.3L519.1 945.2L496.8 946L474.5 945.7L452.2 944.3L430 941.8L407.9 938.1L386.1 933.4L364.4 927.6L343.1 920.7L322.1 912.7L301.5 903.6L281.4 893.6L261.7 882.5L242.7 870.5L224.2 857.5L206.4 843.6L189.3 828.8L173 813.1L157.4 796.7L142.7 779.4L128.8 761.5L115.9 742.8L103.9 723.5L92.8 703.6L82.8 683.2L73.7 662.3L65.7 640.9L58.8 619.1L53 597L48.3 574.6L44.7 552L42.3 529.2L41 506.3L40.8 483.3L41.8 460.4L44 437.5L47.2 414.7L51.7 392L57.2 369.7L63.9 347.5L71.7 325.8L80.5 304.4L90.5 283.5L101.4 263.1L113.4 243.2L126.4 224L140.3 205.4L155.2 187.5L170.9 170.4L187.5 154L205 138.5L223.2 123.9L242.1 110.2L261.7 97.4L281.9 85.6L302.7 74.8L324 65.1L345.8 56.5L368.1 48.9L390.7 42.5L413.6 37.2L436.8 33L460.2 30L483.7 28.2L507.3 27.6L530.9 28.1L554.5 29.8L578 32.7L601.4 36.8L624.5 42" opacity="0.12"/></g></svg>