<svg xmlns="http://www.w3.org/2000/svg" viewBox="0 0 1000 1000" preserveAspectRatio="xMidYMid slice" fill="none" stroke-linecap="round" stroke-linejoin="round"><g stroke="#0f3d2e" stroke-width="0.9"><path d="M960 500L959.9 504.6L959.5 509.2L959 513.8L958.2 518.3L957.1 522.9L955.9 527.4L954.4 531.9L952.7 536.3L950.7 540.7L948.6 545L946.2 549.3L943.6 553.5L940.8 557.6L937.8 561.7L934.5 565.7L931.1 569.6L927.4 573.4L923.6 577.1L919.5 580.7L915.2 584.2L910.8 587.6L906.2 590.8L901.3 594L896.3 597L891.1 599.9L885.8 602.6L880.3 605.2L874.6 607.7L868.7 610L862.7 612.2L856.5 614.2L850.2 616.1L843.8 617.8L837.2 619.3L830.5 620.6L823.7 621.8L816.7 622.8L809.6 623.7L802.5 624.3L795.2 624.8L787.8 625.1L780.3 625.2L772.8 625.1L765.2 624.8L757.5 624.4L749.7 623.7L741.9 622.9L734 621.8L726.1 620.6L718.1 619.2L710.1 617.5L702.1 615.7L694 613.7L686 611.5L677.9 609.1L669.8 606.5L661.7 603.7L653.7 600.7L645.6 597.5L637.6 594.1L629.6 590.6L621.6 586.8L613.7 582.9L605.8 578.8L598 574.5L590.2 570L582.5 565.3L574.8 560.5L567.3 555.5L559.8 550.4L552.4 545L545.1 539.6L537.9 533.9L530.8 528.1L523.8 522.2L516.9 516.1L510.2 509.9L503.5 503.5L497 497L490.6 490.4L484.4 483.6L478.3 476.7L472.3 469.8L466.5 462.7L460.9 455.5L455.4 448.2L450 440.8L444.9 433.3L439.9 425.8L435 418.1L430.4 410.4L425.9 402.7L421.6 394.8L417.4 387L413.5 379L409.7 371.1L406.2 363.1L402.8 355L399.6 347L396.6 338.9L393.8 330.8L391.1 322.8L388.7 314.7L386.5 306.6L384.4 298.6L382.6 290.5L381 282.5L379.5 274.6L378.3 266.6L377.2 258.7L376.3 250.9L375.7 243.1L375.2 235.4L374.9 227.8L374.8 220.2L374.9 212.8L375.2 205.4L375.6 198.1L376.3 190.9L377.1 183.9L378.1 176.9L379.3 170L380.6 163.3L382.1 156.7L383.8 150.3L385.6 144L387.6 137.8L389.8 131.8L392.1 125.9L394.6 120.2L397.2 114.7L399.9 109.3L402.8 104.1L405.8 99.1L408.9 94.2L412.2 89.6L415.6 85.1L419 80.8L422.6 76.8L426.3 72.9L430.1 69.2L434 65.7L438 62.5L442 59.4L446.2 56.6L450.4 54L454.6 51.6L459 49.4L463.4 47.5L467.8 45.7L472.3 44.2L476.8 43L481.3 41.9L485.9 41.1L490.4 40.5L495 40.1L499.6 40L504.2 40.1L508.8 40.4L513.4 41L518 41.8L522.5 42.8L527 44L531.5 45.5L535.9 47.2L540.3 49.1L544.7 51.2L548.9 53.6L553.2 56.2L557.3 59L561.4 62L565.4 65.2L569.3 68.6L573.1 72.3L576.8 76.1L580.4 80.2L583.9 84.4L587.3 88.8L590.6 93.5L593.7 98.3L596.8 103.3L599.6 108.4L602.4 113.8L605 119.3L607.5 125L609.8 130.8L612 136.8L614.1 143L615.9 149.3L617.6 155.7L619.2 162.3L620.5 169L621.7 175.8L622.8 182.7L623.6 189.8L624.3 197L624.8 204.2L625.1 211.6L625.2 219.1L625.1 226.6L624.9 234.2L624.4 241.9L623.8 249.7L622.9 257.5L621.9 265.4L620.7 273.3L619.3 281.3L617.7 289.2L615.9 297.3L613.9 305.3L611.7 313.4L609.3 321.5L606.7 329.6L603.9 337.6L600.9 345.7L597.7 353.8L594.4 361.8L590.8 369.8L587.1 377.8L583.2 385.7L579.1 393.6L574.8 401.4L570.4 409.2L565.7 416.9L560.9 424.6L555.9 432.1L550.8 439.6L545.5 447L540 454.3L534.4 461.5L528.6 468.6L522.7 475.6L516.6 482.5L510.4 489.3L504 495.9L497.5 502.5L490.9 508.9L484.2 515.1L477.3 521.2L470.3 527.2L463.2 533L456 538.7L448.8 544.2L441.4 549.5L433.9 554.7L426.4 559.7L418.7 564.6L411 569.3L403.3 573.8L395.5 578.1L387.6 582.2L379.7 586.2L371.7 590L363.7 593.6L355.7 597L347.6 600.2L339.6 603.2L331.5 606L323.4 608.7L315.3 611.1L307.3 613.3L299.2 615.4L291.2 617.3L283.2 618.9L275.2 620.4L267.3 621.6L259.4 622.7L251.5 623.6L243.8 624.3L236 624.8L228.4 625.1L220.8 625.2L213.4 625.1L206 624.9L198.7 624.4L191.5 623.8L184.4 623L177.4 622L170.6 620.8L163.9 619.5L157.3 618L150.8 616.3L144.5 614.5L138.3 612.5L132.2 610.4L126.4 608.1L120.6 605.6L115.1 603.1L109.7 600.3L104.5 597.5L99.5 594.5L94.6 591.3L89.9 588.1L85.5 584.7L81.2 581.2L77.1 577.7L73.2 574L69.5 570.2L66 566.3L62.7 562.3L59.7 558.3L56.8 554.2L54.2 550L51.8 545.7L49.6 541.4L47.6 537L45.9 532.6L44.4 528.1L43.1 523.6L42 519.1L41.1 514.5L40.5 509.9L40.2 505.3L40 500.7L40.1 496.1L40.4 491.5L40.9 487L41.7 482.4L42.7 477.8L43.9 473.3L45.4 468.9L47 464.4L48.9 460L51.1 455.7L53.4 451.4L56 447.2L58.7 443L61.7 439L64.9 435L68.4 431L72 427.2L75.8 423.5L79.8 419.9L84.1 416.4L88.5 413L93.1 409.7L97.9 406.5L102.9 403.5L108 400.6L113.4 397.8L118.9 395.2L124.5 392.7L130.4 390.3L136.3 388.1L142.5 386.1L148.8 384.2L155.2 382.5L161.7 380.9L168.4 379.6L175.2 378.4L182.2 377.3L189.2 376.4L196.4 375.8L203.6 375.3L211 374.9L218.5 374.8L226 374.9L233.6 375.1L241.3 375.5L249 376.2L256.9 377L264.7 378L272.7 379.2L280.6 380.6L288.6 382.2L296.6 384L304.7 386L312.8 388.2L320.8 390.5L328.9 393.1L337 395.9L345.1 398.8L353.1 402L361.2 405.3L369.2 408.9L377.1 412.6L385.1 416.5L393 420.6L400.8 424.8L408.6 429.3L416.3 433.9L423.9 438.7L431.5 443.7L439 448.8L446.4 454.1L453.7 459.6L461 465.2L468.1 470.9L475.1 476.9L482 482.9L488.8 489.1L495.4 495.5L502 502L508.4 508.6L514.6 515.3L520.7 522.2L526.7 529.1L532.5 536.2L538.2 543.4L543.7 550.7L549.1 558L554.3 565.5L559.3 573L564.2 580.6L568.9 588.3L573.4 596.1L577.8 603.9L581.9 611.8L585.9 619.7L589.7 627.7L593.3 635.7L596.7 643.7L599.9 651.7L603 659.8L605.8 667.9L608.5 676L610.9 684L613.2 692.1L615.2 700.2L617.1 708.2L618.8 716.2L620.3 724.2L621.5 732.1L622.6 740L623.5 747.8L624.2 755.6L624.7 763.3L625.1 771L625.2 778.6L625.1 786L624.9 793.4L624.5 800.7L623.8 807.9L623.1 815L622.1 822L620.9 828.9L619.6 835.6L618.1 842.2L616.5 848.7L614.7 855L612.7 861.2L610.6 867.3L608.3 873.2L605.8 878.9L603.3 884.5L600.5 889.9L597.7 895.1L594.7 900.2L591.6 905L588.3 909.7L585 914.2L581.5 918.5L577.9 922.6L574.3 926.5L570.5 930.2L566.6 933.7L562.6 937L558.6 940.1L554.5 942.9L550.3 945.6L546 948L541.7 950.2L537.3 952.2L532.9 954L528.5 955.5L524 956.8L519.4 957.9L514.9 958.8L510.3 959.4L505.7 959.8L501.1 960L496.5 959.9L491.9 959.6L487.3 959.1L482.8 958.4L478.2 957.4L473.7 956.2L469.2 954.8L464.8 953.1L460.4 951.2L456 949.1L451.7 946.8L447.5 944.2L443.4 941.5L439.3 938.5L435.3 935.3L431.4 931.9L427.5 928.3L423.8 924.5L420.2 920.5L416.7 916.3L413.2 911.9L409.9 907.3L406.8 902.5L403.7 897.5L400.8 892.4L398 887.1L395.4 881.6L392.9 875.9L390.5 870.1L388.3 864.1L386.3 858L384.4 851.8L382.6 845.3L381.1 838.8L379.7 832.1L378.4 825.3L377.4 818.4L376.5 811.3L375.8 804.2L375.3 796.9L375 789.6L374.8 782.1L374.9 774.6L375.1 767L375.5 759.3L376.1 751.6L376.9 743.8L377.9 735.9L379.1 728L380.5 720L382.1 712L383.8 704L385.8 696L388 687.9L390.3 679.8L392.9 671.7L395.7 663.7L398.6 655.6L401.7 647.5L405.1 639.5L408.6 631.5L412.3 623.5L416.2 615.6L420.2 607.7L424.5 599.8L428.9 592L433.5 584.3L438.3 576.7L443.3 569.1L448.4 561.6L453.7 554.2L459.1 546.8L464.7 539.6L470.5 532.5L476.4 525.5L482.4 518.6L488.6 511.8L495 505.1L501.4 498.6L508 492.2L514.8 485.9L521.6 479.7L528.6 473.8L535.6 467.9L542.8 462.2L550.1 456.7L557.4 451.3L564.9 446.1L572.4 441.1L580 436.2L587.7 431.5L595.5 426.9L603.3 422.6L611.2 418.4L619.1 414.4L627 410.6L635 407L643 403.6L651.1 400.3L659.2 397.3L667.2 394.4L675.3 391.7L683.4 389.3L691.5 387L699.5 384.9L707.6 383L715.6 381.3L723.5 379.8L731.5 378.5L739.4 377.4L747.2 376.5L755 375.8L762.7 375.3L770.4 375L778 374.8L785.4 374.9L792.8 375.1L800.2 375.5L807.4 376.1L814.5 376.9L821.5 377.8L828.3 379L835.1 380.3L841.7 381.7L848.2 383.4L854.5 385.2L860.8 387.1L866.8 389.3L872.7 391.5L878.5 394L884 396.5L889.5 399.2L894.7 402.1L899.8 405.1L904.6 408.2L909.3 411.4L913.8 414.7L918.2 418.2L922.3 421.8L926.2 425.4L929.9 429.2L933.4 433.1L936.8 437L939.8 441.1L942.7 445.2L945.4 449.4L947.8 453.6L950.1 457.9L952.1 462.3L953.9 466.7L955.4 471.2L956.8 475.7L957.9 480.2L958.7 484.8L959.4 489.3L959.8 493.9L960 498.5L959.9 503.1" opacity="0.15"/></g></svg>