<svg xmlns="http://www.w3.org/2000/svg" viewBox="0 0 1000 1000" preserveAspectRatio="xMidYMid slice" fill="none" stroke-linecap="round" stroke-linejoin="round"><g stroke="#0f3d2e" stroke-width="0.9"><path d="M960 500L959.8 504.6L959.1 509.2L957.9 513.7L956.3 518.3L954.3 522.7L951.8 527.1L948.8 531.5L945.4 535.7L941.5 539.8L937.3 543.9L932.5 547.8L927.4 551.5L921.9 555.2L915.9 558.6L909.6 561.9L902.8 565L895.7 567.9L888.2 570.6L880.3 573.1L872.1 575.4L863.5 577.5L854.6 579.3L845.4 580.9L835.9 582.2L826.1 583.3L816 584.1L805.7 584.6L795.1 584.9L784.2 584.8L773.2 584.5L761.9 583.9L750.4 583L738.8 581.8L727 580.3L715 578.5L702.9 576.4L690.7 574L678.4 571.3L666 568.2L653.5 564.9L641 561.3L628.4 557.4L615.9 553.1L603.3 548.6L590.7 543.8L578.2 538.7L565.7 533.4L553.2 527.7L540.8 521.8L528.6 515.6L516.4 509.2L504.3 502.5L492.4 495.5L480.6 488.4L469 481L457.5 473.4L446.3 465.6L435.2 457.5L424.4 449.4L413.7 441L403.4 432.5L393.2 423.8L383.4 415L373.8 406L364.4 396.9L355.4 387.8L346.7 378.5L338.3 369.2L330.2 359.8L322.4 350.4L314.9 340.9L307.8 331.4L301.1 322L294.6 312.5L288.6 303L282.9 293.6L277.5 284.3L272.5 275L267.9 265.8L263.7 256.7L259.8 247.7L256.3 238.8L253.2 230.1L250.4 221.5L248 213.1L246 204.9L244.3 196.9L243 189.1L242.1 181.6L241.5 174.2L241.3 167.2L241.4 160.3L241.8 153.8L242.6 147.6L243.7 141.6L245.2 136L246.9 130.7L249 125.7L251.3 121.1L253.9 116.8L256.9 112.9L260.1 109.3L263.5 106.2L267.2 103.4L271.1 101L275.3 99L279.7 97.4L284.2 96.3L289 95.5L294 95.2L299.1 95.3L304.3 95.8L309.8 96.7L315.3 98.1L321 99.9L326.7 102.2L332.6 104.9L338.5 108L344.5 111.5L350.5 115.5L356.6 119.9L362.7 124.8L368.8 130L374.9 135.7L381 141.8L387 148.3L393 155.2L399 162.5L404.9 170.2L410.7 178.2L416.4 186.7L422 195.5L427.5 204.6L432.8 214.1L438 224L443.1 234.1L448 244.6L452.7 255.4L457.3 266.4L461.7 277.8L465.8 289.4L469.8 301.2L473.5 313.3L477.1 325.6L480.3 338.1L483.4 350.8L486.2 363.7L488.8 376.8L491.1 389.9L493.1 403.3L494.9 416.7L496.5 430.3L497.7 443.9L498.7 457.6L499.4 471.3L499.8 485.1L500 498.9L499.9 512.7L499.5 526.5L498.8 540.2L497.9 553.9L496.7 567.6L495.2 581.1L493.4 594.6L491.4 607.9L489.2 621.2L486.6 634.2L483.9 647.1L480.9 659.9L477.6 672.4L474.1 684.8L470.4 696.9L466.5 708.8L462.3 720.4L458 731.8L453.5 742.9L448.8 753.7L443.9 764.2L438.9 774.4L433.7 784.3L428.3 793.9L422.9 803.1L417.3 811.9L411.6 820.4L405.8 828.6L399.9 836.3L394 843.7L388 850.6L381.9 857.2L375.9 863.3L369.8 869.1L363.7 874.4L357.6 879.3L351.5 883.8L345.4 887.9L339.4 891.5L333.5 894.7L327.6 897.4L321.9 899.7L316.2 901.6L310.6 903.1L305.2 904.1L299.9 904.7L294.8 904.8L289.8 904.6L285 903.9L280.4 902.8L276 901.3L271.8 899.3L267.8 897L264.1 894.3L260.6 891.2L257.4 887.7L254.4 883.9L251.7 879.6L249.3 875.1L247.2 870.1L245.4 864.9L243.9 859.3L242.8 853.4L241.9 847.2L241.4 840.7L241.3 833.9L241.4 826.9L242 819.6L242.8 812.1L244.1 804.3L245.7 796.4L247.7 788.2L250 779.8L252.7 771.3L255.8 762.6L259.2 753.7L263 744.8L267.2 735.7L271.8 726.5L276.7 717.2L282 707.9L287.6 698.5L293.6 689L300 679.5L306.7 670.1L313.8 660.6L321.2 651.1L328.9 641.7L337 632.3L345.3 622.9L354 613.7L363 604.5L372.3 595.4L381.8 586.5L391.6 577.6L401.7 568.9L412.1 560.4L422.7 552L433.5 543.7L444.5 535.7L455.7 527.9L467.1 520.2L478.7 512.8L490.5 505.6L502.4 498.6L514.4 491.9L526.6 485.4L538.9 479.2L551.2 473.2L563.7 467.5L576.2 462.1L588.7 457L601.3 452.1L613.9 447.6L626.4 443.3L639 439.3L651.5 435.6L664 432.3L676.4 429.2L688.7 426.4L701 424L713.1 421.8L725.1 420L736.9 418.4L748.6 417.2L760.1 416.2L771.4 415.6L782.5 415.2L793.4 415.1L804 415.3L814.4 415.8L824.5 416.6L834.4 417.6L843.9 418.9L853.2 420.4L862.1 422.2L870.7 424.2L879 426.5L886.9 429L894.5 431.6L901.7 434.5L908.5 437.6L914.9 440.9L920.9 444.3L926.6 447.9L931.8 451.6L936.5 455.5L940.9 459.5L944.8 463.6L948.3 467.9L951.3 472.2L953.9 476.6L956 481L957.7 485.5L958.9 490.1L959.7 494.7L960 499.3L959.8 503.9" opacity="0.15"/></g></svg>