<svg xmlns="http://www.w3.org/2000/svg" viewBox="0 0 1000 1000" preserveAspectRatio="xMidYMid slice" fill="none" stroke-linecap="round" stroke-linejoin="round"><g stroke="#0f3d2e" stroke-width="0.9"><path d="M960 500L959.6 504.6L958.4 509.2L956.5 513.7L953.8 518.2L950.3 522.5L946 526.8L941 530.9L935.3 534.9L928.8 538.7L921.6 542.3L913.7 545.7L905.1 548.8L895.8 551.7L885.9 554.4L875.4 556.7L864.3 558.8L852.5 560.5L840.2 561.9L827.4 563L814.1 563.7L800.3 564L786 564L771.3 563.5L756.3 562.7L740.8 561.5L725 559.9L709 557.8L692.6 555.4L676 552.5L659.2 549.3L642.3 545.6L625.2 541.5L608 537L590.7 532.1L573.4 526.8L556.1 521.1L538.9 515.1L521.7 508.7L504.6 501.9L487.6 494.8L470.8 487.3L454.2 479.6L437.8 471.5L421.7 463.1L405.9 454.5L390.4 445.7L375.2 436.6L360.4 427.3L346 417.9L332 408.2L318.5 398.5L305.4 388.6L292.8 378.6L280.8 368.6L269.2 358.5L258.2 348.4L247.8 338.3L237.9 328.3L228.7 318.3L220 308.5L212 298.7L204.6 289.1L197.8 279.7L191.7 270.5L186.2 261.5L181.4 252.7L177.2 244.2L173.6 236.1L170.7 228.3L168.5 220.8L166.9 213.7L165.9 207L165.6 200.7L165.9 194.9L166.8 189.6L168.3 184.7L170.4 180.4L173.1 176.6L176.3 173.3L180.1 170.6L184.4 168.4L189.2 166.9L194.5 165.9L200.3 165.6L206.5 165.9L213.1 166.8L220.2 168.3L227.6 170.5L235.4 173.4L243.6 176.9L252 181L260.7 185.8L269.7 191.2L278.9 197.3L288.4 204L297.9 211.4L307.7 219.4L317.6 228L327.5 237.2L337.5 247L347.6 257.4L357.7 268.3L367.8 279.8L377.8 291.8L387.8 304.4L397.7 317.4L407.5 330.9L417.1 344.9L426.6 359.2L435.9 374L445 389.2L453.8 404.6L462.5 420.5L470.8 436.6L478.9 452.9L486.7 469.5L494.2 486.3L501.3 503.2L508.1 520.3L514.6 537.5L520.7 554.8L526.4 572.1L531.7 589.4L536.6 606.6L541.1 623.8L545.3 640.9L549 657.9L552.3 674.7L555.2 691.3L557.7 707.7L559.7 723.8L561.4 739.6L562.6 755L563.5 770.2L563.9 784.9L564 799.2L563.7 813L563 826.4L562 839.2L560.6 851.6L558.9 863.3L556.9 874.5L554.6 885.1L552 895.1L549.1 904.4L545.9 913L542.6 921L539 928.2L535.2 934.8L531.2 940.6L527.1 945.6L522.9 950L518.5 953.5L514.1 956.3L509.5 958.3L505 959.5L500.4 960L495.8 959.7L491.2 958.6L486.7 956.7L482.2 954L477.8 950.6L473.5 946.4L469.4 941.4L465.4 935.7L461.6 929.3L458 922.2L454.6 914.3L451.4 905.8L448.5 896.6L445.8 886.7L443.4 876.3L441.4 865.2L439.6 853.5L438.2 841.2L437.1 828.5L436.4 815.2L436 801.4L436 787.2L436.4 772.5L437.2 757.5L438.4 742.1L440 726.3L442 710.2L444.4 693.9L447.2 677.4L450.5 660.6L454.1 643.6L458.2 626.6L462.6 609.4L467.5 592.1L472.8 574.8L478.4 557.5L484.4 540.3L490.8 523.1L497.6 506L504.7 489L512.1 472.2L519.8 455.5L527.9 439.1L536.2 423L544.8 407.1L553.6 391.6L562.7 376.4L571.9 361.6L581.4 347.1L591 333.1L600.8 319.5L610.6 306.4L620.6 293.8L630.6 281.7L640.7 270.1L650.8 259.1L660.9 248.6L670.9 238.7L680.9 229.4L690.7 220.7L700.5 212.6L710.1 205.2L719.6 198.3L728.8 192.2L737.8 186.6L746.6 181.7L755.1 177.5L763.3 173.9L771.1 171L778.6 168.7L785.8 167L792.5 166L798.8 165.6L804.6 165.8L810 166.7L814.9 168.2L819.3 170.2L823.1 172.8L826.5 176L829.2 179.7L831.4 184L833 188.8L834 194L834.4 199.8L834.2 206L833.3 212.6L831.8 219.6L829.7 227L826.9 234.8L823.4 242.9L819.3 251.3L814.6 260L809.2 269L803.2 278.2L796.5 287.6L789.2 297.2L781.3 306.9L772.7 316.8L763.6 326.7L753.8 336.7L743.5 346.8L732.6 356.9L721.1 367L709.1 377L696.6 387L683.6 396.9L670.2 406.7L656.3 416.3L641.9 425.8L627.2 435.1L612.1 444.3L596.6 453.1L580.8 461.8L564.7 470.2L548.4 478.3L531.8 486.1L515.1 493.6L498.1 500.8L481 507.6L463.9 514.1L446.6 520.2L429.3 525.9L412 531.3L394.7 536.2L377.5 540.8L360.4 545L343.5 548.7L326.6 552L310 555L293.6 557.5L277.5 559.6L261.7 561.3L246.2 562.5L231 563.4L216.3 563.9L202 564L188.1 563.7L174.7 563.1L161.8 562.1L149.4 560.8L137.6 559.1L126.3 557.1L115.7 554.8L105.7 552.2L96.3 549.3L87.7 546.2L79.6 542.9L72.3 539.3L65.7 535.5L59.9 531.6L54.7 527.5L50.4 523.2L46.7 518.9L43.9 514.4L41.8 509.9L40.5 505.3L40 500.7L40.3 496.1L41.3 491.6L43.2 487L45.8 482.5L49.1 478.2L53.3 473.9L58.1 469.7L63.8 465.7L70.1 461.9L77.2 458.3L85 454.8L93.5 451.6L102.7 448.7L112.5 446L122.9 443.6L133.9 441.5L145.6 439.7L157.8 438.3L170.5 437.2L183.7 436.4L197.5 436L211.7 436L226.3 436.4L241.3 437.1L256.7 438.3L272.4 439.8L288.5 441.8L304.8 444.2L321.3 447L338.1 450.2L355 453.8L372.1 457.8L389.3 462.3L406.5 467.1L423.8 472.3L441.1 477.9L458.4 483.9L475.6 490.3L492.7 497L509.7 504.1L526.5 511.5L543.1 519.2L559.6 527.2L575.7 535.5L591.6 544.1L607.2 552.9L622.4 561.9L637.3 571.2L651.7 580.6L665.8 590.2L679.4 600L692.6 609.8L705.2 619.8L717.4 629.8L729 639.9L740.1 650L750.6 660.1L760.5 670.1L769.9 680.1L778.6 690L786.7 699.7L794.3 709.4L801.1 718.8L807.4 728.1L813 737.1L817.9 745.9L822.2 754.4L825.8 762.6L828.8 770.5L831.2 778.1L832.9 785.2L834 792L834.4 798.3L834.2 804.2L833.4 809.6L832 814.5L830 819L827.4 822.9L824.3 826.2L820.6 829L816.4 831.3L811.6 832.9L806.4 833.9L800.7 834.4L794.5 834.2L787.9 833.4L780.9 831.9L773.6 829.9L765.8 827.1L757.7 823.7L749.3 819.7L740.7 815L731.7 809.7L722.5 803.7L713.2 797.1L703.6 789.8L693.9 781.9L684 773.4L674.1 764.3L664.1 754.6L654 744.3L643.9 733.5L633.8 722.1L623.8 710.1L613.8 697.7L603.9 684.7L594.1 671.3L584.4 657.4L574.9 643.1L565.6 628.4L556.5 613.3L547.6 597.8L538.9 582.1L530.5 566L522.3 549.7L514.5 533.2L507 516.4L499.8 499.5L492.9 482.4L486.4 465.2L480.3 448L474.5 430.7L469.1 413.4L464.1 396.1L459.5 378.9L455.4 361.8L451.6 344.8L448.2 328L445.3 311.3L442.7 294.9L440.6 278.8L438.9 262.9L437.5 247.4L436.6 232.2L436.1 217.4L436 203.1L436.2 189.2L436.8 175.7L437.8 162.8L439.1 150.4L440.8 138.5L442.7 127.2L445 116.5L447.6 106.5L450.4 97.1L453.5 88.3L456.9 80.3L460.4 72.9L464.2 66.2L468.1 60.3L472.2 55.1L476.4 50.7L480.8 47L485.2 44.1L489.7 42L494.3 40.6L498.9 40L503.5 40.2L508.1 41.2L512.6 43L517.1 45.5L521.5 48.8L525.8 52.9L529.9 57.7L534 63.3L537.8 69.6L541.5 76.6L544.9 84.4L548.1 92.8L551.1 101.9L553.8 111.7L556.2 122L558.3 133L560.1 144.6L561.6 156.8L562.7 169.5L563.5 182.7L564 196.4L564 210.5L563.7 225.1L562.9 240.1L561.8 255.5L560.3 271.2L558.4 287.2L556 303.5L553.2 320L550.1 336.7L546.5 353.7L542.5 370.7L538.1 387.9L533.3 405.1L528.1 422.4L522.5 439.7L516.6 457L510.2 474.2L503.5 491.3L496.5 508.3L489.1 525.2L481.4 541.8L473.4 558.3L465.2 574.4L456.6 590.4L447.8 605.9L438.8 621.2L429.6 636.1L420.1 650.6L410.5 664.7L400.8 678.3L390.9 691.5L381 704.2L371 716.4L360.9 728.1L350.8 739.2L340.7 749.8L330.7 759.8L320.7 769.1L310.8 777.9L301 786.1L291.4 793.7L281.9 800.6L272.6 806.9L263.6 812.5L254.8 817.5L246.2 821.9L238 825.6L230.1 828.6L222.5 831L215.3 832.8L208.6 833.9L202.2 834.4L196.3 834.2L190.8 833.5L185.8 832.1L181.4 830.2L177.4 827.6L174 824.5L171.2 820.9L168.9 816.7L167.2 812L166.1 806.8L165.6 801.2L165.8 795L166.5 788.5L167.9 781.5L170 774.2L172.6 766.4L176 758.4L180 750L184.6 741.4L189.9 732.4L195.8 723.3L202.4 713.9L209.6 704.4L217.4 694.6L225.9 684.8L234.9 674.9L244.6 664.9L254.8 654.8L265.7 644.7L277 634.6L288.9 624.6L301.3 614.6L314.3 604.7L327.6 594.9L341.5 585.2L355.8 575.7L370.4 566.3L385.5 557.2L400.9 548.3L416.6 539.6L432.7 531.1L449 523L465.5 515.1L482.3 507.6L499.2 500.3L516.2 493.5L533.4 486.9L550.6 480.8L567.9 475L585.2 469.5L602.5 464.5L619.7 459.9L636.9 455.7L653.9 451.9L670.7 448.5L687.4 445.5L703.8 442.9L719.9 440.7L735.8 439L751.4 437.6L766.6 436.7L781.4 436.1L795.8 436L809.7 436.2L823.2 436.8L836.2 437.7L848.7 439L860.6 440.6L871.9 442.6L882.6 444.8L892.7 447.4L902.2 450.2L911 453.3L919.1 456.6L926.6 460.1L933.3 463.9L939.3 467.8L944.5 471.9L949 476.1L952.7 480.4L955.7 484.9L957.9 489.4L959.3 493.9L960 498.5L959.8 503.1" opacity="0.15"/></g></svg>