<svg xmlns="http://www.w3.org/2000/svg" viewBox="0 0 1000 1000" preserveAspectRatio="xMidYMid slice" fill="none" stroke-linecap="round" stroke-linejoin="round"><g stroke="#0f3d2e" stroke-width="0.9"><path d="M960 500L959.4 504.6L957.6 509.2L954.6 513.6L950.5 518L945.1 522.3L938.7 526.4L931.1 530.2L922.3 533.9L912.5 537.2L901.7 540.3L889.8 543.1L876.9 545.4L863.1 547.5L848.4 549.1L832.8 550.3L816.4 551.1L799.2 551.4L781.3 551.2L762.8 550.5L743.6 549.4L723.9 547.7L703.6 545.5L683 542.8L661.9 539.6L640.5 535.9L618.9 531.6L597.1 526.9L575.1 521.6L553.1 515.9L531.1 509.6L509.1 502.9L487.3 495.8L465.6 488.2L444.1 480.2L423 471.9L402.2 463.2L381.8 454.2L361.9 444.8L342.5 435.3L323.7 425.5L305.5 415.5L288 405.3L271.1 395L255.1 384.7L239.8 374.3L225.4 363.9L211.8 353.6L199.1 343.4L187.4 333.3L176.6 323.3L166.8 313.6L157.9 304.1L150.1 295L143.3 286.2L137.5 277.8L132.8 269.8L129.1 262.2L126.4 255.2L124.8 248.8L124.1 242.9L124.5 237.6L125.9 233L128.3 229L131.7 225.8L136 223.2L141.2 221.5L147.2 220.5L154.2 220.4L162 221L170.5 222.5L179.8 224.8L189.9 228L200.6 232L211.9 236.9L223.8 242.7L236.3 249.3L249.2 256.8L262.6 265.2L276.4 274.3L290.5 284.3L304.9 295.1L319.6 306.7L334.5 319L349.5 332.1L364.6 345.8L379.7 360.3L394.8 375.4L409.9 391L424.9 407.3L439.7 424L454.4 441.3L468.7 459L482.9 477L496.6 495.4L510.1 514.1L523.1 533L535.7 552.1L547.8 571.3L559.4 590.5L570.5 609.8L581 629L591 648.2L600.4 667.1L609.1 685.9L617.2 704.3L624.7 722.5L631.5 740.2L637.6 757.5L643.1 774.3L647.9 790.5L652 806.2L655.4 821.1L658.2 835.4L660.3 848.9L661.8 861.6L662.7 873.4L662.9 884.4L662.5 894.5L661.6 903.6L660 911.7L658 918.7L655.4 924.8L652.4 929.7L648.9 933.6L645 936.3L640.7 937.9L636 938.4L631 937.7L625.7 935.8L620.2 932.9L614.4 928.7L608.5 923.4L602.4 917L596.2 909.5L590 900.8L583.7 891.1L577.4 880.3L571.2 868.4L565 855.6L558.9 841.7L553 827L547.3 811.3L541.8 794.8L536.5 777.5L531.5 759.3L526.8 740.5L522.4 721L518.3 700.9L514.6 680.2L511.3 659.1L508.4 637.4L505.9 615.4L503.8 593.1L502.2 570.5L501 547.7L500.3 524.8L500 501.8L500.2 478.8L500.8 455.9L502 433.1L503.5 410.5L505.5 388.1L507.9 366L510.8 344.4L514 323.1L517.7 302.4L521.7 282.1L526 262.6L530.7 243.6L535.7 225.4L540.9 207.9L546.4 191.3L552.1 175.5L558 160.5L564 146.6L570.2 133.6L576.4 121.6L582.7 110.6L589 100.7L595.2 91.8L601.4 84.1L607.5 77.5L613.5 72L619.3 67.7L624.8 64.6L630.2 62.5L635.2 61.7L639.9 61.9L644.3 63.4L648.3 65.9L651.9 69.6L655 74.4L657.6 80.2L659.8 87.1L661.4 95.1L662.4 104L662.9 113.9L662.7 124.7L662 136.5L660.6 149L658.6 162.4L655.9 176.6L652.6 191.4L648.6 206.9L643.9 223.1L638.5 239.8L632.5 257L625.8 274.7L618.4 292.8L610.4 311.2L601.8 329.9L592.5 348.8L582.7 367.9L572.2 387.1L561.2 406.4L549.7 425.7L537.6 444.9L525.1 464L512.2 482.9L498.8 501.6L485.1 520.1L471 538.2L456.7 555.9L442.1 573.2L427.3 590.1L412.3 606.4L397.3 622.2L382.1 637.4L367 651.9L351.9 665.8L336.9 679L322 691.4L307.3 703.1L292.8 714L278.6 724.1L264.8 733.4L251.3 741.9L238.3 749.5L225.8 756.3L213.8 762.2L202.3 767.2L191.5 771.4L181.4 774.7L172 777.2L163.3 778.8L155.4 779.6L148.3 779.6L142.1 778.7L136.7 777.1L132.3 774.7L128.8 771.6L126.3 767.7L124.7 763.2L124.1 758L124.6 752.2L126.1 745.8L128.6 738.9L132.1 731.5L136.7 723.5L142.3 715.2L149 706.4L156.6 697.3L165.3 687.9L175 678.2L185.6 668.3L197.2 658.3L209.7 648L223.2 637.7L237.5 627.3L252.6 617L268.5 606.6L285.2 596.3L302.6 586.1L320.7 576.1L339.5 566.3L358.8 556.7L378.6 547.3L398.9 538.2L419.6 529.5L440.7 521.1L462.1 513L483.8 505.4L505.6 498.2L527.6 491.4L549.6 485.1L571.6 479.3L593.6 473.9L615.4 469.1L637.1 464.8L658.5 460.9L679.6 457.6L700.4 454.9L720.7 452.6L740.5 450.9L759.7 449.6L778.4 448.9L796.4 448.6L813.7 448.9L830.2 449.6L846 450.7L860.8 452.2L874.8 454.2L887.8 456.5L899.8 459.2L910.9 462.3L920.8 465.6L929.7 469.2L937.5 473L944.2 477.1L949.7 481.3L954 485.7L957.2 490.1L959.2 494.7L960 499.3L959.6 503.9" opacity="0.15"/></g></svg>