<svg xmlns="http://www.w3.org/2000/svg" viewBox="0 0 1000 1000" preserveAspectRatio="xMidYMid slice" fill="none" stroke-linecap="round" stroke-linejoin="round"><g stroke="#0f3d2e" stroke-width="0.9"><path d="M960 500L958.9 504.6L955.4 509.1L949.7 513.5L941.7 517.7L931.6 521.6L919.3 525.2L904.9 528.4L888.5 531.1L870.2 533.4L850.1 535.1L828.2 536.3L804.8 536.8L779.9 536.6L753.7 535.8L726.3 534.2L697.9 531.9L668.5 528.9L638.4 525.2L607.7 520.7L576.6 515.5L545.3 509.6L513.8 503.1L482.4 495.9L451.3 488.1L420.6 479.7L390.4 470.8L360.9 461.5L332.2 451.8L304.6 441.7L278.1 431.4L252.9 420.9L229.1 410.2L206.8 399.6L186.1 389L167.2 378.5L150 368.3L134.7 358.3L121.4 348.8L110.1 339.7L100.8 331.2L93.6 323.4L88.5 316.2L85.5 309.9L84.6 304.4L85.8 299.9L89.1 296.4L94.4 294L101.7 292.6L110.9 292.5L122 293.5L134.8 295.7L149.4 299.2L165.5 304L183.2 310.1L202.2 317.4L222.5 326L243.9 335.9L266.4 347L289.8 359.2L313.9 372.7L338.6 387.2L363.8 402.8L389.3 419.3L415 436.7L440.8 455L466.5 474L491.9 493.6L517 513.8L541.6 534.4L565.6 555.3L588.9 576.4L611.3 597.6L632.7 618.8L653.1 639.8L672.4 660.6L690.4 680.9L707 700.8L722.3 719.9L736.2 738.4L748.6 755.9L759.4 772.5L768.7 787.9L776.3 802.2L782.4 815.1L786.9 826.6L789.8 836.6L791.1 845.1L790.9 851.9L789.1 856.9L785.9 860.3L781.3 861.8L775.3 861.5L768 859.3L759.4 855.2L749.8 849.3L739 841.4L727.3 831.7L714.8 820.2L701.4 806.9L687.4 791.8L672.8 775.1L657.7 756.7L642.2 736.8L626.4 715.4L610.5 692.7L594.6 668.7L578.6 643.6L562.8 617.6L547.3 590.6L532 562.9L517.2 534.6L502.8 505.8L489 476.7L475.9 447.5L463.4 418.2L451.7 389.1L440.8 360.3L430.8 332L421.7 304.3L413.4 277.4L406.2 251.3L399.9 226.4L394.5 202.6L390.2 180.1L386.7 159.1L384.3 139.7L382.7 122L382.1 106.1L382.3 92L383.4 79.9L385.2 69.9L387.8 62L391 56.2L394.9 52.6L399.3 51.3L404.2 52.2L409.5 55.4L415.2 60.8L421.1 68.4L427.3 78.2L433.5 90.2L439.9 104.3L446.2 120.3L452.4 138.4L458.5 158.3L464.4 179.9L470 203.2L475.2 228.1L480.1 254.3L484.5 281.8L488.5 310.4L491.9 340.1L494.7 370.5L497 401.6L498.6 433.3L499.6 465.3L500 497.4L499.7 529.6L498.8 561.6L497.3 593.3L495.1 624.6L492.4 655.1L489 684.9L485.2 713.7L480.8 741.4L476 767.9L470.8 792.9L465.3 816.5L459.5 838.4L453.4 858.6L447.2 876.9L440.9 893.3L434.5 907.7L428.2 920L422.1 930.2L416.1 938.1L410.4 943.9L405 947.4L400 948.7L395.5 947.7L391.6 944.5L388.3 939.1L385.6 931.5L383.6 921.8L382.4 910L382.1 896.3L382.6 880.7L384 863.2L386.3 844.1L389.5 823.3L393.8 801.1L398.9 777.5L405.1 752.7L412.2 726.8L420.3 700L429.3 672.4L439.2 644.2L449.9 615.5L461.5 586.4L473.8 557.2L486.9 527.9L500.6 498.8L514.8 470L529.6 441.6L544.8 413.8L560.3 386.7L576.1 360.4L592 335.2L608 311L623.9 288.1L639.7 266.5L655.2 246.4L670.4 227.8L685.1 210.7L699.2 195.4L712.7 181.8L725.4 170L737.2 160L748.1 151.8L758 145.6L766.7 141.2L774.2 138.7L780.4 138.1L785.3 139.4L788.7 142.4L790.7 147.2L791.2 153.8L790.1 161.9L787.5 171.7L783.2 183L777.4 195.7L770 209.7L761 225L750.4 241.4L738.3 258.8L724.6 277.1L709.6 296.1L693.1 315.9L675.3 336.2L656.3 356.9L636.1 377.9L614.8 399L592.5 420.2L569.4 441.4L545.5 462.3L521 483L496 503.2L470.5 522.9L444.9 542L419.1 560.4L393.4 578L367.8 594.7L342.6 610.4L317.8 625.1L293.6 638.7L270.1 651.2L247.5 662.4L225.8 672.5L205.3 681.3L186.1 688.8L168.2 695.1L151.8 700.1L137 703.8L123.9 706.2L112.5 707.5L103 707.5L95.4 706.3L89.8 704.1L86.2 700.7L84.7 696.3L85.2 691L87.9 684.8L92.6 677.8L99.5 670.1L108.5 661.7L119.5 652.7L132.5 643.2L147.5 633.3L164.3 623.1L183 612.7L203.4 602.1L225.5 591.5L249 580.8L274 570.3L300.3 559.9L327.8 549.8L356.3 540L385.6 530.6L415.7 521.7L446.4 513.2L477.5 505.3L508.8 498L540.3 491.4L571.6 485.4L602.8 480.1L633.6 475.5L663.8 471.6L693.2 468.5L721.8 466.1L749.4 464.4L775.9 463.5L801 463.2L824.6 463.6L846.7 464.7L867.1 466.3L885.7 468.5L902.4 471.1L917.1 474.3L929.8 477.8L940.3 481.7L948.6 485.8L954.6 490.2L958.5 494.7L960 499.3L959.2 503.9" opacity="0.15"/></g></svg>