<svg xmlns="http://www.w3.org/2000/svg" viewBox="0 0 1000 1000" preserveAspectRatio="xMidYMid slice" fill="none" stroke-linecap="round" stroke-linejoin="round"><g stroke="#0f3d2e" stroke-width="0.9"><path d="M960 500L959.8 504.6L959.3 509.2L958.5 513.8L957.3 518.3L955.8 522.8L954 527.3L951.9 531.7L949.4 536L946.6 540.3L943.5 544.5L940 548.6L936.3 552.6L932.2 556.5L927.9 560.3L923.2 564L918.3 567.5L913 570.9L907.5 574.2L901.7 577.3L895.6 580.2L889.3 583L882.7 585.6L875.9 588L868.8 590.2L861.4 592.3L853.9 594.1L846.1 595.8L838.1 597.2L829.9 598.5L821.5 599.5L813 600.3L804.2 600.8L795.3 601.1L786.2 601.2L777 601.1L767.6 600.7L758.1 600.1L748.5 599.2L738.8 598.1L728.9 596.8L719 595.2L709 593.3L698.9 591.2L688.8 588.9L678.6 586.3L668.4 583.4L658.1 580.3L647.8 577L637.6 573.4L627.3 569.5L617 565.5L606.8 561.1L596.6 556.6L586.4 551.8L576.3 546.8L566.2 541.5L556.3 536.1L546.4 530.4L536.6 524.5L526.9 518.4L517.3 512.1L507.8 505.6L498.4 498.9L489.2 492L480.2 484.9L471.2 477.7L462.5 470.3L453.9 462.7L445.5 455L437.3 447.2L429.3 439.2L421.4 431.1L413.8 422.9L406.4 414.5L399.2 406.1L392.2 397.5L385.5 388.9L378.9 380.2L372.7 371.5L366.6 362.7L360.8 353.8L355.3 344.9L350 336L345 327.1L340.2 318.1L335.7 309.2L331.5 300.3L327.5 291.4L323.8 282.5L320.4 273.6L317.2 264.9L314.3 256.2L311.7 247.5L309.4 239L307.3 230.5L305.5 222.1L303.9 213.9L302.6 205.7L301.6 197.8L300.9 189.9L300.4 182.2L300.2 174.6L300.2 167.3L300.5 160.1L301 153.1L301.7 146.2L302.8 139.6L304 133.2L305.5 127L307.1 121.1L309 115.4L311.2 109.9L313.5 104.6L316 99.7L318.7 95L321.6 90.5L324.7 86.4L328 82.5L331.4 78.9L335 75.6L338.7 72.5L342.6 69.8L346.6 67.4L350.7 65.3L355 63.5L359.3 62.1L363.8 60.9L368.3 60.1L373 59.6L377.7 59.4L382.4 59.5L387.3 60L392.1 60.8L397.1 61.9L402 63.3L406.9 65.1L411.9 67.2L416.9 69.7L421.8 72.4L426.8 75.5L431.7 78.9L436.6 82.6L441.4 86.7L446.2 91L450.9 95.7L455.6 100.6L460.1 105.9L464.6 111.5L469 117.3L473.3 123.5L477.5 129.9L481.5 136.6L485.5 143.6L489.2 150.8L492.9 158.3L496.4 166.1L499.7 174.1L502.9 182.3L505.9 190.8L508.8 199.5L511.4 208.3L513.9 217.4L516.2 226.7L518.3 236.2L520.2 245.9L521.9 255.7L523.3 265.7L524.6 275.8L525.6 286.1L526.4 296.5L527 307L527.4 317.7L527.5 328.4L527.5 339.3L527.1 350.2L526.6 361.1L525.8 372.2L524.8 383.3L523.5 394.4L522 405.6L520.3 416.7L518.3 427.9L516.1 439.1L513.7 450.3L511.1 461.4L508.2 472.5L505.1 483.6L501.7 494.6L498.2 505.5L494.4 516.4L490.4 527.1L486.2 537.8L481.8 548.4L477.2 558.8L472.4 569.2L467.4 579.4L462.3 589.4L456.9 599.3L451.4 609.1L445.7 618.6L439.8 628L433.8 637.3L427.7 646.3L421.4 655.1L414.9 663.7L408.4 672.1L401.7 680.2L394.9 688.2L388.1 695.9L381.1 703.3L374 710.5L366.9 717.5L359.7 724.2L352.4 730.7L345.1 736.8L337.8 742.7L330.4 748.4L323 753.7L315.6 758.8L308.2 763.6L300.8 768.1L293.4 772.3L286 776.2L278.7 779.8L271.4 783.1L264.2 786.2L257 788.9L249.9 791.4L243 793.5L236.1 795.4L229.3 797L222.6 798.3L216 799.3L209.6 800L203.3 800.4L197.2 800.5L191.2 800.4L185.4 800L179.8 799.3L174.3 798.3L169.1 797.1L164 795.6L159.2 793.9L154.5 791.9L150.1 789.7L145.9 787.2L142 784.6L138.3 781.6L134.9 778.5L131.7 775.1L128.8 771.6L126.1 767.8L123.7 763.9L121.6 759.8L119.8 755.5L118.2 751L117 746.3L116.1 741.6L115.4 736.6L115.1 731.6L115 726.4L115.3 721.1L115.9 715.7L116.7 710.2L117.9 704.6L119.4 698.9L121.3 693.1L123.4 687.3L125.9 681.5L128.6 675.6L131.7 669.6L135.1 663.7L138.8 657.7L142.8 651.7L147.1 645.7L151.8 639.7L156.7 633.8L161.9 627.9L167.4 622L173.2 616.2L179.3 610.4L185.7 604.7L192.4 599.1L199.3 593.5L206.5 588.1L214 582.7L221.7 577.5L229.7 572.4L237.9 567.4L246.3 562.5L255 557.8L263.9 553.2L273 548.8L282.4 544.5L291.9 540.4L301.6 536.4L311.5 532.7L321.5 529.1L331.8 525.7L342.1 522.5L352.7 519.5L363.3 516.7L374.1 514.1L385 511.7L396 509.6L407.1 507.6L418.3 505.9L429.6 504.3L440.9 503.1L452.3 502L463.7 501.1L475.2 500.5L486.7 500.2L498.2 500L509.7 500.1L521.2 500.4L532.6 500.9L544.1 501.7L555.5 502.7L566.8 503.9L578.1 505.4L589.3 507L600.4 508.9L611.5 511L622.4 513.3L633.2 515.9L644 518.6L654.5 521.5L664.9 524.7L675.2 528L685.3 531.5L695.3 535.2L705.1 539.1L714.6 543.2L724 547.4L733.2 551.8L742.2 556.3L750.9 561L759.4 565.8L767.7 570.8L775.8 575.9L783.6 581.1L791.1 586.4L798.4 591.8L805.4 597.3L812.2 602.9L818.7 608.6L824.8 614.3L830.8 620.1L836.4 626L841.7 631.9L846.7 637.8L851.4 643.8L855.8 649.8L860 655.8L863.8 661.8L867.3 667.7L870.4 673.7L873.3 679.6L875.8 685.5L878.1 691.3L880 697.1L881.6 702.8L882.9 708.4L883.9 713.9L884.6 719.4L884.9 724.7L885 729.9L884.7 735L884.2 740L883.3 744.8L882.2 749.5L880.7 754L879 758.4L877 762.6L874.7 766.6L872.1 770.4L869.3 774L866.2 777.5L862.8 780.7L859.2 783.6L855.3 786.4L851.2 789L846.9 791.3L842.3 793.3L837.6 795.1L832.6 796.7L827.4 798L822 799L816.4 799.8L810.7 800.3L804.7 800.5L798.7 800.5L792.4 800.1L786 799.5L779.5 798.6L772.9 797.4L766.1 795.9L759.3 794.2L752.3 792.1L745.2 789.7L738.1 787.1L730.9 784.1L723.6 780.9L716.3 777.4L709 773.5L701.6 769.4L694.2 765L686.8 760.3L679.4 755.4L672 750.1L664.6 744.6L657.2 738.7L649.9 732.6L642.6 726.3L635.4 719.7L628.2 712.8L621.2 705.7L614.2 698.3L607.2 690.7L600.4 682.8L593.7 674.7L587.1 666.4L580.7 657.8L574.3 649.1L568.1 640.1L562.1 631L556.1 621.7L550.4 612.1L544.8 602.5L539.4 592.6L534.2 582.6L529.1 572.4L524.3 562.2L519.6 551.7L515.2 541.2L510.9 530.6L506.8 519.8L503 509L499.4 498.1L496 487.1L492.8 476L489.8 464.9L487.1 453.8L484.6 442.7L482.3 431.5L480.3 420.3L478.5 409.1L476.9 398L475.6 386.8L474.5 375.7L473.6 364.7L473 353.7L472.6 342.7L472.5 331.9L472.5 321.1L472.8 310.4L473.3 299.9L474.1 289.4L475.1 279.1L476.3 268.9L477.7 258.9L479.3 249L481.1 239.3L483.1 229.7L485.3 220.4L487.8 211.2L490.4 202.3L493.1 193.5L496.1 185L499.2 176.7L502.5 168.6L506 160.8L509.6 153.2L513.3 145.9L517.2 138.8L521.2 132L525.4 125.5L529.6 119.3L534 113.3L538.4 107.7L543 102.3L547.6 97.2L552.3 92.5L557.1 88L561.9 83.9L566.7 80.1L571.6 76.5L576.6 73.4L581.5 70.5L586.5 68L591.5 65.8L596.4 63.9L601.4 62.3L606.3 61.1L611.2 60.2L616 59.6L620.8 59.4L625.5 59.5L630.2 59.9L634.8 60.6L639.3 61.7L643.7 63L647.9 64.7L652.1 66.7L656.2 69L660.1 71.6L663.8 74.6L667.5 77.8L670.9 81.3L674.3 85.1L677.4 89.2L680.4 93.5L683.1 98.1L685.7 103L688.1 108.2L690.3 113.6L692.3 119.2L694 125.1L695.6 131.2L696.9 137.6L698 144.1L698.8 150.9L699.4 157.8L699.8 165L699.9 172.3L699.7 179.8L699.3 187.4L698.6 195.2L697.7 203.2L696.5 211.3L695.1 219.5L693.3 227.8L691.3 236.3L689.1 244.8L686.5 253.4L683.7 262.1L680.7 270.8L677.3 279.7L673.7 288.5L669.8 297.4L665.7 306.3L661.2 315.3L656.6 324.2L651.6 333.2L646.4 342.1L640.9 351L635.2 359.9L629.3 368.7L623.1 377.5L616.6 386.2L610 394.8L603.1 403.4L595.9 411.8L588.6 420.2L581 428.5L573.3 436.6L565.3 444.6L557.1 452.5L548.8 460.3L540.3 467.9L531.6 475.3L522.7 482.6L513.7 489.7L504.5 496.7L495.2 503.4L485.8 510L476.2 516.4L466.5 522.6L456.8 528.5L446.9 534.3L436.9 539.8L426.9 545.1L416.8 550.2L406.7 555.1L396.5 559.7L386.2 564.1L376 568.3L365.7 572.2L355.4 575.9L345.2 579.3L334.9 582.5L324.7 585.4L314.5 588.1L304.3 590.5L294.2 592.7L284.2 594.6L274.2 596.3L264.4 597.7L254.6 598.9L244.9 599.9L235.4 600.6L226 601L216.7 601.2L207.6 601.2L198.6 600.9L189.8 600.5L181.2 599.7L172.7 598.8L164.5 597.6L156.4 596.3L148.6 594.7L140.9 592.9L133.5 590.9L126.4 588.7L119.4 586.4L112.8 583.8L106.3 581.1L100.2 578.2L94.3 575.2L88.7 572L83.4 568.6L78.3 565.1L73.6 561.5L69.1 557.7L65 553.9L61.1 549.9L57.6 545.8L54.4 541.6L51.5 537.4L48.9 533.1L46.6 528.7L44.7 524.2L43.1 519.7L41.8 515.2L40.9 510.6L40.3 506.1L40 501.5L40.1 496.9L40.5 492.3L41.2 487.7L42.3 483.1L43.6 478.6L45.4 474.1L47.4 469.7L49.8 465.3L52.5 461.1L55.5 456.8L58.8 452.7L62.5 448.7L66.4 444.7L70.7 440.9L75.3 437.2L80.1 433.6L85.3 430.2L90.7 426.9L96.4 423.7L102.4 420.7L108.6 417.9L115.2 415.2L121.9 412.7L128.9 410.4L136.2 408.3L143.7 406.4L151.4 404.7L159.3 403.2L167.4 401.9L175.8 400.8L184.3 400L193 399.3L201.8 398.9L210.9 398.8L220.1 398.8L229.4 399.1L238.9 399.7L248.4 400.5L258.1 401.5L267.9 402.8L277.8 404.3L287.8 406.1L297.9 408.1L308 410.3L318.2 412.9L328.4 415.6L338.6 418.7L348.9 421.9L359.2 425.5L369.4 429.2L379.7 433.2L390 437.5L400.2 441.9L410.4 446.7L420.5 451.6L430.6 456.8L440.6 462.2L450.5 467.8L460.3 473.6L470.1 479.7L479.7 485.9L489.2 492.3L498.6 499L507.9 505.8L517 512.8L525.9 520L534.7 527.3L543.4 534.8L551.8 542.5L560.1 550.3L568.2 558.2L576.1 566.3L583.8 574.5L591.3 582.8L598.5 591.2L605.6 599.7L612.4 608.3L619 617L625.4 625.7L631.5 634.5L637.3 643.4L643 652.2L648.3 661.1L653.4 670.1L658.3 679L662.9 688L667.2 696.9L671.2 705.8L675 714.7L678.6 723.5L681.8 732.3L684.8 741.1L687.5 749.7L689.9 758.3L692.1 766.8L694 775.2L695.6 783.5L697 791.7L698.1 799.7L698.9 807.6L699.5 815.4L699.8 823L699.8 830.4L699.7 837.7L699.2 844.7L698.5 851.6L697.6 858.3L696.4 864.8L695 871L693.4 877.1L691.6 882.8L689.5 888.4L687.3 893.7L684.8 898.8L682.2 903.6L679.3 908.1L676.3 912.4L673.1 916.3L669.7 920L666.2 923.4L662.5 926.5L658.7 929.3L654.7 931.8L650.6 934L646.4 935.9L642.1 937.5L637.6 938.8L633.1 939.7L628.5 940.3L623.8 940.6L619.1 940.6L614.3 940.2L609.4 939.5L604.5 938.5L599.6 937.2L594.6 935.5L589.7 933.5L584.7 931.2L579.7 928.5L574.8 925.5L569.9 922.2L565 918.6L560.1 914.7L555.3 910.4L550.6 905.8L545.9 901L541.3 895.8L536.8 890.3L532.4 884.6L528.1 878.5L523.8 872.2L519.8 865.5L515.8 858.7L511.9 851.5L508.3 844.1L504.7 836.4L501.3 828.5L498.1 820.3L495 811.9L492.1 803.3L489.4 794.5L486.9 785.5L484.5 776.2L482.4 766.8L480.4 757.2L478.7 747.4L477.1 737.5L475.8 727.4L474.7 717.2L473.8 706.8L473.1 696.3L472.7 685.7L472.5 675L472.5 664.2L472.7 653.3L473.2 642.4L473.9 631.3L474.9 620.3L476.1 609.1L477.5 598L479.1 586.8L481 575.6L483.1 564.5L485.5 553.3L488.1 542.1L490.9 531L493.9 519.9L497.2 508.9L500.7 498L504.4 487.1L508.3 476.3L512.4 465.6L516.7 455L521.3 444.5L526 434.1L530.9 423.9L536.1 413.8L541.4 403.8L546.8 394L552.5 384.4L558.3 374.9L564.2 365.7L570.3 356.6L576.6 347.7L583 339L589.5 330.6L596.1 322.3L602.9 314.3L609.7 306.6L616.7 299L623.7 291.7L630.8 284.7L638 277.9L645.3 271.4L652.6 265.1L659.9 259.1L667.3 253.4L674.7 248L682.1 242.8L689.5 237.9L696.9 233.3L704.3 229L711.7 225L719 221.3L726.3 217.9L733.5 214.7L740.7 211.9L747.8 209.4L754.8 207.1L761.8 205.2L768.6 203.5L775.3 202.1L781.9 201L788.4 200.2L794.7 199.7L800.9 199.5L806.9 199.5L812.8 199.9L818.5 200.5L824 201.3L829.3 202.5L834.4 203.9L839.3 205.5L844 207.4L848.5 209.6L852.8 211.9L856.8 214.6L860.5 217.4L864.1 220.5L867.3 223.8L870.3 227.3L873.1 230.9L875.6 234.8L877.8 238.9L879.7 243.2L881.3 247.6L882.6 252.2L883.7 256.9L884.4 261.8L884.9 266.8L885 271.9L884.8 277.2L884.4 282.6L883.6 288.1L882.5 293.6L881.1 299.3L879.3 305L877.3 310.8L875 316.7L872.3 322.6L869.3 328.5L866 334.4L862.4 340.4L858.5 346.4L854.3 352.4L849.8 358.4L844.9 364.3L839.8 370.2L834.4 376.1L828.6 382L822.6 387.8L816.3 393.5L809.8 399.1L802.9 404.7L795.8 410.2L788.4 415.6L780.8 420.8L772.9 426L764.7 431L756.4 436L747.8 440.7L738.9 445.4L729.9 449.9L720.6 454.2L711.2 458.3L701.5 462.3L691.7 466.2L681.7 469.8L671.5 473.2L661.2 476.5L650.7 479.6L640.1 482.4L629.3 485.1L618.5 487.5L607.5 489.8L596.4 491.8L585.3 493.6L574 495.2L562.7 496.6L551.3 497.7L539.9 498.6L528.5 499.3L517 499.7L505.5 500L494 500L482.5 499.7L471 499.3L459.6 498.6L448.2 497.7L436.8 496.5L425.5 495.1L414.2 493.5L403.1 491.7L392 489.7L381 487.4L370.2 485L359.4 482.3L348.8 479.4L338.4 476.4L328 473.1L317.9 469.6L307.9 466L298 462.2L288.4 458.2L279 454L269.7 449.7L260.7 445.2L251.8 440.5L243.2 435.7L234.9 430.8L226.8 425.8L218.9 420.6L211.2 415.3L203.9 409.9L196.8 404.5L189.9 398.9L183.4 393.2L177.1 387.5L171.1 381.7L165.4 375.9L160 370L154.9 364.1L150 358.1L145.5 352.1L141.3 346.1L137.4 340.2L133.8 334.2L130.5 328.2L127.6 322.3L124.9 316.4L122.6 310.6L120.6 304.8L118.9 299L117.5 293.4L116.4 287.8L115.6 282.3L115.1 277L115 271.7L115.2 266.6L115.6 261.6L116.4 256.7L117.4 252L118.8 247.4L120.4 243L122.3 238.7L124.5 234.7L127 230.8L129.8 227.1L132.8 223.6L136.1 220.3L139.6 217.3L143.4 214.4L147.4 211.8L151.7 209.5L156.2 207.3L160.9 205.4L165.8 203.8L170.9 202.4L176.3 201.3L181.8 200.4L187.5 199.8L193.3 199.5L199.4 199.5L205.6 199.7L211.9 200.3L218.4 201.1L225 202.2L231.7 203.6L238.5 205.2L245.5 207.2L252.5 209.5L259.6 212L266.8 214.9L274 218L281.3 221.5L288.7 225.2L296 229.2L303.4 233.5L310.8 238.1L318.3 243L325.7 248.2L333.1 253.7L340.4 259.4L347.8 265.4L355.1 271.7L362.3 278.2L369.5 285L376.6 292L383.6 299.3L390.6 306.9L397.4 314.7L404.2 322.7L410.8 330.9L417.3 339.4L423.7 348.1L429.9 357L436 366.1L442 375.3L447.8 384.8L453.4 394.4L458.9 404.2L464.2 414.2L469.3 424.3L474.2 434.6L478.9 444.9L483.4 455.4L487.8 466L491.9 476.8L495.8 487.6L499.5 498.5L503 509.4L506.2 520.4L509.3 531.5L512.1 542.6L514.6 553.8L517 565L519.1 576.1L521 587.3L522.6 598.5L524 609.6L525.2 620.7L526.1 631.8L526.8 642.8L527.3 653.8L527.5 664.7L527.5 675.5L527.3 686.2L526.8 696.8L526.2 707.3L525.3 717.6L524.1 727.9L522.8 738L521.3 747.9L519.5 757.7L517.5 767.2L515.4 776.7L513 785.9L510.5 794.9L507.8 803.7L504.9 812.3L501.8 820.7L498.5 828.8L495.1 836.8L491.6 844.4L487.9 851.8L484 859L480.1 865.8L476 872.4L471.8 878.8L467.4 884.8L463 890.6L458.5 896L453.9 901.2L449.2 906.1L444.5 910.6L439.7 914.8L434.8 918.8L429.9 922.4L425 925.7L420 928.6L415.1 931.3L410.1 933.6L405.1 935.6L400.2 937.2L395.3 938.6L390.4 939.6L385.5 940.2L380.7 940.6L376 940.6L371.3 940.3L366.7 939.7L362.2 938.7L357.7 937.4L353.4 935.9L349.2 934L345.1 931.7L341.2 929.2L337.3 926.4L333.7 923.3L330.1 919.9L326.8 916.2L323.6 912.2L320.6 907.9L317.7 903.4L315.1 898.6L312.6 893.5L310.4 888.2L308.3 882.6L306.5 876.8L304.9 870.7L303.5 864.5L302.4 858L301.4 851.3L300.8 844.4L300.3 837.3L300.2 830.1L300.2 822.6L300.5 815L301.1 807.3L302 799.4L303.1 791.3L304.4 783.1L306.1 774.8L308 766.4L310.2 757.9L312.6 749.4L315.3 740.7L318.3 731.9L321.6 723.2L325.1 714.3L328.9 705.4L333 696.5L337.3 687.6L341.9 678.6L346.8 669.7L351.9 660.8L357.3 651.8L362.9 643L368.8 634.1L374.9 625.3L381.3 616.6L387.9 607.9L394.7 599.3L401.8 590.8L409.1 582.4L416.5 574.1L424.2 566L432.2 557.9L440.3 550L448.5 542.2L457 534.5L465.7 527L474.5 519.7L483.4 512.5L492.6 505.5L501.8 498.7L511.2 492.1L520.7 485.6L530.4 479.4L540.1 473.4L549.9 467.5L559.9 461.9L569.9 456.5L580 451.4L590.1 446.4L600.3 441.7L610.5 437.3L620.8 433L631 429L641.3 425.3L651.6 421.8L661.8 418.5L672.1 415.5L682.3 412.8L692.5 410.2L702.6 408L712.6 406L722.6 404.2L732.5 402.7L742.3 401.4L752 400.4L761.6 399.6L771 399.1L780.3 398.8L789.5 398.8L798.6 398.9L807.4 399.4L816.1 400L824.6 400.9L832.9 402L841 403.3L849 404.8L856.7 406.5L864.1 408.4L871.4 410.5L878.4 412.9L885.1 415.3L891.6 418L897.9 420.8L903.8 423.9L909.6 427L915 430.3L920.1 433.8L925 437.4L929.5 441.1L933.7 444.9L937.7 448.8L941.3 452.9L944.6 457L947.6 461.2L950.3 465.5L952.7 469.9L954.7 474.3L956.4 478.8L957.8 483.3L958.8 487.9L959.6 492.5L959.9 497.1L960 501.7" opacity="0.15"/></g></svg>