<svg xmlns="http://www.w3.org/2000/svg" viewBox="0 0 1000 1000" preserveAspectRatio="xMidYMid slice" fill="none" stroke-linecap="round" stroke-linejoin="round"><g stroke="#0f3d2e" stroke-width="0.9"><path d="M960 500L959.7 504.6L958.8 509.2L957.3 513.7L955.1 518.2L952.4 522.6L949.1 527L945.2 531.2L940.7 535.3L935.6 539.3L930 543.1L923.8 546.8L917 550.3L909.7 553.6L901.9 556.6L893.6 559.5L884.8 562.1L875.5 564.4L865.7 566.5L855.5 568.4L844.8 569.9L833.7 571.1L822.3 572.1L810.4 572.7L798.2 573L785.7 572.9L772.8 572.6L759.7 571.9L746.3 570.8L732.6 569.4L718.7 567.6L704.5 565.5L690.2 563L675.8 560.2L661.2 557L646.5 553.5L631.7 549.6L616.8 545.3L601.9 540.7L586.9 535.7L572 530.4L557.1 524.8L542.3 518.9L527.5 512.6L512.8 506L498.3 499.2L483.8 492L469.6 484.6L455.5 476.8L441.7 468.9L428 460.7L414.7 452.3L401.5 443.6L388.7 434.8L376.2 425.8L364 416.6L352.1 407.3L340.6 397.8L329.5 388.3L318.7 378.6L308.3 368.9L298.4 359.1L288.9 349.3L279.8 339.4L271.1 329.6L262.9 319.8L255.2 310L247.9 300.3L241.1 290.7L234.8 281.1L229 271.7L223.7 262.5L218.9 253.4L214.5 244.5L210.7 235.8L207.3 227.4L204.5 219.1L202.1 211.2L200.3 203.5L198.9 196.1L198 189.1L197.6 182.4L197.7 176L198.2 170L199.2 164.4L200.6 159.2L202.5 154.4L204.8 150L207.5 146.1L210.6 142.7L214.1 139.7L217.9 137.2L222.2 135.1L226.8 133.6L231.7 132.6L236.9 132.1L242.4 132.1L248.3 132.7L254.4 133.7L260.7 135.4L267.3 137.5L274 140.2L281 143.5L288.2 147.2L295.5 151.6L302.9 156.4L310.5 161.8L318.1 167.7L325.9 174.2L333.7 181.2L341.5 188.7L349.4 196.7L357.3 205.2L365.2 214.2L373 223.6L380.8 233.6L388.5 244L396.1 254.8L403.6 266.1L411 277.7L418.3 289.8L425.4 302.3L432.3 315.1L439.1 328.2L445.6 341.7L452 355.5L458.1 369.6L464 383.9L469.6 398.5L475 413.3L480.1 428.3L484.9 443.5L489.5 458.9L493.7 474.4L497.6 490L501.3 505.7L504.6 521.4L507.6 537.2L510.2 553L512.6 568.8L514.6 584.5L516.3 600.2L517.6 615.9L518.6 631.4L519.3 646.8L519.7 662L519.7 677L519.4 691.9L518.8 706.5L517.9 720.9L516.7 735L515.1 748.8L513.3 762.3L511.2 775.4L508.9 788.3L506.3 800.7L503.4 812.7L500.3 824.4L496.9 835.6L493.3 846.3L489.6 856.6L485.6 866.4L481.5 875.7L477.2 884.6L472.8 892.8L468.2 900.6L463.5 907.8L458.7 914.5L453.9 920.6L449 926.1L444 931.1L439 935.4L434 939.2L429 942.4L424 945L419 947L414.1 948.4L409.3 949.2L404.6 949.3L400 948.9L395.5 947.9L391.2 946.3L387 944.1L383 941.3L379.2 938L375.6 934.1L372.2 929.6L369 924.6L366.1 919L363.5 912.9L361.2 906.3L359.1 899.2L357.4 891.7L356 883.6L354.9 875.1L354.1 866.1L353.7 856.7L353.6 847L353.9 836.8L354.6 826.2L355.7 815.3L357.1 804.1L359 792.6L361.2 780.8L363.8 768.7L366.8 756.3L370.2 743.8L374 731L378.2 718.1L382.8 705L387.9 691.8L393.2 678.4L399 665L405.2 651.5L411.7 637.9L418.7 624.4L425.9 610.8L433.6 597.3L441.5 583.8L449.8 570.4L458.5 557L467.4 543.8L476.7 530.7L486.2 517.8L496 505L506.1 492.5L516.4 480.1L526.9 468L537.7 456.1L548.6 444.5L559.7 433.2L571 422.2L582.4 411.5L593.9 401.1L605.5 391L617.2 381.3L629 372L640.7 363.1L652.6 354.5L664.4 346.4L676.1 338.7L687.9 331.3L699.5 324.4L711.1 318L722.6 311.9L733.9 306.3L745.1 301.2L756.1 296.5L766.9 292.2L777.4 288.4L787.8 285L797.8 282.1L807.6 279.6L817.1 277.6L826.3 276L835.1 274.8L843.6 274.1L851.7 273.8L859.4 273.9L866.7 274.4L873.6 275.3L880 276.5L886 278.2L891.5 280.2L896.5 282.6L901 285.3L905 288.3L908.5 291.7L911.4 295.3L913.9 299.3L915.7 303.5L917.1 307.9L917.8 312.6L918 317.5L917.6 322.6L916.7 327.9L915.2 333.4L913.1 339L910.4 344.8L907.1 350.7L903.3 356.6L898.9 362.7L893.9 368.8L888.3 374.9L882.2 381.1L875.6 387.3L868.3 393.4L860.6 399.6L852.3 405.7L843.5 411.7L834.2 417.6L824.5 423.5L814.2 429.2L803.4 434.8L792.3 440.3L780.6 445.6L768.6 450.7L756.1 455.6L743.3 460.3L730.1 464.8L716.6 469.1L702.7 473.2L688.5 477L674 480.5L659.3 483.8L644.3 486.7L629.2 489.4L613.8 491.8L598.2 493.9L582.5 495.7L566.7 497.2L550.7 498.4L534.7 499.3L518.7 499.8L502.6 500L486.5 499.9L470.4 499.5L454.4 498.7L438.4 497.6L422.5 496.2L406.8 494.5L391.2 492.5L375.7 490.2L360.5 487.6L345.4 484.7L330.6 481.6L316.1 478.1L301.8 474.4L287.8 470.4L274.2 466.2L260.9 461.8L247.9 457.1L235.3 452.3L223.2 447.2L211.4 442L200.1 436.6L189.2 431L178.8 425.3L168.8 419.5L159.4 413.6L150.4 407.6L142 401.5L134.1 395.4L126.7 389.2L119.8 383.1L113.6 376.9L107.8 370.7L102.7 364.6L98.1 358.5L94.1 352.6L90.6 346.6L87.7 340.9L85.5 335.2L83.7 329.7L82.6 324.3L82 319.1L82.1 314.2L82.6 309.4L83.8 304.9L85.5 300.6L87.7 296.6L90.5 292.8L93.8 289.4L97.7 286.2L102 283.4L106.9 280.9L112.2 278.8L118.1 277L124.3 275.6L131.1 274.6L138.2 274L145.8 273.8L153.8 274L162.1 274.6L170.9 275.6L179.9 277L189.3 278.9L199 281.3L209 284.1L219.3 287.3L229.8 290.9L240.5 295.1L251.4 299.6L262.5 304.6L273.8 310.1L285.2 316L296.8 322.3L308.4 329.1L320.1 336.3L331.9 343.9L343.7 351.9L355.5 360.3L367.3 369.1L379.1 378.3L390.8 387.9L402.4 397.8L414 408.1L425.4 418.7L436.7 429.6L447.9 440.9L458.9 452.4L469.7 464.2L480.3 476.2L490.7 488.5L500.8 501L510.7 513.7L520.3 526.6L529.7 539.6L538.7 552.8L547.4 566.1L555.9 579.5L563.9 593L571.7 606.5L579.1 620.1L586.1 633.6L592.8 647.2L599 660.7L605 674.1L610.5 687.5L615.6 700.8L620.3 713.9L624.7 726.9L628.6 739.7L632.2 752.4L635.3 764.8L638 776.9L640.4 788.8L642.3 800.5L643.9 811.8L645.1 822.8L645.9 833.5L646.3 843.8L646.4 853.7L646.1 863.2L645.4 872.3L644.4 880.9L643.1 889.1L641.5 896.9L639.5 904.1L637.3 910.9L634.7 917.1L631.9 922.9L628.9 928.1L625.5 932.7L622 936.8L618.3 940.3L614.3 943.3L610.2 945.7L605.9 947.5L601.5 948.7L596.9 949.3L592.2 949.3L587.4 948.7L582.5 947.5L577.6 945.7L572.6 943.3L567.6 940.3L562.6 936.7L557.6 932.5L552.6 927.8L547.7 922.4L542.8 916.5L538 910L533.3 903L528.7 895.4L524.2 887.3L519.9 878.6L515.7 869.4L511.7 859.8L507.8 849.6L504.2 839L500.8 828L497.6 816.5L494.6 804.6L491.9 792.3L489.5 779.6L487.3 766.5L485.4 753.1L483.8 739.4L482.5 725.4L481.5 711.1L480.8 696.6L480.4 681.8L480.3 666.8L480.5 651.6L481.1 636.3L482 620.8L483.3 605.2L484.8 589.6L486.8 573.8L489 558L491.5 542.2L494.4 526.4L497.6 510.7L501.2 495L505 479.3L509.1 463.8L513.6 448.4L518.3 433.2L523.3 418.1L528.6 403.2L534.2 388.5L540 374.1L546 360L552.3 346.1L558.8 332.5L565.5 319.2L572.4 306.3L579.4 293.7L586.7 281.5L594 269.7L601.5 258.3L609.1 247.4L616.8 236.8L624.5 226.8L632.3 217.1L640.2 208L648.1 199.3L655.9 191.2L663.8 183.5L671.6 176.4L679.4 169.7L687.1 163.6L694.7 158.1L702.2 153L709.5 148.6L716.7 144.6L723.8 141.2L730.6 138.3L737.2 136L743.7 134.2L749.8 133L755.7 132.2L761.4 132.1L766.7 132.4L771.7 133.2L776.4 134.6L780.7 136.5L784.7 138.8L788.4 141.7L791.6 145L794.4 148.8L796.8 153L798.8 157.6L800.4 162.7L801.5 168.2L802.2 174.1L802.4 180.3L802.2 186.9L801.4 193.9L800.2 201.1L798.5 208.7L796.3 216.6L793.6 224.7L790.4 233.1L786.8 241.7L782.6 250.6L777.9 259.6L772.7 268.8L767.1 278.1L760.9 287.6L754.3 297.2L747.2 306.9L739.6 316.6L731.6 326.5L723 336.3L714.1 346.1L704.7 356L694.9 365.8L684.6 375.5L674 385.2L663 394.8L651.6 404.3L639.8 413.7L627.7 422.9L615.3 431.9L602.6 440.8L589.5 449.5L576.2 458L562.7 466.3L548.9 474.3L534.9 482.1L520.7 489.7L506.3 496.9L491.8 503.9L477.2 510.5L462.5 516.9L447.6 523L432.7 528.7L417.8 534.1L402.9 539.1L388 543.9L373.1 548.2L358.2 552.3L343.5 555.9L328.9 559.2L314.4 562.2L300 564.8L285.8 567L271.8 568.9L258.1 570.4L244.6 571.6L231.3 572.4L218.4 572.9L205.7 573L193.4 572.8L181.5 572.3L169.9 571.5L158.7 570.3L147.9 568.9L137.5 567.2L127.6 565.1L118.2 562.9L109.2 560.3L100.7 557.6L92.7 554.6L85.3 551.3L78.3 547.9L72 544.3L66.1 540.5L60.9 536.6L56.2 532.5L52.1 528.3L48.6 524L45.7 519.6L43.4 515.2L41.6 510.6L40.5 506.1L40 501.5L40.1 496.9L40.9 492.3L42.2 487.7L44.1 483.2L46.7 478.8L49.8 474.4L53.5 470.1L57.8 466L62.7 461.9L68.2 458.1L74.2 454.3L80.8 450.8L87.9 447.5L95.6 444.3L103.7 441.4L112.4 438.7L121.5 436.3L131.2 434.1L141.2 432.2L151.7 430.6L162.7 429.2L174 428.2L185.8 427.5L197.8 427.1L210.3 427L223 427.3L236.1 427.9L249.4 428.8L263 430.1L276.9 431.8L290.9 433.8L305.2 436.1L319.6 438.8L334.2 441.9L348.8 445.4L363.6 449.2L378.5 453.3L393.4 457.8L408.3 462.6L423.2 467.8L438.1 473.3L453 479.2L467.8 485.4L482.5 491.8L497.1 498.6L511.6 505.7L525.9 513L540 520.7L553.9 528.5L567.6 536.7L581.1 545L594.3 553.6L607.2 562.4L619.9 571.3L632.2 580.5L644.1 589.7L655.8 599.1L667 608.7L677.9 618.3L688.4 628L698.5 637.8L708.2 647.6L717.4 657.4L726.2 667.3L734.5 677.1L742.4 686.9L749.8 696.6L756.8 706.3L763.2 715.8L769.2 725.3L774.7 734.6L779.7 743.7L784.2 752.7L788.1 761.4L791.6 770L794.6 778.3L797.2 786.3L799.2 794.1L800.7 801.5L801.7 808.7L802.3 815.5L802.4 822L802 828.1L801.2 833.9L799.9 839.2L798.2 844.1L796 848.6L793.4 852.7L790.5 856.3L787.1 859.4L783.3 862.1L779.2 864.3L774.7 865.9L769.9 867.1L764.8 867.8L759.3 867.9L753.6 867.6L747.6 866.7L741.4 865.2L734.9 863.2L728.1 860.7L721.2 857.6L714.1 854L706.9 849.9L699.5 845.2L691.9 840L684.3 834.2L676.6 827.9L668.8 821.1L661 813.8L653.1 805.9L645.2 797.6L637.3 788.7L629.5 779.4L621.7 769.6L614 759.4L606.3 748.7L598.8 737.6L591.3 726L584 714.1L576.9 701.8L569.9 689.1L563 676L556.4 662.6L550 648.9L543.8 634.9L537.9 620.7L532.1 606.2L526.7 591.4L521.5 576.5L516.6 561.3L511.9 546L507.6 530.6L503.6 515L499.9 499.3L496.4 483.6L493.3 467.8L490.6 452L488.1 436.2L486 420.5L484.2 404.7L482.8 389.1L481.7 373.6L480.9 358.1L480.4 342.9L480.3 327.7L480.5 312.8L481 298.1L481.8 283.7L482.9 269.5L484.3 255.6L486.1 242L488.1 228.7L490.3 215.8L492.9 203.2L495.7 191.1L498.7 179.3L502 168L505.5 157.1L509.2 146.6L513.1 136.7L517.2 127.2L521.4 118.2L525.8 109.7L530.3 101.8L535 94.4L539.7 87.6L544.6 81.3L549.5 75.6L554.4 70.4L559.4 65.9L564.4 61.9L569.4 58.5L574.4 55.8L579.4 53.6L584.3 52L589.2 51L593.9 50.7L598.6 50.9L603.1 51.7L607.5 53.1L611.7 55.1L615.8 57.7L619.6 60.9L623.3 64.6L626.8 68.9L630 73.8L633 79.1L635.7 85.1L638.1 91.5L640.2 98.4L642.1 105.9L643.6 113.8L644.8 122.2L645.7 131L646.2 140.2L646.4 149.9L646.2 159.9L645.6 170.4L644.7 181.2L643.4 192.3L641.7 203.7L639.6 215.4L637.1 227.4L634.2 239.7L630.9 252.2L627.2 264.9L623.1 277.8L618.7 290.8L613.8 304L608.5 317.3L602.9 330.7L596.8 344.2L590.4 357.7L583.6 371.3L576.4 384.9L568.9 398.4L561 411.9L552.8 425.4L544.3 438.7L535.5 452L526.3 465.1L516.9 478.1L507.1 490.9L497.2 503.5L486.9 516L476.5 528.2L465.8 540.1L454.9 551.8L443.9 563.2L432.6 574.4L421.3 585.2L409.8 595.7L398.2 605.8L386.5 615.6L374.8 625L363 634.1L351.2 642.8L339.4 651.1L327.6 658.9L315.9 666.4L304.2 673.4L292.6 680L281.1 686.2L269.7 691.9L258.5 697.2L247.4 702.1L236.6 706.5L225.9 710.4L215.5 713.9L205.3 717L195.5 719.6L185.9 721.8L176.6 723.5L167.7 724.8L159.1 725.7L150.8 726.2L143 726.2L135.6 725.8L128.6 725.1L122 723.9L115.9 722.4L110.2 720.5L105.1 718.2L100.4 715.6L96.2 712.7L92.6 709.4L89.4 705.9L86.8 702L84.8 697.9L83.3 693.5L82.4 688.9L82 684.1L82.2 679L82.9 673.8L84.3 668.3L86.2 662.8L88.7 657.1L91.8 651.2L95.4 645.3L99.7 639.3L104.5 633.2L109.8 627L115.8 620.9L122.3 614.7L129.3 608.5L136.9 602.4L145 596.3L153.6 590.2L162.7 584.2L172.4 578.4L182.5 572.6L193.1 567L204.1 561.4L215.6 556.1L227.5 550.9L239.9 545.9L252.6 541.1L265.7 536.6L279.1 532.2L292.9 528.1L306.9 524.2L321.3 520.6L336 517.3L350.9 514.2L366 511.4L381.3 508.9L396.8 506.7L412.5 504.8L428.3 503.2L444.2 501.9L460.2 501L476.2 500.4L492.3 500L508.4 500L524.5 500.4L540.5 501L556.5 502L572.4 503.3L588.2 504.9L603.9 506.8L619.4 509L634.7 511.5L649.8 514.3L664.7 517.4L679.3 520.8L693.7 524.4L707.8 528.3L721.5 532.4L734.9 536.8L748 541.4L760.7 546.2L773 551.2L784.9 556.3L796.4 561.7L807.4 567.2L818 572.8L828.1 578.6L837.7 584.5L846.8 590.5L855.4 596.5L863.5 602.6L871 608.8L878 615L884.5 621.1L890.4 627.3L895.7 633.4L900.5 639.5L904.7 645.5L908.4 651.5L911.4 657.3L913.9 663L915.8 668.6L917.1 674L917.8 679.2L918 684.3L917.6 689.1L916.6 693.7L915.1 698.1L913.1 702.2L910.4 706L907.3 709.6L903.6 712.8L899.4 715.7L894.7 718.3L889.5 720.6L883.8 722.4L877.7 724L871.1 725.1L864.1 725.9L856.7 726.2L848.8 726.1L840.6 725.7L832 724.8L823 723.5L813.7 721.7L804.1 719.5L794.2 716.9L784 713.8L773.6 710.3L763 706.3L752.1 701.9L741 697L729.8 691.7L718.4 685.9L706.9 679.7L695.3 673.1L683.6 666.1L671.9 658.6L660.1 650.7L648.3 642.4L636.5 633.7L624.7 624.6L612.9 615.2L601.3 605.4L589.7 595.2L578.2 584.7L566.9 573.9L555.6 562.7L544.6 551.3L533.7 539.6L523.1 527.6L512.6 515.4L502.4 503L492.4 490.3L482.7 477.5L473.3 464.5L464.1 451.4L455.3 438.1L446.8 424.8L438.6 411.3L430.8 397.8L423.2 384.3L416.1 370.7L409.3 357.1L402.9 343.6L396.9 330.1L391.2 316.7L386 303.4L381.1 290.2L376.7 277.2L372.6 264.3L368.9 251.6L365.7 239.2L362.8 226.9L360.3 214.9L358.2 203.2L356.6 191.8L355.3 180.7L354.3 169.9L353.8 159.5L353.6 149.5L353.8 139.8L354.3 130.6L355.2 121.8L356.4 113.4L358 105.5L359.8 98.1L362 91.2L364.4 84.8L367.2 78.9L370.1 73.5L373.4 68.7L376.8 64.4L380.5 60.7L384.4 57.6L388.5 55L392.7 53L397.1 51.7L401.6 50.9L406.3 50.7L411.1 51.1L415.9 52.1L420.8 53.7L425.8 55.9L430.8 58.7L435.8 62.1L440.8 66.1L445.8 70.7L450.8 75.8L455.7 81.6L460.5 87.9L465.2 94.7L469.9 102.1L474.4 110.1L478.8 118.6L483 127.6L487.1 137.1L491 147.1L494.7 157.5L498.2 168.5L501.4 179.8L504.4 191.6L507.2 203.8L509.8 216.4L512 229.3L514 242.6L515.7 256.2L517.1 270.1L518.3 284.3L519.1 298.8L519.5 313.5L519.7 328.4L519.6 343.5L519.1 358.8L518.3 374.2L517.2 389.8L515.7 405.4L513.9 421.2L511.8 436.9L509.3 452.7L506.5 468.5L503.4 484.3L500 500L496.3 515.7L492.2 531.3L487.9 546.7L483.2 562L478.3 577.1L473.1 592.1L467.6 606.8L461.9 621.3L455.9 635.6L449.7 649.5L443.3 663.2L436.7 676.6L429.8 689.6L422.8 702.3L415.7 714.6L408.4 726.5L400.9 738.1L393.3 749.2L385.7 759.8L378 770.1L370.2 779.8L362.3 789.1L354.4 798L346.6 806.3L338.7 814.1L330.9 821.4L323.1 828.2L315.4 834.5L307.7 840.2L300.2 845.4L292.8 850.1L285.5 854.2L278.5 857.8L271.5 860.8L264.8 863.3L258.4 865.3L252.1 866.7L246.1 867.6L240.4 867.9L235 867.8L229.9 867.1L225.1 865.9L220.6 864.2L216.5 862L212.8 859.3L209.4 856.1L206.4 852.5L203.9 848.4L201.7 843.9L200 839L198.8 833.6L198 827.9L197.6 821.7L197.7 815.2L198.3 808.4L199.4 801.2L200.9 793.7L202.9 786L205.5 777.9L208.5 769.6L212 761L216 752.3L220.6 743.3L225.6 734.2L231.1 724.9L237.1 715.4L243.5 705.9L250.5 696.2L257.9 686.5L265.8 676.7L274.2 666.9L283 657L292.3 647.2L301.9 637.4L312 627.6L322.6 617.9L333.5 608.3L344.7 598.7L356.4 589.3L368.4 580L380.7 570.9L393.3 562L406.3 553.2L419.5 544.7L433 536.3L446.7 528.2L460.6 520.3L474.7 512.7L489.1 505.4L503.5 498.3L518.1 491.5L532.8 485.1L547.6 478.9L562.5 473.1L577.4 467.6L592.4 462.4L607.3 457.6L622.2 453.1L637 449L651.8 445.2L666.5 441.8L681 438.7L695.5 436L709.7 433.7L723.7 431.7L737.6 430L751.2 428.8L764.5 427.8L777.5 427.2L790.3 427L802.7 427.1L814.8 427.5L826.5 428.2L837.8 429.3L848.7 430.6L859.2 432.3L869.3 434.2L878.9 436.4L888 438.8L896.7 441.5L904.8 444.5L912.4 447.6L919.5 451L926.1 454.5L932.1 458.2L937.5 462.1L942.4 466.1L946.7 470.3L950.4 474.6L953.5 479L956 483.4L957.9 487.9L959.2 492.5L959.9 497.1L960 501.7" opacity="0.15"/></g></svg>