<svg xmlns="http://www.w3.org/2000/svg" viewBox="0 0 1000 1000" preserveAspectRatio="xMidYMid slice" fill="none" stroke-linecap="round" stroke-linejoin="round"><g stroke="#0f3d2e" stroke-width="0.9"><path d="M960 500L959.9 504.6L959.4 509.2L958.7 513.8L957.6 518.3L956.3 522.8L954.7 527.3L952.8 531.7L950.6 536.1L948.1 540.4L945.3 544.7L942.2 548.8L938.9 552.9L935.3 556.9L931.4 560.8L927.3 564.6L922.8 568.2L918.2 571.8L913.2 575.2L908.1 578.5L902.6 581.6L897 584.6L891.1 587.4L884.9 590.1L878.6 592.6L872 595L865.2 597.2L858.2 599.1L851 600.9L843.7 602.6L836.1 604L828.4 605.2L820.5 606.2L812.4 607L804.2 607.6L795.8 608L787.4 608.2L778.7 608.1L770 607.8L761.1 607.3L752.2 606.6L743.1 605.7L734 604.5L724.7 603.1L715.4 601.4L706.1 599.6L696.7 597.5L687.2 595.1L677.8 592.5L668.3 589.7L658.7 586.7L649.2 583.5L639.7 580L630.2 576.3L620.7 572.3L611.2 568.2L601.7 563.8L592.4 559.2L583 554.4L573.7 549.4L564.5 544.1L555.4 538.7L546.4 533.1L537.4 527.3L528.6 521.3L519.8 515.1L511.2 508.7L502.7 502.1L494.3 495.4L486.1 488.5L478 481.5L470.1 474.3L462.3 466.9L454.7 459.5L447.3 451.8L440 444.1L432.9 436.3L426 428.3L419.3 420.2L412.8 412L406.6 403.8L400.5 395.4L394.6 387L388.9 378.6L383.5 370L378.3 361.4L373.3 352.8L368.5 344.2L364 335.5L359.7 326.8L355.6 318.1L351.8 309.4L348.2 300.7L344.9 292L341.8 283.4L338.9 274.8L336.3 266.2L334 257.7L331.8 249.3L330 240.9L328.3 232.6L326.9 224.4L325.8 216.3L324.8 208.3L324.2 200.4L323.7 192.7L323.5 185L323.5 177.5L323.7 170.2L324.2 163L324.9 156L325.8 149.1L326.9 142.4L328.2 135.9L329.8 129.6L331.5 123.4L333.4 117.5L335.5 111.8L337.8 106.3L340.3 101.1L342.9 96L345.8 91.2L348.7 86.7L351.9 82.3L355.2 78.3L358.6 74.5L362.2 70.9L365.9 67.6L369.7 64.6L373.6 61.8L377.7 59.4L381.8 57.2L386.1 55.2L390.4 53.6L394.8 52.2L399.3 51.2L403.8 50.4L408.4 49.9L413 49.7L417.7 49.8L422.4 50.2L427.2 50.9L431.9 51.9L436.7 53.2L441.4 54.8L446.2 56.6L450.9 58.8L455.6 61.2L460.3 64L464.9 67L469.5 70.3L474.1 73.9L478.5 77.8L482.9 81.9L487.3 86.3L491.5 91L495.6 96L499.7 101.2L503.6 106.7L507.4 112.4L511.1 118.4L514.7 124.6L518.2 131L521.5 137.7L524.6 144.6L527.6 151.8L530.5 159.1L533.2 166.7L535.7 174.4L538 182.4L540.2 190.5L542.2 198.8L544 207.3L545.6 215.9L547 224.7L548.2 233.7L549.3 242.8L550.1 252L550.7 261.3L551.1 270.8L551.2 280.4L551.2 290L550.9 299.8L550.5 309.7L549.8 319.6L548.9 329.5L547.7 339.6L546.4 349.7L544.8 359.8L543 369.9L541 380.1L538.7 390.3L536.2 400.5L533.6 410.6L530.7 420.8L527.5 430.9L524.2 441L520.6 451.1L516.9 461.1L512.9 471L508.7 480.9L504.4 490.7L499.8 500.4L495.1 510L490.1 519.5L485 528.9L479.7 538.2L474.2 547.4L468.5 556.4L462.7 565.3L456.7 574.1L450.5 582.7L444.3 591.1L437.8 599.3L431.3 607.4L424.6 615.3L417.7 623.1L410.8 630.6L403.8 637.9L396.6 645.1L389.4 652L382.1 658.7L374.6 665.2L367.2 671.4L359.6 677.5L352 683.3L344.4 688.9L336.7 694.2L329 699.3L321.2 704.2L313.5 708.8L305.7 713.1L297.9 717.2L290.2 721.1L282.5 724.7L274.8 728.1L267.1 731.1L259.5 734L251.9 736.6L244.4 738.9L236.9 741L229.6 742.8L222.3 744.4L215.1 745.7L208 746.7L201 747.5L194.2 748.1L187.5 748.4L180.9 748.5L174.4 748.3L168.1 747.9L162 747.3L156 746.4L150.2 745.3L144.6 744L139.2 742.4L133.9 740.7L128.9 738.7L124.1 736.5L119.4 734.2L115 731.6L110.9 728.8L106.9 725.9L103.2 722.8L99.7 719.5L96.5 716.1L93.5 712.4L90.8 708.7L88.3 704.8L86.1 700.7L84.2 696.6L82.5 692.3L81.1 687.9L80 683.3L79.2 678.7L78.6 674L78.3 669.2L78.3 664.3L78.6 659.4L79.2 654.4L80.1 649.3L81.2 644.2L82.7 639L84.4 633.9L86.4 628.7L88.7 623.4L91.3 618.2L94.2 613L97.4 607.8L100.8 602.6L104.6 597.4L108.6 592.3L112.8 587.2L117.4 582.2L122.2 577.2L127.3 572.3L132.7 567.4L138.3 562.7L144.2 558L150.3 553.4L156.7 548.9L163.3 544.6L170.1 540.3L177.2 536.2L184.5 532.2L192 528.3L199.8 524.6L207.7 521L215.9 517.5L224.2 514.2L232.7 511.1L241.4 508.2L250.3 505.4L259.3 502.8L268.5 500.4L277.9 498.1L287.4 496.1L297 494.2L306.7 492.6L316.6 491.1L326.6 489.9L336.6 488.8L346.8 488L357 487.3L367.4 486.9L377.7 486.7L388.2 486.7L398.7 486.9L409.2 487.4L419.8 488L430.3 488.9L440.9 490L451.5 491.3L462.1 492.8L472.7 494.5L483.2 496.4L493.7 498.6L504.2 501L514.6 503.5L525 506.3L535.3 509.3L545.5 512.5L555.6 515.9L565.6 519.5L575.5 523.2L585.4 527.2L595.1 531.3L604.6 535.7L614.1 540.1L623.4 544.8L632.5 549.6L641.5 554.6L650.3 559.8L659 565.1L667.4 570.5L675.7 576L683.8 581.7L691.7 587.6L699.4 593.5L706.9 599.6L714.2 605.7L721.3 612L728.1 618.3L734.7 624.7L741.1 631.2L747.2 637.8L753.1 644.4L758.8 651.1L764.2 657.8L769.3 664.5L774.2 671.3L778.8 678.1L783.2 684.9L787.3 691.7L791.2 698.5L794.7 705.3L798.1 712.1L801.1 718.8L803.9 725.5L806.4 732.2L808.6 738.7L810.6 745.3L812.3 751.7L813.8 758.1L814.9 764.4L815.8 770.6L816.5 776.7L816.9 782.7L817 788.5L816.9 794.2L816.5 799.8L815.8 805.3L814.9 810.6L813.8 815.7L812.5 820.7L810.8 825.5L809 830.1L806.9 834.5L804.6 838.8L802.1 842.8L799.4 846.7L796.5 850.3L793.4 853.7L790 856.9L786.5 859.9L782.8 862.6L778.9 865.1L774.9 867.4L770.7 869.4L766.3 871.1L761.8 872.6L757.1 873.9L752.3 874.9L747.4 875.6L742.3 876L737.1 876.2L731.8 876.1L726.5 875.8L721 875.1L715.5 874.2L709.8 873L704.1 871.6L698.4 869.8L692.6 867.8L686.7 865.5L680.9 862.9L675 860L669.1 856.9L663.1 853.4L657.2 849.8L651.3 845.8L645.4 841.5L639.5 837L633.6 832.2L627.8 827.2L622 821.9L616.3 816.3L610.7 810.5L605.1 804.4L599.6 798.1L594.2 791.6L588.8 784.8L583.6 777.7L578.5 770.5L573.5 763L568.6 755.3L563.8 747.4L559.2 739.3L554.7 731L550.3 722.5L546.1 713.8L542.1 705L538.2 695.9L534.4 686.8L530.9 677.4L527.5 667.9L524.3 658.3L521.3 648.5L518.5 638.6L515.8 628.6L513.4 618.5L511.1 608.3L509.1 598L507.2 587.6L505.6 577.1L504.2 566.6L502.9 556L501.9 545.4L501.1 534.7L500.5 524L500.2 513.3L500 502.6L500.1 491.8L500.3 481.1L500.8 470.4L501.5 459.7L502.4 449.1L503.5 438.5L504.9 427.9L506.4 417.4L508.2 407L510.1 396.6L512.3 386.4L514.6 376.2L517.2 366.1L519.9 356.2L522.8 346.4L526 336.7L529.3 327.1L532.7 317.7L536.4 308.4L540.2 299.3L544.2 290.4L548.3 281.6L552.6 273L557 264.6L561.6 256.4L566.3 248.4L571.1 240.6L576.1 233.1L581.1 225.7L586.3 218.6L591.6 211.7L597 205L602.4 198.6L608 192.4L613.6 186.4L619.3 180.7L625 175.3L630.8 170.1L636.7 165.2L642.5 160.6L648.4 156.2L654.4 152.1L660.3 148.3L666.2 144.7L672.1 141.5L678.1 138.4L683.9 135.7L689.8 133.3L695.6 131.1L701.4 129.2L707.1 127.6L712.8 126.3L718.4 125.3L723.9 124.5L729.3 124L734.6 123.8L739.8 123.8L744.9 124.2L749.9 124.8L754.8 125.6L759.5 126.7L764.1 128.1L768.6 129.8L772.9 131.7L777 133.8L781 136.2L784.8 138.8L788.4 141.6L791.8 144.7L795 148L798 151.6L800.9 155.3L803.5 159.3L805.9 163.4L808 167.7L810 172.3L811.7 177L813.2 181.9L814.4 186.9L815.4 192.2L816.2 197.5L816.7 203.1L817 208.7L817 214.5L816.7 220.4L816.2 226.5L815.4 232.6L814.3 238.9L813 245.2L811.5 251.6L809.6 258.1L807.5 264.7L805.1 271.3L802.5 278L799.5 284.7L796.4 291.5L792.9 298.2L789.2 305L785.2 311.9L780.9 318.7L776.4 325.5L771.7 332.2L766.6 339L761.4 345.7L755.8 352.4L750.1 359.1L744 365.7L737.8 372.2L731.3 378.7L724.6 385L717.6 391.3L710.4 397.5L703 403.6L695.4 409.6L687.6 415.5L679.6 421.2L671.4 426.9L663 432.4L654.5 437.7L645.7 442.9L636.8 448L627.8 452.9L618.5 457.6L609.2 462.2L599.7 466.6L590 470.8L580.3 474.9L570.4 478.8L560.4 482.4L550.3 485.9L540.1 489.2L529.9 492.3L519.6 495.1L509.2 497.8L498.7 500.3L488.2 502.5L477.7 504.6L467.1 506.4L456.6 508L446 509.4L435.4 510.6L424.8 511.6L414.2 512.4L403.7 512.9L393.2 513.2L382.7 513.3L372.3 513.2L362 512.9L351.7 512.4L341.5 511.6L331.4 510.7L321.3 509.5L311.4 508.1L301.6 506.6L291.9 504.8L282.4 502.9L273 500.7L263.7 498.4L254.6 495.9L245.6 493.2L236.8 490.3L228.2 487.3L219.8 484.1L211.6 480.7L203.5 477.2L195.7 473.5L188.1 469.7L180.7 465.8L173.5 461.7L166.5 457.5L159.8 453.2L153.3 448.7L147.1 444.2L141.1 439.6L135.3 434.8L129.9 430L124.6 425.2L119.7 420.2L115 415.2L110.6 410.1L106.4 405L102.6 399.9L99 394.7L95.7 389.5L92.7 384.3L89.9 379.1L87.5 373.8L85.3 368.6L83.5 363.4L81.9 358.3L80.6 353.1L79.6 348.1L78.9 343L78.4 338L78.3 333.1L78.4 328.3L78.9 323.5L79.6 318.9L80.6 314.3L81.8 309.8L83.4 305.5L85.2 301.2L87.2 297.1L89.6 293.2L92.2 289.3L95 285.7L98.1 282.1L101.5 278.8L105.1 275.6L108.9 272.5L113 269.7L117.3 267L121.8 264.6L126.6 262.3L131.5 260.2L136.6 258.4L142 256.7L147.5 255.3L153.2 254.1L159.1 253.1L165.2 252.4L171.4 251.8L177.8 251.6L184.3 251.5L191 251.7L197.8 252.2L204.7 252.9L211.7 253.8L218.8 255L226.1 256.4L233.4 258.1L240.8 260.1L248.3 262.3L255.8 264.7L263.4 267.5L271.1 270.4L278.8 273.7L286.5 277.2L294.2 280.9L302 284.9L309.8 289.1L317.5 293.6L325.3 298.4L333 303.3L340.7 308.6L348.4 314L356 319.7L363.6 325.7L371.1 331.8L378.5 338.2L385.9 344.8L393.2 351.6L400.4 358.6L407.5 365.9L414.4 373.3L421.3 380.9L428.1 388.8L434.7 396.8L441.2 404.9L447.6 413.3L453.8 421.8L459.8 430.5L465.7 439.3L471.5 448.3L477 457.4L482.4 466.6L487.7 476L492.7 485.4L497.6 495L502.2 504.7L506.7 514.4L511 524.3L515 534.2L518.9 544.2L522.5 554.2L526 564.3L529.2 574.4L532.2 584.5L535 594.7L537.6 604.9L539.9 615L542 625.2L544 635.4L545.6 645.5L547.1 655.6L548.4 665.7L549.4 675.7L550.2 685.6L550.7 695.5L551.1 705.3L551.2 715L551.2 724.6L550.9 734.1L550.4 743.6L549.7 752.8L548.8 762L547.6 771L546.3 779.9L544.8 788.6L543.1 797.2L541.2 805.6L539.1 813.8L536.8 821.8L534.4 829.7L531.8 837.3L529 844.7L526.1 852L523 859L519.8 865.8L516.4 872.4L512.9 878.7L509.2 884.8L505.5 890.6L501.6 896.2L497.6 901.6L493.5 906.6L489.3 911.5L485 916L480.6 920.3L476.2 924.3L471.7 928L467.1 931.5L462.5 934.6L457.9 937.5L453.2 940.1L448.4 942.4L443.7 944.4L438.9 946.1L434.2 947.5L429.4 948.6L424.7 949.5L420 950L415.3 950.3L410.6 950.2L406 949.9L401.4 949.2L396.9 948.3L392.5 947.1L388.1 945.6L383.8 943.8L379.6 941.7L375.5 939.4L371.6 936.8L367.7 933.9L363.9 930.7L360.3 927.3L356.8 923.6L353.4 919.6L350.2 915.4L347.2 911L344.3 906.3L341.5 901.4L339 896.2L336.6 890.8L334.4 885.2L332.4 879.4L330.6 873.4L328.9 867.2L327.5 860.7L326.3 854.1L325.3 847.4L324.5 840.4L323.9 833.3L323.6 826L323.5 818.6L323.6 811L323.9 803.3L324.5 795.5L325.3 787.5L326.3 779.5L327.6 771.3L329.1 763.1L330.9 754.7L332.9 746.3L335.2 737.8L337.7 729.3L340.4 720.7L343.4 712.1L346.6 703.4L350.1 694.8L353.8 686.1L357.7 677.4L361.9 668.7L366.3 660L371 651.3L375.9 642.7L381 634.1L386.3 625.5L391.9 617L397.6 608.6L403.6 600.2L409.8 591.9L416.2 583.7L422.8 575.6L429.6 567.5L436.6 559.6L443.8 551.8L451.1 544.2L458.7 536.6L466.3 529.2L474.2 521.9L482.2 514.8L490.4 507.9L498.7 501.1L507.1 494.4L515.7 488L524.4 481.7L533.2 475.6L542.1 469.7L551.1 463.9L560.2 458.4L569.3 453.1L578.6 448L587.9 443.1L597.3 438.4L606.7 433.9L616.1 429.6L625.6 425.6L635.1 421.8L644.7 418.2L654.2 414.8L663.7 411.7L673.2 408.8L682.7 406.1L692.2 403.6L701.6 401.4L711 399.4L720.3 397.7L729.6 396.2L738.7 394.9L747.8 393.8L756.9 393L765.8 392.4L774.6 392L783.2 391.8L791.8 391.9L800.2 392.2L808.5 392.7L816.6 393.4L824.6 394.3L832.4 395.4L840.1 396.7L847.5 398.3L854.8 400L861.9 401.9L868.8 404L875.5 406.2L881.9 408.7L888.2 411.3L894.2 414L899.9 416.9L905.5 420L910.8 423.2L915.8 426.6L920.6 430.1L925.2 433.7L929.5 437.4L933.5 441.2L937.2 445.2L940.7 449.2L943.9 453.3L946.8 457.5L949.4 461.8L951.7 466.2L953.8 470.6L955.6 475L957 479.5L958.2 484.1L959.1 488.6L959.7 493.2L960 497.8L960 502.4" opacity="0.15"/></g></svg>