<svg xmlns="http://www.w3.org/2000/svg" viewBox="0 0 1000 1000" preserveAspectRatio="xMidYMid slice" fill="none" stroke-linecap="round" stroke-linejoin="round"><g stroke="#0f3d2e" stroke-width="0.9"><path d="M960 500L959.8 504.6L959.3 509.2L958.3 513.8L957 518.3L955.3 522.8L953.3 527.2L950.9 531.6L948.1 535.9L945 540.2L941.5 544.3L937.7 548.3L933.5 552.3L929 556.1L924.1 559.8L918.9 563.3L913.4 566.7L907.6 570L901.4 573L895 576L888.2 578.7L881.2 581.2L873.9 583.6L866.3 585.8L858.4 587.7L850.3 589.4L841.9 591L833.3 592.2L824.5 593.3L815.4 594.1L806.2 594.7L796.7 595L787.1 595.1L777.3 595L767.3 594.6L757.2 593.9L746.9 592.9L736.5 591.7L726 590.3L715.4 588.5L704.7 586.5L693.9 584.3L683 581.7L672.1 578.9L661.1 575.8L650.1 572.5L639.1 568.9L628 565L617 560.9L606 556.5L595 551.9L584 547L573.1 541.8L562.2 536.5L551.5 530.8L540.8 525L530.2 518.9L519.7 512.6L509.3 506.1L499 499.4L488.9 492.4L478.9 485.3L469.1 478L459.5 470.5L450 462.8L440.7 455L431.7 447L422.8 438.8L414.1 430.5L405.6 422.1L397.4 413.6L389.4 405L381.7 396.2L374.2 387.4L366.9 378.5L359.9 369.5L353.2 360.5L346.8 351.4L340.6 342.3L334.7 333.2L329.1 324L323.7 314.9L318.7 305.7L314 296.6L309.5 287.5L305.4 278.5L301.5 269.5L298 260.5L294.7 251.7L291.8 242.9L289.1 234.3L286.8 225.8L284.8 217.3L283 209.1L281.6 200.9L280.4 192.9L279.6 185.1L279 177.5L278.7 170L278.7 162.8L279 155.8L279.5 148.9L280.3 142.4L281.4 136L282.8 129.9L284.3 124L286.2 118.5L288.3 113.1L290.6 108.1L293.1 103.4L295.9 98.9L298.8 94.8L302 90.9L305.3 87.4L308.9 84.2L312.6 81.3L316.5 78.8L320.6 76.6L324.8 74.7L329.1 73.2L333.6 72L338.2 71.2L342.9 70.7L347.7 70.6L352.6 70.9L357.6 71.5L362.7 72.4L367.8 73.8L373 75.5L378.2 77.5L383.4 80L388.7 82.8L393.9 85.9L399.2 89.4L404.4 93.3L409.7 97.5L414.9 102.1L420 107L425.1 112.2L430.1 117.8L435.1 123.8L440 130L444.8 136.6L449.5 143.5L454.1 150.7L458.5 158.2L462.8 166L467 174.1L471.1 182.5L475 191.2L478.7 200.1L482.3 209.3L485.7 218.7L488.9 228.3L491.9 238.2L494.8 248.3L497.4 258.6L499.8 269.2L502 279.9L504 290.7L505.8 301.8L507.3 313L508.7 324.3L509.7 335.8L510.6 347.4L511.2 359.1L511.6 370.9L511.7 382.7L511.5 394.7L511.2 406.7L510.6 418.8L509.7 430.8L508.6 443L507.2 455.1L505.6 467.2L503.7 479.3L501.6 491.4L499.3 503.4L496.7 515.4L493.9 527.3L490.9 539.2L487.6 551L484.1 562.6L480.3 574.2L476.4 585.6L472.2 596.9L467.8 608.1L463.3 619.1L458.5 629.9L453.5 640.5L448.4 651L443.1 661.3L437.6 671.3L432 681.2L426.2 690.8L420.2 700.2L414.1 709.4L407.9 718.2L401.6 726.9L395.2 735.3L388.6 743.4L382 751.2L375.3 758.7L368.5 765.9L361.7 772.9L354.8 779.5L347.8 785.8L340.9 791.8L333.9 797.5L326.9 802.9L319.9 808L312.9 812.7L306 817.1L299 821.1L292.2 824.8L285.3 828.2L278.6 831.3L271.9 834L265.3 836.4L258.8 838.4L252.4 840.1L246.2 841.5L240 842.5L234.1 843.2L228.2 843.6L222.5 843.7L217 843.4L211.7 842.8L206.6 841.9L201.7 840.7L196.9 839.2L192.4 837.4L188.2 835.3L184.1 832.9L180.3 830.2L176.8 827.2L173.5 824L170.5 820.5L167.8 816.8L165.3 812.8L163.1 808.6L161.2 804.1L159.6 799.5L158.4 794.6L157.4 789.5L156.7 784.2L156.4 778.8L156.4 773.1L156.7 767.3L157.3 761.4L158.2 755.3L159.5 749.1L161.2 742.7L163.1 736.3L165.4 729.7L168 723L171 716.3L174.3 709.5L178 702.6L181.9 695.7L186.2 688.8L190.9 681.8L195.9 674.8L201.1 667.8L206.8 660.8L212.7 653.8L218.9 646.9L225.5 640L232.4 633.1L239.5 626.3L247 619.6L254.8 612.9L262.8 606.4L271.1 599.9L279.7 593.6L288.5 587.3L297.6 581.2L306.9 575.2L316.5 569.4L326.3 563.7L336.3 558.2L346.5 552.8L356.9 547.7L367.6 542.7L378.3 537.8L389.3 533.2L400.4 528.8L411.7 524.6L423.1 520.6L434.6 516.8L446.2 513.2L458 509.9L469.8 506.8L481.7 503.9L493.7 501.3L505.7 498.9L517.8 496.7L529.9 494.8L542 493.2L554.1 491.7L566.3 490.6L578.4 489.6L590.4 489L602.4 488.5L614.4 488.3L626.3 488.4L638.1 488.7L649.8 489.3L661.5 490L673 491.1L684.3 492.3L695.6 493.8L706.6 495.5L717.6 497.5L728.3 499.6L738.9 502L749.2 504.6L759.4 507.4L769.3 510.3L779 513.5L788.5 516.9L797.8 520.4L806.7 524.1L815.5 528L823.9 532L832.1 536.1L839.9 540.4L847.5 544.9L854.8 549.4L861.8 554.1L868.4 558.9L874.8 563.7L880.8 568.7L886.4 573.7L891.8 578.8L896.8 583.9L901.4 589.1L905.7 594.3L909.7 599.6L913.3 604.8L916.5 610.1L919.4 615.4L921.9 620.6L924.1 625.8L925.8 631L927.3 636.1L928.3 641.2L929 646.2L929.4 651.1L929.3 656L929 660.7L928.2 665.3L927.1 669.8L925.7 674.2L923.9 678.4L921.8 682.5L919.3 686.5L916.5 690.2L913.4 693.8L910 697.2L906.2 700.4L902.1 703.5L897.7 706.3L893.1 708.8L888.1 711.2L882.8 713.3L877.3 715.2L871.5 716.9L865.5 718.3L859.2 719.4L852.7 720.3L845.9 720.9L838.9 721.3L831.7 721.3L824.3 721.1L816.7 720.6L808.9 719.8L801 718.7L792.9 717.4L784.7 715.7L776.3 713.7L767.8 711.4L759.1 708.9L750.4 706L741.6 702.8L732.7 699.3L723.7 695.6L714.7 691.5L705.6 687.1L696.5 682.4L687.3 677.5L678.2 672.2L669 666.7L659.9 660.9L650.8 654.7L641.7 648.4L632.6 641.7L623.6 634.8L614.7 627.6L605.9 620.1L597.1 612.4L588.5 604.5L579.9 596.3L571.5 587.9L563.2 579.3L555 570.5L546.9 561.4L539.1 552.2L531.4 542.8L523.8 533.2L516.4 523.4L509.3 513.5L502.3 503.4L495.5 493.2L488.9 482.8L482.6 472.4L476.4 461.8L470.5 451.1L464.9 440.3L459.4 429.5L454.2 418.6L449.3 407.7L444.6 396.7L440.1 385.7L435.9 374.6L432 363.6L428.3 352.5L424.9 341.5L421.8 330.5L418.9 319.6L416.3 308.7L414 297.9L411.9 287.2L410.1 276.5L408.6 266L407.3 255.6L406.3 245.3L405.6 235.1L405.1 225.1L404.9 215.2L404.9 205.6L405.2 196.1L405.7 186.8L406.5 177.7L407.5 168.8L408.7 160.1L410.2 151.7L411.9 143.5L413.8 135.6L415.9 127.9L418.2 120.5L420.7 113.4L423.4 106.6L426.2 100.1L429.3 93.9L432.5 88L435.9 82.4L439.4 77.1L443 72.1L446.8 67.5L450.7 63.3L454.7 59.4L458.8 55.8L463.1 52.6L467.3 49.7L471.7 47.2L476.1 45.1L480.6 43.3L485.2 42L489.7 40.9L494.3 40.3L498.9 40L503.5 40.1L508.1 40.6L512.7 41.4L517.2 42.6L521.7 44.2L526.2 46.2L530.6 48.5L534.9 51.2L539.2 54.2L543.3 57.6L547.4 61.4L551.3 65.5L555.2 69.9L558.9 74.7L562.5 79.8L565.9 85.2L569.2 91L572.3 97.1L575.3 103.5L578.1 110.1L580.7 117.1L583.1 124.4L585.3 131.9L587.3 139.7L589 147.8L590.6 156.1L592 164.6L593.1 173.4L594 182.4L594.6 191.6L595 201L595.1 210.6L595 220.4L594.7 230.3L594.1 240.4L593.2 250.6L592 261L590.6 271.5L589 282.1L587 292.8L584.8 303.6L582.4 314.4L579.6 325.3L576.6 336.3L573.3 347.3L569.8 358.3L566 369.3L561.9 380.4L557.6 391.4L553 402.4L548.2 413.4L543.1 424.3L537.8 435.2L532.2 446L526.4 456.7L520.4 467.3L514.1 477.8L507.7 488.2L501 498.5L494.1 508.7L487 518.7L479.7 528.5L472.3 538.2L464.6 547.7L456.8 557.1L448.9 566.2L440.8 575.1L432.5 583.9L424.1 592.4L415.6 600.6L407 608.7L398.3 616.5L389.5 624.1L380.6 631.4L371.7 638.4L362.6 645.2L353.6 651.7L344.5 658L335.3 663.9L326.2 669.6L317 675L307.9 680.1L298.8 684.9L289.7 689.4L280.6 693.7L271.6 697.6L262.7 701.2L253.8 704.5L245 707.5L236.4 710.2L227.8 712.7L219.3 714.8L211 716.6L202.8 718.1L194.8 719.3L187 720.3L179.3 720.9L171.8 721.3L164.5 721.3L157.4 721.1L150.6 720.6L143.9 719.9L137.5 718.9L131.3 717.6L125.4 716.1L119.8 714.3L114.4 712.3L109.3 710L104.5 707.5L99.9 704.8L95.7 701.9L91.8 698.8L88.2 695.5L84.9 692L82 688.3L79.3 684.4L77.1 680.4L75.1 676.2L73.5 671.9L72.2 667.5L71.3 662.9L70.8 658.2L70.6 653.4L70.8 648.6L71.3 643.6L72.2 638.5L73.4 633.4L75 628.3L77 623.1L79.4 617.9L82.1 612.6L85.1 607.3L88.6 602.1L92.3 596.8L96.5 591.6L101 586.4L105.8 581.2L111 576.1L116.5 571.1L122.3 566.1L128.5 561.2L135 556.4L141.8 551.6L149 547L156.4 542.5L164.1 538.2L172.2 533.9L180.5 529.9L189.1 525.9L197.9 522.1L207 518.5L216.4 515.1L226 511.8L235.8 508.8L245.9 505.9L256.2 503.2L266.6 500.7L277.3 498.5L288.1 496.4L299.1 494.6L310.3 493L321.6 491.6L333 490.5L344.6 489.6L356.3 488.9L368 488.5L379.9 488.3L391.8 488.4L403.8 488.7L415.9 489.3L428 490.1L440.1 491.1L452.2 492.4L464.3 494L476.4 495.8L488.5 497.8L500.6 500.1L512.6 502.6L524.5 505.4L536.4 508.4L548.2 511.6L559.8 515.1L571.4 518.8L582.9 522.7L594.2 526.8L605.4 531.1L616.4 535.6L627.3 540.3L638 545.2L648.5 550.3L658.8 555.6L669 561.1L678.9 566.7L688.5 572.4L698 578.3L707.2 584.4L716.1 590.6L724.8 596.9L733.3 603.3L741.4 609.8L749.3 616.4L756.9 623.1L764.2 629.9L771.2 636.7L778 643.6L784.4 650.5L790.4 657.5L796.2 664.5L801.7 671.4L806.8 678.4L811.6 685.4L816 692.4L820.2 699.3L824 706.2L827.5 713L830.6 719.8L833.4 726.5L835.8 733.1L838 739.6L839.7 746.1L841.2 752.3L842.3 758.5L843.1 764.5L843.5 770.4L843.7 776.1L843.5 781.7L843 787L842.1 792.2L841 797.2L839.6 801.9L837.8 806.5L835.8 810.8L833.5 814.9L830.9 818.8L828 822.4L824.8 825.7L821.4 828.8L817.7 831.6L813.8 834.1L809.6 836.4L805.2 838.4L800.6 840L795.8 841.4L790.7 842.4L785.5 843.1L780.1 843.6L774.5 843.7L768.7 843.4L762.8 842.9L756.8 842L750.6 840.8L744.2 839.3L737.8 837.4L731.3 835.2L724.6 832.6L717.9 829.7L711.1 826.5L704.3 822.9L697.4 819L690.4 814.8L683.4 810.3L676.5 805.4L669.5 800.1L662.5 794.6L655.5 788.7L648.5 782.6L641.6 776.1L634.8 769.3L627.9 762.2L621.2 754.8L614.5 747.1L607.9 739.2L601.5 730.9L595.1 722.4L588.8 713.6L582.7 704.6L576.7 695.3L570.8 685.8L565.1 676.1L559.5 666.1L554.1 655.9L548.9 645.6L543.8 635L539 624.3L534.3 613.3L529.8 602.3L525.6 591L521.5 579.7L517.7 568.2L514.1 556.5L510.7 544.8L507.5 533L504.6 521.1L501.9 509.2L499.4 497.1L497.2 485.1L495.3 473L493.5 460.9L492 448.8L490.8 436.6L489.8 424.5L489.1 412.5L488.6 400.4L488.4 388.4L488.4 376.5L488.6 364.7L489.1 352.9L489.8 341.3L490.8 329.8L492 318.4L493.4 307.1L495.1 296L497 285L499.1 274.2L501.4 263.6L504 253.2L506.7 243L509.6 233L512.7 223.3L516.1 213.7L519.5 204.4L523.2 195.4L527 186.6L531 178.1L535.1 169.9L539.4 161.9L543.8 154.3L548.3 146.9L553 139.9L557.7 133.1L562.5 126.7L567.5 120.6L572.5 114.9L577.5 109.5L582.7 104.4L587.9 99.6L593.1 95.3L598.3 91.2L603.6 87.5L608.8 84.2L614.1 81.3L619.3 78.7L624.6 76.4L629.8 74.5L634.9 73L640 71.9L645 71.1L649.9 70.7L654.8 70.6L659.6 70.9L664.2 71.6L668.8 72.6L673.2 73.9L677.4 75.6L681.6 77.7L685.5 80L689.3 82.8L693 85.8L696.4 89.2L699.7 92.9L702.8 96.9L705.6 101.2L708.3 105.8L710.7 110.7L712.9 115.9L714.8 121.3L716.5 127.1L718 133L719.2 139.3L720.1 145.8L720.8 152.5L721.2 159.4L721.3 166.6L721.2 173.9L720.8 181.5L720 189.2L719 197.1L717.7 205.1L716.1 213.4L714.2 221.7L712 230.2L709.5 238.8L706.7 247.5L703.6 256.3L700.2 265.2L696.5 274.2L692.5 283.2L688.2 292.2L683.6 301.4L678.7 310.5L673.5 319.6L668 328.8L662.3 337.9L656.2 347.1L649.9 356.2L643.3 365.2L636.4 374.2L629.3 383.1L621.9 392L614.3 400.8L606.4 409.5L598.3 418.1L590 426.5L581.4 434.9L572.6 443.1L563.6 451.1L554.4 459.1L545.1 466.8L535.5 474.4L525.8 481.8L515.9 489L505.8 496.1L495.6 502.9L485.3 509.5L474.9 515.9L464.3 522.1L453.7 528.1L442.9 533.8L432.1 539.3L421.2 544.6L410.3 549.6L399.3 554.3L388.3 558.8L377.3 563.1L366.2 567.1L355.2 570.8L344.2 574.3L333.2 577.5L322.2 580.4L311.3 583.1L300.5 585.5L289.7 587.6L279.1 589.5L268.5 591.1L258 592.4L247.7 593.5L237.5 594.3L227.5 594.8L217.6 595.1L207.9 595.1L198.3 594.9L189 594.4L179.8 593.7L170.9 592.8L162.2 591.6L153.7 590.2L145.5 588.6L137.5 586.7L129.7 584.7L122.3 582.4L115.1 579.9L108.2 577.3L101.6 574.5L95.3 571.5L89.3 568.3L83.7 565L78.3 561.5L73.3 557.9L68.6 554.1L64.3 550.2L60.3 546.2L56.6 542.1L53.3 538L50.4 533.7L47.8 529.3L45.6 524.9L43.7 520.4L42.3 515.9L41.1 511.4L40.4 506.8L40 502.2L40.1 497.6L40.4 493L41.2 488.4L42.3 483.9L43.8 479.4L45.7 474.9L47.9 470.5L50.5 466.1L53.5 461.9L56.8 457.7L60.4 453.6L64.5 449.6L68.8 445.7L73.5 442L78.5 438.4L83.9 434.9L89.6 431.6L95.6 428.4L101.9 425.4L108.5 422.6L115.4 419.9L122.6 417.5L130.1 415.2L137.8 413.2L145.8 411.4L154.1 409.7L162.6 408.3L171.3 407.2L180.2 406.2L189.4 405.5L198.7 405.1L208.3 404.9L218 404.9L227.9 405.2L238 405.8L248.2 406.6L258.5 407.7L269 409L279.5 410.6L290.2 412.5L301 414.6L311.8 417L322.7 419.7L333.7 422.7L344.6 425.9L355.7 429.3L366.7 433.1L377.7 437.1L388.8 441.4L399.8 445.9L410.8 450.6L421.7 455.7L432.6 460.9L443.4 466.4L454.1 472.2L464.8 478.2L475.3 484.4L485.8 490.8L496.1 497.4L506.3 504.2L516.3 511.3L526.2 518.5L535.9 525.9L545.5 533.5L554.8 541.3L564 549.2L573 557.3L581.8 565.5L590.3 573.8L598.7 582.3L606.8 590.9L614.7 599.6L622.3 608.4L629.6 617.2L636.8 626.2L643.6 635.2L650.2 644.2L656.5 653.3L662.5 662.5L668.3 671.6L673.7 680.8L678.9 689.9L683.8 699.1L688.4 708.2L692.7 717.2L696.7 726.2L700.4 735.2L703.7 744.1L706.8 752.9L709.6 761.6L712.1 770.2L714.3 778.7L716.2 787L717.8 795.2L719.1 803.3L720.1 811.2L720.8 818.9L721.2 826.4L721.3 833.8L721.2 840.9L720.8 847.8L720.1 854.5L719.1 861L717.9 867.2L716.4 873.2L714.7 878.9L712.8 884.4L710.6 889.5L708.1 894.4L705.5 899L702.6 903.3L699.6 907.3L696.3 911L692.8 914.3L689.2 917.4L685.4 920.1L681.4 922.4L677.3 924.5L673 926.2L668.6 927.5L664 928.5L659.4 929.1L654.6 929.4L649.7 929.3L644.8 928.9L639.8 928.1L634.7 926.9L629.5 925.4L624.3 923.5L619.1 921.2L613.9 918.6L608.6 915.6L603.3 912.3L598.1 908.6L592.8 904.6L587.6 900.2L582.4 895.4L577.3 890.3L572.3 884.9L567.3 879.1L562.3 873L557.5 866.6L552.8 859.8L548.1 852.8L543.6 845.4L539.2 837.7L534.9 829.8L530.8 821.5L526.9 813L523 804.2L519.4 795.2L515.9 785.9L512.6 776.3L509.5 766.5L506.6 756.5L503.8 746.3L501.3 735.9L499 725.3L496.9 714.5L495 703.5L493.4 692.4L491.9 681.1L490.8 669.7L489.8 658.2L489.1 646.5L488.6 634.8L488.4 622.9L488.4 611L488.6 599L489.1 587L489.9 574.9L490.9 562.8L492.1 550.7L493.6 538.6L495.3 526.5L497.3 514.4L499.5 502.3L502 490.3L504.7 478.3L507.7 466.5L510.8 454.6L514.2 442.9L517.9 431.3L521.7 419.8L525.8 408.5L530 397.3L534.5 386.2L539.2 375.3L544.1 364.5L549.1 354L554.3 343.6L559.8 333.4L565.3 323.5L571 313.8L576.9 304.2L582.9 295L589.1 286L595.4 277.2L601.7 268.7L608.2 260.5L614.8 252.5L621.5 244.9L628.2 237.5L635.1 230.4L641.9 223.6L648.9 217.1L655.8 211L662.8 205.1L669.8 199.6L676.8 194.4L683.8 189.5L690.7 185L697.7 180.8L704.6 176.9L711.4 173.3L718.2 170.1L724.9 167.3L731.6 164.7L738.1 162.5L744.5 160.7L750.9 159.1L757 157.9L763.1 157.1L769 156.5L774.8 156.3L780.3 156.4L785.8 156.9L791 157.6L796 158.7L800.8 160.1L805.4 161.7L809.8 163.7L814 166L817.9 168.5L821.5 171.3L825 174.4L828.1 177.8L831 181.4L833.6 185.3L835.9 189.4L837.9 193.7L839.6 198.3L841.1 203L842.2 208L843 213.2L843.5 218.6L843.7 224.1L843.5 229.9L843.1 235.7L842.3 241.8L841.1 247.9L839.7 254.2L837.9 260.6L835.7 267.2L833.3 273.8L830.4 280.5L827.3 287.3L823.8 294.1L820 301L815.9 307.9L811.4 314.9L806.6 321.9L801.4 328.9L796 335.9L790.2 342.8L784.1 349.8L777.7 356.7L770.9 363.6L763.9 370.4L756.6 377.2L749 383.9L741.1 390.5L732.9 397L724.5 403.4L715.8 409.7L706.8 415.9L697.6 421.9L688.1 427.8L678.4 433.6L668.5 439.2L658.4 444.6L648.1 449.9L637.5 455L626.8 459.9L616 464.6L604.9 469.1L593.7 473.4L582.4 477.5L570.9 481.4L559.3 485.1L547.6 488.5L535.8 491.7L524 494.7L512 497.5L500 500L488 502.3L475.9 504.3L463.8 506.1L451.6 507.6L439.5 508.9L427.4 510L415.3 510.8L403.3 511.3L391.3 511.6L379.4 511.7L367.5 511.5L355.7 511L344.1 510.4L332.5 509.5L321.1 508.3L309.8 506.9L298.6 505.3L287.6 503.5L276.8 501.4L266.2 499.2L255.7 496.7L245.4 494L235.4 491.1L225.6 488L216 484.8L206.6 481.3L197.5 477.7L188.7 473.9L180.1 470L171.8 465.9L163.8 461.6L156.1 457.3L148.6 452.8L141.5 448.2L134.7 443.4L128.2 438.6L122.1 433.7L116.2 428.7L110.7 423.7L105.6 418.6L100.7 413.4L96.3 408.2L92.2 402.9L88.4 397.7L85 392.4L81.9 387.2L79.3 381.9L76.9 376.7L75 371.5L73.4 366.3L72.1 361.2L71.3 356.2L70.7 351.2L70.6 346.3L70.8 341.6L71.4 336.9L72.3 332.3L73.6 327.9L75.2 323.6L77.1 319.4L79.4 315.4L82.1 311.5L85.1 307.9L88.4 304.4L92 301.1L95.9 298L100.1 295.1L104.7 292.4L109.5 289.9L114.6 287.6L120 285.6L125.7 283.9L131.6 282.3L137.8 281.1L144.2 280.1L150.9 279.3L157.7 278.9L164.8 278.7L172.1 278.7L179.6 279.1L187.3 279.8L195.2 280.7L203.2 282L211.4 283.5L219.7 285.3L228.2 287.4L236.7 289.9L245.4 292.6L254.2 295.6L263.1 299L272 302.6L281 306.5L290.1 310.8L299.2 315.3L308.3 320.1L317.4 325.2L326.6 330.6L335.7 336.3L344.9 342.3L354 348.6L363 355.1L372.1 361.9L381 369L389.9 376.3L398.7 383.8L407.4 391.7L416 399.7L424.5 408L432.9 416.5L441.1 425.3L449.2 434.2L457.2 443.4L465 452.7L472.6 462.2L480.1 471.9L487.3 481.8L494.4 491.8L501.3 501.9L508 512.2L514.4 522.6L520.7 533.2L526.7 543.8L532.5 554.5L538 565.3L543.3 576.2L548.4 587.1L553.2 598.1L557.8 609.1L562.1 620.1L566.2 631.2L569.9 642.2L573.5 653.2L576.7 664.2L579.7 675.2L582.5 686.1L584.9 696.9L587.1 707.7L589 718.4L590.7 729L592.1 739.5L593.2 749.8L594.1 760.1L594.7 770.1L595 780.1L595.1 789.8L595 799.4L594.6 808.8L593.9 818L593 827L591.9 835.8L590.5 844.3L589 852.6L587.2 860.6L585.2 868.4L583 876L580.5 883.2L577.9 890.2L575.2 896.8L572.2 903.2L569.1 909.3L565.8 915L562.3 920.4L558.7 925.5L555 930.3L551.2 934.7L547.2 938.8L543.1 942.5L539 945.9L534.7 949L530.4 951.6L526 953.9L521.5 955.9L517 957.4L512.5 958.6L507.9 959.5L503.3 959.9L498.7 960L494.1 959.7L489.5 959L485 958L480.4 956.6L475.9 954.8L471.5 952.7L467.2 950.2L462.9 947.3L458.7 944.1L454.5 940.5L450.5 936.5L446.6 932.3L442.9 927.6L439.2 922.7L435.7 917.4L432.3 911.8L429.1 905.9L426.1 899.6L423.2 893.1L420.6 886.3L418.1 879.1L415.8 871.7L413.7 864.1L411.8 856.1L410.1 847.9L408.7 839.5L407.4 830.8L406.4 821.9L405.7 812.8L405.2 803.5L404.9 794L404.9 784.3L405.1 774.5L405.6 764.4L406.4 754.3L407.4 744L408.7 733.5L410.2 723L412 712.3L414.1 701.6L416.4 690.8L419 679.9L421.9 669L425.1 658L428.5 647L432.2 635.9L436.1 624.9L440.3 613.9L444.8 602.8L449.5 591.9L454.4 580.9L459.7 570L465.1 559.2L470.8 548.4L476.7 537.7L482.9 527.2L489.2 516.7L495.8 506.4L502.6 496.1L509.6 486.1L516.8 476.1L524.1 466.4L531.7 456.8L539.4 447.4L547.3 438.1L555.3 429.1L563.5 420.3L571.8 411.7L580.3 403.3L588.8 395.1L597.5 387.2L606.3 379.5L615.1 372.1L624 364.9L633 358L642.1 351.4L651.2 345L660.3 338.9L669.4 333.1L678.6 327.5L687.7 322.3L696.9 317.3L706 312.7L715.1 308.3L724.1 304.3L733.1 300.5L742 297L750.8 293.9L759.5 291L768.1 288.5L776.6 286.2L785 284.2L793.3 282.6L801.4 281.2L809.3 280.1L817.1 279.4L824.6 278.9L832 278.7L839.2 278.7L846.2 279.1L852.9 279.7L859.5 280.6L865.8 281.8L871.8 283.2L877.6 284.8L883.1 286.7L888.3 288.9L893.3 291.3L897.9 293.9L902.3 296.7L906.4 299.7L910.1 302.9L913.6 306.3L916.7 309.9L919.4 313.7L921.9 317.7L924 321.7L925.8 326L927.2 330.4L928.3 334.9L929 339.5L929.4 344.3L929.4 349.1L929 354L928.3 359L927.2 364.1L925.8 369.2L924 374.4L921.8 379.6L919.3 384.9L916.4 390.1L913.1 395.4L909.5 400.7L905.6 405.9L901.2 411.1L896.6 416.3L891.6 421.5L886.2 426.5L880.5 431.6L874.5 436.5L868.1 441.4L861.5 446.1L854.5 450.8L847.2 455.3L839.6 459.8L831.7 464L823.5 468.2L815.1 472.2L806.3 476.1L797.3 479.8L788.1 483.3L778.6 486.6L768.9 489.8L758.9 492.8L748.8 495.5L738.4 498.1L727.8 500.5L717.1 502.6L706.2 504.5L695.1 506.3L683.8 507.7L672.5 509L660.9 510L649.3 510.8L637.6 511.3L625.8 511.6L613.9 511.7L601.9 511.5L589.9 511L577.8 510.3L565.7 509.4L553.6 508.2L541.5 506.8L529.4 505.1L517.3 503.2L505.2 501L493.2 498.6L481.2 496L469.3 493.1L457.5 489.9L445.7 486.6L434.1 483L422.6 479.2L411.2 475.2L399.9 471L388.8 466.6L377.9 461.9L367.1 457.1L356.5 452.1L346.1 446.9L335.8 441.6L325.8 436L316.1 430.3L306.5 424.5L297.2 418.5L288.1 412.4L279.3 406.1L270.7 399.8L262.4 393.3L254.4 386.8L246.7 380.1L239.2 373.4L232.1 366.6L225.2 359.7L218.7 352.8L212.4 345.9L206.5 338.9L200.9 331.9L195.6 324.9L190.7 317.9L186 310.9L181.8 304L177.8 297.1L174.2 290.2L170.9 283.4L167.9 276.7L165.3 270L163 263.5L161.1 257L159.5 250.6L158.2 244.4L157.2 238.3L156.6 232.4L156.3 226.6L156.4 221L156.7 215.5L157.4 210.3L158.4 205.2L159.7 200.3L161.3 195.6L163.2 191.2L165.4 187L167.9 183L170.6 179.3L173.7 175.8L176.9 172.6L180.5 169.7L184.3 167L188.4 164.6L192.6 162.5L197.2 160.7L201.9 159.2L206.8 158L212 157.2L217.3 156.6L222.8 156.3L228.5 156.4L234.3 156.8L240.3 157.5L246.4 158.6L252.7 160L259.1 161.7L265.6 163.7L272.2 166.1L278.9 168.8L285.6 171.9L292.5 175.3L299.3 179.1L306.3 183.1L313.2 187.5L320.2 192.3L327.2 197.3L334.2 202.7L341.2 208.4L348.1 214.4L355.1 220.8L362 227.4L368.8 234.4L375.6 241.6L382.3 249.2L388.9 257L395.5 265.1L401.9 273.5L408.2 282.1L414.4 291L420.5 300.2L426.4 309.6L432.2 319.2L437.9 329.1L443.3 339.2L448.6 349.5L453.8 359.9L458.7 370.6L463.5 381.4L468 392.4L472.4 403.6L476.6 414.9L480.5 426.3L484.2 437.9L487.7 449.6L491 461.3L494 473.2L496.8 485.1L499.4 497.1L501.7 509.1L503.8 521.2L505.7 533.3L507.3 545.5L508.6 557.6L509.7 569.7L510.6 581.8L511.2 593.8L511.6 605.8L511.7 617.8L511.5 629.7L511.2 641.5L510.5 653.1L509.7 664.7L508.6 676.2L507.3 687.5L505.7 698.7L503.9 709.8L501.9 720.6L499.7 731.3L497.3 741.8L494.6 752.1L491.8 762.2L488.8 772.1L485.6 781.8L482.1 791.2L478.6 800.3L474.8 809.2L470.9 817.9L466.9 826.2L462.7 834.3L458.3 842.1L453.9 849.6L449.3 856.8L444.6 863.7L439.8 870.3L434.9 876.5L429.9 882.4L424.9 888L419.8 893.2L414.6 898.1L409.4 902.7L404.2 906.9L398.9 910.7L393.7 914.2L388.4 917.4L383.2 920.1L377.9 922.6L372.7 924.6L367.6 926.3L362.4 927.6L357.4 928.6L352.4 929.2L347.5 929.4L342.7 929.3L338 928.8L333.4 928L328.9 926.8L324.6 925.2L320.4 923.4L316.3 921.1L312.5 918.6L308.7 915.7L305.2 912.5L301.8 908.9L298.7 905.1L295.7 900.9L293 896.4L290.5 891.7L288.2 886.6L286.1 881.3L284.3 875.7L282.7 869.8L281.4 863.7L280.3 857.4L279.5 850.8L278.9 843.9L278.7 836.9L278.7 829.6L279 822.2L279.6 814.5L280.5 806.7L281.6 798.7L283.1 790.6L284.8 782.3L286.9 773.9L289.3 765.3L291.9 756.7L294.9 747.9L298.1 739.1L301.7 730.1L305.6 721.1L309.7 712.1L314.2 703L318.9 693.9L324 684.7L329.3 675.6L334.9 666.4L340.9 657.3L347 648.2L353.5 639.1L360.2 630.1L367.2 621.1L374.5 612.2L382 603.4L389.8 594.7L397.8 586L406 577.5L414.5 569.1L423.2 560.8L432.1 552.7L441.1 544.7L450.4 536.9L459.9 529.2L469.6 521.7L479.4 514.4L489.4 507.3L499.5 500.3L509.7 493.6L520.1 487.1L530.6 480.8L541.2 474.7L551.9 468.9L562.7 463.3L573.6 457.9L584.5 452.8L595.5 447.9L606.5 443.3L617.5 438.9L628.5 434.8L639.6 430.9L650.6 427.3L661.6 424L672.6 421L683.5 418.2L694.3 415.6L705.1 413.4L715.8 411.4L726.5 409.7L737 408.2L747.4 407L757.6 406.1L767.7 405.4L777.7 405L787.5 404.9L797.1 405L806.6 405.3L815.8 405.9L824.9 406.7L833.7 407.8L842.3 409.1L850.6 410.6L858.7 412.4L866.6 414.3L874.2 416.5L881.5 418.9L888.5 421.4L895.3 424.2L901.7 427.1L907.8 430.2L913.7 433.4L919.2 436.8L924.3 440.4L929.2 444.1L933.7 447.9L937.9 451.8L941.7 455.9L945.2 460L948.3 464.3L951 468.6L953.4 473L955.4 477.4L957.1 481.9L958.4 486.4L959.3 491L959.8 495.6L960 500.2" opacity="0.15"/></g></svg>