<svg xmlns="http://www.w3.org/2000/svg" viewBox="0 0 1000 1000" preserveAspectRatio="xMidYMid slice" fill="none" stroke-linecap="round" stroke-linejoin="round"><g stroke="#0f3d2e" stroke-width="0.9"><path d="M960 500L959.9 504.6L959.7 509.2L959.3 513.8L958.8 518.4L958.1 522.9L957.3 527.5L956.3 532L955.2 536.5L954 541L952.6 545.4L951 549.8L949.3 554.2L947.5 558.5L945.5 562.8L943.4 567L941.1 571.2L938.7 575.3L936.2 579.4L933.5 583.4L930.7 587.3L927.8 591.2L924.7 595L921.5 598.7L918.2 602.3L914.7 605.9L911.2 609.4L907.5 612.8L903.7 616.1L899.7 619.3L895.7 622.4L891.6 625.4L887.3 628.3L882.9 631.2L878.5 633.9L873.9 636.5L869.3 639L864.5 641.4L859.6 643.6L854.7 645.8L849.7 647.8L844.6 649.8L839.4 651.6L834.1 653.2L828.8 654.8L823.4 656.2L817.9 657.5L812.4 658.7L806.8 659.7L801.1 660.6L795.4 661.4L789.6 662L783.8 662.5L777.9 662.8L772 663.1L766.1 663.1L760.1 663.1L754.1 662.9L748.1 662.6L742.1 662.1L736 661.5L729.9 660.7L723.8 659.8L717.7 658.7L711.6 657.6L705.5 656.2L699.4 654.7L693.3 653.1L687.2 651.4L681.1 649.5L675.1 647.5L669 645.3L663 643L657 640.5L651 637.9L645.1 635.2L639.2 632.3L633.4 629.3L627.6 626.2L621.8 623L616.1 619.6L610.5 616.1L604.9 612.4L599.4 608.6L593.9 604.8L588.5 600.7L583.2 596.6L577.9 592.4L572.7 588L567.6 583.5L562.6 578.9L557.7 574.2L552.8 569.4L548.1 564.5L543.4 559.5L538.9 554.4L534.4 549.1L530 543.8L525.8 538.4L521.6 533L517.6 527.4L513.6 521.7L509.8 516L506.1 510.2L502.5 504.3L499 498.3L495.7 492.3L492.4 486.2L489.3 480L486.4 473.8L483.5 467.6L480.8 461.2L478.2 454.9L475.7 448.5L473.3 442L471.1 435.5L469.1 429L467.1 422.4L465.3 415.8L463.7 409.2L462.1 402.6L460.7 395.9L459.5 389.3L458.4 382.6L457.4 375.9L456.6 369.2L455.9 362.6L455.3 355.9L454.9 349.2L454.6 342.6L454.4 335.9L454.4 329.3L454.6 322.7L454.8 316.1L455.3 309.6L455.8 303.1L456.5 296.6L457.3 290.2L458.2 283.8L459.3 277.4L460.5 271.1L461.9 264.9L463.3 258.7L464.9 252.6L466.7 246.6L468.5 240.6L470.5 234.7L472.6 228.8L474.8 223.1L477.1 217.4L479.6 211.8L482.1 206.2L484.8 200.8L487.6 195.5L490.5 190.2L493.5 185.1L496.5 180.1L499.7 175.1L503 170.3L506.4 165.6L509.9 160.9L513.5 156.4L517.1 152.1L520.9 147.8L524.7 143.6L528.6 139.6L532.6 135.7L536.6 131.9L540.8 128.3L544.9 124.7L549.2 121.4L553.5 118.1L557.9 115L562.3 112L566.8 109.1L571.3 106.4L575.9 103.9L580.5 101.4L585.1 99.1L589.8 97L594.5 95L599.2 93.1L604 91.4L608.8 89.9L613.5 88.5L618.3 87.2L623.2 86.1L628 85.1L632.8 84.3L637.6 83.6L642.4 83.1L647.2 82.7L652 82.5L656.8 82.4L661.6 82.5L666.3 82.7L671 83L675.7 83.5L680.3 84.2L684.9 85L689.5 85.9L694 87L698.5 88.2L702.9 89.6L707.3 91.1L711.6 92.7L715.9 94.5L720.1 96.4L724.2 98.5L728.2 100.6L732.2 102.9L736.1 105.4L739.9 107.9L743.7 110.6L747.3 113.4L750.9 116.4L754.4 119.4L757.8 122.6L761.1 125.9L764.2 129.2L767.3 132.7L770.3 136.4L773.2 140.1L775.9 143.9L778.6 147.8L781.1 151.8L783.5 155.9L785.8 160.1L788 164.4L790.1 168.7L792 173.2L793.8 177.7L795.5 182.3L797.1 186.9L798.5 191.7L799.8 196.5L800.9 201.3L802 206.3L802.8 211.3L803.6 216.3L804.2 221.4L804.6 226.5L805 231.7L805.2 236.9L805.2 242.1L805.1 247.4L804.8 252.7L804.4 258L803.9 263.4L803.2 268.7L802.4 274.1L801.4 279.5L800.3 284.9L799 290.3L797.6 295.7L796.1 301.1L794.4 306.5L792.5 311.8L790.5 317.2L788.4 322.5L786.1 327.9L783.7 333.2L781.2 338.4L778.5 343.7L775.6 348.9L772.7 354L769.5 359.1L766.3 364.2L762.9 369.2L759.4 374.2L755.8 379.1L752 383.9L748.1 388.7L744.1 393.5L739.9 398.1L735.6 402.7L731.2 407.2L726.7 411.6L722.1 416L717.3 420.3L712.5 424.5L707.5 428.5L702.5 432.6L697.3 436.5L692 440.3L686.6 444L681.1 447.6L675.6 451.1L669.9 454.5L664.2 457.8L658.3 461L652.4 464.1L646.4 467L640.4 469.8L634.2 472.6L628 475.2L621.7 477.7L615.4 480L609 482.2L602.5 484.3L596 486.3L589.4 488.2L582.8 489.9L576.2 491.5L569.5 492.9L562.7 494.2L556 495.4L549.2 496.5L542.4 497.4L535.5 498.2L528.7 498.8L521.8 499.3L514.9 499.7L508 499.9L501.1 500L494.2 500L487.3 499.8L480.4 499.4L473.5 499L466.7 498.4L459.8 497.7L453 496.8L446.2 495.8L439.4 494.6L432.7 493.4L426 491.9L419.3 490.4L412.7 488.7L406.1 486.9L399.6 485L393.1 482.9L386.7 480.7L380.3 478.4L374 476L367.8 473.4L361.6 470.7L355.5 467.9L349.5 465L343.5 462L337.7 458.8L331.9 455.6L326.2 452.2L320.6 448.7L315.1 445.1L309.7 441.5L304.4 437.7L299.2 433.8L294.1 429.8L289.1 425.8L284.2 421.6L279.4 417.4L274.7 413L270.2 408.6L265.8 404.1L261.4 399.6L257.3 395L253.2 390.2L249.2 385.5L245.4 380.6L241.7 375.8L238.2 370.8L234.8 365.8L231.5 360.7L228.3 355.6L225.3 350.5L222.4 345.3L219.7 340.1L217.1 334.8L214.6 329.5L212.3 324.2L210.1 318.9L208.1 313.5L206.2 308.2L204.4 302.8L202.8 297.4L201.4 292L200.1 286.6L198.9 281.2L197.9 275.8L197 270.4L196.3 265.1L195.7 259.7L195.3 254.4L195 249.1L194.8 243.8L194.8 238.5L195 233.3L195.2 228.1L195.7 223L196.2 217.9L196.9 212.8L197.8 207.9L198.7 202.9L199.8 198L201.1 193.2L202.5 188.4L204 183.8L205.6 179.1L207.4 174.6L209.3 170.1L211.3 165.7L213.4 161.4L215.7 157.2L218.1 153.1L220.6 149.1L223.2 145.1L225.9 141.3L228.8 137.5L231.7 133.9L234.8 130.4L237.9 126.9L241.2 123.6L244.5 120.4L248 117.3L251.5 114.4L255.1 111.5L258.9 108.8L262.6 106.2L266.5 103.7L270.5 101.4L274.5 99.1L278.6 97L282.8 95.1L287 93.3L291.3 91.6L295.7 90L300.1 88.6L304.5 87.4L309 86.2L313.6 85.3L318.2 84.4L322.8 83.7L327.5 83.2L332.2 82.8L336.9 82.5L341.7 82.4L346.4 82.4L351.2 82.6L356 82.9L360.8 83.4L365.7 84L370.5 84.8L375.3 85.7L380.1 86.8L384.9 88L389.7 89.4L394.5 90.9L399.3 92.6L404 94.4L408.7 96.3L413.4 98.4L418.1 100.7L422.7 103.1L427.3 105.6L431.8 108.3L436.3 111.1L440.7 114L445.1 117.1L449.4 120.3L453.7 123.7L457.9 127.1L462.1 130.7L466.1 134.5L470.1 138.3L474.1 142.3L477.9 146.4L481.7 150.7L485.4 155L489 159.5L492.5 164.1L495.9 168.8L499.2 173.6L502.4 178.5L505.6 183.5L508.6 188.6L511.5 193.8L514.3 199.1L517 204.5L519.6 210L522.1 215.6L524.5 221.2L526.7 227L528.9 232.8L530.9 238.7L532.8 244.6L534.5 250.7L536.2 256.8L537.7 262.9L539.1 269.2L540.3 275.4L541.4 281.8L542.4 288.1L543.3 294.5L544 301L544.6 307.5L545 314L545.4 320.6L545.5 327.2L545.6 333.8L545.5 340.4L545.2 347.1L544.9 353.8L544.3 360.4L543.7 367.1L542.9 373.8L542 380.5L540.9 387.2L539.7 393.8L538.3 400.5L536.8 407.1L535.2 413.7L533.5 420.3L531.6 426.9L529.5 433.4L527.4 439.9L525.1 446.4L522.6 452.8L520.1 459.2L517.4 465.6L514.6 471.8L511.6 478.1L508.6 484.2L505.4 490.4L502 496.4L498.6 502.4L495 508.3L491.4 514.1L487.6 519.9L483.7 525.6L479.7 531.2L475.6 536.7L471.3 542.1L467 547.5L462.6 552.7L458 557.9L453.4 562.9L448.7 567.9L443.9 572.7L439 577.4L434 582.1L428.9 586.6L423.7 591L418.5 595.3L413.2 599.4L407.8 603.5L402.4 607.4L396.9 611.2L391.3 614.9L385.7 618.5L380 621.9L374.3 625.2L368.5 628.4L362.6 631.4L356.8 634.3L350.8 637.1L344.9 639.7L338.9 642.2L332.9 644.6L326.9 646.8L320.8 648.9L314.7 650.8L308.7 652.6L302.6 654.3L296.4 655.8L290.3 657.1L284.2 658.4L278.1 659.5L272 660.4L265.9 661.2L259.9 661.9L253.8 662.4L247.8 662.8L241.8 663L235.8 663.1L229.8 663.1L223.9 662.9L218.1 662.6L212.2 662.2L206.5 661.6L200.7 660.9L195 660L189.4 659L183.9 657.9L178.4 656.6L172.9 655.3L167.6 653.7L162.3 652.1L157.1 650.3L151.9 648.5L146.9 646.5L141.9 644.3L137 642.1L132.3 639.8L127.6 637.3L123 634.7L118.5 632L114.1 629.3L109.8 626.4L105.6 623.4L101.5 620.3L97.6 617.1L93.7 613.8L90 610.5L86.4 607L82.9 603.5L79.5 599.9L76.3 596.2L73.2 592.4L70.2 588.5L67.4 584.6L64.7 580.7L62.1 576.6L59.6 572.5L57.3 568.3L55.2 564.1L53.1 559.9L51.3 555.6L49.5 551.2L47.9 546.8L46.5 542.4L45.2 537.9L44 533.4L43 528.9L42.1 524.4L41.4 519.8L40.8 515.2L40.4 510.7L40.1 506.1L40 501.5L40 496.9L40.2 492.3L40.5 487.7L41 483.1L41.6 478.5L42.4 474L43.3 469.4L44.4 464.9L45.6 460.5L47 456L48.5 451.6L50.1 447.2L51.9 442.9L53.9 438.6L55.9 434.3L58.2 430.1L60.5 426L63 421.9L65.6 417.9L68.4 413.9L71.3 410.1L74.3 406.2L77.5 402.5L80.8 398.8L84.2 395.2L87.7 391.7L91.3 388.3L95.1 385L99 381.7L103 378.6L107.1 375.5L111.3 372.6L115.7 369.7L120.1 367L124.6 364.3L129.3 361.8L134 359.4L138.8 357.1L143.7 354.9L148.7 352.8L153.8 350.8L159 349L164.2 347.3L169.5 345.7L174.9 344.2L180.4 342.9L185.9 341.7L191.5 340.6L197.1 339.7L202.8 338.9L208.6 338.2L214.3 337.7L220.2 337.3L226.1 337L232 336.9L238 336.9L243.9 337L250 337.3L256 337.8L262.1 338.3L268.1 339.1L274.2 339.9L280.3 340.9L286.4 342.1L292.6 343.3L298.7 344.8L304.8 346.3L310.9 348L316.9 349.9L323 351.9L329.1 354L335.1 356.3L341.1 358.7L347.1 361.2L353 363.9L358.9 366.7L364.8 369.7L370.6 372.8L376.3 376L382.1 379.3L387.7 382.8L393.3 386.4L398.9 390.1L404.4 394L409.8 398L415.1 402.1L420.4 406.3L425.6 410.6L430.7 415.1L435.8 419.6L440.7 424.3L445.6 429.1L450.4 433.9L455.1 438.9L459.7 444L464.2 449.2L468.6 454.5L472.9 459.8L477.1 465.3L481.1 470.8L485.1 476.5L489 482.2L492.7 488L496.4 493.8L499.9 499.8L503.3 505.8L506.5 511.9L509.7 518L512.7 524.2L515.6 530.4L518.4 536.7L521 543.1L523.5 549.5L525.9 555.9L528.2 562.4L530.3 568.9L532.3 575.5L534.1 582.1L535.8 588.7L537.4 595.3L538.8 601.9L540.1 608.6L541.3 615.3L542.3 621.9L543.2 628.6L543.9 635.3L544.5 642L545 648.7L545.3 655.3L545.5 662L545.6 668.6L545.5 675.2L545.3 681.8L544.9 688.3L544.4 694.9L543.8 701.3L543 707.8L542.1 714.2L541 720.5L539.9 726.9L538.6 733.1L537.1 739.3L535.6 745.4L533.9 751.5L532.1 757.5L530.2 763.5L528.1 769.3L525.9 775.1L523.6 780.8L521.2 786.5L518.7 792L516.1 797.5L513.3 802.8L510.5 808.1L507.5 813.3L504.5 818.3L501.3 823.3L498 828.2L494.7 832.9L491.2 837.6L487.7 842.1L484 846.6L480.3 850.9L476.5 855.1L472.6 859.1L468.7 863.1L464.7 866.9L460.6 870.6L456.4 874.1L452.2 877.6L447.9 880.9L443.5 884L439.1 887.1L434.7 890L430.2 892.7L425.6 895.3L421 897.8L416.4 900.1L411.7 902.3L407 904.4L402.3 906.3L397.5 908L392.8 909.6L388 911.1L383.2 912.4L378.4 913.6L373.6 914.6L368.7 915.5L363.9 916.2L359.1 916.8L354.3 917.2L349.5 917.5L344.7 917.6L339.9 917.6L335.2 917.4L330.5 917.1L325.8 916.7L321.1 916L316.5 915.3L311.9 914.4L307.4 913.4L302.9 912.2L298.5 910.9L294.1 909.4L289.7 907.8L285.5 906.1L281.3 904.2L277.1 902.2L273 900.1L269 897.8L265.1 895.4L261.3 892.9L257.5 890.2L253.8 887.5L250.2 884.6L246.7 881.6L243.3 878.4L240 875.2L236.8 871.8L233.6 868.4L230.6 864.8L227.7 861.1L224.9 857.3L222.2 853.5L219.7 849.5L217.2 845.4L214.9 841.3L212.7 837L210.6 832.7L208.6 828.3L206.7 823.8L205 819.2L203.4 814.5L201.9 809.8L200.6 805.1L199.4 800.2L198.4 795.3L197.4 790.3L196.6 785.3L196 780.3L195.5 775.1L195.1 770L194.9 764.8L194.8 759.6L194.9 754.3L195.1 749L195.4 743.7L195.9 738.3L196.5 733L197.3 727.6L198.2 722.2L199.3 716.8L200.5 711.4L201.9 706L203.4 700.6L205.1 695.3L206.9 689.9L208.8 684.5L210.9 679.2L213.1 673.8L215.5 668.5L218 663.3L220.7 658L223.4 652.8L226.4 647.6L229.4 642.5L232.6 637.4L236 632.4L239.5 627.4L243.1 622.5L246.8 617.6L250.7 612.8L254.6 608L258.8 603.4L263 598.7L267.4 594.2L271.8 589.8L276.4 585.4L281.1 581.1L286 576.9L290.9 572.7L295.9 568.7L301.1 564.8L306.3 560.9L311.7 557.2L317.1 553.5L322.6 550L328.3 546.6L334 543.2L339.8 540L345.7 536.9L351.7 533.9L357.7 531L363.8 528.3L370 525.6L376.3 523.1L382.6 520.7L389 518.5L395.4 516.3L401.9 514.3L408.5 512.4L415.1 510.7L421.7 509L428.4 507.5L435.1 506.2L441.9 504.9L448.7 503.8L455.5 502.9L462.3 502.1L469.2 501.4L476 500.8L482.9 500.4L489.8 500.2L496.7 500L503.6 500L510.5 500.2L517.4 500.4L524.3 500.9L531.1 501.4L538 502.1L544.8 502.9L551.6 503.9L558.4 505L565.2 506.2L571.9 507.6L578.6 509.1L585.2 510.7L591.8 512.5L598.4 514.4L604.9 516.4L611.3 518.6L617.7 520.8L624 523.2L630.3 525.8L636.5 528.4L642.6 531.2L648.6 534L654.6 537L660.5 540.2L666.3 543.4L672 546.7L677.6 550.2L683.1 553.7L688.6 557.3L693.9 561.1L699.2 564.9L704.3 568.9L709.3 572.9L714.3 577.1L719.1 581.3L723.8 585.6L728.4 590L732.8 594.4L737.2 599L741.4 603.6L745.5 608.2L749.5 613L753.4 617.8L757.1 622.7L760.7 627.6L764.2 632.6L767.5 637.6L770.7 642.7L773.8 647.9L776.7 653L779.5 658.2L782.1 663.5L784.6 668.8L787 674.1L789.2 679.4L791.3 684.7L793.2 690.1L795 695.5L796.7 700.9L798.2 706.3L799.5 711.7L800.7 717.1L801.8 722.5L802.7 727.9L803.5 733.2L804.1 738.6L804.6 743.9L804.9 749.2L805.1 754.5L805.2 759.8L805.1 765L804.9 770.2L804.5 775.4L804 780.5L803.3 785.5L802.5 790.6L801.6 795.5L800.5 800.4L799.3 805.3L798 810L796.5 814.8L794.9 819.4L793.2 824L791.3 828.5L789.4 832.9L787.3 837.2L785 841.5L782.7 845.6L780.2 849.7L777.6 853.6L774.9 857.5L772.1 861.3L769.2 865L766.2 868.5L763.1 872L759.9 875.3L756.6 878.6L753.1 881.7L749.6 884.7L746 887.6L742.3 890.4L738.6 893L734.7 895.5L730.8 897.9L726.8 900.2L722.7 902.3L718.6 904.3L714.3 906.2L710.1 907.9L705.7 909.5L701.3 910.9L696.9 912.2L692.4 913.4L687.9 914.4L683.3 915.3L678.7 916.1L674 916.7L669.3 917.1L664.6 917.4L659.8 917.6L655.1 917.6L650.3 917.5L645.5 917.2L640.7 916.7L635.9 916.2L631.1 915.4L626.2 914.6L621.4 913.5L616.6 912.4L611.8 911L607 909.6L602.2 908L597.5 906.2L592.8 904.3L588.1 902.2L583.4 900L578.8 897.7L574.2 895.2L569.6 892.6L565.1 889.8L560.7 886.9L556.3 883.9L551.9 880.7L547.6 877.4L543.4 874L539.3 870.4L535.2 866.7L531.1 862.9L527.2 858.9L523.3 854.9L519.5 850.7L515.8 846.4L512.2 841.9L508.6 837.4L505.2 832.7L501.8 828L498.6 823.1L495.4 818.1L492.4 813L489.4 807.9L486.5 802.6L483.8 797.2L481.2 791.8L478.7 786.2L476.3 780.6L474 774.9L471.8 769.1L469.8 763.2L467.8 757.3L466 751.2L464.3 745.2L462.8 739L461.4 732.8L460.1 726.6L458.9 720.3L457.9 713.9L457 707.5L456.2 701.1L455.6 694.6L455.1 688L454.7 681.5L454.5 674.9L454.4 668.3L454.5 661.7L454.7 655L455 648.4L455.5 641.7L456.1 635L456.8 628.3L457.7 621.6L458.8 615L459.9 608.3L461.2 601.6L462.7 595L464.2 588.4L466 581.8L467.8 575.2L469.8 568.6L471.9 562.1L474.2 555.6L476.6 549.2L479.1 542.8L481.7 536.5L484.5 530.2L487.4 523.9L490.5 517.7L493.6 511.6L496.9 505.5L500.3 499.5L503.8 493.6L507.4 487.7L511.2 481.9L515.1 476.2L519 470.6L523.1 465L527.3 459.6L531.6 454.2L536 448.9L540.5 443.8L545.1 438.7L549.8 433.7L554.6 428.8L559.5 424.1L564.4 419.4L569.5 414.9L574.6 410.4L579.8 406.1L585.1 401.9L590.4 397.8L595.9 393.8L601.4 390L606.9 386.3L612.5 382.7L618.2 379.2L623.9 375.8L629.7 372.6L635.5 369.6L641.4 366.6L647.3 363.8L653.2 361.1L659.2 358.6L665.2 356.2L671.2 353.9L677.3 351.8L683.3 349.8L689.4 348L695.5 346.3L701.6 344.7L707.7 343.3L713.8 342L719.9 340.9L726 339.9L732.1 339L738.2 338.3L744.3 337.7L750.3 337.3L756.3 337L762.3 336.9L768.3 336.9L774.2 337L780.1 337.3L785.9 337.7L791.7 338.2L797.5 338.9L803.2 339.7L808.8 340.7L814.4 341.7L819.9 343L825.3 344.3L830.7 345.8L836 347.4L841.3 349.1L846.4 350.9L851.5 352.9L856.5 355L861.4 357.2L866.2 359.5L871 361.9L875.6 364.4L880.1 367.1L884.5 369.8L888.9 372.7L893.1 375.7L897.2 378.7L901.2 381.9L905.1 385.1L908.8 388.5L912.5 391.9L916 395.4L919.4 399L922.7 402.7L925.8 406.4L928.8 410.2L931.7 414.1L934.5 418.1L937.1 422.1L939.6 426.2L941.9 430.3L944.2 434.5L946.2 438.8L948.2 443.1L949.9 447.4L951.6 451.8L953.1 456.2L954.4 460.7L955.7 465.1L956.7 469.6L957.6 474.2L958.4 478.7L959 483.3L959.5 487.9L959.8 492.5L960 497.1L960 501.7" opacity="0.15"/></g></svg>