<svg xmlns="http://www.w3.org/2000/svg" viewBox="0 0 1000 1000" preserveAspectRatio="xMidYMid slice" fill="none" stroke-linecap="round" stroke-linejoin="round"><g stroke="#0f3d2e" stroke-width="0.55"><path d="M500 500L636.8 897.3L230.6 710.5L619.2 577.4L389.3 943.9L270.9 520L610 747L170.9 806.9L415.6 455.1L441.8 867.6L107.7 569.2L523.3 542.1L207.3 825.1L216.7 379.7L486.9 686.6L55.7 619.1L395.4 344.9L314.8 745.8L83.9 364.8L499.2 451.9L125.7 636.3L265.8 210.8L449.3 581.1L61.6 398.8L471.7 231.1L291.5 597.2L182.2 170.9L564.5 373.3L161.5 452.4L419.8 87.5L500 500L182.8 224.3L628.1 183L358 492.6L373.9 60.2L688.4 368.1L281.3 341.1L631.6 69.7L595.6 496.7L366.6 152.6L805.2 243.9L458.8 475.2L591 72.1L805.5 462.5L418 331.8L825.3 174.7L668.2 582L537.5 194.5L927.9 409L524.8 541.2L756.1 194.8L847.4 633.4L503.3 404.4L930.3 368.4L658.9 718.7L631.9 311.6L939.8 626.1L507.4 642L817 371.9L775.7 817.2L500 500L912.5 580.2L547.6 838.5L626.7 435.5L829.1 817.8L402.8 708.5L768.9 528.3L601.2 938.4L418.9 550.7L789.2 734.2L363.7 874.3L548.1 500.8L635.2 916.1L254.2 685.2L655.1 604.6L380.9 944.3L313.4 513.1L620.3 783.3L174.9 792.7L457.9 476.7L430.8 892.3L132.4 558.2L544.9 584.4L193.1 829.1L253 390L480 729.1L56.1 610.7L422.6 380.8L289.5 769.4L102.7 363.2L500 500L102.7 636.8L289.5 230.6L422.6 619.2L56.1 389.3L480 270.9L253 610L193.1 170.9L544.9 415.6L132.4 441.8L430.8 107.7L457.9 523.3L174.9 207.3L620.3 216.7L313.4 486.9L380.9 55.7L655.1 395.4L254.2 314.8L635.2 83.9L548.1 499.2L363.7 125.7L789.2 265.8L418.9 449.3L601.2 61.6L768.9 471.7L402.8 291.5L829.1 182.2L626.7 564.5L547.6 161.5L912.5 419.8L500 500L775.7 182.8L817 628.1L507.4 358L939.8 373.9L631.9 688.4L658.9 281.3L930.3 631.6L503.3 595.6L847.4 366.6L756.1 805.2L524.8 458.8L927.9 591L537.5 805.5L668.2 418L825.3 825.3L418 668.2L805.5 537.5L591 927.9L458.8 524.8L805.2 756.1L366.6 847.4L595.6 503.3L631.6 930.3L281.3 658.9L688.4 631.9L373.9 939.8L358 507.4L628.1 817L182.8 775.7L500 500L419.8 912.5L161.5 547.6L564.5 626.7L182.2 829.1L291.5 402.8L471.7 768.9L61.6 601.2L449.3 418.9L265.8 789.2L125.7 363.7L499.2 548.1L83.9 635.2L314.8 254.2L395.4 655.1L55.7 380.9L486.9 313.4L216.7 620.3L207.3 174.9L523.3 457.9L107.7 430.8L441.8 132.4L415.6 544.9L170.9 193.1L610 253L270.9 480L389.3 56.1L619.2 422.6L230.6 289.5L636.8 102.7L500 500L363.2 102.7L769.4 289.5L380.8 422.6L610.7 56.1L729.1 480L390 253L829.1 193.1L584.4 544.9L558.2 132.4L892.3 430.8L476.7 457.9L792.7 174.9L783.3 620.3L513.1 313.4L944.3 380.9L604.6 655.1L685.2 254.2L916.1 635.2L500.8 548.1L874.3 363.7L734.2 789.2L550.7 418.9L938.4 601.2L528.3 768.9L708.5 402.8L817.8 829.1L435.5 626.7L838.5 547.6L580.2 912.5L500 500L817.2 775.7L371.9 817L642 507.4L626.1 939.8L311.6 631.9L718.7 658.9L368.4 930.3L404.4 503.3L633.4 847.4L194.8 756.1L541.2 524.8L409 927.9L194.5 537.5L582 668.2L174.7 825.3L331.8 418L462.5 805.5L72.1 591L475.2 458.8L243.9 805.2L152.6 366.6L496.7 595.6L69.7 631.6L341.1 281.3L368.1 688.4L60.2 373.9L492.6 358L183 628.1L224.3 182.8L500 500L87.5 419.8L452.4 161.5L373.3 564.5L170.9 182.2L597.2 291.5L231.1 471.7L398.8 61.6L581.1 449.3L210.8 265.8L636.3 125.7L451.9 499.2L364.8 83.9L745.8 314.8L344.9 395.4L619.1 55.7L686.6 486.9L379.7 216.7L825.1 207.3L542.1 523.3L569.2 107.7L867.6 441.8L455.1 415.6L806.9 170.9L747 610L520 270.9L943.9 389.3L577.4 619.2L710.5 230.6L897.3 636.8L500 500L897.3 363.2L710.5 769.4L577.4 380.8L943.9 610.7L520 729.1L747 390L806.9 829.1L455.1 584.4L867.6 558.2L569.2 892.3L542.1 476.7L825.1 792.7L379.7 783.3L686.6 513.1L619.1 944.3L344.9 604.6L745.8 685.2L364.8 916.1L451.9 500.8L636.3 874.3L210.8 734.2L581.1 550.7L398.8 938.4L231.1 528.3L597.2 708.5L170.9 817.8L373.3 435.5L452.4 838.5L87.5 580.2L500 500L224.3 817.2L183 371.9L492.6 642L60.2 626.1L368.1 311.6L341.1 718.7L69.7 368.4L496.7 404.4L152.6 633.4L243.9 194.8L475.2 541.2L72.1 409L462.5 194.5L331.8 582L174.7 174.7L582 331.8L194.5 462.5L409 72.1L541.2 475.2L194.8 243.9L633.4 152.6L404.4 496.7L368.4 69.7L718.7 341.1L311.6 368.1L626.1 60.2L642 492.6L371.9 183L817.2 224.3L500 500L580.2 87.5L838.5 452.4L435.5 373.3L817.8 170.9L708.5 597.2L528.3 231.1L938.4 398.8L550.7 581.1L734.2 210.8L874.3 636.3L500.8 451.9L916.1 364.8L685.2 745.8L604.6 344.9L944.3 619.1L513.1 686.6L783.3 379.7L792.7 825.1L476.7 542.1L892.3 569.2L558.2 867.6L584.4 455.1L829.1 806.9L390 747L729.1 520L610.7 943.9L380.8 577.4L769.4 710.5L363.2 897.3L500 500" opacity="0.11"/></g></svg>