<svg xmlns="http://www.w3.org/2000/svg" viewBox="0 0 1000 1000" preserveAspectRatio="xMidYMid slice" fill="none" stroke-linecap="round" stroke-linejoin="round"><g stroke="#0f3d2e" stroke-width="0.55"><path d="M500 500L454.1 874L919.4 604.6L542.7 388.9L761.1 638.8L762.8 124.6L329.1 346.1L646.7 372.5L246.7 124.4L210.2 647.7L472.7 424.9L93.8 593.8L541.6 896.2L540.1 500.7L451 849L929.2 615L558.9 354.1L730.8 627.9L770.4 127.9L307 320.1L620.5 398.9L258 127.4L183.3 654.5L486.9 462.1L110.3 582.8L536.3 915.3L579.8 502.8L449.1 821.3L935.5 624.9L576 321L699.2 615L775.8 134L287.3 294.6L592.5 425.1L270.9 133.4L158.5 659.2L500 500L130.1 571.9L530.2 931.2L618.9 506.2L448.7 791.2L938.2 634L593.5 289.9L666.6 600.1L778.9 143L270 270L562.9 450.8L285.3 142.6L136.1 662L511.7 538.3L153 561.2L523.3 943.7L656.9 511L449.7 759L937.5 642.1L611.5 260.9L633.4 583.4L779.6 154.7L255.2 246.5L532 475.9L300.8 155L116.2 662.9L522 576.8L178.7 550.9L515.8 952.7L693.7 516.9L452.2 725L933.3 649.2L629.6 234.2L599.8 564.8L777.9 168.9L243 224.4L500 500L317.3 170.4L99.2 661.9L530.8 615L207.2 541.2L508 958.2L728.7 524L456.3 689.4L925.7 654.9L647.7 210.2L566.2 544.7L773.5 185.4L233.4 204L467.2 523L334.6 188.9L85.2 659.2L538.1 652.7L238.1 532.2L500 960L761.9 532.2L461.9 652.7L914.8 659.2L665.4 188.9L532.8 523L766.6 204L226.5 185.4L433.8 544.7L352.3 210.2L74.3 654.9L543.7 689.4L271.3 524L492 958.2L792.8 541.2L469.2 615L900.8 661.9L682.7 170.4L500 500L757 224.4L222.1 168.9L400.2 564.8L370.4 234.2L66.7 649.2L547.8 725L306.3 516.9L484.2 952.7L821.3 550.9L478 576.8L883.8 662.9L699.2 155L468 475.9L744.8 246.5L220.4 154.7L366.6 583.4L388.5 260.9L62.5 642.1L550.3 759L343.1 511L476.7 943.7L847 561.2L488.3 538.3L863.9 662L714.7 142.6L437.1 450.8L730 270L221.1 143L333.4 600.1L406.5 289.9L61.8 634L551.3 791.2L381.1 506.2L469.8 931.2L869.9 571.9L500 500L841.5 659.2L729.1 133.4L407.5 425.1L712.7 294.6L224.2 134L300.8 615L424 321L64.5 624.9L550.9 821.3L420.2 502.8L463.7 915.3L889.7 582.8L513.1 462.1L816.7 654.5L742 127.4L379.5 398.9L693 320.1L229.6 127.9L269.2 627.9L441.1 354.1L70.8 615L549 849L459.9 500.7L458.4 896.2L906.2 593.8L527.3 424.9L789.8 647.7L753.3 124.4L353.3 372.5L670.9 346.1L237.2 124.6L238.9 638.8L457.3 388.9L80.6 604.6L545.9 874L500 500L454.1 874L919.4 604.6L542.7 388.9L761.1 638.8L762.8 124.6L329.1 346.1L646.7 372.5L246.7 124.4L210.2 647.7L472.7 424.9L93.8 593.8L541.6 896.2L540.1 500.7L451 849L929.2 615L558.9 354.1L730.8 627.9L770.4 127.9L307 320.1L620.5 398.9L258 127.4L183.3 654.5L486.9 462.1L110.3 582.8L536.3 915.3L579.8 502.8L449.1 821.3L935.5 624.9L576 321L699.2 615L775.8 134L287.3 294.6L592.5 425.1L270.9 133.4L158.5 659.2L500 500L130.1 571.9L530.2 931.2L618.9 506.2L448.7 791.2L938.2 634L593.5 289.9L666.6 600.1L778.9 143L270 270L562.9 450.8L285.3 142.6L136.1 662L511.7 538.3L153 561.2L523.3 943.7L656.9 511L449.7 759L937.5 642.1L611.5 260.9L633.4 583.4L779.6 154.7L255.2 246.5L532 475.9L300.8 155L116.2 662.9L522 576.8L178.7 550.9L515.8 952.7L693.7 516.9L452.2 725L933.3 649.2L629.6 234.2L599.8 564.8L777.9 168.9L243 224.4L500 500L317.3 170.4L99.2 661.9L530.8 615L207.2 541.2L508 958.2L728.7 524L456.3 689.4L925.7 654.9L647.7 210.2L566.2 544.7L773.5 185.4L233.4 204L467.2 523L334.6 188.9L85.2 659.2L538.1 652.7L238.1 532.2L500 960L761.9 532.2L461.9 652.7L914.8 659.2L665.4 188.9L532.8 523L766.6 204L226.5 185.4L433.8 544.7L352.3 210.2L74.3 654.9L543.7 689.4L271.3 524L492 958.2L792.8 541.2L469.2 615L900.8 661.9L682.7 170.4L500 500L757 224.4L222.1 168.9L400.2 564.8L370.4 234.2L66.7 649.2L547.8 725L306.3 516.9L484.2 952.7L821.3 550.9L478 576.8L883.8 662.9L699.2 155L468 475.9L744.8 246.5L220.4 154.7L366.6 583.4L388.5 260.9L62.5 642.1L550.3 759L343.1 511L476.7 943.7L847 561.2L488.3 538.3L863.9 662L714.7 142.6L437.1 450.8L730 270L221.1 143L333.4 600.1L406.5 289.9L61.8 634L551.3 791.2L381.1 506.2L469.8 931.2L869.9 571.9L500 500L841.5 659.2L729.1 133.4L407.5 425.1L712.7 294.6L224.2 134L300.8 615L424 321L64.5 624.9L550.9 821.3L420.2 502.8L463.7 915.3L889.7 582.8L513.1 462.1L816.7 654.5L742 127.4L379.5 398.9L693 320.1L229.6 127.9L269.2 627.9L441.1 354.1L70.8 615L549 849L459.9 500.7L458.4 896.2L906.2 593.8L527.3 424.9L789.8 647.7L753.3 124.4L353.3 372.5L670.9 346.1L237.2 124.6L238.9 638.8L457.3 388.9L80.6 604.6L545.9 874L500 500" opacity="0.11"/></g></svg>