<svg xmlns="http://www.w3.org/2000/svg" viewBox="0 0 1000 1000" preserveAspectRatio="xMidYMid slice" fill="none" stroke-linecap="round" stroke-linejoin="round"><g stroke="#0f3d2e" stroke-width="0.55"><path d="M500 500L456.3 453.2L491.2 626.5L645.4 382.3L258.6 466.1L669.6 742.2L571.1 165.6L173.1 696.4L897.4 614L301.4 110.2L345.1 925.7L923.2 320.4L82.1 313.9L645.3 922L700.2 123.4L115.2 603.1L807.4 692.1L439 186.3L341.1 718.7L714.3 473.7L379.5 398.9L505 595.5L522.3 476.9L532.1 500.6L436 428.9L486.3 656.7L670.2 367L232.9 457.7L678.7 764.9L581.5 146.8L155 699.2L907.9 624.7L304.3 98.8L336.1 927.1L926.2 327.8L89.4 308.5L635.2 916.1L700.4 138.4L130 592.3L786.7 686.2L448.7 208.8L353.3 694.7L686.1 480.4L404.3 416.8L502.2 564L500 500L564 502.2L416.8 404.3L480.4 686.1L694.7 353.3L208.8 448.7L686.2 786.7L592.3 130L138.4 700.4L916.1 635.2L308.5 89.4L327.8 926.2L927.1 336.1L98.8 304.3L624.7 907.9L699.2 155L146.8 581.5L764.9 678.7L457.7 232.9L367 670.2L656.7 486.3L428.9 436L500.6 532.1L476.9 522.3L595.5 505L398.9 379.5L473.7 714.3L718.7 341.1L186.3 439L692.1 807.4L603.1 115.2L123.4 700.2L922 645.3L313.9 82.1L320.4 923.2L925.7 345.1L110.2 301.4L614 897.4L696.4 173.1L165.6 571.1L742.2 669.6L466.1 258.6L382.3 645.4L626.5 491.2L453.2 456.3L500 500L453.2 543.7L626.5 508.8L382.3 354.6L466.1 741.4L742.2 330.4L165.6 428.9L696.4 826.9L614 102.6L110.2 698.6L925.7 654.9L320.4 76.8L313.9 917.9L922 354.7L123.4 299.8L603.1 884.8L692.1 192.6L186.3 561L718.7 658.9L473.7 285.7L398.9 620.5L595.5 495L476.9 477.7L500.6 467.9L428.9 564L656.7 513.7L367 329.8L457.7 767.1L764.9 321.3L146.8 418.5L699.2 845L624.7 92.1L98.8 695.7L927.1 663.9L327.8 73.8L308.5 910.6L916.1 364.8L138.4 299.6L592.3 870L686.2 213.3L208.8 551.3L694.7 646.7L480.4 313.9L416.8 595.7L564 497.8L500 500L502.2 436L404.3 583.2L686.1 519.6L353.3 305.3L448.7 791.2L786.7 313.8L130 407.7L700.4 861.6L635.2 83.9L89.4 691.5L926.2 672.2L336.1 72.9L304.3 901.2L907.9 375.3L155 300.8L581.5 853.2L678.7 235.1L232.9 542.3L670.2 633L486.3 343.3L436 571.1L532.1 499.4L522.3 523.1L505 404.5L379.5 601.1L714.3 526.3L341.1 281.3L439 813.7L807.4 307.9L115.2 396.9L700.2 876.6L645.3 78L82.1 686.1L923.2 679.6L345.1 74.3L301.4 889.8L897.4 386L173.1 303.6L571.1 834.4L669.6 257.8L258.6 533.9L645.4 617.7L491.2 373.5L456.3 546.8L500 500L543.7 546.8L508.8 373.5L354.6 617.7L741.4 533.9L330.4 257.8L428.9 834.4L826.9 303.6L102.6 386L698.6 889.8L654.9 74.3L76.8 679.6L917.9 686.1L354.7 78L299.8 876.6L884.8 396.9L192.6 307.9L561 813.7L658.9 281.3L285.7 526.3L620.5 601.1L495 404.5L477.7 523.1L467.9 499.4L564 571.1L513.7 343.3L329.8 633L767.1 542.3L321.3 235.1L418.5 853.2L845 300.8L92.1 375.3L695.7 901.2L663.9 72.9L73.8 672.2L910.6 691.5L364.8 83.9L299.6 861.6L870 407.7L213.3 313.8L551.3 791.2L646.7 305.3L313.9 519.6L595.7 583.2L497.8 436L500 500L436 497.8L583.2 595.7L519.6 313.9L305.3 646.7L791.2 551.3L313.8 213.3L407.7 870L861.6 299.6L83.9 364.8L691.5 910.6L672.2 73.8L72.9 663.9L901.2 695.7L375.3 92.1L300.8 845L853.2 418.5L235.1 321.3L542.3 767.1L633 329.8L343.3 513.7L571.1 564L499.4 467.9L523.1 477.7L404.5 495L601.1 620.5L526.3 285.7L281.3 658.9L813.7 561L307.9 192.6L396.9 884.8L876.6 299.8L78 354.7L686.1 917.9L679.6 76.8L74.3 654.9L889.8 698.6L386 102.6L303.6 826.9L834.4 428.9L257.8 330.4L533.9 741.4L617.7 354.6L373.5 508.8L546.8 543.7L500 500L546.8 456.3L373.5 491.2L617.7 645.4L533.9 258.6L257.8 669.6L834.4 571.1L303.6 173.1L386 897.4L889.8 301.4L74.3 345.1L679.6 923.2L686.1 82.1L78 645.3L876.6 700.2L396.9 115.2L307.9 807.4L813.7 439L281.3 341.1L526.3 714.3L601.1 379.5L404.5 505L523.1 522.3L499.4 532.1L571.1 436L343.3 486.3L633 670.2L542.3 232.9L235.1 678.7L853.2 581.5L300.8 155L375.3 907.9L901.2 304.3L72.9 336.1L672.2 926.2L691.5 89.4L83.9 635.2L861.6 700.4L407.7 130L313.8 786.7L791.2 448.7L305.3 353.3L519.6 686.1L583.2 404.3L436 502.2L500 500L497.8 564L595.7 416.8L313.9 480.4L646.7 694.7L551.3 208.8L213.3 686.2L870 592.3L299.6 138.4L364.8 916.1L910.6 308.5L73.8 327.8L663.9 927.1L695.7 98.8L92.1 624.7L845 699.2L418.5 146.8L321.3 764.9L767.1 457.7L329.8 367L513.7 656.7L564 428.9L467.9 500.6L477.7 476.9L495 595.5L620.5 398.9L285.7 473.7L658.9 718.7L561 186.3L192.6 692.1L884.8 603.1L299.8 123.4L354.7 922L917.9 313.9L76.8 320.4L654.9 925.7L698.6 110.2L102.6 614L826.9 696.4L428.9 165.6L330.4 742.2L741.4 466.1L354.6 382.3L508.8 626.5L543.7 453.2L500 500" opacity="0.11"/></g></svg>