<svg xmlns="http://www.w3.org/2000/svg" viewBox="0 0 1000 1000" preserveAspectRatio="xMidYMid slice" fill="none" stroke-linecap="round" stroke-linejoin="round"><g stroke="#0f3d2e" stroke-width="0.55"><path d="M500 500L818.1 609.5L138.4 217.5L657.7 742.8L515.5 562.1L532.8 124.6L317 911L661.6 326.7L612 440.5L95.2 564.1L925.7 575.1L342.8 412.9L374.8 361L669.9 900.4L471.7 94.8L469.2 615L363.7 702.1L860.6 228.3L146.1 615L556.1 501L777.9 601.1L143 210.9L675.3 780.6L501.8 507.8L535.7 160L306.3 915.3L696.7 296.3L564.1 467.3L122.4 553.1L940 585.5L300.8 385L411.8 398.5L654.9 883.3L477.5 71.1L452.5 665.6L388.5 659.2L853.9 242.9L115.3 617.6L611.2 503.9L733.9 589.8L153 208.8L689.2 814.9L490 453L536.8 200.5L298.5 913.2L730 270L514.4 493L155.4 542.3L947.5 595.1L262.7 357.4L448.7 438.8L638.3 860.2L484.4 53.9L434.8 713.3L416.4 615L841.5 260.9L90 617.6L664.6 508.6L687 575.5L168 211.4L699.2 845L480.3 398.4L535.8 245.3L293.7 904.8L760.7 248.2L463.7 516.9L193.9 532.2L948.1 603.5L229 330.7L484.8 481.3L620.5 831.1L492 43.5L416.4 757.1L447.2 570.1L823.4 281.9L70.8 615L715.4 515.1L637.9 558.5L187.7 218.8L705.3 870.3L472.7 345.1L532.7 293.7L292.4 890.4L788.4 231.1L412.6 538.9L237.2 523L942 610.2L200.2 305.3L519.8 525.3L602.1 796.6L500 40L397.9 796.6L480.2 525.3L799.8 305.3L58 610.2L762.8 523L587.4 538.9L211.6 231.1L707.6 890.4L467.3 293.7L527.3 345.1L294.7 870.3L812.3 218.8L362.1 558.5L284.6 515.1L929.2 615L176.6 281.9L552.8 570.1L583.6 757.1L508 43.5L379.5 831.1L515.2 481.3L771 330.7L51.9 603.5L806.1 532.2L536.3 516.9L239.3 248.2L706.3 904.8L464.2 245.3L519.7 398.4L300.8 845L832 211.4L313 575.5L335.4 508.6L910 617.6L158.5 260.9L583.6 615L565.2 713.3L515.6 53.9L361.7 860.2L551.3 438.8L737.3 357.4L52.5 595.1L844.6 542.3L485.6 493L270 270L701.5 913.2L463.2 200.5L510 453L310.8 814.9L847 208.8L266.1 589.8L388.8 503.9L884.7 617.6L146.1 242.9L611.5 659.2L547.5 665.6L522.5 71.1L345.1 883.3L588.2 398.5L699.2 385L60 585.5L877.6 553.1L435.9 467.3L303.3 296.3L693.7 915.3L464.3 160L498.2 507.8L324.7 780.6L857 210.9L222.1 601.1L443.9 501L853.9 615L139.4 228.3L636.3 702.1L530.8 615L528.3 94.8L330.1 900.4L625.2 361L657.2 412.9L74.3 575.1L904.8 564.1L388 440.5L338.4 326.7L683 911L467.2 124.6L484.5 562.1L342.3 742.8L861.6 217.5L181.9 609.5L500 500L818.1 609.5L138.4 217.5L657.7 742.8L515.5 562.1L532.8 124.6L317 911L661.6 326.7L612 440.5L95.2 564.1L925.7 575.1L342.8 412.9L374.8 361L669.9 900.4L471.7 94.8L469.2 615L363.7 702.1L860.6 228.3L146.1 615L556.1 501L777.9 601.1L143 210.9L675.3 780.6L501.8 507.8L535.7 160L306.3 915.3L696.7 296.3L564.1 467.3L122.4 553.1L940 585.5L300.8 385L411.8 398.5L654.9 883.3L477.5 71.1L452.5 665.6L388.5 659.2L853.9 242.9L115.3 617.6L611.2 503.9L733.9 589.8L153 208.8L689.2 814.9L490 453L536.8 200.5L298.5 913.2L730 270L514.4 493L155.4 542.3L947.5 595.1L262.7 357.4L448.7 438.8L638.3 860.2L484.4 53.9L434.8 713.3L416.4 615L841.5 260.9L90 617.6L664.6 508.6L687 575.5L168 211.4L699.2 845L480.3 398.4L535.8 245.3L293.7 904.8L760.7 248.2L463.7 516.9L193.9 532.2L948.1 603.5L229 330.7L484.8 481.3L620.5 831.1L492 43.5L416.4 757.1L447.2 570.1L823.4 281.9L70.8 615L715.4 515.1L637.9 558.5L187.7 218.8L705.3 870.3L472.7 345.1L532.7 293.7L292.4 890.4L788.4 231.1L412.6 538.9L237.2 523L942 610.2L200.2 305.3L519.8 525.3L602.1 796.6L500 40L397.9 796.6L480.2 525.3L799.8 305.3L58 610.2L762.8 523L587.4 538.9L211.6 231.1L707.6 890.4L467.3 293.7L527.3 345.1L294.7 870.3L812.3 218.8L362.1 558.5L284.6 515.1L929.2 615L176.6 281.9L552.8 570.1L583.6 757.1L508 43.5L379.5 831.1L515.2 481.3L771 330.7L51.9 603.5L806.1 532.2L536.3 516.9L239.3 248.2L706.3 904.8L464.2 245.3L519.7 398.4L300.8 845L832 211.4L313 575.5L335.4 508.6L910 617.6L158.5 260.9L583.6 615L565.2 713.3L515.6 53.9L361.7 860.2L551.3 438.8L737.3 357.4L52.5 595.1L844.6 542.3L485.6 493L270 270L701.5 913.2L463.2 200.5L510 453L310.8 814.9L847 208.8L266.1 589.8L388.8 503.9L884.7 617.6L146.1 242.9L611.5 659.2L547.5 665.6L522.5 71.1L345.1 883.3L588.2 398.5L699.2 385L60 585.5L877.6 553.1L435.9 467.3L303.3 296.3L693.7 915.3L464.3 160L498.2 507.8L324.7 780.6L857 210.9L222.1 601.1L443.9 501L853.9 615L139.4 228.3L636.3 702.1L530.8 615L528.3 94.8L330.1 900.4L625.2 361L657.2 412.9L74.3 575.1L904.8 564.1L388 440.5L338.4 326.7L683 911L467.2 124.6L484.5 562.1L342.3 742.8L861.6 217.5L181.9 609.5L500 500" opacity="0.11"/></g></svg>