<svg xmlns="http://www.w3.org/2000/svg" viewBox="0 0 1000 1000" preserveAspectRatio="xMidYMid slice" fill="none" stroke-linecap="round" stroke-linejoin="round"><g stroke="#0f3d2e" stroke-width="0.55"><path d="M500 500L849.7 783.2L538.9 683L669 168.4L812.3 361L277.8 440.5L242.9 146.1L497.5 548L193.9 840L359.6 522.2L845 699.2L610.3 787.4L583.6 242.9L852.4 271.1L404.9 490L174.7 174.7L490 404.9L271.1 852.4L242.9 583.6L787.4 610.3L699.2 845L522.2 359.6L840 193.9L548 497.5L146.1 242.9L440.5 277.8L361 812.3L168.4 669L683 538.9L783.2 849.7L500 500L783.2 150.3L683 461.1L168.4 331L361 187.7L440.5 722.2L146.1 757.1L548 502.5L840 806.1L522.2 640.4L699.2 155L787.4 389.7L242.9 416.4L271.1 147.6L490 595.1L174.7 825.3L404.9 510L852.4 728.9L583.6 757.1L610.3 212.6L845 300.8L359.6 477.8L193.9 160L497.5 452L242.9 853.9L277.8 559.5L812.3 639L669 831.6L538.9 317L849.7 216.8L500 500L150.3 216.8L461.1 317L331 831.6L187.7 639L722.2 559.5L757.1 853.9L502.5 452L806.1 160L640.4 477.8L155 300.8L389.7 212.6L416.4 757.1L147.6 728.9L595.1 510L825.3 825.3L510 595.1L728.9 147.6L757.1 416.4L212.6 389.7L300.8 155L477.8 640.4L160 806.1L452 502.5L853.9 757.1L559.5 722.2L639 187.7L831.6 331L317 461.1L216.8 150.3L500 500L216.8 849.7L317 538.9L831.6 669L639 812.3L559.5 277.8L853.9 242.9L452 497.5L160 193.9L477.8 359.6L300.8 845L212.6 610.3L757.1 583.6L728.9 852.4L510 404.9L825.3 174.7L595.1 490L147.6 271.1L416.4 242.9L389.7 787.4L155 699.2L640.4 522.2L806.1 840L502.5 548L757.1 146.1L722.2 440.5L187.7 361L331 168.4L461.1 683L150.3 783.2L500 500L849.7 783.2L538.9 683L669 168.4L812.3 361L277.8 440.5L242.9 146.1L497.5 548L193.9 840L359.6 522.2L845 699.2L610.3 787.4L583.6 242.9L852.4 271.1L404.9 490L174.7 174.7L490 404.9L271.1 852.4L242.9 583.6L787.4 610.3L699.2 845L522.2 359.6L840 193.9L548 497.5L146.1 242.9L440.5 277.8L361 812.3L168.4 669L683 538.9L783.2 849.7L500 500L783.2 150.3L683 461.1L168.4 331L361 187.7L440.5 722.2L146.1 757.1L548 502.5L840 806.1L522.2 640.4L699.2 155L787.4 389.7L242.9 416.4L271.1 147.6L490 595.1L174.7 825.3L404.9 510L852.4 728.9L583.6 757.1L610.3 212.6L845 300.8L359.6 477.8L193.9 160L497.5 452L242.9 853.9L277.8 559.5L812.3 639L669 831.6L538.9 317L849.7 216.8L500 500L150.3 216.8L461.1 317L331 831.6L187.7 639L722.2 559.5L757.1 853.9L502.5 452L806.1 160L640.4 477.8L155 300.8L389.7 212.6L416.4 757.1L147.6 728.9L595.1 510L825.3 825.3L510 595.1L728.9 147.6L757.1 416.4L212.6 389.7L300.8 155L477.8 640.4L160 806.1L452 502.5L853.9 757.1L559.5 722.2L639 187.7L831.6 331L317 461.1L216.8 150.3L500 500L216.8 849.7L317 538.9L831.6 669L639 812.3L559.5 277.8L853.9 242.9L452 497.5L160 193.9L477.8 359.6L300.8 845L212.6 610.3L757.1 583.6L728.9 852.4L510 404.9L825.3 174.7L595.1 490L147.6 271.1L416.4 242.9L389.7 787.4L155 699.2L640.4 522.2L806.1 840L502.5 548L757.1 146.1L722.2 440.5L187.7 361L331 168.4L461.1 683L150.3 783.2L500 500L849.7 783.2L538.9 683L669 168.4L812.3 361L277.8 440.5L242.9 146.1L497.5 548L193.9 840L359.6 522.2L845 699.2L610.3 787.4L583.6 242.9L852.4 271.1L404.9 490L174.7 174.7L490 404.9L271.1 852.4L242.9 583.6L787.4 610.3L699.2 845L522.2 359.6L840 193.9L548 497.5L146.1 242.9L440.5 277.8L361 812.3L168.4 669L683 538.9L783.2 849.7L500 500L783.2 150.3L683 461.1L168.4 331L361 187.7L440.5 722.2L146.1 757.1L548 502.5L840 806.1L522.2 640.4L699.2 155L787.4 389.7L242.9 416.4L271.1 147.6L490 595.1L174.7 825.3L404.9 510L852.4 728.9L583.6 757.1L610.3 212.6L845 300.8L359.6 477.8L193.9 160L497.5 452L242.9 853.9L277.8 559.5L812.3 639L669 831.6L538.9 317L849.7 216.8L500 500L150.3 216.8L461.1 317L331 831.6L187.7 639L722.2 559.5L757.1 853.9L502.5 452L806.1 160L640.4 477.8L155 300.8L389.7 212.6L416.4 757.1L147.6 728.9L595.1 510L825.3 825.3L510 595.1L728.9 147.6L757.1 416.4L212.6 389.7L300.8 155L477.8 640.4L160 806.1L452 502.5L853.9 757.1L559.5 722.2L639 187.7L831.6 331L317 461.1L216.8 150.3L500 500L216.8 849.7L317 538.9L831.6 669L639 812.3L559.5 277.8L853.9 242.9L452 497.5L160 193.9L477.8 359.6L300.8 845L212.6 610.3L757.1 583.6L728.9 852.4L510 404.9L825.3 174.7L595.1 490L147.6 271.1L416.4 242.9L389.7 787.4L155 699.2L640.4 522.2L806.1 840L502.5 548L757.1 146.1L722.2 440.5L187.7 361L331 168.4L461.1 683L150.3 783.2L500 500" opacity="0.11"/></g></svg>