<svg xmlns="http://www.w3.org/2000/svg" viewBox="0 0 1000 1000" preserveAspectRatio="xMidYMid slice" fill="none" stroke-linecap="round" stroke-linejoin="round"><g stroke="#0f3d2e" stroke-width="0.9"><path d="M960 500L959.9 504.6L959.8 509.2L959.5 513.8L959.2 518.4L958.7 523L958.1 527.6L957.5 532.2L956.7 536.8L955.8 541.3L954.8 545.9L953.8 550.5L952.6 555.1L951.3 559.6L949.9 564.2L948.4 568.7L946.8 573.3L945.1 577.8L943.3 582.4L941.4 586.9L939.5 591.4L937.4 595.9L935.2 600.4L932.9 604.9L930.5 609.3L928 613.8L925.5 618.3L922.8 622.7L920 627.1L917.2 631.5L914.2 635.9L911.2 640.3L908 644.7L904.8 649.1L901.5 653.4L898 657.7L894.5 662L891 666.3L887.3 670.6L883.5 674.9L879.7 679.1L875.7 683.4L871.7 687.6L867.6 691.8L863.4 695.9L859.1 700.1L854.8 704.2L850.3 708.3L845.8 712.4L841.2 716.5L836.6 720.5L831.8 724.6L827 728.6L822.1 732.5L817.2 736.5L812.1 740.4L807 744.3L801.9 748.2L796.6 752.1L791.3 755.9L785.9 759.7L780.5 763.5L775 767.3L769.4 771L763.8 774.7L758.1 778.4L752.4 782L746.6 785.7L740.7 789.2L734.8 792.8L728.9 796.3L722.9 799.8L716.8 803.3L710.7 806.8L704.5 810.2L698.3 813.6L692.1 816.9L685.8 820.2L679.5 823.5L673.1 826.8L666.7 830L660.2 833.2L653.7 836.3L647.2 839.4L640.7 842.5L634.1 845.6L627.5 848.6L620.8 851.6L614.2 854.5L607.5 857.5L600.7 860.3L594 863.2L587.2 866L580.5 868.7L573.6 871.5L566.8 874.2L560 876.8L553.1 879.4L546.3 882L539.4 884.6L532.5 887.1L525.7 889.5L518.8 892L511.9 894.4L505 896.7L498.1 899L491.2 901.3L484.3 903.5L477.4 905.7L470.5 907.8L463.6 910L456.7 912L449.9 914L443 916L436.2 918L429.3 919.9L422.5 921.7L415.7 923.5L409 925.3L402.2 927L395.5 928.7L388.8 930.4L382.1 932L375.4 933.5L368.8 935.1L362.2 936.5L355.6 938L349.1 939.3L342.6 940.7L336.1 942L329.7 943.2L323.3 944.4L317 945.6L310.7 946.7L304.4 947.8L298.2 948.8L292 949.8L285.9 950.8L279.8 951.7L273.8 952.5L267.8 953.3L261.8 954.1L256 954.8L250.1 955.4L244.4 956.1L238.7 956.6L233 957.2L227.4 957.7L221.9 958.1L216.4 958.5L211 958.8L205.7 959.2L200.4 959.4L195.2 959.6L190.1 959.8L185 959.9L180 960L175.1 960L170.3 960L165.5 959.9L160.8 959.8L156.2 959.6L151.6 959.4L147.2 959.2L142.8 958.9L138.5 958.6L134.2 958.2L130.1 957.7L126 957.3L122.1 956.7L118.2 956.2L114.4 955.6L110.7 954.9L107 954.2L103.5 953.4L100 952.6L96.7 951.8L93.4 950.9L90.2 950L87.1 949L84.1 948L81.2 946.9L78.4 945.8L75.7 944.6L73.1 943.4L70.6 942.2L68.1 940.9L65.8 939.6L63.6 938.2L61.5 936.8L59.4 935.3L57.5 933.8L55.6 932.2L53.9 930.6L52.3 929L50.7 927.3L49.3 925.6L48 923.8L46.8 922L45.6 920.2L44.6 918.3L43.7 916.3L42.9 914.4L42.1 912.3L41.5 910.3L41 908.2L40.6 906L40.3 903.9L40.1 901.6L40 899.4L40 897.1L40.1 894.7L40.3 892.4L40.7 889.9L41.1 887.5L41.6 885L42.2 882.4L43 879.9L43.8 877.2L44.7 874.6L45.8 871.9L46.9 869.2L48.1 866.4L49.5 863.6L50.9 860.8L52.5 857.9L54.1 855L55.9 852.1L57.7 849.1L59.7 846.1L61.7 843L63.8 839.9L66.1 836.8L68.4 833.7L70.9 830.5L73.4 827.3L76 824L78.8 820.7L81.6 817.4L84.5 814.1L87.5 810.7L90.6 807.3L93.8 803.9L97.1 800.4L100.4 796.9L103.9 793.4L107.5 789.8L111.1 786.2L114.8 782.6L118.6 779L122.5 775.3L126.5 771.6L130.6 767.9L134.8 764.1L139 760.3L143.3 756.5L147.7 752.7L152.2 748.8L156.7 745L161.4 741.1L166.1 737.1L170.9 733.2L175.7 729.2L180.6 725.2L185.6 721.2L190.7 717.1L195.9 713.1L201.1 709L206.3 704.9L211.7 700.7L217.1 696.6L222.6 692.4L228.1 688.2L233.7 684L239.4 679.8L245.1 675.6L250.8 671.3L256.7 667L262.6 662.7L268.5 658.4L274.5 654.1L280.5 649.8L286.6 645.4L292.7 641L298.9 636.6L305.2 632.2L311.4 627.8L317.7 623.4L324.1 619L330.5 614.5L336.9 610.1L343.4 605.6L349.9 601.1L356.4 596.6L363 592.1L369.6 587.6L376.2 583.1L382.9 578.5L389.6 574L396.3 569.5L403 564.9L409.8 560.4L416.6 555.8L423.4 551.2L430.2 546.7L437 542.1L443.8 537.5L450.7 532.9L457.6 528.3L464.4 523.7L471.3 519.1L478.2 514.5L485.1 509.9L492 505.3L498.9 500.7L505.8 496.1L512.7 491.5L519.6 486.9L526.5 482.3L533.4 477.7L540.2 473.1L547.1 468.6L554 464L560.8 459.4L567.7 454.8L574.5 450.2L581.3 445.7L588.1 441.1L594.8 436.5L601.6 432L608.3 427.4L615 422.9L621.6 418.4L628.3 413.8L634.9 409.3L641.5 404.8L648 400.3L654.5 395.8L661 391.4L667.5 386.9L673.9 382.5L680.2 378L686.6 373.6L692.9 369.2L699.1 364.8L705.3 360.4L711.4 356L717.5 351.6L723.6 347.3L729.6 343L735.6 338.6L741.5 334.3L747.3 330.1L753.1 325.8L758.8 321.5L764.5 317.3L770.1 313.1L775.7 308.9L781.2 304.7L786.6 300.6L792 296.4L797.3 292.3L802.5 288.2L807.7 284.2L812.7 280.1L817.8 276.1L822.7 272.1L827.6 268.1L832.4 264.1L837.1 260.2L841.8 256.3L846.4 252.4L850.9 248.5L855.3 244.7L859.6 240.9L863.9 237.1L868.1 233.3L872.2 229.6L876.2 225.9L880.1 222.2L884 218.5L887.7 214.9L891.4 211.3L895 207.8L898.5 204.2L901.9 200.7L905.2 197.2L908.4 193.8L911.5 190.4L914.6 187L917.5 183.6L920.4 180.3L923.1 177L925.8 173.8L928.3 170.5L930.8 167.3L933.2 164.2L935.4 161L937.6 158L939.7 154.9L941.7 151.9L943.6 148.9L945.3 145.9L947 143L948.6 140.1L950.1 137.3L951.4 134.5L952.7 131.7L953.9 129L955 126.3L955.9 123.6L956.8 121L957.6 118.4L958.2 115.8L958.8 113.3L959.2 110.8L959.6 108.4L959.8 106L960 103.7L960 101.4L959.9 99.1L959.8 96.8L959.5 94.6L959.1 92.5L958.6 90.4L958.1 88.3L957.4 86.3L956.6 84.3L955.7 82.3L954.7 80.4L953.6 78.6L952.4 76.7L951.1 75L949.7 73.2L948.2 71.5L946.6 69.9L944.9 68.3L943.1 66.7L941.2 65.2L939.2 63.7L937.1 62.3L934.9 60.9L932.6 59.5L930.2 58.2L927.7 57L925.1 55.7L922.5 54.6L919.7 53.4L916.8 52.4L913.8 51.3L910.8 50.3L907.6 49.4L904.4 48.5L901.1 47.6L897.6 46.8L894.1 46.1L890.5 45.3L886.8 44.7L883 44L879.2 43.4L875.2 42.9L871.2 42.4L867.1 42L862.9 41.6L858.6 41.2L854.2 40.9L849.8 40.6L845.3 40.4L840.7 40.2L836 40.1L831.3 40L826.4 40L821.5 40L816.6 40.1L811.5 40.2L806.4 40.3L801.2 40.5L796 40.8L790.7 41.1L785.3 41.4L779.8 41.8L774.3 42.2L768.8 42.7L763.1 43.2L757.4 43.7L751.7 44.3L745.9 45L740 45.7L734.1 46.4L728.2 47.2L722.1 48.1L716.1 49L710 49.9L703.8 50.8L697.6 51.9L691.3 52.9L685 54L678.7 55.2L672.3 56.4L665.9 57.6L659.5 58.9L653 60.2L646.4 61.6L639.9 63L633.3 64.5L626.7 66L620 67.5L613.4 69.1L606.7 70.7L599.9 72.4L593.2 74.1L586.4 75.9L579.6 77.7L572.8 79.5L566 81.4L559.2 83.3L552.3 85.3L545.5 87.3L538.6 89.4L531.7 91.5L524.8 93.6L517.9 95.8L511 98L504.1 100.3L497.2 102.6L490.3 104.9L483.4 107.3L476.5 109.7L469.7 112.1L462.8 114.6L455.9 117.2L449 119.7L442.2 122.3L435.3 125L428.5 127.7L421.7 130.4L414.9 133.1L408.2 135.9L401.4 138.8L394.7 141.6L388 144.5L381.3 147.5L374.6 150.4L368 153.4L361.4 156.5L354.9 159.6L348.3 162.7L341.8 165.8L335.4 169L328.9 172.2L322.6 175.5L316.2 178.7L309.9 182L303.6 185.4L297.4 188.7L291.3 192.1L285.1 195.6L279.1 199L273 202.5L267.1 206.1L261.1 209.6L255.3 213.2L249.4 216.8L243.7 220.4L238 224.1L232.3 227.8L226.8 231.5L221.2 235.3L215.8 239.1L210.4 242.9L205.1 246.7L199.8 250.5L194.6 254.4L189.5 258.3L184.4 262.2L179.4 266.2L174.5 270.2L169.7 274.2L164.9 278.2L160.2 282.2L155.6 286.3L151.1 290.4L146.6 294.5L142.3 298.6L138 302.7L133.7 306.9L129.6 311.1L125.6 315.3L121.6 319.5L117.7 323.8L113.9 328L110.2 332.3L106.6 336.6L103.1 340.9L99.6 345.2L96.3 349.6L93 353.9L89.8 358.3L86.8 362.7L83.8 367.1L80.9 371.5L78.1 375.9L75.4 380.3L72.8 384.8L70.3 389.2L67.9 393.7L65.5 398.2L63.3 402.7L61.2 407.2L59.2 411.7L57.3 416.2L55.4 420.7L53.7 425.3L52.1 429.8L50.6 434.4L49.1 438.9L47.8 443.5L46.6 448L45.5 452.6L44.5 457.2L43.6 461.8L42.8 466.4L42.1 471L41.5 475.5L41 480.1L40.6 484.7L40.3 489.3L40.1 493.9L40 498.5L40 503.1L40.1 507.7L40.4 512.3L40.7 516.9L41.1 521.5L41.7 526.1L42.3 530.7L43.1 535.3L43.9 539.9L44.8 544.5L45.9 549L47 553.6L48.3 558.2L49.7 562.7L51.1 567.3L52.7 571.8L54.3 576.4L56.1 580.9L57.9 585.4L59.9 590L62 594.5L64.1 599L66.4 603.4L68.7 607.9L71.2 612.4L73.7 616.8L76.4 621.3L79.1 625.7L81.9 630.1L84.8 634.5L87.9 638.9L91 643.3L94.2 647.7L97.5 652L100.9 656.4L104.3 660.7L107.9 665L111.5 669.3L115.3 673.5L119.1 677.8L123 682L127 686.2L131.1 690.4L135.3 694.6L139.5 698.8L143.8 702.9L148.2 707L152.7 711.1L157.3 715.2L161.9 719.2L166.6 723.3L171.4 727.3L176.3 731.3L181.2 735.2L186.3 739.2L191.3 743.1L196.5 747L201.7 750.9L207 754.7L212.3 758.5L217.8 762.3L223.2 766.1L228.8 769.8L234.4 773.5L240 777.2L245.8 780.9L251.5 784.5L257.4 788.1L263.3 791.7L269.2 795.2L275.2 798.7L281.3 802.2L287.3 805.7L293.5 809.1L299.7 812.5L305.9 815.8L312.2 819.2L318.5 822.5L324.9 825.7L331.3 829L337.7 832.2L344.2 835.3L350.7 838.5L357.2 841.6L363.8 844.6L370.4 847.6L377 850.6L383.7 853.6L390.4 856.5L397.1 859.4L403.9 862.3L410.6 865.1L417.4 867.9L424.2 870.6L431 873.3L437.8 876L444.7 878.6L451.5 881.2L458.4 883.8L465.3 886.3L472.2 888.8L479 891.2L485.9 893.6L492.8 896L499.7 898.3L506.6 900.6L513.5 902.8L520.4 905L527.3 907.2L534.2 909.3L541.1 911.4L547.9 913.4L554.8 915.4L561.6 917.4L568.5 919.3L575.3 921.1L582.1 923L588.9 924.8L595.6 926.5L602.4 928.2L609.1 929.9L615.8 931.5L622.4 933.1L629.1 934.6L635.7 936.1L642.3 937.5L648.8 938.9L655.3 940.3L661.8 941.6L668.2 942.8L674.6 944.1L681 945.2L687.3 946.4L693.6 947.5L699.8 948.5L706 949.5L712.2 950.5L718.3 951.4L724.3 952.2L730.3 953.1L736.3 953.8L742.2 954.6L748 955.2L753.8 955.9L759.5 956.5L765.2 957L770.8 957.5L776.3 958L781.8 958.4L787.2 958.7L792.6 959.1L797.9 959.3L803.1 959.6L808.3 959.7L813.4 959.9L818.4 960L823.3 960L828.2 960L833 959.9L837.7 959.8L842.4 959.7L846.9 959.5L851.4 959.3L855.8 959L860.2 958.7L864.4 958.3L868.6 957.9L872.7 957.4L876.7 956.9L880.6 956.4L884.4 955.8L888.2 955.1L891.8 954.4L895.4 953.7L898.9 952.9L902.3 952.1L905.6 951.2L908.8 950.3L911.9 949.3L914.9 948.3L917.9 947.2L920.7 946.1L923.4 945L926.1 943.8L928.6 942.6L931.1 941.3L933.5 940L935.7 938.6L937.9 937.2L939.9 935.8L941.9 934.3L943.8 932.7L945.5 931.2L947.2 929.5L948.8 927.9L950.2 926.2L951.6 924.4L952.9 922.6L954 920.8L955.1 918.9L956 917L956.9 915L957.6 913L958.3 910.9L958.8 908.9L959.3 906.7L959.6 904.6L959.8 902.4L960 900.1L960 897.8L959.9 895.5L959.7 893.1L959.5 890.7L959.1 888.3L958.6 885.8L958 883.2L957.3 880.7L956.5 878.1L955.6 875.4L954.6 872.8L953.5 870.1L952.3 867.3L951 864.5L949.5 861.7L948 858.8L946.4 855.9L944.7 853L942.9 850L941 847L939 844L936.8 840.9L934.6 837.8L932.3 834.7L929.9 831.5L927.4 828.3L924.8 825.1L922.1 821.8L919.3 818.5L916.5 815.2L913.5 811.8L910.4 808.4L907.2 805L904 801.5L900.6 798L897.2 794.5L893.7 791L890.1 787.4L886.4 783.8L882.6 780.1L878.7 776.5L874.8 772.8L870.7 769.1L866.6 765.3L862.4 761.5L858.1 757.7L853.7 753.9L849.3 750.1L844.7 746.2L840.1 742.3L835.4 738.4L830.7 734.4L825.8 730.5L820.9 726.5L816 722.5L810.9 718.4L805.8 714.4L800.6 710.3L795.3 706.2L790 702.1L784.6 697.9L779.2 693.8L773.7 689.6L768.1 685.4L762.4 681.2L756.8 676.9L751 672.7L745.2 668.4L739.3 664.1L733.4 659.8L727.4 655.5L721.4 651.1L715.3 646.8L709.2 642.4L703 638L696.8 633.6L690.6 629.2L684.3 624.8L677.9 620.4L671.5 615.9L665.1 611.5L658.7 607L652.2 602.5L645.6 598L639.1 593.5L632.5 589L625.9 584.5L619.2 580L612.5 575.5L605.8 570.9L599.1 566.4L592.4 561.8L585.6 557.2L578.8 552.7L572 548.1L565.2 543.5L558.3 539L551.5 534.4L544.6 529.8L537.8 525.2L530.9 520.6L524 516L517.1 511.4L510.2 506.8L503.3 502.2L496.4 497.6L489.5 493L482.6 488.4L475.7 483.8L468.8 479.2L461.9 474.6L455.1 470L448.2 465.4L441.4 460.8L434.5 456.3L427.7 451.7L420.9 447.1L414.1 442.5L407.3 438L400.6 433.4L393.9 428.9L387.2 424.3L380.5 419.8L373.8 415.3L367.2 410.8L360.6 406.3L354.1 401.8L347.5 397.3L341 392.8L334.6 388.3L328.2 383.9L321.8 379.4L315.4 375L309.1 370.6L302.9 366.2L296.7 361.8L290.5 357.4L284.4 353L278.3 348.7L272.3 344.3L266.3 340L260.4 335.7L254.6 331.4L248.7 327.1L243 322.9L237.3 318.7L231.7 314.4L226.1 310.2L220.6 306.1L215.1 301.9L209.7 297.8L204.4 293.6L199.2 289.5L194 285.5L188.9 281.4L183.8 277.4L178.8 273.3L173.9 269.4L169.1 265.4L164.4 261.4L159.7 257.5L155.1 253.6L150.5 249.8L146.1 245.9L141.7 242.1L137.4 238.3L133.2 234.5L129.1 230.8L125.1 227.1L121.1 223.4L117.2 219.7L113.5 216.1L109.8 212.5L106.2 208.9L102.6 205.3L99.2 201.8L95.9 198.3L92.6 194.9L89.5 191.5L86.4 188.1L83.4 184.7L80.5 181.4L77.8 178.1L75.1 174.8L72.5 171.6L70 168.3L67.6 165.2L65.3 162L63.1 158.9L60.9 155.9L58.9 152.8L57 149.8L55.2 146.9L53.5 143.9L51.9 141L50.4 138.2L49 135.4L47.7 132.6L46.5 129.8L45.4 127.1L44.4 124.4L43.5 121.8L42.7 119.2L42 116.6L41.4 114.1L40.9 111.6L40.5 109.2L40.2 106.8L40.1 104.4L40 102.1L40 99.8L40.2 97.5L40.4 95.3L40.7 93.2L41.2 91L41.7 89L42.4 86.9L43.1 84.9L44 83L45 81L46 79.2L47.2 77.3L48.5 75.5L49.8 73.8L51.3 72.1L52.9 70.4L54.5 68.8L56.3 67.2L58.2 65.7L60.1 64.2L62.2 62.7L64.4 61.3L66.6 59.9L69 58.6L71.5 57.4L74 56.1L76.7 54.9L79.4 53.8L82.3 52.7L85.2 51.7L88.2 50.6L91.4 49.7L94.6 48.8L97.9 47.9L101.3 47.1L104.8 46.3L108.3 45.6L112 44.9L115.7 44.2L119.6 43.6L123.5 43.1L127.5 42.6L131.6 42.1L135.8 41.7L140 41.3L144.4 41L148.8 40.7L153.3 40.5L157.8 40.3L162.5 40.2L167.2 40.1L172 40L176.9 40L181.8 40L186.9 40.1L192 40.3L197.1 40.5L202.3 40.7L207.6 41L213 41.3L218.4 41.6L223.9 42L229.5 42.5L235.1 43L240.7 43.6L246.5 44.1L252.2 44.8L258.1 45.5L264 46.2L269.9 47L275.9 47.8L282 48.7L288.1 49.6L294.2 50.5L300.4 51.5L306.7 52.6L313 53.7L319.3 54.8L325.6 56L332 57.2L338.5 58.5L345 59.8L351.5 61.2L358 62.6L364.6 64L371.2 65.5L377.9 67L384.5 68.6L391.2 70.2L397.9 71.9L404.7 73.6L411.4 75.3L418.2 77.1L425 78.9L431.8 80.8L438.7 82.7L445.5 84.7L452.4 86.7L459.2 88.7L466.1 90.8L473 92.9L479.9 95.1L486.8 97.3L493.7 99.5L500.6 101.8L507.5 104.1L514.4 106.5L521.3 108.9L528.2 111.3L535 113.8L541.9 116.3L548.8 118.9L555.6 121.5L562.5 124.1L569.3 126.8L576.1 129.5L582.9 132.3L589.7 135L596.4 137.9L603.2 140.7L609.9 143.6L616.6 146.5L623.2 149.5L629.9 152.5L636.5 155.5L643.1 158.6L649.6 161.7L656.1 164.8L662.6 168L669 171.2L675.4 174.4L681.8 177.7L688.1 181L694.4 184.3L700.6 187.7L706.8 191.1L712.9 194.5L719 197.9L725.1 201.4L731.1 204.9L737 208.5L742.9 212.1L748.7 215.7L754.5 219.3L760.2 222.9L765.9 226.6L771.5 230.3L777 234.1L782.5 237.9L787.9 241.6L793.2 245.5L798.5 249.3L803.7 253.2L808.9 257.1L814 261L819 264.9L823.9 268.9L828.8 272.9L833.6 276.9L838.3 280.9L842.9 285L847.5 289.1L852 293.2L856.4 297.3L860.7 301.4L864.9 305.6L869.1 309.8L873.2 314L877.2 318.2L881.1 322.4L884.9 326.7L888.6 330.9L892.3 335.2L895.8 339.5L899.3 343.8L902.7 348.2L906 352.5L909.2 356.9L912.3 361.3L915.3 365.7L918.2 370.1L921 374.5L923.8 378.9L926.4 383.4L928.9 387.8L931.4 392.3L933.7 396.8L936 401.2L938.1 405.7L940.2 410.2L942.1 414.8L944 419.3L945.8 423.8L947.4 428.4L949 432.9L950.4 437.5L951.8 442L953 446.6L954.2 451.2L955.2 455.7L956.1 460.3L957 464.9L957.7 469.5L958.4 474.1L958.9 478.7L959.3 483.3L959.6 487.9L959.9 492.5L960 497.1L960 501.7L959.9 506.3" opacity="0.14"/></g></svg>