<svg xmlns="http://www.w3.org/2000/svg" viewBox="0 0 1000 1000" preserveAspectRatio="xMidYMid slice" fill="none" stroke-linecap="round" stroke-linejoin="round"><g stroke="#0f3d2e" stroke-width="0.9"><path d="M500 500L506.9 509.2L513.8 518.4L520.7 527.6L527.6 536.8L534.5 545.9L541.3 555.1L548.2 564.2L555.1 573.3L561.9 582.4L568.7 591.4L575.6 600.4L582.4 609.3L589.1 618.3L595.9 627.1L602.6 635.9L609.3 644.7L616 653.4L622.7 662L629.3 670.6L635.9 679.1L642.5 687.6L649.1 695.9L655.6 704.2L662 712.4L668.5 720.5L674.9 728.6L681.2 736.5L687.6 744.3L693.8 752.1L700.1 759.7L706.3 767.3L712.4 774.7L718.5 782L724.6 789.2L730.6 796.3L736.5 803.3L742.4 810.2L748.2 816.9L754 823.5L759.7 830L765.4 836.3L771 842.5L776.6 848.6L782 854.5L787.5 860.3L792.8 866L798.1 871.5L803.3 876.8L808.5 882L813.6 887.1L818.6 892L823.5 896.7L828.4 901.3L833.2 905.7L837.9 910L842.5 914L847.1 918L851.6 921.7L856 925.3L860.3 928.7L864.6 932L868.7 935.1L872.8 938L876.8 940.7L880.7 943.2L884.6 945.6L888.3 947.8L892 949.8L895.5 951.7L899 953.3L902.4 954.8L905.7 956.1L908.9 957.2L912 958.1L915 958.8L918 959.4L920.8 959.8L923.5 960L926.2 960L928.7 959.8L931.2 959.4L933.5 958.9L935.8 958.2L938 957.3L940 956.2L942 954.9L943.8 953.4L945.6 951.8L947.3 950L948.8 948L950.3 945.8L951.7 943.4L952.9 940.9L954.1 938.2L955.1 935.3L956.1 932.2L956.9 929L957.7 925.6L958.3 922L958.8 918.3L959.3 914.4L959.6 910.3L959.8 906L960 901.6L960 897.1L959.9 892.4L959.7 887.5L959.4 882.4L959.1 877.2L958.6 871.9L958 866.4L957.3 860.8L956.5 855L955.6 849.1L954.5 843L953.4 836.8L952.2 830.5L950.9 824L949.5 817.4L948 810.7L946.4 803.9L944.6 796.9L942.8 789.8L940.9 782.6L938.9 775.3L936.8 767.9L934.5 760.3L932.2 752.7L929.8 745L927.3 737.1L924.7 729.2L922 721.2L919.2 713.1L916.3 704.9L913.4 696.6L910.3 688.2L907.1 679.8L903.9 671.3L900.5 662.7L897.1 654.1L893.5 645.4L889.9 636.6L886.2 627.8L882.4 619L878.6 610.1L874.6 601.1L870.6 592.1L866.4 583.1L862.2 574L857.9 564.9L853.5 555.8L849.1 546.7L844.6 537.5L839.9 528.3L835.3 519.1L830.5 509.9L825.7 500.7L820.7 491.5L815.8 482.3L810.7 473.1L805.6 464L800.4 454.8L795.1 445.7L789.8 436.5L784.4 427.4L779 418.4L773.5 409.3L767.9 400.3L762.2 391.4L756.5 382.5L750.8 373.6L745 364.8L739.1 356L733.2 347.3L727.2 338.6L721.2 330.1L715.1 321.5L709 313.1L702.8 304.7L696.6 296.4L690.3 288.2L684 280.1L677.7 272.1L671.3 264.1L664.9 256.3L658.4 248.5L651.9 240.9L645.4 233.3L638.8 225.9L632.2 218.5L625.6 211.3L619 204.2L612.3 197.2L605.6 190.4L598.9 183.6L592.1 177L585.3 170.5L578.5 164.2L571.7 158L564.9 151.9L558.1 145.9L551.2 140.1L544.4 134.5L537.5 129L530.6 123.6L523.7 118.4L516.8 113.3L509.9 108.4L503 103.7L496.1 99.1L489.2 94.6L482.3 90.4L475.4 86.3L468.6 82.3L461.7 78.6L454.8 75L447.9 71.5L441.1 68.3L434.3 65.2L427.4 62.3L420.6 59.5L413.8 57L407.1 54.6L400.3 52.4L393.6 50.3L386.9 48.5L380.2 46.8L373.6 45.3L367 44L360.4 42.9L353.8 42L347.3 41.2L340.8 40.6L334.3 40.2L327.9 40L321.5 40L315.2 40.2L308.9 40.5L302.7 41.1L296.4 41.8L290.3 42.7L284.2 43.7L278.1 45L272.1 46.4L266.1 48.1L260.2 49.9L254.3 51.9L248.5 54L242.8 56.4L237.1 58.9L231.4 61.6L225.9 64.5L220.4 67.5L214.9 70.7L209.5 74.1L204.2 77.7L199 81.4L193.8 85.3L188.7 89.4L183.6 93.6L178.7 98L173.8 102.6L168.9 107.3L164.2 112.1L159.5 117.2L154.9 122.3L150.4 127.7L145.9 133.1L141.6 138.8L137.3 144.5L133.1 150.4L129 156.5L124.9 162.7L121 169L117.1 175.5L113.3 182L109.6 188.7L106 195.6L102.5 202.5L99.1 209.6L95.7 216.8L92.5 224.1L89.3 231.5L86.3 239.1L83.3 246.7L80.4 254.4L77.6 262.2L75 270.2L72.4 278.2L69.9 286.3L67.5 294.5L65.2 302.7L63 311.1L60.9 319.5L58.9 328L57 336.6L55.2 345.2L53.4 353.9L51.8 362.7L50.3 371.5L48.9 380.3L47.6 389.2L46.4 398.2L45.3 407.2L44.3 416.2L43.4 425.3L42.6 434.4L42 443.5L41.4 452.6L40.9 461.8L40.5 471L40.2 480.1L40.1 489.3L40 498.5L40 507.7L40.2 516.9L40.4 526.1L40.8 535.3L41.2 544.5L41.8 553.6L42.4 562.7L43.2 571.8L44 580.9L45 590L46.1 599L47.2 607.9L48.5 616.8L49.9 625.7L51.4 634.5L52.9 643.3L54.6 652L56.4 660.7L58.2 669.3L60.2 677.8L62.3 686.2L64.5 694.6L66.7 702.9L69.1 711.1L71.6 719.2L74.1 727.3L76.8 735.2L79.5 743.1L82.4 750.9L85.3 758.5L88.4 766.1L91.5 773.5L94.7 780.9L98 788.1L101.4 795.2L104.9 802.2L108.5 809.1L112.1 815.8L115.9 822.5L119.7 829L123.7 835.3L127.7 841.6L131.8 847.6L135.9 853.6L140.2 859.4L144.5 865.1L148.9 870.6L153.4 876L158 881.2L162.7 886.3L167.4 891.2L172.2 896L177.1 900.6L182 905L187.1 909.3L192.1 913.4L197.3 917.4L202.5 921.1L207.8 924.8L213.2 928.2L218.6 931.5L224.1 934.6L229.7 937.5L235.3 940.3L241 942.8L246.7 945.2L252.5 947.5L258.3 949.5L264.2 951.4L270.2 953.1L276.2 954.6L282.2 955.9L288.3 957L294.5 958L300.7 958.7L306.9 959.3L313.2 959.7L319.5 960L325.9 960L332.3 959.8L338.7 959.5L345.2 959L351.7 958.3L358.3 957.4L364.9 956.4L371.5 955.1L378.1 953.7L384.8 952.1L391.5 950.3L398.2 948.3L404.9 946.1L411.7 943.8L418.5 941.3L425.3 938.6L432.1 935.8L438.9 932.7L445.8 929.5L452.6 926.2L459.5 922.6L466.4 918.9L473.2 915L480.1 910.9L487 906.7L493.9 902.4L500.8 897.8L507.7 893.1L514.6 888.3L521.5 883.2L528.4 878.1L535.3 872.8L542.2 867.3L549 861.7L555.9 855.9L562.7 850L569.6 844L576.4 837.8L583.2 831.5L590 825.1L596.7 818.5L603.4 811.8L610.2 805L616.8 798L623.5 791L630.1 783.8L636.7 776.5L643.3 769.1L649.8 761.5L656.4 753.9L662.8 746.2L669.3 738.4L675.7 730.5L682 722.5L688.3 714.4L694.6 706.2L700.8 697.9L707 689.6L713.2 681.2L719.2 672.7L725.3 664.1L731.3 655.5L737.2 646.8L743.1 638L748.9 629.2L754.7 620.4L760.4 611.5L766.1 602.5L771.7 593.5L777.2 584.5L782.7 575.5L788.1 566.4L793.5 557.2L798.7 548.1L803.9 539L809.1 529.8L814.2 520.6L819.2 511.4L824.1 502.2L829 493L833.7 483.8L838.5 474.6L843.1 465.4L847.6 456.3L852.1 447.1L856.5 438L860.8 428.9L865.1 419.8L869.2 410.8L873.3 401.8L877.3 392.8L881.2 383.9L885 375L888.8 366.2L892.4 357.4L896 348.7L899.4 340L902.8 331.4L906.1 322.9L909.3 314.4L912.4 306.1L915.4 297.8L918.3 289.5L921.1 281.4L923.9 273.3L926.5 265.4L929 257.5L931.5 249.8L933.8 242.1L936.1 234.5L938.2 227.1L940.3 219.7L942.2 212.5L944.1 205.3L945.8 198.3L947.5 191.5L949 184.7L950.5 178.1L951.8 171.6L953.1 165.2L954.2 158.9L955.2 152.8L956.2 146.9L957 141L957.7 135.4L958.4 129.8L958.9 124.4L959.3 119.2L959.7 114.1L959.9 109.2L960 104.4L960 99.8L959.9 95.3L959.7 91L959.4 86.9L959 83L958.5 79.2L957.9 75.5L957.2 72.1L956.4 68.8L955.4 65.7L954.4 62.7L953.3 59.9L952.1 57.4L950.7 54.9L949.3 52.7L947.8 50.6L946.1 48.8L944.4 47.1L942.6 45.6L940.7 44.2L938.6 43.1L936.5 42.1L934.3 41.3L932 40.7L929.5 40.3L927 40.1L924.4 40L921.7 40.1L918.9 40.5L916 41L913 41.6L909.9 42.5L906.7 43.6L903.5 44.8L900.1 46.2L896.7 47.8L893.1 49.6L889.5 51.5L885.8 53.7L882 56L878.1 58.5L874.1 61.2L870.1 64L865.9 67L861.7 70.2L857.4 73.6L853 77.1L848.5 80.8L844 84.7L839.4 88.7L834.7 92.9L829.9 97.3L825.1 101.8L820.1 106.5L815.2 111.3L810.1 116.3L805 121.5L799.8 126.8L794.5 132.3L789.2 137.9L783.8 143.6L778.3 149.5L772.8 155.5L767.2 161.7L761.5 168L755.8 174.4L750.1 181L744.3 187.7L738.4 194.5L732.5 201.4L726.5 208.5L720.4 215.7L714.4 222.9L708.2 230.3L702.1 237.9L695.8 245.5L689.6 253.2L683.3 261L676.9 268.9L670.5 276.9L664.1 285L657.6 293.2L651.1 301.4L644.6 309.8L638 318.2L631.4 326.7L624.8 335.2L618.2 343.8L611.5 352.5L604.8 361.3L598 370.1L591.3 378.9L584.5 387.8L577.7 396.8L570.9 405.7L564.1 414.8L557.2 423.8L550.4 432.9L543.5 442L536.7 451.2L529.8 460.3L522.9 469.5L516 478.7L509.1 487.9L502.2 497.1L495.3 506.3L488.4 515.5L481.5 524.7L474.6 533.8L467.7 543L460.8 552.2L454 561.3L447.1 570.4L440.3 579.5L433.4 588.5L426.6 597.5L419.8 606.5L413 615.4L406.3 624.3L399.5 633.1L392.8 641.9L386.1 650.6L379.4 659.3L372.8 667.9L366.2 676.4L359.6 684.9L353 693.3L346.5 701.6L340 709.8L333.6 718L327.1 726L320.8 734L314.4 741.9L308.1 749.6L301.9 757.3L295.7 764.9L289.5 772.4L283.4 779.7L277.4 787L271.3 794.1L265.4 801.1L259.5 808L253.6 814.8L247.8 821.4L242.1 827.9L236.4 834.3L230.8 840.6L225.2 846.7L219.7 852.7L214.3 858.5L208.9 864.2L203.6 869.7L198.3 875.1L193.2 880.4L188.1 885.5L183 890.4L178.1 895.2L173.2 899.8L168.3 904.3L163.6 908.6L158.9 912.8L154.3 916.7L149.8 920.6L145.4 924.2L141 927.7L136.8 931L132.6 934.1L128.5 937.1L124.4 939.8L120.5 942.4L116.6 944.9L112.9 947.1L109.2 949.2L105.6 951.1L102.1 952.8L98.7 954.3L95.3 955.7L92.1 956.8L89 957.8L85.9 958.6L83 959.2L80.1 959.7L77.3 959.9L74.6 960L72.1 959.9L69.6 959.6L67.2 959.1L64.9 958.4L62.7 957.6L60.6 956.5L58.6 955.3L56.7 953.9L54.9 952.3L53.2 950.6L51.7 948.6L50.2 946.5L48.8 944.2L47.5 941.7L46.3 939.1L45.2 936.2L44.2 933.2L43.3 930.1L42.6 926.7L41.9 923.2L41.3 919.5L40.8 915.6L40.5 911.6L40.2 907.4L40.1 903.1L40 898.5L40 893.9L40.2 889L40.5 884.1L40.8 878.9L41.3 873.6L41.8 868.2L42.5 862.6L43.3 856.9L44.1 851L45.1 845L46.2 838.8L47.4 832.5L48.7 826.1L50.1 819.5L51.5 812.9L53.1 806.1L54.8 799.1L56.6 792.1L58.5 784.9L60.5 777.6L62.6 770.2L64.7 762.8L67 755.1L69.4 747.4L71.9 739.6L74.4 731.7L77.1 723.7L79.9 715.7L82.7 707.5L85.7 699.2L88.7 690.9L91.9 682.5L95.1 674L98.4 665.5L101.8 656.9L105.3 648.2L108.9 639.4L112.6 630.6L116.3 621.8L120.2 612.9L124.1 604L128.2 595L132.3 586L136.4 576.9L140.7 567.8L145.1 558.7L149.5 549.6L154 540.4L158.6 531.2L163.2 522.1L168 512.9L172.8 503.7L177.7 494.5L182.6 485.3L187.7 476.1L192.8 466.9L197.9 457.7L203.2 448.6L208.5 439.4L213.9 430.3L219.3 421.3L224.8 412.2L230.3 403.2L236 394.2L241.6 385.3L247.4 376.4L253.2 367.6L259 358.8L264.9 350.1L270.9 341.4L276.9 332.8L283 324.2L289.1 315.8L295.2 307.4L301.4 299.1L307.7 290.8L314 282.7L320.3 274.6L326.7 266.6L333.1 258.8L339.5 251L346 243.3L352.5 235.7L359.1 228.2L365.7 220.9L372.3 213.6L378.9 206.5L385.6 199.4L392.3 192.5L399 185.8L405.7 179.1L412.5 172.6L419.3 166.2L426.1 159.9L432.9 153.8L439.7 147.8L446.6 142L453.4 136.3L460.3 130.7L467.2 125.3L474.1 120L481 114.9L487.9 110L494.8 105.2L501.7 100.5L508.6 96L515.5 91.7L522.4 87.6L529.2 83.6L536.1 79.7L543 76.1L549.9 72.6L556.7 69.3L563.6 66.1L570.4 63.2L577.2 60.4L584 57.8L590.8 55.3L597.5 53L604.3 51L611 49.1L617.6 47.3L624.3 45.8L630.9 44.4L637.5 43.2L644.1 42.2L650.6 41.4L657.1 40.8L663.6 40.3L670 40.1L676.4 40L682.8 40.1L689.1 40.4L695.4 40.9L701.6 41.5L707.8 42.4L713.9 43.4L720 44.6L726 46L732 47.5L737.9 49.3L743.8 51.2L749.6 53.3L755.4 55.6L761.1 58.1L766.8 60.7L772.4 63.5L777.9 66.5L783.4 69.7L788.8 73L794.1 76.5L799.4 80.2L804.6 84.1L809.7 88.1L814.8 92.2L819.8 96.6L824.7 101.1L829.5 105.7L834.3 110.6L839 115.5L843.6 120.7L848.2 125.9L852.7 131.4L857.1 137L861.4 142.7L865.6 148.5L869.7 154.5L873.8 160.7L877.8 167L881.7 173.4L885.5 179.9L889.2 186.6L892.8 193.4L896.4 200.3L899.8 207.4L903.2 214.5L906.5 221.8L909.7 229.2L912.8 236.6L915.8 244.2L918.7 251.9L921.5 259.7L924.2 267.6L926.8 275.6L929.3 283.7L931.8 291.9L934.1 300.1L936.3 308.4L938.5 316.8L940.5 325.3L942.4 333.8L944.3 342.5L946 351.1L947.7 359.9L949.2 368.7L950.6 377.5L952 386.4L953.2 395.3L954.3 404.3L955.4 413.3L956.3 422.4L957.1 431.5L957.8 440.6L958.4 449.7L959 458.9L959.4 468L959.7 477.2L959.9 486.4L960 495.6L960 504.8L959.9 514L959.7 523.2L959.4 532.4L958.9 541.5L958.4 550.7L957.8 559.8L957.1 568.9L956.2 578L955.3 587.1L954.3 596.1L953.1 605.1L951.9 614L950.6 622.9L949.1 631.7L947.6 640.5L945.9 649.3L944.2 657.9L942.4 666.5L940.4 675.1L938.4 683.5L936.2 691.9L934 700.3L931.7 708.5L929.2 716.7L926.7 724.7L924.1 732.7L921.4 740.6L918.5 748.4L915.6 756.1L912.6 763.7L909.5 771.2L906.3 778.5L903.1 785.8L899.7 793L896.2 800L892.7 806.9L889 813.7L885.3 820.4L881.5 826.9L877.6 833.3L873.6 839.6L869.6 845.7L865.4 851.7L861.2 857.6L856.9 863.3L852.5 868.9L848 874.3L843.4 879.6L838.8 884.7L834.1 889.7L829.3 894.5L824.5 899.1L819.5 903.6L814.5 907.9L809.5 912.1L804.3 916.1L799.1 920L793.9 923.6L788.5 927.1L783.1 930.5L777.6 933.6L772.1 936.6L766.5 939.4L760.9 942L755.1 944.5L749.4 946.8L743.6 948.9L737.7 950.8L731.7 952.5L725.8 954.1L719.7 955.5L713.6 956.7L707.5 957.7L701.3 958.5L695.1 959.2L688.8 959.6L682.5 959.9L676.1 960L669.8 959.9L663.3 959.6L656.9 959.2L650.3 958.5L643.8 957.7L637.2 956.7L630.6 955.5L624 954.2L617.4 952.6L610.7 950.9L604 948.9L597.2 946.9L590.5 944.6L583.7 942.1L576.9 939.5L570.1 936.7L563.3 933.7L556.4 930.6L549.6 927.2L542.7 923.8L535.8 920.1L528.9 916.3L522.1 912.3L515.2 908.1L508.3 903.8L501.4 899.3L494.5 894.6L487.6 889.8L480.7 884.9L473.8 879.7L466.9 874.5L460 869.1L453.1 863.5L446.3 857.8L439.4 851.9L432.6 845.9L425.8 839.8L419 833.5L412.2 827.1L405.4 820.6L398.7 813.9L392 807.2L385.3 800.2L378.6 793.2L372 786.1L365.4 778.8L358.8 771.4L352.2 764L345.7 756.4L339.2 748.7L332.8 740.9L326.4 733L320 725L313.7 717L307.4 708.8L301.1 700.6L294.9 692.2L288.8 683.8L282.7 675.4L276.6 666.8L270.6 658.2L264.7 649.6L258.8 640.8L252.9 632L247.1 623.2L241.4 614.3L235.7 605.4L230.1 596.4L224.5 587.4L219 578.3L213.6 569.3L208.2 560.2L202.9 551L197.7 541.9L192.5 532.7L187.4 523.5L182.4 514.3L177.5 505.1L172.6 495.9L167.8 486.7L163 477.5L158.4 468.4L153.8 459.2L149.3 450L144.9 440.9L140.5 431.8L136.3 422.7L132.1 413.6L128 404.6L124 395.6L120 386.7L116.2 377.8L112.4 369L108.7 360.2L105.2 351.4L101.7 342.8L98.3 334.1L94.9 325.6L91.7 317.1L88.6 308.7L85.5 300.4L82.6 292.1L79.7 284L77 275.9L74.3 267.9L71.8 260L69.3 252.2L66.9 244.5L64.6 236.9L62.5 229.4L60.4 222L58.4 214.8L56.5 207.6L54.7 200.6L53 193.6L51.5 186.8L50 180.2L48.6 173.6L47.3 167.2L46.2 160.9L45.1 154.8L44.1 148.7L43.2 142.9L42.5 137.2L41.8 131.6L41.3 126.1L40.8 120.9L40.4 115.7L40.2 110.7L40 105.9L40 101.2L40.1 96.7L40.2 92.4L40.5 88.2L40.9 84.2L41.3 80.3L41.9 76.7L42.6 73.1L43.4 69.8L44.3 66.6L45.3 63.6L46.3 60.8L47.5 58.2L48.8 55.7L50.2 53.4L51.7 51.3L53.3 49.3L55 47.6L56.8 46L58.7 44.6L60.7 43.4L62.8 42.4L65 41.5L67.3 40.9L69.7 40.4L72.2 40.1L74.8 40L77.4 40.1L80.2 40.3L83.1 40.8L86 41.4L89.1 42.2L92.2 43.2L95.5 44.4L98.8 45.7L102.2 47.3L105.7 49L109.3 50.9L113 53L116.8 55.2L120.7 57.7L124.6 60.3L128.6 63.1L132.8 66L137 69.2L141.2 72.5L145.6 76L150 79.6L154.5 83.4L159.1 87.4L163.8 91.6L168.6 95.9L173.4 100.4L178.3 105L183.2 109.8L188.3 114.7L193.4 119.8L198.6 125.1L203.8 130.5L209.1 136.1L214.5 141.8L219.9 147.6L225.5 153.6L231 159.7L236.6 166L242.3 172.4L248.1 178.9L253.9 185.5L259.7 192.3L265.6 199.2L271.6 206.2L277.6 213.4L283.7 220.6L289.8 228L296 235.4L302.2 243L308.4 250.7L314.7 258.5L321.1 266.4L327.4 274.3L333.8 282.4L340.3 290.5L346.8 298.8L353.3 307.1L359.9 315.5L366.5 323.9L373.1 332.5L379.7 341.1L386.4 349.7L393.1 358.5L399.8 367.3L406.6 376.1L413.3 385L420.1 393.9L426.9 402.9L433.7 411.9L440.6 420.9L447.4 430L454.3 439.1L461.2 448.2L468 457.4L474.9 466.6L481.8 475.8L488.7 484.9L495.6 494.1L502.5 503.3L509.4 512.5" opacity="0.14"/></g></svg>