<svg xmlns="http://www.w3.org/2000/svg" viewBox="0 0 1000 1000" preserveAspectRatio="xMidYMid slice" fill="none" stroke-linecap="round" stroke-linejoin="round"><g stroke="#0f3d2e" stroke-width="0.9"><path d="M730 500L739.9 509.2L749.6 518.4L759.2 527.6L768.6 536.8L777.9 545.9L786.9 555.1L795.8 564.2L804.6 573.3L813.1 582.4L821.4 591.4L829.5 600.4L837.5 609.3L845.2 618.3L852.7 627.1L859.9 635.9L867 644.7L873.8 653.4L880.4 662L886.7 670.6L892.8 679.1L898.7 687.6L904.3 695.9L909.7 704.2L914.8 712.4L919.6 720.5L924.2 728.6L928.5 736.5L932.6 744.3L936.3 752.1L939.8 759.7L943.1 767.3L946 774.7L948.7 782L951.1 789.2L953.2 796.3L955 803.3L956.6 810.2L957.8 816.9L958.8 823.5L959.5 830L959.9 836.3L960 842.5L959.8 848.6L959.4 854.5L958.6 860.3L957.6 866L956.2 871.5L954.6 876.8L952.7 882L950.6 887.1L948.1 892L945.4 896.7L942.4 901.3L939.1 905.7L935.5 910L931.7 914L927.6 918L923.2 921.7L918.5 925.3L913.6 928.7L908.5 932L903.1 935.1L897.4 938L891.5 940.7L885.3 943.2L878.9 945.6L872.3 947.8L865.4 949.8L858.3 951.7L851 953.3L843.5 954.8L835.7 956.1L827.7 957.2L819.6 958.1L811.2 958.8L802.6 959.4L793.9 959.8L784.9 960L775.8 960L766.5 959.8L757.1 959.4L747.5 958.9L737.7 958.2L727.8 957.3L717.7 956.2L707.5 954.9L697.2 953.4L686.7 951.8L676.2 950L665.5 948L654.7 945.8L643.8 943.4L632.9 940.9L621.8 938.2L610.7 935.3L599.5 932.2L588.2 929L576.9 925.6L565.6 922L554.2 918.3L542.7 914.4L531.3 910.3L519.8 906L508.3 901.6L496.8 897.1L485.3 892.4L473.8 887.5L462.3 882.4L450.9 877.2L439.5 871.9L428.1 866.4L416.7 860.8L405.5 855L394.2 849.1L383.1 843L372 836.8L361 830.5L350.1 824L339.2 817.4L328.5 810.7L317.9 803.9L307.4 796.9L297 789.8L286.8 782.6L276.6 775.3L266.7 767.9L256.8 760.3L247.1 752.7L237.6 745L228.2 737.1L219.1 729.2L210 721.2L201.2 713.1L192.6 704.9L184.1 696.6L175.8 688.2L167.8 679.8L159.9 671.3L152.3 662.7L144.9 654.1L137.7 645.4L130.7 636.6L124 627.8L117.5 619L111.2 610.1L105.2 601.1L99.4 592.1L93.9 583.1L88.6 574L83.6 564.9L78.8 555.8L74.3 546.7L70.1 537.5L66.1 528.3L62.5 519.1L59 509.9L55.9 500.7L53.1 491.5L50.5 482.3L48.2 473.1L46.2 464L44.4 454.8L43 445.7L41.8 436.5L40.9 427.4L40.3 418.4L40 409.3L40 400.3L40.3 391.4L40.9 382.5L41.7 373.6L42.8 364.8L44.3 356L46 347.3L48 338.6L50.2 330.1L52.8 321.5L55.6 313.1L58.7 304.7L62.1 296.4L65.8 288.2L69.7 280.1L73.9 272.1L78.3 264.1L83.1 256.3L88.1 248.5L93.3 240.9L98.8 233.3L104.6 225.9L110.6 218.5L116.8 211.3L123.3 204.2L130 197.2L136.9 190.4L144.1 183.6L151.5 177L159.1 170.5L167 164.2L175 158L183.2 151.9L191.7 145.9L200.3 140.1L209.1 134.5L218.1 129L227.3 123.6L236.6 118.4L246.1 113.3L255.8 108.4L265.6 103.7L275.6 99.1L285.7 94.6L296 90.4L306.3 86.3L316.8 82.3L327.4 78.6L338.1 75L348.9 71.5L359.9 68.3L370.9 65.2L381.9 62.3L393.1 59.5L404.3 57L415.6 54.6L426.9 52.4L438.3 50.3L449.7 48.5L461.1 46.8L472.6 45.3L484.1 44L495.6 42.9L507.1 42L518.6 41.2L530.1 40.6L541.5 40.2L553 40L564.4 40L575.7 40.2L587.1 40.5L598.3 41.1L609.5 41.8L620.7 42.7L631.7 43.7L642.7 45L653.6 46.4L664.4 48.1L675.1 49.9L685.6 51.9L696.1 54L706.4 56.4L716.7 58.9L726.7 61.6L736.7 64.5L746.5 67.5L756.1 70.7L765.6 74.1L774.9 77.7L784 81.4L793 85.3L801.7 89.4L810.3 93.6L818.7 98L826.9 102.6L834.9 107.3L842.7 112.1L850.2 117.2L857.6 122.3L864.7 127.7L871.6 133.1L878.3 138.8L884.7 144.5L890.9 150.4L896.8 156.5L902.5 162.7L907.9 169L913.1 175.5L918.1 182L922.7 188.7L927.1 195.6L931.3 202.5L935.1 209.6L938.7 216.8L942 224.1L945.1 231.5L947.8 239.1L950.3 246.7L952.5 254.4L954.5 262.2L956.1 270.2L957.4 278.2L958.5 286.3L959.3 294.5L959.8 302.7L960 311.1L959.9 319.5L959.5 328L958.9 336.6L957.9 345.2L956.7 353.9L955.2 362.7L953.4 371.5L951.3 380.3L949 389.2L946.3 398.2L943.4 407.2L940.2 416.2L936.7 425.3L933 434.4L928.9 443.5L924.6 452.6L920.1 461.8L915.3 471L910.2 480.1L904.9 489.3L899.3 498.5L893.4 507.7L887.4 516.9L881 526.1L874.5 535.3L867.7 544.5L860.7 553.6L853.4 562.7L845.9 571.8L838.3 580.9L830.4 590L822.3 599L814 607.9L805.4 616.8L796.8 625.7L787.9 634.5L778.8 643.3L769.6 652L760.2 660.7L750.6 669.3L740.9 677.8L731 686.2L721 694.6L710.9 702.9L700.6 711.1L690.2 719.2L679.6 727.3L669 735.2L658.2 743.1L647.4 750.9L636.5 758.5L625.4 766.1L614.3 773.5L603.2 780.9L591.9 788.1L580.6 795.2L569.3 802.2L557.9 809.1L546.5 815.8L535 822.5L523.5 829L512 835.3L500.5 841.6L489 847.6L477.6 853.6L466.1 859.4L454.6 865.1L443.2 870.6L431.8 876L420.4 881.2L409.1 886.3L397.9 891.2L386.7 896L375.6 900.6L364.6 905L353.6 909.3L342.8 913.4L332 917.4L321.4 921.1L310.8 924.8L300.4 928.2L290.1 931.5L279.9 934.6L269.9 937.5L260 940.3L250.3 942.8L240.7 945.2L231.3 947.5L222 949.5L213 951.4L204.1 953.1L195.4 954.6L186.8 955.9L178.5 957L170.4 958L162.5 958.7L154.8 959.3L147.3 959.7L140 960L133 960L126.1 959.8L119.6 959.5L113.2 959L107.1 958.3L101.3 957.4L95.6 956.4L90.3 955.1L85.2 953.7L80.4 952.1L75.8 950.3L71.5 948.3L67.4 946.1L63.6 943.8L60.1 941.3L56.9 938.6L54 935.8L51.3 932.7L48.9 929.5L46.8 926.2L45 922.6L43.4 918.9L42.2 915L41.2 910.9L40.5 906.7L40.1 902.4L40 897.8L40.2 893.1L40.6 888.3L41.4 883.2L42.4 878.1L43.8 872.8L45.4 867.3L47.3 861.7L49.4 855.9L51.9 850L54.6 844L57.7 837.8L61 831.5L64.5 825.1L68.4 818.5L72.5 811.8L76.9 805L81.5 798L86.4 791L91.6 783.8L97 776.5L102.7 769.1L108.6 761.5L114.7 753.9L121.1 746.2L127.8 738.4L134.6 730.5L141.7 722.5L149.1 714.4L156.6 706.2L164.4 697.9L172.3 689.6L180.5 681.2L188.9 672.7L197.5 664.1L206.2 655.5L215.2 646.8L224.3 638L233.6 629.2L243 620.4L252.6 611.5L262.4 602.5L272.3 593.5L282.4 584.5L292.6 575.5L302.9 566.4L313.4 557.2L323.9 548.1L334.6 539L345.4 529.8L356.3 520.6L367.2 511.4L378.3 502.2L389.4 493L400.6 483.8L411.9 474.6L423.2 465.4L434.5 456.3L446 447.1L457.4 438L468.8 428.9L480.3 419.8L491.8 410.8L503.3 401.8L514.8 392.8L526.3 383.9L537.8 375L549.2 366.2L560.6 357.4L572 348.7L583.4 340L594.6 331.4L605.9 322.9L617 314.4L628.1 306.1L639.1 297.8L650 289.5L660.9 281.4L671.6 273.3L682.2 265.4L692.7 257.5L703.1 249.8L713.3 242.1L723.4 234.5L733.4 227.1L743.3 219.7L752.9 212.5L762.5 205.3L771.8 198.3L781 191.5L790 184.7L798.9 178.1L807.5 171.6L816 165.2L824.2 158.9L832.3 152.8L840.1 146.9L847.8 141L855.2 135.4L862.4 129.8L869.4 124.4L876.1 119.2L882.6 114.1L888.9 109.2L894.9 104.4L900.7 99.8L906.2 95.3L911.5 91L916.5 86.9L921.2 83L925.7 79.2L929.9 75.5L933.9 72.1L937.6 68.8L941 65.7L944.1 62.7L947 59.9L949.5 57.4L951.8 54.9L953.9 52.7L955.6 50.6L957 48.8L958.2 47.1L959.1 45.6L959.7 44.2L960 43.1L960 42.1L959.7 41.3L959.1 40.7L958.3 40.3L957.1 40.1L955.7 40L954 40.1L952 40.5L949.8 41L947.2 41.6L944.4 42.5L941.3 43.6L937.9 44.8L934.2 46.2L930.3 47.8L926.1 49.6L921.6 51.5L916.9 53.7L911.9 56L906.6 58.5L901.1 61.2L895.4 64L889.4 67L883.1 70.2L876.7 73.6L869.9 77.1L863 80.8L855.8 84.7L848.4 88.7L840.8 92.9L833 97.3L824.9 101.8L816.7 106.5L808.3 111.3L799.6 116.3L790.8 121.5L781.8 126.8L772.6 132.3L763.3 137.9L753.8 143.6L744.1 149.5L734.3 155.5L724.3 161.7L714.2 168L704 174.4L693.6 181L683.1 187.7L672.5 194.5L661.8 201.4L651 208.5L640 215.7L629.1 222.9L618 230.3L606.8 237.9L595.6 245.5L584.3 253.2L573 261L561.6 268.9L550.2 276.9L538.8 285L527.3 293.2L515.8 301.4L504.3 309.8L492.8 318.2L481.3 326.7L469.8 335.2L458.4 343.8L446.9 352.5L435.5 361.3L424.2 370.1L412.8 378.9L401.6 387.8L390.4 396.8L379.2 405.7L368.2 414.8L357.2 423.8L346.3 432.9L335.5 442L324.8 451.2L314.3 460.3L303.8 469.5L293.5 478.7L283.3 487.9L273.2 497.1L263.2 506.3L253.5 515.5L243.8 524.7L234.4 533.8L225.1 543L215.9 552.2L207 561.3L198.2 570.4L189.6 579.5L181.2 588.5L173 597.5L165 606.5L157.3 615.4L149.7 624.3L142.4 633.1L135.2 641.9L128.4 650.6L121.7 659.3L115.3 667.9L109.1 676.4L103.1 684.9L97.5 693.3L92 701.6L86.8 709.8L81.9 718L77.2 726L72.8 734L68.7 741.9L64.8 749.6L61.3 757.3L57.9 764.9L54.9 772.4L52.1 779.7L49.6 787L47.4 794.1L45.5 801.1L43.9 808L42.5 814.8L41.5 821.4L40.7 827.9L40.2 834.3L40 840.6L40.1 846.7L40.5 852.7L41.1 858.5L42.1 864.2L43.3 869.7L44.8 875.1L46.6 880.4L48.7 885.5L51.1 890.4L53.7 895.2L56.6 899.8L59.8 904.3L63.3 908.6L67.1 912.8L71.1 916.7L75.4 920.6L79.9 924.2L84.8 927.7L89.8 931L95.2 934.1L100.8 937.1L106.6 939.8L112.7 942.4L119 944.9L125.6 947.1L132.4 949.2L139.4 951.1L146.6 952.8L154.1 954.3L161.8 955.7L169.7 956.8L177.8 957.8L186.1 958.6L194.6 959.2L203.3 959.7L212.2 959.9L221.3 960L230.5 959.9L239.9 959.6L249.5 959.1L259.2 958.4L269.1 957.6L279.1 956.5L289.2 955.3L299.5 953.9L309.9 952.3L320.5 950.6L331.1 948.6L341.9 946.5L352.7 944.2L363.6 941.7L374.7 939.1L385.8 936.2L396.9 933.2L408.2 930.1L419.5 926.7L430.8 923.2L442.2 919.5L453.6 915.6L465.1 911.6L476.6 907.4L488.1 903.1L499.6 898.5L511.1 893.9L522.6 889L534 884.1L545.5 878.9L556.9 873.6L568.3 868.2L579.7 862.6L591 856.9L602.2 851L613.4 845L624.5 838.8L635.5 832.5L646.5 826.1L657.3 819.5L668.1 812.9L678.7 806.1L689.3 799.1L699.7 792.1L710 784.9L720.1 777.6L730.2 770.2L740.1 762.8L749.8 755.1L759.4 747.4L768.8 739.6L778 731.7L787.1 723.7L796 715.7L804.7 707.5L813.2 699.2L821.6 690.9L829.7 682.5L837.6 674L845.3 665.5L852.8 656.9L860.1 648.2L867.1 639.4L873.9 630.6L880.5 621.8L886.8 612.9L892.9 604L898.8 595L904.4 586L909.8 576.9L914.9 567.8L919.7 558.7L924.3 549.6L928.6 540.4L932.6 531.2L936.4 522.1L939.9 512.9L943.1 503.7L946.1 494.5L948.7 485.3L951.1 476.1L953.2 466.9L955.1 457.7L956.6 448.6L957.8 439.4L958.8 430.3L959.5 421.3L959.9 412.2L960 403.2L959.8 394.2L959.3 385.3L958.6 376.4L957.6 367.6L956.2 358.8L954.6 350.1L952.7 341.4L950.5 332.8L948.1 324.2L945.3 315.8L942.3 307.4L939 299.1L935.4 290.8L931.6 282.7L927.5 274.6L923.1 266.6L918.5 258.8L913.6 251L908.4 243.3L903 235.7L897.3 228.2L891.4 220.9L885.2 213.6L878.8 206.5L872.2 199.4L865.3 192.5L858.2 185.8L850.9 179.1L843.3 172.6L835.6 166.2L827.6 159.9L819.4 153.8L811 147.8L802.5 142L793.7 136.3L784.8 130.7L775.6 125.3L766.4 120L756.9 114.9L747.3 110L737.5 105.2L727.6 100.5L717.5 96L707.3 91.7L697 87.6L686.5 83.6L676 79.7L665.3 76.1L654.5 72.6L643.6 69.3L632.7 66.1L621.6 63.2L610.5 60.4L599.3 57.8L588 55.3L576.7 53L565.4 51L553.9 49.1L542.5 47.3L531 45.8L519.6 44.4L508.1 43.2L496.6 42.2L485.1 41.4L473.6 40.8L462.1 40.3L450.7 40.1L439.3 40L427.9 40.1L416.5 40.4L405.3 40.9L394 41.5L382.9 42.4L371.8 43.4L360.8 44.6L349.9 46L339.1 47.5L328.3 49.3L317.7 51.2L307.2 53.3L296.8 55.6L286.6 58.1L276.5 60.7L266.5 63.5L256.6 66.5L247 69.7L237.4 73L228.1 76.5L218.9 80.2L209.9 84.1L201 88.1L192.4 92.2L183.9 96.6L175.7 101.1L167.6 105.7L159.8 110.6L152.2 115.5L144.7 120.7L137.5 125.9L130.6 131.4L123.8 137L117.3 142.7L111.1 148.5L105.1 154.5L99.3 160.7L93.8 167L88.5 173.4L83.5 179.9L78.7 186.6L74.3 193.4L70 200.3L66.1 207.4L62.4 214.5L59 221.8L55.9 229.2L53 236.6L50.4 244.2L48.1 251.9L46.1 259.7L44.4 267.6L43 275.6L41.8 283.7L40.9 291.9L40.3 300.1L40 308.4L40 316.8L40.3 325.3L40.9 333.8L41.7 342.5L42.9 351.1L44.3 359.9L46 368.7L48 377.5L50.3 386.4L52.8 395.3L55.7 404.3L58.8 413.3L62.2 422.4L65.8 431.5L69.8 440.6L74 449.7L78.4 458.9L83.2 468L88.2 477.2L93.4 486.4L98.9 495.6L104.7 504.8L110.7 514L116.9 523.2L123.4 532.4L130.1 541.5L137.1 550.7L144.2 559.8L151.6 568.9L159.3 578L167.1 587.1L175.1 596.1L183.4 605.1L191.8 614L200.5 622.9L209.3 631.7L218.3 640.5L227.5 649.3L236.8 657.9L246.3 666.5L256 675.1L265.8 683.5L275.8 691.9L285.9 700.3L296.1 708.5L306.5 716.7L317 724.7L327.6 732.7L338.3 740.6L349.1 748.4L360 756.1L371 763.7L382.1 771.2L393.3 778.5L404.5 785.8L415.8 793L427.1 800L438.5 806.9L449.9 813.7L461.3 820.4L472.8 826.9L484.3 833.3L495.8 839.6L507.3 845.7L518.8 851.7L530.3 857.6L541.7 863.3L553.2 868.9L564.6 874.3L575.9 879.6L587.3 884.7L598.5 889.7L609.7 894.5L620.9 899.1L631.9 903.6L642.9 907.9L653.8 912.1L664.6 916.1L675.3 920L685.8 923.6L696.3 927.1L706.6 930.5L716.8 933.6L726.9 936.6L736.8 939.4L746.6 942L756.3 944.5L765.7 946.8L775 948.9L784.2 950.8L793.1 952.5L801.9 954.1L810.5 955.5L818.9 956.7L827 957.7L835 958.5L842.8 959.2L850.4 959.6L857.7 959.9L864.8 960L871.7 959.9L878.4 959.6L884.8 959.2L891 958.5L896.9 957.7L902.6 956.7L908 955.5L913.2 954.2L918.1 952.6L922.8 950.9L927.2 948.9L931.3 946.9L935.2 944.6L938.8 942.1L942.1 939.5L945.1 936.7L947.9 933.7L950.4 930.6L952.6 927.2L954.5 923.8L956.1 920.1L957.5 916.3L958.5 912.3L959.3 908.1L959.8 903.8L960 899.3L959.9 894.6L959.5 889.8L958.9 884.9L957.9 879.7L956.7 874.5L955.2 869.1L953.4 863.5L951.3 857.8L948.9 851.9L946.3 845.9L943.3 839.8L940.1 833.5L936.6 827.1L932.9 820.6L928.9 813.9L924.6 807.2L920 800.2L915.2 793.2L910.1 786.1L904.8 778.8L899.2 771.4L893.3 764L887.3 756.4L880.9 748.7L874.4 740.9L867.6 733L860.5 725L853.3 717L845.8 708.8L838.1 700.6L830.2 692.2L822.1 683.8L813.8 675.4L805.3 666.8L796.6 658.2L787.7 649.6L778.7 640.8L769.4 632L760 623.2L750.4 614.3L740.7 605.4L730.9 596.4L720.8 587.4L710.7 578.3L700.4 569.3L690 560.2L679.4 551L668.8 541.9L658.1 532.7L647.2 523.5L636.3 514.3L625.2 505.1L614.1 495.9L603 486.7L591.7 477.5L580.4 468.4L569.1 459.2L557.7 450L546.3 440.9L534.8 431.8L523.3 422.7L511.8 413.6L500.3 404.6L488.8 395.6L477.3 386.7L465.9 377.8L454.4 369L443 360.2L431.6 351.4L420.2 342.8L408.9 334.1L397.7 325.6L386.5 317.1L375.4 308.7L364.4 300.4L353.4 292.1L342.6 284L331.8 275.9L321.2 267.9L310.6 260L300.2 252.2L289.9 244.5L279.8 236.9L269.7 229.4L259.9 222L250.1 214.8L240.5 207.6L231.1 200.6L221.9 193.6L212.8 186.8L203.9 180.2L195.2 173.6L186.7 167.2L178.4 160.9L170.3 154.8L162.3 148.7L154.6 142.9L147.1 137.2L139.9 131.6L132.8 126.1L126 120.9L119.4 115.7L113.1 110.7L107 105.9L101.2 101.2L95.5 96.7L90.2 92.4L85.1 88.2L80.3 84.2L75.7 80.3L71.4 76.7L67.3 73.1L63.6 69.8L60.1 66.6L56.9 63.6L53.9 60.8L51.2 58.2L48.9 55.7L46.8 53.4L44.9 51.3L43.4 49.3L42.1 47.6L41.2 46L40.5 44.6L40.1 43.4L40 42.4L40.2 41.5L40.7 40.9L41.4 40.4L42.5 40.1L43.8 40L45.4 40.1L47.3 40.3L49.5 40.8L52 41.4L54.7 42.2L57.7 43.2L61 44.4L64.6 45.7L68.4 47.3L72.6 49L76.9 50.9L81.6 53L86.5 55.2L91.7 57.7L97.1 60.3L102.8 63.1L108.7 66L114.8 69.2L121.2 72.5L127.9 76L134.8 79.6L141.9 83.4L149.2 87.4L156.8 91.6L164.5 95.9L172.5 100.4L180.7 105L189 109.8L197.6 114.7L206.4 119.8L215.3 125.1L224.4 130.5L233.7 136.1L243.2 141.8L252.8 147.6L262.6 153.6L272.5 159.7L282.6 166L292.8 172.4L303.1 178.9L313.6 185.5L324.1 192.3L334.8 199.2L345.6 206.2L356.5 213.4L367.4 220.6L378.5 228L389.6 235.4L400.8 243L412.1 250.7L423.4 258.5L434.8 266.4L446.2 274.3L457.6 282.4L469.1 290.5L480.5 298.8L492 307.1L503.5 315.5L515 323.9L526.5 332.5L538 341.1L549.4 349.7L560.9 358.5L572.2 367.3L583.6 376.1L594.8 385L606.1 393.9L617.2 402.9L628.3 411.9L639.3 420.9L650.2 430L661 439.1L671.8 448.2L682.4 457.4L692.9 466.6L703.3 475.8L713.5 484.9L723.6 494.1L733.6 503.3L743.4 512.5" opacity="0.14"/></g></svg>