<svg xmlns="http://www.w3.org/2000/svg" viewBox="0 0 1000 1000" preserveAspectRatio="xMidYMid slice" fill="none" stroke-linecap="round" stroke-linejoin="round"><g stroke="#0f3d2e" stroke-width="0.9"><path d="M825.3 500L833.3 513.8L841.1 527.6L848.7 541.3L856.1 555.1L863.3 568.7L870.2 582.4L876.9 595.9L883.4 609.3L889.6 622.7L895.6 635.9L901.4 649.1L906.9 662L912.1 674.9L917.1 687.6L921.8 700.1L926.3 712.4L930.4 724.6L934.4 736.5L938 748.2L941.4 759.7L944.5 771L947.3 782L949.9 792.8L952.1 803.3L954.1 813.6L955.8 823.5L957.2 833.2L958.3 842.5L959.2 851.6L959.7 860.3L960 868.7L960 876.8L959.6 884.6L959 892L958.2 899L957 905.7L955.5 912L953.8 918L951.8 923.5L949.4 928.7L946.9 933.5L944 938L940.8 942L937.4 945.6L933.7 948.8L929.8 951.7L925.5 954.1L921 956.1L916.3 957.7L911.2 958.8L906 959.6L900.4 960L894.6 959.9L888.6 959.4L882.3 958.6L875.8 957.3L869.1 955.6L862.1 953.4L854.9 950.9L847.5 948L839.8 944.6L832 940.9L823.9 936.8L815.6 932.2L807.2 927.3L798.5 922L789.7 916.3L780.6 910.3L771.5 903.9L762.1 897.1L752.6 889.9L742.9 882.4L733 874.6L723 866.4L712.9 857.9L702.6 849.1L692.3 839.9L681.8 830.5L671.1 820.7L660.4 810.7L649.6 800.4L638.7 789.8L627.7 779L616.6 767.9L605.4 756.5L594.2 745L582.9 733.2L571.6 721.2L560.2 709L548.8 696.6L537.3 684L525.8 671.3L514.3 658.4L502.8 645.4L491.3 632.2L479.9 619L468.4 605.6L456.9 592.1L445.5 578.5L434.1 564.9L422.7 551.2L411.4 537.5L400.2 523.7L389 509.9L377.8 496.1L366.8 482.3L355.8 468.6L344.9 454.8L334.2 441.1L323.5 427.4L312.9 413.8L302.5 400.3L292.2 386.9L282 373.6L271.9 360.4L262 347.3L252.2 334.3L242.6 321.5L233.2 308.9L223.9 296.4L214.8 284.2L205.8 272.1L197.1 260.2L188.5 248.5L180.2 237.1L172 225.9L164 214.9L156.3 204.2L148.8 193.8L141.4 183.6L134.4 173.8L127.5 164.2L120.9 154.9L114.5 145.9L108.3 137.3L102.4 129L96.8 121L91.3 113.3L86.2 106L81.3 99.1L76.7 92.5L72.3 86.3L68.2 80.4L64.4 75L60.8 69.9L57.5 65.2L54.5 60.9L51.8 57L49.4 53.4L47.2 50.3L45.3 47.6L43.7 45.3L42.4 43.4L41.4 42L40.6 40.9L40.2 40.2L40 40L40.1 40.2L40.5 40.8L41.2 41.8L42.2 43.2L43.5 45L45 47.2L46.9 49.9L49 52.9L51.4 56.4L54.1 60.2L57 64.5L60.3 69.1L63.8 74.1L67.6 79.5L71.6 85.3L76 91.5L80.5 98L85.4 104.9L90.5 112.1L95.9 119.7L101.5 127.7L107.4 135.9L113.5 144.5L119.8 153.4L126.4 162.7L133.2 172.2L140.3 182L147.6 192.1L155.1 202.5L162.8 213.2L170.7 224.1L178.9 235.3L187.2 246.7L195.7 258.3L204.4 270.2L213.3 282.2L222.4 294.5L231.7 306.9L241.1 319.5L250.7 332.3L260.4 345.2L270.3 358.3L280.4 371.5L290.5 384.8L300.8 398.2L311.3 411.7L321.8 425.3L332.5 438.9L343.2 452.6L354.1 466.4L365 480.1L376.1 493.9L387.2 507.7L398.4 521.5L409.6 535.3L420.9 549L432.3 562.7L443.7 576.4L455.1 590L466.5 603.4L478 616.8L489.5 630.1L501 643.3L512.5 656.4L524 669.3L535.5 682L546.9 694.6L558.4 707L569.7 719.2L581.1 731.3L592.4 743.1L603.6 754.7L614.8 766.1L625.9 777.2L636.9 788.1L647.8 798.7L658.7 809.1L669.4 819.2L680.1 829L690.6 838.5L701 847.6L711.3 856.5L721.4 865.1L731.4 873.3L741.3 881.2L751 888.8L760.6 896L770 902.8L779.2 909.3L788.2 915.4L797.1 921.1L805.8 926.5L814.3 931.5L822.6 936.1L830.7 940.3L838.6 944.1L846.3 947.5L853.7 950.5L861 953.1L868 955.2L874.8 957L881.3 958.4L887.6 959.3L893.7 959.9L899.5 960L905.1 959.7L910.4 959L915.5 957.9L920.3 956.4L924.8 954.4L929.1 952.1L933.1 949.3L936.9 946.1L940.3 942.6L943.5 938.6L946.4 934.3L949.1 929.5L951.4 924.4L953.5 918.9L955.3 913L956.8 906.7L958 900.1L958.9 893.1L959.6 885.8L959.9 878.1L960 870.1L959.8 861.7L959.3 853L958.5 844L957.4 834.7L956 825.1L954.4 815.2L952.5 805L950.2 794.5L947.7 783.8L945 772.8L941.9 761.5L938.6 750.1L935 738.4L931.1 726.5L926.9 714.4L922.5 702.1L917.9 689.6L912.9 676.9L907.7 664.1L902.3 651.1L896.6 638L890.6 624.8L884.4 611.5L878 598L871.3 584.5L864.4 570.9L857.3 557.2L849.9 543.5L842.3 529.8L834.6 516L826.6 502.2L818.4 488.4L810 474.6L801.4 460.8L792.6 447.1L783.6 433.4L774.5 419.8L765.2 406.3L755.7 392.8L746.1 379.4L736.3 366.2L726.3 353L716.2 340L706 327.1L695.7 314.4L685.2 301.9L674.6 289.5L663.9 277.4L653.1 265.4L642.2 253.6L631.3 242.1L620.2 230.8L609.1 219.7L597.9 208.9L586.6 198.3L575.3 188.1L563.9 178.1L552.5 168.3L541.1 158.9L529.6 149.8L518.1 141L506.6 132.6L495.1 124.4L483.6 116.6L472.1 109.2L460.7 102.1L449.2 95.3L437.8 89L426.4 83L415.1 77.3L403.8 72.1L392.6 67.2L381.5 62.7L370.4 58.6L359.4 54.9L348.5 51.7L337.7 48.8L327 46.3L316.4 44.2L305.9 42.6L295.5 41.3L285.3 40.5L275.2 40.1L265.2 40L255.4 40.5L245.8 41.3L236.2 42.5L226.9 44.1L217.7 46.2L208.7 48.7L199.9 51.5L191.3 54.8L182.9 58.5L174.7 62.6L166.6 67L158.8 71.9L151.2 77.1L143.8 82.7L136.7 88.7L129.7 95.1L123 101.8L116.5 108.9L110.3 116.3L104.3 124.1L98.6 132.3L93.1 140.7L87.9 149.5L82.9 158.6L78.2 168L73.7 177.7L69.5 187.7L65.6 197.9L62 208.5L58.6 219.3L55.5 230.3L52.7 241.6L50.1 253.2L47.9 264.9L45.9 276.9L44.2 289.1L42.8 301.4L41.7 314L40.8 326.7L40.3 339.5L40 352.5L40.1 365.7L40.4 378.9L41 392.3L41.9 405.7L43 419.3L44.5 432.9L46.2 446.6L48.3 460.3L50.6 474.1L53.2 487.9L56 501.7L59.2 515.5L62.6 529.2L66.3 543L70.3 556.7L74.5 570.4L79 584L83.8 597.5L88.8 611L94.1 624.3L99.6 637.5L105.4 650.6L111.4 663.6L117.7 676.4L124.2 689.1L131 701.6L138 713.9L145.2 726L152.6 737.9L160.2 749.6L168.1 761.1L176.2 772.4L184.4 783.4L192.9 794.1L201.6 804.6L210.4 814.8L219.4 824.7L228.6 834.3L238 843.6L247.5 852.7L257.2 861.4L267.1 869.7L277.1 877.8L287.2 885.5L297.4 892.8L307.8 899.8L318.3 906.5L329 912.8L339.7 918.7L350.5 924.2L361.4 929.3L372.4 934.1L383.5 938.5L394.7 942.4L405.9 946L417.2 949.2L428.5 952L439.9 954.3L451.3 956.3L462.8 957.8L474.3 959L485.8 959.7L497.3 960L508.8 959.9L520.2 959.4L531.7 958.4L543.2 957.1L554.6 955.3L566 953.1L577.4 950.6L588.7 947.6L599.9 944.2L611.1 940.4L622.3 936.2L633.3 931.7L644.3 926.7L655.1 921.4L665.9 915.6L676.6 909.5L687.2 903.1L697.6 896.2L707.9 889L718.1 881.5L728.2 873.6L738.1 865.4L747.9 856.9L757.5 848L766.9 838.8L776.2 829.3L785.3 819.5L794.2 809.5L803 799.1L811.5 788.5L819.9 777.6L828.1 766.5L836 755.1L843.8 743.6L851.3 731.7L858.6 719.7L865.7 707.5L872.6 695.1L879.2 682.5L885.6 669.8L891.7 656.9L897.6 643.8L903.3 630.6L908.7 617.4L913.9 604L918.7 590.5L923.4 576.9L927.7 563.3L931.8 549.6L935.7 535.8L939.2 522.1L942.5 508.3L945.5 494.5L948.2 480.7L950.7 466.9L952.8 453.1L954.7 439.4L956.3 425.8L957.6 412.2L958.6 398.7L959.4 385.3L959.8 372L960 358.8L959.9 345.7L959.5 332.8L958.8 320L957.8 307.4L956.5 294.9L955 282.7L953.1 270.6L951 258.8L948.6 247.1L945.9 235.7L942.9 224.5L939.7 213.6L936.2 202.9L932.4 192.5L928.3 182.4L924 172.6L919.4 163L914.6 153.8L909.4 144.9L904.1 136.3L898.5 128L892.6 120L886.5 112.4L880.1 105.2L873.5 98.3L866.7 91.7L859.6 85.5L852.4 79.7L844.8 74.3L837.1 69.3L829.2 64.6L821.1 60.4L812.7 56.5L804.2 53L795.5 50L786.6 47.3L777.5 45.1L768.2 43.2L758.8 41.8L749.2 40.8L739.5 40.2L729.6 40L719.6 40.2L709.4 40.9L699.1 41.9L688.6 43.4L678.1 45.3L667.4 47.5L656.7 50.2L645.8 53.3L634.9 56.8L623.8 60.7L612.7 65L601.5 69.7L590.3 74.8L579 80.2L567.6 86L556.2 92.2L544.8 98.8L533.4 105.7L521.9 113L510.4 120.7L498.9 128.6L487.4 137L475.9 145.6L464.4 154.5L453 163.8L441.5 173.4L430.2 183.2L418.8 193.4L407.5 203.8L396.3 214.5L385.1 225.5L374 236.6L363 248.1L352.1 259.7L341.2 271.6L330.5 283.7L319.8 296L309.3 308.4L298.9 321.1L288.6 333.8L278.5 346.8L268.5 359.9L258.6 373.1L248.9 386.4L239.3 399.8L229.9 413.3L220.7 426.9L211.7 440.6L202.8 454.3L194.1 468L185.6 481.8L177.3 495.6L169.2 509.4L161.3 523.2L153.7 537L146.2 550.7L139 564.4L132 578L125.2 591.6L118.6 605.1L112.3 618.5L106.3 631.7L100.4 644.9L94.9 657.9L89.5 670.8L84.5 683.5L79.7 696.1L75.1 708.5L70.9 720.7L66.9 732.7L63.1 744.5L59.7 756.1L56.5 767.4L53.6 778.5L50.9 789.4L48.6 800L46.5 810.3L44.7 820.4L43.2 830.1L42 839.6L41.1 848.7L40.4 857.6L40.1 866.1L40 874.3L40.2 882.1L40.7 889.7L41.5 896.8L42.6 903.6L44 910L45.6 916.1L47.6 921.8L49.8 927.1L52.3 932.1L55.1 936.6L58.1 940.7L61.5 944.5L65.1 947.8L68.9 950.8L73.1 953.3L77.5 955.5L82.2 957.2L87.1 958.5L92.3 959.4L97.8 959.9L103.5 960L109.4 959.6L115.6 958.9L122.1 957.7L128.8 956.1L135.7 954.2L142.8 951.8L150.1 948.9L157.7 945.7L165.5 942.1L173.5 938.1L181.7 933.7L190.1 928.9L198.7 923.8L207.5 918.2L216.5 912.3L225.6 905.9L234.9 899.3L244.4 892.2L254 884.9L263.8 877.1L273.8 869.1L283.9 860.7L294.1 851.9L304.4 842.9L314.9 833.5L325.5 823.9L336.2 813.9L347 803.7L357.9 793.2L368.8 782.5L379.9 771.4L391 760.2L402.2 748.7L413.5 737L424.8 725L436.2 712.9L447.6 700.6L459 688.1L470.5 675.4L482 662.5L493.5 649.6L505 636.4L516.5 623.2L528 609.9L539.4 596.4L550.9 582.9L562.3 569.3L573.7 555.6L585 541.9L596.3 528.1L607.5 514.3L618.6 500.5L629.7 486.7L640.7 472.9L651.6 459.2L662.4 445.5L673.1 431.8L683.7 418.2L694.2 404.6L704.6 391.2L714.8 377.8L724.9 364.6L734.9 351.4L744.7 338.4L754.3 325.6L763.8 312.9L773.2 300.4L782.3 288.1L791.3 275.9L800.1 264L808.8 252.2L817.2 240.7L825.4 229.4L833.4 218.4L841.3 207.6L848.9 197.1L856.2 186.8L863.4 176.9L870.3 167.2L877.1 157.8L883.5 148.7L889.7 140L895.7 131.6L901.5 123.5L907 115.7L912.2 108.3L917.2 101.2L921.9 94.5L926.3 88.2L930.5 82.2L934.4 76.7L938.1 71.5L941.5 66.6L944.5 62.2L947.4 58.2L949.9 54.5L952.2 51.3L954.1 48.4L955.8 46L957.2 44L958.3 42.4L959.2 41.2L959.7 40.4L960 40L959.9 40.1L959.6 40.5L959 41.4L958.1 42.7L957 44.4L955.5 46.5L953.7 49L951.7 51.9L949.4 55.2L946.8 59L943.9 63.1L940.8 67.6L937.4 72.5L933.7 77.8L929.7 83.4L925.5 89.5L920.9 95.9L916.2 102.7L911.1 109.8L905.9 117.3L900.3 125.1L894.5 133.3L888.5 141.8L882.2 150.6L875.7 159.7L869 169.1L862 178.9L854.8 188.9L847.3 199.2L839.7 209.8L831.8 220.6L823.8 231.7L815.5 243L807 254.6L798.4 266.4L789.5 278.4L780.5 290.5L771.3 302.9L761.9 315.5L752.4 328.2L742.7 341.1L732.8 354.1L722.9 367.3L712.7 380.5L702.5 393.9L692.1 407.4L681.6 420.9L670.9 434.6L660.2 448.2L649.4 462L638.5 475.8L627.5 489.5L616.4 503.3L605.2 517.1L594 530.9L582.7 544.7L571.4 558.4L560 572L548.6 585.6L537.1 599.2L525.6 612.6L514.1 625.9L502.6 639.1L491.1 652.2L479.7 665.2L468.2 678L456.7 690.6L445.3 703.1L433.9 715.4L422.5 727.5L411.2 739.4L400 751L388.8 762.5L377.6 773.7L366.6 784.7L355.6 795.4L344.8 805.8L334 816L323.3 825.9L312.7 835.5L302.3 844.8L292 853.7L281.8 862.4L271.7 870.7L261.8 878.7L252.1 886.4L242.5 893.7L233 900.7L223.7 907.3L214.6 913.5L205.7 919.4L196.9 924.8L188.4 929.9L180 934.6L171.9 939L163.9 942.9L156.2 946.4L148.6 949.6L141.3 952.3L134.2 954.6L127.4 956.5L120.7 958L114.4 959.1L108.2 959.7L102.3 960L96.7 959.8L91.3 959.3L86.1 958.3L81.2 956.9L76.6 955.1L72.2 952.9L68.1 950.2L64.3 947.2L60.8 943.8L57.5 939.9L54.5 935.7L51.8 931.1L49.3 926.1L47.2 920.7L45.3 914.9L43.7 908.8L42.4 902.3L41.3 895.4L40.6 888.2L40.2 880.6L40 872.6L40.1 864.4L40.5 855.8L41.2 846.9L42.2 837.7L43.5 828.2L45.1 818.3L46.9 808.2L49 797.9L51.4 787.2L54.1 776.3L57.1 765.2L60.3 753.8L63.9 742.1L67.6 730.3L71.7 718.2L76 706L80.6 693.6L85.5 681L90.6 668.2L96 655.3L101.6 642.2L107.5 629L113.6 615.7L119.9 602.3L126.5 588.8L133.4 575.3L140.4 561.6L147.7 547.9L155.2 534.2L162.9 520.4L170.9 506.6L179 492.8L187.3 479L195.9 465.2L204.6 451.5L213.5 437.8L222.6 424.1L231.8 410.6L241.3 397.1L250.9 383.7L260.6 370.4L270.5 357.2L280.5 344.1L290.7 331.2L301 318.5L311.4 305.9L322 293.5L332.7 281.2L343.4 269.2L354.3 257.3L365.2 245.7L376.3 234.3L387.4 223.2L398.6 212.3L409.8 201.7L421.1 191.3L432.5 181.2L443.9 171.4L455.3 161.9L466.8 152.7L478.2 143.8L489.7 135.2L501.2 127L512.7 119.1L524.2 111.5L535.7 104.3L547.1 97.4L558.6 91L569.9 84.8L581.3 79.1L592.6 73.7L603.8 68.7L615 64.1L626.1 59.9L637.1 56.1L648 52.7L658.9 49.6L669.6 47L680.3 44.8L690.8 43L701.2 41.7L711.5 40.7L721.6 40.1L731.6 40L741.5 40.3L751.2 41L760.7 42.1L770.1 43.6L779.4 45.5L788.4 47.8L797.3 50.6L806 53.7L814.4 57.3L822.7 61.2L830.8 65.6L838.7 70.3L846.4 75.4L853.9 80.9L861.1 86.8L868.1 93L874.9 99.6L881.4 106.6L887.7 113.9L893.8 121.6L899.6 129.6L905.2 138L910.5 146.7L915.6 155.7L920.4 165L924.9 174.6L929.2 184.5L933.2 194.6L936.9 205.1L940.4 215.8L943.6 226.8L946.5 238L949.1 249.5L951.4 261.2L953.5 273.1L955.3 285.2L956.8 297.5L958 309.9L958.9 322.6L959.6 335.4L959.9 348.4L960 361.5L959.8 374.7L959.3 388L958.5 401.4L957.4 415L956 428.6L954.4 442.2L952.4 455.9L950.2 469.7L947.7 483.5L944.9 497.3L941.8 511.1L938.5 524.9L934.9 538.6L931 552.4L926.9 566L922.4 579.7L917.8 593.2L912.8 606.7L907.6 620.1L902.2 633.3L896.5 646.5L890.5 659.5L884.3 672.4L877.9 685.1L871.2 697.6L864.3 710L857.1 722.2L849.8 734.2L842.2 745.9L834.4 757.5L826.4 768.8L818.2 779.9L809.8 790.7L801.2 801.3L792.4 811.6L783.5 821.6L774.3 831.3L765 840.7L755.5 849.8L745.9 858.6L736.1 867.1L726.1 875.3L716.1 883.1L705.8 890.5L695.5 897.7L685 904.4L674.4 910.8L663.7 916.8L652.9 922.5L642.1 927.7L631.1 932.6L620 937.1L608.9 941.2L597.7 944.9L586.4 948.2L575.1 951.1L563.7 953.6L552.3 955.7L540.9 957.4L529.4 958.6L517.9 959.5L506.4 959.9L494.9 960L483.4 959.6L471.9 958.8L460.5 957.5L449 955.9L437.6 953.9L426.2 951.4L414.9 948.6L403.6 945.3L392.4 941.7L381.3 937.6L370.2 933.2L359.2 928.3L348.3 923.1L337.5 917.5L326.8 911.5L316.2 905.2L305.7 898.4L295.3 891.4L285.1 883.9L275 876.2L265.1 868.1L255.2 859.6L245.6 850.9L236.1 841.8L226.7 832.4L217.6 822.7L208.6 812.7L199.8 802.5L191.2 791.9L182.7 781.1L174.5 770.1L166.5 758.8L158.7 747.3L151.1 735.5L143.7 723.6L136.5 711.4L129.6 699.1L122.9 686.5L116.4 673.8L110.2 661L104.2 648L98.5 634.8L93 621.6L87.8 608.2L82.8 594.8L78.1 581.2L73.6 567.6L69.4 553.9L65.5 540.2L61.9 526.4L58.5 512.7L55.4 498.9L52.6 485.1L50.1 471.3L47.8 457.5L45.9 443.8L44.2 430.1L42.8 416.5L41.7 403L40.8 389.5L40.3 376.2L40 363L40.1 349.9L40.4 336.9L41 324.1L41.9 311.4L43.1 298.9L44.5 286.6L46.3 274.4L48.3 262.5L50.6 250.8L53.2 239.3L56.1 228.1L59.2 217.1L62.7 206.3L66.4 195.8L70.3 185.6L74.6 175.7L79.1 166L83.9 156.7L88.9 147.7L94.2 139L99.7 130.6L105.5 122.5L111.6 114.8L117.8 107.4L124.4 100.4L131.1 93.8L138.1 87.5L145.3 81.6L152.7 76L160.4 70.8L168.2 66.1L176.3 61.7L184.6 57.7L193.1 54.1L201.7 50.9L210.6 48.1L219.6 45.8L228.8 43.8L238.2 42.2L247.7 41.1L257.4 40.3L267.2 40L277.2 40.1L287.4 40.6L297.6 41.5L308 42.9L318.5 44.6L329.2 46.8L339.9 49.3L350.7 52.3L361.6 55.7L372.6 59.4L383.7 63.6L394.9 68.2L406.1 73.1L417.4 78.4L428.7 84.1L440.1 90.2L451.5 96.7L463 103.5L474.5 110.7L486 118.2L497.5 126.1L509 134.3L520.5 142.8L531.9 151.7L543.4 160.8L554.8 170.3L566.2 180.1L577.6 190.1L588.9 200.5L600.1 211.1L611.3 221.9L622.5 233.1L633.5 244.4L644.5 256L655.3 267.8L666.1 279.8L676.8 292L687.3 304.4L697.8 317L708.1 329.8L718.3 342.7L728.4 355.7L738.3 368.9L748 382.1L757.6 395.5L767.1 409L776.4 422.6L785.5 436.2L794.4 449.9L803.1 463.6L811.7 477.4L820 491.2L828.2 505L836.2 518.8" opacity="0.14"/></g></svg>