<svg xmlns="http://www.w3.org/2000/svg" viewBox="0 0 1000 1000" preserveAspectRatio="xMidYMid slice" fill="none" stroke-linecap="round" stroke-linejoin="round"><g stroke="#0f3d2e" stroke-width="0.9"><path d="M960 500L959.7 511.5L958.9 523L957.5 534.5L955.5 545.9L953 557.4L949.9 568.7L946.3 580.1L942.1 591.4L937.4 602.6L932.1 613.8L926.3 624.9L920 635.9L913.2 646.9L905.9 657.7L898 668.5L889.7 679.1L880.9 689.7L871.7 700.1L862 710.4L851.8 720.5L841.2 730.6L830.2 740.4L818.8 750.2L807 759.7L794.9 769.1L782.3 778.4L769.4 787.5L756.2 796.3L742.7 805L728.9 813.6L714.8 821.9L700.4 830L685.8 837.9L671 845.6L655.9 853.1L640.7 860.3L625.3 867.4L609.7 874.2L594 880.7L578.2 887.1L562.3 893.2L546.3 899L530.2 904.6L514.2 910L498.1 915L482 919.9L465.9 924.4L449.9 928.7L433.9 932.8L418 936.5L402.2 940L386.5 943.2L371 946.2L355.6 948.8L340.5 951.2L325.5 953.3L310.7 955.1L296.1 956.6L281.8 957.9L267.8 958.8L254 959.5L240.6 959.9L227.4 960L214.6 959.8L202.2 959.3L190.1 958.6L178.4 957.5L167.1 956.2L156.2 954.5L145.7 952.6L135.6 950.4L126 948L116.9 945.2L108.2 942.2L100 938.9L92.3 935.3L85.1 931.4L78.4 927.3L72.2 922.9L66.6 918.3L61.5 913.4L56.9 908.2L52.8 902.8L49.3 897.1L46.4 891.1L44 885L42.1 878.6L40.9 871.9L40.2 865L40 857.9L40.4 850.6L41.4 843L43 835.3L45.1 827.3L47.7 819.1L50.9 810.7L54.7 802.1L59 793.4L63.8 784.4L69.2 775.3L75.1 766L81.6 756.5L88.5 746.9L96 737.1L103.9 727.2L112.3 717.1L121.2 706.9L130.6 696.6L140.4 686.1L150.7 675.6L161.4 664.9L172.5 654.1L184 643.2L195.9 632.2L208.1 621.2L220.7 610.1L233.7 598.9L247 587.6L260.6 576.3L274.5 564.9L288.6 553.5L303.1 542.1L317.7 530.6L332.6 519.1L347.7 507.6L363 496.1L378.5 484.6L394.1 473.1L409.8 461.7L425.6 450.2L441.6 438.8L457.6 427.4L473.6 416.1L489.7 404.8L505.8 393.6L521.9 382.5L538 371.4L554 360.4L569.9 349.5L585.8 338.6L601.6 327.9L617.2 317.3L632.7 306.8L648 296.4L663.2 286.2L678.1 276.1L692.9 266.1L707.3 256.3L721.6 246.6L735.6 237.1L749.2 227.7L762.6 218.5L775.7 209.5L788.4 200.7L800.8 192.1L812.7 183.6L824.4 175.4L835.6 167.3L846.4 159.5L856.8 151.9L866.7 144.5L876.2 137.3L885.2 130.3L893.8 123.6L901.9 117.1L909.5 110.8L916.5 104.8L923.1 99.1L929.2 93.6L934.7 88.3L939.7 83.3L944.2 78.6L948.1 74.1L951.4 69.9L954.3 65.9L956.5 62.3L958.2 58.9L959.3 55.7L959.9 52.9L959.9 50.3L959.4 48.1L958.3 46.1L956.6 44.3L954.4 42.9L951.6 41.8L948.2 40.9L944.3 40.3L939.9 40L934.9 40L929.4 40.3L923.4 40.9L916.8 41.8L909.7 42.9L902.2 44.3L894.1 46.1L885.6 48.1L876.6 50.4L867.1 52.9L857.2 55.8L846.8 58.9L836 62.3L824.8 66L813.2 69.9L801.2 74.1L788.9 78.6L776.2 83.3L763.1 88.4L749.8 93.6L736.1 99.1L722.1 104.9L707.9 110.9L693.4 117.2L678.7 123.7L663.8 130.4L648.6 137.3L633.3 144.5L617.8 151.9L602.2 159.6L586.4 167.4L570.6 175.5L554.6 183.7L538.6 192.1L522.5 200.8L506.4 209.6L490.3 218.6L474.2 227.8L458.2 237.2L442.2 246.7L426.3 256.4L410.4 266.2L394.7 276.2L379.1 286.3L363.6 296.5L348.3 306.9L333.2 317.4L318.3 328L303.6 338.7L289.2 349.6L275 360.5L261.1 371.5L247.5 382.5L234.2 393.7L221.2 404.9L208.6 416.2L196.3 427.5L184.4 438.9L172.9 450.3L161.8 461.8L151.1 473.2L140.8 484.7L131 496.2L121.6 507.7L112.7 519.2L104.2 530.7L96.3 542.2L88.8 553.6L81.8 565L75.4 576.4L69.5 587.7L64 599L59.2 610.2L54.8 621.3L51.1 632.3L47.8 643.3L45.2 654.2L43 665L41.5 675.7L40.5 686.2L40 696.7L40.1 707L40.8 717.2L42.1 727.3L43.9 737.2L46.3 747L49.2 756.6L52.7 766.1L56.7 775.4L61.3 784.5L66.4 793.5L72 802.2L78.2 810.8L84.8 819.2L92 827.3L99.7 835.3L107.9 843.1L116.5 850.6L125.7 858L135.3 865.1L145.3 872L155.8 878.6L166.6 885L177.9 891.2L189.6 897.1L201.7 902.8L214.1 908.2L226.9 913.4L240 918.3L253.5 923L267.2 927.4L281.3 931.5L295.5 935.3L310.1 938.9L324.9 942.2L339.9 945.2L355 948L370.4 950.5L385.9 952.7L401.6 954.6L417.4 956.2L433.3 957.5L449.2 958.6L465.3 959.3L481.3 959.8L497.4 960L513.5 959.9L529.6 959.5L545.7 958.8L561.6 957.9L577.6 956.6L593.4 955.1L609.1 953.3L624.7 951.2L640.1 948.8L655.3 946.1L670.4 943.2L685.2 940L699.8 936.5L714.2 932.7L728.3 928.7L742.2 924.4L755.7 919.8L768.9 915L781.8 909.9L794.4 904.6L806.6 899L818.4 893.1L829.8 887L840.8 880.7L851.4 874.1L861.6 867.3L871.3 860.3L880.6 853L889.4 845.5L897.7 837.8L905.6 829.9L912.9 821.8L919.8 813.5L926.1 805L931.9 796.3L937.2 787.4L941.9 778.3L946.1 769.1L949.8 759.7L952.9 750.1L955.4 740.3L957.4 730.5L958.8 720.4L959.7 710.3L960 700L959.7 689.6L958.9 679L957.5 668.4L955.6 657.6L953.1 646.8L950 635.8L946.4 624.8L942.3 613.7L937.6 602.5L932.3 591.3L926.6 580L920.3 568.6L913.5 557.2L906.2 545.8L898.4 534.4L890.1 522.9L881.3 511.4L872.1 499.9L862.4 488.4L852.2 476.9L841.7 465.4L830.7 454L819.3 442.5L807.5 431.2L795.3 419.8L782.8 408.5L770 397.3L756.8 386.1L743.2 375L729.4 364L715.3 353L701 342.2L686.4 331.4L671.5 320.8L656.5 310.2L641.3 299.8L625.9 289.5L610.3 279.4L594.6 269.4L578.8 259.5L562.9 249.8L546.9 240.2L530.9 230.8L514.8 221.5L498.7 212.5L482.6 203.6L466.5 194.9L450.5 186.4L434.5 178.1L418.6 169.9L402.8 162L387.2 154.3L371.6 146.9L356.2 139.6L341 132.6L326 125.8L311.2 119.2L296.7 112.9L282.4 106.8L268.3 100.9L254.6 95.3L241.1 90L227.9 84.9L215.1 80.1L202.7 75.5L190.6 71.2L178.8 67.2L167.5 63.4L156.6 59.9L146.1 56.7L136 53.8L126.4 51.1L117.2 48.8L108.6 46.7L100.3 44.9L92.6 43.3L85.4 42.1L78.7 41.1L72.5 40.5L66.8 40.1L61.6 40L57 40.2L53 40.7L49.4 41.5L46.5 42.5L44.1 43.8L42.2 45.5L40.9 47.4L40.2 49.6L40 52.1L40.4 54.8L41.4 57.8L42.9 61.2L45 64.7L47.6 68.6L50.8 72.7L54.5 77.1L58.8 81.8L63.6 86.7L69 91.9L74.9 97.3L81.3 103L88.2 108.9L95.7 115.1L103.6 121.5L112 128.2L120.9 135L130.2 142.2L140 149.5L150.3 157L160.9 164.8L172 172.8L183.5 181L195.4 189.4L207.6 197.9L220.2 206.7L233.2 215.7L246.5 224.8L260.1 234.1L273.9 243.6L288.1 253.2L302.5 263L317.2 272.9L332 283L347.1 293.2L362.4 303.5L377.9 314L393.4 324.5L409.2 335.2L425 346L440.9 356.9L456.9 367.9L473 378.9L489.1 390L505.2 401.2L521.3 412.5L537.3 423.8L553.4 435.2L569.3 446.6L585.2 458L600.9 469.5L616.6 481L632.1 492.5L647.4 504L662.6 515.5L677.5 527L692.3 538.4L706.8 549.9L721 561.3L735 572.7L748.7 584L762.1 595.3L775.2 606.5L787.9 617.6L800.3 628.7L812.3 639.7L823.9 650.6L835.1 661.5L846 672.2L856.4 682.8L866.3 693.3L875.8 703.7L884.9 713.9L893.5 724L901.6 734L909.2 743.8L916.3 753.5L922.9 763L928.9 772.4L934.5 781.5L939.5 790.5L944 799.4L947.9 808L951.3 816.4L954.2 824.7L956.4 832.7L958.2 840.6L959.3 848.2L959.9 855.6L959.9 862.8L959.4 869.7L958.3 876.5L956.7 883L954.5 889.2L951.7 895.2L948.4 901L944.5 906.5L940.1 911.7L935.1 916.7L929.6 921.5L923.6 926L917.1 930.2L910 934.1L902.5 937.8L894.4 941.2L885.9 944.3L876.9 947.1L867.5 949.7L857.6 952L847.2 954L836.4 955.7L825.3 957.1L813.7 958.3L801.7 959.1L789.4 959.7L776.7 960L763.7 960L750.3 959.7L736.6 959.1L722.7 958.2L708.5 957.1L694 955.6L679.3 953.9L664.3 951.9L649.2 949.6L633.9 947.1L618.4 944.2L602.8 941.1L587 937.7L571.2 934L555.2 930.1L539.2 925.8L523.2 921.4L507.1 916.6L491 911.6L474.9 906.3L458.8 900.8L442.8 895.1L426.9 889L411 882.8L395.3 876.3L379.7 869.6L364.2 862.6L348.9 855.4L333.8 848L318.9 840.4L304.2 832.5L289.8 824.5L275.6 816.2L261.7 807.8L248 799.1L234.7 790.3L221.7 781.3L209.1 772.1L196.8 762.8L184.9 753.2L173.4 743.6L162.2 733.7L151.5 723.7L141.2 713.6L131.4 703.4L121.9 693L113 682.5L104.5 671.9L96.6 661.2L89.1 650.3L82.1 639.4L75.6 628.4L69.7 617.4L64.2 606.2L59.4 595L55 583.7L51.2 572.4L47.9 561L45.2 549.6L43.1 538.1L41.5 526.6L40.5 515.2L40 503.7L40.1 492.2L40.8 480.7L42 469.2L43.8 457.7L46.2 446.3L49.1 434.9L52.5 423.5L56.5 412.2L61.1 400.9L66.2 389.7L71.8 378.6L77.9 367.6L84.6 356.6L91.7 345.7L99.4 334.9L107.6 324.2L116.2 313.7L125.3 303.2L134.9 292.9L144.9 282.7L155.3 272.6L166.2 262.7L177.5 252.9L189.2 243.3L201.2 233.8L213.6 224.5L226.4 215.4L239.5 206.5L253 197.7L266.7 189.1L280.7 180.8L295 172.6L309.5 164.6L324.3 156.8L339.3 149.3L354.5 142L369.8 134.9L385.3 128L401 121.3L416.8 114.9L432.6 108.7L448.6 102.8L464.6 97.1L480.7 91.7L496.8 86.5L512.9 81.6L529 77L545 72.6L561 68.5L576.9 64.6L592.8 61.1L608.5 57.8L624.1 54.7L639.5 52L654.7 49.5L669.8 47.3L684.6 45.4L699.3 43.8L713.7 42.5L727.8 41.4L741.6 40.7L755.2 40.2L768.4 40L781.3 40.1L793.9 40.5L806.1 41.2L817.9 42.1L829.4 43.4L840.4 44.9L851 46.7L861.2 48.8L870.9 51.2L880.2 53.9L889.1 56.8L897.4 60L905.3 63.5L912.6 67.3L919.5 71.3L925.9 75.6L931.7 80.2L937 85L941.7 90.1L946 95.5L949.6 101.1L952.8 106.9L955.3 113L957.3 119.4L958.8 125.9L959.7 132.8L960 139.8L959.8 147.1L959 154.5L957.6 162.2L955.7 170.2L953.2 178.3L950.2 186.6L946.6 195.1L942.4 203.8L937.8 212.7L932.5 221.8L926.8 231L920.5 240.4L913.8 250L906.5 259.7L898.7 269.6L890.4 279.6L881.7 289.8L872.4 300.1L862.8 310.5L852.6 321.1L842.1 331.7L831.1 342.5L819.7 353.3L808 364.3L795.8 375.3L783.3 386.4L770.5 397.6L757.3 408.8L743.8 420.1L730 431.5L715.9 442.9L701.5 454.3L687 465.7L672.1 477.2L657.1 488.7L641.9 500.2L626.5 511.7L610.9 523.2L595.2 534.7L579.4 546.1L563.5 557.6L547.5 568.9L531.5 580.3L515.4 591.6L499.3 602.8L483.2 614L467.2 625.1L451.1 636.1L435.1 647.1L419.2 657.9L403.5 668.7L387.8 679.3L372.2 689.9L356.8 700.3L341.6 710.6L326.6 720.7L311.8 730.7L297.2 740.6L282.9 750.3L268.9 759.9L255.1 769.3L241.6 778.5L228.5 787.6L215.6 796.5L203.1 805.2L191 813.7L179.3 822L168 830.1L157 838L146.5 845.7L136.4 853.2L126.8 860.5L117.6 867.5L108.9 874.3L100.7 880.9L92.9 887.2L85.7 893.3L78.9 899.1L72.7 904.7L67 910L61.8 915.1L57.2 920L53.1 924.5L49.6 928.8L46.6 932.8L44.1 936.6L42.3 940.1L41 943.3L40.2 946.2L40 948.9L40.4 951.3L41.3 953.3L42.8 955.1L44.9 956.7L47.5 957.9L50.7 958.9L54.4 959.5L58.6 959.9L63.4 960L68.8 959.8L74.7 959.3L81 958.5L88 957.5L95.4 956.1L103.3 954.5L111.7 952.6L120.5 950.4L129.8 947.9L139.6 945.2L149.9 942.1L160.5 938.8L171.6 935.2L183.1 931.4L194.9 927.2L207.1 922.9L219.7 918.2L232.7 913.3L245.9 908.1L259.5 902.7L273.4 897L287.5 891L301.9 884.9L316.6 878.4L331.5 871.8L346.5 864.9L361.8 857.8L377.2 850.4L392.8 842.9L408.6 835.1L424.4 827.1L440.3 818.9L456.3 810.6L472.4 802L488.4 793.2L504.5 784.3L520.6 775.1L536.7 765.8L552.7 756.4L568.7 746.7L584.6 737L600.3 727L616 717L631.5 706.7L646.8 696.4L662 686L677 675.4L691.7 664.7L706.2 653.9L720.5 643L734.5 632L748.2 621L761.6 609.9L774.7 598.7L787.4 587.4L799.8 576.1L811.8 564.7L823.5 553.3L834.7 541.9L845.5 530.4L856 518.9L865.9 507.4L875.5 495.9L884.5 484.4L893.1 472.9L901.3 461.5L908.9 450L916 438.6L922.6 427.2L928.7 415.9L934.3 404.6L939.3 393.4L943.8 382.3L947.8 371.2L951.2 360.2L954.1 349.3L956.4 338.4L958.1 327.7L959.3 317.1L959.9 306.6L960 296.3L959.4 286L958.4 275.9L956.7 265.9L954.6 256.1L951.8 246.4L948.5 236.9L944.6 227.6L940.3 218.4L935.3 209.4L929.8 200.6L923.9 191.9L917.3 183.5L910.3 175.2L902.8 167.2L894.8 159.4L886.3 151.7L877.3 144.3L867.8 137.2L858 130.2L847.6 123.5L836.9 117L825.7 110.7L814.1 104.7L802.2 99L789.9 93.5L777.2 88.2L764.2 83.2L750.8 78.5L737.2 74L723.2 69.8L709 65.9L694.6 62.2L679.9 58.8L664.9 55.7L649.8 52.9L634.5 50.3L619 48L603.4 46L587.7 44.3L571.8 42.9L555.9 41.7L539.8 40.9L523.8 40.3L507.7 40L491.6 40L475.5 40.3L459.4 40.9L443.4 41.8L427.5 42.9L411.6 44.4L395.9 46.1L380.3 48.1L364.8 50.4L349.5 53L334.4 55.8L319.5 59L304.8 62.4L290.3 66L276.1 70L262.2 74.2L248.6 78.7L235.2 83.4L222.2 88.4L209.6 93.7L197.3 99.2L185.3 105L173.8 111L162.6 117.3L151.9 123.8L141.6 130.5L131.7 137.5L122.3 144.7L113.4 152.1L104.9 159.7L96.9 167.5L89.4 175.6L82.4 183.9L75.9 192.3L69.9 200.9L64.5 209.8L59.5 218.8L55.2 228L51.3 237.3L48.1 246.9L45.3 256.5L43.2 266.4L41.6 276.3L40.5 286.5L40 296.7L40.1 307.1L40.8 317.6L42 328.2L43.7 338.9L46.1 349.7L48.9 360.7L52.4 371.7L56.4 382.7L60.9 393.9L65.9 405.1L71.5 416.4L77.7 427.7L84.3 439.1L91.4 450.5L99.1 462L107.2 473.5L115.9 484.9L124.9 496.4L134.5 507.9L144.5 519.4L154.9 530.9L165.8 542.4L177 553.8L188.7 565.2L200.7 576.6L213.2 587.9L225.9 599.2L239 610.4L252.4 621.5L266.1 632.5L280.1 643.5L294.4 654.4L308.9 665.2L323.7 675.8L338.7 686.4L353.9 696.9L369.2 707.2L384.7 717.4L400.4 727.5L416.1 737.4L432 747.2L448 756.8L464 766.2L480.1 775.5L496.2 784.7L512.3 793.6L528.4 802.4L544.4 810.9L560.4 819.3L576.3 827.5L592.1 835.5L607.9 843.2L623.4 850.8L638.9 858.1L654.1 865.2L669.2 872.1L684.1 878.7L698.7 885.1L713.1 891.3L727.2 897.2L741.1 902.9L754.7 908.3L767.9 913.5L780.8 918.4L793.4 923.1L805.6 927.4L817.5 931.6L828.9 935.4L840 939L850.6 942.3L860.8 945.3L870.6 948L879.9 950.5L888.7 952.7L897.1 954.6L905 956.2L912.4 957.5L919.2 958.6L925.6 959.3L931.5 959.8L936.8 960L941.6 959.9L945.8 959.5L949.5 958.8L952.6 957.9L955.2 956.6L957.3 955.1L958.7 953.3L959.6 951.2L960 948.8L959.8 946.1L959 943.2L957.7 939.9L955.8 936.4L953.3 932.7L950.3 928.6L946.7 924.3L942.6 919.7L937.9 914.9L932.8 909.8L927 904.5L920.8 898.9L914 893L906.8 886.9L899 880.6L890.7 874L882 867.2L872.8 860.1L863.1 852.9L853 845.4L842.5 837.7L831.6 829.8L820.2 821.7L808.4 813.3L796.3 804.8L783.8 796.1L771 787.2L757.8 778.1L744.3 768.9L730.5 759.5L716.5 749.9L702.1 740.2L687.5 730.3L672.7 720.3L657.7 710.1L642.5 699.8L627.1 689.4L611.5 678.9L595.9 668.2L580 657.4L564.1 646.6L548.2 635.6L532.1 624.6L516.1 613.5L500 602.3L483.9 591.1L467.8 579.8L451.7 568.4L435.8 557L419.9 545.6L404.1 534.2L388.4 522.7L372.8 511.2L357.4 499.7L342.2 488.2L327.2 476.7L312.4 465.2L297.8 453.8L283.5 442.3L269.4 431L255.6 419.6L242.1 408.3L229 397.1L216.1 385.9L203.6 374.8L191.5 363.8L179.7 352.8L168.4 342L157.4 331.2L146.9 320.6L136.8 310.1L127.1 299.6L117.9 289.4L109.2 279.2L101 269.2L93.2 259.3L85.9 249.6L79.2 240L72.9 230.6L67.2 221.4L62 212.3L57.4 203.4L53.3 194.7L49.7 186.2L46.7 177.9L44.2 169.8L42.3 161.9L41 154.2L40.2 146.7L40 139.5L40.4 132.5L41.3 125.7L42.7 119.1L44.8 112.8L47.4 106.7L50.5 100.8L54.2 95.2L58.5 89.9L63.2 84.8L68.6 80L74.4 75.4L80.8 71.2L87.7 67.1L95.1 63.4L102.9 59.9L111.3 56.7L120.2 53.8L129.5 51.1L139.2 48.7L149.4 46.6L160.1 44.8L171.1 43.3L182.6 42.1L194.4 41.1L206.7 40.5L219.2 40.1L232.2 40L245.4 40.2L259 40.7L272.8 41.5L287 42.5L301.4 43.9L316 45.5L330.9 47.4L345.9 49.6L361.2 52.1L376.6 54.9L392.2 57.9L407.9 61.2L423.8 64.8L439.7 68.7L455.7 72.8L471.7 77.2L487.8 81.9L503.9 86.8L520 92L536.1 97.4L552.1 103.1L568.1 109L583.9 115.2L599.7 121.6L615.4 128.3L630.9 135.2L646.2 142.3L661.4 149.6L676.4 157.2L691.1 165L705.7 172.9L719.9 181.1L733.9 189.5L747.6 198.1L761.1 206.9L774.2 215.8L786.9 224.9L799.3 234.3L811.4 243.7L823 253.3L834.3 263.1L845.1 273.1L855.6 283.1L865.6 293.3L875.1 303.7L884.2 314.1L892.8 324.7L900.9 335.4L908.6 346.2L915.7 357.1L922.4 368.1L928.5 379.1L934.1 390.2L939.1 401.4L943.7 412.7L947.6 424L951.1 435.4L954 446.8L956.3 458.2L958 469.7L959.2 481.2L959.9 492.7L960 504.2L959.5 515.7" opacity="0.14"/></g></svg>