<svg xmlns="http://www.w3.org/2000/svg" viewBox="0 0 1000 1000" preserveAspectRatio="xMidYMid slice" fill="none" stroke-linecap="round" stroke-linejoin="round"><g stroke="#0f3d2e" stroke-width="0.9"><path d="M898.4 500L902.9 511.5L907.3 523L911.4 534.5L915.5 545.9L919.3 557.4L923 568.7L926.6 580.1L929.9 591.4L933.1 602.6L936.1 613.8L939 624.9L941.6 635.9L944.1 646.9L946.4 657.7L948.5 668.5L950.5 679.1L952.3 689.7L953.9 700.1L955.3 710.4L956.5 720.5L957.5 730.6L958.4 740.4L959.1 750.2L959.6 759.7L959.9 769.1L960 778.4L959.9 787.5L959.7 796.3L959.3 805L958.7 813.6L957.9 821.9L956.9 830L955.7 837.9L954.4 845.6L952.9 853.1L951.2 860.3L949.3 867.4L947.2 874.2L945 880.7L942.5 887.1L939.9 893.2L937.2 899L934.2 904.6L931.1 910L927.8 915L924.3 919.9L920.7 924.4L916.9 928.7L912.9 932.8L908.8 936.5L904.5 940L900 943.2L895.4 946.2L890.6 948.8L885.7 951.2L880.6 953.3L875.3 955.1L870 956.6L864.4 957.9L858.7 958.8L852.9 959.5L846.9 959.9L840.8 960L834.6 959.8L828.2 959.3L821.7 958.6L815 957.5L808.3 956.2L801.4 954.5L794.4 952.6L787.2 950.4L780 948L772.6 945.2L765.2 942.2L757.6 938.9L749.9 935.3L742.2 931.4L734.3 927.3L726.3 922.9L718.3 918.3L710.1 913.4L701.9 908.2L693.6 902.8L685.2 897.1L676.8 891.1L668.2 885L659.6 878.6L651 871.9L642.3 865L633.5 857.9L624.6 850.6L615.8 843L606.8 835.3L597.9 827.3L588.9 819.1L579.8 810.7L570.7 802.1L561.6 793.4L552.5 784.4L543.4 775.3L534.2 766L525 756.5L515.8 746.9L506.6 737.1L497.4 727.2L488.2 717.1L479 706.9L469.8 696.6L460.7 686.1L451.5 675.6L442.4 664.9L433.3 654.1L424.2 643.2L415.1 632.2L406.1 621.2L397.1 610.1L388.2 598.9L379.3 587.6L370.4 576.3L361.6 564.9L352.9 553.5L344.2 542.1L335.5 530.6L327 519.1L318.5 507.6L310.1 496.1L301.7 484.6L293.5 473.1L285.3 461.7L277.2 450.2L269.2 438.8L261.3 427.4L253.5 416.1L245.8 404.8L238.1 393.6L230.6 382.5L223.2 371.4L215.9 360.4L208.8 349.5L201.7 338.6L194.7 327.9L187.9 317.3L181.2 306.8L174.7 296.4L168.2 286.2L161.9 276.1L155.7 266.1L149.7 256.3L143.8 246.6L138.1 237.1L132.5 227.7L127 218.5L121.7 209.5L116.5 200.7L111.5 192.1L106.7 183.6L102 175.4L97.5 167.3L93.1 159.5L88.9 151.9L84.8 144.5L81 137.3L77.2 130.3L73.7 123.6L70.3 117.1L67.1 110.8L64.1 104.8L61.3 99.1L58.6 93.6L56.1 88.3L53.8 83.3L51.6 78.6L49.6 74.1L47.9 69.9L46.3 65.9L44.8 62.3L43.6 58.9L42.5 55.7L41.7 52.9L41 50.3L40.5 48.1L40.1 46.1L40 44.3L40.1 42.9L40.3 41.8L40.7 40.9L41.3 40.3L42.1 40L43 40L44.2 40.3L45.5 40.9L47 41.8L48.7 42.9L50.6 44.3L52.6 46.1L54.9 48.1L57.3 50.4L59.8 52.9L62.6 55.8L65.5 58.9L68.7 62.3L71.9 66L75.4 69.9L79 74.1L82.8 78.6L86.8 83.3L90.9 88.4L95.2 93.6L99.6 99.1L104.2 104.9L109 110.9L113.9 117.2L119 123.7L124.2 130.4L129.6 137.3L135.1 144.5L140.8 151.9L146.6 159.6L152.6 167.4L158.7 175.5L164.9 183.7L171.3 192.1L177.8 200.8L184.4 209.6L191.2 218.6L198.1 227.8L205.1 237.2L212.2 246.7L219.4 256.4L226.8 266.2L234.2 276.2L241.8 286.3L249.5 296.5L257.2 306.9L265.1 317.4L273 328L281.1 338.7L289.2 349.6L297.4 360.5L305.7 371.5L314.1 382.5L322.6 393.7L331.1 404.9L339.7 416.2L348.3 427.5L357.1 438.9L365.8 450.3L374.7 461.8L383.5 473.2L392.5 484.7L401.4 496.2L410.4 507.7L419.5 519.2L428.5 530.7L437.6 542.2L446.8 553.6L455.9 565L465.1 576.4L474.3 587.7L483.4 599L492.6 610.2L501.8 621.3L511 632.3L520.2 643.3L529.4 654.2L538.6 665L547.8 675.7L556.9 686.2L566 696.7L575.1 707L584.2 717.2L593.2 727.3L602.2 737.2L611.1 747L620 756.6L628.9 766.1L637.7 775.4L646.5 784.5L655.1 793.5L663.8 802.2L672.3 810.8L680.8 819.2L689.3 827.3L697.6 835.3L705.9 843.1L714.1 850.6L722.2 858L730.2 865.1L738.1 872L745.9 878.6L753.6 885L761.3 891.2L768.8 897.1L776.2 902.8L783.5 908.2L790.7 913.4L797.7 918.3L804.7 923L811.5 927.4L818.2 931.5L824.8 935.3L831.3 938.9L837.6 942.2L843.8 945.2L849.8 948L855.7 950.5L861.5 952.7L867.1 954.6L872.6 956.2L877.9 957.5L883.1 958.6L888.1 959.3L892.9 959.8L897.6 960L902.2 959.9L906.6 959.5L910.8 958.8L914.8 957.9L918.7 956.6L922.5 955.1L926 953.3L929.4 951.2L932.6 948.8L935.7 946.1L938.5 943.2L941.2 940L943.7 936.5L946.1 932.7L948.2 928.7L950.2 924.4L952 919.8L953.6 915L955.1 909.9L956.3 904.6L957.4 899L958.3 893.1L959 887L959.5 880.7L959.8 874.1L960 867.3L960 860.3L959.7 853L959.3 845.5L958.8 837.8L958 829.9L957.1 821.8L955.9 813.5L954.6 805L953.1 796.3L951.4 787.4L949.6 778.3L947.5 769.1L945.3 759.7L942.9 750.1L940.4 740.3L937.6 730.5L934.7 720.4L931.6 710.3L928.3 700L924.9 689.6L921.3 679L917.5 668.4L913.6 657.6L909.4 646.8L905.2 635.8L900.7 624.8L896.1 613.7L891.4 602.5L886.5 591.3L881.4 580L876.2 568.6L870.8 557.2L865.3 545.8L859.6 534.4L853.8 522.9L847.9 511.4L841.8 499.9L835.6 488.4L829.2 476.9L822.7 465.4L816.1 454L809.3 442.5L802.5 431.2L795.5 419.8L788.4 408.5L781.2 397.3L773.8 386.1L766.4 375L758.8 364L751.2 353L743.4 342.2L735.5 331.4L727.6 320.8L719.6 310.2L711.4 299.8L703.2 289.5L694.9 279.4L686.6 269.4L678.1 259.5L669.6 249.8L661 240.2L652.4 230.8L643.6 221.5L634.9 212.5L626.1 203.6L617.2 194.9L608.3 186.4L599.3 178.1L590.3 169.9L581.3 162L572.2 154.3L563.1 146.9L554 139.6L544.8 132.6L535.7 125.8L526.5 119.2L517.3 112.9L508.1 106.8L498.9 100.9L489.7 95.3L480.5 90L471.3 84.9L462.1 80.1L453 75.5L443.8 71.2L434.7 67.2L425.6 63.4L416.6 59.9L407.5 56.7L398.5 53.8L389.6 51.1L380.7 48.8L371.8 46.7L363 44.9L354.2 43.3L345.5 42.1L336.9 41.1L328.3 40.5L319.8 40.1L311.4 40L303.1 40.2L294.8 40.7L286.6 41.5L278.5 42.5L270.5 43.8L262.5 45.5L254.7 47.4L247 49.6L239.3 52.1L231.8 54.8L224.4 57.8L217.1 61.2L209.9 64.7L202.8 68.6L195.8 72.7L189 77.1L182.3 81.8L175.7 86.7L169.2 91.9L162.9 97.3L156.7 103L150.7 108.9L144.8 115.1L139 121.5L133.4 128.2L127.9 135L122.5 142.2L117.4 149.5L112.3 157L107.4 164.8L102.7 172.8L98.2 181L93.8 189.4L89.5 197.9L85.5 206.7L81.6 215.7L77.8 224.8L74.3 234.1L70.9 243.6L67.6 253.2L64.6 263L61.7 272.9L59 283L56.5 293.2L54.1 303.5L51.9 314L50 324.5L48.1 335.2L46.5 346L45.1 356.9L43.8 367.9L42.7 378.9L41.8 390L41.1 401.2L40.5 412.5L40.2 423.8L40 435.2L40 446.6L40.2 458L40.6 469.5L41.2 481L41.9 492.5L42.9 504L44 515.5L45.3 527L46.8 538.4L48.4 549.9L50.3 561.3L52.3 572.7L54.5 584L56.9 595.3L59.4 606.5L62.2 617.6L65.1 628.7L68.1 639.7L71.4 650.6L74.8 661.5L78.4 672.2L82.2 682.8L86.1 693.3L90.2 703.7L94.5 713.9L98.9 724L103.5 734L108.2 743.8L113.1 753.5L118.2 763L123.4 772.4L128.7 781.5L134.3 790.5L139.9 799.4L145.7 808L151.6 816.4L157.7 824.7L163.9 832.7L170.3 840.6L176.8 848.2L183.4 855.6L190.1 862.8L197 869.7L204 876.5L211.1 883L218.3 889.2L225.6 895.2L233 901L240.6 906.5L248.2 911.7L256 916.7L263.8 921.5L271.8 926L279.8 930.2L287.9 934.1L296.1 937.8L304.4 941.2L312.8 944.3L321.2 947.1L329.7 949.7L338.3 952L347 954L355.7 955.7L364.4 957.1L373.2 958.3L382.1 959.1L391 959.7L400 960L409 960L418 959.7L427.1 959.1L436.2 958.2L445.3 957.1L454.5 955.6L463.6 953.9L472.8 951.9L482 949.6L491.2 947.1L500.4 944.2L509.6 941.1L518.8 937.7L528 934L537.1 930.1L546.3 925.8L555.4 921.4L564.6 916.6L573.7 911.6L582.7 906.3L591.8 900.8L600.8 895.1L609.7 889L618.6 882.8L627.5 876.3L636.3 869.6L645.1 862.6L653.8 855.4L662.4 848L671 840.4L679.5 832.5L687.9 824.5L696.3 816.2L704.6 807.8L712.8 799.1L720.9 790.3L728.9 781.3L736.8 772.1L744.7 762.8L752.4 753.2L760 743.6L767.6 733.7L775 723.7L782.3 713.6L789.5 703.4L796.6 693L803.6 682.5L810.5 671.9L817.2 661.2L823.8 650.3L830.2 639.4L836.6 628.4L842.8 617.4L848.9 606.2L854.8 595L860.6 583.7L866.2 572.4L871.7 561L877 549.6L882.2 538.1L887.3 526.6L892.2 515.2L896.9 503.7L901.5 492.2L905.9 480.7L910.1 469.2L914.2 457.7L918.1 446.3L921.9 434.9L925.5 423.5L928.9 412.2L932.1 400.9L935.2 389.7L938.1 378.6L940.8 367.6L943.3 356.6L945.7 345.7L947.9 334.9L949.9 324.2L951.7 313.7L953.4 303.2L954.8 292.9L956.1 282.7L957.2 272.6L958.1 262.7L958.9 252.9L959.4 243.3L959.8 233.8L960 224.5L960 215.4L959.8 206.5L959.4 197.7L958.9 189.1L958.1 180.8L957.2 172.6L956.1 164.6L954.8 156.8L953.4 149.3L951.7 142L949.9 134.9L947.9 128L945.7 121.3L943.3 114.9L940.8 108.7L938.1 102.8L935.2 97.1L932.1 91.7L928.9 86.5L925.5 81.6L921.9 77L918.1 72.6L914.2 68.5L910.1 64.6L905.9 61.1L901.5 57.8L896.9 54.7L892.2 52L887.3 49.5L882.2 47.3L877 45.4L871.7 43.8L866.2 42.5L860.5 41.4L854.8 40.7L848.8 40.2L842.8 40L836.6 40.1L830.2 40.5L823.8 41.2L817.2 42.1L810.4 43.4L803.6 44.9L796.6 46.7L789.5 48.8L782.3 51.2L775 53.9L767.6 56.8L760 60L752.4 63.5L744.6 67.3L736.8 71.3L728.9 75.6L720.8 80.2L712.7 85L704.5 90.1L696.3 95.5L687.9 101.1L679.5 106.9L671 113L662.4 119.4L653.7 125.9L645 132.8L636.3 139.8L627.5 147.1L618.6 154.5L609.7 162.2L600.7 170.2L591.7 178.3L582.7 186.6L573.6 195.1L564.5 203.8L555.4 212.7L546.3 221.8L537.1 231L527.9 240.4L518.7 250L509.6 259.7L500.4 269.6L491.2 279.6L482 289.8L472.8 300.1L463.6 310.5L454.4 321.1L445.3 331.7L436.2 342.5L427.1 353.3L418 364.3L409 375.3L400 386.4L391 397.6L382.1 408.8L373.2 420.1L364.4 431.5L355.6 442.9L346.9 454.3L338.3 465.7L329.7 477.2L321.2 488.7L312.8 500.2L304.4 511.7L296.1 523.2L287.9 534.7L279.8 546.1L271.7 557.6L263.8 568.9L256 580.3L248.2 591.6L240.6 602.8L233 614L225.6 625.1L218.2 636.1L211 647.1L203.9 657.9L196.9 668.7L190.1 679.3L183.4 689.9L176.7 700.3L170.3 710.6L163.9 720.7L157.7 730.7L151.6 740.6L145.7 750.3L139.9 759.9L134.2 769.3L128.7 778.5L123.4 787.6L118.2 796.5L113.1 805.2L108.2 813.7L103.5 822L98.9 830.1L94.5 838L90.2 845.7L86.1 853.2L82.2 860.5L78.4 867.5L74.8 874.3L71.4 880.9L68.1 887.2L65.1 893.3L62.1 899.1L59.4 904.7L56.9 910L54.5 915.1L52.3 920L50.3 924.5L48.4 928.8L46.8 932.8L45.3 936.6L44 940.1L42.9 943.3L41.9 946.2L41.2 948.9L40.6 951.3L40.2 953.3L40 955.1L40 956.7L40.2 957.9L40.5 958.9L41.1 959.5L41.8 959.9L42.7 960L43.8 959.8L45.1 959.3L46.5 958.5L48.1 957.5L50 956.1L52 954.5L54.1 952.6L56.5 950.4L59 947.9L61.7 945.2L64.6 942.1L67.6 938.8L70.9 935.2L74.3 931.4L77.8 927.2L81.6 922.9L85.5 918.2L89.6 913.3L93.8 908.1L98.2 902.7L102.7 897L107.5 891L112.3 884.9L117.4 878.4L122.6 871.8L127.9 864.9L133.4 857.8L139 850.4L144.8 842.9L150.7 835.1L156.7 827.1L162.9 818.9L169.3 810.6L175.7 802L182.3 793.2L189 784.3L195.9 775.1L202.8 765.8L209.9 756.4L217.1 746.7L224.4 737L231.8 727L239.4 717L247 706.7L254.7 696.4L262.6 686L270.5 675.4L278.5 664.7L286.6 653.9L294.8 643L303.1 632L311.4 621L319.9 609.9L328.4 598.7L336.9 587.4L345.6 576.1L354.3 564.7L363 553.3L371.8 541.9L380.7 530.4L389.6 518.9L398.6 507.4L407.5 495.9L416.6 484.4L425.6 472.9L434.7 461.5L443.9 450L453 438.6L462.2 427.2L471.3 415.9L480.5 404.6L489.7 393.4L498.9 382.3L508.1 371.2L517.3 360.2L526.5 349.3L535.7 338.4L544.8 327.7L554 317.1L563.1 306.6L572.2 296.3L581.3 286L590.3 275.9L599.3 265.9L608.3 256.1L617.2 246.4L626.1 236.9L634.9 227.6L643.7 218.4L652.4 209.4L661 200.6L669.6 191.9L678.1 183.5L686.6 175.2L695 167.2L703.2 159.4L711.5 151.7L719.6 144.3L727.6 137.2L735.6 130.2L743.4 123.5L751.2 117L758.8 110.7L766.4 104.7L773.8 99L781.2 93.5L788.4 88.2L795.5 83.2L802.5 78.5L809.4 74L816.1 69.8L822.7 65.9L829.2 62.2L835.6 58.8L841.8 55.7L847.9 52.9L853.8 50.3L859.7 48L865.3 46L870.8 44.3L876.2 42.9L881.4 41.7L886.5 40.9L891.4 40.3L896.2 40L900.8 40L905.2 40.3L909.5 40.9L913.6 41.8L917.5 42.9L921.3 44.4L924.9 46.1L928.3 48.1L931.6 50.4L934.7 53L937.6 55.8L940.4 59L942.9 62.4L945.3 66L947.6 70L949.6 74.2L951.4 78.7L953.1 83.4L954.6 88.4L955.9 93.7L957.1 99.2L958 105L958.8 111L959.4 117.3L959.7 123.8L960 130.5L960 137.5L959.8 144.7L959.5 152.1L959 159.7L958.3 167.5L957.4 175.6L956.3 183.9L955 192.3L953.6 200.9L952 209.8L950.2 218.8L948.2 228L946.1 237.3L943.7 246.9L941.2 256.5L938.5 266.4L935.6 276.3L932.6 286.5L929.4 296.7L926 307.1L922.5 317.6L918.7 328.2L914.8 338.9L910.8 349.7L906.6 360.7L902.2 371.7L897.6 382.7L892.9 393.9L888.1 405.1L883 416.4L877.9 427.7L872.5 439.1L867.1 450.5L861.5 462L855.7 473.5L849.8 484.9L843.7 496.4L837.6 507.9L831.2 519.4L824.8 530.9L818.2 542.4L811.5 553.8L804.7 565.2L797.7 576.6L790.7 587.9L783.5 599.2L776.2 610.4L768.8 621.5L761.2 632.5L753.6 643.5L745.9 654.4L738.1 665.2L730.1 675.8L722.1 686.4L714 696.9L705.8 707.2L697.6 717.4L689.2 727.5L680.8 737.4L672.3 747.2L663.7 756.8L655.1 766.2L646.4 775.5L637.7 784.7L628.9 793.6L620 802.4L611.1 810.9L602.2 819.3L593.2 827.5L584.1 835.5L575.1 843.2L566 850.8L556.9 858.1L547.7 865.2L538.6 872.1L529.4 878.7L520.2 885.1L511 891.3L501.8 897.2L492.6 902.9L483.4 908.3L474.2 913.5L465.1 918.4L455.9 923.1L446.7 927.4L437.6 931.6L428.5 935.4L419.4 939L410.4 942.3L401.4 945.3L392.4 948L383.5 950.5L374.6 952.7L365.8 954.6L357 956.2L348.3 957.5L339.7 958.6L331.1 959.3L322.5 959.8L314.1 960L305.7 959.9L297.4 959.5L289.2 958.8L281.1 957.9L273 956.6L265.1 955.1L257.2 953.3L249.4 951.2L241.8 948.8L234.2 946.1L226.8 943.2L219.4 939.9L212.2 936.4L205.1 932.7L198.1 928.6L191.2 924.3L184.4 919.7L177.8 914.9L171.3 909.8L164.9 904.5L158.7 898.9L152.6 893L146.6 886.9L140.8 880.6L135.1 874L129.6 867.2L124.2 860.1L119 852.9L113.9 845.4L109 837.7L104.2 829.8L99.6 821.7L95.2 813.3L90.9 804.8L86.7 796.1L82.8 787.2L79 778.1L75.4 768.9L71.9 759.5L68.6 749.9L65.5 740.2L62.6 730.3L59.8 720.3L57.3 710.1L54.8 699.8L52.6 689.4L50.6 678.9L48.7 668.2L47 657.4L45.5 646.6L44.2 635.6L43 624.6L42.1 613.5L41.3 602.3L40.7 591.1L40.3 579.8L40.1 568.4L40 557L40.1 545.6L40.5 534.2L41 522.7L41.7 511.2L42.5 499.7L43.6 488.2L44.8 476.7L46.3 465.2L47.9 453.8L49.7 442.3L51.6 431L53.8 419.6L56.1 408.3L58.6 397.1L61.3 385.9L64.1 374.8L67.1 363.8L70.3 352.8L73.7 342L77.3 331.2L81 320.6L84.8 310.1L88.9 299.6L93.1 289.4L97.5 279.2L102 269.2L106.7 259.3L111.6 249.6L116.6 240L121.7 230.6L127 221.4L132.5 212.3L138.1 203.4L143.8 194.7L149.7 186.2L155.8 177.9L161.9 169.8L168.2 161.9L174.7 154.2L181.3 146.7L187.9 139.5L194.8 132.5L201.7 125.7L208.8 119.1L216 112.8L223.2 106.7L230.7 100.8L238.2 95.2L245.8 89.9L253.5 84.8L261.3 80L269.2 75.4L277.2 71.2L285.3 67.1L293.5 63.4L301.8 59.9L310.1 56.7L318.5 53.8L327 51.1L335.6 48.7L344.2 46.6L352.9 44.8L361.6 43.3L370.4 42.1L379.3 41.1L388.2 40.5L397.1 40.1L406.1 40L415.1 40.2L424.2 40.7L433.3 41.5L442.4 42.5L451.5 43.9L460.7 45.5L469.9 47.4L479.1 49.6L488.3 52.1L497.4 54.9L506.6 57.9L515.8 61.2L525 64.8L534.2 68.7L543.4 72.8L552.5 77.2L561.7 81.9L570.8 86.8L579.8 92L588.9 97.4L597.9 103.1L606.9 109L615.8 115.2L624.7 121.6L633.5 128.3L642.3 135.2L651 142.3L659.7 149.6L668.3 157.2L676.8 165L685.2 172.9L693.6 181.1L701.9 189.5L710.2 198.1L718.3 206.9L726.3 215.8L734.3 224.9L742.2 234.3L750 243.7L757.6 253.3L765.2 263.1L772.7 273.1L780 283.1L787.3 293.3L794.4 303.7L801.4 314.1L808.3 324.7L815.1 335.4L821.7 346.2L828.2 357.1L834.6 368.1L840.8 379.1L846.9 390.2L852.9 401.4L858.7 412.7L864.4 424L870 435.4L875.4 446.8L880.6 458.2L885.7 469.7L890.6 481.2L895.4 492.7L900 504.2L904.5 515.7" opacity="0.14"/></g></svg>