<svg xmlns="http://www.w3.org/2000/svg" viewBox="0 0 1000 1000" preserveAspectRatio="xMidYMid slice" fill="none" stroke-linecap="round" stroke-linejoin="round"><g stroke="#0f3d2e" stroke-width="0.7"><path d="M975 500L975 499.1L974.9 498.2L974.9 497.3L974.8 496.4L974.6 495.5L974.5 494.6L974.3 493.7L974.1 492.8L973.8 491.9L973.6 490.9L973.3 490L972.9 489.1L972.6 488.2L972.2 487.3L971.8 486.4L971.3 485.5L970.9 484.6L970.4 483.7L969.8 482.8L969.3 481.9L968.7 480.9L968.1 480L967.4 479.1L966.8 478.2L966.1 477.3L965.4 476.4L964.6 475.5L963.8 474.5L963 473.6L962.2 472.7L961.3 471.8L960.4 470.9L959.5 469.9L958.6 469L957.6 468.1L956.6 467.2L955.5 466.2L954.5 465.3L953.4 464.4L952.3 463.4L951.2 462.5L950 461.6L948.8 460.6L947.6 459.7L946.3 458.8L945.1 457.8L943.8 456.9L942.4 455.9L941.1 455L939.7 454.1L938.3 453.1L936.9 452.2L935.4 451.2L933.9 450.3L932.4 449.3L930.9 448.3L929.3 447.4L927.8 446.4L926.1 445.5L924.5 444.5L922.9 443.5L921.2 442.6L919.5 441.6L917.7 440.6L916 439.7L914.2 438.7L912.4 437.7L910.5 436.7L908.7 435.8L906.8 434.8L904.9 433.8L903 432.8L901 431.8L899 430.8L897.1 429.8L895 428.9L893 427.9L890.9 426.9L888.8 425.9L886.7 424.9L884.6 423.9L882.4 422.9L880.2 421.8L878 420.8L875.8 419.8L873.6 418.8L871.3 417.8L869 416.8L866.7 415.8L864.4 414.7L862 413.7L859.7 412.7L857.3 411.7L854.9 410.6L852.4 409.6L850 408.6L847.5 407.5L845 406.5L842.5 405.4L840 404.4L837.4 403.4L834.8 402.3L832.3 401.3L829.7 400.2L827 399.1L824.4 398.1L821.7 397L819 396L816.3 394.9L813.6 393.8L810.9 392.8L808.1 391.7L805.4 390.6L802.6 389.6L799.8 388.5L797 387.4L794.2 386.3L791.3 385.3L788.4 384.2L785.6 383.1L782.7 382L779.8 380.9L776.8 379.8L773.9 378.8L770.9 377.7L768 376.6L765 375.5L762 374.4L759 373.3L755.9 372.2L752.9 371.1L749.9 370L746.8 368.9L743.7 367.8L740.6 366.6L737.5 365.5L734.4 364.4L731.3 363.3L728.1 362.2L725 361.1L721.8 360L718.7 358.9L715.5 357.7L712.3 356.6L709.1 355.5L705.9 354.4L702.6 353.2L699.4 352.1L696.2 351L692.9 349.9L689.7 348.7L686.4 347.6L683.1 346.5L679.8 345.4L676.5 344.2L673.2 343.1L669.9 342L666.6 340.8L663.3 339.7L659.9 338.6L656.6 337.4L653.2 336.3L649.9 335.2L646.5 334L643.2 332.9L639.8 331.8L636.4 330.6L633 329.5L629.6 328.4L626.2 327.2L622.9 326.1L619.5 325L616 323.8L612.6 322.7L609.2 321.6L605.8 320.5L602.4 319.3L599 318.2L595.5 317.1L592.1 315.9L588.7 314.8L585.2 313.7L581.8 312.6L578.4 311.4L574.9 310.3L571.5 309.2L568.1 308.1L564.6 306.9L561.2 305.8L557.7 304.7L554.3 303.6L550.8 302.5L547.4 301.4L544 300.3L540.5 299.2L537.1 298L533.6 296.9L530.2 295.8L526.8 294.7L523.3 293.6L519.9 292.5L516.5 291.5L513 290.4L509.6 289.3L506.2 288.2L502.8 287.1L499.4 286L496 284.9L492.6 283.9L489.2 282.8L485.8 281.7L482.4 280.7L479 279.6L475.6 278.5L472.2 277.5L468.8 276.4L465.5 275.4L462.1 274.4L458.7 273.3L455.4 272.3L452.1 271.2L448.7 270.2L445.4 269.2L442.1 268.2L438.7 267.2L435.4 266.1L432.1 265.1L428.8 264.1L425.6 263.1L422.3 262.2L419 261.2L415.8 260.2L412.5 259.2L409.3 258.2L406 257.3L402.8 256.3L399.6 255.4L396.4 254.4L393.2 253.5L390 252.5L386.8 251.6L383.7 250.7L380.5 249.8L377.4 248.8L374.3 247.9L371.1 247L368 246.1L364.9 245.2L361.9 244.4L358.8 243.5L355.7 242.6L352.7 241.8L349.7 240.9L346.6 240.1L343.6 239.2L340.6 238.4L337.7 237.6L334.7 236.8L331.7 235.9L328.8 235.1L325.9 234.4L323 233.6L320.1 232.8L317.2 232L314.3 231.3L311.5 230.5L308.6 229.8L305.8 229L303 228.3L300.2 227.6L297.4 226.9L294.7 226.2L291.9 225.5L289.2 224.8L286.5 224.1L283.8 223.5L281.1 222.8L278.5 222.2L275.8 221.5L273.2 220.9L270.6 220.3L268 219.7L265.4 219.1L262.9 218.5L260.3 217.9L257.8 217.4L255.3 216.8L252.8 216.3L250.3 215.8L247.9 215.2L245.5 214.7L243.1 214.2L240.7 213.7L238.3 213.3L235.9 212.8L233.6 212.3L231.3 211.9L229 211.5L226.7 211L224.5 210.6L222.2 210.2L220 209.9L217.8 209.5L215.6 209.1L213.5 208.8L211.3 208.4L209.2 208.1L207.1 207.8L205 207.5L203 207.2L200.9 206.9L198.9 206.7L196.9 206.4L195 206.2L193 206L191.1 205.8L189.2 205.6L187.3 205.4L185.4 205.2L183.6 205.1L181.7 204.9L179.9 204.8L178.2 204.7L176.4 204.6L174.7 204.5L173 204.4L171.3 204.4L169.6 204.3L167.9 204.3L166.3 204.3L164.7 204.3L163.1 204.3L161.6 204.3L160 204.4L158.5 204.4L157 204.5L155.6 204.6L154.1 204.7L152.7 204.8L151.3 204.9L149.9 205.1L148.6 205.2L147.2 205.4L145.9 205.6L144.6 205.8L143.4 206L142.1 206.3L140.9 206.5L139.7 206.8L138.5 207.1L137.4 207.4L136.3 207.7L135.2 208L134.1 208.4L133 208.7L132 209.1L131 209.5L130 209.9L129 210.3L128.1 210.8L127.2 211.2L126.3 211.7L125.4 212.2L124.6 212.7L123.8 213.2L123 213.8L122.2 214.3L121.4 214.9L120.7 215.5L120 216.1L119.3 216.7L118.7 217.4L118 218L117.4 218.7L116.8 219.4L116.3 220.1L115.7 220.8L115.2 221.5L114.7 222.3L114.2 223.1L113.8 223.9L113.3 224.7L112.9 225.5L112.6 226.3L112.2 227.2L111.9 228.1L111.6 229L111.3 229.9L111 230.8L110.8 231.8L110.5 232.7L110.3 233.7L110.2 234.7L110 235.7L109.9 236.7L109.8 237.8L109.7 238.8L109.6 239.9L109.6 241L109.6 242.1L109.6 243.3L109.6 244.4L109.6 245.6L109.7 246.8L109.8 248L109.9 249.2L110 250.4L110.2 251.7L110.4 253L110.6 254.2L110.8 255.6L111.1 256.9L111.3 258.2L111.6 259.6L111.9 260.9L112.2 262.3L112.6 263.7L113 265.2L113.4 266.6L113.8 268.1L114.2 269.5L114.7 271L115.2 272.5L115.6 274.1L116.2 275.6L116.7 277.2L117.3 278.7L117.8 280.3L118.4 281.9L119.1 283.6L119.7 285.2L120.4 286.9L121 288.5L121.7 290.2L122.5 291.9L123.2 293.6L124 295.4L124.7 297.1L125.5 298.9L126.3 300.7L127.2 302.5L128 304.3L128.9 306.2L129.8 308L130.7 309.9L131.6 311.8L132.6 313.7L133.5 315.6L134.5 317.5L135.5 319.5L136.5 321.4L137.6 323.4L138.6 325.4L139.7 327.4L140.8 329.4L141.9 331.4L143 333.5L144.1 335.6L145.3 337.6L146.4 339.7L147.6 341.9L148.8 344L150.1 346.1L151.3 348.3L152.5 350.4L153.8 352.6L155.1 354.8L156.4 357L157.7 359.3L159 361.5L160.4 363.7L161.8 366L163.1 368.3L164.5 370.6L165.9 372.9L167.3 375.2L168.8 377.5L170.2 379.9L171.7 382.2L173.2 384.6L174.7 387L176.2 389.4L177.7 391.8L179.2 394.2L180.8 396.7L182.3 399.1L183.9 401.6L185.5 404L187.1 406.5L188.7 409L190.3 411.5L191.9 414L193.6 416.5L195.2 419.1L196.9 421.6L198.6 424.2L200.3 426.7L202 429.3L203.7 431.9L205.4 434.5L207.2 437.1L208.9 439.7L210.7 442.4L212.4 445L214.2 447.7L216 450.3L217.8 453L219.6 455.7L221.4 458.4L223.3 461.1L225.1 463.8L227 466.5L228.8 469.2L230.7 471.9L232.6 474.7L234.4 477.4L236.3 480.2L238.2 482.9L240.2 485.7L242.1 488.5L244 491.2L245.9 494L247.9 496.8L249.8 499.6L251.8 502.4L253.7 505.3L255.7 508.1L257.7 510.9L259.7 513.7L261.7 516.6L263.6 519.4L265.7 522.3L267.7 525.1L269.7 528L271.7 530.9L273.7 533.7L275.8 536.6L277.8 539.5L279.8 542.4L281.9 545.3L283.9 548.2L286 551.1L288.1 554L290.1 556.9L292.2 559.8L294.3 562.7L296.3 565.6L298.4 568.5L300.5 571.4L302.6 574.3L304.7 577.2L306.8 580.2L308.9 583.1L311 586L313.1 588.9L315.2 591.9L317.3 594.8L319.4 597.7L321.5 600.7L323.7 603.6L325.8 606.5L327.9 609.4L330 612.4L332.1 615.3L334.3 618.2L336.4 621.2L338.5 624.1L340.7 627L342.8 629.9L344.9 632.9L347.1 635.8L349.2 638.7L351.3 641.6L353.4 644.5L355.6 647.4L357.7 650.4L359.8 653.3L362 656.2L364.1 659.1L366.2 662L368.4 664.9L370.5 667.7L372.6 670.6L374.8 673.5L376.9 676.4L379 679.3L381.1 682.1L383.2 685L385.4 687.8L387.5 690.7L389.6 693.5L391.7 696.4L393.8 699.2L395.9 702L398 704.9L400.1 707.7L402.3 710.5L404.3 713.3L406.4 716.1L408.5 718.9L410.6 721.6L412.7 724.4L414.8 727.2L416.9 729.9L418.9 732.7L421 735.4L423.1 738.1L425.2 740.8L427.2 743.6L429.3 746.3L431.3 748.9L433.4 751.6L435.4 754.3L437.4 757L439.5 759.6L441.5 762.2L443.5 764.9L445.6 767.5L447.6 770.1L449.6 772.7L451.6 775.3L453.6 777.9L455.6 780.4L457.6 783L459.5 785.5L461.5 788L463.5 790.5L465.4 793L467.4 795.5L469.4 798L471.3 800.5L473.2 802.9L475.2 805.3L477.1 807.7L479 810.2L480.9 812.5L482.8 814.9L484.7 817.3L486.6 819.6L488.5 822L490.4 824.3L492.3 826.6L494.1 828.9L496 831.1L497.8 833.4L499.7 835.6L501.5 837.8L503.4 840L505.2 842.2L507 844.4L508.8 846.6L510.6 848.7L512.4 850.8L514.2 852.9L515.9 855L517.7 857.1L519.5 859.1L521.2 861.1L523 863.2L524.7 865.1L526.4 867.1L528.1 869.1L529.8 871L531.5 872.9L533.2 874.8L534.9 876.7L536.6 878.6L538.3 880.4L539.9 882.2L541.6 884L543.2 885.8L544.8 887.6L546.5 889.3L548.1 891L549.7 892.7L551.3 894.4L552.9 896.1L554.4 897.7L556 899.3L557.6 900.9L559.1 902.5L560.7 904L562.2 905.6L563.7 907.1L565.2 908.6L566.7 910L568.2 911.5L569.7 912.9L571.2 914.3L572.7 915.6L574.1 917L575.6 918.3L577 919.6L578.4 920.9L579.8 922.2L581.3 923.4L582.7 924.6L584.1 925.8L585.4 927L586.8 928.1L588.2 929.2L589.5 930.3L590.9 931.4L592.2 932.4L593.5 933.4L594.8 934.4L596.1 935.4L597.4 936.3L598.7 937.2L600 938.1L601.3 939L602.5 939.9L603.8 940.7L605 941.5L606.2 942.2L607.5 943L608.7 943.7L609.9 944.4L611.1 945.1L612.2 945.7L613.4 946.3L614.6 946.9L615.7 947.5L616.9 948L618 948.5L619.1 949L620.2 949.5L621.4 949.9L622.4 950.3L623.5 950.7L624.6 951L625.7 951.4L626.7 951.7L627.8 951.9L628.8 952.2L629.8 952.4L630.9 952.6L631.9 952.8L632.9 952.9L633.9 953L634.9 953.1L635.8 953.2L636.8 953.2L637.7 953.2L638.7 953.2L639.6 953.1L640.6 953L641.5 952.9L642.4 952.8L643.3 952.6L644.2 952.5L645.1 952.3L645.9 952L646.8 951.7L647.7 951.5L648.5 951.1L649.3 950.8L650.2 950.4L651 950L651.8 949.6L652.6 949.1L653.4 948.6L654.2 948.1L655 947.6L655.7 947L656.5 946.4L657.2 945.8L658 945.2L658.7 944.5L659.5 943.8L660.2 943L660.9 942.3L661.6 941.5L662.3 940.7L663 939.9L663.6 939L664.3 938.1L665 937.2L665.6 936.2L666.3 935.3L666.9 934.3L667.6 933.2L668.2 932.2L668.8 931.1L669.4 930L670 928.9L670.6 927.7L671.2 926.5L671.8 925.3L672.3 924.1L672.9 922.8L673.5 921.5L674 920.2L674.5 918.8L675.1 917.5L675.6 916.1L676.1 914.6L676.6 913.2L677.2 911.7L677.7 910.2L678.1 908.7L678.6 907.1L679.1 905.6L679.6 904L680.1 902.3L680.5 900.7L681 899L681.4 897.3L681.9 895.6L682.3 893.8L682.7 892L683.1 890.2L683.6 888.4L684 886.6L684.4 884.7L684.8 882.8L685.2 880.9L685.5 878.9L685.9 876.9L686.3 874.9L686.7 872.9L687 870.9L687.4 868.8L687.7 866.7L688.1 864.6L688.4 862.5L688.8 860.3L689.1 858.1L689.4 855.9L689.7 853.7L690.1 851.4L690.4 849.1L690.7 846.8L691 844.5L691.3 842.2L691.6 839.8L691.8 837.4L692.1 835L692.4 832.6L692.7 830.2L692.9 827.7L693.2 825.2L693.4 822.7L693.7 820.2L693.9 817.6L694.2 815L694.4 812.4L694.7 809.8L694.9 807.2L695.1 804.5L695.3 801.9L695.6 799.2L695.8 796.5L696 793.7L696.2 791L696.4 788.2L696.6 785.4L696.8 782.6L697 779.8L697.2 777L697.3 774.1L697.5 771.2L697.7 768.3L697.9 765.4L698 762.5L698.2 759.6L698.4 756.6L698.5 753.6L698.7 750.6L698.8 747.6L699 744.6L699.1 741.5L699.3 738.5L699.4 735.4L699.6 732.3L699.7 729.2L699.8 726.1L700 723L700.1 719.8L700.2 716.6L700.3 713.5L700.4 710.3L700.6 707.1L700.7 703.9L700.8 700.6L700.9 697.4L701 694.1L701.1 690.9L701.2 687.6L701.3 684.3L701.4 681L701.5 677.7L701.6 674.3L701.6 671L701.7 667.6L701.8 664.3L701.9 660.9L702 657.5L702 654.1L702.1 650.7L702.2 647.3L702.3 643.9L702.3 640.5L702.4 637L702.5 633.6L702.5 630.1L702.6 626.6L702.6 623.2L702.7 619.7L702.7 616.2L702.8 612.7L702.8 609.2L702.9 605.7L702.9 602.2L703 598.6L703 595.1L703.1 591.6L703.1 588L703.1 584.5L703.2 580.9L703.2 577.3L703.3 573.8L703.3 570.2L703.3 566.6L703.3 563L703.4 559.5L703.4 555.9L703.4 552.3L703.4 548.7L703.5 545.1L703.5 541.5L703.5 537.9L703.5 534.3L703.5 530.7L703.5 527L703.5 523.4L703.5 519.8L703.6 516.2L703.6 512.6L703.6 509L703.6 505.3L703.6 501.7L703.6 498.1L703.6 494.5L703.6 490.9L703.6 487.3L703.6 483.6L703.5 480L703.5 476.4L703.5 472.8L703.5 469.2L703.5 465.6L703.5 462L703.5 458.4L703.5 454.8L703.4 451.2L703.4 447.6L703.4 444L703.4 440.4L703.3 436.8L703.3 433.2L703.3 429.6L703.2 426.1L703.2 422.5L703.2 418.9L703.1 415.4L703.1 411.8L703.1 408.3L703 404.7L703 401.2L702.9 397.7L702.9 394.2L702.8 390.7L702.8 387.1L702.7 383.6L702.7 380.2L702.6 376.7L702.6 373.2L702.5 369.7L702.5 366.3L702.4 362.8L702.3 359.4L702.3 356L702.2 352.5L702.1 349.1L702 345.7L702 342.3L701.9 338.9L701.8 335.6L701.7 332.2L701.6 328.9L701.6 325.5L701.5 322.2L701.4 318.9L701.3 315.6L701.2 312.3L701.1 309L701 305.7L700.9 302.5L700.8 299.2L700.7 296L700.5 292.8L700.4 289.6L700.3 286.4L700.2 283.2L700.1 280L699.9 276.9L699.8 273.8L699.7 270.6L699.6 267.5L699.4 264.5L699.3 261.4L699.1 258.3L699 255.3L698.8 252.3L698.7 249.2L698.5 246.3L698.4 243.3L698.2 240.3L698 237.4L697.9 234.4L697.7 231.5L697.5 228.6L697.3 225.8L697.2 222.9L697 220.1L696.8 217.2L696.6 214.4L696.4 211.7L696.2 208.9L696 206.1L695.8 203.4L695.6 200.7L695.3 198L695.1 195.3L694.9 192.7L694.7 190.1L694.4 187.4L694.2 184.9L693.9 182.3L693.7 179.7L693.4 177.2L693.2 174.7L692.9 172.2L692.7 169.7L692.4 167.3L692.1 164.9L691.8 162.5L691.5 160.1L691.3 157.7L691 155.4L690.7 153L690.4 150.8L690 148.5L689.7 146.2L689.4 144L689.1 141.8L688.8 139.6L688.4 137.5L688.1 135.3L687.7 133.2L687.4 131.1L687 129L686.7 127L686.3 125L685.9 123L685.5 121L685.1 119.1L684.8 117.1L684.4 115.2L683.9 113.4L683.5 111.5L683.1 109.7L682.7 107.9L682.3 106.1L681.8 104.4L681.4 102.6L680.9 100.9L680.5 99.2L680 97.6L679.6 96L679.1 94.4L678.6 92.8L678.1 91.2L677.6 89.7L677.1 88.2L676.6 86.7L676.1 85.3L675.6 83.9L675.1 82.5L674.5 81.1L674 79.8L673.4 78.4L672.9 77.2L672.3 75.9L671.7 74.6L671.2 73.4L670.6 72.2L670 71.1L669.4 70L668.8 68.9L668.2 67.8L667.5 66.7L666.9 65.7L666.3 64.7L665.6 63.7L665 62.8L664.3 61.9L663.6 61L662.9 60.1L662.3 59.3L661.6 58.5L660.9 57.7L660.1 56.9L659.4 56.2L658.7 55.5L658 54.8L657.2 54.2L656.5 53.6L655.7 53L654.9 52.4L654.2 51.9L653.4 51.3L652.6 50.9L651.8 50.4L651 50L650.1 49.6L649.3 49.2L648.5 48.9L647.6 48.5L646.8 48.2L645.9 48L645 47.7L644.1 47.5L643.2 47.3L642.3 47.2L641.4 47.1L640.5 47L639.6 46.9L638.7 46.8L637.7 46.8L636.7 46.8L635.8 46.9L634.8 46.9L633.8 47L632.8 47.1L631.8 47.3L630.8 47.4L629.8 47.6L628.8 47.8L627.7 48.1L626.7 48.4L625.6 48.7L624.6 49L623.5 49.3L622.4 49.7L621.3 50.1L620.2 50.6L619.1 51L618 51.5L616.8 52L615.7 52.6L614.5 53.1L613.4 53.7L612.2 54.3L611 55L609.8 55.6L608.6 56.3L607.4 57.1L606.2 57.8L605 58.6L603.7 59.4L602.5 60.2L601.2 61L600 61.9L598.7 62.8L597.4 63.7L596.1 64.7L594.8 65.6L593.5 66.6L592.1 67.6L590.8 68.7L589.5 69.7L588.1 70.8L586.7 72L585.4 73.1L584 74.3L582.6 75.4L581.2 76.7L579.8 77.9L578.4 79.1L576.9 80.4L575.5 81.7L574 83.1L572.6 84.4L571.1 85.8L569.6 87.2L568.2 88.6L566.7 90L565.2 91.5L563.6 93L562.1 94.5L560.6 96L559 97.6L557.5 99.2L555.9 100.7L554.4 102.4L552.8 104L551.2 105.7L549.6 107.3L548 109L546.4 110.8L544.8 112.5L543.1 114.3L541.5 116L539.8 117.8L538.2 119.7L536.5 121.5L534.8 123.4L533.2 125.3L531.5 127.2L529.8 129.1L528.1 131L526.3 133L524.6 134.9L522.9 136.9L521.1 139L519.4 141L517.6 143L515.9 145.1L514.1 147.2L512.3 149.3L510.5 151.4L508.7 153.5L506.9 155.7L505.1 157.9L503.3 160.1L501.4 162.3L499.6 164.5L497.8 166.7L495.9 169L494.1 171.2L492.2 173.5L490.3 175.8L488.4 178.1L486.5 180.5L484.7 182.8L482.8 185.2L480.8 187.6L478.9 190L477 192.4L475.1 194.8L473.2 197.2L471.2 199.7L469.3 202.1L467.3 204.6L465.4 207.1L463.4 209.6L461.4 212.1L459.5 214.6L457.5 217.1L455.5 219.7L453.5 222.3L451.5 224.8L449.5 227.4L447.5 230L445.5 232.6L443.4 235.2L441.4 237.9L439.4 240.5L437.4 243.2L435.3 245.8L433.3 248.5L431.2 251.2L429.2 253.9L427.1 256.6L425.1 259.3L423 262L420.9 264.7L418.9 267.5L416.8 270.2L414.7 273L412.6 275.7L410.5 278.5L408.4 281.3L406.4 284.1L404.3 286.9L402.2 289.7L400.1 292.5L398 295.3L395.8 298.1L393.7 300.9L391.6 303.8L389.5 306.6L387.4 309.4L385.3 312.3L383.2 315.1L381 318L378.9 320.9L376.8 323.7L374.7 326.6L372.5 329.5L370.4 332.4L368.3 335.3L366.1 338.2L364 341.1L361.9 344L359.7 346.9L357.6 349.8L355.5 352.7L353.4 355.6L351.2 358.5L349.1 361.4L347 364.3L344.8 367.3L342.7 370.2L340.6 373.1L338.4 376L336.3 379L334.2 381.9L332.1 384.8L329.9 387.8L327.8 390.7L325.7 393.6L323.6 396.5L321.4 399.5L319.3 402.4L317.2 405.3L315.1 408.3L313 411.2L310.9 414.1L308.8 417L306.7 420L304.6 422.9L302.5 425.8L300.4 428.7L298.3 431.6L296.2 434.6L294.2 437.5L292.1 440.4L290 443.3L288 446.2L285.9 449.1L283.8 452L281.8 454.9L279.7 457.8L277.7 460.6L275.7 463.5L273.6 466.4L271.6 469.3L269.6 472.1L267.6 475L265.6 477.8L263.6 480.7L261.6 483.5L259.6 486.4L257.6 489.2L255.6 492L253.6 494.9L251.7 497.7L249.7 500.5L247.8 503.3L245.8 506.1L243.9 508.9L242 511.7L240.1 514.4L238.2 517.2L236.3 520L234.4 522.7L232.5 525.5L230.6 528.2L228.7 530.9L226.9 533.6L225 536.4L223.2 539.1L221.4 541.8L219.5 544.4L217.7 547.1L215.9 549.8L214.1 552.4L212.4 555.1L210.6 557.7L208.8 560.4L207.1 563L205.4 565.6L203.6 568.2L201.9 570.8L200.2 573.4L198.5 575.9L196.8 578.5L195.2 581L193.5 583.6L191.9 586.1L190.2 588.6L188.6 591.1L187 593.6L185.4 596.1L183.8 598.6L182.2 601L180.7 603.5L179.1 605.9L177.6 608.3L176.1 610.7L174.6 613.1L173.1 615.5L171.6 617.9L170.2 620.2L168.7 622.6L167.3 624.9L165.9 627.2L164.5 629.5L163.1 631.8L161.7 634.1L160.3 636.4L159 638.6L157.7 640.8L156.3 643.1L155 645.3L153.8 647.5L152.5 649.7L151.2 651.8L150 654L148.8 656.1L147.6 658.2L146.4 660.3L145.2 662.4L144.1 664.5L142.9 666.6L141.8 668.6L140.7 670.7L139.6 672.7L138.6 674.7L137.5 676.7L136.5 678.7L135.5 680.6L134.5 682.6L133.5 684.5L132.5 686.4L131.6 688.3L130.6 690.2L129.7 692.1L128.9 693.9L128 695.8L127.1 697.6L126.3 699.4L125.5 701.2L124.7 702.9L123.9 704.7L123.2 706.4L122.4 708.2L121.7 709.9L121 711.5L120.3 713.2L119.7 714.9L119 716.5L118.4 718.1L117.8 719.7L117.2 721.3L116.7 722.9L116.1 724.5L115.6 726L115.1 727.5L114.7 729L114.2 730.5L113.8 732L113.3 733.5L113 734.9L112.6 736.3L112.2 737.7L111.9 739.1L111.6 740.5L111.3 741.8L111 743.2L110.8 744.5L110.6 745.8L110.4 747.1L110.2 748.4L110 749.6L109.9 750.9L109.8 752.1L109.7 753.3L109.6 754.5L109.6 755.6L109.6 756.8L109.6 757.9L109.6 759L109.6 760.1L109.7 761.2L109.8 762.3L109.9 763.3L110 764.3L110.2 765.4L110.3 766.3L110.5 767.3L110.8 768.3L111 769.2L111.3 770.2L111.6 771.1L111.9 772L112.2 772.8L112.6 773.7L113 774.5L113.4 775.4L113.8 776.2L114.2 777L114.7 777.7L115.2 778.5L115.7 779.2L116.3 779.9L116.8 780.7L117.4 781.3L118.1 782L118.7 782.7L119.3 783.3L120 783.9L120.7 784.5L121.5 785.1L122.2 785.7L123 786.3L123.8 786.8L124.6 787.3L125.5 787.8L126.3 788.3L127.2 788.8L128.2 789.3L129.1 789.7L130.1 790.1L131 790.5L132.1 790.9L133.1 791.3L134.1 791.7L135.2 792L136.3 792.3L137.4 792.7L138.6 793L139.8 793.2L141 793.5L142.2 793.8L143.4 794L144.7 794.2L146 794.4L147.3 794.6L148.6 794.8L150 794.9L151.4 795.1L152.8 795.2L154.2 795.3L155.6 795.4L157.1 795.5L158.6 795.6L160.1 795.6L161.6 795.7L163.2 795.7L164.8 795.7L166.4 795.7L168 795.7L169.7 795.7L171.3 795.6L173 795.6L174.7 795.5L176.5 795.4L178.2 795.3L180 795.2L181.8 795.1L183.6 794.9L185.5 794.8L187.4 794.6L189.2 794.4L191.2 794.2L193.1 794L195 793.8L197 793.5L199 793.3L201 793L203.1 792.8L205.1 792.5L207.2 792.2L209.3 791.9L211.4 791.5L213.6 791.2L215.7 790.9L217.9 790.5L220.1 790.1L222.3 789.7L224.6 789.3L226.8 788.9L229.1 788.5L231.4 788.1L233.7 787.6L236 787.2L238.4 786.7L240.8 786.2L243.2 785.7L245.6 785.3L248 784.7L250.5 784.2L252.9 783.7L255.4 783.1L257.9 782.6L260.4 782L263 781.5L265.5 780.9L268.1 780.3L270.7 779.7L273.3 779.1L275.9 778.4L278.6 777.8L281.3 777.2L283.9 776.5L286.6 775.8L289.3 775.2L292.1 774.5L294.8 773.8L297.6 773.1L300.3 772.4L303.1 771.7L305.9 770.9L308.8 770.2L311.6 769.5L314.5 768.7L317.3 767.9L320.2 767.2L323.1 766.4L326 765.6L328.9 764.8L331.9 764L334.8 763.2L337.8 762.4L340.8 761.6L343.8 760.7L346.8 759.9L349.8 759L352.8 758.2L355.9 757.3L358.9 756.5L362 755.6L365.1 754.7L368.2 753.8L371.3 752.9L374.4 752L377.5 751.1L380.7 750.2L383.8 749.3L387 748.4L390.2 747.4L393.3 746.5L396.5 745.5L399.7 744.6L403 743.6L406.2 742.7L409.4 741.7L412.7 740.7L415.9 739.8L419.2 738.8L422.4 737.8L425.7 736.8L429 735.8L432.3 734.8L435.6 733.8L438.9 732.8L442.2 731.8L445.5 730.8L448.9 729.7L452.2 728.7L455.5 727.7L458.9 726.6L462.3 725.6L465.6 724.6L469 723.5L472.4 722.5L475.7 721.4L479.1 720.3L482.5 719.3L485.9 718.2L489.3 717.2L492.7 716.1L496.1 715L499.5 713.9L502.9 712.8L506.4 711.8L509.8 710.7L513.2 709.6L516.6 708.5L520.1 707.4L523.5 706.3L526.9 705.2L530.4 704.1L533.8 703L537.2 701.9L540.7 700.8L544.1 699.7L547.6 698.6L551 697.5L554.4 696.4L557.9 695.2L561.3 694.1L564.8 693L568.2 691.9L571.6 690.8L575.1 689.6L578.5 688.5L582 687.4L585.4 686.3L588.8 685.1L592.3 684L595.7 682.9L599.1 681.8L602.5 680.6L606 679.5L609.4 678.4L612.8 677.2L616.2 676.1L619.6 675L623 673.8L626.4 672.7L629.8 671.6L633.2 670.4L636.6 669.3L639.9 668.2L643.3 667L646.7 665.9L650 664.8L653.4 663.6L656.7 662.5L660.1 661.4L663.4 660.2L666.7 659.1L670.1 658L673.4 656.8L676.7 655.7L680 654.6L683.3 653.5L686.5 652.3L689.8 651.2L693.1 650.1L696.3 648.9L699.6 647.8L702.8 646.7L706 645.6L709.2 644.5L712.4 643.3L715.6 642.2L718.8 641.1L722 640L725.1 638.9L728.3 637.7L731.4 636.6L734.5 635.5L737.7 634.4L740.8 633.3L743.9 632.2L746.9 631.1L750 630L753 628.9L756.1 627.8L759.1 626.7L762.1 625.6L765.1 624.5L768.1 623.4L771.1 622.3L774 621.2L777 620.1L779.9 619L782.8 617.9L785.7 616.8L788.6 615.8L791.4 614.7L794.3 613.6L797.1 612.5L799.9 611.5L802.7 610.4L805.5 609.3L808.3 608.2L811 607.2L813.8 606.1L816.5 605L819.2 604L821.8 602.9L824.5 601.9L827.1 600.8L829.8 599.8L832.4 598.7L835 597.7L837.5 596.6L840.1 595.6L842.6 594.5L845.1 593.5L847.6 592.4L850.1 591.4L852.5 590.4L855 589.3L857.4 588.3L859.8 587.3L862.1 586.2L864.5 585.2L866.8 584.2L869.1 583.2L871.4 582.2L873.7 581.1L875.9 580.1L878.1 579.1L880.3 578.1L882.5 577.1L884.7 576.1L886.8 575.1L888.9 574.1L891 573.1L893.1 572.1L895.1 571.1L897.1 570.1L899.1 569.1L901.1 568.1L903.1 567.1L905 566.2L906.9 565.2L908.8 564.2L910.6 563.2L912.5 562.2L914.3 561.3L916 560.3L917.8 559.3L919.5 558.3L921.2 557.4L922.9 556.4L924.6 555.5L926.2 554.5L927.8 553.5L929.4 552.6L931 551.6L932.5 550.7L934 549.7L935.5 548.8L936.9 547.8L938.4 546.9L939.8 545.9L941.1 545L942.5 544L943.8 543.1L945.1 542.1L946.4 541.2L947.6 540.3L948.9 539.3L950 538.4L951.2 537.4L952.3 536.5L953.5 535.6L954.5 534.7L955.6 533.7L956.6 532.8L957.6 531.9L958.6 530.9L959.5 530L960.5 529.1L961.4 528.2L962.2 527.3L963 526.3L963.9 525.4L964.6 524.5L965.4 523.6L966.1 522.7L966.8 521.8L967.5 520.8L968.1 519.9L968.7 519L969.3 518.1L969.9 517.2L970.4 516.3L970.9 515.4L971.4 514.5L971.8 513.6L972.2 512.6L972.6 511.7L973 510.8L973.3 509.9L973.6 509L973.9 508.1L974.1 507.2L974.3 506.3L974.5 505.4L974.6 504.5L974.8 503.6L974.9 502.7L974.9 501.8L975 500.9L975 500" opacity="0.12"/></g></svg>