<svg xmlns="http://www.w3.org/2000/svg" viewBox="0 0 1000 1000" preserveAspectRatio="xMidYMid slice" fill="none" stroke-linecap="round" stroke-linejoin="round"><g stroke="#0f3d2e" stroke-width="0.7"><path d="M975 500L975 499.2L974.9 498.4L974.7 497.6L974.5 496.8L974.2 496L973.8 495.3L973.4 494.5L972.9 493.7L972.3 492.9L971.7 492.1L971 491.4L970.3 490.6L969.4 489.8L968.6 489.1L967.6 488.3L966.6 487.6L965.5 486.8L964.4 486.1L963.1 485.3L961.9 484.6L960.5 483.9L959.1 483.2L957.7 482.4L956.1 481.7L954.5 481L952.9 480.4L951.2 479.7L949.4 479L947.5 478.4L945.6 477.7L943.7 477.1L941.7 476.4L939.6 475.8L937.4 475.2L935.2 474.6L932.9 474L930.6 473.4L928.2 472.8L925.8 472.3L923.3 471.7L920.7 471.2L918.1 470.7L915.4 470.2L912.7 469.7L909.9 469.2L907 468.7L904.1 468.3L901.2 467.8L898.1 467.4L895.1 467L892 466.6L888.8 466.2L885.5 465.9L882.3 465.5L878.9 465.2L875.5 464.8L872.1 464.5L868.6 464.3L865.1 464L861.5 463.7L857.8 463.5L854.2 463.3L850.4 463.1L846.6 462.9L842.8 462.7L838.9 462.6L835 462.4L831.1 462.3L827.1 462.2L823 462.1L818.9 462.1L814.8 462L810.6 462L806.4 462L802.1 462L797.8 462.1L793.5 462.1L789.1 462.2L784.6 462.3L780.2 462.4L775.7 462.6L771.2 462.7L766.6 462.9L762 463.1L757.4 463.3L752.7 463.5L748 463.8L743.3 464.1L738.5 464.4L733.7 464.7L728.9 465L724 465.4L719.1 465.8L714.2 466.2L709.3 466.6L704.3 467L699.3 467.5L694.3 468L689.3 468.5L684.2 469L679.1 469.6L674 470.1L668.9 470.7L663.7 471.3L658.5 472L653.4 472.6L648.1 473.3L642.9 474L637.7 474.7L632.4 475.4L627.1 476.2L621.9 477L616.6 477.8L611.2 478.6L605.9 479.4L600.6 480.3L595.2 481.2L589.9 482.1L584.5 483L579.1 484L573.7 484.9L568.4 485.9L563 486.9L557.6 487.9L552.2 489L546.7 490L541.3 491.1L535.9 492.2L530.5 493.3L525.1 494.5L519.7 495.6L514.3 496.8L508.9 498L503.5 499.2L498.1 500.4L492.7 501.7L487.3 503L481.9 504.2L476.5 505.5L471.1 506.9L465.8 508.2L460.4 509.6L455.1 510.9L449.7 512.3L444.4 513.7L439.1 515.1L433.8 516.6L428.5 518L423.2 519.5L418 520.9L412.7 522.4L407.5 523.9L402.3 525.5L397.1 527L391.9 528.6L386.8 530.1L381.7 531.7L376.5 533.3L371.5 534.9L366.4 536.5L361.4 538.1L356.3 539.8L351.3 541.4L346.4 543.1L341.4 544.7L336.5 546.4L331.6 548.1L326.8 549.8L321.9 551.5L317.1 553.2L312.4 555L307.6 556.7L302.9 558.5L298.3 560.2L293.6 562L289 563.7L284.4 565.5L279.9 567.3L275.4 569.1L270.9 570.9L266.5 572.7L262.1 574.5L257.7 576.3L253.4 578.1L249.1 579.9L244.9 581.7L240.7 583.5L236.5 585.4L232.4 587.2L228.3 589L224.3 590.9L220.3 592.7L216.3 594.5L212.4 596.4L208.6 598.2L204.8 600L201 601.9L197.3 603.7L193.6 605.5L190 607.4L186.4 609.2L182.8 611L179.3 612.8L175.9 614.6L172.5 616.5L169.2 618.3L165.9 620.1L162.6 621.9L159.5 623.7L156.3 625.5L153.2 627.2L150.2 629L147.2 630.8L144.3 632.5L141.4 634.3L138.6 636L135.8 637.8L133.1 639.5L130.5 641.2L127.9 642.9L125.3 644.6L122.8 646.3L120.4 648L118 649.6L115.7 651.3L113.4 652.9L111.2 654.5L109.1 656.1L107 657.7L104.9 659.3L102.9 660.9L101 662.4L99.2 664L97.4 665.5L95.6 667L93.9 668.5L92.3 670L90.7 671.4L89.2 672.9L87.8 674.3L86.4 675.7L85.1 677.1L83.8 678.4L82.6 679.8L81.4 681.1L80.3 682.4L79.3 683.7L78.3 684.9L77.4 686.2L76.6 687.4L75.8 688.6L75.1 689.8L74.4 690.9L73.8 692L73.2 693.1L72.8 694.2L72.3 695.3L72 696.3L71.7 697.3L71.4 698.3L71.2 699.2L71.1 700.2L71.1 701.1L71.1 701.9L71.1 702.8L71.2 703.6L71.4 704.4L71.6 705.2L71.9 705.9L72.3 706.6L72.7 707.3L73.2 707.9L73.7 708.5L74.3 709.1L75 709.7L75.7 710.2L76.5 710.7L77.3 711.2L78.2 711.6L79.1 712L80.1 712.4L81.2 712.8L82.3 713.1L83.4 713.3L84.7 713.6L86 713.8L87.3 714L88.7 714.1L90.1 714.2L91.6 714.3L93.2 714.4L94.8 714.4L96.5 714.4L98.2 714.3L100 714.2L101.8 714.1L103.7 713.9L105.6 713.7L107.6 713.5L109.6 713.3L111.7 713L113.9 712.6L116 712.3L118.3 711.8L120.6 711.4L122.9 710.9L125.3 710.4L127.7 709.9L130.2 709.3L132.7 708.7L135.3 708L137.9 707.3L140.6 706.6L143.3 705.8L146.1 705L148.9 704.2L151.7 703.3L154.6 702.4L157.5 701.4L160.5 700.4L163.5 699.4L166.6 698.3L169.7 697.2L172.8 696.1L176 694.9L179.2 693.7L182.5 692.5L185.8 691.2L189.1 689.9L192.5 688.5L195.9 687.2L199.3 685.7L202.8 684.3L206.3 682.8L209.9 681.2L213.4 679.7L217.1 678L220.7 676.4L224.4 674.7L228.1 673L231.8 671.3L235.6 669.5L239.4 667.7L243.2 665.8L247.1 663.9L251 662L254.9 660L258.8 658L262.8 656L266.7 653.9L270.7 651.8L274.8 649.7L278.8 647.6L282.9 645.4L287 643.1L291.1 640.9L295.3 638.6L299.4 636.2L303.6 633.9L307.8 631.5L312 629.1L316.2 626.6L320.5 624.1L324.8 621.6L329 619.1L333.3 616.5L337.6 613.9L342 611.2L346.3 608.6L350.6 605.9L355 603.2L359.3 600.4L363.7 597.6L368.1 594.8L372.5 592L376.9 589.1L381.3 586.3L385.7 583.3L390.1 580.4L394.5 577.4L399 574.4L403.4 571.4L407.8 568.4L412.3 565.3L416.7 562.2L421.1 559.1L425.6 556L430 552.8L434.4 549.7L438.9 546.5L443.3 543.3L447.7 540L452.1 536.8L456.6 533.5L461 530.2L465.4 526.9L469.8 523.5L474.2 520.2L478.6 516.8L482.9 513.4L487.3 510L491.7 506.6L496 503.2L500.4 499.7L504.7 496.3L509 492.8L513.3 489.3L517.6 485.8L521.9 482.3L526.1 478.7L530.4 475.2L534.6 471.7L538.8 468.1L543 464.5L547.2 460.9L551.3 457.4L555.5 453.8L559.6 450.2L563.7 446.5L567.8 442.9L571.8 439.3L575.9 435.7L579.9 432L583.9 428.4L587.8 424.8L591.8 421.1L595.7 417.5L599.6 413.8L603.5 410.2L607.3 406.5L611.1 402.9L614.9 399.2L618.7 395.6L622.4 391.9L626.1 388.3L629.8 384.6L633.4 381L637.1 377.3L640.6 373.7L644.2 370.1L647.7 366.5L651.2 362.8L654.7 359.2L658.1 355.6L661.5 352L664.9 348.4L668.2 344.9L671.5 341.3L674.8 337.7L678 334.2L681.2 330.7L684.3 327.1L687.4 323.6L690.5 320.1L693.6 316.6L696.6 313.2L699.5 309.7L702.5 306.3L705.3 302.9L708.2 299.5L711 296.1L713.8 292.7L716.5 289.3L719.2 286L721.9 282.7L724.5 279.4L727.1 276.1L729.6 272.9L732.1 269.6L734.5 266.4L736.9 263.3L739.3 260.1L741.6 257L743.9 253.8L746.1 250.8L748.3 247.7L750.5 244.7L752.6 241.7L754.6 238.7L756.7 235.7L758.6 232.8L760.6 229.9L762.5 227L764.3 224.2L766.1 221.4L767.8 218.6L769.6 215.9L771.2 213.2L772.8 210.5L774.4 207.9L775.9 205.3L777.4 202.7L778.8 200.2L780.2 197.7L781.6 195.2L782.9 192.8L784.1 190.4L785.3 188L786.5 185.7L787.6 183.4L788.7 181.2L789.7 178.9L790.7 176.8L791.6 174.7L792.5 172.6L793.3 170.5L794.1 168.5L794.9 166.6L795.6 164.6L796.3 162.8L796.9 160.9L797.4 159.1L797.9 157.4L798.4 155.7L798.9 154L799.2 152.4L799.6 150.9L799.9 149.3L800.1 147.9L800.3 146.4L800.5 145L800.6 143.7L800.7 142.4L800.7 141.2L800.7 140L800.6 138.8L800.5 137.7L800.4 136.7L800.2 135.7L799.9 134.7L799.6 133.8L799.3 133L799 132.2L798.5 131.4L798.1 130.7L797.6 130.1L797.1 129.5L796.5 128.9L795.9 128.4L795.2 128L794.5 127.6L793.8 127.2L793 126.9L792.2 126.7L791.3 126.5L790.4 126.4L789.5 126.3L788.5 126.3L787.5 126.3L786.5 126.4L785.4 126.5L784.2 126.7L783.1 127L781.9 127.3L780.6 127.6L779.4 128L778 128.5L776.7 129L775.3 129.5L773.9 130.2L772.5 130.8L771 131.6L769.5 132.3L767.9 133.2L766.3 134.1L764.7 135L763.1 136L761.4 137.1L759.7 138.2L757.9 139.3L756.1 140.5L754.3 141.8L752.5 143.1L750.7 144.5L748.8 145.9L746.8 147.4L744.9 149L742.9 150.5L740.9 152.2L738.9 153.9L736.8 155.6L734.8 157.4L732.7 159.3L730.5 161.2L728.4 163.2L726.2 165.2L724 167.2L721.8 169.3L719.5 171.5L717.3 173.7L715 176L712.7 178.3L710.3 180.7L708 183.1L705.6 185.6L703.2 188.1L700.8 190.7L698.4 193.3L695.9 195.9L693.5 198.7L691 201.4L688.5 204.2L686 207.1L683.5 210L680.9 213L678.4 216L675.8 219L673.2 222.1L670.6 225.3L668 228.4L665.4 231.7L662.8 234.9L660.2 238.3L657.5 241.6L654.8 245L652.2 248.5L649.5 252L646.8 255.5L644.1 259.1L641.4 262.7L638.7 266.4L636 270.1L633.3 273.8L630.6 277.6L627.8 281.4L625.1 285.2L622.4 289.1L619.6 293.1L616.9 297L614.1 301L611.4 305.1L608.6 309.1L605.9 313.2L603.1 317.4L600.4 321.6L597.6 325.8L594.9 330L592.1 334.3L589.4 338.6L586.7 342.9L583.9 347.3L581.2 351.7L578.5 356.1L575.7 360.5L573 365L570.3 369.5L567.6 374.1L564.9 378.6L562.2 383.2L559.5 387.8L556.8 392.4L554.1 397.1L551.5 401.8L548.8 406.5L546.1 411.2L543.5 415.9L540.9 420.7L538.3 425.5L535.6 430.3L533 435.1L530.5 439.9L527.9 444.8L525.3 449.6L522.8 454.5L520.2 459.4L517.7 464.3L515.2 469.2L512.7 474.2L510.2 479.1L507.8 484.1L505.3 489L502.9 494L500.5 499L498.1 504L495.7 509L493.3 514L491 519L488.7 524.1L486.3 529.1L484 534.1L481.8 539.1L479.5 544.2L477.3 549.2L475.1 554.2L472.9 559.3L470.7 564.3L468.5 569.4L466.4 574.4L464.3 579.4L462.2 584.4L460.1 589.5L458.1 594.5L456.1 599.5L454.1 604.5L452.1 609.5L450.1 614.5L448.2 619.5L446.3 624.4L444.4 629.4L442.5 634.3L440.7 639.3L438.9 644.2L437.1 649.1L435.3 654L433.6 658.9L431.9 663.8L430.2 668.6L428.5 673.5L426.9 678.3L425.3 683.1L423.7 687.9L422.1 692.6L420.6 697.4L419.1 702.1L417.6 706.8L416.2 711.4L414.7 716.1L413.3 720.7L412 725.3L410.6 729.9L409.3 734.4L408 739L406.7 743.5L405.5 747.9L404.3 752.4L403.1 756.8L402 761.2L400.8 765.5L399.7 769.8L398.7 774.1L397.6 778.4L396.6 782.6L395.6 786.8L394.6 790.9L393.7 795L392.8 799.1L391.9 803.1L391.1 807.1L390.3 811.1L389.5 815L388.7 818.9L388 822.7L387.3 826.5L386.6 830.3L385.9 834L385.3 837.7L384.7 841.3L384.1 844.9L383.6 848.5L383 852L382.6 855.4L382.1 858.8L381.7 862.2L381.2 865.5L380.9 868.8L380.5 872L380.2 875.2L379.9 878.3L379.6 881.4L379.3 884.4L379.1 887.4L378.9 890.3L378.7 893.2L378.6 896L378.5 898.8L378.4 901.5L378.3 904.2L378.3 906.8L378.2 909.3L378.2 911.8L378.3 914.3L378.3 916.7L378.4 919L378.5 921.3L378.6 923.5L378.8 925.7L378.9 927.8L379.1 929.8L379.3 931.8L379.6 933.8L379.8 935.6L380.1 937.5L380.4 939.2L380.8 940.9L381.1 942.5L381.5 944.1L381.9 945.6L382.3 947.1L382.7 948.5L383.2 949.8L383.6 951.1L384.1 952.3L384.6 953.5L385.2 954.5L385.7 955.6L386.3 956.5L386.9 957.4L387.5 958.3L388.1 959L388.7 959.7L389.4 960.4L390.1 961L390.7 961.5L391.5 961.9L392.2 962.3L392.9 962.7L393.7 962.9L394.4 963.1L395.2 963.3L396 963.3L396.8 963.3L397.6 963.3L398.5 963.1L399.3 963L400.2 962.7L401.1 962.4L401.9 962L402.8 961.6L403.8 961L404.7 960.5L405.6 959.8L406.6 959.1L407.5 958.3L408.5 957.5L409.4 956.6L410.4 955.7L411.4 954.6L412.4 953.5L413.4 952.4L414.4 951.2L415.4 949.9L416.5 948.5L417.5 947.1L418.5 945.7L419.6 944.1L420.6 942.5L421.7 940.9L422.7 939.2L423.8 937.4L424.9 935.5L426 933.6L427 931.6L428.1 929.6L429.2 927.5L430.3 925.4L431.4 923.2L432.5 920.9L433.5 918.6L434.6 916.2L435.7 913.7L436.8 911.2L437.9 908.6L439 906L440.1 903.3L441.2 900.6L442.3 897.8L443.4 894.9L444.4 892L445.5 889.1L446.6 886L447.7 883L448.7 879.8L449.8 876.7L450.9 873.4L451.9 870.1L453 866.8L454 863.4L455.1 859.9L456.1 856.4L457.2 852.9L458.2 849.3L459.2 845.6L460.2 841.9L461.2 838.2L462.2 834.4L463.2 830.5L464.2 826.6L465.2 822.7L466.2 818.7L467.1 814.7L468.1 810.6L469 806.5L469.9 802.3L470.9 798.1L471.8 793.8L472.7 789.5L473.6 785.2L474.4 780.8L475.3 776.4L476.2 771.9L477 767.4L477.8 762.9L478.6 758.3L479.5 753.7L480.2 749.1L481 744.4L481.8 739.7L482.6 734.9L483.3 730.1L484 725.3L484.7 720.5L485.4 715.6L486.1 710.7L486.8 705.7L487.4 700.7L488.1 695.7L488.7 690.7L489.3 685.6L489.9 680.6L490.5 675.4L491.1 670.3L491.6 665.1L492.1 660L492.6 654.8L493.1 649.5L493.6 644.3L494.1 639L494.5 633.7L495 628.4L495.4 623.1L495.8 617.7L496.2 612.3L496.5 607L496.9 601.6L497.2 596.1L497.5 590.7L497.8 585.3L498.1 579.8L498.3 574.4L498.6 568.9L498.8 563.4L499 557.9L499.2 552.4L499.3 546.9L499.5 541.4L499.6 535.9L499.7 530.3L499.8 524.8L499.9 519.3L499.9 513.7L500 508.2L500 502.6L500 497.1L500 491.6L499.9 486L499.9 480.5L499.8 475L499.7 469.4L499.6 463.9L499.5 458.4L499.3 452.9L499.2 447.3L499 441.8L498.8 436.4L498.6 430.9L498.3 425.4L498.1 419.9L497.8 414.5L497.5 409L497.2 403.6L496.9 398.2L496.5 392.8L496.1 387.4L495.8 382.1L495.4 376.7L495 371.4L494.5 366.1L494.1 360.8L493.6 355.5L493.1 350.2L492.6 345L492.1 339.8L491.6 334.6L491 329.5L490.5 324.3L489.9 319.2L489.3 314.1L488.7 309.1L488.1 304L487.4 299L486.8 294.1L486.1 289.1L485.4 284.2L484.7 279.3L484 274.5L483.3 269.7L482.5 264.9L481.8 260.1L481 255.4L480.2 250.7L479.4 246.1L478.6 241.5L477.8 236.9L477 232.4L476.1 227.9L475.3 223.4L474.4 219L473.5 214.6L472.6 210.3L471.7 206L470.8 201.7L469.9 197.5L469 193.4L468 189.2L467.1 185.2L466.1 181.1L465.1 177.1L464.2 173.2L463.2 169.3L462.2 165.5L461.2 161.7L460.2 157.9L459.2 154.2L458.1 150.6L457.1 147L456.1 143.4L455 139.9L454 136.5L452.9 133.1L451.9 129.7L450.8 126.4L449.8 123.2L448.7 120L447.6 116.9L446.5 113.8L445.5 110.8L444.4 107.8L443.3 104.9L442.2 102.1L441.1 99.3L440 96.5L438.9 93.9L437.9 91.2L436.8 88.7L435.7 86.2L434.6 83.7L433.5 81.3L432.4 79L431.3 76.7L430.2 74.5L429.1 72.4L428.1 70.3L427 68.3L425.9 66.3L424.8 64.4L423.8 62.6L422.7 60.8L421.6 59.1L420.6 57.4L419.5 55.8L418.5 54.3L417.5 52.8L416.4 51.4L415.4 50.1L414.4 48.8L413.4 47.6L412.4 46.4L411.4 45.3L410.4 44.3L409.4 43.3L408.4 42.4L407.5 41.6L406.5 40.8L405.6 40.1L404.6 39.5L403.7 38.9L402.8 38.4L401.9 38L401 37.6L400.1 37.3L399.3 37L398.4 36.9L397.6 36.7L396.8 36.7L396 36.7L395.2 36.8L394.4 36.9L393.6 37.1L392.9 37.4L392.1 37.7L391.4 38.1L390.7 38.5L390 39.1L389.4 39.6L388.7 40.3L388.1 41L387.4 41.8L386.8 42.6L386.3 43.5L385.7 44.5L385.1 45.5L384.6 46.6L384.1 47.7L383.6 49L383.1 50.2L382.7 51.6L382.3 53L381.8 54.4L381.5 55.9L381.1 57.5L380.7 59.2L380.4 60.9L380.1 62.6L379.8 64.4L379.6 66.3L379.3 68.3L379.1 70.3L378.9 72.3L378.8 74.4L378.6 76.6L378.5 78.8L378.4 81.1L378.3 83.4L378.3 85.8L378.2 88.3L378.2 90.8L378.3 93.3L378.3 95.9L378.4 98.6L378.5 101.3L378.6 104.1L378.7 106.9L378.9 109.8L379.1 112.7L379.4 115.7L379.6 118.7L379.9 121.8L380.2 124.9L380.5 128.1L380.9 131.3L381.3 134.6L381.7 137.9L382.1 141.3L382.6 144.7L383.1 148.2L383.6 151.7L384.1 155.2L384.7 158.8L385.3 162.5L385.9 166.1L386.6 169.9L387.3 173.6L388 177.4L388.7 181.3L389.5 185.2L390.3 189.1L391.1 193.1L392 197.1L392.9 201.1L393.8 205.2L394.7 209.3L395.7 213.4L396.6 217.6L397.7 221.8L398.7 226.1L399.8 230.4L400.9 234.7L402 239L403.2 243.4L404.3 247.8L405.6 252.3L406.8 256.7L408.1 261.2L409.4 265.8L410.7 270.3L412 274.9L413.4 279.5L414.8 284.1L416.2 288.8L417.7 293.4L419.2 298.1L420.7 302.9L422.2 307.6L423.8 312.4L425.4 317.1L427 321.9L428.6 326.8L430.3 331.6L432 336.4L433.7 341.3L435.4 346.2L437.2 351.1L439 356L440.8 360.9L442.6 365.9L444.5 370.8L446.4 375.8L448.3 380.8L450.2 385.7L452.2 390.7L454.2 395.7L456.2 400.7L458.2 405.7L460.2 410.8L462.3 415.8L464.4 420.8L466.5 425.8L468.6 430.9L470.8 435.9L473 440.9L475.2 446L477.4 451L479.6 456.1L481.9 461.1L484.2 466.1L486.4 471.1L488.8 476.2L491.1 481.2L493.4 486.2L495.8 491.2L498.2 496.2L500.6 501.2L503 506.2L505.4 511.2L507.9 516.1L510.3 521.1L512.8 526L515.3 531L517.8 535.9L520.4 540.8L522.9 545.7L525.4 550.6L528 555.5L530.6 560.3L533.2 565.1L535.8 570L538.4 574.8L541 579.5L543.6 584.3L546.3 589L548.9 593.8L551.6 598.4L554.2 603.1L556.9 607.8L559.6 612.4L562.3 617L565 621.6L567.7 626.2L570.4 630.7L573.1 635.2L575.9 639.7L578.6 644.1L581.3 648.5L584 652.9L586.8 657.3L589.5 661.6L592.3 665.9L595 670.2L597.8 674.4L600.5 678.6L603.3 682.8L606 686.9L608.8 691L611.5 695.1L614.3 699.2L617 703.2L619.7 707.1L622.5 711L625.2 714.9L628 718.8L630.7 722.6L633.4 726.4L636.1 730.1L638.8 733.8L641.5 737.5L644.2 741.1L646.9 744.6L649.6 748.2L652.3 751.7L655 755.1L657.6 758.5L660.3 761.9L662.9 765.2L665.5 768.5L668.2 771.7L670.8 774.9L673.4 778L675.9 781.1L678.5 784.2L681.1 787.2L683.6 790.1L686.1 793L688.6 795.9L691.1 798.7L693.6 801.5L696.1 804.2L698.5 806.8L700.9 809.5L703.3 812L705.7 814.5L708.1 817L710.4 819.4L712.8 821.8L715.1 824.1L717.4 826.4L719.6 828.6L721.9 830.8L724.1 832.9L726.3 834.9L728.5 836.9L730.6 838.9L732.8 840.8L734.9 842.6L736.9 844.4L739 846.2L741 847.9L743 849.5L745 851.1L746.9 852.6L748.8 854.1L750.7 855.6L752.6 856.9L754.4 858.2L756.2 859.5L758 860.7L759.7 861.9L761.4 863L763.1 864L764.8 865L766.4 866L768 866.9L769.5 867.7L771 868.5L772.5 869.2L774 869.9L775.4 870.5L776.8 871L778.1 871.5L779.4 872L780.7 872.4L781.9 872.8L783.1 873L784.3 873.3L785.4 873.5L786.5 873.6L787.5 873.7L788.6 873.7L789.5 873.7L790.5 873.6L791.4 873.5L792.2 873.3L793 873L793.8 872.7L794.6 872.4L795.3 872L795.9 871.6L796.5 871.1L797.1 870.5L797.6 869.9L798.1 869.3L798.6 868.6L799 867.8L799.3 867L799.7 866.1L799.9 865.2L800.2 864.3L800.4 863.3L800.5 862.2L800.6 861.1L800.7 860L800.7 858.8L800.7 857.5L800.6 856.2L800.5 854.9L800.3 853.5L800.1 852.1L799.9 850.6L799.6 849.1L799.2 847.5L798.8 845.9L798.4 844.2L797.9 842.5L797.4 840.8L796.8 839L796.2 837.2L795.6 835.3L794.9 833.4L794.1 831.4L793.3 829.4L792.5 827.3L791.6 825.3L790.6 823.1L789.7 821L788.6 818.8L787.6 816.5L786.5 814.2L785.3 811.9L784.1 809.5L782.8 807.1L781.5 804.7L780.2 802.2L778.8 799.7L777.3 797.2L775.9 794.6L774.3 792L772.8 789.4L771.1 786.7L769.5 784L767.8 781.2L766 778.5L764.2 775.7L762.4 772.8L760.5 770L758.6 767.1L756.6 764.1L754.6 761.2L752.5 758.2L750.4 755.2L748.2 752.2L746 749.1L743.8 746L741.5 742.9L739.2 739.8L736.8 736.6L734.4 733.4L732 730.2L729.5 727L726.9 723.7L724.4 720.5L721.8 717.2L719.1 713.8L716.4 710.5L713.7 707.2L710.9 703.8L708.1 700.4L705.2 697L702.3 693.6L699.4 690.1L696.4 686.7L693.4 683.2L690.4 679.7L687.3 676.2L684.2 672.7L681 669.2L677.8 665.6L674.6 662.1L671.3 658.5L668.1 655L664.7 651.4L661.4 647.8L658 644.2L654.5 640.6L651.1 637L647.6 633.4L644 629.8L640.5 626.1L636.9 622.5L633.3 618.9L629.6 615.2L626 611.6L622.2 607.9L618.5 604.3L614.7 600.6L611 597L607.1 593.3L603.3 589.7L599.4 586L595.5 582.4L591.6 578.7L587.7 575.1L583.7 571.4L579.7 567.8L575.7 564.2L571.6 560.5L567.6 556.9L563.5 553.3L559.4 549.7L555.3 546.1L551.1 542.5L547 538.9L542.8 535.3L538.6 531.8L534.4 528.2L530.2 524.6L525.9 521.1L521.7 517.6L517.4 514.1L513.1 510.6L508.8 507.1L504.5 503.6L500.2 500.1L495.8 496.7L491.5 493.2L487.1 489.8L482.7 486.4L478.4 483L474 479.7L469.6 476.3L465.2 473L460.8 469.7L456.4 466.4L451.9 463.1L447.5 459.8L443.1 456.6L438.7 453.4L434.2 450.2L429.8 447L425.4 443.9L420.9 440.7L416.5 437.6L412.1 434.5L407.6 431.5L403.2 428.4L398.8 425.4L394.3 422.4L389.9 419.5L385.5 416.5L381.1 413.6L376.7 410.7L372.3 407.9L367.9 405L363.5 402.2L359.1 399.5L354.8 396.7L350.4 394L346.1 391.3L341.8 388.6L337.4 386L333.1 383.4L328.8 380.8L324.6 378.3L320.3 375.8L316.1 373.3L311.8 370.8L307.6 368.4L303.4 366L299.2 363.7L295.1 361.3L290.9 359L286.8 356.8L282.7 354.5L278.7 352.4L274.6 350.2L270.6 348.1L266.6 346L262.6 343.9L258.6 341.9L254.7 339.9L250.8 337.9L246.9 336L243 334.1L239.2 332.3L235.4 330.4L231.7 328.7L227.9 326.9L224.2 325.2L220.5 323.5L216.9 321.9L213.3 320.3L209.7 318.7L206.2 317.2L202.7 315.7L199.2 314.2L195.7 312.8L192.3 311.4L189 310L185.6 308.7L182.3 307.5L179.1 306.2L175.9 305L172.7 303.8L169.6 302.7L166.5 301.6L163.4 300.5L160.4 299.5L157.4 298.5L154.5 297.6L151.6 296.7L148.7 295.8L145.9 295L143.2 294.2L140.5 293.4L137.8 292.7L135.2 292L132.6 291.3L130.1 290.7L127.6 290.1L125.2 289.6L122.8 289L120.5 288.6L118.2 288.1L116 287.7L113.8 287.4L111.6 287L109.5 286.7L107.5 286.5L105.5 286.2L103.6 286L101.7 285.9L99.9 285.8L98.1 285.7L96.4 285.6L94.7 285.6L93.1 285.6L91.6 285.7L90.1 285.8L88.6 285.9L87.2 286L85.9 286.2L84.6 286.4L83.4 286.7L82.2 286.9L81.1 287.3L80.1 287.6L79.1 288L78.1 288.4L77.2 288.8L76.4 289.3L75.6 289.8L74.9 290.3L74.3 290.9L73.7 291.5L73.2 292.1L72.7 292.8L72.3 293.4L71.9 294.1L71.6 294.9L71.4 295.6L71.2 296.4L71.1 297.3L71.1 298.1L71.1 299L71.1 299.9L71.3 300.8L71.4 301.8L71.7 302.7L72 303.7L72.4 304.8L72.8 305.8L73.3 306.9L73.8 308L74.4 309.1L75.1 310.3L75.8 311.5L76.6 312.7L77.5 313.9L78.4 315.1L79.4 316.4L80.4 317.7L81.5 319L82.6 320.3L83.8 321.6L85.1 323L86.4 324.4L87.8 325.8L89.3 327.2L90.8 328.6L92.4 330.1L94 331.6L95.7 333.1L97.4 334.6L99.2 336.1L101.1 337.6L103 339.2L105 340.7L107.1 342.3L109.2 343.9L111.3 345.5L113.5 347.2L115.8 348.8L118.1 350.4L120.5 352.1L122.9 353.8L125.4 355.5L128 357.2L130.6 358.9L133.2 360.6L136 362.3L138.7 364L141.5 365.8L144.4 367.5L147.4 369.3L150.3 371.1L153.4 372.8L156.5 374.6L159.6 376.4L162.8 378.2L166 380L169.3 381.8L172.7 383.6L176.1 385.4L179.5 387.3L183 389.1L186.5 390.9L190.1 392.7L193.7 394.6L197.4 396.4L201.2 398.2L204.9 400.1L208.7 401.9L212.6 403.7L216.5 405.6L220.5 407.4L224.5 409.2L228.5 411.1L232.6 412.9L236.7 414.7L240.9 416.5L245.1 418.4L249.3 420.2L253.6 422L257.9 423.8L262.3 425.6L266.7 427.4L271.1 429.2L275.6 431L280.1 432.8L284.6 434.6L289.2 436.3L293.8 438.1L298.5 439.9L303.1 441.6L307.8 443.4L312.6 445.1L317.4 446.8L322.2 448.6L327 450.3L331.9 452L336.7 453.7L341.7 455.3L346.6 457L351.6 458.7L356.6 460.3L361.6 462L366.6 463.6L371.7 465.2L376.8 466.8L381.9 468.4L387 470L392.2 471.5L397.3 473.1L402.5 474.6L407.7 476.1L413 477.6L418.2 479.1L423.5 480.6L428.7 482.1L434 483.5L439.3 484.9L444.6 486.4L450 487.8L455.3 489.1L460.6 490.5L466 491.9L471.4 493.2L476.7 494.5L482.1 495.8L487.5 497.1L492.9 498.4L498.3 499.6L503.7 500.8L509.1 502.1L514.5 503.2L519.9 504.4L525.3 505.6L530.8 506.7L536.2 507.8L541.6 508.9L547 510L552.4 511.1L557.8 512.1L563.2 513.1L568.6 514.1L574 515.1L579.4 516.1L584.7 517L590.1 517.9L595.5 518.8L600.8 519.7L606.1 520.6L611.5 521.4L616.8 522.2L622.1 523L627.4 523.8L632.6 524.6L637.9 525.3L643.1 526L648.4 526.7L653.6 527.4L658.8 528.1L663.9 528.7L669.1 529.3L674.2 529.9L679.3 530.5L684.4 531L689.5 531.5L694.5 532L699.5 532.5L704.5 533L709.5 533.4L714.4 533.9L719.3 534.3L724.2 534.6L729.1 535L733.9 535.3L738.7 535.7L743.5 535.9L748.2 536.2L752.9 536.5L757.6 536.7L762.2 536.9L766.8 537.1L771.4 537.3L775.9 537.5L780.4 537.6L784.8 537.7L789.3 537.8L793.6 537.9L798 537.9L802.3 538L806.5 538L810.8 538L814.9 538L819.1 537.9L823.2 537.9L827.2 537.8L831.2 537.7L835.2 537.6L839.1 537.4L843 537.3L846.8 537.1L850.6 536.9L854.3 536.7L858 536.5L861.6 536.3L865.2 536L868.8 535.7L872.3 535.4L875.7 535.1L879.1 534.8L882.4 534.5L885.7 534.1L888.9 533.8L892.1 533.4L895.2 533L898.3 532.6L901.3 532.1L904.2 531.7L907.2 531.2L910 530.8L912.8 530.3L915.5 529.8L918.2 529.3L920.8 528.8L923.4 528.2L925.9 527.7L928.3 527.1L930.7 526.6L933 526L935.3 525.4L937.5 524.8L939.7 524.2L941.7 523.5L943.8 522.9L945.7 522.3L947.6 521.6L949.5 521L951.2 520.3L953 519.6L954.6 518.9L956.2 518.2L957.7 517.5L959.2 516.8L960.6 516.1L961.9 515.4L963.2 514.6L964.4 513.9L965.6 513.2L966.6 512.4L967.6 511.7L968.6 510.9L969.5 510.1L970.3 509.4L971 508.6L971.7 507.8L972.4 507.1L972.9 506.3L973.4 505.5L973.8 504.7L974.2 503.9L974.5 503.1L974.7 502.3L974.9 501.5L975 500.8L975 500" opacity="0.12"/></g></svg>