<svg xmlns="http://www.w3.org/2000/svg" viewBox="0 0 1000 1000" preserveAspectRatio="xMidYMid slice" fill="none" stroke-linecap="round" stroke-linejoin="round"><g stroke="#0f3d2e" stroke-width="0.7"><path d="M975 500L975 500.4L974.9 500.8L974.9 501.2L974.8 501.6L974.6 502L974.5 502.4L974.3 502.8L974 503.2L973.8 503.6L973.5 504L973.2 504.4L972.8 504.8L972.5 505.2L972.1 505.6L971.6 506L971.2 506.4L970.7 506.8L970.1 507.2L969.6 507.6L969 508L968.4 508.3L967.7 508.7L967.1 509.1L966.4 509.4L965.6 509.8L964.9 510.2L964.1 510.5L963.3 510.9L962.4 511.2L961.5 511.6L960.6 511.9L959.7 512.2L958.7 512.6L957.7 512.9L956.7 513.2L955.6 513.5L954.6 513.9L953.5 514.2L952.3 514.5L951.2 514.8L950 515L948.7 515.3L947.5 515.6L946.2 515.9L944.9 516.1L943.6 516.4L942.2 516.7L940.8 516.9L939.4 517.2L938 517.4L936.5 517.6L935 517.8L933.5 518L931.9 518.3L930.3 518.4L928.7 518.6L927.1 518.8L925.4 519L923.8 519.2L922 519.3L920.3 519.5L918.5 519.6L916.8 519.8L914.9 519.9L913.1 520L911.2 520.1L909.4 520.2L907.4 520.3L905.5 520.4L903.5 520.5L901.6 520.5L899.5 520.6L897.5 520.6L895.4 520.7L893.4 520.7L891.3 520.7L889.1 520.7L887 520.7L884.8 520.7L882.6 520.7L880.4 520.7L878.1 520.6L875.8 520.6L873.6 520.5L871.2 520.4L868.9 520.4L866.5 520.3L864.2 520.2L861.8 520L859.3 519.9L856.9 519.8L854.4 519.6L852 519.5L849.5 519.3L846.9 519.1L844.4 518.9L841.8 518.7L839.2 518.5L836.6 518.3L834 518L831.4 517.8L828.7 517.5L826 517.3L823.3 517L820.6 516.7L817.9 516.4L815.1 516L812.4 515.7L809.6 515.4L806.8 515L803.9 514.6L801.1 514.3L798.3 513.9L795.4 513.5L792.5 513L789.6 512.6L786.7 512.2L783.7 511.7L780.8 511.2L777.8 510.8L774.8 510.3L771.9 509.8L768.8 509.2L765.8 508.7L762.8 508.2L759.7 507.6L756.7 507L753.6 506.5L750.5 505.9L747.4 505.3L744.3 504.6L741.2 504L738 503.4L734.9 502.7L731.7 502L728.6 501.4L725.4 500.7L722.2 499.9L719 499.2L715.8 498.5L712.5 497.7L709.3 497L706.1 496.2L702.8 495.4L699.6 494.6L696.3 493.8L693 493L689.7 492.2L686.4 491.3L683.1 490.4L679.8 489.6L676.5 488.7L673.2 487.8L669.8 486.9L666.5 485.9L663.2 485L659.8 484.1L656.5 483.1L653.1 482.1L649.7 481.1L646.4 480.1L643 479.1L639.6 478.1L636.2 477.1L632.8 476L629.4 475L626 473.9L622.6 472.8L619.2 471.7L615.8 470.6L612.4 469.5L609 468.3L605.6 467.2L602.2 466L598.8 464.9L595.4 463.7L591.9 462.5L588.5 461.3L585.1 460.1L581.7 458.9L578.3 457.6L574.8 456.4L571.4 455.1L568 453.8L564.6 452.6L561.2 451.3L557.8 450L554.4 448.7L550.9 447.3L547.5 446L544.1 444.7L540.7 443.3L537.3 441.9L533.9 440.6L530.5 439.2L527.2 437.8L523.8 436.4L520.4 435L517 433.6L513.6 432.1L510.3 430.7L506.9 429.2L503.6 427.8L500.2 426.3L496.9 424.8L493.5 423.3L490.2 421.8L486.9 420.3L483.5 418.8L480.2 417.3L476.9 415.8L473.6 414.2L470.3 412.7L467.1 411.1L463.8 409.6L460.5 408L457.3 406.4L454 404.8L450.8 403.2L447.6 401.6L444.3 400L441.1 398.4L437.9 396.8L434.7 395.2L431.6 393.6L428.4 391.9L425.2 390.3L422.1 388.6L419 387L415.8 385.3L412.7 383.6L409.6 382L406.5 380.3L403.5 378.6L400.4 376.9L397.4 375.2L394.3 373.5L391.3 371.8L388.3 370.1L385.3 368.4L382.3 366.7L379.3 365L376.4 363.2L373.4 361.5L370.5 359.8L367.6 358L364.7 356.3L361.8 354.6L359 352.8L356.1 351.1L353.3 349.3L350.5 347.6L347.7 345.8L344.9 344.1L342.1 342.3L339.3 340.6L336.6 338.8L333.9 337.1L331.2 335.3L328.5 333.5L325.8 331.8L323.2 330L320.5 328.2L317.9 326.5L315.3 324.7L312.7 323L310.2 321.2L307.6 319.4L305.1 317.7L302.6 315.9L300.1 314.1L297.7 312.4L295.2 310.6L292.8 308.9L290.4 307.1L288 305.4L285.6 303.6L283.3 301.9L280.9 300.1L278.6 298.4L276.3 296.6L274 294.9L271.8 293.2L269.6 291.4L267.4 289.7L265.2 288L263 286.3L260.9 284.6L258.7 282.9L256.6 281.2L254.6 279.5L252.5 277.8L250.5 276.1L248.4 274.4L246.4 272.7L244.5 271L242.5 269.4L240.6 267.7L238.7 266L236.8 264.4L234.9 262.8L233.1 261.1L231.3 259.5L229.5 257.9L227.7 256.3L226 254.7L224.2 253.1L222.5 251.5L220.9 249.9L219.2 248.3L217.6 246.7L216 245.2L214.4 243.6L212.8 242.1L211.3 240.6L209.7 239.1L208.2 237.5L206.8 236L205.3 234.6L203.9 233.1L202.5 231.6L201.1 230.1L199.8 228.7L198.5 227.3L197.1 225.8L195.9 224.4L194.6 223L193.4 221.6L192.2 220.2L191 218.9L189.8 217.5L188.7 216.2L187.6 214.8L186.5 213.5L185.4 212.2L184.4 210.9L183.4 209.6L182.4 208.4L181.4 207.1L180.5 205.9L179.5 204.7L178.6 203.4L177.8 202.3L176.9 201.1L176.1 199.9L175.3 198.8L174.5 197.6L173.8 196.5L173 195.4L172.3 194.3L171.7 193.2L171 192.2L170.4 191.1L169.8 190.1L169.2 189.1L168.6 188.1L168.1 187.1L167.6 186.1L167.1 185.2L166.6 184.3L166.2 183.3L165.8 182.4L165.4 181.6L165 180.7L164.6 179.9L164.3 179L164 178.2L163.7 177.5L163.5 176.7L163.3 175.9L163.1 175.2L162.9 174.5L162.7 173.8L162.6 173.1L162.5 172.5L162.4 171.8L162.3 171.2L162.2 170.6L162.2 170L162.2 169.5L162.2 168.9L162.3 168.4L162.3 167.9L162.4 167.4L162.5 167L162.7 166.5L162.8 166.1L163 165.7L163.2 165.3L163.4 165L163.7 164.6L163.9 164.3L164.2 164L164.5 163.8L164.8 163.5L165.2 163.3L165.6 163.1L165.9 162.9L166.4 162.7L166.8 162.6L167.2 162.5L167.7 162.4L168.2 162.3L168.7 162.3L169.2 162.2L169.8 162.2L170.4 162.2L171 162.3L171.6 162.3L172.2 162.4L172.8 162.5L173.5 162.6L174.2 162.8L174.9 163L175.6 163.2L176.4 163.4L177.1 163.6L177.9 163.9L178.7 164.2L179.5 164.5L180.4 164.8L181.2 165.2L182.1 165.6L183 166L183.9 166.4L184.8 166.9L185.8 167.4L186.7 167.9L187.7 168.4L188.7 168.9L189.7 169.5L190.7 170.1L191.7 170.7L192.8 171.4L193.9 172.1L194.9 172.8L196 173.5L197.2 174.2L198.3 175L199.4 175.8L200.6 176.6L201.8 177.4L203 178.3L204.2 179.2L205.4 180.1L206.6 181L207.9 182L209.1 183L210.4 184L211.7 185L213 186.1L214.3 187.1L215.6 188.2L217 189.4L218.3 190.5L219.7 191.7L221.1 192.9L222.5 194.1L223.9 195.4L225.3 196.6L226.7 197.9L228.1 199.2L229.6 200.6L231 202L232.5 203.3L234 204.8L235.4 206.2L236.9 207.7L238.4 209.1L240 210.7L241.5 212.2L243 213.7L244.6 215.3L246.1 216.9L247.7 218.5L249.3 220.2L250.8 221.9L252.4 223.6L254 225.3L255.6 227L257.2 228.8L258.8 230.6L260.5 232.4L262.1 234.2L263.7 236.1L265.4 237.9L267 239.8L268.7 241.7L270.4 243.7L272 245.7L273.7 247.6L275.4 249.6L277.1 251.7L278.8 253.7L280.5 255.8L282.2 257.9L283.9 260L285.6 262.1L287.3 264.3L289 266.5L290.8 268.7L292.5 270.9L294.2 273.1L296 275.4L297.7 277.7L299.4 280L301.2 282.3L302.9 284.7L304.7 287L306.4 289.4L308.2 291.8L309.9 294.2L311.7 296.7L313.4 299.1L315.2 301.6L317 304.1L318.7 306.6L320.5 309.2L322.2 311.7L324 314.3L325.8 316.9L327.5 319.5L329.3 322.1L331.1 324.8L332.8 327.4L334.6 330.1L336.3 332.8L338.1 335.5L339.9 338.2L341.6 341L343.4 343.8L345.1 346.5L346.9 349.3L348.6 352.2L350.4 355L352.1 357.8L353.9 360.7L355.6 363.6L357.4 366.4L359.1 369.4L360.8 372.3L362.5 375.2L364.3 378.2L366 381.1L367.7 384.1L369.4 387.1L371.1 390.1L372.8 393.1L374.5 396.1L376.2 399.2L377.9 402.2L379.6 405.3L381.3 408.4L383 411.5L384.6 414.6L386.3 417.7L388 420.8L389.6 424L391.3 427.1L392.9 430.3L394.5 433.5L396.2 436.7L397.8 439.9L399.4 443.1L401 446.3L402.6 449.5L404.2 452.7L405.8 456L407.4 459.2L408.9 462.5L410.5 465.8L412.1 469L413.6 472.3L415.2 475.6L416.7 478.9L418.2 482.2L419.7 485.5L421.2 488.9L422.7 492.2L424.2 495.5L425.7 498.9L427.2 502.2L428.7 505.6L430.1 508.9L431.6 512.3L433 515.7L434.4 519L435.8 522.4L437.2 525.8L438.6 529.2L440 532.6L441.4 536L442.8 539.4L444.1 542.8L445.5 546.2L446.8 549.6L448.1 553L449.5 556.4L450.8 559.8L452.1 563.2L453.3 566.6L454.6 570.1L455.9 573.5L457.1 576.9L458.4 580.3L459.6 583.7L460.8 587.2L462 590.6L463.2 594L464.4 597.4L465.6 600.8L466.7 604.2L467.9 607.7L469 611.1L470.1 614.5L471.3 617.9L472.4 621.3L473.4 624.7L474.5 628.1L475.6 631.5L476.6 634.9L477.7 638.2L478.7 641.6L479.7 645L480.7 648.4L481.7 651.8L482.7 655.1L483.7 658.5L484.6 661.8L485.6 665.2L486.5 668.5L487.4 671.8L488.3 675.2L489.2 678.5L490.1 681.8L491 685.1L491.8 688.4L492.7 691.7L493.5 695L494.3 698.3L495.1 701.5L495.9 704.8L496.7 708L497.4 711.3L498.2 714.5L498.9 717.7L499.7 720.9L500.4 724.1L501.1 727.3L501.8 730.5L502.4 733.6L503.1 736.8L503.8 739.9L504.4 743.1L505 746.2L505.6 749.3L506.2 752.4L506.8 755.5L507.4 758.5L508 761.6L508.5 764.6L509 767.6L509.6 770.7L510.1 773.7L510.6 776.6L511.1 779.6L511.5 782.6L512 785.5L512.4 788.4L512.9 791.3L513.3 794.2L513.7 797.1L514.1 800L514.5 802.8L514.9 805.6L515.2 808.5L515.6 811.2L515.9 814L516.2 816.8L516.6 819.5L516.9 822.2L517.1 825L517.4 827.6L517.7 830.3L517.9 833L518.2 835.6L518.4 838.2L518.6 840.8L518.8 843.4L519 845.9L519.2 848.5L519.4 851L519.6 853.5L519.7 855.9L519.9 858.4L520 860.8L520.1 863.2L520.2 865.6L520.3 868L520.4 870.3L520.5 872.6L520.5 874.9L520.6 877.2L520.6 879.5L520.7 881.7L520.7 883.9L520.7 886.1L520.7 888.3L520.7 890.4L520.7 892.5L520.7 894.6L520.7 896.7L520.6 898.7L520.6 900.8L520.5 902.7L520.4 904.7L520.3 906.7L520.3 908.6L520.2 910.5L520 912.4L519.9 914.2L519.8 916L519.7 917.8L519.5 919.6L519.4 921.4L519.2 923.1L519.1 924.8L518.9 926.4L518.7 928.1L518.5 929.7L518.3 931.3L518.1 932.8L517.9 934.4L517.7 935.9L517.5 937.4L517.2 938.8L517 940.3L516.8 941.7L516.5 943L516.3 944.4L516 945.7L515.7 947L515.4 948.2L515.2 949.5L514.9 950.7L514.6 951.9L514.3 953L514 954.1L513.7 955.2L513.3 956.3L513 957.3L512.7 958.3L512.4 959.3L512 960.2L511.7 961.2L511.4 962.1L511 962.9L510.7 963.7L510.3 964.6L509.9 965.3L509.6 966.1L509.2 966.8L508.8 967.5L508.5 968.1L508.1 968.7L507.7 969.3L507.3 969.9L507 970.4L506.6 971L506.2 971.4L505.8 971.9L505.4 972.3L505 972.7L504.6 973L504.2 973.4L503.8 973.7L503.4 973.9L503 974.2L502.6 974.4L502.2 974.6L501.8 974.7L501.4 974.8L501 974.9L500.6 975L500.2 975L499.8 975L499.3 975L498.9 974.9L498.5 974.8L498.1 974.7L497.7 974.5L497.3 974.3L496.9 974.1L496.5 973.9L496.1 973.6L495.7 973.3L495.3 973L494.9 972.6L494.5 972.2L494.1 971.8L493.7 971.3L493.4 970.9L493 970.3L492.6 969.8L492.2 969.2L491.8 968.6L491.4 968L491.1 967.3L490.7 966.6L490.3 965.9L490 965.2L489.6 964.4L489.3 963.6L488.9 962.7L488.6 961.9L488.2 961L487.9 960.1L487.6 959.1L487.2 958.1L486.9 957.1L486.6 956.1L486.3 955L486 953.9L485.7 952.8L485.4 951.6L485.1 950.4L484.8 949.2L484.5 948L484.2 946.7L484 945.4L483.7 944.1L483.4 942.8L483.2 941.4L482.9 940L482.7 938.5L482.5 937.1L482.3 935.6L482 934.1L481.8 932.5L481.6 931L481.4 929.4L481.2 927.7L481.1 926.1L480.9 924.4L480.7 922.7L480.6 921L480.4 919.3L480.3 917.5L480.2 915.7L480 913.8L479.9 912L479.8 910.1L479.7 908.2L479.6 906.3L479.6 904.3L479.5 902.3L479.4 900.3L479.4 898.3L479.3 896.3L479.3 894.2L479.3 892.1L479.3 890L479.3 887.8L479.3 885.7L479.3 883.5L479.3 881.2L479.4 879L479.4 876.8L479.5 874.5L479.5 872.2L479.6 869.8L479.7 867.5L479.8 865.1L479.9 862.7L480 860.3L480.2 857.9L480.3 855.4L480.5 853L480.6 850.5L480.8 847.9L481 845.4L481.2 842.8L481.4 840.3L481.6 837.7L481.9 835.1L482.1 832.4L482.4 829.8L482.6 827.1L482.9 824.4L483.2 821.7L483.5 819L483.8 816.2L484.2 813.5L484.5 810.7L484.8 807.9L485.2 805.1L485.6 802.2L486 799.4L486.4 796.5L486.8 793.6L487.2 790.7L487.7 787.8L488.1 784.9L488.6 782L489 779L489.5 776L490 773L490.5 770L491.1 767L491.6 764L492.2 761L492.7 757.9L493.3 754.8L493.9 751.7L494.5 748.7L495.1 745.5L495.7 742.4L496.4 739.3L497 736.1L497.7 733L498.4 729.8L499.1 726.6L499.8 723.5L500.5 720.3L501.2 717L502 713.8L502.7 710.6L503.5 707.4L504.3 704.1L505.1 700.9L505.9 697.6L506.7 694.3L507.5 691L508.4 687.7L509.2 684.4L510.1 681.1L511 677.8L511.9 674.5L512.8 671.2L513.7 667.8L514.6 664.5L515.6 661.1L516.5 657.8L517.5 654.4L518.5 651.1L519.5 647.7L520.5 644.3L521.5 640.9L522.5 637.6L523.6 634.2L524.6 630.8L525.7 627.4L526.8 624L527.9 620.6L529 617.2L530.1 613.8L531.2 610.4L532.4 607L533.5 603.5L534.7 600.1L535.8 596.7L537 593.3L538.2 589.9L539.4 586.5L540.7 583L541.9 579.6L543.1 576.2L544.4 572.8L545.6 569.4L546.9 566L548.2 562.5L549.5 559.1L550.8 555.7L552.1 552.3L553.5 548.9L554.8 545.5L556.1 542.1L557.5 538.7L558.9 535.3L560.3 531.9L561.6 528.5L563 525.1L564.5 521.7L565.9 518.4L567.3 515L568.7 511.6L570.2 508.2L571.6 504.9L573.1 501.5L574.6 498.2L576.1 494.9L577.6 491.5L579.1 488.2L580.6 484.9L582.1 481.6L583.6 478.2L585.2 474.9L586.7 471.7L588.2 468.4L589.8 465.1L591.4 461.8L592.9 458.6L594.5 455.3L596.1 452.1L597.7 448.8L599.3 445.6L600.9 442.4L602.5 439.2L604.2 436L605.8 432.8L607.4 429.7L609.1 426.5L610.7 423.3L612.4 420.2L614 417.1L615.7 414L617.4 410.9L619 407.8L620.7 404.7L622.4 401.6L624.1 398.6L625.8 395.5L627.5 392.5L629.2 389.5L630.9 386.5L632.6 383.5L634.4 380.5L636.1 377.6L637.8 374.6L639.5 371.7L641.3 368.8L643 365.9L644.7 363L646.5 360.1L648.2 357.2L650 354.4L651.7 351.6L653.5 348.8L655.2 346L657 343.2L658.7 340.4L660.5 337.7L662.2 335L664 332.3L665.8 329.6L667.5 326.9L669.3 324.2L671.1 321.6L672.8 319L674.6 316.4L676.3 313.8L678.1 311.2L679.9 308.6L681.6 306.1L683.4 303.6L685.2 301.1L686.9 298.6L688.7 296.2L690.4 293.7L692.2 291.3L693.9 288.9L695.7 286.5L697.4 284.2L699.2 281.8L700.9 279.5L702.7 277.2L704.4 274.9L706.1 272.7L707.9 270.5L709.6 268.2L711.3 266L713 263.9L714.8 261.7L716.5 259.6L718.2 257.5L719.9 255.4L721.6 253.3L723.3 251.3L724.9 249.2L726.6 247.2L728.3 245.3L730 243.3L731.6 241.4L733.3 239.4L734.9 237.5L736.6 235.7L738.2 233.8L739.9 232L741.5 230.2L743.1 228.4L744.7 226.7L746.3 224.9L747.9 223.2L749.5 221.5L751.1 219.9L752.6 218.2L754.2 216.6L755.7 215L757.3 213.4L758.8 211.9L760.3 210.3L761.9 208.8L763.4 207.4L764.9 205.9L766.3 204.5L767.8 203.1L769.3 201.7L770.7 200.3L772.2 199L773.6 197.7L775 196.4L776.4 195.1L777.8 193.9L779.2 192.6L780.6 191.5L781.9 190.3L783.3 189.1L784.6 188L786 186.9L787.3 185.8L788.6 184.8L789.9 183.8L791.1 182.8L792.4 181.8L793.6 180.8L794.9 179.9L796.1 179L797.3 178.1L798.5 177.3L799.6 176.4L800.8 175.6L801.9 174.8L803.1 174.1L804.2 173.3L805.3 172.6L806.4 171.9L807.4 171.3L808.5 170.6L809.5 170L810.5 169.4L811.5 168.8L812.5 168.3L813.5 167.8L814.4 167.3L815.4 166.8L816.3 166.3L817.2 165.9L818.1 165.5L818.9 165.1L819.8 164.8L820.6 164.4L821.4 164.1L822.2 163.8L823 163.6L823.8 163.3L824.5 163.1L825.2 162.9L825.9 162.8L826.6 162.6L827.3 162.5L827.9 162.4L828.6 162.3L829.2 162.3L829.8 162.2L830.3 162.2L830.9 162.2L831.4 162.3L831.9 162.3L832.4 162.4L832.9 162.5L833.3 162.6L833.7 162.8L834.1 162.9L834.5 163.1L834.9 163.3L835.2 163.6L835.5 163.8L835.8 164.1L836.1 164.4L836.4 164.7L836.6 165L836.8 165.4L837 165.8L837.2 166.2L837.3 166.6L837.5 167.1L837.6 167.5L837.7 168L837.7 168.5L837.8 169L837.8 169.6L837.8 170.1L837.7 170.7L837.7 171.3L837.6 171.9L837.5 172.6L837.4 173.2L837.3 173.9L837.1 174.6L836.9 175.3L836.7 176.1L836.5 176.8L836.2 177.6L835.9 178.4L835.6 179.2L835.3 180L834.9 180.9L834.6 181.7L834.2 182.6L833.7 183.5L833.3 184.4L832.8 185.4L832.3 186.3L831.8 187.3L831.3 188.3L830.7 189.3L830.1 190.3L829.5 191.3L828.9 192.4L828.2 193.4L827.5 194.5L826.8 195.6L826.1 196.7L825.3 197.8L824.5 199L823.7 200.1L822.9 201.3L822.1 202.5L821.2 203.7L820.3 204.9L819.4 206.1L818.4 207.4L817.4 208.6L816.4 209.9L815.4 211.2L814.4 212.5L813.3 213.8L812.2 215.1L811.1 216.4L809.9 217.8L808.8 219.1L807.6 220.5L806.4 221.9L805.1 223.3L803.9 224.7L802.6 226.1L801.3 227.5L799.9 229L798.6 230.4L797.2 231.9L795.8 233.4L794.4 234.9L792.9 236.3L791.5 237.8L790 239.4L788.4 240.9L786.9 242.4L785.3 244L783.7 245.5L782.1 247.1L780.5 248.6L778.8 250.2L777.1 251.8L775.4 253.4L773.7 255L771.9 256.6L770.2 258.2L768.4 259.8L766.5 261.5L764.7 263.1L762.8 264.7L760.9 266.4L759 268L757.1 269.7L755.1 271.4L753.2 273L751.2 274.7L749.1 276.4L747.1 278.1L745 279.8L742.9 281.5L740.8 283.2L738.7 284.9L736.6 286.6L734.4 288.3L732.2 290.1L730 291.8L727.7 293.5L725.5 295.3L723.2 297L720.9 298.7L718.6 300.5L716.3 302.2L713.9 304L711.5 305.7L709.1 307.5L706.7 309.2L704.3 311L701.8 312.7L699.4 314.5L696.9 316.3L694.4 318L691.8 319.8L689.3 321.5L686.7 323.3L684.1 325.1L681.5 326.8L678.9 328.6L676.3 330.4L673.6 332.1L671 333.9L668.3 335.6L665.6 337.4L662.8 339.2L660.1 340.9L657.3 342.7L654.6 344.4L651.8 346.2L649 347.9L646.1 349.7L643.3 351.4L640.5 353.2L637.6 354.9L634.7 356.7L631.8 358.4L628.9 360.1L626 361.9L623 363.6L620.1 365.3L617.1 367L614.1 368.7L611.1 370.5L608.1 372.2L605.1 373.9L602 375.6L599 377.3L595.9 378.9L592.8 380.6L589.7 382.3L586.6 384L583.5 385.6L580.4 387.3L577.3 389L574.1 390.6L571 392.2L567.8 393.9L564.6 395.5L561.4 397.1L558.2 398.8L555 400.4L551.8 402L548.6 403.6L545.3 405.2L542.1 406.7L538.8 408.3L535.5 409.9L532.3 411.4L529 413L525.7 414.5L522.4 416.1L519.1 417.6L515.8 419.1L512.5 420.6L509.1 422.1L505.8 423.6L502.5 425.1L499.1 426.6L495.8 428.1L492.4 429.5L489 431L485.7 432.4L482.3 433.8L478.9 435.3L475.5 436.7L472.2 438.1L468.8 439.5L465.4 440.9L462 442.2L458.6 443.6L455.2 444.9L451.8 446.3L448.4 447.6L445 448.9L441.5 450.2L438.1 451.5L434.7 452.8L431.3 454.1L427.9 455.4L424.5 456.6L421 457.9L417.6 459.1L414.2 460.3L410.8 461.5L407.4 462.7L404 463.9L400.5 465.1L397.1 466.3L393.7 467.4L390.3 468.6L386.9 469.7L383.5 470.8L380.1 471.9L376.7 473L373.3 474.1L369.9 475.2L366.5 476.2L363.1 477.3L359.7 478.3L356.3 479.3L353 480.3L349.6 481.3L346.2 482.3L342.9 483.3L339.5 484.3L336.2 485.2L332.8 486.1L329.5 487.1L326.2 488L322.8 488.9L319.5 489.7L316.2 490.6L312.9 491.5L309.6 492.3L306.3 493.2L303 494L299.8 494.8L296.5 495.6L293.3 496.4L290 497.1L286.8 497.9L283.6 498.6L280.4 499.4L277.2 500.1L274 500.8L270.8 501.5L267.6 502.2L264.5 502.8L261.3 503.5L258.2 504.1L255.1 504.8L252 505.4L248.9 506L245.8 506.6L242.7 507.2L239.6 507.7L236.6 508.3L233.6 508.8L230.5 509.4L227.5 509.9L224.5 510.4L221.6 510.9L218.6 511.3L215.7 511.8L212.7 512.3L209.8 512.7L206.9 513.1L204 513.5L201.2 513.9L198.3 514.3L195.5 514.7L192.7 515.1L189.9 515.4L187.1 515.8L184.3 516.1L181.6 516.4L178.8 516.7L176.1 517L173.4 517.3L170.7 517.6L168.1 517.8L165.5 518.1L162.8 518.3L160.2 518.5L157.7 518.8L155.1 519L152.6 519.2L150 519.3L147.5 519.5L145.1 519.7L142.6 519.8L140.2 519.9L137.7 520.1L135.3 520.2L133 520.3L130.6 520.4L128.3 520.4L126 520.5L123.7 520.6L121.4 520.6L119.2 520.7L117 520.7L114.8 520.7L112.6 520.7L110.4 520.7L108.3 520.7L106.2 520.7L104.1 520.7L102.1 520.6L100 520.6L98 520.5L96.1 520.5L94.1 520.4L92.2 520.3L90.3 520.2L88.4 520.1L86.5 520L84.7 519.9L82.9 519.7L81.1 519.6L79.3 519.4L77.6 519.3L75.9 519.1L74.2 519L72.6 518.8L70.9 518.6L69.3 518.4L67.8 518.2L66.2 518L64.7 517.8L63.2 517.6L61.7 517.3L60.3 517.1L58.9 516.9L57.5 516.6L56.2 516.4L54.8 516.1L53.5 515.8L52.3 515.6L51 515.3L49.8 515L48.6 514.7L47.4 514.4L46.3 514.1L45.2 513.8L44.1 513.5L43.1 513.2L42.1 512.8L41.1 512.5L40.1 512.2L39.2 511.8L38.3 511.5L37.4 511.2L36.6 510.8L35.8 510.4L35 510.1L34.2 509.7L33.5 509.4L32.8 509L32.1 508.6L31.5 508.3L30.9 507.9L30.3 507.5L29.8 507.1L29.2 506.7L28.8 506.3L28.3 505.9L27.9 505.6L27.5 505.2L27.1 504.8L26.8 504.4L26.4 504L26.2 503.6L25.9 503.2L25.7 502.8L25.5 502.4L25.3 502L25.2 501.5L25.1 501.1L25 500.7L25 500.3L25 499.9L25 499.5L25.1 499.1L25.2 498.7L25.3 498.3L25.4 497.9L25.6 497.5L25.8 497.1L26 496.7L26.3 496.3L26.6 495.9L26.9 495.5L27.2 495.1L27.6 494.7L28 494.3L28.5 493.9L28.9 493.5L29.4 493.1L30 492.7L30.5 492.4L31.1 492L31.8 491.6L32.4 491.2L33.1 490.9L33.8 490.5L34.5 490.1L35.3 489.8L36.1 489.4L36.9 489.1L37.8 488.7L38.7 488.4L39.6 488L40.5 487.7L41.5 487.4L42.5 487L43.5 486.7L44.6 486.4L45.7 486.1L46.8 485.8L47.9 485.5L49.1 485.2L50.3 484.9L51.5 484.6L52.8 484.3L54.1 484.1L55.4 483.8L56.7 483.5L58.1 483.3L59.5 483L60.9 482.8L62.3 482.6L63.8 482.3L65.3 482.1L66.9 481.9L68.4 481.7L70 481.5L71.6 481.3L73.2 481.1L74.9 481L76.6 480.8L78.3 480.6L80 480.5L81.8 480.3L83.6 480.2L85.4 480.1L87.3 480L89.1 479.9L91 479.8L93 479.7L94.9 479.6L96.9 479.5L98.9 479.5L100.9 479.4L102.9 479.4L105 479.3L107.1 479.3L109.2 479.3L111.3 479.3L113.5 479.3L115.7 479.3L117.9 479.3L120.1 479.3L122.3 479.4L124.6 479.4L126.9 479.5L129.2 479.6L131.6 479.7L133.9 479.8L136.3 479.9L138.7 480L141.1 480.1L143.6 480.3L146.1 480.4L148.5 480.6L151.1 480.7L153.6 480.9L156.1 481.1L158.7 481.3L161.3 481.5L163.9 481.8L166.5 482L169.2 482.3L171.8 482.5L174.5 482.8L177.2 483.1L179.9 483.4L182.7 483.7L185.4 484L188.2 484.4L191 484.7L193.8 485.1L196.6 485.4L199.5 485.8L202.3 486.2L205.2 486.6L208.1 487L211 487.5L213.9 487.9L216.9 488.4L219.8 488.9L222.8 489.3L225.8 489.8L228.8 490.3L231.8 490.9L234.8 491.4L237.8 491.9L240.9 492.5L243.9 493.1L247 493.7L250.1 494.3L253.2 494.9L256.3 495.5L259.5 496.1L262.6 496.8L265.7 497.4L268.9 498.1L272.1 498.8L275.3 499.5L278.5 500.2L281.7 500.9L284.9 501.7L288.1 502.4L291.3 503.2L294.6 503.9L297.8 504.7L301.1 505.5L304.4 506.4L307.7 507.2L311 508L314.2 508.9L317.6 509.7L320.9 510.6L324.2 511.5L327.5 512.4L330.8 513.3L334.2 514.2L337.5 515.2L340.9 516.1L344.2 517.1L347.6 518.1L351 519.1L354.3 520.1L357.7 521.1L361.1 522.1L364.5 523.2L367.9 524.2L371.3 525.3L374.7 526.3L378.1 527.4L381.5 528.5L384.9 529.6L388.3 530.8L391.7 531.9L395.1 533L398.5 534.2L401.9 535.4L405.3 536.6L408.8 537.7L412.2 538.9L415.6 540.2L419 541.4L422.4 542.6L425.9 543.9L429.3 545.1L432.7 546.4L436.1 547.7L439.5 549L442.9 550.3L446.3 551.6L449.8 552.9L453.2 554.3L456.6 555.6L460 557L463.4 558.3L466.8 559.7L470.2 561.1L473.5 562.5L476.9 563.9L480.3 565.3L483.7 566.7L487 568.2L490.4 569.6L493.8 571.1L497.1 572.5L500.5 574L503.8 575.5L507.2 577L510.5 578.5L513.8 580L517.1 581.5L520.4 583L523.7 584.5L527 586.1L530.3 587.6L533.6 589.2L536.9 590.7L540.1 592.3L543.4 593.9L546.6 595.5L549.9 597.1L553.1 598.7L556.3 600.3L559.5 601.9L562.7 603.5L565.9 605.1L569.1 606.8L572.2 608.4L575.4 610.1L578.5 611.7L581.7 613.4L584.8 615L587.9 616.7L591 618.4L594.1 620.1L597.2 621.7L600.2 623.4L603.3 625.1L606.3 626.8L609.3 628.5L612.3 630.2L615.3 632L618.3 633.7L621.3 635.4L624.2 637.1L627.2 638.8L630.1 640.6L633 642.3L635.9 644L638.8 645.8L641.6 647.5L644.5 649.3L647.3 651L650.1 652.8L652.9 654.5L655.7 656.3L658.5 658L661.2 659.8L664 661.5L666.7 663.3L669.4 665.1L672.1 666.8L674.7 668.6L677.4 670.4L680 672.1L682.6 673.9L685.2 675.6L687.8 677.4L690.3 679.2L692.9 680.9L695.4 682.7L697.9 684.5L700.4 686.2L702.8 688L705.3 689.7L707.7 691.5L710.1 693.2L712.5 695L714.9 696.7L717.2 698.5L719.6 700.2L721.9 702L724.1 703.7L726.4 705.4L728.7 707.2L730.9 708.9L733.1 710.6L735.3 712.4L737.4 714.1L739.6 715.8L741.7 717.5L743.8 719.2L745.9 720.9L747.9 722.6L750 724.3L752 726L754 727.6L755.9 729.3L757.9 731L759.8 732.6L761.7 734.3L763.6 735.9L765.4 737.6L767.3 739.2L769.1 740.8L770.9 742.5L772.6 744.1L774.4 745.7L776.1 747.3L777.8 748.9L779.5 750.4L781.1 752L782.8 753.6L784.4 755.1L786 756.7L787.5 758.2L789.1 759.7L790.6 761.3L792.1 762.8L793.5 764.3L795 765.8L796.4 767.2L797.8 768.7L799.1 770.2L800.5 771.6L801.8 773L803.1 774.5L804.4 775.9L805.6 777.3L806.9 778.7L808.1 780L809.3 781.4L810.4 782.8L811.5 784.1L812.7 785.4L813.7 786.7L814.8 788.1L815.8 789.3L816.8 790.6L817.8 791.9L818.8 793.1L819.7 794.4L820.7 795.6L821.5 796.8L822.4 798L823.3 799.2L824.1 800.3L824.9 801.5L825.6 802.6L826.4 803.7L827.1 804.8L827.8 805.9L828.5 807L829.1 808.1L829.8 809.1L830.4 810.1L830.9 811.1L831.5 812.1L832 813.1L832.5 814.1L833 815L833.5 815.9L833.9 816.8L834.3 817.7L834.7 818.6L835.1 819.5L835.4 820.3L835.7 821.1L836 821.9L836.3 822.7L836.6 823.5L836.8 824.2L837 824.9L837.2 825.7L837.3 826.4L837.5 827L837.6 827.7L837.7 828.3L837.7 828.9L837.8 829.5L837.8 830.1L837.8 830.7L837.8 831.2L837.7 831.7L837.6 832.2L837.5 832.7L837.4 833.1L837.3 833.6L837.1 834L837 834.4L836.8 834.7L836.5 835.1L836.3 835.4L836 835.7L835.7 836L835.4 836.3L835.1 836.5L834.7 836.8L834.4 837L834 837.1L833.6 837.3L833.1 837.4L832.7 837.5L832.2 837.6L831.7 837.7L831.2 837.8L830.6 837.8L830.1 837.8L829.5 837.8L828.9 837.7L828.3 837.7L827.7 837.6L827 837.5L826.3 837.3L825.7 837.2L824.9 837L824.2 836.8L823.5 836.6L822.7 836.3L821.9 836L821.1 835.7L820.3 835.4L819.5 835.1L818.6 834.7L817.7 834.3L816.8 833.9L815.9 833.5L815 833L814.1 832.5L813.1 832L812.1 831.5L811.1 830.9L810.1 830.4L809.1 829.8L808.1 829.1L807 828.5L805.9 827.8L804.8 827.1L803.7 826.4L802.6 825.6L801.5 824.9L800.3 824.1L799.2 823.2L798 822.4L796.8 821.5L795.6 820.6L794.4 819.7L793.1 818.8L791.9 817.8L790.6 816.8L789.3 815.8L788 814.8L786.7 813.7L785.4 812.6L784.1 811.5L782.7 810.4L781.4 809.2L780 808.1L778.7 806.9L777.3 805.6L775.9 804.4L774.4 803.1L773 801.8L771.6 800.5L770.1 799.1L768.7 797.8L767.2 796.4L765.7 794.9L764.3 793.5L762.8 792L761.2 790.6L759.7 789L758.2 787.5L756.7 785.9L755.1 784.4L753.6 782.8L752 781.1L750.4 779.5L748.8 777.8L747.3 776.1L745.7 774.4L744.1 772.6L742.4 770.9L740.8 769.1L739.2 767.3L737.6 765.4L735.9 763.6L734.3 761.7L732.6 759.8L731 757.9L729.3 755.9L727.6 753.9L725.9 752L724.3 749.9L722.6 747.9L720.9 745.9L719.2 743.8L717.5 741.7L715.8 739.6L714.1 737.4L712.3 735.3L710.6 733.1L708.9 730.9L707.2 728.6L705.4 726.4L703.7 724.1L702 721.8L700.2 719.5L698.5 717.2L696.7 714.9L695 712.5L693.2 710.1L691.5 707.7L689.7 705.3L688 702.8L686.2 700.4L684.4 697.9L682.7 695.4L680.9 692.9L679.2 690.3L677.4 687.8L675.6 685.2L673.9 682.6L672.1 680L670.3 677.3L668.6 674.7L666.8 672L665.1 669.3L663.3 666.6L661.5 663.9L659.8 661.2L658 658.4L656.3 655.7L654.5 652.9L652.8 650.1L651 647.3L649.3 644.4L647.5 641.6L645.8 638.7L644 635.9L642.3 633L640.6 630.1L638.8 627.1L637.1 624.2L635.4 621.2L633.7 618.3L631.9 615.3L630.2 612.3L628.5 609.3L626.8 606.3L625.1 603.2L623.4 600.2L621.7 597.1L620 594.1L618.4 591L616.7 587.9L615 584.8L613.4 581.6L611.7 578.5L610 575.4L608.4 572.2L606.8 569.1L605.1 565.9L603.5 562.7L601.9 559.5L600.3 556.3L598.7 553.1L597.1 549.8L595.5 546.6L593.9 543.4L592.3 540.1L590.7 536.8L589.2 533.6L587.6 530.3L586.1 527L584.5 523.7L583 520.4L581.5 517.1L580 513.8L578.5 510.5L577 507.1L575.5 503.8L574 500.4L572.5 497.1L571.1 493.7L569.6 490.4L568.2 487L566.7 483.6L565.3 480.3L563.9 476.9L562.5 473.5L561.1 470.1L559.7 466.7L558.3 463.3L557 459.9L555.6 456.5L554.2 453.1L552.9 449.7L551.6 446.3L550.3 442.9L549 439.5L547.7 436.1L546.4 432.7L545.1 429.2L543.9 425.8L542.6 422.4L541.4 419L540.2 415.6L538.9 412.1L537.7 408.7L536.5 405.3L535.4 401.9L534.2 398.5L533 395.1L531.9 391.7L530.8 388.2L529.6 384.8L528.5 381.4L527.4 378L526.3 374.6L525.3 371.2L524.2 367.8L523.1 364.4L522.1 361.1L521.1 357.7L520.1 354.3L519.1 350.9L518.1 347.6L517.1 344.2L516.1 340.8L515.2 337.5L514.2 334.1L513.3 330.8L512.4 327.5L511.5 324.2L510.6 320.8L509.7 317.5L508.9 314.2L508 310.9L507.2 307.6L506.3 304.4L505.5 301.1L504.7 297.8L503.9 294.6L503.2 291.3L502.4 288.1L501.7 284.9L500.9 281.6L500.2 278.4L499.5 275.2L498.8 272.1L498.1 268.9L497.4 265.7L496.8 262.6L496.1 259.4L495.5 256.3L494.9 253.2L494.2 250.1L493.7 247L493.1 243.9L492.5 240.9L491.9 237.8L491.4 234.8L490.9 231.7L490.3 228.7L489.8 225.7L489.3 222.8L488.9 219.8L488.4 216.8L487.9 213.9L487.5 211L487 208.1L486.6 205.2L486.2 202.3L485.8 199.4L485.4 196.6L485.1 193.8L484.7 191L484.4 188.2L484 185.4L483.7 182.7L483.4 179.9L483.1 177.2L482.8 174.5L482.5 171.8L482.3 169.1L482 166.5L481.8 163.9L481.5 161.3L481.3 158.7L481.1 156.1L480.9 153.6L480.7 151L480.6 148.5L480.4 146L480.3 143.6L480.1 141.1L480 138.7L479.9 136.3L479.8 133.9L479.7 131.6L479.6 129.2L479.5 126.9L479.4 124.6L479.4 122.3L479.3 120.1L479.3 117.8L479.3 115.6L479.3 113.5L479.3 111.3L479.3 109.2L479.3 107.1L479.3 105L479.4 102.9L479.4 100.9L479.5 98.8L479.5 96.8L479.6 94.9L479.7 92.9L479.8 91L479.9 89.1L480 87.3L480.1 85.4L480.2 83.6L480.3 81.8L480.5 80L480.6 78.3L480.8 76.6L481 74.9L481.1 73.2L481.3 71.6L481.5 70L481.7 68.4L481.9 66.8L482.1 65.3L482.3 63.8L482.6 62.3L482.8 60.9L483 59.5L483.3 58.1L483.5 56.7L483.8 55.4L484.1 54L484.3 52.8L484.6 51.5L484.9 50.3L485.2 49.1L485.5 47.9L485.8 46.8L486.1 45.7L486.4 44.6L486.7 43.5L487 42.5L487.4 41.5L487.7 40.5L488 39.6L488.4 38.7L488.7 37.8L489.1 36.9L489.4 36.1L489.8 35.3L490.1 34.5L490.5 33.8L490.9 33.1L491.2 32.4L491.6 31.7L492 31.1L492.4 30.5L492.7 30L493.1 29.4L493.5 28.9L493.9 28.5L494.3 28L494.7 27.6L495.1 27.2L495.5 26.9L495.9 26.6L496.3 26.3L496.7 26L497.1 25.8L497.5 25.6L497.9 25.4L498.3 25.3L498.7 25.2L499.1 25.1L499.5 25L499.9 25L500.3 25L500.7 25L501.1 25.1L501.5 25.2L502 25.3L502.4 25.5L502.8 25.7L503.2 25.9L503.6 26.2L504 26.4L504.4 26.8L504.8 27.1L505.2 27.5L505.6 27.9L505.9 28.3L506.3 28.8L506.7 29.2L507.1 29.8L507.5 30.3L507.9 30.9L508.3 31.5L508.6 32.1L509 32.8L509.4 33.5L509.7 34.2L510.1 35L510.5 35.8L510.8 36.6L511.2 37.4L511.5 38.3L511.8 39.2L512.2 40.1L512.5 41.1L512.8 42.1L513.2 43.1L513.5 44.2L513.8 45.2L514.1 46.3L514.4 47.5L514.7 48.6L515 49.8L515.3 51L515.6 52.3L515.8 53.5L516.1 54.8L516.4 56.2L516.6 57.5L516.9 58.9L517.1 60.3L517.3 61.8L517.6 63.2L517.8 64.7L518 66.2L518.2 67.8L518.4 69.4L518.6 71L518.8 72.6L519 74.2L519.1 75.9L519.3 77.6L519.5 79.4L519.6 81.1L519.7 82.9L519.9 84.7L520 86.5L520.1 88.4L520.2 90.3L520.3 92.2L520.4 94.1L520.5 96.1L520.5 98.1L520.6 100.1L520.6 102.1L520.7 104.2L520.7 106.2L520.7 108.3L520.7 110.5L520.7 112.6L520.7 114.8L520.7 117L520.7 119.2L520.6 121.4L520.6 123.7L520.5 126L520.4 128.3L520.4 130.6L520.3 133L520.2 135.4L520.1 137.8L519.9 140.2L519.8 142.6L519.7 145.1L519.5 147.6L519.3 150.1L519.2 152.6L519 155.1L518.8 157.7L518.5 160.3L518.3 162.9L518.1 165.5L517.8 168.1L517.6 170.8L517.3 173.5L517 176.1L516.7 178.9L516.4 181.6L516.1 184.3L515.8 187.1L515.4 189.9L515.1 192.7L514.7 195.5L514.3 198.3L513.9 201.2L513.5 204.1L513.1 206.9L512.7 209.8L512.3 212.8L511.8 215.7L511.3 218.6L510.9 221.6L510.4 224.6L509.9 227.6L509.3 230.6L508.8 233.6L508.3 236.6L507.7 239.7L507.2 242.7L506.6 245.8L506 248.9L505.4 252L504.8 255.1L504.1 258.2L503.5 261.3L502.8 264.5L502.2 267.7L501.5 270.8L500.8 274L500.1 277.2L499.4 280.4L498.6 283.6L497.9 286.8L497.1 290.1L496.4 293.3L495.6 296.6L494.8 299.8L494 303.1L493.2 306.4L492.3 309.6L491.5 312.9L490.6 316.2L489.7 319.5L488.9 322.9L488 326.2L487 329.5L486.1 332.8L485.2 336.2L484.2 339.5L483.3 342.9L482.3 346.3L481.3 349.6L480.3 353L479.3 356.4L478.3 359.7L477.3 363.1L476.2 366.5L475.2 369.9L474.1 373.3L473 376.7L471.9 380.1L470.8 383.5L469.7 386.9L468.6 390.3L467.4 393.7L466.3 397.2L465.1 400.6L463.9 404L462.7 407.4L461.5 410.8L460.3 414.2L459.1 417.7L457.9 421.1L456.6 424.5L455.4 427.9L454.1 431.3L452.8 434.7L451.5 438.2L450.2 441.6L448.9 445L447.6 448.4L446.3 451.8L444.9 455.2L443.6 458.6L442.2 462L440.8 465.4L439.5 468.8L438.1 472.2L436.7 475.6L435.3 479L433.8 482.3L432.4 485.7L431 489.1L429.5 492.4L428.1 495.8L426.6 499.1L425.1 502.5L423.6 505.8L422.1 509.2L420.6 512.5L419.1 515.8L417.6 519.1L416.1 522.4L414.5 525.7L413 529L411.4 532.3L409.9 535.6L408.3 538.8L406.7 542.1L405.1 545.3L403.6 548.6L402 551.8L400.4 555L398.7 558.2L397.1 561.4L395.5 564.6L393.9 567.8L392.2 571L390.6 574.1L388.9 577.3L387.3 580.4L385.6 583.6L384 586.7L382.3 589.8L380.6 592.9L378.9 595.9L377.2 599L375.5 602.1L373.8 605.1L372.1 608.1L370.4 611.1L368.7 614.1L367 617.1L365.3 620.1L363.6 623L361.8 626L360.1 628.9L358.4 631.8L356.6 634.7L354.9 637.6L353.2 640.5L351.4 643.3L349.7 646.2L347.9 649L346.2 651.8L344.4 654.6L342.7 657.4L340.9 660.1L339.2 662.9L337.4 665.6L335.6 668.3L333.9 671L332.1 673.7L330.3 676.3L328.6 679L326.8 681.6L325.1 684.2L323.3 686.8L321.5 689.3L319.8 691.9L318 694.4L316.2 696.9L314.5 699.4L312.7 701.9L311 704.3L309.2 706.8L307.5 709.2L305.7 711.6L304 713.9L302.2 716.3L300.5 718.6L298.7 720.9L297 723.2L295.2 725.5L293.5 727.8L291.8 730L290.1 732.2L288.3 734.4L286.6 736.6L284.9 738.7L283.2 740.9L281.5 743L279.8 745L278.1 747.1L276.4 749.2L274.7 751.2L273 753.2L271.4 755.2L269.7 757.1L268 759L266.4 760.9L264.7 762.8L263.1 764.7L261.4 766.5L259.8 768.4L258.2 770.2L256.6 771.9L255 773.7L253.4 775.4L251.8 777.1L250.2 778.8L248.6 780.5L247 782.1L245.5 783.7L243.9 785.3L242.4 786.9L240.9 788.4L239.3 790L237.8 791.5L236.3 792.9L234.8 794.4L233.4 795.8L231.9 797.2L230.4 798.6L229 800L227.5 801.3L226.1 802.6L224.7 803.9L223.3 805.1L221.9 806.4L220.5 807.6L219.1 808.8L217.8 810L216.4 811.1L215.1 812.2L213.8 813.3L212.5 814.4L211.2 815.4L209.9 816.4L208.6 817.4L207.4 818.4L206.1 819.4L204.9 820.3L203.7 821.2L202.5 822.1L201.3 822.9L200.1 823.7L199 824.6L197.8 825.3L196.7 826.1L195.6 826.8L194.5 827.5L193.4 828.2L192.4 828.9L191.3 829.5L190.3 830.1L189.3 830.7L188.3 831.3L187.3 831.8L186.3 832.3L185.4 832.8L184.4 833.3L183.5 833.7L182.6 834.2L181.7 834.6L180.9 834.9L180 835.3L179.2 835.6L178.4 835.9L177.6 836.2L176.8 836.5L176.1 836.7L175.3 836.9L174.6 837.1L173.9 837.3L173.2 837.4L172.6 837.5L171.9 837.6L171.3 837.7L170.7 837.7L170.1 837.8L169.6 837.8L169 837.8L168.5 837.7L168 837.7L167.5 837.6L167.1 837.5L166.6 837.3L166.2 837.2L165.8 837L165.4 836.8L165 836.6L164.7 836.4L164.4 836.1L164.1 835.8L163.8 835.5L163.6 835.2L163.3 834.9L163.1 834.5L162.9 834.1L162.8 833.7L162.6 833.3L162.5 832.9L162.4 832.4L162.3 831.9L162.3 831.4L162.2 830.9L162.2 830.3L162.2 829.7L162.3 829.2L162.3 828.6L162.4 827.9L162.5 827.3L162.6 826.6L162.8 825.9L162.9 825.2L163.1 824.5L163.3 823.8L163.6 823L163.9 822.2L164.1 821.4L164.4 820.6L164.8 819.8L165.1 818.9L165.5 818.1L165.9 817.2L166.3 816.3L166.8 815.4L167.3 814.4L167.8 813.5L168.3 812.5L168.8 811.5L169.4 810.5L170 809.5L170.6 808.5L171.3 807.4L171.9 806.3L172.6 805.3L173.3 804.2L174.1 803.1L174.8 801.9L175.6 800.8L176.4 799.6L177.3 798.4L178.1 797.3L179 796.1L179.9 794.8L180.8 793.6L181.8 792.4L182.8 791.1L183.8 789.8L184.8 788.6L185.8 787.3L186.9 785.9L188 784.6L189.1 783.3L190.3 781.9L191.5 780.6L192.7 779.2L193.9 777.8L195.1 776.4L196.4 775L197.7 773.6L199 772.2L200.3 770.7L201.7 769.3L203.1 767.8L204.5 766.3L205.9 764.8L207.4 763.3L208.9 761.8L210.4 760.3L211.9 758.8L213.4 757.3L215 755.7L216.6 754.2L218.2 752.6L219.9 751.1L221.5 749.5L223.2 747.9L224.9 746.3L226.7 744.7L228.4 743.1L230.2 741.5L232 739.8L233.8 738.2L235.7 736.6L237.6 734.9L239.5 733.3L241.4 731.6L243.3 730L245.3 728.3L247.3 726.6L249.3 724.9L251.3 723.2L253.3 721.6L255.4 719.9L257.5 718.2L259.6 716.4L261.7 714.7L263.9 713L266.1 711.3L268.3 709.6L270.5 707.9L272.7 706.1L275 704.4L277.2 702.6L279.5 700.9L281.9 699.2L284.2 697.4L286.6 695.7L288.9 693.9L291.3 692.2L293.8 690.4L296.2 688.7L298.7 686.9L301.1 685.1L303.6 683.4L306.1 681.6L308.7 679.9L311.2 678.1L313.8 676.3L316.4 674.6L319 672.8L321.6 671L324.2 669.3L326.9 667.5L329.6 665.8L332.3 664L335 662.2L337.7 660.5L340.5 658.7L343.2 657L346 655.2L348.8 653.5L351.6 651.7L354.4 650L357.3 648.2L360.1 646.5L363 644.7L365.9 643L368.8 641.2L371.7 639.5L374.6 637.8L377.6 636.1L380.5 634.3L383.5 632.6L386.5 630.9L389.5 629.2L392.5 627.5L395.6 625.8L398.6 624.1L401.7 622.4L404.7 620.7L407.8 619L410.9 617.4L414 615.7L417.1 614L420.2 612.4L423.4 610.7L426.5 609.1L429.7 607.4L432.9 605.8L436 604.2L439.2 602.5L442.4 600.9L445.7 599.3L448.9 597.7L452.1 596.1L455.3 594.5L458.6 592.9L461.9 591.4L465.1 589.8L468.4 588.2L471.7 586.7L475 585.1L478.3 583.6L481.6 582.1L484.9 580.6L488.2 579.1L491.5 577.5L494.9 576.1L498.2 574.6L501.6 573.1L504.9 571.6L508.3 570.2L511.6 568.7L515 567.3L518.4 565.9L521.8 564.4L525.1 563L528.5 561.6L531.9 560.2L535.3 558.9L538.7 557.5L542.1 556.1L545.5 554.8L548.9 553.4L552.3 552.1L555.7 550.8L559.2 549.5L562.6 548.2L566 546.9L569.4 545.6L572.8 544.4L576.2 543.1L579.7 541.9L583.1 540.6L586.5 539.4L589.9 538.2L593.3 537L596.7 535.8L600.2 534.7L603.6 533.5L607 532.3L610.4 531.2L613.8 530.1L617.2 529L620.6 527.9L624 526.8L627.4 525.7L630.8 524.6L634.2 523.6L637.6 522.5L641 521.5L644.4 520.5L647.7 519.5L651.1 518.5L654.5 517.5L657.8 516.5L661.2 515.6L664.5 514.6L667.9 513.7L671.2 512.8L674.5 511.8L677.8 511L681.2 510.1L684.5 509.2L687.8 508.3L691.1 507.5L694.3 506.7L697.6 505.9L700.9 505L704.1 504.3L707.4 503.5L710.6 502.7L713.9 501.9L717.1 501.2L720.3 500.5L723.5 499.8L726.7 499.1L729.9 498.4L733 497.7L736.2 497L739.3 496.4L742.5 495.7L745.6 495.1L748.7 494.5L751.8 493.9L754.9 493.3L757.9 492.7L761 492.2L764 491.6L767.1 491.1L770.1 490.5L773.1 490L776.1 489.5L779 489L782 488.6L784.9 488.1L787.9 487.7L790.8 487.2L793.7 486.8L796.6 486.4L799.4 486L802.3 485.6L805.1 485.2L807.9 484.8L810.7 484.5L813.5 484.2L816.2 483.8L819 483.5L821.7 483.2L824.4 482.9L827.1 482.6L829.8 482.4L832.4 482.1L835.1 481.9L837.7 481.6L840.3 481.4L842.9 481.2L845.4 481L848 480.8L850.5 480.6L853 480.5L855.4 480.3L857.9 480.2L860.3 480L862.8 479.9L865.1 479.8L867.5 479.7L869.9 479.6L872.2 479.5L874.5 479.5L876.8 479.4L879 479.4L881.3 479.3L883.5 479.3L885.7 479.3L887.8 479.3L890 479.3L892.1 479.3L894.2 479.3L896.3 479.3L898.3 479.4L900.4 479.4L902.4 479.5L904.3 479.6L906.3 479.6L908.2 479.7L910.1 479.8L912 479.9L913.9 480L915.7 480.2L917.5 480.3L919.3 480.4L921 480.6L922.7 480.7L924.4 480.9L926.1 481.1L927.8 481.2L929.4 481.4L931 481.6L932.5 481.8L934.1 482L935.6 482.3L937.1 482.5L938.5 482.7L940 482.9L941.4 483.2L942.8 483.4L944.1 483.7L945.4 484L946.7 484.2L948 484.5L949.2 484.8L950.4 485.1L951.6 485.4L952.8 485.7L953.9 486L955 486.3L956.1 486.6L957.1 486.9L958.1 487.2L959.1 487.6L960.1 487.9L961 488.2L961.9 488.6L962.8 488.9L963.6 489.3L964.4 489.6L965.2 490L965.9 490.3L966.6 490.7L967.3 491.1L968 491.5L968.6 491.8L969.2 492.2L969.8 492.6L970.3 493L970.9 493.4L971.3 493.7L971.8 494.1L972.2 494.5L972.6 494.9L973 495.3L973.3 495.7L973.6 496.1L973.9 496.5L974.1 496.9L974.3 497.3L974.5 497.7L974.7 498.1L974.8 498.5L974.9 498.9L975 499.4L975 499.8L975 500.2" opacity="0.12"/></g></svg>