<svg xmlns="http://www.w3.org/2000/svg" viewBox="0 0 1000 1000" preserveAspectRatio="xMidYMid slice" fill="none" stroke-linecap="round" stroke-linejoin="round"><g stroke="#0f3d2e" stroke-width="0.7"><path d="M975 500L975 498.7L974.8 497.4L974.6 496.2L974.3 494.9L973.8 493.6L973.3 492.4L972.7 491.1L972 489.8L971.3 488.6L970.4 487.4L969.4 486.1L968.3 484.9L967.2 483.7L966 482.5L964.6 481.3L963.2 480.2L961.7 479L960.1 477.9L958.4 476.7L956.6 475.6L954.7 474.6L952.8 473.5L950.7 472.4L948.6 471.4L946.4 470.4L944.1 469.4L941.7 468.4L939.2 467.5L936.7 466.6L934.1 465.7L931.3 464.8L928.5 464L925.6 463.2L922.7 462.4L919.6 461.7L916.5 460.9L913.3 460.3L910 459.6L906.7 459L903.3 458.4L899.8 457.8L896.2 457.3L892.5 456.8L888.8 456.3L885 455.9L881.1 455.5L877.2 455.2L873.2 454.9L869.1 454.6L865 454.4L860.8 454.2L856.5 454L852.2 453.9L847.8 453.8L843.3 453.8L838.8 453.8L834.2 453.8L829.6 453.9L824.9 454.1L820.2 454.3L815.4 454.5L810.5 454.7L805.6 455.1L800.7 455.4L795.7 455.8L790.6 456.3L785.5 456.8L780.4 457.3L775.2 457.9L769.9 458.5L764.7 459.2L759.3 459.9L754 460.7L748.6 461.5L743.1 462.4L737.7 463.3L732.2 464.3L726.6 465.3L721.1 466.3L715.5 467.4L709.8 468.6L704.2 469.8L698.5 471L692.8 472.3L687 473.7L681.3 475.1L675.5 476.5L669.7 478L663.9 479.5L658.1 481.1L652.2 482.8L646.4 484.4L640.5 486.2L634.6 487.9L628.7 489.7L622.8 491.6L616.9 493.5L611 495.5L605 497.5L599.1 499.5L593.2 501.6L587.3 503.7L581.3 505.9L575.4 508.1L569.5 510.4L563.6 512.7L557.7 515L551.8 517.4L545.9 519.9L540 522.3L534.1 524.8L528.2 527.4L522.4 530L516.6 532.6L510.8 535.3L505 538L499.2 540.7L493.4 543.5L487.7 546.3L482 549.1L476.3 552L470.7 554.9L465 557.9L459.4 560.9L453.9 563.9L448.3 566.9L442.8 570L437.3 573.1L431.9 576.2L426.5 579.4L421.1 582.5L415.8 585.8L410.5 589L405.2 592.2L400 595.5L394.9 598.8L389.7 602.1L384.6 605.5L379.6 608.8L374.6 612.2L369.7 615.6L364.8 619L359.9 622.5L355.1 625.9L350.4 629.4L345.7 632.9L341.1 636.3L336.5 639.8L331.9 643.3L327.5 646.8L323.1 650.4L318.7 653.9L314.4 657.4L310.1 661L306 664.5L301.8 668L297.8 671.6L293.8 675.1L289.8 678.7L286 682.2L282.2 685.8L278.4 689.3L274.7 692.8L271.1 696.3L267.6 699.9L264.1 703.4L260.7 706.9L257.3 710.3L254.1 713.8L250.8 717.3L247.7 720.7L244.6 724.2L241.6 727.6L238.7 731L235.9 734.4L233.1 737.7L230.4 741L227.7 744.4L225.2 747.7L222.7 750.9L220.2 754.2L217.9 757.4L215.6 760.6L213.4 763.7L211.3 766.9L209.2 770L207.3 773L205.3 776.1L203.5 779.1L201.8 782L200.1 784.9L198.5 787.8L196.9 790.7L195.5 793.5L194.1 796.3L192.8 799L191.5 801.7L190.4 804.3L189.3 806.9L188.3 809.5L187.3 812L186.4 814.4L185.7 816.8L184.9 819.2L184.3 821.5L183.7 823.8L183.2 826L182.8 828.1L182.4 830.2L182.1 832.3L181.9 834.2L181.7 836.2L181.6 838L181.6 839.8L181.7 841.6L181.8 843.3L182 844.9L182.3 846.5L182.6 848L183 849.4L183.5 850.8L184 852.1L184.6 853.4L185.2 854.5L186 855.6L186.7 856.7L187.6 857.7L188.5 858.6L189.5 859.4L190.5 860.2L191.6 860.9L192.7 861.5L193.9 862L195.2 862.5L196.5 862.9L197.9 863.3L199.3 863.5L200.8 863.7L202.3 863.8L203.9 863.8L205.6 863.8L207.3 863.7L209 863.5L210.8 863.2L212.6 862.9L214.5 862.4L216.4 861.9L218.4 861.3L220.5 860.7L222.5 859.9L224.6 859.1L226.8 858.2L229 857.2L231.2 856.2L233.5 855.1L235.8 853.8L238.1 852.6L240.5 851.2L242.9 849.7L245.4 848.2L247.9 846.6L250.4 844.9L252.9 843.1L255.5 841.3L258.1 839.3L260.7 837.3L263.4 835.3L266.1 833.1L268.8 830.8L271.5 828.5L274.3 826.1L277.1 823.6L279.9 821.1L282.7 818.5L285.5 815.8L288.4 813L291.2 810.1L294.1 807.2L297 804.2L299.9 801.1L302.8 797.9L305.7 794.7L308.7 791.4L311.6 788L314.6 784.5L317.5 781L320.5 777.4L323.5 773.7L326.4 770L329.4 766.2L332.4 762.3L335.4 758.3L338.3 754.3L341.3 750.2L344.3 746.1L347.3 741.9L350.2 737.6L353.2 733.3L356.1 728.9L359.1 724.4L362 719.9L364.9 715.3L367.8 710.6L370.7 705.9L373.6 701.2L376.5 696.3L379.3 691.5L382.2 686.5L385 681.6L387.8 676.5L390.6 671.4L393.3 666.3L396.1 661.1L398.8 655.9L401.5 650.6L404.2 645.2L406.9 639.9L409.5 634.4L412.1 629L414.7 623.5L417.3 617.9L419.8 612.3L422.3 606.7L424.8 601L427.2 595.3L429.6 589.6L432 583.8L434.4 578L436.7 572.2L439 566.3L441.2 560.4L443.4 554.5L445.6 548.6L447.8 542.6L449.9 536.6L452 530.6L454 524.6L456 518.5L458 512.4L459.9 506.3L461.8 500.2L463.6 494.1L465.4 488L467.2 481.8L468.9 475.7L470.6 469.5L472.3 463.4L473.9 457.2L475.5 451L477 444.8L478.5 438.6L479.9 432.4L481.3 426.3L482.6 420.1L483.9 413.9L485.2 407.7L486.4 401.6L487.6 395.4L488.7 389.3L489.8 383.1L490.9 377L491.9 370.9L492.8 364.8L493.8 358.7L494.6 352.7L495.4 346.6L496.2 340.6L497 334.6L497.6 328.6L498.3 322.7L498.9 316.8L499.5 310.9L500 305L500.4 299.2L500.9 293.4L501.2 287.6L501.6 281.9L501.9 276.2L502.1 270.5L502.3 264.9L502.5 259.3L502.6 253.8L502.7 248.3L502.8 242.8L502.8 237.4L502.7 232L502.6 226.7L502.5 221.4L502.4 216.2L502.2 211L501.9 205.9L501.6 200.9L501.3 195.8L501 190.9L500.6 186L500.2 181.2L499.7 176.4L499.2 171.7L498.7 167L498.1 162.4L497.5 157.9L496.9 153.4L496.2 149L495.5 144.7L494.8 140.4L494 136.2L493.2 132.1L492.4 128L491.5 124L490.7 120.1L489.7 116.3L488.8 112.5L487.9 108.8L486.9 105.2L485.9 101.6L484.8 98.2L483.8 94.8L482.7 91.5L481.6 88.3L480.5 85.1L479.3 82L478.2 79.1L477 76.2L475.8 73.3L474.6 70.6L473.4 67.9L472.1 65.4L470.9 62.9L469.6 60.5L468.3 58.2L467 56L465.7 53.8L464.4 51.8L463.1 49.8L461.8 48L460.4 46.2L459.1 44.5L457.7 42.9L456.4 41.4L455 40L453.7 38.6L452.3 37.4L450.9 36.3L449.6 35.2L448.2 34.2L446.9 33.4L445.5 32.6L444.2 31.9L442.8 31.3L441.5 30.8L440.1 30.4L438.8 30.1L437.5 29.8L436.2 29.7L434.9 29.7L433.6 29.7L432.3 29.8L431.1 30.1L429.8 30.4L428.6 30.8L427.4 31.3L426.2 31.9L425 32.6L423.9 33.4L422.7 34.2L421.6 35.2L420.5 36.3L419.4 37.4L418.4 38.6L417.3 39.9L416.3 41.3L415.4 42.8L414.4 44.4L413.5 46.1L412.6 47.8L411.7 49.7L410.9 51.6L410.1 53.6L409.3 55.7L408.5 57.9L407.8 60.1L407.1 62.5L406.5 64.9L405.9 67.4L405.3 70L404.8 72.6L404.3 75.4L403.8 78.2L403.4 81.1L403 84L402.6 87.1L402.3 90.2L402.1 93.4L401.8 96.7L401.6 100L401.5 103.4L401.4 106.9L401.3 110.5L401.3 114.1L401.4 117.8L401.4 121.5L401.6 125.4L401.7 129.2L402 133.2L402.2 137.2L402.5 141.3L402.9 145.4L403.3 149.6L403.8 153.8L404.3 158.1L404.8 162.5L405.4 166.9L406.1 171.4L406.8 175.9L407.5 180.5L408.3 185.1L409.2 189.8L410.1 194.5L411.1 199.3L412.1 204.1L413.1 208.9L414.2 213.8L415.4 218.8L416.6 223.8L417.9 228.8L419.2 233.8L420.6 238.9L422 244.1L423.5 249.2L425 254.4L426.6 259.6L428.2 264.9L429.9 270.2L431.7 275.5L433.4 280.8L435.3 286.2L437.2 291.6L439.1 297L441.1 302.4L443.2 307.9L445.3 313.3L447.4 318.8L449.6 324.3L451.9 329.8L454.2 335.4L456.5 340.9L458.9 346.5L461.4 352L463.9 357.6L466.4 363.1L469 368.7L471.6 374.3L474.3 379.9L477.1 385.5L479.8 391L482.7 396.6L485.5 402.2L488.4 407.8L491.4 413.3L494.4 418.9L497.4 424.4L500.5 430L503.6 435.5L506.8 441L510 446.5L513.3 452L516.5 457.5L519.9 462.9L523.2 468.4L526.6 473.8L530.1 479.2L533.5 484.5L537 489.9L540.6 495.2L544.1 500.5L547.7 505.8L551.4 511L555 516.2L558.7 521.4L562.4 526.6L566.2 531.7L569.9 536.8L573.7 541.8L577.6 546.9L581.4 551.8L585.3 556.8L589.2 561.7L593.1 566.5L597 571.4L601 576.1L605 580.9L608.9 585.6L612.9 590.2L617 594.8L621 599.4L625 603.9L629.1 608.3L633.2 612.7L637.2 617.1L641.3 621.4L645.4 625.6L649.5 629.8L653.6 634L657.7 638.1L661.8 642.1L666 646.1L670.1 650L674.2 653.9L678.3 657.7L682.4 661.5L686.5 665.2L690.6 668.8L694.7 672.4L698.8 675.9L702.9 679.3L706.9 682.7L711 686.1L715 689.3L719.1 692.5L723.1 695.7L727.1 698.7L731.1 701.7L735 704.7L739 707.6L742.9 710.4L746.8 713.1L750.7 715.8L754.5 718.4L758.4 721L762.2 723.4L766 725.8L769.7 728.2L773.4 730.5L777.1 732.7L780.8 734.8L784.4 736.9L788 738.9L791.5 740.8L795.1 742.7L798.5 744.5L802 746.2L805.4 747.9L808.7 749.5L812 751L815.3 752.4L818.5 753.8L821.7 755.1L824.9 756.4L827.9 757.5L831 758.7L834 759.7L836.9 760.7L839.8 761.6L842.6 762.4L845.4 763.2L848.1 763.9L850.8 764.5L853.4 765.1L856 765.6L858.5 766.1L860.9 766.5L863.3 766.8L865.6 767L867.8 767.2L870 767.3L872.1 767.4L874.2 767.4L876.2 767.3L878.1 767.2L880 767L881.8 766.7L883.5 766.4L885.1 766.1L886.7 765.6L888.2 765.2L889.7 764.6L891 764L892.3 763.4L893.6 762.7L894.7 761.9L895.8 761.1L896.8 760.2L897.7 759.3L898.5 758.3L899.3 757.3L900 756.2L900.6 755.1L901.1 753.9L901.6 752.7L901.9 751.4L902.2 750.1L902.4 748.7L902.6 747.3L902.6 745.8L902.6 744.3L902.5 742.8L902.3 741.2L902 739.6L901.6 737.9L901.2 736.2L900.6 734.5L900 732.7L899.3 730.9L898.6 729.1L897.7 727.2L896.8 725.3L895.7 723.3L894.6 721.4L893.4 719.4L892.1 717.3L890.8 715.3L889.3 713.2L887.8 711.1L886.2 708.9L884.5 706.8L882.7 704.6L880.8 702.4L878.9 700.1L876.8 697.9L874.7 695.6L872.5 693.3L870.2 691L867.9 688.7L865.4 686.4L862.9 684L860.3 681.7L857.6 679.3L854.8 676.9L852 674.5L849 672.1L846 669.7L842.9 667.3L839.8 664.9L836.5 662.4L833.2 660L829.8 657.6L826.3 655.1L822.8 652.7L819.2 650.2L815.5 647.8L811.7 645.4L807.8 642.9L803.9 640.5L799.9 638.1L795.9 635.7L791.8 633.3L787.6 630.9L783.3 628.5L779 626.1L774.6 623.7L770.1 621.4L765.6 619L761 616.7L756.3 614.3L751.6 612L746.8 609.8L742 607.5L737.1 605.2L732.1 603L727.1 600.8L722 598.6L716.9 596.4L711.7 594.2L706.5 592.1L701.2 590L695.9 587.9L690.5 585.9L685 583.8L679.5 581.8L674 579.8L668.4 577.9L662.8 576L657.2 574.1L651.5 572.2L645.7 570.4L639.9 568.6L634.1 566.8L628.2 565.1L622.4 563.3L616.4 561.7L610.5 560L604.5 558.4L598.5 556.9L592.4 555.3L586.3 553.8L580.2 552.3L574.1 550.9L567.9 549.5L561.8 548.2L555.6 546.9L549.3 545.6L543.1 544.3L536.9 543.1L530.6 542L524.3 540.9L518 539.8L511.7 538.8L505.4 537.8L499.1 536.8L492.8 535.9L486.4 535L480.1 534.2L473.8 533.4L467.4 532.6L461.1 531.9L454.7 531.2L448.4 530.6L442.1 530L435.7 529.5L429.4 529L423.1 528.5L416.8 528.1L410.5 527.8L404.2 527.4L398 527.1L391.7 526.9L385.5 526.7L379.3 526.5L373.1 526.4L366.9 526.3L360.8 526.3L354.7 526.3L348.6 526.3L342.5 526.4L336.5 526.6L330.5 526.7L324.5 526.9L318.5 527.2L312.6 527.5L306.8 527.8L300.9 528.2L295.1 528.6L289.4 529L283.6 529.5L277.9 530L272.3 530.6L266.7 531.2L261.2 531.8L255.7 532.5L250.2 533.2L244.8 533.9L239.4 534.7L234.1 535.5L228.9 536.3L223.7 537.2L218.5 538.1L213.5 539L208.4 540L203.5 541L198.6 542L193.7 543.1L188.9 544.2L184.2 545.3L179.5 546.4L174.9 547.6L170.4 548.8L165.9 550L161.5 551.2L157.2 552.5L152.9 553.8L148.8 555.1L144.6 556.4L140.6 557.8L136.6 559.1L132.7 560.5L128.9 561.9L125.1 563.4L121.5 564.8L117.9 566.3L114.4 567.8L110.9 569.2L107.6 570.7L104.3 572.3L101.1 573.8L98 575.3L94.9 576.9L92 578.4L89.1 580L86.3 581.6L83.6 583.2L81 584.7L78.5 586.3L76 587.9L73.7 589.5L71.4 591.1L69.2 592.7L67.1 594.3L65.1 595.9L63.2 597.5L61.4 599.1L59.6 600.7L58 602.3L56.4 603.8L54.9 605.4L53.5 607L52.2 608.5L51 610.1L49.9 611.6L48.9 613.1L47.9 614.6L47.1 616.1L46.3 617.6L45.7 619.1L45.1 620.5L44.6 621.9L44.2 623.4L43.9 624.8L43.7 626.1L43.5 627.5L43.5 628.8L43.6 630.1L43.7 631.4L43.9 632.7L44.3 633.9L44.7 635.1L45.2 636.3L45.8 637.5L46.4 638.6L47.2 639.7L48.1 640.8L49 641.8L50 642.8L51.1 643.8L52.3 644.7L53.6 645.6L55 646.5L56.4 647.3L58 648.1L59.6 648.9L61.3 649.6L63.1 650.3L64.9 650.9L66.9 651.5L68.9 652.1L71 652.6L73.2 653L75.5 653.5L77.8 653.9L80.2 654.2L82.7 654.5L85.3 654.7L87.9 654.9L90.6 655.1L93.4 655.2L96.3 655.3L99.2 655.3L102.2 655.2L105.3 655.1L108.4 655L111.6 654.8L114.9 654.6L118.2 654.3L121.6 653.9L125.1 653.5L128.6 653.1L132.2 652.6L135.9 652L139.6 651.4L143.3 650.7L147.2 650L151 649.2L155 648.4L159 647.5L163 646.5L167.1 645.5L171.2 644.5L175.4 643.4L179.7 642.2L183.9 641L188.3 639.7L192.7 638.3L197.1 636.9L201.5 635.5L206.1 634L210.6 632.4L215.2 630.8L219.8 629.1L224.5 627.3L229.1 625.5L233.9 623.7L238.6 621.8L243.4 619.8L248.2 617.8L253.1 615.7L258 613.5L262.9 611.3L267.8 609.1L272.7 606.8L277.7 604.4L282.7 602L287.7 599.5L292.7 597L297.8 594.4L302.9 591.7L307.9 589L313 586.3L318.1 583.5L323.2 580.6L328.4 577.7L333.5 574.7L338.6 571.7L343.8 568.7L348.9 565.5L354.1 562.4L359.2 559.2L364.4 555.9L369.5 552.6L374.7 549.2L379.8 545.8L385 542.4L390.1 538.9L395.2 535.3L400.3 531.7L405.5 528.1L410.6 524.4L415.6 520.7L420.7 516.9L425.8 513.1L430.8 509.3L435.8 505.4L440.9 501.5L445.8 497.5L450.8 493.5L455.8 489.5L460.7 485.4L465.6 481.3L470.5 477.2L475.3 473L480.1 468.8L484.9 464.6L489.7 460.4L494.4 456.1L499.1 451.8L503.8 447.4L508.4 443.1L513 438.7L517.6 434.2L522.1 429.8L526.6 425.3L531.1 420.9L535.5 416.4L539.9 411.8L544.2 407.3L548.5 402.8L552.8 398.2L557 393.6L561.2 389L565.3 384.4L569.4 379.8L573.4 375.2L577.4 370.5L581.3 365.9L585.2 361.3L589 356.6L592.8 352L596.5 347.3L600.2 342.6L603.8 338L607.4 333.3L610.9 328.7L614.4 324L617.8 319.4L621.1 314.7L624.4 310.1L627.7 305.5L630.9 300.9L634 296.3L637.1 291.7L640.1 287.1L643 282.6L645.9 278L648.8 273.5L651.5 269L654.2 264.5L656.9 260L659.5 255.6L662 251.2L664.5 246.8L666.9 242.4L669.2 238.1L671.5 233.7L673.8 229.5L675.9 225.2L678 221L680 216.8L682 212.6L683.9 208.5L685.8 204.4L687.6 200.4L689.3 196.4L690.9 192.4L692.5 188.5L694.1 184.6L695.5 180.8L696.9 177L698.3 173.3L699.6 169.6L700.8 165.9L701.9 162.3L703 158.8L704.1 155.3L705 151.8L705.9 148.4L706.8 145.1L707.6 141.8L708.3 138.6L708.9 135.4L709.6 132.3L710.1 129.3L710.6 126.3L711 123.4L711.4 120.5L711.7 117.7L711.9 115L712.1 112.4L712.3 109.8L712.4 107.2L712.4 104.8L712.3 102.4L712.3 100L712.1 97.8L711.9 95.6L711.7 93.5L711.4 91.5L711 89.5L710.6 87.6L710.2 85.8L709.7 84.1L709.1 82.4L708.5 80.9L707.9 79.3L707.2 77.9L706.4 76.6L705.7 75.3L704.8 74.1L703.9 73L703 72L702.1 71.1L701 70.2L700 69.4L698.9 68.7L697.8 68.1L696.6 67.6L695.4 67.2L694.2 66.8L692.9 66.6L691.6 66.4L690.2 66.3L688.8 66.3L687.4 66.3L686 66.5L684.5 66.8L683 67.1L681.5 67.5L679.9 68L678.3 68.6L676.7 69.3L675 70.1L673.4 71L671.7 71.9L670 72.9L668.2 74.1L666.5 75.3L664.7 76.6L662.9 78L661.1 79.4L659.2 81L657.4 82.6L655.5 84.4L653.7 86.2L651.8 88.1L649.9 90.1L648 92.2L646 94.4L644.1 96.6L642.2 98.9L640.2 101.4L638.3 103.9L636.3 106.5L634.4 109.1L632.4 111.9L630.4 114.7L628.5 117.7L626.5 120.7L624.5 123.8L622.6 126.9L620.6 130.2L618.6 133.5L616.7 136.9L614.7 140.4L612.8 143.9L610.9 147.6L608.9 151.3L607 155.1L605.1 158.9L603.2 162.9L601.3 166.9L599.5 171L597.6 175.1L595.8 179.3L593.9 183.6L592.1 188L590.3 192.4L588.5 196.9L586.8 201.5L585 206.1L583.3 210.8L581.6 215.6L579.9 220.4L578.3 225.3L576.6 230.2L575 235.2L573.4 240.3L571.9 245.4L570.4 250.6L568.8 255.8L567.4 261.1L565.9 266.4L564.5 271.8L563.1 277.3L561.7 282.7L560.4 288.3L559.1 293.9L557.8 299.5L556.6 305.2L555.4 310.9L554.2 316.6L553.1 322.4L552 328.3L550.9 334.1L549.9 340.1L548.9 346L547.9 352L547 358L546.1 364L545.3 370.1L544.4 376.2L543.7 382.4L542.9 388.5L542.2 394.7L541.6 400.9L541 407.2L540.4 413.4L539.8 419.7L539.3 426L538.9 432.3L538.5 438.6L538.1 444.9L537.7 451.3L537.5 457.6L537.2 464L537 470.4L536.8 476.8L536.7 483.1L536.6 489.5L536.5 495.9L536.5 502.3L536.6 508.7L536.7 515.1L536.8 521.5L536.9 527.9L537.1 534.3L537.4 540.6L537.7 547L538 553.3L538.4 559.7L538.8 566L539.2 572.3L539.7 578.6L540.2 584.9L540.8 591.1L541.4 597.4L542 603.6L542.7 609.8L543.5 615.9L544.2 622.1L545 628.2L545.9 634.3L546.7 640.3L547.7 646.4L548.6 652.4L549.6 658.3L550.6 664.2L551.7 670.1L552.8 676L553.9 681.8L555.1 687.6L556.3 693.3L557.5 699L558.8 704.6L560 710.2L561.4 715.7L562.7 721.3L564.1 726.7L565.5 732.1L567 737.5L568.4 742.8L569.9 748L571.5 753.2L573 758.3L574.6 763.4L576.2 768.4L577.8 773.4L579.5 778.3L581.1 783.1L582.8 787.9L584.6 792.6L586.3 797.2L588 801.8L589.8 806.3L591.6 810.8L593.4 815.2L595.2 819.5L597.1 823.7L598.9 827.9L600.8 832L602.7 836L604.6 840L606.5 843.9L608.4 847.7L610.3 851.4L612.3 855.1L614.2 858.7L616.2 862.2L618.1 865.6L620.1 868.9L622 872.2L624 875.4L626 878.5L627.9 881.5L629.9 884.5L631.9 887.3L633.8 890.1L635.8 892.8L637.7 895.4L639.7 898L641.6 900.4L643.6 902.8L645.5 905L647.4 907.2L649.3 909.3L651.3 911.3L653.1 913.3L655 915.1L656.9 916.9L658.7 918.6L660.6 920.1L662.4 921.6L664.2 923.1L666 924.4L667.7 925.6L669.5 926.8L671.2 927.8L672.9 928.8L674.6 929.7L676.2 930.5L677.9 931.2L679.5 931.8L681 932.3L682.6 932.8L684.1 933.2L685.6 933.4L687 933.6L688.5 933.7L689.8 933.7L691.2 933.7L692.5 933.5L693.8 933.3L695.1 932.9L696.3 932.5L697.5 932L698.6 931.4L699.7 930.8L700.8 930L701.8 929.2L702.8 928.3L703.7 927.3L704.6 926.2L705.4 925L706.2 923.8L707 922.5L707.7 921L708.4 919.6L709 918L709.5 916.4L710.1 914.7L710.5 912.9L710.9 911L711.3 909.1L711.6 907.1L711.9 905L712.1 902.8L712.2 900.6L712.3 898.3L712.4 895.9L712.4 893.5L712.3 890.9L712.2 888.4L712 885.7L711.8 883L711.5 880.2L711.1 877.4L710.7 874.5L710.2 871.5L709.7 868.5L709.1 865.4L708.5 862.3L707.8 859.1L707 855.8L706.2 852.5L705.3 849.1L704.3 845.7L703.3 842.2L702.2 838.7L701.1 835.1L699.9 831.4L698.6 827.8L697.3 824L695.9 820.2L694.5 816.4L693 812.6L691.4 808.7L689.7 804.7L688 800.7L686.3 796.7L684.4 792.6L682.5 788.5L680.6 784.4L678.6 780.2L676.5 776L674.4 771.7L672.1 767.4L669.9 763.1L667.6 758.8L665.2 754.4L662.7 750L660.2 745.6L657.6 741.2L655 736.7L652.3 732.3L649.5 727.7L646.7 723.2L643.8 718.7L640.9 714.1L637.9 709.6L634.8 705L631.7 700.4L628.6 695.8L625.3 691.2L622.1 686.5L618.7 681.9L615.3 677.2L611.9 672.6L608.4 667.9L604.8 663.3L601.2 658.6L597.5 654L593.8 649.3L590 644.7L586.2 640L582.4 635.4L578.4 630.7L574.5 626.1L570.5 621.5L566.4 616.8L562.3 612.2L558.1 607.6L553.9 603.1L549.7 598.5L545.4 593.9L541.1 589.4L536.7 584.9L532.3 580.4L527.9 575.9L523.4 571.4L518.9 567L514.3 562.5L509.7 558.2L505.1 553.8L500.4 549.4L495.7 545.1L491 540.8L486.2 536.5L481.5 532.3L476.6 528.1L471.8 523.9L466.9 519.8L462 515.7L457.1 511.6L452.2 507.6L447.2 503.6L442.2 499.6L437.2 495.7L432.2 491.8L427.2 487.9L422.1 484.1L417 480.3L412 476.6L406.9 472.9L401.8 469.3L396.6 465.7L391.5 462.1L386.4 458.6L381.2 455.1L376.1 451.7L370.9 448.3L365.8 445L360.6 441.7L355.5 438.5L350.3 435.3L345.2 432.2L340 429.1L334.9 426.1L329.8 423.1L324.6 420.2L319.5 417.3L314.4 414.5L309.3 411.7L304.3 409L299.2 406.3L294.1 403.7L289.1 401.2L284.1 398.7L279.1 396.3L274.1 393.9L269.1 391.6L264.2 389.3L259.3 387.1L254.4 384.9L249.6 382.8L244.7 380.8L239.9 378.8L235.2 376.8L230.4 375L225.7 373.1L221.1 371.4L216.4 369.7L211.8 368L207.3 366.5L202.8 364.9L198.3 363.4L193.9 362L189.5 360.7L185.1 359.4L180.8 358.1L176.6 356.9L172.4 355.8L168.2 354.7L164.1 353.7L160.1 352.8L156.1 351.9L152.1 351L148.2 350.2L144.4 349.5L140.6 348.8L136.9 348.2L133.2 347.6L129.6 347.1L126.1 346.6L122.6 346.2L119.2 345.8L115.8 345.5L112.5 345.3L109.3 345.1L106.1 344.9L103 344.8L100 344.7L97.1 344.7L94.2 344.8L91.4 344.9L88.7 345L86 345.2L83.4 345.4L80.9 345.7L78.5 346L76.1 346.4L73.8 346.8L71.6 347.3L69.5 347.8L67.4 348.3L65.5 348.9L63.6 349.6L61.8 350.2L60.1 350.9L58.4 351.7L56.9 352.5L55.4 353.3L54 354.1L52.7 355L51.5 356L50.3 356.9L49.3 357.9L48.3 358.9L47.4 360L46.7 361.1L45.9 362.2L45.3 363.4L44.8 364.5L44.4 365.7L44 367L43.8 368.2L43.6 369.5L43.5 370.8L43.5 372.1L43.6 373.5L43.8 374.9L44.1 376.3L44.5 377.7L44.9 379.1L45.5 380.5L46.1 382L46.9 383.5L47.7 385L48.6 386.5L49.6 388L50.7 389.5L51.9 391.1L53.2 392.6L54.5 394.2L56 395.7L57.5 397.3L59.1 398.9L60.9 400.5L62.7 402.1L64.6 403.7L66.6 405.3L68.6 406.9L70.8 408.5L73 410.1L75.4 411.6L77.8 413.2L80.3 414.8L82.9 416.4L85.6 418L88.3 419.6L91.2 421.1L94.1 422.7L97.1 424.2L100.2 425.8L103.4 427.3L106.7 428.8L110 430.3L113.4 431.8L116.9 433.3L120.5 434.8L124.1 436.2L127.9 437.7L131.7 439.1L135.5 440.5L139.5 441.9L143.5 443.2L147.6 444.6L151.8 445.9L156 447.2L160.3 448.4L164.7 449.7L169.2 450.9L173.7 452.1L178.3 453.3L182.9 454.4L187.6 455.5L192.4 456.6L197.2 457.7L202.1 458.7L207.1 459.7L212.1 460.7L217.1 461.7L222.3 462.6L227.5 463.4L232.7 464.3L238 465.1L243.3 465.9L248.7 466.6L254.2 467.3L259.6 468L265.2 468.7L270.8 469.3L276.4 469.8L282.1 470.4L287.8 470.9L293.5 471.3L299.3 471.7L305.2 472.1L311 472.4L316.9 472.7L322.9 473L328.8 473.2L334.8 473.4L340.9 473.5L346.9 473.6L353 473.7L359.1 473.7L365.3 473.7L371.4 473.6L377.6 473.5L383.8 473.4L390 473.2L396.3 472.9L402.5 472.7L408.8 472.3L415.1 472L421.4 471.6L427.7 471.1L434 470.6L440.3 470.1L446.7 469.5L453 468.9L459.3 468.3L465.7 467.6L472 466.8L478.4 466.1L484.7 465.2L491 464.4L497.4 463.5L503.7 462.5L510 461.5L516.3 460.5L522.6 459.4L528.9 458.3L535.1 457.2L541.4 456L547.6 454.8L553.9 453.5L560.1 452.2L566.2 450.8L572.4 449.5L578.5 448L584.7 446.6L590.7 445.1L596.8 443.6L602.8 442L608.8 440.4L614.8 438.8L620.7 437.1L626.6 435.4L632.5 433.7L638.3 431.9L644.1 430.1L649.9 428.3L655.6 426.4L661.3 424.6L666.9 422.6L672.5 420.7L678 418.7L683.5 416.7L689 414.7L694.4 412.6L699.7 410.6L705 408.5L710.3 406.3L715.5 404.2L720.6 402L725.7 399.8L730.7 397.6L735.7 395.4L740.6 393.1L745.5 390.9L750.3 388.6L755 386.3L759.7 384L764.3 381.6L768.9 379.3L773.3 376.9L777.8 374.6L782.1 372.2L786.4 369.8L790.6 367.4L794.8 365L798.8 362.6L802.8 360.2L806.8 357.7L810.6 355.3L814.4 352.9L818.2 350.4L821.8 348L825.4 345.5L828.9 343.1L832.3 340.7L835.6 338.2L838.9 335.8L842.1 333.4L845.2 331L848.2 328.6L851.2 326.1L854 323.7L856.8 321.4L859.5 319L862.2 316.6L864.7 314.3L867.2 311.9L869.6 309.6L871.9 307.3L874.1 305L876.2 302.7L878.3 300.5L880.3 298.2L882.2 296L884 293.8L885.7 291.7L887.3 289.5L888.9 287.4L890.4 285.3L891.8 283.2L893.1 281.2L894.3 279.2L895.4 277.2L896.5 275.2L897.4 273.3L898.3 271.4L899.1 269.6L899.9 267.8L900.5 266L901 264.2L901.5 262.5L901.9 260.8L902.2 259.2L902.4 257.6L902.6 256.1L902.6 254.6L902.6 253.1L902.5 251.7L902.3 250.3L902 249L901.7 247.7L901.2 246.4L900.7 245.3L900.1 244.1L899.5 243L898.7 242L897.9 241L897 240L896 239.2L895 238.3L893.9 237.5L892.7 236.8L891.4 236.2L890.1 235.5L888.6 235L887.1 234.5L885.6 234L883.9 233.7L882.2 233.3L880.5 233.1L878.6 232.9L876.7 232.7L874.8 232.6L872.7 232.6L870.6 232.7L868.4 232.8L866.2 232.9L863.9 233.2L861.5 233.5L859.1 233.8L856.7 234.2L854.1 234.7L851.5 235.3L848.9 235.9L846.2 236.6L843.4 237.4L840.6 238.2L837.7 239.1L834.8 240L831.8 241L828.8 242.1L825.7 243.3L822.6 244.5L819.4 245.8L816.2 247.2L812.9 248.6L809.6 250.1L806.3 251.7L802.9 253.3L799.5 255L796 256.8L792.5 258.7L789 260.6L785.4 262.6L781.8 264.6L778.1 266.7L774.4 268.9L770.7 271.2L767 273.5L763.2 275.9L759.4 278.4L755.6 280.9L751.7 283.5L747.9 286.1L744 288.9L740.1 291.7L736.1 294.5L732.2 297.4L728.2 300.4L724.2 303.5L720.2 306.6L716.1 309.8L712.1 313L708 316.4L704 319.7L699.9 323.2L695.8 326.7L691.7 330.2L687.6 333.8L683.5 337.5L679.4 341.2L675.3 345L671.2 348.9L667.1 352.8L663 356.8L658.9 360.8L654.8 364.9L650.6 369L646.5 373.2L642.5 377.4L638.4 381.7L634.3 386.1L630.2 390.5L626.2 394.9L622.1 399.4L618.1 403.9L614 408.5L610 413.2L606 417.8L602.1 422.6L598.1 427.3L594.2 432.1L590.3 437L586.4 441.9L582.5 446.8L578.6 451.8L574.8 456.8L571 461.8L567.2 466.9L563.5 472L559.7 477.2L556 482.3L552.4 487.5L548.7 492.8L545.1 498L541.5 503.3L538 508.6L534.5 514L531 519.3L527.6 524.7L524.2 530.1L520.8 535.6L517.4 541L514.2 546.5L510.9 552L507.7 557.5L504.5 563L501.4 568.5L498.3 574L495.2 579.6L492.2 585.1L489.2 590.7L486.3 596.3L483.4 601.9L480.6 607.4L477.8 613L475.1 618.6L472.4 624.2L469.7 629.8L467.1 635.3L464.6 640.9L462 646.5L459.6 652L457.2 657.6L454.8 663.1L452.5 668.6L450.2 674.2L448 679.7L445.9 685.2L443.7 690.6L441.7 696.1L439.7 701.5L437.7 706.9L435.8 712.3L433.9 717.7L432.1 723L430.4 728.4L428.7 733.7L427 738.9L425.4 744.2L423.9 749.4L422.4 754.5L421 759.7L419.6 764.8L418.2 769.8L417 774.9L415.7 779.9L414.6 784.8L413.4 789.7L412.3 794.6L411.3 799.4L410.4 804.2L409.4 808.9L408.6 813.6L407.7 818.2L407 822.8L406.3 827.4L405.6 831.9L405 836.3L404.4 840.7L403.9 845L403.4 849.3L403 853.5L402.6 857.6L402.3 861.7L402 865.7L401.8 869.7L401.6 873.6L401.5 877.4L401.4 881.2L401.3 884.9L401.3 888.5L401.4 892.1L401.5 895.6L401.6 899L401.8 902.4L402 905.7L402.2 908.9L402.5 912.1L402.9 915.1L403.3 918.1L403.7 921L404.1 923.9L404.6 926.6L405.2 929.3L405.7 931.9L406.3 934.4L407 936.9L407.6 939.3L408.3 941.5L409.1 943.7L409.8 945.8L410.6 947.9L411.5 949.8L412.3 951.7L413.2 953.5L414.2 955.1L415.1 956.7L416.1 958.3L417.1 959.7L418.1 961L419.1 962.3L420.2 963.4L421.3 964.5L422.4 965.5L423.6 966.4L424.7 967.2L425.9 967.9L427.1 968.5L428.3 969.1L429.5 969.5L430.7 969.8L432 970.1L433.3 970.3L434.6 970.3L435.8 970.3L437.1 970.2L438.5 970L439.8 969.7L441.1 969.3L442.4 968.8L443.8 968.3L445.1 967.6L446.5 966.9L447.8 966L449.2 965.1L450.6 964L451.9 962.9L453.3 961.7L454.6 960.4L456 959L457.4 957.5L458.7 955.9L460.1 954.3L461.4 952.5L462.7 950.7L464 948.7L465.4 946.7L466.7 944.6L468 942.4L469.2 940.1L470.5 937.8L471.8 935.3L473 932.8L474.3 930.1L475.5 927.4L476.7 924.6L477.9 921.7L479 918.8L480.2 915.7L481.3 912.6L482.4 909.4L483.5 906.1L484.5 902.8L485.6 899.3L486.6 895.8L487.6 892.2L488.6 888.5L489.5 884.8L490.4 881L491.3 877.1L492.2 873.1L493 869.1L493.8 864.9L494.6 860.8L495.3 856.5L496 852.2L496.7 847.8L497.3 843.4L497.9 838.8L498.5 834.3L499.1 829.6L499.6 824.9L500 820.2L500.5 815.3L500.9 810.5L501.2 805.5L501.6 800.5L501.8 795.5L502.1 790.4L502.3 785.2L502.5 780L502.6 774.8L502.7 769.4L502.8 764.1L502.8 758.7L502.7 753.2L502.7 747.8L502.5 742.2L502.4 736.7L502.2 731L502 725.4L501.7 719.7L501.3 714L501 708.2L500.6 702.4L500.1 696.6L499.6 690.7L499.1 684.9L498.5 678.9L497.8 673L497.1 667L496.4 661L495.7 655L494.8 649L494 642.9L493.1 636.9L492.1 630.8L491.2 624.7L490.1 618.5L489.1 612.4L487.9 606.3L486.8 600.1L485.6 594L484.3 587.8L483 581.6L481.7 575.4L480.3 569.2L478.9 563.1L477.4 556.9L475.9 550.7L474.3 544.5L472.7 538.3L471.1 532.2L469.4 526L467.7 519.8L465.9 513.7L464.1 507.6L462.3 501.4L460.4 495.3L458.5 489.2L456.5 483.2L454.6 477.1L452.5 471.1L450.5 465L448.4 459L446.2 453.1L444 447.1L441.8 441.2L439.6 435.3L437.3 429.4L435 423.6L432.6 417.8L430.3 412L427.9 406.2L425.4 400.5L423 394.9L420.5 389.2L417.9 383.6L415.4 378.1L412.8 372.5L410.2 367.1L407.6 361.6L404.9 356.2L402.3 350.9L399.6 345.6L396.8 340.3L394.1 335.1L391.3 330L388.6 324.9L385.8 319.8L382.9 314.8L380.1 309.9L377.2 305L374.4 300.1L371.5 295.4L368.6 290.6L365.7 286L362.8 281.4L359.9 276.8L356.9 272.4L354 267.9L351 263.6L348.1 259.3L345.1 255L342.1 250.9L339.2 246.8L336.2 242.8L333.2 238.8L330.2 234.9L327.3 231.1L324.3 227.3L321.3 223.6L318.4 220L315.4 216.4L312.4 213L309.5 209.6L306.5 206.2L303.6 203L300.7 199.8L297.8 196.7L294.9 193.7L292 190.7L289.1 187.8L286.3 185L283.4 182.3L280.6 179.6L277.8 177L275 174.5L272.3 172.1L269.5 169.8L266.8 167.5L264.1 165.3L261.5 163.2L258.8 161.2L256.2 159.2L253.6 157.4L251.1 155.6L248.6 153.9L246.1 152.2L243.6 150.7L241.2 149.2L238.8 147.8L236.4 146.5L234.1 145.3L231.8 144.1L229.6 143L227.4 142L225.2 141.1L223.1 140.3L221 139.5L219 138.8L217 138.2L215 137.7L213.1 137.3L211.3 136.9L209.5 136.6L207.7 136.4L206 136.2L204.4 136.2L202.8 136.2L201.2 136.3L199.7 136.4L198.3 136.7L196.9 137L195.5 137.4L194.3 137.8L193 138.4L191.9 139L190.8 139.6L189.7 140.4L188.7 141.2L187.8 142.1L187 143L186.2 144.1L185.4 145.2L184.7 146.3L184.1 147.5L183.6 148.8L183.1 150.2L182.7 151.6L182.4 153.1L182.1 154.6L181.9 156.3L181.7 157.9L181.6 159.7L181.6 161.5L181.7 163.3L181.8 165.2L182 167.2L182.3 169.2L182.7 171.3L183.1 173.4L183.6 175.6L184.1 177.9L184.7 180.2L185.4 182.5L186.2 184.9L187.1 187.3L188 189.8L189 192.4L190.1 195L191.2 197.6L192.4 200.3L193.7 203L195.1 205.7L196.5 208.5L198 211.4L199.6 214.3L201.3 217.2L203 220.1L204.8 223.1L206.7 226.1L208.7 229.2L210.7 232.3L212.8 235.4L215 238.6L217.3 241.7L219.6 245L222 248.2L224.5 251.4L227 254.7L229.6 258L232.3 261.4L235.1 264.7L237.9 268.1L240.8 271.5L243.8 274.9L246.9 278.3L250 281.8L253.2 285.2L256.4 288.7L259.8 292.2L263.1 295.7L266.6 299.2L270.1 302.7L273.7 306.2L277.4 309.7L281.1 313.3L284.9 316.8L288.8 320.4L292.7 323.9L296.7 327.4L300.7 331L304.8 334.5L309 338.1L313.2 341.6L317.5 345.1L321.9 348.7L326.3 352.2L330.7 355.7L335.2 359.2L339.8 362.7L344.4 366.2L349.1 369.7L353.8 373.1L358.6 376.6L363.4 380L368.3 383.4L373.3 386.8L378.2 390.2L383.3 393.6L388.3 396.9L393.4 400.3L398.6 403.6L403.8 406.9L409 410.1L414.3 413.4L419.6 416.6L425 419.8L430.4 422.9L435.8 426.1L441.3 429.2L446.8 432.2L452.3 435.3L457.9 438.3L463.5 441.3L469.1 444.3L474.8 447.2L480.4 450.1L486.1 452.9L491.9 455.7L497.6 458.5L503.4 461.3L509.2 464L515 466.7L520.8 469.3L526.6 471.9L532.5 474.5L538.4 477L544.2 479.5L550.1 481.9L556 484.3L561.9 486.7L567.9 489L573.8 491.3L579.7 493.5L585.6 495.7L591.6 497.8L597.5 499.9L603.4 502L609.3 504L615.3 506L621.2 507.9L627.1 509.8L633 511.6L638.9 513.4L644.7 515.1L650.6 516.8L656.5 518.4L662.3 520L668.1 521.6L673.9 523.1L679.7 524.5L685.5 525.9L691.2 527.3L696.9 528.6L702.6 529.9L708.3 531.1L713.9 532.3L719.5 533.4L725.1 534.4L730.7 535.5L736.2 536.4L741.6 537.4L747.1 538.3L752.5 539.1L757.9 539.9L763.2 540.6L768.5 541.3L773.7 541.9L778.9 542.5L784.1 543.1L789.2 543.6L794.3 544.1L799.3 544.5L804.3 544.8L809.2 545.2L814.1 545.5L818.9 545.7L823.6 545.9L828.3 546L833 546.1L837.6 546.2L842.1 546.2L846.6 546.2L851 546.1L855.3 546L859.6 545.9L863.8 545.7L868 545.5L872.1 545.2L876.1 544.9L880.1 544.6L883.9 544.2L887.8 543.8L891.5 543.3L895.2 542.9L898.8 542.3L902.3 541.8L905.8 541.2L909.1 540.6L912.4 539.9L915.6 539.3L918.8 538.5L921.9 537.8L924.8 537L927.7 536.2L930.6 535.4L933.3 534.5L936 533.7L938.6 532.7L941 531.8L943.5 530.9L945.8 529.9L948 528.9L950.2 527.9L952.2 526.8L954.2 525.7L956.1 524.7L957.9 523.6L959.6 522.4L961.3 521.3L962.8 520.2L964.2 519L965.6 517.8L966.9 516.6L968 515.4L969.1 514.2L970.1 513L971 511.7L971.8 510.5L972.5 509.2L973.2 508L973.7 506.7L974.2 505.5L974.5 504.2L974.8 502.9L974.9 501.6L975 500.4L975 499.1" opacity="0.12"/></g></svg>