<svg xmlns="http://www.w3.org/2000/svg" viewBox="0 0 1000 1000" preserveAspectRatio="xMidYMid slice" fill="none" stroke-linecap="round" stroke-linejoin="round"><g stroke="#0f3d2e" stroke-width="0.7"><path d="M975 500L975 499L974.8 498L974.6 497L974.3 496L974 494.9L973.5 493.9L973 492.9L972.4 491.9L971.7 491L970.9 490L970 489L969.1 488L968.1 487.1L967 486.1L965.8 485.2L964.5 484.2L963.2 483.3L961.8 482.4L960.3 481.5L958.7 480.6L957 479.7L955.3 478.9L953.5 478L951.6 477.2L949.6 476.4L947.6 475.6L945.5 474.8L943.3 474L941 473.2L938.6 472.5L936.2 471.8L933.7 471.1L931.1 470.4L928.5 469.8L925.8 469.1L923 468.5L920.1 467.9L917.2 467.3L914.2 466.8L911.1 466.3L908 465.8L904.8 465.3L901.5 464.9L898.2 464.4L894.8 464L891.3 463.7L887.8 463.3L884.2 463L880.5 462.7L876.8 462.4L873 462.2L869.1 462L865.2 461.8L861.2 461.7L857.2 461.6L853.1 461.5L849 461.4L844.8 461.4L840.5 461.4L836.2 461.5L831.9 461.5L827.4 461.6L823 461.8L818.5 461.9L813.9 462.1L809.3 462.4L804.6 462.7L799.9 463L795.1 463.3L790.3 463.7L785.5 464.1L780.6 464.5L775.7 465L770.7 465.5L765.7 466.1L760.6 466.7L755.5 467.3L750.4 467.9L745.3 468.6L740.1 469.4L734.8 470.1L729.6 470.9L724.3 471.8L718.9 472.7L713.6 473.6L708.2 474.5L702.8 475.5L697.3 476.5L691.9 477.6L686.4 478.7L680.9 479.8L675.3 481L669.8 482.2L664.2 483.4L658.6 484.7L653 486L647.4 487.3L641.7 488.7L636.1 490.1L630.4 491.6L624.7 493.1L619 494.6L613.3 496.2L607.6 497.8L601.9 499.4L596.2 501.1L590.4 502.8L584.7 504.5L579 506.3L573.2 508.1L567.5 509.9L561.7 511.8L556 513.7L550.3 515.6L544.5 517.6L538.8 519.5L533.1 521.6L527.4 523.6L521.7 525.7L516 527.8L510.3 530L504.6 532.2L498.9 534.4L493.3 536.6L487.6 538.8L482 541.1L476.4 543.5L470.8 545.8L465.3 548.2L459.7 550.6L454.2 553L448.7 555.4L443.2 557.9L437.7 560.4L432.3 562.9L426.9 565.4L421.5 568L416.2 570.6L410.8 573.2L405.5 575.8L400.3 578.4L395.1 581.1L389.9 583.8L384.7 586.5L379.6 589.2L374.5 591.9L369.4 594.6L364.4 597.4L359.4 600.2L354.5 603L349.6 605.8L344.7 608.6L339.9 611.4L335.1 614.2L330.4 617.1L325.7 619.9L321 622.8L316.4 625.7L311.9 628.6L307.4 631.5L302.9 634.3L298.5 637.2L294.2 640.1L289.9 643L285.6 646L281.4 648.9L277.2 651.8L273.1 654.7L269.1 657.6L265.1 660.5L261.2 663.4L257.3 666.3L253.5 669.2L249.7 672.1L246 675L242.3 677.9L238.7 680.8L235.2 683.7L231.7 686.5L228.3 689.4L225 692.2L221.7 695.1L218.4 697.9L215.3 700.7L212.2 703.5L209.1 706.3L206.1 709L203.2 711.8L200.4 714.5L197.6 717.2L194.9 719.9L192.2 722.6L189.6 725.3L187.1 727.9L184.6 730.6L182.2 733.1L179.9 735.7L177.6 738.3L175.4 740.8L173.3 743.3L171.2 745.8L169.2 748.2L167.3 750.6L165.4 753L163.6 755.4L161.9 757.7L160.3 760L158.7 762.3L157.2 764.5L155.7 766.7L154.3 768.9L153 771L151.8 773.1L150.6 775.2L149.5 777.2L148.4 779.2L147.4 781.1L146.5 783L145.7 784.9L144.9 786.7L144.2 788.5L143.6 790.2L143 791.9L142.5 793.6L142.1 795.2L141.7 796.8L141.4 798.3L141.2 799.8L141 801.2L140.9 802.6L140.9 803.9L140.9 805.2L141 806.4L141.1 807.6L141.4 808.7L141.7 809.8L142 810.9L142.4 811.8L142.9 812.8L143.4 813.6L144 814.5L144.7 815.2L145.4 815.9L146.2 816.6L147 817.2L147.9 817.8L148.9 818.2L149.9 818.7L151 819.1L152.2 819.4L153.3 819.6L154.6 819.8L155.9 820L157.3 820.1L158.7 820.1L160.2 820L161.7 819.9L163.3 819.8L164.9 819.6L166.6 819.3L168.3 819L170.1 818.6L172 818.1L173.9 817.6L175.8 817L177.8 816.3L179.8 815.6L181.9 814.8L184 814L186.2 813.1L188.4 812.1L190.7 811.1L193 810L195.3 808.8L197.7 807.6L200.1 806.3L202.6 805L205.1 803.6L207.7 802.1L210.3 800.6L212.9 799L215.5 797.3L218.2 795.6L221 793.8L223.7 791.9L226.5 790L229.3 788L232.2 786L235.1 783.9L238 781.7L240.9 779.5L243.9 777.2L246.9 774.8L249.9 772.4L253 769.9L256.1 767.4L259.2 764.7L262.3 762.1L265.4 759.4L268.6 756.6L271.8 753.7L275 750.8L278.2 747.8L281.5 744.8L284.7 741.7L288 738.6L291.3 735.4L294.6 732.1L297.9 728.8L301.2 725.4L304.6 722L307.9 718.5L311.3 715L314.6 711.4L318 707.7L321.4 704L324.8 700.3L328.2 696.5L331.6 692.6L335 688.7L338.4 684.8L341.8 680.7L345.2 676.7L348.6 672.6L352 668.4L355.4 664.2L358.8 660L362.2 655.7L365.6 651.3L369 646.9L372.4 642.5L375.8 638L379.2 633.5L382.5 629L385.9 624.4L389.2 619.7L392.6 615.1L395.9 610.3L399.2 605.6L402.5 600.8L405.8 596L409.1 591.1L412.3 586.2L415.6 581.3L418.8 576.3L422 571.3L425.2 566.3L428.4 561.3L431.5 556.2L434.7 551.1L437.8 545.9L440.9 540.8L444 535.6L447 530.4L450.1 525.1L453.1 519.9L456 514.6L459 509.3L461.9 504L464.8 498.6L467.7 493.3L470.6 487.9L473.4 482.5L476.2 477.1L479 471.7L481.7 466.3L484.4 460.9L487.1 455.4L489.7 450L492.4 444.5L494.9 439.1L497.5 433.6L500 428.1L502.5 422.6L505 417.1L507.4 411.7L509.8 406.2L512.1 400.7L514.4 395.2L516.7 389.7L519 384.3L521.2 378.8L523.4 373.3L525.5 367.9L527.6 362.4L529.7 357L531.7 351.5L533.7 346.1L535.6 340.7L537.6 335.3L539.4 330L541.3 324.6L543.1 319.3L544.8 313.9L546.6 308.6L548.2 303.4L549.9 298.1L551.5 292.8L553 287.6L554.6 282.4L556.1 277.3L557.5 272.1L558.9 267L560.3 261.9L561.6 256.9L562.9 251.9L564.1 246.9L565.3 241.9L566.5 237L567.6 232.1L568.7 227.3L569.7 222.5L570.7 217.7L571.7 213L572.6 208.3L573.5 203.6L574.4 199L575.2 194.4L575.9 189.9L576.7 185.4L577.3 181L578 176.6L578.6 172.3L579.2 168L579.7 163.7L580.2 159.6L580.7 155.4L581.1 151.3L581.5 147.3L581.8 143.3L582.1 139.4L582.4 135.5L582.6 131.7L582.8 128L583 124.3L583.1 120.7L583.2 117.1L583.3 113.6L583.3 110.1L583.3 106.7L583.3 103.4L583.2 100.1L583.1 96.9L582.9 93.8L582.8 90.7L582.6 87.7L582.3 84.8L582.1 82L581.8 79.2L581.4 76.4L581.1 73.8L580.7 71.2L580.3 68.7L579.9 66.2L579.4 63.9L578.9 61.6L578.4 59.3L577.8 57.2L577.3 55.1L576.7 53.1L576.1 51.2L575.4 49.3L574.8 47.5L574.1 45.8L573.4 44.2L572.6 42.7L571.9 41.2L571.1 39.8L570.3 38.5L569.5 37.3L568.7 36.1L567.9 35L567 34L566.1 33.1L565.2 32.3L564.3 31.5L563.4 30.9L562.5 30.3L561.5 29.8L560.5 29.3L559.6 29L558.6 28.7L557.6 28.5L556.6 28.4L555.6 28.4L554.5 28.4L553.5 28.6L552.5 28.8L551.4 29.1L550.3 29.5L549.3 29.9L548.2 30.5L547.2 31.1L546.1 31.8L545 32.6L543.9 33.5L542.8 34.4L541.8 35.5L540.7 36.6L539.6 37.8L538.5 39L537.5 40.4L536.4 41.8L535.3 43.3L534.2 44.9L533.2 46.6L532.1 48.4L531.1 50.2L530 52.1L529 54.1L527.9 56.2L526.9 58.3L525.9 60.5L524.9 62.8L523.9 65.2L522.9 67.6L521.9 70.2L521 72.7L520 75.4L519.1 78.2L518.2 81L517.3 83.9L516.4 86.8L515.5 89.9L514.6 93L513.8 96.1L512.9 99.4L512.1 102.7L511.3 106.1L510.6 109.5L509.8 113L509.1 116.6L508.4 120.3L507.7 124L507 127.8L506.3 131.6L505.7 135.5L505.1 139.5L504.5 143.5L503.9 147.6L503.4 151.7L502.9 155.9L502.4 160.2L502 164.5L501.5 168.9L501.1 173.3L500.7 177.8L500.4 182.4L500 187L499.7 191.6L499.5 196.3L499.2 201.1L499 205.8L498.8 210.7L498.7 215.6L498.5 220.5L498.4 225.5L498.4 230.5L498.3 235.6L498.3 240.7L498.3 245.9L498.4 251.1L498.5 256.3L498.6 261.6L498.8 266.9L498.9 272.2L499.2 277.6L499.4 283L499.7 288.5L500 294L500.4 299.5L500.7 305L501.2 310.6L501.6 316.2L502.1 321.8L502.6 327.5L503.1 333.2L503.7 338.9L504.3 344.6L505 350.3L505.7 356.1L506.4 361.9L507.1 367.7L507.9 373.5L508.7 379.3L509.6 385.2L510.5 391L511.4 396.9L512.3 402.8L513.3 408.7L514.3 414.6L515.4 420.5L516.5 426.4L517.6 432.3L518.7 438.2L519.9 444.1L521.1 450.1L522.4 456L523.7 461.9L525 467.9L526.3 473.8L527.7 479.7L529.1 485.6L530.5 491.5L532 497.4L533.5 503.3L535 509.2L536.6 515.1L538.2 520.9L539.8 526.8L541.4 532.6L543.1 538.4L544.8 544.2L546.5 550L548.3 555.8L550 561.5L551.8 567.3L553.7 573L555.5 578.6L557.4 584.3L559.3 589.9L561.3 595.5L563.2 601.1L565.2 606.7L567.2 612.2L569.2 617.7L571.3 623.1L573.3 628.6L575.4 634L577.5 639.3L579.7 644.7L581.8 649.9L584 655.2L586.2 660.4L588.4 665.6L590.6 670.7L592.8 675.8L595.1 680.9L597.3 685.9L599.6 690.9L601.9 695.8L604.2 700.7L606.5 705.5L608.9 710.3L611.2 715L613.6 719.7L615.9 724.4L618.3 729L620.7 733.5L623.1 738L625.4 742.4L627.8 746.8L630.3 751.2L632.7 755.4L635.1 759.6L637.5 763.8L639.9 767.9L642.3 772L644.8 776L647.2 779.9L649.6 783.8L652 787.6L654.5 791.3L656.9 795L659.3 798.7L661.7 802.2L664.1 805.7L666.5 809.2L668.9 812.6L671.3 815.9L673.7 819.1L676.1 822.3L678.5 825.4L680.8 828.5L683.2 831.5L685.5 834.4L687.8 837.2L690.1 840L692.4 842.7L694.7 845.4L696.9 847.9L699.2 850.4L701.4 852.9L703.6 855.3L705.8 857.6L708 859.8L710.2 861.9L712.3 864L714.4 866L716.5 868L718.6 869.9L720.6 871.7L722.6 873.4L724.6 875L726.6 876.6L728.5 878.2L730.4 879.6L732.3 881L734.2 882.3L736 883.5L737.8 884.6L739.5 885.7L741.3 886.7L743 887.7L744.6 888.5L746.3 889.3L747.9 890L749.4 890.7L750.9 891.3L752.4 891.8L753.9 892.2L755.3 892.6L756.7 892.9L758 893.1L759.3 893.2L760.5 893.3L761.7 893.3L762.9 893.3L764 893.1L765.1 892.9L766.1 892.7L767.1 892.3L768.1 891.9L769 891.5L769.8 890.9L770.7 890.3L771.4 889.6L772.1 888.9L772.8 888.1L773.4 887.2L774 886.2L774.5 885.2L775 884.2L775.4 883L775.8 881.8L776.1 880.6L776.3 879.2L776.6 877.9L776.7 876.4L776.8 874.9L776.9 873.3L776.9 871.7L776.8 870L776.7 868.3L776.5 866.4L776.3 864.6L776 862.7L775.7 860.7L775.3 858.7L774.9 856.6L774.4 854.4L773.8 852.2L773.2 850L772.5 847.7L771.8 845.3L771 842.9L770.2 840.5L769.3 838L768.3 835.4L767.3 832.8L766.2 830.2L765 827.5L763.9 824.8L762.6 822L761.3 819.1L759.9 816.3L758.5 813.4L757 810.4L755.4 807.4L753.8 804.4L752.2 801.3L750.4 798.2L748.6 795.1L746.8 791.9L744.9 788.7L742.9 785.4L740.9 782.1L738.8 778.8L736.7 775.5L734.5 772.1L732.3 768.7L729.9 765.2L727.6 761.8L725.2 758.3L722.7 754.7L720.1 751.2L717.5 747.6L714.9 744L712.2 740.4L709.4 736.8L706.6 733.1L703.7 729.4L700.8 725.7L697.8 722L694.8 718.2L691.7 714.5L688.5 710.7L685.3 706.9L682.1 703.1L678.8 699.3L675.4 695.5L672 691.7L668.6 687.8L665.1 684L661.5 680.1L657.9 676.2L654.3 672.3L650.6 668.5L646.8 664.6L643 660.7L639.2 656.8L635.3 652.9L631.4 649L627.4 645.1L623.4 641.2L619.3 637.3L615.2 633.4L611.1 629.5L606.9 625.6L602.6 621.8L598.4 617.9L594.1 614L589.7 610.2L585.3 606.3L580.9 602.5L576.5 598.7L572 594.8L567.4 591L562.9 587.2L558.3 583.5L553.7 579.7L549 575.9L544.3 572.2L539.6 568.5L534.9 564.8L530.1 561.1L525.3 557.4L520.5 553.8L515.6 550.2L510.8 546.6L505.9 543L501 539.4L496 535.9L491.1 532.4L486.1 528.9L481.1 525.4L476.1 522L471 518.6L466 515.2L460.9 511.8L455.8 508.5L450.8 505.2L445.7 501.9L440.5 498.7L435.4 495.5L430.3 492.3L425.1 489.2L420 486.1L414.9 483L409.7 480L404.5 477L399.4 474L394.2 471L389 468.1L383.9 465.3L378.7 462.4L373.6 459.6L368.4 456.9L363.3 454.2L358.1 451.5L353 448.9L347.8 446.2L342.7 443.7L337.6 441.2L332.5 438.7L327.4 436.2L322.3 433.8L317.3 431.5L312.2 429.2L307.2 426.9L302.2 424.6L297.2 422.4L292.2 420.3L287.2 418.2L282.3 416.1L277.4 414.1L272.5 412.1L267.7 410.2L262.8 408.3L258 406.4L253.2 404.6L248.5 402.9L243.7 401.1L239 399.5L234.4 397.8L229.8 396.3L225.2 394.7L220.6 393.2L216.1 391.8L211.6 390.3L207.1 389L202.7 387.7L198.4 386.4L194 385.2L189.7 384L185.5 382.8L181.3 381.7L177.1 380.7L173 379.7L169 378.7L164.9 377.8L161 376.9L157 376.1L153.2 375.3L149.3 374.5L145.6 373.8L141.9 373.1L138.2 372.5L134.6 371.9L131 371.4L127.5 370.9L124.1 370.4L120.7 370L117.4 369.7L114.1 369.3L110.9 369L107.8 368.8L104.7 368.6L101.7 368.4L98.7 368.3L95.8 368.2L93 368.1L90.2 368.1L87.5 368.1L84.9 368.2L82.3 368.3L79.8 368.4L77.4 368.5L75 368.7L72.7 369L70.5 369.2L68.3 369.6L66.3 369.9L64.2 370.3L62.3 370.7L60.4 371.1L58.6 371.6L56.9 372.1L55.3 372.6L53.7 373.1L52.2 373.7L50.8 374.3L49.4 375L48.2 375.7L47 376.4L45.9 377.1L44.8 377.8L43.9 378.6L43 379.4L42.2 380.3L41.4 381.1L40.8 382L40.2 382.9L39.7 383.8L39.3 384.7L39 385.7L38.7 386.7L38.5 387.7L38.5 388.7L38.4 389.7L38.5 390.8L38.7 391.9L38.9 392.9L39.2 394.1L39.6 395.2L40 396.3L40.6 397.4L41.2 398.6L41.9 399.8L42.7 401L43.6 402.2L44.5 403.4L45.6 404.6L46.7 405.8L47.9 407L49.1 408.3L50.5 409.5L51.9 410.8L53.4 412L55 413.3L56.7 414.5L58.4 415.8L60.2 417.1L62.1 418.4L64.1 419.6L66.2 420.9L68.3 422.2L70.5 423.5L72.8 424.7L75.2 426L77.6 427.3L80.1 428.5L82.7 429.8L85.4 431.1L88.1 432.3L90.9 433.6L93.8 434.8L96.7 436L99.8 437.3L102.9 438.5L106 439.7L109.3 440.9L112.6 442.1L115.9 443.2L119.4 444.4L122.9 445.6L126.5 446.7L130.1 447.8L133.8 449L137.6 450.1L141.5 451.1L145.4 452.2L149.3 453.3L153.4 454.3L157.5 455.3L161.6 456.3L165.8 457.3L170.1 458.3L174.4 459.2L178.8 460.2L183.3 461.1L187.8 461.9L192.3 462.8L197 463.7L201.6 464.5L206.3 465.3L211.1 466.1L215.9 466.8L220.8 467.5L225.7 468.2L230.7 468.9L235.7 469.6L240.8 470.2L245.9 470.8L251 471.4L256.2 471.9L261.5 472.5L266.7 473L272.1 473.4L277.4 473.9L282.8 474.3L288.2 474.7L293.7 475L299.2 475.4L304.8 475.7L310.3 475.9L315.9 476.2L321.6 476.4L327.2 476.6L332.9 476.7L338.6 476.9L344.4 476.9L350.1 477L355.9 477L361.8 477L367.6 477L373.5 476.9L379.3 476.8L385.2 476.7L391.2 476.5L397.1 476.3L403 476.1L409 475.9L415 475.6L421 475.2L427 474.9L433 474.5L439 474.1L445 473.6L451 473.2L457.1 472.7L463.1 472.1L469.2 471.5L475.2 470.9L481.2 470.3L487.3 469.6L493.3 468.9L499.4 468.2L505.4 467.4L511.4 466.6L517.4 465.8L523.4 464.9L529.4 464L535.4 463.1L541.4 462.2L547.4 461.2L553.3 460.2L559.3 459.2L565.2 458.1L571.1 457L577 455.9L582.9 454.7L588.7 453.5L594.5 452.3L600.4 451.1L606.1 449.8L611.9 448.6L617.6 447.2L623.3 445.9L629 444.5L634.7 443.1L640.3 441.7L645.9 440.3L651.4 438.8L656.9 437.3L662.4 435.8L667.9 434.3L673.3 432.7L678.7 431.2L684 429.6L689.3 428L694.6 426.3L699.8 424.7L705 423L710.1 421.3L715.2 419.6L720.3 417.8L725.3 416.1L730.2 414.3L735.1 412.6L740 410.8L744.8 408.9L749.6 407.1L754.3 405.3L758.9 403.4L763.5 401.6L768.1 399.7L772.6 397.8L777 395.9L781.4 394L785.8 392.1L790 390.2L794.3 388.2L798.4 386.3L802.5 384.4L806.5 382.4L810.5 380.4L814.4 378.5L818.3 376.5L822.1 374.5L825.8 372.6L829.5 370.6L833.1 368.6L836.6 366.7L840.1 364.7L843.5 362.7L846.8 360.7L850.1 358.8L853.3 356.8L856.4 354.8L859.5 352.9L862.5 350.9L865.4 349L868.2 347L871 345.1L873.7 343.2L876.4 341.3L878.9 339.4L881.4 337.5L883.9 335.6L886.2 333.7L888.5 331.9L890.7 330L892.8 328.2L894.9 326.4L896.9 324.6L898.8 322.8L900.6 321L902.4 319.3L904.1 317.6L905.7 315.8L907.2 314.2L908.7 312.5L910.1 310.8L911.4 309.2L912.6 307.6L913.8 306L914.9 304.5L915.9 302.9L916.8 301.4L917.7 300L918.4 298.5L919.1 297.1L919.8 295.7L920.3 294.3L920.8 293L921.2 291.7L921.5 290.4L921.8 289.2L922 288L922.1 286.8L922.1 285.6L922.1 284.5L921.9 283.5L921.7 282.4L921.5 281.4L921.1 280.5L920.7 279.5L920.2 278.6L919.7 277.8L919.1 277L918.4 276.2L917.6 275.5L916.7 274.8L915.8 274.1L914.8 273.5L913.8 273L912.7 272.4L911.5 272L910.2 271.5L908.9 271.1L907.5 270.8L906 270.5L904.5 270.2L902.9 270L901.2 269.9L899.5 269.7L897.7 269.7L895.8 269.6L893.9 269.7L891.9 269.7L889.9 269.9L887.8 270L885.6 270.3L883.4 270.5L881.1 270.9L878.8 271.2L876.4 271.7L873.9 272.1L871.4 272.7L868.8 273.3L866.2 273.9L863.5 274.6L860.8 275.3L858 276.1L855.1 276.9L852.2 277.8L849.3 278.8L846.3 279.8L843.2 280.8L840.1 281.9L837 283.1L833.8 284.3L830.6 285.6L827.3 286.9L824 288.3L820.6 289.7L817.2 291.2L813.7 292.7L810.3 294.3L806.7 296L803.1 297.7L799.5 299.4L795.9 301.2L792.2 303.1L788.5 305L784.7 307L781 309L777.1 311.1L773.3 313.2L769.4 315.4L765.5 317.6L761.5 319.9L757.6 322.2L753.6 324.6L749.6 327.1L745.5 329.6L741.4 332.1L737.4 334.7L733.2 337.4L729.1 340.1L724.9 342.8L720.8 345.6L716.6 348.5L712.4 351.4L708.1 354.3L703.9 357.3L699.6 360.4L695.4 363.5L691.1 366.6L686.8 369.8L682.5 373L678.1 376.3L673.8 379.7L669.5 383L665.1 386.4L660.8 389.9L656.5 393.4L652.1 397L647.7 400.6L643.4 404.2L639 407.9L634.7 411.6L630.3 415.3L625.9 419.1L621.6 423L617.2 426.8L612.9 430.8L608.5 434.7L604.2 438.7L599.9 442.7L595.6 446.8L591.3 450.9L587 455L582.7 459.1L578.4 463.3L574.1 467.6L569.9 471.8L565.6 476.1L561.4 480.4L557.2 484.7L553 489.1L548.9 493.5L544.7 497.9L540.6 502.4L536.5 506.8L532.4 511.3L528.3 515.8L524.2 520.4L520.2 524.9L516.2 529.5L512.3 534.1L508.3 538.7L504.4 543.4L500.5 548L496.6 552.7L492.8 557.4L489 562.1L485.2 566.8L481.4 571.5L477.7 576.2L474 581L470.4 585.7L466.8 590.5L463.2 595.2L459.6 600L456.1 604.8L452.6 609.5L449.2 614.3L445.8 619.1L442.4 623.9L439.1 628.7L435.8 633.5L432.5 638.3L429.3 643L426.2 647.8L423 652.6L419.9 657.4L416.9 662.1L413.9 666.9L410.9 671.6L408 676.3L405.1 681.1L402.2 685.8L399.5 690.5L396.7 695.2L394 699.8L391.3 704.5L388.7 709.1L386.1 713.8L383.6 718.4L381.1 722.9L378.7 727.5L376.3 732L374 736.5L371.7 741L369.5 745.5L367.3 749.9L365.1 754.4L363 758.7L361 763.1L359 767.4L357 771.7L355.1 776L353.2 780.2L351.4 784.4L349.7 788.6L348 792.7L346.3 796.8L344.7 800.8L343.1 804.8L341.6 808.8L340.1 812.8L338.7 816.6L337.4 820.5L336 824.3L334.8 828.1L333.5 831.8L332.4 835.5L331.2 839.1L330.2 842.7L329.1 846.2L328.2 849.7L327.2 853.1L326.4 856.5L325.5 859.8L324.7 863.1L324 866.3L323.3 869.5L322.7 872.6L322.1 875.6L321.5 878.6L321 881.6L320.5 884.4L320.1 887.3L319.8 890L319.4 892.7L319.2 895.4L318.9 897.9L318.7 900.5L318.6 902.9L318.5 905.3L318.4 907.6L318.4 909.9L318.5 912.1L318.5 914.2L318.6 916.3L318.8 918.3L319 920.2L319.2 922.1L319.5 923.9L319.8 925.6L320.2 927.2L320.5 928.8L321 930.3L321.4 931.8L321.9 933.1L322.5 934.4L323.1 935.6L323.7 936.8L324.3 937.9L325 938.9L325.7 939.8L326.4 940.6L327.2 941.4L328 942.1L328.9 942.7L329.8 943.3L330.7 943.7L331.6 944.1L332.6 944.5L333.5 944.7L334.6 944.9L335.6 945L336.7 945L337.8 944.9L338.9 944.7L340.1 944.5L341.2 944.2L342.4 943.8L343.6 943.4L344.9 942.8L346.2 942.2L347.4 941.5L348.7 940.8L350.1 939.9L351.4 939L352.8 938L354.1 936.9L355.5 935.7L356.9 934.5L358.4 933.2L359.8 931.8L361.3 930.3L362.7 928.7L364.2 927.1L365.7 925.4L367.2 923.6L368.7 921.8L370.2 919.8L371.7 917.8L373.3 915.7L374.8 913.5L376.4 911.3L377.9 909L379.5 906.6L381.1 904.1L382.6 901.6L384.2 899L385.8 896.3L387.4 893.5L389 890.7L390.5 887.8L392.1 884.8L393.7 881.8L395.3 878.6L396.9 875.5L398.4 872.2L400 868.9L401.6 865.5L403.1 862L404.7 858.5L406.2 854.9L407.8 851.2L409.3 847.5L410.8 843.7L412.4 839.8L413.9 835.9L415.4 831.9L416.9 827.9L418.3 823.8L419.8 819.6L421.3 815.4L422.7 811.1L424.1 806.8L425.5 802.4L426.9 797.9L428.3 793.4L429.7 788.8L431.1 784.2L432.4 779.5L433.7 774.8L435 770L436.3 765.2L437.5 760.3L438.8 755.3L440 750.4L441.2 745.3L442.4 740.3L443.6 735.1L444.7 730L445.8 724.8L446.9 719.5L448 714.2L449 708.9L450 703.5L451 698.1L452 692.7L453 687.2L453.9 681.6L454.8 676.1L455.6 670.5L456.5 664.9L457.3 659.2L458.1 653.5L458.9 647.8L459.6 642.1L460.3 636.3L461 630.5L461.6 624.7L462.3 618.9L462.8 613L463.4 607.1L463.9 601.2L464.4 595.3L464.9 589.3L465.4 583.4L465.8 577.4L466.2 571.4L466.5 565.4L466.8 559.4L467.1 553.4L467.4 547.3L467.6 541.3L467.8 535.2L468 529.1L468.1 523.1L468.2 517L468.3 510.9L468.3 504.8L468.3 498.8L468.3 492.7L468.3 486.6L468.2 480.5L468.1 474.5L467.9 468.4L467.7 462.3L467.5 456.3L467.3 450.2L467 444.2L466.7 438.2L466.4 432.2L466 426.2L465.6 420.2L465.2 414.2L464.7 408.2L464.2 402.3L463.7 396.4L463.2 390.5L462.6 384.6L462 378.8L461.4 372.9L460.7 367.1L460 361.3L459.3 355.6L458.6 349.8L457.8 344.1L457 338.5L456.2 332.8L455.3 327.2L454.4 321.6L453.5 316.1L452.6 310.6L451.6 305.1L450.6 299.7L449.6 294.3L448.6 288.9L447.5 283.6L446.5 278.3L445.4 273.1L444.2 267.9L443.1 262.8L441.9 257.7L440.7 252.6L439.5 247.6L438.3 242.6L437 237.7L435.8 232.9L434.5 228L433.2 223.3L431.8 218.6L430.5 213.9L429.1 209.3L427.8 204.8L426.4 200.3L425 195.8L423.6 191.5L422.1 187.1L420.7 182.9L419.2 178.7L417.7 174.5L416.3 170.4L414.8 166.4L413.3 162.5L411.7 158.6L410.2 154.7L408.7 151L407.2 147.3L405.6 143.6L404.1 140.1L402.5 136.6L400.9 133.1L399.4 129.8L397.8 126.5L396.2 123.2L394.6 120.1L393.1 117L391.5 114L389.9 111L388.3 108.1L386.7 105.3L385.2 102.6L383.6 100L382 97.4L380.4 94.9L378.9 92.4L377.3 90.1L375.7 87.8L374.2 85.6L372.7 83.4L371.1 81.4L369.6 79.4L368.1 77.5L366.6 75.6L365.1 73.9L363.6 72.2L362.1 70.6L360.7 69.1L359.2 67.7L357.8 66.3L356.4 65L355 63.8L353.6 62.7L352.2 61.6L350.9 60.6L349.5 59.7L348.2 58.9L346.9 58.2L345.6 57.5L344.4 56.9L343.1 56.4L341.9 56L340.8 55.6L339.6 55.4L338.5 55.2L337.3 55.1L336.2 55L335.2 55.1L334.2 55.2L333.1 55.4L332.2 55.7L331.2 56L330.3 56.4L329.4 56.9L328.5 57.5L327.7 58.2L326.9 58.9L326.1 59.7L325.4 60.6L324.7 61.5L324 62.6L323.4 63.7L322.8 64.8L322.3 66.1L321.7 67.4L321.2 68.8L320.8 70.3L320.4 71.8L320 73.4L319.7 75.1L319.4 76.9L319.1 78.7L318.9 80.6L318.7 82.5L318.6 84.5L318.5 86.6L318.4 88.8L318.4 91L318.5 93.3L318.5 95.7L318.7 98.1L318.8 100.6L319 103.1L319.3 105.7L319.6 108.4L319.9 111.1L320.3 113.9L320.7 116.7L321.2 119.6L321.7 122.6L322.3 125.6L322.9 128.7L323.6 131.8L324.3 135L325 138.3L325.9 141.6L326.7 144.9L327.6 148.3L328.6 151.7L329.6 155.2L330.6 158.8L331.7 162.4L332.8 166L334 169.7L335.3 173.5L336.6 177.2L337.9 181.1L339.3 184.9L340.7 188.8L342.2 192.8L343.7 196.8L345.3 200.8L347 204.9L348.6 209L350.4 213.1L352.2 217.3L354 221.5L355.9 225.8L357.8 230L359.8 234.3L361.8 238.7L363.9 243L366 247.4L368.2 251.9L370.4 256.3L372.6 260.8L374.9 265.3L377.3 269.8L379.7 274.4L382.2 278.9L384.6 283.5L387.2 288.1L389.8 292.8L392.4 297.4L395.1 302.1L397.8 306.7L400.6 311.4L403.4 316.1L406.3 320.8L409.2 325.6L412.1 330.3L415.1 335.1L418.1 339.8L421.2 344.6L424.3 349.4L427.4 354.1L430.6 358.9L433.9 363.7L437.1 368.5L440.4 373.3L443.8 378L447.2 382.8L450.6 387.6L454.1 392.4L457.5 397.2L461.1 402L464.6 406.7L468.2 411.5L471.9 416.2L475.5 421L479.2 425.7L483 430.4L486.7 435.2L490.5 439.9L494.3 444.5L498.2 449.2L502.1 453.9L506 458.5L509.9 463.1L513.9 467.8L517.9 472.3L521.9 476.9L525.9 481.5L530 486L534 490.5L538.1 495L542.2 499.4L546.4 503.9L550.5 508.3L554.7 512.7L558.9 517L563.1 521.4L567.4 525.7L571.6 529.9L575.9 534.2L580.1 538.4L584.4 542.6L588.7 546.7L593 550.8L597.3 554.9L601.6 558.9L606 562.9L610.3 566.9L614.7 570.8L619 574.7L623.4 578.6L627.7 582.4L632.1 586.2L636.4 589.9L640.8 593.6L645.2 597.3L649.5 600.9L653.9 604.5L658.2 608L662.6 611.5L666.9 614.9L671.3 618.3L675.6 621.7L679.9 625L684.2 628.3L688.5 631.5L692.8 634.7L697.1 637.8L701.4 640.9L705.6 643.9L709.9 646.9L714.1 649.8L718.3 652.7L722.5 655.5L726.6 658.3L730.8 661L734.9 663.7L739 666.3L743.1 668.9L747.2 671.4L751.2 673.9L755.2 676.3L759.2 678.7L763.2 681L767.1 683.3L771 685.5L774.9 687.7L778.7 689.8L782.5 691.8L786.3 693.8L790 695.8L793.7 697.7L797.4 699.5L801 701.3L804.6 703L808.2 704.7L811.7 706.3L815.2 707.9L818.6 709.4L822 710.9L825.3 712.3L828.6 713.6L831.9 714.9L835.1 716.2L838.3 717.4L841.4 718.5L844.5 719.6L847.5 720.6L850.5 721.6L853.4 722.5L856.3 723.4L859.1 724.2L861.9 725L864.6 725.7L867.3 726.4L869.9 727L872.4 727.5L874.9 728.1L877.3 728.5L879.7 728.9L882 729.3L884.3 729.6L886.5 729.8L888.7 730L890.7 730.2L892.8 730.3L894.7 730.3L896.6 730.4L898.4 730.3L900.2 730.2L901.9 730.1L903.5 729.9L905.1 729.7L906.6 729.4L908.1 729.1L909.4 728.7L910.7 728.3L912 727.9L913.1 727.4L914.2 726.8L915.3 726.2L916.2 725.6L917.1 724.9L917.9 724.2L918.7 723.5L919.3 722.7L919.9 721.9L920.5 721L920.9 720.1L921.3 719.2L921.6 718.2L921.8 717.2L922 716.1L922.1 715L922.1 713.9L922 712.7L921.9 711.5L921.7 710.3L921.4 709.1L921.1 707.8L920.6 706.5L920.1 705.1L919.5 703.7L918.9 702.3L918.1 700.9L917.3 699.4L916.4 697.9L915.5 696.4L914.4 694.9L913.3 693.3L912.1 691.7L910.9 690.1L909.5 688.5L908.1 686.8L906.6 685.2L905 683.5L903.4 681.7L901.7 680L899.9 678.2L898 676.5L896.1 674.7L894.1 672.9L892 671.1L889.8 669.2L887.6 667.4L885.3 665.5L882.9 663.6L880.4 661.7L877.9 659.8L875.3 657.9L872.6 656L869.9 654.1L867.1 652.2L864.2 650.2L861.3 648.3L858.2 646.3L855.1 644.4L852 642.4L848.8 640.4L845.5 638.5L842.1 636.5L838.7 634.5L835.2 632.5L831.6 630.6L828 628.6L824.3 626.6L820.5 624.7L816.7 622.7L812.8 620.7L808.9 618.8L804.9 616.8L800.8 614.9L796.7 612.9L792.5 611L788.3 609L784 607.1L779.6 605.2L775.2 603.3L770.8 601.4L766.3 599.5L761.7 597.7L757.1 595.8L752.4 594L747.6 592.1L742.9 590.3L738 588.5L733.1 586.7L728.2 584.9L723.2 583.2L718.2 581.4L713.2 579.7L708 578L702.9 576.3L697.7 574.7L692.5 573L687.2 571.4L681.9 569.8L676.5 568.2L671.1 566.6L665.7 565.1L660.2 563.5L654.7 562L649.2 560.6L643.6 559.1L638 557.7L632.4 556.3L626.7 554.9L621 553.5L615.3 552.2L609.6 550.9L603.8 549.6L598 548.4L592.2 547.2L586.3 546L580.5 544.8L574.6 543.7L568.7 542.6L562.8 541.5L556.9 540.4L550.9 539.4L545 538.4L539 537.4L533 536.5L527 535.6L521 534.7L515 533.9L509 533.1L502.9 532.3L496.9 531.5L490.9 530.8L484.8 530.1L478.8 529.5L472.7 528.8L466.7 528.2L460.7 527.7L454.6 527.1L448.6 526.6L442.6 526.2L436.5 525.7L430.5 525.3L424.5 525L418.5 524.6L412.5 524.3L406.6 524L400.6 523.8L394.7 523.6L388.8 523.4L382.8 523.3L376.9 523.1L371.1 523L365.2 523L359.4 523L353.6 523L347.8 523L342 523.1L336.3 523.2L330.6 523.3L324.9 523.5L319.3 523.7L313.6 523.9L308 524.2L302.5 524.4L297 524.8L291.5 525.1L286 525.5L280.6 525.9L275.2 526.3L269.9 526.7L264.6 527.2L259.3 527.7L254.1 528.3L248.9 528.8L243.8 529.4L238.7 530L233.7 530.7L228.7 531.3L223.7 532L218.8 532.8L214 533.5L209.2 534.3L204.4 535L199.7 535.9L195.1 536.7L190.5 537.5L185.9 538.4L181.5 539.3L177 540.2L172.7 541.2L168.4 542.1L164.1 543.1L159.9 544.1L155.8 545.1L151.7 546.1L147.7 547.2L143.8 548.2L139.9 549.3L136.1 550.4L132.3 551.5L128.6 552.6L125 553.8L121.5 554.9L118 556.1L114.6 557.2L111.2 558.4L107.9 559.6L104.7 560.8L101.6 562L98.5 563.2L95.5 564.5L92.6 565.7L89.7 567L87 568.2L84.3 569.5L81.6 570.7L79.1 572L76.6 573.2L74.2 574.5L71.9 575.8L69.6 577.1L67.4 578.3L65.3 579.6L63.3 580.9L61.3 582.2L59.5 583.4L57.7 584.7L56 586L54.3 587.2L52.8 588.5L51.3 589.8L49.9 591L48.6 592.2L47.4 593.5L46.2 594.7L45.1 595.9L44.1 597.1L43.2 598.3L42.4 599.5L41.6 600.7L40.9 601.9L40.4 603L39.8 604.2L39.4 605.3L39 606.4L38.8 607.5L38.6 608.6L38.5 609.6L38.4 610.7L38.5 611.7L38.6 612.7L38.8 613.7L39.1 614.7L39.5 615.7L39.9 616.6L40.4 617.5L41 618.4L41.7 619.2L42.5 620.1L43.3 620.9L44.2 621.7L45.2 622.5L46.3 623.2L47.5 623.9L48.7 624.6L50 625.3L51.4 625.9L52.8 626.5L54.3 627.1L55.9 627.6L57.6 628.1L59.4 628.6L61.2 629.1L63.1 629.5L65.1 629.9L67.1 630.3L69.2 630.6L71.4 630.9L73.6 631.1L76 631.3L78.4 631.5L80.8 631.7L83.3 631.8L85.9 631.9L88.6 631.9L91.3 631.9L94.1 631.9L97 631.8L99.9 631.7L102.9 631.5L105.9 631.4L109 631.1L112.2 630.9L115.4 630.5L118.7 630.2L122.1 629.8L125.5 629.4L129 628.9L132.5 628.4L136.1 627.8L139.7 627.2L143.4 626.6L147.1 625.9L150.9 625.2L154.7 624.4L158.6 623.6L162.6 622.8L166.6 621.9L170.6 620.9L174.7 619.9L178.8 618.9L183 617.8L187.2 616.7L191.5 615.6L195.8 614.3L200.1 613.1L204.5 611.8L208.9 610.5L213.4 609.1L217.9 607.7L222.5 606.2L227 604.7L231.6 603.1L236.3 601.5L241 599.9L245.7 598.2L250.4 596.4L255.2 594.6L260 592.8L264.8 591L269.6 589L274.5 587.1L279.4 585.1L284.3 583L289.3 581L294.2 578.8L299.2 576.7L304.2 574.5L309.2 572.2L314.3 569.9L319.3 567.6L324.4 565.2L329.5 562.8L334.6 560.3L339.7 557.8L344.8 555.3L349.9 552.7L355.1 550.1L360.2 547.4L365.3 544.7L370.5 542L375.7 539.2L380.8 536.4L386 533.6L391.1 530.7L396.3 527.8L401.5 524.8L406.6 521.8L411.8 518.8L416.9 515.7L422.1 512.7L427.2 509.5L432.4 506.4L437.5 503.2L442.6 500L447.7 496.7L452.8 493.4L457.9 490.1L463 486.8L468 483.4L473.1 480L478.1 476.6L483.1 473.2L488.1 469.7L493.1 466.2L498 462.7L503 459.1L507.9 455.6L512.8 452L517.6 448.4L522.5 444.7L527.3 441.1L532.1 437.4L536.8 433.7L541.5 430L546.2 426.3L550.9 422.5L555.6 418.8L560.2 415L564.7 411.2L569.3 407.4L573.8 403.6L578.3 399.8L582.7 396L587.1 392.1L591.5 388.3L595.8 384.4L600.1 380.5L604.4 376.6L608.6 372.8L612.7 368.9L616.9 365L621 361.1L625 357.2L629 353.3L633 349.4L636.9 345.5L640.7 341.6L644.6 337.7L648.3 333.8L652.1 330L655.8 326.1L659.4 322.2L663 318.3L666.5 314.5L670 310.6L673.4 306.8L676.8 302.9L680.1 299.1L683.4 295.3L686.6 291.5L689.8 287.7L692.9 284L696 280.2L699 276.5L702 272.8L704.9 269.1L707.7 265.4L710.5 261.8L713.3 258.1L716 254.5L718.6 250.9L721.2 247.4L723.7 243.8L726.1 240.3L728.5 236.8L730.9 233.4L733.2 229.9L735.4 226.5L737.6 223.2L739.7 219.8L741.7 216.5L743.7 213.2L745.7 210L747.6 206.8L749.4 203.6L751.1 200.5L752.8 197.4L754.5 194.4L756.1 191.3L757.6 188.4L759.1 185.4L760.5 182.5L761.8 179.7L763.1 176.9L764.3 174.1L765.5 171.4L766.6 168.7L767.7 166.1L768.7 163.5L769.6 161L770.5 158.5L771.3 156.1L772.1 153.7L772.8 151.4L773.5 149.1L774 146.9L774.6 144.7L775.1 142.6L775.5 140.5L775.8 138.5L776.2 136.5L776.4 134.6L776.6 132.8L776.7 131L776.8 129.3L776.9 127.6L776.9 126L776.8 124.5L776.7 123L776.5 121.6L776.2 120.2L776 118.9L775.6 117.7L775.2 116.5L774.8 115.4L774.3 114.3L773.8 113.4L773.2 112.4L772.5 111.6L771.8 110.8L771.1 110.1L770.3 109.4L769.5 108.9L768.6 108.3L767.7 107.9L766.7 107.5L765.7 107.2L764.7 107L763.6 106.8L762.4 106.7L761.2 106.7L760 106.7L758.8 106.8L757.4 107L756.1 107.2L754.7 107.6L753.3 108L751.8 108.4L750.3 109L748.8 109.6L747.2 110.2L745.6 111L744 111.8L742.3 112.7L740.6 113.7L738.8 114.7L737.1 115.8L735.2 117L733.4 118.3L731.5 119.6L729.7 121L727.7 122.5L725.8 124L723.8 125.6L721.8 127.3L719.8 129.1L717.7 130.9L715.6 132.8L713.5 134.8L711.4 136.8L709.3 138.9L707.1 141.1L704.9 143.4L702.7 145.7L700.5 148.1L698.3 150.6L696 153.1L693.8 155.7L691.5 158.4L689.2 161.1L686.9 163.9L684.5 166.8L682.2 169.8L679.8 172.8L677.5 175.8L675.1 179L672.7 182.2L670.4 185.5L668 188.8L665.6 192.2L663.2 195.7L660.7 199.2L658.3 202.8L655.9 206.5L653.5 210.2L651.1 214L648.6 217.8L646.2 221.7L643.8 225.7L641.4 229.7L638.9 233.7L636.5 237.9L634.1 242.1L631.7 246.3L629.3 250.6L626.9 255L624.5 259.4L622.1 263.8L619.7 268.3L617.3 272.9L614.9 277.5L612.6 282.2L610.2 286.9L607.9 291.6L605.6 296.5L603.3 301.3L601 306.2L598.7 311.1L596.4 316.1L594.1 321.2L591.9 326.2L589.7 331.4L587.5 336.5L585.3 341.7L583.1 346.9L580.9 352.2L578.8 357.5L576.7 362.9L574.6 368.2L572.5 373.6L570.4 379.1L568.4 384.6L566.4 390.1L564.4 395.6L562.4 401.2L560.5 406.7L558.5 412.4L556.7 418L554.8 423.7L552.9 429.4L551.1 435.1L549.3 440.8L547.5 446.6L545.8 452.3L544.1 458.1L542.4 463.9L540.7 469.8L539.1 475.6L537.5 481.5L535.9 487.3L534.4 493.2L532.9 499.1L531.4 505L529.9 510.9L528.5 516.8L527.1 522.7L525.8 528.6L524.4 534.6L523.1 540.5L521.9 546.4L520.6 552.3L519.4 558.3L518.3 564.2L517.1 570.1L516 576L515 581.9L513.9 587.8L512.9 593.7L511.9 599.6L511 605.5L510.1 611.4L509.2 617.2L508.4 623.1L507.6 628.9L506.8 634.7L506.1 640.5L505.4 646.3L504.7 652L504.1 657.8L503.5 663.5L502.9 669.2L502.4 674.8L501.9 680.5L501.4 686.1L501 691.7L500.6 697.2L500.2 702.8L499.9 708.3L499.6 713.7L499.3 719.2L499.1 724.6L498.9 729.9L498.7 735.3L498.6 740.6L498.5 745.8L498.4 751L498.3 756.2L498.3 761.4L498.3 766.5L498.4 771.5L498.5 776.5L498.6 781.5L498.7 786.4L498.9 791.3L499.1 796.1L499.3 800.9L499.6 805.6L499.9 810.3L500.2 814.9L500.5 819.5L500.9 824L501.3 828.5L501.7 832.9L502.1 837.2L502.6 841.5L503.1 845.8L503.6 850L504.2 854.1L504.7 858.1L505.3 862.1L506 866.1L506.6 870L507.3 873.8L507.9 877.5L508.6 881.2L509.4 884.8L510.1 888.4L510.9 891.9L511.7 895.3L512.5 898.7L513.3 901.9L514.1 905.2L515 908.3L515.8 911.4L516.7 914.4L517.6 917.3L518.5 920.2L519.5 923L520.4 925.7L521.4 928.3L522.3 930.9L523.3 933.4L524.3 935.8L525.3 938.1L526.3 940.4L527.3 942.6L528.4 944.7L529.4 946.7L530.4 948.7L531.5 950.6L532.5 952.4L533.6 954.1L534.7 955.7L535.7 957.3L536.8 958.8L537.9 960.2L539 961.5L540 962.7L541.1 963.9L542.2 965L543.3 966L544.4 966.9L545.4 967.7L546.5 968.5L547.6 969.2L548.7 969.8L549.7 970.3L550.8 970.7L551.8 971L552.9 971.3L553.9 971.5L554.9 971.6L556 971.6L557 971.6L558 971.4L559 971.2L560 970.9L560.9 970.5L561.9 970L562.8 969.5L563.8 968.9L564.7 968.2L565.6 967.4L566.5 966.5L567.3 965.6L568.2 964.5L569 963.4L569.9 962.2L570.7 961L571.4 959.6L572.2 958.2L572.9 956.7L573.7 955.1L574.4 953.5L575 951.7L575.7 949.9L576.3 948.1L576.9 946.1L577.5 944.1L578.1 942L578.6 939.8L579.1 937.5L579.6 935.2L580 932.8L580.5 930.3L580.9 927.8L581.2 925.2L581.6 922.5L581.9 919.7L582.2 916.9L582.4 914L582.7 911L582.8 908L583 904.9L583.1 901.8L583.2 898.5L583.3 895.2L583.3 891.9L583.3 888.5L583.3 885L583.2 881.5L583.1 877.9L582.9 874.2L582.8 870.5L582.5 866.7L582.3 862.9L582 859L581.7 855.1L581.3 851.1L580.9 847L580.5 842.9L580 838.7L579.5 834.5L578.9 830.3L578.4 826L577.7 821.6L577.1 817.2L576.4 812.8L575.6 808.3L574.8 803.7L574 799.1L573.2 794.5L572.3 789.8L571.3 785.1L570.3 780.4L569.3 775.6L568.3 770.8L567.2 765.9L566 761L564.8 756.1L563.6 751.1L562.4 746.1L561.1 741.1L559.7 736L558.3 730.9L556.9 725.8L555.5 720.6L554 715.4L552.4 710.2L550.8 705L549.2 699.8L547.6 694.5L545.9 689.2L544.1 683.9L542.3 678.6L540.5 673.2L538.7 667.9L536.8 662.5L534.9 657.1L532.9 651.7L530.9 646.2L528.8 640.8L526.8 635.4L524.6 629.9L522.5 624.5L520.3 619L518.1 613.5L515.8 608L513.5 602.6L511.2 597.1L508.8 591.6L506.4 586.1L504 580.6L501.5 575.1L499 569.7L496.5 564.2L493.9 558.7L491.3 553.3L488.7 547.8L486 542.3L483.3 536.9L480.6 531.5L477.8 526.1L475.1 520.7L472.2 515.3L469.4 509.9L466.5 504.5L463.7 499.2L460.7 493.8L457.8 488.5L454.8 483.2L451.8 478L448.8 472.7L445.8 467.5L442.7 462.3L439.6 457.1L436.5 452L433.4 446.8L430.3 441.8L427.1 436.7L423.9 431.6L420.7 426.6L417.5 421.7L414.3 416.7L411 411.8L407.7 406.9L404.5 402.1L401.2 397.2L397.9 392.5L394.5 387.7L391.2 383L387.9 378.4L384.5 373.8L381.1 369.2L377.8 364.6L374.4 360.1L371 355.7L367.6 351.3L364.2 346.9L360.8 342.6L357.4 338.3L354 334.1L350.6 329.9L347.2 325.7L343.8 321.7L340.4 317.6L337 313.6L333.6 309.7L330.2 305.8L326.8 302L323.4 298.2L320 294.4L316.6 290.8L313.3 287.1L309.9 283.6L306.5 280L303.2 276.6L299.9 273.2L296.5 269.8L293.2 266.5L289.9 263.3L286.6 260.1L283.4 257L280.1 253.9L276.9 250.9L273.7 248L270.5 245.1L267.3 242.3L264.1 239.5L261 236.8L257.9 234.2L254.8 231.6L251.7 229.1L248.7 226.6L245.7 224.2L242.7 221.9L239.7 219.6L236.8 217.4L233.9 215.3L231 213.2L228.2 211.2L225.4 209.2L222.6 207.3L219.8 205.5L217.1 203.7L214.4 202L211.8 200.4L209.2 198.8L206.6 197.3L204.1 195.8L201.6 194.4L199.2 193.1L196.7 191.9L194.4 190.7L192 189.5L189.8 188.5L187.5 187.5L185.3 186.5L183.2 185.7L181.1 184.8L179 184.1L177 183.4L175 182.8L173.1 182.2L171.2 181.7L169.4 181.3L167.6 180.9L165.9 180.6L164.2 180.3L162.6 180.1L161.1 180L159.6 179.9L158.1 179.9L156.7 180L155.4 180.1L154.1 180.2L152.9 180.5L151.7 180.8L150.6 181.1L149.5 181.5L148.5 181.9L147.6 182.5L146.7 183L145.9 183.7L145.1 184.3L144.4 185.1L143.8 185.9L143.2 186.7L142.7 187.6L142.2 188.5L141.8 189.5L141.5 190.6L141.3 191.7L141.1 192.9L140.9 194.1L140.9 195.3L140.9 196.6L140.9 198L141.1 199.4L141.3 200.8L141.5 202.3L141.9 203.9L142.3 205.4L142.7 207.1L143.2 208.8L143.8 210.5L144.5 212.2L145.2 214L146 215.9L146.9 217.8L147.8 219.7L148.8 221.6L149.9 223.6L151 225.7L152.3 227.7L153.5 229.9L154.9 232L156.3 234.2L157.8 236.4L159.3 238.6L160.9 240.9L162.6 243.2L164.4 245.6L166.2 247.9L168.1 250.3L170 252.8L172.1 255.2L174.1 257.7L176.3 260.2L178.5 262.8L180.8 265.3L183.2 267.9L185.6 270.5L188.1 273.1L190.6 275.8L193.3 278.5L196 281.1L198.7 283.9L201.5 286.6L204.4 289.3L207.3 292.1L210.4 294.9L213.4 297.6L216.6 300.4L219.7 303.3L223 306.1L226.3 308.9L229.7 311.8L233.1 314.6L236.6 317.5L240.2 320.4L243.8 323.3L247.5 326.2L251.2 329.1L255 332L258.9 334.9L262.8 337.8L266.7 340.7L270.7 343.6L274.8 346.5L278.9 349.4L283.1 352.3L287.3 355.2L291.6 358.1L295.9 361L300.3 363.9L304.7 366.8L309.2 369.7L313.7 372.6L318.3 375.5L322.9 378.4L327.6 381.2L332.3 384.1L337 386.9L341.8 389.7L346.7 392.6L351.6 395.4L356.5 398.2L361.4 400.9L366.4 403.7L371.5 406.5L376.5 409.2L381.6 411.9L386.8 414.6L392 417.3L397.2 420L402.4 422.6L407.7 425.3L413 427.9L418.3 430.5L423.7 433.1L429.1 435.6L434.5 438.1L440 440.6L445.4 443.1L450.9 445.6L456.4 448L462 450.4L467.5 452.8L473.1 455.2L478.7 457.5L484.3 459.8L489.9 462.1L495.6 464.3L501.2 466.5L506.9 468.7L512.6 470.9L518.3 473L524 475.1L529.7 477.2L535.4 479.3L541.1 481.3L546.9 483.3L552.6 485.2L558.3 487.1L564.1 489L569.8 490.9L575.6 492.7L581.3 494.5L587 496.2L592.8 497.9L598.5 499.6L604.2 501.3L609.9 502.9L615.6 504.5L621.3 506L627 507.5L632.7 509L638.4 510.4L644 511.8L649.7 513.2L655.3 514.5L660.9 515.8L666.5 517.1L672 518.3L677.6 519.5L683.1 520.7L688.6 521.8L694.1 522.9L699.6 523.9L705 524.9L710.4 525.9L715.8 526.8L721.1 527.7L726.4 528.6L731.7 529.4L737 530.2L742.2 530.9L747.4 531.6L752.5 532.3L757.6 533L762.7 533.6L767.7 534.1L772.7 534.7L777.7 535.2L782.6 535.7L787.5 536.1L792.3 536.5L797.1 536.8L801.8 537.2L806.5 537.5L811.2 537.7L815.8 537.9L820.3 538.1L824.8 538.3L829.2 538.4L833.6 538.5L838 538.6L842.3 538.6L846.5 538.6L850.7 538.6L854.8 538.5L858.9 538.4L862.9 538.3L866.8 538.1L870.7 537.9L874.5 537.7L878.3 537.5L882 537.2L885.6 536.9L889.2 536.6L892.7 536.2L896.2 535.8L899.5 535.4L902.9 535L906.1 534.5L909.3 534L912.4 533.5L915.4 533L918.4 532.4L921.3 531.8L924.1 531.2L926.9 530.6L929.6 530L932.2 529.3L934.7 528.6L937.2 527.9L939.6 527.2L941.9 526.5L944.2 525.7L946.3 524.9L948.4 524.1L950.4 523.3L952.4 522.5L954.2 521.6L956 520.8L957.7 519.9L959.4 519L960.9 518.1L962.4 517.2L963.8 516.3L965.1 515.4L966.3 514.4L967.4 513.5L968.5 512.5L969.5 511.6L970.4 510.6L971.2 509.6L972 508.6L972.6 507.6L973.2 506.6L973.7 505.6L974.1 504.6L974.5 503.6L974.7 502.6L974.9 501.6L975 500.6L975 499.6" opacity="0.12"/></g></svg>