<svg xmlns="http://www.w3.org/2000/svg" viewBox="0 0 1000 1000" preserveAspectRatio="xMidYMid slice" fill="none" stroke-linecap="round" stroke-linejoin="round"><g stroke="#0f3d2e" stroke-width="0.7"><path d="M975 500L975 500.6L974.9 501.2L974.8 501.8L974.7 502.4L974.5 503L974.3 503.6L974.1 504.1L973.8 504.7L973.5 505.3L973.1 505.9L972.8 506.5L972.3 507.1L971.9 507.7L971.4 508.2L970.8 508.8L970.3 509.4L969.6 510L969 510.6L968.3 511.1L967.6 511.7L966.8 512.3L966.1 512.8L965.2 513.4L964.4 513.9L963.5 514.5L962.5 515L961.5 515.6L960.5 516.1L959.5 516.7L958.4 517.2L957.3 517.7L956.1 518.3L954.9 518.8L953.7 519.3L952.5 519.8L951.2 520.3L949.8 520.8L948.5 521.3L947.1 521.8L945.6 522.3L944.2 522.8L942.7 523.3L941.1 523.7L939.6 524.2L938 524.7L936.3 525.1L934.6 525.6L932.9 526L931.2 526.4L929.4 526.9L927.6 527.3L925.8 527.7L923.9 528.1L922 528.5L920.1 528.9L918.1 529.3L916.1 529.7L914 530.1L912 530.4L909.9 530.8L907.7 531.2L905.6 531.5L903.4 531.8L901.2 532.2L898.9 532.5L896.6 532.8L894.3 533.1L892 533.4L889.6 533.7L887.2 534L884.7 534.2L882.3 534.5L879.8 534.7L877.2 535L874.7 535.2L872.1 535.5L869.5 535.7L866.8 535.9L864.2 536.1L861.5 536.3L858.8 536.4L856 536.6L853.2 536.8L850.4 536.9L847.6 537.1L844.7 537.2L841.9 537.3L838.9 537.4L836 537.5L833.1 537.6L830.1 537.7L827.1 537.8L824 537.8L821 537.9L817.9 537.9L814.8 538L811.6 538L808.5 538L805.3 538L802.1 538L798.9 537.9L795.6 537.9L792.4 537.9L789.1 537.8L785.8 537.7L782.4 537.6L779.1 537.5L775.7 537.4L772.3 537.3L768.9 537.2L765.5 537.1L762 536.9L758.5 536.8L755 536.6L751.5 536.4L748 536.2L744.4 536L740.9 535.8L737.3 535.6L733.7 535.3L730.1 535.1L726.4 534.8L722.8 534.5L719.1 534.2L715.4 533.9L711.7 533.6L708 533.3L704.3 533L700.6 532.6L696.8 532.3L693 531.9L689.3 531.5L685.5 531.1L681.6 530.7L677.8 530.3L674 529.9L670.1 529.4L666.3 529L662.4 528.5L658.5 528L654.6 527.5L650.7 527L646.8 526.5L642.9 526L639 525.5L635 524.9L631.1 524.4L627.1 523.8L623.2 523.2L619.2 522.6L615.2 522L611.2 521.4L607.2 520.8L603.2 520.1L599.2 519.5L595.2 518.8L591.2 518.1L587.2 517.4L583.2 516.7L579.1 516L575.1 515.3L571 514.6L567 513.8L563 513.1L558.9 512.3L554.9 511.5L550.8 510.8L546.7 510L542.7 509.2L538.6 508.3L534.6 507.5L530.5 506.7L526.5 505.8L522.4 504.9L518.3 504.1L514.3 503.2L510.2 502.3L506.2 501.4L502.1 500.5L498.1 499.6L494 498.6L490 497.7L485.9 496.7L481.9 495.8L477.8 494.8L473.8 493.8L469.8 492.8L465.8 491.8L461.7 490.8L457.7 489.8L453.7 488.7L449.7 487.7L445.7 486.6L441.7 485.6L437.8 484.5L433.8 483.4L429.8 482.4L425.9 481.3L421.9 480.2L418 479.1L414 477.9L410.1 476.8L406.2 475.7L402.3 474.5L398.4 473.4L394.5 472.2L390.6 471.1L386.8 469.9L382.9 468.7L379.1 467.5L375.3 466.3L371.5 465.1L367.7 463.9L363.9 462.7L360.1 461.5L356.3 460.2L352.6 459L348.9 457.8L345.1 456.5L341.4 455.3L337.8 454L334.1 452.7L330.4 451.5L326.8 450.2L323.2 448.9L319.5 447.6L316 446.3L312.4 445L308.8 443.7L305.3 442.4L301.8 441.1L298.3 439.8L294.8 438.5L291.3 437.2L287.9 435.8L284.4 434.5L281 433.2L277.6 431.8L274.3 430.5L270.9 429.1L267.6 427.8L264.3 426.4L261 425.1L257.7 423.7L254.5 422.4L251.3 421L248.1 419.6L244.9 418.3L241.7 416.9L238.6 415.5L235.5 414.2L232.4 412.8L229.3 411.4L226.3 410.1L223.3 408.7L220.3 407.3L217.3 405.9L214.4 404.6L211.5 403.2L208.6 401.8L205.7 400.4L202.9 399.1L200 397.7L197.3 396.3L194.5 394.9L191.8 393.6L189 392.2L186.4 390.8L183.7 389.4L181.1 388.1L178.5 386.7L175.9 385.4L173.4 384L170.8 382.6L168.3 381.3L165.9 379.9L163.5 378.6L161 377.2L158.7 375.9L156.3 374.5L154 373.2L151.7 371.9L149.5 370.5L147.2 369.2L145 367.9L142.9 366.6L140.7 365.3L138.6 364L136.5 362.7L134.5 361.4L132.5 360.1L130.5 358.8L128.5 357.5L126.6 356.2L124.7 355L122.8 353.7L121 352.5L119.2 351.2L117.4 350L115.7 348.7L114 347.5L112.3 346.3L110.7 345.1L109.1 343.9L107.5 342.7L105.9 341.5L104.4 340.3L102.9 339.1L101.5 337.9L100.1 336.8L98.7 335.6L97.4 334.5L96 333.4L94.8 332.2L93.5 331.1L92.3 330L91.1 328.9L90 327.8L88.9 326.8L87.8 325.7L86.7 324.7L85.7 323.6L84.7 322.6L83.8 321.6L82.9 320.6L82 319.6L81.1 318.6L80.3 317.6L79.6 316.6L78.8 315.7L78.1 314.7L77.4 313.8L76.8 312.9L76.2 312L75.6 311.1L75.1 310.2L74.6 309.4L74.1 308.5L73.7 307.7L73.2 306.9L72.9 306L72.5 305.3L72.2 304.5L72 303.7L71.7 302.9L71.5 302.2L71.4 301.5L71.2 300.8L71.1 300.1L71.1 299.4L71.1 298.7L71.1 298.1L71.1 297.4L71.2 296.8L71.3 296.2L71.4 295.6L71.6 295L71.8 294.5L72 293.9L72.3 293.4L72.6 292.9L72.9 292.4L73.3 291.9L73.7 291.5L74.2 291L74.6 290.6L75.1 290.2L75.7 289.8L76.3 289.4L76.9 289L77.5 288.7L78.2 288.4L78.9 288.1L79.6 287.8L80.4 287.5L81.2 287.2L82 287L82.9 286.8L83.7 286.6L84.7 286.4L85.6 286.2L86.6 286.1L87.6 286L88.7 285.9L89.8 285.8L90.9 285.7L92 285.7L93.2 285.6L94.4 285.6L95.6 285.6L96.9 285.6L98.2 285.7L99.5 285.7L100.9 285.8L102.3 285.9L103.7 286.1L105.1 286.2L106.6 286.4L108.1 286.5L109.6 286.7L111.2 287L112.8 287.2L114.4 287.5L116 287.7L117.7 288L119.4 288.4L121.2 288.7L122.9 289.1L124.7 289.5L126.5 289.9L128.3 290.3L130.2 290.7L132.1 291.2L134 291.7L136 292.2L137.9 292.7L139.9 293.2L142 293.8L144 294.4L146.1 295L148.2 295.6L150.3 296.3L152.4 296.9L154.6 297.6L156.8 298.3L159 299.1L161.3 299.8L163.5 300.6L165.8 301.4L168.1 302.2L170.5 303L172.8 303.9L175.2 304.8L177.6 305.7L180 306.6L182.5 307.5L185 308.5L187.4 309.4L190 310.4L192.5 311.5L195 312.5L197.6 313.6L200.2 314.6L202.8 315.7L205.4 316.9L208.1 318L210.8 319.2L213.4 320.3L216.2 321.5L218.9 322.8L221.6 324L224.4 325.3L227.2 326.6L230 327.9L232.8 329.2L235.6 330.5L238.4 331.9L241.3 333.3L244.2 334.7L247.1 336.1L250 337.5L252.9 339L255.8 340.5L258.8 342L261.8 343.5L264.7 345L267.7 346.6L270.7 348.2L273.8 349.7L276.8 351.4L279.8 353L282.9 354.6L286 356.3L289.1 358L292.2 359.7L295.3 361.4L298.4 363.2L301.5 364.9L304.7 366.7L307.8 368.5L311 370.3L314.1 372.2L317.3 374L320.5 375.9L323.7 377.8L326.9 379.7L330.1 381.6L333.3 383.5L336.6 385.5L339.8 387.4L343 389.4L346.3 391.4L349.5 393.4L352.8 395.5L356.1 397.5L359.3 399.6L362.6 401.7L365.9 403.8L369.2 405.9L372.5 408L375.8 410.1L379.1 412.3L382.4 414.5L385.7 416.7L389 418.9L392.3 421.1L395.6 423.3L399 425.6L402.3 427.8L405.6 430.1L408.9 432.4L412.3 434.7L415.6 437L418.9 439.3L422.2 441.6L425.6 444L428.9 446.4L432.2 448.7L435.5 451.1L438.9 453.5L442.2 455.9L445.5 458.4L448.8 460.8L452.1 463.2L455.5 465.7L458.8 468.2L462.1 470.6L465.4 473.1L468.7 475.6L472 478.1L475.3 480.7L478.6 483.2L481.8 485.7L485.1 488.3L488.4 490.8L491.7 493.4L494.9 496L498.2 498.6L501.4 501.1L504.7 503.7L507.9 506.3L511.1 509L514.4 511.6L517.6 514.2L520.8 516.9L524 519.5L527.2 522.1L530.4 524.8L533.5 527.5L536.7 530.1L539.8 532.8L543 535.5L546.1 538.2L549.2 540.9L552.4 543.5L555.5 546.2L558.6 548.9L561.6 551.6L564.7 554.4L567.8 557.1L570.8 559.8L573.8 562.5L576.9 565.2L579.9 568L582.9 570.7L585.8 573.4L588.8 576.1L591.8 578.9L594.7 581.6L597.6 584.4L600.6 587.1L603.5 589.8L606.3 592.6L609.2 595.3L612.1 598L614.9 600.8L617.7 603.5L620.5 606.3L623.3 609L626.1 611.7L628.9 614.5L631.6 617.2L634.3 619.9L637.1 622.7L639.8 625.4L642.4 628.1L645.1 630.8L647.7 633.5L650.4 636.3L653 639L655.5 641.7L658.1 644.4L660.7 647.1L663.2 649.8L665.7 652.4L668.2 655.1L670.7 657.8L673.1 660.5L675.6 663.1L678 665.8L680.4 668.5L682.7 671.1L685.1 673.7L687.4 676.4L689.7 679L692 681.6L694.3 684.2L696.6 686.8L698.8 689.4L701 692L703.2 694.6L705.3 697.1L707.5 699.7L709.6 702.2L711.7 704.8L713.8 707.3L715.8 709.8L717.9 712.3L719.9 714.8L721.9 717.3L723.8 719.8L725.8 722.2L727.7 724.7L729.6 727.1L731.5 729.5L733.3 732L735.1 734.4L736.9 736.7L738.7 739.1L740.5 741.5L742.2 743.8L743.9 746.2L745.6 748.5L747.2 750.8L748.9 753.1L750.5 755.3L752.1 757.6L753.6 759.8L755.2 762.1L756.7 764.3L758.1 766.5L759.6 768.6L761 770.8L762.5 773L763.8 775.1L765.2 777.2L766.5 779.3L767.8 781.4L769.1 783.4L770.4 785.5L771.6 787.5L772.8 789.5L774 791.5L775.2 793.4L776.3 795.4L777.4 797.3L778.5 799.2L779.5 801.1L780.6 803L781.6 804.8L782.6 806.6L783.5 808.5L784.4 810.2L785.3 812L786.2 813.7L787.1 815.5L787.9 817.2L788.7 818.8L789.5 820.5L790.2 822.1L790.9 823.8L791.6 825.3L792.3 826.9L792.9 828.5L793.6 830L794.1 831.5L794.7 833L795.2 834.4L795.8 835.8L796.3 837.2L796.7 838.6L797.2 840L797.6 841.3L797.9 842.6L798.3 843.9L798.6 845.1L799 846.4L799.2 847.6L799.5 848.8L799.7 849.9L799.9 851L800.1 852.1L800.3 853.2L800.4 854.3L800.5 855.3L800.6 856.3L800.7 857.3L800.7 858.2L800.7 859.1L800.7 860L800.6 860.9L800.6 861.7L800.5 862.5L800.4 863.3L800.2 864.1L800 864.8L799.9 865.5L799.6 866.2L799.4 866.8L799.1 867.4L798.9 868L798.5 868.6L798.2 869.1L797.9 869.6L797.5 870.1L797.1 870.5L796.6 871L796.2 871.3L795.7 871.7L795.2 872L794.7 872.3L794.2 872.6L793.6 872.8L793 873.1L792.4 873.2L791.8 873.4L791.1 873.5L790.4 873.6L789.7 873.7L789 873.7L788.3 873.7L787.5 873.7L786.7 873.6L785.9 873.5L785.1 873.4L784.2 873.3L783.4 873.1L782.5 872.9L781.6 872.7L780.6 872.4L779.7 872.1L778.7 871.8L777.7 871.4L776.7 871L775.7 870.6L774.6 870.1L773.5 869.7L772.5 869.2L771.3 868.6L770.2 868L769.1 867.4L767.9 866.8L766.7 866.2L765.5 865.5L764.3 864.7L763.1 864L761.8 863.2L760.5 862.4L759.2 861.5L757.9 860.7L756.6 859.8L755.2 858.8L753.9 857.9L752.5 856.9L751.1 855.8L749.7 854.8L748.3 853.7L746.8 852.6L745.4 851.4L743.9 850.3L742.4 849L740.9 847.8L739.4 846.5L737.9 845.2L736.3 843.9L734.8 842.6L733.2 841.2L731.6 839.8L730 838.3L728.4 836.8L726.7 835.3L725.1 833.8L723.4 832.3L721.8 830.7L720.1 829L718.4 827.4L716.7 825.7L715 824L713.2 822.3L711.5 820.5L709.7 818.7L708 816.9L706.2 815.1L704.4 813.2L702.6 811.3L700.8 809.3L699 807.4L697.2 805.4L695.3 803.4L693.5 801.3L691.6 799.3L689.8 797.2L687.9 795L686 792.9L684.1 790.7L682.2 788.5L680.3 786.3L678.4 784L676.5 781.7L674.5 779.4L672.6 777.1L670.6 774.7L668.7 772.4L666.7 769.9L664.8 767.5L662.8 765.1L660.8 762.6L658.8 760.1L656.8 757.5L654.8 755L652.8 752.4L650.8 749.8L648.8 747.1L646.8 744.5L644.8 741.8L642.8 739.1L640.7 736.4L638.7 733.6L636.7 730.9L634.6 728.1L632.6 725.3L630.6 722.4L628.5 719.6L626.5 716.7L624.4 713.8L622.4 710.9L620.3 707.9L618.3 705L616.2 702L614.1 699L612.1 695.9L610 692.9L608 689.8L605.9 686.8L603.8 683.7L601.8 680.5L599.7 677.4L597.6 674.2L595.6 671.1L593.5 667.9L591.5 664.7L589.4 661.4L587.3 658.2L585.3 654.9L583.2 651.6L581.2 648.3L579.1 645L577.1 641.7L575 638.3L573 635L571 631.6L568.9 628.2L566.9 624.8L564.9 621.4L562.8 618L560.8 614.5L558.8 611L556.8 607.6L554.8 604.1L552.8 600.6L550.8 597.1L548.8 593.5L546.8 590L544.8 586.5L542.8 582.9L540.9 579.3L538.9 575.7L536.9 572.1L535 568.5L533 564.9L531.1 561.3L529.2 557.7L527.2 554L525.3 550.4L523.4 546.7L521.5 543L519.6 539.4L517.7 535.7L515.8 532L514 528.3L512.1 524.6L510.2 520.9L508.4 517.2L506.5 513.4L504.7 509.7L502.9 506L501.1 502.2L499.3 498.5L497.5 494.7L495.7 491L493.9 487.2L492.2 483.5L490.4 479.7L488.7 475.9L486.9 472.2L485.2 468.4L483.5 464.6L481.8 460.9L480.1 457.1L478.4 453.3L476.7 449.5L475.1 445.8L473.4 442L471.8 438.2L470.2 434.4L468.5 430.6L466.9 426.9L465.4 423.1L463.8 419.3L462.2 415.6L460.7 411.8L459.1 408L457.6 404.3L456.1 400.5L454.6 396.8L453.1 393L451.6 389.3L450.1 385.5L448.7 381.8L447.2 378L445.8 374.3L444.4 370.6L443 366.9L441.6 363.2L440.3 359.5L438.9 355.8L437.5 352.1L436.2 348.4L434.9 344.8L433.6 341.1L432.3 337.4L431 333.8L429.8 330.2L428.5 326.5L427.3 322.9L426.1 319.3L424.9 315.7L423.7 312.1L422.5 308.6L421.4 305L420.2 301.5L419.1 297.9L418 294.4L416.9 290.9L415.8 287.4L414.7 283.9L413.7 280.4L412.6 277L411.6 273.5L410.6 270.1L409.6 266.7L408.7 263.3L407.7 259.9L406.7 256.5L405.8 253.2L404.9 249.8L404 246.5L403.1 243.2L402.2 239.9L401.4 236.7L400.6 233.4L399.7 230.2L398.9 227L398.1 223.8L397.4 220.6L396.6 217.4L395.9 214.3L395.1 211.2L394.4 208.1L393.7 205L393 201.9L392.4 198.9L391.7 195.9L391.1 192.9L390.5 189.9L389.9 186.9L389.3 184L388.7 181.1L388.1 178.2L387.6 175.4L387.1 172.5L386.6 169.7L386.1 166.9L385.6 164.1L385.1 161.4L384.7 158.7L384.3 156L383.8 153.3L383.4 150.6L383 148L382.7 145.4L382.3 142.9L382 140.3L381.7 137.8L381.3 135.3L381 132.8L380.8 130.4L380.5 128L380.3 125.6L380 123.2L379.8 120.9L379.6 118.6L379.4 116.3L379.2 114.1L379.1 111.9L378.9 109.7L378.8 107.5L378.7 105.4L378.6 103.3L378.5 101.2L378.4 99.2L378.3 97.1L378.3 95.2L378.3 93.2L378.2 91.3L378.2 89.4L378.2 87.5L378.3 85.7L378.3 83.9L378.4 82.1L378.4 80.4L378.5 78.7L378.6 77L378.7 75.4L378.8 73.8L378.9 72.2L379.1 70.7L379.2 69.2L379.4 67.7L379.6 66.2L379.8 64.8L380 63.4L380.2 62.1L380.4 60.8L380.7 59.5L380.9 58.3L381.2 57.1L381.5 55.9L381.8 54.7L382.1 53.6L382.4 52.5L382.7 51.5L383 50.5L383.4 49.5L383.8 48.6L384.1 47.7L384.5 46.8L384.9 46L385.3 45.2L385.7 44.4L386.1 43.7L386.6 43L387 42.4L387.5 41.7L387.9 41.2L388.4 40.6L388.9 40.1L389.4 39.6L389.9 39.2L390.4 38.8L390.9 38.4L391.5 38.1L392 37.8L392.5 37.5L393.1 37.3L393.7 37.1L394.2 36.9L394.8 36.8L395.4 36.7L396 36.7L396.6 36.7L397.2 36.7L397.8 36.8L398.5 36.9L399.1 37L399.8 37.2L400.4 37.4L401.1 37.6L401.7 37.9L402.4 38.2L403.1 38.6L403.8 39L404.4 39.4L405.1 39.8L405.8 40.3L406.6 40.9L407.3 41.5L408 42.1L408.7 42.7L409.4 43.4L410.2 44.1L410.9 44.9L411.7 45.6L412.4 46.5L413.2 47.3L413.9 48.2L414.7 49.1L415.4 50.1L416.2 51.1L417 52.2L417.8 53.2L418.5 54.3L419.3 55.5L420.1 56.7L420.9 57.9L421.7 59.1L422.5 60.4L423.3 61.7L424.1 63.1L424.9 64.5L425.7 65.9L426.5 67.4L427.3 68.9L428.1 70.4L428.9 71.9L429.7 73.5L430.5 75.2L431.4 76.8L432.2 78.5L433 80.3L433.8 82L434.6 83.8L435.5 85.7L436.3 87.5L437.1 89.4L437.9 91.4L438.7 93.3L439.5 95.3L440.4 97.3L441.2 99.4L442 101.5L442.8 103.6L443.6 105.8L444.4 108L445.2 110.2L446.1 112.4L446.9 114.7L447.7 117L448.5 119.4L449.3 121.7L450.1 124.1L450.9 126.6L451.7 129L452.5 131.5L453.3 134.1L454 136.6L454.8 139.2L455.6 141.8L456.4 144.5L457.2 147.1L457.9 149.8L458.7 152.5L459.5 155.3L460.2 158.1L461 160.9L461.7 163.7L462.5 166.6L463.2 169.5L464 172.4L464.7 175.3L465.4 178.3L466.2 181.3L466.9 184.3L467.6 187.4L468.3 190.4L469 193.5L469.7 196.7L470.4 199.8L471.1 203L471.8 206.2L472.4 209.4L473.1 212.6L473.8 215.9L474.4 219.2L475.1 222.5L475.7 225.8L476.4 229.2L477 232.6L477.6 236L478.2 239.4L478.9 242.8L479.5 246.3L480.1 249.8L480.6 253.3L481.2 256.8L481.8 260.3L482.4 263.9L482.9 267.5L483.5 271.1L484 274.7L484.6 278.3L485.1 282L485.6 285.6L486.1 289.3L486.6 293L487.1 296.8L487.6 300.5L488.1 304.3L488.6 308L489 311.8L489.5 315.6L489.9 319.4L490.4 323.3L490.8 327.1L491.2 331L491.6 334.9L492 338.7L492.4 342.6L492.8 346.6L493.1 350.5L493.5 354.4L493.9 358.4L494.2 362.3L494.5 366.3L494.9 370.3L495.2 374.3L495.5 378.3L495.8 382.3L496.1 386.3L496.3 390.4L496.6 394.4L496.9 398.4L497.1 402.5L497.4 406.6L497.6 410.6L497.8 414.7L498 418.8L498.2 422.9L498.4 427L498.6 431.1L498.7 435.2L498.9 439.3L499 443.5L499.2 447.6L499.3 451.7L499.4 455.9L499.5 460L499.6 464.1L499.7 468.3L499.8 472.4L499.8 476.6L499.9 480.7L499.9 484.9L500 489L500 493.2L500 497.4L500 501.5L500 505.7L500 509.8L499.9 514L499.9 518.1L499.9 522.3L499.8 526.4L499.7 530.6L499.6 534.7L499.5 538.9L499.4 543L499.3 547.1L499.2 551.3L499.1 555.4L498.9 559.5L498.8 563.6L498.6 567.8L498.4 571.9L498.3 576L498.1 580.1L497.9 584.2L497.6 588.2L497.4 592.3L497.2 596.4L496.9 600.4L496.7 604.5L496.4 608.5L496.1 612.6L495.9 616.6L495.6 620.6L495.3 624.6L495 628.6L494.6 632.6L494.3 636.6L494 640.5L493.6 644.5L493.2 648.4L492.9 652.4L492.5 656.3L492.1 660.2L491.7 664.1L491.3 668L490.9 671.8L490.5 675.7L490 679.5L489.6 683.3L489.1 687.1L488.7 690.9L488.2 694.7L487.7 698.5L487.3 702.2L486.8 705.9L486.3 709.6L485.7 713.3L485.2 717L484.7 720.7L484.2 724.3L483.6 727.9L483.1 731.5L482.5 735.1L482 738.7L481.4 742.2L480.8 745.8L480.2 749.3L479.6 752.8L479 756.2L478.4 759.7L477.8 763.1L477.2 766.5L476.5 769.9L475.9 773.3L475.3 776.6L474.6 779.9L474 783.2L473.3 786.5L472.6 789.7L472 792.9L471.3 796.1L470.6 799.3L469.9 802.5L469.2 805.6L468.5 808.7L467.8 811.8L467.1 814.8L466.4 817.9L465.6 820.9L464.9 823.8L464.2 826.8L463.4 829.7L462.7 832.6L461.9 835.5L461.2 838.3L460.4 841.2L459.7 843.9L458.9 846.7L458.1 849.4L457.4 852.1L456.6 854.8L455.8 857.5L455 860.1L454.3 862.7L453.5 865.2L452.7 867.8L451.9 870.3L451.1 872.7L450.3 875.2L449.5 877.6L448.7 880L447.9 882.3L447.1 884.7L446.3 886.9L445.5 889.2L444.7 891.4L443.8 893.6L443 895.8L442.2 897.9L441.4 900L440.6 902.1L439.8 904.1L438.9 906.1L438.1 908.1L437.3 910.1L436.5 912L435.7 913.8L434.9 915.7L434 917.5L433.2 919.3L432.4 921L431.6 922.7L430.8 924.4L430 926L429.1 927.6L428.3 929.2L427.5 930.7L426.7 932.2L425.9 933.7L425.1 935.1L424.3 936.5L423.5 937.9L422.7 939.2L421.9 940.5L421.1 941.8L420.3 943L419.5 944.2L418.8 945.4L418 946.5L417.2 947.6L416.4 948.6L415.6 949.6L414.9 950.6L414.1 951.5L413.4 952.4L412.6 953.3L411.9 954.1L411.1 954.9L410.4 955.7L409.6 956.4L408.9 957.1L408.2 957.8L407.5 958.4L406.7 959L406 959.5L405.3 960L404.6 960.5L403.9 960.9L403.3 961.3L402.6 961.7L401.9 962L401.2 962.3L400.6 962.6L399.9 962.8L399.3 963L398.6 963.1L398 963.2L397.4 963.3L396.8 963.3L396.2 963.3L395.6 963.3L395 963.2L394.4 963.1L393.8 963L393.2 962.8L392.7 962.6L392.1 962.3L391.6 962L391.1 961.7L390.5 961.3L390 960.9L389.5 960.5L389 960L388.5 959.5L388.1 959L387.6 958.4L387.1 957.8L386.7 957.2L386.3 956.5L385.8 955.8L385.4 955L385 954.2L384.6 953.4L384.2 952.5L383.9 951.7L383.5 950.7L383.1 949.8L382.8 948.8L382.5 947.7L382.2 946.7L381.8 945.6L381.6 944.4L381.3 943.3L381 942.1L380.7 940.8L380.5 939.6L380.3 938.3L380 936.9L379.8 935.6L379.6 934.2L379.4 932.7L379.3 931.2L379.1 929.7L379 928.2L378.8 926.6L378.7 925L378.6 923.4L378.5 921.8L378.4 920.1L378.4 918.3L378.3 916.6L378.3 914.8L378.2 913L378.2 911.1L378.2 909.2L378.3 907.3L378.3 905.4L378.3 903.4L378.4 901.4L378.5 899.4L378.5 897.3L378.6 895.2L378.7 893.1L378.9 890.9L379 888.7L379.2 886.5L379.4 884.3L379.5 882L379.7 879.7L380 877.4L380.2 875.1L380.4 872.7L380.7 870.3L381 867.8L381.3 865.4L381.6 862.9L381.9 860.4L382.2 857.8L382.6 855.3L382.9 852.7L383.3 850.1L383.7 847.4L384.1 844.8L384.6 842.1L385 839.4L385.5 836.6L385.9 833.9L386.4 831.1L386.9 828.3L387.5 825.4L388 822.6L388.5 819.7L389.1 816.8L389.7 813.9L390.3 810.9L390.9 807.9L391.5 805L392.2 801.9L392.9 798.9L393.5 795.9L394.2 792.8L394.9 789.7L395.7 786.6L396.4 783.4L397.1 780.3L397.9 777.1L398.7 773.9L399.5 770.7L400.3 767.5L401.2 764.2L402 761L402.9 757.7L403.8 754.4L404.6 751.1L405.6 747.7L406.5 744.4L407.4 741L408.4 737.6L409.4 734.2L410.3 730.8L411.3 727.4L412.4 724L413.4 720.5L414.5 717L415.5 713.6L416.6 710.1L417.7 706.6L418.8 703L419.9 699.5L421.1 696L422.2 692.4L423.4 688.8L424.6 685.3L425.8 681.7L427 678.1L428.2 674.5L429.4 670.8L430.7 667.2L432 663.6L433.2 659.9L434.5 656.2L435.9 652.6L437.2 648.9L438.5 645.2L439.9 641.5L441.2 637.8L442.6 634.1L444 630.4L445.4 626.7L446.9 623L448.3 619.2L449.7 615.5L451.2 611.8L452.7 608L454.2 604.3L455.7 600.5L457.2 596.8L458.7 593L460.2 589.2L461.8 585.5L463.3 581.7L464.9 577.9L466.5 574.2L468.1 570.4L469.7 566.6L471.3 562.8L473 559.1L474.6 555.3L476.3 551.5L477.9 547.7L479.6 543.9L481.3 540.2L483 536.4L484.7 532.6L486.4 528.9L488.2 525.1L489.9 521.3L491.7 517.6L493.4 513.8L495.2 510L497 506.3L498.8 502.5L500.6 498.8L502.4 495L504.2 491.3L506 487.6L507.9 483.9L509.7 480.1L511.6 476.4L513.4 472.7L515.3 469L517.2 465.3L519.1 461.6L521 458L522.9 454.3L524.8 450.6L526.7 447L528.6 443.3L530.6 439.7L532.5 436.1L534.5 432.4L536.4 428.8L538.4 425.2L540.3 421.7L542.3 418.1L544.3 414.5L546.3 411L548.2 407.4L550.2 403.9L552.2 400.4L554.2 396.9L556.2 393.4L558.3 389.9L560.3 386.4L562.3 383L564.3 379.5L566.3 376.1L568.4 372.7L570.4 369.3L572.4 365.9L574.5 362.6L576.5 359.2L578.6 355.9L580.6 352.6L582.7 349.3L584.7 346L586.8 342.7L588.8 339.5L590.9 336.2L593 333L595 329.8L597.1 326.6L599.1 323.5L601.2 320.3L603.3 317.2L605.3 314.1L607.4 311L609.4 307.9L611.5 304.9L613.6 301.9L615.6 298.8L617.7 295.9L619.7 292.9L621.8 289.9L623.9 287L625.9 284.1L628 281.2L630 278.4L632 275.5L634.1 272.7L636.1 269.9L638.2 267.1L640.2 264.4L642.2 261.6L644.2 258.9L646.3 256.2L648.3 253.6L650.3 250.9L652.3 248.3L654.3 245.7L656.3 243.2L658.3 240.6L660.3 238.1L662.3 235.6L664.2 233.2L666.2 230.7L668.2 228.3L670.1 225.9L672.1 223.5L674 221.2L675.9 218.9L677.9 216.6L679.8 214.3L681.7 212.1L683.6 209.9L685.5 207.7L687.4 205.5L689.2 203.4L691.1 201.3L693 199.2L694.8 197.2L696.7 195.2L698.5 193.2L700.3 191.2L702.1 189.3L703.9 187.3L705.7 185.5L707.5 183.6L709.3 181.8L711 180L712.8 178.2L714.5 176.5L716.2 174.8L717.9 173.1L719.6 171.4L721.3 169.8L723 168.2L724.7 166.6L726.3 165.1L727.9 163.6L729.6 162.1L731.2 160.6L732.8 159.2L734.3 157.8L735.9 156.4L737.4 155.1L739 153.8L740.5 152.5L742 151.3L743.5 150.1L745 148.9L746.4 147.7L747.9 146.6L749.3 145.5L750.7 144.4L752.1 143.4L753.5 142.4L754.9 141.4L756.2 140.5L757.6 139.6L758.9 138.7L760.2 137.8L761.4 137L762.7 136.2L764 135.5L765.2 134.7L766.4 134L767.6 133.4L768.7 132.7L769.9 132.1L771 131.5L772.1 131L773.2 130.5L774.3 130L775.4 129.5L776.4 129.1L777.4 128.7L778.4 128.3L779.4 128L780.4 127.7L781.3 127.4L782.2 127.2L783.1 127L784 126.8L784.9 126.6L785.7 126.5L786.5 126.4L787.3 126.3L788.1 126.3L788.8 126.3L789.5 126.3L790.2 126.4L790.9 126.5L791.6 126.6L792.2 126.7L792.8 126.9L793.4 127.1L794 127.3L794.6 127.6L795.1 127.9L795.6 128.2L796.1 128.6L796.5 128.9L797 129.3L797.4 129.8L797.8 130.2L798.1 130.7L798.5 131.3L798.8 131.8L799.1 132.4L799.3 133L799.6 133.6L799.8 134.3L800 135L800.2 135.7L800.3 136.5L800.4 137.2L800.5 138L800.6 138.9L800.7 139.7L800.7 140.6L800.7 141.5L800.7 142.5L800.6 143.4L800.5 144.4L800.4 145.4L800.3 146.5L800.2 147.6L800 148.6L799.8 149.8L799.6 150.9L799.3 152.1L799 153.3L798.7 154.5L798.4 155.8L798 157L797.7 158.3L797.3 159.7L796.8 161L796.4 162.4L795.9 163.8L795.4 165.2L794.9 166.6L794.3 168.1L793.7 169.6L793.1 171.1L792.5 172.7L791.8 174.2L791.1 175.8L790.4 177.4L789.7 179L788.9 180.7L788.1 182.4L787.3 184.1L786.5 185.8L785.6 187.5L784.7 189.3L783.8 191.1L782.8 192.9L781.9 194.7L780.9 196.5L779.8 198.4L778.8 200.3L777.7 202.2L776.6 204.1L775.5 206L774.3 208L773.2 210L772 212L770.7 214L769.5 216L768.2 218.1L766.9 220.1L765.6 222.2L764.2 224.3L762.8 226.5L761.4 228.6L760 230.8L758.6 232.9L757.1 235.1L755.6 237.3L754 239.6L752.5 241.8L750.9 244L749.3 246.3L747.7 248.6L746 250.9L744.4 253.2L742.7 255.5L740.9 257.9L739.2 260.2L737.4 262.6L735.6 265L733.8 267.4L732 269.8L730.1 272.2L728.2 274.6L726.3 277.1L724.4 279.5L722.4 282L720.4 284.5L718.4 287L716.4 289.5L714.4 292L712.3 294.5L710.2 297.1L708.1 299.6L705.9 302.2L703.8 304.7L701.6 307.3L699.4 309.9L697.2 312.5L694.9 315.1L692.7 317.7L690.4 320.3L688.1 322.9L685.7 325.5L683.4 328.2L681 330.8L678.6 333.5L676.2 336.1L673.8 338.8L671.3 341.5L668.9 344.1L666.4 346.8L663.9 349.5L661.4 352.2L658.8 354.9L656.2 357.6L653.7 360.3L651.1 363L648.4 365.7L645.8 368.4L643.2 371.1L640.5 373.9L637.8 376.6L635.1 379.3L632.4 382.1L629.6 384.8L626.9 387.5L624.1 390.3L621.3 393L618.5 395.7L615.7 398.5L612.9 401.2L610 403.9L607.1 406.7L604.3 409.4L601.4 412.2L598.4 414.9L595.5 417.6L592.6 420.4L589.6 423.1L586.7 425.8L583.7 428.6L580.7 431.3L577.7 434L574.7 436.7L571.6 439.5L568.6 442.2L565.5 444.9L562.5 447.6L559.4 450.3L556.3 453L553.2 455.7L550.1 458.4L547 461.1L543.8 463.8L540.7 466.5L537.6 469.1L534.4 471.8L531.2 474.5L528 477.1L524.9 479.8L521.7 482.4L518.5 485.1L515.2 487.7L512 490.3L508.8 492.9L505.6 495.5L502.3 498.1L499.1 500.7L495.8 503.3L492.6 505.9L489.3 508.5L486 511L482.7 513.6L479.5 516.1L476.2 518.6L472.9 521.2L469.6 523.7L466.3 526.2L463 528.7L459.7 531.2L456.4 533.6L453.1 536.1L449.7 538.5L446.4 541L443.1 543.4L439.8 545.8L436.5 548.2L433.1 550.6L429.8 553L426.5 555.4L423.1 557.7L419.8 560.1L416.5 562.4L413.2 564.7L409.8 567L406.5 569.3L403.2 571.6L399.9 573.8L396.6 576.1L393.2 578.3L389.9 580.5L386.6 582.7L383.3 584.9L380 587.1L376.7 589.3L373.4 591.4L370.1 593.5L366.8 595.7L363.5 597.8L360.2 599.8L357 601.9L353.7 604L350.4 606L347.2 608L343.9 610L340.7 612L337.4 614L334.2 616L331 617.9L327.8 619.8L324.6 621.7L321.4 623.6L318.2 625.5L315 627.3L311.8 629.2L308.7 631L305.5 632.8L302.4 634.6L299.2 636.3L296.1 638.1L293 639.8L289.9 641.5L286.8 643.2L283.7 644.9L280.7 646.6L277.6 648.2L274.6 649.8L271.6 651.4L268.6 653L265.6 654.6L262.6 656.1L259.6 657.6L256.6 659.1L253.7 660.6L250.8 662.1L247.9 663.5L245 664.9L242.1 666.4L239.2 667.7L236.4 669.1L233.5 670.5L230.7 671.8L227.9 673.1L225.1 674.4L222.4 675.6L219.6 676.9L216.9 678.1L214.2 679.3L211.5 680.5L208.8 681.7L206.2 682.8L203.5 684L200.9 685.1L198.3 686.1L195.7 687.2L193.2 688.3L190.6 689.3L188.1 690.3L185.6 691.3L183.2 692.2L180.7 693.2L178.3 694.1L175.9 695L173.5 695.9L171.1 696.7L168.8 697.6L166.5 698.4L164.2 699.2L161.9 700L159.6 700.7L157.4 701.5L155.2 702.2L153 702.9L150.9 703.5L148.7 704.2L146.6 704.8L144.6 705.4L142.5 706L140.5 706.6L138.5 707.2L136.5 707.7L134.5 708.2L132.6 708.7L130.7 709.2L128.9 709.6L127 710L125.2 710.4L123.4 710.8L121.6 711.2L119.9 711.5L118.2 711.9L116.5 712.2L114.9 712.5L113.2 712.7L111.6 713L110.1 713.2L108.5 713.4L107 713.6L105.5 713.8L104.1 713.9L102.7 714L101.3 714.1L99.9 714.2L98.6 714.3L97.3 714.3L96 714.4L94.7 714.4L93.5 714.4L92.3 714.4L91.2 714.3L90.1 714.2L89 714.2L87.9 714.1L86.9 713.9L85.9 713.8L84.9 713.6L84 713.5L83.1 713.3L82.2 713.1L81.4 712.8L80.6 712.6L79.8 712.3L79.1 712L78.4 711.7L77.7 711.4L77 711.1L76.4 710.7L75.8 710.3L75.3 709.9L74.8 709.5L74.3 709.1L73.8 708.7L73.4 708.2L73 707.7L72.7 707.2L72.4 706.7L72.1 706.2L71.9 705.7L71.6 705.1L71.5 704.6L71.3 704L71.2 703.4L71.1 702.7L71.1 702.1L71.1 701.5L71.1 700.8L71.1 700.1L71.2 699.4L71.3 698.7L71.5 698L71.7 697.3L71.9 696.5L72.2 695.7L72.5 695L72.8 694.2L73.1 693.4L73.5 692.5L74 691.7L74.4 690.9L74.9 690L75.5 689.1L76 688.2L76.6 687.3L77.2 686.4L77.9 685.5L78.6 684.6L79.4 683.6L80.1 682.7L80.9 681.7L81.8 680.7L82.6 679.7L83.5 678.7L84.5 677.7L85.4 676.7L86.4 675.6L87.5 674.6L88.6 673.5L89.7 672.4L90.8 671.4L92 670.3L93.2 669.2L94.4 668.1L95.7 666.9L97 665.8L98.3 664.7L99.7 663.5L101.1 662.4L102.5 661.2L104 660L105.5 658.9L107.1 657.7L108.6 656.5L110.2 655.3L111.9 654.1L113.5 652.8L115.2 651.6L116.9 650.4L118.7 649.1L120.5 647.9L122.3 646.6L124.2 645.4L126.1 644.1L128 642.8L129.9 641.6L131.9 640.3L133.9 639L136 637.7L138 636.4L140.1 635.1L142.3 633.8L144.4 632.5L146.6 631.1L148.8 629.8L151.1 628.5L153.4 627.2L155.7 625.8L158 624.5L160.4 623.1L162.8 621.8L165.2 620.4L167.7 619.1L170.2 617.7L172.7 616.4L175.2 615L177.8 613.7L180.4 612.3L183 610.9L185.6 609.6L188.3 608.2L191 606.8L193.7 605.4L196.5 604.1L199.3 602.7L202.1 601.3L204.9 599.9L207.8 598.6L210.7 597.2L213.6 595.8L216.5 594.4L219.5 593.1L222.5 591.7L225.5 590.3L228.5 588.9L231.6 587.6L234.6 586.2L237.7 584.8L240.9 583.5L244 582.1L247.2 580.7L250.4 579.4L253.6 578L256.8 576.6L260.1 575.3L263.4 573.9L266.7 572.6L270 571.2L273.3 569.9L276.7 568.5L280.1 567.2L283.5 565.9L286.9 564.5L290.4 563.2L293.8 561.9L297.3 560.6L300.8 559.2L304.3 557.9L307.8 556.6L311.4 555.3L315 554L318.6 552.7L322.2 551.4L325.8 550.2L329.4 548.9L333.1 547.6L336.7 546.3L340.4 545.1L344.1 543.8L347.8 542.6L351.6 541.3L355.3 540.1L359.1 538.9L362.8 537.6L366.6 536.4L370.4 535.2L374.2 534L378.1 532.8L381.9 531.6L385.7 530.4L389.6 529.3L393.5 528.1L397.3 526.9L401.2 525.8L405.1 524.6L409 523.5L413 522.4L416.9 521.3L420.8 520.1L424.8 519L428.7 517.9L432.7 516.9L436.7 515.8L440.6 514.7L444.6 513.6L448.6 512.6L452.6 511.5L456.6 510.5L460.6 509.5L464.7 508.5L468.7 507.5L472.7 506.5L476.7 505.5L480.8 504.5L484.8 503.5L488.8 502.6L492.9 501.6L496.9 500.7L501 499.8L505 498.9L509.1 497.9L513.2 497.1L517.2 496.2L521.3 495.3L525.3 494.4L529.4 493.6L533.5 492.7L537.5 491.9L541.6 491.1L545.6 490.3L549.7 489.5L553.7 488.7L557.8 487.9L561.8 487.1L565.9 486.4L569.9 485.6L574 484.9L578 484.2L582.1 483.4L586.1 482.7L590.1 482.1L594.1 481.4L598.1 480.7L602.1 480.1L606.1 479.4L610.1 478.8L614.1 478.2L618.1 477.5L622.1 477L626.1 476.4L630 475.8L634 475.2L637.9 474.7L641.8 474.1L645.8 473.6L649.7 473.1L653.6 472.6L657.5 472.1L661.4 471.6L665.2 471.2L669.1 470.7L672.9 470.3L676.8 469.8L680.6 469.4L684.4 469L688.2 468.6L692 468.2L695.8 467.8L699.5 467.5L703.3 467.1L707 466.8L710.7 466.5L714.4 466.1L718.1 465.8L721.8 465.6L725.4 465.3L729.1 465L732.7 464.7L736.3 464.5L739.9 464.3L743.5 464.1L747 463.8L750.6 463.6L754.1 463.5L757.6 463.3L761 463.1L764.5 463L767.9 462.8L771.4 462.7L774.8 462.6L778.1 462.5L781.5 462.4L784.8 462.3L788.2 462.2L791.5 462.2L794.7 462.1L798 462.1L801.2 462L804.4 462L807.6 462L810.8 462L813.9 462L817 462.1L820.1 462.1L823.2 462.1L826.2 462.2L829.2 462.3L832.2 462.3L835.2 462.4L838.1 462.5L841.1 462.6L844 462.8L846.8 462.9L849.7 463L852.5 463.2L855.3 463.3L858 463.5L860.7 463.7L863.4 463.9L866.1 464.1L868.8 464.3L871.4 464.5L874 464.7L876.5 464.9L879.1 465.2L881.6 465.4L884.1 465.7L886.5 466L888.9 466.2L891.3 466.5L893.7 466.8L896 467.1L898.3 467.4L900.5 467.7L902.8 468.1L905 468.4L907.2 468.8L909.3 469.1L911.4 469.5L913.5 469.8L915.5 470.2L917.5 470.6L919.5 471L921.5 471.4L923.4 471.8L925.3 472.2L927.1 472.6L928.9 473L930.7 473.4L932.5 473.9L934.2 474.3L935.9 474.8L937.5 475.2L939.1 475.7L940.7 476.1L942.3 476.6L943.8 477.1L945.2 477.6L946.7 478.1L948.1 478.5L949.5 479L950.8 479.5L952.1 480.1L953.4 480.6L954.6 481.1L955.8 481.6L957 482.1L958.1 482.7L959.2 483.2L960.2 483.7L961.3 484.3L962.3 484.8L963.2 485.4L964.1 485.9L965 486.5L965.8 487L966.6 487.6L967.4 488.2L968.1 488.7L968.8 489.3L969.5 489.9L970.1 490.4L970.7 491L971.2 491.6L971.7 492.2L972.2 492.8L972.6 493.3L973 493.9L973.4 494.5L973.7 495.1L974 495.7L974.3 496.3L974.5 496.9L974.7 497.5L974.8 498.1L974.9 498.7L975 499.2L975 499.8L975 500.4" opacity="0.12"/></g></svg>