<svg xmlns="http://www.w3.org/2000/svg" viewBox="0 0 1000 1000" preserveAspectRatio="xMidYMid slice" fill="none" stroke-linecap="round" stroke-linejoin="round"><g stroke="#0f3d2e" stroke-width="0.7"><path d="M975 500L975 499.4L974.9 498.8L974.7 498.2L974.5 497.6L974.2 497L973.9 496.4L973.5 495.9L973.1 495.3L972.5 494.7L972 494.1L971.3 493.5L970.6 492.9L969.9 492.4L969 491.8L968.2 491.2L967.2 490.7L966.2 490.1L965.2 489.5L964.1 489L962.9 488.4L961.6 487.9L960.4 487.3L959 486.8L957.6 486.3L956.1 485.7L954.6 485.2L953 484.7L951.4 484.2L949.6 483.7L947.9 483.2L946.1 482.7L944.2 482.2L942.3 481.7L940.3 481.3L938.2 480.8L936.1 480.4L934 479.9L931.8 479.5L929.5 479L927.2 478.6L924.8 478.2L922.4 477.8L919.9 477.4L917.4 477L914.8 476.6L912.1 476.3L909.4 475.9L906.7 475.6L903.9 475.2L901 474.9L898.1 474.6L895.2 474.3L892.2 474L889.1 473.7L886 473.4L882.9 473.2L879.7 472.9L876.4 472.7L873.1 472.4L869.8 472.2L866.4 472L863 471.8L859.5 471.6L856 471.5L852.4 471.3L848.8 471.2L845.1 471L841.4 470.9L837.7 470.8L833.9 470.7L830.1 470.6L826.2 470.6L822.3 470.5L818.3 470.5L814.3 470.4L810.3 470.4L806.2 470.4L802.1 470.4L798 470.5L793.8 470.5L789.6 470.6L785.3 470.7L781 470.7L776.7 470.8L772.3 471L767.9 471.1L763.5 471.2L759.1 471.4L754.6 471.6L750 471.8L745.5 472L740.9 472.2L736.3 472.4L731.6 472.7L727 472.9L722.3 473.2L717.5 473.5L712.8 473.8L708 474.1L703.2 474.5L698.4 474.8L693.5 475.2L688.7 475.6L683.8 476L678.8 476.4L673.9 476.8L668.9 477.3L664 477.7L659 478.2L653.9 478.7L648.9 479.2L643.8 479.7L638.8 480.3L633.7 480.8L628.6 481.4L623.5 482L618.3 482.6L613.2 483.2L608 483.8L602.9 484.5L597.7 485.1L592.5 485.8L587.3 486.5L582.1 487.2L576.9 487.9L571.6 488.6L566.4 489.4L561.2 490.1L555.9 490.9L550.7 491.7L545.4 492.5L540.2 493.3L534.9 494.1L529.6 495L524.4 495.8L519.1 496.7L513.8 497.6L508.6 498.5L503.3 499.4L498 500.3L492.8 501.3L487.5 502.2L482.3 503.2L477 504.2L471.8 505.2L466.5 506.2L461.3 507.2L456.1 508.2L450.9 509.3L445.7 510.3L440.5 511.4L435.3 512.4L430.1 513.5L424.9 514.6L419.8 515.7L414.6 516.9L409.5 518L404.4 519.1L399.3 520.3L394.2 521.4L389.2 522.6L384.1 523.8L379.1 525L374.1 526.2L369.1 527.4L364.1 528.6L359.1 529.8L354.2 531.1L349.3 532.3L344.4 533.6L339.5 534.8L334.7 536.1L329.9 537.4L325.1 538.7L320.3 539.9L315.6 541.2L310.8 542.5L306.2 543.9L301.5 545.2L296.8 546.5L292.2 547.8L287.7 549.2L283.1 550.5L278.6 551.8L274.1 553.2L269.6 554.5L265.2 555.9L260.8 557.3L256.5 558.6L252.2 560L247.9 561.4L243.6 562.7L239.4 564.1L235.2 565.5L231.1 566.9L227 568.3L222.9 569.7L218.8 571L214.8 572.4L210.9 573.8L207 575.2L203.1 576.6L199.3 578L195.5 579.4L191.7 580.8L188 582.2L184.3 583.6L180.7 584.9L177.1 586.3L173.6 587.7L170.1 589.1L166.6 590.5L163.2 591.8L159.9 593.2L156.6 594.6L153.3 596L150.1 597.3L146.9 598.7L143.8 600L140.7 601.4L137.7 602.7L134.7 604.1L131.8 605.4L128.9 606.7L126.1 608L123.3 609.4L120.5 610.7L117.9 612L115.2 613.3L112.6 614.5L110.1 615.8L107.6 617.1L105.2 618.3L102.9 619.6L100.5 620.8L98.3 622.1L96.1 623.3L93.9 624.5L91.8 625.7L89.7 626.9L87.7 628.1L85.8 629.3L83.9 630.4L82.1 631.6L80.3 632.7L78.6 633.8L76.9 634.9L75.3 636L73.8 637.1L72.3 638.2L70.8 639.3L69.4 640.3L68.1 641.3L66.8 642.3L65.6 643.3L64.5 644.3L63.3 645.3L62.3 646.3L61.3 647.2L60.4 648.1L59.5 649L58.7 649.9L57.9 650.8L57.2 651.7L56.6 652.5L56 653.3L55.5 654.1L55 654.9L54.6 655.7L54.2 656.4L53.9 657.2L53.7 657.9L53.5 658.6L53.4 659.2L53.3 659.9L53.3 660.5L53.3 661.2L53.4 661.7L53.6 662.3L53.8 662.9L54.1 663.4L54.4 663.9L54.8 664.4L55.3 664.9L55.8 665.3L56.3 665.7L56.9 666.1L57.6 666.5L58.3 666.9L59.1 667.2L60 667.5L60.8 667.8L61.8 668.1L62.8 668.3L63.9 668.5L65 668.7L66.2 668.9L67.4 669L68.7 669.2L70 669.3L71.4 669.3L72.8 669.4L74.3 669.4L75.9 669.4L77.5 669.4L79.1 669.3L80.8 669.2L82.6 669.1L84.4 669L86.3 668.9L88.2 668.7L90.1 668.5L92.2 668.2L94.2 668L96.3 667.7L98.5 667.4L100.7 667L103 666.7L105.3 666.3L107.7 665.9L110.1 665.4L112.5 665L115 664.5L117.6 663.9L120.2 663.4L122.8 662.8L125.5 662.2L128.3 661.6L131 660.9L133.9 660.2L136.7 659.5L139.6 658.8L142.6 658L145.6 657.2L148.6 656.4L151.7 655.5L154.8 654.7L158 653.8L161.2 652.8L164.4 651.9L167.7 650.9L171 649.9L174.4 648.8L177.8 647.8L181.2 646.7L184.7 645.6L188.2 644.4L191.8 643.2L195.4 642L199 640.8L202.6 639.5L206.3 638.3L210 637L213.8 635.6L217.6 634.3L221.4 632.9L225.2 631.5L229.1 630L233 628.6L237 627.1L240.9 625.5L244.9 624L248.9 622.4L253 620.8L257.1 619.2L261.2 617.6L265.3 615.9L269.5 614.2L273.6 612.5L277.8 610.8L282.1 609L286.3 607.2L290.6 605.4L294.9 603.5L299.2 601.7L303.5 599.8L307.9 597.9L312.3 596L316.7 594L321.1 592L325.5 590L329.9 588L334.4 585.9L338.9 583.9L343.4 581.8L347.9 579.7L352.4 577.5L356.9 575.4L361.5 573.2L366 571L370.6 568.8L375.2 566.6L379.8 564.3L384.4 562L389 559.8L393.6 557.4L398.2 555.1L402.9 552.8L407.5 550.4L412.1 548L416.8 545.6L421.4 543.2L426.1 540.7L430.7 538.3L435.4 535.8L440.1 533.3L444.7 530.8L449.4 528.3L454.1 525.8L458.7 523.2L463.4 520.7L468 518.1L472.7 515.5L477.4 512.9L482 510.3L486.7 507.6L491.3 505L495.9 502.3L500.6 499.7L505.2 497L509.8 494.3L514.4 491.6L519 488.9L523.6 486.2L528.2 483.4L532.7 480.7L537.3 478L541.9 475.2L546.4 472.4L550.9 469.7L555.4 466.9L559.9 464.1L564.4 461.3L568.9 458.5L573.3 455.7L577.8 452.9L582.2 450L586.6 447.2L591 444.4L595.3 441.6L599.7 438.7L604 435.9L608.3 433L612.6 430.2L616.8 427.4L621.1 424.5L625.3 421.7L629.5 418.8L633.7 416L637.8 413.1L641.9 410.3L646 407.4L650.1 404.6L654.2 401.7L658.2 398.9L662.2 396L666.2 393.2L670.1 390.4L674 387.5L677.9 384.7L681.8 381.9L685.6 379.1L689.4 376.3L693.1 373.5L696.9 370.7L700.6 367.9L704.2 365.1L707.9 362.3L711.5 359.6L715 356.8L718.6 354L722.1 351.3L725.6 348.6L729 345.9L732.4 343.1L735.7 340.4L739.1 337.8L742.4 335.1L745.6 332.4L748.8 329.8L752 327.1L755.1 324.5L758.2 321.9L761.3 319.3L764.3 316.7L767.3 314.2L770.2 311.6L773.1 309.1L776 306.6L778.8 304.1L781.6 301.6L784.4 299.1L787 296.7L789.7 294.3L792.3 291.9L794.9 289.5L797.4 287.1L799.9 284.8L802.3 282.4L804.7 280.1L807.1 277.9L809.4 275.6L811.7 273.4L813.9 271.1L816.1 268.9L818.2 266.8L820.3 264.6L822.3 262.5L824.3 260.4L826.3 258.3L828.2 256.3L830 254.3L831.8 252.3L833.6 250.3L835.3 248.4L837 246.5L838.6 244.6L840.2 242.7L841.7 240.9L843.2 239.1L844.6 237.3L846 235.6L847.4 233.9L848.7 232.2L849.9 230.5L851.1 228.9L852.3 227.3L853.4 225.8L854.4 224.2L855.4 222.7L856.4 221.3L857.3 219.8L858.2 218.4L859 217.1L859.7 215.7L860.4 214.4L861.1 213.2L861.7 211.9L862.3 210.7L862.8 209.6L863.3 208.5L863.7 207.4L864.1 206.3L864.4 205.3L864.7 204.3L865 203.4L865.1 202.5L865.3 201.6L865.4 200.7L865.4 199.9L865.4 199.2L865.4 198.5L865.3 197.8L865.1 197.1L864.9 196.5L864.7 195.9L864.4 195.4L864.1 194.9L863.7 194.5L863.2 194L862.8 193.7L862.3 193.3L861.7 193L861.1 192.8L860.4 192.6L859.7 192.4L859 192.2L858.2 192.1L857.3 192.1L856.4 192.1L855.5 192.1L854.5 192.2L853.5 192.3L852.5 192.4L851.4 192.6L850.2 192.8L849 193.1L847.8 193.4L846.5 193.8L845.2 194.2L843.8 194.6L842.4 195.1L841 195.6L839.5 196.2L838 196.8L836.4 197.4L834.8 198.1L833.1 198.8L831.5 199.6L829.7 200.4L828 201.3L826.2 202.2L824.3 203.1L822.4 204.1L820.5 205.1L818.6 206.2L816.6 207.3L814.5 208.4L812.5 209.6L810.4 210.9L808.2 212.1L806.1 213.4L803.8 214.8L801.6 216.2L799.3 217.6L797 219.1L794.7 220.6L792.3 222.2L789.9 223.8L787.4 225.4L785 227.1L782.5 228.8L779.9 230.6L777.4 232.4L774.8 234.2L772.1 236.1L769.5 238L766.8 240L764.1 242L761.3 244L758.6 246.1L755.8 248.2L752.9 250.4L750.1 252.6L747.2 254.8L744.3 257.1L741.4 259.4L738.4 261.7L735.5 264.1L732.5 266.5L729.5 269L726.4 271.5L723.3 274L720.3 276.6L717.2 279.2L714 281.8L710.9 284.5L707.7 287.2L704.5 289.9L701.3 292.7L698.1 295.5L694.9 298.4L691.6 301.2L688.3 304.1L685 307.1L681.7 310.1L678.4 313.1L675.1 316.1L671.7 319.2L668.4 322.3L665 325.4L661.6 328.5L658.2 331.7L654.8 335L651.3 338.2L647.9 341.5L644.5 344.8L641 348.1L637.5 351.5L634.1 354.9L630.6 358.3L627.1 361.7L623.6 365.2L620.1 368.7L616.6 372.2L613.1 375.8L609.5 379.3L606 382.9L602.5 386.5L598.9 390.2L595.4 393.8L591.9 397.5L588.3 401.2L584.8 404.9L581.2 408.7L577.7 412.5L574.1 416.2L570.6 420L567 423.9L563.5 427.7L560 431.6L556.4 435.5L552.9 439.3L549.3 443.3L545.8 447.2L542.3 451.1L538.8 455.1L535.2 459.1L531.7 463L528.2 467L524.7 471.1L521.2 475.1L517.8 479.1L514.3 483.2L510.8 487.2L507.3 491.3L503.9 495.4L500.5 499.5L497 503.6L493.6 507.7L490.2 511.8L486.8 515.9L483.4 520L480 524.2L476.7 528.3L473.3 532.4L470 536.6L466.7 540.7L463.4 544.9L460.1 549L456.8 553.2L453.5 557.4L450.3 561.5L447.1 565.7L443.9 569.8L440.7 574L437.5 578.2L434.3 582.3L431.2 586.5L428.1 590.6L425 594.8L421.9 598.9L418.9 603L415.8 607.2L412.8 611.3L409.8 615.4L406.8 619.5L403.9 623.7L400.9 627.8L398 631.8L395.2 635.9L392.3 640L389.5 644.1L386.6 648.1L383.8 652.1L381.1 656.2L378.3 660.2L375.6 664.2L372.9 668.2L370.3 672.1L367.6 676.1L365 680L362.4 684L359.9 687.9L357.4 691.8L354.8 695.6L352.4 699.5L349.9 703.3L347.5 707.2L345.1 711L342.8 714.7L340.4 718.5L338.1 722.2L335.9 725.9L333.6 729.6L331.4 733.3L329.2 736.9L327.1 740.6L324.9 744.2L322.8 747.7L320.8 751.3L318.8 754.8L316.8 758.3L314.8 761.7L312.9 765.2L311 768.6L309.1 772L307.2 775.3L305.4 778.6L303.7 781.9L301.9 785.2L300.2 788.4L298.5 791.6L296.9 794.8L295.3 797.9L293.7 801L292.2 804.1L290.7 807.1L289.2 810.1L287.8 813L286.4 816L285 818.9L283.6 821.7L282.3 824.5L281.1 827.3L279.8 830L278.6 832.7L277.5 835.4L276.3 838L275.2 840.6L274.2 843.1L273.1 845.6L272.2 848.1L271.2 850.5L270.3 852.9L269.4 855.3L268.5 857.5L267.7 859.8L266.9 862L266.2 864.2L265.4 866.3L264.8 868.4L264.1 870.4L263.5 872.4L262.9 874.4L262.4 876.3L261.9 878.1L261.4 879.9L260.9 881.7L260.5 883.4L260.2 885.1L259.8 886.7L259.5 888.3L259.3 889.8L259 891.3L258.8 892.7L258.6 894.1L258.5 895.4L258.4 896.7L258.3 897.9L258.3 899.1L258.3 900.2L258.3 901.3L258.4 902.3L258.5 903.3L258.6 904.3L258.8 905.1L259 906L259.2 906.8L259.4 907.5L259.7 908.2L260 908.8L260.4 909.4L260.8 909.9L261.2 910.3L261.6 910.8L262.1 911.1L262.6 911.4L263.2 911.7L263.7 911.9L264.3 912L265 912.1L265.6 912.2L266.3 912.2L267 912.1L267.8 912L268.5 911.8L269.3 911.6L270.2 911.3L271 911L271.9 910.6L272.8 910.2L273.7 909.7L274.7 909.2L275.7 908.6L276.7 907.9L277.8 907.2L278.8 906.5L279.9 905.7L281.1 904.8L282.2 903.9L283.4 902.9L284.6 901.9L285.8 900.8L287.1 899.7L288.3 898.5L289.6 897.3L290.9 896L292.3 894.6L293.6 893.2L295 891.8L296.4 890.3L297.8 888.7L299.3 887.1L300.8 885.5L302.3 883.8L303.8 882L305.3 880.2L306.8 878.3L308.4 876.4L310 874.5L311.6 872.4L313.2 870.4L314.9 868.3L316.5 866.1L318.2 863.9L319.9 861.6L321.6 859.3L323.4 856.9L325.1 854.5L326.9 852L328.7 849.5L330.4 847L332.3 844.4L334.1 841.7L335.9 839L337.8 836.3L339.6 833.5L341.5 830.6L343.4 827.7L345.3 824.8L347.2 821.8L349.1 818.8L351.1 815.7L353 812.6L355 809.5L356.9 806.3L358.9 803L360.9 799.7L362.9 796.4L364.9 793L366.9 789.6L368.9 786.2L370.9 782.7L373 779.1L375 775.5L377.1 771.9L379.1 768.3L381.2 764.6L383.3 760.9L385.3 757.1L387.4 753.3L389.5 749.4L391.6 745.6L393.7 741.6L395.8 737.7L397.9 733.7L400 729.7L402.1 725.6L404.2 721.5L406.3 717.4L408.4 713.3L410.5 709.1L412.6 704.9L414.7 700.6L416.8 696.3L418.9 692L421 687.7L423.1 683.3L425.2 678.9L427.3 674.5L429.4 670.1L431.5 665.6L433.6 661.1L435.7 656.6L437.8 652L439.9 647.4L442 642.8L444.1 638.2L446.1 633.6L448.2 628.9L450.3 624.2L452.3 619.5L454.4 614.8L456.4 610L458.5 605.3L460.5 600.5L462.5 595.7L464.5 590.9L466.6 586L468.6 581.2L470.5 576.3L472.5 571.4L474.5 566.5L476.5 561.6L478.4 556.7L480.4 551.8L482.3 546.8L484.3 541.9L486.2 536.9L488.1 531.9L490 527L491.9 522L493.7 517L495.6 512L497.5 506.9L499.3 501.9L501.1 496.9L502.9 491.9L504.7 486.9L506.5 481.8L508.3 476.8L510.1 471.7L511.8 466.7L513.5 461.7L515.3 456.6L517 451.6L518.6 446.6L520.3 441.5L522 436.5L523.6 431.5L525.3 426.5L526.9 421.4L528.5 416.4L530 411.4L531.6 406.4L533.2 401.5L534.7 396.5L536.2 391.5L537.7 386.5L539.2 381.6L540.6 376.7L542.1 371.7L543.5 366.8L544.9 361.9L546.3 357L547.7 352.2L549 347.3L550.4 342.5L551.7 337.6L553 332.8L554.3 328L555.6 323.3L556.8 318.5L558 313.8L559.2 309.1L560.4 304.4L561.6 299.7L562.7 295L563.9 290.4L565 285.8L566.1 281.2L567.1 276.7L568.2 272.1L569.2 267.6L570.2 263.2L571.2 258.7L572.2 254.3L573.2 249.9L574.1 245.5L575 241.2L575.9 236.9L576.8 232.6L577.6 228.4L578.4 224.2L579.2 220L580 215.8L580.8 211.7L581.6 207.6L582.3 203.6L583 199.6L583.7 195.6L584.3 191.7L585 187.8L585.6 183.9L586.2 180.1L586.8 176.3L587.4 172.6L587.9 168.9L588.5 165.2L589 161.6L589.4 158L589.9 154.4L590.4 150.9L590.8 147.5L591.2 144.1L591.6 140.7L591.9 137.4L592.3 134.1L592.6 130.8L592.9 127.6L593.2 124.5L593.5 121.4L593.7 118.3L594 115.3L594.2 112.4L594.4 109.5L594.5 106.6L594.7 103.8L594.8 101L594.9 98.3L595 95.6L595.1 93L595.2 90.4L595.2 87.9L595.2 85.5L595.2 83L595.2 80.7L595.2 78.4L595.1 76.1L595.1 73.9L595 71.8L594.9 69.7L594.8 67.6L594.6 65.7L594.5 63.7L594.3 61.9L594.1 60L593.9 58.3L593.7 56.6L593.5 54.9L593.2 53.3L593 51.8L592.7 50.3L592.4 48.9L592.1 47.5L591.8 46.2L591.4 44.9L591.1 43.7L590.7 42.6L590.3 41.5L589.9 40.5L589.5 39.5L589.1 38.6L588.7 37.8L588.2 37L587.8 36.2L587.3 35.6L586.8 35L586.3 34.4L585.8 33.9L585.3 33.5L584.7 33.1L584.2 32.8L583.6 32.5L583.1 32.4L582.5 32.2L581.9 32.1L581.3 32.1L580.7 32.2L580.1 32.3L579.4 32.4L578.8 32.7L578.2 33L577.5 33.3L576.8 33.7L576.2 34.2L575.5 34.7L574.8 35.3L574.1 35.9L573.4 36.6L572.7 37.4L571.9 38.2L571.2 39.1L570.5 40.1L569.7 41.1L569 42.1L568.2 43.2L567.5 44.4L566.7 45.7L565.9 47L565.2 48.3L564.4 49.7L563.6 51.2L562.8 52.7L562 54.3L561.2 56L560.4 57.7L559.6 59.4L558.8 61.3L558 63.1L557.2 65.1L556.4 67.1L555.6 69.1L554.8 71.2L554 73.4L553.1 75.6L552.3 77.8L551.5 80.2L550.7 82.5L549.9 85L549 87.5L548.2 90L547.4 92.6L546.6 95.2L545.7 97.9L544.9 100.7L544.1 103.5L543.3 106.3L542.5 109.2L541.7 112.2L540.9 115.2L540.1 118.2L539.3 121.4L538.5 124.5L537.7 127.7L536.9 131L536.1 134.3L535.3 137.6L534.5 141L533.7 144.4L532.9 147.9L532.2 151.5L531.4 155.1L530.6 158.7L529.9 162.3L529.1 166.1L528.4 169.8L527.7 173.6L526.9 177.5L526.2 181.3L525.5 185.3L524.8 189.2L524.1 193.2L523.4 197.3L522.7 201.4L522 205.5L521.3 209.7L520.6 213.9L520 218.1L519.3 222.4L518.7 226.7L518.1 231.1L517.4 235.4L516.8 239.9L516.2 244.3L515.6 248.8L515 253.3L514.4 257.9L513.9 262.5L513.3 267.1L512.8 271.7L512.2 276.4L511.7 281.1L511.2 285.8L510.6 290.6L510.1 295.4L509.7 300.2L509.2 305L508.7 309.9L508.3 314.8L507.8 319.7L507.4 324.7L507 329.6L506.5 334.6L506.1 339.6L505.8 344.7L505.4 349.7L505 354.8L504.7 359.9L504.3 365L504 370.1L503.7 375.2L503.4 380.4L503.1 385.6L502.8 390.7L502.6 395.9L502.3 401.2L502.1 406.4L501.8 411.6L501.6 416.9L501.4 422.1L501.2 427.4L501.1 432.7L500.9 438L500.8 443.3L500.6 448.6L500.5 453.9L500.4 459.2L500.3 464.6L500.2 469.9L500.1 475.2L500.1 480.6L500 485.9L500 491.3L500 496.6L500 501.9L500 507.3L500 512.6L500.1 518L500.1 523.3L500.2 528.6L500.3 534L500.4 539.3L500.5 544.6L500.6 549.9L500.7 555.2L500.9 560.5L501 565.8L501.2 571.1L501.4 576.4L501.6 581.7L501.8 586.9L502 592.2L502.2 597.4L502.5 602.6L502.7 607.8L503 613L503.3 618.2L503.6 623.4L503.9 628.5L504.2 633.6L504.6 638.7L504.9 643.8L505.3 648.9L505.7 654L506 659L506.4 664L506.8 669L507.3 674L507.7 678.9L508.1 683.8L508.6 688.7L509 693.6L509.5 698.5L510 703.3L510.5 708.1L511 712.9L511.5 717.6L512.1 722.3L512.6 727L513.1 731.6L513.7 736.3L514.3 740.9L514.9 745.4L515.4 750L516 754.5L516.6 758.9L517.3 763.3L517.9 767.7L518.5 772.1L519.2 776.4L519.8 780.7L520.5 785L521.1 789.2L521.8 793.4L522.5 797.5L523.2 801.6L523.9 805.6L524.6 809.7L525.3 813.6L526 817.6L526.7 821.5L527.5 825.3L528.2 829.1L528.9 832.9L529.7 836.6L530.4 840.3L531.2 844L532 847.6L532.7 851.1L533.5 854.6L534.3 858.1L535.1 861.5L535.9 864.8L536.6 868.1L537.4 871.4L538.2 874.6L539 877.8L539.8 880.9L540.6 884L541.5 887L542.3 890L543.1 892.9L543.9 895.7L544.7 898.6L545.5 901.3L546.3 904L547.2 906.7L548 909.3L548.8 911.9L549.6 914.4L550.4 916.8L551.3 919.2L552.1 921.5L552.9 923.8L553.7 926L554.5 928.2L555.4 930.3L556.2 932.4L557 934.4L557.8 936.3L558.6 938.2L559.4 940.1L560.2 941.8L561 943.6L561.8 945.2L562.6 946.8L563.4 948.4L564.2 949.9L565 951.3L565.7 952.7L566.5 954L567.3 955.2L568 956.4L568.8 957.6L569.5 958.6L570.3 959.7L571 960.6L571.7 961.5L572.5 962.4L573.2 963.2L573.9 963.9L574.6 964.5L575.3 965.1L576 965.7L576.6 966.2L577.3 966.6L578 966.9L578.6 967.3L579.3 967.5L579.9 967.7L580.5 967.8L581.1 967.9L581.7 967.9L582.3 967.8L582.9 967.7L583.5 967.5L584 967.3L584.6 967L585.1 966.6L585.7 966.2L586.2 965.7L586.7 965.2L587.2 964.6L587.6 963.9L588.1 963.2L588.6 962.5L589 961.6L589.4 960.7L589.8 959.8L590.2 958.8L590.6 957.7L591 956.6L591.3 955.4L591.7 954.2L592 952.9L592.3 951.5L592.6 950.1L592.9 948.6L593.2 947.1L593.4 945.5L593.7 943.9L593.9 942.2L594.1 940.5L594.3 938.7L594.4 936.8L594.6 934.9L594.7 932.9L594.9 930.9L595 928.8L595.1 926.7L595.1 924.5L595.2 922.2L595.2 919.9L595.2 917.6L595.2 915.2L595.2 912.8L595.2 910.3L595.1 907.7L595 905.1L595 902.4L594.8 899.7L594.7 897L594.6 894.2L594.4 891.3L594.2 888.4L594 885.5L593.8 882.5L593.5 879.5L593.3 876.4L593 873.2L592.7 870L592.4 866.8L592 863.5L591.7 860.2L591.3 856.9L590.9 853.5L590.5 850L590 846.5L589.6 843L589.1 839.4L588.6 835.8L588.1 832.2L587.5 828.5L587 824.7L586.4 820.9L585.8 817.1L585.2 813.3L584.5 809.4L583.9 805.5L583.2 801.5L582.5 797.5L581.8 793.5L581 789.4L580.3 785.3L579.5 781.2L578.7 777L577.8 772.8L577 768.5L576.1 764.3L575.2 760L574.3 755.7L573.4 751.3L572.5 746.9L571.5 742.5L570.5 738.1L569.5 733.6L568.5 729.1L567.4 724.6L566.4 720L565.3 715.4L564.2 710.9L563.1 706.2L561.9 701.6L560.7 696.9L559.6 692.2L558.4 687.5L557.1 682.8L555.9 678L554.6 673.3L553.4 668.5L552.1 663.7L550.8 658.9L549.4 654L548.1 649.2L546.7 644.3L545.3 639.4L543.9 634.5L542.5 629.6L541 624.7L539.6 619.8L538.1 614.8L536.6 609.9L535.1 604.9L533.6 599.9L532 594.9L530.5 589.9L528.9 584.9L527.3 579.9L525.7 574.9L524.1 569.9L522.4 564.9L520.8 559.8L519.1 554.8L517.4 549.8L515.7 544.7L514 539.7L512.3 534.7L510.5 529.6L508.8 524.6L507 519.6L505.2 514.5L503.4 509.5L501.6 504.5L499.8 499.4L498 494.4L496.1 489.4L494.3 484.4L492.4 479.4L490.5 474.4L488.6 469.4L486.7 464.5L484.8 459.5L482.9 454.5L480.9 449.6L479 444.6L477 439.7L475.1 434.8L473.1 429.9L471.1 425L469.1 420.2L467.1 415.3L465.1 410.5L463.1 405.6L461.1 400.8L459 396L457 391.3L454.9 386.5L452.9 381.8L450.8 377.1L448.8 372.4L446.7 367.7L444.6 363L442.6 358.4L440.5 353.8L438.4 349.2L436.3 344.7L434.2 340.1L432.1 335.6L430 331.2L427.9 326.7L425.8 322.3L423.7 317.9L421.6 313.5L419.5 309.1L417.4 304.8L415.3 300.5L413.2 296.3L411.1 292.1L408.9 287.9L406.8 283.7L404.7 279.6L402.6 275.5L400.5 271.4L398.4 267.4L396.3 263.4L394.2 259.4L392.1 255.5L390.1 251.6L388 247.8L385.9 244L383.8 240.2L381.8 236.4L379.7 232.7L377.6 229.1L375.6 225.4L373.5 221.9L371.5 218.3L369.5 214.8L367.5 211.3L365.4 207.9L363.4 204.5L361.4 201.2L359.4 197.9L357.5 194.6L355.5 191.4L353.5 188.2L351.6 185.1L349.6 182L347.7 179L345.8 176L343.9 173.1L342 170.2L340.1 167.3L338.3 164.5L336.4 161.7L334.6 159L332.7 156.4L330.9 153.7L329.1 151.2L327.4 148.6L325.6 146.2L323.8 143.7L322.1 141.4L320.4 139L318.7 136.7L317 134.5L315.3 132.3L313.7 130.2L312.1 128.1L310.4 126.1L308.9 124.1L307.3 122.2L305.7 120.3L304.2 118.5L302.7 116.7L301.2 115L299.7 113.3L298.2 111.7L296.8 110.1L295.4 108.6L294 107.2L292.6 105.8L291.3 104.4L290 103.1L288.7 101.8L287.4 100.6L286.1 99.5L284.9 98.4L283.7 97.4L282.5 96.4L281.4 95.5L280.2 94.6L279.1 93.7L278.1 93L277 92.3L276 91.6L275 91L274 90.4L273.1 89.9L272.1 89.5L271.3 89.1L270.4 88.7L269.5 88.4L268.7 88.2L268 88L267.2 87.9L266.5 87.8L265.8 87.8L265.1 87.8L264.5 87.9L263.9 88.1L263.3 88.2L262.8 88.5L262.3 88.8L261.8 89.1L261.3 89.5L260.9 90L260.5 90.5L260.1 91.1L259.8 91.7L259.5 92.3L259.3 93L259 93.8L258.8 94.6L258.6 95.5L258.5 96.4L258.4 97.4L258.3 98.4L258.3 99.5L258.3 100.6L258.3 101.8L258.4 103L258.5 104.2L258.6 105.6L258.8 106.9L259 108.3L259.2 109.8L259.4 111.3L259.7 112.9L260.1 114.5L260.4 116.1L260.8 117.8L261.3 119.6L261.7 121.4L262.2 123.2L262.8 125.1L263.3 127.1L263.9 129L264.6 131.1L265.3 133.1L266 135.2L266.7 137.4L267.5 139.6L268.3 141.8L269.1 144.1L270 146.4L270.9 148.8L271.9 151.2L272.9 153.7L273.9 156.2L274.9 158.7L276 161.3L277.2 163.9L278.3 166.5L279.5 169.2L280.7 172L282 174.7L283.3 177.5L284.6 180.4L286 183.2L287.4 186.2L288.8 189.1L290.3 192.1L291.8 195.1L293.3 198.2L294.9 201.2L296.5 204.4L298.1 207.5L299.8 210.7L301.5 213.9L303.2 217.2L305 220.5L306.8 223.8L308.6 227.1L310.4 230.5L312.3 233.9L314.3 237.3L316.2 240.8L318.2 244.2L320.2 247.8L322.3 251.3L324.4 254.9L326.5 258.4L328.6 262.1L330.8 265.7L333 269.4L335.2 273L337.5 276.8L339.8 280.5L342.1 284.2L344.5 288L346.9 291.8L349.3 295.6L351.7 299.4L354.2 303.3L356.7 307.2L359.2 311.1L361.7 315L364.3 318.9L366.9 322.8L369.5 326.8L372.2 330.7L374.9 334.7L377.6 338.7L380.3 342.7L383.1 346.8L385.9 350.8L388.7 354.8L391.5 358.9L394.4 363L397.2 367L400.1 371.1L403.1 375.2L406 379.3L409 383.4L412 387.6L415 391.7L418 395.8L421.1 400L424.1 404.1L427.2 408.2L430.4 412.4L433.5 416.5L436.6 420.7L439.8 424.9L443 429L446.2 433.2L449.4 437.3L452.7 441.5L455.9 445.7L459.2 449.8L462.5 454L465.8 458.1L469.1 462.3L472.4 466.4L475.8 470.6L479.1 474.7L482.5 478.8L485.9 483L489.3 487.1L492.7 491.2L496.1 495.3L499.5 499.4L502.9 503.5L506.4 507.6L509.9 511.7L513.3 515.7L516.8 519.8L520.3 523.8L523.8 527.8L527.3 531.9L530.8 535.9L534.3 539.9L537.8 543.8L541.3 547.8L544.8 551.7L548.4 555.7L551.9 559.6L555.4 563.5L559 567.4L562.5 571.2L566.1 575.1L569.6 578.9L573.2 582.7L576.7 586.5L580.3 590.3L583.8 594L587.4 597.8L590.9 601.5L594.4 605.2L598 608.8L601.5 612.5L605 616.1L608.6 619.7L612.1 623.3L615.6 626.8L619.1 630.3L622.6 633.8L626.1 637.3L629.6 640.8L633.1 644.2L636.6 647.6L640.1 651L643.5 654.3L647 657.6L650.4 660.9L653.8 664.2L657.3 667.4L660.7 670.6L664.1 673.7L667.4 676.9L670.8 680L674.2 683.1L677.5 686.1L680.8 689.1L684.1 692.1L687.4 695.1L690.7 698L694 700.9L697.2 703.7L700.4 706.5L703.7 709.3L706.8 712.1L710 714.8L713.2 717.5L716.3 720.1L719.4 722.7L722.5 725.3L725.6 727.8L728.6 730.3L731.6 732.8L734.7 735.2L737.6 737.6L740.6 740L743.5 742.3L746.4 744.6L749.3 746.8L752.2 749L755 751.2L757.8 753.3L760.6 755.4L763.3 757.4L766 759.4L768.7 761.4L771.4 763.3L774 765.2L776.6 767.1L779.2 768.9L781.8 770.7L784.3 772.4L786.8 774.1L789.2 775.8L791.6 777.4L794 778.9L796.4 780.5L798.7 782L801 783.4L803.2 784.8L805.5 786.2L807.6 787.5L809.8 788.8L811.9 790L814 791.2L816 792.4L818 793.5L820 794.6L821.9 795.6L823.8 796.6L825.7 797.6L827.5 798.5L829.3 799.3L831 800.2L832.7 800.9L834.3 801.7L836 802.4L837.5 803L839.1 803.7L840.6 804.2L842 804.8L843.5 805.3L844.8 805.7L846.2 806.1L847.4 806.5L848.7 806.8L849.9 807.1L851.1 807.3L852.2 807.5L853.2 807.7L854.3 807.8L855.3 807.9L856.2 807.9L857.1 807.9L857.9 807.9L858.7 807.8L859.5 807.7L860.2 807.5L860.9 807.3L861.5 807L862.1 806.8L862.6 806.4L863.1 806.1L863.6 805.7L864 805.2L864.3 804.7L864.6 804.2L864.9 803.7L865.1 803.1L865.2 802.4L865.3 801.7L865.4 801L865.4 800.3L865.4 799.5L865.3 798.7L865.2 797.8L865 796.9L864.8 796L864.5 795L864.2 794L863.8 792.9L863.4 791.8L863 790.7L862.5 789.6L861.9 788.4L861.3 787.2L860.6 785.9L859.9 784.6L859.2 783.3L858.4 781.9L857.5 780.6L856.6 779.1L855.7 777.7L854.7 776.2L853.7 774.7L852.6 773.1L851.4 771.5L850.2 769.9L849 768.3L847.7 766.6L846.4 764.9L845 763.2L843.6 761.4L842.1 759.6L840.6 757.8L839.1 755.9L837.4 754.1L835.8 752.2L834.1 750.2L832.3 748.3L830.5 746.3L828.7 744.3L826.8 742.2L824.9 740.2L822.9 738.1L820.8 736L818.8 733.8L816.7 731.7L814.5 729.5L812.3 727.3L810 725L807.7 722.8L805.4 720.5L803 718.2L800.6 715.9L798.1 713.5L795.6 711.2L793 708.8L790.4 706.4L787.8 704L785.1 701.5L782.4 699.1L779.6 696.6L776.8 694.1L773.9 691.6L771 689.1L768.1 686.5L765.1 684L762.1 681.4L759.1 678.8L756 676.2L752.9 673.6L749.7 671L746.5 668.3L743.3 665.6L740 663L736.7 660.3L733.3 657.6L729.9 654.9L726.5 652.2L723 649.4L719.5 646.7L716 644L712.5 641.2L708.9 638.4L705.2 635.7L701.6 632.9L697.9 630.1L694.2 627.3L690.4 624.5L686.6 621.7L682.8 618.9L679 616.1L675.1 613.2L671.2 610.4L667.2 607.6L663.3 604.7L659.3 601.9L655.3 599.1L651.2 596.2L647.2 593.4L643.1 590.5L639 587.7L634.8 584.8L630.6 582L626.5 579.1L622.2 576.3L618 573.4L613.7 570.6L609.5 567.7L605.2 564.9L600.9 562.1L596.5 559.2L592.2 556.4L587.8 553.6L583.4 550.7L579 547.9L574.5 545.1L570.1 542.3L565.6 539.5L561.2 536.7L556.7 533.9L552.2 531.1L547.6 528.3L543.1 525.6L538.6 522.8L534 520.1L529.4 517.3L524.9 514.6L520.3 511.8L515.7 509.1L511.1 506.4L506.4 503.7L501.8 501.1L497.2 498.4L492.6 495.7L487.9 493.1L483.3 490.4L478.6 487.8L474 485.2L469.3 482.6L464.7 480L460 477.5L455.3 474.9L450.7 472.4L446 469.9L441.3 467.4L436.7 464.9L432 462.4L427.4 459.9L422.7 457.5L418.1 455.1L413.4 452.7L408.8 450.3L404.1 447.9L399.5 445.5L394.9 443.2L390.2 440.9L385.6 438.6L381 436.3L376.4 434L371.9 431.8L367.3 429.6L362.7 427.4L358.2 425.2L353.6 423L349.1 420.9L344.6 418.8L340.1 416.7L335.6 414.6L331.2 412.6L326.7 410.5L322.3 408.5L317.9 406.5L313.5 404.6L309.1 402.6L304.7 400.7L300.4 398.8L296.1 397L291.8 395.1L287.5 393.3L283.2 391.5L279 389.7L274.8 388L270.6 386.2L266.4 384.5L262.3 382.9L258.2 381.2L254.1 379.6L250.1 378L246 376.4L242 374.9L238 373.3L234.1 371.9L230.2 370.4L226.3 368.9L222.4 367.5L218.6 366.1L214.8 364.7L211.1 363.4L207.3 362.1L203.6 360.8L200 359.5L196.3 358.3L192.8 357.1L189.2 355.9L185.7 354.8L182.2 353.6L178.7 352.5L175.3 351.5L172 350.4L168.6 349.4L165.3 348.4L162.1 347.4L158.9 346.5L155.7 345.6L152.6 344.7L149.5 343.8L146.4 343L143.4 342.2L140.4 341.4L137.5 340.7L134.6 340L131.8 339.3L129 338.6L126.3 338L123.6 337.4L120.9 336.8L118.3 336.2L115.7 335.7L113.2 335.2L110.7 334.7L108.3 334.2L105.9 333.8L103.6 333.4L101.3 333L99.1 332.7L96.9 332.4L94.8 332.1L92.7 331.8L90.7 331.6L88.7 331.4L86.8 331.2L84.9 331L83.1 330.9L81.3 330.8L79.6 330.7L77.9 330.6L76.3 330.6L74.7 330.6L73.2 330.6L71.8 330.7L70.4 330.7L69 330.8L67.7 330.9L66.5 331.1L65.3 331.2L64.2 331.4L63.1 331.6L62.1 331.9L61.1 332.1L60.2 332.4L59.3 332.7L58.5 333L57.8 333.4L57.1 333.8L56.5 334.1L55.9 334.6L55.4 335L54.9 335.5L54.5 336L54.2 336.5L53.9 337L53.7 337.5L53.5 338.1L53.4 338.7L53.3 339.3L53.3 339.9L53.3 340.6L53.5 341.2L53.6 341.9L53.9 342.6L54.1 343.4L54.5 344.1L54.9 344.9L55.3 345.7L55.8 346.5L56.4 347.3L57 348.1L57.7 349L58.5 349.8L59.3 350.7L60.1 351.6L61.1 352.5L62 353.5L63.1 354.4L64.1 355.4L65.3 356.4L66.5 357.4L67.7 358.4L69.1 359.4L70.4 360.5L71.9 361.5L73.3 362.6L74.9 363.7L76.5 364.8L78.1 365.9L79.8 367L81.6 368.1L83.4 369.3L85.3 370.4L87.2 371.6L89.2 372.8L91.2 374L93.3 375.2L95.5 376.4L97.7 377.6L99.9 378.8L102.2 380.1L104.6 381.3L107 382.6L109.4 383.8L112 385.1L114.5 386.4L117.1 387.7L119.8 389L122.5 390.3L125.3 391.6L128.1 392.9L131 394.2L133.9 395.6L136.9 396.9L139.9 398.3L142.9 399.6L146.1 401L149.2 402.3L152.4 403.7L155.7 405L159 406.4L162.3 407.8L165.7 409.2L169.1 410.5L172.6 411.9L176.2 413.3L179.7 414.7L183.3 416.1L187 417.5L190.7 418.8L194.4 420.2L198.2 421.6L202 423L205.9 424.4L209.8 425.8L213.8 427.2L217.7 428.6L221.8 430L225.8 431.4L229.9 432.7L234.1 434.1L238.2 435.5L242.4 436.9L246.7 438.3L251 439.6L255.3 441L259.6 442.4L264 443.7L268.4 445.1L272.9 446.4L277.4 447.8L281.9 449.1L286.4 450.5L291 451.8L295.6 453.1L300.2 454.5L304.9 455.8L309.6 457.1L314.3 458.4L319 459.7L323.8 461L328.6 462.3L333.4 463.6L338.2 464.8L343.1 466.1L348 467.3L352.9 468.6L357.8 469.8L362.7 471.1L367.7 472.3L372.7 473.5L377.7 474.7L382.7 475.9L387.8 477.1L392.8 478.2L397.9 479.4L403 480.6L408.1 481.7L413.2 482.8L418.4 484L423.5 485.1L428.7 486.2L433.9 487.3L439 488.3L444.2 489.4L449.4 490.5L454.7 491.5L459.9 492.5L465.1 493.5L470.3 494.6L475.6 495.5L480.8 496.5L486.1 497.5L491.3 498.5L496.6 499.4L501.9 500.3L507.1 501.2L512.4 502.1L517.6 503L522.9 503.9L528.2 504.8L533.4 505.6L538.7 506.5L544 507.3L549.2 508.1L554.5 508.9L559.7 509.7L565 510.4L570.2 511.2L575.4 511.9L580.6 512.6L585.9 513.3L591.1 514L596.3 514.7L601.4 515.4L606.6 516L611.8 516.6L616.9 517.3L622.1 517.9L627.2 518.5L632.3 519L637.4 519.6L642.5 520.1L647.5 520.7L652.6 521.2L657.6 521.7L662.6 522.1L667.6 522.6L672.5 523.1L677.5 523.5L682.4 523.9L687.3 524.3L692.2 524.7L697.1 525.1L701.9 525.4L706.7 525.8L711.5 526.1L716.2 526.4L721 526.7L725.7 527L730.4 527.3L735 527.5L739.6 527.8L744.2 528L748.8 528.2L753.3 528.4L757.8 528.6L762.3 528.7L766.7 528.9L771.1 529L775.5 529.1L779.8 529.2L784.1 529.3L788.4 529.4L792.6 529.5L796.8 529.5L801 529.5L805.1 529.6L809.2 529.6L813.2 529.6L817.2 529.5L821.2 529.5L825.1 529.5L829 529.4L832.8 529.3L836.6 529.2L840.4 529.1L844.1 529L847.8 528.9L851.4 528.7L855 528.6L858.5 528.4L862 528.2L865.5 528L868.9 527.8L872.2 527.6L875.5 527.4L878.8 527.2L882 526.9L885.2 526.7L888.3 526.4L891.3 526.1L894.4 525.8L897.3 525.5L900.2 525.2L903.1 524.9L905.9 524.5L908.7 524.2L911.4 523.8L914 523.5L916.6 523.1L919.2 522.7L921.7 522.3L924.1 521.9L926.5 521.5L928.9 521.1L931.1 520.6L933.4 520.2L935.5 519.8L937.7 519.3L939.7 518.9L941.7 518.4L943.7 517.9L945.6 517.4L947.4 516.9L949.2 516.4L950.9 515.9L952.6 515.4L954.2 514.9L955.7 514.4L957.2 513.9L958.6 513.3L960 512.8L961.3 512.3L962.5 511.7L963.7 511.2L964.9 510.6L966 510.1L967 509.5L967.9 508.9L968.8 508.4L969.6 507.8L970.4 507.2L971.1 506.6L971.8 506.1L972.4 505.5L972.9 504.9L973.4 504.3L973.8 503.7L974.2 503.1L974.4 502.5L974.7 501.9L974.8 501.3L975 500.8L975 500.2L975 499.6" opacity="0.12"/></g></svg>