<svg xmlns="http://www.w3.org/2000/svg" viewBox="0 0 1000 1000" preserveAspectRatio="xMidYMid slice" fill="none" stroke-linecap="round" stroke-linejoin="round"><g stroke="#0f3d2e" stroke-width="0.7"><path d="M975 500L975 500.3L974.9 500.5L974.9 500.8L974.8 501.1L974.6 501.4L974.5 501.6L974.3 501.9L974.1 502.2L973.9 502.4L973.6 502.7L973.3 503L973 503.2L972.6 503.5L972.2 503.7L971.8 504L971.4 504.2L970.9 504.5L970.4 504.8L969.9 505L969.4 505.2L968.8 505.5L968.2 505.7L967.5 506L966.9 506.2L966.2 506.4L965.5 506.7L964.7 506.9L964 507.1L963.2 507.3L962.3 507.5L961.5 507.7L960.6 507.9L959.7 508.1L958.8 508.3L957.8 508.5L956.8 508.7L955.8 508.9L954.8 509.1L953.7 509.2L952.6 509.4L951.5 509.6L950.3 509.7L949.1 509.9L947.9 510L946.7 510.2L945.5 510.3L944.2 510.4L942.9 510.5L941.5 510.7L940.2 510.8L938.8 510.9L937.4 511L936 511.1L934.5 511.1L933 511.2L931.5 511.3L930 511.3L928.4 511.4L926.8 511.4L925.2 511.5L923.6 511.5L921.9 511.5L920.3 511.5L918.6 511.5L916.8 511.5L915.1 511.5L913.3 511.5L911.5 511.5L909.7 511.5L907.8 511.4L906 511.4L904.1 511.3L902.1 511.2L900.2 511.2L898.2 511.1L896.3 511L894.3 510.9L892.2 510.8L890.2 510.6L888.1 510.5L886 510.4L883.9 510.2L881.8 510L879.6 509.9L877.4 509.7L875.2 509.5L873 509.3L870.8 509.1L868.5 508.9L866.2 508.6L863.9 508.4L861.6 508.1L859.3 507.9L856.9 507.6L854.5 507.3L852.2 507L849.7 506.7L847.3 506.4L844.8 506.1L842.4 505.7L839.9 505.4L837.4 505L834.9 504.7L832.3 504.3L829.8 503.9L827.2 503.5L824.6 503.1L822 502.6L819.4 502.2L816.7 501.8L814.1 501.3L811.4 500.8L808.7 500.3L806 499.8L803.3 499.3L800.5 498.8L797.8 498.3L795 497.7L792.2 497.2L789.4 496.6L786.6 496L783.8 495.5L781 494.8L778.1 494.2L775.2 493.6L772.4 493L769.5 492.3L766.6 491.7L763.7 491L760.7 490.3L757.8 489.6L754.9 488.9L751.9 488.2L748.9 487.4L745.9 486.7L742.9 485.9L739.9 485.2L736.9 484.4L733.9 483.6L730.9 482.8L727.8 482L724.8 481.1L721.7 480.3L718.6 479.4L715.5 478.6L712.4 477.7L709.3 476.8L706.2 475.9L703.1 475L700 474.1L696.9 473.1L693.7 472.2L690.6 471.2L687.4 470.2L684.3 469.3L681.1 468.3L677.9 467.3L674.8 466.2L671.6 465.2L668.4 464.2L665.2 463.1L662 462L658.8 461L655.6 459.9L652.4 458.8L649.2 457.7L646 456.5L642.7 455.4L639.5 454.3L636.3 453.1L633.1 451.9L629.8 450.7L626.6 449.6L623.4 448.4L620.1 447.1L616.9 445.9L613.6 444.7L610.4 443.4L607.1 442.2L603.9 440.9L600.7 439.6L597.4 438.3L594.2 437L590.9 435.7L587.7 434.4L584.4 433.1L581.2 431.8L577.9 430.4L574.7 429L571.5 427.7L568.2 426.3L565 424.9L561.8 423.5L558.5 422.1L555.3 420.7L552.1 419.3L548.9 417.8L545.6 416.4L542.4 414.9L539.2 413.5L536 412L532.8 410.5L529.6 409L526.4 407.5L523.2 406L520 404.5L516.9 403L513.7 401.5L510.5 399.9L507.4 398.4L504.2 396.8L501 395.3L497.9 393.7L494.8 392.1L491.6 390.5L488.5 388.9L485.4 387.4L482.3 385.7L479.2 384.1L476.1 382.5L473 380.9L470 379.3L466.9 377.6L463.8 376L460.8 374.3L457.8 372.7L454.7 371L451.7 369.4L448.7 367.7L445.7 366L442.7 364.3L439.8 362.6L436.8 360.9L433.8 359.3L430.9 357.6L428 355.8L425 354.1L422.1 352.4L419.2 350.7L416.3 349L413.5 347.3L410.6 345.5L407.8 343.8L404.9 342.1L402.1 340.3L399.3 338.6L396.5 336.8L393.7 335.1L390.9 333.3L388.2 331.6L385.4 329.8L382.7 328.1L380 326.3L377.3 324.6L374.6 322.8L371.9 321L369.3 319.3L366.6 317.5L364 315.7L361.4 314L358.8 312.2L356.2 310.4L353.7 308.7L351.1 306.9L348.6 305.1L346.1 303.4L343.6 301.6L341.1 299.8L338.6 298.1L336.2 296.3L333.8 294.6L331.3 292.8L328.9 291L326.6 289.3L324.2 287.5L321.9 285.8L319.5 284L317.2 282.3L314.9 280.5L312.7 278.8L310.4 277L308.2 275.3L305.9 273.6L303.7 271.8L301.6 270.1L299.4 268.4L297.3 266.7L295.1 264.9L293 263.2L290.9 261.5L288.9 259.8L286.8 258.1L284.8 256.4L282.8 254.7L280.8 253.1L278.8 251.4L276.9 249.7L274.9 248.1L273 246.4L271.1 244.7L269.3 243.1L267.4 241.5L265.6 239.8L263.8 238.2L262 236.6L260.2 235L258.5 233.4L256.8 231.8L255.1 230.2L253.4 228.6L251.7 227L250.1 225.5L248.4 223.9L246.8 222.4L245.3 220.9L243.7 219.3L242.2 217.8L240.6 216.3L239.1 214.8L237.7 213.3L236.2 211.8L234.8 210.4L233.4 208.9L232 207.5L230.6 206L229.3 204.6L227.9 203.2L226.6 201.8L225.4 200.4L224.1 199L222.9 197.7L221.6 196.3L220.5 195L219.3 193.7L218.1 192.3L217 191L215.9 189.7L214.8 188.5L213.7 187.2L212.7 185.9L211.7 184.7L210.7 183.5L209.7 182.3L208.7 181.1L207.8 179.9L206.9 178.7L206 177.6L205.1 176.4L204.3 175.3L203.5 174.2L202.7 173.1L201.9 172L201.1 171L200.4 169.9L199.7 168.9L199 167.9L198.3 166.9L197.6 165.9L197 164.9L196.4 164L195.8 163L195.3 162.1L194.7 161.2L194.2 160.3L193.7 159.5L193.2 158.6L192.7 157.8L192.3 157L191.9 156.2L191.5 155.4L191.1 154.6L190.7 153.9L190.4 153.2L190.1 152.5L189.8 151.8L189.5 151.1L189.3 150.5L189 149.8L188.8 149.2L188.6 148.6L188.5 148.1L188.3 147.5L188.2 147L188.1 146.5L188 146L187.9 145.5L187.9 145L187.8 144.6L187.8 144.2L187.8 143.8L187.9 143.4L187.9 143.1L188 142.7L188.1 142.4L188.2 142.1L188.3 141.9L188.4 141.6L188.6 141.4L188.8 141.2L189 141L189.2 140.8L189.4 140.7L189.7 140.6L190 140.5L190.2 140.4L190.6 140.3L190.9 140.3L191.2 140.3L191.6 140.3L192 140.3L192.4 140.4L192.8 140.5L193.2 140.6L193.7 140.7L194.1 140.8L194.6 141L195.1 141.2L195.6 141.4L196.1 141.6L196.7 141.9L197.3 142.2L197.8 142.5L198.4 142.8L199 143.2L199.7 143.5L200.3 143.9L201 144.3L201.6 144.8L202.3 145.2L203 145.7L203.8 146.3L204.5 146.8L205.2 147.3L206 147.9L206.8 148.5L207.6 149.2L208.4 149.8L209.2 150.5L210 151.2L210.9 151.9L211.7 152.7L212.6 153.4L213.5 154.2L214.4 155L215.3 155.9L216.2 156.7L217.2 157.6L218.1 158.5L219.1 159.5L220 160.4L221 161.4L222 162.4L223 163.5L224 164.5L225.1 165.6L226.1 166.7L227.2 167.8L228.2 169L229.3 170.1L230.4 171.3L231.5 172.5L232.6 173.8L233.7 175L234.8 176.3L235.9 177.6L237.1 179L238.2 180.3L239.4 181.7L240.6 183.1L241.8 184.5L242.9 186L244.1 187.5L245.3 189L246.6 190.5L247.8 192L249 193.6L250.2 195.2L251.5 196.8L252.7 198.4L254 200.1L255.2 201.8L256.5 203.5L257.8 205.2L259.1 206.9L260.4 208.7L261.7 210.5L263 212.3L264.3 214.1L265.6 216L266.9 217.9L268.2 219.8L269.6 221.7L270.9 223.6L272.2 225.6L273.6 227.6L274.9 229.6L276.3 231.6L277.6 233.7L279 235.7L280.3 237.8L281.7 239.9L283.1 242.1L284.5 244.2L285.8 246.4L287.2 248.6L288.6 250.8L290 253L291.4 255.3L292.8 257.6L294.1 259.9L295.5 262.2L296.9 264.5L298.3 266.9L299.7 269.2L301.1 271.6L302.5 274L303.9 276.5L305.3 278.9L306.7 281.4L308.1 283.9L309.5 286.4L310.9 288.9L312.3 291.4L313.7 294L315.1 296.6L316.6 299.2L318 301.8L319.4 304.4L320.8 307.1L322.1 309.7L323.5 312.4L324.9 315.1L326.3 317.8L327.7 320.5L329.1 323.3L330.5 326.1L331.9 328.8L333.3 331.6L334.7 334.4L336 337.3L337.4 340.1L338.8 343L340.2 345.8L341.5 348.7L342.9 351.6L344.2 354.5L345.6 357.4L347 360.4L348.3 363.3L349.6 366.3L351 369.3L352.3 372.3L353.7 375.3L355 378.3L356.3 381.3L357.6 384.4L358.9 387.5L360.2 390.5L361.5 393.6L362.8 396.7L364.1 399.8L365.4 402.9L366.7 406L368 409.2L369.2 412.3L370.5 415.5L371.8 418.7L373 421.8L374.3 425L375.5 428.2L376.7 431.4L378 434.7L379.2 437.9L380.4 441.1L381.6 444.4L382.8 447.6L384 450.9L385.1 454.1L386.3 457.4L387.5 460.7L388.6 464L389.8 467.3L390.9 470.6L392.1 473.9L393.2 477.2L394.3 480.5L395.4 483.9L396.5 487.2L397.6 490.5L398.7 493.9L399.8 497.2L400.9 500.6L401.9 504L403 507.3L404 510.7L405 514.1L406.1 517.4L407.1 520.8L408.1 524.2L409.1 527.6L410.1 531L411.1 534.4L412 537.8L413 541.1L413.9 544.5L414.9 547.9L415.8 551.3L416.7 554.7L417.6 558.1L418.5 561.5L419.4 564.9L420.3 568.3L421.2 571.7L422 575.1L422.9 578.5L423.7 581.9L424.6 585.3L425.4 588.7L426.2 592.1L427 595.5L427.8 598.9L428.5 602.3L429.3 605.7L430.1 609.1L430.8 612.5L431.6 615.8L432.3 619.2L433 622.6L433.7 626L434.4 629.3L435.1 632.7L435.8 636L436.4 639.4L437.1 642.7L437.7 646.1L438.3 649.4L439 652.7L439.6 656L440.2 659.3L440.7 662.7L441.3 666L441.9 669.2L442.4 672.5L443 675.8L443.5 679.1L444 682.3L444.6 685.6L445.1 688.8L445.5 692.1L446 695.3L446.5 698.5L447 701.7L447.4 704.9L447.8 708.1L448.3 711.3L448.7 714.5L449.1 717.6L449.5 720.8L449.9 723.9L450.2 727.1L450.6 730.2L450.9 733.3L451.3 736.4L451.6 739.5L451.9 742.5L452.2 745.6L452.5 748.6L452.8 751.6L453.1 754.7L453.4 757.7L453.6 760.7L453.9 763.6L454.1 766.6L454.4 769.5L454.6 772.5L454.8 775.4L455 778.3L455.2 781.2L455.3 784.1L455.5 786.9L455.7 789.8L455.8 792.6L456 795.4L456.1 798.2L456.2 801L456.3 803.7L456.4 806.5L456.5 809.2L456.6 811.9L456.7 814.6L456.8 817.3L456.8 819.9L456.9 822.6L456.9 825.2L456.9 827.8L456.9 830.4L457 832.9L457 835.5L457 838L457 840.5L456.9 843L456.9 845.5L456.9 847.9L456.8 850.3L456.8 852.8L456.7 855.1L456.6 857.5L456.6 859.9L456.5 862.2L456.4 864.5L456.3 866.8L456.2 869L456.1 871.3L456 873.5L455.8 875.7L455.7 877.9L455.6 880L455.4 882.1L455.3 884.2L455.1 886.3L454.9 888.4L454.8 890.4L454.6 892.4L454.4 894.4L454.2 896.4L454 898.3L453.8 900.3L453.6 902.2L453.4 904L453.2 905.9L453 907.7L452.7 909.5L452.5 911.3L452.3 913L452 914.8L451.8 916.5L451.5 918.2L451.3 919.8L451 921.4L450.8 923L450.5 924.6L450.2 926.2L449.9 927.7L449.7 929.2L449.4 930.7L449.1 932.1L448.8 933.6L448.5 935L448.2 936.3L447.9 937.7L447.6 939L447.3 940.3L447 941.5L446.7 942.8L446.4 944L446.1 945.2L445.8 946.3L445.4 947.5L445.1 948.6L444.8 949.7L444.5 950.7L444.2 951.7L443.8 952.7L443.5 953.7L443.2 954.7L442.9 955.6L442.5 956.5L442.2 957.3L441.9 958.2L441.6 959L441.2 959.7L440.9 960.5L440.6 961.2L440.2 961.9L439.9 962.6L439.6 963.2L439.3 963.8L438.9 964.4L438.6 965L438.3 965.5L438 966L437.7 966.5L437.3 966.9L437 967.3L436.7 967.7L436.4 968.1L436.1 968.4L435.8 968.7L435.5 969L435.2 969.2L434.9 969.4L434.6 969.6L434.3 969.8L434 969.9L433.7 970L433.4 970.1L433.1 970.2L432.9 970.2L432.6 970.2L432.3 970.2L432 970.1L431.8 970L431.5 969.9L431.3 969.7L431 969.6L430.8 969.4L430.6 969.1L430.3 968.9L430.1 968.6L429.9 968.3L429.6 967.9L429.4 967.6L429.2 967.2L429 966.8L428.8 966.3L428.6 965.8L428.5 965.3L428.3 964.8L428.1 964.2L428 963.6L427.8 963L427.7 962.4L427.5 961.7L427.4 961L427.2 960.3L427.1 959.5L427 958.8L426.9 958L426.8 957.1L426.7 956.3L426.6 955.4L426.6 954.5L426.5 953.6L426.4 952.6L426.4 951.6L426.3 950.6L426.3 949.6L426.3 948.5L426.3 947.4L426.3 946.3L426.3 945.1L426.3 944L426.3 942.8L426.3 941.6L426.4 940.3L426.4 939.1L426.5 937.8L426.6 936.4L426.6 935.1L426.7 933.7L426.8 932.3L426.9 930.9L427.1 929.5L427.2 928L427.3 926.5L427.5 925L427.6 923.5L427.8 921.9L428 920.4L428.2 918.7L428.4 917.1L428.6 915.5L428.8 913.8L429.1 912.1L429.3 910.4L429.6 908.6L429.9 906.9L430.2 905.1L430.5 903.3L430.8 901.5L431.1 899.6L431.4 897.7L431.8 895.8L432.1 893.9L432.5 892L432.9 890L433.3 888.1L433.7 886.1L434.1 884L434.5 882L435 879.9L435.4 877.9L435.9 875.8L436.4 873.7L436.9 871.5L437.4 869.4L437.9 867.2L438.4 865L439 862.8L439.5 860.6L440.1 858.3L440.7 856.1L441.3 853.8L441.9 851.5L442.5 849.1L443.1 846.8L443.8 844.5L444.4 842.1L445.1 839.7L445.8 837.3L446.5 834.9L447.2 832.4L448 830L448.7 827.5L449.5 825L450.2 822.6L451 820L451.8 817.5L452.6 815L453.5 812.4L454.3 809.8L455.2 807.3L456 804.7L456.9 802L457.8 799.4L458.7 796.8L459.6 794.1L460.6 791.5L461.5 788.8L462.5 786.1L463.4 783.4L464.4 780.7L465.4 778L466.5 775.2L467.5 772.5L468.5 769.7L469.6 766.9L470.7 764.2L471.7 761.4L472.8 758.6L474 755.7L475.1 752.9L476.2 750.1L477.4 747.3L478.5 744.4L479.7 741.5L480.9 738.7L482.1 735.8L483.3 732.9L484.6 730L485.8 727.1L487.1 724.2L488.4 721.3L489.6 718.4L490.9 715.4L492.3 712.5L493.6 709.6L494.9 706.6L496.3 703.7L497.6 700.7L499 697.7L500.4 694.8L501.8 691.8L503.2 688.8L504.7 685.8L506.1 682.8L507.6 679.8L509 676.8L510.5 673.8L512 670.8L513.5 667.8L515 664.8L516.5 661.8L518.1 658.8L519.6 655.7L521.2 652.7L522.8 649.7L524.3 646.7L525.9 643.6L527.6 640.6L529.2 637.6L530.8 634.5L532.4 631.5L534.1 628.5L535.8 625.4L537.4 622.4L539.1 619.4L540.8 616.3L542.5 613.3L544.3 610.3L546 607.2L547.7 604.2L549.5 601.2L551.2 598.2L553 595.1L554.8 592.1L556.6 589.1L558.4 586.1L560.2 583.1L562 580.1L563.8 577.1L565.7 574.1L567.5 571L569.4 568.1L571.2 565.1L573.1 562.1L575 559.1L576.9 556.1L578.8 553.1L580.7 550.2L582.6 547.2L584.5 544.2L586.5 541.3L588.4 538.3L590.3 535.4L592.3 532.5L594.3 529.5L596.2 526.6L598.2 523.7L600.2 520.8L602.2 517.9L604.2 515L606.2 512.1L608.2 509.3L610.2 506.4L612.2 503.5L614.2 500.7L616.3 497.8L618.3 495L620.3 492.2L622.4 489.4L624.4 486.5L626.5 483.8L628.6 481L630.6 478.2L632.7 475.4L634.8 472.7L636.9 469.9L638.9 467.2L641 464.5L643.1 461.7L645.2 459L647.3 456.4L649.4 453.7L651.5 451L653.6 448.3L655.7 445.7L657.8 443.1L660 440.5L662.1 437.8L664.2 435.3L666.3 432.7L668.4 430.1L670.5 427.5L672.7 425L674.8 422.5L676.9 420L679 417.5L681.2 415L683.3 412.5L685.4 410L687.5 407.6L689.7 405.2L691.8 402.7L693.9 400.3L696.1 397.9L698.2 395.6L700.3 393.2L702.4 390.9L704.5 388.5L706.7 386.2L708.8 383.9L710.9 381.7L713 379.4L715.1 377.1L717.2 374.9L719.3 372.7L721.4 370.5L723.5 368.3L725.6 366.1L727.7 364L729.8 361.9L731.9 359.7L733.9 357.6L736 355.6L738.1 353.5L740.1 351.4L742.2 349.4L744.3 347.4L746.3 345.4L748.3 343.4L750.4 341.5L752.4 339.5L754.4 337.6L756.5 335.7L758.5 333.8L760.5 331.9L762.5 330.1L764.5 328.2L766.4 326.4L768.4 324.6L770.4 322.8L772.3 321.1L774.3 319.3L776.2 317.6L778.2 315.9L780.1 314.2L782 312.6L783.9 310.9L785.8 309.3L787.7 307.7L789.6 306.1L791.5 304.5L793.3 303L795.2 301.4L797 299.9L798.9 298.4L800.7 296.9L802.5 295.5L804.3 294L806.1 292.6L807.9 291.2L809.6 289.8L811.4 288.5L813.1 287.1L814.8 285.8L816.6 284.5L818.3 283.2L820 282L821.6 280.7L823.3 279.5L824.9 278.3L826.6 277.1L828.2 276L829.8 274.8L831.4 273.7L833 272.6L834.6 271.5L836.1 270.5L837.7 269.4L839.2 268.4L840.7 267.4L842.2 266.4L843.7 265.4L845.1 264.5L846.6 263.6L848 262.6L849.4 261.8L850.8 260.9L852.2 260L853.6 259.2L854.9 258.4L856.2 257.6L857.5 256.9L858.8 256.1L860.1 255.4L861.4 254.7L862.6 254L863.9 253.3L865.1 252.6L866.3 252L867.4 251.4L868.6 250.8L869.7 250.2L870.8 249.7L871.9 249.1L873 248.6L874.1 248.1L875.1 247.6L876.1 247.2L877.1 246.7L878.1 246.3L879.1 245.9L880 245.5L881 245.1L881.9 244.8L882.7 244.5L883.6 244.1L884.4 243.9L885.3 243.6L886.1 243.3L886.8 243.1L887.6 242.9L888.3 242.6L889 242.5L889.7 242.3L890.4 242.1L891.1 242L891.7 241.9L892.3 241.8L892.9 241.7L893.4 241.6L894 241.6L894.5 241.6L895 241.5L895.5 241.6L895.9 241.6L896.3 241.6L896.8 241.7L897.1 241.7L897.5 241.8L897.8 241.9L898.1 242L898.4 242.2L898.7 242.3L898.9 242.5L899.2 242.7L899.3 242.9L899.5 243.1L899.7 243.3L899.8 243.6L899.9 243.8L900 244.1L900 244.4L900 244.7L900 245L900 245.3L900 245.7L899.9 246L899.8 246.4L899.7 246.8L899.5 247.2L899.4 247.6L899.2 248L899 248.5L898.7 248.9L898.5 249.4L898.2 249.9L897.9 250.4L897.5 250.9L897.1 251.4L896.8 252L896.3 252.5L895.9 253.1L895.4 253.6L894.9 254.2L894.4 254.8L893.9 255.4L893.3 256.1L892.7 256.7L892.1 257.3L891.5 258L890.8 258.6L890.1 259.3L889.4 260L888.6 260.7L887.9 261.4L887.1 262.1L886.3 262.9L885.4 263.6L884.6 264.3L883.7 265.1L882.7 265.9L881.8 266.6L880.8 267.4L879.8 268.2L878.8 269L877.8 269.8L876.7 270.6L875.6 271.5L874.5 272.3L873.3 273.2L872.2 274L871 274.9L869.7 275.7L868.5 276.6L867.2 277.5L865.9 278.4L864.6 279.3L863.3 280.2L861.9 281.1L860.5 282L859.1 282.9L857.7 283.9L856.2 284.8L854.7 285.8L853.2 286.7L851.6 287.7L850.1 288.6L848.5 289.6L846.9 290.6L845.2 291.5L843.6 292.5L841.9 293.5L840.2 294.5L838.5 295.5L836.7 296.5L834.9 297.5L833.1 298.5L831.3 299.5L829.4 300.5L827.6 301.5L825.7 302.5L823.8 303.6L821.8 304.6L819.9 305.6L817.9 306.7L815.9 307.7L813.8 308.7L811.8 309.8L809.7 310.8L807.6 311.8L805.5 312.9L803.3 313.9L801.2 315L799 316L796.8 317.1L794.6 318.1L792.3 319.2L790 320.2L787.7 321.3L785.4 322.3L783.1 323.4L780.7 324.4L778.4 325.5L776 326.5L773.6 327.6L771.1 328.7L768.7 329.7L766.2 330.8L763.7 331.8L761.2 332.9L758.6 333.9L756.1 334.9L753.5 336L750.9 337L748.3 338.1L745.7 339.1L743 340.1L740.4 341.2L737.7 342.2L735 343.2L732.3 344.3L729.5 345.3L726.8 346.3L724 347.3L721.2 348.3L718.4 349.3L715.6 350.4L712.7 351.4L709.9 352.4L707 353.4L704.1 354.3L701.2 355.3L698.3 356.3L695.4 357.3L692.4 358.3L689.4 359.2L686.5 360.2L683.5 361.2L680.4 362.1L677.4 363.1L674.4 364L671.3 365L668.3 365.9L665.2 366.8L662.1 367.8L659 368.7L655.9 369.6L652.7 370.5L649.6 371.4L646.4 372.3L643.2 373.2L640.1 374.1L636.9 374.9L633.7 375.8L630.4 376.7L627.2 377.5L624 378.4L620.7 379.2L617.5 380L614.2 380.9L610.9 381.7L607.6 382.5L604.3 383.3L601 384.1L597.7 384.9L594.4 385.7L591 386.5L587.7 387.2L584.3 388L581 388.7L577.6 389.5L574.2 390.2L570.8 390.9L567.4 391.7L564 392.4L560.6 393.1L557.2 393.8L553.8 394.4L550.4 395.1L547 395.8L543.5 396.4L540.1 397.1L536.6 397.7L533.2 398.4L529.7 399L526.3 399.6L522.8 400.2L519.3 400.8L515.9 401.4L512.4 402L508.9 402.5L505.4 403.1L502 403.6L498.5 404.2L495 404.7L491.5 405.2L488 405.7L484.5 406.2L481 406.7L477.5 407.2L474 407.7L470.5 408.2L467 408.6L463.5 409.1L460 409.5L456.5 409.9L453.1 410.3L449.6 410.7L446.1 411.1L442.6 411.5L439.1 411.9L435.6 412.2L432.1 412.6L428.6 412.9L425.1 413.3L421.7 413.6L418.2 413.9L414.7 414.2L411.2 414.5L407.8 414.8L404.3 415.1L400.9 415.3L397.4 415.6L394 415.8L390.5 416.1L387.1 416.3L383.7 416.5L380.2 416.7L376.8 416.9L373.4 417.1L370 417.3L366.6 417.4L363.2 417.6L359.8 417.8L356.4 417.9L353.1 418L349.7 418.1L346.4 418.2L343 418.3L339.7 418.4L336.3 418.5L333 418.6L329.7 418.6L326.4 418.7L323.1 418.7L319.8 418.7L316.6 418.8L313.3 418.8L310.1 418.8L306.8 418.8L303.6 418.8L300.4 418.7L297.2 418.7L294 418.7L290.8 418.6L287.6 418.5L284.5 418.5L281.3 418.4L278.2 418.3L275.1 418.2L272 418.1L268.9 418L265.8 417.9L262.7 417.7L259.7 417.6L256.6 417.5L253.6 417.3L250.6 417.1L247.6 417L244.7 416.8L241.7 416.6L238.7 416.4L235.8 416.2L232.9 416L230 415.8L227.1 415.5L224.3 415.3L221.4 415.1L218.6 414.8L215.8 414.6L213 414.3L210.2 414L207.4 413.7L204.7 413.5L202 413.2L199.3 412.9L196.6 412.6L193.9 412.3L191.3 411.9L188.6 411.6L186 411.3L183.4 410.9L180.8 410.6L178.3 410.3L175.8 409.9L173.2 409.5L170.8 409.2L168.3 408.8L165.8 408.4L163.4 408.1L161 407.7L158.6 407.3L156.2 406.9L153.9 406.5L151.6 406.1L149.3 405.7L147 405.3L144.7 404.8L142.5 404.4L140.3 404L138.1 403.6L135.9 403.1L133.7 402.7L131.6 402.2L129.5 401.8L127.4 401.3L125.4 400.9L123.3 400.4L121.3 400L119.4 399.5L117.4 399.1L115.5 398.6L113.5 398.1L111.6 397.7L109.8 397.2L107.9 396.7L106.1 396.2L104.3 395.7L102.6 395.3L100.8 394.8L99.1 394.3L97.4 393.8L95.7 393.3L94.1 392.8L92.5 392.4L90.9 391.9L89.3 391.4L87.8 390.9L86.3 390.4L84.8 389.9L83.3 389.4L81.9 388.9L80.5 388.4L79.1 388L77.7 387.5L76.4 387L75.1 386.5L73.8 386L72.5 385.5L71.3 385L70.1 384.5L68.9 384.1L67.8 383.6L66.7 383.1L65.6 382.6L64.5 382.2L63.5 381.7L62.4 381.2L61.5 380.8L60.5 380.3L59.6 379.8L58.7 379.4L57.8 378.9L56.9 378.5L56.1 378L55.3 377.6L54.5 377.1L53.8 376.7L53.1 376.3L52.4 375.8L51.7 375.4L51.1 375L50.5 374.6L49.9 374.1L49.4 373.7L48.8 373.3L48.4 372.9L47.9 372.6L47.4 372.2L47 371.8L46.6 371.4L46.3 371L46 370.7L45.7 370.3L45.4 370L45.1 369.6L44.9 369.3L44.7 368.9L44.6 368.6L44.4 368.3L44.3 368L44.2 367.7L44.2 367.4L44.1 367.1L44.1 366.8L44.2 366.5L44.2 366.3L44.3 366L44.4 365.8L44.5 365.5L44.7 365.3L44.9 365.1L45.1 364.8L45.3 364.6L45.6 364.4L45.9 364.2L46.2 364.1L46.6 363.9L47 363.7L47.4 363.6L47.8 363.4L48.2 363.3L48.7 363.2L49.2 363L49.8 362.9L50.3 362.8L50.9 362.8L51.5 362.7L52.2 362.6L52.8 362.6L53.5 362.5L54.2 362.5L55 362.5L55.8 362.5L56.5 362.5L57.4 362.5L58.2 362.5L59.1 362.5L60 362.6L60.9 362.7L61.8 362.7L62.8 362.8L63.8 362.9L64.8 363L65.8 363.1L66.9 363.3L68 363.4L69.1 363.6L70.3 363.7L71.4 363.9L72.6 364.1L73.8 364.3L75 364.5L76.3 364.8L77.6 365L78.9 365.3L80.2 365.6L81.5 365.8L82.9 366.1L84.3 366.5L85.7 366.8L87.2 367.1L88.6 367.5L90.1 367.9L91.6 368.2L93.1 368.6L94.7 369L96.2 369.5L97.8 369.9L99.4 370.4L101.1 370.8L102.7 371.3L104.4 371.8L106.1 372.3L107.8 372.9L109.5 373.4L111.3 373.9L113.1 374.5L114.8 375.1L116.7 375.7L118.5 376.3L120.3 376.9L122.2 377.6L124.1 378.3L126 378.9L127.9 379.6L129.9 380.3L131.8 381L133.8 381.8L135.8 382.5L137.8 383.3L139.9 384.1L141.9 384.9L144 385.7L146.1 386.5L148.2 387.4L150.3 388.2L152.4 389.1L154.6 390L156.7 390.9L158.9 391.8L161.1 392.7L163.3 393.7L165.5 394.7L167.8 395.7L170 396.7L172.3 397.7L174.6 398.7L176.9 399.7L179.2 400.8L181.5 401.9L183.9 403L186.2 404.1L188.6 405.2L191 406.3L193.3 407.5L195.8 408.7L198.2 409.9L200.6 411.1L203 412.3L205.5 413.5L208 414.8L210.4 416L212.9 417.3L215.4 418.6L217.9 419.9L220.4 421.2L223 422.6L225.5 423.9L228.1 425.3L230.6 426.7L233.2 428.1L235.8 429.5L238.3 430.9L240.9 432.4L243.5 433.8L246.2 435.3L248.8 436.8L251.4 438.3L254 439.8L256.7 441.4L259.3 442.9L262 444.5L264.7 446.1L267.3 447.7L270 449.3L272.7 450.9L275.4 452.5L278.1 454.2L280.8 455.8L283.5 457.5L286.2 459.2L288.9 460.9L291.6 462.7L294.4 464.4L297.1 466.1L299.8 467.9L302.6 469.7L305.3 471.5L308 473.3L310.8 475.1L313.5 476.9L316.3 478.8L319.1 480.6L321.8 482.5L324.6 484.4L327.3 486.3L330.1 488.2L332.9 490.1L335.6 492L338.4 494L341.2 495.9L343.9 497.9L346.7 499.9L349.5 501.9L352.3 503.9L355 505.9L357.8 507.9L360.6 510L363.3 512L366.1 514.1L368.9 516.1L371.6 518.2L374.4 520.3L377.2 522.4L379.9 524.5L382.7 526.7L385.4 528.8L388.2 530.9L390.9 533.1L393.7 535.3L396.4 537.4L399.2 539.6L401.9 541.8L404.6 544L407.4 546.2L410.1 548.5L412.8 550.7L415.5 552.9L418.2 555.2L420.9 557.4L423.6 559.7L426.3 562L429 564.3L431.7 566.6L434.4 568.9L437.1 571.2L439.7 573.5L442.4 575.8L445 578.1L447.7 580.5L450.3 582.8L452.9 585.1L455.6 587.5L458.2 589.9L460.8 592.2L463.4 594.6L466 597L468.6 599.3L471.1 601.7L473.7 604.1L476.3 606.5L478.8 608.9L481.4 611.3L483.9 613.8L486.4 616.2L488.9 618.6L491.4 621L493.9 623.4L496.4 625.9L498.9 628.3L501.3 630.7L503.8 633.2L506.2 635.6L508.7 638.1L511.1 640.5L513.5 643L515.9 645.4L518.3 647.9L520.6 650.4L523 652.8L525.3 655.3L527.7 657.7L530 660.2L532.3 662.7L534.6 665.1L536.9 667.6L539.2 670.1L541.5 672.5L543.7 675L545.9 677.5L548.2 679.9L550.4 682.4L552.6 684.8L554.8 687.3L556.9 689.8L559.1 692.2L561.2 694.7L563.3 697.1L565.5 699.6L567.6 702L569.6 704.5L571.7 706.9L573.8 709.4L575.8 711.8L577.8 714.2L579.9 716.7L581.9 719.1L583.8 721.5L585.8 723.9L587.8 726.4L589.7 728.8L591.6 731.2L593.5 733.6L595.4 736L597.3 738.4L599.1 740.7L601 743.1L602.8 745.5L604.6 747.9L606.4 750.2L608.2 752.6L609.9 754.9L611.7 757.3L613.4 759.6L615.1 761.9L616.8 764.2L618.5 766.5L620.2 768.8L621.8 771.1L623.4 773.4L625.1 775.7L626.7 778L628.2 780.2L629.8 782.5L631.3 784.7L632.9 786.9L634.4 789.1L635.9 791.4L637.3 793.6L638.8 795.7L640.2 797.9L641.7 800.1L643.1 802.2L644.5 804.4L645.8 806.5L647.2 808.6L648.5 810.8L649.8 812.8L651.1 814.9L652.4 817L653.7 819.1L654.9 821.1L656.2 823.1L657.4 825.2L658.6 827.2L659.8 829.2L660.9 831.1L662.1 833.1L663.2 835.1L664.3 837L665.4 838.9L666.5 840.8L667.5 842.7L668.6 844.6L669.6 846.5L670.6 848.3L671.6 850.1L672.5 852L673.5 853.8L674.4 855.5L675.3 857.3L676.2 859.1L677.1 860.8L678 862.5L678.8 864.2L679.6 865.9L680.5 867.6L681.2 869.2L682 870.8L682.8 872.5L683.5 874L684.2 875.6L684.9 877.2L685.6 878.7L686.3 880.2L687 881.7L687.6 883.2L688.2 884.7L688.8 886.1L689.4 887.6L690 889L690.5 890.3L691.1 891.7L691.6 893.1L692.1 894.4L692.6 895.7L693 897L693.5 898.2L693.9 899.5L694.3 900.7L694.7 901.9L695.1 903.1L695.5 904.2L695.9 905.4L696.2 906.5L696.5 907.6L696.8 908.6L697.1 909.7L697.4 910.7L697.6 911.7L697.9 912.7L698.1 913.7L698.3 914.6L698.5 915.5L698.7 916.4L698.9 917.3L699 918.1L699.2 918.9L699.3 919.7L699.4 920.5L699.5 921.2L699.6 922L699.6 922.7L699.7 923.4L699.7 924L699.7 924.6L699.8 925.2L699.7 925.8L699.7 926.4L699.7 926.9L699.6 927.4L699.6 927.9L699.5 928.4L699.4 928.8L699.3 929.2L699.2 929.6L699.1 930L698.9 930.3L698.8 930.6L698.6 930.9L698.4 931.1L698.3 931.4L698.1 931.6L697.8 931.8L697.6 931.9L697.4 932.1L697.1 932.2L696.9 932.2L696.6 932.3L696.3 932.3L696 932.3L695.7 932.3L695.4 932.2L695 932.2L694.7 932.1L694.4 931.9L694 931.8L693.6 931.6L693.2 931.4L692.8 931.2L692.4 930.9L692 930.6L691.6 930.3L691.2 930L690.7 929.6L690.3 929.2L689.8 928.8L689.4 928.3L688.9 927.9L688.4 927.4L687.9 926.8L687.4 926.3L686.9 925.7L686.4 925.1L685.9 924.5L685.3 923.8L684.8 923.1L684.2 922.4L683.7 921.7L683.1 920.9L682.5 920.1L682 919.3L681.4 918.5L680.8 917.6L680.2 916.7L679.6 915.8L679 914.8L678.3 913.9L677.7 912.9L677.1 911.8L676.5 910.8L675.8 909.7L675.2 908.6L674.5 907.5L673.9 906.3L673.2 905.1L672.5 903.9L671.9 902.7L671.2 901.4L670.5 900.1L669.8 898.8L669.1 897.5L668.4 896.1L667.7 894.7L667.1 893.3L666.3 891.8L665.6 890.4L664.9 888.9L664.2 887.4L663.5 885.8L662.8 884.3L662.1 882.7L661.4 881L660.6 879.4L659.9 877.7L659.2 876L658.4 874.3L657.7 872.6L657 870.8L656.2 869L655.5 867.2L654.8 865.4L654 863.5L653.3 861.6L652.6 859.7L651.8 857.8L651.1 855.8L650.3 853.8L649.6 851.8L648.9 849.8L648.1 847.8L647.4 845.7L646.6 843.6L645.9 841.5L645.2 839.3L644.4 837.2L643.7 835L643 832.8L642.2 830.5L641.5 828.3L640.8 826L640 823.7L639.3 821.4L638.6 819L637.9 816.7L637.1 814.3L636.4 811.9L635.7 809.5L635 807L634.3 804.5L633.6 802.1L632.9 799.6L632.2 797L631.5 794.5L630.8 791.9L630.1 789.3L629.4 786.7L628.7 784.1L628.1 781.4L627.4 778.8L626.7 776.1L626.1 773.4L625.4 770.7L624.7 767.9L624.1 765.2L623.4 762.4L622.8 759.6L622.2 756.8L621.5 754L620.9 751.1L620.3 748.3L619.7 745.4L619 742.5L618.4 739.6L617.8 736.7L617.3 733.7L616.7 730.8L616.1 727.8L615.5 724.8L614.9 721.8L614.4 718.8L613.8 715.7L613.3 712.7L612.7 709.6L612.2 706.5L611.7 703.4L611.1 700.3L610.6 697.2L610.1 694.1L609.6 690.9L609.1 687.8L608.6 684.6L608.2 681.4L607.7 678.2L607.2 675L606.8 671.8L606.3 668.6L605.9 665.3L605.4 662L605 658.8L604.6 655.5L604.2 652.2L603.8 648.9L603.4 645.6L603 642.3L602.6 638.9L602.3 635.6L601.9 632.3L601.6 628.9L601.2 625.5L600.9 622.2L600.6 618.8L600.2 615.4L599.9 612L599.6 608.6L599.3 605.2L599.1 601.7L598.8 598.3L598.5 594.9L598.3 591.4L598 588L597.8 584.5L597.6 581.1L597.4 577.6L597.1 574.1L597 570.6L596.8 567.2L596.6 563.7L596.4 560.2L596.3 556.7L596.1 553.2L596 549.7L595.8 546.2L595.7 542.7L595.6 539.2L595.5 535.6L595.4 532.1L595.3 528.6L595.2 525.1L595.2 521.6L595.1 518L595.1 514.5L595 511L595 507.5L595 503.9L595 500.4L595 496.9L595 493.3L595 489.8L595.1 486.3L595.1 482.8L595.2 479.2L595.2 475.7L595.3 472.2L595.4 468.7L595.5 465.2L595.6 461.6L595.7 458.1L595.8 454.6L595.9 451.1L596.1 447.6L596.2 444.1L596.4 440.6L596.5 437.1L596.7 433.6L596.9 430.2L597.1 426.7L597.3 423.2L597.5 419.7L597.7 416.3L598 412.8L598.2 409.4L598.5 405.9L598.7 402.5L599 399.1L599.3 395.6L599.6 392.2L599.9 388.8L600.2 385.4L600.5 382L600.8 378.6L601.1 375.2L601.5 371.9L601.8 368.5L602.2 365.2L602.5 361.8L602.9 358.5L603.3 355.2L603.7 351.8L604.1 348.5L604.5 345.3L604.9 342L605.3 338.7L605.8 335.4L606.2 332.2L606.7 329L607.1 325.7L607.6 322.5L608 319.3L608.5 316.1L609 312.9L609.5 309.8L610 306.6L610.5 303.5L611 300.4L611.5 297.3L612.1 294.2L612.6 291.1L613.1 288L613.7 285L614.2 281.9L614.8 278.9L615.4 275.9L615.9 272.9L616.5 269.9L617.1 267L617.7 264L618.3 261.1L618.9 258.2L619.5 255.3L620.1 252.4L620.8 249.5L621.4 246.7L622 243.8L622.6 241L623.3 238.2L623.9 235.4L624.6 232.7L625.2 229.9L625.9 227.2L626.6 224.5L627.2 221.8L627.9 219.2L628.6 216.5L629.3 213.9L629.9 211.3L630.6 208.7L631.3 206.1L632 203.6L632.7 201L633.4 198.5L634.1 196L634.8 193.5L635.6 191.1L636.3 188.7L637 186.3L637.7 183.9L638.4 181.5L639.1 179.2L639.9 176.8L640.6 174.5L641.3 172.2L642.1 170L642.8 167.8L643.5 165.5L644.3 163.3L645 161.2L645.7 159L646.5 156.9L647.2 154.8L647.9 152.7L648.7 150.7L649.4 148.6L650.2 146.6L650.9 144.6L651.6 142.7L652.4 140.7L653.1 138.8L653.9 136.9L654.6 135.1L655.3 133.2L656.1 131.4L656.8 129.6L657.5 127.8L658.3 126.1L659 124.3L659.7 122.6L660.5 121L661.2 119.3L661.9 117.7L662.6 116.1L663.3 114.5L664.1 113L664.8 111.5L665.5 110L666.2 108.5L666.9 107L667.6 105.6L668.3 104.2L669 102.8L669.7 101.5L670.3 100.2L671 98.9L671.7 97.6L672.4 96.4L673 95.2L673.7 94L674.4 92.8L675 91.7L675.7 90.6L676.3 89.5L676.9 88.4L677.6 87.4L678.2 86.4L678.8 85.4L679.4 84.4L680 83.5L680.6 82.6L681.2 81.7L681.8 80.9L682.4 80.1L683 79.3L683.5 78.5L684.1 77.7L684.6 77L685.2 76.3L685.7 75.7L686.3 75L686.8 74.4L687.3 73.8L687.8 73.3L688.3 72.8L688.8 72.3L689.3 71.8L689.7 71.3L690.2 70.9L690.6 70.5L691.1 70.1L691.5 69.8L691.9 69.5L692.4 69.2L692.8 68.9L693.2 68.7L693.5 68.4L693.9 68.3L694.3 68.1L694.6 68L695 67.9L695.3 67.8L695.6 67.7L695.9 67.7L696.2 67.7L696.5 67.7L696.8 67.7L697.1 67.8L697.3 67.9L697.6 68L697.8 68.2L698 68.4L698.2 68.6L698.4 68.8L698.6 69.1L698.7 69.3L698.9 69.6L699 70L699.2 70.3L699.3 70.7L699.4 71.1L699.5 71.5L699.6 72L699.6 72.5L699.7 73L699.7 73.5L699.7 74L699.8 74.6L699.7 75.2L699.7 75.8L699.7 76.5L699.7 77.2L699.6 77.9L699.5 78.6L699.4 79.3L699.3 80.1L699.2 80.9L699.1 81.7L698.9 82.5L698.8 83.4L698.6 84.3L698.4 85.2L698.2 86.1L697.9 87.1L697.7 88.1L697.4 89.1L697.2 90.1L696.9 91.1L696.6 92.2L696.3 93.3L695.9 94.4L695.6 95.5L695.2 96.7L694.8 97.8L694.4 99L694 100.2L693.6 101.5L693.1 102.7L692.7 104L692.2 105.3L691.7 106.6L691.2 108L690.6 109.3L690.1 110.7L689.5 112.1L688.9 113.5L688.4 115L687.7 116.4L687.1 117.9L686.5 119.4L685.8 120.9L685.1 122.5L684.4 124L683.7 125.6L682.9 127.2L682.2 128.8L681.4 130.4L680.6 132.1L679.8 133.7L679 135.4L678.2 137.1L677.3 138.8L676.4 140.5L675.5 142.3L674.6 144L673.7 145.8L672.8 147.6L671.8 149.4L670.8 151.3L669.8 153.1L668.8 155L667.8 156.8L666.7 158.7L665.6 160.6L664.6 162.6L663.5 164.5L662.3 166.4L661.2 168.4L660 170.4L658.9 172.4L657.7 174.4L656.5 176.4L655.2 178.4L654 180.5L652.7 182.5L651.4 184.6L650.1 186.7L648.8 188.8L647.5 190.9L646.1 193L644.8 195.1L643.4 197.3L642 199.4L640.6 201.6L639.1 203.8L637.7 205.9L636.2 208.1L634.7 210.3L633.2 212.6L631.7 214.8L630.1 217L628.6 219.3L627 221.5L625.4 223.8L623.8 226.1L622.2 228.3L620.5 230.6L618.9 232.9L617.2 235.2L615.5 237.6L613.8 239.9L612.1 242.2L610.3 244.5L608.6 246.9L606.8 249.2L605 251.6L603.2 254L601.4 256.3L599.6 258.7L597.7 261.1L595.8 263.5L593.9 265.9L592 268.3L590.1 270.7L588.2 273.1L586.2 275.5L584.3 277.9L582.3 280.3L580.3 282.8L578.3 285.2L576.3 287.6L574.2 290.1L572.2 292.5L570.1 295L568 297.4L565.9 299.9L563.8 302.3L561.7 304.8L559.6 307.2L557.4 309.7L555.3 312.1L553.1 314.6L550.9 317.1L548.7 319.5L546.5 322L544.2 324.4L542 326.9L539.7 329.4L537.4 331.8L535.2 334.3L532.9 336.8L530.5 339.2L528.2 341.7L525.9 344.2L523.5 346.6L521.2 349.1L518.8 351.5L516.4 354L514 356.5L511.6 358.9L509.2 361.4L506.8 363.8L504.3 366.2L501.9 368.7L499.4 371.1L497 373.6L494.5 376L492 378.4L489.5 380.9L487 383.3L484.5 385.7L481.9 388.1L479.4 390.5L476.9 392.9L474.3 395.3L471.7 397.7L469.2 400.1L466.6 402.5L464 404.9L461.4 407.2L458.8 409.6L456.2 412L453.5 414.3L450.9 416.7L448.3 419L445.6 421.3L443 423.7L440.3 426L437.7 428.3L435 430.6L432.3 432.9L429.6 435.2L426.9 437.5L424.3 439.8L421.6 442L418.9 444.3L416.1 446.5L413.4 448.8L410.7 451L408 453.2L405.3 455.5L402.5 457.7L399.8 459.9L397.1 462.1L394.3 464.2L391.6 466.4L388.8 468.6L386.1 470.7L383.3 472.8L380.6 475L377.8 477.1L375 479.2L372.3 481.3L369.5 483.4L366.7 485.5L364 487.5L361.2 489.6L358.4 491.6L355.7 493.6L352.9 495.7L350.1 497.7L347.3 499.7L344.6 501.7L341.8 503.6L339 505.6L336.3 507.5L333.5 509.5L330.7 511.4L328 513.3L325.2 515.2L322.4 517.1L319.7 519L316.9 520.8L314.2 522.7L311.4 524.5L308.7 526.3L305.9 528.1L303.2 529.9L300.4 531.7L297.7 533.5L295 535.2L292.3 537L289.5 538.7L286.8 540.4L284.1 542.1L281.4 543.8L278.7 545.4L276 547.1L273.3 548.7L270.6 550.4L267.9 552L265.3 553.6L262.6 555.2L259.9 556.7L257.3 558.3L254.6 559.8L252 561.3L249.4 562.8L246.8 564.3L244.1 565.8L241.5 567.3L238.9 568.7L236.4 570.2L233.8 571.6L231.2 573L228.6 574.4L226.1 575.8L223.6 577.1L221 578.5L218.5 579.8L216 581.1L213.5 582.4L211 583.7L208.5 585L206.1 586.2L203.6 587.4L201.2 588.7L198.7 589.9L196.3 591.1L193.9 592.2L191.5 593.4L189.1 594.5L186.8 595.7L184.4 596.8L182.1 597.9L179.7 599L177.4 600L175.1 601.1L172.8 602.1L170.5 603.1L168.3 604.1L166 605.1L163.8 606.1L161.6 607L159.4 608L157.2 608.9L155 609.8L152.9 610.7L150.8 611.6L148.6 612.4L146.5 613.3L144.4 614.1L142.4 614.9L140.3 615.7L138.3 616.5L136.3 617.3L134.3 618L132.3 618.8L130.3 619.5L128.4 620.2L126.4 620.9L124.5 621.6L122.6 622.3L120.8 622.9L118.9 623.5L117.1 624.2L115.3 624.8L113.5 625.3L111.7 625.9L109.9 626.5L108.2 627L106.5 627.6L104.8 628.1L103.1 628.6L101.4 629.1L99.8 629.5L98.2 630L96.6 630.4L95 630.9L93.5 631.3L92 631.7L90.4 632.1L89 632.4L87.5 632.8L86.1 633.1L84.6 633.5L83.2 633.8L81.9 634.1L80.5 634.4L79.2 634.7L77.9 634.9L76.6 635.2L75.3 635.4L74.1 635.6L72.9 635.8L71.7 636L70.5 636.2L69.4 636.4L68.3 636.6L67.2 636.7L66.1 636.8L65 637L64 637.1L63 637.2L62 637.3L61.1 637.3L60.2 637.4L59.3 637.4L58.4 637.5L57.6 637.5L56.7 637.5L55.9 637.5L55.2 637.5L54.4 637.5L53.7 637.5L53 637.4L52.3 637.4L51.7 637.3L51.1 637.3L50.5 637.2L49.9 637.1L49.4 637L48.8 636.9L48.4 636.7L47.9 636.6L47.5 636.5L47.1 636.3L46.7 636.2L46.3 636L46 635.8L45.7 635.6L45.4 635.4L45.2 635.2L44.9 635L44.7 634.8L44.6 634.5L44.4 634.3L44.3 634L44.2 633.8L44.2 633.5L44.1 633.3L44.1 633L44.2 632.7L44.2 632.4L44.3 632.1L44.4 631.8L44.5 631.5L44.7 631.1L44.9 630.8L45.1 630.5L45.3 630.1L45.6 629.8L45.9 629.4L46.2 629L46.6 628.7L46.9 628.3L47.3 627.9L47.8 627.5L48.2 627.1L48.7 626.8L49.2 626.4L49.8 625.9L50.4 625.5L51 625.1L51.6 624.7L52.2 624.3L52.9 623.8L53.6 623.4L54.4 623L55.1 622.5L55.9 622.1L56.7 621.6L57.6 621.2L58.5 620.7L59.4 620.3L60.3 619.8L61.2 619.4L62.2 618.9L63.2 618.4L64.3 617.9L65.3 617.5L66.4 617L67.5 616.5L68.7 616L69.8 615.6L71 615.1L72.2 614.6L73.5 614.1L74.8 613.6L76.1 613.1L77.4 612.6L78.8 612.2L80.1 611.7L81.5 611.2L83 610.7L84.4 610.2L85.9 609.7L87.4 609.2L89 608.7L90.5 608.2L92.1 607.8L93.7 607.3L95.4 606.8L97 606.3L98.7 605.8L100.4 605.3L102.2 604.8L103.9 604.4L105.7 603.9L107.5 603.4L109.4 602.9L111.2 602.5L113.1 602L115 601.5L116.9 601L118.9 600.6L120.9 600.1L122.9 599.7L124.9 599.2L127 598.8L129 598.3L131.1 597.9L133.3 597.4L135.4 597L137.6 596.5L139.8 596.1L142 595.7L144.2 595.3L146.4 594.8L148.7 594.4L151 594L153.3 593.6L155.7 593.2L158.1 592.8L160.4 592.4L162.8 592L165.3 591.7L167.7 591.3L170.2 590.9L172.7 590.5L175.2 590.2L177.7 589.8L180.3 589.5L182.8 589.1L185.4 588.8L188 588.5L190.7 588.1L193.3 587.8L196 587.5L198.6 587.2L201.3 586.9L204.1 586.6L206.8 586.3L209.6 586L212.3 585.8L215.1 585.5L217.9 585.3L220.8 585L223.6 584.8L226.5 584.5L229.3 584.3L232.2 584.1L235.1 583.9L238.1 583.7L241 583.5L244 583.3L246.9 583.1L249.9 582.9L252.9 582.7L256 582.6L259 582.4L262 582.3L265.1 582.2L268.2 582L271.3 581.9L274.4 581.8L277.5 581.7L280.6 581.6L283.7 581.5L286.9 581.5L290.1 581.4L293.2 581.4L296.4 581.3L299.6 581.3L302.9 581.2L306.1 581.2L309.3 581.2L312.6 581.2L315.8 581.2L319.1 581.2L322.4 581.3L325.7 581.3L329 581.4L332.3 581.4L335.6 581.5L338.9 581.6L342.2 581.6L345.6 581.7L348.9 581.8L352.3 582L355.7 582.1L359 582.2L362.4 582.4L365.8 582.5L369.2 582.7L372.6 582.9L376 583L379.5 583.2L382.9 583.4L386.3 583.6L389.7 583.9L393.2 584.1L396.6 584.3L400.1 584.6L403.5 584.9L407 585.1L410.5 585.4L413.9 585.7L417.4 586L420.9 586.3L424.3 586.6L427.8 587L431.3 587.3L434.8 587.7L438.3 588L441.8 588.4L445.3 588.8L448.8 589.2L452.2 589.6L455.7 590L459.2 590.4L462.7 590.8L466.2 591.3L469.7 591.7L473.2 592.2L476.7 592.7L480.2 593.1L483.7 593.6L487.2 594.1L490.7 594.6L494.2 595.2L497.7 595.7L501.2 596.2L504.6 596.8L508.1 597.3L511.6 597.9L515.1 598.5L518.5 599.1L522 599.7L525.5 600.3L528.9 600.9L532.4 601.5L535.8 602.1L539.3 602.8L542.7 603.4L546.2 604.1L549.6 604.7L553 605.4L556.4 606.1L559.9 606.8L563.3 607.5L566.7 608.2L570.1 608.9L573.4 609.6L576.8 610.4L580.2 611.1L583.6 611.8L586.9 612.6L590.3 613.4L593.6 614.1L596.9 614.9L600.2 615.7L603.6 616.5L606.9 617.3L610.2 618.1L613.4 618.9L616.7 619.8L620 620.6L623.2 621.4L626.5 622.3L629.7 623.1L632.9 624L636.1 624.9L639.3 625.7L642.5 626.6L645.7 627.5L648.8 628.4L652 629.3L655.1 630.2L658.3 631.1L661.4 632L664.5 633L667.6 633.9L670.6 634.8L673.7 635.8L676.7 636.7L679.7 637.7L682.8 638.6L685.8 639.6L688.7 640.5L691.7 641.5L694.7 642.5L697.6 643.5L700.5 644.4L703.4 645.4L706.3 646.4L709.2 647.4L712.1 648.4L714.9 649.4L717.7 650.4L720.6 651.4L723.4 652.4L726.1 653.5L728.9 654.5L731.6 655.5L734.4 656.5L737.1 657.6L739.7 658.6L742.4 659.6L745.1 660.7L747.7 661.7L750.3 662.7L752.9 663.8L755.5 664.8L758.1 665.9L760.6 666.9L763.1 668L765.6 669L768.1 670.1L770.6 671.1L773 672.2L775.4 673.2L777.8 674.3L780.2 675.3L782.6 676.4L784.9 677.4L787.2 678.5L789.5 679.5L791.8 680.6L794 681.6L796.3 682.7L798.5 683.7L800.7 684.8L802.8 685.8L805 686.9L807.1 687.9L809.2 689L811.3 690L813.4 691L815.4 692.1L817.4 693.1L819.4 694.1L821.4 695.2L823.3 696.2L825.2 697.2L827.1 698.2L829 699.3L830.9 700.3L832.7 701.3L834.5 702.3L836.3 703.3L838.1 704.3L839.8 705.3L841.5 706.3L843.2 707.3L844.9 708.2L846.5 709.2L848.1 710.2L849.7 711.2L851.3 712.1L852.8 713.1L854.3 714L855.8 715L857.3 715.9L858.8 716.8L860.2 717.8L861.6 718.7L863 719.6L864.3 720.5L865.6 721.4L866.9 722.3L868.2 723.2L869.5 724.1L870.7 724.9L871.9 725.8L873.1 726.6L874.2 727.5L875.3 728.3L876.4 729.2L877.5 730L878.6 730.8L879.6 731.6L880.6 732.4L881.6 733.2L882.5 734L883.4 734.7L884.3 735.5L885.2 736.2L886.1 737L886.9 737.7L887.7 738.4L888.5 739.1L889.2 739.8L889.9 740.5L890.6 741.2L891.3 741.9L892 742.5L892.6 743.2L893.2 743.8L893.8 744.4L894.3 745L894.8 745.6L895.3 746.2L895.8 746.8L896.2 747.4L896.7 747.9L897.1 748.4L897.4 749L897.8 749.5L898.1 750L898.4 750.5L898.7 750.9L898.9 751.4L899.1 751.9L899.3 752.3L899.5 752.7L899.7 753.1L899.8 753.5L899.9 753.9L900 754.2L900 754.6L900 754.9L900 755.3L900 755.6L900 755.9L899.9 756.1L899.8 756.4L899.7 756.6L899.6 756.9L899.4 757.1L899.2 757.3L899 757.5L898.7 757.6L898.5 757.8L898.2 757.9L897.9 758.1L897.6 758.2L897.2 758.3L896.8 758.3L896.4 758.4L896 758.4L895.6 758.4L895.1 758.5L894.6 758.4L894.1 758.4L893.6 758.4L893 758.3L892.4 758.2L891.8 758.1L891.2 758L890.6 757.9L889.9 757.7L889.2 757.6L888.5 757.4L887.8 757.2L887 757L886.2 756.7L885.4 756.5L884.6 756.2L883.8 755.9L882.9 755.6L882.1 755.3L881.2 754.9L880.2 754.6L879.3 754.2L878.4 753.8L877.4 753.4L876.4 752.9L875.4 752.5L874.3 752L873.3 751.5L872.2 751L871.1 750.5L870 749.9L868.9 749.3L867.7 748.7L866.5 748.1L865.3 747.5L864.1 746.9L862.9 746.2L861.7 745.5L860.4 744.8L859.1 744.1L857.8 743.3L856.5 742.6L855.2 741.8L853.9 741L852.5 740.1L851.1 739.3L849.7 738.4L848.3 737.6L846.9 736.7L845.4 735.7L844 734.8L842.5 733.8L841 732.8L839.5 731.8L838 730.8L836.5 729.8L834.9 728.7L833.4 727.7L831.8 726.6L830.2 725.4L828.6 724.3L827 723.1L825.3 722L823.7 720.8L822 719.5L820.3 718.3L818.7 717L817 715.8L815.2 714.5L813.5 713.2L811.8 711.8L810 710.5L808.3 709.1L806.5 707.7L804.7 706.3L802.9 704.9L801.1 703.4L799.3 701.9L797.5 700.4L795.6 698.9L793.8 697.4L791.9 695.9L790 694.3L788.2 692.7L786.3 691.1L784.4 689.5L782.5 687.8L780.6 686.2L778.6 684.5L776.7 682.8L774.8 681.1L772.8 679.3L770.8 677.6L768.9 675.8L766.9 674L764.9 672.2L762.9 670.3L760.9 668.5L758.9 666.6L756.9 664.7L754.9 662.8L752.9 660.9L750.8 659L748.8 657L746.8 655L744.7 653.1L742.7 651L740.6 649L738.5 647L736.5 644.9L734.4 642.8L732.3 640.7L730.3 638.6L728.2 636.5L726.1 634.3L724 632.2L721.9 630L719.8 627.8L717.7 625.6L715.6 623.4L713.5 621.1L711.4 618.9L709.3 616.6L707.1 614.3L705 612L702.9 609.7L700.8 607.3L698.7 605L696.5 602.6L694.4 600.2L692.3 597.8L690.2 595.4L688 593L685.9 590.5L683.8 588.1L681.7 585.6L679.5 583.1L677.4 580.6L675.3 578.1L673.2 575.6L671 573L668.9 570.5L666.8 567.9L664.7 565.3L662.6 562.8L660.4 560.1L658.3 557.5L656.2 554.9L654.1 552.3L652 549.6L649.9 546.9L647.8 544.3L645.7 541.6L643.6 538.9L641.5 536.2L639.4 533.4L637.3 530.7L635.3 528L633.2 525.2L631.1 522.4L629 519.7L627 516.9L624.9 514.1L622.9 511.3L620.8 508.5L618.8 505.7L616.7 502.8L614.7 500L612.7 497.1L610.6 494.3L608.6 491.4L606.6 488.5L604.6 485.7L602.6 482.8L600.6 479.9L598.7 477L596.7 474L594.7 471.1L592.7 468.2L590.8 465.3L588.8 462.3L586.9 459.4L585 456.4L583 453.5L581.1 450.5L579.2 447.5L577.3 444.6L575.4 441.6L573.5 438.6L571.7 435.6L569.8 432.6L567.9 429.6L566.1 426.6L564.3 423.6L562.4 420.6L560.6 417.6L558.8 414.6L557 411.6L555.2 408.6L553.4 405.6L551.6 402.5L549.9 399.5L548.1 396.5L546.4 393.4L544.7 390.4L542.9 387.4L541.2 384.4L539.5 381.3L537.8 378.3L536.2 375.3L534.5 372.2L532.8 369.2L531.2 366.2L529.5 363.1L527.9 360.1L526.3 357.1L524.7 354L523.1 351L521.5 348L520 345L518.4 341.9L516.9 338.9L515.4 335.9L513.8 332.9L512.3 329.9L510.8 326.9L509.4 323.9L507.9 320.9L506.4 317.9L505 314.9L503.6 311.9L502.1 308.9L500.7 305.9L499.3 302.9L498 300L496.6 297L495.2 294.1L493.9 291.1L492.6 288.2L491.2 285.2L489.9 282.3L488.7 279.4L487.4 276.5L486.1 273.5L484.9 270.6L483.6 267.7L482.4 264.9L481.2 262L480 259.1L478.8 256.3L477.6 253.4L476.5 250.6L475.3 247.7L474.2 244.9L473.1 242.1L472 239.3L470.9 236.5L469.8 233.7L468.8 230.9L467.7 228.2L466.7 225.4L465.7 222.7L464.7 219.9L463.7 217.2L462.7 214.5L461.7 211.8L460.8 209.1L459.8 206.5L458.9 203.8L458 201.2L457.1 198.6L456.2 195.9L455.4 193.3L454.5 190.8L453.7 188.2L452.8 185.6L452 183.1L451.2 180.5L450.4 178L449.6 175.5L448.9 173L448.1 170.6L447.4 168.1L446.7 165.7L446 163.3L445.3 160.8L444.6 158.5L443.9 156.1L443.3 153.7L442.6 151.4L442 149.1L441.4 146.8L440.8 144.5L440.2 142.2L439.6 140L439.1 137.7L438.5 135.5L438 133.3L437.5 131.1L437 129L436.5 126.8L436 124.7L435.5 122.6L435.1 120.5L434.6 118.5L434.2 116.4L433.8 114.4L433.3 112.4L433 110.4L432.6 108.5L432.2 106.5L431.8 104.6L431.5 102.7L431.2 100.8L430.8 99L430.5 97.1L430.2 95.3L429.9 93.5L429.7 91.8L429.4 90L429.1 88.3L428.9 86.6L428.7 84.9L428.4 83.3L428.2 81.6L428 80L427.9 78.4L427.7 76.9L427.5 75.3L427.4 73.8L427.2 72.3L427.1 70.8L427 69.4L426.9 68L426.8 66.6L426.7 65.2L426.6 63.9L426.5 62.5L426.4 61.2L426.4 60L426.3 58.7L426.3 57.5L426.3 56.3L426.3 55.1L426.3 54L426.3 52.9L426.3 51.8L426.3 50.7L426.3 49.6L426.4 48.6L426.4 47.6L426.5 46.7L426.5 45.7L426.6 44.8L426.7 43.9L426.8 43.1L426.9 42.2L427 41.4L427.1 40.6L427.2 39.9L427.3 39.1L427.5 38.4L427.6 37.8L427.8 37.1L427.9 36.5L428.1 35.9L428.3 35.3L428.4 34.8L428.6 34.3L428.8 33.8L429 33.3L429.2 32.9L429.4 32.5L429.6 32.1L429.8 31.8L430 31.5L430.3 31.2L430.5 30.9L430.7 30.7L431 30.5L431.2 30.3L431.5 30.1L431.7 30L432 29.9L432.3 29.9L432.5 29.8L432.8 29.8L433.1 29.8L433.3 29.9L433.6 29.9L433.9 30L434.2 30.2L434.5 30.3L434.8 30.5L435.1 30.7L435.4 31L435.7 31.2L436 31.5L436.3 31.9L436.6 32.2L436.9 32.6L437.3 33L437.6 33.4L437.9 33.9L438.2 34.4L438.5 34.9L438.9 35.5L439.2 36L439.5 36.6L439.8 37.3L440.2 37.9L440.5 38.6L440.8 39.3L441.1 40.1L441.5 40.9L441.8 41.7L442.1 42.5L442.5 43.3L442.8 44.2L443.1 45.1L443.4 46.1L443.8 47L444.1 48L444.4 49L444.7 50.1L445 51.2L445.4 52.3L445.7 53.4L446 54.5L446.3 55.7L446.6 56.9L446.9 58.2L447.2 59.4L447.5 60.7L447.8 62L448.1 63.4L448.4 64.7L448.7 66.1L449 67.5L449.3 69L449.6 70.5L449.9 72L450.2 73.5L450.4 75L450.7 76.6L451 78.2L451.2 79.8L451.5 81.5L451.7 83.1L452 84.8L452.2 86.6L452.5 88.3L452.7 90.1L452.9 91.9L453.1 93.7L453.4 95.5L453.6 97.4L453.8 99.3L454 101.2L454.2 103.2L454.4 105.1L454.6 107.1L454.7 109.1L454.9 111.1L455.1 113.2L455.2 115.3L455.4 117.4L455.5 119.5L455.7 121.7L455.8 123.8L455.9 126L456.1 128.2L456.2 130.5L456.3 132.7L456.4 135L456.5 137.3L456.6 139.6L456.6 142L456.7 144.3L456.8 146.7L456.8 149.1L456.9 151.5L456.9 154L456.9 156.4L456.9 158.9L457 161.4L457 163.9L457 166.5L457 169L456.9 171.6L456.9 174.2L456.9 176.8L456.8 179.5L456.8 182.1L456.7 184.8L456.6 187.5L456.5 190.2L456.5 192.9L456.4 195.6L456.2 198.4L456.1 201.2L456 204L455.9 206.8L455.7 209.6L455.6 212.4L455.4 215.3L455.2 218.2L455 221L454.8 223.9L454.6 226.9L454.4 229.8L454.2 232.7L453.9 235.7L453.7 238.7L453.4 241.6L453.2 244.6L452.9 247.7L452.6 250.7L452.3 253.7L452 256.8L451.7 259.8L451.4 262.9L451 266L450.7 269.1L450.3 272.2L449.9 275.3L449.6 278.5L449.2 281.6L448.8 284.8L448.4 288L447.9 291.1L447.5 294.3L447.1 297.5L446.6 300.7L446.1 303.9L445.7 307.2L445.2 310.4L444.7 313.7L444.2 316.9L443.6 320.2L443.1 323.4L442.6 326.7L442 330L441.5 333.3L440.9 336.6L440.3 339.9L439.7 343.2L439.1 346.5L438.5 349.8L437.9 353.2L437.2 356.5L436.6 359.9L435.9 363.2L435.2 366.6L434.6 369.9L433.9 373.3L433.2 376.6L432.4 380L431.7 383.4L431 386.8L430.2 390.1L429.5 393.5L428.7 396.9L427.9 400.3L427.2 403.7L426.4 407.1L425.6 410.5L424.7 413.9L423.9 417.3L423.1 420.7L422.2 424.1L421.4 427.5L420.5 430.9L419.6 434.3L418.7 437.7L417.8 441.1L416.9 444.5L416 447.9L415.1 451.3L414.1 454.7L413.2 458.1L412.2 461.5L411.3 464.9L410.3 468.3L409.3 471.6L408.3 475L407.3 478.4L406.3 481.8L405.3 485.2L404.3 488.5L403.2 491.9L402.2 495.3L401.1 498.6L400 502L399 505.3L397.9 508.7L396.8 512L395.7 515.4L394.6 518.7L393.5 522L392.3 525.3L391.2 528.6L390.1 532L388.9 535.3L387.8 538.5L386.6 541.8L385.4 545.1L384.2 548.4L383.1 551.6L381.9 554.9L380.7 558.1L379.4 561.4L378.2 564.6L377 567.8L375.8 571L374.5 574.2L373.3 577.4L372.1 580.6L370.8 583.8L369.5 586.9L368.3 590.1L367 593.2L365.7 596.4L364.4 599.5L363.1 602.6L361.8 605.7L360.5 608.8L359.2 611.8L357.9 614.9L356.6 618L355.3 621L354 624L352.6 627L351.3 630L350 633L348.6 636L347.3 638.9L345.9 641.9L344.6 644.8L343.2 647.7L341.8 650.6L340.5 653.5L339.1 656.4L337.7 659.2L336.4 662.1L335 664.9L333.6 667.7L332.2 670.5L330.8 673.3L329.4 676.1L328 678.8L326.7 681.6L325.3 684.3L323.9 687L322.5 689.7L321.1 692.3L319.7 695L318.3 697.6L316.9 700.2L315.5 702.8L314.1 705.4L312.7 708L311.3 710.5L309.9 713L308.5 715.5L307.1 718L305.7 720.5L304.2 723L302.8 725.4L301.4 727.8L300 730.2L298.7 732.6L297.3 734.9L295.9 737.3L294.5 739.6L293.1 741.9L291.7 744.2L290.3 746.4L288.9 748.7L287.5 750.9L286.2 753.1L284.8 755.3L283.4 757.4L282 759.6L280.7 761.7L279.3 763.8L277.9 765.9L276.6 767.9L275.2 770L273.9 772L272.5 774L271.2 775.9L269.9 777.9L268.5 779.8L267.2 781.7L265.9 783.6L264.6 785.4L263.3 787.3L262 789.1L260.7 790.9L259.4 792.7L258.1 794.4L256.8 796.2L255.5 797.9L254.3 799.5L253 801.2L251.8 802.8L250.5 804.5L249.3 806L248.1 807.6L246.8 809.2L245.6 810.7L244.4 812.2L243.2 813.7L242 815.1L240.8 816.6L239.7 818L238.5 819.4L237.4 820.7L236.2 822.1L235.1 823.4L233.9 824.7L232.8 825.9L231.7 827.2L230.6 828.4L229.5 829.6L228.5 830.8L227.4 831.9L226.3 833.1L225.3 834.2L224.3 835.2L223.3 836.3L222.2 837.3L221.2 838.4L220.3 839.3L219.3 840.3L218.3 841.2L217.4 842.2L216.4 843.1L215.5 843.9L214.6 844.8L213.7 845.6L212.8 846.4L211.9 847.2L211.1 847.9L210.2 848.6L209.4 849.4L208.6 850L207.8 850.7L207 851.3L206.2 851.9L205.4 852.5L204.7 853.1L203.9 853.6L203.2 854.1L202.5 854.6L201.8 855.1L201.1 855.6L200.5 856L199.8 856.4L199.2 856.8L198.6 857.1L198 857.4L197.4 857.8L196.8 858L196.3 858.3L195.7 858.5L195.2 858.8L194.7 859L194.2 859.1L193.8 859.3L193.3 859.4L192.9 859.5L192.5 859.6L192.1 859.7L191.7 859.7L191.3 859.7L191 859.7L190.6 859.7L190.3 859.6L190 859.6L189.7 859.5L189.5 859.3L189.2 859.2L189 859L188.8 858.9L188.6 858.7L188.5 858.4L188.3 858.2L188.2 857.9L188.1 857.7L188 857.3L187.9 857L187.9 856.7L187.8 856.3L187.8 855.9L187.8 855.5L187.9 855.1L187.9 854.6L188 854.2L188.1 853.7L188.2 853.2L188.3 852.6L188.4 852.1L188.6 851.5L188.8 850.9L189 850.3L189.2 849.7L189.5 849L189.7 848.4L190 847.7L190.3 847L190.7 846.3L191 845.5L191.4 844.8L191.8 844L192.2 843.2L192.6 842.4L193.1 841.6L193.6 840.7L194.1 839.9L194.6 839L195.1 838.1L195.7 837.2L196.3 836.2L196.9 835.3L197.5 834.3L198.1 833.4L198.8 832.4L199.5 831.3L200.2 830.3L201 829.3L201.7 828.2L202.5 827.1L203.3 826.1L204.1 824.9L204.9 823.8L205.8 822.7L206.7 821.5L207.6 820.4L208.5 819.2L209.5 818L210.5 816.8L211.4 815.6L212.5 814.3L213.5 813.1L214.6 811.8L215.6 810.6L216.7 809.3L217.9 808L219 806.7L220.2 805.3L221.4 804L222.6 802.6L223.8 801.3L225.1 799.9L226.3 798.5L227.6 797.1L229 795.7L230.3 794.3L231.7 792.8L233.1 791.4L234.5 790L235.9 788.5L237.3 787L238.8 785.5L240.3 784L241.8 782.5L243.3 781L244.9 779.5L246.5 778L248.1 776.4L249.7 774.9L251.3 773.3L253 771.7L254.7 770.2L256.4 768.6L258.1 767L259.8 765.4L261.6 763.8L263.4 762.2L265.2 760.5L267 758.9L268.9 757.3L270.7 755.6L272.6 754L274.5 752.3L276.4 750.7L278.4 749L280.3 747.3L282.3 745.6L284.3 744L286.4 742.3L288.4 740.6L290.5 738.9L292.5 737.2L294.6 735.5L296.8 733.7L298.9 732L301.1 730.3L303.2 728.6L305.4 726.8L307.7 725.1L309.9 723.4L312.1 721.6L314.4 719.9L316.7 718.1L319 716.4L321.3 714.6L323.7 712.9L326 711.1L328.4 709.4L330.8 707.6L333.2 705.9L335.6 704.1L338.1 702.3L340.5 700.6L343 698.8L345.5 697L348 695.3L350.5 693.5L353.1 691.7L355.6 690L358.2 688.2L360.8 686.4L363.4 684.7L366 682.9L368.7 681.1L371.3 679.4L374 677.6L376.7 675.8L379.4 674.1L382.1 672.3L384.8 670.6L387.5 668.8L390.3 667.1L393.1 665.3L395.8 663.6L398.6 661.8L401.5 660.1L404.3 658.3L407.1 656.6L409.9 654.9L412.8 653.1L415.7 651.4L418.6 649.7L421.5 648L424.4 646.3L427.3 644.5L430.2 642.8L433.2 641.1L436.1 639.4L439.1 637.7L442 636.1L445 634.4L448 632.7L451 631L454 629.4L457.1 627.7L460.1 626L463.1 624.4L466.2 622.7L469.3 621.1L472.3 619.5L475.4 617.9L478.5 616.2L481.6 614.6L484.7 613L487.8 611.4L490.9 609.8L494.1 608.2L497.2 606.7L500.3 605.1L503.5 603.5L506.6 602L509.8 600.4L513 598.9L516.1 597.4L519.3 595.8L522.5 594.3L525.7 592.8L528.9 591.3L532.1 589.8L535.3 588.3L538.5 586.9L541.7 585.4L544.9 584L548.1 582.5L551.3 581.1L554.6 579.6L557.8 578.2L561 576.8L564.2 575.4L567.5 574L570.7 572.6L574 571.3L577.2 569.9L580.4 568.6L583.7 567.2L586.9 565.9L590.2 564.6L593.4 563.3L596.7 562L599.9 560.7L603.2 559.4L606.4 558.1L609.6 556.9L612.9 555.6L616.1 554.4L619.4 553.1L622.6 551.9L625.9 550.7L629.1 549.5L632.3 548.3L635.6 547.2L638.8 546L642 544.9L645.2 543.7L648.4 542.6L651.7 541.5L654.9 540.4L658.1 539.3L661.3 538.2L664.5 537.1L667.7 536.1L670.9 535L674 534L677.2 533L680.4 532L683.6 531L686.7 530L689.9 529L693 528L696.2 527.1L699.3 526.1L702.4 525.2L705.5 524.3L708.6 523.4L711.7 522.5L714.8 521.6L717.9 520.8L721 519.9L724.1 519.1L727.1 518.2L730.2 517.4L733.2 516.6L736.2 515.8L739.2 515L742.2 514.2L745.2 513.5L748.2 512.7L751.2 512L754.2 511.3L757.1 510.6L760.1 509.9L763 509.2L765.9 508.5L768.8 507.8L771.7 507.2L774.6 506.5L777.5 505.9L780.3 505.3L783.1 504.7L786 504.1L788.8 503.5L791.6 502.9L794.4 502.4L797.1 501.8L799.9 501.3L802.6 500.8L805.4 500.3L808.1 499.8L810.8 499.3L813.4 498.8L816.1 498.4L818.7 497.9L821.4 497.5L824 497L826.6 496.6L829.2 496.2L831.7 495.8L834.3 495.4L836.8 495.1L839.3 494.7L841.8 494.3L844.3 494L846.7 493.7L849.2 493.3L851.6 493L854 492.7L856.4 492.5L858.7 492.2L861.1 491.9L863.4 491.7L865.7 491.4L868 491.2L870.3 491L872.5 490.7L874.7 490.5L876.9 490.3L879.1 490.2L881.3 490L883.4 489.8L885.5 489.7L887.6 489.5L889.7 489.4L891.8 489.3L893.8 489.2L895.8 489L897.8 488.9L899.8 488.9L901.7 488.8L903.6 488.7L905.5 488.6L907.4 488.6L909.2 488.5L911.1 488.5L912.9 488.5L914.7 488.5L916.4 488.5L918.2 488.5L919.9 488.5L921.6 488.5L923.2 488.5L924.9 488.5L926.5 488.6L928.1 488.6L929.6 488.7L931.2 488.7L932.7 488.8L934.2 488.9L935.6 488.9L937.1 489L938.5 489.1L939.9 489.2L941.2 489.3L942.6 489.4L943.9 489.5L945.2 489.7L946.4 489.8L947.7 489.9L948.9 490.1L950.1 490.2L951.2 490.4L952.3 490.6L953.4 490.7L954.5 490.9L955.6 491.1L956.6 491.2L957.6 491.4L958.5 491.6L959.5 491.8L960.4 492L961.3 492.2L962.1 492.4L963 492.6L963.8 492.8L964.6 493.1L965.3 493.3L966 493.5L966.7 493.7L967.4 494L968 494.2L968.6 494.5L969.2 494.7L969.8 494.9L970.3 495.2L970.8 495.4L971.3 495.7L971.7 495.9L972.1 496.2L972.5 496.5L972.9 496.7L973.2 497L973.5 497.2L973.8 497.5L974 497.8L974.3 498L974.5 498.3L974.6 498.6L974.7 498.9L974.9 499.1L974.9 499.4L975 499.7L975 499.9L975 500.2" opacity="0.12"/></g></svg>