<svg xmlns="http://www.w3.org/2000/svg" viewBox="0 0 1000 1000" preserveAspectRatio="xMidYMid slice" fill="none" stroke-linecap="round" stroke-linejoin="round"><g stroke="#0f3d2e" stroke-width="0.7"><path d="M975 500L975 500.9L974.9 501.8L974.9 502.7L974.7 503.6L974.6 504.4L974.4 505.3L974.2 506.2L973.9 507.1L973.7 508L973.3 508.9L973 509.8L972.6 510.6L972.2 511.5L971.8 512.4L971.3 513.3L970.8 514.1L970.2 515L969.7 515.9L969.1 516.7L968.4 517.6L967.7 518.4L967 519.3L966.3 520.1L965.5 521L964.7 521.8L963.9 522.6L963 523.5L962.1 524.3L961.2 525.1L960.2 525.9L959.2 526.7L958.2 527.5L957.2 528.3L956.1 529.1L954.9 529.9L953.8 530.7L952.6 531.4L951.4 532.2L950.1 533L948.9 533.7L947.6 534.5L946.2 535.2L944.9 535.9L943.5 536.7L942 537.4L940.6 538.1L939.1 538.8L937.6 539.5L936 540.2L934.4 540.8L932.8 541.5L931.2 542.2L929.5 542.8L927.8 543.5L926.1 544.1L924.3 544.7L922.5 545.3L920.7 545.9L918.9 546.5L917 547.1L915.1 547.7L913.2 548.3L911.2 548.8L909.2 549.3L907.2 549.9L905.2 550.4L903.1 550.9L901 551.4L898.9 551.9L896.8 552.4L894.6 552.8L892.4 553.3L890.2 553.7L887.9 554.2L885.7 554.6L883.4 555L881 555.4L878.7 555.8L876.3 556.2L873.9 556.5L871.5 556.9L869 557.2L866.5 557.5L864 557.8L861.5 558.1L859 558.4L856.4 558.7L853.8 558.9L851.2 559.2L848.5 559.4L845.9 559.6L843.2 559.8L840.5 560L837.8 560.2L835 560.3L832.2 560.5L829.4 560.6L826.6 560.7L823.8 560.8L820.9 560.9L818 561L815.2 561L812.2 561.1L809.3 561.1L806.3 561.1L803.4 561.1L800.4 561.1L797.4 561.1L794.3 561L791.3 560.9L788.2 560.9L785.1 560.8L782 560.7L778.9 560.5L775.8 560.4L772.6 560.2L769.4 560.1L766.3 559.9L763.1 559.7L759.8 559.5L756.6 559.2L753.4 559L750.1 558.7L746.8 558.4L743.5 558.1L740.2 557.8L736.9 557.5L733.6 557.2L730.2 556.8L726.9 556.4L723.5 556L720.1 555.6L716.7 555.2L713.3 554.7L709.9 554.3L706.4 553.8L703 553.3L699.5 552.8L696.1 552.3L692.6 551.8L689.1 551.2L685.6 550.6L682.1 550L678.6 549.4L675.1 548.8L671.6 548.2L668 547.5L664.5 546.8L660.9 546.2L657.4 545.5L653.8 544.7L650.2 544L646.6 543.3L643 542.5L639.4 541.7L635.8 540.9L632.2 540.1L628.6 539.3L625 538.4L621.4 537.5L617.8 536.7L614.1 535.8L610.5 534.9L606.9 533.9L603.2 533L599.6 532L595.9 531.1L592.3 530.1L588.6 529.1L585 528L581.3 527L577.7 526L574 524.9L570.4 523.8L566.7 522.7L563.1 521.6L559.4 520.5L555.8 519.3L552.1 518.2L548.4 517L544.8 515.8L541.1 514.6L537.5 513.4L533.8 512.2L530.2 510.9L526.6 509.7L522.9 508.4L519.3 507.1L515.7 505.8L512 504.5L508.4 503.2L504.8 501.8L501.2 500.4L497.6 499.1L494 497.7L490.4 496.3L486.8 494.9L483.2 493.5L479.6 492L476.1 490.6L472.5 489.1L468.9 487.6L465.4 486.1L461.8 484.6L458.3 483.1L454.8 481.6L451.3 480.1L447.8 478.5L444.3 477L440.8 475.4L437.3 473.8L433.8 472.2L430.4 470.6L426.9 469L423.5 467.4L420 465.7L416.6 464.1L413.2 462.4L409.8 460.7L406.4 459.1L403.1 457.4L399.7 455.7L396.4 454L393 452.2L389.7 450.5L386.4 448.8L383.1 447L379.8 445.3L376.6 443.5L373.3 441.7L370.1 439.9L366.9 438.1L363.7 436.3L360.5 434.5L357.3 432.7L354.1 430.9L351 429.1L347.9 427.2L344.8 425.4L341.7 423.5L338.6 421.7L335.5 419.8L332.5 417.9L329.5 416L326.5 414.2L323.5 412.3L320.5 410.4L317.5 408.5L314.6 406.6L311.7 404.6L308.8 402.7L305.9 400.8L303.1 398.9L300.2 396.9L297.4 395L294.6 393.1L291.8 391.1L289.1 389.2L286.3 387.2L283.6 385.3L280.9 383.3L278.3 381.4L275.6 379.4L273 377.4L270.4 375.5L267.8 373.5L265.2 371.5L262.7 369.6L260.1 367.6L257.6 365.6L255.2 363.6L252.7 361.7L250.3 359.7L247.9 357.7L245.5 355.7L243.1 353.8L240.8 351.8L238.4 349.8L236.2 347.8L233.9 345.9L231.6 343.9L229.4 341.9L227.2 339.9L225.1 338L222.9 336L220.8 334.1L218.7 332.1L216.6 330.1L214.6 328.2L212.6 326.2L210.6 324.3L208.6 322.3L206.6 320.4L204.7 318.5L202.8 316.5L201 314.6L199.1 312.7L197.3 310.7L195.5 308.8L193.7 306.9L192 305L190.3 303.1L188.6 301.2L186.9 299.3L185.3 297.5L183.7 295.6L182.1 293.7L180.6 291.9L179.1 290L177.6 288.2L176.1 286.3L174.6 284.5L173.2 282.7L171.8 280.9L170.5 279.1L169.1 277.3L167.8 275.5L166.5 273.7L165.3 271.9L164.1 270.2L162.9 268.4L161.7 266.7L160.6 265L159.4 263.2L158.4 261.5L157.3 259.8L156.3 258.2L155.3 256.5L154.3 254.8L153.3 253.2L152.4 251.5L151.5 249.9L150.7 248.3L149.8 246.7L149 245.1L148.2 243.5L147.5 242L146.8 240.4L146.1 238.9L145.4 237.4L144.8 235.9L144.1 234.4L143.6 232.9L143 231.4L142.5 230L142 228.5L141.5 227.1L141 225.7L140.6 224.3L140.2 222.9L139.9 221.6L139.5 220.2L139.2 218.9L138.9 217.6L138.7 216.3L138.5 215L138.3 213.8L138.1 212.5L137.9 211.3L137.8 210.1L137.7 208.9L137.7 207.7L137.6 206.6L137.6 205.5L137.6 204.3L137.7 203.3L137.8 202.2L137.9 201.1L138 200.1L138.1 199.1L138.3 198L138.5 197.1L138.7 196.1L139 195.2L139.3 194.2L139.6 193.3L139.9 192.5L140.3 191.6L140.7 190.8L141.1 189.9L141.5 189.1L142 188.4L142.5 187.6L143 186.9L143.5 186.2L144.1 185.5L144.7 184.8L145.3 184.1L145.9 183.5L146.6 182.9L147.3 182.3L148 181.8L148.7 181.2L149.5 180.7L150.2 180.2L151 179.8L151.9 179.3L152.7 178.9L153.6 178.5L154.5 178.1L155.4 177.8L156.4 177.4L157.3 177.1L158.3 176.9L159.3 176.6L160.4 176.4L161.4 176.2L162.5 176L163.6 175.8L164.7 175.7L165.8 175.6L167 175.5L168.2 175.4L169.4 175.4L170.6 175.4L171.9 175.4L173.1 175.4L174.4 175.5L175.7 175.6L177.1 175.7L178.4 175.8L179.8 176L181.2 176.2L182.6 176.4L184 176.6L185.4 176.9L186.9 177.2L188.4 177.5L189.9 177.9L191.4 178.2L192.9 178.6L194.5 179L196 179.5L197.6 180L199.2 180.5L200.8 181L202.5 181.5L204.1 182.1L205.8 182.7L207.5 183.4L209.2 184L210.9 184.7L212.6 185.4L214.4 186.1L216.1 186.9L217.9 187.7L219.7 188.5L221.5 189.3L223.3 190.2L225.2 191.1L227 192L228.9 192.9L230.8 193.9L232.7 194.9L234.6 195.9L236.5 197L238.4 198.1L240.3 199.2L242.3 200.3L244.3 201.4L246.2 202.6L248.2 203.8L250.2 205L252.2 206.3L254.2 207.6L256.3 208.9L258.3 210.2L260.4 211.6L262.4 213L264.5 214.4L266.6 215.8L268.7 217.3L270.8 218.8L272.9 220.3L275 221.8L277.1 223.4L279.2 225L281.4 226.6L283.5 228.2L285.7 229.9L287.8 231.6L290 233.3L292.2 235L294.3 236.8L296.5 238.6L298.7 240.4L300.9 242.2L303.1 244.1L305.3 246L307.5 247.9L309.8 249.8L312 251.8L314.2 253.8L316.4 255.8L318.7 257.8L320.9 259.9L323.2 261.9L325.4 264L327.7 266.2L329.9 268.3L332.2 270.5L334.4 272.7L336.7 274.9L338.9 277.1L341.2 279.4L343.5 281.7L345.7 284L348 286.3L350.3 288.6L352.5 291L354.8 293.4L357.1 295.8L359.3 298.3L361.6 300.7L363.9 303.2L366.1 305.7L368.4 308.2L370.6 310.7L372.9 313.3L375.2 315.9L377.4 318.5L379.7 321.1L381.9 323.7L384.2 326.4L386.4 329.1L388.7 331.8L390.9 334.5L393.2 337.2L395.4 340L397.6 342.7L399.9 345.5L402.1 348.3L404.3 351.1L406.5 354L408.7 356.8L410.9 359.7L413.1 362.6L415.3 365.5L417.5 368.5L419.7 371.4L421.9 374.4L424 377.3L426.2 380.3L428.3 383.3L430.5 386.4L432.6 389.4L434.8 392.4L436.9 395.5L439 398.6L441.1 401.7L443.2 404.8L445.3 407.9L447.4 411.1L449.5 414.2L451.6 417.4L453.6 420.6L455.7 423.7L457.7 426.9L459.8 430.2L461.8 433.4L463.8 436.6L465.8 439.9L467.8 443.1L469.8 446.4L471.8 449.7L473.7 453L475.7 456.3L477.6 459.6L479.6 462.9L481.5 466.3L483.4 469.6L485.3 472.9L487.2 476.3L489 479.7L490.9 483L492.7 486.4L494.6 489.8L496.4 493.2L498.2 496.6L500 500L501.8 503.5L503.6 506.9L505.3 510.3L507.1 513.8L508.8 517.2L510.5 520.7L512.3 524.1L513.9 527.6L515.6 531L517.3 534.5L518.9 538L520.6 541.5L522.2 544.9L523.8 548.4L525.4 551.9L527 555.4L528.6 558.9L530.1 562.4L531.6 565.9L533.2 569.4L534.7 572.9L536.2 576.4L537.6 579.9L539.1 583.4L540.5 586.9L542 590.4L543.4 593.9L544.8 597.4L546.1 600.9L547.5 604.4L548.8 607.9L550.2 611.4L551.5 614.9L552.8 618.4L554.1 621.9L555.3 625.3L556.6 628.8L557.8 632.3L559 635.8L560.2 639.2L561.4 642.7L562.6 646.2L563.7 649.6L564.9 653.1L566 656.5L567.1 660L568.2 663.4L569.2 666.8L570.3 670.3L571.3 673.7L572.3 677.1L573.3 680.5L574.3 683.9L575.2 687.3L576.2 690.7L577.1 694L578 697.4L578.9 700.7L579.8 704.1L580.6 707.4L581.5 710.7L582.3 714.1L583.1 717.4L583.9 720.7L584.7 723.9L585.4 727.2L586.1 730.5L586.9 733.7L587.5 737L588.2 740.2L588.9 743.4L589.5 746.6L590.2 749.8L590.8 752.9L591.4 756.1L591.9 759.2L592.5 762.4L593 765.5L593.6 768.6L594.1 771.7L594.5 774.8L595 777.8L595.5 780.9L595.9 783.9L596.3 786.9L596.7 789.9L597.1 792.9L597.5 795.8L597.8 798.8L598.2 801.7L598.5 804.6L598.8 807.5L599 810.3L599.3 813.2L599.6 816L599.8 818.8L600 821.6L600.2 824.4L600.4 827.2L600.5 829.9L600.7 832.6L600.8 835.3L600.9 838L601 840.7L601.1 843.3L601.2 845.9L601.2 848.5L601.3 851.1L601.3 853.6L601.3 856.1L601.3 858.6L601.2 861.1L601.2 863.6L601.1 866L601 868.4L601 870.8L600.8 873.2L600.7 875.5L600.6 877.9L600.4 880.1L600.3 882.4L600.1 884.7L599.9 886.9L599.7 889.1L599.5 891.2L599.2 893.4L599 895.5L598.7 897.6L598.4 899.7L598.1 901.7L597.8 903.7L597.5 905.7L597.1 907.7L596.8 909.6L596.4 911.5L596.1 913.4L595.7 915.3L595.3 917.1L594.8 918.9L594.4 920.7L594 922.4L593.5 924.1L593.1 925.8L592.6 927.5L592.1 929.1L591.6 930.7L591.1 932.3L590.6 933.8L590 935.3L589.5 936.8L588.9 938.3L588.4 939.7L587.8 941.1L587.2 942.5L586.6 943.8L586 945.1L585.3 946.4L584.7 947.6L584.1 948.9L583.4 950L582.8 951.2L582.1 952.3L581.4 953.4L580.7 954.5L580 955.5L579.3 956.5L578.6 957.5L577.9 958.4L577.2 959.3L576.4 960.2L575.7 961L574.9 961.9L574.1 962.6L573.4 963.4L572.6 964.1L571.8 964.8L571 965.4L570.2 966.1L569.4 966.7L568.6 967.2L567.8 967.7L567 968.2L566.1 968.7L565.3 969.1L564.5 969.5L563.6 969.9L562.8 970.2L561.9 970.5L561 970.8L560.2 971L559.3 971.2L558.4 971.4L557.5 971.5L556.6 971.6L555.8 971.7L554.9 971.7L554 971.7L553.1 971.7L552.2 971.6L551.3 971.5L550.4 971.4L549.4 971.2L548.5 971L547.6 970.8L546.7 970.5L545.8 970.3L544.9 969.9L543.9 969.6L543 969.2L542.1 968.8L541.2 968.3L540.2 967.8L539.3 967.3L538.4 966.7L537.5 966.1L536.5 965.5L535.6 964.9L534.7 964.2L533.7 963.5L532.8 962.7L531.9 961.9L531 961.1L530 960.3L529.1 959.4L528.2 958.5L527.3 957.5L526.4 956.6L525.4 955.6L524.5 954.5L523.6 953.4L522.7 952.3L521.8 951.2L520.9 950L520 948.8L519.1 947.6L518.2 946.3L517.3 945.1L516.4 943.7L515.6 942.4L514.7 941L513.8 939.6L512.9 938.1L512.1 936.7L511.2 935.1L510.4 933.6L509.5 932L508.7 930.4L507.8 928.8L507 927.1L506.2 925.5L505.4 923.7L504.6 922L503.7 920.2L502.9 918.4L502.2 916.6L501.4 914.7L500.6 912.8L499.8 910.9L499 908.9L498.3 907L497.5 905L496.8 902.9L496.1 900.9L495.3 898.8L494.6 896.6L493.9 894.5L493.2 892.3L492.5 890.1L491.8 887.9L491.1 885.6L490.5 883.4L489.8 881.1L489.2 878.7L488.5 876.4L487.9 874L487.3 871.6L486.7 869.1L486.1 866.7L485.5 864.2L484.9 861.7L484.3 859.1L483.8 856.6L483.2 854L482.7 851.4L482.2 848.7L481.7 846.1L481.2 843.4L480.7 840.7L480.2 838L479.7 835.2L479.3 832.4L478.8 829.6L478.4 826.8L478 824L477.5 821.1L477.1 818.2L476.8 815.3L476.4 812.4L476 809.5L475.7 806.5L475.3 803.5L475 800.5L474.7 797.5L474.4 794.4L474.1 791.3L473.9 788.3L473.6 785.1L473.4 782L473.1 778.9L472.9 775.7L472.7 772.5L472.5 769.3L472.3 766.1L472.2 762.9L472 759.6L471.9 756.4L471.8 753.1L471.7 749.8L471.6 746.5L471.5 743.2L471.4 739.8L471.4 736.4L471.3 733.1L471.3 729.7L471.3 726.3L471.3 722.9L471.4 719.4L471.4 716L471.4 712.5L471.5 709L471.6 705.6L471.7 702.1L471.8 698.5L471.9 695L472.1 691.5L472.2 687.9L472.4 684.4L472.6 680.8L472.8 677.2L473 673.7L473.2 670.1L473.5 666.4L473.8 662.8L474 659.2L474.3 655.6L474.6 651.9L475 648.3L475.3 644.6L475.7 640.9L476 637.3L476.4 633.6L476.8 629.9L477.2 626.2L477.7 622.5L478.1 618.8L478.6 615.1L479 611.3L479.5 607.6L480 603.9L480.6 600.2L481.1 596.4L481.7 592.7L482.2 588.9L482.8 585.2L483.4 581.4L484 577.7L484.6 573.9L485.3 570.2L485.9 566.4L486.6 562.6L487.3 558.9L488 555.1L488.7 551.3L489.5 547.6L490.2 543.8L491 540L491.8 536.3L492.5 532.5L493.4 528.7L494.2 525L495 521.2L495.9 517.4L496.7 513.7L497.6 509.9L498.5 506.2L499.4 502.4L500.3 498.7L501.3 494.9L502.2 491.2L503.2 487.4L504.2 483.7L505.1 480L506.2 476.3L507.2 472.5L508.2 468.8L509.2 465.1L510.3 461.4L511.4 457.7L512.5 454.1L513.6 450.4L514.7 446.7L515.8 443L516.9 439.4L518.1 435.7L519.2 432.1L520.4 428.5L521.6 424.8L522.8 421.2L524 417.6L525.2 414L526.5 410.4L527.7 406.9L529 403.3L530.2 399.8L531.5 396.2L532.8 392.7L534.1 389.2L535.4 385.7L536.8 382.2L538.1 378.7L539.4 375.2L540.8 371.7L542.2 368.3L543.5 364.9L544.9 361.5L546.3 358.1L547.7 354.7L549.1 351.3L550.6 347.9L552 344.6L553.5 341.3L554.9 337.9L556.4 334.6L557.8 331.4L559.3 328.1L560.8 324.8L562.3 321.6L563.8 318.4L565.3 315.2L566.9 312L568.4 308.8L569.9 305.7L571.5 302.6L573 299.4L574.6 296.4L576.2 293.3L577.7 290.2L579.3 287.2L580.9 284.2L582.5 281.2L584.1 278.2L585.7 275.2L587.3 272.3L588.9 269.4L590.5 266.5L592.2 263.6L593.8 260.7L595.4 257.9L597.1 255.1L598.7 252.3L600.4 249.5L602 246.8L603.7 244.1L605.3 241.3L607 238.7L608.7 236L610.3 233.4L612 230.8L613.7 228.2L615.4 225.6L617 223L618.7 220.5L620.4 218L622.1 215.6L623.8 213.1L625.5 210.7L627.2 208.3L628.9 205.9L630.5 203.6L632.2 201.2L633.9 198.9L635.6 196.7L637.3 194.4L639 192.2L640.7 190L642.4 187.8L644.1 185.7L645.8 183.5L647.5 181.4L649.2 179.4L650.9 177.3L652.5 175.3L654.2 173.3L655.9 171.4L657.6 169.4L659.3 167.5L660.9 165.6L662.6 163.8L664.3 161.9L665.9 160.1L667.6 158.4L669.3 156.6L670.9 154.9L672.6 153.2L674.2 151.6L675.8 149.9L677.5 148.3L679.1 146.7L680.7 145.2L682.3 143.7L683.9 142.2L685.6 140.7L687.2 139.3L688.7 137.9L690.3 136.5L691.9 135.1L693.5 133.8L695.1 132.5L696.6 131.2L698.2 130L699.7 128.8L701.2 127.6L702.8 126.5L704.3 125.4L705.8 124.3L707.3 123.2L708.8 122.2L710.3 121.2L711.7 120.2L713.2 119.2L714.7 118.3L716.1 117.4L717.5 116.6L719 115.8L720.4 115L721.8 114.2L723.2 113.5L724.5 112.7L725.9 112.1L727.3 111.4L728.6 110.8L729.9 110.2L731.3 109.6L732.6 109.1L733.9 108.6L735.1 108.1L736.4 107.7L737.7 107.3L738.9 106.9L740.1 106.5L741.4 106.2L742.6 105.9L743.8 105.6L744.9 105.4L746.1 105.2L747.2 105L748.4 104.8L749.5 104.7L750.6 104.6L751.7 104.5L752.7 104.5L753.8 104.5L754.8 104.5L755.8 104.5L756.8 104.6L757.8 104.7L758.8 104.8L759.8 105L760.7 105.2L761.6 105.4L762.5 105.6L763.4 105.9L764.3 106.2L765.1 106.5L766 106.9L766.8 107.3L767.6 107.7L768.3 108.1L769.1 108.6L769.9 109.1L770.6 109.6L771.3 110.2L772 110.7L772.6 111.3L773.3 112L773.9 112.6L774.5 113.3L775.1 114L775.7 114.7L776.2 115.5L776.7 116.3L777.2 117.1L777.7 117.9L778.2 118.8L778.6 119.7L779.1 120.6L779.5 121.5L779.9 122.5L780.2 123.5L780.6 124.5L780.9 125.6L781.2 126.6L781.5 127.7L781.7 128.8L781.9 130L782.2 131.1L782.3 132.3L782.5 133.5L782.6 134.7L782.8 136L782.9 137.3L782.9 138.6L783 139.9L783 141.2L783 142.6L783 144L783 145.4L782.9 146.9L782.8 148.3L782.7 149.8L782.6 151.3L782.5 152.8L782.3 154.4L782.1 155.9L781.9 157.5L781.6 159.1L781.3 160.7L781 162.4L780.7 164L780.4 165.7L780 167.4L779.6 169.2L779.2 170.9L778.8 172.7L778.3 174.4L777.8 176.2L777.3 178.1L776.8 179.9L776.2 181.7L775.6 183.6L775 185.5L774.4 187.4L773.8 189.3L773.1 191.3L772.4 193.2L771.6 195.2L770.9 197.2L770.1 199.2L769.3 201.2L768.5 203.3L767.6 205.3L766.8 207.4L765.9 209.5L764.9 211.6L764 213.7L763 215.8L762 217.9L761 220.1L759.9 222.3L758.9 224.5L757.8 226.6L756.7 228.9L755.5 231.1L754.3 233.3L753.2 235.6L751.9 237.8L750.7 240.1L749.4 242.4L748.1 244.7L746.8 247L745.5 249.3L744.1 251.6L742.7 253.9L741.3 256.3L739.9 258.6L738.4 261L737 263.4L735.5 265.7L733.9 268.1L732.4 270.5L730.8 272.9L729.2 275.4L727.6 277.8L725.9 280.2L724.3 282.7L722.6 285.1L720.9 287.6L719.1 290L717.4 292.5L715.6 295L713.8 297.5L711.9 299.9L710.1 302.4L708.2 304.9L706.3 307.4L704.4 309.9L702.4 312.4L700.5 315L698.5 317.5L696.5 320L694.5 322.5L692.4 325.1L690.3 327.6L688.2 330.1L686.1 332.7L684 335.2L681.8 337.8L679.7 340.3L677.5 342.9L675.2 345.4L673 348L670.7 350.5L668.5 353.1L666.2 355.6L663.8 358.2L661.5 360.7L659.1 363.3L656.8 365.9L654.4 368.4L651.9 371L649.5 373.5L647 376.1L644.6 378.6L642.1 381.2L639.6 383.7L637 386.2L634.5 388.8L631.9 391.3L629.3 393.9L626.7 396.4L624.1 398.9L621.5 401.4L618.8 404L616.1 406.5L613.5 409L610.8 411.5L608 414L605.3 416.5L602.6 419L599.8 421.5L597 424L594.2 426.5L591.4 428.9L588.6 431.4L585.7 433.9L582.9 436.3L580 438.8L577.1 441.2L574.2 443.6L571.3 446.1L568.4 448.5L565.4 450.9L562.5 453.3L559.5 455.7L556.5 458.1L553.5 460.4L550.5 462.8L547.5 465.2L544.5 467.5L541.4 469.9L538.4 472.2L535.3 474.5L532.2 476.8L529.2 479.1L526.1 481.4L523 483.7L519.8 486L516.7 488.2L513.6 490.5L510.4 492.7L507.3 494.9L504.1 497.1L501 499.3L497.8 501.5L494.6 503.7L491.4 505.9L488.2 508L485 510.2L481.8 512.3L478.6 514.4L475.3 516.5L472.1 518.6L468.8 520.7L465.6 522.7L462.3 524.8L459.1 526.8L455.8 528.8L452.6 530.9L449.3 532.8L446 534.8L442.7 536.8L439.4 538.7L436.2 540.7L432.9 542.6L429.6 544.5L426.3 546.4L423 548.3L419.7 550.1L416.4 552L413.1 553.8L409.8 555.6L406.4 557.4L403.1 559.2L399.8 560.9L396.5 562.7L393.2 564.4L389.9 566.1L386.6 567.8L383.3 569.5L380 571.2L376.7 572.8L373.4 574.5L370.1 576.1L366.8 577.7L363.5 579.3L360.2 580.8L356.9 582.4L353.6 583.9L350.3 585.4L347 586.9L343.7 588.4L340.5 589.8L337.2 591.3L333.9 592.7L330.7 594.1L327.4 595.5L324.2 596.8L320.9 598.2L317.7 599.5L314.5 600.8L311.2 602.1L308 603.4L304.8 604.7L301.6 605.9L298.4 607.1L295.2 608.3L292.1 609.5L288.9 610.7L285.7 611.8L282.6 612.9L279.4 614L276.3 615.1L273.2 616.2L270.1 617.3L267 618.3L263.9 619.3L260.8 620.3L257.7 621.3L254.7 622.2L251.6 623.2L248.6 624.1L245.6 625L242.6 625.8L239.6 626.7L236.6 627.5L233.6 628.4L230.7 629.2L227.7 630L224.8 630.7L221.9 631.5L219 632.2L216.1 632.9L213.3 633.6L210.4 634.3L207.6 634.9L204.7 635.5L201.9 636.1L199.1 636.7L196.4 637.3L193.6 637.9L190.9 638.4L188.2 638.9L185.5 639.4L182.8 639.9L180.1 640.4L177.5 640.8L174.8 641.2L172.2 641.6L169.6 642L167.1 642.4L164.5 642.7L162 643.1L159.5 643.4L157 643.7L154.5 643.9L152 644.2L149.6 644.4L147.2 644.7L144.8 644.9L142.4 645L140.1 645.2L137.8 645.4L135.5 645.5L133.2 645.6L130.9 645.7L128.7 645.8L126.5 645.8L124.3 645.9L122.1 645.9L120 645.9L117.9 645.9L115.8 645.9L113.7 645.8L111.6 645.8L109.6 645.7L107.6 645.6L105.7 645.5L103.7 645.4L101.8 645.2L99.9 645.1L98 644.9L96.2 644.7L94.4 644.5L92.6 644.3L90.8 644L89.1 643.8L87.3 643.5L85.7 643.2L84 642.9L82.4 642.6L80.8 642.3L79.2 642L77.6 641.6L76.1 641.2L74.6 640.8L73.2 640.4L71.7 640L70.3 639.6L68.9 639.1L67.6 638.7L66.3 638.2L65 637.7L63.7 637.2L62.5 636.7L61.2 636.2L60.1 635.6L58.9 635.1L57.8 634.5L56.7 634L55.7 633.4L54.6 632.8L53.6 632.2L52.7 631.5L51.7 630.9L50.8 630.2L49.9 629.6L49.1 628.9L48.3 628.2L47.5 627.5L46.7 626.8L46 626.1L45.3 625.4L44.7 624.7L44 623.9L43.4 623.2L42.9 622.4L42.3 621.6L41.8 620.8L41.4 620L40.9 619.2L40.5 618.4L40.1 617.6L39.8 616.8L39.5 615.9L39.2 615.1L38.9 614.2L38.7 613.4L38.5 612.5L38.4 611.6L38.3 610.7L38.2 609.8L38.1 608.9L38.1 608L38.1 607.1L38.1 606.2L38.2 605.2L38.3 604.3L38.5 603.4L38.6 602.4L38.8 601.5L39.1 600.5L39.3 599.6L39.6 598.6L40 597.6L40.3 596.6L40.7 595.7L41.2 594.7L41.6 593.7L42.1 592.7L42.6 591.7L43.2 590.7L43.8 589.7L44.4 588.7L45.1 587.7L45.8 586.6L46.5 585.6L47.2 584.6L48 583.6L48.8 582.6L49.7 581.5L50.6 580.5L51.5 579.5L52.4 578.4L53.4 577.4L54.4 576.4L55.4 575.3L56.5 574.3L57.6 573.3L58.7 572.2L59.9 571.2L61.1 570.1L62.3 569.1L63.6 568.1L64.9 567L66.2 566L67.6 565L68.9 563.9L70.4 562.9L71.8 561.9L73.3 560.8L74.8 559.8L76.3 558.8L77.9 557.8L79.5 556.7L81.1 555.7L82.8 554.7L84.5 553.7L86.2 552.7L87.9 551.7L89.7 550.7L91.5 549.7L93.3 548.7L95.2 547.7L97.1 546.7L99 545.7L101 544.7L102.9 543.7L105 542.8L107 541.8L109.1 540.8L111.2 539.9L113.3 538.9L115.4 538L117.6 537.1L119.8 536.1L122 535.2L124.3 534.3L126.6 533.4L128.9 532.5L131.2 531.5L133.6 530.7L136 529.8L138.4 528.9L140.8 528L143.3 527.1L145.8 526.3L148.3 525.4L150.9 524.6L153.4 523.8L156 522.9L158.6 522.1L161.3 521.3L163.9 520.5L166.6 519.7L169.4 518.9L172.1 518.2L174.9 517.4L177.6 516.6L180.4 515.9L183.3 515.2L186.1 514.4L189 513.7L191.9 513L194.8 512.3L197.8 511.6L200.7 511L203.7 510.3L206.7 509.6L209.7 509L212.8 508.4L215.9 507.7L218.9 507.1L222 506.5L225.2 505.9L228.3 505.4L231.5 504.8L234.7 504.2L237.9 503.7L241.1 503.2L244.3 502.6L247.6 502.1L250.9 501.6L254.1 501.2L257.5 500.7L260.8 500.2L264.1 499.8L267.5 499.4L270.9 498.9L274.2 498.5L277.6 498.1L281.1 497.7L284.5 497.4L288 497L291.4 496.7L294.9 496.4L298.4 496L301.9 495.7L305.4 495.4L309 495.2L312.5 494.9L316.1 494.7L319.6 494.4L323.2 494.2L326.8 494L330.4 493.8L334.1 493.6L337.7 493.5L341.3 493.3L345 493.2L348.6 493L352.3 492.9L356 492.8L359.7 492.8L363.4 492.7L367.1 492.6L370.8 492.6L374.5 492.6L378.3 492.6L382 492.6L385.8 492.6L389.5 492.6L393.3 492.7L397 492.8L400.8 492.8L404.6 492.9L408.4 493L412.2 493.2L416 493.3L419.8 493.4L423.6 493.6L427.4 493.8L431.2 494L435 494.2L438.8 494.4L442.7 494.7L446.5 494.9L450.3 495.2L454.1 495.5L458 495.8L461.8 496.1L465.6 496.4L469.5 496.8L473.3 497.1L477.1 497.5L481 497.9L484.8 498.3L488.7 498.7L492.5 499.1L496.3 499.6L500.2 500L504 500.5L507.8 501L511.6 501.5L515.5 502L519.3 502.5L523.1 503.1L526.9 503.6L530.7 504.2L534.5 504.8L538.3 505.4L542.1 506L545.9 506.6L549.7 507.3L553.5 507.9L557.3 508.6L561 509.3L564.8 510L568.5 510.7L572.3 511.4L576 512.1L579.8 512.9L583.5 513.7L587.2 514.4L590.9 515.2L594.6 516L598.3 516.8L602 517.7L605.7 518.5L609.3 519.4L613 520.2L616.6 521.1L620.3 522L623.9 522.9L627.5 523.8L631.1 524.7L634.7 525.7L638.3 526.6L641.8 527.6L645.4 528.6L648.9 529.6L652.4 530.5L656 531.6L659.5 532.6L662.9 533.6L666.4 534.6L669.9 535.7L673.3 536.8L676.7 537.8L680.1 538.9L683.5 540L686.9 541.1L690.3 542.2L693.6 543.4L697 544.5L700.3 545.6L703.6 546.8L706.9 548L710.1 549.1L713.4 550.3L716.6 551.5L719.8 552.7L723 553.9L726.2 555.1L729.3 556.3L732.5 557.6L735.6 558.8L738.7 560.1L741.8 561.3L744.8 562.6L747.9 563.9L750.9 565.1L753.9 566.4L756.9 567.7L759.8 569L762.7 570.3L765.7 571.6L768.6 573L771.4 574.3L774.3 575.6L777.1 577L779.9 578.3L782.7 579.7L785.4 581L788.2 582.4L790.9 583.7L793.6 585.1L796.2 586.5L798.9 587.9L801.5 589.2L804.1 590.6L806.7 592L809.2 593.4L811.7 594.8L814.2 596.2L816.7 597.6L819.2 599L821.6 600.5L824 601.9L826.3 603.3L828.7 604.7L831 606.1L833.3 607.6L835.6 609L837.8 610.4L840 611.8L842.2 613.3L844.4 614.7L846.5 616.1L848.6 617.6L850.7 619L852.7 620.4L854.8 621.9L856.8 623.3L858.7 624.7L860.7 626.2L862.6 627.6L864.5 629L866.3 630.5L868.2 631.9L870 633.3L871.7 634.8L873.5 636.2L875.2 637.6L876.9 639L878.5 640.4L880.2 641.9L881.8 643.3L883.3 644.7L884.9 646.1L886.4 647.5L887.9 648.9L889.3 650.3L890.7 651.7L892.1 653.1L893.5 654.5L894.8 655.8L896.1 657.2L897.4 658.6L898.7 659.9L899.9 661.3L901 662.6L902.2 664L903.3 665.3L904.4 666.7L905.5 668L906.5 669.3L907.5 670.6L908.5 671.9L909.4 673.2L910.3 674.5L911.2 675.8L912.1 677.1L912.9 678.4L913.7 679.6L914.4 680.9L915.2 682.1L915.9 683.4L916.5 684.6L917.2 685.8L917.8 687L918.4 688.2L918.9 689.4L919.4 690.6L919.9 691.8L920.4 692.9L920.8 694.1L921.2 695.2L921.5 696.3L921.9 697.5L922.2 698.6L922.4 699.7L922.7 700.7L922.9 701.8L923 702.9L923.2 703.9L923.3 705L923.4 706L923.5 707L923.5 708L923.5 709L923.4 709.9L923.4 710.9L923.3 711.8L923.2 712.8L923 713.7L922.8 714.6L922.6 715.5L922.4 716.4L922.1 717.2L921.8 718.1L921.5 718.9L921.1 719.7L920.7 720.5L920.3 721.3L919.8 722.1L919.4 722.8L918.9 723.6L918.3 724.3L917.8 725L917.2 725.7L916.5 726.4L915.9 727L915.2 727.7L914.5 728.3L913.8 728.9L913 729.5L912.2 730L911.4 730.6L910.5 731.1L909.7 731.7L908.8 732.2L907.8 732.6L906.9 733.1L905.9 733.6L904.9 734L903.8 734.4L902.8 734.8L901.7 735.2L900.6 735.5L899.4 735.9L898.2 736.2L897 736.5L895.8 736.7L894.6 737L893.3 737.2L892 737.5L890.7 737.7L889.3 737.8L888 738L886.6 738.1L885.1 738.3L883.7 738.4L882.2 738.4L880.7 738.5L879.2 738.5L877.6 738.6L876.1 738.6L874.5 738.5L872.9 738.5L871.2 738.4L869.6 738.3L867.9 738.2L866.2 738.1L864.4 737.9L862.7 737.8L860.9 737.6L859.1 737.4L857.3 737.1L855.5 736.9L853.6 736.6L851.7 736.3L849.8 736L847.9 735.6L846 735.2L844 734.9L842 734.4L840 734L838 733.6L836 733.1L833.9 732.6L831.8 732.1L829.7 731.5L827.6 730.9L825.5 730.3L823.3 729.7L821.1 729.1L819 728.4L816.8 727.8L814.5 727.1L812.3 726.3L810 725.6L807.8 724.8L805.5 724L803.2 723.2L800.8 722.4L798.5 721.5L796.2 720.6L793.8 719.7L791.4 718.8L789 717.8L786.6 716.9L784.2 715.9L781.7 714.9L779.3 713.8L776.8 712.7L774.3 711.7L771.8 710.5L769.3 709.4L766.8 708.3L764.3 707.1L761.7 705.9L759.2 704.7L756.6 703.4L754 702.2L751.4 700.9L748.8 699.6L746.2 698.2L743.6 696.9L741 695.5L738.3 694.1L735.7 692.7L733 691.2L730.4 689.8L727.7 688.3L725 686.8L722.3 685.2L719.6 683.7L716.9 682.1L714.2 680.5L711.4 678.9L708.7 677.2L706 675.6L703.2 673.9L700.5 672.2L697.7 670.5L695 668.7L692.2 667L689.4 665.2L686.6 663.4L683.8 661.5L681.1 659.7L678.3 657.8L675.5 655.9L672.7 654L669.9 652.1L667 650.1L664.2 648.2L661.4 646.2L658.6 644.2L655.8 642.1L653 640.1L650.1 638L647.3 635.9L644.5 633.8L641.7 631.7L638.8 629.6L636 627.4L633.2 625.2L630.3 623L627.5 620.8L624.7 618.6L621.8 616.3L619 614L616.2 611.7L613.4 609.4L610.5 607.1L607.7 604.8L604.9 602.4L602.1 600L599.3 597.6L596.5 595.2L593.6 592.8L590.8 590.4L588 587.9L585.2 585.4L582.4 582.9L579.7 580.4L576.9 577.9L574.1 575.4L571.3 572.8L568.5 570.3L565.8 567.7L563 565.1L560.3 562.5L557.5 559.8L554.8 557.2L552 554.6L549.3 551.9L546.6 549.2L543.9 546.5L541.2 543.8L538.5 541.1L535.8 538.4L533.1 535.6L530.4 532.9L527.7 530.1L525.1 527.3L522.4 524.5L519.8 521.7L517.2 518.9L514.5 516.1L511.9 513.2L509.3 510.4L506.7 507.5L504.2 504.7L501.6 501.8L499 498.9L496.5 496L493.9 493.1L491.4 490.2L488.9 487.2L486.4 484.3L483.9 481.4L481.4 478.4L478.9 475.5L476.5 472.5L474 469.5L471.6 466.5L469.2 463.6L466.8 460.6L464.4 457.6L462 454.6L459.7 451.5L457.3 448.5L455 445.5L452.7 442.5L450.3 439.4L448.1 436.4L445.8 433.4L443.5 430.3L441.3 427.3L439 424.2L436.8 421.1L434.6 418.1L432.4 415L430.3 411.9L428.1 408.9L426 405.8L423.8 402.7L421.7 399.6L419.6 396.6L417.6 393.5L415.5 390.4L413.5 387.3L411.4 384.2L409.4 381.2L407.5 378.1L405.5 375L403.5 371.9L401.6 368.8L399.7 365.7L397.8 362.7L395.9 359.6L394 356.5L392.2 353.4L390.3 350.4L388.5 347.3L386.7 344.2L385 341.2L383.2 338.1L381.5 335L379.8 332L378.1 328.9L376.4 325.9L374.7 322.9L373.1 319.8L371.5 316.8L369.9 313.8L368.3 310.7L366.7 307.7L365.2 304.7L363.7 301.7L362.1 298.7L360.7 295.7L359.2 292.8L357.8 289.8L356.3 286.8L354.9 283.9L353.5 280.9L352.2 278L350.8 275L349.5 272.1L348.2 269.2L346.9 266.3L345.7 263.4L344.4 260.5L343.2 257.7L342 254.8L340.8 251.9L339.7 249.1L338.5 246.3L337.4 243.5L336.3 240.7L335.2 237.9L334.2 235.1L333.1 232.3L332.1 229.6L331.1 226.8L330.2 224.1L329.2 221.4L328.3 218.7L327.4 216L326.5 213.3L325.6 210.7L324.8 208L323.9 205.4L323.1 202.8L322.4 200.2L321.6 197.6L320.8 195L320.1 192.5L319.4 189.9L318.7 187.4L318.1 184.9L317.4 182.5L316.8 180L316.2 177.5L315.6 175.1L315.1 172.7L314.6 170.3L314 167.9L313.5 165.6L313.1 163.2L312.6 160.9L312.2 158.6L311.8 156.4L311.4 154.1L311 151.9L310.6 149.7L310.3 147.5L310 145.3L309.7 143.1L309.4 141L309.2 138.9L308.9 136.8L308.7 134.7L308.5 132.7L308.4 130.7L308.2 128.7L308.1 126.7L308 124.7L307.9 122.8L307.8 120.9L307.7 119L307.7 117.1L307.7 115.3L307.7 113.5L307.7 111.7L307.7 109.9L307.8 108.2L307.8 106.5L307.9 104.8L308 103.1L308.2 101.5L308.3 99.9L308.5 98.3L308.7 96.7L308.9 95.2L309.1 93.7L309.3 92.2L309.6 90.7L309.8 89.3L310.1 87.9L310.4 86.5L310.7 85.2L311.1 83.8L311.4 82.5L311.8 81.3L312.2 80L312.6 78.8L313 77.6L313.4 76.5L313.9 75.3L314.4 74.2L314.9 73.1L315.3 72.1L315.9 71.1L316.4 70.1L316.9 69.1L317.5 68.2L318.1 67.3L318.7 66.4L319.3 65.6L319.9 64.8L320.5 64L321.2 63.2L321.8 62.5L322.5 61.8L323.2 61.2L323.9 60.5L324.6 59.9L325.3 59.3L326.1 58.8L326.8 58.3L327.6 57.8L328.4 57.4L329.2 56.9L330 56.5L330.8 56.2L331.6 55.9L332.4 55.6L333.3 55.3L334.2 55L335 54.8L335.9 54.7L336.8 54.5L337.7 54.4L338.6 54.3L339.6 54.3L340.5 54.3L341.4 54.3L342.4 54.3L343.4 54.4L344.3 54.5L345.3 54.6L346.3 54.8L347.3 55L348.3 55.2L349.4 55.5L350.4 55.8L351.4 56.1L352.5 56.5L353.5 56.9L354.6 57.3L355.6 57.8L356.7 58.3L357.8 58.8L358.9 59.3L360 59.9L361.1 60.5L362.2 61.2L363.3 61.8L364.4 62.6L365.6 63.3L366.7 64.1L367.8 64.9L369 65.7L370.1 66.6L371.3 67.5L372.4 68.4L373.6 69.4L374.8 70.3L375.9 71.4L377.1 72.4L378.3 73.5L379.5 74.6L380.6 75.8L381.8 76.9L383 78.2L384.2 79.4L385.4 80.7L386.6 82L387.8 83.3L389 84.7L390.2 86L391.4 87.5L392.6 88.9L393.8 90.4L395 91.9L396.2 93.5L397.5 95L398.7 96.6L399.9 98.3L401.1 99.9L402.3 101.6L403.5 103.4L404.7 105.1L405.9 106.9L407.1 108.7L408.3 110.5L409.5 112.4L410.8 114.3L412 116.2L413.2 118.2L414.4 120.2L415.6 122.2L416.7 124.2L417.9 126.3L419.1 128.4L420.3 130.5L421.5 132.6L422.7 134.8L423.9 137L425 139.2L426.2 141.5L427.4 143.8L428.5 146.1L429.7 148.4L430.8 150.8L432 153.2L433.1 155.6L434.3 158L435.4 160.5L436.5 163L437.7 165.5L438.8 168.1L439.9 170.6L441 173.2L442.1 175.8L443.2 178.5L444.3 181.1L445.4 183.8L446.4 186.6L447.5 189.3L448.6 192.1L449.6 194.8L450.7 197.6L451.7 200.5L452.7 203.3L453.7 206.2L454.8 209.1L455.8 212L456.8 215L457.8 217.9L458.7 220.9L459.7 223.9L460.7 226.9L461.6 230L462.6 233L463.5 236.1L464.4 239.2L465.4 242.4L466.3 245.5L467.2 248.7L468.1 251.9L468.9 255.1L469.8 258.3L470.7 261.5L471.5 264.8L472.4 268.1L473.2 271.4L474 274.7L474.8 278L475.6 281.3L476.4 284.7L477.2 288.1L477.9 291.5L478.7 294.9L479.4 298.3L480.1 301.7L480.8 305.2L481.5 308.7L482.2 312.2L482.9 315.7L483.6 319.2L484.2 322.7L484.9 326.2L485.5 329.8L486.1 333.4L486.7 336.9L487.3 340.5L487.9 344.1L488.5 347.8L489 351.4L489.6 355L490.1 358.7L490.6 362.3L491.1 366L491.6 369.7L492.1 373.4L492.6 377.1L493 380.8L493.4 384.5L493.9 388.3L494.3 392L494.7 395.7L495 399.5L495.4 403.3L495.8 407L496.1 410.8L496.4 414.6L496.7 418.4L497 422.2L497.3 426L497.6 429.8L497.8 433.6L498.1 437.4L498.3 441.2L498.5 445.1L498.7 448.9L498.9 452.7L499.1 456.6L499.2 460.4L499.4 464.2L499.5 468.1L499.6 471.9L499.7 475.8L499.8 479.7L499.9 483.5L499.9 487.4L500 491.2L500 495.1L500 498.9L500 502.8L500 506.7L499.9 510.5L499.9 514.4L499.8 518.2L499.8 522.1L499.7 525.9L499.6 529.8L499.4 533.6L499.3 537.5L499.2 541.3L499 545.2L498.8 549L498.6 552.8L498.4 556.7L498.2 560.5L498 564.3L497.7 568.1L497.5 571.9L497.2 575.8L496.9 579.6L496.6 583.3L496.3 587.1L496 590.9L495.6 594.7L495.2 598.4L494.9 602.2L494.5 606L494.1 609.7L493.7 613.4L493.2 617.2L492.8 620.9L492.3 624.6L491.9 628.3L491.4 632L490.9 635.6L490.4 639.3L489.9 643L489.3 646.6L488.8 650.3L488.2 653.9L487.7 657.5L487.1 661.1L486.5 664.7L485.9 668.2L485.2 671.8L484.6 675.4L483.9 678.9L483.3 682.4L482.6 685.9L481.9 689.4L481.2 692.9L480.5 696.4L479.8 699.8L479.1 703.2L478.3 706.7L477.6 710.1L476.8 713.5L476 716.8L475.2 720.2L474.4 723.5L473.6 726.8L472.8 730.1L472 733.4L471.1 736.7L470.3 739.9L469.4 743.2L468.5 746.4L467.7 749.6L466.8 752.8L465.9 755.9L464.9 759.1L464 762.2L463.1 765.3L462.2 768.3L461.2 771.4L460.2 774.4L459.3 777.5L458.3 780.5L457.3 783.4L456.3 786.4L455.3 789.3L454.3 792.2L453.3 795.1L452.3 798L451.2 800.8L450.2 803.6L449.1 806.4L448.1 809.2L447 811.9L445.9 814.7L444.9 817.4L443.8 820.1L442.7 822.7L441.6 825.3L440.5 828L439.4 830.5L438.3 833.1L437.2 835.6L436 838.1L434.9 840.6L433.8 843.1L432.6 845.5L431.5 847.9L430.3 850.3L429.2 852.6L428 855L426.8 857.3L425.7 859.5L424.5 861.8L423.3 864L422.1 866.2L421 868.3L419.8 870.5L418.6 872.6L417.4 874.7L416.2 876.7L415 878.7L413.8 880.7L412.6 882.7L411.4 884.7L410.2 886.6L409 888.4L407.8 890.3L406.6 892.1L405.4 893.9L404.2 895.7L403 897.4L401.7 899.1L400.5 900.8L399.3 902.5L398.1 904.1L396.9 905.7L395.7 907.2L394.5 908.8L393.3 910.3L392.1 911.7L390.9 913.2L389.7 914.6L388.5 916L387.3 917.3L386.1 918.6L384.9 919.9L383.7 921.2L382.5 922.4L381.3 923.6L380.1 924.8L378.9 925.9L377.7 927L376.6 928.1L375.4 929.1L374.2 930.1L373.1 931.1L371.9 932L370.8 932.9L369.6 933.8L368.5 934.7L367.3 935.5L366.2 936.3L365.1 937L363.9 937.8L362.8 938.5L361.7 939.1L360.6 939.8L359.5 940.4L358.4 940.9L357.3 941.5L356.2 942L355.2 942.4L354.1 942.9L353 943.3L352 943.7L351 944L349.9 944.3L348.9 944.6L347.9 944.9L346.9 945.1L345.9 945.3L344.9 945.4L343.9 945.5L342.9 945.6L342 945.7L341 945.7L340.1 945.7L339.1 945.7L338.2 945.6L337.3 945.5L336.4 945.4L335.5 945.3L334.6 945.1L333.8 944.8L332.9 944.6L332.1 944.3L331.2 944L330.4 943.7L329.6 943.3L328.8 942.9L328 942.4L327.2 942L326.5 941.5L325.7 941L325 940.4L324.3 939.8L323.6 939.2L322.9 938.5L322.2 937.9L321.5 937.2L320.9 936.4L320.2 935.7L319.6 934.9L319 934L318.4 933.2L317.8 932.3L317.2 931.4L316.7 930.4L316.2 929.5L315.6 928.5L315.1 927.4L314.6 926.4L314.2 925.3L313.7 924.2L313.2 923L312.8 921.9L312.4 920.7L312 919.4L311.6 918.2L311.3 916.9L310.9 915.6L310.6 914.2L310.3 912.9L310 911.5L309.7 910.1L309.4 908.6L309.2 907.2L309 905.7L308.8 904.1L308.6 902.6L308.4 901L308.2 899.4L308.1 897.8L308 896.1L307.9 894.4L307.8 892.7L307.7 891L307.7 889.3L307.7 887.5L307.7 885.7L307.7 883.9L307.7 882L307.7 880.1L307.8 878.3L307.9 876.3L308 874.4L308.1 872.4L308.3 870.4L308.4 868.4L308.6 866.4L308.8 864.3L309 862.3L309.3 860.2L309.5 858L309.8 855.9L310.1 853.7L310.5 851.6L310.8 849.3L311.2 847.1L311.5 844.9L311.9 842.6L312.4 840.3L312.8 838L313.3 835.7L313.8 833.4L314.3 831L314.8 828.6L315.3 826.2L315.9 823.8L316.5 821.4L317.1 818.9L317.7 816.4L318.4 813.9L319 811.4L319.7 808.9L320.4 806.4L321.2 803.8L321.9 801.2L322.7 798.7L323.5 796.1L324.3 793.4L325.1 790.8L326 788.1L326.9 785.5L327.8 782.8L328.7 780.1L329.6 777.4L330.6 774.7L331.6 771.9L332.6 769.2L333.6 766.4L334.7 763.7L335.7 760.9L336.8 758.1L337.9 755.3L339 752.4L340.2 749.6L341.4 746.8L342.5 743.9L343.8 741L345 738.2L346.2 735.3L347.5 732.4L348.8 729.5L350.1 726.6L351.4 723.6L352.8 720.7L354.2 717.8L355.6 714.8L357 711.8L358.4 708.9L359.9 705.9L361.3 702.9L362.8 699.9L364.3 696.9L365.9 693.9L367.4 690.9L369 687.9L370.6 684.9L372.2 681.8L373.8 678.8L375.5 675.8L377.1 672.7L378.8 669.7L380.5 666.6L382.3 663.6L384 660.5L385.8 657.5L387.6 654.4L389.4 651.3L391.2 648.3L393 645.2L394.9 642.1L396.7 639L398.6 635.9L400.5 632.9L402.5 629.8L404.4 626.7L406.4 623.6L408.3 620.5L410.3 617.5L412.4 614.4L414.4 611.3L416.4 608.2L418.5 605.1L420.6 602L422.7 599L424.8 595.9L426.9 592.8L429.1 589.7L431.2 586.7L433.4 583.6L435.6 580.5L437.8 577.5L440 574.4L442.3 571.4L444.5 568.3L446.8 565.3L449.1 562.2L451.4 559.2L453.7 556.2L456 553.1L458.4 550.1L460.7 547.1L463.1 544.1L465.5 541.1L467.9 538.1L470.3 535.1L472.7 532.1L475.1 529.1L477.6 526.2L480.1 523.2L482.5 520.2L485 517.3L487.5 514.4L490 511.4L492.5 508.5L495.1 505.6L497.6 502.7L500.2 499.8L502.7 496.9L505.3 494L507.9 491.2L510.5 488.3L513.1 485.5L515.7 482.7L518.3 479.8L521 477L523.6 474.2L526.3 471.4L528.9 468.7L531.6 465.9L534.3 463.1L537 460.4L539.7 457.7L542.4 455L545.1 452.3L547.8 449.6L550.5 446.9L553.3 444.2L556 441.6L558.8 439L561.5 436.3L564.3 433.7L567 431.2L569.8 428.6L572.6 426L575.3 423.5L578.1 420.9L580.9 418.4L583.7 415.9L586.5 413.4L589.3 411L592.1 408.5L594.9 406.1L597.7 403.7L600.5 401.3L603.4 398.9L606.2 396.5L609 394.2L611.8 391.8L614.6 389.5L617.5 387.2L620.3 384.9L623.1 382.7L626 380.4L628.8 378.2L631.6 376L634.4 373.8L637.3 371.6L640.1 369.5L642.9 367.3L645.8 365.2L648.6 363.1L651.4 361L654.2 359L657.1 356.9L659.9 354.9L662.7 352.9L665.5 350.9L668.3 349L671.1 347L673.9 345.1L676.7 343.2L679.5 341.3L682.3 339.5L685.1 337.6L687.9 335.8L690.7 334L693.4 332.2L696.2 330.5L699 328.7L701.7 327L704.5 325.3L707.2 323.7L709.9 322L712.7 320.4L715.4 318.8L718.1 317.2L720.8 315.6L723.5 314.1L726.2 312.6L728.9 311.1L731.6 309.6L734.2 308.1L736.9 306.7L739.5 305.3L742.2 303.9L744.8 302.5L747.4 301.2L750 299.9L752.6 298.6L755.2 297.3L757.8 296L760.3 294.8L762.9 293.6L765.4 292.4L767.9 291.2L770.5 290.1L773 288.9L775.4 287.8L777.9 286.8L780.4 285.7L782.8 284.7L785.3 283.7L787.7 282.7L790.1 281.7L792.5 280.8L794.9 279.9L797.2 279L799.6 278.1L801.9 277.2L804.2 276.4L806.5 275.6L808.8 274.8L811.1 274.1L813.3 273.3L815.5 272.6L817.7 271.9L819.9 271.3L822.1 270.6L824.3 270L826.4 269.4L828.6 268.8L830.7 268.2L832.8 267.7L834.8 267.2L836.9 266.7L838.9 266.2L840.9 265.8L842.9 265.4L844.9 265L846.8 264.6L848.8 264.2L850.7 263.9L852.6 263.6L854.5 263.3L856.3 263L858.1 262.8L859.9 262.5L861.7 262.3L863.5 262.1L865.2 262L866.9 261.8L868.6 261.7L870.3 261.6L872 261.5L873.6 261.5L875.2 261.5L876.8 261.4L878.3 261.4L879.9 261.5L881.4 261.5L882.9 261.6L884.3 261.7L885.8 261.8L887.2 261.9L888.6 262.1L889.9 262.2L891.3 262.4L892.6 262.6L893.9 262.9L895.1 263.1L896.4 263.4L897.6 263.7L898.8 264L899.9 264.3L901.1 264.6L902.2 265L903.3 265.4L904.3 265.8L905.3 266.2L906.3 266.6L907.3 267.1L908.3 267.6L909.2 268.1L910.1 268.6L910.9 269.1L911.8 269.6L912.6 270.2L913.3 270.8L914.1 271.4L914.8 272L915.5 272.6L916.2 273.3L916.8 273.9L917.4 274.6L918 275.3L918.6 276L919.1 276.8L919.6 277.5L920 278.3L920.5 279.1L920.9 279.8L921.3 280.7L921.6 281.5L921.9 282.3L922.2 283.2L922.5 284L922.7 284.9L922.9 285.8L923.1 286.7L923.2 287.6L923.3 288.6L923.4 289.5L923.5 290.5L923.5 291.5L923.5 292.5L923.4 293.5L923.4 294.5L923.3 295.5L923.1 296.5L923 297.6L922.8 298.7L922.6 299.7L922.3 300.8L922 301.9L921.7 303L921.4 304.2L921 305.3L920.6 306.4L920.1 307.6L919.7 308.8L919.2 309.9L918.7 311.1L918.1 312.3L917.5 313.5L916.9 314.7L916.2 316L915.6 317.2L914.8 318.4L914.1 319.7L913.3 320.9L912.5 322.2L911.7 323.5L910.8 324.8L909.9 326L909 327.3L908.1 328.6L907.1 330L906.1 331.3L905 332.6L903.9 333.9L902.8 335.3L901.7 336.6L900.5 338L899.3 339.3L898.1 340.7L896.8 342L895.5 343.4L894.2 344.8L892.9 346.2L891.5 347.6L890.1 348.9L888.7 350.3L887.2 351.7L885.7 353.1L884.2 354.5L882.6 356L881 357.4L879.4 358.8L877.8 360.2L876.1 361.6L874.4 363L872.7 364.5L870.9 365.9L869.1 367.3L867.3 368.7L865.5 370.2L863.6 371.6L861.7 373L859.8 374.5L857.8 375.9L855.9 377.3L853.8 378.8L851.8 380.2L849.7 381.6L847.7 383.1L845.5 384.5L843.4 385.9L841.2 387.4L839 388.8L836.8 390.2L834.5 391.7L832.3 393.1L830 394.5L827.6 395.9L825.3 397.4L822.9 398.8L820.5 400.2L818.1 401.6L815.6 403L813.1 404.4L810.6 405.8L808.1 407.2L805.5 408.6L802.9 410L800.3 411.4L797.7 412.8L795 414.1L792.4 415.5L789.7 416.9L786.9 418.2L784.2 419.6L781.4 421L778.6 422.3L775.8 423.6L773 425L770.1 426.3L767.3 427.6L764.3 429L761.4 430.3L758.5 431.6L755.5 432.9L752.5 434.2L749.5 435.4L746.5 436.7L743.4 438L740.4 439.2L737.3 440.5L734.2 441.7L731.1 443L727.9 444.2L724.7 445.4L721.6 446.6L718.4 447.8L715.1 449L711.9 450.2L708.7 451.4L705.4 452.6L702.1 453.7L698.8 454.9L695.5 456L692.1 457.2L688.8 458.3L685.4 459.4L682 460.5L678.6 461.6L675.2 462.6L671.8 463.7L668.3 464.8L664.8 465.8L661.4 466.9L657.9 467.9L654.4 468.9L650.9 469.9L647.3 470.9L643.8 471.9L640.2 472.8L636.7 473.8L633.1 474.7L629.5 475.7L625.9 476.6L622.3 477.5L618.6 478.4L615 479.3L611.3 480.2L607.7 481L604 481.9L600.3 482.7L596.7 483.5L593 484.3L589.3 485.1L585.5 485.9L581.8 486.7L578.1 487.4L574.4 488.2L570.6 488.9L566.9 489.6L563.1 490.3L559.3 491L555.6 491.7L551.8 492.4L548 493L544.2 493.7L540.4 494.3L536.6 494.9L532.8 495.5L529 496.1L525.2 496.6L521.4 497.2L517.6 497.7L513.7 498.2L509.9 498.7L506.1 499.2L502.3 499.7L498.4 500.2L494.6 500.6L490.8 501.1L486.9 501.5L483.1 501.9L479.3 502.3L475.4 502.7L471.6 503.1L467.7 503.4L463.9 503.7L460.1 504.1L456.2 504.4L452.4 504.7L448.6 504.9L444.8 505.2L440.9 505.4L437.1 505.7L433.3 505.9L429.5 506.1L425.7 506.3L421.9 506.5L418.1 506.6L414.3 506.8L410.5 506.9L406.7 507L402.9 507.1L399.1 507.2L395.3 507.3L391.6 507.3L387.8 507.4L384.1 507.4L380.3 507.4L376.6 507.4L372.8 507.4L369.1 507.4L365.4 507.3L361.7 507.3L358 507.2L354.3 507.1L350.6 507L347 506.9L343.3 506.8L339.7 506.6L336 506.5L332.4 506.3L328.8 506.1L325.2 505.9L321.6 505.7L318 505.5L314.5 505.2L310.9 505L307.4 504.7L303.8 504.4L300.3 504.1L296.8 503.8L293.3 503.5L289.9 503.2L286.4 502.8L283 502.5L279.5 502.1L276.1 501.7L272.7 501.3L269.3 500.9L266 500.5L262.6 500L259.3 499.6L256 499.1L252.7 498.6L249.4 498.1L246.1 497.6L242.9 497.1L239.6 496.6L236.4 496.1L233.2 495.5L230 495L226.9 494.4L223.8 493.8L220.6 493.2L217.5 492.6L214.5 492L211.4 491.4L208.4 490.7L205.4 490.1L202.4 489.4L199.4 488.7L196.4 488.1L193.5 487.4L190.6 486.7L187.7 486L184.8 485.2L182 484.5L179.2 483.8L176.4 483L173.6 482.3L170.9 481.5L168.1 480.7L165.4 479.9L162.7 479.1L160.1 478.3L157.5 477.5L154.8 476.7L152.3 475.9L149.7 475L147.2 474.2L144.7 473.3L142.2 472.5L139.7 471.6L137.3 470.7L134.9 469.8L132.5 468.9L130.2 468L127.8 467.1L125.5 466.2L123.3 465.3L121 464.4L118.8 463.5L116.6 462.5L114.4 461.6L112.3 460.6L110.2 459.7L108.1 458.7L106.1 457.8L104 456.8L102.1 455.8L100.1 454.8L98.1 453.9L96.2 452.9L94.4 451.9L92.5 450.9L90.7 449.9L88.9 448.9L87.1 447.9L85.4 446.9L83.7 445.9L82 444.8L80.4 443.8L78.8 442.8L77.2 441.8L75.6 440.8L74.1 439.7L72.6 438.7L71.1 437.7L69.7 436.6L68.3 435.6L66.9 434.6L65.6 433.5L64.3 432.5L63 431.5L61.8 430.4L60.6 429.4L59.4 428.4L58.2 427.3L57.1 426.3L56 425.2L55 424.2L53.9 423.2L52.9 422.1L52 421.1L51 420.1L50.2 419L49.3 418L48.5 417L47.6 416L46.9 414.9L46.1 413.9L45.4 412.9L44.8 411.9L44.1 410.9L43.5 409.9L42.9 408.9L42.4 407.9L41.9 406.9L41.4 405.9L41 404.9L40.5 403.9L40.2 402.9L39.8 401.9L39.5 401L39.2 400L39 399L38.7 398.1L38.5 397.1L38.4 396.2L38.3 395.3L38.2 394.3L38.1 393.4L38.1 392.5L38.1 391.6L38.1 390.7L38.2 389.8L38.3 388.9L38.5 388L38.6 387.1L38.8 386.3L39.1 385.4L39.3 384.5L39.6 383.7L39.9 382.9L40.3 382L40.7 381.2L41.1 380.4L41.6 379.6L42.1 378.8L42.6 378L43.1 377.3L43.7 376.5L44.3 375.8L45 375L45.6 374.3L46.3 373.6L47.1 372.8L47.8 372.1L48.6 371.5L49.5 370.8L50.3 370.1L51.2 369.5L52.1 368.8L53.1 368.2L54.1 367.6L55.1 367L56.1 366.4L57.2 365.8L58.3 365.2L59.4 364.7L60.6 364.1L61.8 363.6L63 363.1L64.3 362.5L65.5 362.1L66.8 361.6L68.2 361.1L69.5 360.7L70.9 360.2L72.4 359.8L73.8 359.4L75.3 359L76.8 358.6L78.3 358.2L79.9 357.9L81.5 357.6L83.1 357.2L84.7 356.9L86.4 356.6L88.1 356.4L89.8 356.1L91.6 355.8L93.4 355.6L95.2 355.4L97 355.2L98.9 355L100.7 354.9L102.7 354.7L104.6 354.6L106.5 354.4L108.5 354.3L110.5 354.3L112.6 354.2L114.6 354.1L116.7 354.1L118.8 354.1L120.9 354.1L123.1 354.1L125.3 354.1L127.5 354.2L129.7 354.3L131.9 354.3L134.2 354.5L136.5 354.6L138.8 354.7L141.1 354.9L143.5 355L145.9 355.2L148.3 355.4L150.7 355.7L153.1 355.9L155.6 356.2L158.1 356.5L160.6 356.8L163.1 357.1L165.6 357.4L168.2 357.8L170.8 358.2L173.4 358.6L176 359L178.7 359.4L181.3 359.8L184 360.3L186.7 360.8L189.4 361.3L192.1 361.8L194.9 362.4L197.6 362.9L200.4 363.5L203.2 364.1L206 364.7L208.8 365.4L211.7 366L214.5 366.7L217.4 367.4L220.3 368.1L223.2 368.9L226.1 369.6L229.1 370.4L232 371.2L235 372L237.9 372.8L240.9 373.7L243.9 374.5L247 375.4L250 376.3L253 377.3L256.1 378.2L259.1 379.2L262.2 380.2L265.3 381.2L268.4 382.2L271.5 383.2L274.6 384.3L277.7 385.4L280.9 386.5L284 387.6L287.2 388.7L290.3 389.9L293.5 391L296.7 392.2L299.9 393.4L303.1 394.7L306.3 395.9L309.5 397.2L312.7 398.5L315.9 399.8L319.2 401.1L322.4 402.4L325.6 403.8L328.9 405.1L332.2 406.5L335.4 407.9L338.7 409.4L342 410.8L345.2 412.3L348.5 413.8L351.8 415.3L355.1 416.8L358.4 418.3L361.7 419.9L365 421.5L368.3 423L371.6 424.6L374.9 426.3L378.2 427.9L381.5 429.6L384.8 431.2L388.1 432.9L391.4 434.6L394.7 436.4L398 438.1L401.3 439.8L404.6 441.6L407.9 443.4L411.3 445.2L414.6 447L417.9 448.9L421.2 450.7L424.5 452.6L427.8 454.5L431.1 456.4L434.4 458.3L437.6 460.2L440.9 462.1L444.2 464.1L447.5 466.1L450.8 468.1L454 470.1L457.3 472.1L460.6 474.1L463.8 476.1L467.1 478.2L470.3 480.3L473.5 482.3L476.8 484.4L480 486.5L483.2 488.7L486.4 490.8L489.6 492.9L492.8 495.1L496 497.3L499.2 499.5L502.4 501.7L505.6 503.9L508.7 506.1L511.9 508.3L515 510.6L518.1 512.8L521.2 515.1L524.4 517.3L527.5 519.6L530.5 521.9L533.6 524.2L536.7 526.5L539.8 528.9L542.8 531.2L545.8 533.5L548.9 535.9L551.9 538.3L554.9 540.6L557.9 543L560.8 545.4L563.8 547.8L566.7 550.2L569.7 552.6L572.6 555L575.5 557.5L578.4 559.9L581.3 562.3L584.1 564.8L587 567.3L589.8 569.7L592.7 572.2L595.5 574.7L598.3 577.1L601 579.6L603.8 582.1L606.5 584.6L609.3 587.1L612 589.6L614.7 592.1L617.4 594.6L620 597.2L622.7 599.7L625.3 602.2L627.9 604.7L630.5 607.3L633.1 609.8L635.6 612.4L638.2 614.9L640.7 617.4L643.2 620L645.7 622.5L648.2 625.1L650.6 627.6L653 630.2L655.4 632.7L657.8 635.3L660.2 637.9L662.6 640.4L664.9 643L667.2 645.5L669.5 648.1L671.8 650.6L674 653.2L676.2 655.7L678.5 658.3L680.6 660.8L682.8 663.4L685 665.9L687.1 668.5L689.2 671L691.3 673.5L693.3 676.1L695.4 678.6L697.4 681.1L699.4 683.7L701.4 686.2L703.3 688.7L705.3 691.2L707.2 693.7L709.1 696.2L710.9 698.7L712.8 701.2L714.6 703.7L716.4 706.1L718.2 708.6L719.9 711.1L721.6 713.5L723.3 716L725 718.4L726.7 720.9L728.3 723.3L729.9 725.7L731.5 728.1L733.1 730.5L734.6 732.9L736.1 735.3L737.6 737.7L739.1 740.1L740.5 742.4L742 744.8L743.4 747.1L744.7 749.5L746.1 751.8L747.4 754.1L748.7 756.4L750 758.7L751.3 760.9L752.5 763.2L753.7 765.5L754.9 767.7L756 769.9L757.2 772.1L758.3 774.3L759.4 776.5L760.4 778.7L761.5 780.9L762.5 783L763.5 785.2L764.4 787.3L765.4 789.4L766.3 791.5L767.2 793.5L768 795.6L768.9 797.7L769.7 799.7L770.5 801.7L771.2 803.7L772 805.7L772.7 807.6L773.4 809.6L774.1 811.5L774.7 813.4L775.3 815.3L775.9 817.2L776.5 819.1L777 820.9L777.6 822.8L778.1 824.6L778.5 826.4L779 828.1L779.4 829.9L779.8 831.6L780.2 833.3L780.5 835L780.9 836.7L781.2 838.4L781.5 840L781.7 841.6L782 843.2L782.2 844.8L782.4 846.3L782.5 847.9L782.7 849.4L782.8 850.9L782.9 852.4L783 853.8L783 855.2L783 856.6L783 858L783 859.4L783 860.7L782.9 862L782.8 863.3L782.7 864.6L782.6 865.8L782.4 867L782.3 868.2L782.1 869.4L781.8 870.6L781.6 871.7L781.3 872.8L781 873.9L780.7 874.9L780.4 875.9L780.1 876.9L779.7 877.9L779.3 878.9L778.9 879.8L778.4 880.7L778 881.6L777.5 882.4L777 883.3L776.5 884.1L776 884.8L775.4 885.6L774.8 886.3L774.2 887L773.6 887.7L773 888.3L772.3 888.9L771.7 889.5L771 890.1L770.2 890.6L769.5 891.1L768.8 891.6L768 892.1L767.2 892.5L766.4 892.9L765.6 893.3L764.7 893.6L763.9 893.9L763 894.2L762.1 894.5L761.2 894.7L760.3 894.9L759.3 895.1L758.4 895.2L757.4 895.3L756.4 895.4L755.4 895.5L754.3 895.5L753.3 895.5L752.2 895.5L751.2 895.5L750.1 895.4L749 895.3L747.8 895.1L746.7 895L745.6 894.8L744.4 894.5L743.2 894.3L742 894L740.8 893.7L739.6 893.3L738.4 893L737.1 892.6L735.8 892.1L734.6 891.7L733.3 891.2L732 890.7L730.7 890.1L729.3 889.5L728 888.9L726.7 888.3L725.3 887.6L723.9 886.9L722.5 886.2L721.1 885.5L719.7 884.7L718.3 883.9L716.9 883L715.5 882.2L714 881.3L712.5 880.3L711.1 879.4L709.6 878.4L708.1 877.4L706.6 876.3L705.1 875.2L703.6 874.1L702.1 873L700.5 871.8L699 870.7L697.5 869.4L695.9 868.2L694.3 866.9L692.8 865.6L691.2 864.3L689.6 862.9L688 861.5L686.4 860.1L684.8 858.6L683.2 857.2L681.6 855.7L680 854.1L678.4 852.6L676.7 851L675.1 849.3L673.5 847.7L671.8 846L670.2 844.3L668.5 842.6L666.8 840.8L665.2 839L663.5 837.2L661.9 835.4L660.2 833.5L658.5 831.6L656.8 829.7L655.1 827.8L653.5 825.8L651.8 823.8L650.1 821.8L648.4 819.7L646.7 817.6L645 815.5L643.3 813.4L641.6 811.2L639.9 809L638.3 806.8L636.6 804.6L634.9 802.3L633.2 800L631.5 797.7L629.8 795.4L628.1 793L626.4 790.6L624.7 788.2L623 785.8L621.3 783.3L619.6 780.8L618 778.3L616.3 775.8L614.6 773.2L612.9 770.7L611.2 768.1L609.6 765.4L607.9 762.8L606.2 760.1L604.6 757.4L602.9 754.7L601.3 752L599.6 749.2L598 746.4L596.3 743.6L594.7 740.8L593 738L591.4 735.1L589.8 732.2L588.2 729.3L586.6 726.4L585 723.4L583.4 720.5L581.8 717.5L580.2 714.5L578.6 711.4L577 708.4L575.4 705.3L573.9 702.2L572.3 699.1L570.8 696L569.2 692.9L567.7 689.7L566.2 686.6L564.7 683.4L563.1 680.2L561.6 676.9L560.1 673.7L558.7 670.4L557.2 667.2L555.7 663.9L554.3 660.6L552.8 657.2L551.4 653.9L549.9 650.6L548.5 647.2L547.1 643.8L545.7 640.4L544.3 637L542.9 633.6L541.5 630.1L540.2 626.7L538.8 623.2L537.5 619.8L536.2 616.3L534.8 612.8L533.5 609.3L532.2 605.7L530.9 602.2L529.7 598.6L528.4 595.1L527.1 591.5L525.9 587.9L524.7 584.4L523.5 580.8L522.3 577.1L521.1 573.5L519.9 569.9L518.7 566.3L517.6 562.6L516.4 559L515.3 555.3L514.2 551.6L513.1 548L512 544.3L510.9 540.6L509.8 536.9L508.8 533.2L507.7 529.5L506.7 525.8L505.7 522.1L504.7 518.3L503.7 514.6L502.7 510.9L501.8 507.1L500.8 503.4L499.9 499.6L499 495.9L498.1 492.1L497.2 488.4L496.3 484.6L495.5 480.9L494.6 477.1L493.8 473.3L493 469.6L492.2 465.8L491.4 462L490.6 458.3L489.9 454.5L489.1 450.7L488.4 447L487.7 443.2L487 439.4L486.3 435.7L485.6 431.9L485 428.1L484.4 424.4L483.7 420.6L483.1 416.9L482.5 413.1L482 409.4L481.4 405.6L480.9 401.9L480.3 398.2L479.8 394.4L479.3 390.7L478.8 387L478.4 383.3L477.9 379.5L477.5 375.8L477 372.1L476.6 368.4L476.2 364.8L475.9 361.1L475.5 357.4L475.1 353.7L474.8 350.1L474.5 346.4L474.2 342.8L473.9 339.2L473.6 335.5L473.4 331.9L473.1 328.3L472.9 324.7L472.7 321.1L472.5 317.6L472.3 314L472.2 310.5L472 306.9L471.9 303.4L471.7 299.9L471.6 296.4L471.6 292.9L471.5 289.4L471.4 285.9L471.4 282.5L471.3 279L471.3 275.6L471.3 272.2L471.3 268.8L471.4 265.4L471.4 262L471.5 258.7L471.5 255.3L471.6 252L471.7 248.7L471.8 245.4L471.9 242.1L472.1 238.9L472.2 235.6L472.4 232.4L472.6 229.2L472.8 226L473 222.9L473.2 219.7L473.5 216.6L473.7 213.4L474 210.3L474.3 207.3L474.5 204.2L474.8 201.2L475.2 198.2L475.5 195.2L475.8 192.2L476.2 189.2L476.6 186.3L476.9 183.4L477.3 180.5L477.7 177.6L478.1 174.7L478.6 171.9L479 169.1L479.5 166.3L479.9 163.5L480.4 160.8L480.9 158.1L481.4 155.4L481.9 152.7L482.4 150.1L482.9 147.5L483.5 144.9L484 142.3L484.6 139.7L485.2 137.2L485.8 134.7L486.3 132.2L487 129.8L487.6 127.3L488.2 124.9L488.8 122.6L489.5 120.2L490.1 117.9L490.8 115.6L491.5 113.3L492.1 111.1L492.8 108.9L493.5 106.7L494.2 104.5L494.9 102.4L495.7 100.3L496.4 98.2L497.1 96.2L497.9 94.1L498.6 92.1L499.4 90.2L500.2 88.2L500.9 86.3L501.7 84.4L502.5 82.6L503.3 80.8L504.1 79L504.9 77.2L505.7 75.5L506.6 73.8L507.4 72.1L508.2 70.5L509.1 68.8L509.9 67.3L510.8 65.7L511.6 64.2L512.5 62.7L513.3 61.2L514.2 59.8L515.1 58.4L516 57L516.8 55.7L517.7 54.4L518.6 53.1L519.5 51.8L520.4 50.6L521.3 49.4L522.2 48.3L523.1 47.2L524 46.1L524.9 45L525.9 44L526.8 43L527.7 42L528.6 41.1L529.5 40.2L530.5 39.3L531.4 38.5L532.3 37.7L533.2 36.9L534.2 36.2L535.1 35.5L536 34.8L536.9 34.2L537.9 33.6L538.8 33L539.7 32.5L540.7 32L541.6 31.5L542.5 31L543.4 30.6L544.4 30.3L545.3 29.9L546.2 29.6L547.1 29.3L548 29.1L548.9 28.9L549.9 28.7L550.8 28.5L551.7 28.4L552.6 28.4L553.5 28.3L554.4 28.3L555.3 28.3L556.2 28.4L557 28.4L557.9 28.6L558.8 28.7L559.7 28.9L560.6 29.1L561.4 29.3L562.3 29.6L563.1 29.9L564 30.3L564.8 30.7L565.7 31.1L566.5 31.5L567.3 32L568.2 32.5L569 33L569.8 33.6L570.6 34.2L571.4 34.8L572.2 35.5L573 36.2L573.7 36.9L574.5 37.7L575.3 38.5L576 39.3L576.8 40.2L577.5 41.1L578.2 42L578.9 43L579.6 43.9L580.3 45L581 46L581.7 47.1L582.4 48.2L583.1 49.3L583.7 50.5L584.4 51.7L585 52.9L585.6 54.2L586.2 55.5L586.9 56.8L587.5 58.2L588 59.5L588.6 60.9L589.2 62.4L589.7 63.9L590.3 65.4L590.8 66.9L591.3 68.4L591.8 70L592.3 71.6L592.8 73.3L593.3 75L593.7 76.7L594.2 78.4L594.6 80.1L595 81.9L595.4 83.7L595.8 85.6L596.2 87.4L596.6 89.3L597 91.3L597.3 93.2L597.6 95.2L597.9 97.2L598.2 99.2L598.5 101.3L598.8 103.3L599.1 105.4L599.3 107.6L599.6 109.7L599.8 111.9L600 114.1L600.2 116.4L600.3 118.6L600.5 120.9L600.6 123.2L600.8 125.5L600.9 127.9L601 130.3L601.1 132.7L601.2 135.1L601.2 137.5L601.2 140L601.3 142.5L601.3 145L601.3 147.5L601.2 150.1L601.2 152.7L601.1 155.3L601.1 157.9L601 160.5L600.9 163.2L600.8 165.9L600.6 168.6L600.5 171.3L600.3 174.1L600.1 176.8L599.9 179.6L599.7 182.4L599.4 185.2L599.2 188.1L598.9 190.9L598.6 193.8L598.3 196.7L598 199.6L597.7 202.6L597.3 205.5L596.9 208.5L596.5 211.5L596.1 214.5L595.7 217.5L595.3 220.5L594.8 223.6L594.3 226.6L593.8 229.7L593.3 232.8L592.8 235.9L592.2 239L591.7 242.2L591.1 245.3L590.5 248.5L589.9 251.7L589.2 254.9L588.6 258.1L587.9 261.3L587.2 264.5L586.5 267.7L585.8 271L585.1 274.3L584.3 277.5L583.5 280.8L582.7 284.1L581.9 287.4L581.1 290.8L580.3 294.1L579.4 297.4L578.5 300.8L577.6 304.1L576.7 307.5L575.8 310.9L574.8 314.2L573.8 317.6L572.9 321L571.9 324.4L570.8 327.9L569.8 331.3L568.7 334.7L567.7 338.1L566.6 341.6L565.5 345L564.4 348.5L563.2 351.9L562.1 355.4L560.9 358.8L559.7 362.3L558.5 365.8L557.3 369.3L556 372.7L554.8 376.2L553.5 379.7L552.2 383.2L550.9 386.7L549.6 390.2L548.2 393.7L546.9 397.2L545.5 400.7L544.1 404.2L542.7 407.7L541.3 411.2L539.9 414.7L538.4 418.2L537 421.7L535.5 425.2L534 428.7L532.5 432.2L530.9 435.7L529.4 439.2L527.8 442.7L526.3 446.2L524.7 449.7L523.1 453.1L521.5 456.6L519.8 460.1L518.2 463.6L516.5 467.1L514.9 470.5L513.2 474L511.5 477.4L509.8 480.9L508 484.3L506.3 487.8L504.6 491.2L502.8 494.7L501 498.1L499.2 501.5L497.4 504.9L495.6 508.3L493.8 511.7L491.9 515.1L490.1 518.5L488.2 521.8L486.3 525.2L484.4 528.6L482.5 531.9L480.6 535.3L478.7 538.6L476.7 541.9L474.8 545.2L472.8 548.5L470.9 551.8L468.9 555.1L466.9 558.3L464.9 561.6L462.9 564.8L460.9 568.1L458.8 571.3L456.8 574.5L454.8 577.7L452.7 580.9L450.6 584.1L448.6 587.2L446.5 590.4L444.4 593.5L442.3 596.6L440.2 599.7L438.1 602.8L435.9 605.9L433.8 608.9L431.7 612L429.5 615L427.4 618L425.2 621L423 624L420.9 627L418.7 629.9L416.5 632.9L414.3 635.8L412.1 638.7L409.9 641.6L407.7 644.4L405.5 647.3L403.3 650.1L401.1 652.9L398.8 655.7L396.6 658.5L394.4 661.3L392.1 664L389.9 666.8L387.7 669.5L385.4 672.1L383.2 674.8L380.9 677.5L378.7 680.1L376.4 682.7L374.1 685.3L371.9 687.9L369.6 690.4L367.4 692.9L365.1 695.4L362.8 697.9L360.6 700.4L358.3 702.8L356 705.3L353.8 707.7L351.5 710.1L349.2 712.4L347 714.8L344.7 717.1L342.4 719.4L340.2 721.6L337.9 723.9L335.7 726.1L333.4 728.3L331.1 730.5L328.9 732.7L326.6 734.8L324.4 736.9L322.1 739L319.9 741.1L317.7 743.1L315.4 745.1L313.2 747.1L311 749.1L308.8 751L306.5 753L304.3 754.9L302.1 756.7L299.9 758.6L297.7 760.4L295.5 762.2L293.4 764L291.2 765.8L289 767.5L286.8 769.2L284.7 770.9L282.5 772.5L280.4 774.1L278.3 775.7L276.1 777.3L274 778.9L271.9 780.4L269.8 781.9L267.7 783.4L265.6 784.8L263.6 786.3L261.5 787.7L259.4 789L257.4 790.4L255.4 791.7L253.3 793L251.3 794.3L249.3 795.5L247.3 796.7L245.3 797.9L243.4 799.1L241.4 800.2L239.5 801.3L237.5 802.4L235.6 803.5L233.7 804.5L231.8 805.5L229.9 806.5L228 807.5L226.2 808.4L224.4 809.3L222.5 810.2L220.7 811.1L218.9 811.9L217.1 812.7L215.4 813.5L213.6 814.2L211.9 814.9L210.1 815.6L208.4 816.3L206.7 816.9L205 817.6L203.4 818.1L201.7 818.7L200.1 819.2L198.5 819.8L196.9 820.2L195.3 820.7L193.8 821.1L192.2 821.6L190.7 821.9L189.2 822.3L187.7 822.6L186.2 822.9L184.8 823.2L183.3 823.5L181.9 823.7L180.5 823.9L179.1 824.1L177.8 824.2L176.5 824.4L175.1 824.5L173.8 824.5L172.6 824.6L171.3 824.6L170.1 824.6L168.8 824.6L167.7 824.5L166.5 824.5L165.3 824.4L164.2 824.3L163.1 824.1L162 823.9L160.9 823.7L159.9 823.5L158.9 823.3L157.9 823L156.9 822.7L155.9 822.4L155 822.1L154.1 821.7L153.2 821.3L152.3 820.9L151.5 820.5L150.7 820L149.9 819.6L149.1 819L148.4 818.5L147.6 818L146.9 817.4L146.3 816.8L145.6 816.2L145 815.6L144.4 814.9L143.8 814.2L143.3 813.5L142.7 812.8L142.2 812.1L141.8 811.3L141.3 810.5L140.9 809.7L140.5 808.9L140.1 808L139.8 807.1L139.4 806.3L139.2 805.3L138.9 804.4L138.6 803.5L138.4 802.5L138.2 801.5L138.1 800.5L137.9 799.5L137.8 798.4L137.7 797.3L137.7 796.3L137.6 795.2L137.6 794L137.7 792.9L137.7 791.7L137.8 790.5L137.9 789.3L138 788.1L138.2 786.9L138.3 785.7L138.6 784.4L138.8 783.1L139.1 781.8L139.4 780.5L139.7 779.2L140 777.8L140.4 776.4L140.8 775.1L141.2 773.7L141.7 772.3L142.2 770.8L142.7 769.4L143.2 767.9L143.8 766.5L144.4 765L145 763.5L145.7 762L146.4 760.4L147.1 758.9L147.8 757.3L148.6 755.8L149.4 754.2L150.2 752.6L151.1 751L151.9 749.4L152.8 747.7L153.8 746.1L154.7 744.4L155.7 742.8L156.7 741.1L157.8 739.4L158.8 737.7L159.9 736L161.1 734.3L162.2 732.5L163.4 730.8L164.6 729L165.9 727.3L167.1 725.5L168.4 723.7L169.7 721.9L171.1 720.1L172.5 718.3L173.9 716.5L175.3 714.7L176.7 712.8L178.2 711L179.7 709.2L181.3 707.3L182.8 705.4L184.4 703.6L186 701.7L187.7 699.8L189.4 697.9L191.1 696L192.8 694.1L194.5 692.2L196.3 690.3L198.1 688.4L199.9 686.5L201.8 684.5L203.7 682.6L205.6 680.7L207.5 678.7L209.5 676.8L211.5 674.8L213.5 672.9L215.5 670.9L217.6 669L219.6 667L221.7 665.1L223.9 663.1L226 661.1L228.2 659.2L230.4 657.2L232.7 655.2L234.9 653.2L237.2 651.3L239.5 649.3L241.8 647.3L244.2 645.3L246.5 643.4L248.9 641.4L251.4 639.4L253.8 637.4L256.3 635.5L258.8 633.5L261.3 631.5L263.8 629.5L266.4 627.6L268.9 625.6L271.5 623.6L274.2 621.7L276.8 619.7L279.5 617.7L282.1 615.8L284.8 613.8L287.6 611.9L290.3 609.9L293.1 608L295.9 606.1L298.7 604.1L301.5 602.2L304.4 600.3L307.2 598.3L310.1 596.4L313 594.5L315.9 592.6L318.9 590.7L321.8 588.8L324.8 586.9L327.8 585L330.8 583.1L333.9 581.2L336.9 579.4L340 577.5L343.1 575.6L346.2 573.8L349.3 572L352.4 570.1L355.6 568.3L358.7 566.5L361.9 564.7L365.1 562.9L368.3 561.1L371.5 559.3L374.8 557.5L378 555.7L381.3 554L384.6 552.2L387.9 550.5L391.2 548.7L394.5 547L397.9 545.3L401.2 543.6L404.6 541.9L408 540.2L411.4 538.5L414.7 536.8L418.2 535.2L421.6 533.5L425 531.9L428.5 530.3L431.9 528.7L435.4 527.1L438.9 525.5L442.3 523.9L445.8 522.3L449.3 520.8L452.9 519.2L456.4 517.7L459.9 516.2L463.4 514.7L467 513.2L470.5 511.7L474.1 510.2L477.7 508.8L481.2 507.3L484.8 505.9L488.4 504.5L492 503.1L495.6 501.7L499.2 500.3L502.8 498.9L506.4 497.6L510.1 496.2L513.7 494.9L517.3 493.6L520.9 492.3L524.6 491L528.2 489.8L531.9 488.5L535.5 487.3L539.1 486.1L542.8 484.8L546.4 483.6L550.1 482.5L553.7 481.3L557.4 480.2L561.1 479L564.7 477.9L568.4 476.8L572 475.7L575.7 474.6L579.3 473.6L583 472.5L586.6 471.5L590.3 470.5L593.9 469.5L597.6 468.5L601.2 467.5L604.9 466.6L608.5 465.6L612.1 464.7L615.8 463.8L619.4 462.9L623 462.1L626.6 461.2L630.3 460.4L633.9 459.5L637.5 458.7L641.1 457.9L644.7 457.2L648.2 456.4L651.8 455.7L655.4 454.9L659 454.2L662.5 453.5L666.1 452.8L669.6 452.2L673.2 451.5L676.7 450.9L680.2 450.3L683.7 449.7L687.2 449.1L690.7 448.6L694.2 448L697.6 447.5L701.1 447L704.6 446.5L708 446L711.4 445.5L714.8 445.1L718.2 444.6L721.6 444.2L725 443.8L728.4 443.4L731.7 443L735.1 442.7L738.4 442.3L741.7 442L745 441.7L748.3 441.4L751.6 441.2L754.8 440.9L758.1 440.7L761.3 440.4L764.5 440.2L767.7 440L770.9 439.8L774 439.7L777.2 439.5L780.3 439.4L783.4 439.3L786.5 439.2L789.6 439.1L792.7 439L795.7 439L798.7 438.9L801.7 438.9L804.7 438.9L807.7 438.9L810.6 438.9L813.6 439L816.5 439L819.4 439.1L822.2 439.1L825.1 439.2L827.9 439.3L830.7 439.5L833.5 439.6L836.2 439.8L839 439.9L841.7 440.1L844.4 440.3L847.1 440.5L849.7 440.7L852.4 441L855 441.2L857.6 441.5L860.1 441.7L862.7 442L865.2 442.3L867.7 442.6L870.1 443L872.6 443.3L875 443.7L877.4 444L879.7 444.4L882.1 444.8L884.4 445.2L886.7 445.6L889 446L891.2 446.5L893.4 446.9L895.6 447.4L897.8 447.8L899.9 448.3L902 448.8L904.1 449.3L906.1 449.8L908.2 450.4L910.1 450.9L912.1 451.4L914.1 452L916 452.6L917.9 453.1L919.7 453.7L921.5 454.3L923.3 454.9L925.1 455.6L926.9 456.2L928.6 456.8L930.3 457.5L931.9 458.1L933.5 458.8L935.1 459.5L936.7 460.1L938.2 460.8L939.8 461.5L941.2 462.2L942.7 462.9L944.1 463.7L945.5 464.4L946.8 465.1L948.2 465.9L949.4 466.6L950.7 467.4L951.9 468.1L953.1 468.9L954.3 469.7L955.5 470.5L956.6 471.2L957.6 472L958.7 472.8L959.7 473.6L960.7 474.5L961.6 475.3L962.5 476.1L963.4 476.9L964.3 477.7L965.1 478.6L965.9 479.4L966.6 480.3L967.4 481.1L968 482L968.7 482.8L969.3 483.7L969.9 484.5L970.5 485.4L971 486.3L971.5 487.1L972 488L972.4 488.9L972.8 489.8L973.2 490.6L973.5 491.5L973.8 492.4L974.1 493.3L974.3 494.2L974.5 495.1L974.7 496L974.8 496.8L974.9 497.7L975 498.6L975 499.5L975 500.4" opacity="0.12"/></g></svg>