<svg xmlns="http://www.w3.org/2000/svg" viewBox="0 0 1000 1000" preserveAspectRatio="xMidYMid slice" fill="none" stroke-linecap="round" stroke-linejoin="round"><g stroke="#0f3d2e" stroke-width="0.7"><path d="M975 500L974.9 497.4L974.7 494.9L974.3 492.3L973.8 489.8L973.2 487.3L972.4 484.7L971.5 482.2L970.4 479.8L969.1 477.3L967.8 474.8L966.3 472.4L964.6 470L962.8 467.7L960.9 465.3L958.8 463L956.6 460.8L954.3 458.6L951.8 456.4L949.2 454.3L946.5 452.2L943.6 450.1L940.6 448.2L937.4 446.2L934.2 444.3L930.8 442.5L927.3 440.8L923.6 439.1L919.9 437.4L916 435.9L912 434.4L907.9 432.9L903.7 431.6L899.4 430.3L894.9 429.1L890.4 427.9L885.7 426.9L880.9 425.9L876.1 425L871.1 424.2L866.1 423.4L860.9 422.8L855.7 422.2L850.3 421.8L844.9 421.4L839.4 421.1L833.8 420.9L828.1 420.8L822.4 420.8L816.6 420.9L810.7 421.1L804.7 421.3L798.7 421.7L792.6 422.2L786.4 422.8L780.2 423.5L773.9 424.2L767.6 425.1L761.2 426.1L754.8 427.2L748.4 428.4L741.9 429.7L735.3 431.1L728.7 432.6L722.1 434.2L715.5 435.9L708.8 437.7L702.1 439.6L695.4 441.6L688.7 443.7L681.9 446L675.2 448.3L668.4 450.7L661.6 453.3L654.8 455.9L648.1 458.6L641.3 461.5L634.5 464.4L627.8 467.4L621 470.5L614.3 473.8L607.6 477.1L600.9 480.5L594.2 484L587.5 487.6L580.9 491.3L574.3 495.1L567.8 499L561.2 502.9L554.8 507L548.3 511.1L541.9 515.3L535.6 519.6L529.3 524L523 528.4L516.8 533L510.7 537.6L504.6 542.3L498.6 547L492.6 551.8L486.8 556.7L480.9 561.6L475.2 566.7L469.5 571.7L463.9 576.9L458.4 582L453 587.3L447.6 592.6L442.3 597.9L437.1 603.3L432 608.7L427 614.2L422.1 619.7L417.3 625.3L412.5 630.9L407.9 636.5L403.3 642.1L398.9 647.8L394.5 653.5L390.3 659.2L386.1 664.9L382.1 670.7L378.1 676.5L374.3 682.2L370.6 688L366.9 693.8L363.4 699.6L360 705.4L356.7 711.2L353.5 717L350.5 722.8L347.5 728.5L344.7 734.3L341.9 740L339.3 745.7L336.8 751.4L334.4 757.1L332.1 762.7L329.9 768.3L327.9 773.9L326 779.4L324.1 784.9L322.4 790.3L320.8 795.7L319.3 801.1L318 806.4L316.7 811.6L315.6 816.8L314.5 822L313.6 827L312.8 832L312.1 837L311.5 841.8L311 846.6L310.6 851.3L310.4 856L310.2 860.6L310.1 865L310.2 869.4L310.3 873.7L310.6 877.9L310.9 882.1L311.4 886.1L311.9 890L312.5 893.9L313.3 897.6L314.1 901.2L315 904.8L316 908.2L317.1 911.5L318.3 914.7L319.6 917.8L320.9 920.7L322.3 923.6L323.8 926.3L325.4 928.9L327.1 931.4L328.8 933.8L330.6 936L332.5 938.2L334.4 940.2L336.4 942L338.5 943.8L340.6 945.4L342.8 946.8L345 948.2L347.3 949.4L349.6 950.4L352 951.3L354.4 952.1L356.9 952.8L359.4 953.3L362 953.7L364.6 953.9L367.2 954L369.9 953.9L372.6 953.8L375.3 953.4L378 952.9L380.8 952.3L383.5 951.6L386.3 950.7L389.1 949.6L392 948.4L394.8 947.1L397.6 945.6L400.4 944L403.3 942.3L406.1 940.4L408.9 938.3L411.8 936.2L414.6 933.9L417.4 931.4L420.2 928.8L422.9 926.1L425.7 923.2L428.4 920.2L431.1 917.1L433.8 913.8L436.4 910.4L439.1 906.9L441.6 903.2L444.2 899.4L446.7 895.5L449.2 891.5L451.6 887.3L454 883L456.3 878.6L458.6 874.1L460.8 869.4L463 864.7L465.1 859.8L467.2 854.8L469.2 849.7L471.1 844.5L473 839.2L474.8 833.8L476.6 828.3L478.3 822.7L479.9 817L481.4 811.2L482.9 805.3L484.3 799.3L485.6 793.2L486.8 787L488 780.8L489.1 774.5L490 768.1L491 761.6L491.8 755L492.5 748.4L493.2 741.7L493.7 735L494.2 728.1L494.6 721.3L494.9 714.3L495.1 707.4L495.2 700.3L495.2 693.2L495.1 686.1L494.9 678.9L494.7 671.7L494.3 664.5L493.9 657.2L493.3 649.9L492.7 642.6L491.9 635.2L491.1 627.9L490.1 620.5L489.1 613L488 605.6L486.7 598.2L485.4 590.8L484 583.3L482.5 575.9L480.9 568.4L479.2 561L477.4 553.6L475.5 546.2L473.5 538.8L471.4 531.4L469.2 524.1L467 516.7L464.6 509.4L462.2 502.1L459.7 494.9L457.1 487.7L454.4 480.5L451.6 473.4L448.7 466.3L445.8 459.3L442.7 452.3L439.6 445.4L436.4 438.5L433.2 431.7L429.8 424.9L426.4 418.2L422.9 411.6L419.4 405L415.8 398.5L412.1 392.1L408.3 385.7L404.5 379.4L400.6 373.2L396.7 367.1L392.7 361.1L388.6 355.2L384.5 349.3L380.4 343.5L376.2 337.9L371.9 332.3L367.7 326.8L363.3 321.4L359 316.1L354.6 311L350.1 305.9L345.6 300.9L341.1 296L336.6 291.3L332 286.6L327.5 282.1L322.9 277.6L318.3 273.3L313.6 269.1L309 265L304.3 261.1L299.7 257.2L295 253.5L290.4 249.9L285.7 246.4L281.1 243L276.4 239.8L271.8 236.6L267.1 233.6L262.5 230.8L257.9 228L253.4 225.4L248.8 222.9L244.3 220.5L239.8 218.2L235.3 216.1L230.9 214.1L226.5 212.2L222.2 210.5L217.9 208.8L213.6 207.3L209.4 206L205.2 204.7L201.1 203.6L197 202.6L193 201.7L189.1 200.9L185.2 200.3L181.4 199.8L177.7 199.4L174 199.1L170.4 198.9L166.9 198.9L163.4 199L160.1 199.2L156.8 199.5L153.6 199.9L150.5 200.4L147.5 201.1L144.5 201.8L141.7 202.7L139 203.6L136.3 204.7L133.8 205.9L131.3 207.2L129 208.5L126.8 210L124.6 211.6L122.6 213.2L120.7 215L118.9 216.9L117.3 218.8L115.7 220.8L114.3 222.9L112.9 225.1L111.7 227.4L110.6 229.8L109.7 232.2L108.9 234.7L108.1 237.3L107.6 239.9L107.1 242.6L106.8 245.4L106.6 248.3L106.5 251.2L106.6 254.1L106.8 257.2L107.1 260.2L107.5 263.3L108.1 266.5L108.9 269.7L109.7 273L110.7 276.3L111.8 279.6L113.1 283L114.5 286.4L116 289.9L117.7 293.3L119.5 296.8L121.5 300.3L123.5 303.8L125.8 307.4L128.1 311L130.6 314.5L133.2 318.1L136 321.7L138.8 325.3L141.8 328.9L145 332.5L148.3 336.1L151.7 339.7L155.2 343.3L158.9 346.8L162.7 350.4L166.6 353.9L170.6 357.4L174.8 360.9L179.1 364.4L183.5 367.8L188 371.2L192.7 374.6L197.4 378L202.3 381.3L207.3 384.6L212.4 387.8L217.6 391L222.9 394.2L228.4 397.3L233.9 400.3L239.5 403.3L245.3 406.3L251.1 409.2L257 412L263.1 414.8L269.2 417.5L275.4 420.1L281.7 422.7L288 425.2L294.5 427.7L301 430.1L307.7 432.4L314.4 434.6L321.1 436.8L328 438.9L334.9 440.9L341.8 442.8L348.9 444.7L356 446.5L363.1 448.1L370.3 449.8L377.6 451.3L384.9 452.7L392.2 454.1L399.6 455.3L407 456.5L414.5 457.6L422 458.6L429.5 459.5L437.1 460.3L444.6 461L452.3 461.6L459.9 462.2L467.5 462.6L475.2 463L482.8 463.2L490.5 463.4L498.2 463.5L505.8 463.4L513.5 463.3L521.2 463.1L528.8 462.8L536.5 462.4L544.1 461.9L551.7 461.3L559.3 460.6L566.9 459.9L574.4 459L581.9 458.1L589.4 457L596.9 455.9L604.3 454.7L611.6 453.4L619 452L626.2 450.5L633.5 448.9L640.6 447.3L647.8 445.5L654.8 443.7L661.8 441.8L668.7 439.9L675.6 437.8L682.4 435.7L689.1 433.5L695.8 431.2L702.4 428.8L708.9 426.4L715.3 423.9L721.6 421.4L727.9 418.8L734 416.1L740.1 413.3L746.1 410.5L752 407.6L757.7 404.7L763.4 401.7L769 398.7L774.5 395.6L779.9 392.5L785.1 389.3L790.3 386.1L795.3 382.9L800.3 379.6L805.1 376.2L809.8 372.9L814.4 369.5L818.8 366L823.2 362.6L827.4 359.1L831.5 355.6L835.5 352.1L839.3 348.5L843.1 345L846.6 341.4L850.1 337.8L853.5 334.2L856.7 330.6L859.7 327L862.7 323.4L865.5 319.8L868.2 316.2L870.7 312.7L873.1 309.1L875.4 305.5L877.6 302L879.6 298.5L881.4 295L883.2 291.5L884.8 288.1L886.2 284.6L887.6 281.2L888.8 277.9L889.8 274.6L890.8 271.3L891.5 268L892.2 264.9L892.7 261.7L893.1 258.6L893.4 255.6L893.5 252.6L893.5 249.6L893.3 246.8L893.1 244L892.7 241.2L892.2 238.5L891.5 235.9L890.7 233.4L889.8 230.9L888.8 228.5L887.7 226.2L886.4 224L885 221.8L883.5 219.8L881.9 217.8L880.1 215.9L878.3 214.1L876.3 212.4L874.3 210.7L872.1 209.2L869.8 207.8L867.4 206.5L864.9 205.3L862.3 204.1L859.6 203.1L856.8 202.2L853.9 201.4L851 200.7L847.9 200.1L844.7 199.6L841.5 199.3L838.2 199L834.8 198.9L831.3 198.9L827.7 199L824.1 199.2L820.4 199.6L816.6 200L812.8 200.6L808.8 201.3L804.9 202.1L800.8 203.1L796.8 204.1L792.6 205.3L788.4 206.7L784.2 208.1L779.9 209.7L775.6 211.4L771.2 213.2L766.8 215.1L762.3 217.2L757.9 219.4L753.3 221.7L748.8 224.2L744.2 226.7L739.7 229.4L735.1 232.2L730.4 235.2L725.8 238.3L721.2 241.4L716.5 244.8L711.9 248.2L707.2 251.8L702.5 255.4L697.9 259.2L693.2 263.1L688.6 267.2L683.9 271.3L679.3 275.6L674.7 279.9L670.1 284.4L665.6 289L661 293.7L656.5 298.6L652 303.5L647.6 308.5L643.1 313.7L638.8 318.9L634.4 324.2L630.1 329.7L625.8 335.2L621.6 340.8L617.4 346.5L613.3 352.4L609.2 358.3L605.2 364.2L601.3 370.3L597.3 376.5L593.5 382.7L589.7 389L586 395.4L582.3 401.9L578.8 408.4L575.2 415L571.8 421.7L568.4 428.4L565.1 435.2L561.9 442.1L558.7 449L555.7 455.9L552.7 462.9L549.8 470L547 477.1L544.2 484.3L541.6 491.5L539 498.7L536.5 505.9L534.1 513.2L531.8 520.5L529.6 527.9L527.5 535.3L525.5 542.6L523.5 550L521.7 557.5L519.9 564.9L518.3 572.3L516.7 579.8L515.3 587.2L513.9 594.6L512.6 602.1L511.4 609.5L510.4 616.9L509.4 624.3L508.5 631.7L507.7 639.1L507 646.4L506.4 653.7L505.9 661L505.5 668.3L505.2 675.5L505 682.7L504.8 689.8L504.8 696.9L504.9 704L505 711L505.3 718L505.6 724.9L506 731.7L506.6 738.5L507.2 745.2L507.9 751.9L508.6 758.5L509.5 765L510.5 771.4L511.5 777.8L512.6 784.1L513.8 790.3L515.1 796.4L516.4 802.4L517.9 808.3L519.4 814.2L520.9 820L522.6 825.6L524.3 831.2L526.1 836.6L527.9 842L529.9 847.3L531.8 852.4L533.9 857.4L536 862.4L538.1 867.2L540.3 871.9L542.6 876.5L544.9 880.9L547.3 885.3L549.7 889.5L552.1 893.6L554.6 897.6L557.1 901.4L559.7 905.1L562.3 908.7L564.9 912.2L567.6 915.5L570.3 918.7L573 921.8L575.7 924.7L578.5 927.5L581.3 930.2L584.1 932.7L586.9 935.1L589.7 937.3L592.5 939.4L595.4 941.4L598.2 943.2L601 944.9L603.9 946.4L606.7 947.8L609.5 949.1L612.3 950.2L615.1 951.2L617.9 952L620.7 952.7L623.4 953.2L626.1 953.6L628.8 953.9L631.5 954L634.2 954L636.8 953.8L639.3 953.5L641.9 953L644.4 952.5L646.8 951.7L649.2 950.9L651.6 949.9L653.9 948.7L656.2 947.5L658.4 946.1L660.5 944.5L662.6 942.9L664.6 941.1L666.6 939.1L668.5 937.1L670.3 934.9L672.1 932.6L673.8 930.1L675.4 927.6L677 924.9L678.4 922.1L679.8 919.2L681.1 916.2L682.3 913L683.5 909.8L684.5 906.4L685.5 902.9L686.3 899.4L687.1 895.7L687.8 891.9L688.4 888L688.9 884L689.3 879.9L689.6 875.8L689.8 871.5L689.9 867.1L689.8 862.7L689.7 858.2L689.5 853.6L689.2 848.9L688.7 844.1L688.2 839.3L687.6 834.4L686.8 829.4L685.9 824.4L684.9 819.3L683.9 814.1L682.7 808.9L681.3 803.6L679.9 798.3L678.4 792.9L676.7 787.5L674.9 782L673 776.5L671 771L668.9 765.4L666.7 759.8L664.4 754.1L661.9 748.4L659.3 742.7L656.7 737L653.9 731.3L651 725.5L647.9 719.7L644.8 714L641.6 708.2L638.2 702.4L634.8 696.6L631.2 690.8L627.5 685L623.7 679.2L619.8 673.5L615.8 667.7L611.7 661.9L607.5 656.2L603.2 650.5L598.8 644.8L594.3 639.2L589.7 633.5L585 627.9L580.2 622.4L575.4 616.8L570.4 611.3L565.3 605.9L560.2 600.5L554.9 595.1L549.6 589.8L544.2 584.5L538.7 579.3L533.2 574.2L527.5 569.1L521.8 564L516 559.1L510.2 554.1L504.3 549.3L498.3 544.5L492.2 539.8L486.1 535.2L479.9 530.6L473.7 526.1L467.5 521.7L461.1 517.4L454.8 513.1L448.3 508.9L441.9 504.9L435.4 500.9L428.8 496.9L422.2 493.1L415.6 489.4L409 485.7L402.3 482.2L395.6 478.7L388.9 475.3L382.2 472.1L375.5 468.9L368.7 465.8L361.9 462.8L355.2 460L348.4 457.2L341.6 454.5L334.8 451.9L328.1 449.4L321.3 447.1L314.6 444.8L307.8 442.6L301.1 440.6L294.4 438.6L287.7 436.7L281.1 435L274.4 433.3L267.8 431.8L261.3 430.3L254.7 429L248.3 427.7L241.8 426.6L235.4 425.6L229.1 424.6L222.8 423.8L216.5 423.1L210.4 422.5L204.2 421.9L198.2 421.5L192.2 421.2L186.2 420.9L180.4 420.8L174.6 420.8L168.9 420.8L163.3 421L157.7 421.2L152.3 421.6L146.9 422L141.6 422.5L136.4 423.1L131.3 423.8L126.3 424.6L121.4 425.4L116.6 426.4L111.9 427.4L107.2 428.5L102.8 429.7L98.4 430.9L94.1 432.3L89.9 433.7L85.9 435.1L81.9 436.7L78.1 438.3L74.4 439.9L70.9 441.7L67.4 443.5L64.1 445.3L60.9 447.2L57.8 449.2L54.9 451.2L52.1 453.3L49.4 455.4L46.9 457.5L44.5 459.7L42.2 462L40.1 464.2L38.1 466.6L36.2 468.9L34.5 471.3L32.9 473.7L31.5 476.1L30.2 478.6L29 481.1L28 483.5L27.2 486.1L26.5 488.6L25.9 491.1L25.4 493.7L25.2 496.2L25 498.8L25 501.3L25.2 503.9L25.5 506.4L25.9 509L26.5 511.5L27.2 514.1L28.1 516.6L29.1 519.1L30.2 521.5L31.5 524L33 526.4L34.6 528.8L36.3 531.2L38.2 533.5L40.2 535.9L42.3 538.1L44.6 540.4L47 542.6L49.5 544.7L52.2 546.8L55 548.9L58 550.9L61 552.9L64.2 554.8L67.6 556.6L71 558.4L74.6 560.1L78.3 561.8L82.1 563.4L86.1 564.9L90.1 566.4L94.3 567.8L98.6 569.1L103 570.4L107.5 571.6L112.1 572.7L116.8 573.7L121.6 574.6L126.5 575.5L131.5 576.2L136.6 576.9L141.8 577.5L147.1 578L152.5 578.5L158 578.8L163.5 579L169.2 579.2L174.9 579.2L180.7 579.2L186.5 579L192.4 578.8L198.4 578.5L204.5 578L210.6 577.5L216.8 576.9L223.1 576.2L229.4 575.3L235.7 574.4L242.1 573.3L248.5 572.2L255 571L261.6 569.6L268.1 568.2L274.7 566.6L281.3 565L288 563.2L294.7 561.3L301.4 559.4L308.1 557.3L314.9 555.1L321.6 552.8L328.4 550.4L335.1 548L341.9 545.4L348.7 542.7L355.5 539.9L362.2 537L369 534L375.8 531L382.5 527.8L389.2 524.5L395.9 521.1L402.6 517.7L409.3 514.1L415.9 510.5L422.5 506.7L429.1 502.9L435.7 499L442.2 495L448.6 490.9L455 486.7L461.4 482.4L467.7 478.1L474 473.7L480.2 469.2L486.4 464.6L492.5 460L498.5 455.3L504.5 450.5L510.4 445.6L516.3 440.7L522.1 435.7L527.8 430.7L533.4 425.6L539 420.4L544.4 415.2L549.8 410L555.2 404.6L560.4 399.3L565.5 393.9L570.6 388.4L575.6 382.9L580.4 377.4L585.2 371.8L589.9 366.2L594.5 360.6L599 354.9L603.4 349.2L607.7 343.5L611.9 337.8L616 332L620 326.3L623.9 320.5L627.7 314.7L631.3 308.9L634.9 303.1L638.4 297.4L641.7 291.6L644.9 285.8L648.1 280L651.1 274.2L654 268.5L656.8 262.7L659.5 257L662 251.3L664.5 245.6L666.8 240L669 234.4L671.1 228.8L673.1 223.2L675 217.7L676.8 212.3L678.4 206.8L680 201.5L681.4 196.1L682.7 190.9L683.9 185.6L685 180.5L686 175.4L686.8 170.4L687.6 165.4L688.2 160.5L688.8 155.7L689.2 150.9L689.5 146.2L689.7 141.6L689.8 137.1L689.8 132.7L689.8 128.3L689.6 124.1L689.3 119.9L688.9 115.8L688.4 111.8L687.8 107.9L687.1 104.2L686.3 100.5L685.4 96.9L684.5 93.4L683.4 90.1L682.3 86.8L681.1 83.7L679.7 80.7L678.4 77.8L676.9 75L675.3 72.3L673.7 69.7L672 67.3L670.3 65L668.4 62.8L666.5 60.8L664.6 58.9L662.5 57.1L660.4 55.4L658.3 53.9L656.1 52.5L653.8 51.2L651.5 50.1L649.1 49.1L646.7 48.2L644.3 47.5L641.8 46.9L639.2 46.5L636.7 46.2L634 46L631.4 46L628.7 46.1L626 46.4L623.3 46.8L620.6 47.4L617.8 48L615 48.9L612.2 49.9L609.4 51L606.6 52.2L603.7 53.6L600.9 55.2L598.1 56.9L595.2 58.7L592.4 60.7L589.6 62.8L586.8 65L584 67.4L581.2 69.9L578.4 72.6L575.6 75.4L572.9 78.3L570.2 81.4L567.5 84.6L564.8 87.9L562.2 91.4L559.6 95L557 98.7L554.5 102.6L552 106.6L549.6 110.7L547.2 114.9L544.8 119.3L542.5 123.7L540.2 128.3L538 133L535.9 137.8L533.8 142.8L531.7 147.8L529.8 153L527.9 158.2L526 163.6L524.2 169.1L522.5 174.6L520.9 180.3L519.3 186.1L517.8 191.9L516.4 197.9L515 203.9L513.8 210L512.6 216.2L511.4 222.5L510.4 228.9L509.5 235.3L508.6 241.8L507.8 248.4L507.1 255.1L506.5 261.8L506 268.6L505.6 275.4L505.3 282.3L505 289.3L504.9 296.3L504.8 303.4L504.8 310.5L505 317.6L505.2 324.8L505.5 332L505.9 339.3L506.4 346.6L507 353.9L507.7 361.3L508.5 368.6L509.4 376L510.4 383.4L511.5 390.8L512.7 398.3L513.9 405.7L515.3 413.1L516.8 420.6L518.3 428L520 435.4L521.8 442.9L523.6 450.3L525.5 457.7L527.6 465.1L529.7 472.4L531.9 479.8L534.2 487.1L536.6 494.4L539.1 501.6L541.7 508.9L544.3 516.1L547.1 523.2L549.9 530.3L552.8 537.4L555.8 544.4L558.9 551.3L562 558.2L565.3 565.1L568.6 571.9L571.9 578.6L575.4 585.3L578.9 591.9L582.5 598.4L586.2 604.9L589.9 611.3L593.7 617.6L597.5 623.8L601.4 630L605.4 636L609.4 642L613.5 647.9L617.6 653.7L621.8 659.4L626 665.1L630.3 670.6L634.6 676L638.9 681.3L643.3 686.6L647.8 691.7L652.2 696.7L656.7 701.7L661.2 706.5L665.8 711.2L670.3 715.8L674.9 720.2L679.5 724.6L684.2 728.9L688.8 733L693.4 737L698.1 740.9L702.7 744.7L707.4 748.4L712.1 752L716.7 755.4L721.4 758.7L726 761.9L730.6 764.9L735.3 767.9L739.9 770.7L744.4 773.4L749 776L753.5 778.4L758 780.7L762.5 782.9L767 785L771.4 786.9L775.8 788.7L780.1 790.4L784.4 792L788.6 793.4L792.8 794.7L796.9 795.9L801 797L805.1 797.9L809 798.7L812.9 799.4L816.8 800L820.5 800.5L824.2 800.8L827.9 801L831.4 801.1L834.9 801.1L838.3 800.9L841.6 800.7L844.9 800.3L848 799.9L851.1 799.3L854.1 798.6L857 797.8L859.7 796.8L862.4 795.8L865 794.7L867.5 793.5L869.9 792.1L872.2 790.7L874.4 789.2L876.4 787.6L878.4 785.8L880.2 784L881.9 782.1L883.6 780.2L885.1 778.1L886.4 775.9L887.7 773.7L888.9 771.4L889.9 769L890.8 766.5L891.5 764L892.2 761.3L892.7 758.7L893.1 755.9L893.4 753.1L893.5 750.2L893.5 747.3L893.4 744.3L893.1 741.2L892.7 738.2L892.2 735L891.5 731.8L890.7 728.6L889.8 725.3L888.7 722L887.5 718.6L886.2 715.2L884.7 711.8L883.1 708.3L881.4 704.9L879.5 701.4L877.5 697.8L875.3 694.3L873 690.7L870.6 687.2L868.1 683.6L865.4 680L862.6 676.4L859.6 672.8L856.5 669.2L853.3 665.6L850 662L846.5 658.5L842.9 654.9L839.2 651.3L835.3 647.8L831.3 644.3L827.2 640.8L823 637.3L818.6 633.8L814.2 630.4L809.6 627L804.9 623.6L800 620.3L795.1 617L790.1 613.7L784.9 610.5L779.6 607.3L774.2 604.2L768.8 601.1L763.2 598.1L757.5 595.1L751.7 592.2L745.8 589.4L739.8 586.6L733.8 583.8L727.6 581.1L721.4 578.5L715 576L708.6 573.5L702.1 571L695.5 568.7L688.8 566.4L682.1 564.2L675.3 562.1L668.4 560.1L661.5 558.1L654.5 556.2L647.4 554.4L640.3 552.6L633.1 551L625.9 549.4L618.6 548L611.3 546.6L603.9 545.3L596.5 544.1L589.1 542.9L581.6 541.9L574.1 540.9L566.5 540.1L559 539.3L551.4 538.6L543.8 538.1L536.1 537.6L528.5 537.2L520.8 536.9L513.2 536.7L505.5 536.6L497.8 536.5L490.2 536.6L482.5 536.8L474.8 537L467.2 537.4L459.5 537.8L451.9 538.4L444.3 539L436.7 539.7L429.2 540.6L421.6 541.5L414.1 542.5L406.7 543.6L399.3 544.7L391.9 546L384.5 547.3L377.2 548.8L370 550.3L362.8 551.9L355.6 553.6L348.5 555.4L341.5 557.2L334.6 559.2L327.7 561.2L320.8 563.3L314.1 565.5L307.4 567.7L300.8 570L294.2 572.4L287.8 574.9L281.4 577.4L275.1 580L268.9 582.6L262.8 585.4L256.8 588.1L250.8 591L245 593.9L239.3 596.8L233.6 599.8L228.1 602.9L222.7 606L217.4 609.1L212.2 612.3L207.1 615.6L202.1 618.9L197.2 622.2L192.5 625.5L187.8 628.9L183.3 632.3L178.9 635.8L174.6 639.2L170.4 642.7L166.4 646.3L162.5 649.8L158.7 653.3L155.1 656.9L151.5 660.5L148.1 664.1L144.9 667.7L141.7 671.3L138.7 674.9L135.8 678.4L133.1 682L130.5 685.6L128 689.2L125.7 692.8L123.4 696.3L121.4 699.8L119.4 703.4L117.6 706.8L116 710.3L114.4 713.7L113 717.1L111.8 720.5L110.7 723.9L109.7 727.2L108.8 730.4L108.1 733.6L107.5 736.8L107.1 739.9L106.7 743L106.6 746L106.5 749L106.6 751.9L106.8 754.7L107.1 757.5L107.6 760.2L108.2 762.8L108.9 765.4L109.7 767.9L110.7 770.3L111.8 772.7L113 775L114.3 777.2L115.8 779.3L117.3 781.3L119 783.2L120.8 785.1L122.7 786.8L124.7 788.5L126.9 790.1L129.1 791.5L131.4 792.9L133.9 794.2L136.4 795.3L139.1 796.4L141.8 797.4L144.7 798.2L147.6 799L150.6 799.6L153.7 800.1L156.9 800.6L160.2 800.9L163.6 801L167 801.1L170.6 801.1L174.2 800.9L177.8 800.6L181.6 800.2L185.4 799.7L189.3 799L193.2 798.3L197.2 797.4L201.3 796.4L205.4 795.2L209.6 794L213.8 792.6L218.1 791.1L222.4 789.5L226.7 787.7L231.1 785.8L235.5 783.8L240 781.7L244.5 779.4L249 777L253.6 774.5L258.1 771.9L262.7 769.1L267.4 766.2L272 763.2L276.6 760.1L281.3 756.8L285.9 753.5L290.6 750L295.2 746.3L299.9 742.6L304.6 738.7L309.2 734.8L313.8 730.7L318.5 726.5L323.1 722.2L327.7 717.7L332.3 713.2L336.8 708.5L341.3 703.8L345.8 698.9L350.3 693.9L354.7 688.8L359.2 683.6L363.5 678.3L367.9 673L372.1 667.5L376.4 661.9L380.6 656.2L384.7 650.4L388.8 644.6L392.9 638.6L396.9 632.6L400.8 626.5L404.7 620.3L408.5 614L412.2 607.7L415.9 601.2L419.5 594.7L423.1 588.2L426.6 581.5L430 574.8L433.3 568L436.6 561.2L439.8 554.3L442.9 547.4L445.9 540.4L448.8 533.4L451.7 526.3L454.5 519.2L457.2 512L459.8 504.8L462.3 497.5L464.7 490.3L467.1 483L469.3 475.6L471.5 468.3L473.6 460.9L475.6 453.5L477.5 446.1L479.2 438.7L480.9 431.2L482.6 423.8L484.1 416.4L485.5 408.9L486.8 401.5L488 394L489.1 386.6L490.2 379.2L491.1 371.8L491.9 364.4L492.7 357.1L493.3 349.8L493.9 342.5L494.3 335.2L494.7 327.9L495 320.7L495.1 313.6L495.2 306.4L495.2 299.4L495.1 292.3L494.9 285.4L494.6 278.4L494.2 271.6L493.7 264.7L493.1 258L492.5 251.3L491.7 244.7L490.9 238.1L490 231.7L489 225.3L487.9 218.9L486.8 212.7L485.5 206.5L484.2 200.5L482.8 194.5L481.4 188.6L479.8 182.8L478.2 177.1L476.5 171.5L474.8 166L472.9 160.5L471.1 155.2L469.1 150L467.1 145L465 140L462.9 135.1L460.7 130.3L458.5 125.7L456.2 121.2L453.9 116.8L451.5 112.5L449.1 108.3L446.6 104.3L444.1 100.4L441.5 96.6L438.9 93L436.3 89.4L433.7 86L431 82.8L428.3 79.7L425.6 76.7L422.8 73.8L420 71.1L417.3 68.5L414.5 66L411.6 63.7L408.8 61.6L406 59.5L403.2 57.6L400.3 55.9L397.5 54.3L394.7 52.8L391.8 51.5L389 50.3L386.2 49.3L383.4 48.4L380.6 47.6L377.9 47L375.2 46.6L372.4 46.2L369.8 46L367.1 46L364.5 46.1L361.9 46.3L359.3 46.7L356.8 47.2L354.3 47.9L351.9 48.7L349.5 49.6L347.2 50.7L344.9 51.9L342.7 53.2L340.5 54.7L338.4 56.3L336.3 58.1L334.3 59.9L332.4 61.9L330.5 64.1L328.7 66.3L327 68.7L325.3 71.2L323.8 73.8L322.3 76.5L320.8 79.4L319.5 82.4L318.2 85.5L317.1 88.7L316 92L315 95.4L314.1 98.9L313.2 102.6L312.5 106.3L311.9 110.1L311.3 114.1L310.9 118.1L310.6 122.2L310.3 126.5L310.2 130.8L310.1 135.2L310.2 139.6L310.4 144.2L310.7 148.9L311 153.6L311.5 158.4L312.1 163.2L312.8 168.2L313.6 173.2L314.6 178.3L315.6 183.4L316.8 188.6L318 193.8L319.4 199.2L320.9 204.5L322.5 209.9L324.2 215.4L326 220.8L328 226.4L330 231.9L332.2 237.6L334.5 243.2L336.9 248.8L339.4 254.5L342 260.2L344.8 266L347.6 271.7L350.6 277.5L353.7 283.3L356.9 289.1L360.2 294.8L363.6 300.6L367.1 306.4L370.7 312.2L374.5 318L378.3 323.8L382.2 329.6L386.3 335.3L390.5 341L394.7 346.8L399.1 352.5L403.5 358.1L408.1 363.8L412.7 369.4L417.5 375L422.3 380.5L427.2 386L432.3 391.5L437.4 396.9L442.6 402.3L447.8 407.7L453.2 413L458.6 418.2L464.2 423.4L469.8 428.5L475.4 433.6L481.2 438.6L487 443.5L492.9 448.4L498.9 453.2L504.9 458L511 462.6L517.1 467.2L523.3 471.8L529.5 476.2L535.8 480.6L542.2 484.9L548.6 489.1L555 493.2L561.5 497.2L568 501.2L574.6 505.1L581.2 508.9L587.8 512.5L594.5 516.1L601.2 519.6L607.9 523.1L614.6 526.4L621.3 529.6L628.1 532.7L634.8 535.7L641.6 538.7L648.4 541.5L655.1 544.2L661.9 546.9L668.7 549.4L675.5 551.8L682.2 554.1L689 556.4L695.7 558.5L702.4 560.5L709.1 562.4L715.8 564.2L722.4 565.9L729 567.5L735.6 569L742.1 570.4L748.6 571.7L755.1 572.9L761.5 573.9L767.9 574.9L774.2 575.8L780.5 576.6L786.7 577.3L792.8 577.8L798.9 578.3L805 578.7L810.9 579L816.8 579.1L822.6 579.2L828.4 579.2L834 579.1L839.6 578.9L845.1 578.6L850.6 578.2L855.9 577.8L861.1 577.2L866.3 576.5L871.3 575.8L876.3 575L881.2 574.1L885.9 573.1L890.6 572L895.1 570.9L899.6 569.7L903.9 568.4L908.1 567L912.2 565.6L916.2 564.1L920.1 562.5L923.8 560.9L927.4 559.2L930.9 557.4L934.3 555.6L937.6 553.7L940.7 551.8L943.7 549.8L946.6 547.7L949.3 545.6L951.9 543.5L954.4 541.3L956.7 539.1L958.9 536.9L961 534.6L962.9 532.2L964.7 529.9L966.3 527.5L967.8 525L969.2 522.6L970.4 520.1L971.5 517.6L972.4 515.1L973.2 512.6L973.9 510.1L974.4 507.5L974.7 505L974.9 502.4L975 499.9" opacity="0.12"/></g></svg>