<svg xmlns="http://www.w3.org/2000/svg" viewBox="0 0 1000 1000" preserveAspectRatio="xMidYMid slice" fill="none" stroke-linecap="round" stroke-linejoin="round"><g stroke="#0f3d2e" stroke-width="0.5"><line x1="500" y1="25" x2="500" y2="25" opacity="0.1"/><line x1="514.9" y1="25.2" x2="875.3" y2="208.9" opacity="0.1"/><line x1="529.8" y1="25.9" x2="960.1" y2="618.1" opacity="0.1"/><line x1="544.7" y1="27.1" x2="688.6" y2="935.9" opacity="0.1"/><line x1="559.5" y1="28.7" x2="271.2" y2="916.2" opacity="0.1"/><line x1="574.3" y1="30.8" x2="30.8" y2="574.3" opacity="0.1"/><line x1="589" y1="33.4" x2="153.7" y2="174.8" opacity="0.1"/><line x1="603.6" y1="36.4" x2="544.7" y2="27.1" opacity="0.1"/><line x1="618.1" y1="39.9" x2="901.1" y2="245.5" opacity="0.1"/><line x1="632.5" y1="43.9" x2="946.9" y2="660.9" opacity="0.1"/><line x1="646.8" y1="48.2" x2="646.8" y2="951.8" opacity="0.1"/><line x1="660.9" y1="53.1" x2="233" y2="892.9" opacity="0.1"/><line x1="674.9" y1="58.4" x2="25.9" y2="529.8" opacity="0.1"/><line x1="688.6" y1="64.1" x2="185.9" y2="143.7" opacity="0.1"/><line x1="702.2" y1="70.2" x2="589" y2="33.4" opacity="0.1"/><line x1="715.6" y1="76.8" x2="923.2" y2="284.4" opacity="0.1"/><line x1="728.8" y1="83.8" x2="929.8" y2="702.2" opacity="0.1"/><line x1="741.8" y1="91.1" x2="603.6" y2="963.6" opacity="0.1"/><line x1="754.5" y1="98.9" x2="197.2" y2="866" opacity="0.1"/><line x1="767" y1="107.1" x2="25.2" y2="485.1" opacity="0.1"/><line x1="779.2" y1="115.7" x2="220.8" y2="115.7" opacity="0.1"/><line x1="791.1" y1="124.7" x2="632.5" y2="43.9" opacity="0.1"/><line x1="802.8" y1="134" x2="941.6" y2="325.1" opacity="0.1"/><line x1="814.1" y1="143.7" x2="908.9" y2="741.8" opacity="0.1"/><line x1="825.2" y1="153.7" x2="559.5" y2="971.3" opacity="0.1"/><line x1="835.9" y1="164.1" x2="164.1" y2="835.9" opacity="0.1"/><line x1="846.3" y1="174.8" x2="28.7" y2="440.5" opacity="0.1"/><line x1="856.3" y1="185.9" x2="258.2" y2="91.1" opacity="0.1"/><line x1="866" y1="197.2" x2="674.9" y2="58.4" opacity="0.1"/><line x1="875.3" y1="208.9" x2="956.1" y2="367.5" opacity="0.1"/><line x1="884.3" y1="220.8" x2="884.3" y2="779.2" opacity="0.1"/><line x1="892.9" y1="233" x2="514.9" y2="974.8" opacity="0.1"/><line x1="901.1" y1="245.5" x2="134" y2="802.8" opacity="0.1"/><line x1="908.9" y1="258.2" x2="36.4" y2="396.4" opacity="0.1"/><line x1="916.2" y1="271.2" x2="297.8" y2="70.2" opacity="0.1"/><line x1="923.2" y1="284.4" x2="715.6" y2="76.8" opacity="0.1"/><line x1="929.8" y1="297.8" x2="966.6" y2="411" opacity="0.1"/><line x1="935.9" y1="311.4" x2="856.3" y2="814.1" opacity="0.1"/><line x1="941.6" y1="325.1" x2="470.2" y2="974.1" opacity="0.1"/><line x1="946.9" y1="339.1" x2="107.1" y2="767" opacity="0.1"/><line x1="951.8" y1="353.2" x2="48.2" y2="353.2" opacity="0.1"/><line x1="956.1" y1="367.5" x2="339.1" y2="53.1" opacity="0.1"/><line x1="960.1" y1="381.9" x2="754.5" y2="98.9" opacity="0.1"/><line x1="963.6" y1="396.4" x2="972.9" y2="455.3" opacity="0.1"/><line x1="966.6" y1="411" x2="825.2" y2="846.3" opacity="0.1"/><line x1="969.2" y1="425.7" x2="425.7" y2="969.2" opacity="0.1"/><line x1="971.3" y1="440.5" x2="83.8" y2="728.8" opacity="0.1"/><line x1="972.9" y1="455.3" x2="64.1" y2="311.4" opacity="0.1"/><line x1="974.1" y1="470.2" x2="381.9" y2="39.9" opacity="0.1"/><line x1="974.8" y1="485.1" x2="791.1" y2="124.7" opacity="0.1"/><line x1="975" y1="500" x2="975" y2="500" opacity="0.1"/><line x1="974.8" y1="514.9" x2="791.1" y2="875.3" opacity="0.1"/><line x1="974.1" y1="529.8" x2="381.9" y2="960.1" opacity="0.1"/><line x1="972.9" y1="544.7" x2="64.1" y2="688.6" opacity="0.1"/><line x1="971.3" y1="559.5" x2="83.8" y2="271.2" opacity="0.1"/><line x1="969.2" y1="574.3" x2="425.7" y2="30.8" opacity="0.1"/><line x1="966.6" y1="589" x2="825.2" y2="153.7" opacity="0.1"/><line x1="963.6" y1="603.6" x2="972.9" y2="544.7" opacity="0.1"/><line x1="960.1" y1="618.1" x2="754.5" y2="901.1" opacity="0.1"/><line x1="956.1" y1="632.5" x2="339.1" y2="946.9" opacity="0.1"/><line x1="951.8" y1="646.8" x2="48.2" y2="646.8" opacity="0.1"/><line x1="946.9" y1="660.9" x2="107.1" y2="233" opacity="0.1"/><line x1="941.6" y1="674.9" x2="470.2" y2="25.9" opacity="0.1"/><line x1="935.9" y1="688.6" x2="856.3" y2="185.9" opacity="0.1"/><line x1="929.8" y1="702.2" x2="966.6" y2="589" opacity="0.1"/><line x1="923.2" y1="715.6" x2="715.6" y2="923.2" opacity="0.1"/><line x1="916.2" y1="728.8" x2="297.8" y2="929.8" opacity="0.1"/><line x1="908.9" y1="741.8" x2="36.4" y2="603.6" opacity="0.1"/><line x1="901.1" y1="754.5" x2="134" y2="197.2" opacity="0.1"/><line x1="892.9" y1="767" x2="514.9" y2="25.2" opacity="0.1"/><line x1="884.3" y1="779.2" x2="884.3" y2="220.8" opacity="0.1"/><line x1="875.3" y1="791.1" x2="956.1" y2="632.5" opacity="0.1"/><line x1="866" y1="802.8" x2="674.9" y2="941.6" opacity="0.1"/><line x1="856.3" y1="814.1" x2="258.2" y2="908.9" opacity="0.1"/><line x1="846.3" y1="825.2" x2="28.7" y2="559.5" opacity="0.1"/><line x1="835.9" y1="835.9" x2="164.1" y2="164.1" opacity="0.1"/><line x1="825.2" y1="846.3" x2="559.5" y2="28.7" opacity="0.1"/><line x1="814.1" y1="856.3" x2="908.9" y2="258.2" opacity="0.1"/><line x1="802.8" y1="866" x2="941.6" y2="674.9" opacity="0.1"/><line x1="791.1" y1="875.3" x2="632.5" y2="956.1" opacity="0.1"/><line x1="779.2" y1="884.3" x2="220.8" y2="884.3" opacity="0.1"/><line x1="767" y1="892.9" x2="25.2" y2="514.9" opacity="0.1"/><line x1="754.5" y1="901.1" x2="197.2" y2="134" opacity="0.1"/><line x1="741.8" y1="908.9" x2="603.6" y2="36.4" opacity="0.1"/><line x1="728.8" y1="916.2" x2="929.8" y2="297.8" opacity="0.1"/><line x1="715.6" y1="923.2" x2="923.2" y2="715.6" opacity="0.1"/><line x1="702.2" y1="929.8" x2="589" y2="966.6" opacity="0.1"/><line x1="688.6" y1="935.9" x2="185.9" y2="856.3" opacity="0.1"/><line x1="674.9" y1="941.6" x2="25.9" y2="470.2" opacity="0.1"/><line x1="660.9" y1="946.9" x2="233" y2="107.1" opacity="0.1"/><line x1="646.8" y1="951.8" x2="646.8" y2="48.2" opacity="0.1"/><line x1="632.5" y1="956.1" x2="946.9" y2="339.1" opacity="0.1"/><line x1="618.1" y1="960.1" x2="901.1" y2="754.5" opacity="0.1"/><line x1="603.6" y1="963.6" x2="544.7" y2="972.9" opacity="0.1"/><line x1="589" y1="966.6" x2="153.7" y2="825.2" opacity="0.1"/><line x1="574.3" y1="969.2" x2="30.8" y2="425.7" opacity="0.1"/><line x1="559.5" y1="971.3" x2="271.2" y2="83.8" opacity="0.1"/><line x1="544.7" y1="972.9" x2="688.6" y2="64.1" opacity="0.1"/><line x1="529.8" y1="974.1" x2="960.1" y2="381.9" opacity="0.1"/><line x1="514.9" y1="974.8" x2="875.3" y2="791.1" opacity="0.1"/><line x1="500" y1="975" x2="500" y2="975" opacity="0.1"/><line x1="485.1" y1="974.8" x2="124.7" y2="791.1" opacity="0.1"/><line x1="470.2" y1="974.1" x2="39.9" y2="381.9" opacity="0.1"/><line x1="455.3" y1="972.9" x2="311.4" y2="64.1" opacity="0.1"/><line x1="440.5" y1="971.3" x2="728.8" y2="83.8" opacity="0.1"/><line x1="425.7" y1="969.2" x2="969.2" y2="425.7" opacity="0.1"/><line x1="411" y1="966.6" x2="846.3" y2="825.2" opacity="0.1"/><line x1="396.4" y1="963.6" x2="455.3" y2="972.9" opacity="0.1"/><line x1="381.9" y1="960.1" x2="98.9" y2="754.5" opacity="0.1"/><line x1="367.5" y1="956.1" x2="53.1" y2="339.1" opacity="0.1"/><line x1="353.2" y1="951.8" x2="353.2" y2="48.2" opacity="0.1"/><line x1="339.1" y1="946.9" x2="767" y2="107.1" opacity="0.1"/><line x1="325.1" y1="941.6" x2="974.1" y2="470.2" opacity="0.1"/><line x1="311.4" y1="935.9" x2="814.1" y2="856.3" opacity="0.1"/><line x1="297.8" y1="929.8" x2="411" y2="966.6" opacity="0.1"/><line x1="284.4" y1="923.2" x2="76.8" y2="715.6" opacity="0.1"/><line x1="271.2" y1="916.2" x2="70.2" y2="297.8" opacity="0.1"/><line x1="258.2" y1="908.9" x2="396.4" y2="36.4" opacity="0.1"/><line x1="245.5" y1="901.1" x2="802.8" y2="134" opacity="0.1"/><line x1="233" y1="892.9" x2="974.8" y2="514.9" opacity="0.1"/><line x1="220.8" y1="884.3" x2="779.2" y2="884.3" opacity="0.1"/><line x1="208.9" y1="875.3" x2="367.5" y2="956.1" opacity="0.1"/><line x1="197.2" y1="866" x2="58.4" y2="674.9" opacity="0.1"/><line x1="185.9" y1="856.3" x2="91.1" y2="258.2" opacity="0.1"/><line x1="174.8" y1="846.3" x2="440.5" y2="28.7" opacity="0.1"/><line x1="164.1" y1="835.9" x2="835.9" y2="164.1" opacity="0.1"/><line x1="153.7" y1="825.2" x2="971.3" y2="559.5" opacity="0.1"/><line x1="143.7" y1="814.1" x2="741.8" y2="908.9" opacity="0.1"/><line x1="134" y1="802.8" x2="325.1" y2="941.6" opacity="0.1"/><line x1="124.7" y1="791.1" x2="43.9" y2="632.5" opacity="0.1"/><line x1="115.7" y1="779.2" x2="115.7" y2="220.8" opacity="0.1"/><line x1="107.1" y1="767" x2="485.1" y2="25.2" opacity="0.1"/><line x1="98.9" y1="754.5" x2="866" y2="197.2" opacity="0.1"/><line x1="91.1" y1="741.8" x2="963.6" y2="603.6" opacity="0.1"/><line x1="83.8" y1="728.8" x2="702.2" y2="929.8" opacity="0.1"/><line x1="76.8" y1="715.6" x2="284.4" y2="923.2" opacity="0.1"/><line x1="70.2" y1="702.2" x2="33.4" y2="589" opacity="0.1"/><line x1="64.1" y1="688.6" x2="143.7" y2="185.9" opacity="0.1"/><line x1="58.4" y1="674.9" x2="529.8" y2="25.9" opacity="0.1"/><line x1="53.1" y1="660.9" x2="892.9" y2="233" opacity="0.1"/><line x1="48.2" y1="646.8" x2="951.8" y2="646.8" opacity="0.1"/><line x1="43.9" y1="632.5" x2="660.9" y2="946.9" opacity="0.1"/><line x1="39.9" y1="618.1" x2="245.5" y2="901.1" opacity="0.1"/><line x1="36.4" y1="603.6" x2="27.1" y2="544.7" opacity="0.1"/><line x1="33.4" y1="589" x2="174.8" y2="153.7" opacity="0.1"/><line x1="30.8" y1="574.3" x2="574.3" y2="30.8" opacity="0.1"/><line x1="28.7" y1="559.5" x2="916.2" y2="271.2" opacity="0.1"/><line x1="27.1" y1="544.7" x2="935.9" y2="688.6" opacity="0.1"/><line x1="25.9" y1="529.8" x2="618.1" y2="960.1" opacity="0.1"/><line x1="25.2" y1="514.9" x2="208.9" y2="875.3" opacity="0.1"/><line x1="25" y1="500" x2="25" y2="500" opacity="0.1"/><line x1="25.2" y1="485.1" x2="208.9" y2="124.7" opacity="0.1"/><line x1="25.9" y1="470.2" x2="618.1" y2="39.9" opacity="0.1"/><line x1="27.1" y1="455.3" x2="935.9" y2="311.4" opacity="0.1"/><line x1="28.7" y1="440.5" x2="916.2" y2="728.8" opacity="0.1"/><line x1="30.8" y1="425.7" x2="574.3" y2="969.2" opacity="0.1"/><line x1="33.4" y1="411" x2="174.8" y2="846.3" opacity="0.1"/><line x1="36.4" y1="396.4" x2="27.1" y2="455.3" opacity="0.1"/><line x1="39.9" y1="381.9" x2="245.5" y2="98.9" opacity="0.1"/><line x1="43.9" y1="367.5" x2="660.9" y2="53.1" opacity="0.1"/><line x1="48.2" y1="353.2" x2="951.8" y2="353.2" opacity="0.1"/><line x1="53.1" y1="339.1" x2="892.9" y2="767" opacity="0.1"/><line x1="58.4" y1="325.1" x2="529.8" y2="974.1" opacity="0.1"/><line x1="64.1" y1="311.4" x2="143.7" y2="814.1" opacity="0.1"/><line x1="70.2" y1="297.8" x2="33.4" y2="411" opacity="0.1"/><line x1="76.8" y1="284.4" x2="284.4" y2="76.8" opacity="0.1"/><line x1="83.8" y1="271.2" x2="702.2" y2="70.2" opacity="0.1"/><line x1="91.1" y1="258.2" x2="963.6" y2="396.4" opacity="0.1"/><line x1="98.9" y1="245.5" x2="866" y2="802.8" opacity="0.1"/><line x1="107.1" y1="233" x2="485.1" y2="974.8" opacity="0.1"/><line x1="115.7" y1="220.8" x2="115.7" y2="779.2" opacity="0.1"/><line x1="124.7" y1="208.9" x2="43.9" y2="367.5" opacity="0.1"/><line x1="134" y1="197.2" x2="325.1" y2="58.4" opacity="0.1"/><line x1="143.7" y1="185.9" x2="741.8" y2="91.1" opacity="0.1"/><line x1="153.7" y1="174.8" x2="971.3" y2="440.5" opacity="0.1"/><line x1="164.1" y1="164.1" x2="835.9" y2="835.9" opacity="0.1"/><line x1="174.8" y1="153.7" x2="440.5" y2="971.3" opacity="0.1"/><line x1="185.9" y1="143.7" x2="91.1" y2="741.8" opacity="0.1"/><line x1="197.2" y1="134" x2="58.4" y2="325.1" opacity="0.1"/><line x1="208.9" y1="124.7" x2="367.5" y2="43.9" opacity="0.1"/><line x1="220.8" y1="115.7" x2="779.2" y2="115.7" opacity="0.1"/><line x1="233" y1="107.1" x2="974.8" y2="485.1" opacity="0.1"/><line x1="245.5" y1="98.9" x2="802.8" y2="866" opacity="0.1"/><line x1="258.2" y1="91.1" x2="396.4" y2="963.6" opacity="0.1"/><line x1="271.2" y1="83.8" x2="70.2" y2="702.2" opacity="0.1"/><line x1="284.4" y1="76.8" x2="76.8" y2="284.4" opacity="0.1"/><line x1="297.8" y1="70.2" x2="411" y2="33.4" opacity="0.1"/><line x1="311.4" y1="64.1" x2="814.1" y2="143.7" opacity="0.1"/><line x1="325.1" y1="58.4" x2="974.1" y2="529.8" opacity="0.1"/><line x1="339.1" y1="53.1" x2="767" y2="892.9" opacity="0.1"/><line x1="353.2" y1="48.2" x2="353.2" y2="951.8" opacity="0.1"/><line x1="367.5" y1="43.9" x2="53.1" y2="660.9" opacity="0.1"/><line x1="381.9" y1="39.9" x2="98.9" y2="245.5" opacity="0.1"/><line x1="396.4" y1="36.4" x2="455.3" y2="27.1" opacity="0.1"/><line x1="411" y1="33.4" x2="846.3" y2="174.8" opacity="0.1"/><line x1="425.7" y1="30.8" x2="969.2" y2="574.3" opacity="0.1"/><line x1="440.5" y1="28.7" x2="728.8" y2="916.2" opacity="0.1"/><line x1="455.3" y1="27.1" x2="311.4" y2="935.9" opacity="0.1"/><line x1="470.2" y1="25.9" x2="39.9" y2="618.1" opacity="0.1"/><line x1="485.1" y1="25.2" x2="124.7" y2="208.9" opacity="0.1"/></g></svg>