<svg xmlns="http://www.w3.org/2000/svg" viewBox="0 0 1000 1000" preserveAspectRatio="xMidYMid slice" fill="none" stroke-linecap="round" stroke-linejoin="round"><g stroke="#0f3d2e" stroke-width="0.5"><line x1="500" y1="25" x2="500" y2="25" opacity="0.1"/><line x1="509.9" y1="25.1" x2="916.2" y2="271.2" opacity="0.1"/><line x1="519.9" y1="25.4" x2="901.1" y2="754.5" opacity="0.1"/><line x1="529.8" y1="25.9" x2="470.2" y2="974.1" opacity="0.1"/><line x1="539.7" y1="26.7" x2="70.2" y2="702.2" opacity="0.1"/><line x1="549.7" y1="27.6" x2="115.7" y2="220.8" opacity="0.1"/><line x1="559.5" y1="28.7" x2="559.5" y2="28.7" opacity="0.1"/><line x1="569.4" y1="30.1" x2="941.6" y2="325.1" opacity="0.1"/><line x1="579.2" y1="31.7" x2="866" y2="802.8" opacity="0.1"/><line x1="589" y1="33.4" x2="411" y2="966.6" opacity="0.1"/><line x1="598.8" y1="35.4" x2="48.2" y2="646.8" opacity="0.1"/><line x1="608.5" y1="37.6" x2="153.7" y2="174.8" opacity="0.1"/><line x1="618.1" y1="39.9" x2="618.1" y2="39.9" opacity="0.1"/><line x1="627.7" y1="42.5" x2="960.1" y2="381.9" opacity="0.1"/><line x1="637.3" y1="45.3" x2="825.2" y2="846.3" opacity="0.1"/><line x1="646.8" y1="48.2" x2="353.2" y2="951.8" opacity="0.1"/><line x1="656.2" y1="51.4" x2="33.4" y2="589" opacity="0.1"/><line x1="665.6" y1="54.8" x2="197.2" y2="134" opacity="0.1"/><line x1="674.9" y1="58.4" x2="674.9" y2="58.4" opacity="0.1"/><line x1="684.1" y1="62.1" x2="971.3" y2="440.5" opacity="0.1"/><line x1="693.2" y1="66.1" x2="779.2" y2="884.3" opacity="0.1"/><line x1="702.2" y1="70.2" x2="297.8" y2="929.8" opacity="0.1"/><line x1="711.2" y1="74.5" x2="25.9" y2="529.8" opacity="0.1"/><line x1="720.1" y1="79.1" x2="245.5" y2="98.9" opacity="0.1"/><line x1="728.8" y1="83.8" x2="728.8" y2="83.8" opacity="0.1"/><line x1="737.5" y1="88.6" x2="975" y2="500" opacity="0.1"/><line x1="746.1" y1="93.7" x2="728.8" y2="916.2" opacity="0.1"/><line x1="754.5" y1="98.9" x2="245.5" y2="901.1" opacity="0.1"/><line x1="762.9" y1="104.4" x2="25.9" y2="470.2" opacity="0.1"/><line x1="771.1" y1="110" x2="297.8" y2="70.2" opacity="0.1"/><line x1="779.2" y1="115.7" x2="779.2" y2="115.7" opacity="0.1"/><line x1="787.2" y1="121.6" x2="971.3" y2="559.5" opacity="0.1"/><line x1="795" y1="127.7" x2="674.9" y2="941.6" opacity="0.1"/><line x1="802.8" y1="134" x2="197.2" y2="866" opacity="0.1"/><line x1="810.4" y1="140.4" x2="33.4" y2="411" opacity="0.1"/><line x1="817.8" y1="147" x2="353.2" y2="48.2" opacity="0.1"/><line x1="825.2" y1="153.7" x2="825.2" y2="153.7" opacity="0.1"/><line x1="832.3" y1="160.6" x2="960.1" y2="618.1" opacity="0.1"/><line x1="839.4" y1="167.7" x2="618.1" y2="960.1" opacity="0.1"/><line x1="846.3" y1="174.8" x2="153.7" y2="825.2" opacity="0.1"/><line x1="853" y1="182.2" x2="48.2" y2="353.2" opacity="0.1"/><line x1="859.6" y1="189.6" x2="411" y2="33.4" opacity="0.1"/><line x1="866" y1="197.2" x2="866" y2="197.2" opacity="0.1"/><line x1="872.3" y1="205" x2="941.6" y2="674.9" opacity="0.1"/><line x1="878.4" y1="212.8" x2="559.5" y2="971.3" opacity="0.1"/><line x1="884.3" y1="220.8" x2="115.7" y2="779.2" opacity="0.1"/><line x1="890" y1="228.9" x2="70.2" y2="297.8" opacity="0.1"/><line x1="895.6" y1="237.1" x2="470.2" y2="25.9" opacity="0.1"/><line x1="901.1" y1="245.5" x2="901.1" y2="245.5" opacity="0.1"/><line x1="906.3" y1="253.9" x2="916.2" y2="728.8" opacity="0.1"/><line x1="911.4" y1="262.5" x2="500" y2="975" opacity="0.1"/><line x1="916.2" y1="271.2" x2="83.8" y2="728.8" opacity="0.1"/><line x1="920.9" y1="279.9" x2="98.9" y2="245.5" opacity="0.1"/><line x1="925.5" y1="288.8" x2="529.8" y2="25.9" opacity="0.1"/><line x1="929.8" y1="297.8" x2="929.8" y2="297.8" opacity="0.1"/><line x1="933.9" y1="306.8" x2="884.3" y2="779.2" opacity="0.1"/><line x1="937.9" y1="315.9" x2="440.5" y2="971.3" opacity="0.1"/><line x1="941.6" y1="325.1" x2="58.4" y2="674.9" opacity="0.1"/><line x1="945.2" y1="334.4" x2="134" y2="197.2" opacity="0.1"/><line x1="948.6" y1="343.8" x2="589" y2="33.4" opacity="0.1"/><line x1="951.8" y1="353.2" x2="951.8" y2="353.2" opacity="0.1"/><line x1="954.7" y1="362.7" x2="846.3" y2="825.2" opacity="0.1"/><line x1="957.5" y1="372.3" x2="381.9" y2="960.1" opacity="0.1"/><line x1="960.1" y1="381.9" x2="39.9" y2="618.1" opacity="0.1"/><line x1="962.4" y1="391.5" x2="174.8" y2="153.7" opacity="0.1"/><line x1="964.6" y1="401.2" x2="646.8" y2="48.2" opacity="0.1"/><line x1="966.6" y1="411" x2="966.6" y2="411" opacity="0.1"/><line x1="968.3" y1="420.8" x2="802.8" y2="866" opacity="0.1"/><line x1="969.9" y1="430.6" x2="325.1" y2="941.6" opacity="0.1"/><line x1="971.3" y1="440.5" x2="28.7" y2="559.5" opacity="0.1"/><line x1="972.4" y1="450.3" x2="220.8" y2="115.7" opacity="0.1"/><line x1="973.3" y1="460.3" x2="702.2" y2="70.2" opacity="0.1"/><line x1="974.1" y1="470.2" x2="974.1" y2="470.2" opacity="0.1"/><line x1="974.6" y1="480.1" x2="754.5" y2="901.1" opacity="0.1"/><line x1="974.9" y1="490.1" x2="271.2" y2="916.2" opacity="0.1"/><line x1="975" y1="500" x2="25" y2="500" opacity="0.1"/><line x1="974.9" y1="509.9" x2="271.2" y2="83.8" opacity="0.1"/><line x1="974.6" y1="519.9" x2="754.5" y2="98.9" opacity="0.1"/><line x1="974.1" y1="529.8" x2="974.1" y2="529.8" opacity="0.1"/><line x1="973.3" y1="539.7" x2="702.2" y2="929.8" opacity="0.1"/><line x1="972.4" y1="549.7" x2="220.8" y2="884.3" opacity="0.1"/><line x1="971.3" y1="559.5" x2="28.7" y2="440.5" opacity="0.1"/><line x1="969.9" y1="569.4" x2="325.1" y2="58.4" opacity="0.1"/><line x1="968.3" y1="579.2" x2="802.8" y2="134" opacity="0.1"/><line x1="966.6" y1="589" x2="966.6" y2="589" opacity="0.1"/><line x1="964.6" y1="598.8" x2="646.8" y2="951.8" opacity="0.1"/><line x1="962.4" y1="608.5" x2="174.8" y2="846.3" opacity="0.1"/><line x1="960.1" y1="618.1" x2="39.9" y2="381.9" opacity="0.1"/><line x1="957.5" y1="627.7" x2="381.9" y2="39.9" opacity="0.1"/><line x1="954.7" y1="637.3" x2="846.3" y2="174.8" opacity="0.1"/><line x1="951.8" y1="646.8" x2="951.8" y2="646.8" opacity="0.1"/><line x1="948.6" y1="656.2" x2="589" y2="966.6" opacity="0.1"/><line x1="945.2" y1="665.6" x2="134" y2="802.8" opacity="0.1"/><line x1="941.6" y1="674.9" x2="58.4" y2="325.1" opacity="0.1"/><line x1="937.9" y1="684.1" x2="440.5" y2="28.7" opacity="0.1"/><line x1="933.9" y1="693.2" x2="884.3" y2="220.8" opacity="0.1"/><line x1="929.8" y1="702.2" x2="929.8" y2="702.2" opacity="0.1"/><line x1="925.5" y1="711.2" x2="529.8" y2="974.1" opacity="0.1"/><line x1="920.9" y1="720.1" x2="98.9" y2="754.5" opacity="0.1"/><line x1="916.2" y1="728.8" x2="83.8" y2="271.2" opacity="0.1"/><line x1="911.4" y1="737.5" x2="500" y2="25" opacity="0.1"/><line x1="906.3" y1="746.1" x2="916.2" y2="271.2" opacity="0.1"/><line x1="901.1" y1="754.5" x2="901.1" y2="754.5" opacity="0.1"/><line x1="895.6" y1="762.9" x2="470.2" y2="974.1" opacity="0.1"/><line x1="890" y1="771.1" x2="70.2" y2="702.2" opacity="0.1"/><line x1="884.3" y1="779.2" x2="115.7" y2="220.8" opacity="0.1"/><line x1="878.4" y1="787.2" x2="559.5" y2="28.7" opacity="0.1"/><line x1="872.3" y1="795" x2="941.6" y2="325.1" opacity="0.1"/><line x1="866" y1="802.8" x2="866" y2="802.8" opacity="0.1"/><line x1="859.6" y1="810.4" x2="411" y2="966.6" opacity="0.1"/><line x1="853" y1="817.8" x2="48.2" y2="646.8" opacity="0.1"/><line x1="846.3" y1="825.2" x2="153.7" y2="174.8" opacity="0.1"/><line x1="839.4" y1="832.3" x2="618.1" y2="39.9" opacity="0.1"/><line x1="832.3" y1="839.4" x2="960.1" y2="381.9" opacity="0.1"/><line x1="825.2" y1="846.3" x2="825.2" y2="846.3" opacity="0.1"/><line x1="817.8" y1="853" x2="353.2" y2="951.8" opacity="0.1"/><line x1="810.4" y1="859.6" x2="33.4" y2="589" opacity="0.1"/><line x1="802.8" y1="866" x2="197.2" y2="134" opacity="0.1"/><line x1="795" y1="872.3" x2="674.9" y2="58.4" opacity="0.1"/><line x1="787.2" y1="878.4" x2="971.3" y2="440.5" opacity="0.1"/><line x1="779.2" y1="884.3" x2="779.2" y2="884.3" opacity="0.1"/><line x1="771.1" y1="890" x2="297.8" y2="929.8" opacity="0.1"/><line x1="762.9" y1="895.6" x2="25.9" y2="529.8" opacity="0.1"/><line x1="754.5" y1="901.1" x2="245.5" y2="98.9" opacity="0.1"/><line x1="746.1" y1="906.3" x2="728.8" y2="83.8" opacity="0.1"/><line x1="737.5" y1="911.4" x2="975" y2="500" opacity="0.1"/><line x1="728.8" y1="916.2" x2="728.8" y2="916.2" opacity="0.1"/><line x1="720.1" y1="920.9" x2="245.5" y2="901.1" opacity="0.1"/><line x1="711.2" y1="925.5" x2="25.9" y2="470.2" opacity="0.1"/><line x1="702.2" y1="929.8" x2="297.8" y2="70.2" opacity="0.1"/><line x1="693.2" y1="933.9" x2="779.2" y2="115.7" opacity="0.1"/><line x1="684.1" y1="937.9" x2="971.3" y2="559.5" opacity="0.1"/><line x1="674.9" y1="941.6" x2="674.9" y2="941.6" opacity="0.1"/><line x1="665.6" y1="945.2" x2="197.2" y2="866" opacity="0.1"/><line x1="656.2" y1="948.6" x2="33.4" y2="411" opacity="0.1"/><line x1="646.8" y1="951.8" x2="353.2" y2="48.2" opacity="0.1"/><line x1="637.3" y1="954.7" x2="825.2" y2="153.7" opacity="0.1"/><line x1="627.7" y1="957.5" x2="960.1" y2="618.1" opacity="0.1"/><line x1="618.1" y1="960.1" x2="618.1" y2="960.1" opacity="0.1"/><line x1="608.5" y1="962.4" x2="153.7" y2="825.2" opacity="0.1"/><line x1="598.8" y1="964.6" x2="48.2" y2="353.2" opacity="0.1"/><line x1="589" y1="966.6" x2="411" y2="33.4" opacity="0.1"/><line x1="579.2" y1="968.3" x2="866" y2="197.2" opacity="0.1"/><line x1="569.4" y1="969.9" x2="941.6" y2="674.9" opacity="0.1"/><line x1="559.5" y1="971.3" x2="559.5" y2="971.3" opacity="0.1"/><line x1="549.7" y1="972.4" x2="115.7" y2="779.2" opacity="0.1"/><line x1="539.7" y1="973.3" x2="70.2" y2="297.8" opacity="0.1"/><line x1="529.8" y1="974.1" x2="470.2" y2="25.9" opacity="0.1"/><line x1="519.9" y1="974.6" x2="901.1" y2="245.5" opacity="0.1"/><line x1="509.9" y1="974.9" x2="916.2" y2="728.8" opacity="0.1"/><line x1="500" y1="975" x2="500" y2="975" opacity="0.1"/><line x1="490.1" y1="974.9" x2="83.8" y2="728.8" opacity="0.1"/><line x1="480.1" y1="974.6" x2="98.9" y2="245.5" opacity="0.1"/><line x1="470.2" y1="974.1" x2="529.8" y2="25.9" opacity="0.1"/><line x1="460.3" y1="973.3" x2="929.8" y2="297.8" opacity="0.1"/><line x1="450.3" y1="972.4" x2="884.3" y2="779.2" opacity="0.1"/><line x1="440.5" y1="971.3" x2="440.5" y2="971.3" opacity="0.1"/><line x1="430.6" y1="969.9" x2="58.4" y2="674.9" opacity="0.1"/><line x1="420.8" y1="968.3" x2="134" y2="197.2" opacity="0.1"/><line x1="411" y1="966.6" x2="589" y2="33.4" opacity="0.1"/><line x1="401.2" y1="964.6" x2="951.8" y2="353.2" opacity="0.1"/><line x1="391.5" y1="962.4" x2="846.3" y2="825.2" opacity="0.1"/><line x1="381.9" y1="960.1" x2="381.9" y2="960.1" opacity="0.1"/><line x1="372.3" y1="957.5" x2="39.9" y2="618.1" opacity="0.1"/><line x1="362.7" y1="954.7" x2="174.8" y2="153.7" opacity="0.1"/><line x1="353.2" y1="951.8" x2="646.8" y2="48.2" opacity="0.1"/><line x1="343.8" y1="948.6" x2="966.6" y2="411" opacity="0.1"/><line x1="334.4" y1="945.2" x2="802.8" y2="866" opacity="0.1"/><line x1="325.1" y1="941.6" x2="325.1" y2="941.6" opacity="0.1"/><line x1="315.9" y1="937.9" x2="28.7" y2="559.5" opacity="0.1"/><line x1="306.8" y1="933.9" x2="220.8" y2="115.7" opacity="0.1"/><line x1="297.8" y1="929.8" x2="702.2" y2="70.2" opacity="0.1"/><line x1="288.8" y1="925.5" x2="974.1" y2="470.2" opacity="0.1"/><line x1="279.9" y1="920.9" x2="754.5" y2="901.1" opacity="0.1"/><line x1="271.2" y1="916.2" x2="271.2" y2="916.2" opacity="0.1"/><line x1="262.5" y1="911.4" x2="25" y2="500" opacity="0.1"/><line x1="253.9" y1="906.3" x2="271.2" y2="83.8" opacity="0.1"/><line x1="245.5" y1="901.1" x2="754.5" y2="98.9" opacity="0.1"/><line x1="237.1" y1="895.6" x2="974.1" y2="529.8" opacity="0.1"/><line x1="228.9" y1="890" x2="702.2" y2="929.8" opacity="0.1"/><line x1="220.8" y1="884.3" x2="220.8" y2="884.3" opacity="0.1"/><line x1="212.8" y1="878.4" x2="28.7" y2="440.5" opacity="0.1"/><line x1="205" y1="872.3" x2="325.1" y2="58.4" opacity="0.1"/><line x1="197.2" y1="866" x2="802.8" y2="134" opacity="0.1"/><line x1="189.6" y1="859.6" x2="966.6" y2="589" opacity="0.1"/><line x1="182.2" y1="853" x2="646.8" y2="951.8" opacity="0.1"/><line x1="174.8" y1="846.3" x2="174.8" y2="846.3" opacity="0.1"/><line x1="167.7" y1="839.4" x2="39.9" y2="381.9" opacity="0.1"/><line x1="160.6" y1="832.3" x2="381.9" y2="39.9" opacity="0.1"/><line x1="153.7" y1="825.2" x2="846.3" y2="174.8" opacity="0.1"/><line x1="147" y1="817.8" x2="951.8" y2="646.8" opacity="0.1"/><line x1="140.4" y1="810.4" x2="589" y2="966.6" opacity="0.1"/><line x1="134" y1="802.8" x2="134" y2="802.8" opacity="0.1"/><line x1="127.7" y1="795" x2="58.4" y2="325.1" opacity="0.1"/><line x1="121.6" y1="787.2" x2="440.5" y2="28.7" opacity="0.1"/><line x1="115.7" y1="779.2" x2="884.3" y2="220.8" opacity="0.1"/><line x1="110" y1="771.1" x2="929.8" y2="702.2" opacity="0.1"/><line x1="104.4" y1="762.9" x2="529.8" y2="974.1" opacity="0.1"/><line x1="98.9" y1="754.5" x2="98.9" y2="754.5" opacity="0.1"/><line x1="93.7" y1="746.1" x2="83.8" y2="271.2" opacity="0.1"/><line x1="88.6" y1="737.5" x2="500" y2="25" opacity="0.1"/><line x1="83.8" y1="728.8" x2="916.2" y2="271.2" opacity="0.1"/><line x1="79.1" y1="720.1" x2="901.1" y2="754.5" opacity="0.1"/><line x1="74.5" y1="711.2" x2="470.2" y2="974.1" opacity="0.1"/><line x1="70.2" y1="702.2" x2="70.2" y2="702.2" opacity="0.1"/><line x1="66.1" y1="693.2" x2="115.7" y2="220.8" opacity="0.1"/><line x1="62.1" y1="684.1" x2="559.5" y2="28.7" opacity="0.1"/><line x1="58.4" y1="674.9" x2="941.6" y2="325.1" opacity="0.1"/><line x1="54.8" y1="665.6" x2="866" y2="802.8" opacity="0.1"/><line x1="51.4" y1="656.2" x2="411" y2="966.6" opacity="0.1"/><line x1="48.2" y1="646.8" x2="48.2" y2="646.8" opacity="0.1"/><line x1="45.3" y1="637.3" x2="153.7" y2="174.8" opacity="0.1"/><line x1="42.5" y1="627.7" x2="618.1" y2="39.9" opacity="0.1"/><line x1="39.9" y1="618.1" x2="960.1" y2="381.9" opacity="0.1"/><line x1="37.6" y1="608.5" x2="825.2" y2="846.3" opacity="0.1"/><line x1="35.4" y1="598.8" x2="353.2" y2="951.8" opacity="0.1"/><line x1="33.4" y1="589" x2="33.4" y2="589" opacity="0.1"/><line x1="31.7" y1="579.2" x2="197.2" y2="134" opacity="0.1"/><line x1="30.1" y1="569.4" x2="674.9" y2="58.4" opacity="0.1"/><line x1="28.7" y1="559.5" x2="971.3" y2="440.5" opacity="0.1"/><line x1="27.6" y1="549.7" x2="779.2" y2="884.3" opacity="0.1"/><line x1="26.7" y1="539.7" x2="297.8" y2="929.8" opacity="0.1"/><line x1="25.9" y1="529.8" x2="25.9" y2="529.8" opacity="0.1"/><line x1="25.4" y1="519.9" x2="245.5" y2="98.9" opacity="0.1"/><line x1="25.1" y1="509.9" x2="728.8" y2="83.8" opacity="0.1"/><line x1="25" y1="500" x2="975" y2="500" opacity="0.1"/><line x1="25.1" y1="490.1" x2="728.8" y2="916.2" opacity="0.1"/><line x1="25.4" y1="480.1" x2="245.5" y2="901.1" opacity="0.1"/><line x1="25.9" y1="470.2" x2="25.9" y2="470.2" opacity="0.1"/><line x1="26.7" y1="460.3" x2="297.8" y2="70.2" opacity="0.1"/><line x1="27.6" y1="450.3" x2="779.2" y2="115.7" opacity="0.1"/><line x1="28.7" y1="440.5" x2="971.3" y2="559.5" opacity="0.1"/><line x1="30.1" y1="430.6" x2="674.9" y2="941.6" opacity="0.1"/><line x1="31.7" y1="420.8" x2="197.2" y2="866" opacity="0.1"/><line x1="33.4" y1="411" x2="33.4" y2="411" opacity="0.1"/><line x1="35.4" y1="401.2" x2="353.2" y2="48.2" opacity="0.1"/><line x1="37.6" y1="391.5" x2="825.2" y2="153.7" opacity="0.1"/><line x1="39.9" y1="381.9" x2="960.1" y2="618.1" opacity="0.1"/><line x1="42.5" y1="372.3" x2="618.1" y2="960.1" opacity="0.1"/><line x1="45.3" y1="362.7" x2="153.7" y2="825.2" opacity="0.1"/><line x1="48.2" y1="353.2" x2="48.2" y2="353.2" opacity="0.1"/><line x1="51.4" y1="343.8" x2="411" y2="33.4" opacity="0.1"/><line x1="54.8" y1="334.4" x2="866" y2="197.2" opacity="0.1"/><line x1="58.4" y1="325.1" x2="941.6" y2="674.9" opacity="0.1"/><line x1="62.1" y1="315.9" x2="559.5" y2="971.3" opacity="0.1"/><line x1="66.1" y1="306.8" x2="115.7" y2="779.2" opacity="0.1"/><line x1="70.2" y1="297.8" x2="70.2" y2="297.8" opacity="0.1"/><line x1="74.5" y1="288.8" x2="470.2" y2="25.9" opacity="0.1"/><line x1="79.1" y1="279.9" x2="901.1" y2="245.5" opacity="0.1"/><line x1="83.8" y1="271.2" x2="916.2" y2="728.8" opacity="0.1"/><line x1="88.6" y1="262.5" x2="500" y2="975" opacity="0.1"/><line x1="93.7" y1="253.9" x2="83.8" y2="728.8" opacity="0.1"/><line x1="98.9" y1="245.5" x2="98.9" y2="245.5" opacity="0.1"/><line x1="104.4" y1="237.1" x2="529.8" y2="25.9" opacity="0.1"/><line x1="110" y1="228.9" x2="929.8" y2="297.8" opacity="0.1"/><line x1="115.7" y1="220.8" x2="884.3" y2="779.2" opacity="0.1"/><line x1="121.6" y1="212.8" x2="440.5" y2="971.3" opacity="0.1"/><line x1="127.7" y1="205" x2="58.4" y2="674.9" opacity="0.1"/><line x1="134" y1="197.2" x2="134" y2="197.2" opacity="0.1"/><line x1="140.4" y1="189.6" x2="589" y2="33.4" opacity="0.1"/><line x1="147" y1="182.2" x2="951.8" y2="353.2" opacity="0.1"/><line x1="153.7" y1="174.8" x2="846.3" y2="825.2" opacity="0.1"/><line x1="160.6" y1="167.7" x2="381.9" y2="960.1" opacity="0.1"/><line x1="167.7" y1="160.6" x2="39.9" y2="618.1" opacity="0.1"/><line x1="174.8" y1="153.7" x2="174.8" y2="153.7" opacity="0.1"/><line x1="182.2" y1="147" x2="646.8" y2="48.2" opacity="0.1"/><line x1="189.6" y1="140.4" x2="966.6" y2="411" opacity="0.1"/><line x1="197.2" y1="134" x2="802.8" y2="866" opacity="0.1"/><line x1="205" y1="127.7" x2="325.1" y2="941.6" opacity="0.1"/><line x1="212.8" y1="121.6" x2="28.7" y2="559.5" opacity="0.1"/><line x1="220.8" y1="115.7" x2="220.8" y2="115.7" opacity="0.1"/><line x1="228.9" y1="110" x2="702.2" y2="70.2" opacity="0.1"/><line x1="237.1" y1="104.4" x2="974.1" y2="470.2" opacity="0.1"/><line x1="245.5" y1="98.9" x2="754.5" y2="901.1" opacity="0.1"/><line x1="253.9" y1="93.7" x2="271.2" y2="916.2" opacity="0.1"/><line x1="262.5" y1="88.6" x2="25" y2="500" opacity="0.1"/><line x1="271.2" y1="83.8" x2="271.2" y2="83.8" opacity="0.1"/><line x1="279.9" y1="79.1" x2="754.5" y2="98.9" opacity="0.1"/><line x1="288.8" y1="74.5" x2="974.1" y2="529.8" opacity="0.1"/><line x1="297.8" y1="70.2" x2="702.2" y2="929.8" opacity="0.1"/><line x1="306.8" y1="66.1" x2="220.8" y2="884.3" opacity="0.1"/><line x1="315.9" y1="62.1" x2="28.7" y2="440.5" opacity="0.1"/><line x1="325.1" y1="58.4" x2="325.1" y2="58.4" opacity="0.1"/><line x1="334.4" y1="54.8" x2="802.8" y2="134" opacity="0.1"/><line x1="343.8" y1="51.4" x2="966.6" y2="589" opacity="0.1"/><line x1="353.2" y1="48.2" x2="646.8" y2="951.8" opacity="0.1"/><line x1="362.7" y1="45.3" x2="174.8" y2="846.3" opacity="0.1"/><line x1="372.3" y1="42.5" x2="39.9" y2="381.9" opacity="0.1"/><line x1="381.9" y1="39.9" x2="381.9" y2="39.9" opacity="0.1"/><line x1="391.5" y1="37.6" x2="846.3" y2="174.8" opacity="0.1"/><line x1="401.2" y1="35.4" x2="951.8" y2="646.8" opacity="0.1"/><line x1="411" y1="33.4" x2="589" y2="966.6" opacity="0.1"/><line x1="420.8" y1="31.7" x2="134" y2="802.8" opacity="0.1"/><line x1="430.6" y1="30.1" x2="58.4" y2="325.1" opacity="0.1"/><line x1="440.5" y1="28.7" x2="440.5" y2="28.7" opacity="0.1"/><line x1="450.3" y1="27.6" x2="884.3" y2="220.8" opacity="0.1"/><line x1="460.3" y1="26.7" x2="929.8" y2="702.2" opacity="0.1"/><line x1="470.2" y1="25.9" x2="529.8" y2="974.1" opacity="0.1"/><line x1="480.1" y1="25.4" x2="98.9" y2="754.5" opacity="0.1"/><line x1="490.1" y1="25.1" x2="83.8" y2="271.2" opacity="0.1"/></g></svg>