<svg xmlns="http://www.w3.org/2000/svg" viewBox="0 0 1000 1000" preserveAspectRatio="xMidYMid slice" fill="none" stroke-linecap="round" stroke-linejoin="round"><g fill="none" stroke="#0f3d2e" stroke-width="0.8"><circle cx="500" cy="500" r="22" opacity="0.07"/><circle cx="500" cy="500" r="44" opacity="0.07"/><circle cx="500" cy="500" r="66" opacity="0.07"/><circle cx="500" cy="500" r="88" opacity="0.07"/><circle cx="500" cy="500" r="110" opacity="0.07"/><circle cx="500" cy="500" r="132" opacity="0.07"/><circle cx="500" cy="500" r="154" opacity="0.07"/><circle cx="500" cy="500" r="176" opacity="0.07"/><circle cx="500" cy="500" r="198" opacity="0.07"/><circle cx="500" cy="500" r="220" opacity="0.07"/><circle cx="500" cy="500" r="242" opacity="0.07"/><circle cx="500" cy="500" r="264" opacity="0.07"/><circle cx="500" cy="500" r="286" opacity="0.07"/><circle cx="500" cy="500" r="308" opacity="0.07"/><circle cx="500" cy="500" r="330" opacity="0.07"/><circle cx="500" cy="500" r="352" opacity="0.07"/><circle cx="500" cy="500" r="374" opacity="0.07"/><circle cx="500" cy="500" r="396" opacity="0.07"/><circle cx="500" cy="500" r="418" opacity="0.07"/><circle cx="500" cy="500" r="440" opacity="0.07"/><circle cx="500" cy="500" r="462" opacity="0.07"/><circle cx="500" cy="500" r="484" opacity="0.07"/><circle cx="500" cy="500" r="506" opacity="0.07"/><circle cx="500" cy="500" r="528" opacity="0.07"/><circle cx="500" cy="500" r="550" opacity="0.07"/><circle cx="500" cy="500" r="572" opacity="0.07"/><circle cx="500" cy="500" r="594" opacity="0.07"/><circle cx="500" cy="500" r="616" opacity="0.07"/><circle cx="500" cy="500" r="638" opacity="0.07"/><circle cx="500" cy="500" r="660" opacity="0.07"/><circle cx="500" cy="500" r="682" opacity="0.07"/><circle cx="500" cy="500" r="704" opacity="0.07"/><circle cx="500" cy="500" r="726" opacity="0.07"/><circle cx="500" cy="500" r="748" opacity="0.07"/><circle cx="500" cy="500" r="770" opacity="0.07"/><circle cx="500" cy="500" r="792" opacity="0.07"/><circle cx="500" cy="500" r="814" opacity="0.07"/><circle cx="500" cy="500" r="836" opacity="0.07"/><circle cx="500" cy="500" r="858" opacity="0.07"/><circle cx="500" cy="500" r="880" opacity="0.07"/><circle cx="500" cy="500" r="902" opacity="0.07"/><circle cx="500" cy="500" r="924" opacity="0.07"/><circle cx="500" cy="500" r="946" opacity="0.07"/></g></svg>