<svg xmlns="http://www.w3.org/2000/svg" viewBox="0 0 1000 1000" preserveAspectRatio="xMidYMid slice" fill="none" stroke-linecap="round" stroke-linejoin="round"><g fill="none" stroke="#0f3d2e" stroke-width="0.8"><circle cx="300" cy="400" r="26" opacity="0.07"/><circle cx="300" cy="400" r="52" opacity="0.07"/><circle cx="300" cy="400" r="78" opacity="0.07"/><circle cx="300" cy="400" r="104" opacity="0.07"/><circle cx="300" cy="400" r="130" opacity="0.07"/><circle cx="300" cy="400" r="156" opacity="0.07"/><circle cx="300" cy="400" r="182" opacity="0.07"/><circle cx="300" cy="400" r="208" opacity="0.07"/><circle cx="300" cy="400" r="234" opacity="0.07"/><circle cx="300" cy="400" r="260" opacity="0.07"/><circle cx="300" cy="400" r="286" opacity="0.07"/><circle cx="300" cy="400" r="312" opacity="0.07"/><circle cx="300" cy="400" r="338" opacity="0.07"/><circle cx="300" cy="400" r="364" opacity="0.07"/><circle cx="300" cy="400" r="390" opacity="0.07"/><circle cx="300" cy="400" r="416" opacity="0.07"/><circle cx="300" cy="400" r="442" opacity="0.07"/><circle cx="300" cy="400" r="468" opacity="0.07"/><circle cx="300" cy="400" r="494" opacity="0.07"/><circle cx="300" cy="400" r="520" opacity="0.07"/><circle cx="300" cy="400" r="546" opacity="0.07"/><circle cx="300" cy="400" r="572" opacity="0.07"/><circle cx="300" cy="400" r="598" opacity="0.07"/><circle cx="300" cy="400" r="624" opacity="0.07"/><circle cx="300" cy="400" r="650" opacity="0.07"/><circle cx="300" cy="400" r="676" opacity="0.07"/><circle cx="300" cy="400" r="702" opacity="0.07"/><circle cx="300" cy="400" r="728" opacity="0.07"/><circle cx="300" cy="400" r="754" opacity="0.07"/><circle cx="300" cy="400" r="780" opacity="0.07"/><circle cx="300" cy="400" r="806" opacity="0.07"/><circle cx="300" cy="400" r="832" opacity="0.07"/><circle cx="300" cy="400" r="858" opacity="0.07"/><circle cx="300" cy="400" r="884" opacity="0.07"/><circle cx="300" cy="400" r="910" opacity="0.07"/><circle cx="300" cy="400" r="936" opacity="0.07"/><circle cx="700" cy="600" r="26" opacity="0.07"/><circle cx="700" cy="600" r="52" opacity="0.07"/><circle cx="700" cy="600" r="78" opacity="0.07"/><circle cx="700" cy="600" r="104" opacity="0.07"/><circle cx="700" cy="600" r="130" opacity="0.07"/><circle cx="700" cy="600" r="156" opacity="0.07"/><circle cx="700" cy="600" r="182" opacity="0.07"/><circle cx="700" cy="600" r="208" opacity="0.07"/><circle cx="700" cy="600" r="234" opacity="0.07"/><circle cx="700" cy="600" r="260" opacity="0.07"/><circle cx="700" cy="600" r="286" opacity="0.07"/><circle cx="700" cy="600" r="312" opacity="0.07"/><circle cx="700" cy="600" r="338" opacity="0.07"/><circle cx="700" cy="600" r="364" opacity="0.07"/><circle cx="700" cy="600" r="390" opacity="0.07"/><circle cx="700" cy="600" r="416" opacity="0.07"/><circle cx="700" cy="600" r="442" opacity="0.07"/><circle cx="700" cy="600" r="468" opacity="0.07"/><circle cx="700" cy="600" r="494" opacity="0.07"/><circle cx="700" cy="600" r="520" opacity="0.07"/><circle cx="700" cy="600" r="546" opacity="0.07"/><circle cx="700" cy="600" r="572" opacity="0.07"/><circle cx="700" cy="600" r="598" opacity="0.07"/><circle cx="700" cy="600" r="624" opacity="0.07"/><circle cx="700" cy="600" r="650" opacity="0.07"/><circle cx="700" cy="600" r="676" opacity="0.07"/><circle cx="700" cy="600" r="702" opacity="0.07"/><circle cx="700" cy="600" r="728" opacity="0.07"/><circle cx="700" cy="600" r="754" opacity="0.07"/><circle cx="700" cy="600" r="780" opacity="0.07"/><circle cx="700" cy="600" r="806" opacity="0.07"/><circle cx="700" cy="600" r="832" opacity="0.07"/><circle cx="700" cy="600" r="858" opacity="0.07"/><circle cx="700" cy="600" r="884" opacity="0.07"/><circle cx="700" cy="600" r="910" opacity="0.07"/><circle cx="700" cy="600" r="936" opacity="0.07"/></g></svg>