<svg xmlns="http://www.w3.org/2000/svg" viewBox="0 0 1000 1000" preserveAspectRatio="xMidYMid slice" fill="none" stroke-linecap="round" stroke-linejoin="round"><g fill="none" stroke="#0f3d2e" stroke-width="0.8"><circle cx="250" cy="300" r="28" opacity="0.07"/><circle cx="250" cy="300" r="56" opacity="0.07"/><circle cx="250" cy="300" r="84" opacity="0.07"/><circle cx="250" cy="300" r="112" opacity="0.07"/><circle cx="250" cy="300" r="140" opacity="0.07"/><circle cx="250" cy="300" r="168" opacity="0.07"/><circle cx="250" cy="300" r="196" opacity="0.07"/><circle cx="250" cy="300" r="224" opacity="0.07"/><circle cx="250" cy="300" r="252" opacity="0.07"/><circle cx="250" cy="300" r="280" opacity="0.07"/><circle cx="250" cy="300" r="308" opacity="0.07"/><circle cx="250" cy="300" r="336" opacity="0.07"/><circle cx="250" cy="300" r="364" opacity="0.07"/><circle cx="250" cy="300" r="392" opacity="0.07"/><circle cx="250" cy="300" r="420" opacity="0.07"/><circle cx="250" cy="300" r="448" opacity="0.07"/><circle cx="250" cy="300" r="476" opacity="0.07"/><circle cx="250" cy="300" r="504" opacity="0.07"/><circle cx="250" cy="300" r="532" opacity="0.07"/><circle cx="250" cy="300" r="560" opacity="0.07"/><circle cx="250" cy="300" r="588" opacity="0.07"/><circle cx="250" cy="300" r="616" opacity="0.07"/><circle cx="250" cy="300" r="644" opacity="0.07"/><circle cx="250" cy="300" r="672" opacity="0.07"/><circle cx="250" cy="300" r="700" opacity="0.07"/><circle cx="250" cy="300" r="728" opacity="0.07"/><circle cx="250" cy="300" r="756" opacity="0.07"/><circle cx="250" cy="300" r="784" opacity="0.07"/><circle cx="250" cy="300" r="812" opacity="0.07"/><circle cx="250" cy="300" r="840" opacity="0.07"/><circle cx="250" cy="300" r="868" opacity="0.07"/><circle cx="250" cy="300" r="896" opacity="0.07"/><circle cx="250" cy="300" r="924" opacity="0.07"/><circle cx="750" cy="300" r="28" opacity="0.07"/><circle cx="750" cy="300" r="56" opacity="0.07"/><circle cx="750" cy="300" r="84" opacity="0.07"/><circle cx="750" cy="300" r="112" opacity="0.07"/><circle cx="750" cy="300" r="140" opacity="0.07"/><circle cx="750" cy="300" r="168" opacity="0.07"/><circle cx="750" cy="300" r="196" opacity="0.07"/><circle cx="750" cy="300" r="224" opacity="0.07"/><circle cx="750" cy="300" r="252" opacity="0.07"/><circle cx="750" cy="300" r="280" opacity="0.07"/><circle cx="750" cy="300" r="308" opacity="0.07"/><circle cx="750" cy="300" r="336" opacity="0.07"/><circle cx="750" cy="300" r="364" opacity="0.07"/><circle cx="750" cy="300" r="392" opacity="0.07"/><circle cx="750" cy="300" r="420" opacity="0.07"/><circle cx="750" cy="300" r="448" opacity="0.07"/><circle cx="750" cy="300" r="476" opacity="0.07"/><circle cx="750" cy="300" r="504" opacity="0.07"/><circle cx="750" cy="300" r="532" opacity="0.07"/><circle cx="750" cy="300" r="560" opacity="0.07"/><circle cx="750" cy="300" r="588" opacity="0.07"/><circle cx="750" cy="300" r="616" opacity="0.07"/><circle cx="750" cy="300" r="644" opacity="0.07"/><circle cx="750" cy="300" r="672" opacity="0.07"/><circle cx="750" cy="300" r="700" opacity="0.07"/><circle cx="750" cy="300" r="728" opacity="0.07"/><circle cx="750" cy="300" r="756" opacity="0.07"/><circle cx="750" cy="300" r="784" opacity="0.07"/><circle cx="750" cy="300" r="812" opacity="0.07"/><circle cx="750" cy="300" r="840" opacity="0.07"/><circle cx="750" cy="300" r="868" opacity="0.07"/><circle cx="750" cy="300" r="896" opacity="0.07"/><circle cx="750" cy="300" r="924" opacity="0.07"/><circle cx="500" cy="800" r="28" opacity="0.07"/><circle cx="500" cy="800" r="56" opacity="0.07"/><circle cx="500" cy="800" r="84" opacity="0.07"/><circle cx="500" cy="800" r="112" opacity="0.07"/><circle cx="500" cy="800" r="140" opacity="0.07"/><circle cx="500" cy="800" r="168" opacity="0.07"/><circle cx="500" cy="800" r="196" opacity="0.07"/><circle cx="500" cy="800" r="224" opacity="0.07"/><circle cx="500" cy="800" r="252" opacity="0.07"/><circle cx="500" cy="800" r="280" opacity="0.07"/><circle cx="500" cy="800" r="308" opacity="0.07"/><circle cx="500" cy="800" r="336" opacity="0.07"/><circle cx="500" cy="800" r="364" opacity="0.07"/><circle cx="500" cy="800" r="392" opacity="0.07"/><circle cx="500" cy="800" r="420" opacity="0.07"/><circle cx="500" cy="800" r="448" opacity="0.07"/><circle cx="500" cy="800" r="476" opacity="0.07"/><circle cx="500" cy="800" r="504" opacity="0.07"/><circle cx="500" cy="800" r="532" opacity="0.07"/><circle cx="500" cy="800" r="560" opacity="0.07"/><circle cx="500" cy="800" r="588" opacity="0.07"/><circle cx="500" cy="800" r="616" opacity="0.07"/><circle cx="500" cy="800" r="644" opacity="0.07"/><circle cx="500" cy="800" r="672" opacity="0.07"/><circle cx="500" cy="800" r="700" opacity="0.07"/><circle cx="500" cy="800" r="728" opacity="0.07"/><circle cx="500" cy="800" r="756" opacity="0.07"/><circle cx="500" cy="800" r="784" opacity="0.07"/><circle cx="500" cy="800" r="812" opacity="0.07"/><circle cx="500" cy="800" r="840" opacity="0.07"/><circle cx="500" cy="800" r="868" opacity="0.07"/><circle cx="500" cy="800" r="896" opacity="0.07"/><circle cx="500" cy="800" r="924" opacity="0.07"/></g></svg>