<svg xmlns="http://www.w3.org/2000/svg" viewBox="0 0 1000 1000" preserveAspectRatio="xMidYMid slice" fill="none" stroke-linecap="round" stroke-linejoin="round"><g fill="none" stroke="#0f3d2e" stroke-width="0.8"><circle cx="200" cy="500" r="24" opacity="0.07"/><circle cx="200" cy="500" r="48" opacity="0.07"/><circle cx="200" cy="500" r="72" opacity="0.07"/><circle cx="200" cy="500" r="96" opacity="0.07"/><circle cx="200" cy="500" r="120" opacity="0.07"/><circle cx="200" cy="500" r="144" opacity="0.07"/><circle cx="200" cy="500" r="168" opacity="0.07"/><circle cx="200" cy="500" r="192" opacity="0.07"/><circle cx="200" cy="500" r="216" opacity="0.07"/><circle cx="200" cy="500" r="240" opacity="0.07"/><circle cx="200" cy="500" r="264" opacity="0.07"/><circle cx="200" cy="500" r="288" opacity="0.07"/><circle cx="200" cy="500" r="312" opacity="0.07"/><circle cx="200" cy="500" r="336" opacity="0.07"/><circle cx="200" cy="500" r="360" opacity="0.07"/><circle cx="200" cy="500" r="384" opacity="0.07"/><circle cx="200" cy="500" r="408" opacity="0.07"/><circle cx="200" cy="500" r="432" opacity="0.07"/><circle cx="200" cy="500" r="456" opacity="0.07"/><circle cx="200" cy="500" r="480" opacity="0.07"/><circle cx="200" cy="500" r="504" opacity="0.07"/><circle cx="200" cy="500" r="528" opacity="0.07"/><circle cx="200" cy="500" r="552" opacity="0.07"/><circle cx="200" cy="500" r="576" opacity="0.07"/><circle cx="200" cy="500" r="600" opacity="0.07"/><circle cx="200" cy="500" r="624" opacity="0.07"/><circle cx="200" cy="500" r="648" opacity="0.07"/><circle cx="200" cy="500" r="672" opacity="0.07"/><circle cx="200" cy="500" r="696" opacity="0.07"/><circle cx="200" cy="500" r="720" opacity="0.07"/><circle cx="200" cy="500" r="744" opacity="0.07"/><circle cx="200" cy="500" r="768" opacity="0.07"/><circle cx="200" cy="500" r="792" opacity="0.07"/><circle cx="200" cy="500" r="816" opacity="0.07"/><circle cx="200" cy="500" r="840" opacity="0.07"/><circle cx="200" cy="500" r="864" opacity="0.07"/><circle cx="200" cy="500" r="888" opacity="0.07"/><circle cx="200" cy="500" r="912" opacity="0.07"/><circle cx="200" cy="500" r="936" opacity="0.07"/><circle cx="800" cy="500" r="24" opacity="0.07"/><circle cx="800" cy="500" r="48" opacity="0.07"/><circle cx="800" cy="500" r="72" opacity="0.07"/><circle cx="800" cy="500" r="96" opacity="0.07"/><circle cx="800" cy="500" r="120" opacity="0.07"/><circle cx="800" cy="500" r="144" opacity="0.07"/><circle cx="800" cy="500" r="168" opacity="0.07"/><circle cx="800" cy="500" r="192" opacity="0.07"/><circle cx="800" cy="500" r="216" opacity="0.07"/><circle cx="800" cy="500" r="240" opacity="0.07"/><circle cx="800" cy="500" r="264" opacity="0.07"/><circle cx="800" cy="500" r="288" opacity="0.07"/><circle cx="800" cy="500" r="312" opacity="0.07"/><circle cx="800" cy="500" r="336" opacity="0.07"/><circle cx="800" cy="500" r="360" opacity="0.07"/><circle cx="800" cy="500" r="384" opacity="0.07"/><circle cx="800" cy="500" r="408" opacity="0.07"/><circle cx="800" cy="500" r="432" opacity="0.07"/><circle cx="800" cy="500" r="456" opacity="0.07"/><circle cx="800" cy="500" r="480" opacity="0.07"/><circle cx="800" cy="500" r="504" opacity="0.07"/><circle cx="800" cy="500" r="528" opacity="0.07"/><circle cx="800" cy="500" r="552" opacity="0.07"/><circle cx="800" cy="500" r="576" opacity="0.07"/><circle cx="800" cy="500" r="600" opacity="0.07"/><circle cx="800" cy="500" r="624" opacity="0.07"/><circle cx="800" cy="500" r="648" opacity="0.07"/><circle cx="800" cy="500" r="672" opacity="0.07"/><circle cx="800" cy="500" r="696" opacity="0.07"/><circle cx="800" cy="500" r="720" opacity="0.07"/><circle cx="800" cy="500" r="744" opacity="0.07"/><circle cx="800" cy="500" r="768" opacity="0.07"/><circle cx="800" cy="500" r="792" opacity="0.07"/><circle cx="800" cy="500" r="816" opacity="0.07"/><circle cx="800" cy="500" r="840" opacity="0.07"/><circle cx="800" cy="500" r="864" opacity="0.07"/><circle cx="800" cy="500" r="888" opacity="0.07"/><circle cx="800" cy="500" r="912" opacity="0.07"/><circle cx="800" cy="500" r="936" opacity="0.07"/></g></svg>