<svg xmlns="http://www.w3.org/2000/svg" viewBox="0 0 1000 1000" preserveAspectRatio="xMidYMid slice" fill="none" stroke-linecap="round" stroke-linejoin="round"><g stroke="#0f3d2e" stroke-width="0.6"><line x1="-400" y1="-450" x2="-400" y2="1450" opacity="0.06"/><line x1="-450" y1="-400" x2="1450" y2="-400" opacity="0.06"/><line x1="-366" y1="-450" x2="-366" y2="1450" opacity="0.06"/><line x1="-450" y1="-366" x2="1450" y2="-366" opacity="0.06"/><line x1="-332" y1="-450" x2="-332" y2="1450" opacity="0.06"/><line x1="-450" y1="-332" x2="1450" y2="-332" opacity="0.06"/><line x1="-298" y1="-450" x2="-298" y2="1450" opacity="0.06"/><line x1="-450" y1="-298" x2="1450" y2="-298" opacity="0.06"/><line x1="-264" y1="-450" x2="-264" y2="1450" opacity="0.06"/><line x1="-450" y1="-264" x2="1450" y2="-264" opacity="0.06"/><line x1="-230" y1="-450" x2="-230" y2="1450" opacity="0.06"/><line x1="-450" y1="-230" x2="1450" y2="-230" opacity="0.06"/><line x1="-196" y1="-450" x2="-196" y2="1450" opacity="0.06"/><line x1="-450" y1="-196" x2="1450" y2="-196" opacity="0.06"/><line x1="-162" y1="-450" x2="-162" y2="1450" opacity="0.06"/><line x1="-450" y1="-162" x2="1450" y2="-162" opacity="0.06"/><line x1="-128" y1="-450" x2="-128" y2="1450" opacity="0.06"/><line x1="-450" y1="-128" x2="1450" y2="-128" opacity="0.06"/><line x1="-94" y1="-450" x2="-94" y2="1450" opacity="0.06"/><line x1="-450" y1="-94" x2="1450" y2="-94" opacity="0.06"/><line x1="-60" y1="-450" x2="-60" y2="1450" opacity="0.06"/><line x1="-450" y1="-60" x2="1450" y2="-60" opacity="0.06"/><line x1="-26" y1="-450" x2="-26" y2="1450" opacity="0.06"/><line x1="-450" y1="-26" x2="1450" y2="-26" opacity="0.06"/><line x1="8" y1="-450" x2="8" y2="1450" opacity="0.06"/><line x1="-450" y1="8" x2="1450" y2="8" opacity="0.06"/><line x1="42" y1="-450" x2="42" y2="1450" opacity="0.06"/><line x1="-450" y1="42" x2="1450" y2="42" opacity="0.06"/><line x1="76" y1="-450" x2="76" y2="1450" opacity="0.06"/><line x1="-450" y1="76" x2="1450" y2="76" opacity="0.06"/><line x1="110" y1="-450" x2="110" y2="1450" opacity="0.06"/><line x1="-450" y1="110" x2="1450" y2="110" opacity="0.06"/><line x1="144" y1="-450" x2="144" y2="1450" opacity="0.06"/><line x1="-450" y1="144" x2="1450" y2="144" opacity="0.06"/><line x1="178" y1="-450" x2="178" y2="1450" opacity="0.06"/><line x1="-450" y1="178" x2="1450" y2="178" opacity="0.06"/><line x1="212" y1="-450" x2="212" y2="1450" opacity="0.06"/><line x1="-450" y1="212" x2="1450" y2="212" opacity="0.06"/><line x1="246" y1="-450" x2="246" y2="1450" opacity="0.06"/><line x1="-450" y1="246" x2="1450" y2="246" opacity="0.06"/><line x1="280" y1="-450" x2="280" y2="1450" opacity="0.06"/><line x1="-450" y1="280" x2="1450" y2="280" opacity="0.06"/><line x1="314" y1="-450" x2="314" y2="1450" opacity="0.06"/><line x1="-450" y1="314" x2="1450" y2="314" opacity="0.06"/><line x1="348" y1="-450" x2="348" y2="1450" opacity="0.06"/><line x1="-450" y1="348" x2="1450" y2="348" opacity="0.06"/><line x1="382" y1="-450" x2="382" y2="1450" opacity="0.06"/><line x1="-450" y1="382" x2="1450" y2="382" opacity="0.06"/><line x1="416" y1="-450" x2="416" y2="1450" opacity="0.06"/><line x1="-450" y1="416" x2="1450" y2="416" opacity="0.06"/><line x1="450" y1="-450" x2="450" y2="1450" opacity="0.06"/><line x1="-450" y1="450" x2="1450" y2="450" opacity="0.06"/><line x1="484" y1="-450" x2="484" y2="1450" opacity="0.06"/><line x1="-450" y1="484" x2="1450" y2="484" opacity="0.06"/><line x1="518" y1="-450" x2="518" y2="1450" opacity="0.06"/><line x1="-450" y1="518" x2="1450" y2="518" opacity="0.06"/><line x1="552" y1="-450" x2="552" y2="1450" opacity="0.06"/><line x1="-450" y1="552" x2="1450" y2="552" opacity="0.06"/><line x1="586" y1="-450" x2="586" y2="1450" opacity="0.06"/><line x1="-450" y1="586" x2="1450" y2="586" opacity="0.06"/><line x1="620" y1="-450" x2="620" y2="1450" opacity="0.06"/><line x1="-450" y1="620" x2="1450" y2="620" opacity="0.06"/><line x1="654" y1="-450" x2="654" y2="1450" opacity="0.06"/><line x1="-450" y1="654" x2="1450" y2="654" opacity="0.06"/><line x1="688" y1="-450" x2="688" y2="1450" opacity="0.06"/><line x1="-450" y1="688" x2="1450" y2="688" opacity="0.06"/><line x1="722" y1="-450" x2="722" y2="1450" opacity="0.06"/><line x1="-450" y1="722" x2="1450" y2="722" opacity="0.06"/><line x1="756" y1="-450" x2="756" y2="1450" opacity="0.06"/><line x1="-450" y1="756" x2="1450" y2="756" opacity="0.06"/><line x1="790" y1="-450" x2="790" y2="1450" opacity="0.06"/><line x1="-450" y1="790" x2="1450" y2="790" opacity="0.06"/><line x1="824" y1="-450" x2="824" y2="1450" opacity="0.06"/><line x1="-450" y1="824" x2="1450" y2="824" opacity="0.06"/><line x1="858" y1="-450" x2="858" y2="1450" opacity="0.06"/><line x1="-450" y1="858" x2="1450" y2="858" opacity="0.06"/><line x1="892" y1="-450" x2="892" y2="1450" opacity="0.06"/><line x1="-450" y1="892" x2="1450" y2="892" opacity="0.06"/><line x1="926" y1="-450" x2="926" y2="1450" opacity="0.06"/><line x1="-450" y1="926" x2="1450" y2="926" opacity="0.06"/><line x1="960" y1="-450" x2="960" y2="1450" opacity="0.06"/><line x1="-450" y1="960" x2="1450" y2="960" opacity="0.06"/><line x1="994" y1="-450" x2="994" y2="1450" opacity="0.06"/><line x1="-450" y1="994" x2="1450" y2="994" opacity="0.06"/><line x1="1028" y1="-450" x2="1028" y2="1450" opacity="0.06"/><line x1="-450" y1="1028" x2="1450" y2="1028" opacity="0.06"/><line x1="1062" y1="-450" x2="1062" y2="1450" opacity="0.06"/><line x1="-450" y1="1062" x2="1450" y2="1062" opacity="0.06"/><line x1="1096" y1="-450" x2="1096" y2="1450" opacity="0.06"/><line x1="-450" y1="1096" x2="1450" y2="1096" opacity="0.06"/><line x1="1130" y1="-450" x2="1130" y2="1450" opacity="0.06"/><line x1="-450" y1="1130" x2="1450" y2="1130" opacity="0.06"/><line x1="1164" y1="-450" x2="1164" y2="1450" opacity="0.06"/><line x1="-450" y1="1164" x2="1450" y2="1164" opacity="0.06"/><line x1="1198" y1="-450" x2="1198" y2="1450" opacity="0.06"/><line x1="-450" y1="1198" x2="1450" y2="1198" opacity="0.06"/><line x1="1232" y1="-450" x2="1232" y2="1450" opacity="0.06"/><line x1="-450" y1="1232" x2="1450" y2="1232" opacity="0.06"/><line x1="1266" y1="-450" x2="1266" y2="1450" opacity="0.06"/><line x1="-450" y1="1266" x2="1450" y2="1266" opacity="0.06"/><line x1="1300" y1="-450" x2="1300" y2="1450" opacity="0.06"/><line x1="-450" y1="1300" x2="1450" y2="1300" opacity="0.06"/><line x1="1334" y1="-450" x2="1334" y2="1450" opacity="0.06"/><line x1="-450" y1="1334" x2="1450" y2="1334" opacity="0.06"/><line x1="1368" y1="-450" x2="1368" y2="1450" opacity="0.06"/><line x1="-450" y1="1368" x2="1450" y2="1368" opacity="0.06"/><line x1="-295.8" y1="-538.9" x2="-494.4" y2="1350.7" opacity="0.06"/><line x1="-350.7" y1="-494.4" x2="1538.9" y2="-295.8" opacity="0.06"/><line x1="-262" y1="-535.3" x2="-460.6" y2="1354.3" opacity="0.06"/><line x1="-354.3" y1="-460.6" x2="1535.3" y2="-262" opacity="0.06"/><line x1="-228.1" y1="-531.8" x2="-426.7" y2="1357.8" opacity="0.06"/><line x1="-357.8" y1="-426.7" x2="1531.8" y2="-228.1" opacity="0.06"/><line x1="-194.3" y1="-528.2" x2="-392.9" y2="1361.4" opacity="0.06"/><line x1="-361.4" y1="-392.9" x2="1528.2" y2="-194.3" opacity="0.06"/><line x1="-160.5" y1="-524.7" x2="-359.1" y2="1364.9" opacity="0.06"/><line x1="-364.9" y1="-359.1" x2="1524.7" y2="-160.5" opacity="0.06"/><line x1="-126.7" y1="-521.1" x2="-325.3" y2="1368.5" opacity="0.06"/><line x1="-368.5" y1="-325.3" x2="1521.1" y2="-126.7" opacity="0.06"/><line x1="-92.9" y1="-517.5" x2="-291.5" y2="1372" opacity="0.06"/><line x1="-372" y1="-291.5" x2="1517.5" y2="-92.9" opacity="0.06"/><line x1="-59.1" y1="-514" x2="-257.7" y2="1375.6" opacity="0.06"/><line x1="-375.6" y1="-257.7" x2="1514" y2="-59.1" opacity="0.06"/><line x1="-25.3" y1="-510.4" x2="-223.9" y2="1379.2" opacity="0.06"/><line x1="-379.2" y1="-223.9" x2="1510.4" y2="-25.3" opacity="0.06"/><line x1="8.6" y1="-506.9" x2="-190" y2="1382.7" opacity="0.06"/><line x1="-382.7" y1="-190" x2="1506.9" y2="8.6" opacity="0.06"/><line x1="42.4" y1="-503.3" x2="-156.2" y2="1386.3" opacity="0.06"/><line x1="-386.3" y1="-156.2" x2="1503.3" y2="42.4" opacity="0.06"/><line x1="76.2" y1="-499.8" x2="-122.4" y2="1389.8" opacity="0.06"/><line x1="-389.8" y1="-122.4" x2="1499.8" y2="76.2" opacity="0.06"/><line x1="110" y1="-496.2" x2="-88.6" y2="1393.4" opacity="0.06"/><line x1="-393.4" y1="-88.6" x2="1496.2" y2="110" opacity="0.06"/><line x1="143.8" y1="-492.7" x2="-54.8" y2="1396.9" opacity="0.06"/><line x1="-396.9" y1="-54.8" x2="1492.7" y2="143.8" opacity="0.06"/><line x1="177.6" y1="-489.1" x2="-21" y2="1400.5" opacity="0.06"/><line x1="-400.5" y1="-21" x2="1489.1" y2="177.6" opacity="0.06"/><line x1="211.4" y1="-485.6" x2="12.8" y2="1404" opacity="0.06"/><line x1="-404" y1="12.8" x2="1485.6" y2="211.4" opacity="0.06"/><line x1="245.3" y1="-482" x2="46.6" y2="1407.6" opacity="0.06"/><line x1="-407.6" y1="46.6" x2="1482" y2="245.3" opacity="0.06"/><line x1="279.1" y1="-478.5" x2="80.5" y2="1411.1" opacity="0.06"/><line x1="-411.1" y1="80.5" x2="1478.5" y2="279.1" opacity="0.06"/><line x1="312.9" y1="-474.9" x2="114.3" y2="1414.7" opacity="0.06"/><line x1="-414.7" y1="114.3" x2="1474.9" y2="312.9" opacity="0.06"/><line x1="346.7" y1="-471.3" x2="148.1" y2="1418.2" opacity="0.06"/><line x1="-418.2" y1="148.1" x2="1471.3" y2="346.7" opacity="0.06"/><line x1="380.5" y1="-467.8" x2="181.9" y2="1421.8" opacity="0.06"/><line x1="-421.8" y1="181.9" x2="1467.8" y2="380.5" opacity="0.06"/><line x1="414.3" y1="-464.2" x2="215.7" y2="1425.4" opacity="0.06"/><line x1="-425.4" y1="215.7" x2="1464.2" y2="414.3" opacity="0.06"/><line x1="448.1" y1="-460.7" x2="249.5" y2="1428.9" opacity="0.06"/><line x1="-428.9" y1="249.5" x2="1460.7" y2="448.1" opacity="0.06"/><line x1="481.9" y1="-457.1" x2="283.3" y2="1432.5" opacity="0.06"/><line x1="-432.5" y1="283.3" x2="1457.1" y2="481.9" opacity="0.06"/><line x1="515.8" y1="-453.6" x2="317.2" y2="1436" opacity="0.06"/><line x1="-436" y1="317.2" x2="1453.6" y2="515.8" opacity="0.06"/><line x1="549.6" y1="-450" x2="351" y2="1439.6" opacity="0.06"/><line x1="-439.6" y1="351" x2="1450" y2="549.6" opacity="0.06"/><line x1="583.4" y1="-446.5" x2="384.8" y2="1443.1" opacity="0.06"/><line x1="-443.1" y1="384.8" x2="1446.5" y2="583.4" opacity="0.06"/><line x1="617.2" y1="-442.9" x2="418.6" y2="1446.7" opacity="0.06"/><line x1="-446.7" y1="418.6" x2="1442.9" y2="617.2" opacity="0.06"/><line x1="651" y1="-439.4" x2="452.4" y2="1450.2" opacity="0.06"/><line x1="-450.2" y1="452.4" x2="1439.4" y2="651" opacity="0.06"/><line x1="684.8" y1="-435.8" x2="486.2" y2="1453.8" opacity="0.06"/><line x1="-453.8" y1="486.2" x2="1435.8" y2="684.8" opacity="0.06"/><line x1="718.6" y1="-432.3" x2="520" y2="1457.3" opacity="0.06"/><line x1="-457.3" y1="520" x2="1432.3" y2="718.6" opacity="0.06"/><line x1="752.5" y1="-428.7" x2="553.9" y2="1460.9" opacity="0.06"/><line x1="-460.9" y1="553.9" x2="1428.7" y2="752.5" opacity="0.06"/><line x1="786.3" y1="-425.1" x2="587.7" y2="1464.4" opacity="0.06"/><line x1="-464.4" y1="587.7" x2="1425.1" y2="786.3" opacity="0.06"/><line x1="820.1" y1="-421.6" x2="621.5" y2="1468" opacity="0.06"/><line x1="-468" y1="621.5" x2="1421.6" y2="820.1" opacity="0.06"/><line x1="853.9" y1="-418" x2="655.3" y2="1471.6" opacity="0.06"/><line x1="-471.6" y1="655.3" x2="1418" y2="853.9" opacity="0.06"/><line x1="887.7" y1="-414.5" x2="689.1" y2="1475.1" opacity="0.06"/><line x1="-475.1" y1="689.1" x2="1414.5" y2="887.7" opacity="0.06"/><line x1="921.5" y1="-410.9" x2="722.9" y2="1478.7" opacity="0.06"/><line x1="-478.7" y1="722.9" x2="1410.9" y2="921.5" opacity="0.06"/><line x1="955.3" y1="-407.4" x2="756.7" y2="1482.2" opacity="0.06"/><line x1="-482.2" y1="756.7" x2="1407.4" y2="955.3" opacity="0.06"/><line x1="989.2" y1="-403.8" x2="790.6" y2="1485.8" opacity="0.06"/><line x1="-485.8" y1="790.6" x2="1403.8" y2="989.2" opacity="0.06"/><line x1="1023" y1="-400.3" x2="824.4" y2="1489.3" opacity="0.06"/><line x1="-489.3" y1="824.4" x2="1400.3" y2="1023" opacity="0.06"/><line x1="1056.8" y1="-396.7" x2="858.2" y2="1492.9" opacity="0.06"/><line x1="-492.9" y1="858.2" x2="1396.7" y2="1056.8" opacity="0.06"/><line x1="1090.6" y1="-393.2" x2="892" y2="1496.4" opacity="0.06"/><line x1="-496.4" y1="892" x2="1393.2" y2="1090.6" opacity="0.06"/><line x1="1124.4" y1="-389.6" x2="925.8" y2="1500" opacity="0.06"/><line x1="-500" y1="925.8" x2="1389.6" y2="1124.4" opacity="0.06"/><line x1="1158.2" y1="-386.1" x2="959.6" y2="1503.5" opacity="0.06"/><line x1="-503.5" y1="959.6" x2="1386.1" y2="1158.2" opacity="0.06"/><line x1="1192" y1="-382.5" x2="993.4" y2="1507.1" opacity="0.06"/><line x1="-507.1" y1="993.4" x2="1382.5" y2="1192" opacity="0.06"/><line x1="1225.9" y1="-378.9" x2="1027.2" y2="1510.6" opacity="0.06"/><line x1="-510.6" y1="1027.2" x2="1378.9" y2="1225.9" opacity="0.06"/><line x1="1259.7" y1="-375.4" x2="1061.1" y2="1514.2" opacity="0.06"/><line x1="-514.2" y1="1061.1" x2="1375.4" y2="1259.7" opacity="0.06"/><line x1="1293.5" y1="-371.8" x2="1094.9" y2="1517.8" opacity="0.06"/><line x1="-517.8" y1="1094.9" x2="1371.8" y2="1293.5" opacity="0.06"/><line x1="1327.3" y1="-368.3" x2="1128.7" y2="1521.3" opacity="0.06"/><line x1="-521.3" y1="1128.7" x2="1368.3" y2="1327.3" opacity="0.06"/><line x1="1361.1" y1="-364.7" x2="1162.5" y2="1524.9" opacity="0.06"/><line x1="-524.9" y1="1162.5" x2="1364.7" y2="1361.1" opacity="0.06"/><line x1="1394.9" y1="-361.2" x2="1196.3" y2="1528.4" opacity="0.06"/><line x1="-528.4" y1="1196.3" x2="1361.2" y2="1394.9" opacity="0.06"/><line x1="1428.7" y1="-357.6" x2="1230.1" y2="1532" opacity="0.06"/><line x1="-532" y1="1230.1" x2="1357.6" y2="1428.7" opacity="0.06"/><line x1="1462.5" y1="-354.1" x2="1263.9" y2="1535.5" opacity="0.06"/><line x1="-535.5" y1="1263.9" x2="1354.1" y2="1462.5" opacity="0.06"/></g></svg>