<svg xmlns="http://www.w3.org/2000/svg" viewBox="0 0 1000 1000" preserveAspectRatio="xMidYMid slice" fill="none" stroke-linecap="round" stroke-linejoin="round"><g stroke="#0f3d2e" stroke-width="0.6"><line x1="-400" y1="-450" x2="-400" y2="1450" opacity="0.06"/><line x1="-450" y1="-400" x2="1450" y2="-400" opacity="0.06"/><line x1="-360" y1="-450" x2="-360" y2="1450" opacity="0.06"/><line x1="-450" y1="-360" x2="1450" y2="-360" opacity="0.06"/><line x1="-320" y1="-450" x2="-320" y2="1450" opacity="0.06"/><line x1="-450" y1="-320" x2="1450" y2="-320" opacity="0.06"/><line x1="-280" y1="-450" x2="-280" y2="1450" opacity="0.06"/><line x1="-450" y1="-280" x2="1450" y2="-280" opacity="0.06"/><line x1="-240" y1="-450" x2="-240" y2="1450" opacity="0.06"/><line x1="-450" y1="-240" x2="1450" y2="-240" opacity="0.06"/><line x1="-200" y1="-450" x2="-200" y2="1450" opacity="0.06"/><line x1="-450" y1="-200" x2="1450" y2="-200" opacity="0.06"/><line x1="-160" y1="-450" x2="-160" y2="1450" opacity="0.06"/><line x1="-450" y1="-160" x2="1450" y2="-160" opacity="0.06"/><line x1="-120" y1="-450" x2="-120" y2="1450" opacity="0.06"/><line x1="-450" y1="-120" x2="1450" y2="-120" opacity="0.06"/><line x1="-80" y1="-450" x2="-80" y2="1450" opacity="0.06"/><line x1="-450" y1="-80" x2="1450" y2="-80" opacity="0.06"/><line x1="-40" y1="-450" x2="-40" y2="1450" opacity="0.06"/><line x1="-450" y1="-40" x2="1450" y2="-40" opacity="0.06"/><line x1="0" y1="-450" x2="0" y2="1450" opacity="0.06"/><line x1="-450" y1="0" x2="1450" y2="0" opacity="0.06"/><line x1="40" y1="-450" x2="40" y2="1450" opacity="0.06"/><line x1="-450" y1="40" x2="1450" y2="40" opacity="0.06"/><line x1="80" y1="-450" x2="80" y2="1450" opacity="0.06"/><line x1="-450" y1="80" x2="1450" y2="80" opacity="0.06"/><line x1="120" y1="-450" x2="120" y2="1450" opacity="0.06"/><line x1="-450" y1="120" x2="1450" y2="120" opacity="0.06"/><line x1="160" y1="-450" x2="160" y2="1450" opacity="0.06"/><line x1="-450" y1="160" x2="1450" y2="160" opacity="0.06"/><line x1="200" y1="-450" x2="200" y2="1450" opacity="0.06"/><line x1="-450" y1="200" x2="1450" y2="200" opacity="0.06"/><line x1="240" y1="-450" x2="240" y2="1450" opacity="0.06"/><line x1="-450" y1="240" x2="1450" y2="240" opacity="0.06"/><line x1="280" y1="-450" x2="280" y2="1450" opacity="0.06"/><line x1="-450" y1="280" x2="1450" y2="280" opacity="0.06"/><line x1="320" y1="-450" x2="320" y2="1450" opacity="0.06"/><line x1="-450" y1="320" x2="1450" y2="320" opacity="0.06"/><line x1="360" y1="-450" x2="360" y2="1450" opacity="0.06"/><line x1="-450" y1="360" x2="1450" y2="360" opacity="0.06"/><line x1="400" y1="-450" x2="400" y2="1450" opacity="0.06"/><line x1="-450" y1="400" x2="1450" y2="400" opacity="0.06"/><line x1="440" y1="-450" x2="440" y2="1450" opacity="0.06"/><line x1="-450" y1="440" x2="1450" y2="440" opacity="0.06"/><line x1="480" y1="-450" x2="480" y2="1450" opacity="0.06"/><line x1="-450" y1="480" x2="1450" y2="480" opacity="0.06"/><line x1="520" y1="-450" x2="520" y2="1450" opacity="0.06"/><line x1="-450" y1="520" x2="1450" y2="520" opacity="0.06"/><line x1="560" y1="-450" x2="560" y2="1450" opacity="0.06"/><line x1="-450" y1="560" x2="1450" y2="560" opacity="0.06"/><line x1="600" y1="-450" x2="600" y2="1450" opacity="0.06"/><line x1="-450" y1="600" x2="1450" y2="600" opacity="0.06"/><line x1="640" y1="-450" x2="640" y2="1450" opacity="0.06"/><line x1="-450" y1="640" x2="1450" y2="640" opacity="0.06"/><line x1="680" y1="-450" x2="680" y2="1450" opacity="0.06"/><line x1="-450" y1="680" x2="1450" y2="680" opacity="0.06"/><line x1="720" y1="-450" x2="720" y2="1450" opacity="0.06"/><line x1="-450" y1="720" x2="1450" y2="720" opacity="0.06"/><line x1="760" y1="-450" x2="760" y2="1450" opacity="0.06"/><line x1="-450" y1="760" x2="1450" y2="760" opacity="0.06"/><line x1="800" y1="-450" x2="800" y2="1450" opacity="0.06"/><line x1="-450" y1="800" x2="1450" y2="800" opacity="0.06"/><line x1="840" y1="-450" x2="840" y2="1450" opacity="0.06"/><line x1="-450" y1="840" x2="1450" y2="840" opacity="0.06"/><line x1="880" y1="-450" x2="880" y2="1450" opacity="0.06"/><line x1="-450" y1="880" x2="1450" y2="880" opacity="0.06"/><line x1="920" y1="-450" x2="920" y2="1450" opacity="0.06"/><line x1="-450" y1="920" x2="1450" y2="920" opacity="0.06"/><line x1="960" y1="-450" x2="960" y2="1450" opacity="0.06"/><line x1="-450" y1="960" x2="1450" y2="960" opacity="0.06"/><line x1="1000" y1="-450" x2="1000" y2="1450" opacity="0.06"/><line x1="-450" y1="1000" x2="1450" y2="1000" opacity="0.06"/><line x1="1040" y1="-450" x2="1040" y2="1450" opacity="0.06"/><line x1="-450" y1="1040" x2="1450" y2="1040" opacity="0.06"/><line x1="1080" y1="-450" x2="1080" y2="1450" opacity="0.06"/><line x1="-450" y1="1080" x2="1450" y2="1080" opacity="0.06"/><line x1="1120" y1="-450" x2="1120" y2="1450" opacity="0.06"/><line x1="-450" y1="1120" x2="1450" y2="1120" opacity="0.06"/><line x1="1160" y1="-450" x2="1160" y2="1450" opacity="0.06"/><line x1="-450" y1="1160" x2="1450" y2="1160" opacity="0.06"/><line x1="1200" y1="-450" x2="1200" y2="1450" opacity="0.06"/><line x1="-450" y1="1200" x2="1450" y2="1200" opacity="0.06"/><line x1="1240" y1="-450" x2="1240" y2="1450" opacity="0.06"/><line x1="-450" y1="1240" x2="1450" y2="1240" opacity="0.06"/><line x1="1280" y1="-450" x2="1280" y2="1450" opacity="0.06"/><line x1="-450" y1="1280" x2="1450" y2="1280" opacity="0.06"/><line x1="1320" y1="-450" x2="1320" y2="1450" opacity="0.06"/><line x1="-450" y1="1320" x2="1450" y2="1320" opacity="0.06"/><line x1="1360" y1="-450" x2="1360" y2="1450" opacity="0.06"/><line x1="-450" y1="1360" x2="1450" y2="1360" opacity="0.06"/><line x1="1400" y1="-450" x2="1400" y2="1450" opacity="0.06"/><line x1="-450" y1="1400" x2="1450" y2="1400" opacity="0.06"/><line x1="-221.4" y1="-591.9" x2="-551.3" y2="1279.3" opacity="0.06"/><line x1="-279.3" y1="-551.3" x2="1591.9" y2="-221.4" opacity="0.06"/><line x1="-182" y1="-584.9" x2="-511.9" y2="1286.2" opacity="0.06"/><line x1="-286.2" y1="-511.9" x2="1584.9" y2="-182" opacity="0.06"/><line x1="-142.6" y1="-578" x2="-472.5" y2="1293.2" opacity="0.06"/><line x1="-293.2" y1="-472.5" x2="1578" y2="-142.6" opacity="0.06"/><line x1="-103.2" y1="-571" x2="-433.1" y2="1300.1" opacity="0.06"/><line x1="-300.1" y1="-433.1" x2="1571" y2="-103.2" opacity="0.06"/><line x1="-63.8" y1="-564.1" x2="-393.7" y2="1307.1" opacity="0.06"/><line x1="-307.1" y1="-393.7" x2="1564.1" y2="-63.8" opacity="0.06"/><line x1="-24.4" y1="-557.1" x2="-354.3" y2="1314" opacity="0.06"/><line x1="-314" y1="-354.3" x2="1557.1" y2="-24.4" opacity="0.06"/><line x1="15" y1="-550.2" x2="-314.9" y2="1321" opacity="0.06"/><line x1="-321" y1="-314.9" x2="1550.2" y2="15" opacity="0.06"/><line x1="54.4" y1="-543.2" x2="-275.5" y2="1327.9" opacity="0.06"/><line x1="-327.9" y1="-275.5" x2="1543.2" y2="54.4" opacity="0.06"/><line x1="93.8" y1="-536.3" x2="-236.2" y2="1334.9" opacity="0.06"/><line x1="-334.9" y1="-236.2" x2="1536.3" y2="93.8" opacity="0.06"/><line x1="133.2" y1="-529.3" x2="-196.8" y2="1341.8" opacity="0.06"/><line x1="-341.8" y1="-196.8" x2="1529.3" y2="133.2" opacity="0.06"/><line x1="172.6" y1="-522.4" x2="-157.4" y2="1348.7" opacity="0.06"/><line x1="-348.7" y1="-157.4" x2="1522.4" y2="172.6" opacity="0.06"/><line x1="212" y1="-515.4" x2="-118" y2="1355.7" opacity="0.06"/><line x1="-355.7" y1="-118" x2="1515.4" y2="212" opacity="0.06"/><line x1="251.3" y1="-508.5" x2="-78.6" y2="1362.6" opacity="0.06"/><line x1="-362.6" y1="-78.6" x2="1508.5" y2="251.3" opacity="0.06"/><line x1="290.7" y1="-501.6" x2="-39.2" y2="1369.6" opacity="0.06"/><line x1="-369.6" y1="-39.2" x2="1501.6" y2="290.7" opacity="0.06"/><line x1="330.1" y1="-494.6" x2="0.2" y2="1376.5" opacity="0.06"/><line x1="-376.5" y1="0.2" x2="1494.6" y2="330.1" opacity="0.06"/><line x1="369.5" y1="-487.7" x2="39.6" y2="1383.5" opacity="0.06"/><line x1="-383.5" y1="39.6" x2="1487.7" y2="369.5" opacity="0.06"/><line x1="408.9" y1="-480.7" x2="79" y2="1390.4" opacity="0.06"/><line x1="-390.4" y1="79" x2="1480.7" y2="408.9" opacity="0.06"/><line x1="448.3" y1="-473.8" x2="118.4" y2="1397.4" opacity="0.06"/><line x1="-397.4" y1="118.4" x2="1473.8" y2="448.3" opacity="0.06"/><line x1="487.7" y1="-466.8" x2="157.8" y2="1404.3" opacity="0.06"/><line x1="-404.3" y1="157.8" x2="1466.8" y2="487.7" opacity="0.06"/><line x1="527.1" y1="-459.9" x2="197.2" y2="1411.3" opacity="0.06"/><line x1="-411.3" y1="197.2" x2="1459.9" y2="527.1" opacity="0.06"/><line x1="566.5" y1="-452.9" x2="236.6" y2="1418.2" opacity="0.06"/><line x1="-418.2" y1="236.6" x2="1452.9" y2="566.5" opacity="0.06"/><line x1="605.9" y1="-446" x2="275.9" y2="1425.1" opacity="0.06"/><line x1="-425.1" y1="275.9" x2="1446" y2="605.9" opacity="0.06"/><line x1="645.3" y1="-439" x2="315.3" y2="1432.1" opacity="0.06"/><line x1="-432.1" y1="315.3" x2="1439" y2="645.3" opacity="0.06"/><line x1="684.7" y1="-432.1" x2="354.7" y2="1439" opacity="0.06"/><line x1="-439" y1="354.7" x2="1432.1" y2="684.7" opacity="0.06"/><line x1="724.1" y1="-425.1" x2="394.1" y2="1446" opacity="0.06"/><line x1="-446" y1="394.1" x2="1425.1" y2="724.1" opacity="0.06"/><line x1="763.4" y1="-418.2" x2="433.5" y2="1452.9" opacity="0.06"/><line x1="-452.9" y1="433.5" x2="1418.2" y2="763.4" opacity="0.06"/><line x1="802.8" y1="-411.3" x2="472.9" y2="1459.9" opacity="0.06"/><line x1="-459.9" y1="472.9" x2="1411.3" y2="802.8" opacity="0.06"/><line x1="842.2" y1="-404.3" x2="512.3" y2="1466.8" opacity="0.06"/><line x1="-466.8" y1="512.3" x2="1404.3" y2="842.2" opacity="0.06"/><line x1="881.6" y1="-397.4" x2="551.7" y2="1473.8" opacity="0.06"/><line x1="-473.8" y1="551.7" x2="1397.4" y2="881.6" opacity="0.06"/><line x1="921" y1="-390.4" x2="591.1" y2="1480.7" opacity="0.06"/><line x1="-480.7" y1="591.1" x2="1390.4" y2="921" opacity="0.06"/><line x1="960.4" y1="-383.5" x2="630.5" y2="1487.7" opacity="0.06"/><line x1="-487.7" y1="630.5" x2="1383.5" y2="960.4" opacity="0.06"/><line x1="999.8" y1="-376.5" x2="669.9" y2="1494.6" opacity="0.06"/><line x1="-494.6" y1="669.9" x2="1376.5" y2="999.8" opacity="0.06"/><line x1="1039.2" y1="-369.6" x2="709.3" y2="1501.6" opacity="0.06"/><line x1="-501.6" y1="709.3" x2="1369.6" y2="1039.2" opacity="0.06"/><line x1="1078.6" y1="-362.6" x2="748.7" y2="1508.5" opacity="0.06"/><line x1="-508.5" y1="748.7" x2="1362.6" y2="1078.6" opacity="0.06"/><line x1="1118" y1="-355.7" x2="788" y2="1515.4" opacity="0.06"/><line x1="-515.4" y1="788" x2="1355.7" y2="1118" opacity="0.06"/><line x1="1157.4" y1="-348.7" x2="827.4" y2="1522.4" opacity="0.06"/><line x1="-522.4" y1="827.4" x2="1348.7" y2="1157.4" opacity="0.06"/><line x1="1196.8" y1="-341.8" x2="866.8" y2="1529.3" opacity="0.06"/><line x1="-529.3" y1="866.8" x2="1341.8" y2="1196.8" opacity="0.06"/><line x1="1236.2" y1="-334.9" x2="906.2" y2="1536.3" opacity="0.06"/><line x1="-536.3" y1="906.2" x2="1334.9" y2="1236.2" opacity="0.06"/><line x1="1275.5" y1="-327.9" x2="945.6" y2="1543.2" opacity="0.06"/><line x1="-543.2" y1="945.6" x2="1327.9" y2="1275.5" opacity="0.06"/><line x1="1314.9" y1="-321" x2="985" y2="1550.2" opacity="0.06"/><line x1="-550.2" y1="985" x2="1321" y2="1314.9" opacity="0.06"/><line x1="1354.3" y1="-314" x2="1024.4" y2="1557.1" opacity="0.06"/><line x1="-557.1" y1="1024.4" x2="1314" y2="1354.3" opacity="0.06"/><line x1="1393.7" y1="-307.1" x2="1063.8" y2="1564.1" opacity="0.06"/><line x1="-564.1" y1="1063.8" x2="1307.1" y2="1393.7" opacity="0.06"/><line x1="1433.1" y1="-300.1" x2="1103.2" y2="1571" opacity="0.06"/><line x1="-571" y1="1103.2" x2="1300.1" y2="1433.1" opacity="0.06"/><line x1="1472.5" y1="-293.2" x2="1142.6" y2="1578" opacity="0.06"/><line x1="-578" y1="1142.6" x2="1293.2" y2="1472.5" opacity="0.06"/><line x1="1511.9" y1="-286.2" x2="1182" y2="1584.9" opacity="0.06"/><line x1="-584.9" y1="1182" x2="1286.2" y2="1511.9" opacity="0.06"/><line x1="1551.3" y1="-279.3" x2="1221.4" y2="1591.9" opacity="0.06"/><line x1="-591.9" y1="1221.4" x2="1279.3" y2="1551.3" opacity="0.06"/></g></svg>