<svg xmlns="http://www.w3.org/2000/svg" viewBox="0 0 1000 1000" preserveAspectRatio="xMidYMid slice" fill="none" stroke-linecap="round" stroke-linejoin="round"><g stroke="#0f3d2e" stroke-width="0.6"><line x1="-400" y1="-450" x2="-400" y2="1450" opacity="0.06"/><line x1="-450" y1="-400" x2="1450" y2="-400" opacity="0.06"/><line x1="-372" y1="-450" x2="-372" y2="1450" opacity="0.06"/><line x1="-450" y1="-372" x2="1450" y2="-372" opacity="0.06"/><line x1="-344" y1="-450" x2="-344" y2="1450" opacity="0.06"/><line x1="-450" y1="-344" x2="1450" y2="-344" opacity="0.06"/><line x1="-316" y1="-450" x2="-316" y2="1450" opacity="0.06"/><line x1="-450" y1="-316" x2="1450" y2="-316" opacity="0.06"/><line x1="-288" y1="-450" x2="-288" y2="1450" opacity="0.06"/><line x1="-450" y1="-288" x2="1450" y2="-288" opacity="0.06"/><line x1="-260" y1="-450" x2="-260" y2="1450" opacity="0.06"/><line x1="-450" y1="-260" x2="1450" y2="-260" opacity="0.06"/><line x1="-232" y1="-450" x2="-232" y2="1450" opacity="0.06"/><line x1="-450" y1="-232" x2="1450" y2="-232" opacity="0.06"/><line x1="-204" y1="-450" x2="-204" y2="1450" opacity="0.06"/><line x1="-450" y1="-204" x2="1450" y2="-204" opacity="0.06"/><line x1="-176" y1="-450" x2="-176" y2="1450" opacity="0.06"/><line x1="-450" y1="-176" x2="1450" y2="-176" opacity="0.06"/><line x1="-148" y1="-450" x2="-148" y2="1450" opacity="0.06"/><line x1="-450" y1="-148" x2="1450" y2="-148" opacity="0.06"/><line x1="-120" y1="-450" x2="-120" y2="1450" opacity="0.06"/><line x1="-450" y1="-120" x2="1450" y2="-120" opacity="0.06"/><line x1="-92" y1="-450" x2="-92" y2="1450" opacity="0.06"/><line x1="-450" y1="-92" x2="1450" y2="-92" opacity="0.06"/><line x1="-64" y1="-450" x2="-64" y2="1450" opacity="0.06"/><line x1="-450" y1="-64" x2="1450" y2="-64" opacity="0.06"/><line x1="-36" y1="-450" x2="-36" y2="1450" opacity="0.06"/><line x1="-450" y1="-36" x2="1450" y2="-36" opacity="0.06"/><line x1="-8" y1="-450" x2="-8" y2="1450" opacity="0.06"/><line x1="-450" y1="-8" x2="1450" y2="-8" opacity="0.06"/><line x1="20" y1="-450" x2="20" y2="1450" opacity="0.06"/><line x1="-450" y1="20" x2="1450" y2="20" opacity="0.06"/><line x1="48" y1="-450" x2="48" y2="1450" opacity="0.06"/><line x1="-450" y1="48" x2="1450" y2="48" opacity="0.06"/><line x1="76" y1="-450" x2="76" y2="1450" opacity="0.06"/><line x1="-450" y1="76" x2="1450" y2="76" opacity="0.06"/><line x1="104" y1="-450" x2="104" y2="1450" opacity="0.06"/><line x1="-450" y1="104" x2="1450" y2="104" opacity="0.06"/><line x1="132" y1="-450" x2="132" y2="1450" opacity="0.06"/><line x1="-450" y1="132" x2="1450" y2="132" opacity="0.06"/><line x1="160" y1="-450" x2="160" y2="1450" opacity="0.06"/><line x1="-450" y1="160" x2="1450" y2="160" opacity="0.06"/><line x1="188" y1="-450" x2="188" y2="1450" opacity="0.06"/><line x1="-450" y1="188" x2="1450" y2="188" opacity="0.06"/><line x1="216" y1="-450" x2="216" y2="1450" opacity="0.06"/><line x1="-450" y1="216" x2="1450" y2="216" opacity="0.06"/><line x1="244" y1="-450" x2="244" y2="1450" opacity="0.06"/><line x1="-450" y1="244" x2="1450" y2="244" opacity="0.06"/><line x1="272" y1="-450" x2="272" y2="1450" opacity="0.06"/><line x1="-450" y1="272" x2="1450" y2="272" opacity="0.06"/><line x1="300" y1="-450" x2="300" y2="1450" opacity="0.06"/><line x1="-450" y1="300" x2="1450" y2="300" opacity="0.06"/><line x1="328" y1="-450" x2="328" y2="1450" opacity="0.06"/><line x1="-450" y1="328" x2="1450" y2="328" opacity="0.06"/><line x1="356" y1="-450" x2="356" y2="1450" opacity="0.06"/><line x1="-450" y1="356" x2="1450" y2="356" opacity="0.06"/><line x1="384" y1="-450" x2="384" y2="1450" opacity="0.06"/><line x1="-450" y1="384" x2="1450" y2="384" opacity="0.06"/><line x1="412" y1="-450" x2="412" y2="1450" opacity="0.06"/><line x1="-450" y1="412" x2="1450" y2="412" opacity="0.06"/><line x1="440" y1="-450" x2="440" y2="1450" opacity="0.06"/><line x1="-450" y1="440" x2="1450" y2="440" opacity="0.06"/><line x1="468" y1="-450" x2="468" y2="1450" opacity="0.06"/><line x1="-450" y1="468" x2="1450" y2="468" opacity="0.06"/><line x1="496" y1="-450" x2="496" y2="1450" opacity="0.06"/><line x1="-450" y1="496" x2="1450" y2="496" opacity="0.06"/><line x1="524" y1="-450" x2="524" y2="1450" opacity="0.06"/><line x1="-450" y1="524" x2="1450" y2="524" opacity="0.06"/><line x1="552" y1="-450" x2="552" y2="1450" opacity="0.06"/><line x1="-450" y1="552" x2="1450" y2="552" opacity="0.06"/><line x1="580" y1="-450" x2="580" y2="1450" opacity="0.06"/><line x1="-450" y1="580" x2="1450" y2="580" opacity="0.06"/><line x1="608" y1="-450" x2="608" y2="1450" opacity="0.06"/><line x1="-450" y1="608" x2="1450" y2="608" opacity="0.06"/><line x1="636" y1="-450" x2="636" y2="1450" opacity="0.06"/><line x1="-450" y1="636" x2="1450" y2="636" opacity="0.06"/><line x1="664" y1="-450" x2="664" y2="1450" opacity="0.06"/><line x1="-450" y1="664" x2="1450" y2="664" opacity="0.06"/><line x1="692" y1="-450" x2="692" y2="1450" opacity="0.06"/><line x1="-450" y1="692" x2="1450" y2="692" opacity="0.06"/><line x1="720" y1="-450" x2="720" y2="1450" opacity="0.06"/><line x1="-450" y1="720" x2="1450" y2="720" opacity="0.06"/><line x1="748" y1="-450" x2="748" y2="1450" opacity="0.06"/><line x1="-450" y1="748" x2="1450" y2="748" opacity="0.06"/><line x1="776" y1="-450" x2="776" y2="1450" opacity="0.06"/><line x1="-450" y1="776" x2="1450" y2="776" opacity="0.06"/><line x1="804" y1="-450" x2="804" y2="1450" opacity="0.06"/><line x1="-450" y1="804" x2="1450" y2="804" opacity="0.06"/><line x1="832" y1="-450" x2="832" y2="1450" opacity="0.06"/><line x1="-450" y1="832" x2="1450" y2="832" opacity="0.06"/><line x1="860" y1="-450" x2="860" y2="1450" opacity="0.06"/><line x1="-450" y1="860" x2="1450" y2="860" opacity="0.06"/><line x1="888" y1="-450" x2="888" y2="1450" opacity="0.06"/><line x1="-450" y1="888" x2="1450" y2="888" opacity="0.06"/><line x1="916" y1="-450" x2="916" y2="1450" opacity="0.06"/><line x1="-450" y1="916" x2="1450" y2="916" opacity="0.06"/><line x1="944" y1="-450" x2="944" y2="1450" opacity="0.06"/><line x1="-450" y1="944" x2="1450" y2="944" opacity="0.06"/><line x1="972" y1="-450" x2="972" y2="1450" opacity="0.06"/><line x1="-450" y1="972" x2="1450" y2="972" opacity="0.06"/><line x1="1000" y1="-450" x2="1000" y2="1450" opacity="0.06"/><line x1="-450" y1="1000" x2="1450" y2="1000" opacity="0.06"/><line x1="1028" y1="-450" x2="1028" y2="1450" opacity="0.06"/><line x1="-450" y1="1028" x2="1450" y2="1028" opacity="0.06"/><line x1="1056" y1="-450" x2="1056" y2="1450" opacity="0.06"/><line x1="-450" y1="1056" x2="1450" y2="1056" opacity="0.06"/><line x1="1084" y1="-450" x2="1084" y2="1450" opacity="0.06"/><line x1="-450" y1="1084" x2="1450" y2="1084" opacity="0.06"/><line x1="1112" y1="-450" x2="1112" y2="1450" opacity="0.06"/><line x1="-450" y1="1112" x2="1450" y2="1112" opacity="0.06"/><line x1="1140" y1="-450" x2="1140" y2="1450" opacity="0.06"/><line x1="-450" y1="1140" x2="1450" y2="1140" opacity="0.06"/><line x1="1168" y1="-450" x2="1168" y2="1450" opacity="0.06"/><line x1="-450" y1="1168" x2="1450" y2="1168" opacity="0.06"/><line x1="1196" y1="-450" x2="1196" y2="1450" opacity="0.06"/><line x1="-450" y1="1196" x2="1450" y2="1196" opacity="0.06"/><line x1="1224" y1="-450" x2="1224" y2="1450" opacity="0.06"/><line x1="-450" y1="1224" x2="1450" y2="1224" opacity="0.06"/><line x1="1252" y1="-450" x2="1252" y2="1450" opacity="0.06"/><line x1="-450" y1="1252" x2="1450" y2="1252" opacity="0.06"/><line x1="1280" y1="-450" x2="1280" y2="1450" opacity="0.06"/><line x1="-450" y1="1280" x2="1450" y2="1280" opacity="0.06"/><line x1="1308" y1="-450" x2="1308" y2="1450" opacity="0.06"/><line x1="-450" y1="1308" x2="1450" y2="1308" opacity="0.06"/><line x1="1336" y1="-450" x2="1336" y2="1450" opacity="0.06"/><line x1="-450" y1="1336" x2="1450" y2="1336" opacity="0.06"/><line x1="1364" y1="-450" x2="1364" y2="1450" opacity="0.06"/><line x1="-450" y1="1364" x2="1450" y2="1364" opacity="0.06"/><line x1="1392" y1="-450" x2="1392" y2="1450" opacity="0.06"/><line x1="-450" y1="1392" x2="1450" y2="1392" opacity="0.06"/><line x1="-331.5" y1="-510.5" x2="-464.1" y2="1384.9" opacity="0.06"/><line x1="-384.9" y1="-464.1" x2="1510.5" y2="-331.5" opacity="0.06"/><line x1="-303.6" y1="-508.5" x2="-436.1" y2="1386.9" opacity="0.06"/><line x1="-386.9" y1="-436.1" x2="1508.5" y2="-303.6" opacity="0.06"/><line x1="-275.7" y1="-506.6" x2="-408.2" y2="1388.8" opacity="0.06"/><line x1="-388.8" y1="-408.2" x2="1506.6" y2="-275.7" opacity="0.06"/><line x1="-247.7" y1="-504.6" x2="-380.3" y2="1390.8" opacity="0.06"/><line x1="-390.8" y1="-380.3" x2="1504.6" y2="-247.7" opacity="0.06"/><line x1="-219.8" y1="-502.7" x2="-352.3" y2="1392.7" opacity="0.06"/><line x1="-392.7" y1="-352.3" x2="1502.7" y2="-219.8" opacity="0.06"/><line x1="-191.9" y1="-500.7" x2="-324.4" y2="1394.7" opacity="0.06"/><line x1="-394.7" y1="-324.4" x2="1500.7" y2="-191.9" opacity="0.06"/><line x1="-163.9" y1="-498.7" x2="-296.5" y2="1396.6" opacity="0.06"/><line x1="-396.6" y1="-296.5" x2="1498.7" y2="-163.9" opacity="0.06"/><line x1="-136" y1="-496.8" x2="-268.6" y2="1398.6" opacity="0.06"/><line x1="-398.6" y1="-268.6" x2="1496.8" y2="-136" opacity="0.06"/><line x1="-108.1" y1="-494.8" x2="-240.6" y2="1400.5" opacity="0.06"/><line x1="-400.5" y1="-240.6" x2="1494.8" y2="-108.1" opacity="0.06"/><line x1="-80.2" y1="-492.9" x2="-212.7" y2="1402.5" opacity="0.06"/><line x1="-402.5" y1="-212.7" x2="1492.9" y2="-80.2" opacity="0.06"/><line x1="-52.2" y1="-490.9" x2="-184.8" y2="1404.4" opacity="0.06"/><line x1="-404.4" y1="-184.8" x2="1490.9" y2="-52.2" opacity="0.06"/><line x1="-24.3" y1="-489" x2="-156.8" y2="1406.4" opacity="0.06"/><line x1="-406.4" y1="-156.8" x2="1489" y2="-24.3" opacity="0.06"/><line x1="3.6" y1="-487" x2="-128.9" y2="1408.3" opacity="0.06"/><line x1="-408.3" y1="-128.9" x2="1487" y2="3.6" opacity="0.06"/><line x1="31.6" y1="-485.1" x2="-101" y2="1410.3" opacity="0.06"/><line x1="-410.3" y1="-101" x2="1485.1" y2="31.6" opacity="0.06"/><line x1="59.5" y1="-483.1" x2="-73" y2="1412.2" opacity="0.06"/><line x1="-412.2" y1="-73" x2="1483.1" y2="59.5" opacity="0.06"/><line x1="87.4" y1="-481.2" x2="-45.1" y2="1414.2" opacity="0.06"/><line x1="-414.2" y1="-45.1" x2="1481.2" y2="87.4" opacity="0.06"/><line x1="115.4" y1="-479.2" x2="-17.2" y2="1416.2" opacity="0.06"/><line x1="-416.2" y1="-17.2" x2="1479.2" y2="115.4" opacity="0.06"/><line x1="143.3" y1="-477.3" x2="10.8" y2="1418.1" opacity="0.06"/><line x1="-418.1" y1="10.8" x2="1477.3" y2="143.3" opacity="0.06"/><line x1="171.2" y1="-475.3" x2="38.7" y2="1420.1" opacity="0.06"/><line x1="-420.1" y1="38.7" x2="1475.3" y2="171.2" opacity="0.06"/><line x1="199.2" y1="-473.4" x2="66.6" y2="1422" opacity="0.06"/><line x1="-422" y1="66.6" x2="1473.4" y2="199.2" opacity="0.06"/><line x1="227.1" y1="-471.4" x2="94.6" y2="1424" opacity="0.06"/><line x1="-424" y1="94.6" x2="1471.4" y2="227.1" opacity="0.06"/><line x1="255" y1="-469.4" x2="122.5" y2="1425.9" opacity="0.06"/><line x1="-425.9" y1="122.5" x2="1469.4" y2="255" opacity="0.06"/><line x1="283" y1="-467.5" x2="150.4" y2="1427.9" opacity="0.06"/><line x1="-427.9" y1="150.4" x2="1467.5" y2="283" opacity="0.06"/><line x1="310.9" y1="-465.5" x2="178.4" y2="1429.8" opacity="0.06"/><line x1="-429.8" y1="178.4" x2="1465.5" y2="310.9" opacity="0.06"/><line x1="338.8" y1="-463.6" x2="206.3" y2="1431.8" opacity="0.06"/><line x1="-431.8" y1="206.3" x2="1463.6" y2="338.8" opacity="0.06"/><line x1="366.8" y1="-461.6" x2="234.2" y2="1433.7" opacity="0.06"/><line x1="-433.7" y1="234.2" x2="1461.6" y2="366.8" opacity="0.06"/><line x1="394.7" y1="-459.7" x2="262.2" y2="1435.7" opacity="0.06"/><line x1="-435.7" y1="262.2" x2="1459.7" y2="394.7" opacity="0.06"/><line x1="422.6" y1="-457.7" x2="290.1" y2="1437.6" opacity="0.06"/><line x1="-437.6" y1="290.1" x2="1457.7" y2="422.6" opacity="0.06"/><line x1="450.6" y1="-455.8" x2="318" y2="1439.6" opacity="0.06"/><line x1="-439.6" y1="318" x2="1455.8" y2="450.6" opacity="0.06"/><line x1="478.5" y1="-453.8" x2="345.9" y2="1441.5" opacity="0.06"/><line x1="-441.5" y1="345.9" x2="1453.8" y2="478.5" opacity="0.06"/><line x1="506.4" y1="-451.9" x2="373.9" y2="1443.5" opacity="0.06"/><line x1="-443.5" y1="373.9" x2="1451.9" y2="506.4" opacity="0.06"/><line x1="534.3" y1="-449.9" x2="401.8" y2="1445.5" opacity="0.06"/><line x1="-445.5" y1="401.8" x2="1449.9" y2="534.3" opacity="0.06"/><line x1="562.3" y1="-448" x2="429.7" y2="1447.4" opacity="0.06"/><line x1="-447.4" y1="429.7" x2="1448" y2="562.3" opacity="0.06"/><line x1="590.2" y1="-446" x2="457.7" y2="1449.4" opacity="0.06"/><line x1="-449.4" y1="457.7" x2="1446" y2="590.2" opacity="0.06"/><line x1="618.1" y1="-444.1" x2="485.6" y2="1451.3" opacity="0.06"/><line x1="-451.3" y1="485.6" x2="1444.1" y2="618.1" opacity="0.06"/><line x1="646.1" y1="-442.1" x2="513.5" y2="1453.3" opacity="0.06"/><line x1="-453.3" y1="513.5" x2="1442.1" y2="646.1" opacity="0.06"/><line x1="674" y1="-440.2" x2="541.5" y2="1455.2" opacity="0.06"/><line x1="-455.2" y1="541.5" x2="1440.2" y2="674" opacity="0.06"/><line x1="701.9" y1="-438.2" x2="569.4" y2="1457.2" opacity="0.06"/><line x1="-457.2" y1="569.4" x2="1438.2" y2="701.9" opacity="0.06"/><line x1="729.9" y1="-436.2" x2="597.3" y2="1459.1" opacity="0.06"/><line x1="-459.1" y1="597.3" x2="1436.2" y2="729.9" opacity="0.06"/><line x1="757.8" y1="-434.3" x2="625.3" y2="1461.1" opacity="0.06"/><line x1="-461.1" y1="625.3" x2="1434.3" y2="757.8" opacity="0.06"/><line x1="785.7" y1="-432.3" x2="653.2" y2="1463" opacity="0.06"/><line x1="-463" y1="653.2" x2="1432.3" y2="785.7" opacity="0.06"/><line x1="813.7" y1="-430.4" x2="681.1" y2="1465" opacity="0.06"/><line x1="-465" y1="681.1" x2="1430.4" y2="813.7" opacity="0.06"/><line x1="841.6" y1="-428.4" x2="709.1" y2="1466.9" opacity="0.06"/><line x1="-466.9" y1="709.1" x2="1428.4" y2="841.6" opacity="0.06"/><line x1="869.5" y1="-426.5" x2="737" y2="1468.9" opacity="0.06"/><line x1="-468.9" y1="737" x2="1426.5" y2="869.5" opacity="0.06"/><line x1="897.5" y1="-424.5" x2="764.9" y2="1470.8" opacity="0.06"/><line x1="-470.8" y1="764.9" x2="1424.5" y2="897.5" opacity="0.06"/><line x1="925.4" y1="-422.6" x2="792.9" y2="1472.8" opacity="0.06"/><line x1="-472.8" y1="792.9" x2="1422.6" y2="925.4" opacity="0.06"/><line x1="953.3" y1="-420.6" x2="820.8" y2="1474.8" opacity="0.06"/><line x1="-474.8" y1="820.8" x2="1420.6" y2="953.3" opacity="0.06"/><line x1="981.3" y1="-418.7" x2="848.7" y2="1476.7" opacity="0.06"/><line x1="-476.7" y1="848.7" x2="1418.7" y2="981.3" opacity="0.06"/><line x1="1009.2" y1="-416.7" x2="876.6" y2="1478.7" opacity="0.06"/><line x1="-478.7" y1="876.6" x2="1416.7" y2="1009.2" opacity="0.06"/><line x1="1037.1" y1="-414.8" x2="904.6" y2="1480.6" opacity="0.06"/><line x1="-480.6" y1="904.6" x2="1414.8" y2="1037.1" opacity="0.06"/><line x1="1065.1" y1="-412.8" x2="932.5" y2="1482.6" opacity="0.06"/><line x1="-482.6" y1="932.5" x2="1412.8" y2="1065.1" opacity="0.06"/><line x1="1093" y1="-410.9" x2="960.4" y2="1484.5" opacity="0.06"/><line x1="-484.5" y1="960.4" x2="1410.9" y2="1093" opacity="0.06"/><line x1="1120.9" y1="-408.9" x2="988.4" y2="1486.5" opacity="0.06"/><line x1="-486.5" y1="988.4" x2="1408.9" y2="1120.9" opacity="0.06"/><line x1="1148.8" y1="-406.9" x2="1016.3" y2="1488.4" opacity="0.06"/><line x1="-488.4" y1="1016.3" x2="1406.9" y2="1148.8" opacity="0.06"/><line x1="1176.8" y1="-405" x2="1044.2" y2="1490.4" opacity="0.06"/><line x1="-490.4" y1="1044.2" x2="1405" y2="1176.8" opacity="0.06"/><line x1="1204.7" y1="-403" x2="1072.2" y2="1492.3" opacity="0.06"/><line x1="-492.3" y1="1072.2" x2="1403" y2="1204.7" opacity="0.06"/><line x1="1232.6" y1="-401.1" x2="1100.1" y2="1494.3" opacity="0.06"/><line x1="-494.3" y1="1100.1" x2="1401.1" y2="1232.6" opacity="0.06"/><line x1="1260.6" y1="-399.1" x2="1128" y2="1496.2" opacity="0.06"/><line x1="-496.2" y1="1128" x2="1399.1" y2="1260.6" opacity="0.06"/><line x1="1288.5" y1="-397.2" x2="1156" y2="1498.2" opacity="0.06"/><line x1="-498.2" y1="1156" x2="1397.2" y2="1288.5" opacity="0.06"/><line x1="1316.4" y1="-395.2" x2="1183.9" y2="1500.1" opacity="0.06"/><line x1="-500.1" y1="1183.9" x2="1395.2" y2="1316.4" opacity="0.06"/><line x1="1344.4" y1="-393.3" x2="1211.8" y2="1502.1" opacity="0.06"/><line x1="-502.1" y1="1211.8" x2="1393.3" y2="1344.4" opacity="0.06"/><line x1="1372.3" y1="-391.3" x2="1239.8" y2="1504" opacity="0.06"/><line x1="-504" y1="1239.8" x2="1391.3" y2="1372.3" opacity="0.06"/><line x1="1400.2" y1="-389.4" x2="1267.7" y2="1506" opacity="0.06"/><line x1="-506" y1="1267.7" x2="1389.4" y2="1400.2" opacity="0.06"/><line x1="1428.2" y1="-387.4" x2="1295.6" y2="1508" opacity="0.06"/><line x1="-508" y1="1295.6" x2="1387.4" y2="1428.2" opacity="0.06"/><line x1="1456.1" y1="-385.5" x2="1323.6" y2="1509.9" opacity="0.06"/><line x1="-509.9" y1="1323.6" x2="1385.5" y2="1456.1" opacity="0.06"/></g></svg>