<svg xmlns="http://www.w3.org/2000/svg" viewBox="0 0 1000 1000" preserveAspectRatio="xMidYMid slice" fill="none" stroke-linecap="round" stroke-linejoin="round"><g stroke="#0f3d2e" stroke-width="0.6"><line x1="-400" y1="-450" x2="-400" y2="1450" opacity="0.06"/><line x1="-450" y1="-400" x2="1450" y2="-400" opacity="0.06"/><line x1="-354" y1="-450" x2="-354" y2="1450" opacity="0.06"/><line x1="-450" y1="-354" x2="1450" y2="-354" opacity="0.06"/><line x1="-308" y1="-450" x2="-308" y2="1450" opacity="0.06"/><line x1="-450" y1="-308" x2="1450" y2="-308" opacity="0.06"/><line x1="-262" y1="-450" x2="-262" y2="1450" opacity="0.06"/><line x1="-450" y1="-262" x2="1450" y2="-262" opacity="0.06"/><line x1="-216" y1="-450" x2="-216" y2="1450" opacity="0.06"/><line x1="-450" y1="-216" x2="1450" y2="-216" opacity="0.06"/><line x1="-170" y1="-450" x2="-170" y2="1450" opacity="0.06"/><line x1="-450" y1="-170" x2="1450" y2="-170" opacity="0.06"/><line x1="-124" y1="-450" x2="-124" y2="1450" opacity="0.06"/><line x1="-450" y1="-124" x2="1450" y2="-124" opacity="0.06"/><line x1="-78" y1="-450" x2="-78" y2="1450" opacity="0.06"/><line x1="-450" y1="-78" x2="1450" y2="-78" opacity="0.06"/><line x1="-32" y1="-450" x2="-32" y2="1450" opacity="0.06"/><line x1="-450" y1="-32" x2="1450" y2="-32" opacity="0.06"/><line x1="14" y1="-450" x2="14" y2="1450" opacity="0.06"/><line x1="-450" y1="14" x2="1450" y2="14" opacity="0.06"/><line x1="60" y1="-450" x2="60" y2="1450" opacity="0.06"/><line x1="-450" y1="60" x2="1450" y2="60" opacity="0.06"/><line x1="106" y1="-450" x2="106" y2="1450" opacity="0.06"/><line x1="-450" y1="106" x2="1450" y2="106" opacity="0.06"/><line x1="152" y1="-450" x2="152" y2="1450" opacity="0.06"/><line x1="-450" y1="152" x2="1450" y2="152" opacity="0.06"/><line x1="198" y1="-450" x2="198" y2="1450" opacity="0.06"/><line x1="-450" y1="198" x2="1450" y2="198" opacity="0.06"/><line x1="244" y1="-450" x2="244" y2="1450" opacity="0.06"/><line x1="-450" y1="244" x2="1450" y2="244" opacity="0.06"/><line x1="290" y1="-450" x2="290" y2="1450" opacity="0.06"/><line x1="-450" y1="290" x2="1450" y2="290" opacity="0.06"/><line x1="336" y1="-450" x2="336" y2="1450" opacity="0.06"/><line x1="-450" y1="336" x2="1450" y2="336" opacity="0.06"/><line x1="382" y1="-450" x2="382" y2="1450" opacity="0.06"/><line x1="-450" y1="382" x2="1450" y2="382" opacity="0.06"/><line x1="428" y1="-450" x2="428" y2="1450" opacity="0.06"/><line x1="-450" y1="428" x2="1450" y2="428" opacity="0.06"/><line x1="474" y1="-450" x2="474" y2="1450" opacity="0.06"/><line x1="-450" y1="474" x2="1450" y2="474" opacity="0.06"/><line x1="520" y1="-450" x2="520" y2="1450" opacity="0.06"/><line x1="-450" y1="520" x2="1450" y2="520" opacity="0.06"/><line x1="566" y1="-450" x2="566" y2="1450" opacity="0.06"/><line x1="-450" y1="566" x2="1450" y2="566" opacity="0.06"/><line x1="612" y1="-450" x2="612" y2="1450" opacity="0.06"/><line x1="-450" y1="612" x2="1450" y2="612" opacity="0.06"/><line x1="658" y1="-450" x2="658" y2="1450" opacity="0.06"/><line x1="-450" y1="658" x2="1450" y2="658" opacity="0.06"/><line x1="704" y1="-450" x2="704" y2="1450" opacity="0.06"/><line x1="-450" y1="704" x2="1450" y2="704" opacity="0.06"/><line x1="750" y1="-450" x2="750" y2="1450" opacity="0.06"/><line x1="-450" y1="750" x2="1450" y2="750" opacity="0.06"/><line x1="796" y1="-450" x2="796" y2="1450" opacity="0.06"/><line x1="-450" y1="796" x2="1450" y2="796" opacity="0.06"/><line x1="842" y1="-450" x2="842" y2="1450" opacity="0.06"/><line x1="-450" y1="842" x2="1450" y2="842" opacity="0.06"/><line x1="888" y1="-450" x2="888" y2="1450" opacity="0.06"/><line x1="-450" y1="888" x2="1450" y2="888" opacity="0.06"/><line x1="934" y1="-450" x2="934" y2="1450" opacity="0.06"/><line x1="-450" y1="934" x2="1450" y2="934" opacity="0.06"/><line x1="980" y1="-450" x2="980" y2="1450" opacity="0.06"/><line x1="-450" y1="980" x2="1450" y2="980" opacity="0.06"/><line x1="1026" y1="-450" x2="1026" y2="1450" opacity="0.06"/><line x1="-450" y1="1026" x2="1450" y2="1026" opacity="0.06"/><line x1="1072" y1="-450" x2="1072" y2="1450" opacity="0.06"/><line x1="-450" y1="1072" x2="1450" y2="1072" opacity="0.06"/><line x1="1118" y1="-450" x2="1118" y2="1450" opacity="0.06"/><line x1="-450" y1="1118" x2="1450" y2="1118" opacity="0.06"/><line x1="1164" y1="-450" x2="1164" y2="1450" opacity="0.06"/><line x1="-450" y1="1164" x2="1450" y2="1164" opacity="0.06"/><line x1="1210" y1="-450" x2="1210" y2="1450" opacity="0.06"/><line x1="-450" y1="1210" x2="1450" y2="1210" opacity="0.06"/><line x1="1256" y1="-450" x2="1256" y2="1450" opacity="0.06"/><line x1="-450" y1="1256" x2="1450" y2="1256" opacity="0.06"/><line x1="1302" y1="-450" x2="1302" y2="1450" opacity="0.06"/><line x1="-450" y1="1302" x2="1450" y2="1302" opacity="0.06"/><line x1="1348" y1="-450" x2="1348" y2="1450" opacity="0.06"/><line x1="-450" y1="1348" x2="1450" y2="1348" opacity="0.06"/><line x1="1394" y1="-450" x2="1394" y2="1450" opacity="0.06"/><line x1="-450" y1="1394" x2="1450" y2="1394" opacity="0.06"/><line x1="-143.4" y1="-639.5" x2="-603.1" y2="1204.1" opacity="0.06"/><line x1="-204.1" y1="-603.1" x2="1639.5" y2="-143.4" opacity="0.06"/><line x1="-98.8" y1="-628.4" x2="-558.5" y2="1215.2" opacity="0.06"/><line x1="-215.2" y1="-558.5" x2="1628.4" y2="-98.8" opacity="0.06"/><line x1="-54.2" y1="-617.3" x2="-513.8" y2="1226.3" opacity="0.06"/><line x1="-226.3" y1="-513.8" x2="1617.3" y2="-54.2" opacity="0.06"/><line x1="-9.5" y1="-606.1" x2="-469.2" y2="1237.4" opacity="0.06"/><line x1="-237.4" y1="-469.2" x2="1606.1" y2="-9.5" opacity="0.06"/><line x1="35.1" y1="-595" x2="-424.6" y2="1248.6" opacity="0.06"/><line x1="-248.6" y1="-424.6" x2="1595" y2="35.1" opacity="0.06"/><line x1="79.7" y1="-583.9" x2="-379.9" y2="1259.7" opacity="0.06"/><line x1="-259.7" y1="-379.9" x2="1583.9" y2="79.7" opacity="0.06"/><line x1="124.4" y1="-572.7" x2="-335.3" y2="1270.8" opacity="0.06"/><line x1="-270.8" y1="-335.3" x2="1572.7" y2="124.4" opacity="0.06"/><line x1="169" y1="-561.6" x2="-290.7" y2="1282" opacity="0.06"/><line x1="-282" y1="-290.7" x2="1561.6" y2="169" opacity="0.06"/><line x1="213.6" y1="-550.5" x2="-246" y2="1293.1" opacity="0.06"/><line x1="-293.1" y1="-246" x2="1550.5" y2="213.6" opacity="0.06"/><line x1="258.3" y1="-539.4" x2="-201.4" y2="1304.2" opacity="0.06"/><line x1="-304.2" y1="-201.4" x2="1539.4" y2="258.3" opacity="0.06"/><line x1="302.9" y1="-528.2" x2="-156.8" y2="1315.3" opacity="0.06"/><line x1="-315.3" y1="-156.8" x2="1528.2" y2="302.9" opacity="0.06"/><line x1="347.5" y1="-517.1" x2="-112.1" y2="1326.5" opacity="0.06"/><line x1="-326.5" y1="-112.1" x2="1517.1" y2="347.5" opacity="0.06"/><line x1="392.2" y1="-506" x2="-67.5" y2="1337.6" opacity="0.06"/><line x1="-337.6" y1="-67.5" x2="1506" y2="392.2" opacity="0.06"/><line x1="436.8" y1="-494.8" x2="-22.9" y2="1348.7" opacity="0.06"/><line x1="-348.7" y1="-22.9" x2="1494.8" y2="436.8" opacity="0.06"/><line x1="481.4" y1="-483.7" x2="21.8" y2="1359.8" opacity="0.06"/><line x1="-359.8" y1="21.8" x2="1483.7" y2="481.4" opacity="0.06"/><line x1="526.1" y1="-472.6" x2="66.4" y2="1371" opacity="0.06"/><line x1="-371" y1="66.4" x2="1472.6" y2="526.1" opacity="0.06"/><line x1="570.7" y1="-461.5" x2="111" y2="1382.1" opacity="0.06"/><line x1="-382.1" y1="111" x2="1461.5" y2="570.7" opacity="0.06"/><line x1="615.3" y1="-450.3" x2="155.7" y2="1393.2" opacity="0.06"/><line x1="-393.2" y1="155.7" x2="1450.3" y2="615.3" opacity="0.06"/><line x1="660" y1="-439.2" x2="200.3" y2="1404.4" opacity="0.06"/><line x1="-404.4" y1="200.3" x2="1439.2" y2="660" opacity="0.06"/><line x1="704.6" y1="-428.1" x2="244.9" y2="1415.5" opacity="0.06"/><line x1="-415.5" y1="244.9" x2="1428.1" y2="704.6" opacity="0.06"/><line x1="749.2" y1="-416.9" x2="289.6" y2="1426.6" opacity="0.06"/><line x1="-426.6" y1="289.6" x2="1416.9" y2="749.2" opacity="0.06"/><line x1="793.9" y1="-405.8" x2="334.2" y2="1437.7" opacity="0.06"/><line x1="-437.7" y1="334.2" x2="1405.8" y2="793.9" opacity="0.06"/><line x1="838.5" y1="-394.7" x2="378.8" y2="1448.9" opacity="0.06"/><line x1="-448.9" y1="378.8" x2="1394.7" y2="838.5" opacity="0.06"/><line x1="883.1" y1="-383.6" x2="423.5" y2="1460" opacity="0.06"/><line x1="-460" y1="423.5" x2="1383.6" y2="883.1" opacity="0.06"/><line x1="927.8" y1="-372.4" x2="468.1" y2="1471.1" opacity="0.06"/><line x1="-471.1" y1="468.1" x2="1372.4" y2="927.8" opacity="0.06"/><line x1="972.4" y1="-361.3" x2="512.7" y2="1482.3" opacity="0.06"/><line x1="-482.3" y1="512.7" x2="1361.3" y2="972.4" opacity="0.06"/><line x1="1017" y1="-350.2" x2="557.4" y2="1493.4" opacity="0.06"/><line x1="-493.4" y1="557.4" x2="1350.2" y2="1017" opacity="0.06"/><line x1="1061.7" y1="-339" x2="602" y2="1504.5" opacity="0.06"/><line x1="-504.5" y1="602" x2="1339" y2="1061.7" opacity="0.06"/><line x1="1106.3" y1="-327.9" x2="646.6" y2="1515.6" opacity="0.06"/><line x1="-515.6" y1="646.6" x2="1327.9" y2="1106.3" opacity="0.06"/><line x1="1150.9" y1="-316.8" x2="691.3" y2="1526.8" opacity="0.06"/><line x1="-526.8" y1="691.3" x2="1316.8" y2="1150.9" opacity="0.06"/><line x1="1195.6" y1="-305.7" x2="735.9" y2="1537.9" opacity="0.06"/><line x1="-537.9" y1="735.9" x2="1305.7" y2="1195.6" opacity="0.06"/><line x1="1240.2" y1="-294.5" x2="780.5" y2="1549" opacity="0.06"/><line x1="-549" y1="780.5" x2="1294.5" y2="1240.2" opacity="0.06"/><line x1="1284.8" y1="-283.4" x2="825.2" y2="1560.2" opacity="0.06"/><line x1="-560.2" y1="825.2" x2="1283.4" y2="1284.8" opacity="0.06"/><line x1="1329.5" y1="-272.3" x2="869.8" y2="1571.3" opacity="0.06"/><line x1="-571.3" y1="869.8" x2="1272.3" y2="1329.5" opacity="0.06"/><line x1="1374.1" y1="-261.1" x2="914.5" y2="1582.4" opacity="0.06"/><line x1="-582.4" y1="914.5" x2="1261.1" y2="1374.1" opacity="0.06"/><line x1="1418.7" y1="-250" x2="959.1" y2="1593.5" opacity="0.06"/><line x1="-593.5" y1="959.1" x2="1250" y2="1418.7" opacity="0.06"/><line x1="1463.4" y1="-238.9" x2="1003.7" y2="1604.7" opacity="0.06"/><line x1="-604.7" y1="1003.7" x2="1238.9" y2="1463.4" opacity="0.06"/><line x1="1508" y1="-227.8" x2="1048.4" y2="1615.8" opacity="0.06"/><line x1="-615.8" y1="1048.4" x2="1227.8" y2="1508" opacity="0.06"/><line x1="1552.6" y1="-216.6" x2="1093" y2="1626.9" opacity="0.06"/><line x1="-626.9" y1="1093" x2="1216.6" y2="1552.6" opacity="0.06"/><line x1="1597.3" y1="-205.5" x2="1137.6" y2="1638.1" opacity="0.06"/><line x1="-638.1" y1="1137.6" x2="1205.5" y2="1597.3" opacity="0.06"/></g></svg>