<svg xmlns="http://www.w3.org/2000/svg" viewBox="0 0 1000 1000" preserveAspectRatio="xMidYMid slice" fill="none" stroke-linecap="round" stroke-linejoin="round"><g stroke="#0f3d2e" stroke-width="0.6"><path d="M500 714.4L523 728.1L545.9 741.1L568.7 753.2L591.2 764.4L613.5 774.8L635.5 784.2L657.1 792.8L678.2 800.4L698.8 807.1L718.9 812.8L738.4 817.6L757.1 821.4L775.2 824.3L792.5 826.2L808.9 827.2L824.5 827.3L839.2 826.5L853 824.8L865.8 822.2L877.5 818.8L888.3 814.6L898 809.6L906.6 803.8L914.1 797.3L920.4 790.1L925.7 782.2L929.8 773.8L932.7 764.7L934.5 755.1L935.2 745.1L934.7 734.5L933.1 723.6L930.4 712.3L926.6 700.7L921.6 688.8L915.6 676.7L908.6 664.4L900.6 652L891.6 639.4L881.6 626.9L870.7 614.4L858.9 601.9L846.3 589.5L833 577.2L818.8 565.1L804 553.2L788.5 541.6L772.4 530.2L755.8 519.2L738.7 508.6L721.2 498.3L703.2 488.4L685 479L666.4 470.1L647.7 461.6L628.8 453.7L609.8 446.3L590.8 439.4L571.8 433.1L552.8 427.3L534 422.1L515.3 417.5L496.9 413.4L478.8 410L461 407.1L443.6 404.8L426.6 403L410.1 401.8L394.1 401.1L378.6 401L363.8 401.4L349.6 402.2L336 403.5L323.2 405.3L311.1 407.5L299.7 410.1L289.1 413L279.3 416.3L270.3 419.9L262.1 423.8L254.7 427.9L248.2 432.2L242.6 436.8L237.7 441.4L233.8 446.2L230.7 451.1L228.4 455.9L226.9 460.8L226.3 465.7L226.5 470.5L227.4 475.2L229.1 479.8L231.6 484.2L234.8 488.5L238.6 492.5L243.2 496.2L248.3 499.7L254.1 502.9L260.5 505.8L267.3 508.3L274.7 510.4L282.5 512.2L290.7 513.5L299.3 514.4L308.3 514.9L317.5 514.9L327 514.5L336.7 513.6L346.6 512.3L356.6 510.5L366.7 508.3L376.8 505.5L387 502.4L397.1 498.7L407.1 494.7L417 490.2L426.8 485.3L436.3 480L445.7 474.4L454.7 468.4L463.5 462L472 455.4L480.2 448.5L487.9 441.3L495.3 433.9L502.3 426.4L508.8 418.7L514.9 410.8L520.5 402.9L525.7 394.9L530.3 386.9L534.5 379L538.1 371.1L541.3 363.3L543.9 355.6L546 348.2L547.7 340.9L548.8 333.9L549.5 327.2L549.7 320.8L549.4 314.8L548.7 309.2L547.5 304.1L546 299.4L544.1 295.2L541.8 291.5L539.1 288.4L536.2 285.9L532.9 284L529.4 282.7L525.7 282.1L521.8 282.2L517.7 283L513.5 284.4L509.2 286.6L504.8 289.6L500.4 293.2L495.9 297.6L491.5 302.8L487.2 308.7L483 315.3L478.9 322.7L475 330.7L471.2 339.5L467.7 349L464.5 359.2L461.5 370L458.8 381.4L456.5 393.5L454.6 406.1L453 419.3L451.8 433L451.1 447.2L450.7 461.8L450.9 476.8L451.5 492.2L452.6 508L454.1 524L456.2 540.2L458.7 556.6L461.8 573.2L465.3 589.8L469.4 606.5L473.9 623.2L478.9 639.8L484.4 656.3L490.3 672.6L496.7 688.7L503.5 704.6L510.7 720.1L518.3 735.2L526.2 749.9L534.5 764.2L543.1 777.9L551.9 791L561 803.6L570.4 815.4L579.9 826.6L589.5 837L599.3 846.7L609.1 855.5L619 863.5L628.8 870.6L638.6 876.7L648.3 882L657.9 886.2L667.4 889.5L676.6 891.8L685.6 893.1L694.2 893.3L702.6 892.5L710.6 890.6L718.2 887.7L725.3 883.7L731.9 878.7L738.1 872.6L743.7 865.6L748.7 857.5L753 848.4L756.8 838.3L759.9 827.3L762.2 815.3L763.9 802.4L764.8 788.7L765 774.1L764.3 758.7L762.9 742.6L760.7 725.7L757.7 708.2L753.9 690L749.3 671.3L743.8 652L737.6 632.3L730.5 612.2L722.6 591.6L714 570.8L704.5 549.7L694.4 528.4L683.4 507L671.8 485.5L659.5 464L646.5 442.6L632.9 421.3L618.7 400.1L603.9 379.1L588.6 358.5L572.9 338.2L556.6 318.2L540 298.8L523 279.8L505.7 261.5L488.2 243.7L470.4 226.6L452.5 210.2L434.4 194.6L416.3 179.8L398.2 165.8L380.2 152.7L362.2 140.5L344.4 129.3L326.8 119.1L309.5 109.9L292.5 101.7L275.9 94.5L259.6 88.5L243.9 83.5L228.7 79.6L214.1 76.8L200.1 75.1L186.7 74.6L174.1 75.1L162.2 76.7L151.1 79.5L140.8 83.3L131.4 88.2L122.9 94.1L115.4 101.1L108.8 109.1L103.2 118L98.6 127.9L95 138.7L92.4 150.4L90.9 162.9L90.5 176.3L91.2 190.3L92.9 205.1L95.7 220.6L99.6 236.7L104.5 253.3L110.5 270.5L117.6 288.1L125.6 306.2L134.7 324.6L144.8 343.3L155.8 362.2L167.8 381.3L180.7 400.6L194.5 419.9L209 439.3L224.4 458.6L240.6 477.9L257.4 497L274.9 515.9L293.1 534.5L311.8 552.9L331 570.9L350.7 588.5L370.7 605.6L391.2 622.3L411.9 638.4L432.9 653.9L454 668.8L475.3 683.1L496.6 696.7L517.9 709.6L539.2 721.7L560.3 733.1L581.3 743.6L602 753.4L622.4 762.3L642.5 770.3L662.2 777.5L681.4 783.8L700.1 789.3L718.2 793.9L735.7 797.6L752.6 800.4L768.7 802.3L784.1 803.4L798.7 803.6L812.5 803L825.4 801.5L837.4 799.3L848.4 796.2L858.6 792.4L867.7 787.9L875.8 782.6L882.9 776.7L889 770.1L894.1 762.9L898 755.2L900.9 746.9L902.8 738.1L903.6 728.8L903.3 719.1L902 709L899.6 698.6L896.2 687.8L891.8 676.8L886.4 665.6L880 654.3L872.7 642.8L864.5 631.2L855.4 619.5L845.4 607.9L834.7 596.3L823.1 584.8L810.8 573.4L797.8 562.1L784.1 551.1L769.9 540.3L755.1 529.7L739.7 519.4L723.9 509.5L707.7 499.9L691.1 490.7L674.3 481.9L657.1 473.6L639.8 465.6L622.3 458.2L604.7 451.2L587 444.8L569.4 438.8L551.8 433.4L534.3 428.5L517 424.1L499.8 420.3L483 417L466.4 414.2L450.2 412L434.4 410.3L419 409.1L404.1 408.4L389.7 408.2L375.8 408.4L362.6 409.2L349.9 410.3L337.9 411.9L326.5 413.9L315.9 416.2L305.9 418.9L296.7 421.9L288.2 425.2L280.5 428.7L273.6 432.5L267.4 436.5L262 440.7L257.4 445L253.6 449.4L250.6 453.9L248.4 458.4L246.9 463L246.2 467.5L246.2 472L247 476.3L248.5 480.6L250.7 484.7L253.5 488.7L257 492.5L261.1 496L265.8 499.3L271.1 502.3L276.9 505L283.2 507.3L289.9 509.4L297.1 511L304.7 512.3L312.6 513.3L320.9 513.8L329.4 513.9L338.2 513.6L347.2 512.8L356.3 511.6L365.6 510L374.9 508L384.3 505.6L393.7 502.7L403.1 499.4L412.4 495.7L421.6 491.6L430.6 487.1L439.5 482.3L448.2 477.1L456.7 471.6L464.9 465.7L472.8 459.6L480.4 453.3L487.7 446.7L494.6 439.8L501.1 432.9L507.2 425.7L513 418.5L518.2 411.1L523.1 403.7L527.4 396.3L531.4 388.9L534.8 381.6L537.8 374.4L540.3 367.2L542.4 360.3L544 353.5L545.1 347L545.8 340.7L546.1 334.8L545.9 329.1L545.3 323.9L544.3 319L542.9 314.6L541.2 310.6L539.1 307.1L536.7 304.2L534 301.8L531 299.9L527.8 298.7L524.4 298L520.8 298L517 298.6L513.1 299.8L509.1 301.8L505.1 304.4L501 307.7L496.9 311.6L492.8 316.3L488.8 321.7L484.8 327.7L481 334.4L477.4 341.8L473.9 349.8L470.6 358.5L467.5 367.9L464.7 377.8L462.2 388.3L460 399.4L458.1 411L456.6 423.2L455.5 435.8L454.7 448.9L454.3 462.4L454.4 476.3L454.9 490.5L455.8 505.1L457.2 519.9L459 534.9L461.3 550.1L464.1 565.4L467.3 580.9L471 596.3L475.1 611.8L479.7 627.2L484.7 642.5L490.1 657.7L496 672.7L502.2 687.4L508.8 701.8L515.8 715.9L523.1 729.6L530.7 742.9L538.6 755.7L546.8 768L555.2 779.7L563.9 790.8L572.6 801.3L581.6 811.1L590.6 820.1L599.7 828.4L608.9 836L618 842.7L627.1 848.5L636.1 853.5L645.1 857.6L653.8 860.8L662.4 863.1L670.8 864.4L678.9 864.7L686.7 864.1L694.1 862.6L701.2 860L707.9 856.5L714.2 852L719.9 846.5L725.2 840.1L729.9 832.8L734.1 824.5L737.6 815.3L740.6 805.2L742.9 794.2L744.5 782.4L745.5 769.8L745.7 756.4L745.3 742.3L744.1 727.4L742.2 711.9L739.5 695.7L736.1 679L731.9 661.7L727 643.9L721.3 625.6L714.8 607L707.7 588L699.8 568.8L691.1 549.2L681.8 529.5L671.8 509.7L661.1 489.8L649.8 469.8L637.8 449.9L625.3 430.1L612.2 410.5L598.6 391L584.5 371.8L569.9 352.9L554.9 334.4L539.6 316.2L523.9 298.6L507.9 281.5L491.6 264.9L475.2 248.9L458.6 233.6L441.9 219L425.1 205.2L408.3 192.1L391.5 179.8L374.9 168.4L358.3 157.8L342 148.2L325.9 139.5L310 131.7L294.6 125L279.5 119.2L264.8 114.4L250.6 110.6L237 107.9L223.9 106.2L211.4 105.5L199.6 105.8L188.4 107.2L178 109.6L168.4 112.9L159.5 117.3L151.5 122.7L144.4 129L138.1 136.2L132.8 144.4L128.3 153.4L124.8 163.3L122.3 174L120.8 185.5L120.2 197.8L120.7 210.7L122.1 224.3L124.6 238.6L128 253.4L132.4 268.7L137.8 284.6L144.2 300.9L151.6 317.5L159.8 334.6L169.1 351.9L179.1 369.4L190.1 387.1L201.9 405L214.6 422.9L228 440.9L242.1 458.8L257 476.7L272.5 494.4L288.7 511.9L305.4 529.3L322.6 546.3L340.4 563.1L358.6 579.5L377.1 595.4L396 610.9L415.2 626L434.6 640.5L454.2 654.4L473.9 667.7L493.7 680.5L513.5 692.5L533.2 703.9L552.8 714.5L572.3 724.4L591.6 733.6L610.5 742L629.2 749.6L647.5 756.4L665.4 762.4L682.8 767.5L699.7 771.9L716.1 775.5L731.8 778.2L746.9 780.1L761.2 781.2L774.9 781.6L787.8 781.1L799.9 779.9L811.2 777.9L821.6 775.2L831.1 771.8L839.7 767.7L847.4 762.9L854.2 757.5L859.9 751.5L864.8 744.9L868.6 737.8L871.5 730.2L873.3 722.1L874.2 713.6L874.1 704.6L873 695.3L871 685.7L868 675.8L864.1 665.6L859.2 655.3L853.4 644.7L846.8 634.1L839.3 623.4L831 612.6L821.9 601.8L812 591L801.4 580.3L790.1 569.7L778.1 559.3L765.6 549L752.4 538.9L738.8 529.1L724.6 519.5L710 510.3L695.1 501.3L679.7 492.7L664.1 484.5L648.2 476.7L632.2 469.3L616 462.3L599.7 455.8L583.3 449.7L566.9 444.1L550.6 439L534.4 434.4L518.3 430.2L502.4 426.6L486.7 423.5L471.3 420.8L456.2 418.7L441.5 417L427.1 415.8L413.2 415.1L399.8 414.8L386.9 415L374.5 415.6L362.6 416.6L351.4 418L340.8 419.8L330.8 421.9L321.4 424.4L312.8 427.1L304.8 430.1L297.5 433.4L291 436.9L285.2 440.5L280.1 444.4L275.7 448.3L272 452.4L269.1 456.6L266.9 460.8L265.5 465L264.7 469.2L264.6 473.3L265.2 477.4L266.5 481.4L268.4 485.3L271 488.9L274.1 492.5L277.8 495.8L282.1 498.8L286.9 501.7L292.2 504.2L298 506.5L304.2 508.4L310.8 510L317.7 511.3L325 512.2L332.7 512.7L340.5 512.9L348.6 512.6L356.9 512L365.4 511L373.9 509.6L382.6 507.8L391.3 505.5L400 502.9L408.7 499.9L417.4 496.6L425.9 492.8L434.3 488.7L442.6 484.3L450.7 479.5L458.6 474.5L466.3 469.1L473.7 463.5L480.8 457.6L487.5 451.5L494 445.2L500.1 438.8L505.8 432.2L511.2 425.5L516.2 418.7L520.7 411.8L524.8 405L528.5 398.1L531.8 391.3L534.7 384.6L537.1 377.9L539 371.5L540.6 365.1L541.7 359.1L542.4 353.2L542.7 347.6L542.6 342.4L542.1 337.4L541.2 332.9L540 328.7L538.5 324.9L536.6 321.6L534.4 318.8L531.9 316.5L529.2 314.7L526.3 313.4L523.2 312.7L519.8 312.6L516.4 313.1L512.8 314.1L509.1 315.8L505.3 318.2L501.5 321.1L497.7 324.7L493.9 328.9L490.2 333.8L486.5 339.3L483 345.4L479.5 352.2L476.3 359.5L473.2 367.5L470.3 376L467.7 385.2L465.3 394.8L463.2 405L461.4 415.7L460 426.9L458.8 438.6L458.1 450.6L457.7 463.1L457.7 475.9L458.1 489.1L458.9 502.5L460.1 516.2L461.7 530.1L463.8 544.2L466.3 558.4L469.2 572.7L472.5 587L476.3 601.4L480.4 615.7L485 629.9L490 644L495.4 657.9L501.1 671.6L507.2 685.1L513.6 698.2L520.3 711L527.4 723.3L534.7 735.3L542.2 746.8L550 757.7L557.9 768.1L566.1 777.9L574.3 787.1L582.7 795.6L591.1 803.4L599.6 810.5L608.1 816.8L616.5 822.4L624.9 827.2L633.2 831.1L641.4 834.2L649.4 836.4L657.2 837.8L664.7 838.3L672 837.8L679 836.5L685.6 834.3L691.9 831.2L697.7 827.2L703.1 822.2L708.1 816.4L712.5 809.7L716.5 802.2L719.9 793.8L722.7 784.6L724.9 774.5L726.6 763.7L727.6 752.1L727.9 739.8L727.6 726.8L726.6 713.1L724.9 698.8L722.5 683.9L719.5 668.5L715.7 652.5L711.3 636.1L706.1 619.2L700.2 602L693.7 584.5L686.5 566.6L678.6 548.6L670 530.3L660.8 511.9L651 493.5L640.6 475L629.6 456.5L618.1 438.1L606 419.8L593.5 401.8L580.5 383.9L567 366.3L553.2 349.1L539 332.2L524.5 315.8L509.7 299.8L494.7 284.4L479.4 269.5L464 255.2L448.5 241.5L433 228.6L417.4 216.3L401.9 204.8L386.4 194.1L371 184.2L355.9 175.1L340.9 166.9L326.2 159.6L311.8 153.1L297.7 147.6L284 143L270.8 139.4L258 136.7L245.8 134.9L234.1 134.2L223.1 134.3L212.7 135.4L202.9 137.5L193.8 140.5L185.5 144.4L178 149.2L171.2 154.9L165.3 161.5L160.2 169L155.9 177.2L152.5 186.3L150.1 196.1L148.5 206.6L147.8 217.9L148.1 229.8L149.3 242.3L151.4 255.4L154.5 269.1L158.4 283.2L163.3 297.9L169.1 312.9L175.7 328.3L183.3 344L191.7 360L200.9 376.3L211 392.7L221.8 409.2L233.4 425.8L245.7 442.5L258.7 459.1L272.4 475.7L286.7 492.2L301.6 508.5L317 524.6L332.9 540.5L349.3 556L366.1 571.3L383.3 586.2L400.8 600.6L418.5 614.6L436.5 628.2L454.7 641.2L472.9 653.6L491.2 665.5L509.6 676.8L527.9 687.4L546.1 697.4L564.2 706.7L582.1 715.3L599.7 723.2L617.1 730.4L634.1 736.8L650.8 742.5L667 747.4L682.8 751.6L698 755L712.7 757.6L726.7 759.5L740.2 760.7L753 761.1L765 760.8L776.4 759.8L786.9 758.1L796.7 755.7L805.7 752.6L813.8 748.9L821.1 744.6L827.5 739.7L833 734.2L837.6 728.2L841.3 721.6L844.1 714.6L846 707.2L847 699.3L847 691.1L846.2 682.5L844.4 673.7L841.8 664.5L838.3 655.1L833.9 645.5L828.7 635.8L822.6 625.9L815.8 616L808.2 606L799.9 596L790.8 586L781.1 576.1L770.7 566.2L759.7 556.5L748.2 546.9L736.1 537.6L723.5 528.4L710.4 519.5L697 510.9L683.1 502.5L669 494.5L654.5 486.8L639.8 479.5L625 472.6L610 466L594.8 459.9L579.7 454.2L564.5 449L549.3 444.2L534.3 439.8L519.3 435.9L504.5 432.4L490 429.5L475.6 426.9L461.6 424.9L447.9 423.3L434.5 422.1L421.6 421.3L409 421L397 421.1L385.4 421.6L374.3 422.5L363.8 423.7L353.9 425.3L344.5 427.2L335.7 429.5L327.6 432L320.1 434.7L313.3 437.7L307.1 440.9L301.6 444.3L296.7 447.8L292.6 451.5L289.1 455.3L286.3 459.1L284.1 463L282.7 466.9L281.9 470.8L281.7 474.7L282.2 478.5L283.2 482.2L284.9 485.8L287.2 489.2L290 492.5L293.4 495.6L297.3 498.5L301.6 501.1L306.5 503.5L311.8 505.7L317.4 507.5L323.5 509.1L329.9 510.3L336.7 511.2L343.7 511.7L350.9 511.9L358.4 511.8L366.1 511.3L373.9 510.4L381.8 509.1L389.8 507.5L397.9 505.5L406 503.1L414.1 500.4L422.1 497.3L430 493.9L437.9 490.2L445.6 486.1L453.1 481.7L460.5 477.1L467.6 472.2L474.5 467L481.1 461.6L487.5 456L493.5 450.1L499.2 444.2L504.6 438.1L509.6 431.9L514.3 425.6L518.6 419.2L522.4 412.9L525.9 406.5L529.1 400.2L531.8 393.9L534.1 387.8L535.9 381.7L537.4 375.9L538.5 370.2L539.3 364.7L539.6 359.5L539.5 354.6L539.1 349.9L538.4 345.6L537.3 341.7L535.9 338.2L534.2 335L532.2 332.4L530 330.1L527.5 328.4L524.8 327.1L522 326.4L518.9 326.2L515.7 326.5L512.4 327.4L509 328.9L505.5 331L502 333.6L498.4 336.9L494.9 340.7L491.4 345.1L488 350.1L484.7 355.7L481.5 361.9L478.5 368.6L475.6 375.9L472.9 383.7L470.4 392.1L468.2 401L466.2 410.4L464.5 420.2L463.1 430.6L462 441.3L461.2 452.4L460.8 463.9L460.7 475.8L461 487.9L461.7 500.3L462.8 513L464.2 525.9L466.1 538.9L468.3 552.1L471 565.3L474 578.6L477.4 591.9L481.2 605.2L485.4 618.4L490 631.5L494.9 644.4L500.1 657.2L505.7 669.7L511.6 681.9L517.8 693.8L524.3 705.3L531 716.5L538 727.2L545.2 737.4L552.5 747.1L560.1 756.3L567.7 764.9L575.4 772.9L583.3 780.3L591.1 786.9L599 792.9L606.8 798.2L614.6 802.8L622.3 806.5L629.9 809.5L637.4 811.7L644.6 813.1L651.6 813.7L658.4 813.4L665 812.3L671.2 810.4L677 807.6L682.5 804.1L687.6 799.6L692.3 794.4L696.5 788.3L700.2 781.4L703.4 773.7L706.1 765.3L708.3 756.1L709.9 746.2L710.9 735.6L711.3 724.2L711.1 712.3L710.3 699.7L708.9 686.5L706.8 672.8L704 658.6L700.7 643.8L696.6 628.7L691.9 613.1L686.6 597.2L680.6 580.9L674 564.4L666.8 547.7L659 530.8L650.5 513.8L641.5 496.7L632 479.5L621.9 462.4L611.3 445.3L600.1 428.4L588.6 411.6L576.6 395L564.2 378.6L551.4 362.6L538.3 346.9L524.9 331.6L511.2 316.7L497.3 302.3L483.2 288.4L468.9 275L454.6 262.3L440.2 250.2L425.7 238.7L411.3 227.9L396.9 217.9L382.7 208.5L368.6 200L354.6 192.3L340.9 185.3L327.5 179.2L314.4 174L301.7 169.6L289.4 166.1L277.5 163.4L266 161.7L255.1 160.8L244.8 160.8L235 161.7L225.9 163.5L217.4 166.1L209.5 169.6L202.4 173.9L196 179.1L190.4 185.1L185.5 191.9L181.5 199.4L178.2 207.7L175.8 216.6L174.2 226.3L173.5 236.6L173.6 247.6L174.5 259.1L176.4 271.2L179 283.8L182.6 296.9L187 310.4L192.2 324.2L198.2 338.5L205.1 353L212.8 367.8L221.2 382.9L230.4 398L240.3 413.4L251 428.8L262.3 444.2L274.3 459.7L286.9 475L300 490.3L313.8 505.5L328 520.5L342.7 535.2L357.8 549.7L373.4 563.9L389.2 577.7L405.4 591.2L421.8 604.3L438.5 616.9L455.3 629L472.2 640.7L489.2 651.8L506.2 662.3L523.2 672.3L540.1 681.6L556.9 690.4L573.5 698.4L589.9 705.9L606.1 712.6L621.9 718.7L637.4 724.1L652.5 728.7L667.2 732.7L681.4 736L695.1 738.6L708.2 740.5L720.8 741.6L732.8 742.1L744.1 742L754.7 741.1L764.6 739.6L773.8 737.5L782.2 734.7L789.9 731.4L796.8 727.5L802.8 723L808.1 718L812.5 712.5L816 706.5L818.8 700.1L820.7 693.3L821.7 686L821.9 678.5L821.2 670.6L819.7 662.4L817.4 653.9L814.3 645.3L810.3 636.4L805.6 627.4L800.2 618.3L793.9 609L787 599.8L779.4 590.5L771.1 581.2L762.2 572L752.6 562.9L742.5 553.8L731.9 544.9L720.7 536.2L709.1 527.7L697.1 519.4L684.7 511.3L671.9 503.5L658.8 496.1L645.4 488.9L631.9 482.1L618.1 475.6L604.2 469.4L590.2 463.7L576.1 458.4L562 453.4L548 448.9L534 444.8L520.1 441.1L506.4 437.8L492.8 435L479.5 432.6L466.4 430.6L453.7 429L441.2 427.9L429.1 427.1L417.5 426.8L406.2 426.8L395.4 427.2L385.1 428L375.2 429.1L365.9 430.5L357.1 432.2L348.9 434.2L341.3 436.5L334.2 439L327.8 441.8L322 444.7L316.8 447.8L312.2 451.1L308.2 454.5L304.9 458L302.2 461.5L300.1 465.1L298.6 468.7L297.8 472.3L297.5 475.9L297.9 479.5L298.8 482.9L300.3 486.3L302.3 489.5L304.8 492.6L307.9 495.5L311.4 498.2L315.4 500.7L319.8 503L324.6 505L329.8 506.7L335.4 508.2L341.3 509.4L347.5 510.3L354 510.8L360.7 511.1L367.6 511L374.7 510.5L381.9 509.8L389.2 508.7L396.7 507.2L404.1 505.4L411.6 503.3L419.1 500.8L426.6 498L434 494.9L441.2 491.5L448.4 487.7L455.4 483.7L462.3 479.5L468.9 474.9L475.3 470.2L481.5 465.2L487.5 460L493.1 454.6L498.5 449.1L503.5 443.5L508.2 437.7L512.6 431.9L516.6 426L520.3 420.1L523.6 414.2L526.5 408.4L529.1 402.5L531.3 396.8L533.1 391.2L534.5 385.7L535.6 380.4L536.3 375.3L536.7 370.5L536.7 365.8L536.4 361.5L535.7 357.5L534.8 353.8L533.5 350.4L532 347.5L530.2 344.9L528.2 342.8L525.9 341.1L523.4 339.8L520.8 339.1L518 338.8L515 339.1L512 339.8L508.8 341.1L505.6 342.9L502.3 345.3L499.1 348.2L495.8 351.6L492.6 355.7L489.4 360.2L486.3 365.3L483.3 370.9L480.5 377.1L477.8 383.8L475.2 391L472.9 398.7L470.8 406.8L468.9 415.5L467.3 424.6L465.9 434L464.9 443.9L464.1 454.2L463.7 464.8L463.6 475.8L463.8 487L464.4 498.5L465.3 510.2L466.6 522.1L468.2 534.1L470.3 546.3L472.7 558.6L475.4 570.9L478.5 583.3L482 595.6L485.8 607.9L490 620L494.5 632L499.3 643.9L504.5 655.5L509.9 666.9L515.6 678L521.6 688.7L527.8 699.1L534.2 709.1L540.8 718.7L547.6 727.8L554.6 736.4L561.6 744.4L568.8 751.9L576.1 758.9L583.3 765.2L590.6 770.8L597.9 775.8L605.1 780.1L612.3 783.8L619.4 786.6L626.3 788.8L633 790.2L639.6 790.9L645.9 790.8L652 789.9L657.8 788.2L663.3 785.8L668.5 782.6L673.2 778.6L677.6 773.8L681.6 768.3L685.2 762L688.2 755L690.8 747.3L692.9 738.9L694.5 729.8L695.5 720.1L696 709.7L695.9 698.7L695.2 687.1L694 675L692.1 662.3L689.7 649.2L686.6 635.6L683 621.6L678.7 607.2L673.9 592.5L668.4 577.5L662.4 562.2L655.8 546.7L648.6 531.1L640.9 515.3L632.6 499.4L623.8 483.5L614.5 467.6L604.8 451.8L594.5 436.1L583.9 420.5L572.8 405L561.4 389.8L549.6 374.9L537.5 360.3L525.1 346L512.4 332.2L499.5 318.7L486.5 305.8L473.3 293.3L460 281.4L446.6 270.1L433.2 259.3L419.9 249.2L406.5 239.8L393.3 231L380.2 223L367.2 215.7L354.5 209.1L342 203.4L329.8 198.4L318 194.2L306.5 190.8L295.4 188.2L284.7 186.4L274.5 185.5L264.8 185.4L255.7 186.1L247.1 187.6L239.1 189.9L231.7 193L225 196.9L219 201.6L213.7 207L209 213.2L205.2 220.1L202 227.6L199.6 235.9L198.1 244.7L197.2 254.2L197.2 264.3L198 274.9L199.5 286L201.9 297.6L205.1 309.7L209 322.1L213.7 334.9L219.2 348.1L225.5 361.5L232.5 375.2L240.2 389.1L248.6 403.2L257.7 417.4L267.5 431.7L277.9 446L288.9 460.3L300.5 474.6L312.6 488.8L325.2 502.9L338.4 516.8L351.9 530.5L365.9 544L380.2 557.2L394.9 570.1L409.9 582.6L425.1 594.8L440.5 606.6L456 617.9L471.7 628.8L487.4 639.1L503.2 649L519 658.3L534.7 667.1L550.3 675.3L565.7 682.9L581 689.9L596 696.2L610.7 701.9L625.2 707L639.2 711.5L652.9 715.3L666.2 718.4L678.9 720.9L691.2 722.8L702.9 724L714.1 724.5L724.7 724.4L734.7 723.8L744 722.5L752.6 720.6L760.5 718.1L767.7 715.1L774.2 711.6L780 707.5L785 702.9L789.2 697.9L792.6 692.4L795.3 686.6L797.1 680.3L798.2 673.6L798.5 666.6L798 659.4L796.8 651.8L794.7 644L792 636L788.4 627.8L784.2 619.5L779.2 611L773.6 602.5L767.2 593.9L760.3 585.3L752.7 576.7L744.5 568.1L735.7 559.6L726.4 551.2L716.7 543L706.4 534.9L695.7 526.9L684.6 519.2L673.1 511.7L661.3 504.4L649.2 497.4L636.9 490.7L624.3 484.3L611.6 478.3L598.7 472.5L585.7 467.2L572.7 462.1L559.6 457.5L546.6 453.2L533.6 449.4L520.7 445.9L507.9 442.8L495.3 440.1L482.9 437.8L470.8 435.9L458.9 434.4L447.3 433.3L436.1 432.5L425.2 432.1L414.6 432.1L404.6 432.4L394.9 433.1L385.7 434L377 435.3L368.8 436.9L361.1 438.7L353.9 440.8L347.3 443.1L341.2 445.6L335.7 448.3L330.8 451.1L326.5 454.1L322.7 457.3L319.5 460.5L316.9 463.8L314.9 467.1L313.4 470.5L312.6 473.8L312.2 477.2L312.5 480.4L313.2 483.7L314.5 486.8L316.3 489.8L318.6 492.7L321.3 495.4L324.5 497.9L328.2 500.3L332.2 502.4L336.6 504.3L341.4 506L346.5 507.4L351.9 508.5L357.6 509.4L363.6 510L369.8 510.2L376.2 510.2L382.7 509.9L389.4 509.2L396.2 508.2L403.1 506.9L410 505.3L416.9 503.4L423.9 501.1L430.8 498.6L437.7 495.7L444.4 492.6L451.1 489.2L457.6 485.5L464 481.6L470.2 477.4L476.2 473L482 468.5L487.5 463.7L492.8 458.7L497.8 453.6L502.5 448.4L506.9 443.1L511 437.7L514.8 432.3L518.3 426.8L521.4 421.3L524.2 415.9L526.6 410.5L528.7 405.2L530.4 399.9L531.8 394.8L532.9 389.9L533.6 385.1L534 380.6L534.1 376.2L533.8 372.2L533.3 368.4L532.4 364.9L531.3 361.8L529.9 359L528.3 356.5L526.4 354.5L524.4 352.8L522.1 351.6L519.7 350.8L517.1 350.5L514.4 350.7L511.6 351.3L508.7 352.4L505.7 354L502.7 356.1L499.6 358.8L496.6 361.9L493.6 365.5L490.6 369.7L487.8 374.3L485 379.4L482.3 385.1L479.8 391.2L477.4 397.8L475.2 404.9L473.2 412.4L471.4 420.3L469.9 428.7L468.6 437.4L467.6 446.5L466.8 456L466.4 465.8L466.2 475.9L466.4 486.2L466.8 496.9L467.7 507.7L468.8 518.7L470.3 529.9L472.1 541.2L474.3 552.5L476.8 564L479.6 575.4L482.8 586.8L486.3 598.2L490.1 609.5L494.2 620.7L498.7 631.7L503.4 642.5L508.4 653.1L513.6 663.4L519.1 673.5L524.8 683.2L530.8 692.5L536.9 701.4L543.2 709.9L549.6 718L556.1 725.5L562.7 732.6L569.5 739.1L576.2 745L583 750.4L589.7 755.1L596.4 759.2L603.1 762.7L609.7 765.4L616.1 767.6L622.4 769L628.5 769.7L634.4 769.7L640.1 769L645.5 767.6L650.7 765.4L655.5 762.6L660 759L664.1 754.7L667.9 749.7L671.2 744L674.1 737.6L676.6 730.6L678.6 722.9L680.1 714.5L681.2 705.6L681.7 696L681.7 685.9L681.2 675.3L680.1 664.1L678.5 652.4L676.3 640.3L673.6 627.8L670.3 614.8L666.4 601.6L662 588L657 574.1L651.5 560L645.5 545.6L638.9 531.1L631.8 516.5L624.2 501.8L616.2 487.1L607.6 472.3L598.6 457.6L589.2 443L579.4 428.5L569.2 414.2L558.6 400.1L547.7 386.2L536.5 372.6L525.1 359.3L513.4 346.4L501.5 333.9L489.4 321.8L477.2 310.1L464.9 299L452.5 288.4L440.1 278.4L427.7 268.9L415.3 260L403 251.8L390.8 244.3L378.8 237.4L366.9 231.2L355.3 225.7L344 221L332.9 217L322.2 213.7L311.8 211.2L301.9 209.4L292.4 208.4L283.3 208.2L274.7 208.7L266.7 210L259.2 212L252.3 214.8L246 218.3L240.3 222.5L235.2 227.5L230.8 233.1L227.1 239.3L224.1 246.2L221.8 253.8L220.2 261.9L219.3 270.6L219.2 279.9L219.8 289.6L221.1 299.9L223.2 310.6L226 321.7L229.5 333.2L233.8 345L238.7 357.2L244.4 369.6L250.8 382.3L257.9 395.1L265.6 408.1L273.9 421.3L282.9 434.5L292.4 447.8L302.5 461.1L313.2 474.3L324.4 487.5L336 500.6L348.1 513.5L360.6 526.3L373.5 538.8L386.8 551.1L400.4 563.1L414.2 574.8L428.2 586.1L442.5 597.1L456.9 607.7L471.4 617.8L486 627.5L500.6 636.8L515.3 645.5L529.8 653.7L544.3 661.4L558.7 668.5L572.8 675.1L586.8 681.1L600.5 686.5L614 691.3L627.1 695.5L639.8 699.1L652.2 702.1L664.1 704.5L675.5 706.3L686.5 707.6L697 708.2L706.9 708.2L716.2 707.7L724.9 706.5L733 704.9L740.5 702.7L747.3 700L753.4 696.8L758.8 693.1L763.6 688.9L767.6 684.3L770.9 679.3L773.5 673.9L775.3 668.1L776.5 662L776.8 655.6L776.5 648.9L775.5 641.9L773.7 634.7L771.2 627.3L768 619.7L764.2 612L759.7 604.2L754.6 596.3L748.8 588.3L742.4 580.4L735.5 572.4L728 564.4L719.9 556.6L711.4 548.8L702.4 541.1L692.9 533.5L683.1 526.1L672.8 518.9L662.3 511.9L651.4 505.2L640.2 498.6L628.8 492.4L617.1 486.4L605.4 480.7L593.4 475.4L581.4 470.3L569.3 465.6L557.2 461.3L545.1 457.2L533.1 453.6L521.1 450.3L509.2 447.4L497.5 444.8L486 442.6L474.7 440.8L463.6 439.4L452.8 438.3L442.3 437.5L432.2 437.1L422.4 437L413 437.3L403.9 437.8L395.3 438.7L387.2 439.8L379.5 441.2L372.3 442.9L365.5 444.8L359.3 446.9L353.6 449.2L348.4 451.6L343.8 454.3L339.7 457L336.1 459.9L333.1 462.9L330.6 465.9L328.6 469L327.2 472.1L326.3 475.2L325.9 478.3L326 481.4L326.6 484.4L327.8 487.3L329.3 490.1L331.4 492.8L333.9 495.3L336.8 497.7L340.1 499.9L343.8 501.9L347.8 503.7L352.2 505.3L356.9 506.7L361.9 507.8L367.1 508.6L372.6 509.2L378.3 509.5L384.2 509.5L390.2 509.2L396.4 508.7L402.7 507.8L409.1 506.6L415.5 505.2L421.9 503.4L428.4 501.4L434.8 499.1L441.2 496.5L447.5 493.6L453.7 490.5L459.8 487.1L465.7 483.5L471.5 479.7L477.1 475.7L482.4 471.4L487.6 467L492.5 462.5L497.2 457.8L501.7 453L505.8 448L509.6 443L513.2 438L516.5 432.9L519.4 427.9L522 422.8L524.3 417.8L526.3 412.8L528 408L529.3 403.2L530.4 398.6L531.1 394.2L531.5 389.9L531.6 385.9L531.4 382L530.9 378.5L530.2 375.2L529.2 372.2L528 369.6L526.5 367.3L524.8 365.3L522.9 363.7L520.9 362.5L518.6 361.8L516.3 361.4L513.8 361.5L511.1 362L508.5 362.9L505.7 364.4L502.9 366.2L500.1 368.6L497.3 371.4L494.5 374.7L491.7 378.5L489.1 382.7L486.5 387.4L484 392.6L481.6 398.2L479.4 404.2L477.3 410.7L475.4 417.6L473.8 424.9L472.3 432.6L471 440.6L470.1 449L469.3 457.8L468.9 466.8L468.7 476.1L468.8 485.7L469.2 495.5L469.9 505.5L470.9 515.7L472.2 526L473.8 536.5L475.8 547L478.1 557.6L480.6 568.2L483.5 578.8L486.7 589.4L490.2 599.9L494 610.3L498.1 620.5L502.4 630.6L507 640.4L511.8 650L516.9 659.4L522.2 668.4L527.6 677.1L533.3 685.5L539.1 693.4L545 701L551.1 708.1L557.2 714.7L563.4 720.8L569.7 726.4L575.9 731.4L582.2 735.9L588.5 739.8L594.6 743.1L600.7 745.8L606.7 747.9L612.6 749.3L618.3 750L623.8 750.2L629.1 749.6L634.2 748.4L639 746.5L643.5 744L647.7 740.7L651.6 736.9L655.1 732.3L658.3 727.1L661.1 721.3L663.4 714.9L665.4 707.8L666.9 700.2L667.9 692L668.5 683.2L668.5 673.9L668.1 664.1L667.2 653.8L665.8 643.1L663.8 631.9L661.4 620.4L658.4 608.4L654.9 596.2L650.9 583.6L646.4 570.8L641.4 557.7L635.9 544.4L629.8 531L623.3 517.5L616.4 503.9L609 490.2L601.1 476.5L592.8 462.9L584.2 449.3L575.1 435.8L565.7 422.5L555.9 409.4L545.9 396.5L535.6 383.8L525 371.5L514.2 359.4L503.1 347.7L492 336.5L480.7 325.6L469.3 315.2L457.8 305.3L446.3 295.9L434.7 287L423.3 278.7L411.8 271L400.5 263.9L389.3 257.4L378.3 251.6L367.5 246.4L357 241.9L346.7 238.1L336.7 234.9L327 232.5L317.7 230.7L308.8 229.7L300.3 229.4L292.3 229.7L284.8 230.8L277.8 232.6L271.3 235.1L265.3 238.2L259.9 242L255.1 246.5L251 251.6L247.4 257.3L244.5 263.6L242.3 270.5L240.7 278L239.8 286L239.5 294.5L240 303.4L241.1 312.9L242.9 322.7L245.4 333L248.6 343.6L252.4 354.5L256.9 365.7L262.1 377.2L267.9 388.9L274.4 400.8L281.4 412.9L289.1 425.1L297.3 437.3L306 449.6L315.3 461.9L325.2 474.2L335.4 486.5L346.2 498.6L357.3 510.6L368.9 522.5L380.8 534.1L393 545.6L405.6 556.8L418.4 567.6L431.4 578.2L444.6 588.5L457.9 598.3L471.4 607.8L484.9 616.9L498.4 625.5L512 633.7L525.5 641.4L539 648.6L552.3 655.3L565.5 661.4L578.5 667.1L591.2 672.2L603.7 676.7L615.9 680.7L627.8 684.2L639.3 687L650.4 689.4L661.1 691.1L671.4 692.3L681.1 693L690.4 693.1L699.1 692.7L707.3 691.7L714.9 690.3L721.9 688.3L728.4 685.9L734.1 683L739.3 679.6L743.8 675.8L747.6 671.6L750.8 667L753.3 662.1L755.1 656.8L756.3 651.2L756.7 645.3L756.5 639.1L755.6 632.6L754.1 626L751.9 619.2L749.1 612.2L745.6 605L741.6 597.8L736.9 590.5L731.6 583.1L725.8 575.7L719.4 568.3L712.6 560.9L705.2 553.6L697.3 546.4L689.1 539.2L680.4 532.2L671.3 525.3L661.8 518.6L652.1 512.1L642 505.8L631.7 499.7L621.1 493.8L610.4 488.3L599.5 482.9L588.4 477.9L577.3 473.2L566.1 468.8L554.8 464.7L543.6 460.9L532.4 457.5L521.3 454.4L510.3 451.6L499.4 449.2L488.7 447.1L478.2 445.4L467.9 444L457.8 442.9L448.1 442.1L438.6 441.7L429.4 441.6L420.6 441.8L412.2 442.2L404.2 443L396.5 444L389.3 445.3L382.6 446.8L376.3 448.5L370.4 450.4L365.1 452.5L360.2 454.8L355.8 457.2L351.9 459.7L348.5 462.4L345.6 465.1L343.2 467.9L341.3 470.8L339.9 473.7L339 476.6L338.6 479.4L338.6 482.3L339.1 485.1L340.1 487.8L341.5 490.4L343.3 492.9L345.5 495.3L348.2 497.5L351.2 499.6L354.5 501.5L358.2 503.2L362.3 504.7L366.6 506L371.2 507.1L376 507.9L381 508.5L386.3 508.8L391.7 508.8L397.3 508.6L403 508.1L408.8 507.4L414.7 506.3L420.7 505L426.7 503.5L432.6 501.6L438.6 499.5L444.5 497.1L450.4 494.5L456.1 491.7L461.8 488.6L467.3 485.3L472.7 481.8L477.9 478L482.9 474.1L487.8 470.1L492.4 465.9L496.8 461.5L500.9 457.1L504.8 452.5L508.4 447.9L511.7 443.3L514.8 438.6L517.6 433.8L520.1 429.1L522.2 424.5L524.1 419.9L525.7 415.4L527 410.9L528 406.6L528.7 402.5L529.2 398.5L529.3 394.7L529.2 391.2L528.8 387.8L528.1 384.7L527.3 381.9L526.1 379.4L524.8 377.2L523.3 375.4L521.5 373.8L519.7 372.7L517.6 371.9L515.4 371.5L513.1 371.5L510.7 371.9L508.2 372.7L505.7 374L503.1 375.6L500.5 377.8L497.9 380.3L495.3 383.3L492.7 386.7L490.2 390.6L487.8 394.9L485.5 399.6L483.3 404.7L481.2 410.3L479.3 416.2L477.5 422.5L475.9 429.3L474.5 436.3L473.3 443.7L472.4 451.5L471.6 459.5L471.2 467.9L471 476.5L471 485.3L471.3 494.4L471.9 503.6L472.8 513.1L474 522.6L475.5 532.3L477.2 542.1L479.3 551.9L481.7 561.7L484.3 571.5L487.2 581.4L490.4 591.1L493.9 600.7L497.6 610.3L501.6 619.6L505.8 628.8L510.2 637.7L514.9 646.5L519.8 654.9L524.8 663L530 670.8L535.4 678.2L540.9 685.3L546.5 691.9L552.1 698.1L557.9 703.9L563.7 709.1L569.5 713.9L575.3 718.1L581.1 721.9L586.9 725L592.5 727.6L598.1 729.6L603.6 731L608.9 731.8L614 732L619 731.6L623.7 730.6L628.2 728.9L632.4 726.7L636.4 723.8L640 720.3L643.4 716.2L646.4 711.5L649 706.2L651.2 700.3L653.1 693.8L654.6 686.8L655.6 679.3L656.2 671.3L656.3 662.7L656 653.7L655.2 644.2L654 634.3L652.3 624L650.1 613.4L647.4 602.3L644.2 591L640.6 579.4L636.5 567.5L631.9 555.5L626.8 543.2L621.3 530.8L615.4 518.2L609 505.6L602.2 492.9L594.9 480.2L587.3 467.6L579.3 455L571 442.5L562.3 430.1L553.3 417.9L544.1 405.9L534.5 394.1L524.7 382.6L514.7 371.4L504.6 360.5L494.2 350L483.7 339.9L473.2 330.1L462.5 320.9L451.9 312.1L441.2 303.8L430.5 296L419.9 288.8L409.4 282.1L399 276L388.8 270.4L378.7 265.5L368.9 261.3L359.3 257.6L350 254.6L341 252.2L332.3 250.5L324 249.4L316.1 249L308.6 249.3L301.5 250.2L294.9 251.7L288.8 253.9L283.2 256.7L278.1 260.1L273.6 264.2L269.6 268.8L266.3 274L263.5 279.8L261.3 286.1L259.7 293L258.8 300.3L258.4 308.1L258.7 316.4L259.7 325L261.3 334.1L263.5 343.6L266.3 353.3L269.8 363.4L273.9 373.8L278.6 384.4L283.9 395.2L289.8 406.3L296.2 417.4L303.2 428.7L310.7 440.1L318.8 451.5L327.4 462.9L336.4 474.3L345.8 485.7L355.7 496.9L366 508.1L376.7 519.1L387.7 530L399 540.6L410.6 551L422.4 561.1L434.4 571L446.6 580.5L459 589.8L471.4 598.6L484 607.1L496.6 615.1L509.1 622.8L521.7 630L534.2 636.7L546.5 643L558.8 648.8L570.9 654.1L582.7 658.9L594.4 663.2L605.7 667L616.8 670.3L627.5 673.1L637.9 675.3L647.9 677L657.4 678.2L666.6 678.9L675.2 679.1L683.4 678.8L691.1 678L698.2 676.7L704.8 675L710.9 672.8L716.3 670.1L721.2 667.1L725.5 663.6L729.1 659.8L732.1 655.6L734.6 651.1L736.4 646.2L737.5 641L738.1 635.6L738 629.9L737.2 624L735.9 617.8L734 611.5L731.5 605.1L728.3 598.5L724.7 591.8L720.4 585L715.6 578.2L710.3 571.3L704.5 564.4L698.2 557.6L691.4 550.8L684.2 544.1L676.6 537.4L668.6 530.9L660.2 524.5L651.5 518.2L642.5 512.2L633.2 506.3L623.6 500.6L613.9 495.1L603.9 489.9L593.9 485L583.6 480.3L573.3 475.8L562.9 471.7L552.5 467.8L542.1 464.3L531.7 461.1L521.4 458.1L511.2 455.5L501.1 453.2L491.1 451.2L481.3 449.6L471.7 448.2L462.4 447.2L453.3 446.4L444.4 446L435.9 445.8L427.7 446L419.8 446.3L412.3 447L405.2 447.9L398.4 449L392.1 450.4L386.2 452L380.7 453.7L375.6 455.6L371 457.7L366.9 459.9L363.2 462.3L360 464.7L357.2 467.3L354.9 469.8L353.1 472.5L351.7 475.2L350.8 477.8L350.3 480.5L350.3 483.2L350.7 485.7L351.5 488.3L352.8 490.7L354.4 493.1L356.4 495.3L358.8 497.4L361.5 499.3L364.6 501.1L368 502.7L371.7 504.2L375.6 505.4L379.8 506.4L384.3 507.2L388.9 507.8L393.8 508.1L398.8 508.2L403.9 508L409.2 507.6L414.6 507L420.1 506L425.6 504.9L431.1 503.5L436.6 501.8L442.2 499.9L447.7 497.7L453.1 495.3L458.5 492.7L463.7 489.9L468.9 486.8L473.9 483.6L478.8 480.2L483.4 476.6L488 472.9L492.3 469L496.4 465L500.2 460.9L503.9 456.7L507.3 452.4L510.4 448.1L513.3 443.7L515.9 439.3L518.3 435L520.3 430.7L522.1 426.4L523.6 422.2L524.9 418L525.9 414L526.6 410.2L527 406.5L527.2 402.9L527.1 399.6L526.8 396.4L526.2 393.6L525.4 390.9L524.4 388.5L523.2 386.5L521.8 384.7L520.2 383.2L518.5 382.1L516.6 381.3L514.6 380.9L512.5 380.8L510.3 381.1L508 381.8L505.7 382.9L503.3 384.4L500.9 386.3L498.4 388.6L496 391.3L493.6 394.4L491.3 397.9L489.1 401.8L486.9 406.2L484.8 410.9L482.9 415.9L481 421.4L479.4 427.2L477.9 433.4L476.5 439.9L475.4 446.7L474.5 453.8L473.8 461.3L473.3 469L473.1 476.9L473.1 485.1L473.3 493.4L473.9 502L474.6 510.7L475.7 519.6L477 528.5L478.6 537.6L480.5 546.6L482.6 555.8L485 564.9L487.7 574L490.6 583L493.8 592L497.2 600.9L500.9 609.6L504.7 618.1L508.8 626.4L513.1 634.6L517.6 642.4L522.3 650L527.1 657.3L532 664.2L537.1 670.8L542.3 677L547.5 682.9L552.8 688.3L558.2 693.2L563.6 697.7L569 701.7L574.4 705.2L579.7 708.2L585 710.7L590.2 712.7L595.2 714.1L600.2 714.9L605 715.2L609.6 714.9L614 714L618.2 712.6L622.2 710.6L625.9 708L629.4 704.8L632.5 701.1L635.3 696.8L637.8 692L640 686.6L641.7 680.7L643.1 674.3L644.2 667.4L644.8 660L645 652.2L644.7 643.9L644.1 635.2L643 626.1L641.5 616.6L639.5 606.7L637.1 596.6L634.2 586.1L630.9 575.4L627.2 564.4L623 553.2L618.4 541.9L613.4 530.4L607.9 518.8L602 507.1L595.8 495.3L589.1 483.6L582.1 471.8L574.8 460.1L567.1 448.5L559.1 437L550.8 425.7L542.3 414.5L533.4 403.5L524.4 392.8L515.2 382.4L505.7 372.2L496.2 362.4L486.5 353L476.7 343.9L466.8 335.2L456.9 327L447 319.2L437.1 311.9L427.3 305.1L417.5 298.8L407.9 293.1L398.4 287.9L389 283.3L379.9 279.2L370.9 275.7L362.2 272.8L353.8 270.5L345.7 268.8L338 267.8L330.6 267.3L323.5 267.4L316.9 268.1L310.7 269.5L305 271.4L299.7 273.9L294.9 277L290.7 280.7L286.9 284.9L283.7 289.6L281 294.9L278.9 300.7L277.4 307L276.4 313.7L276 320.9L276.2 328.4L277 336.4L278.3 344.8L280.3 353.5L282.8 362.5L286 371.8L289.7 381.4L293.9 391.2L298.8 401.2L304.1 411.4L310 421.8L316.4 432.2L323.3 442.7L330.7 453.3L338.6 463.9L346.9 474.5L355.6 485L364.7 495.5L374.2 505.9L384 516.1L394.2 526.2L404.6 536.1L415.3 545.8L426.3 555.2L437.4 564.4L448.7 573.3L460.1 581.9L471.7 590.2L483.3 598.1L494.9 605.6L506.6 612.8L518.3 619.5L529.8 625.8L541.3 631.7L552.7 637.2L563.9 642.2L575 646.7L585.8 650.8L596.4 654.4L606.7 657.5L616.7 660.1L626.4 662.3L635.7 663.9L644.6 665.1L653.2 665.8L661.3 666.1L668.9 665.9L676.1 665.2L682.8 664.1L689 662.5L694.7 660.6L699.8 658.2L704.4 655.4L708.5 652.3L712 648.8L714.9 645L717.2 640.8L719 636.3L720.1 631.6L720.7 626.6L720.7 621.3L720.2 615.9L719 610.2L717.3 604.4L715.1 598.4L712.3 592.3L708.9 586.1L705.1 579.8L700.7 573.5L695.8 567.1L690.5 560.8L684.7 554.4L678.5 548.1L671.9 541.8L664.9 535.7L657.5 529.6L649.8 523.6L641.8 517.8L633.5 512.2L624.9 506.7L616.1 501.4L607.1 496.3L597.9 491.4L588.5 486.8L579.1 482.4L569.5 478.2L559.9 474.3L550.2 470.7L540.6 467.4L531 464.3L521.4 461.6L511.9 459.1L502.5 456.9L493.2 455.1L484.1 453.5L475.2 452.2L466.5 451.1L458 450.4L449.7 450L441.8 449.8L434.1 449.8L426.8 450.2L419.8 450.7L413.1 451.5L406.8 452.6L400.8 453.8L395.3 455.2L390.1 456.8L385.4 458.6L381 460.5L377.1 462.5L373.6 464.7L370.6 466.9L368 469.3L365.8 471.7L364 474.1L362.6 476.6L361.7 479.1L361.2 481.5L361.1 484L361.4 486.4L362.2 488.8L363.2 491L364.7 493.2L366.5 495.3L368.7 497.3L371.2 499.1L374 500.8L377 502.3L380.4 503.7L384 504.8L387.9 505.8L392 506.6L396.3 507.1L400.8 507.5L405.4 507.6L410.1 507.5L415 507.1L420 506.6L425.1 505.8L430.2 504.7L435.3 503.4L440.4 501.9L445.6 500.2L450.7 498.2L455.7 496L460.7 493.6L465.6 491L470.4 488.3L475.1 485.3L479.6 482.1L484 478.8L488.2 475.4L492.2 471.8L496 468.1L499.7 464.3L503.1 460.4L506.3 456.5L509.2 452.5L511.9 448.4L514.4 444.4L516.6 440.3L518.6 436.3L520.3 432.4L521.7 428.4L522.9 424.6L523.9 420.9L524.5 417.3L525 413.8L525.2 410.5L525.1 407.4L524.9 404.4L524.4 401.7L523.7 399.2L522.8 397L521.7 395L520.5 393.3L519 391.9L517.4 390.8L515.7 390L513.9 389.6L511.9 389.4L509.9 389.7L507.8 390.3L505.6 391.2L503.4 392.6L501.2 394.3L498.9 396.3L496.7 398.8L494.5 401.6L492.3 404.8L490.2 408.4L488.2 412.3L486.2 416.6L484.4 421.3L482.7 426.3L481.1 431.6L479.7 437.3L478.4 443.3L477.4 449.6L476.5 456.1L475.8 463L475.3 470.1L475.1 477.4L475 484.9L475.2 492.7L475.7 500.6L476.4 508.6L477.3 516.8L478.5 525.1L479.9 533.5L481.6 541.9L483.5 550.4L485.7 558.8L488.2 567.3L490.8 575.7L493.8 584L496.9 592.2L500.2 600.3L503.8 608.3L507.6 616L511.5 623.6L515.7 630.9L519.9 638L524.4 644.8L528.9 651.3L533.6 657.5L538.4 663.3L543.3 668.7L548.2 673.8L553.2 678.5L558.2 682.7L563.2 686.5L568.2 689.8L573.1 692.7L578 695.1L582.9 697L587.6 698.3L592.2 699.2L596.7 699.5L601 699.4L605.1 698.6L609 697.4L612.8 695.6L616.2 693.3L619.5 690.5L622.4 687.1L625.1 683.2L627.5 678.8L629.5 673.9L631.2 668.5L632.6 662.6L633.6 656.3L634.2 649.5L634.4 642.3L634.3 634.7L633.8 626.7L632.8 618.3L631.5 609.5L629.7 600.4L627.5 591.1L624.9 581.4L621.9 571.5L618.5 561.4L614.7 551L610.5 540.5L605.9 529.9L600.9 519.1L595.5 508.3L589.8 497.4L583.7 486.5L577.2 475.6L570.5 464.7L563.4 454L556 443.3L548.4 432.7L540.5 422.3L532.3 412.1L524 402.2L515.4 392.4L506.7 383L497.9 373.8L488.9 365L479.8 356.5L470.7 348.4L461.5 340.7L452.3 333.5L443.2 326.6L434 320.3L425 314.4L416 308.9L407.1 304L398.4 299.6L389.9 295.8L381.6 292.5L373.5 289.7L365.7 287.5L358.1 285.8L350.9 284.7L343.9 284.2L337.4 284.2L331.2 284.8L325.4 286L320 287.7L315 289.9L310.5 292.7L306.5 296L302.9 299.9L299.8 304.2L297.3 309L295.2 314.3L293.7 320L292.7 326.2L292.3 332.8L292.4 339.8L293 347.1L294.2 354.8L295.9 362.8L298.2 371.2L301 379.8L304.4 388.6L308.2 397.7L312.6 406.9L317.5 416.3L322.9 425.9L328.8 435.6L335.1 445.3L341.9 455.1L349.1 465L356.8 474.8L364.8 484.6L373.2 494.3L381.9 503.9L391 513.4L400.4 522.8L410 532L419.9 541L430 549.8L440.3 558.4L450.7 566.7L461.3 574.7L472 582.4L482.8 589.8L493.6 596.8L504.4 603.5L515.2 609.9L526 615.8L536.6 621.3L547.2 626.4L557.6 631.1L567.9 635.4L578 639.3L587.8 642.7L597.4 645.6L606.8 648.1L615.8 650.2L624.5 651.8L632.8 653L640.8 653.7L648.4 654L655.6 653.9L662.3 653.3L668.6 652.4L674.4 651L679.7 649.2L684.6 647.1L688.9 644.6L692.8 641.7L696.1 638.5L698.9 635L701.1 631.2L702.8 627.1L704 622.7L704.6 618.1L704.7 613.3L704.3 608.3L703.3 603L701.8 597.7L699.8 592.1L697.3 586.5L694.3 580.8L690.8 575L686.8 569.1L682.4 563.2L677.5 557.3L672.2 551.4L666.5 545.5L660.4 539.7L654 534L647.2 528.3L640.1 522.8L632.7 517.4L625 512.1L617.1 507L609 502L600.6 497.3L592.1 492.7L583.5 488.4L574.7 484.3L565.9 480.4L557 476.8L548 473.4L539.1 470.2L530.1 467.4L521.2 464.8L512.4 462.4L503.7 460.4L495.1 458.6L486.6 457.1L478.3 455.8L470.2 454.8L462.3 454.1L454.6 453.6L447.2 453.4L440 453.5L433.2 453.7L426.6 454.2L420.4 454.9L414.4 455.8L408.9 456.9L403.7 458.2L398.8 459.7L394.4 461.3L390.3 463L386.6 464.9L383.3 466.9L380.4 469L377.9 471.1L375.8 473.4L374.1 475.6L372.8 477.9L371.9 480.2L371.4 482.5L371.2 484.8L371.4 487L372 489.2L373 491.4L374.3 493.4L375.9 495.4L377.9 497.2L380.1 498.9L382.7 500.5L385.5 501.9L388.6 503.2L391.9 504.3L395.5 505.3L399.2 506L403.2 506.6L407.3 506.9L411.6 507L416 507L420.5 506.7L425.1 506.2L429.7 505.5L434.5 504.5L439.2 503.4L444 502L448.8 500.4L453.5 498.7L458.2 496.7L462.8 494.5L467.4 492.1L471.8 489.5L476.2 486.8L480.4 483.9L484.5 480.9L488.4 477.7L492.2 474.4L495.8 471L499.2 467.5L502.4 463.9L505.3 460.2L508.1 456.5L510.7 452.8L513 449L515.1 445.3L516.9 441.5L518.6 437.8L519.9 434.2L521.1 430.6L522 427.2L522.7 423.8L523.1 420.6L523.3 417.5L523.3 414.5L523.1 411.8L522.7 409.2L522.1 406.9L521.3 404.8L520.3 402.9L519.2 401.3L517.9 399.9L516.4 398.9L514.8 398.1L513.2 397.6L511.4 397.5L509.5 397.6L507.5 398.1L505.5 399L503.5 400.1L501.4 401.7L499.3 403.5L497.2 405.7L495.2 408.3L493.2 411.2L491.2 414.5L489.3 418.1L487.5 422L485.8 426.3L484.2 430.9L482.7 435.8L481.4 441L480.2 446.5L479.1 452.3L478.3 458.3L477.6 464.6L477.2 471.2L476.9 477.9L476.8 484.9L477 492L477.4 499.3L478 506.8L478.8 514.4L479.9 522.1L481.1 529.8L482.7 537.6L484.4 545.5L486.4 553.3L488.7 561.2L491.1 568.9L493.8 576.7L496.6 584.3L499.7 591.9L503 599.2L506.5 606.5L510.1 613.5L513.9 620.3L517.8 627L521.9 633.3L526.2 639.4L530.5 645.1L534.9 650.6L539.4 655.7L544 660.5L548.6 664.8L553.2 668.8L557.9 672.4L562.5 675.6L567.1 678.3L571.6 680.6L576.1 682.4L580.5 683.8L584.8 684.6L589 685L593 684.9L596.9 684.4L600.6 683.3L604 681.7L607.3 679.6L610.3 677.1L613.1 674L615.6 670.5L617.9 666.5L619.8 662L621.4 657.1L622.8 651.7L623.7 645.9L624.4 639.7L624.7 633.1L624.6 626.1L624.1 618.7L623.3 610.9L622.1 602.9L620.6 594.5L618.6 585.9L616.3 576.9L613.6 567.8L610.5 558.4L607 548.9L603.1 539.1L598.9 529.3L594.3 519.3L589.4 509.3L584.1 499.2L578.5 489.1L572.6 479L566.4 468.9L559.8 458.9L553.1 449L546 439.2L538.7 429.5L531.2 420L523.5 410.7L515.6 401.7L507.5 392.9L499.3 384.3L491 376.1L482.6 368.2L474.2 360.6L465.7 353.4L457.2 346.6L448.6 340.2L440.2 334.2L431.7 328.7L423.4 323.6L415.2 319L407.1 314.8L399.2 311.2L391.4 308L383.9 305.4L376.6 303.2L369.5 301.6L362.7 300.5L356.3 299.9L350.1 299.9L344.3 300.3L338.9 301.3L333.8 302.8L329.2 304.8L324.9 307.3L321.1 310.3L317.7 313.8L314.8 317.7L312.4 322.1L310.4 327L308.9 332.2L307.9 337.9L307.4 343.9L307.4 350.3L307.9 357.1L308.9 364.2L310.5 371.6L312.5 379.3L315 387.2L318 395.4L321.6 403.7L325.6 412.3L330 421L334.9 429.9L340.3 438.8L346.1 447.9L352.4 456.9L359 466L366 475.2L373.4 484.2L381.1 493.3L389.2 502.2L397.6 511.1L406.2 519.8L415.1 528.3L424.2 536.7L433.6 544.9L443.1 552.9L452.8 560.6L462.6 568.1L472.5 575.3L482.4 582.2L492.5 588.8L502.5 595.1L512.5 601L522.5 606.5L532.4 611.7L542.2 616.5L551.9 621L561.5 625L570.8 628.6L580 631.8L589 634.6L597.6 637L606.1 639L614.2 640.6L622 641.7L629.4 642.5L636.5 642.8L643.2 642.8L649.5 642.3L655.4 641.5L660.9 640.3L665.9 638.7L670.5 636.7L674.6 634.5L678.2 631.9L681.4 629L684.1 625.7L686.2 622.3L687.9 618.5L689.1 614.5L689.7 610.2L689.9 605.8L689.6 601.2L688.7 596.3L687.4 591.4L685.6 586.3L683.4 581.1L680.6 575.8L677.5 570.4L673.8 564.9L669.8 559.5L665.3 554L660.5 548.5L655.3 543.1L649.7 537.7L643.8 532.4L637.5 527.1L631 521.9L624.2 516.9L617.1 512L609.8 507.2L602.3 502.6L594.6 498.2L586.7 493.9L578.7 489.9L570.6 486L562.4 482.4L554.2 479L545.9 475.8L537.6 472.8L529.3 470.1L521 467.7L512.8 465.5L504.7 463.5L496.7 461.8L488.8 460.4L481.1 459.2L473.5 458.2L466.2 457.5L459 457.1L452.1 456.8L445.4 456.8L439 457L432.9 457.5L427 458.1L421.5 458.9L416.3 459.9L411.4 461.1L406.9 462.4L402.7 463.9L398.8 465.5L395.4 467.2L392.2 469L389.5 470.9L387.1 472.9L385.1 475L383.5 477L382.2 479.2L381.3 481.3L380.7 483.4L380.6 485.6L380.7 487.7L381.2 489.7L382 491.7L383.2 493.6L384.7 495.4L386.4 497.1L388.5 498.8L390.8 500.2L393.4 501.6L396.2 502.8L399.3 503.9L402.5 504.7L406 505.5L409.6 506L413.4 506.4L417.3 506.5L421.4 506.5L425.6 506.3L429.8 505.8L434.2 505.2L438.5 504.4L442.9 503.3L447.4 502.1L451.8 500.7L456.2 499L460.5 497.2L464.8 495.2L469.1 493L473.2 490.7L477.3 488.2L481.2 485.5L485 482.7L488.7 479.8L492.2 476.8L495.6 473.6L498.7 470.4L501.7 467L504.5 463.7L507.1 460.2L509.5 456.8L511.7 453.3L513.7 449.8L515.4 446.3L517 442.9L518.3 439.5L519.4 436.2L520.3 433L520.9 429.8L521.4 426.8L521.6 423.9L521.7 421.2L521.5 418.6L521.1 416.2L520.6 414L519.9 412L519 410.2L518 408.7L516.8 407.4L515.4 406.3L514 405.6L512.5 405.1L510.8 404.9L509.1 405L507.3 405.4L505.4 406.2L503.5 407.2L501.6 408.6L499.7 410.2L497.7 412.2L495.8 414.6L494 417.2L492.1 420.2L490.4 423.5L488.7 427.1L487.1 431L485.6 435.2L484.2 439.7L482.9 444.5L481.8 449.5L480.8 454.9L480 460.4L479.3 466.2L478.9 472.3L478.6 478.5L478.5 484.9L478.6 491.5L478.9 498.3L479.5 505.2L480.2 512.2L481.1 519.3L482.3 526.5L483.7 533.7L485.3 541L487.1 548.3L489.1 555.6L491.4 562.8L493.8 570L496.4 577.1L499.3 584.1L502.3 591L505.5 597.7L508.8 604.2L512.3 610.6L516 616.8L519.7 622.7L523.6 628.4L527.6 633.8L531.7 638.9L535.9 643.7L540.1 648.1L544.4 652.3L548.7 656L553 659.4L557.3 662.4L561.5 665L565.8 667.2L569.9 668.9L574 670.2L578 671.1L581.9 671.6L585.7 671.5L589.3 671.1L592.7 670.2L596 668.8L599 666.9L601.9 664.6L604.5 661.9L606.9 658.7L609 655L610.8 650.9L612.4 646.4L613.7 641.5L614.6 636.2L615.3 630.5L615.6 624.4L615.6 618L615.2 611.2L614.5 604L613.5 596.6L612.1 588.9L610.3 580.9L608.2 572.7L605.7 564.2L602.9 555.6L599.7 546.7L596.2 537.7L592.4 528.6L588.2 519.4L583.7 510.1L578.8 500.7L573.7 491.4L568.2 482L562.5 472.6L556.5 463.3L550.2 454.1L543.7 445L537 436L530.1 427.2L522.9 418.6L515.6 410.1L508.2 401.9L500.6 394L492.9 386.3L485.1 378.9L477.3 371.8L469.4 365.1L461.5 358.7L453.6 352.7L445.8 347.1L437.9 341.9L430.2 337.1L422.5 332.8L415 328.8L407.6 325.4L400.4 322.4L393.4 319.8L386.6 317.8L380 316.2L373.7 315.1L367.7 314.5L361.9 314.4L356.5 314.7L351.4 315.6L346.6 316.9L342.2 318.7L338.2 320.9L334.6 323.6L331.4 326.8L328.7 330.4L326.3 334.4L324.4 338.8L323 343.6L322 348.8L321.4 354.3L321.4 360.2L321.8 366.5L322.6 373L324 379.8L325.8 386.9L328 394.2L330.8 401.7L334 409.5L337.6 417.4L341.7 425.5L346.2 433.6L351.1 441.9L356.4 450.3L362.1 458.7L368.2 467.2L374.7 475.6L381.5 484L388.6 492.4L396 500.7L403.7 509L411.7 517.1L419.9 525L428.4 532.8L437 540.5L445.8 547.9L454.8 555.1L463.8 562.1L473 568.8L482.2 575.2L491.5 581.4L500.8 587.2L510.1 592.8L519.4 598L528.6 602.9L537.7 607.4L546.7 611.5L555.6 615.3L564.3 618.8L572.9 621.8L581.2 624.5L589.3 626.8L597.1 628.7L604.7 630.2L612 631.3L618.9 632L625.6 632.4L631.9 632.4L637.8 632.1L643.3 631.3L648.4 630.3L653.2 628.9L657.5 627.1L661.4 625.1L664.8 622.7L667.8 620L670.3 617.1L672.4 613.9L674 610.5L675.2 606.8L675.9 602.9L676.1 598.8L675.9 594.5L675.2 590.1L674 585.5L672.4 580.8L670.4 576L667.9 571L665.1 566.1L661.8 561L658.1 556L654 550.9L649.6 545.8L644.8 540.8L639.7 535.8L634.2 530.8L628.5 525.9L622.5 521.1L616.2 516.4L609.7 511.8L602.9 507.4L596 503.1L588.9 499L581.6 495L574.2 491.2L566.7 487.6L559.1 484.2L551.4 481L543.8 478L536 475.2L528.4 472.7L520.7 470.4L513.1 468.3L505.5 466.5L498.1 464.8L490.8 463.5L483.6 462.3L476.6 461.4L469.7 460.7L463 460.2L456.6 460L450.4 459.9L444.4 460.1L438.6 460.5L433.2 461L428 461.8L423.1 462.7L418.5 463.7L414.3 464.9L410.3 466.3L406.7 467.7L403.4 469.3L400.5 471L397.9 472.7L395.6 474.6L393.7 476.5L392.2 478.4L390.9 480.4L390 482.3L389.5 484.3L389.2 486.3L389.3 488.2L389.8 490.1L390.5 492L391.5 493.8L392.8 495.5L394.4 497.1L396.3 498.6L398.4 500L400.7 501.3L403.3 502.4L406.1 503.4L409.1 504.3L412.3 505L415.6 505.5L419.1 505.9L422.8 506L426.5 506L430.4 505.9L434.3 505.5L438.3 504.9L442.3 504.2L446.4 503.2L450.5 502.1L454.6 500.8L458.7 499.3L462.8 497.7L466.8 495.9L470.7 493.9L474.6 491.7L478.3 489.4L482 487L485.6 484.4L489 481.7L492.3 478.9L495.4 476L498.4 473L501.2 469.9L503.8 466.8L506.2 463.6L508.5 460.4L510.6 457.2L512.4 454L514.1 450.7L515.5 447.6L516.8 444.4L517.8 441.3L518.7 438.3L519.3 435.4L519.8 432.6L520 429.8L520.1 427.3L520 424.9L519.7 422.6L519.2 420.5L518.5 418.7L517.8 417L516.8 415.5L515.7 414.3L514.5 413.3L513.2 412.5L511.8 412.1L510.3 411.8L508.7 411.9L507 412.2L505.3 412.8L503.6 413.8L501.8 415L500 416.5L498.2 418.3L496.4 420.4L494.7 422.8L493 425.5L491.3 428.5L489.7 431.8L488.2 435.4L486.8 439.3L485.5 443.4L484.3 447.8L483.3 452.4L482.3 457.3L481.6 462.5L480.9 467.8L480.5 473.4L480.2 479.1L480.1 485.1L480.1 491.2L480.4 497.4L480.9 503.8L481.5 510.3L482.4 516.9L483.4 523.5L484.7 530.2L486.1 537L487.8 543.7L489.6 550.4L491.7 557.2L493.9 563.8L496.3 570.4L498.9 576.9L501.7 583.3L504.6 589.6L507.7 595.7L510.9 601.7L514.3 607.4L517.7 612.9L521.3 618.2L525 623.3L528.8 628.1L532.7 632.5L536.6 636.7L540.5 640.6L544.5 644.2L548.5 647.3L552.5 650.2L556.4 652.6L560.4 654.7L564.3 656.4L568.1 657.7L571.8 658.6L575.4 659.1L578.9 659.1L582.3 658.8L585.5 658L588.5 656.7L591.4 655.1L594.1 653L596.5 650.5L598.8 647.6L600.8 644.3L602.5 640.6L604 636.5L605.2 632L606.2 627.1L606.8 621.9L607.2 616.3L607.2 610.4L606.9 604.1L606.3 597.6L605.4 590.7L604.2 583.6" opacity="0.1"/></g></svg>