<svg xmlns="http://www.w3.org/2000/svg" viewBox="0 0 1000 1000" preserveAspectRatio="xMidYMid slice" fill="none" stroke-linecap="round" stroke-linejoin="round"><g stroke="#0f3d2e" stroke-width="0.6"><path d="M648.2 500L667.6 523L686.5 545.9L704.7 568.7L722.2 591.2L739 613.5L755 635.5L770.2 657.1L784.6 678.3L798 698.9L810.6 719L822.2 738.5L832.8 757.2L842.4 775.3L851.1 792.6L858.7 809.1L865.3 824.7L870.8 839.5L875.3 853.2L878.7 866L881.1 877.8L882.5 888.6L882.8 898.3L882 906.9L880.3 914.5L877.6 920.9L873.9 926.1L869.3 930.2L863.7 933.2L857.2 935L849.9 935.7L841.8 935.3L832.8 933.7L823.1 931L812.7 927.1L801.6 922.2L789.9 916.2L777.5 909.2L764.7 901.2L751.3 892.2L737.6 882.2L723.4 871.3L708.9 859.5L694 846.9L679 833.5L663.7 819.4L648.3 804.6L632.9 789.1L617.4 773L601.8 756.3L586.4 739.2L571.1 721.6L555.9 703.7L540.9 685.4L526.2 666.8L511.8 648L497.7 629.1L483.9 610.1L470.6 591L457.7 571.9L445.3 552.9L433.4 534.1L422 515.4L411.2 496.9L401 478.7L391.4 460.9L382.5 443.4L374.1 426.4L366.5 409.8L359.5 393.8L353.2 378.3L347.5 363.4L342.6 349.2L338.3 335.6L334.7 322.7L331.8 310.5L329.6 299.1L328 288.4L327.1 278.6L326.8 269.5L327.1 261.3L328 253.9L329.5 247.4L331.5 241.7L334.1 236.9L337.2 232.9L340.7 229.7L344.7 227.4L349 226L353.8 225.3L358.9 225.5L364.3 226.4L370 228.1L375.9 230.6L382 233.8L388.2 237.6L394.6 242.2L401.1 247.4L407.6 253.2L414.1 259.5L420.7 266.4L427.1 273.8L433.5 281.6L439.7 289.9L445.8 298.5L451.7 307.5L457.3 316.8L462.8 326.3L467.9 336L472.7 345.9L477.2 356L481.4 366.1L485.2 376.3L488.6 386.5L491.6 396.6L494.2 406.7L496.4 416.6L498.1 426.4L499.4 436L500.2 445.4L500.6 454.5L500.6 463.4L500.1 471.9L499.1 480.1L497.7 487.9L495.9 495.3L493.7 502.3L491.1 508.9L488.1 515L484.7 520.6L481 525.8L476.9 530.5L472.6 534.6L467.9 538.3L463 541.5L457.9 544.1L452.7 546.3L447.2 547.9L441.6 549.1L435.9 549.8L430.2 549.9L424.4 549.7L418.6 549L412.9 547.8L407.3 546.3L401.7 544.3L396.3 542L391.1 539.4L386.2 536.4L381.4 533.1L377 529.6L372.9 525.9L369.1 521.9L365.7 517.8L362.7 513.6L360.2 509.2L358.1 504.8L356.5 500.4L355.5 495.9L354.9 491.5L355 487.1L355.6 482.9L356.8 478.8L358.5 474.8L361 471L364 467.5L367.6 464.2L371.9 461.2L376.8 458.6L382.4 456.2L388.6 454.3L395.3 452.7L402.7 451.5L410.7 450.7L419.3 450.4L428.4 450.5L438.1 451.1L448.3 452.2L459 453.8L470.2 455.9L481.9 458.5L493.9 461.5L506.3 465.1L519.1 469.2L532.1 473.7L545.5 478.8L559 484.3L572.8 490.2L586.7 496.7L600.7 503.5L614.8 510.8L628.8 518.4L642.9 526.4L656.8 534.7L670.6 543.4L684.2 552.3L697.7 561.5L710.8 570.9L723.6 580.5L736 590.2L748.1 600.1L759.6 610L770.7 619.9L781.2 629.9L791.1 639.8L800.4 649.6L809.1 659.2L817 668.8L824.1 678.1L830.5 687.1L836.1 695.9L840.9 704.3L844.8 712.4L847.8 720L849.9 727.2L851.1 734L851.3 740.1L850.6 745.8L848.9 750.8L846.3 755.3L842.7 759.1L838.1 762.2L832.5 764.6L826 766.2L818.5 767.2L810.1 767.4L800.7 766.7L790.4 765.3L779.2 763.1L767.2 760.1L754.3 756.3L740.6 751.6L726.1 746.1L710.9 739.8L695 732.7L678.4 724.7L661.2 716L643.4 706.5L625.1 696.2L606.3 685.2L587 673.5L567.4 661L547.4 647.9L527.2 634.2L506.7 619.9L486.1 605L465.4 589.5L444.7 573.6L423.9 557.2L403.3 540.4L382.7 523.2L362.4 505.8L342.3 488L322.5 470.1L303.1 452L284.1 433.7L265.6 415.5L247.6 397.2L230.2 378.9L213.5 360.8L197.4 342.8L182.1 325L167.5 307.5L153.8 290.3L140.9 273.5L128.9 257.1L117.9 241.2L107.8 225.8L98.8 211L90.8 196.8L83.8 183.3L77.9 170.5L73.1 158.5L69.4 147.3L66.8 136.9L65.3 127.4L65 118.8L65.8 111.1L67.7 104.4L70.7 98.7L74.9 94L80.1 90.4L86.5 87.8L93.9 86.3L102.4 85.8L111.9 86.5L122.3 88.2L133.8 91L146.2 94.9L159.4 99.9L173.5 106L188.5 113.1L204.2 121.2L220.6 130.4L237.7 140.6L255.4 151.8L273.7 163.9L292.5 176.9L311.8 190.8L331.5 205.5L351.5 221.1L371.8 237.4L392.4 254.5L413.1 272.2L434 290.5L454.9 309.5L475.8 328.9L496.7 348.8L517.4 369.1L538 389.8L558.3 410.8L578.4 432L598 453.4L617.3 475L636.2 496.6L654.5 518.2L672.3 539.7L689.5 561.1L706.1 582.3L722 603.3L737.1 624L751.5 644.4L765.1 664.3L777.9 683.7L789.8 702.7L800.9 721.1L811 738.8L820.2 755.9L828.5 772.3L835.8 787.9L842.1 802.7L847.5 816.6L851.8 829.7L855.2 841.9L857.6 853.1L859 863.4L859.5 872.7L859 880.9L857.5 888.2L855.1 894.3L851.7 899.5L847.5 903.5L842.4 906.5L836.5 908.4L829.8 909.2L822.2 908.9L813.9 907.6L804.9 905.2L795.2 901.8L784.9 897.3L774 891.9L762.5 885.4L750.5 878L738.1 869.7L725.2 860.5L711.9 850.4L698.3 839.5L684.5 827.7L670.3 815.3L656 802.1L641.6 788.3L627.1 773.8L612.5 758.8L598 743.2L583.4 727.2L569 710.8L554.8 694L540.7 676.8L526.8 659.4L513.2 641.8L499.9 624.1L486.9 606.2L474.3 588.3L462.2 570.4L450.5 552.5L439.2 534.8L428.5 517.2L418.2 499.8L408.6 482.7L399.4 465.9L390.9 449.5L383 433.4L375.7 417.8L369 402.6L363 388L357.6 373.9L352.8 360.4L348.7 347.6L345.3 335.3L342.4 323.8L340.2 313L338.7 302.8L337.7 293.5L337.3 284.9L337.5 277L338.3 270L339.6 263.7L341.5 258.2L343.8 253.6L346.6 249.7L349.8 246.6L353.5 244.3L357.6 242.8L362 242.1L366.7 242.1L371.7 242.9L377 244.4L382.5 246.6L388.2 249.5L394.1 253L400.1 257.2L406.1 261.9L412.3 267.3L418.4 273.2L424.5 279.6L430.6 286.4L436.6 293.7L442.5 301.4L448.2 309.5L453.7 317.9L459.1 326.5L464.2 335.4L469.1 344.6L473.7 353.8L478 363.3L481.9 372.8L485.6 382.3L488.8 391.9L491.7 401.4L494.2 410.8L496.3 420.2L498 429.4L499.3 438.5L500.1 447.3L500.6 456L500.6 464.3L500.2 472.4L499.3 480.1L498.1 487.5L496.5 494.5L494.4 501.1L492 507.4L489.3 513.2L486.1 518.6L482.7 523.5L478.9 527.9L474.9 531.9L470.6 535.5L466 538.5L461.3 541.1L456.3 543.2L451.2 544.8L446 546L440.7 546.7L435.3 546.9L429.9 546.7L424.5 546.1L419.1 545.1L413.8 543.7L408.5 541.9L403.5 539.8L398.5 537.4L393.8 534.6L389.3 531.6L385.1 528.4L381.2 524.9L377.6 521.2L374.3 517.4L371.5 513.4L369 509.3L367 505.2L365.5 501L364.4 496.8L363.8 492.7L363.7 488.6L364.2 484.5L365.3 480.7L366.9 476.9L369 473.4L371.8 470L375.1 466.9L379 464L383.6 461.5L388.7 459.2L394.4 457.3L400.7 455.8L407.5 454.6L414.9 453.8L422.9 453.4L431.4 453.5L440.4 454L449.9 454.9L459.9 456.4L470.3 458.2L481.2 460.6L492.4 463.4L504 466.7L516 470.4L528.2 474.6L540.7 479.3L553.4 484.4L566.3 489.9L579.3 495.9L592.5 502.2L605.7 509L618.9 516.1L632.1 523.6L645.2 531.4L658.2 539.4L671 547.8L683.6 556.4L696 565.2L708.1 574.1L719.8 583.3L731.2 592.5L742.1 601.8L752.6 611.1L762.6 620.5L772 629.8L780.8 639L789 648.1L796.5 657.1L803.4 665.8L809.5 674.4L814.9 682.7L819.5 690.6L823.3 698.3L826.2 705.5L828.3 712.3L829.6 718.7L830 724.6L829.4 730L828 734.8L825.7 739.1L822.4 742.8L818.2 745.8L813.2 748.1L807.2 749.8L800.3 750.8L792.5 751.1L783.8 750.6L774.3 749.4L764 747.5L752.8 744.8L740.8 741.3L728.1 737L714.6 732L700.4 726.2L685.6 719.6L670.1 712.3L654 704.2L637.4 695.4L620.2 685.9L602.6 675.6L584.6 664.7L566.2 653.1L547.5 640.9L528.6 628.1L509.4 614.8L490.1 600.8L470.6 586.4L451.1 571.5L431.6 556.2L412.2 540.5L392.9 524.4L373.8 508.1L354.9 491.4L336.3 474.6L318 457.6L300.1 440.5L282.6 423.3L265.6 406.2L249.2 389L233.4 371.9L218.2 355L203.7 338.3L189.9 321.8L176.9 305.6L164.6 289.8L153.3 274.3L142.8 259.3L133.2 244.8L124.5 230.8L116.8 217.3L110.1 204.6L104.4 192.4L99.7 181L96.1 170.4L93.5 160.5L91.9 151.4L91.4 143.2L92 135.9L93.6 129.4L96.3 123.9L100.1 119.4L104.9 115.8L110.7 113.2L117.5 111.6L125.3 111.1L134 111.5L143.7 113L154.3 115.4L165.8 118.9L178.1 123.5L191.3 129L205.2 135.5L219.8 143L235.1 151.5L251.1 160.9L267.6 171.2L284.7 182.5L302.3 194.6L320.3 207.5L338.8 221.2L357.5 235.7L376.6 250.9L395.9 266.8L415.3 283.4L434.9 300.5L454.5 318.2L474.2 336.4L493.8 355L513.3 374L532.6 393.4L551.7 413.1L570.6 433L589.2 453.1L607.3 473.3L625.1 493.5L642.4 513.8L659.2 534.1L675.5 554.2L691.1 574.1L706.1 593.9L720.5 613.4L734.1 632.5L747 651.3L759.1 669.7L770.5 687.6L781 704.9L790.6 721.7L799.4 737.8L807.3 753.3L814.3 768.1L820.4 782.1L825.6 795.3L829.8 807.7L833.1 819.3L835.5 830L837 839.8L837.6 848.7L837.2 856.6L836 863.5L833.9 869.5L830.9 874.4L827.1 878.4L822.4 881.3L817 883.3L810.7 884.2L803.8 884.1L796.1 883L787.7 880.9L778.7 877.9L769.1 873.8L759 868.9L748.3 863L737.1 856.2L725.5 848.5L713.4 839.9L701 830.6L688.3 820.5L675.3 809.6L662.1 798L648.7 785.7L635.2 772.8L621.5 759.3L607.9 745.3L594.2 730.8L580.5 715.8L567 700.4L553.5 684.7L540.3 668.6L527.2 652.3L514.4 635.8L501.9 619.2L489.6 602.4L477.8 585.6L466.3 568.8L455.2 552L444.6 535.3L434.4 518.8L424.7 502.4L415.5 486.3L406.9 470.5L398.8 455L391.3 439.8L384.3 425.1L378 410.8L372.2 397L367 383.7L362.5 370.9L358.5 358.7L355.2 347.2L352.4 336.2L350.3 325.9L348.7 316.3L347.7 307.4L347.2 299.2L347.4 291.7L348 285L349.2 279L350.8 273.7L352.9 269.2L355.5 265.5L358.5 262.4L361.8 260.2L365.6 258.7L369.7 257.9L374.1 257.8L378.8 258.4L383.7 259.7L388.8 261.6L394.2 264.2L399.7 267.5L405.3 271.3L410.9 275.7L416.7 280.6L422.4 286.1L428.2 292L433.9 298.4L439.6 305.2L445.1 312.3L450.5 319.8L455.7 327.7L460.8 335.8L465.7 344.1L470.3 352.6L474.6 361.3L478.7 370.2L482.5 379.1L485.9 388L489 397L491.8 406L494.2 414.9L496.2 423.7L497.9 432.4L499.1 440.9L500 449.2L500.5 457.4L500.6 465.2L500.2 472.9L499.5 480.2L498.4 487.2L496.9 493.8L495.1 500.1L492.9 506L490.4 511.5L487.5 516.7L484.3 521.3L480.8 525.6L477 529.4L473 532.8L468.8 535.7L464.4 538.2L459.7 540.3L455 541.9L450.1 543L445.1 543.7L440 544L435 543.9L429.9 543.4L424.8 542.5L419.8 541.3L414.9 539.7L410.1 537.7L405.4 535.5L401 533L396.7 530.2L392.7 527.1L389 523.9L385.6 520.5L382.5 516.9L379.7 513.2L377.3 509.4L375.4 505.5L373.9 501.6L372.8 497.6L372.2 493.7L372 489.9L372.4 486.1L373.3 482.4L374.7 478.9L376.6 475.5L379.1 472.3L382.2 469.4L385.8 466.6L389.9 464.2L394.7 462L399.9 460.2L405.7 458.7L412.1 457.5L419 456.7L426.4 456.3L434.3 456.3L442.7 456.7L451.5 457.5L460.8 458.8L470.6 460.5L480.7 462.6L491.2 465.2L502 468.2L513.2 471.6L524.6 475.5L536.3 479.8L548.2 484.5L560.3 489.7L572.5 495.2L584.9 501.1L597.3 507.4L609.7 514L622 521L634.4 528.3L646.6 535.8L658.7 543.6L670.6 551.6L682.2 559.9L693.6 568.3L704.7 576.8L715.4 585.5L725.8 594.2L735.7 603L745.1 611.7L754 620.5L762.4 629.2L770.2 637.7L777.4 646.2L783.9 654.4L789.8 662.5L795 670.3L799.4 677.9L803.1 685.1L806 691.9L808.1 698.4L809.4 704.5L809.9 710.1L809.5 715.2L808.3 719.9L806.2 723.9L803.3 727.5L799.5 730.4L794.9 732.7L789.4 734.4L783.1 735.4L775.9 735.8L767.9 735.5L759.1 734.5L749.5 732.8L739.1 730.3L728 727.2L716.1 723.3L703.6 718.7L690.4 713.3L676.5 707.3L662.1 700.5L647.1 693L631.5 684.9L615.5 676L599 666.5L582.2 656.4L565 645.6L547.4 634.2L529.7 622.3L511.7 609.8L493.6 596.8L475.3 583.3L457 569.4L438.7 555.1L420.5 540.4L402.3 525.4L384.3 510L366.5 494.5L349 478.7L331.8 462.7L314.9 446.7L298.4 430.6L282.4 414.4L266.9 398.3L251.9 382.3L237.6 366.4L223.8 350.6L210.8 335.1L198.4 319.9L186.8 304.9L176 290.3L166 276.2L156.9 262.4L148.6 249.2L141.2 236.5L134.8 224.4L129.3 212.9L124.7 202.1L121.1 192L118.5 182.6L116.9 174L116.3 166.1L116.7 159.1L118.1 152.9L120.5 147.6L123.8 143.2L128.1 139.7L133.4 137.1L139.7 135.5L146.9 134.8L154.9 135L163.9 136.2L173.7 138.4L184.4 141.6L195.8 145.7L208 150.7L221 156.7L234.6 163.6L248.9 171.4L263.8 180.1L279.3 189.7L295.2 200.1L311.7 211.3L328.6 223.3L345.8 236.1L363.4 249.6L381.2 263.8L399.3 278.6L417.6 294.1L435.9 310.1L454.4 326.6L472.8 343.6L491.2 361L509.6 378.9L527.7 397L545.7 415.4L563.5 434.1L581 452.9L598.1 471.9L614.9 490.9L631.2 509.9L647 529L662.4 547.9L677.2 566.7L691.4 585.2L704.9 603.6L717.9 621.6L730.1 639.3L741.6 656.6L752.3 673.5L762.3 689.9L771.5 705.7L779.9 720.9L787.5 735.6L794.2 749.6L800 762.8L805 775.4L809.2 787.2L812.4 798.2L814.8 808.4L816.3 817.7L817 826.2L816.8 833.7L815.8 840.4L813.9 846.1L811.2 850.9L807.8 854.8L803.5 857.7L798.5 859.7L792.8 860.7L786.4 860.8L779.3 859.9L771.5 858.1L763.2 855.4L754.2 851.7L744.8 847.2L734.8 841.8L724.4 835.5L713.5 828.5L702.2 820.6L690.7 811.9L678.8 802.5L666.6 792.4L654.2 781.6L641.7 770.2L629 758.2L616.2 745.6L603.3 732.5L590.5 718.9L577.7 704.9L564.9 690.5L552.3 675.8L539.8 660.8L527.5 645.5L515.4 630.1L503.6 614.4L492.1 598.7L480.9 582.9L470 567.1L459.6 551.3L449.5 535.7L439.9 520.1L430.7 504.7L422 489.6L413.8 474.6L406.1 460L399 445.7L392.4 431.8L386.3 418.3L380.8 405.3L375.9 392.7L371.5 380.6L367.7 369.1L364.5 358.2L361.8 347.8L359.7 338L358.1 328.9L357.1 320.4L356.6 312.6L356.6 305.5L357.1 299L358.1 293.3L359.6 288.2L361.5 283.9L363.9 280.3L366.6 277.3L369.7 275.1L373.2 273.5L377 272.7L381.1 272.5L385.4 273L390 274.1L394.8 275.8L399.8 278.2L404.9 281.1L410.2 284.6L415.5 288.7L420.9 293.2L426.3 298.2L431.7 303.7L437.1 309.7L442.4 316L447.6 322.7L452.7 329.7L457.7 337L462.4 344.5L467 352.3L471.4 360.3L475.5 368.5L479.4 376.7L483 385.1L486.3 393.5L489.3 401.9L491.9 410.4L494.2 418.7L496.2 427L497.8 435.2L499 443.2L499.9 451.1L500.4 458.8L500.5 466.2L500.3 473.4L499.7 480.3L498.7 486.9L497.4 493.2L495.7 499.2L493.7 504.8L491.3 510L488.7 514.9L485.7 519.4L482.5 523.4L479 527.1L475.3 530.3L471.4 533.1L467.2 535.6L462.9 537.5L458.4 539.1L453.9 540.2L449.2 541L444.5 541.3L439.7 541.3L434.9 540.9L430.1 540.1L425.4 539L420.8 537.5L416.3 535.7L411.9 533.7L407.7 531.3L403.6 528.8L399.8 525.9L396.3 522.9L393 519.7L390.1 516.4L387.4 512.9L385.1 509.4L383.2 505.7L381.7 502.1L380.7 498.4L380 494.7L379.8 491.1L380.1 487.5L380.8 484L382.1 480.7L383.8 477.5L386.1 474.5L388.9 471.6L392.2 469.1L396 466.7L400.3 464.6L405.2 462.9L410.6 461.4L416.5 460.2L422.8 459.4L429.7 459L437.1 458.9L444.9 459.2L453.1 460L461.8 461.1L470.9 462.6L480.3 464.5L490.1 466.9L500.3 469.6L510.7 472.8L521.4 476.4L532.4 480.4L543.5 484.7L554.8 489.5L566.3 494.6L577.9 500.2L589.5 506L601.1 512.2L612.8 518.7L624.4 525.4L635.9 532.5L647.2 539.8L658.4 547.3L669.4 555L680.2 562.9L690.6 570.9L700.7 579L710.5 587.1L719.9 595.4L728.8 603.6L737.3 611.8L745.2 620L752.6 628.1L759.5 636L765.7 643.8L771.3 651.4L776.3 658.8L780.5 665.9L784.1 672.7L787 679.2L789.1 685.4L790.4 691.2L791 696.5L790.8 701.4L789.8 705.8L788 709.7L785.3 713.1L781.9 716L777.7 718.2L772.7 719.9L766.8 721L760.2 721.4L752.8 721.2L744.7 720.4L735.8 718.9L726.2 716.7L715.8 713.8L704.8 710.3L693.1 706.1L680.8 701.2L667.9 695.6L654.4 689.3L640.4 682.4L625.9 674.9L610.9 666.7L595.5 657.8L579.7 648.4L563.6 638.4L547.2 627.8L530.5 616.7L513.7 605L496.7 592.9L479.6 580.3L462.4 567.3L445.2 553.9L428 540.1L411 526.1L394 511.7L377.3 497.1L360.8 482.4L344.6 467.4L328.7 452.4L313.1 437.2L298 422.1L283.4 406.9L269.3 391.9L255.7 376.9L242.7 362.1L230.3 347.5L218.6 333.1L207.6 319L197.3 305.3L187.8 291.9L179.1 278.9L171.2 266.4L164.1 254.4L157.9 243L152.6 232.1L148.2 221.8L144.7 212.2L142.1 203.3L140.4 195L139.7 187.6L139.9 180.8L141.1 174.9L143.1 169.8L146.2 165.5L150.1 162.1L154.9 159.5L160.6 157.8L167.2 157.1L174.7 157.2L183 158.2L192.1 160.1L202 162.9L212.6 166.6L224 171.2L236 176.6L248.7 183L262 190.2L275.9 198.2L290.4 207.1L305.3 216.7L320.7 227.2L336.4 238.3L352.6 250.2L369.1 262.8L385.8 276L402.7 289.8L419.8 304.3L437.1 319.2L454.4 334.7L471.7 350.6L489 366.9L506.2 383.5L523.3 400.5L540.3 417.8L557 435.3L573.4 453L589.6 470.7L605.4 488.6L620.8 506.5L635.7 524.4L650.2 542.1L664.2 559.8L677.6 577.3L690.5 594.6L702.7 611.5L714.3 628.2L725.2 644.5L735.4 660.4L744.9 675.9L753.7 690.8L761.7 705.2L768.9 719.1L775.3 732.3L780.9 744.9L785.8 756.8L789.8 768L793 778.4L795.3 788.1L796.9 797L797.6 805.1L797.6 812.3L796.7 818.7L795.1 824.3L792.7 828.9L789.6 832.7L785.7 835.6L781.1 837.6L775.9 838.7L769.9 838.9L763.4 838.2L756.2 836.6L748.4 834.2L740.1 830.9L731.3 826.8L722 821.9L712.3 816.1L702.1 809.6L691.6 802.3L680.8 794.3L669.7 785.5L658.3 776.1L646.7 766.1L634.9 755.5L623 744.3L611 732.6L599 720.3L586.9 707.7L574.8 694.6L562.9 681.1L551 667.3L539.2 653.3L527.6 639L516.3 624.5L505.1 609.8L494.3 595L483.7 580.2L473.4 565.4L463.6 550.6L454 535.8L444.9 521.2L436.3 506.7L428 492.4L420.3 478.4L413 464.6L406.2 451.2L399.9 438L394.1 425.3L388.9 413L384.1 401.1L379.9 389.7L376.3 378.8L373.2 368.4L370.6 358.6L368.5 349.3L366.9 340.6L365.9 332.6L365.4 325.2L365.3 318.3L365.7 312.2L366.6 306.7L367.9 301.8L369.6 297.7L371.8 294.1L374.3 291.3L377.2 289.1L380.4 287.5L383.9 286.6L387.7 286.3L391.7 286.7L396 287.6L400.5 289.2L405.2 291.3L409.9 294L414.9 297.2L419.9 300.9L424.9 305.1L430 309.8L435.1 314.8L440.1 320.3L445.1 326.2L450 332.4L454.8 339L459.5 345.8L464 352.9L468.4 360.2L472.5 367.6L476.4 375.3L480.1 383L483.5 390.8L486.6 398.7L489.5 406.7L492 414.6L494.2 422.4L496.1 430.2L497.7 437.9L498.9 445.5L499.8 452.9L500.3 460.1L500.5 467.2L500.3 473.9L499.8 480.5L499 486.7L497.8 492.7L496.2 498.4L494.4 503.7L492.2 508.7L489.8 513.3L487.1 517.5L484.1 521.4L480.8 524.9L477.4 528L473.7 530.7L469.8 533.1L465.8 535L461.6 536.5L457.4 537.6L453 538.4L448.6 538.8L444.1 538.8L439.6 538.5L435.1 537.8L430.7 536.8L426.3 535.5L422 533.9L417.9 532L413.9 529.8L410.1 527.4L406.5 524.8L403.1 522L400 519L397.2 515.9L394.7 512.7L392.5 509.3L390.6 505.9L389.1 502.5L388.1 499L387.4 495.6L387.1 492.1L387.3 488.8L387.9 485.5L389 482.3L390.6 479.3L392.7 476.5L395.2 473.8L398.2 471.3L401.7 469.1L405.7 467.1L410.2 465.4L415.2 463.9L420.6 462.8L426.6 462L432.9 461.5L439.8 461.4L447 461.7L454.7 462.3L462.8 463.2L471.3 464.6L480.1 466.4L489.2 468.5L498.7 471L508.5 474L518.5 477.3L528.7 480.9L539.2 485L549.8 489.4L560.5 494.2L571.4 499.3L582.3 504.7L593.2 510.5L604.2 516.5L615.1 522.9L625.9 529.4L636.6 536.2L647.1 543.3L657.5 550.5L667.6 557.8L677.5 565.3L687 572.9L696.3 580.6L705.1 588.3L713.6 596.1L721.6 603.8L729.1 611.5L736.2 619.1L742.7 626.6L748.6 633.9L754 641.1L758.7 648L762.9 654.8L766.3 661.2L769.1 667.4L771.2 673.2L772.6 678.7L773.2 683.8L773.1 688.4L772.3 692.6L770.7 696.4L768.4 699.7L765.3 702.4L761.5 704.6L756.9 706.3L751.5 707.4L745.4 707.9L738.6 707.8L731.1 707.1L722.8 705.8L713.9 703.9L704.3 701.3L694 698.1L683.1 694.2L671.7 689.7L659.6 684.6L647 678.8L634 672.4L620.4 665.4L606.4 657.8L592 649.6L577.2 640.8L562.2 631.5L546.8 621.6L531.2 611.2L515.4 600.4L499.4 589.1L483.4 577.3L467.2 565.2L451.1 552.6L435 539.8L418.9 526.6L403 513.2L387.3 499.5L371.7 485.7L356.4 471.6L341.5 457.5L326.8 443.3L312.6 429.1L298.7 414.9L285.4 400.7L272.5 386.6L260.3 372.7L248.5 358.9L237.4 345.4L227 332.1L217.2 319.2L208.2 306.5L199.9 294.3L192.3 282.5L185.6 271.2L179.6 260.3L174.5 250L170.2 240.3L166.8 231.1L164.2 222.6L162.5 214.8L161.7 207.7L161.8 201.2L162.7 195.5L164.5 190.6L167.2 186.5L170.7 183.1L175.1 180.6L180.4 178.9L186.5 178L193.3 178L201 178.8L209.4 180.4L218.6 182.9L228.5 186.3L239 190.4L250.2 195.4L262.1 201.3L274.5 207.9L287.5 215.3L300.9 223.5L314.9 232.5L329.3 242.2L344 252.5L359.1 263.6L374.5 275.3L390.2 287.6L406.1 300.5L422.2 314L438.3 327.9L454.6 342.4L470.8 357.2L487.1 372.5L503.3 388.1L519.4 404L535.3 420.2L551 436.6L566.5 453.2L581.7 469.9L596.6 486.6L611.1 503.4L625.3 520.2L638.9 536.9L652.1 553.5L664.8 570L677 586.2L688.6 602.2L699.5 617.9L709.9 633.3L719.6 648.3L728.6 662.9L737 677L744.6 690.6L751.5 703.7L757.6 716.2L763 728.1L767.7 739.4L771.6 750L774.7 760L777 769.2L778.6 777.6L779.5 785.4L779.5 792.3L778.9 798.4L777.4 803.7L775.3 808.2L772.5 811.9L768.9 814.8L764.7 816.8L759.9 817.9L754.4 818.3L748.3 817.8L741.7 816.4L734.5 814.3L726.8 811.3L718.6 807.6L709.9 803L700.8 797.8L691.4 791.7L681.6 785L671.4 777.6L661 769.5L650.4 760.8L639.5 751.5L628.5 741.6L617.3 731.1L606.1 720.2L594.7 708.8L583.4 696.9L572.1 684.7L560.8 672.1L549.6 659.2L538.6 646L527.7 632.6L517 619.1L506.5 605.3L496.2 591.5L486.2 577.6L476.6 563.6L467.2 549.7L458.2 535.9L449.6 522.1L441.4 508.5L433.6 495L426.3 481.8L419.3 468.8L412.9 456.1L406.9 443.7L401.4 431.7L396.4 420.1L391.9 408.9L387.8 398.1L384.3 387.8L381.3 377.9L378.8 368.6L376.8 359.8L375.2 351.6L374.2 343.9L373.6 336.9L373.5 330.4L373.8 324.5L374.6 319.2L375.7 314.6L377.3 310.6L379.3 307.2L381.6 304.4L384.2 302.2L387.2 300.6L390.4 299.7L393.9 299.3L397.7 299.6L401.7 300.4L405.9 301.7L410.2 303.7L414.7 306.1L419.3 309L424 312.4L428.7 316.3L433.5 320.6L438.3 325.3L443 330.4L447.7 335.9L452.3 341.7L456.9 347.8L461.3 354.1L465.6 360.8L469.7 367.6L473.6 374.6L477.3 381.7L480.8 389L484 396.3L487 403.7L489.7 411.2L492.1 418.6L494.3 426L496.1 433.3L497.6 440.6L498.8 447.7L499.7 454.7L500.3 461.5L500.5 468.1L500.4 474.5L499.9 480.7L499.2 486.6L498.1 492.3L496.7 497.6L495 502.7L493.1 507.4L490.8 511.8L488.3 515.9L485.5 519.6L482.5 522.9L479.3 525.9L475.9 528.5L472.3 530.7L468.5 532.6L464.6 534.1L460.6 535.2L456.5 536L452.4 536.4L448.1 536.5L443.9 536.2L439.7 535.6L435.5 534.7L431.4 533.5L427.4 532L423.5 530.3L419.7 528.3L416.1 526.1L412.7 523.7L409.5 521.1L406.5 518.3L403.8 515.4L401.4 512.4L399.3 509.3L397.5 506.1L396.1 502.8L395 499.6L394.3 496.3L394 493.1L394.1 490L394.6 486.9L395.6 483.9L397 481L398.9 478.3L401.2 475.8L403.9 473.4L407.1 471.3L410.8 469.4L415 467.7L419.6 466.3L424.6 465.2L430.1 464.4L436 463.9L442.4 463.8L449.1 463.9L456.3 464.5L463.8 465.3L471.7 466.5L480 468.1L488.5 470.1L497.4 472.4L506.5 475.1L515.9 478.1L525.4 481.5L535.2 485.3L545.2 489.4L555.2 493.8L565.4 498.6L575.6 503.6L585.9 509L596.2 514.6L606.4 520.5L616.6 526.6L626.7 533L636.6 539.6L646.3 546.3L655.9 553.2L665.2 560.2L674.2 567.4L682.9 574.6L691.3 581.8L699.3 589.1L706.9 596.3L714.1 603.5L720.8 610.7L727 617.7L732.6 624.7L737.8 631.4L742.3 638L746.3 644.4L749.6 650.5L752.3 656.3L754.4 661.8L755.8 667L756.5 671.8L756.6 676.3L755.9 680.3L754.5 683.9L752.5 687.1L749.7 689.7L746.2 691.9L742 693.5L737 694.7L731.4 695.2L725.1 695.2L718.2 694.7L710.5 693.5L702.2 691.8L693.3 689.5L683.8 686.5L673.6 683L663 678.9L651.7 674.1L640 668.8L627.8 662.9L615.1 656.4L602 649.3L588.6 641.7L574.8 633.6L560.6 624.9L546.3 615.7L531.6 606.1L516.8 595.9L501.9 585.4L486.8 574.4L471.7 563L456.5 551.3L441.3 539.3L426.3 527L411.3 514.4L396.5 501.6L381.8 488.6L367.5 475.5L353.3 462.2L339.5 448.9L326.1 435.5L313 422.2L300.4 408.8L288.3 395.6L276.7 382.5L265.6 369.6L255.1 356.8L245.1 344.3L235.9 332.1L227.3 320.2L219.4 308.6L212.2 297.5L205.7 286.8L200 276.5L195 266.7L190.9 257.5L187.5 248.8L185 240.8L183.3 233.3L182.4 226.5L182.3 220.3L183 214.9L184.6 210.2L187 206.1L190.2 202.9L194.2 200.4L199 198.6L204.6 197.7L210.9 197.5L218 198.2L225.8 199.6L234.3 201.8L243.5 204.8L253.3 208.6L263.7 213.2L274.7 218.5L286.3 224.7L298.4 231.5L311 239.1L324 247.4L337.5 256.4L351.3 266L365.4 276.3L379.9 287.2L394.5 298.7L409.4 310.7L424.5 323.3L439.7 336.3L454.9 349.8L470.2 363.7L485.5 378L500.7 392.6L515.8 407.5L530.8 422.6L545.6 438L560.2 453.5L574.5 469.2L588.5 484.9L602.2 500.7L615.6 516.5L628.5 532.2L640.9 547.8L652.9 563.3L664.4 578.6L675.4 593.6L685.8 608.4L695.6 622.9L704.8 637.1L713.4 650.8L721.3 664.1L728.6 677L735.2 689.4L741.1 701.2L746.3 712.5L750.7 723.2L754.5 733.3L757.5 742.7L759.9 751.5L761.5 759.5L762.4 766.9L762.5 773.5L762 779.4L760.8 784.5L758.9 788.8L756.3 792.4L753.1 795.2L749.3 797.2L744.8 798.4L739.8 798.9L734.2 798.5L728 797.4L721.3 795.5L714.1 792.8L706.5 789.4L698.5 785.3L690 780.5L681.2 774.9L672 768.7L662.5 761.8L652.8 754.3L642.8 746.2L632.6 737.6L622.3 728.4L611.8 718.6L601.3 708.4L590.7 697.8L580 686.7L569.4 675.3L558.8 663.5L548.3 651.5L537.9 639.1L527.6 626.6L517.5 613.8L507.6 601L498 588L488.6 574.9L479.4 561.8L470.6 548.8L462.1 535.7L454 522.8L446.2 510L438.8 497.3L431.8 484.9L425.3 472.6L419.1 460.7L413.4 449L408.2 437.7L403.4 426.7L399.1 416.1L395.2 405.9L391.9 396.1L389 386.8L386.5 378L384.6 369.7L383 361.8L382 354.6L381.4 347.8L381.2 341.6L381.4 336L382.1 331L383.1 326.5L384.5 322.7L386.3 319.4L388.4 316.7L390.8 314.5L393.6 313L396.6 312L399.9 311.6L403.4 311.7L407.1 312.4L411 313.6L415 315.3L419.2 317.5L423.5 320.2L427.9 323.3L432.3 326.9L436.8 330.9L441.3 335.2L445.8 340L450.2 345.1L454.6 350.4L458.8 356.1L463 362.1L467 368.2L470.9 374.6L474.6 381.1L478.1 387.8L481.4 394.6L484.5 401.5L487.4 408.5L490 415.5L492.3 422.4L494.3 429.4L496.1 436.3L497.6 443.1L498.7 449.8L499.6 456.4L500.2 462.8L500.4 469.1L500.4 475.1L500 481L499.4 486.6L498.4 491.9L497.1 497L495.6 501.8L493.8 506.3L491.7 510.5L489.4 514.3L486.8 517.8L484 521L481 523.9L477.9 526.4L474.5 528.5L471 530.3L467.4 531.8L463.6 532.9L459.8 533.7L455.9 534.1L451.9 534.3L448 534.1L444 533.6L440.1 532.8L436.2 531.7L432.4 530.3L428.7 528.7L425.2 526.9L421.8 524.9L418.5 522.6L415.5 520.2L412.7 517.6L410.1 514.9L407.8 512.1L405.7 509.2L404 506.2L402.6 503.2L401.5 500.1L400.8 497.1L400.5 494L400.5 491L401 488.1L401.8 485.3L403 482.6L404.7 480L406.8 477.6L409.3 475.4L412.3 473.3L415.7 471.5L419.5 469.9L423.8 468.6L428.4 467.5L433.5 466.7L439 466.2L444.9 466L451.2 466.1L457.9 466.5L464.9 467.3L472.2 468.4L479.9 469.8L487.9 471.6L496.2 473.7L504.7 476.2L513.5 479L522.4 482.1L531.6 485.6L540.9 489.4L550.4 493.5L559.9 497.9L569.5 502.6L579.1 507.6L588.8 512.9L598.4 518.4L608 524.1L617.4 530L626.8 536.2L636 542.5L645 548.9L653.8 555.5L662.3 562.2L670.5 568.9L678.4 575.7L686 582.6L693.2 589.4L700 596.2L706.3 602.9L712.2 609.5L717.6 616L722.5 622.4L726.9 628.6L730.7 634.6L734 640.4L736.6 645.9L738.6 651.2L740.1 656.1L740.8 660.7L741 664.9L740.5 668.8L739.3 672.2L737.4 675.2L734.9 677.8L731.7 679.9L727.9 681.5L723.4 682.7L718.2 683.3L712.4 683.4L706 682.9L698.9 681.9L691.2 680.4L682.9 678.3L674 675.6L664.6 672.4L654.7 668.6L644.2 664.3L633.3 659.4L621.9 653.9L610 647.9L597.8 641.3L585.2 634.3L572.3 626.7L559.1 618.6L545.6 610.1L531.9 601.1L518 591.6L504 581.8L489.9 571.5L475.6 560.9L461.4 550L447.2 538.7L433 527.2L418.9 515.4L405 503.4L391.2 491.3L377.7 478.9L364.4 466.5L351.3 454L338.7 441.5L326.3 428.9L314.4 416.4L303 403.9L292 391.6L281.5 379.4L271.5 367.4L262.1 355.6L253.3 344.1L245.1 332.9L237.6 322L230.7 311.5L224.5 301.3L219.1 291.6L214.3 282.4L210.3 273.6L207 265.4L204.5 257.7L202.8 250.6L201.8 244.1L201.6 238.3L202.2 233L203.5 228.5L205.7 224.6L208.5 221.4L212.2 218.9L216.6 217.2L221.7 216.2L227.5 215.9L234.1 216.4L241.3 217.6L249.2 219.6L257.7 222.3L266.8 225.7L276.5 229.9L286.8 234.8L297.6 240.5L308.9 246.8L320.6 253.8L332.8 261.5L345.3 269.8L358.3 278.8L371.5 288.3L385 298.5L398.8 309.2L412.7 320.4L426.8 332.1L441.1 344.3L455.4 356.9L469.7 369.9L484.1 383.2L498.4 396.9L512.6 410.9L526.7 425.1L540.6 439.5L554.3 454L567.8 468.7L581.1 483.5L594 498.3L606.5 513.1L618.7 527.9L630.5 542.6L641.9 557.1L652.7 571.5L663.1 585.7L673 599.6L682.3 613.3L691 626.6L699.2 639.6L706.7 652.2L713.6 664.3L719.9 676L725.5 687.2L730.5 697.9L734.8 708L738.5 717.6L741.4 726.5L743.7 734.9L745.4 742.6L746.3 749.6L746.6 755.9L746.2 761.5L745.1 766.5L743.5 770.7L741.2 774.1L738.2 776.9L734.7 778.9L730.6 780.1L726 780.7L720.8 780.5L715.1 779.5L708.9 777.8L702.2 775.5L695.1 772.4L687.6 768.6L679.7 764.2L671.5 759.1L662.9 753.3L654.1 747L644.9 740L635.6 732.5L626.1 724.4L616.4 715.9L606.6 706.8L596.7 697.3L586.7 687.4L576.7 677L566.8 666.4L556.8 655.4L546.9 644.1L537.1 632.5L527.5 620.8L518 608.8L508.6 596.8L499.5 584.6L490.6 572.3L482 560L473.7 547.7L465.7 535.5L458 523.3L450.6 511.3L443.6 499.4L437 487.6L430.8 476.1L424.9 464.8L419.5 453.8L414.5 443.1L410 432.8L405.9 422.7L402.2 413.1L398.9 403.9L396.1 395.1L393.8 386.7L391.9 378.8L390.4 371.4L389.3 364.5L388.7 358.1L388.4 352.2L388.6 346.8L389.1 342L390 337.7L391.3 334L392.9 330.8L394.9 328.2L397.1 326.1L399.6 324.6L402.4 323.6L405.5 323.1L408.7 323.1L412.2 323.7L415.8 324.7L419.6 326.3L423.5 328.2L427.5 330.7L431.6 333.6L435.8 336.9L440 340.5L444.2 344.6L448.4 349L452.6 353.7L456.7 358.7L460.7 364L464.6 369.6L468.4 375.3L472.1 381.3L475.6 387.4L478.9 393.7L482.1 400L485 406.5L487.7 413L490.2 419.6L492.4 426.1L494.4 432.6L496.1 439.1L497.5 445.6L498.7 451.9L499.5 458.1L500.1 464.1L500.4 470L500.4 475.8L500.1 481.3L499.5 486.6L498.7 491.6L497.5 496.4L496.1 501L494.5 505.2L492.5 509.2L490.4 512.9L488 516.2L485.4 519.3L482.7 522L479.7 524.4L476.6 526.5L473.3 528.2L469.9 529.7L466.4 530.8L462.8 531.5L459.2 532L455.5 532.2L451.7 532L448 531.6L444.3 530.9L440.7 529.9L437.1 528.7L433.6 527.2L430.3 525.6L427 523.7L424 521.6L421.1 519.3L418.4 517L415.9 514.4L413.7 511.8L411.8 509.1L410.1 506.3L408.7 503.4L407.7 500.6L407 497.7L406.6 494.8L406.5 492L406.9 489.3L407.6 486.6L408.7 484.1L410.2 481.6L412.1 479.3L414.4 477.2L417.2 475.2L420.3 473.5L423.8 472L427.7 470.7L432.1 469.6L436.8 468.8L441.9 468.3L447.4 468.1L453.2 468.1L459.4 468.5L466 469.1L472.8 470.1L480 471.4L487.4 473L495.2 475L503.1 477.2L511.3 479.8L519.7 482.7L528.3 485.9L537 489.4L545.9 493.3L554.8 497.4L563.8 501.7L572.9 506.4L581.9 511.3L591 516.4L600 521.8L608.9 527.3L617.7 533L626.3 538.9L634.8 545L643.1 551.1L651.1 557.4L658.9 563.7L666.4 570.1L673.6 576.5L680.4 582.9L686.8 589.3L692.9 595.6L698.5 601.9L703.6 608L708.3 614L712.5 619.9L716.1 625.5L719.3 631L721.8 636.2L723.8 641.2L725.3 645.9L726.1 650.2L726.3 654.3L725.9 657.9L724.9 661.2L723.3 664.1L721 666.6L718.1 668.7L714.6 670.3L710.5 671.4L705.7 672.1L700.4 672.2L694.4 671.9L687.9 671L680.7 669.7L673 667.8L664.8 665.4L656 662.4L646.8 659L637 654.9L626.8 650.4L616.2 645.4L605.1 639.8L593.7 633.7L581.9 627.2L569.8 620.1L557.5 612.6L544.9 604.7L532 596.3L519 587.5L505.9 578.3L492.6 568.7L479.3 558.8L465.9 548.6L452.5 538.1L439.2 527.3L426 516.3L412.8 505L399.9 493.6L387.1 482.1L374.6 470.4L362.3 458.7L350.4 446.9L338.7 435.1L327.5 423.3L316.6 411.6L306.2 400L296.3 388.6L286.9 377.3L278 366.2L269.6 355.3L261.8 344.7L254.7 334.4L248.1 324.5L242.2 314.9L236.9 305.7L232.4 297L228.5 288.7L225.3 280.9L222.8 273.6L221.1 266.8L220.1 260.6L219.8 255L220.2 250L221.3 245.6L223.2 241.9L225.8 238.8L229.1 236.4L233.1 234.6L237.8 233.6L243.2 233.2L249.2 233.5L255.9 234.6L263.2 236.3L271.1 238.7L279.6 241.9L288.6 245.7L298.2 250.2L308.3 255.4L318.8 261.2L329.7 267.7L341.1 274.8L352.9 282.6L364.9 290.9L377.3 299.8L390 309.2L402.9 319.2L415.9 329.6L429.2 340.6L442.5 351.9L455.9 363.7L469.4 375.8L482.9 388.3L496.3 401.1L509.7 414.2L523 427.5L536.1 441L549 454.6L561.7 468.4L574.2 482.3L586.3 496.2L598.2 510.1L609.7 524L620.8 537.8L631.6 551.5L641.8 565L651.7 578.4L661 591.5L669.8 604.4L678.1 616.9L685.8 629.2L693 641.1L699.6 652.5L705.6 663.6L711 674.2L715.8 684.3L719.9 693.9L723.5 703L726.3 711.5L728.6 719.4L730.2 726.7L731.2 733.4L731.6 739.4L731.3 744.8L730.4 749.5L728.9 753.6L726.9 757L724.2 759.6L721 761.6L717.2 762.9L712.9 763.5L708.1 763.5L702.9 762.7L697.1 761.2L690.9 759.1L684.3 756.3L677.3 752.9L670 748.8L662.3 744.1L654.3 738.8L646 732.9L637.5 726.5L628.8 719.5L619.8 712L610.8 704L601.6 695.6L592.3 686.7L582.9 677.5L573.6 667.8L564.2 657.8L554.8 647.6L545.5 637L536.3 626.2L527.2 615.2L518.3 604L509.5 592.7L500.9 581.2L492.5 569.7L484.4 558.2L476.5 546.7L468.9 535.2L461.7 523.7L454.7 512.4L448.1 501.2L441.8 490.1L435.9 479.3L430.4 468.6L425.2 458.3L420.5 448.2L416.1 438.4L412.2 428.9L408.7 419.8L405.5 411.1L402.8 402.7L400.6 394.8L398.7 387.3L397.2 380.3L396.2 373.7L395.5 367.6L395.2 362L395.3 356.9L395.8 352.3L396.6 348.2L397.7 344.6L399.2 341.6L401 339L403 337L405.3 335.4L407.9 334.4L410.7 333.9L413.8 333.9L417 334.3L420.4 335.2L423.9 336.6L427.6 338.4L431.3 340.6L435.2 343.3L439.1 346.3L443 349.7L447 353.4L450.9 357.5L454.8 361.9L458.7 366.6L462.5 371.5L466.2 376.7L469.8 382L473.3 387.6L476.6 393.3L479.7 399.2L482.7 405.2L485.5 411.2L488.1 417.3L490.4 423.5L492.6 429.6L494.5 435.8L496.1 441.9L497.5 447.9L498.6 453.9L499.4 459.7L500 465.4L500.3 471L500.4 476.4L500.1 481.6L499.6 486.6L498.9 491.4L497.9 496L496.6 500.3L495.1 504.3L493.3 508.1L491.3 511.6L489.1 514.8L486.7 517.7L484.1 520.3L481.4 522.6L478.5 524.6L475.4 526.3L472.2 527.7L469 528.8L465.6 529.5L462.2 530L458.7 530.2L455.2 530.1L451.7 529.8L448.3 529.1L444.8 528.3L441.5 527.2L438.2 525.8L435 524.3L431.9 522.5L429 520.6L426.3 518.5L423.7 516.3L421.4 513.9L419.3 511.5L417.4 508.9L415.8 506.3L414.5 503.6L413.4 501L412.7 498.3L412.3 495.6L412.2 492.9L412.5 490.3L413.1 487.8L414.1 485.4L415.5 483.1L417.2 480.9L419.3 478.9L421.8 477L424.6 475.4L427.9 473.9L431.5 472.6L435.5 471.6L439.9 470.8L444.6 470.3L449.7 470L455.2 470L460.9 470.3L467 470.9L473.4 471.8L480.1 472.9L487.1 474.4L494.3 476.2L501.7 478.3L509.4 480.6L517.3 483.3L525.3 486.3L533.5 489.5L541.7 493.1L550.1 496.9L558.6 501L567.1 505.3L575.6 509.8L584.1 514.6L592.5 519.6L600.9 524.8L609.2 530.2L617.4 535.7L625.4 541.3L633.2 547.1L640.7 553L648.1 558.9L655.2 564.9L662 570.9L668.4 576.9L674.5 582.9L680.2 588.9L685.6 594.7L690.5 600.5L694.9 606.2L698.9 611.7L702.5 617.1L705.5 622.2L708 627.2L710 631.9L711.4 636.3L712.2 640.4L712.5 644.3L712.3 647.8L711.4 650.9L710 653.7L708 656.1L705.3 658.1L702.1 659.7L698.3 660.8L694 661.5L689 661.7L683.5 661.5L677.4 660.8L670.8 659.6L663.7 657.9L656 655.7L647.9 653L639.2 649.8L630.2 646.1L620.6 642L610.7 637.3L600.4 632.2L589.7 626.5L578.7 620.4L567.4 613.9L555.8 606.9L544 599.5L532 591.7L519.8 583.5L507.5 574.9L495 566L482.5 556.7L470 547.2L457.4 537.3L444.9 527.2L432.4 516.9L420.1 506.4L407.9 495.7L395.9 484.9L384.1 474L372.5 462.9L361.2 451.9L350.3 440.8L339.7 429.8L329.4 418.8L319.6 407.9L310.2 397.1L301.2 386.4L292.8 376L284.9 365.7L277.5 355.7L270.6 346L264.4 336.6L258.7 327.6L253.7 318.9L249.3 310.6L245.6 302.8L242.5 295.4L240 288.4L238.3 282L237.2 276.1L236.8 270.7L237.1 266L238.1 261.7L239.7 258.1L242.1 255.1L245.1 252.8L248.7 251L253.1 249.9L258 249.5L263.6 249.7L269.8 250.5L276.5 252.1L283.8 254.2L291.7 257.1L300.1 260.6L309 264.7L318.4 269.5L328.2 274.8L338.4 280.8L349.1 287.4L360 294.6L371.3 302.3L382.9 310.6L394.8 319.4L406.8 328.7L419.1 338.4L431.5 348.6L444 359.2L456.6 370.2L469.3 381.6L481.9 393.2L494.5 405.2L507.1 417.4L519.6 429.9L531.9 442.6L544.1 455.4L556.1 468.3L567.8 481.3L579.3 494.3L590.5 507.4L601.3 520.4L611.8 533.4L622 546.3L631.7 559L641 571.6L649.8 584L658.2 596.1L666 608L673.4 619.5L680.2 630.7L686.5 641.6L692.2 652L697.4 662L702 671.6L706 680.7L709.4 689.3L712.2 697.3L714.4 704.9L716 711.8L717 718.2L717.4 724L717.3 729.1L716.5 733.7L715.2 737.6L713.4 740.9L711 743.5L708 745.5L704.6 746.8L700.6 747.4L696.2 747.5L691.3 746.8L686 745.6L680.2 743.7L674.1 741.1L667.6 738L660.7 734.3L653.6 730L646.1 725.1L638.4 719.6L630.4 713.7L622.2 707.2L613.9 700.2L605.4 692.8L596.8 685L588.1 676.7L579.3 668.1L570.5 659.1L561.7 649.7L552.9 640.1L544.1 630.3L535.5 620.1L526.9 609.8L518.5 599.3L510.2 588.7L502.1 578L494.2 567.2L486.5 556.4L479.1 545.6L471.9 534.7L465.1 524L458.5 513.3L452.2 502.8L446.3 492.4L440.6 482.2L435.4 472.1L430.5 462.3L426 452.8L421.8 443.6L418.1 434.6L414.7 426L411.7 417.8L409.1 409.9L406.9 402.4L405.1 395.3L403.7 388.6L402.6 382.4L401.9 376.6L401.6 371.2L401.7 366.4L402 362L402.7 358L403.8 354.6L405.1 351.6L406.7 349.2L408.6 347.2L410.7 345.7L413.1 344.6L415.7 344.1L418.6 344L421.6 344.3L424.7 345.1L428 346.3L431.4 347.9L434.9 350L438.5 352.4L442.2 355.2L445.9 358.3L449.6 361.8L453.3 365.6L457 369.6L460.6 374L464.2 378.6L467.7 383.4L471.1 388.4L474.4 393.6L477.5 399L480.5 404.4L483.3 410L486 415.7L488.4 421.4L490.7 427.2L492.7 433L494.5 438.8L496.1 444.5L497.4 450.2L498.5 455.8L499.4 461.3L500 466.7L500.3 471.9L500.4 477L500.2 482L499.8 486.7L499.1 491.2L498.2 495.5L497 499.6L495.6 503.5L494 507L492.2 510.4L490.1 513.4L487.9 516.2L485.5 518.7L482.9 520.9L480.2 522.8L477.4 524.5L474.4 525.8L471.4 526.9L468.2 527.6L465 528.1L461.8 528.4L458.5 528.3L455.2 528L451.9 527.5L448.7 526.7L445.5 525.7L442.4 524.5L439.4 523L436.5 521.4L433.8 519.6L431.2 517.7L428.8 515.6L426.5 513.4L424.5 511.1L422.7 508.8L421.2 506.3L419.9 503.8L418.8 501.3L418.1 498.8L417.7 496.2L417.6 493.8L417.8 491.3L418.3 488.9L419.2 486.6L420.4 484.5L421.9 482.4L423.9 480.5L426.1 478.7L428.8 477.1L431.8 475.7L435.1 474.5L438.8 473.5L442.9 472.7L447.3 472.2L452 471.9L457.1 471.8L462.4 472.1L468.1 472.6L474.1 473.3L480.3 474.4L486.8 475.7L493.5 477.4L500.5 479.3L507.7 481.4L515 483.9L522.5 486.7L530.2 489.7L538 493L545.8 496.5L553.8 500.3L561.7 504.3L569.7 508.5L577.7 513L585.6 517.7L593.5 522.5L601.3 527.5L609 532.7L616.5 538L623.9 543.4L631.1 548.8L638 554.4L644.7 560L651.1 565.7L657.2 571.3L663 577L668.4 582.6L673.5 588.1L678.2 593.5L682.4 598.9L686.3 604.1L689.6 609.1L692.5 614L695 618.7L696.9 623.1L698.3 627.3L699.2 631.3L699.6 634.9L699.4 638.3L698.7 641.3L697.4 644L695.6 646.3L693.3 648.2L690.3 649.8L686.9 650.9L682.8 651.6L678.3 651.9L673.2 651.7L667.6 651.1L661.4 650.1L654.8 648.6L647.7 646.6L640.1 644.1L632.1 641.2L623.6 637.8L614.7 634L605.5 629.7L595.9 624.9L585.9 619.7L575.6 614.1L565 608L554.2 601.5L543.1 594.6L531.9 587.3L520.4 579.7L508.9 571.7L497.2 563.3L485.5 554.7L473.7 545.8L461.9 536.6L450.1 527.1L438.4 517.5L426.8 507.6L415.3 497.6L404 487.4L392.9 477.2L382 466.9L371.4 456.5L361 446.1L351 435.7L341.3 425.4L332 415.1L323.1 404.9L314.6 394.9L306.6 385.1L299.1 375.4L292.1 366L285.6 356.8L279.6 348L274.2 339.4L269.4 331.2L265.2 323.4L261.6 315.9L258.6 308.9L256.2 302.3L254.4 296.2L253.3 290.6L252.9 285.5L253 280.9L253.9 276.8L255.3 273.4L257.4 270.5L260.1 268.1L263.5 266.4L267.4 265.3L272 264.8L277.1 264.8L282.8 265.6L289.1 266.9L295.9 268.8L303.2 271.4L311 274.6L319.3 278.4L328 282.8L337.2 287.7L346.7 293.3L356.6 299.4L366.9 306L377.5 313.2L388.3 320.9L399.4 329L410.7 337.7L422.2 346.8L433.8 356.3L445.5 366.2L457.4 376.5L469.2 387.1L481.1 398L493 409.2L504.8 420.6L516.5 432.3L528.1 444.1L539.6 456.2L550.9 468.3L561.9 480.5L572.8 492.7L583.3 505L593.6 517.2L603.5 529.4L613 541.6L622.2 553.5L631 565.4L639.4 577L647.3 588.5L654.8 599.6L661.8 610.5L668.3 621.1L674.2 631.3L679.7 641.2L684.6 650.7L689 659.7L692.9 668.4L696.1 676.5L698.9 684.2L701 691.3L702.6 697.9L703.7 704L704.2 709.5L704.1 714.4L703.5 718.8L702.4 722.6L700.7 725.7L698.5 728.3L695.8 730.3L692.7 731.6L689 732.3L685 732.4L680.4 731.9L675.5 730.8L670.2 729.2L664.4 726.9L658.4 724L652 720.6L645.3 716.6L638.3 712.1L631.1 707.1L623.7 701.6L616 695.6L608.2 689.1L600.3 682.2L592.2 674.9L584 667.2L575.8 659.1L567.5 650.8L559.2 642L551 633.1L542.8 623.8L534.6 614.4L526.6 604.7L518.6 594.9L510.8 584.9L503.2 574.9L495.7 564.7L488.5 554.6L481.5 544.4L474.7 534.2L468.2 524.1L462 514.1L456 504.2L450.4 494.4L445.1 484.8L440.1 475.3L435.4 466.1L431.1 457.1L427.2 448.4L423.6 439.9L420.4 431.8L417.5 424L415 416.5L412.9 409.4L411.1 402.7L409.7 396.4L408.7 390.4L408 384.9L407.6 379.9L407.6 375.2L407.9 371L408.5 367.2L409.4 363.9L410.6 361.1L412.1 358.7L413.9 356.8L415.8 355.3L418.1 354.2L420.5 353.6L423.1 353.4L425.9 353.7L428.8 354.4L431.9 355.4L435.1 356.9L438.4 358.8L441.7 361L445.2 363.5L448.6 366.4L452.1 369.7L455.6 373.2L459.1 376.9L462.5 381L465.9 385.3L469.2 389.8L472.4 394.4L475.5 399.3L478.4 404.3L481.3 409.4L483.9 414.7L486.5 420L488.8 425.4L490.9 430.8L492.9 436.2L494.6 441.6L496.1 447L497.4 452.4L498.5 457.7L499.3 462.8L499.9 467.9L500.2 472.9L500.3 477.7L500.2 482.3L499.9 486.8L499.3 491.1L498.4 495.2L497.4 499L496.1 502.7L494.6 506.1L492.9 509.3L491 512.2L489 514.8L486.8 517.2L484.4 519.3L481.8 521.2L479.2 522.7L476.4 524L473.6 525.1L470.6 525.9L467.6 526.4L464.6 526.6L461.5 526.6L458.4 526.4L455.3 525.9L452.3 525.2L449.3 524.3L446.4 523.2L443.6 521.9L440.8 520.4L438.2 518.7L435.8 516.9L433.5 515L431.3 513L429.4 510.8L427.7 508.6L426.2 506.3L424.9 504L423.9 501.6L423.2 499.2L422.7 496.9L422.6 494.5L422.7 492.2L423.2 490L423.9 487.8L425 485.7L426.4 483.8L428.2 481.9L430.3 480.3L432.7 478.7L435.5 477.4L438.6 476.2L442 475.2L445.7 474.5L449.8 473.9L454.2 473.6L458.9 473.5L463.9 473.7L469.2 474.1L474.7 474.8L480.6 475.8L486.6 477L492.9 478.5L499.4 480.2L506.1 482.2L513 484.5L520 487L527.2 489.8L534.5 492.9L541.9 496.2L549.3 499.7L556.8 503.4L564.3 507.4L571.8 511.5L579.2 515.9L586.7 520.4L594 525.1L601.2 529.9L608.3 534.8L615.3 539.9L622 545L628.6 550.3L634.9 555.5L641 560.8L646.7 566.1L652.2 571.4L657.4 576.7L662.2 581.9L666.6 587L670.7 592.1L674.4 597L677.6 601.8L680.4 606.4L682.8 610.8L684.7 615L686.1 619L687 622.7L687.4 626.2L687.3 629.4L686.7 632.3L685.6 634.8L684 637L681.9 638.9L679.2 640.4L676 641.6L672.3 642.3L668.1 642.6L663.4 642.5L658.2 642L652.6 641.1L646.4 639.8L639.8 638L632.8 635.7L625.3 633.1L617.4 630L609.1 626.4L600.5 622.4L591.5 618L582.2 613.2L572.5 608L562.7 602.3L552.5 596.3L542.2 589.9L531.6 583.1L520.9 576L510.1 568.5L499.1 560.7L488.1 552.7L477 544.3L466 535.7L454.9 526.9L443.9 517.8L433 508.6L422.2 499.2L411.5 489.7L401.1 480.1L390.8 470.4L380.8 460.7L371 450.9L361.5 441.2L352.4 431.4L343.6 421.8L335.2 412.2L327.2 402.8L319.6 393.5L312.4 384.4L305.8 375.6L299.6 366.9L293.9 358.5L288.8 350.5L284.1 342.7L280.1 335.3L276.6 328.2L273.7 321.6L271.4 315.3L269.6 309.5L268.5 304.2L267.9 299.3L268 294.9L268.7 291L269.9 287.7L271.8 284.8L274.3 282.6L277.3 280.8L280.9 279.7L285.1 279.1L289.9 279.1L295.1 279.7L301 280.9L307.3 282.6L314.1 284.9L321.3 287.8L329 291.3L337.2 295.3L345.7 299.9L354.6 305L363.9 310.6L373.5 316.8L383.3 323.4L393.5 330.6L403.8 338.2L414.4 346.2L425.2 354.7L436.1 363.6L447.1 372.8L458.2 382.4L469.3 392.3L480.5 402.5L491.6 413L502.7 423.7L513.8 434.7L524.7 445.8L535.5 457L546.1 468.4L556.5 479.8L566.7 491.3L576.7 502.9L586.3 514.4L595.7 525.8L604.8 537.2L613.4 548.5L621.8 559.6L629.7 570.6L637.2 581.4L644.3 591.9L650.9 602.2L657.1 612.2L662.8 621.8L668 631.2L672.7 640.1L676.9 648.7L680.6 656.8L683.7 664.6L686.4 671.8L688.5 678.6L690.1 684.9L691.2 690.7L691.7 696L691.7 700.7L691.2 704.9L690.2 708.5L688.8 711.6L686.8 714.1L684.4 716L681.5 717.3L678.1 718.1L674.3 718.3L670.1 717.9L665.6 717L660.6 715.5L655.3 713.4L649.7 710.8L643.7 707.7L637.5 704.1L631 699.9L624.2 695.3L617.3 690.2L610.1 684.6L602.8 678.6L595.4 672.2L587.8 665.4L580.1 658.2L572.4 650.7L564.6 642.8L556.9 634.7L549.1 626.3L541.4 617.7L533.7 608.8L526.1 599.8L518.7 590.6L511.3 581.2L504.1 571.8L497.1 562.3L490.3 552.8L483.6 543.2L477.2 533.7L471.1 524.2L465.2 514.7L459.6 505.4L454.2 496.2L449.2 487.1L444.5 478.2L440.1 469.5L436 461L432.2 452.8L428.8 444.8L425.7 437.1L423 429.8L420.6 422.7L418.5 416L416.8 409.6L415.4 403.6L414.4 398L413.7 392.7L413.3 387.9L413.2 383.5L413.5 379.5L414 375.9L414.8 372.7L415.9 369.9L417.2 367.6L418.8 365.7L420.7 364.3L422.7 363.2L424.9 362.6L427.4 362.4L430 362.5L432.7 363.1L435.6 364.1L438.6 365.4L441.6 367.1L444.8 369.1L448 371.5L451.3 374.1L454.5 377.1L457.8 380.3L461.1 383.9L464.3 387.6L467.5 391.6L470.6 395.8L473.6 400.2L476.5 404.7L479.3 409.4L482 414.2L484.5 419.1L486.9 424.1L489.1 429.1L491.2 434.2L493 439.3L494.7 444.4L496.1 449.5L497.4 454.5L498.4 459.4L499.2 464.3L499.8 469.1L500.2 473.8L500.3 478.3L500.2 482.7L499.9 487L499.4 491L498.7 494.9L497.7 498.5L496.5 502L495.2 505.2L493.6 508.2L491.9 511L490 513.5L487.9 515.8L485.7 517.8L483.3 519.6L480.9 521.1L478.3 522.4L475.6 523.4L472.9 524.2L470 524.7L467.2 525L464.3 525L461.4 524.8L458.5 524.4L455.7 523.8L452.8 523L450.1 521.9L447.4 520.7L444.8 519.4L442.4 517.8L440 516.2L437.8 514.4L435.8 512.5L434 510.5L432.3 508.4L430.9 506.3L429.7 504.1L428.7 501.9L428 499.6L427.5 497.4L427.3 495.2L427.4 493L427.8 490.9L428.4 488.9L429.4 486.9L430.7 485L432.3 483.3L434.2 481.7L436.4 480.2L439 478.9L441.8 477.8L445 476.9L448.5 476.1L452.2 475.6L456.3 475.3L460.7 475.1L465.3 475.3L470.2 475.6L475.4 476.2L480.9 477.1L486.5 478.2L492.4 479.5L498.5 481.1L504.7 483L511.2 485.1L517.7 487.4L524.5 490L531.3 492.8L538.2 495.9L545.2 499.2L552.2 502.6L559.2 506.3L566.3 510.2L573.3 514.2L580.3 518.5L587.2 522.8L594 527.3L600.7 532L607.2 536.7L613.6 541.5L619.8 546.4L625.7 551.4L631.5 556.3L637 561.3L642.2 566.3L647 571.2L651.6 576.1L655.9 581L659.7 585.7L663.2 590.4L666.3 594.9L669 599.2L671.3 603.4L673.2 607.4L674.6 611.2L675.5 614.7L676 618L676 621L675.5 623.8L674.5 626.3L673.1 628.4L671.2 630.2L668.7 631.7L665.8 632.8L662.4 633.5L658.6 633.9L654.2 633.9L649.4 633.5L644.2 632.7L638.4 631.5L632.3 629.9L625.7 627.8L618.8 625.4L611.4 622.5L603.7 619.3L595.7 615.6L587.3 611.5L578.6 607.1L569.6 602.2L560.3 597L550.9 591.4L541.2 585.4L531.3 579.1L521.3 572.4L511.1 565.5L500.8 558.2L490.5 550.7L480.1 542.9L469.7 534.8L459.3 526.6L449 518.1L438.7 509.5L428.5 500.7L418.5 491.8L408.6 482.8L399 473.7L389.5 464.5L380.3 455.4L371.4 446.2L362.7 437.1L354.4 428L346.5 419L338.9 410.1L331.7 401.4L324.9 392.8L318.6 384.5L312.7 376.3L307.3 368.4L302.4 360.8L297.9 353.4L294.1 346.4L290.7 339.7L287.9 333.4L285.6 327.5L283.9 321.9L282.7 316.8L282.1 312.2L282.1 308L282.6 304.3L283.7 301.1L285.4 298.3L287.6 296.1L290.4 294.4L293.7 293.2L297.6 292.6L301.9 292.5L306.8 293L312.2 294L318 295.5L324.3 297.6L331.1 300.3L338.3 303.4L345.8 307.1L353.8 311.3L362.1 316.1L370.8 321.3L379.7 327L388.9 333.2L398.4 339.8L408.1 346.9L418 354.4L428.1 362.3L438.3 370.5L448.7 379.2L459.1 388.1L469.5 397.4L480 406.9L490.5 416.7L500.9 426.8L511.3 437L521.6 447.4L531.7 457.9L541.7 468.6L551.5 479.3L561.2 490.1L570.5 501L579.7 511.8L588.5 522.5L597 533.3L605.3 543.9L613.1 554.3L620.6 564.7L627.7 574.8L634.5 584.7L640.8 594.4L646.6 603.9L652 613L657 621.8L661.5 630.3L665.5 638.4L669.1 646.1L672.1 653.4L674.7 660.3L676.7 666.7L678.3 672.7L679.4 678.2L680 683.3L680.1 687.8L679.7 691.8L678.8 695.3L677.5 698.2L675.7 700.7L673.5 702.6L670.9 703.9L667.8 704.7L664.3 705L660.4 704.7L656.2 703.9L651.6 702.6L646.7 700.8L641.4 698.4L635.9 695.6L630.1 692.2L624 688.4L617.7 684.1L611.2 679.4L604.5 674.2L597.6 668.6L590.7 662.7L583.6 656.3L576.4 649.7L569.1 642.7L561.9 635.3L554.6 627.7L547.3 619.9L540 611.8L532.8 603.5L525.7 595.1L518.6 586.4L511.7 577.7L504.9 568.9L498.3 559.9L491.9 551L485.6 542L479.6 533L473.8 524.1L468.2 515.2L462.9 506.5L457.8 497.8L453 489.2L448.5 480.9L444.3 472.7L440.5 464.7L436.9 456.9L433.6 449.4L430.7 442.1L428 435.1L425.7 428.4L423.8 422.1L422.1 416L420.8 410.3L419.7 405L419 400L418.6 395.4L418.5 391.2L418.7 387.4L419.1 383.9L419.9 380.9L420.8 378.3L422.1 376L423.5 374.2L425.2 372.7L427.1 371.7L429.2 371L431.4 370.8L433.8 370.9L436.4 371.3L439.1 372.2L441.8 373.4L444.7 374.9L447.7 376.7L450.7 378.9L453.7 381.4L456.8 384.1L459.9 387.1L462.9 390.4L466 393.9L469 397.6L471.9 401.5L474.7 405.6L477.5 409.8L480.2 414.2L482.7 418.7L485.1 423.3L487.4 427.9L489.5 432.7L491.4 437.4L493.2 442.2L494.8 447L496.2 451.8L497.4 456.5L498.4 461.2L499.2 465.8L499.8 470.3L500.1 474.7L500.3 479L500.3 483.1L500 487.1L499.5 491L498.9 494.6L498 498.1L496.9 501.4L495.7 504.4L494.2 507.3L492.6 509.9L490.9 512.3L489 514.5L486.9 516.5L484.7 518.2L482.4 519.6L480 520.9L477.5 521.9L474.9 522.6L472.3 523.1L469.6 523.4L466.9 523.5L464.2 523.4L461.5 523L458.8 522.4L456.1 521.7L453.5 520.8L451 519.7L448.6 518.4L446.2 517L444 515.4L441.9 513.8L440 512L438.3 510.1L436.7 508.2L435.3 506.2L434.1 504.2L433.2 502.1L432.4 500L432 497.9L431.7 495.8L431.8 493.8L432.1 491.8L432.7 489.8L433.5 488L434.7 486.2L436.1 484.6L437.9 483L439.9 481.6L442.3 480.4L444.9 479.3L447.8 478.4L451.1 477.7L454.6 477.1L458.3 476.8L462.4 476.7L466.7 476.7L471.3 477.1L476.1 477.6L481.2 478.3L486.5 479.3L492 480.6L497.6 482L503.5 483.7L509.5 485.7L515.7 487.8L522 490.2L528.4 492.8L534.8 495.7L541.4 498.7L548 501.9L554.6 505.4L561.2 509L567.8 512.8L574.4 516.7L580.8 520.8L587.3 525L593.5 529.3L599.7 533.8L605.7 538.3L611.6 542.9L617.2 547.5L622.6 552.2L627.8 556.8L632.7 561.5L637.4 566.2L641.7 570.8L645.8 575.3L649.4 579.8L652.8 584.2L655.8 588.4L658.4 592.5L660.6 596.5L662.4 600.3L663.7 603.8L664.7 607.2L665.2 610.3L665.3 613.2L664.9 615.9L664.1 618.2L662.8 620.3L661.1 622L658.9 623.5L656.2 624.6L653.1 625.3L649.5 625.7L645.5 625.8L641.1 625.5L636.2 624.8L630.9 623.7L625.2 622.2" opacity="0.1"/></g></svg>