<svg xmlns="http://www.w3.org/2000/svg" viewBox="0 0 1000 1000" preserveAspectRatio="xMidYMid slice" fill="none" stroke-linecap="round" stroke-linejoin="round"><g stroke="#0f3d2e" stroke-width="0.6"><path d="M705 589.6L726.4 620.5L746.4 650.8L764.9 680.6L781.7 709.5L797 737.4L810.5 764.2L822.2 789.8L832.2 813.9L840.3 836.5L846.5 857.5L850.9 876.7L853.5 894.1L854.2 909.5L853.1 922.9L850.2 934.2L845.6 943.3L839.3 950.2L831.3 954.8L821.9 957.2L810.9 957.2L798.6 955L785 950.6L770.1 943.8L754.2 934.9L737.3 923.8L719.6 910.6L701 895.4L681.9 878.2L662.2 859.2L642.1 838.5L621.8 816.1L601.2 792.1L580.7 766.8L560.2 740.3L540 712.6L520 684L500.4 654.5L481.4 624.4L463 593.8L445.3 562.9L428.3 531.8L412.3 500.7L397.1 469.8L383 439.1L370 408.9L358 379.4L347.2 350.6L337.6 322.8L329.2 296L322 270.4L316.1 246.1L311.4 223.3L307.9 202L305.6 182.4L304.5 164.5L304.5 148.4L305.7 134.2L307.9 122L311.2 111.7L315.4 103.5L320.5 97.4L326.4 93.3L333.1 91.3L340.5 91.4L348.5 93.6L357 97.7L366 103.8L375.3 111.9L384.9 121.8L394.7 133.5L404.7 146.9L414.7 162L424.6 178.5L434.4 196.5L444 215.8L453.4 236.3L462.4 257.8L471 280.3L479.2 303.6L486.9 327.5L494.1 352L500.6 376.9L506.5 402L511.8 427.3L516.4 452.5L520.3 477.6L523.6 502.4L526.1 526.8L527.9 550.6L529 573.8L529.5 596.2L529.3 617.7L528.5 638.3L527.1 657.7L525.1 676L522.7 693L519.8 708.7L516.5 723L512.8 735.9L508.9 747.3L504.7 757.2L500.4 765.6L495.9 772.4L491.4 777.6L487 781.3L482.6 783.4L478.4 784L474.5 783.1L470.8 780.7L467.4 777L464.5 771.8L462 765.4L460.1 757.8L458.7 748.9L457.9 739L457.7 728.2L458.1 716.4L459.3 703.8L461.2 690.4L463.8 676.5L467.1 662L471.1 647.2L475.8 632L481.3 616.6L487.4 601L494.2 585.5L501.7 570L509.7 554.7L518.2 539.7L527.3 525L536.8 510.8L546.7 497.1L556.9 483.9L567.3 471.4L577.9 459.6L588.6 448.6L599.3 438.3L610 428.9L620.5 420.4L630.8 412.8L640.8 406.1L650.3 400.4L659.4 395.6L668 391.7L675.8 388.8L683 386.7L689.4 385.6L694.9 385.3L699.5 385.8L703.1 387.1L705.6 389.2L707.1 391.9L707.4 395.3L706.5 399.2L704.4 403.7L701.1 408.6L696.6 413.9L690.8 419.4L683.7 425.3L675.4 431.3L665.9 437.4L655.2 443.5L643.3 449.6L630.3 455.6L616.2 461.4L601.1 467L585.1 472.3L568.2 477.3L550.4 481.9L532 486L512.9 489.7L493.3 492.9L473.3 495.5L453 497.5L432.4 498.9L411.8 499.8L391.2 500L370.7 499.6L350.5 498.6L330.6 497L311.3 494.9L292.5 492.2L274.5 488.9L257.3 485.2L241.1 481L226 476.3L211.9 471.4L199.2 466.1L187.8 460.6L177.8 454.8L169.3 449L162.4 443L157.2 437.1L153.6 431.3L151.7 425.5L151.7 420L153.4 414.8L156.9 409.9L162.2 405.4L169.3 401.4L178.2 397.9L188.9 395L201.2 392.7L215.3 391.2L231 390.4L248.2 390.3L266.9 391.1L287 392.7L308.4 395.2L330.9 398.6L354.6 402.9L379.3 408.1L404.8 414.2L431 421.2L457.8 429.1L485.1 437.8L512.7 447.4L540.4 457.7L568.2 468.8L595.8 480.6L623.2 493L650.2 506L676.6 519.5L702.3 533.4L727.1 547.7L751 562.3L773.7 577L795.3 591.9L815.4 606.7L834.1 621.5L851.2 636.1L866.6 650.4L880.3 664.3L892.1 677.8L902.1 690.7L910 702.9L915.9 714.4L919.8 725L921.5 734.7L921.2 743.3L918.7 750.9L914.1 757.4L907.5 762.6L898.8 766.5L888 769.1L875.3 770.3L860.7 770.1L844.3 768.5L826.1 765.4L806.3 760.8L784.8 754.7L762 747.2L737.8 738.1L712.4 727.7L686 715.8L658.6 702.6L630.4 688L601.5 672.2L572.2 655.2L542.5 637.1L512.6 617.9L482.7 597.8L452.9 576.8L423.4 555.1L394.3 532.7L365.8 509.8L338 486.5L311.1 462.9L285.2 439.1L260.4 415.3L236.9 391.6L214.8 368.1L194.2 345L175.1 322.3L157.8 300.3L142.2 278.9L128.5 258.5L116.7 239L106.8 220.6L99 203.5L93.2 187.6L89.5 173.2L87.8 160.2L88.2 148.9L90.7 139.2L95.2 131.2L101.7 125.1L110.1 120.7L120.4 118.3L132.6 117.8L146.5 119.2L162.1 122.5L179.3 127.8L197.9 135L217.9 144.1L239.2 155.1L261.6 167.9L285 182.4L309.3 198.7L334.3 216.6L359.9 236L386 256.9L412.3 279.2L438.9 302.7L465.5 327.3L492 352.9L518.3 379.4L544.2 406.6L569.6 434.4L594.3 462.7L618.3 491.3L641.4 520.1L663.5 548.9L684.5 577.5L704.3 605.8L722.8 633.7L740 661.1L755.7 687.7L769.9 713.4L782.5 738.1L793.5 761.7L802.9 784.1L810.6 805L816.6 824.5L820.9 842.3L823.5 858.5L824.4 872.9L823.6 885.5L821.2 896.1L817.3 904.7L811.7 911.4L804.7 916L796.2 918.5L786.4 918.9L775.3 917.2L763 913.4L749.6 907.6L735.2 899.7L719.9 889.9L703.7 878.1L686.8 864.4L669.4 849L651.4 831.9L633.1 813.1L614.5 792.8L595.7 771.1L576.9 748.1L558.1 724L539.5 698.8L521.2 672.7L503.2 645.9L485.7 618.4L468.7 590.4L452.4 562.1L436.8 533.7L421.9 505.2L407.9 476.8L394.9 448.7L382.8 421L371.6 393.8L361.6 367.3L352.6 341.7L344.7 317L338 293.4L332.4 271L327.9 249.8L324.5 230.1L322.2 211.9L321 195.2L320.9 180.2L321.8 167L323.7 155.5L326.5 145.8L330.2 138L334.8 132.1L340.1 128L346.1 125.9L352.8 125.7L360 127.3L367.8 130.9L375.9 136.2L384.4 143.3L393.2 152.1L402.2 162.6L411.2 174.6L420.4 188.1L429.5 203.1L438.5 219.4L447.3 236.8L456 255.4L464.3 275L472.2 295.5L479.8 316.7L486.9 338.5L493.6 360.9L499.6 383.6L505.2 406.6L510.1 429.7L514.4 452.8L518.1 475.8L521.1 498.6L523.6 521L525.3 542.9L526.5 564.3L527 584.9L526.9 604.7L526.2 623.7L525 641.7L523.3 658.6L521.2 674.4L518.6 688.9L515.6 702.3L512.3 714.3L508.7 724.9L504.9 734.2L501 742.1L496.9 748.5L492.8 753.6L488.7 757.2L484.7 759.3L480.8 760.1L477.2 759.5L473.8 757.5L470.6 754.3L467.9 749.8L465.6 744.1L463.7 737.2L462.3 729.3L461.5 720.4L461.2 710.6L461.6 699.9L462.5 688.5L464.1 676.4L466.4 663.7L469.3 650.5L472.9 637L477.1 623.1L482 609L487.6 594.8L493.7 580.6L500.4 566.4L507.7 552.3L515.4 538.5L523.7 525L532.3 511.9L541.3 499.3L550.6 487.1L560.1 475.6L569.8 464.7L579.6 454.4L589.4 444.9L599.2 436.2L608.8 428.3L618.3 421.2L627.5 414.9L636.3 409.5L644.7 405L652.6 401.3L659.9 398.5L666.6 396.5L672.6 395.3L677.7 394.9L682.1 395.3L685.5 396.4L688 398.2L689.5 400.6L689.9 403.6L689.3 407.1L687.6 411.1L684.7 415.5L680.8 420.3L675.6 425.4L669.4 430.7L661.9 436.2L653.4 441.8L643.8 447.4L633 453L621.3 458.5L608.6 463.8L594.9 469L580.3 473.9L564.9 478.5L548.8 482.8L532 486.6L514.7 490.1L496.8 493L478.5 495.5L459.9 497.5L441.1 498.9L422.2 499.7L403.3 500L384.6 499.7L366 498.9L347.8 497.6L330 495.7L312.7 493.2L296.1 490.3L280.2 487L265.2 483.2L251.2 479L238.2 474.5L226.3 469.7L215.7 464.7L206.3 459.5L198.3 454.1L191.8 448.7L186.7 443.3L183.2 437.9L181.2 432.6L180.9 427.6L182.2 422.7L185.1 418.2L189.7 414L196 410.2L203.9 407L213.4 404.2L224.5 402.1L237.1 400.5L251.2 399.7L266.8 399.5L283.7 400.1L301.9 401.5L321.3 403.6L341.8 406.6L363.3 410.4L385.8 415.1L409 420.5L432.9 426.8L457.4 433.9L482.3 441.8L507.6 450.4L532.9 459.7L558.4 469.8L583.7 480.5L608.9 491.8L633.6 503.6L657.9 515.9L681.5 528.6L704.4 541.6L726.4 554.9L747.4 568.4L767.3 582L786 595.6L803.3 609.1L819.2 622.5L833.6 635.7L846.4 648.5L857.5 660.9L866.9 672.8L874.4 684.1L880.1 694.7L884 704.5L885.9 713.6L885.9 721.7L883.9 728.8L880.1 734.8L874.3 739.8L866.6 743.6L857 746.2L845.7 747.5L832.6 747.5L817.8 746.2L801.4 743.6L783.5 739.6L764.1 734.2L743.4 727.5L721.4 719.5L698.3 710.1L674.2 699.5L649.3 687.5L623.5 674.4L597.2 660.1L570.4 644.7L543.3 628.2L515.9 610.8L488.5 592.5L461.2 573.4L434.1 553.6L407.4 533.2L381.2 512.3L355.7 491L330.9 469.5L307 447.7L284.1 425.9L262.4 404.2L242 382.6L222.8 361.4L205.2 340.5L189 320.2L174.5 300.6L161.7 281.7L150.6 263.8L141.3 246.8L133.8 230.9L128.2 216.1L124.5 202.7L122.6 190.6L122.7 180L124.7 170.9L128.5 163.3L134.1 157.4L141.6 153.2L150.8 150.7L161.7 149.9L174.2 150.9L188.2 153.7L203.7 158.3L220.6 164.6L238.7 172.6L258 182.4L278.3 193.9L299.6 206.9L321.7 221.6L344.5 237.8L367.9 255.3L391.7 274.3L415.9 294.5L440.2 315.8L464.6 338.2L488.8 361.5L512.9 385.6L536.7 410.5L560 435.9L582.8 461.7L604.9 487.9L626.2 514.2L646.6 540.5L666 566.8L684.3 592.8L701.4 618.4L717.3 643.6L731.9 668L745.2 691.7L757 714.5L767.3 736.3L776.1 757L783.4 776.4L789.1 794.4L793.3 811L796 826.1L797 839.5L796.6 851.3L794.6 861.3L791.2 869.5L786.4 875.9L780.2 880.4L772.6 883L763.8 883.7L753.8 882.4L742.7 879.3L730.6 874.2L717.6 867.3L703.6 858.6L689 848.1L673.6 835.9L657.7 822L641.3 806.5L624.6 789.6L607.6 771.2L590.4 751.5L573.2 730.7L556 708.7L538.9 685.8L522.1 662L505.5 637.5L489.4 612.4L473.8 586.9L458.8 561L444.3 535L430.6 508.9L417.7 482.9L405.6 457.1L394.3 431.6L384 406.7L374.6 382.3L366.3 358.7L358.9 336L352.5 314.2L347.2 293.4L342.9 273.9L339.7 255.6L337.4 238.7L336.2 223.2L335.9 209.2L336.6 196.8L338.2 186L340.7 176.9L343.9 169.5L348 163.8L352.7 159.8L358.2 157.6L364.2 157.1L370.7 158.4L377.7 161.3L385.1 165.9L392.9 172.2L400.9 180L409.1 189.3L417.4 200.2L425.8 212.3L434.1 225.8L442.4 240.5L450.5 256.4L458.4 273.2L466.1 291L473.4 309.7L480.4 329L487 348.9L493.2 369.3L498.8 390.1L504 411.1L508.6 432.3L512.6 453.4L516.1 474.5L519 495.4L521.3 516L523 536.1L524.1 555.8L524.7 574.8L524.7 593.1L524.2 610.6L523.1 627.2L521.7 642.8L519.7 657.4L517.4 671L514.7 683.4L511.8 694.6L508.5 704.5L505.1 713.2L501.5 720.6L497.8 726.8L494 731.6L490.3 735.1L486.6 737.3L483 738.2L479.6 737.8L476.4 736.2L473.5 733.4L471 729.5L468.8 724.4L467 718.3L465.7 711.2L464.8 703.2L464.5 694.3L464.7 684.7L465.5 674.3L466.9 663.3L468.8 651.8L471.4 639.8L474.6 627.4L478.4 614.8L482.8 601.9L487.8 588.9L493.3 575.8L499.4 562.9L505.9 550L513 537.3L520.4 524.9L528.3 512.8L536.5 501.2L544.9 490L553.6 479.3L562.5 469.2L571.4 459.7L580.4 450.9L589.4 442.8L598.3 435.4L607 428.8L615.4 423L623.6 417.9L631.3 413.6L638.6 410.1L645.4 407.4L651.6 405.5L657.2 404.3L662.1 403.8L666.2 404L669.4 404.9L671.9 406.4L673.4 408.6L673.9 411.2L673.5 414.4L672.1 418L669.7 422L666.2 426.3L661.7 430.9L656.1 435.8L649.5 440.7L641.8 445.8L633.1 451L623.5 456.1L612.9 461.2L601.3 466.1L588.9 470.9L575.7 475.4L561.8 479.7L547.1 483.6L531.8 487.2L516 490.4L499.7 493.2L483 495.6L466 497.4L448.8 498.8L431.5 499.6L414.2 500L397 499.8L380 499.2L363.2 498L346.8 496.3L330.9 494.2L315.6 491.6L301 488.6L287.1 485.2L274.1 481.4L262 477.4L251 473L241.1 468.4L232.3 463.7L224.8 458.8L218.6 453.8L213.7 448.8L210.3 443.9L208.3 439.1L207.7 434.4L208.7 429.9L211.1 425.7L215.1 421.8L220.6 418.3L227.6 415.2L236 412.6L246 410.6L257.3 409.1L270 408.2L284.1 408L299.4 408.4L315.8 409.5L333.4 411.4L352.1 414L371.7 417.4L392.1 421.5L413.2 426.4L435.1 432L457.4 438.4L480.2 445.5L503.2 453.3L526.5 461.7L549.8 470.8L573 480.5L596 490.8L618.8 501.5L641.1 512.7L662.8 524.3L683.9 536.2L704.2 548.3L723.6 560.7L742 573.1L759.3 585.6L775.3 598L790.1 610.3L803.5 622.3L815.5 634.1L825.9 645.6L834.7 656.5L841.9 667L847.4 676.8L851.2 685.9L853.2 694.3L853.5 701.9L852 708.5L848.7 714.2L843.7 719L836.9 722.6L828.5 725.1L818.4 726.5L806.6 726.7L793.3 725.7L778.5 723.5L762.3 720.1L744.8 715.4L726 709.4L706 702.3L685 693.9L663.1 684.3L640.4 673.6L616.9 661.7L592.9 648.8L568.4 634.8L543.6 619.9L518.6 604.1L493.5 587.4L468.5 570.1L443.6 552L419.1 533.5L395 514.4L371.5 494.9L348.7 475.2L326.7 455.3L305.6 435.3L285.5 415.4L266.6 395.6L248.9 376.1L232.5 357L217.5 338.3L203.9 320.2L191.9 302.8L181.5 286.2L172.7 270.5L165.6 255.8L160.2 242.1L156.5 229.6L154.6 218.3L154.4 208.4L155.9 199.8L159.1 192.7L164 187L170.6 182.9L178.7 180.4L188.5 179.4L199.7 180.1L212.3 182.3L226.3 186.3L241.6 191.8L258 198.9L275.5 207.6L294 217.9L313.3 229.6L333.5 242.8L354.3 257.4L375.6 273.3L397.3 290.4L419.4 308.7L441.7 328.1L464 348.5L486.3 369.7L508.4 391.7L530.2 414.3L551.6 437.5L572.5 461.1L592.9 485.1L612.5 509.2L631.3 533.3L649.2 557.4L666.2 581.2L682 604.8L696.8 627.8L710.4 650.4L722.7 672.2L733.7 693.2L743.4 713.3L751.7 732.4L758.6 750.3L764 767.1L768.1 782.5L770.7 796.5L772 809.1L771.8 820.1L770.2 829.5L767.3 837.3L763.1 843.4L757.6 847.8L750.8 850.5L743 851.4L734 850.5L724 847.9L713 843.6L701.2 837.5L688.6 829.8L675.2 820.4L661.3 809.5L646.8 797L631.8 783.1L616.5 767.7L601 751.1L585.3 733.3L569.5 714.4L553.8 694.4L538.1 673.5L522.6 651.9L507.5 629.6L492.6 606.7L478.3 583.3L464.4 559.7L451.1 535.9L438.4 512L426.5 488.1L415.2 464.4L404.8 441.1L395.2 418.1L386.5 395.7L378.7 374L371.8 353L365.8 332.9L360.8 313.8L356.7 295.7L353.6 278.8L351.4 263.1L350.1 248.7L349.7 235.7L350.2 224.1L351.5 214L353.7 205.4L356.6 198.3L360.1 192.8L364.4 188.9L369.3 186.7L374.7 186L380.6 186.8L387 189.3L393.7 193.3L400.8 198.8L408.1 205.7L415.5 214.1L423.1 223.7L430.8 234.7L438.4 246.9L446 260.2L453.5 274.5L460.8 289.8L467.8 306L474.6 322.9L481.1 340.5L487.2 358.7L492.9 377.3L498.1 396.3L502.9 415.5L507.2 434.9L511 454.3L514.3 473.6L517 492.8L519.2 511.7L520.8 530.2L521.9 548.2L522.5 565.7L522.6 582.6L522.2 598.8L521.4 614.1L520.1 628.6L518.4 642.1L516.3 654.7L513.9 666.2L511.2 676.6L508.3 685.9L505.2 694.1L501.9 701.1L498.5 706.9L495.1 711.4L491.6 714.8L488.2 717L484.9 718.1L481.8 717.9L478.9 716.6L476.2 714.2L473.8 710.8L471.7 706.3L470 700.9L468.7 694.5L467.9 687.3L467.5 679.3L467.6 670.6L468.3 661.2L469.4 651.2L471.1 640.7L473.4 629.8L476.3 618.5L479.6 607L483.6 595.2L488 583.3L493 571.4L498.5 559.4L504.4 547.6L510.8 536L517.6 524.6L524.7 513.5L532.2 502.7L539.9 492.4L547.8 482.6L555.9 473.2L564.1 464.5L572.4 456.3L580.6 448.8L588.7 441.9L596.7 435.7L604.5 430.3L612 425.5L619.2 421.5L625.9 418.1L632.2 415.5L638 413.7L643.2 412.4L647.8 411.9L651.6 412L654.7 412.8L657.1 414.1L658.6 415.9L659.3 418.3L659 421.1L657.9 424.3L655.8 427.9L652.8 431.9L648.8 436L643.8 440.4L637.9 445L631 449.7L623.2 454.4L614.5 459.1L605 463.7L594.5 468.3L583.3 472.6L571.3 476.8L558.6 480.8L545.3 484.5L531.4 487.8L517 490.8L502.1 493.4L486.9 495.6L471.4 497.4L455.7 498.7L439.8 499.6L424 500L408.2 499.9L392.5 499.4L377.2 498.4L362.1 496.9L347.5 495L333.4 492.7L319.8 490L307 487L295 483.6L283.8 479.9L273.5 475.9L264.3 471.8L256.1 467.4L249 463L243.1 458.4L238.5 453.9L235.1 449.3L233 444.9L232.3 440.6L233 436.4L235 432.6L238.4 428.9L243.2 425.7L249.4 422.8L256.9 420.3L265.8 418.4L276 416.9L287.5 416L300.1 415.7L314 416L328.9 416.9L344.8 418.5L361.8 420.8L379.6 423.8L398.1 427.4L417.4 431.8L437.3 436.9L457.7 442.6L478.5 449L499.6 456L520.8 463.7L542.2 471.9L563.5 480.7L584.6 490L605.5 499.8L626 510L646 520.5L665.4 531.4L684.1 542.5L702 553.7L719 565.1L735 576.5L749.9 587.9L763.6 599.2L776.1 610.3L787.3 621.1L797 631.7L805.3 641.8L812.2 651.4L817.5 660.5L821.2 669L823.3 676.8L823.8 683.8L822.7 690.1L820 695.4L815.6 699.9L809.7 703.4L802.2 705.9L793.1 707.3L782.6 707.7L770.6 707L757.3 705.1L742.7 702.1L726.8 698L709.7 692.7L691.6 686.4L672.6 678.8L652.6 670.2L631.9 660.6L610.5 649.9L588.6 638.2L566.3 625.5L543.6 612L520.7 597.7L497.7 582.6L474.8 566.8L452 550.3L429.5 533.4L407.3 516L385.7 498.2L364.7 480.2L344.4 462L325 443.7L306.4 425.4L288.9 407.3L272.5 389.4L257.3 371.8L243.4 354.6L230.7 338L219.5 321.9L209.7 306.6L201.5 292.1L194.7 278.4L189.5 265.7L185.9 254.1L183.8 243.6L183.4 234.3L184.5 226.3L187.2 219.5L191.5 214.1L197.3 210.1L204.5 207.5L213.2 206.4L223.2 206.8L234.6 208.7L247.2 212L261 216.8L275.9 223.1L291.8 230.9L308.6 240L326.2 250.6L344.5 262.5L363.5 275.6L382.9 290L402.8 305.5L423 322.1L443.3 339.7L463.8 358.2L484.2 377.5L504.4 397.6L524.5 418.2L544.2 439.4L563.4 461L582.1 482.8L600.2 504.9L617.5 527L634.1 549L649.8 570.9L664.5 592.5L678.1 613.7L690.7 634.5L702.2 654.6L712.5 673.9L721.5 692.5L729.3 710.1L735.9 726.7L741.1 742.2L745 756.5L747.6 769.6L749 781.3L749 791.6L747.8 800.5L745.3 807.9L741.6 813.7L736.7 818L730.8 820.7L723.7 821.8L715.7 821.2L706.6 819.1L696.7 815.4L686 810.1L674.6 803.2L662.5 794.9L649.8 785.1L636.6 773.9L622.9 761.3L609 747.5L594.8 732.5L580.4 716.3L566 699.1L551.5 681L537.2 662L523 642.3L509 621.9L495.4 601.1L482.2 579.7L469.4 558.1L457.1 536.3L445.4 514.4L434.3 492.6L424 470.9L414.3 449.4L405.4 428.4L397.3 407.8L390 387.7L383.5 368.4L377.9 349.9L373.2 332.2L369.3 315.5L366.3 299.8L364.2 285.2L362.9 271.9L362.4 259.7L362.7 248.9L363.8 239.4L365.6 231.3L368.2 224.6L371.4 219.4L375.2 215.6L379.5 213.3L384.4 212.4L389.8 213L395.5 215L401.7 218.4L408.1 223.2L414.7 229.4L421.5 236.8L428.5 245.5L435.5 255.4L442.5 266.3L449.5 278.4L456.3 291.4L463 305.2L469.5 319.9L475.8 335.3L481.8 351.3L487.4 367.9L492.7 384.9L497.5 402.2L502 419.8L506 437.5L509.5 455.3L512.6 473L515.2 490.6L517.3 507.9L518.9 525L520 541.6L520.6 557.7L520.7 573.2L520.4 588.1L519.7 602.3L518.6 615.7L517.1 628.2L515.3 639.9L513.1 650.6L510.7 660.3L508 669L505.2 676.6L502.2 683.2L499.1 688.7L496 693L492.8 696.3L489.7 698.5L486.7 699.6L483.8 699.7L481.1 698.6L478.6 696.6L476.3 693.6L474.4 689.7L472.8 684.8L471.5 679.1L470.7 672.7L470.3 665.4L470.3 657.5L470.8 649L471.8 640L473.3 630.4L475.3 620.5L477.8 610.2L480.8 599.7L484.3 588.9L488.4 578L492.8 567.1L497.8 556.2L503.2 545.3L509 534.6L515.1 524.2L521.6 513.9L528.4 504L535.4 494.5L542.6 485.4L550 476.8L557.5 468.7L565.1 461.1L572.6 454.1L580.1 447.8L587.4 442L594.6 436.9L601.5 432.4L608.1 428.6L614.4 425.5L620.2 423L625.6 421.2L630.4 420L634.7 419.4L638.3 419.4L641.3 420L643.6 421.1L645.1 422.7L645.8 424.8L645.7 427.3L644.8 430.2L643 433.5L640.4 437L636.9 440.8L632.5 444.8L627.2 449L621.1 453.2L614.1 457.5L606.2 461.8L597.6 466.1L588.1 470.3L578 474.3L567.1 478.2L555.6 481.9L543.5 485.3L530.8 488.4L517.7 491.2L504.1 493.6L490.2 495.7L476.1 497.4L461.7 498.7L447.2 499.5L432.7 500L418.2 500L403.9 499.5L389.7 498.7L375.9 497.4L362.4 495.7L349.4 493.7L336.9 491.3L325.1 488.5L313.9 485.5L303.6 482.1L294 478.5L285.4 474.8L277.7 470.8L271.1 466.7L265.5 462.6L261.1 458.4L257.8 454.3L255.7 450.2L254.9 446.2L255.3 442.4L256.9 438.8L259.9 435.4L264.1 432.4L269.5 429.7L276.2 427.4L284.2 425.5L293.3 424.1L303.6 423.2L315 422.8L327.5 423L341 423.8L355.5 425.1L370.9 427.1L387.1 429.7L404 433L421.5 436.9L439.7 441.4L458.3 446.5L477.3 452.3L496.5 458.7L516 465.6L535.5 473L555 481L574.4 489.5L593.6 498.4L612.4 507.6L630.8 517.2L648.7 527.1L665.9 537.3L682.4 547.6L698.1 558L712.9 568.4L726.7 578.9L739.5 589.2L751.1 599.4L761.5 609.4L770.7 619.1L778.5 628.4L785 637.3L790.1 645.7L793.7 653.6L795.9 660.8L796.6 667.4L795.8 673.2L793.5 678.2L789.8 682.5L784.6 685.8L777.9 688.2L769.9 689.7L760.4 690.2L749.7 689.7L737.7 688.2L724.4 685.6L710.1 682L694.6 677.3L678.2 671.7L660.9 664.9L642.7 657.2L623.9 648.5L604.4 638.9L584.4 628.3L564 616.9L543.2 604.6L522.3 591.6L501.2 577.9L480.2 563.5L459.3 548.5L438.7 533.1L418.3 517.2L398.5 501L379.1 484.5L360.4 467.8L342.5 451.1L325.4 434.4L309.2 417.7L294 401.3L279.9 385.1L266.9 369.3L255.2 354L244.7 339.2L235.5 325.1L227.7 311.6L221.3 299L216.3 287.3L212.8 276.5L210.7 266.7L210 258L210.8 250.4L213.1 244L216.8 238.9L221.8 235L228.2 232.5L236 231.2L245 231.4L255.2 232.8L266.6 235.7L279.1 239.9L292.5 245.4L306.9 252.3L322.2 260.5L338.2 270L354.9 280.7L372.2 292.5L389.9 305.5L408.1 319.6L426.5 334.6L445.1 350.6L463.8 367.4L482.5 385L501.1 403.2L519.5 422.1L537.6 441.4L555.3 461.1L572.5 481.1L589.2 501.2L605.2 521.5L620.4 541.7L634.9 561.8L648.5 581.6L661.2 601.1L672.9 620.1L683.6 638.6L693.2 656.5L701.6 673.6L709 689.9L715.1 705.3L720.1 719.6L723.9 732.9L726.5 745.1L727.9 756L728.1 765.7L727.2 774L725.1 781L721.9 786.5L717.6 790.7L712.3 793.4L706 794.6L698.7 794.4L690.6 792.6L681.7 789.5L672 784.8L661.6 778.8L650.6 771.4L639 762.6L627 752.5L614.6 741.2L601.9 728.8L588.9 715.2L575.7 700.5L562.5 684.9L549.3 668.5L536.1 651.2L523.1 633.2L510.3 614.7L497.8 595.6L485.6 576.2L473.8 556.4L462.5 536.5L451.7 516.4L441.4 496.4L431.8 476.5L422.9 456.8L414.6 437.4L407.1 418.5L400.3 400.1L394.2 382.3L389 365.2L384.5 348.8L380.8 333.4L378 318.9L375.9 305.4L374.6 293L374 281.7L374.2 271.6L375.1 262.7L376.6 255L378.9 248.7L381.7 243.7L385.1 240L389 237.7L393.4 236.7L398.3 237L403.5 238.6L409 241.6L414.9 245.8L420.9 251.2L427.1 257.8L433.5 265.6L439.9 274.5L446.3 284.4L452.7 295.2L459 307L465.2 319.6L471.2 332.9L476.9 346.9L482.4 361.5L487.7 376.6L492.5 392.1L497.1 407.9L501.2 424L504.9 440.2L508.3 456.5L511.1 472.7L513.6 488.8L515.5 504.8L517.1 520.4L518.2 535.7L518.8 550.5L519 564.8L518.8 578.6L518.2 591.7L517.2 604L515.9 615.7L514.3 626.5L512.3 636.4L510.2 645.4L507.8 653.5L505.2 660.7L502.5 666.9L499.6 672L496.8 676.2L493.9 679.4L491 681.5L488.2 682.7L485.6 682.9L483 682.1L480.7 680.4L478.6 677.8L476.8 674.3L475.3 670L474.1 664.9L473.2 659.1L472.8 652.6L472.8 645.5L473.2 637.8L474 629.5L475.3 620.9L477 611.8L479.3 602.4L482 592.8L485.1 583L488.7 573L492.8 563L497.2 553L502.1 543.1L507.3 533.3L512.9 523.6L518.8 514.2L525 505.1L531.4 496.3L538 488L544.7 480L551.6 472.5L558.5 465.5L565.4 459L572.2 453.1L579 447.7L585.6 442.9L591.9 438.7L598.1 435.1L603.8 432.2L609.3 429.8L614.2 428L618.8 426.8L622.8 426.2L626.2 426.1L629 426.6L631.2 427.5L632.7 428.9L633.5 430.8L633.5 433L632.8 435.6L631.3 438.6L629 441.8L625.9 445.2L622 448.9L617.3 452.6L611.8 456.5L605.5 460.5L598.5 464.4L590.7 468.3L582.1 472.2L572.9 475.9L563.1 479.5L552.6 482.9L541.6 486L530.1 488.9L518.1 491.5L505.8 493.8L493.1 495.8L480.2 497.4L467 498.6L453.8 499.5L440.5 499.9L427.2 500L414 499.7L401.1 498.9L388.3 497.8L375.9 496.4L364 494.5L352.5 492.4L341.5 489.9L331.2 487.1L321.6 484.1L312.7 480.9L304.7 477.4L297.5 473.9L291.3 470.1L286 466.4L281.8 462.5L278.6 458.7L276.5 455L275.6 451.3L275.7 447.8L277.1 444.4L279.6 441.3L283.2 438.5L288.1 436L294 433.8L301.1 432L309.3 430.7L318.6 429.8L328.9 429.3L340.2 429.4L352.4 430L365.5 431.2L379.5 432.9L394.2 435.2L409.5 438.1L425.5 441.6L442.1 445.6L459 450.3L476.4 455.4L494 461.2L511.8 467.4L529.7 474.2L547.5 481.4L565.3 489.1L582.9 497.2L600.2 505.6L617.1 514.4L633.6 523.4L649.5 532.6L664.7 542.1L679.2 551.6L692.9 561.1L705.7 570.7L717.5 580.2L728.3 589.6L738.1 598.7L746.6 607.6L754 616.2L760.1 624.5L765 632.2L768.5 639.5L770.7 646.2L771.6 652.4L771.1 657.8L769.2 662.5L766 666.5L761.4 669.7L755.6 672.1L748.4 673.6L740 674.2L730.3 673.9L719.5 672.6L707.5 670.4L694.5 667.3L680.6 663.2L665.7 658.1L649.9 652.1L633.4 645.2L616.2 637.3L598.5 628.6L580.2 619.1L561.6 608.8L542.6 597.6L523.5 585.8L504.2 573.3L485 560.3L465.8 546.7L446.8 532.6L428.2 518.1L409.9 503.3L392.1 488.2L374.9 473L358.3 457.7L342.5 442.3L327.6 427.1L313.5 412L300.4 397.1L288.4 382.6L277.4 368.5L267.6 354.9L259 341.8L251.7 329.4L245.6 317.7L240.8 306.8L237.4 296.8L235.2 287.7L234.4 279.6L235 272.5L236.8 266.4L240 261.5L244.4 257.8L250.1 255.3L257 254L265.1 253.9L274.3 255L284.5 257.4L295.8 261.1L308 266L321 272.1L334.9 279.4L349.4 287.9L364.6 297.5L380.4 308.2L396.6 319.9L413.1 332.6L430 346.3L447 360.8L464.1 376.1L481.3 392.1L498.3 408.7L515.2 425.8L531.8 443.5L548.1 461.5L563.9 479.7L579.3 498.2L594 516.7L608.1 535.2L621.5 553.7L634.1 571.9L645.8 589.8L656.7 607.3L666.6 624.3L675.6 640.8L683.5 656.5L690.4 671.6L696.2 685.8L700.9 699.1L704.6 711.4L707.1 722.7L708.6 732.9L708.9 742L708.2 749.8L706.5 756.4L703.7 761.7L700 765.7L695.2 768.4L689.6 769.7L683.1 769.7L675.8 768.3L667.7 765.6L659 761.6L649.5 756.3L639.5 749.7L629 741.9L618.1 732.8L606.8 722.6L595.2 711.4L583.3 699.1L571.3 685.8L559.2 671.7L547.1 656.7L535 641L523 624.7L511.3 607.8L499.8 590.4L488.5 572.6L477.7 554.5L467.3 536.3L457.3 518L447.8 499.6L438.9 481.3L430.6 463.3L423 445.5L415.9 428.1L409.6 411.1L404 394.7L399 379L394.8 363.9L391.4 349.6L388.6 336.2L386.6 323.7L385.3 312.1L384.6 301.6L384.7 292.2L385.4 283.9L386.8 276.7L388.7 270.7L391.2 265.9L394.2 262.4L397.8 260L401.7 258.9L406.1 259L410.8 260.3L415.9 262.8L421.2 266.5L426.7 271.3L432.4 277.2L438.2 284.1L444 292.1L449.9 301L455.8 310.8L461.6 321.5L467.2 332.9L472.7 345L478.1 357.7L483.1 371L488 384.7L492.5 398.9L496.7 413.3L500.5 428L504 442.9L507.1 457.8L509.8 472.6L512.1 487.4L514 502.1L515.4 516.4L516.5 530.5L517.1 544.1L517.4 557.3L517.3 570L516.8 582.1L515.9 593.5L514.8 604.3L513.3 614.3L511.6 623.5L509.6 631.9L507.5 639.5L505.1 646.2L502.7 652L500.1 656.9L497.5 660.8L494.8 663.9L492.2 666L489.6 667.2L487.2 667.5L484.8 667L482.7 665.5L480.7 663.3L479 660.2L477.5 656.4L476.4 651.8L475.6 646.6L475.1 640.7L475 634.3L475.3 627.3L476 619.9L477.2 612L478.7 603.7L480.7 595.2L483.1 586.4L485.9 577.4L489.1 568.4L492.8 559.2L496.8 550L501.2 540.9L505.9 531.9L511 523L516.3 514.4L522 506L527.8 497.9L533.8 490.2L540 482.8L546.2 475.9L552.6 469.4L558.9 463.4L565.2 457.8L571.4 452.8L577.4 448.4L583.3 444.5L588.9 441.1L594.3 438.3L599.3 436L603.9 434.3L608.1 433.1L611.9 432.5L615.1 432.3L617.8 432.7L619.9 433.5L621.3 434.7L622.2 436.3L622.3 438.3L621.8 440.7L620.5 443.3L618.5 446.2L615.8 449.3L612.4 452.6L608.2 456.1L603.3 459.6L597.6 463.2L591.3 466.8L584.2 470.4L576.5 474L568.2 477.4L559.3 480.7L549.8 483.8L539.8 486.7L529.3 489.4L518.4 491.9L507.1 494L495.5 495.9L483.7 497.4L471.7 498.6L459.6 499.4L447.4 499.9L435.3 500L423.2 499.8L411.3 499.2L399.6 498.2L388.2 496.9L377.1 495.3L366.5 493.4L356.4 491.1L346.9 488.7L338 485.9L329.7 483L322.2 479.9L315.5 476.6L309.7 473.2L304.7 469.7L300.7 466.2L297.6 462.8L295.6 459.3L294.5 455.9L294.5 452.7L295.6 449.6L297.7 446.7L300.9 444.1L305.1 441.7L310.4 439.7L316.8 438L324.1 436.7L332.4 435.8L341.7 435.3L351.9 435.3L363 435.8L374.9 436.8L387.5 438.3L400.9 440.3L414.9 442.9L429.4 446L444.5 449.6L460 453.7L475.8 458.4L491.9 463.6L508.2 469.2L524.6 475.4L540.9 481.9L557.2 488.9L573.4 496.2L589.3 503.9L604.8 511.9L620 520.1L634.6 528.5L648.7 537.1L662.1 545.8L674.7 554.6L686.6 563.4L697.6 572.1L707.6 580.7L716.7 589.1L724.7 597.3L731.6 605.2L737.4 612.8L742 620L745.5 626.7L747.7 633L748.7 638.7L748.4 643.8L746.9 648.2L744.2 652L740.2 655L735 657.3L728.6 658.8L721.1 659.5L712.4 659.3L702.6 658.3L691.9 656.4L680.1 653.7L667.5 650.1L653.9 645.6L639.6 640.2L624.6 634L609 627L592.8 619.1L576.2 610.5L559.1 601.2L541.8 591.1L524.3 580.4L506.7 569L489 557.1L471.5 544.7L454.1 531.9L436.9 518.7L420.1 505.2L403.7 491.4L387.9 477.5L372.6 463.5L358 449.4L344.2 435.4L331.2 421.6L319.1 407.9L307.9 394.6L297.7 381.6L288.6 369L280.5 357L273.6 345.5L267.8 334.7L263.3 324.6L259.9 315.3L257.8 306.8L256.8 299.2L257.1 292.6L258.6 286.9L261.3 282.3L265.2 278.7L270.2 276.2L276.4 274.8L283.6 274.5L291.9 275.4L301.1 277.4L311.3 280.6L322.3 284.9L334.2 290.3L346.7 296.8L360 304.4L373.8 313.1L388.1 322.7L402.9 333.3L418 344.8L433.4 357.2L449 370.3L464.7 384.2L480.4 398.8L496 413.9L511.5 429.6L526.7 445.6L541.7 462.1L556.3 478.8L570.4 495.6L584 512.6L597 529.6L609.4 546.5L621 563.2L631.9 579.6L642 595.7L651.2 611.4L659.5 626.5L666.9 641.1L673.4 655L678.9 668.1L683.4 680.5L686.9 691.9L689.4 702.4L690.9 711.9L691.4 720.3L690.9 727.7L689.4 733.9L687 739L683.7 742.8L679.5 745.5L674.5 746.9L668.7 747.1L662.1 746L654.8 743.7L646.9 740.3L638.4 735.6L629.3 729.7L619.7 722.7L609.8 714.6L599.5 705.5L588.9 695.3L578 684.2L567 672.2L556 659.3L544.9 645.8L533.8 631.5L522.8 616.6L512 601.2L501.4 585.3L491.1 569.1L481.1 552.6L471.5 535.9L462.3 519.1L453.6 502.3L445.3 485.6L437.7 469L430.5 452.7L424 436.7L418.1 421.1L412.8 406L408.2 391.4L404.3 377.5L401 364.3L398.4 351.9L396.4 340.3L395.1 329.6L394.4 319.8L394.4 311L394.9 303.2L396.1 296.5L397.8 290.8L400 286.3L402.7 282.8L405.8 280.5L409.4 279.3L413.3 279.2L417.6 280.2L422.2 282.4L427 285.5L432 289.8L437.2 295L442.5 301.2L447.9 308.4L453.3 316.4L458.6 325.3L464 334.9L469.2 345.2L474.2 356.2L479.1 367.8L483.8 379.9L488.3 392.4L492.5 405.3L496.4 418.5L499.9 431.9L503.2 445.5L506.1 459.1L508.6 472.8L510.8 486.3L512.5 499.8L513.9 513L515 525.9L515.6 538.5L515.9 550.6L515.9 562.3L515.5 573.4L514.7 584L513.7 594L512.4 603.2L510.9 611.8L509.1 619.6L507.2 626.7L505 633L502.8 638.4L500.5 643L498.1 646.8L495.6 649.7L493.2 651.8L490.9 653L488.6 653.4L486.4 653L484.4 651.9L482.6 649.9L481 647.2L479.6 643.8L478.5 639.8L477.7 635.1L477.3 629.8L477.1 624L477.3 617.6L477.9 610.9L478.9 603.7L480.2 596.2L482 588.4L484.1 580.4L486.6 572.2L489.5 563.9L492.8 555.5L496.4 547.1L500.4 538.8L504.7 530.5L509.3 522.4L514.2 514.4L519.3 506.7L524.6 499.2L530.1 492.1L535.7 485.3L541.4 478.9L547.2 472.9L553 467.3L558.8 462.2L564.5 457.5L570 453.3L575.4 449.7L580.6 446.5L585.6 443.9L590.2 441.7L594.5 440.1L598.4 438.9L601.9 438.2L605 438L607.5 438.3L609.5 438.9L611 440L611.8 441.4L612 443.2L611.6 445.3L610.6 447.7L608.9 450.3L606.5 453.1L603.5 456.1L599.7 459.3L595.3 462.5L590.3 465.8L584.5 469.1L578.2 472.4L571.2 475.6L563.7 478.8L555.6 481.9L547 484.7L537.9 487.5L528.4 490L518.4 492.2L508.2 494.2L497.6 496L486.8 497.4L475.9 498.5L464.8 499.4L453.6 499.8L442.5 500L431.4 499.8L420.5 499.3L409.7 498.5L399.2 497.4L389.1 495.9L379.3 494.2L369.9 492.2L361.1 490L352.9 487.5L345.2 484.9L338.2 482L332 479L326.5 476L321.8 472.8L318 469.6L315.1 466.4L313 463.2L311.9 460.1L311.8 457.1L312.6 454.3L314.4 451.6L317.1 449.2L320.9 447L325.6 445L331.2 443.4L337.8 442.2L345.3 441.3L353.6 440.8L362.8 440.7L372.9 441.1L383.6 441.9L395.1 443.2L407.2 445L420 447.3L433.2 450L446.9 453.3L461.1 457L475.5 461.2L490.2 465.9L505.1 471L520.1 476.5L535.1 482.5L550.1 488.8L564.9 495.4L579.5 502.4L593.8 509.7L607.7 517.2L621.2 524.9L634.1 532.7L646.5 540.7L658.2 548.7L669.2 556.7L679.4 564.7L688.7 572.6L697.2 580.4L704.7 587.9L711.2 595.2L716.6 602.2L721.1 608.9L724.4 615.1L726.6 620.9L727.7 626.2L727.6 631L726.4 635.1L724.1 638.7L720.6 641.6L716 643.8L710.3 645.3L703.6 646L695.8 646L687.1 645.2L677.3 643.6L666.7 641.2L655.3 638L643 634L630 629.3L616.4 623.7L602.1 617.4L587.4 610.3L572.2 602.5L556.7 594L540.8 584.9L524.8 575.2L508.7 564.9L492.5 554.1L476.4 542.8L460.4 531.1L444.7 519.1L429.3 506.7L414.2 494.2L399.6 481.4L385.5 468.6L372.1 455.7L359.3 442.9L347.3 430.2L336 417.7L325.6 405.4L316.2 393.4L307.6 381.9L300.1 370.8L293.6 360.2L288.2 350.2L283.8 340.8L280.5 332.2L278.4 324.3L277.4 317.2L277.5 311L278.7 305.6L281 301.2L284.4 297.8L288.8 295.3L294.3 293.9L300.7 293.5L308.1 294.1L316.5 295.8L325.6 298.5L335.6 302.3L346.3 307.1L357.8 312.9L369.8 319.7L382.4 327.5L395.4 336.2L408.9 345.7L422.7 356.2L436.8 367.4L451 379.3L465.3 391.9L479.7 405.1L494.1 418.9L508.3 433.2L522.3 447.8L536 462.8L549.4 478.1L562.4 493.5L575 509.1L587 524.6L598.4 540.1L609.2 555.4L619.3 570.5L628.6 585.3L637.2 599.8L644.9 613.7L651.9 627.1L657.9 640L663.1 652.1L667.3 663.5L670.7 674.1L673.1 683.9L674.6 692.7L675.2 700.6L674.9 707.5L673.7 713.4L671.7 718.2L668.8 721.9L665.1 724.5L660.6 726L655.4 726.3L649.5 725.5L642.9 723.6L635.7 720.6L628 716.5L619.7 711.3L611.1 705L602 697.8L592.6 689.6L582.9 680.4L573 670.3L563 659.5L552.9 647.8L542.7 635.5L532.6 622.5L522.5 609L512.6 594.9L502.8 580.5L493.4 565.7L484.1 550.6L475.3 535.3L466.8 520L458.7 504.6L451.1 489.2L444 474L437.4 459L431.3 444.3L425.8 430L420.9 416L416.6 402.6L412.9 389.8L409.8 377.6L407.3 366.1L405.4 355.4L404.1 345.4L403.4 336.3L403.2 328.1L403.7 320.9L404.6 314.5L406.1 309.2L408 304.9L410.4 301.5L413.3 299.3L416.5 298L420 297.7L423.9 298.5L428.1 300.3L432.4 303.1L437 306.8L441.7 311.5L446.6 317L451.5 323.4L456.4 330.6L461.3 338.6L466.2 347.3L471 356.7L475.7 366.7L480.2 377.2L484.5 388.2L488.6 399.6L492.5 411.4L496.1 423.4L499.4 435.7L502.5 448.1L505.2 460.6L507.5 473.1L509.6 485.5L511.3 497.8L512.6 510L513.6 521.8L514.2 533.4L514.6 544.6L514.6 555.4L514.2 565.7L513.6 575.4L512.7 584.6L511.6 593.2L510.2 601.2L508.6 608.5L506.9 615L504.9 620.9L502.9 626L500.8 630.3L498.6 633.9L496.4 636.7L494.2 638.7L492 640L489.9 640.5L487.9 640.3L486 639.3L484.3 637.6L482.8 635.3L481.5 632.2L480.5 628.6L479.7 624.4L479.2 619.7L479 614.4L479.2 608.7L479.7 602.6L480.5 596.1L481.7 589.2L483.2 582.2L485.1 574.8L487.4 567.4L490 559.8L492.9 552.1L496.2 544.4L499.8 536.7L503.7 529.1L507.8 521.7L512.3 514.4L516.9 507.2L521.7 500.4L526.7 493.8L531.9 487.5L537.1 481.6L542.4 476L547.7 470.8L553 466.1L558.2 461.7L563.3 457.8L568.3 454.4L573.1 451.4L577.7 448.9L582 446.9L586 445.3L589.6 444.2L592.9 443.5L595.7 443.2L598.1 443.4L600 443.9L601.4 444.9L602.3 446.1L602.6 447.7L602.3 449.6L601.5 451.7L600 454.1L597.9 456.6L595.2 459.4L591.9 462.2L588 465.2L583.4 468.2L578.3 471.2L572.6 474.2L566.3 477.2L559.5 480.1L552.1 482.9L544.3 485.6L536.1 488.1L527.4 490.4L518.4 492.6L509 494.4L499.4 496.1L489.5 497.4L479.5 498.5L469.4 499.3L459.2 499.8L449 500L438.8 499.9L428.8 499.5L418.9 498.8L409.2 497.8L399.9 496.5L390.8 495L382.2 493.2L374.1 491.2L366.4 488.9L359.3 486.5L352.8 484L347 481.2L341.9 478.4L337.5 475.6L333.8 472.6L331 469.7L329 466.8L327.9 463.9L327.6 461.2L328.2 458.5L329.7 456.1L332.1 453.8L335.3 451.7L339.5 449.9L344.5 448.4L350.4 447.2L357.2 446.3L364.7 445.8L373 445.7L382.1 446L391.8 446.7L402.2 447.8L413.2 449.3L424.8 451.3L436.9 453.8L449.4 456.7L462.3 460L475.5 463.8L488.9 468L502.5 472.6L516.2 477.7L530 483L543.7 488.8L557.3 494.8L570.7 501.2L583.8 507.8L596.6 514.6L609 521.7L621 528.8L632.4 536.1L643.2 543.4L653.4 550.8L662.8 558.1L671.5 565.4L679.4 572.5L686.4 579.4L692.5 586.2L697.7 592.6L701.9 598.8L705.1 604.5L707.3 609.9L708.4 614.8L708.5 619.3L707.6 623.2L705.6 626.5L702.6 629.3L698.6 631.4L693.5 632.9L687.5 633.7L680.5 633.7L672.7 633.1L663.9 631.8L654.3 629.7L643.9 626.9L632.8 623.4L621 619.1L608.6 614.1L595.6 608.4L582.2 602.1L568.4 595.1L554.2 587.4L539.7 579.1L525.1 570.3L510.3 561L495.5 551.1L480.7 540.9L466.1 530.2L451.6 519.2L437.4 508L423.6 496.5L410.2 484.9L397.2 473.1L384.8 461.3L373 449.6L361.8 437.9L351.4 426.4L341.8 415.1L333 404.1L325 393.5L318 383.2L311.9 373.5L306.7 364.2L302.6 355.6L299.4 347.5L297.3 340.2L296.2 333.6L296.1 327.7L297.1 322.7L299 318.5L302 315.2L305.9 312.9L310.7 311.4L316.5 310.9L323.2 311.3L330.6 312.7L338.9 315L348 318.3L357.7 322.6L368 327.8L379 333.9L390.4 340.8L402.3 348.6L414.6 357.3L427.2 366.7L440 376.8L453 387.7L466.2 399.1L479.3 411.2L492.5 423.7L505.5 436.7L518.4 450.1L531 463.8L543.3 477.7L555.3 491.8L566.9 506L577.9 520.3L588.5 534.5L598.4 548.5L607.8 562.4L616.5 576L624.4 589.3L631.7 602.1L638.1 614.5L643.8 626.3L648.7 637.6L652.7 648.1L655.9 658L658.2 667L659.8 675.3L660.4 682.6L660.3 689.1L659.3 694.6L657.6 699.2L655 702.7L651.8 705.3L647.8 706.8L643.1 707.3L637.8 706.7L631.9 705.1L625.4 702.5L618.4 698.9L610.9 694.3L603 688.7L594.8 682.2L586.2 674.8L577.4 666.6L568.3 657.5L559.2 647.7L549.9 637.1L540.6 625.9L531.3 614.1L522.1 601.8L513 589L504 575.8L495.3 562.3L486.8 548.5L478.6 534.6L470.8 520.5L463.4 506.4L456.3 492.4L449.7 478.4L443.6 464.6L438 451.1L432.8 437.9L428.2 425.1L424.2 412.8L420.7 400.9L417.8 389.7L415.4 379L413.6 369.1L412.3 359.9L411.6 351.4L411.4 343.7L411.7 336.9L412.5 331L413.7 326L415.5 321.9L417.6 318.7L420.1 316.4L423 315.1L426.2 314.7L429.7 315.3L433.5 316.8L437.5 319.2L441.6 322.5L446 326.6L450.4 331.6L454.9 337.3L459.4 343.8L463.9 351L468.4 358.9L472.8 367.4L477.1 376.4L481.2 386L485.2 396L489 406.4L492.6 417.1L495.9 428.1L499 439.3L501.8 450.7L504.4 462.1L506.6 473.5L508.5 484.9L510.1 496.2L511.4 507.4L512.3 518.3L513 528.9L513.3 539.2L513.3 549.2L513.1 558.7L512.6 567.7L511.8 576.2L510.8 584.2L509.6 591.6L508.1 598.3L506.5 604.4L504.8 609.9L503 614.7L501 618.8L499 622.2L497 624.8L495 626.8L493 628.1L491 628.6L489.2 628.5L487.5 627.7L485.9 626.3L484.5 624.2L483.3 621.6L482.3 618.4L481.5 614.6L481 610.3L480.8 605.6L480.9 600.4L481.3 594.8L482 588.9L483 582.7L484.4 576.3L486.1 569.6L488.1 562.8L490.4 555.8L493.1 548.8L496 541.8L499.3 534.8L502.8 527.8L506.6 520.9L510.6 514.2L514.8 507.7L519.2 501.3L523.7 495.3L528.4 489.5L533.2 484L538 478.8L542.9 474L547.7 469.6L552.5 465.6L557.3 461.9L561.8 458.7L566.3 455.9L570.5 453.6L574.5 451.6L578.2 450.1L581.6 449L584.6 448.3L587.3 448L589.5 448.1L591.4 448.6L592.7 449.3L593.6 450.5L594 451.9L593.8 453.5L593.1 455.5L591.8 457.6L590 459.9L587.6 462.4L584.7 465L581.2 467.7L577.1 470.4L572.5 473.2L567.3 476L561.7 478.7L555.5 481.4L548.8 484L541.8 486.4L534.3 488.8L526.4 490.9L518.2 492.9L509.6 494.6L500.9 496.2L491.9 497.5L482.7 498.5L473.4 499.3L464.1 499.8L454.7 500L445.4 499.9L436.2 499.6L427.1 499L418.3 498.1L409.6 497L401.3 495.6L393.4 494L385.8 492.2L378.8 490.2L372.2 488L366.1 485.7L360.7 483.2L355.9 480.7L351.8 478L348.3 475.4L345.6 472.7L343.7 470L342.5 467.4L342.1 464.8L342.5 462.4L343.7 460.1L345.8 458L348.7 456.1L352.4 454.4L356.8 453L362.1 451.8L368.2 451L374.9 450.4L382.4 450.3L390.6 450.5L399.5 451L408.9 452L418.9 453.4L429.4 455.1L440.4 457.3L451.8 459.9L463.5 462.9L475.6 466.3L487.9 470.1L500.3 474.2L512.9 478.8L525.4 483.7L538 488.9L550.5 494.4L562.8 500.1L574.8 506.2L586.6 512.4L598.1 518.8L609.1 525.4L619.6 532L629.6 538.7L639 545.5L647.8 552.2L655.9 558.8L663.2 565.4L669.7 571.7L675.5 577.9L680.3 583.9L684.3 589.6L687.4 594.9L689.5 599.9L690.8 604.5L691 608.6L690.3 612.3L688.7 615.4L686 618L682.5 620.1L678 621.5L672.7 622.3L666.4 622.5L659.3 622.1L651.4 620.9L642.7 619.1L633.3 616.7L623.3 613.5L612.6 609.7L601.3 605.3L589.5 600.2L577.3 594.5L564.6 588.1L551.7 581.2L538.5 573.7L525.1 565.7L511.6 557.2L498 548.3L484.5 539L471.1 529.3L457.8 519.2L444.8 509L432 498.5L419.7 487.8L407.7 477.1L396.3 466.3L385.3 455.5L375 444.8L365.4 434.3L356.5 423.9L348.3 413.8L340.9 404L334.3 394.5L328.5 385.5L323.7 377L319.7 368.9L316.7 361.5L314.6 354.7L313.5 348.5L313.2 343L313.9 338.3L315.6 334.4L318.1 331.2L321.6 328.9L325.9 327.4L331.1 326.8L337 327.1L343.8 328.2L351.2 330.2L359.4 333.1L368.2 336.9L377.6 341.5L387.5 346.9L397.9 353.2L408.8 360.2L420 368L431.5 376.5L443.2 385.7L455.1 395.5L467.1 405.9L479.2 416.9L491.2 428.3L503.2 440.1L515 452.3L526.6 464.8L537.9 477.5L548.9 490.4L559.6 503.4L569.8 516.5L579.5 529.5L588.7 542.4L597.4 555.1L605.4 567.6L612.8 579.9L619.6 591.7L625.6 603.1L630.9 614L635.5 624.4L639.3 634.2L642.3 643.3L644.6 651.7L646.1 659.4L646.9 666.2L646.9 672.3L646.1 677.5L644.6 681.8L642.4 685.2L639.5 687.7L636 689.2L631.8 689.8L627 689.5L621.7 688.2L615.8 685.9L609.4 682.8L602.7 678.7L595.5 673.7L588 667.9L580.2 661.3L572.2 653.8L563.9 645.6L555.5 636.7L547.1 627.2L538.5 617L530 606.3L521.6 595.1L513.2 583.4L505 571.4L496.9 559.1L489.1 546.5L481.6 533.7L474.4 520.9L467.5 507.9L461 495L454.9 482.3L449.2 469.6L444 457.2L439.2 445.1L434.9 433.3L431.1 421.9L427.9 411L425.1 400.6L422.8 390.7L421.1 381.5L419.8 373L419.1 365.1L418.8 358L419 351.6L419.7 346.1L420.8 341.3L422.3 337.4L424.2 334.4L426.5 332.2L429.1 330.8L432 330.3L435.1 330.7L438.5 332L442.2 334L445.9 336.9L449.9 340.5L453.9 345L458 350.1L462.1 356L466.3 362.5L470.4 369.6L474.4 377.3L478.4 385.5L482.2 394.2L485.9 403.3L489.4 412.7L492.7 422.5L495.8 432.5L498.7 442.8L501.3 453.2L503.6 463.6L505.7 474.1L507.5 484.5L509 494.9L510.2 505.1L511.2 515.2L511.8 525L512.2 534.5L512.2 543.6L512 552.4L511.6 560.7L510.9 568.6L510 576L508.9 582.8L507.7 589.1L506.2 594.8L504.7 599.9L503 604.4L501.2 608.2L499.4 611.4L497.5 614L495.7 615.9L493.9 617.1L492.1 617.8L490.4 617.8L488.8 617.1L487.3 615.9L486 614.1L484.8 611.8L483.9 608.9L483.2 605.5L482.7 601.7L482.4 597.4L482.5 592.7L482.8 587.7L483.4 582.3L484.3 576.7L485.5 570.8L487 564.7L488.8 558.5L490.9 552.2L493.2 545.7L495.9 539.3L498.8 532.9L502 526.5L505.4 520.2L509.1 514L512.9 508L516.9 502.1L521.1 496.5L525.3 491.2L529.7 486.1L534.1 481.3L538.6 476.9L543 472.8L547.4 469L551.8 465.6L556 462.6L560 460L563.9 457.8L567.6 456L571.1 454.5L574.2 453.5L577.1 452.8L579.6 452.4L581.7 452.4L583.4 452.8L584.7 453.5L585.6 454.4L586 455.7L586 457.2L585.4 458.9L584.3 460.8L582.7 462.9L580.6 465.2L578 467.5L574.9 470L571.2 472.5L567.1 475.1L562.4 477.6L557.3 480.1L551.7 482.6L545.7 485L539.3 487.2L532.5 489.4L525.3 491.4L517.8 493.2L510.1 494.9L502.1 496.3L493.9 497.5L485.5 498.5L477 499.2L468.5 499.7L459.9 500L451.4 500L442.9 499.7L434.6 499.2L426.4 498.4L418.5 497.4L410.8 496.2L403.5 494.8L396.5 493.2L390 491.3L383.9 489.4L378.3 487.2L373.2 485L368.7 482.7L364.8 480.3L361.6 477.8L359 475.4L357.1 472.9L355.9 470.5L355.4 468.2L355.7 465.9L356.7 463.8L358.4 461.8L360.9 460L364.2 458.5L368.2 457.1L372.9 456L378.3 455.2L384.4 454.7L391.2 454.5L398.6 454.6L406.6 455L415.2 455.9L424.2 457.1L433.8 458.6L443.8 460.6L454.2 462.9L464.9 465.6L475.9 468.6L487.1 472L498.5 475.8L509.9 479.9L521.5 484.3L533 489L544.4 494L555.7 499.3L566.8 504.8L577.6 510.4L588.2 516.3L598.3 522.3L608 528.3L617.3 534.5L626 540.6L634.1 546.8L641.6 552.9L648.4 558.9L654.5 564.8L659.9 570.5L664.5 576L668.3 581.2L671.2 586.2L673.3 590.8L674.6 595L674.9 598.9L674.4 602.3L673.1 605.3L670.8 607.7L667.7 609.7L663.7 611.1L659 611.9L653.4 612.2L647 611.9L639.9 611L632 609.4L623.5 607.3L614.4 604.5L604.7 601.1L594.4 597.1L583.7 592.5L572.6 587.4L561.1 581.7L549.2 575.4L537.2 568.6L525 561.4L512.6 553.7L500.2 545.6L487.8 537.1L475.5 528.2L463.3 519.1L451.3 509.7L439.6 500.1L428.2 490.4L417.2 480.6L406.6 470.7L396.6 460.8L387 451L378.1 441.3L369.8 431.8L362.2 422.5L355.3 413.5L349.1 404.8L343.8 396.4L339.2 388.5L335.4 381.1L332.5 374.2L330.5 367.9L329.3 362.1L328.9 357L329.5 352.6L330.8 348.9L333 345.9L336.1 343.6L339.9 342.1L344.5 341.4L349.8 341.5L355.9 342.5L362.6 344.2L370 346.7L378 350L386.5 354.1L395.5 359L405 364.6L414.8 370.9L425 377.9L435.5 385.6L446.2 393.9L457.1 402.8L468.1 412.3L479.2 422.2L490.2 432.6L501.1 443.4L512 454.5L522.7 465.9L533.1 477.6L543.2 489.4L553 501.3L562.4 513.2L571.4 525.1L580 537L588 548.7L595.4 560.1L602.3 571.4L608.6 582.3L614.2 592.8L619.2 602.9L623.4 612.4L627.1 621.5L630 629.9L632.2 637.7L633.7 644.9L634.5 651.3L634.6 656.9L634 661.8L632.7 665.9L630.8 669.2L628.2 671.6L625.1 673.1L621.3 673.8L617 673.6L612.2 672.6L606.9 670.7L601.2 667.9L595 664.3L588.5 659.9L581.7 654.7L574.6 648.7L567.3 642L559.7 634.6L552.1 626.6L544.3 617.9L536.5 608.7L528.7 598.9L521 588.7L513.3 578.1L505.7 567.2L498.4 555.9L491.2 544.4L484.2 532.8L477.6 521L471.2 509.2L465.2 497.3L459.5 485.6L454.3 474L449.4 462.6L445 451.4L441 440.6L437.5 430.1L434.4 420L431.8 410.4L429.6 401.3L427.9 392.8L426.7 384.9L426 377.6L425.7 370.9L425.8 365L426.3 359.8L427.3 355.3L428.6 351.6L430.3 348.7L432.3 346.6L434.6 345.2L437.2 344.6L440.1 344.9L443.2 345.9L446.5 347.6L449.9 350.2L453.5 353.4L457.2 357.3L460.9 361.9L464.7 367.2L468.5 373.1L472.3 379.5L476 386.5L479.6 393.9L483.1 401.8L486.5 410.1L489.8 418.7L492.9 427.6L495.7 436.8L498.4 446.1L500.8 455.6L503 465.1L504.9 474.7L506.6 484.3L508.1 493.8L509.2 503.2L510.1 512.4L510.7 521.4L511.1 530.2L511.2 538.6L511.1 546.7L510.7 554.4L510.1 561.7L509.3 568.5L508.4 574.9L507.2 580.7L505.9 586L504.5 590.8L503 595L501.4 598.6L499.7 601.6L498 604L496.3 605.9L494.6 607.1L493 607.8L491.4 607.9L489.9 607.4L488.6 606.4L487.3 604.8L486.3 602.7L485.4 600.2L484.7 597.2L484.2 593.7L483.9 589.8L483.9 585.6L484.2 581.1L484.7 576.2L485.5 571.1L486.5 565.7L487.8 560.2L489.4 554.5L491.3 548.7L493.4 542.8L495.8 536.9L498.5 531L501.4 525.2L504.5 519.4L507.8 513.7L511.3 508.2L514.9 502.8L518.7 497.6L522.6 492.7L526.6 488L530.6 483.6L534.7 479.5L538.8 475.6L542.8 472.2L546.8 469L550.6 466.2L554.4 463.8L558 461.7L561.4 459.9L564.6 458.5L567.5 457.5L570.2 456.8L572.5 456.5L574.5 456.4L576.2 456.7L577.4 457.3L578.3 458.1L578.8 459.2L578.8 460.6L578.3 462.1L577.4 463.8L576 465.7L574.2 467.8L571.9 469.9L569.1 472.2L565.8 474.5L562.1 476.8L557.9 479.1L553.3 481.4L548.2 483.7L542.8 485.9L536.9 488L530.8 490L524.3 491.8L517.4 493.5L510.4 495.1L503.1 496.4L495.6 497.6L488 498.5L480.2 499.2L472.4 499.7L464.5 500L456.7 500L448.9 499.8L441.3 499.4L433.8 498.7L426.5 497.8L419.4 496.7L412.7 495.4L406.2 494L400.2 492.3L394.5 490.6L389.3 488.6L384.6 486.6L380.4 484.5L376.7 482.3L373.6 480.1L371.2 477.8L369.3 475.6L368.1 473.3L367.6 471.2L367.7 469.1L368.5 467.1L370.1 465.3L372.2 463.7L375.1 462.2L378.7 460.9L382.9 459.9L387.7 459.1L393.2 458.5L399.3 458.3L406 458.4L413.3 458.7L421 459.4L429.3 460.5L438 461.9L447 463.6L456.5 465.6L466.3 468L476.3 470.8L486.5 473.9L496.9 477.3L507.4 481L518 485L528.5 489.2L539 493.8L549.4 498.6L559.6 503.5L569.5 508.7L579.2 514L588.6 519.5L597.6 525.1L606.1 530.7L614.1 536.3L621.7 542L628.6 547.6L635 553.1L640.7 558.5L645.7 563.7L650 568.8L653.6 573.6L656.4 578.2L658.5 582.5L659.7 586.4L660.2 590L659.9 593.2L658.7 596L656.8 598.3L654.1 600.2L650.6 601.6L646.3 602.4L641.3 602.8L635.6 602.5L629.2 601.8L622.1 600.5L614.4 598.6L606.1 596.1L597.3 593.1L588 589.6L578.3 585.4L568.1 580.8L557.6 575.6L546.8 570L535.8 563.9L524.6 557.3L513.3 550.3L502 542.9L490.6 535.2L479.3 527.2L468.1 518.8L457.1 510.3L446.4 501.5L435.9 492.6L425.7 483.7L416 474.6L406.7 465.6L397.9 456.6L389.6 447.7L381.9 438.9L374.9 430.4L368.4 422.1L362.7 414L357.6 406.4L353.3 399.1L349.8 392.2L347 385.8L345 379.9L343.8 374.5L343.3 369.8L343.7 365.6L344.8 362.1L346.7 359.2L349.4 357.1L352.8 355.6L356.9 354.8L361.6 354.8L367.1 355.5L373.2 357L379.8 359.2L387.1 362.1L394.8 365.7L403 370.1L411.6 375.1L420.6 380.8L429.9 387.1L439.4 394.1L449.2 401.6L459.1 409.7L469.2 418.3L479.3 427.3L489.4 436.7L499.5 446.6L509.4 456.7L519.2 467.1L528.8 477.7L538.1 488.5L547.2 499.4L555.8 510.3L564.1 521.3L572 532.1L579.4 542.9L586.3 553.4L592.7 563.7L598.5 573.8L603.8 583.5L608.4 592.8L612.5 601.6L615.9 610L618.6 617.8L620.8 625L622.2 631.7L623.1 637.7L623.2 643L622.8 647.5L621.7 651.4L620.1 654.5L617.8 656.8L615 658.4L611.7 659.1L607.8 659.1L603.5 658.2L598.7 656.6L593.5 654.2L588 651L582 647.1L575.8 642.5L569.4 637.1L562.7 631.1L555.8 624.4L548.8 617.1L541.7 609.3L534.6 600.9L527.4 592.1L520.3 582.8L513.3 573.1L506.3 563.1L499.6 552.9L492.9 542.4L486.6 531.7L480.4 520.9L474.5 510.1L469 499.3L463.8 488.5L458.9 477.9L454.4 467.4L450.2 457.1L446.5 447.1L443.2 437.5L440.3 428.2L437.9 419.3L435.8 410.9L434.2 403L433.1 395.7L432.3 388.9L431.9 382.7L432 377.2L432.4 372.3L433.2 368.1L434.4 364.6L435.9 361.8L437.7 359.7L439.8 358.4L442.1 357.8L444.7 357.9L447.5 358.7L450.5 360.2L453.6 362.4L456.9 365.2L460.3 368.7L463.7 372.9L467.1 377.6L470.6 382.9L474.1 388.7L477.5 395L480.8 401.7L484.1 408.9L487.2 416.4L490.2 424.3L493 432.4L495.7 440.7L498.1 449.3L500.4 457.9L502.4 466.7L504.3 475.5L505.8 484.3L507.2 493L508.3 501.6L509.1 510.1L509.8 518.3L510.1 526.4L510.3 534.2L510.2 541.6L509.9 548.7L509.4 555.5L508.7 561.8L507.8 567.7L506.8 573.1L505.6 578L504.3 582.5L503 586.4L501.5 589.8L500 592.7L498.4 595L496.9 596.7L495.3 598L493.8 598.7L492.4 598.8L491 598.5L489.7 597.6L488.6 596.2L487.6 594.4L486.7 592.1L486.1 589.4L485.6 586.3L485.3 582.9L485.3 579L485.5 574.9L485.9 570.5L486.6 565.8L487.5 561L488.7 555.9L490.1 550.7L491.8 545.4L493.7 540.1L495.8 534.7L498.2 529.3L500.8 523.9L503.6 518.6L506.6 513.4L509.8 508.3L513.1 503.3L516.6 498.6L520.1 494L523.7 489.7L527.4 485.6L531.2 481.8L534.9 478.2L538.6 475L542.3 472.1L545.8 469.4L549.3 467.1L552.6 465.2L555.7 463.5L558.7 462.2L561.4 461.2L563.9 460.5L566.1 460.2L568 460.1L569.5 460.3L570.8 460.8L571.6 461.5L572.1 462.5L572.2 463.7L571.8 465.1L571.1 466.6L569.9 468.3L568.2 470.2L566.2 472.1L563.7 474.2L560.8 476.3L557.4 478.4L553.7 480.5L549.5 482.7L544.9 484.7L540 486.8L534.7 488.7L529.1 490.5L523.2 492.3L517 493.8L510.6 495.3L503.9 496.5L497.1 497.6L490.1 498.5L483 499.2L475.9 499.7L468.7 499.9L461.5 500L454.4 499.8L447.3 499.5L440.5 498.9L433.7 498.1L427.2 497.2L421 496L415 494.7L409.4 493.2L404.2 491.6L399.3 489.9L394.9 488L391 486.1L387.6 484.1L384.7 482.1L382.3 480L380.6 477.9L379.4 475.9L378.8 473.9L378.8 472L379.5 470.2L380.7 468.5L382.6 466.9L385.2 465.6L388.3 464.4L392.1 463.4L396.4 462.6L401.4 462.1L406.9 461.8L412.9 461.8L419.5 462.1L426.5 462.7L434 463.6L441.9 464.8L450.2 466.4L458.8 468.2L467.7 470.4L476.8 472.8L486.2 475.6L495.7 478.7L505.3 482L514.9 485.6L524.6 489.5L534.2 493.6L543.7 498L553.1 502.5L562.2 507.2L571.2 512.1L579.8 517.1L588.1 522.1L595.9 527.3L603.4 532.4L610.4 537.6" opacity="0.1"/></g></svg>