<svg xmlns="http://www.w3.org/2000/svg" viewBox="0 0 1000 1000" preserveAspectRatio="xMidYMid slice" fill="none" stroke-linecap="round" stroke-linejoin="round"><g stroke="#0f3d2e" stroke-width="0.6"><path d="M500 729.9L541.3 751.5L582.3 771.5L622.6 789.5L661.8 805.4L699.6 819.1L735.8 830.3L769.9 838.9L801.8 844.8L831.2 847.9L857.7 848.1L881.3 845.4L901.7 839.8L918.8 831.3L932.3 819.8L942.3 805.5L948.7 788.4L951.3 768.6L950.2 746.3L945.5 721.7L937.1 694.9L925.2 666L909.9 635.5L891.2 603.4L869.5 570L844.9 535.7L817.6 500.6L787.8 465.2L755.9 429.6L722 394.2L686.6 359.3L649.8 325.2L612.1 292.2L573.8 260.7L535.1 230.7L496.4 202.7L458 177L420.3 153.6L383.6 133L348.1 115.1L314.2 100.4L282 88.7L252 80.4L224.3 75.5L199.1 74.1L176.6 76.2L157 81.8L140.4 90.8L127 103.3L116.7 119.2L109.7 138.3L106 160.4L105.6 185.5L108.4 213.3L114.4 243.6L123.4 276.2L135.5 310.7L150.4 347L168 384.7L188.1 423.5L210.5 463L234.9 503L261.2 543.2L289 583L318.2 622.4L348.5 660.8L379.5 698L411 733.7L442.8 767.5L474.4 799.2L505.8 828.6L536.6 855.2L566.6 879L595.4 899.7L623 917.1L649 931.2L673.3 941.7L695.7 948.6L716 951.8L734.1 951.3L749.9 947.2L763.3 939.3L774.2 927.9L782.6 913L788.5 894.7L791.8 873.2L792.6 848.6L790.9 821.3L786.8 791.4L780.5 759.1L771.9 724.8L761.3 688.8L748.7 651.3L734.4 612.6L718.4 573.2L701.1 533.3L682.5 493.2L663 453.4L642.6 414.1L621.6 375.6L600.2 338.4L578.6 302.6L557 268.6L535.7 236.7L514.7 207.1L494.4 180L474.7 155.7L456 134.4L438.4 116.2L422 101.2L406.8 89.7L393.1 81.5L380.9 76.8L370.2 75.6L361.1 78L353.7 83.7L347.9 92.8L343.7 105.2L341.2 120.7L340.2 139.2L340.8 160.5L342.8 184.3L346.1 210.6L350.8 239L356.6 269.2L363.4 301L371.2 334.2L379.8 368.4L389 403.3L398.8 438.6L408.9 474L419.3 509.2L429.7 544L440.2 577.9L450.4 610.9L460.4 642.5L470.1 672.5L479.2 700.8L487.7 727L495.5 751L502.5 772.6L508.8 791.6L514.2 808L518.7 821.6L522.3 832.3L525 840.2L526.7 845.1L527.6 847.1L527.6 846.2L526.8 842.4L525.3 835.9L523.1 826.7L520.3 815L516.9 800.9L513.2 784.5L509.1 766.1L504.8 745.8L500.4 723.9L495.9 700.6L491.6 676L487.5 650.5L483.7 624.3L480.3 597.5L477.4 570.6L475.1 543.7L473.4 517L472.6 490.7L472.5 465.2L473.2 440.6L474.8 417L477.3 394.8L480.8 374L485.1 354.7L490.3 337.3L496.4 321.6L503.3 307.9L511 296.2L519.3 286.6L528.2 279.1L537.6 273.7L547.5 270.3L557.6 269.1L567.9 269.8L578.2 272.5L588.4 277.1L598.4 283.5L608.1 291.5L617.2 301L625.8 311.9L633.5 324L640.4 337.3L646.2 351.4L650.9 366.3L654.3 381.8L656.5 397.7L657.2 413.8L656.4 429.9L654.1 446L650.2 461.8L644.7 477.2L637.6 492.1L628.9 506.3L618.6 519.7L606.8 532.2L593.5 543.6L578.9 554.1L562.9 563.3L545.8 571.4L527.7 578.3L508.6 583.9L488.8 588.3L468.4 591.5L447.7 593.4L426.7 594.2L405.6 593.9L384.8 592.6L364.3 590.3L344.4 587.1L325.3 583.1L307.1 578.5L290.1 573.3L274.5 567.6L260.4 561.6L248 555.4L237.5 549L229 542.6L222.6 536.4L218.4 530.4L216.5 524.7L217 519.4L220 514.6L225.3 510.4L233.2 506.8L243.5 503.9L256.2 501.8L271.2 500.4L288.4 499.8L307.8 500L329.2 500.9L352.4 502.6L377.3 505.1L403.7 508.2L431.4 511.9L460.1 516.2L489.6 521L519.7 526.1L550.2 531.6L580.7 537.2L611 542.9L640.8 548.6L669.9 554.2L698 559.5L724.9 564.5L750.2 569L773.8 572.9L795.5 576.2L814.9 578.6L832 580.3L846.6 581L858.4 580.6L867.4 579.3L873.4 576.8L876.4 573.2L876.3 568.5L873.1 562.6L866.8 555.5L857.4 547.4L844.9 538.1L829.4 527.9L811 516.7L789.9 504.6L766.2 491.7L740.1 478.2L711.8 464.2L681.5 449.8L649.5 435L615.9 420.2L581.2 405.4L545.5 390.8L509.2 376.5L472.6 362.7L436 349.7L399.6 337.4L363.9 326.1L329 316L295.4 307.2L263.2 299.7L232.9 293.8L204.5 289.6L178.5 287L155 286.3L134.2 287.5L116.4 290.6L101.6 295.6L90 302.7L81.8 311.6L76.9 322.6L75.6 335.4L77.7 350L83.3 366.3L92.3 384.3L104.7 403.7L120.3 424.5L139.1 446.5L160.9 469.6L185.6 493.4L212.8 517.9L242.4 542.9L274.2 568.1L307.8 593.3L343 618.2L379.6 642.7L417.1 666.5L455.3 689.4L493.8 711.2L532.4 731.6L570.8 750.5L608.4 767.6L645.2 782.8L680.8 795.9L714.8 806.7L747 815.1L777.1 821L804.9 824.4L830.1 825L852.5 823L872.1 818.1L888.5 810.6L901.7 800.3L911.5 787.4L918 771.8L921 753.8L920.6 733.3L916.7 710.7L909.4 686L898.8 659.3L885 631.1L868.1 601.3L848.3 570.4L825.7 538.4L800.6 505.8L773.1 472.8L743.6 439.6L712.3 406.5L679.5 373.9L645.4 341.9L610.3 310.9L574.6 281.2L538.5 253L502.4 226.6L466.5 202.2L431.2 180.1L396.7 160.4L363.4 143.3L331.5 129L301.2 117.7L272.9 109.5L246.7 104.4L222.8 102.6L201.4 104L182.6 108.7L166.7 116.6L153.7 127.8L143.6 142.1L136.6 159.4L132.6 179.6L131.8 202.6L133.9 228.2L139 256.1L147 286.2L157.9 318.1L171.4 351.7L187.4 386.7L205.8 422.8L226.3 459.6L248.9 496.9L273.1 534.3L298.9 571.6L326 608.4L354 644.4L382.9 679.4L412.2 712.9L441.9 744.8L471.5 774.7L500.8 802.4L529.6 827.7L557.7 850.3L584.8 870.1L610.8 886.9L635.3 900.5L658.2 910.9L679.4 917.8L698.7 921.4L715.9 921.5L731 918.2L743.9 911.4L754.5 901.2L762.7 887.8L768.5 871.2L772 851.6L773.1 829.2L771.9 804.1L768.4 776.5L762.8 746.7L755.1 715L745.5 681.6L734.1 646.8L720.9 610.9L706.3 574.2L690.3 537L673.2 499.6L655 462.4L636.1 425.6L616.6 389.6L596.7 354.6L576.6 321L556.4 289L536.5 258.9L516.8 230.9L497.7 205.2L479.3 182.2L461.7 161.8L445.1 144.3L429.5 129.9L415.2 118.6L402.2 110.4L390.5 105.6L380.3 103.9L371.6 105.6L364.4 110.4L358.8 118.4L354.7 129.5L352.1 143.5L350.9 160.3L351.2 179.8L352.9 201.7L355.8 225.9L360 252.1L365.2 280L371.5 309.5L378.6 340.3L386.5 372L395 404.5L404 437.4L413.4 470.5L423.1 503.4L432.9 535.9L442.6 567.8L452.2 598.7L461.6 628.4L470.7 656.6L479.2 683.3L487.3 708.1L494.7 730.8L501.4 751.3L507.3 769.5L512.5 785.2L516.8 798.3L520.3 808.7L523 816.5L524.7 821.5L525.7 823.8L525.8 823.4L525.2 820.3L523.9 814.6L521.9 806.4L519.4 795.9L516.3 783L512.9 768.1L509.1 751.2L505.1 732.5L501 712.3L496.9 690.7L492.8 668L488.9 644.3L485.3 619.9L482.1 595L479.3 569.9L477 544.7L475.4 519.8L474.5 495.2L474.3 471.3L474.8 448.1L476.2 426L478.4 405L481.5 385.4L485.4 367.2L490.2 350.6L495.7 335.7L502 322.7L509 311.5L516.7 302.2L525 294.8L533.7 289.5L542.8 286L552.2 284.6L561.8 285L571.4 287.2L581 291.2L590.4 296.9L599.5 304.1L608.1 312.8L616.1 322.8L623.5 333.9L630 346.1L635.6 359.2L640.2 373L643.6 387.4L645.8 402.1L646.7 417.1L646.2 432.2L644.2 447.2L640.8 462L635.9 476.5L629.5 490.5L621.7 503.8L612.3 516.4L601.5 528.2L589.3 539.1L575.9 549L561.2 557.8L545.4 565.5L528.6 572.1L510.9 577.6L492.5 581.8L473.6 585L454.3 587L434.7 587.9L415 587.8L395.5 586.7L376.4 584.7L357.7 581.8L339.7 578.2L322.6 574L306.6 569.2L291.8 564L278.4 558.4L266.6 552.6L256.5 546.7L248.2 540.7L241.9 534.9L237.7 529.2L235.6 523.8L235.7 518.8L238.1 514.3L242.7 510.3L249.7 506.8L258.9 504L270.4 501.9L284.1 500.5L299.9 499.8L317.6 499.9L337.3 500.7L358.7 502.2L381.7 504.3L406.1 507.1L431.8 510.5L458.4 514.4L485.9 518.8L513.9 523.6L542.3 528.6L570.8 533.9L599.1 539.2L627 544.5L654.3 549.7L680.7 554.8L706 559.5L729.9 563.7L752.2 567.5L772.7 570.6L791.2 573.1L807.5 574.7L821.4 575.5L832.9 575.4L841.7 574.3L847.8 572.1L851 568.9L851.4 564.7L848.9 559.3L843.4 552.9L835.1 545.5L823.9 537L809.9 527.6L793.1 517.3L773.9 506.1L752.1 494.3L728.1 481.7L702 468.7L674 455.3L644.3 441.6L613.3 427.7L581 413.9L547.8 400.2L514 386.8L479.9 373.9L445.7 361.6L411.7 350L378.2 339.4L345.5 329.7L314 321.3L283.7 314.1L255.1 308.4L228.3 304.1L203.7 301.5L181.4 300.6L161.6 301.4L144.4 304L130.2 308.4L118.9 314.7L110.7 322.8L105.7 332.7L103.9 344.3L105.4 357.7L110.1 372.7L118 389.2L129 407.2L143.2 426.4L160.3 446.7L180.2 468.1L202.7 490.3L227.8 513.1L255.1 536.3L284.4 559.8L315.5 583.3L348.2 606.6L382.1 629.6L417 651.9L452.6 673.4L488.5 693.9L524.6 713.2L560.4 731.1L595.7 747.3L630.1 761.8L663.5 774.3L695.5 784.7L725.8 793L754.2 798.9L780.5 802.4L804.5 803.4L825.8 801.9L844.5 797.8L860.3 791.1L873.1 782L882.8 770.3L889.3 756.1L892.7 739.7L892.8 720.9L889.6 700.1L883.3 677.3L873.9 652.8L861.5 626.6L846.2 599.1L828.1 570.3L807.5 540.7L784.4 510.3L759.1 479.5L731.9 448.5L702.9 417.6L672.5 387.1L640.8 357.2L608.2 328.1L574.9 300.2L541.3 273.6L507.6 248.7L474 225.6L441 204.6L408.7 185.8L377.4 169.5L347.4 155.8L318.9 144.8L292.1 136.6L267.3 131.4L244.7 129.2L224.3 130L206.4 133.9L191.1 140.8L178.5 150.8L168.7 163.6L161.7 179.4L157.6 197.8L156.3 218.9L157.8 242.4L162.2 268.1L169.2 295.8L178.9 325.4L191.2 356.6L205.7 389L222.6 422.5L241.4 456.8L262.2 491.5L284.6 526.5L308.4 561.3L333.5 595.7L359.6 629.5L386.4 662.3L413.7 693.8L441.3 723.8L469 752L496.4 778.2L523.4 802.2L549.8 823.8L575.2 842.7L599.6 858.8L622.7 872L644.4 882.1L664.4 889.1L682.7 892.9L699.1 893.6L713.5 890.9L725.8 885.1L736 876.2L744.1 864.1L749.9 849.1L753.4 831.2L754.8 810.7L754 787.7L751.2 762.3L746.2 734.8L739.4 705.5L730.7 674.5L720.2 642.3L708.2 608.9L694.8 574.7L680.1 540.1L664.2 505.2L647.4 470.4L629.9 436L611.8 402.3L593.2 369.4L574.5 337.9L555.7 307.7L537 279.3L518.6 252.9L500.7 228.6L483.4 206.6L466.8 187.2L451.1 170.5L436.5 156.6L422.9 145.5L410.6 137.5L399.5 132.4L389.7 130.4L381.4 131.5L374.5 135.5L369 142.5L364.9 152.4L362.2 165.1L361 180.4L361 198.1L362.4 218.2L364.9 240.5L368.6 264.6L373.4 290.4L379.1 317.8L385.6 346.3L392.9 375.8L400.7 406L409.1 436.7L417.8 467.5L426.8 498.3L435.9 528.7L445 558.5L454 587.5L462.8 615.5L471.3 642.1L479.4 667.2L487 690.6L494 712.1L500.3 731.6L506 748.9L511 763.9L515.1 776.6L518.5 786.7L521.1 794.4L522.9 799.5L523.9 802L524.1 802L523.7 799.5L522.5 794.6L520.8 787.3L518.5 777.8L515.7 766.2L512.5 752.5L509.1 737L505.4 719.9L501.5 701.2L497.7 681.3L493.9 660.2L490.2 638.2L486.8 615.5L483.7 592.4L481.1 569L478.9 545.5L477.3 522.1L476.3 499.1L476 476.7L476.4 455L477.5 434.1L479.5 414.4L482.2 395.9L485.8 378.7L490.1 363L495.1 348.8L500.9 336.3L507.4 325.6L514.4 316.6L522 309.5L530.1 304.2L538.6 300.7L547.3 299L556.2 299.1L565.2 301L574.2 304.4L583 309.5L591.5 316L599.6 323.9L607.2 333L614.2 343.3L620.4 354.5L625.8 366.6L630.2 379.4L633.6 392.7L635.8 406.4L636.8 420.4L636.6 434.5L635 448.5L632 462.4L627.7 475.9L621.9 489.1L614.8 501.6L606.3 513.5L596.4 524.6L585.3 534.9L572.9 544.3L559.3 552.7L544.8 560.1L529.2 566.4L512.9 571.6L495.8 575.8L478.2 578.9L460.2 580.9L442 582L423.6 582L405.4 581.1L387.4 579.4L369.9 576.8L353 573.6L336.9 569.7L321.8 565.3L307.8 560.5L295.1 555.3L283.8 550L274.1 544.4L266.1 538.9L260 533.4L255.7 528.1L253.4 523L253.2 518.3L255.1 514L259.1 510.1L265.2 506.8L273.5 504.1L283.9 502.1L296.3 500.6L310.8 499.9L327.1 499.8L345.1 500.5L364.9 501.7L386.1 503.7L408.7 506.2L432.5 509.3L457.2 512.9L482.7 516.9L508.8 521.3L535.2 525.9L561.8 530.8L588.3 535.8L614.4 540.8L640 545.7L664.8 550.4L688.5 554.8L711.1 558.9L732.1 562.5L751.5 565.5L769.1 567.9L784.7 569.5L798 570.4L809.1 570.4L817.7 569.5L823.8 567.7L827.3 564.9L828.1 561.1L826.2 556.2L821.5 550.4L814.1 543.6L804.1 535.9L791.4 527.2L776.2 517.7L758.6 507.4L738.7 496.4L716.6 484.9L692.5 472.8L666.7 460.3L639.2 447.5L610.4 434.6L580.5 421.7L549.6 408.9L518.2 396.4L486.3 384.2L454.4 372.6L422.6 361.7L391.3 351.6L360.7 342.5L331 334.4L302.6 327.5L275.6 321.9L250.3 317.7L227 315.1L205.8 313.9L186.9 314.4L170.6 316.6L156.8 320.4L145.8 326L137.7 333.3L132.6 342.3L130.4 352.9L131.3 365.1L135.2 378.9L142.1 394.1L152 410.6L164.7 428.4L180.2 447.2L198.4 467L219.1 487.6L242.1 508.8L267.2 530.4L294.3 552.3L323.1 574.2L353.4 596.1L384.9 617.5L417.3 638.5L450.4 658.7L483.9 678L517.6 696.2L551 713.1L584.1 728.5L616.4 742.3L647.7 754.3L677.8 764.3L706.3 772.3L733.2 778.2L758 781.8L780.7 783.1L801.1 782.1L818.9 778.7L834.1 772.8L846.5 764.7L856 754.1L862.6 741.3L866.1 726.2L866.7 709.1L864.3 690L858.9 669L850.6 646.3L839.4 622.1L825.5 596.6L809.1 570L790.2 542.4L769 514.2L745.7 485.5L720.6 456.6L693.8 427.7L665.5 399.1L636.2 371.1L605.9 343.8L574.9 317.6L543.6 292.6L512.1 269.1L480.7 247.2L449.8 227.3L419.5 209.4L390.2 193.8L362 180.6L335.1 169.9L309.9 161.9L286.4 156.6L265 154.1L245.6 154.4L228.5 157.6L213.9 163.6L201.7 172.4L192.1 184L185.2 198.3L180.9 215.1L179.3 234.4L180.3 255.9L183.9 279.6L190.1 305.2L198.8 332.6L209.8 361.4L223.1 391.5L238.5 422.6L255.8 454.5L274.9 486.9L295.5 519.5L317.6 552L340.8 584.3L365 615.9L389.9 646.6L415.4 676.3L441.1 704.5L466.9 731.1L492.6 755.9L517.9 778.6L542.6 799.1L566.5 817.1L589.4 832.6L611.2 845.3L631.6 855.3L650.5 862.3L667.9 866.3L683.5 867.4L697.2 865.4L709.1 860.5L718.9 852.6L726.7 841.8L732.4 828.2L736.1 812L737.7 793.2L737.3 772L734.9 748.7L730.7 723.3L724.5 696.2L716.7 667.6L707.2 637.6L696.2 606.6L683.9 574.9L670.3 542.6L655.7 510L640.1 477.6L623.9 445.4L607 413.8L589.8 383L572.3 353.3L554.7 324.9L537.3 298.2L520.1 273.2L503.3 250.2L487 229.3L471.4 210.8L456.7 194.8L442.8 181.4L430 170.7L418.3 162.7L407.8 157.5L398.5 155.2L390.5 155.7L383.8 159.1L378.4 165.2L374.4 174L371.7 185.4L370.3 199.3L370.2 215.5L371.3 233.9L373.5 254.4L376.8 276.6L381.1 300.5L386.2 325.8L392.2 352.3L398.9 379.7L406.1 407.8L413.9 436.3L422 465.1L430.3 493.8L438.8 522.3L447.3 550.2L455.8 577.4L464 603.7L472 628.7L479.6 652.4L486.7 674.5L493.4 694.9L499.4 713.4L504.8 729.9L509.5 744.2L513.5 756.4L516.8 766.2L519.3 773.7L521.1 778.9L522.2 781.6L522.5 782L522.2 780L521.2 775.8L519.7 769.4L517.6 760.8L515.1 750.2L512.2 737.8L509 723.6L505.6 707.8L502 690.6L498.4 672.2L494.8 652.7L491.4 632.3L488.2 611.2L485.2 589.7L482.7 567.9L480.6 545.9L479 524.1L478 502.6L477.6 481.5L477.8 461.2L478.8 441.6L480.5 423L483 405.5L486.1 389.2L490 374.3L494.6 360.9L499.9 349L505.9 338.7L512.4 330.1L519.4 323.2L526.9 317.9L534.7 314.4L542.8 312.6L551.1 312.4L559.5 313.9L567.9 316.9L576.1 321.4L584.1 327.2L591.8 334.4L599 342.8L605.6 352.2L611.5 362.5L616.7 373.7L620.9 385.5L624.2 397.9L626.5 410.6L627.6 423.6L627.6 436.8L626.3 449.9L623.7 462.9L619.9 475.6L614.7 487.9L608.3 499.7L600.5 510.9L591.5 521.4L581.3 531.1L569.9 540L557.5 548L544 555L529.6 561.1L514.5 566.1L498.7 570.2L482.3 573.2L465.6 575.3L448.6 576.4L431.5 576.6L414.4 575.9L397.6 574.4L381.2 572.1L365.3 569.2L350.2 565.7L335.9 561.6L322.7 557.2L310.6 552.4L299.9 547.4L290.6 542.3L282.8 537.1L276.8 532L272.5 527L270.1 522.2L269.6 517.8L271 513.7L274.4 510L279.9 506.8L287.3 504.2L296.7 502.2L308 500.8L321.1 500L336.1 499.8L352.7 500.3L370.9 501.4L390.5 503.1L411.4 505.4L433.4 508.2L456.3 511.5L480 515.1L504.3 519.2L528.9 523.5L553.7 528L578.5 532.6L602.9 537.3L626.9 541.9L650.2 546.3L672.5 550.5L693.7 554.4L713.6 557.8L732 560.7L748.6 563L763.5 564.7L776.3 565.6L787 565.8L795.4 565.1L801.5 563.5L805.1 561L806.2 557.6L804.8 553.3L800.9 548L794.4 541.8L785.4 534.7L774 526.7L760.2 518L744.1 508.5L725.8 498.4L705.5 487.6L683.4 476.4L659.5 464.8L634.1 452.9L607.4 440.9L579.6 428.8L550.9 416.9L521.6 405.1L492 393.7L462.2 382.8L432.5 372.5L403.2 363L374.5 354.3L346.6 346.6L319.9 340L294.5 334.6L270.6 330.4L248.6 327.7L228.5 326.4L210.5 326.6L194.8 328.4L181.6 331.7L170.9 336.7L162.9 343.2L157.7 351.4L155.2 361L155.6 372.2L158.8 384.8L164.8 398.8L173.6 414L185 430.4L199.1 447.9L215.7 466.2L234.6 485.3L255.7 505L278.9 525.1L303.9 545.5L330.5 566L358.6 586.4L387.8 606.5L418 626.2L448.8 645.2L480 663.3L511.4 680.5L542.7 696.4L573.6 711L603.9 724.1L633.2 735.6L661.5 745.3L688.4 753.1L713.7 758.9L737.2 762.6L758.7 764.2L778.1 763.6L795.1 760.7L809.7 755.6L821.7 748.3L831 738.9L837.6 727.2L841.3 713.5L842.3 697.8L840.5 680.3L835.9 660.9L828.6 640L818.6 617.7L806 594L791 569.3L773.7 543.7L754.3 517.5L732.9 490.7L709.7 463.8L684.9 436.8L658.8 410.1L631.5 383.8L603.3 358.3L574.5 333.6L545.3 310.1L515.9 287.9L486.7 267.2L457.7 248.3L429.4 231.4L401.8 216.4L375.3 203.8L350 193.4L326.2 185.5L304.1 180.1L283.7 177.4L265.3 177.2L249.1 179.8L235 185L223.3 192.8L214 203.2L207.1 216.1L202.7 231.5L200.7 249.1L201.3 268.9L204.3 290.7L209.7 314.3L217.5 339.6L227.4 366.3L239.5 394.2L253.5 423.1L269.4 452.8L287 482.9L306 513.4L326.4 543.7L347.9 573.9L370.4 603.5L393.5 632.3L417.2 660.2L441.2 686.7L465.3 711.8L489.3 735.3L513 756.8L536.1 776.2L558.5 793.4L580.1 808.3L600.6 820.6L619.9 830.2L637.8 837.2L654.2 841.5L669 842.9L682.1 841.5L693.5 837.3L702.9 830.4L710.5 820.7L716.2 808.5L719.9 793.7L721.8 776.5L721.7 757.1L719.7 735.7L716 712.3L710.6 687.3L703.5 660.7L694.9 633L684.8 604.2L673.5 574.6L661 544.6L647.5 514.2L633.1 483.9L618.1 453.8L602.4 424.2L586.4 395.3L570.1 367.4L553.7 340.8L537.4 315.5L521.3 291.9L505.5 270.1L490.2 250.4L475.6 232.8L461.7 217.4L448.6 204.5L436.5 194.1L425.4 186.2L415.4 181L406.6 178.4L398.9 178.5L392.5 181.2L387.3 186.5L383.3 194.3L380.6 204.5L379.1 217.1L378.8 232L379.6 248.8L381.5 267.6L384.5 288.1L388.3 310.2L393 333.6L398.5 358.1L404.6 383.6L411.3 409.7L418.5 436.3L426 463.2L433.7 490L441.6 516.6L449.6 542.8L457.5 568.3L465.2 592.9L472.7 616.5L479.8 638.8L486.6 659.7L492.9 679L498.6 696.5L503.7 712.2L508.2 725.9L512.1 737.6L515.3 747.1L517.7 754.5L519.5 759.6L520.6 762.5L521 763.3L520.8 761.8L520 758.2L518.6 752.5L516.8 744.8L514.5 735.2L511.8 723.9L508.9 710.9L505.7 696.4L502.4 680.6L499 663.5L495.7 645.4L492.5 626.5L489.4 607L486.6 586.9L484.2 566.6L482.2 546.1L480.6 525.7L479.5 505.6L479.1 485.9L479.2 466.7L480 448.3L481.5 430.8L483.7 414.3L486.5 399L490.1 384.9L494.3 372.1L499.1 360.8L504.6 350.9L510.5 342.6L517 335.9L523.9 330.8L531.2 327.2L538.8 325.3L546.5 324.9L554.3 326L562.1 328.6L569.8 332.5L577.4 337.8L584.5 344.3L591.3 351.9L597.6 360.6L603.2 370.1L608.2 380.4L612.3 391.4L615.5 402.8L617.8 414.7L619 426.8L619.1 439L618.1 451.3L615.9 463.4L612.5 475.3L607.9 486.9L602.1 498L595 508.5L586.8 518.4L577.5 527.6L567 536.1L555.5 543.7L543.1 550.4L529.8 556.2L515.8 561L501.1 565L486 568L470.4 570L454.5 571.2L438.6 571.5L422.7 571L406.9 569.7L391.5 567.7L376.6 565L362.4 561.8L348.9 558.2L336.4 554.1L325 549.7L314.7 545L305.8 540.2L298.4 535.4L292.5 530.6L288.2 525.9L285.7 521.4L284.9 517.2L286 513.3L288.9 509.9L293.6 506.8L300.3 504.3L308.7 502.3L319 500.9L331 500L344.7 499.8L360 500.2L376.7 501.1L394.8 502.6L414.1 504.6L434.5 507.2L455.8 510.2L477.8 513.6L500.4 517.3L523.3 521.3L546.5 525.5L569.6 529.8L592.4 534.1L614.9 538.4L636.7 542.6L657.7 546.5L677.7 550.2L696.5 553.4L713.8 556.3L729.7 558.5L743.8 560.2L756.1 561.2L766.4 561.4L774.6 560.9L780.6 559.6L784.3 557.4L785.8 554.3L784.8 550.4L781.5 545.6L775.9 540L767.9 533.5L757.6 526.2L745 518.1L730.3 509.4L713.6 500L694.9 490.1L674.5 479.7L652.5 468.9L629 457.9L604.3 446.7L578.5 435.4L551.8 424.2L524.6 413.2L496.9 402.5L469.1 392.2L441.4 382.5L414 373.5L387.1 365.2L360.9 357.9L335.8 351.6L311.9 346.3L289.4 342.3L268.5 339.5L249.5 338.1L232.4 338.1L217.4 339.5L204.7 342.4L194.3 346.8L186.5 352.6L181.2 360L178.4 368.8L178.4 379L180.9 390.6L186.1 403.4L193.9 417.4L204.2 432.6L216.9 448.7L232 465.7L249.4 483.4L268.8 501.7L290.1 520.5L313.2 539.5L337.8 558.6L363.8 577.6L390.9 596.5L418.9 614.9L447.6 632.7L476.7 649.8L506 665.9L535.2 681L564.1 694.9L592.5 707.3L620 718.3L646.6 727.6L671.9 735.1L695.8 740.9L718 744.6L738.4 746.4L756.8 746.2L773 743.9L787 739.5L798.6 733L807.7 724.4L814.2 713.9L818.2 701.4L819.5 687.1L818.2 670.9L814.3 653.2L807.9 633.9L798.9 613.2L787.6 591.3L774 568.4L758.2 544.7L740.3 520.2L720.6 495.3L699.2 470.2L676.3 445L652.1 420.1L626.8 395.5L600.7 371.5L573.9 348.3L546.6 326.2L519.2 305.3L491.9 285.8L464.8 267.8L438.2 251.7L412.4 237.5L387.5 225.3L363.7 215.3L341.3 207.5L320.3 202.1L301.1 199.2L283.6 198.7L268.1 200.6L254.7 205.1L243.4 212L234.3 221.3L227.5 233L223 247L220.9 263.1L221 281.3L223.5 301.3L228.2 323.1L235 346.5L244 371.2L254.9 397.1L267.8 423.9L282.3 451.5L298.5 479.6L316.1 507.9L334.9 536.3L354.8 564.5L375.6 592.2L397.2 619.3L419.2 645.4L441.6 670.4L464.1 694.1L486.5 716.2L508.6 736.6L530.3 755L551.3 771.4L571.6 785.6L590.9 797.5L609.1 806.9L626 813.8L641.6 818.2L655.6 819.9L668.1 819.1L679 815.6L688.1 809.5L695.5 800.9L701 789.9L704.8 776.4L706.8 760.8L707 743L705.5 723.2L702.2 701.7L697.4 678.6L691 654L683.2 628.3L674.1 601.6L663.7 574.1L652.2 546.1L639.7 517.8L626.4 489.4L612.5 461.3L597.9 433.6L583 406.5L567.8 380.4L552.5 355.3L537.3 331.5L522.2 309.2L507.5 288.6L493.1 269.9L479.4 253.1L466.3 238.4L454 226L442.5 215.9L432 208.2L422.5 202.9L414 200.1L406.7 199.8L400.5 201.9L395.5 206.5L391.6 213.4L388.9 222.6L387.3 234L386.9 247.5L387.5 263L389.1 280.2L391.7 299.1L395.1 319.5L399.4 341.1L404.4 363.9L410 387.5L416.2 411.8L422.8 436.6L429.8 461.6L437 486.7L444.4 511.6L451.8 536.1L459.1 560L466.4 583.1L473.4 605.3L480.1 626.3L486.5 646L492.4 664.2L497.9 680.9L502.8 695.8L507.1 708.9L510.8 720.1L513.8 729.3L516.2 736.5L518 741.7L519.1 744.7L519.6 745.7L519.5 744.6L518.8 741.6L517.6 736.6L516 729.7L513.9 721.1L511.5 710.7L508.7 698.8L505.8 685.5L502.7 670.9L499.6 655.2L496.5 638.5L493.4 620.9L490.6 602.8L487.9 584.1L485.6 565.2L483.6 546.1L482.1 527L481 508.2L480.5 489.7L480.6 471.8L481.2 454.5L482.5 438L484.4 422.4L487 407.9L490.2 394.6L494 382.4L498.4 371.7L503.4 362.2L508.9 354.3L514.9 347.8L521.3 342.7L528 339.2L535 337.1L542.2 336.5L549.5 337.4L556.8 339.6L564 343.1L571.1 347.8L577.9 353.7L584.3 360.6L590.2 368.5L595.5 377.3L600.2 386.8L604.2 396.9L607.4 407.6L609.6 418.6L610.9 429.9L611.2 441.3L610.5 452.7L608.6 464.1L605.6 475.2L601.5 486.1L596.2 496.5L589.8 506.4L582.3 515.8L573.8 524.5L564.2 532.5L553.6 539.7L542.1 546.1L529.9 551.6L516.9 556.3L503.3 560.1L489.2 563L474.7 565.1L459.9 566.3L445 566.7L430.2 566.4L415.5 565.3L401 563.5L387.1 561.1L373.6 558.2L361 554.8L349.1 551.1L338.3 547L328.5 542.7L320 538.3L312.9 533.8L307.1 529.3L302.9 524.9L300.3 520.7L299.3 516.7L300 513L302.4 509.7L306.6 506.8L312.5 504.4L320.1 502.4L329.5 501L340.4 500.1L352.9 499.8L366.9 500.1L382.4 500.8L399 502.2L416.9 504L435.8 506.3L455.5 509L476 512.1L497 515.6L518.4 519.3L539.9 523.1L561.5 527.1L582.9 531.2L603.9 535.2L624.4 539.1L644.1 542.9L662.9 546.3L680.6 549.4L697.1 552.1L712.1 554.3L725.5 555.9L737.3 557L747.2 557.3L755.1 556.9L761.1 555.8L764.9 553.9L766.6 551.2L766.1 547.7L763.4 543.3L758.4 538.2L751.3 532.2L742 525.6L730.6 518.2L717.3 510.1L701.9 501.4L684.8 492.2L666 482.6L645.7 472.6L623.9 462.3L601 451.9L577.1 441.4L552.4 430.9L527 420.6L501.3 410.6L475.3 400.9L449.4 391.8L423.7 383.2L398.6 375.4L374 368.4L350.4 362.4L327.9 357.3L306.7 353.4L287 350.6L268.9 349L252.6 348.8L238.3 349.9L226.1 352.4L216.1 356.3L208.4 361.5L203.1 368.1L200.2 376.1L199.7 385.5L201.7 396.1L206.1 407.9L213 420.8L222.3 434.8L233.8 449.7L247.6 465.4L263.4 481.8L281.2 498.8L300.8 516.3L322.1 534L344.9 551.8L368.9 569.6L394.1 587.2L420.1 604.5L446.8 621.2L473.9 637.3L501.2 652.5L528.5 666.8L555.6 679.9L582.1 691.7L608 702.2L632.9 711.1L656.8 718.4L679.3 724L700.3 727.9L719.6 729.8L737 729.9L752.5 728.1L765.9 724.3L777.1 718.5L785.9 710.9L792.4 701.3L796.5 689.9L798.1 676.8L797.3 662L794.1 645.7L788.4 627.9L780.5 608.8L770.2 588.6L757.8 567.3L743.4 545.3L727 522.5L708.9 499.4L689.2 475.9L668 452.5L645.6 429.1L622.2 406.1L597.9 383.6L573 361.8L547.6 341L522 321.3L496.5 302.9L471.2 285.9L446.3 270.6L422 257L398.6 245.3L376.3 235.6L355.1 228.1L335.3 222.7L317.1 219.5L300.5 218.7L285.8 220.2L272.9 224L262 230L253.2 238.4L246.6 249L242 261.7L239.7 276.4L239.5 293L241.4 311.5L245.5 331.6L251.6 353.1L259.6 376L269.6 400L281.3 425L294.6 450.6L309.4 476.7L325.6 503.2L343 529.7L361.5 556L380.8 582L400.8 607.3L421.3 631.9L442.1 655.4L463.1 677.7L484 698.6L504.8 717.8L525.1 735.4L544.8 751L563.9 764.6L582 776L599.2 785.2L615.1 792L629.9 796.5L643.2 798.5L655.1 798.1L665.5 795.2L674.3 789.9L681.4 782.3L686.9 772.3L690.7 760.1L692.8 745.8L693.3 729.5L692.1 711.4L689.3 691.5L685 670.2L679.3 647.5L672.2 623.6L663.9 598.8L654.4 573.2L643.8 547.2L632.3 520.8L620 494.4L607.1 468L593.6 442.1L579.7 416.7L565.6 392.2L551.3 368.6L537.1 346.2L523 325.2L509.1 305.7L495.7 287.9L482.8 271.9L470.4 257.9L458.8 246L448 236.2L438 228.7L429 223.4L421 220.4L414 219.7L408 221.3L403.1 225.2L399.4 231.3L396.7 239.6L395 250L394.4 262.2L394.8 276.4L396.2 292.2L398.5 309.6L401.6 328.4L405.4 348.5L410 369.5L415.2 391.5L420.8 414.1L427 437.1L433.4 460.5L440.1 483.9L447 507.1L453.9 530.1L460.8 552.5L467.6 574.2L474.2 595L480.5 614.8L486.5 633.4L492.1 650.7L497.2 666.4L501.9 680.6L506 693.1L509.5 703.9L512.5 712.8L514.8 719.8L516.6 724.9L517.7 728L518.2 729.3L518.2 728.6L517.7 726L516.7 721.6L515.2 715.5L513.3 707.7L511.1 698.3L508.6 687.4L505.9 675.2L503 661.8L500.1 647.2L497.2 631.8L494.3 615.5L491.6 598.6L489.1 581.3L486.9 563.6L485 545.8L483.5 528.1L482.4 510.4L481.9 493.1L481.8 476.3L482.3 460L483.4 444.5L485.1 429.9L487.4 416.2L490.3 403.5L493.8 392L497.8 381.7L502.4 372.8L507.5 365.1L513 358.8L518.9 353.9L525.1 350.4L531.6 348.2L538.3 347.5L545.1 348L551.9 349.9L558.7 352.9L565.3 357.2L571.7 362.5L577.7 368.8L583.3 376.1L588.4 384.1L592.9 392.9L596.7 402.3L599.8 412.1L602 422.4L603.4 432.9L603.8 443.5L603.3 454.2L601.7 464.8L599.1 475.2L595.4 485.4L590.6 495.2L584.8 504.6L578 513.4L570.2 521.6L561.4 529.1L551.6 536L541.1 542.1L529.8 547.4L517.7 551.9L505.1 555.6L492 558.4L478.5 560.5L464.8 561.8L450.9 562.3L437 562L423.3 561.1L409.8 559.6L396.6 557.4L384 554.8L372.1 551.7L360.9 548.3L350.6 544.5L341.4 540.5L333.2 536.4L326.3 532.2L320.8 528L316.6 523.9L313.9 519.9L312.7 516.1L313.1 512.7L315.1 509.5L318.8 506.7L324 504.4L330.9 502.5L339.4 501.1L349.3 500.2L360.8 499.8L373.7 500L387.8 500.6L403.2 501.8L419.7 503.4L437.2 505.5L455.5 508L474.5 510.8L494 514L513.9 517.4L534 521L554.2 524.7L574.2 528.5L593.9 532.3L613.1 536L631.6 539.5L649.3 542.7L666 545.7L681.6 548.3L695.8 550.4L708.6 552L719.8 553.1L729.3 553.5L737 553.2L742.9 552.3L746.8 550.7L748.7 548.2L748.5 545.1L746.3 541.1L742.1 536.4L735.7 531L727.4 524.9L717.1 518.1L704.9 510.7L690.8 502.7L675.1 494.2L657.8 485.2L639 475.9L619 466.4L597.8 456.7L575.6 446.9L552.6 437.1L529 427.4L505 418L480.8 408.9L456.6 400.3L432.6 392.3L409 384.8L386.1 378.2L363.9 372.4L342.7 367.5L322.7 363.7L304 360.9L286.9 359.3L271.5 358.9L257.8 359.7L246.1 361.8L236.4 365.2L228.9 369.9L223.6 375.9L220.5 383.1L219.7 391.6L221.2 401.3L224.9 412.2L231 424.1L239.3 437L249.7 450.8L262.2 465.3L276.7 480.6L293.1 496.4L311.1 512.6L330.7 529.1L351.8 545.7L374.1 562.3L397.4 578.8L421.5 595L446.3 610.7L471.6 625.8L497.1 640.1L522.6 653.6L547.9 666L572.7 677.2L597 687.2L620.4 695.8L642.8 702.9L664 708.4L683.9 712.2L702.1 714.3L718.7 714.7L733.5 713.2L746.3 710L757 704.9L765.7 698L772.1 689.4L776.2 679.1L778.1 667.1L777.7 653.5L775.1 638.5L770.2 622.1L763.1 604.4L753.8 585.7L742.6 566L729.4 545.6L714.4 524.4L697.8 502.9L679.6 481L660 459.1L639.3 437.3L617.6 415.7L595 394.7L571.8 374.2L548.2 354.6L524.4 336.1L500.5 318.7L476.8 302.6L453.5 288.1L430.8 275.1L408.8 263.9L387.8 254.6L367.9 247.2L349.2 241.9L331.9 238.6L316.2 237.5L302.2 238.5L289.9 241.7L279.4 247L270.9 254.5L264.3 264L259.8 275.6L257.3 289L256.8 304.3L258.3 321.2L261.8 339.7L267.1 359.7L274.4 380.8L283.4 403.1L294 426.2L306.2 450.1L319.9 474.4L334.8 499L350.9 523.8L367.9 548.4L385.8 572.7L404.4 596.4L423.5 619.5L442.9 641.6L462.5 662.6L482 682.3L501.4 700.5L520.4 717.2L538.9 732L556.8 745L573.9 756L590.1 764.9L605.2 771.6L619.1 776.2L631.8 778.4L643.1 778.4L653 776.1L661.4 771.5L668.4 764.7L673.7 755.7L677.5 744.7L679.7 731.7L680.4 716.7L679.5 700.1L677.2 681.8L673.4 662.1L668.3 641.1L661.9 619L654.2 595.9L645.5 572.2L635.8 547.9L625.2 523.3L613.9 498.7L601.9 474.1L589.4 449.8L576.5 426L563.3 403L550 380.8L536.7 359.7L523.5 339.9L510.5 321.5L497.9 304.6L485.8 289.4L474.2 276.1L463.2 264.6L453 255.2L443.6 247.8L435 242.5L427.4 239.4L420.7 238.4L415 239.6L410.3 242.9L406.6 248.2L403.9 255.6L402.2 265L401.5 276.2L401.7 289.1L402.9 303.6L404.9 319.7L407.6 337L411.1 355.5L415.3 375.1L420 395.4L425.3 416.4L430.9 437.9L436.9 459.6L443.1 481.5L449.5 503.2L455.9 524.7L462.4 545.7L468.7 566.1L474.9 585.6L480.9 604.3L486.5 621.8L491.8 638.1L496.7 653.1L501.1 666.6L505 678.5L508.4 688.8L511.2 697.4L513.5 704.2L515.2 709.2L516.4 712.5L517 713.9L517.1 713.5L516.6 711.4L515.7 707.6L514.4 702.1L512.7 695.1L510.7 686.5L508.4 676.6L505.9 665.4L503.3 653L500.5 639.6L497.8 625.3L495.1 610.3L492.6 594.6L490.2 578.5L488.1 562L486.2 545.4L484.8 528.8L483.7 512.3L483.1 496.1L483 480.3L483.4 465.1L484.3 450.5L485.8 436.7L487.9 423.7L490.5 411.8L493.7 400.9L497.3 391.1L501.5 382.5L506.2 375.2L511.3 369.1L516.7 364.3L522.5 360.8L528.5 358.6L534.8 357.7L541.1 358L547.5 359.5L553.8 362.2L560 366L566 370.8L571.6 376.6L576.9 383.2L581.8 390.6L586.1 398.7L589.7 407.4L592.7 416.5L594.9 426L596.3 435.8L596.9 445.7L596.5 455.7L595.2 465.6L592.9 475.4L589.6 484.9L585.4 494.1L580.1 502.9L573.9 511.2L566.7 519L558.6 526.1L549.7 532.6L540 538.4L529.5 543.5L518.4 547.8L506.7 551.4L494.5 554.2L482 556.2L469.2 557.5L456.3 558.1L443.3 558L430.4 557.2L417.8 555.9L405.5 554L393.6 551.6L382.4 548.7L371.8 545.6L362.1 542.1L353.3 538.4L345.5 534.6L338.9 530.7L333.5 526.7L329.4 522.9L326.6 519.1L325.3 515.6L325.4 512.3L327.1 509.3L330.2 506.7L334.9 504.4L341.1 502.6L348.7 501.2L357.8 500.3L368.3 499.9L380.1 499.9L393.1 500.5L407.3 501.5L422.6 502.9L438.7 504.8L455.7 507.1L473.3 509.7L491.5 512.6L510 515.7L528.8 519.1L547.6 522.5L566.3 526L584.7 529.6L602.7 533L620.1 536.3L636.8 539.4L652.5 542.2L667.2 544.7L680.7 546.7L692.8 548.3L703.5 549.4L712.7 549.9L720.2 549.8L725.9 549L729.9 547.6L731.9 545.4L732.1 542.6L730.3 539L726.7 534.8L721.1 529.8L713.6 524.2L704.2 517.9L693.1 511.1L680.3 503.7L665.9 495.8L649.9 487.6L632.6 478.9L614.1 470.1L594.5 461L573.9 451.9L552.5 442.7L530.6 433.7L508.3 424.9L485.7 416.3L463.1 408.2L440.7 400.6L418.6 393.6L397 387.3L376.2 381.7L356.3 377L337.4 373.3L319.8 370.5L303.6 368.8L288.9 368.3L275.9 368.9L264.7 370.6L255.3 373.6L248 377.8L242.7 383.2L239.4 389.8L238.4 397.5L239.4 406.4L242.6 416.4L247.9 427.3L255.3 439.2L264.8 452L276.1 465.4L289.4 479.6L304.3 494.2L320.9 509.3L339 524.7L358.5 540.2L379.1 555.7L400.7 571.1L423.1 586.3L446.2 601L469.7 615.2L493.5 628.7L517.3 641.4L540.9 653.1L564.2 663.8L587 673.3L609 681.5L630 688.4L650 693.7L668.7 697.6L686 699.8L701.8 700.4L715.8 699.3L728.1 696.5L738.4 692.1L746.8 685.9L753.1 678.1L757.3 668.7L759.4 657.8L759.4 645.4L757.2 631.5L753 616.4L746.7 600.2L738.4 582.8L728.2 564.6L716.2 545.6L702.4 526L687.1 505.9L670.4 485.6L652.3 465.1L633.2 444.7L613 424.5L592.1 404.8L570.5 385.6L548.5 367.2L526.3 349.7L504 333.3L481.9 318.1L460.1 304.3L438.8 292L418.1 281.2L398.3 272.2L379.6 265.1L361.9 259.8L345.6 256.4L330.7 255L317.3 255.7L305.6 258.3L295.6 263L287.3 269.6L280.9 278.2L276.4 288.7L273.7 301L273 315L274.1 330.5L277 347.6L281.8 366L288.3 385.6L296.4 406.2L306.1 427.7L317.3 449.8L329.8 472.5L343.5 495.4L358.4 518.5L374.2 541.5L390.8 564.2L408 586.5L425.7 608.1L443.8 628.9L462.1 648.7L480.3 667.3L498.4 684.5L516.2 700.3L533.6 714.4L550.4 726.9L566.5 737.4L581.7 746L596 752.6L609.1 757.2L621.2 759.6L632 759.9L641.4 758.1L649.5 754.2L656.2 748.2L661.4 740.1L665.2 730.1L667.5 718.2L668.3 704.6L667.8 689.3L665.8 672.5L662.5 654.3L657.9 634.8L652.1 614.4L645.1 593L637.2 570.9L628.2 548.4L618.5 525.5L608 502.4L596.9 479.4L585.3 456.7L573.3 434.5L561 412.8L548.6 392L536.2 372.1L523.9 353.4L511.8 336L499.9 320L488.5 305.6L477.6 292.9L467.3 281.9L457.6 272.8L448.7 265.6L440.6 260.3L433.3 257.1L426.9 255.9L421.4 256.6L416.9 259.4L413.3 264.1L410.7 270.7L408.9 279.2L408.1 289.4L408.2 301.2L409.1 314.5L410.9 329.2L413.4 345.2L416.5 362.4L420.3 380.4L424.6 399.3L429.4 418.8L434.7 438.8L440.2 459.1L446 479.5L451.9 499.8L457.9 519.9L463.9 539.5L469.9 558.7L475.7 577.1L481.3 594.6L486.6 611.1L491.6 626.6L496.2 640.7L500.4 653.5L504.1 664.9L507.4 674.7L510.1 683L512.3 689.7L514 694.6L515.2 697.9L515.8 699.5L515.9 699.4L515.6 697.7L514.8 694.4L513.7 689.5L512.1 683.2L510.3 675.4L508.2 666.4L505.9 656.1L503.4 644.7L500.9 632.3L498.4 619.1L495.8 605.2L493.4 590.6L491.2 575.7L489.2 560.3L487.4 544.9L486 529.4L484.9 513.9L484.3 498.8L484.1 484L484.4 469.6L485.2 455.9L486.5 442.9L488.4 430.7L490.7 419.4L493.6 409L496.9 399.7L500.8 391.6L505.1 384.5L509.7 378.6L514.8 374L520.1 370.5L525.7 368.3L531.5 367.2L537.4 367.4L543.4 368.6L549.3 371L555.1 374.3L560.7 378.7L566 383.9L571 390L575.6 396.8L579.7 404.2L583.2 412.3L586.1 420.7L588.3 429.5L589.8 438.6L590.4 447.8L590.2 457.1L589.1 466.4L587.1 475.6L584.2 484.5L580.4 493.1L575.6 501.4L569.9 509.3L563.4 516.6L556 523.4L547.8 529.5L538.8 535L529.1 539.9L518.8 544L508 547.5L496.7 550.2L485.1 552.2L473.2 553.5L461.1 554.2L449 554.1L437 553.5L425.1 552.4L413.6 550.7L402.4 548.5L391.8 545.9L381.9 543L372.7 539.8L364.3 536.4L356.9 532.8L350.5 529.2L345.3 525.5L341.3 521.9L338.5 518.4L337.1 515.1L337 512L338.3 509.1L341 506.6L345.1 504.4L350.7 502.7L357.6 501.3L365.9 500.4L375.5 499.9L386.3 499.9L398.3 500.3L411.3 501.2L425.4 502.5L440.4 504.2L456.1 506.2L472.5 508.6L489.3 511.3L506.6 514.2L524.1 517.3L541.6 520.5L559.1 523.8L576.3 527.1L593.2 530.3L609.6 533.4L625.2 536.3L640 539L653.9 541.4L666.7 543.3L678.2 544.9L688.5 546L697.2 546.5L704.5 546.5L710.1 545.9L714 544.6L716.3 542.8L716.7 540.2L715.3 537L712.2 533.1L707.2 528.6L700.5 523.4L692.1 517.7L682 511.4L670.3 504.6L657 497.3L642.4 489.6L626.4 481.7L609.3 473.4L591.1 465L572.1 456.4L552.2 447.9L531.9 439.5L511.1 431.2L490 423.2L468.9 415.5L448 408.3L427.3 401.7L407.1 395.7L387.5 390.4L368.8 385.9L351 382.2L334.4 379.5L319 377.8L305.1 377.1L292.7 377.5L281.9 378.9L272.9 381.5L265.8 385.3L260.5 390.1L257.2 396.1L255.9 403.2L256.5 411.3L259.2 420.4L263.8 430.5L270.4 441.5L278.9 453.2L289.3 465.7L301.3 478.8L315.1 492.4L330.3 506.4L347 520.7L365 535.2L384 549.7L404.1 564.1L424.9 578.3L446.3 592.1L468.2 605.4L490.4 618.1L512.6 630.1L534.7 641.2L556.5 651.4L577.8 660.4L598.5 668.3L618.3 674.9L637.1 680.1L654.8 683.9L671.1 686.2L686.1 687L699.4 686.3L711.1 683.9L721.1 680L729.2 674.5L735.4 667.5L739.6 659L741.9 649L742.2 637.6L740.5 624.9L736.8 611L731.3 596L723.8 579.9L714.6 563.1L703.6 545.4L691.1 527.2L677 508.5L661.6 489.6L644.9 470.5L627.2 451.4L608.5 432.6L589.1 414L569 396.1L548.6 378.8L527.8 362.3L507.1 346.8L486.4 332.4L465.9 319.3L446 307.6L426.6 297.3L408 288.7L390.3 281.7L373.7 276.5L358.3 273L344.1 271.5L331.4 271.8L320.2 273.9L310.6 278L302.7 283.9L296.4 291.7L291.9 301.2L289.1 312.3L288.1 325.1L288.9 339.4L291.4 355.2L295.5 372.1L301.3 390.2L308.7 409.3L317.5 429.2L327.7 449.8L339.2 470.9L351.9 492.3L365.6 513.8L380.2 535.3L395.5 556.6L411.6 577.5L428 597.7L444.9 617.3L461.9 635.9L478.9 653.4L495.9 669.7L512.5 684.7L528.8 698.1L544.6 710L559.7 720.1L574 728.4L587.5 734.9L600 739.5L611.4 742.1L621.6 742.7L630.6 741.3L638.4 737.9L644.8 732.6L649.9 725.4L653.7 716.4L656 705.5L657.1 693.1L656.7 679L655.1 663.5L652.2 646.8L648.1 628.8L642.9 609.8L636.6 590L629.3 569.5L621.1 548.5L612.1 527.2L602.4 505.7L592.1 484.2L581.3 463L570.2 442.1L558.8 421.8L547.2 402.2L535.6 383.6L524.1 365.9L512.8 349.5L501.7 334.3L490.9 320.6L480.7 308.5L471 298L461.8 289.2L453.4 282.2L445.7 277L438.8 273.7L432.7 272.2L427.4 272.7L423.1 274.9L419.6 279.1L417 285L415.2 292.6L414.3 301.8L414.3 312.6L415 324.8L416.5 338.4L418.7 353.1L421.6 368.9L425 385.7L429 403.2L433.4 421.3L438.2 439.9L443.3 458.8L448.7 477.8L454.2 496.8L459.8 515.6L465.5 534L471 551.9L476.5 569.2L481.7 585.7L486.7 601.3L491.4 615.9L495.8 629.3L499.8 641.5L503.3 652.3L506.4 661.7L509.1 669.7L511.2 676.1L512.8 681L514 684.3L514.7 686.1L514.9 686.2L514.6 684.9L514 682L513 677.7L511.6 672L509.9 665L508 656.7L505.8 647.3L503.6 636.8L501.2 625.4L498.8 613.2L496.5 600.3L494.2 586.8L492.1 572.9L490.2 558.6L488.5 544.2L487.1 529.7L486.1 515.3L485.4 501.1L485.2 487.2L485.4 473.8L486 460.8L487.2 448.6L488.8 437.1L490.9 426.4L493.5 416.6L496.6 407.8L500.1 399.9L504.1 393.2L508.4 387.5L513 383L518 379.6L523.2 377.3L528.5 376.2L534 376.1L539.6 377.1L545.1 379.2L550.5 382.2L555.8 386.1L560.8 390.8L565.6 396.4L569.9 402.6L573.8 409.5L577.2 416.9L580 424.7L582.1 432.9L583.6 441.3L584.3 449.9L584.2 458.6L583.4 467.3L581.6 475.8L579.1 484.2L575.6 492.3L571.3 500.1L566.2 507.5L560.2 514.4L553.4 520.8L545.8 526.7L537.6 531.9L528.7 536.5L519.1 540.5L509.1 543.8L498.6 546.5L487.8 548.4L476.8 549.8L465.5 550.5L454.2 550.6L443 550.1L431.9 549.1L421 547.6L410.6 545.6L400.6 543.3L391.2 540.6L382.5 537.6L374.6 534.5L367.5 531.2L361.4 527.8L356.4 524.4L352.4 521L349.6 517.7L348.1 514.5L347.8 511.6L348.8 508.9L351.1 506.5L354.8 504.4L359.7 502.7L366 501.4L373.5 500.5L382.3 500L392.2 499.9L403.2 500.2L415.3 501L428.2 502.1L442.1 503.6L456.6 505.5L471.8 507.7L487.5 510.1L503.6 512.8L519.8 515.7L536.2 518.6L552.6 521.7L568.7 524.8L584.5 527.8L599.9 530.7L614.6 533.5L628.5 536L641.6 538.3L653.7 540.2L664.7 541.7L674.4 542.8L682.8 543.4L689.8 543.4L695.3 543L699.3 541.9L701.6 540.2L702.3 537.9L701.3 535L698.6 531.5L694.2 527.4L688.2 522.7L680.6 517.4L671.4 511.6L660.7 505.3L648.6 498.6L635.1 491.5L620.4 484.1L604.6 476.4L587.8 468.6L570.1 460.6L551.7 452.6L532.8 444.7L513.4 437L493.8 429.5L474.1 422.3L454.5 415.5L435.2 409.2L416.2 403.5L397.9 398.4L380.3 394.1L363.5 390.6L347.8 387.9L333.3 386.1L320.1 385.3L308.3 385.5L298 386.7L289.3 389L282.4 392.3L277.2 396.7L273.8 402.1L272.2 408.5L272.6 415.9L274.7 424.3L278.8 433.6L284.7 443.7L292.3 454.5L301.7 466.1L312.7 478.2L325.3 490.9L339.3 503.9L354.7 517.2L371.2 530.7L388.9 544.2L407.4 557.7L426.8 571L446.7 583.9L467.1 596.4L487.7 608.4L508.4 619.7L529.1 630.2L549.5 639.8L569.5 648.4L588.9 655.9L607.5 662.3L625.2 667.4L641.9 671.1L657.4 673.5L671.5 674.5L684.2 674L695.4 672.1L704.9 668.7L712.8 663.8L718.9 657.5L723.1 649.7L725.5 640.6L726.1 630.2L724.8 618.5L721.7 605.7L716.8 591.9L710.1 577L701.7 561.4L691.8 545L680.3 528.1L667.4 510.8L653.2 493.1L637.8 475.3L621.4 457.5L604.1 439.8L586 422.5L567.4 405.6L548.4 389.4L529.1 373.9L509.7 359.3L490.3 345.7L471.2 333.2L452.5 322.1L434.3 312.3L416.9 304L400.2 297.2L384.5 292.1L370 288.6L356.6 286.8L344.5 286.8L333.8 288.6L324.6 292.1L316.9 297.4L310.8 304.3L306.3 312.9L303.5 323.1L302.3 334.8L302.8 348L304.8 362.4L308.5 378.1L313.6 394.8L320.3 412.5L328.3 431L337.6 450.1L348.2 469.7L359.8 489.6L372.4 509.7L386 529.8L400.2 549.7L415 569.2L430.4 588.2L446 606.6L461.9 624.1L477.8 640.6L493.6 656.1L509.2 670.2L524.5 683L539.3 694.3L553.5 704L567 712.1L579.7 718.4L591.5 722.9L602.3 725.6L612 726.5L620.7 725.5L628.1 722.6L634.3 718L639.3 711.5L642.9 703.4L645.4 693.5L646.5 682.1L646.4 669.3L645.1 655L642.5 639.5L638.9 622.9L634.2 605.4L628.4 587L621.8 568L614.3 548.4L606 528.5L597 508.5L587.5 488.5L577.5 468.6L567.2 449L556.6 430L545.8 411.6L535 394.1L524.2 377.4L513.6 361.9L503.2 347.6L493.1 334.6L483.5 323L474.3 312.9L465.7 304.5L457.7 297.7L450.4 292.5L443.8 289.2L438 287.5L433 287.7L428.8 289.5L425.4 293.1L422.8 298.3L421.1 305.2L420.1 313.6L420 323.4L420.5 334.6L421.8 347.1L423.8 360.7L426.4 375.3L429.5 390.8L433.1 407L437.2 423.9L441.6 441.1L446.4 458.7L451.3 476.4L456.5 494.2L461.7 511.7L466.9 529L472.1 545.8L477.2 562.1L482.2 577.6L486.9 592.3L491.3 606.1L495.5 618.7L499.2 630.3L502.6 640.6L505.6 649.6L508.1 657.2L510.2 663.5L511.8 668.3L512.9 671.6L513.6 673.5L513.9 673.9L513.7 672.8L513.2 670.4L512.3 666.6L511 661.4L509.5 655.1L507.7 647.5L505.8 638.9L503.7 629.3L501.5 618.8L499.3 607.5L497.1 595.5L494.9 583L492.9 570.1L491.1 556.8L489.5 543.4L488.2 529.9L487.1 516.4L486.5 503.1L486.2 490.1L486.3 477.5L486.9 465.3L487.8 453.8L489.3 442.9L491.2 432.8L493.6 423.6L496.4 415.2L499.6 407.7L503.2 401.3L507.1 395.8L511.4 391.4L516 388.1L520.8 385.8L525.8 384.6L530.9 384.3L536.1 385.1L541.3 386.9L546.4 389.5L551.3 393L556.1 397.4L560.5 402.4L564.6 408.2L568.3 414.5L571.6 421.3L574.3 428.6L576.4 436.2L577.8 444L578.6 452L578.7 460.1L578 468.2L576.5 476.2L574.2 484L571.1 491.7L567.2 499L562.6 505.9L557.1 512.5L550.9 518.5L543.9 524.1L536.3 529L528.1 533.4L519.3 537.3L510 540.4L500.3 543L490.3 545L480 546.3L469.5 547L459 547.2L448.4 546.9L438.1 546L427.9 544.6L418.1 542.9L408.7 540.7L399.8 538.3L391.6 535.6L384.1 532.7L377.3 529.6L371.5 526.4L366.6 523.2L362.8 520.1L360 517L358.4 514L357.9 511.3L358.7 508.7L360.6 506.4L363.9 504.4L368.3 502.8L373.9 501.5L380.8 500.6L388.8 500L397.8 499.9L408 500.1L419.1 500.8L431.1 501.8L443.8 503.1L457.3 504.8L471.4 506.8L486 509.1L500.9 511.5L516.1 514.2L531.4 516.9L546.6 519.8L561.7 522.7L576.5 525.5L590.9 528.3L604.8 530.9L617.9 533.3L630.3 535.4L641.7 537.2L652.1 538.7L661.4 539.8L669.5 540.4L676.2 540.6L681.6 540.2L685.5 539.3L687.9 537.8L688.8 535.8L688.1 533.2L685.8 530L682 526.2L676.7 521.9L669.8 517.1L661.4 511.7L651.7 505.9L640.6 499.7L628.2 493.1L614.6 486.3L600 479.1L584.5 471.8L568.1 464.4L551.1 457L533.4 449.6L515.4 442.3L497.2 435.3L478.8 428.5L460.5 422.1L442.4 416.2L424.6 410.8L407.4 405.9L390.8 401.8L375.1 398.4L360.3 395.7L346.5 393.9L334 393L322.7 393.1L312.9 394L304.6 396L297.8 398.9L292.7 402.9L289.3 407.7L287.6 413.6L287.6 420.4L289.3 428.1L292.9 436.6L298.1 445.9L304.9 455.9L313.4 466.6L323.5 477.8L335 489.6L347.9 501.7L362 514.1L377.3 526.6L393.6 539.3L410.8 551.8L428.7 564.3L447.3 576.4L466.2 588.2L485.5 599.4L504.8 610.1L524.1 620L543.2 629.1L561.9 637.3L580.1 644.5L597.6 650.6L614.3 655.5L630 659.2L644.6 661.7L658 662.8L670.1 662.6L680.8 661L689.9 658L697.5 653.7L703.5 648L707.7 641L710.2 632.6L711 623.1L710.1 612.4L707.5 600.6L703.1 587.8L697.2 574.2L689.6 559.7L680.5 544.5L670 528.8L658.2 512.6L645.1 496.2L630.9 479.6L615.8 463L599.8 446.5L583 430.2L565.7 414.4L548 399.1L530 384.5L511.9 370.8L493.8 357.9L476 346.2L458.4 335.5L441.4 326.2L425 318.2L409.3 311.7L394.5 306.6L380.7 303.1L368.1 301.2L356.6 301L346.4 302.3L337.6 305.4L330.2 310L324.3 316.2L319.8 324L316.9 333.3L315.6 344L315.8 356.1L317.4 369.4L320.6 383.8L325.2 399.3L331.2 415.7L338.5 432.8L347 450.5L356.7 468.8L367.4 487.3L379 506.1L391.5 524.8L404.7 543.4L418.5 561.7L432.7 579.6L447.3 596.8L462.1 613.3L476.9 628.9L491.7 643.4L506.3 656.8L520.6 669L534.5 679.7L547.9 689L560.6 696.8L572.6 703L583.7 707.5L593.9 710.3L603.2 711.4L611.4 710.7L618.5 708.3L624.5 704.2L629.3 698.5L632.9 691.1L635.4 682.2L636.6 671.8L636.7 659.9L635.6 646.9L633.5 632.6L630.2 617.3L626 601L620.8 584L614.7 566.3L607.8 548.1L600.2 529.6L591.9 510.9L583.1 492.2L573.9 473.6L564.3 455.3L554.4 437.5L544.3 420.2L534.3 403.7L524.2 388L514.2 373.3L504.5 359.8L495.1 347.5L486 336.4L477.4 326.8L469.2 318.7L461.7 312.1L454.8 307L448.5 303.6L443 301.9L438.2 301.7L434.1 303.2L430.8 306.3L428.3 310.9L426.6 317.1L425.6 324.7L425.3 333.7L425.7 343.9L426.8 355.4L428.5 367.9L430.9 381.4L433.7 395.7L437 410.8L440.7 426.4L444.8 442.5L449.2 458.8L453.8 475.4L458.6 491.9L463.5 508.4L468.4 524.5L473.2 540.3L478 555.6L482.6 570.2L487.1 584L491.3 597L495.2 609L498.7 619.9L502 629.8L504.8 638.4L507.2 645.7L509.2 651.7L510.8 656.4L511.9 659.7L512.6 661.7L512.9 662.3L512.9 661.5L512.4 659.5L511.6 656.1L510.5 651.5L509.1 645.7L507.5 638.9L505.7 631L503.8 622.1L501.7 612.5L499.7 602L497.6 591L495.6 579.4L493.7 567.3L492 555L490.4 542.5L489.1 529.9L488.1 517.3L487.4 504.9L487.1 492.7L487.2 480.8L487.6 469.4L488.5 458.6L489.8 448.3L491.5 438.8L493.6 430L496.2 422L499.1 414.9L502.4 408.8L506.1 403.5L510 399.3L514.3 396L518.7 393.7L523.4 392.4L528.1 392L532.9 392.6L537.7 394.1L542.5 396.5L547.2 399.6L551.6 403.5L555.8 408.2L559.7 413.4L563.3 419.2L566.3 425.5L568.9 432.2L571 439.3L572.5 446.6L573.3 454L573.5 461.6L572.9 469.1L571.7 476.6L569.6 484L566.9 491.1L563.4 498L559.1 504.5L554.1 510.7L548.4 516.4L542.1 521.7L535.1 526.4L527.5 530.6L519.4 534.2L510.8 537.3L501.8 539.8L492.4 541.7L482.8 543L473.1 543.8L463.3 544.1L453.4 543.8L443.7 543.1L434.2 541.9L425 540.3L416.2 538.4L407.8 536.1L400 533.6L392.9 530.9L386.5 528.1L380.9 525.1L376.2 522.2L372.4 519.2L369.7 516.3L368 513.5L367.4 510.9L367.9 508.5L369.6 506.3L372.4 504.4L376.3 502.8L381.4 501.5L387.6 500.6L394.9 500.1L403.2 499.9L412.5 500.1L422.8 500.6L433.8 501.5L445.6 502.7L458.1 504.2L471.2 506L484.7 508.1L498.6 510.4L512.8 512.8L527 515.4L541.3 518L555.4 520.7L569.3 523.4L582.8 526L595.8 528.4L608.2 530.7L619.8 532.7L630.6 534.5L640.5 535.9L649.3 537L657 537.6L663.5 537.9L668.7 537.6L672.6 536.8L675.1 535.5L676.1 533.7L675.7 531.4L673.9 528.5L670.5 525.1L665.8 521.1L659.6 516.7L652 511.8L643.1 506.4L632.9 500.7L621.5 494.6L609.1 488.2L595.6 481.6L581.2 474.8L566.1 467.9L550.2 461L533.9 454.1L517.1 447.3L500.1 440.6L482.9 434.3L465.8 428.2L448.9 422.6L432.3 417.5L416.1 412.9L400.5 408.9L385.7 405.6L371.7 403L358.7 401.2L346.8 400.3L336.2 400.1L326.8 400.9L318.8 402.6L312.2 405.2L307.2 408.7L303.8 413.1L301.9 418.4L301.7 424.6L303 431.7L306.1 439.5L310.7 448.1L316.8 457.3L324.5 467.2L333.7 477.6L344.2 488.5L356 499.7L369 511.3L383.2 523L398.2 534.8L414.2 546.5L430.8 558.1L448 569.5L465.6 580.6L483.6 591.1L501.6 601.2L519.6 610.6L537.5 619.2L555 627L572.1 633.8L588.5 639.7L604.2 644.5L619.1 648.1L632.9 650.6L645.6 651.9L657.1 651.8L667.2 650.6L676 648L683.3 644.1L689.1 639L693.3 632.7L695.9 625.1L696.9 616.4L696.3 606.6L694.1 595.7L690.3 583.9L685 571.3L678.2 557.9L669.9 543.8L660.3 529.2L649.5 514.2L637.4 498.9L624.4 483.4L610.4 467.9L595.5 452.5L580 437.3L563.9 422.4L547.4 408.1L530.7 394.4L513.8 381.4L496.9 369.3L480.2 358.1L463.8 348L447.8 339.1L432.4 331.4L417.6 325.1L403.7 320.2L390.7 316.7L378.7 314.7L367.8 314.2L358.1 315.2L349.6 317.8L342.5 321.9L336.8 327.5L332.4 334.5L329.5 343L328 352.8L327.9 363.8L329.3 376L332 389.4L336.1 403.7L341.5 418.8L348.1 434.7L355.9 451.2L364.7 468.1L374.6 485.4L385.3 502.9L396.9 520.4L409.1 537.8L421.8 554.9L435.1 571.6L448.6 587.8L462.4 603.3L476.3 618L490.1 631.7L503.7 644.4L517.2 656L530.2 666.2L542.7 675.1L554.7 682.6L566 688.6L576.5 693.1L586.2 695.9L595 697.2L602.8 696.8L609.6 694.9L615.4 691.3L620 686.2L623.6 679.5L626 671.4L627.4 661.9L627.6 651.1L626.8 639.1L624.9 625.9L622.1 611.8L618.3 596.7L613.5 580.9L608 564.5L601.7 547.6L594.7 530.4L587 513L578.9 495.5L570.3 478.1L561.4 461L552.2 444.3L542.9 428.1L533.5 412.5L524.1 397.8L514.8 383.9L505.6 371.1L496.8 359.4L488.2 348.9L480.1 339.7L472.5 331.9L465.3 325.5L458.8 320.6L452.9 317.2L447.6 315.3L443 314.9L439.1 316L435.9 318.7L433.4 322.8L431.7 328.3L430.6 335.2L430.3 343.3L430.6 352.7L431.5 363.2L433 374.8L435.1 387.2L437.7 400.5L440.7 414.5L444.1 429L447.9 443.9L451.9 459.2L456.2 474.6L460.6 490L465.2 505.4L469.7 520.5L474.3 535.3L478.8 549.6L483.1 563.4L487.3 576.4L491.2 588.6L494.9 600L498.3 610.4L501.4 619.7L504.1 627.9L506.4 635L508.3 640.8L509.8 645.4L511 648.7L511.7 650.7L512.1 651.5L512 650.9L511.7 649.2L511 646.3L510 642.1L508.7 636.9L507.2 630.7L505.6 623.5L503.8 615.3L501.9 606.4L500 596.8L498.1 586.6L496.2 575.8L494.4 564.7L492.7 553.2L491.3 541.5L490 529.8L489.1 518L488.4 506.4L488 495L488 483.8L488.4 473.1L489.1 462.9L490.2 453.2L491.8 444.2L493.7 435.9L496 428.4L498.7 421.6L501.7 415.7L505.1 410.7L508.7 406.6L512.7 403.4L516.8 401.1L521.1 399.7L525.5 399.2L530 399.6L534.5 400.9L539 403L543.3 405.8L547.5 409.4L551.5 413.6L555.2 418.4L558.5 423.7L561.5 429.5L564 435.7L566 442.3L567.4 449L568.3 456L568.6 463L568.2 470.1L567.1 477.1L565.3 483.9L562.9 490.7L559.7 497.1L555.9 503.3L551.3 509.1L546.1 514.5L540.3 519.5L533.8 524L526.8 528L519.3 531.4L511.4 534.4L503 536.8L494.3 538.7L485.4 540L476.3 540.8L467.2 541.1L458 541L448.9 540.3L440 539.3L431.3 537.9L423 536.1L415.2 534.1L407.8 531.8L401 529.3L395 526.6L389.6 523.9L385.1 521.1L381.5 518.4L378.7 515.6L377 513L376.3 510.6L376.6 508.3" opacity="0.1"/></g></svg>