<svg xmlns="http://www.w3.org/2000/svg" viewBox="0 0 1000 1000" preserveAspectRatio="xMidYMid slice" fill="none" stroke-linecap="round" stroke-linejoin="round"><g stroke="#0f3d2e" stroke-width="0.6"><path d="M610.3 610.3L641.2 639L671.7 666.5L701.5 692.4L730.3 716.6L758.1 738.9L784.5 759.2L809.4 777.4L832.5 793.4L853.6 807L872.7 818.2L889.6 826.9L904.1 833.3L916.2 837.1L925.7 838.6L932.7 837.7L937.1 834.5L938.8 829.1L937.9 821.7L934.5 812.3L928.5 801.1L920.1 788.3L909.4 774L896.5 758.5L881.6 741.9L864.7 724.5L846.1 706.5L826 688.1L804.5 669.5L782 650.9L758.5 632.7L734.4 614.8L709.8 597.7L685 581.4L660.3 566.1L635.7 552.1L611.7 539.5L588.3 528.3L565.8 518.8L544.4 511L524.2 505L505.5 500.9L488.3 498.7L472.8 498.3L459.1 499.9L447.3 503.4L437.5 508.7L429.6 515.7L423.8 524.4L420 534.6L418.2 546.3L418.3 559.2L420.4 573.2L424.2 588.1L429.8 603.8L436.9 620L445.5 636.5L455.4 653.1L466.4 669.7L478.3 685.9L490.9 701.7L504.1 716.6L517.6 730.7L531.2 743.6L544.8 755.1L558.1 765.2L570.8 773.5L582.8 780.1L594 784.6L604 787.2L612.8 787.5L620.1 785.6L625.8 781.4L629.9 774.9L632.1 766.1L632.5 755L630.8 741.6L627.1 726L621.3 708.2L613.4 688.4L603.5 666.7L591.6 643.3L577.6 618.2L561.8 591.7L544.2 564L524.9 535.2L504.1 505.6L481.9 475.5L458.5 444.9L434 414.3L408.7 383.7L382.9 353.5L356.6 323.8L330.1 295L303.7 267.2L277.6 240.6L251.9 215.5L227.1 192.1L203.1 170.4L180.4 150.8L159 133.3L139.2 118L121.2 105.1L105.1 94.6L91.1 86.6L79.3 81.1L69.9 78.2L62.8 77.9L58.3 80L56.3 84.6L56.9 91.6L60.1 100.9L65.8 112.4L74.1 125.9L84.8 141.3L97.9 158.4L113.3 177.1L130.8 197.1L150.4 218.2L171.8 240.3L194.8 263.1L219.4 286.4L245.2 310L272.1 333.6L299.8 357L328.1 380L356.9 402.5L385.7 424.1L414.5 444.7L443 464.2L471 482.3L498.2 498.9L524.4 513.9L549.5 527.3L573.2 538.8L595.5 548.4L616 556.1L634.8 561.8L651.7 565.6L666.5 567.4L679.3 567.3L689.9 565.4L698.4 561.7L704.7 556.4L708.8 549.5L710.8 541.1L710.7 531.5L708.6 520.8L704.6 509.2L698.9 496.8L691.4 483.9L682.5 470.6L672.2 457.1L660.7 443.8L648.3 430.7L635 418L621.2 406.1L607 395L592.6 384.9L578.2 376.1L564.1 368.7L550.4 362.8L537.3 358.5L525.1 356.1L513.9 355.5L503.8 356.8L495 360.2L487.7 365.6L482 373L477.9 382.5L475.6 394L475.1 407.5L476.4 422.9L479.7 440.1L484.8 458.9L491.7 479.3L500.5 501.2L511 524.2L523.2 548.4L536.9 573.4L552.1 599L568.5 625.2L586.1 651.5L604.6 677.9L624 704.1L643.9 729.8L664.2 754.9L684.7 779.2L705.2 802.3L725.4 824.1L745.1 844.5L764.2 863.1L782.4 879.9L799.5 894.8L815.3 907.5L829.6 917.9L842.3 926L853.2 931.7L862.1 934.9L869 935.5L873.7 933.7L876.1 929.3L876.2 922.4L873.8 913.1L869.1 901.5L861.9 887.6L852.4 871.5L840.5 853.5L826.3 833.5L809.8 811.9L791.3 788.8L770.8 764.4L748.4 738.9L724.4 712.4L698.9 685.3L672 657.8L644 630L615.1 602.3L585.5 574.7L555.4 547.7L525.1 521.2L494.8 495.7L464.7 471.2L435.1 447.9L406.1 426.1L378 405.8L351 387.3L325.3 370.5L301.1 355.7L278.6 342.8L257.8 332.1L239 323.4L222.2 316.8L207.6 312.3L195.2 309.8L185.1 309.4L177.3 311L171.8 314.4L168.7 319.5L167.8 326.3L169.2 334.5L172.8 344.1L178.5 354.9L186.1 366.7L195.6 379.2L206.7 392.3L219.4 405.9L233.4 419.7L248.7 433.4L264.9 447L281.9 460.1L299.5 472.7L317.4 484.5L335.5 495.3L353.6 505L371.4 513.5L388.7 520.5L405.4 526.1L421.3 530L436.2 532.2L449.9 532.6L462.4 531.2L473.4 527.9L482.8 522.8L490.6 515.9L496.7 507.2L501.1 496.8L503.6 484.7L504.4 471.1L503.3 456L500.5 439.6L496 422.1L489.8 403.6L482 384.2L472.8 364.3L462.3 343.9L450.5 323.3L437.8 302.6L424.1 282.2L409.8 262.2L395 242.8L379.8 224.2L364.6 206.6L349.4 190.2L334.6 175.3L320.2 161.9L306.5 150.3L293.7 140.5L282 132.8L271.6 127.2L262.5 123.8L255.1 122.7L249.3 123.9L245.4 127.5L243.4 133.5L243.5 141.8L245.6 152.5L249.9 165.4L256.3 180.6L264.9 197.9L275.7 217.1L288.6 238.2L303.5 261.1L320.4 285.4L339.2 311.2L359.8 338L382 365.9L405.6 394.5L430.6 423.7L456.7 453.1L483.8 482.7L511.5 512.1L539.8 541.1L568.4 569.6L597.1 597.3L625.6 624L653.8 649.5L681.3 673.6L708.1 696.2L733.9 717L758.4 736.1L781.6 753.1L803.1 768.2L822.9 781L840.8 791.7L856.7 800.2L870.4 806.3L881.9 810.3L891.1 812L897.9 811.5L902.3 808.9L904.3 804.2L903.9 797.7L901.1 789.3L895.9 779.2L888.6 767.6L879 754.7L867.4 740.6L853.9 725.4L838.7 709.5L821.8 693L803.5 676.1L783.9 658.9L763.2 641.8L741.7 624.9L719.6 608.4L697 592.5L674.1 577.3L651.3 563.1L628.7 550L606.4 538.1L584.8 527.6L563.9 518.6L544 511.2L525.2 505.4L507.7 501.3L491.6 499L477.1 498.4L464.2 499.6L453 502.5L443.7 507.1L436.1 513.3L430.5 521.1L426.7 530.3L424.7 540.8L424.6 552.6L426.2 565.3L429.5 578.9L434.4 593.3L440.7 608.1L448.4 623.3L457.4 638.7L467.3 654L478.2 669L489.7 683.6L501.8 697.5L514.2 710.6L526.8 722.6L539.3 733.5L551.6 743L563.4 750.9L574.6 757.2L585 761.8L594.4 764.4L602.7 765L609.7 763.6L615.2 760.1L619.2 754.5L621.6 746.7L622.1 736.8L620.9 724.7L617.8 710.7L612.8 694.6L605.8 676.7L597 656.9L586.3 635.6L573.7 612.7L559.4 588.5L543.4 563.1L525.9 536.7L506.9 509.6L486.6 481.9L465.2 453.7L442.8 425.5L419.7 397.3L395.9 369.4L371.7 341.9L347.3 315.2L323 289.5L298.8 264.8L275.1 241.4L252.1 219.6L229.9 199.3L208.7 180.9L188.8 164.5L170.3 150.1L153.5 137.8L138.3 127.8L125.1 120L113.9 114.6L104.8 111.6L98 110.9L93.4 112.5L91.2 116.4L91.4 122.5L93.9 130.7L98.9 141L106.1 153.1L115.6 167.1L127.4 182.6L141.2 199.6L157.1 217.8L174.8 237.2L194.3 257.4L215.3 278.3L237.7 299.7L261.3 321.4L286 343.2L311.4 364.8L337.4 386.1L363.9 406.9L390.5 426.9L417 446.1L443.3 464.2L469.2 481.1L494.4 496.7L518.7 510.8L542 523.3L564.1 534.1L584.8 543.3L604 550.7L621.6 556.2L637.4 560L651.4 562L663.5 562.2L673.6 560.7L681.7 557.5L687.8 552.8L692 546.7L694.1 539.2L694.3 530.5L692.7 520.8L689.3 510.2L684.2 498.9L677.6 487.1L669.6 474.8L660.3 462.5L649.9 450.1L638.5 438L626.4 426.3L613.8 415.2L600.7 404.8L587.5 395.4L574.2 387L561.1 380L548.4 374.3L536.3 370.1L524.9 367.6L514.4 366.8L504.9 367.7L496.6 370.5L489.7 375.2L484.1 381.8L480.1 390.2L477.7 400.5L477 412.7L478 426.6L480.7 442.1L485.1 459.3L491.2 477.9L499.1 497.8L508.5 518.9L519.5 541L531.9 563.9L545.7 587.5L560.6 611.5L576.7 635.8L593.7 660.1L611.4 684.3L629.7 708.1L648.3 731.3L667.2 753.8L686.1 775.3L704.8 795.6L723 814.5L740.7 832L757.6 847.8L773.6 861.8L788.3 873.8L801.8 883.7L813.7 891.6L824 897.1L832.6 900.4L839.2 901.4L843.8 900.1L846.4 896.4L846.8 890.5L845 882.2L841 871.9L834.7 859.4L826.3 844.9L815.7 828.5L802.9 810.4L788.1 790.7L771.3 769.7L752.7 747.3L732.3 723.9L710.4 699.7L687.1 674.8L662.5 649.5L636.9 623.9L610.3 598.3L583.2 572.9L555.5 547.9L527.6 523.4L499.6 499.7L471.9 477L444.5 455.3L417.7 435L391.6 416.1L366.6 398.7L342.7 383L320.2 369.1L299.1 356.9L279.7 346.7L262.1 338.4L246.3 332L232.5 327.5L220.8 325L211.1 324.3L203.6 325.4L198.2 328.3L195 332.8L193.9 338.8L194.8 346.2L197.8 354.9L202.7 364.6L209.5 375.3L217.9 386.8L228 398.8L239.5 411.3L252.2 423.9L266.1 436.6L280.9 449.2L296.5 461.4L312.6 473L329.1 484L345.7 494.2L362.4 503.3L378.9 511.3L394.9 518L410.5 523.3L425.2 527.1L439.1 529.4L451.9 530.1L463.6 529L473.9 526.3L482.9 521.9L490.3 515.8L496.2 508L500.5 498.7L503.1 487.8L504 475.4L503.3 461.7L501 446.8L497 430.8L491.6 413.9L484.7 396.2L476.4 377.9L466.9 359.1L456.2 340.2L444.6 321.1L432.1 302.3L419 283.7L405.4 265.7L391.5 248.5L377.4 232.1L363.5 216.9L349.7 202.9L336.4 190.3L323.7 179.3L311.7 170L300.8 162.6L290.9 157.1L282.4 153.6L275.3 152.3L269.7 153.1L265.8 156L263.7 161.2L263.5 168.5L265.1 178L268.7 189.6L274.4 203.3L282 218.9L291.6 236.4L303.1 255.6L316.6 276.4L331.9 298.6L349 322.1L367.7 346.7L387.9 372.3L409.5 398.6L432.3 425.4L456.2 452.5L481 479.7L506.5 506.8L532.5 533.7L558.8 560L585.2 585.7L611.6 610.4L637.6 634.1L663.1 656.5L687.9 677.6L711.8 697L734.6 714.9L756.2 730.9L776.3 745L794.8 757.2L811.6 767.4L826.5 775.5L839.5 781.5L850.4 785.5L859.2 787.4L865.8 787.2L870.3 785.2L872.4 781.2L872.4 775.4L870.2 767.9L865.8 758.9L859.3 748.4L850.8 736.7L840.4 723.8L828.3 710L814.5 695.5L799.1 680.3L782.4 664.8L764.6 649L745.7 633.2L726 617.6L705.6 602.3L684.9 587.5L663.8 573.4L642.8 560.2L621.9 547.9L601.3 536.8L581.2 526.9L561.9 518.4L543.4 511.3L525.9 505.7L509.6 501.7L494.6 499.3L480.9 498.5L468.8 499.3L458.3 501.8L449.4 505.8L442.1 511.3L436.7 518.2L432.9 526.5L430.8 536L430.4 546.6L431.6 558.3L434.4 570.7L438.7 583.8L444.4 597.5L451.3 611.4L459.3 625.6L468.4 639.7L478.2 653.6L488.8 667.1L499.9 680L511.3 692.2L522.8 703.5L534.4 713.7L545.8 722.6L556.7 730.2L567.2 736.3L576.9 740.7L585.7 743.4L593.5 744.3L600.1 743.3L605.5 740.4L609.4 735.5L611.8 728.6L612.6 719.8L611.7 709L609.1 696.3L604.8 681.8L598.7 665.6L590.8 647.6L581.2 628.2L569.9 607.3L556.9 585.2L542.5 561.9L526.5 537.8L509.2 512.9L490.7 487.4L471.2 461.5L450.7 435.5L429.4 409.5L407.6 383.7L385.3 358.3L362.9 333.6L340.4 309.7L318.1 286.8L296.2 265.1L274.8 244.7L254.2 225.8L234.6 208.5L216.1 193.1L198.8 179.5L183 167.9L168.8 158.3L156.3 150.8L145.7 145.5L137 142.3L130.4 141.4L125.9 142.5L123.5 145.8L123.3 151.1L125.3 158.3L129.5 167.5L135.8 178.4L144.3 191L154.8 205.1L167.2 220.6L181.5 237.2L197.6 254.9L215.3 273.4L234.4 292.6L254.9 312.3L276.5 332.2L299.1 352.3L322.4 372.3L346.3 391.9L370.7 411.2L395.2 429.8L419.7 447.6L443.9 464.4L467.9 480.2L491.2 494.7L513.7 507.9L535.4 519.7L555.9 530L575.2 538.7L593.1 545.7L609.6 551.1L624.4 554.9L637.6 556.9L649 557.4L658.6 556.2L666.4 553.6L672.3 549.5L676.4 544L678.7 537.3L679.2 529.5L677.9 520.7L675 511L670.6 500.7L664.7 489.8L657.5 478.6L649.1 467.2L639.7 455.9L629.4 444.6L618.3 433.8L606.7 423.4L594.7 413.7L582.5 404.9L570.3 397.1L558.2 390.3L546.5 384.9L535.2 380.8L524.5 378.2L514.7 377.2L505.8 377.8L498 380.1L491.4 384.2L486.1 390L482.2 397.5L479.7 406.7L478.8 417.6L479.4 430.2L481.7 444.3L485.5 459.9L490.9 476.8L497.9 495L506.3 514.2L516.2 534.5L527.5 555.5L540 577.1L553.6 599.2L568.3 621.5L583.8 644L600 666.3L616.8 688.3L633.9 709.8L651.3 730.6L668.7 750.6L686 769.5L702.9 787.2L719.3 803.5L735 818.3L749.8 831.5L763.6 842.8L776.2 852.3L787.5 859.8L797.2 865.3L805.3 868.7L811.7 869.9L816.3 869L819 866L819.7 860.9L818.3 853.6L815 844.3L809.5 833.1L802.1 820.1L792.6 805.3L781.1 788.8L767.8 770.9L752.6 751.7L735.7 731.3L717.2 709.9L697.2 687.6L675.9 664.8L653.4 641.5L630 618L605.6 594.4L580.7 570.9L555.2 547.7L529.5 525.1L503.8 503.2L478.1 482L452.8 461.9L428 443L403.9 425.4L380.7 409.1L358.5 394.4L337.5 381.3L317.9 369.8L299.7 360.1L283.2 352.1L268.4 346L255.4 341.6L244.2 339L235 338.1L227.8 338.9L222.5 341.3L219.2 345.2L217.9 350.5L218.5 357.1L221 364.9L225.2 373.8L231.2 383.5L238.7 393.9L247.7 405L258.1 416.4L269.7 428L282.3 439.7L295.9 451.3L310.1 462.6L324.9 473.5L340 483.7L355.4 493.2L370.8 501.8L386 509.3L400.9 515.7L415.2 520.8L429 524.5L441.9 526.9L453.9 527.7L464.8 527L474.5 524.8L483 520.9L490.1 515.6L495.7 508.6L499.9 500.2L502.6 490.4L503.7 479.2L503.3 466.8L501.4 453.2L498 438.7L493.1 423.2L487 407L479.5 390.2L470.9 373L461.3 355.5L450.7 338L439.3 320.5L427.3 303.4L414.9 286.7L402.1 270.7L389.1 255.5L376.2 241.2L363.5 228.1L351.1 216.3L339.3 206L328.2 197.2L317.9 190L308.7 184.7L300.6 181.2L293.9 179.6L288.5 180L284.7 182.4L282.4 186.9L281.9 193.3L283.2 201.8L286.2 212.1L291.1 224.4L297.8 238.5L306.4 254.4L316.8 271.8L328.9 290.7L342.7 311L358.2 332.5L375.2 355.1L393.6 378.5L413.3 402.6L434.2 427.2L456.1 452.2L478.8 477.3L502.2 502.3L526.1 527.1L550.3 551.5L574.7 575.2L599 598.2L623 620.2L646.6 641L669.6 660.6L691.7 678.8L712.9 695.5L733 710.5L751.7 723.9L769.1 735.4L784.8 745.1L798.8 752.8L811.1 758.7L821.5 762.6L829.9 764.7L836.3 764.9L840.7 763.2L843 759.8L843.3 754.7L841.6 748.1L837.9 740L832.2 730.6L824.7 719.9L815.4 708.2L804.4 695.6L791.9 682.3L778 668.4L762.8 654.1L746.5 639.6L729.2 625.1L711.2 610.6L692.5 596.5L673.4 582.8L654.1 569.7L634.7 557.4L615.4 545.9L596.3 535.5L577.8 526.2L559.8 518.1L542.6 511.4L526.4 506L511.1 502.1L497.1 499.6L484.3 498.6L472.9 499.2L463 501.2L454.5 504.6L447.6 509.5L442.3 515.7L438.6 523.1L436.4 531.7L435.8 541.4L436.7 551.9L439.1 563.3L442.8 575.3L447.8 587.8L454 600.6L461.3 613.6L469.5 626.6L478.4 639.5L488.1 652L498.2 664L508.7 675.4L519.4 685.9L530 695.5L540.5 703.9L550.7 711.1L560.4 716.9L569.5 721.3L577.8 724L585.1 725.1L591.4 724.5L596.5 722.1L600.3 717.8L602.8 711.8L603.7 704L603.2 694.3L601 682.9L597.3 669.8L591.9 655.1L584.9 638.8L576.3 621.1L566.2 602L554.5 581.8L541.3 560.6L526.9 538.4L511.1 515.5L494.2 492.1L476.4 468.3L457.6 444.4L438.1 420.4L418 396.6L397.6 373.1L376.9 350.2L356.2 328.1L335.6 306.8L315.4 286.6L295.6 267.6L276.5 250L258.2 233.8L241 219.3L224.9 206.5L210.1 195.5L196.8 186.4L185 179.2L174.9 174L166.7 170.7L160.2 169.5L155.7 170.2L153.2 172.9L152.7 177.5L154.2 184L157.8 192.1L163.3 201.9L170.8 213.3L180.2 226.1L191.4 240.1L204.3 255.3L218.9 271.5L234.9 288.4L252.4 306L271.1 324.1L290.8 342.5L311.5 360.9L332.9 379.4L354.9 397.6L377.2 415.4L399.8 432.6L422.4 449.1L444.8 464.8L466.9 479.5L488.5 493.1L509.4 505.5L529.5 516.5L548.6 526.2L566.6 534.5L583.3 541.2L598.7 546.4L612.6 550.1L625 552.3L635.8 552.9L644.9 552.1L652.3 549.9L658.1 546.3L662.1 541.4L664.4 535.4L665.1 528.4L664.3 520.4L661.8 511.6L658 502.2L652.8 492.3L646.3 482L638.7 471.5L630.2 461L620.8 450.6L610.7 440.5L600.1 430.9L589.1 421.9L577.9 413.6L566.6 406.2L555.4 399.9L544.5 394.6L534 390.7L524.1 388.1L514.9 386.9L506.6 387.2L499.2 389.1L493 392.6L487.9 397.6L484.1 404.3L481.6 412.6L480.5 422.4L480.9 433.7L482.7 446.5L486 460.6L490.7 476.1L496.9 492.6L504.5 510.2L513.4 528.7L523.6 548L534.9 567.9L547.3 588.2L560.7 608.7L574.9 629.4L589.7 650L605.1 670.3L620.9 690.2L636.9 709.5L652.9 728.1L668.9 745.6L684.5 762.1L699.7 777.4L714.3 791.3L728.1 803.6L741 814.4L752.8 823.4L763.3 830.6L772.6 836L780.3 839.4L786.5 840.9L790.9 840.4L793.7 837.9L794.6 833.4L793.7 827.1L790.9 818.8L786.2 808.8L779.6 797L771.2 783.6L760.9 768.7L748.9 752.4L735.1 734.8L719.8 716.2L703 696.6L684.8 676.2L665.3 655.3L644.8 633.8L623.3 612.2L601 590.4L578 568.8L554.7 547.4L531 526.4L507.3 506.1L483.6 486.5L460.2 467.8L437.3 450.2L414.9 433.7L393.4 418.5L372.8 404.7L353.2 392.4L335 381.6L318 372.4L302.5 364.8L288.6 358.8L276.4 354.5L265.8 351.9L257.1 350.8L250.1 351.3L244.9 353.3L241.6 356.6L240.1 361.3L240.4 367.3L242.4 374.3L246 382.3L251.3 391.2L258 400.7L266.1 410.8L275.5 421.3L286 432L297.5 442.8L309.8 453.5L322.9 463.9L336.4 474L350.3 483.5L364.5 492.4L378.7 500.4L392.7 507.5L406.5 513.6L419.8 518.5L432.6 522.2L444.6 524.5L455.8 525.5L466 525.1L475.2 523.3L483.2 520L489.9 515.2L495.3 509.1L499.4 501.5L502.1 492.7L503.3 482.6L503.2 471.3L501.6 459L498.7 445.7L494.5 431.5L489 416.7L482.3 401.3L474.5 385.5L465.8 369.4L456.2 353.2L445.8 337.1L434.8 321.3L423.4 305.8L411.6 291L399.7 276.8L387.8 263.5L376 251.3L364.6 240.2L353.6 230.5L343.2 222.1L333.7 215.3L325 210.1L317.4 206.6L310.9 204.9L305.8 204.9L302 206.9L299.7 210.6L299 216.3L299.9 223.8L302.4 233.1L306.7 244.1L312.6 256.9L320.2 271.2L329.5 287.1L340.4 304.3L352.9 322.8L367 342.4L382.4 363.1L399.2 384.5L417.2 406.7L436.2 429.3L456.3 452.3L477.1 475.4L498.6 498.5L520.5 521.4L542.8 543.9L565.2 565.9L587.7 587.2L609.9 607.6L631.7 627L653 645.2L673.5 662.2L693.2 677.8L711.9 691.9L729.3 704.5L745.5 715.4L760.3 724.5L773.5 732L785 737.7L794.9 741.6L802.9 743.7L809.1 744.2L813.5 742.9L815.9 740L816.5 735.6L815.2 729.7L812 722.4L807.1 713.9L800.4 704.3L792.1 693.7L782.3 682.2L770.9 670L758.3 657.3L744.5 644.2L729.6 630.8L713.8 617.4L697.3 604.1L680.2 591L662.7 578.3L644.8 566.1L627 554.6L609.1 543.9L591.6 534.2L574.4 525.4L557.7 517.8L541.8 511.4L526.6 506.2L512.4 502.4L499.3 499.9L487.4 498.8L476.6 499.1L467.3 500.7L459.2 503.7L452.7 508L447.5 513.5L443.9 520.1L441.6 527.9L440.9 536.6L441.5 546.3L443.4 556.6L446.7 567.6L451.1 579L456.6 590.8L463.2 602.8L470.6 614.8L478.8 626.7L487.6 638.3L496.9 649.4L506.5 660L516.3 669.9L526.1 678.8L535.8 686.8L545.3 693.6L554.3 699.2L562.7 703.4L570.5 706.1L577.4 707.4L583.4 707.1L588.3 705.1L592 701.5L594.4 696.2L595.6 689.2L595.3 680.6L593.5 670.3L590.3 658.5L585.6 645.2L579.4 630.4L571.7 614.3L562.6 596.9L552 578.4L540.1 559L527 538.7L512.6 517.7L497.2 496.2L480.9 474.3L463.7 452.2L445.9 430.1L427.4 408.2L408.7 386.5L389.6 365.3L370.5 344.8L351.5 325L332.8 306.2L314.5 288.5L296.8 272.1L279.8 257L263.8 243.4L248.7 231.3L234.9 220.9L222.4 212.2L211.3 205.3L201.8 200.2L193.9 196.9L187.7 195.5L183.3 195.9L180.7 198.1L179.9 202L181 207.7L184 215L188.8 223.8L195.4 234L203.8 245.6L213.8 258.4L225.5 272.2L238.7 287L253.3 302.5L269.2 318.6L286.2 335.2L304.3 352.1L323.2 369.1L342.8 386.1L363 402.9L383.5 419.4L404.3 435.4L425.1 450.7L445.9 465.3L466.3 479L486.3 491.7L505.6 503.3L524.3 513.7L542 522.8L558.8 530.6L574.4 537.1L588.8 542.1L601.8 545.7L613.5 547.9L623.6 548.8L632.3 548.2L639.4 546.4L644.9 543.3L648.9 539L651.3 533.6L652.2 527.3L651.6 520L649.6 512L646.2 503.4L641.6 494.3L635.9 484.9L629 475.3L621.3 465.6L612.8 456L603.6 446.6L593.8 437.7L583.7 429.3L573.4 421.5L563 414.6L552.7 408.6L542.6 403.6L532.9 399.8L523.7 397.2L515.1 395.9L507.3 395.9L500.3 397.4L494.4 400.4L489.5 404.8L485.8 410.7L483.3 418.1L482.1 426.9L482.2 437.2L483.7 448.7L486.5 461.6L490.7 475.6L496.2 490.7L503 506.8L511 523.7L520.2 541.4L530.5 559.6L541.8 578.2L553.9 597.2L566.9 616.2L580.5 635.2L594.6 654L609.1 672.4L623.8 690.3L638.6 707.5L653.3 723.9L667.8 739.2L681.9 753.5L695.4 766.5L708.3 778.1L720.3 788.2L731.3 796.8L741.2 803.7L749.9 809L757.3 812.4L763.2 814L767.6 813.9L770.4 811.9L771.5 808.1L770.9 802.5L768.6 795.1L764.5 786.1L758.8 775.5L751.2 763.4L742 749.9L731.2 735.1L718.8 719.1L704.9 702L689.6 684.1L673 665.4L655.3 646.2L636.5 626.5L616.8 606.6L596.4 586.5L575.3 566.5L553.8 546.8L532 527.4L510.2 508.5L488.3 490.4L466.7 473L445.5 456.6L424.8 441.3L404.9 427.1L385.7 414.1L367.6 402.6L350.5 392.4L334.7 383.6L320.2 376.4L307.1 370.7L295.6 366.5L285.6 363.8L277.3 362.6L270.6 362.8L265.6 364.4L262.3 367.3L260.6 371.5L260.6 376.7L262.2 383.1L265.3 390.3L269.9 398.3L275.9 407L283.2 416.3L291.7 425.9L301.2 435.7L311.6 445.7L322.9 455.6L334.8 465.2L347.2 474.6L360 483.5L373 491.7L386.1 499.3L399.1 506L411.8 511.7L424.2 516.4L436 520L447.2 522.3L457.7 523.5L467.3 523.3L475.9 521.8L483.4 519L489.8 514.8L495 509.4L498.9 502.6L501.6 494.6L503 485.5L503 475.3L501.8 464.1L499.3 451.9L495.6 439L490.7 425.4L484.7 411.3L477.7 396.8L469.8 382L461.1 367.1L451.6 352.3L441.6 337.6L431.1 323.3L420.3 309.5L409.3 296.3L398.3 284L387.5 272.5L376.9 262.2L366.7 253L357 245L348.1 238.5L339.9 233.5L332.8 230L326.6 228.2L321.7 228L318 229.5L315.7 232.7L314.8 237.6L315.4 244.2L317.4 252.5L321.1 262.5L326.3 274L333.1 287L341.4 301.3L351.2 317L362.5 333.9L375.3 351.9L389.3 370.7L404.6 390.4L421 410.7L438.4 431.5L456.7 452.6L475.8 473.9L495.5 495.2L515.7 516.4L536.2 537.2L556.8 557.5L577.5 577.3L598 596.2L618.2 614.2L637.9 631.2L656.9 647.1L675.2 661.7L692.6 674.9L708.9 686.7L724 697L737.8 705.7L750.2 712.8L761.1 718.3L770.4 722.2L778.1 724.4L784.1 725.1L788.4 724.2L790.9 721.7L791.7 717.9L790.8 712.6L788.1 706.1L783.8 698.5L777.9 689.7L770.5 680.1L761.7 669.6L751.4 658.5L740 646.8L727.4 634.8L713.9 622.5L699.4 610.2L684.3 597.8L668.6 585.7L652.5 574L636.1 562.7L619.6 552L603.2 542L586.9 532.8L571 524.6L555.6 517.4L540.8 511.3L526.7 506.4L513.5 502.7L501.2 500.2L490 499L480 499L471.1 500.3L463.5 502.9L457.3 506.6L452.3 511.5L448.7 517.5L446.5 524.5L445.5 532.4L445.9 541.2L447.5 550.6L450.3 560.6L454.2 571.1L459.2 582L465.1 593L471.8 604L479.2 615L487.2 625.8L495.7 636.1L504.5 646L513.5 655.1L522.6 663.5L531.6 671L540.3 677.5L548.7 682.8L556.6 686.9L563.9 689.7L570.4 691L576 691L580.7 689.4L584.3 686.3L586.7 681.7L588 675.5L587.9 667.8L586.5 658.6L583.8 647.9L579.7 635.8L574.2 622.4L567.3 607.7L559.1 591.9L549.6 575.1L538.8 557.3L526.9 538.7L513.8 519.4L499.8 499.7L484.8 479.6L469.1 459.2L452.8 438.9L435.9 418.6L418.6 398.5L401.1 378.9L383.5 359.9L366 341.6L348.6 324.1L331.7 307.6L315.3 292.3L299.5 278.2L284.6 265.4L270.6 254L257.7 244.2L245.9 235.9L235.5 229.3L226.5 224.3L219 221L213 219.5L208.7 219.6L206 221.3L205 224.7L205.8 229.7L208.2 236.2L212.4 244.1L218.2 253.3L225.7 263.8L234.7 275.4L245.2 288L257.2 301.5L270.4 315.7L284.9 330.4L300.4 345.7L316.9 361.2L334.2 376.9L352.2 392.6L370.7 408.1L389.6 423.3L408.8 438.1L428 452.4L447.1 466L465.9 478.7L484.4 490.6L502.4 501.4L519.7 511.2L536.2 519.8L551.8 527.2L566.3 533.3L579.8 538.2L592 541.7L602.9 543.9L612.5 544.9L620.7 544.6L627.5 543.1L632.8 540.4L636.7 536.6L639.2 531.8L640.2 526.1L639.9 519.6L638.2 512.3L635.3 504.5L631.3 496.1L626.1 487.5L620 478.6L613 469.7L605.2 460.8L596.8 452.2L587.9 443.9L578.7 436L569.2 428.8L559.6 422.3L550.1 416.6L540.7 411.8L531.7 408.1L523.1 405.5L515.1 404.1L507.8 404L501.3 405.2L495.6 407.7L491 411.5L487.4 416.8L484.9 423.4L483.6 431.3L483.5 440.5L484.7 451L487.1 462.6L490.7 475.4L495.6 489.2L501.7 503.8L508.9 519.3L517.2 535.5L526.5 552.2L536.8 569.3L547.9 586.8L559.7 604.3L572.1 621.8L585.1 639.2L598.4 656.2L611.9 672.8L625.6 688.8L639.1 704L652.5 718.3L665.6 731.6L678.1 743.7L690.1 754.7L701.3 764.2L711.6 772.4L720.9 779L729.1 784.1L736.1 787.5L741.8 789.3L746 789.4L748.8 787.8L750.1 784.6L749.8 779.7L748 773.2L744.5 765.1L739.4 755.6L732.7 744.6L724.5 732.4L714.8 718.9L703.6 704.3L691 688.7L677.1 672.3L662 655.2L645.8 637.6L628.6 619.5L610.6 601.1L591.8 582.7L572.5 564.2L552.8 546L532.7 528.1L512.6 510.6L492.5 493.7L472.5 477.6L452.9 462.4L433.7 448L415.2 434.8L397.4 422.7L380.5 411.8L364.7 402.2L349.9 394L336.3 387.1L324.1 381.6L313.2 377.5L303.8 374.8L295.9 373.4L289.5 373.4L284.6 374.7L281.3 377.2L279.5 380.9L279.3 385.6L280.5 391.3L283.2 397.8L287.2 405.1L292.5 413L299.1 421.5L306.7 430.3L315.3 439.3L324.8 448.5L335.1 457.6L346 466.6L357.4 475.2L369.1 483.5L381.1 491.2L393.1 498.3L405.1 504.6L416.9 510L428.3 514.5L439.3 517.9L449.8 520.3L459.5 521.5L468.5 521.6L476.6 520.4L483.7 518L489.7 514.3L494.7 509.5L498.5 503.5L501.2 496.3L502.6 488.1L502.9 478.8L501.9 468.6L499.8 457.5L496.6 445.7L492.2 433.3L486.9 420.4L480.6 407L473.4 393.4L465.4 379.7L456.8 366L447.7 352.5L438.1 339.2L428.2 326.4L418.1 314.2L407.9 302.7L397.9 292L388.1 282.3L378.6 273.6L369.6 266.1L361.2 259.9L353.6 255L346.9 251.6L341.1 249.6L336.3 249.2L332.7 250.4L330.4 253.1L329.3 257.4L329.7 263.2L331.4 270.6L334.5 279.5L339.1 289.9L345.1 301.7L352.5 314.7L361.4 329L371.6 344.4L383.1 360.8L395.8 378.1L409.7 396.1L424.7 414.7L440.6 433.8L457.4 453.2L474.8 472.8L492.9 492.5L511.5 512L530.3 531.2L549.3 550.1L568.4 568.3L587.3 585.9L606 602.7L624.2 618.5L641.9 633.3L658.8 646.9L675 659.3L690.2 670.4L704.3 680.1L717.2 688.4L728.8 695.2L739.1 700.5L747.9 704.3L755.2 706.6L761 707.4L765.2 706.8L767.8 704.8L768.8 701.4L768.2 696.8L766 691L762.3 684.1L757.1 676.2L750.5 667.4L742.5 657.9L733.3 647.7L722.9 637.1L711.5 626L699.1 614.7L686 603.3L672.1 592L657.7 580.8L642.9 569.9L627.8 559.4L612.7 549.4L597.5 540.1L582.5 531.6L567.8 523.8L553.5 517.1L539.7 511.3L526.6 506.6L514.3 502.9L502.9 500.5L492.4 499.1L482.9 499L474.6 500L467.4 502.2L461.4 505.5L456.7 509.8L453.2 515.2L450.9 521.5L449.9 528.7L450 536.6L451.3 545.2L453.7 554.4L457.2 564L461.6 573.9L466.9 584.1L472.9 594.3L479.7 604.4L487 614.3L494.8 624L502.9 633.1L511.2 641.7L519.5 649.5L527.8 656.6L535.9 662.7L543.7 667.8L551.1 671.7L557.8 674.5L564 675.9L569.3 676.1L573.7 674.9L577.2 672.3L579.7 668.2L581 662.7L581.1 655.9L580 647.6L577.7 638L574.1 627L569.2 614.9L563.1 601.5L555.7 587.1L547.2 571.7L537.4 555.4L526.6 538.4L514.7 520.8L501.9 502.6L488.3 484.1L473.9 465.4L458.9 446.6L443.4 427.9L427.5 409.4L411.4 391.3L395.2 373.6L379 356.6L363 340.4L347.4 325.1L332.1 310.8L317.5 297.6L303.6 285.6L290.6 274.9L278.5 265.6L267.5 257.8L257.7 251.4L249.2 246.6L242 243.3L236.3 241.6L232 241.4L229.3 242.8L228.2 245.7L228.6 250.1L230.6 255.8L234.2 262.9L239.3 271.2L246 280.7L254.1 291.2L263.6 302.7L274.4 315L286.4 328L299.5 341.5L313.7 355.5L328.8 369.8L344.6 384.2L361.1 398.7L378.1 413L395.5 427.1L413.1 440.9L430.8 454.1L448.4 466.7L465.9 478.6L483 489.6L499.6 499.8L515.7 508.9L531 517L545.5 524L559.1 529.9L571.6 534.5L583.1 538L593.3 540.2L602.4 541.3L610.1 541.2L616.6 540L621.7 537.7L625.5 534.4L628 530.1L629.2 524.9L629 519L627.7 512.4L625.2 505.3L621.6 497.7L617 489.8L611.5 481.6L605.2 473.4L598.1 465.2L590.5 457.2L582.4 449.5L573.9 442.2L565.2 435.4L556.3 429.3L547.5 423.9L538.9 419.4L530.5 415.8L522.5 413.2L515.1 411.8L508.2 411.5L502.1 412.4L496.7 414.5L492.3 417.8L488.8 422.4L486.4 428.3L485 435.4L484.7 443.7L485.6 453.2L487.7 463.8L490.8 475.4L495.1 487.9L500.6 501.3L507.1 515.5L514.6 530.3L523 545.6L532.3 561.4L542.4 577.4L553.2 593.5L564.6 609.7L576.5 625.7L588.7 641.5L601.1 656.8L613.7 671.6L626.2 685.8L638.6 699.1L650.7 711.5L662.4 722.9L673.5 733.2L683.9 742.2L693.6 749.9L702.3 756.3L710 761.1L716.6 764.6L722.1 766.4L726.2 766.8L729 765.6L730.4 762.8L730.4 758.6L728.9 752.8L725.9 745.6L721.5 737L715.6 727.1L708.2 716L699.4 703.8L689.3 690.5L677.9 676.3L665.3 661.3L651.6 645.6L636.8 629.4L621.1 612.8L604.6 595.9L587.4 578.9L569.7 561.9L551.6 545L533.1 528.5L514.6 512.3L496 496.7L477.6 481.7L459.4 467.5L441.7 454.2L424.5 441.8L408 430.5L392.3 420.3L377.5 411.2L363.8 403.4L351.1 396.9L339.6 391.6L329.4 387.6L320.5 384.9L313 383.5L306.8 383.3L302.1 384.3L298.8 386.4L297 389.6L296.5 393.8L297.5 398.9L299.7 404.8L303.2 411.4L307.9 418.6L313.8 426.4L320.7 434.4L328.5 442.7L337.1 451.2L346.5 459.6L356.4 467.9L366.9 475.9L377.6 483.6L388.6 490.8L399.7 497.4L410.8 503.3L421.7 508.5L432.3 512.8L442.5 516.1L452.2 518.4L461.3 519.7L469.7 519.9L477.3 519L484 517L489.7 513.8L494.4 509.5L498.1 504.2L500.8 497.7L502.3 490.3L502.7 481.9L502 472.6L500.2 462.5L497.4 451.8L493.5 440.4L488.8 428.5L483.1 416.3L476.6 403.8L469.4 391.2L461.5 378.5L453.1 366L444.4 353.8L435.3 341.9L426 330.5L416.6 319.8L407.4 309.8L398.3 300.7L389.5 292.6L381.1 285.5L373.3 279.6L366.2 274.9L359.8 271.5L354.3 269.5L349.8 268.9L346.3 269.7L344 271.9L342.8 275.7L342.9 280.8L344.3 287.4L346.9 295.4L350.9 304.8L356.3 315.4L362.9 327.3L370.9 340.2L380.1 354.3L390.5 369.2L402.1 385L414.7 401.5L428.3 418.6L442.9 436.2L458.2 454L474.2 472.1L490.8 490.2L507.8 508.2L525.2 526L542.7 543.4L560.2 560.3L577.7 576.7L594.9 592.2L611.8 607L628.2 620.7L643.9 633.5L658.9 645.1L673.1 655.5L686.2 664.6L698.3 672.5L709.2 679L718.9 684.1L727.3 687.8L734.2 690.1L739.8 691.1L743.9 690.8L746.5 689.1L747.7 686.2L747.3 682.1L745.6 676.9L742.4 670.7L737.8 663.6L731.9 655.6L724.7 647L716.4 637.7L707 627.9L696.6 617.8L685.4 607.4L673.3 596.9L660.7 586.4L647.5 576.1L633.9 566L620 556.2L606.1 547L592.1 538.3L578.2 530.3L564.6 523.1L551.3 516.7L538.6 511.2L526.4 506.7L514.9 503.2L504.3 500.7L494.5 499.3L485.6 499L477.7 499.8L471 501.6L465.3 504.5L460.7 508.4L457.3 513.2L455 518.8L453.9 525.3L453.8 532.5L454.9 540.4L456.9 548.7L460 557.5L463.9 566.7L468.6 576L474.1 585.4L480.3 594.7L486.9 603.9L494 612.8L501.4 621.4L509.1 629.3L516.8 636.7L524.4 643.3L531.9 649.1L539.2 653.9L546 657.7L552.3 660.4L558.1 662L563.1 662.3L567.4 661.4L570.7 659.2L573.1 655.7L574.5 650.9L574.8 644.7L574 637.3L572 628.6L568.9 618.7L564.6 607.7L559.1 595.6L552.5 582.4L544.8 568.4L536 553.5L526.1 538L515.4 521.8L503.7 505.1L491.2 488.1L478.1 470.9L464.4 453.6L450.1 436.3L435.6 419.2L420.7 402.4L405.8 386.1L390.9 370.3L376.1 355.3L361.6 341L347.5 327.6L333.9 315.3L321 304.1L308.9 294L297.6 285.3L287.3 277.8L278.1 271.7L270 267.1L263.2 263.8L257.7 262L253.6 261.6L250.9 262.7L249.6 265.1L249.7 268.9L251.4 274L254.4 280.4L258.9 287.9L264.8 296.4L272.1 306L280.6 316.4L290.4 327.7L301.3 339.5L313.3 352L326.2 364.8L340 377.9L354.5 391.2L369.6 404.5L385.2 417.8L401.1 430.8L417.3 443.5L433.6 455.8L449.9 467.5L466 478.5L481.8 488.9L497.2 498.4L512.1 506.9L526.4 514.6L539.8 521.2L552.5 526.7L564.2 531.2L574.9 534.6L584.6 536.8L593.1 538L600.4 538.1L606.6 537.1L611.5 535.1L615.2 532.2L617.7 528.4L618.9 523.8L619 518.5L618 512.5L615.8 506L612.7 499L608.6 491.7L603.6 484.3L597.9 476.7L591.5 469.1L584.5 461.7L577.1 454.5L569.3 447.7L561.3 441.4L553.2 435.7L545.1 430.6L537.1 426.3L529.3 422.9L521.9 420.4L514.9 418.8L508.5 418.4L502.8 419L497.7 420.8L493.5 423.7L490.1 427.8L487.7 433L486.3 439.4L485.9 446.9L486.6 455.4L488.3 465L491 475.5L494.8 487L499.7 499.2L505.5 512.1L512.2 525.7L519.9 539.8L528.4 554.2L537.6 569L547.4 583.8L557.8 598.7L568.7 613.5L579.9 628.1L591.4 642.3L602.9 656.1L614.5 669.2L625.9 681.6L637.1 693.2L647.9 703.8L658.3 713.5L668 722L677 729.3L685.2 735.3L692.5 740L698.7 743.4L703.9 745.4L707.9 745.9L710.7 745L712.2 742.7L712.4 739L711.3 733.9L708.7 727.5L704.9 719.8L699.6 710.8L693 700.8L685.2 689.6L676 677.5L665.7 664.6L654.3 650.9L641.8 636.5L628.3 621.7L614 606.4L598.9 590.9L583.1 575.2L566.9 559.5L550.2 544L533.2 528.6L516.1 513.7L499 499.2L482 485.3L465.2 472.1L448.8 459.7L432.9 448.1L417.6 437.5L403 427.9L389.3 419.4L376.4 412.1L364.6 405.8L353.8 400.8L344.2 396.9L335.8 394.3L328.6 392.7L322.8 392.4L318.2 393.1L315 394.9L313.1 397.7L312.5 401.4L313.1 406L315 411.4L318.1 417.4L322.2 423.9L327.5 431L333.7 438.4L340.7 446L348.6 453.8L357.1 461.5L366.2 469.2L375.7 476.7L385.6 483.8L395.7 490.5L406 496.7L416.2 502.3L426.2 507.1L436.1 511.2L445.6 514.4L454.6 516.7L463.1 518.1L470.9 518.4L478 517.7L484.3 516L489.7 513.3L494.3 509.5L497.8 504.7L500.4 498.9L501.9 492.2L502.5 484.6L502 476.2L500.5 467L498.1 457.2L494.7 446.8L490.4 435.9L485.3 424.7L479.4 413.2L472.9 401.6L465.7 389.9L458.1 378.4L450 367L441.7 356L433.2 345.5L424.5 335.5L416 326.2L407.6 317.6L399.4 310L391.6 303.3L384.4 297.7L377.7 293.1L371.7 289.8L366.5 287.8L362.2 287L358.8 287.5L356.5 289.4L355.2 292.6L355.1 297.2L356.2 303.1L358.5 310.2L362 318.6L366.7 328.3L372.6 339L379.8 350.8L388.1 363.6L397.5 377.2L408 391.7L419.5 406.8L431.9 422.5L445.2 438.6L459.2 455L473.8 471.6L489.1 488.3L504.7 504.9L520.6 521.4L536.8 537.5L552.9 553.2L569.1 568.3L585 582.8L600.6 596.5L615.8 609.3L630.4 621.2L644.3 632.1L657.5 641.9L669.8 650.5L681.1 657.9L691.3 664.1L700.4 669L708.3 672.6L714.9 675L720.3 676.1L724.3 675.9L726.9 674.6L728.2 672.1L728.1 668.5L726.7 663.9L723.9 658.3L719.9 651.9L714.6 644.6L708.2 636.7L700.7 628.3L692.2 619.3L682.8 610L672.5 600.5L661.6 590.8L650 581.2L637.9 571.6L625.4 562.2L612.7 553.2L599.8 544.6L586.9 536.5L574.1 529L561.5 522.3L549.2 516.2L537.4 511L526.1 506.7L515.4 503.4L505.4 501L496.3 499.5L488 499.1L480.6 499.6L474.2 501.2L468.8 503.7L464.4 507.1L461.1 511.4L458.8 516.5L457.6 522.3L457.4 528.9L458.2 536L459.9 543.7L462.6 551.7L466.1 560.1L470.4 568.6L475.3 577.3L480.9 585.9L486.9 594.4L493.4 602.7L500.2 610.6L507.2 618.1L514.3 624.9L521.4 631.1L528.3 636.6L535 641.2L541.4 644.9L547.3 647.5L552.7 649.1L557.5 649.6L561.5 649L564.7 647.1L567.1 644.1L568.5 639.8L569 634.4L568.4 627.7L566.7 619.9L564 611L560.2 600.9L555.4 589.9L549.4 578L542.5 565.1L534.5 551.6L525.6 537.3L515.8 522.5L505.2 507.2L493.8 491.6L481.8 475.7L469.2 459.8L456.2 443.8L442.8 428.1L429.1 412.5L415.4 397.4L401.6 382.8L388 368.8L374.6 355.5L361.5 343.1L348.9 331.5L336.9 321L325.6 311.6L315.1 303.3L305.4 296.3L296.8 290.4L289.2 285.9L282.7 282.7L277.5 280.9L273.4 280.3L270.7 281.1L269.3 283.1L269.3 286.4L270.5 290.9L273.2 296.6L277.1 303.3L282.3 311.1L288.8 319.8L296.5 329.3L305.3 339.5L315.2 350.3L326.1 361.7L337.9 373.5L350.4 385.5L363.7 397.8L377.5 410.1L391.9 422.3L406.5 434.3L421.4 446.1L436.4 457.5L451.4 468.4L466.3 478.6L480.9 488.3L495.2 497.1L509 505.2L522.2 512.4L534.8 518.6L546.6 523.9L557.5 528.2L567.6 531.4L576.6 533.7L584.6 534.9L591.6 535.1L597.4 534.4L602.1 532.7L605.7 530.2L608.2 526.8L609.5 522.7L609.7 517.8L608.9 512.4L607.1 506.5L604.4 500.1L600.7 493.5L596.3 486.6L591.1 479.6L585.3 472.6L579 465.8L572.2 459.1L565.1 452.8L557.7 446.9L550.2 441.5L542.7 436.7L535.3 432.7L528.1 429.4L521.3 426.9L514.8 425.4L508.8 424.8L503.3 425.2L498.6 426.7L494.6 429.2L491.4 432.8L489 437.4L487.5 443.1L487 449.9L487.5 457.6L488.9 466.3L491.3 475.9L494.6 486.3L498.9 497.4L504.1 509.3L510.2 521.7L517.2 534.6L524.9 547.8L533.2 561.4L542.2 575.1L551.7 588.8L561.7 602.5L572 615.9L582.5 629.1L593.2 641.8L603.8 654L614.4 665.6L624.7 676.4L634.8 686.3L644.4 695.4L653.4 703.4L661.8 710.3L669.5 716L676.4 720.6L682.3 723.9L687.2 725.9L691.1 726.6L693.9 726L695.4 724.1L695.8 720.9L694.9 716.4L692.8 710.7L689.4 703.7L684.8 695.7L678.9 686.6L671.9 676.5L663.6 665.4L654.3 653.6L643.9 641.1L632.5 628L620.3 614.3L607.2 600.3L593.4 586L579 571.6L564 557.2L548.7 542.8L533.1 528.6L517.4 514.8L501.6 501.3L485.9 488.4L470.4 476.2L455.2 464.6L440.5 453.8L426.3 443.9L412.7 434.9L399.9 426.9L387.9 420L376.9 414.1L366.8 409.2L357.7 405.5L349.8 402.9L343.1 401.3L337.5 400.8L333.1 401.3L329.9 402.8L328 405.3L327.2 408.6L327.6 412.7L329.2 417.5L331.8 422.9L335.5 428.9L340.2 435.3L345.7 442.1L352.1 449.1L359.3 456.2L367 463.4L375.3 470.5L384.1 477.4L393.1 484L402.4 490.3L411.8 496.1L421.3 501.3L430.6 505.9L439.7 509.8L448.5 512.9L456.9 515.1L464.7 516.5L472.1 517L478.7 516.5L484.6 515.1L489.8 512.7L494.1 509.4L497.5 505.1L500 499.9L501.6 493.8L502.3 487L502 479.3L500.8 471L498.6 462L495.6 452.5L491.8 442.6L487.2 432.3L481.9 421.7L476 411L469.5 400.3L462.5 389.6L455.2 379.1L447.5 368.9L439.7 359.1L431.7 349.8L423.8 341.1L416 333.1L408.5 325.9L401.3 319.6L394.5 314.3L388.2 310L382.6 306.7L377.7 304.6L373.6 303.7L370.3 304L368 305.6L366.7 308.3L366.4 312.3L367.2 317.6L369.2 324L372.2 331.6L376.4 340.2L381.7 350L388.1 360.7L395.5 372.4L404.1 384.8L413.6 398L424 411.9L435.4 426.2L447.5 441L460.3 456.1L473.7 471.4L487.7 486.8L502 502.1L516.7 517.3L531.5 532.2L546.4 546.7L561.3 560.8L576 574.2L590.4 586.9L604.5 598.9L618.1 610L631 620.2L643.3 629.4L654.7 637.5L665.3 644.5L674.9 650.4L683.4 655.1L690.9 658.6L697.2 661L702.3 662.2L706.2 662.2L708.8 661.2L710.2 659L710.3 655.9L709.2 651.8L706.8 646.8L703.3 641L698.7 634.4L692.9 627.2L686.2 619.5L678.5 611.3L669.9 602.8L660.6 594L650.5 585.1L639.9 576.2L628.9 567.4L617.4 558.7L605.7 550.3L593.9 542.3L582 534.8L570.1 527.8L558.5 521.5L547.1 515.8L536.2 510.9L525.7 506.8L515.7 503.5L506.4 501.2L497.9 499.7L490.1 499.2L483.1 499.5L477.1 500.8L471.9 503L467.8 506L464.5 509.8L462.3 514.4L461 519.7L460.7 525.6L461.3 532.1L462.8 539.1L465.1 546.5L468.2 554.1L472 562L476.5 570L481.5 577.9L487.1 585.8L493 593.5L499.2 600.8L505.6 607.7L512.1 614.2L518.7 620L525.1 625.1L531.3 629.5L537.3 633L542.8 635.6L547.8 637.3L552.3 637.9L556.1 637.5L559.2 635.9L561.5 633.3L563 629.6L563.6 624.7L563.2 618.7L561.8 611.7L559.5 603.6L556.1 594.6L551.8 584.5L546.5 573.7L540.2 562L533 549.6L525 536.5L516 522.9L506.4 508.9L496 494.5L485 480L473.5 465.3L461.5 450.6L449.2 436L436.7 421.7L424 407.6L411.4 394.1L398.8 381.1L386.4 368.7L374.3 357.1L362.6 346.4L351.4 336.5L340.9 327.7L331 319.9L322 313.2L313.9 307.7L306.8 303.3L300.6 300.2L295.6 298.2L291.7 297.5L289 298L287.5 299.8L287.3 302.6L288.3 306.6L290.5 311.7L293.9 317.7L298.6 324.7L304.4 332.6L311.3 341.2L319.2 350.5L328.2 360.5L338.1 370.9L348.8 381.7L360.3 392.7L372.4 404L385.1 415.3L398.2 426.6L411.7 437.7L425.4 448.6L439.2 459.2L453.1 469.3L466.8 478.9L480.3 487.8L493.5 496.1L506.3 503.7L518.6 510.4L530.3 516.3L541.2 521.3L551.5 525.4L560.8 528.6L569.3 530.8L576.9 532.1L583.4 532.4L589 531.9L593.5 530.5L597 528.2L599.4 525.2L600.8 521.5L601.2 517.2L600.6 512.3L599 506.9L596.6 501.1L593.4 495L589.4 488.7L584.8 482.2L579.5 475.8L573.7 469.5L567.5 463.3L561 457.4L554.3 451.9L547.4 446.9L540.5 442.4L533.6 438.5L527 435.3L520.6 432.9L514.5 431.4L508.9 430.7L503.8 431L499.4 432.1L495.5 434.3L492.5 437.5L490.1 441.6L488.7 446.7L488 452.7L488.3 459.7L489.5 467.6L491.5 476.3L494.5 485.8L498.3 495.9L503 506.8L508.5 518.1L514.8 529.9L521.7 542.1L529.4 554.6L537.6 567.2L546.3 579.8L555.4 592.4L564.8 604.9L574.5 617.1L584.3 628.9L594.1 640.2L603.9 650.9L613.5 661L622.8 670.3L631.7 678.8L640.1 686.3L648 692.8L655.2 698.3L661.6 702.7L667.2 705.9L671.9 708L675.6 708.8L678.3 708.5L679.9 706.9L680.5 704.1L679.9 700.1L678.1 695L675.2 688.8L671.1 681.6L665.8 673.3L659.5 664.2L652.1 654.1L643.6 643.4L634.2 631.9L623.9 619.9L612.7 607.4L600.7 594.5L588.1 581.4L574.9 568.1L561.2 554.8L547.2 541.5L532.8 528.4L518.3 515.6L503.8 503.2L489.3 491.2L475 479.8L461 469L447.3 459L434.1 449.7L421.5 441.3L409.6 433.8L398.4 427.2L388.1 421.6L378.6 417L370.2 413.4L362.7 410.8L356.3 409.2L351 408.6L346.7 408.9L343.6 410.2L341.7 412.3L340.8 415.2L341 418.9L342.3 423.2L344.6 428.1L347.8 433.6L352 439.4L357 445.6L362.7 452.1L369.2 458.6L376.3 465.2L383.9 471.8L391.9 478.2L400.2 484.3L408.7 490.2L417.4 495.6L426.1 500.5L434.7 504.8L443.1 508.5L451.2 511.4L459 513.7L466.4 515.1L473.2 515.6L479.5 515.3L485 514.2L489.9 512.1L494 509.2L497.3 505.4L499.7 500.7L501.3 495.3L502.1 489L501.9 482.1L500.9 474.5L499.1 466.3L496.5 457.7L493.1 448.6L489 439.1L484.2 429.4L478.8 419.6L472.9 409.7L466.5 399.8L459.8 390.1L452.8 380.7L445.5 371.6L438.2 362.9L430.9 354.8L423.7 347.3L416.7 340.6L410 334.6L403.7 329.6L397.9 325.4L392.6 322.3L387.9 320.2L384 319.2L380.9 319.3L378.6 320.5L377.3 322.9L376.9 326.4L377.5 331L379.1 336.8L381.7 343.6L385.4 351.4L390.1 360.3L395.8 370L402.6 380.6L410.3 392L418.9 404L428.4 416.7L438.7 429.9L449.8 443.4L461.5 457.3L473.8 471.4L486.5 485.6L499.7 499.7L513.2 513.7L526.8 527.5L540.6 541L554.3 554L567.9 566.4L581.2 578.3L594.3 589.5L606.8 599.8L618.9 609.3L630.3 617.9L640.9 625.6L650.8 632.2L659.8 637.8L667.8 642.3L674.9 645.7L680.9 648.1L685.7 649.3L689.5 649.6L692.1 648.7L693.6 646.9L693.9 644.2L693 640.5L691 636L688 630.8L683.8 624.9L678.7 618.3L672.6 611.3L665.6 603.8L657.9 596L649.4 587.9L640.2 579.8L630.6 571.5L620.4 563.4L609.9 555.4L599.2 547.6L588.2 540.2L577.3 533.2L566.4 526.6L555.6 520.7L545.1 515.3L534.9 510.7L525.2 506.8L515.9 503.7L507.2 501.4L499.2 499.9L491.9 499.2L485.4 499.5L479.7 500.5L474.8 502.4L470.8 505L467.7 508.4L465.5 512.5L464.2 517.3L463.8 522.7L464.2 528.6L465.4 535L467.4 541.7L470.2 548.7L473.6 556L477.6 563.3L482.2 570.7L487.2 577.9L492.6 585L498.3 591.8L504.2 598.3L510.2 604.3L516.3 609.8L522.2 614.6L528 618.8L533.5 622.1L538.7 624.7L543.4 626.3L547.6 627.1L551.2 626.8L554.2 625.6L556.4 623.3L557.9 620L558.5 615.7L558.3 610.4L557.2 604L555.2 596.8L552.3 588.5L548.4 579.4L543.7 569.5L538.1 558.9L531.6 547.5L524.2 535.6L516.1 523.1L507.3 510.3L497.9 497.1L487.8 483.7L477.3 470.1L466.3 456.6L455 443.1L443.5 429.9L431.9 416.9L420.2 404.4L408.5 392.3L397.1 380.8L385.9 370L375 360L364.7 350.7L354.9 342.4L345.7 335.1L337.3 328.8L329.6 323.5L322.9 319.3L317.1 316.2L312.3 314.3L308.6 313.4L305.9 313.7L304.3 315.1L303.9 317.6L304.7 321.1L306.5 325.6L309.5 331.1L313.6 337.4L318.8 344.5L325 352.4L332.2 360.9L340.3 369.9L349.3 379.4L359 389.3L369.5 399.5L380.6 409.9L392.2 420.3L404.2 430.7L416.6 441L429.2 451.1L442 460.8L454.7 470.2L467.4 479.1L479.9 487.5L492.1 495.2L504 502.3L515.4 508.7L526.2 514.2L536.4 519L546 522.9L554.7 525.9L562.7 528.1L569.8 529.4L576 529.9L581.2 529.5L585.6 528.3L588.9 526.4L591.3 523.7L592.7 520.4L593.2 516.5L592.8 512.1L591.6 507.1L589.5 501.9L586.6 496.3L583 490.5L578.8 484.6L574.1 478.7L568.8 472.8L563.2 467.1L557.2 461.6L551 456.5L544.7 451.7L538.3 447.5L532 443.8L525.8 440.8L519.9 438.5L514.2 436.9L509 436.2L504.2 436.3L500 437.2L496.4 439.1L493.5 441.8L491.2 445.5L489.7 450.1L489 455.5L489.1 461.8L490.1 468.9L491.8 476.8L494.4 485.4L497.8 494.7L502 504.6L507 515L512.6 525.8L519 537L525.9 548.4L533.4 560L541.3 571.7L549.7 583.3L558.3 594.8L567.2 606.1L576.2 617.1L585.3 627.6L594.3 637.6L603.2 647L611.8 655.6L620.1 663.6L627.9 670.7L635.2 676.8L642 682L648 686.2L653.3 689.4L657.8 691.4L661.4 692.4L664 692.2L665.7 691L666.3 688.6L665.9 685.1L664.4 680.6L661.9 675L658.3 668.5L653.7 661L648 652.7L641.3 643.6L633.7 633.7L625.1 623.3L615.7 612.3L605.5 600.8L594.6 589L583.1 577L571 564.7L558.5 552.5L545.6 540.2L532.4 528.1L519 516.3L505.6 504.7L492.3 493.6L479 483L466.1 473L453.4 463.6L441.2 455L429.5 447.1L418.4 440L408 433.8L398.3 428.5L389.5 424.1L381.5 420.7L374.5 418.1L368.4 416.5L363.4 415.8L359.3 416L356.3 417L354.3 418.8L353.3 421.4L353.4 424.7L354.4 428.6L356.4 433L359.2 438L362.9 443.3L367.4 449L372.6 454.9L378.5 460.9L384.9 467L391.8 473L399.1 479L406.8 484.7L414.6 490.1L422.6 495.2L430.6 499.7L438.5 503.8L446.3 507.3L453.9 510.2L461.1 512.3L468 513.7L474.4 514.4L480.2 514.2L485.4 513.3L490 511.5L493.9 508.9L497.1 505.6L499.4 501.4L501 496.5L501.8 490.9L501.8 484.6L501.1 477.7L499.5 470.2L497.2 462.3L494.2 453.9L490.5 445.3L486.2 436.4L481.3 427.3L475.9 418.2L470.1 409.1L463.9 400.1L457.5 391.4L450.9 382.9L444.2 374.9L437.4 367.3L430.8 360.4L424.3 354L418.1 348.4L412.2 343.6L406.7 339.7L401.7 336.6L397.4 334.5L393.7 333.4L390.7 333.4L388.4 334.3L387 336.4L386.5 339.4L386.9 343.5L388.3 348.7L390.5 354.8L393.8 361.9L398 369.9L403.1 378.7L409.2 388.4L416.1 398.7L423.9 409.8L432.6 421.3L442 433.4L452 445.9L462.7 458.6L474 471.6L485.7 484.6L497.8 497.7L510.2 510.6L522.7 523.3L535.4 535.8L548 547.9L560.6 559.4L572.9 570.5L585 580.8L596.6 590.5L607.8 599.4L618.4 607.5L628.4 614.7L637.6 620.9L646 626.2L653.6 630.5L660.2 633.9L665.9 636.2L670.5 637.5L674.2 637.9L676.7 637.3L678.2 635.7L678.7 633.3L678.1 630.1L676.4 626.1L673.7 621.4L670.1 616L665.5 610L660 603.6L653.7 596.8L646.7 589.6L639 582.2L630.6 574.7L621.8 567.1L612.5 559.6L602.8 552.2L593 545L582.9 538.1L572.8 531.6L562.8 525.5L552.8 519.9L543.1 514.9L533.6 510.5L524.6 506.8L516 503.8L507.9 501.6L500.4 500.1L493.6 499.4L487.5 499.4L482.1 500.3L477.5 501.8L473.7 504.2L470.7 507.2L468.5 510.9L467.2 515.2L466.6 520.1L466.9 525.5L467.9 531.3L469.6 537.4L472.1 543.9L475.1 550.5L478.8 557.3L482.9 564L487.5 570.8L492.4 577.3L497.6 583.7L503 589.7L508.5 595.3L514.1 600.4L519.6 605L524.9 608.9L530.1 612.1L534.9 614.6L539.3 616.2L543.3 617L546.7 617L549.5 616L551.7 614L553.2 611.2L553.9 607.3L553.8 602.6L553 596.9L551.2 590.3L548.7 582.9L545.3 574.6L541 565.6L535.9 555.9L530.1 545.5L523.5 534.6L516.1 523.2L508.1 511.4L499.5 499.3L490.3 486.9L480.7 474.5L470.6 462L460.2 449.6L449.7 437.3L438.9 425.3L428.1 413.7L417.4 402.5L406.8 391.8L396.4 381.7L386.4 372.4L376.8 363.7L367.6 356L359.1 349L351.2 343.1L344.1 338L337.7 334L332.2 331L327.7 329.1L324.1 328.1L321.4 328.2L319.8 329.4L319.3 331.5L319.8 334.6L321.3 338.6L323.9 343.5L327.6 349.2L332.2 355.6L337.7 362.7L344.2 370.5L351.6 378.8L359.7 387.5L368.6 396.5L378.2 405.9L388.3 415.4L398.9 425L410 434.6L421.3 444.1L432.9 453.4L444.6 462.5L456.4 471.2L468.1 479.5L479.6 487.3L491 494.5L501.9 501.1L512.5 507.1L522.6 512.3L532.1 516.8L541 520.5L549.2 523.5L556.7 525.6L563.3 527L569.2 527.5L574.2 527.3L578.3 526.3L581.5 524.7L583.8 522.3L585.3 519.3L585.9 515.8L585.7 511.8L584.6 507.3L582.8 502.5L580.3 497.4L577.1 492.1L573.3 486.7L569 481.2L564.2 475.8L559.1 470.5L553.6 465.4L547.9 460.6L542.1 456.2L536.2 452.2L530.4 448.7L524.7 445.9L519.2 443.6L513.9 442.1L509 441.3L504.6 441.2L500.6 442L497.2 443.5L494.4 445.9L492.2 449.2L490.7 453.3L489.9 458.1L489.9 463.8L490.7 470.3L492.2 477.4L494.4 485.3L497.5 493.7L501.2 502.8L505.7 512.3L510.8 522.2L516.5 532.4L522.8 542.9L529.6 553.6L536.9 564.4L544.5 575.1L552.5 585.7L560.6 596.2L568.9 606.3L577.3 616L585.6 625.3L593.8 634.1L601.8 642.2L609.5 649.6L616.8 656.3L623.6 662.1L629.9 667.1L635.6 671.1L640.6 674.1L644.8 676.2L648.2 677.2L650.8 677.2L652.5 676.2L653.2 674.2L653 671.2L651.8 667.1L649.7 662.2L646.5 656.3L642.4 649.5L637.3 642L631.3 633.7L624.4 624.7L616.6 615.2L608.1 605.1L598.8 594.6L588.8 583.8L578.3 572.7L567.2 561.5L555.7 550.1L543.9 538.8L531.8 527.7L519.5 516.7L507.2 506L494.8 495.7L482.6 485.9L470.6 476.5L458.9 467.8L447.6 459.7L436.7 452.3L426.4 445.7L416.7 439.9L407.7 434.8L399.4 430.7L391.9 427.3L385.3 424.9L379.6 423.2L374.8 422.5L370.9 422.5L367.9 423.3L366 424.9L364.9 427.1L364.8 430L365.6 433.6L367.3 437.6L369.8 442.1L373.1 446.9L377.1 452.1L381.8 457.5L387.1 463.1L393 468.7L399.3 474.3L406 479.8L412.9 485.1L420.1 490.1L427.5 494.8L434.9 499.1L442.2 503L449.4 506.3L456.4 509L463.1 511.1L469.5 512.5L475.5 513.2L480.9 513.2L485.8 512.4L490.2 510.9L493.9 508.7L496.9 505.7L499.2 501.9L500.8 497.5L501.6 492.4L501.7 486.7L501.1 480.5L499.8 473.7L497.8 466.4L495.1 458.8L491.8 450.9L487.9 442.7L483.5 434.4L478.6 426L473.3 417.6L467.7 409.3L461.8 401.2L455.7 393.3L449.5 385.9L443.3 378.8L437.2 372.3L431.2 366.4L425.4 361.1L419.9 356.5L414.8 352.8L410.1 349.8L406 347.8L402.5 346.6L399.6 346.4L397.5 347.1L396.1 348.8L395.5 351.5L395.7 355.1L396.8 359.7L398.7 365.2L401.6 371.6L405.3 378.8L409.9 386.9L415.3 395.7L421.6 405.1L428.7 415.2L436.6 425.8L445.1 436.8L454.3 448.3L464.1 460L474.3 471.9L485.1 483.9L496.2 495.9L507.5 507.9L519.1 519.7L530.7 531.2L542.4 542.4L554 553.1L565.4 563.4L576.6 573L587.4 582L597.8 590.4L607.6 597.9L616.9 604.7L625.5 610.6L633.4 615.6L640.5 619.7L646.7 622.9L652.1 625.2L656.5 626.6L660 627.1L662.6 626.6L664.1 625.4L664.7 623.3L664.3 620.4L662.9 616.8L660.6 612.6L657.3 607.7L653.2 602.3L648.3 596.5L642.6 590.2L636.3 583.7L629.2 576.9L621.6 570L613.5 563L605 556L596.2 549.2L587.1 542.5L577.9 536.1L568.6 530L559.3 524.3L550.1 519.1L541.1 514.4L532.4 510.3L524 506.8L516 503.9L508.4 501.7L501.5 500.2L495.1 499.5L489.3 499.4L484.2 500.1L479.9 501.4L476.2 503.5L473.4 506.2L471.2 509.5L469.9 513.4L469.3 517.8L469.4 522.7L470.2 527.9L471.7 533.6L473.9 539.5L476.6 545.6L479.9 551.8L483.6 558L487.8 564.2L492.3 570.3L497 576.2L502 581.8L507.1 587L512.2 591.8L517.3 596.1L522.2 599.8L527 602.9L531.5 605.3L535.6 606.9L539.3 607.8L542.6 607.9L545.3 607.1L547.4 605.4L548.8 602.9L549.6 599.5L549.7 595.3L549 590.2L547.5 584.2L545.3 577.5L542.3 570L538.5 561.8L533.9 552.9L528.6 543.5L522.6 533.5L516 523.1L508.7 512.2L500.8 501.1L492.4 489.8L483.6 478.3L474.4 466.8L464.9 455.3L455.2 444L445.3 432.9L435.4 422.1L425.5 411.7L415.7 401.8L406.1 392.4L396.8 383.7L387.8 375.6L379.3 368.3L371.4 361.8L364 356.2L357.3 351.4L351.3 347.6L346.1 344.6L341.8 342.7L338.3 341.7L335.8 341.6L334.1 342.5L333.5 344.3L333.8 347L335.1 350.6L337.3 355L340.5 360.1L344.6 365.9L349.6 372.4L355.4 379.5L362.1 387L369.5 395L377.6 403.3L386.3 411.9L395.5 420.6L405.3 429.5L415.4 438.3L425.8 447.1L436.5 455.7L447.3 464.1L458.1 472.2L468.9 479.9L479.6 487.2L490 493.9L500.2 500.1L510 505.7L519.4 510.6L528.2 514.9L536.5 518.4L544.2 521.3L551.2 523.3L557.4 524.7L562.9 525.3L567.7 525.2L571.6 524.5L574.7 523L577 520.9L578.5 518.3L579.1 515.1L579 511.5L578.2 507.4L576.6 503L574.4 498.4L571.6 493.5L568.2 488.5L564.3 483.5L559.9 478.5L555.2 473.6L550.2 468.8L545 464.4L539.7 460.2L534.3 456.5L528.9 453.2L523.6 450.5L518.5 448.3L513.6 446.8L509 445.9L504.8 445.8L501.1 446.3L497.9 447.7L495.2 449.8L493.1 452.6L491.6 456.3L490.8 460.7L490.7 465.8L491.2 471.6L492.5 478.1L494.5 485.2L497.2 493L500.5 501.2L504.5 509.9L509.1 519L514.3 528.4L520.1 538L526.3 547.8L532.9 557.7L539.9 567.6L547.2 577.5L554.7 587.1L562.3 596.5L570 605.5L577.7 614.2L585.2 622.3L592.6 629.9L599.8 636.8L606.6 643.1L612.9 648.6L618.8 653.3L624.1 657.1L628.8 660.1L632.9 662.1L636.2 663.2L638.7 663.4L640.3 662.6L641.2 660.9L641.1 658.2L640.2 654.7L638.3 650.2L635.5 644.9L631.9 638.8L627.3 632L621.9 624.5L615.7 616.3L608.7 607.6L600.9 598.4L592.5 588.8L583.4 578.8L573.7 568.6L563.6 558.3L553.1 547.9L542.2 537.5L531.1 527.1L519.8 517L508.4 507.1L497 497.5L485.8 488.4L474.7 479.7L463.8 471.6L453.3 464L443.2 457.1L433.6 450.9L424.6 445.4L416.2 440.6" opacity="0.1"/></g></svg>