<svg xmlns="http://www.w3.org/2000/svg" viewBox="0 0 1000 1000" preserveAspectRatio="xMidYMid slice" fill="none" stroke-linecap="round" stroke-linejoin="round"><g stroke="#0f3d2e" stroke-width="0.6"><path d="M726.7 545.7L751.5 572.7L775.3 599.4L797.8 625.4L818.8 650.8L838 675.4L855.4 699.1L870.6 721.7L883.5 743.3L894 763.6L902 782.6L907.2 800.2L909.7 816.4L909.3 831L906 844.1L899.9 855.6L890.8 865.4L878.9 873.5L864.1 879.9L846.6 884.6L826.5 887.6L803.9 888.9L779 888.5L751.8 886.5L722.7 882.9L691.8 877.8L659.4 871.2L625.6 863.1L590.7 853.7L555.1 843L518.9 831.1L482.5 818.2L446.1 804.2L409.9 789.4L374.4 773.8L339.7 757.5L306 740.6L273.8 723.3L243.1 705.7L214.3 687.8L187.5 669.9L162.9 652L140.8 634.2L121.2 616.6L104.3 599.4L90.3 582.6L79.2 566.3L71 550.7L65.8 535.9L63.7 521.8L64.5 508.6L68.3 496.3L75 485.1L84.6 474.9L96.8 465.8L111.6 457.8L128.8 451L148.3 445.4L169.8 440.9L193.2 437.6L218.2 435.5L244.7 434.5L272.3 434.7L300.8 435.9L330.1 438.2L359.7 441.5L389.5 445.7L419.3 450.8L448.8 456.7L477.7 463.3L505.8 470.6L533 478.4L559 486.6L583.6 495.2L606.6 504.1L628 513.2L647.5 522.3L665.1 531.4L680.7 540.3L694.2 549L705.5 557.4L714.6 565.3L721.5 572.7L726.3 579.5L729 585.6L729.6 590.9L728.2 595.4L724.9 598.9L719.9 601.4L713.2 602.9L705.1 603.2L695.6 602.5L684.9 600.5L673.3 597.4L660.9 593L647.8 587.4L634.4 580.6L620.7 572.6L606.9 563.4L593.4 553L580.1 541.5L567.4 529L555.3 515.4L544 500.8L533.7 485.3L524.5 469L516.4 452L509.7 434.3L504.2 416.1L500.2 397.4L497.6 378.4L496.5 359.1L496.8 339.6L498.5 320.2L501.6 300.8L506 281.7L511.7 262.9L518.5 244.6L526.3 226.8L535 209.6L544.5 193.3L554.6 177.8L565.2 163.4L576 150L586.9 137.9L597.8 127L608.3 117.4L618.5 109.3L628 102.7L636.7 97.6L644.5 94.2L651.1 92.4L656.5 92.2L660.4 93.8L662.8 97.1L663.6 102.1L662.6 108.8L659.8 117.2L655.1 127.2L648.5 138.9L640 152.2L629.5 167.1L617.2 183.4L603 201.1L587.1 220.2L569.4 240.5L550.2 262L529.5 284.5L507.5 307.9L484.4 332.2L460.3 357.2L435.4 382.9L409.9 409L384.1 435.4L358.1 462.1L332.2 488.9L306.6 515.7L281.6 542.3L257.4 568.6L234.2 594.6L212.2 619.9L191.7 644.7L172.8 668.6L155.8 691.7L140.8 713.8L128.1 734.9L117.7 754.7L109.8 773.3L104.5 790.5L101.9 806.4L102 820.7L104.9 833.6L110.7 844.8L119.3 854.5L130.7 862.5L144.8 868.8L161.6 873.6L180.9 876.6L202.7 878L226.8 877.8L253 876L281.2 872.6L311.1 867.7L342.5 861.4L375.3 853.6L409.1 844.6L443.6 834.3L478.8 822.9L514.2 810.4L549.6 796.9L584.8 782.5L619.4 767.4L653.2 751.6L686 735.2L717.5 718.5L747.4 701.3L775.6 684L801.8 666.6L825.9 649.1L847.6 631.8L866.8 614.7L883.4 597.9L897.3 581.6L908.4 565.7L916.5 550.5L921.8 536L924.1 522.2L923.5 509.3L920 497.4L913.7 486.3L904.7 476.3L893 467.4L878.8 459.6L862.2 452.9L843.5 447.3L822.7 442.9L800.1 439.6L775.9 437.4L750.3 436.4L723.5 436.5L695.9 437.6L667.5 439.7L638.7 442.9L609.7 446.9L580.7 451.8L552.1 457.4L523.9 463.8L496.5 470.8L470 478.3L444.6 486.3L420.6 494.7L398.1 503.3L377.2 512.1L358 521L340.8 529.8L325.5 538.5L312.2 547L301.1 555.2L292 562.9L285.1 570.2L280.3 576.8L277.5 582.8L276.8 588L278 592.4L281 595.9L285.8 598.4L292.1 599.9L300 600.4L309.1 599.7L319.4 597.9L330.6 594.9L342.6 590.8L355.3 585.5L368.3 578.9L381.6 571.3L395 562.4L408.2 552.4L421.1 541.3L433.5 529.2L445.3 516L456.4 501.9L466.5 487L475.5 471.2L483.4 454.7L490.1 437.5L495.5 419.9L499.5 401.7L502.2 383.2L503.4 364.5L503.2 345.6L501.7 326.7L498.7 307.9L494.5 289.3L489.1 271L482.6 253.1L475.1 235.7L466.6 219L457.5 203.1L447.7 188L437.5 173.9L427 160.8L416.4 148.9L405.8 138.2L395.5 128.8L385.6 120.8L376.3 114.2L367.7 109.2L360.1 105.7L353.6 103.8L348.3 103.5L344.3 104.9L341.9 108L341 112.7L341.8 119.1L344.4 127.1L348.8 136.8L355.1 148L363.2 160.8L373.2 175.2L385 190.9L398.7 208L414.1 226.5L431.1 246.1L449.7 266.9L469.7 288.7L491 311.4L513.4 335L536.7 359.3L560.9 384.1L585.6 409.5L610.7 435.2L635.9 461.1L661.1 487.2L686 513.2L710.4 539.1L734 564.7L756.7 589.9L778.1 614.7L798.2 638.8L816.7 662.1L833.4 684.6L848.1 706.2L860.6 726.7L870.9 746.1L878.8 764.3L884.2 781.2L886.9 796.7L887 810.7L884.4 823.3L879 834.4L870.9 843.9L860 851.8L846.5 858.1L830.4 862.8L811.8 865.9L790.8 867.4L767.5 867.3L742.2 865.7L715 862.5L686 857.9L655.6 851.8L623.8 844.4L591.1 835.7L557.5 825.8L523.4 814.8L488.9 802.7L454.5 789.7L420.3 775.8L386.6 761.1L353.6 745.8L321.7 730L291 713.7L261.7 697.1L234.2 680.2L208.5 663.3L185 646.3L163.7 629.5L144.8 612.8L128.5 596.5L114.8 580.5L103.8 565.1L95.6 550.3L90.3 536.1L87.8 522.7L88.1 510.1L91.3 498.3L97.2 487.5L105.8 477.7L117 469L130.6 461.3L146.5 454.7L164.6 449.1L184.6 444.7L206.5 441.5L229.9 439.3L254.7 438.2L280.6 438.2L307.4 439.2L335 441.2L362.9 444.2L391.1 448L419.3 452.7L447.2 458.2L474.6 464.3L501.3 471.1L527.2 478.3L551.9 486.1L575.4 494.2L597.4 502.5L617.9 511.1L636.6 519.7L653.5 528.3L668.6 536.8L681.6 545L692.6 553L701.6 560.6L708.5 567.7L713.3 574.2L716.1 580.1L717 585.2L716 589.5L713.2 593L708.7 595.5L702.6 597.1L695.1 597.6L686.3 597L676.4 595.4L665.6 592.6L653.9 588.6L641.7 583.5L629 577.3L616.1 569.9L603.1 561.4L590.3 551.8L577.7 541.1L565.6 529.3L554 516.6L543.2 503L533.4 488.5L524.5 473.2L516.7 457.3L510.1 440.6L504.7 423.5L500.7 405.9L498 387.9L496.7 369.7L496.8 351.4L498.2 333L501 314.7L504.9 296.6L510.1 278.8L516.4 261.3L523.6 244.4L531.7 228.1L540.6 212.6L550.1 197.8L560 184L570.2 171.2L580.5 159.5L590.8 149L600.8 139.8L610.5 131.9L619.6 125.4L628 120.4L635.4 116.9L641.9 114.9L647.1 114.6L651.1 115.8L653.6 118.6L654.6 123.1L653.9 129.2L651.5 136.8L647.4 146.1L641.4 156.9L633.7 169.3L624.1 183.1L612.7 198.3L599.6 214.8L584.8 232.6L568.4 251.6L550.4 271.7L531.1 292.9L510.5 314.9L488.8 337.7L466.1 361.3L442.7 385.4L418.7 410L394.3 435L369.8 460.2L345.3 485.5L321.1 510.8L297.4 536L274.3 560.9L252.2 585.5L231.2 609.6L211.6 633L193.5 655.8L177.2 677.8L162.7 698.8L150.3 718.9L140.1 737.8L132.3 755.6L126.8 772.1L124 787.2L123.7 801L126 813.4L131.1 824.3L138.8 833.6L149.1 841.5L162 847.7L177.5 852.4L195.4 855.5L215.6 857.1L238.1 857.1L262.5 855.7L288.9 852.7L316.9 848.3L346.4 842.5L377.1 835.5L408.9 827.1L441.5 817.6L474.6 806.9L508.1 795.2L541.6 782.6L574.8 769.2L607.7 755L639.8 740.2L670.9 724.8L700.9 709L729.4 692.9L756.3 676.5L781.4 660L804.5 643.5L825.4 627.1L843.9 610.9L860 595L873.5 579.5L884.4 564.5L892.6 550L898 536.2L900.6 523L900.5 510.7L897.6 499.2L892.1 488.7L884 479.1L873.3 470.5L860.3 462.9L845 456.4L827.6 450.9L808.2 446.6L787.1 443.3L764.5 441.1L740.5 440L715.3 439.9L689.3 440.8L662.6 442.7L635.4 445.5L608 449.1L580.6 453.6L553.5 458.9L526.8 464.8L500.7 471.3L475.5 478.4L451.4 485.9L428.5 493.7L407 501.8L386.9 510.1L368.6 518.5L352 526.8L337.2 535.1L324.4 543.2L313.5 550.9L304.7 558.3L297.8 565.3L293 571.6L290 577.4L289 582.4L289.9 586.7L292.5 590.2L296.7 592.7L302.5 594.3L309.7 594.9L318.1 594.4L327.7 592.9L338.2 590.2L349.4 586.5L361.3 581.6L373.6 575.7L386.1 568.6L398.7 560.4L411.3 551.1L423.5 540.8L435.4 529.5L446.6 517.2L457.2 504L466.8 490L475.6 475.2L483.2 459.7L489.8 443.6L495 427L499.1 409.9L501.8 392.4L503.1 374.8L503.2 356.9L501.9 339.1L499.3 321.3L495.5 303.6L490.6 286.3L484.6 269.3L477.6 252.8L469.8 236.9L461.2 221.7L452.1 207.4L442.5 193.8L432.6 181.3L422.6 169.9L412.6 159.6L402.8 150.5L393.3 142.7L384.4 136.3L376.2 131.3L368.9 127.8L362.5 125.8L357.3 125.3L353.4 126.3L350.8 129L349.8 133.2L350.3 139L352.5 146.3L356.3 155.2L362 165.6L369.4 177.5L378.5 190.8L389.5 205.4L402.1 221.4L416.4 238.7L432.2 257L449.5 276.5L468.2 297L488.2 318.3L509.2 340.5L531.1 363.3L553.9 386.7L577.2 410.6L600.8 434.9L624.7 459.3L648.5 484L672.1 508.6L695.2 533L717.6 557.3L739.2 581.2L759.7 604.7L778.9 627.5L796.6 649.7L812.6 671.1L826.9 691.7L839.1 711.2L849.2 729.7L857 747.1L862.4 763.2L865.4 778.1L865.9 791.6L863.8 803.7L859.1 814.4L851.9 823.7L842 831.4L829.6 837.6L814.8 842.3L797.6 845.4L778.1 847.1L756.5 847.2L732.8 845.9L707.4 843.2L680.3 839L651.7 833.5L621.9 826.7L591 818.7L559.4 809.5L527.2 799.2L494.7 787.9L462.2 775.8L429.8 762.8L397.9 749L366.6 734.6L336.2 719.7L307 704.4L279.1 688.7L252.8 672.9L228.3 656.8L205.7 640.8L185.2 624.9L167 609.1L151.2 593.6L137.8 578.5L127 563.8L118.9 549.7L113.4 536.2L110.6 523.4L110.6 511.3L113.1 500.1L118.3 489.8L126 480.4L136.2 471.9L148.7 464.5L163.4 458.1L180.2 452.7L198.8 448.4L219.2 445.1L241.1 442.9L264.3 441.7L288.7 441.5L313.9 442.3L339.9 444.1L366.2 446.7L392.9 450.3L419.5 454.6L445.9 459.6L471.9 465.3L497.3 471.6L521.9 478.4L545.4 485.7L567.8 493.3L588.8 501.1L608.4 509.2L626.4 517.3L642.7 525.4L657.1 533.5L669.8 541.3L680.5 548.9L689.3 556.1L696.1 562.9L701 569.2L703.9 574.8L705.1 579.8L704.4 584L702 587.4L698 589.9L692.5 591.6L685.6 592.2L677.5 591.8L668.3 590.4L658.2 588L647.3 584.4L635.8 579.8L623.9 574.1L611.7 567.2L599.4 559.4L587.2 550.4L575.3 540.5L563.7 529.6L552.7 517.7L542.4 504.9L532.9 491.4L524.4 477.1L516.8 462.1L510.4 446.4L505.2 430.3L501.2 413.7L498.5 396.8L497 379.6L496.9 362.3L498 344.9L500.4 327.6L504 310.5L508.7 293.6L514.5 277L521.2 261L528.7 245.5L537 230.7L545.9 216.6L555.2 203.4L564.8 191.1L574.5 179.9L584.2 169.8L593.8 160.9L603 153.3L611.7 146.9L619.7 141.9L626.9 138.4L633.2 136.3L638.3 135.7L642.3 136.6L644.9 139.1L646 143L645.6 148.5L643.7 155.5L640 164.1L634.7 174.1L627.6 185.5L618.8 198.3L608.4 212.5L596.2 227.9L582.5 244.6L567.2 262.4L550.4 281.2L532.4 301L513.1 321.7L492.7 343.2L471.4 365.3L449.4 388.1L426.8 411.2L403.8 434.8L380.7 458.6L357.5 482.5L334.5 506.4L312 530.2L290.1 553.8L269.1 577.1L249.1 600L230.3 622.2L213 643.9L197.3 664.8L183.3 684.8L171.3 703.9L161.3 721.9L153.5 738.9L148 754.7L144.9 769.2L144.2 782.5L146.1 794.4L150.4 804.9L157.3 814L166.7 821.6L178.5 827.8L192.7 832.4L209.3 835.6L228.1 837.3L248.9 837.6L271.8 836.4L296.4 833.9L322.6 829.9L350.3 824.7L379.2 818.2L409.1 810.4L439.8 801.6L471 791.7L502.6 780.8L534.2 769L565.7 756.5L596.8 743.2L627.3 729.2L656.9 714.8L685.4 699.9L712.6 684.7L738.3 669.3L762.3 653.7L784.4 638.1L804.5 622.6L822.4 607.3L838 592.2L851.1 577.4L861.8 563.2L869.9 549.4L875.5 536.2L878.4 523.7L878.7 511.9L876.4 501L871.6 490.8L864.2 481.6L854.5 473.3L842.6 466L828.4 459.7L812.3 454.4L794.3 450.1L774.6 446.9L753.4 444.6L730.9 443.4L707.3 443.1L682.9 443.8L657.7 445.5L632.1 448L606.2 451.3L580.3 455.5L554.6 460.3L529.3 465.8L504.6 471.9L480.6 478.5L457.6 485.5L435.8 492.8L415.2 500.5L396.1 508.3L378.5 516.2L362.5 524.1L348.3 531.9L335.9 539.6L325.3 547L316.6 554L309.8 560.7L304.9 566.8L301.9 572.3L300.7 577.2L301.2 581.4L303.4 584.7L307.2 587.3L312.4 588.9L319 589.6L326.8 589.3L335.6 588.1L345.4 585.7L356 582.4L367.1 578L378.7 572.5L390.5 565.9L402.4 558.4L414.3 549.8L425.9 540.2L437.2 529.6L447.9 518.1L458 505.8L467.3 492.7L475.7 478.8L483.1 464.3L489.4 449.2L494.6 433.5L498.6 417.4L501.3 401L502.8 384.3L503.1 367.5L502.1 350.6L499.8 333.8L496.4 317.1L491.9 300.6L486.4 284.5L480 268.9L472.7 253.8L464.7 239.3L456.1 225.6L447.1 212.7L437.8 200.7L428.3 189.7L418.9 179.8L409.6 171L400.6 163.5L392.1 157.2L384.2 152.3L377.1 148.7L371 146.6L365.9 145.9L361.9 146.6L359.3 148.9L358.1 152.6L358.3 157.8L360.1 164.6L363.5 172.7L368.6 182.3L375.3 193.3L383.7 205.7L393.8 219.3L405.5 234.3L418.7 250.4L433.5 267.6L449.6 285.8L467.1 305L485.7 325L505.5 345.9L526.1 367.3L547.4 389.4L569.4 411.9L591.7 434.8L614.2 457.9L636.7 481.1L659.1 504.4L681 527.6L702.3 550.5L722.9 573.2L742.4 595.4L760.8 617.1L777.7 638.2L793.2 658.6L806.9 678.1L818.7 696.7L828.6 714.4L836.3 731L841.8 746.4L845 760.7L845.9 773.6L844.3 785.3L840.3 795.6L833.8 804.6L824.9 812.1L813.5 818.2L799.9 822.9L784 826.1L765.9 827.9L745.7 828.2L723.7 827.2L699.9 824.8L674.5 821.1L647.7 816.1L619.7 809.8L590.7 802.4L560.9 793.9L530.6 784.4L499.9 773.9L469.2 762.5L438.5 750.3L408.2 737.4L378.6 723.9L349.7 709.9L321.9 695.5L295.4 680.7L270.3 665.7L246.8 650.6L225.2 635.5L205.5 620.4L187.9 605.5L172.6 590.8L159.6 576.4L149 562.5L140.9 549L135.3 536.2L132.3 524L131.8 512.5L133.8 501.8L138.3 491.8L145.3 482.8L154.5 474.7L166 467.5L179.6 461.3L195.1 456L212.5 451.8L231.5 448.6L252 446.3L273.7 445L296.6 444.7L320.3 445.3L344.7 446.8L369.6 449.2L394.7 452.4L419.9 456.4L444.9 461L469.6 466.3L493.7 472.2L517 478.5L539.4 485.3L560.8 492.5L580.9 499.9L599.6 507.5L616.8 515.1L632.5 522.8L646.4 530.4L658.7 537.9L669.1 545.1L677.7 552L684.4 558.5L689.3 564.5L692.4 569.9L693.7 574.7L693.4 578.8L691.4 582.1L687.8 584.7L682.8 586.3L676.5 587.1L669 586.9L660.5 585.7L651.1 583.6L640.9 580.4L630.1 576.2L618.9 570.9L607.4 564.6L595.8 557.4L584.3 549.1L572.9 539.8L561.9 529.6L551.5 518.6L541.6 506.6L532.5 493.9L524.3 480.5L517 466.4L510.7 451.8L505.6 436.6L501.6 421L498.9 405L497.3 388.9L497 372.5L497.9 356.1L500 339.7L503.2 323.5L507.4 307.4L512.7 291.8L518.9 276.5L526 261.8L533.7 247.6L542 234.2L550.7 221.6L559.7 209.9L568.9 199.1L578.1 189.4L587.2 180.8L596 173.4L604.3 167.2L612 162.3L618.9 158.7L625 156.5L630 155.7L633.9 156.4L636.6 158.4L637.9 162L637.8 166.9L636.2 173.3L633 181.2L628.2 190.4L621.8 201L613.7 212.9L604.1 226.1L592.9 240.5L580.1 256L565.9 272.7L550.3 290.3L533.4 308.9L515.3 328.3L496.3 348.5L476.3 369.4L455.6 390.8L434.3 412.6L412.6 434.8L390.7 457.3L368.8 479.9L347.1 502.5L325.7 525L304.9 547.3L284.9 569.4L265.8 591.1L247.9 612.2L231.3 632.7L216.2 652.6L202.7 671.7L191 689.9L181.3 707.1L173.6 723.3L168 738.4L164.7 752.3L163.7 765.1L165.1 776.5L168.8 786.6L174.9 795.4L183.4 802.9L194.2 808.9L207.3 813.5L222.7 816.8L240.1 818.6L259.5 819.1L280.8 818.2L303.8 816L328.3 812.5L354.3 807.7L381.4 801.7L409.5 794.6L438.4 786.4L467.9 777.2L497.7 767.1L527.6 756.1L557.4 744.3L586.9 731.8L615.8 718.8L643.9 705.2L671 691.2L696.9 676.9L721.4 662.3L744.4 647.6L765.6 632.9L784.9 618.2L802.1 603.7L817.2 589.4L830 575.4L840.5 561.8L848.5 548.7L854.2 536.2L857.3 524.2L858 513L856.2 502.5L852 492.8L845.5 484L836.7 476L825.7 468.9L812.6 462.8L797.7 457.6L780.9 453.4L762.6 450.2L742.8 447.9L721.7 446.6L699.6 446.2L676.5 446.8L652.9 448.2L628.7 450.4L604.3 453.5L579.8 457.2L555.5 461.7L531.5 466.8L508 472.5L485.2 478.6L463.4 485.2L442.5 492.1L422.9 499.3L404.6 506.7L387.7 514.1L372.4 521.6L358.7 529L346.6 536.3L336.4 543.3L327.9 550L321.2 556.4L316.3 562.2L313.1 567.5L311.7 572.3L311.9 576.3L313.8 579.6L317.1 582.1L321.8 583.8L327.9 584.6L335.1 584.5L343.3 583.5L352.4 581.4L362.3 578.4L372.7 574.4L383.6 569.4L394.7 563.4L406 556.4L417.2 548.4L428.2 539.5L439 529.6L449.2 518.9L458.8 507.4L467.7 495.1L475.8 482.1L483 468.5L489.1 454.3L494.2 439.5L498.1 424.4L500.9 408.9L502.5 393.2L502.9 377.3L502.2 361.4L500.2 345.4L497.2 329.6L493.1 314L488.1 298.8L482.1 283.9L475.3 269.5L467.9 255.8L459.9 242.7L451.4 230.3L442.6 218.9L433.7 208.3L424.7 198.8L415.9 190.3L407.4 183L399.3 176.9L391.7 172L384.9 168.5L378.9 166.2L373.9 165.3L370 165.8L367.4 167.7L366 171.1L366 175.8L367.5 181.9L370.4 189.4L375 198.3L381.1 208.4L388.8 219.9L398 232.6L408.8 246.5L421.1 261.6L434.8 277.7L449.9 294.8L466.2 312.8L483.7 331.6L502.1 351.2L521.5 371.4L541.6 392.1L562.2 413.3L583.3 434.9L604.5 456.7L625.8 478.7L647 500.7L667.8 522.6L688.1 544.3L707.6 565.8L726.2 586.9L743.7 607.5L760 627.5L774.8 646.8L788 665.4L799.5 683.2L809.2 700L816.8 715.9L822.4 730.6L825.7 744.3L826.9 756.7L825.8 768L822.3 777.9L816.6 786.6L808.5 793.9L798.1 799.9L785.6 804.5L770.9 807.8L754.1 809.7L735.4 810.2L714.8 809.4L692.6 807.4L668.8 804.1L643.7 799.5L617.4 793.8L590.2 787L562.1 779.1L533.5 770.2L504.6 760.5L475.5 749.8L446.5 738.4L417.8 726.4L389.7 713.7L362.3 700.5L335.8 686.9L310.5 673L286.6 658.9L264.2 644.6L243.4 630.3L224.5 616L207.6 601.9L192.7 588L180.1 574.3L169.7 561.1L161.7 548.3L156.1 536.1L152.8 524.5L152 513.5L153.5 503.2L157.4 493.7L163.6 485.1L172 477.2L182.5 470.3L195 464.3L209.4 459.2L225.5 455L243.3 451.8L262.4 449.5L282.8 448.2L304.3 447.7L326.6 448.2L349.6 449.5L373 451.6L396.7 454.5L420.5 458.1L444.2 462.4L467.6 467.3L490.4 472.8L512.6 478.7L534 485.1L554.3 491.8L573.5 498.7L591.4 505.9L607.9 513.1L623 520.4L636.4 527.6L648.2 534.7L658.3 541.6L666.7 548.1L673.4 554.3L678.3 560L681.5 565.3L683 569.9L682.9 573.9L681.2 577.2L678.1 579.7L673.6 581.4L667.8 582.3L660.9 582.2L653 581.3L644.2 579.4L634.7 576.5L624.6 572.7L614 567.9L603.2 562.1L592.3 555.4L581.3 547.7L570.6 539.1L560.2 529.6L550.2 519.3L540.8 508.1L532 496.2L524.1 483.7L517.1 470.4L511 456.7L506 442.4L502.1 427.7L499.3 412.7L497.6 397.4L497.1 382L497.8 366.5L499.6 351L502.4 335.6L506.3 320.4L511.2 305.5L516.9 291.1L523.4 277L530.6 263.6L538.4 250.8L546.6 238.8L555.1 227.6L563.8 217.2L572.5 207.9L581.1 199.6L589.4 192.4L597.3 186.3L604.7 181.5L611.4 177.9L617.3 175.7L622.2 174.7L626.1 175.1L628.8 176.8L630.2 179.9L630.3 184.4L629 190.2L626.2 197.4L622 205.9L616.1 215.7L608.8 226.8L599.9 239.1L589.5 252.5L577.7 267L564.5 282.6L549.9 299.1L534.2 316.6L517.3 334.8L499.4 353.8L480.6 373.4L461.2 393.5L441.1 414.1L420.7 435L400 456.2L379.3 477.6L358.7 498.9L338.5 520.2L318.7 541.4L299.7 562.3L281.5 582.8L264.4 602.9L248.5 622.4L233.9 641.3L220.9 659.4L209.6 676.7L200.1 693.2L192.6 708.6L187 723.1L183.5 736.4L182.2 748.6L183.2 759.7L186.3 769.4L191.7 778L199.4 785.2L209.3 791.1L221.3 795.7L235.5 799L251.6 800.9L269.7 801.6L289.5 800.9L311 799L334 795.9L358.3 791.6L383.8 786.1L410.2 779.6L437.4 772L465.2 763.4L493.3 754L521.6 743.7L549.8 732.7L577.7 721L605.1 708.7L631.8 696L657.6 682.8L682.3 669.3L705.7 655.6L727.6 641.7L747.9 627.8L766.4 613.9L783 600.1L797.6 586.6L810.1 573.3L820.3 560.4L828.3 548L834 536L837.3 524.7L838.4 513.9L837 503.9L833.4 494.6L827.6 486.1L819.6 478.5L809.6 471.6L797.5 465.7L783.7 460.7L768.1 456.6L751 453.4L732.5 451.1L712.8 449.7L692 449.2L670.3 449.6L648 450.8L625.3 452.8L602.2 455.5L579.1 459L556.1 463.1L533.3 467.8L511 473.1L489.4 478.8L468.6 485L448.8 491.5L430 498.2L412.5 505.2L396.3 512.2L381.6 519.3L368.4 526.3L356.8 533.2L346.8 539.9L338.5 546.3L331.9 552.3L327 557.9L323.8 563.1L322.2 567.6L322.1 571.5L323.6 574.8L326.6 577.3L330.8 579L336.3 579.9L343 580L350.6 579.1L359.1 577.3L368.3 574.6L378.1 571L388.3 566.4L398.8 560.8L409.5 554.4L420.1 547L430.5 538.7L440.7 529.5L450.5 519.6L459.7 508.8L468.2 497.3L476 485.1L482.9 472.3L488.9 459L493.8 445.1L497.7 430.9L500.5 416.3L502.2 401.5L502.8 386.5L502.2 371.4L500.6 356.3L497.9 341.4L494.2 326.6L489.5 312.1L484 298L477.8 284.3L470.8 271.2L463.3 258.7L455.4 247L447.1 236L438.7 225.9L430.2 216.7L421.9 208.6L413.7 201.5L406 195.5L398.8 190.7L392.2 187.1L386.4 184.8L381.6 183.8L377.7 184L375 185.6L373.5 188.6L373.3 192.8L374.4 198.4L377 205.3L381.1 213.4L386.6 222.9L393.6 233.5L402.1 245.3L412.1 258.3L423.5 272.4L436.2 287.4L450.3 303.4L465.5 320.3L481.9 338L499.2 356.4L517.3 375.4L536.2 394.9L555.7 414.9L575.5 435.2L595.6 455.8L615.7 476.5L635.7 497.3L655.5 518L674.7 538.6L693.3 558.9L711 578.9L727.8 598.5L743.3 617.5L757.6 635.9L770.3 653.6L781.5 670.5L790.8 686.5L798.4 701.7L803.9 715.8L807.5 728.9L808.9 740.8L808.2 751.6L805.3 761.2L800.2 769.6L792.9 776.7L783.5 782.6L771.9 787.1L758.3 790.4L742.8 792.4L725.4 793.2L706.2 792.6L685.5 790.9L663.2 787.9L639.7 783.8L615 778.6L589.4 772.3L563 765L536 756.8L508.7 747.7L481.2 737.7L453.8 727.1L426.6 715.8L399.9 703.9L373.9 691.5L348.8 678.7L324.7 665.6L301.8 652.3L280.4 638.8L260.5 625.3L242.4 611.8L226.1 598.4L211.7 585.2L199.5 572.3L189.3 559.7L181.4 547.6L175.7 535.9L172.2 524.8L171.1 514.3L172.2 504.5L175.5 495.5L181 487.1L188.6 479.6L198.2 472.9L209.8 467.1L223.1 462.1L238.1 458.1L254.6 454.9L272.5 452.6L291.6 451.2L311.7 450.6L332.7 450.9L354.3 452L376.4 453.9L398.8 456.5L421.3 459.8L443.7 463.8L465.9 468.3L487.6 473.4L508.6 479L528.9 484.9L548.3 491.2L566.6 497.8L583.8 504.5L599.6 511.3L614 518.2L627 525L638.4 531.7L648.2 538.3L656.4 544.5L662.9 550.4L667.8 555.9L671.1 560.9L672.8 565.4L673 569.3L671.6 572.5L668.9 575L664.8 576.7L659.6 577.7L653.2 577.8L645.9 577L637.7 575.4L628.8 572.8L619.3 569.3L609.4 564.9L599.2 559.6L588.8 553.4L578.5 546.3L568.3 538.3L558.4 529.5L548.9 519.8L539.9 509.4L531.5 498.3L523.9 486.5L517.1 474.1L511.3 461.2L506.4 447.7L502.5 433.9L499.7 419.8L497.9 405.4L497.3 390.8L497.7 376.1L499.3 361.5L501.8 346.9L505.3 332.6L509.8 318.5L515.1 304.7L521.1 291.4L527.8 278.6L535.1 266.4L542.8 254.9L550.8 244.2L558.9 234.3L567.2 225.3L575.3 217.3L583.2 210.3L590.8 204.4L597.9 199.7L604.3 196.1L610 193.7L614.8 192.6L618.6 192.8L621.4 194.2L622.9 197L623.2 201L622.2 206.3L619.8 212.9L616 220.7L610.7 229.8L604 240.1L595.9 251.5L586.3 264L575.3 277.6L563 292.1L549.5 307.6L534.7 324L518.9 341.1L502.2 358.9L484.6 377.3L466.3 396.3L447.4 415.7L428.1 435.4L408.6 455.4L389.1 475.6L369.6 495.8L350.4 515.9L331.6 536L313.5 555.7L296.2 575.2L279.8 594.2L264.6 612.8L250.7 630.7L238.1 648L227.2 664.5L217.9 680.1L210.5 694.9L204.9 708.7L201.3 721.5L199.8 733.2L200.3 743.8L203 753.2L207.7 761.5L214.6 768.5L223.6 774.3L234.7 778.8L247.7 782.1L262.7 784.2L279.5 785L298 784.6L318.1 782.9L339.6 780.2L362.4 776.3L386.3 771.3L411.1 765.2L436.7 758.2L462.9 750.3L489.4 741.5L516.1 731.9L542.8 721.6L569.2 710.7L595.2 699.1L620.6 687.1L645.1 674.8L668.6 662L690.9 649.1L711.9 636L731.3 622.9L749.1 609.7L765.1 596.7L779.2 583.8L791.3 571.3L801.3 559L809.2 547.2L814.9 535.8L818.4 525L819.7 514.7L818.9 505.1L815.8 496.3L810.6 488.1L803.4 480.7L794.2 474.2L783.1 468.4L770.3 463.5L755.8 459.5L739.9 456.4L722.6 454.1L704.1 452.6L684.6 452L664.3 452.2L643.3 453.2L621.8 455L600.1 457.5L578.2 460.7L556.4 464.5L534.9 468.9L513.8 473.8L493.2 479.1L473.4 484.9L454.5 491L436.6 497.3L419.9 503.8L404.4 510.5L390.2 517.2L377.5 523.8L366.3 530.3L356.6 536.7L348.5 542.8L342.1 548.6L337.2 553.9L333.8 558.9L332.1 563.3L331.8 567.1L333 570.2L335.6 572.7L339.4 574.5L344.4 575.5L350.5 575.6L357.6 574.9L365.5 573.4L374.1 571L383.3 567.7L392.9 563.5L402.8 558.4L412.8 552.4L422.9 545.6L432.8 537.9L442.5 529.3L451.8 520L460.5 510L468.7 499.2L476.2 487.8L482.8 475.8L488.6 463.3L493.5 450.2L497.3 436.8L500.1 423.1L501.9 409.1L502.6 395L502.3 380.7L500.9 366.5L498.5 352.3L495.1 338.3L490.9 324.6L485.8 311.2L480 298.2L473.5 285.7L466.5 273.8L459 262.6L451.3 252.1L443.3 242.4L435.3 233.6L427.4 225.8L419.7 218.9L412.3 213.1L405.4 208.4L399.1 204.8L393.5 202.4L388.7 201.2L384.9 201.3L382.2 202.6L380.6 205.2L380.2 209L381.1 214L383.3 220.3L386.9 227.9L391.9 236.6L398.3 246.5L406.1 257.5L415.3 269.6L425.9 282.7L437.7 296.8L450.8 311.8L465 327.6L480.3 344.2L496.6 361.4L513.6 379.3L531.4 397.7L549.7 416.5L568.4 435.7L587.3 455.1L606.3 474.7L625.3 494.3L644 513.9L662.2 533.4L679.9 552.7L696.8 571.6L712.8 590.2L727.7 608.2L741.4 625.7L753.6 642.5L764.4 658.6L773.5 673.9L780.9 688.4L786.5 701.9L790.2 714.4L791.8 725.8L791.5 736.2L789 745.5L784.6 753.6L778 760.5L769.4 766.2L758.8 770.7L746.3 774L731.9 776.1L715.7 777L697.9 776.7L678.5 775.2L657.7 772.6L635.6 768.9L612.5 764.1L588.4 758.3L563.5 751.6L538.1 744L512.3 735.5L486.4 726.2L460.4 716.2L434.7 705.6L409.4 694.5L384.7 682.9L360.8 670.9L337.9 658.5L316.1 645.9L295.6 633.2L276.6 620.4L259.2 607.7L243.5 595L229.6 582.5L217.7 570.2L207.8 558.3L199.9 546.8L194.2 535.7L190.6 525.1L189.2 515.1L189.9 505.7L192.7 497L197.6 489L204.4 481.8L213.2 475.4L223.9 469.7L236.2 464.9L250.1 460.9L265.5 457.8L282.3 455.5L300.1 454L319 453.4L338.7 453.5L359.1 454.4L379.9 456.1L401 458.5L422.3 461.5L443.5 465.1L464.4 469.4L485 474.1L505 479.3L524.3 484.8L542.8 490.7L560.3 496.9L576.7 503.2L591.8 509.7L605.7 516.2L618.1 522.6L629.2 529L638.7 535.2L646.7 541.1L653.1 546.8L658 552L661.3 556.9L663.2 561.2L663.5 564.9L662.5 568.1L660.1 570.5L656.4 572.3L651.7 573.3L645.8 573.5L639 572.9L631.4 571.5L623.1 569.2L614.2 566.1L604.9 562.1L595.3 557.2L585.5 551.4L575.7 544.9L566.1 537.4L556.7 529.2L547.6 520.2L539 510.5L531 500.1L523.7 489L517.2 477.4L511.5 465.3L506.7 452.7L502.9 439.6L500 426.3L498.2 412.7L497.5 399L497.7 385.2L499 371.3L501.3 357.5L504.4 343.9L508.5 330.5L513.4 317.5L519 304.8L525.2 292.6L532 281L539.2 270.1L546.8 259.8L554.5 250.3L562.3 241.7L570 234L577.5 227.2L584.7 221.5L591.5 216.8L597.6 213.3L603.1 210.9L607.8 209.6L611.6 209.6L614.4 210.7L616 213.1L616.5 216.7L615.7 221.6L613.7 227.6L610.3 234.8L605.5 243.2L599.4 252.7L591.9 263.4L583.1 275L572.9 287.7L561.5 301.3L548.9 315.8L535.1 331.1L520.3 347.2L504.6 363.9L488.1 381.3L470.9 399.1L453.2 417.4L435 436L416.6 454.9L398.1 473.9L379.7 493L361.5 512L343.7 531L326.4 549.7L309.9 568.2L294.3 586.2L279.8 603.8L266.4 620.9L254.3 637.3L243.7 653L234.7 667.9L227.4 682L221.8 695.2L218.1 707.5L216.4 718.7L216.6 728.9L218.7 738L222.9 745.9L229.2 752.8L237.3 758.4L247.5 762.9L259.5 766.2L273.4 768.3L289 769.3L306.2 769.1L324.9 767.7L345.1 765.3L366.4 761.7L388.9 757.2L412.2 751.6L436.3 745.1L461 737.8L486 729.6L511.2 720.6L536.5 711L561.5 700.8L586.1 690L610.2 678.7L633.5 667L655.9 655.1L677.2 642.9L697.2 630.5L715.8 618.1L732.8 605.7L748.2 593.3L761.8 581.2L773.6 569.2L783.4 557.6L791.2 546.3L796.9 535.5L800.5 525.2L802.1 515.4L801.6 506.3L799 497.8L794.4 489.9L787.9 482.9L779.5 476.5L769.3 471L757.5 466.2L744 462.3L729.2 459.2L713 456.9L695.7 455.4L677.4 454.7L658.4 454.8L638.6 455.6L618.4 457.2L597.9 459.4L577.2 462.3L556.6 465.8L536.2 469.9L516.1 474.4L496.6 479.4L477.8 484.8L459.8 490.5L442.7 496.5L426.7 502.6L411.9 508.9L398.3 515.2L386.1 521.5L375.2 527.7L365.9 533.7L358 539.5L351.6 545.1L346.7 550.2L343.4 554.9L341.5 559.1L341 562.8L341.9 565.9L344.1 568.4L347.6 570.2L352.2 571.2L357.8 571.5L364.3 571L371.7 569.7L379.7 567.5L388.3 564.5L397.3 560.7L406.6 556L416.1 550.5L425.6 544.1L435 537L444.2 529.1L453 520.4L461.4 511L469.2 500.9L476.4 490.2L482.8 479L488.4 467.2L493.2 455L497 442.4L499.8 429.4L501.6 416.2L502.4 402.9L502.3 389.4L501.1 376L499 362.6L496 349.3L492.1 336.3L487.4 323.6L482 311.2L476 299.4L469.4 288L462.4 277.3L455.1 267.3L447.6 258L440.1 249.5L432.6 242L425.2 235.3L418.2 229.7L411.6 225L405.5 221.5L400.1 219.1L395.5 217.8L391.8 217.6L389 218.7L387.3 220.9L386.7 224.3L387.4 228.9L389.3 234.7L392.5 241.6L397 249.7L402.8 258.9L410 269.1L418.5 280.4L428.3 292.6L439.3 305.8L451.5 319.8L464.8 334.6L479 350.2L494.2 366.4L510.2 383.2L526.9 400.5L544.1 418.3L561.8 436.3L579.6 454.7L597.6 473.1L615.6 491.7L633.3 510.2L650.6 528.7L667.4 546.9L683.5 564.8L698.8 582.4L713 599.6L726.1 616.2L737.9 632.2L748.4 647.5L757.2 662.1L764.5 675.9L770 688.8L773.8 700.8L775.7 711.8L775.6 721.7L773.7 730.7L769.7 738.5L763.8 745.2L756 750.8L746.3 755.3L734.8 758.6L721.4 760.7L706.4 761.7L689.8 761.6L671.7 760.4L652.2 758.1L631.6 754.7L609.8 750.4L587.2 745.1L563.8 738.8L539.9 731.7L515.6 723.9L491 715.2L466.5 705.9L442.2 696L418.2 685.5L394.7 674.6L372 663.3L350.2 651.7L329.4 639.8L309.8 627.8L291.6 615.8L274.9 603.7L259.8 591.7L246.4 579.8L234.9 568.2L225.2 556.9L217.5 545.9L211.8 535.3L208 525.3L206.4 515.7L206.7 506.8L209 498.5L213.3 490.8L219.5 483.9L227.6 477.6L237.3 472.2L248.7 467.5L261.7 463.6L276 460.5L291.6 458.2L308.4 456.7L326.1 456L344.6 456L363.7 456.8L383.3 458.2L403.3 460.3L423.3 463.1L443.4 466.5L463.3 470.4L482.8 474.8L501.8 479.6L520.2 484.8L537.7 490.3L554.4 496.1L570.1 502.1L584.6 508.2L597.9 514.3L609.9 520.4L620.5 526.5L629.7 532.3L637.5 538L643.8 543.4L648.7 548.4L652 553L654 557.2L654.6 560.8L653.8 563.9L651.7 566.3L648.5 568.1L644.1 569.2L638.7 569.5L632.4 569.1L625.3 567.9L617.6 565.8L609.3 563L600.5 559.3L591.5 554.8L582.3 549.5L573 543.4L563.9 536.5L554.9 528.9L546.3 520.5L538.1 511.4L530.5 501.7L523.5 491.4L517.2 480.4L511.6 469L507 457.2L503.2 444.9L500.4 432.4L498.5 419.6L497.7 406.6L497.7 393.6L498.8 380.5L500.8 367.4L503.7 354.5L507.4 341.9L511.9 329.5L517.1 317.4L522.9 305.8L529.2 294.8L536 284.3L543 274.5L550.3 265.4L557.7 257.1L565 249.7L572.1 243.2L579 237.6L585.4 233L591.4 229.5L596.7 227L601.2 225.7L605 225.5L607.7 226.4L609.5 228.5L610.1 231.7L609.6 236.1L607.8 241.6L604.8 248.2L600.5 256L594.9 264.8L588.1 274.7L579.9 285.6L570.5 297.4L559.9 310.1L548.2 323.7L535.3 338.1L521.5 353.1L506.8 368.9L491.3 385.2L475.1 402L458.4 419.2L441.3 436.7L424 454.5L406.5 472.4L389.1 490.5L371.8 508.5L354.9 526.4L338.5 544.2L322.8 561.7L307.9 578.8L294 595.5L281.2 611.7L269.6 627.3L259.3 642.3L250.6 656.5L243.4 670L237.9 682.6L234.1 694.3L232.1 705L232 714.8L233.8 723.6L237.4 731.3L243 737.9L250.4 743.4L259.7 747.8L270.8 751.1L283.6 753.3L298.1 754.4L314.2 754.4L331.7 753.3L350.5 751.1L370.5 747.9L391.5 743.8L413.5 738.7L436.1 732.7L459.4 725.9L483 718.2L506.8 709.9L530.7 700.9L554.4 691.3L577.7 681.2L600.6 670.6L622.7 659.6L644 648.4L664.3 636.9L683.4 625.2L701.2 613.5L717.6 601.7L732.4 590L745.5 578.5L756.9 567.2L766.4 556.1L774.1 545.5L779.8 535.2L783.6 525.3L785.4 516L785.2 507.3L783.1 499.1L779.1 491.6L773.2 484.8L765.5 478.7L756.2 473.4L745.2 468.8L732.7 464.9L718.9 461.8L703.8 459.5L687.6 458L670.5 457.2L652.6 457.2L634 457.9L615 459.2L595.6 461.3L576.1 463.9L556.6 467.1L537.2 470.9L518.2 475.1L499.7 479.8L481.8 484.8L464.6 490.2L448.4 495.8L433.1 501.6L418.9 507.5L405.8 513.4L394.1 519.4L383.6 525.3L374.6 531L366.9 536.5L360.6 541.8L355.8 546.7L352.4 551.2L350.4 555.3L349.7 558.9L350.4 561.9L352.3 564.3L355.4 566.1L359.5 567.2L364.7 567.6L370.7 567.2L377.6 566.1L385.1 564.2L393.1 561.5L401.6 558L410.3 553.7L419.3 548.6L428.3 542.7L437.2 536.1L445.9 528.7L454.3 520.6L462.3 511.8L469.8 502.4L476.7 492.4L482.9 481.9L488.3 470.8L492.9 459.3L496.6 447.4L499.4 435.3L501.3 422.8L502.2 410.2L502.2 397.5L501.3 384.8L499.4 372.1L496.7 359.6L493.1 347.2L488.8 335.2L483.8 323.4L478.2 312.1L472.1 301.3L465.6 291.1L458.7 281.5L451.7 272.6L444.5 264.5L437.4 257.2L430.4 250.8L423.7 245.3L417.4 240.8L411.6 237.3L406.4 234.8L401.9 233.4L398.2 233.1L395.5 233.9L393.7 235.8L393 238.9L393.4 243.1L395 248.3L397.8 254.7L401.9 262.2L407.2 270.7L413.8 280.2L421.6 290.7L430.7 302.1L440.9 314.4L452.2 327.5L464.6 341.4L478 356L492.2 371.3L507.2 387.1L522.9 403.4L539.1 420.1L555.7 437.1L572.6 454.4L589.6 471.8L606.5 489.3L623.3 506.9L639.7 524.3L655.7 541.6L671 558.6L685.6 575.3L699.2 591.6L711.8 607.3L723.2 622.6L733.2 637.2L741.9 651.1L749 664.2L754.5 676.5L758.3 688L760.3 698.5L760.6 708.1L759 716.7L755.6 724.3L750.3 730.8L743.3 736.3L734.4 740.6L723.7 743.9L711.4 746.1L697.4 747.3L681.9 747.3L665.1 746.3L646.9 744.3L627.5 741.3L607.1 737.3L585.8 732.5L563.9 726.7L541.3 720.1L518.4 712.8L495.2 704.7L472 696L449 686.7L426.2 676.9L404 666.7L382.4 656L361.6 645.1L341.8 633.9L323.1 622.6L305.7 611.2L289.7 599.8L275.2 588.4L262.3 577.2L251.1 566.2L241.7 555.4L234.1 545L228.3 535L224.5 525.4L222.6 516.3L222.6 507.7L224.6 499.7L228.3 492.4L233.9 485.7L241.2 479.8L250.2 474.5L260.7 470L272.8 466.2L286.1 463.1L300.7 460.8L316.3 459.3L332.9 458.5L350.3 458.4L368.3 459L386.8 460.2L405.6 462.2L424.5 464.7L443.5 467.8L462.3 471.4L480.8 475.5L498.9 480L516.3 484.8L533.1 490L549 495.4L563.9 501.1L577.8 506.8L590.6 512.6L602.1 518.4L612.4 524.1L621.3 529.7L628.9 535.1L635 540.2L639.8 545L643.3 549.5L645.3 553.5L646.1 557L645.5 559.9L643.8 562.4L640.9 564.1L636.9 565.2L632 565.7L626.2 565.4L619.6 564.4L612.3 562.6L604.5 560L596.3 556.7L587.8 552.6L579.2 547.7L570.4 542L561.7 535.6L553.2 528.5L545 520.7L537.2 512.2L529.9 503.1L523.2 493.4L517.1 483.2L511.8 472.5L507.2 461.3L503.5 449.8L500.7 438L498.8 426L497.9 413.7L497.8 401.4L498.7 389L500.4 376.7L503 364.5L506.4 352.4L510.5 340.7L515.3 329.2L520.7 318.2L526.6 307.7L533 297.7L539.6 288.3L546.4 279.6L553.4 271.7L560.3 264.5L567.1 258.2L573.6 252.8L579.8 248.3L585.5 244.8L590.6 242.4L595 240.9L598.7 240.5L601.4 241.2L603.2 243L604 245.9L603.7 249.9L602.2 254.9L599.6 261L595.7 268.2L590.6 276.4L584.3 285.5L576.8 295.7L568.1 306.7L558.3 318.6L547.3 331.3L535.4 344.8L522.5 358.9L508.7 373.7L494.2 389L479 404.8L463.3 421L447.2 437.5L430.8 454.3L414.3 471.3L397.8 488.3L381.4 505.3L365.4 522.3L349.8 539.1L334.9 555.7L320.7 571.9L307.3 587.8L295 603.1L283.9 618L274 632.2L265.5 645.8L258.5 658.6L253 670.7L249.2 681.9L247 692.2L246.6 701.6L248 710L251.2 717.5L256.2 723.9L262.9 729.3L271.4 733.6L281.6 736.9L293.5 739.1L306.9 740.3L321.9 740.5L338.2 739.6L355.8 737.7L374.5 734.8L394.3 731.1L414.9 726.4L436.2 720.9L458.1 714.5L480.4 707.4L502.8 699.7L525.4 691.2L547.8 682.3L570 672.8L591.6 662.8L612.7 652.5L632.9 641.9L652.3 631.1L670.5 620.1L687.6 609L703.2 597.9L717.5 586.8L730.1 575.9L741.2 565.2L750.5 554.7L758 544.5L763.7 534.7L767.6 525.4L769.6 516.5L769.7 508.1L768 500.4L764.5 493.2L759.2 486.6L752.2 480.8L743.6 475.6L733.5 471.1L721.9 467.4L709 464.3L694.9 462.1L679.8 460.5L663.8 459.7L646.9 459.5L629.5 460L611.5 461.2L593.3 463L574.8 465.5L556.4 468.4L538.1 471.9L520.1 475.8L502.5 480.2L485.5 484.9L469.1 489.9L453.6 495.1L439 500.6L425.4 506.2L412.9 511.8L401.6 517.4L391.5 523L382.7 528.4L375.3 533.7L369.1 538.7L364.4 543.4L360.9 547.7L358.8 551.7L358 555.1L358.4 558.1L360.1 560.4L362.8 562.2L366.6 563.4L371.3 563.8L376.9 563.6L383.2 562.7L390.2 561L397.8 558.6L405.7 555.4L413.9 551.4L422.4 546.7L430.9 541.3L439.3 535.1L447.6 528.3L455.6 520.7L463.2 512.6L470.4 503.7L477 494.4L482.9 484.5L488.2 474.1L492.6 463.3L496.3 452.1L499.1 440.7L501 429L502 417.1L502.2 405.1L501.4 393.1L499.8 381.1L497.3 369.2L494.1 357.5L490.1 346L485.5 334.9L480.3 324.1L474.6 313.9L468.5 304.1L462 294.9L455.4 286.4L448.6 278.6L441.9 271.6L435.3 265.4L428.9 260.1L422.9 255.7L417.3 252.2L412.3 249.7L407.9 248.2L404.3 247.8L401.6 248.3L399.7 250L398.9 252.7L399.1 256.5L400.5 261.3L402.9 267.2L406.6 274.1L411.4 281.9L417.5 290.8L424.7 300.6L433.1 311.2L442.5 322.7L453.1 335L464.6 348L477.1 361.7L490.5 376L504.5 390.9L519.2 406.2L534.5 421.9L550.1 438L566 454.3L582.1 470.7L598.1 487.3L614 503.9L629.6 520.4L644.8 536.7L659.4 552.8L673.3 568.7L686.3 584.1L698.3 599.1L709.3 613.6L719 627.5L727.4 640.7L734.3 653.2L739.8 665L743.6 676L745.8 686.1L746.3 695.3L745.1 703.6L742.2 710.9L737.5 717.2L731.1 722.5L722.9 726.8L713.1 730.1L701.7 732.3L688.8 733.6L674.4 733.8L658.6 733L641.6 731.2L623.5 728.6L604.4 724.9L584.4 720.5L563.7 715.2L542.5 709.1L520.8 702.2L499 694.7L477.1 686.6L455.2 677.9L433.7 668.7L412.6 659.1L392.1 649.1L372.3 638.8L353.4 628.3L335.6 617.6L318.9 606.8L303.6 596L289.6 585.3L277.2 574.6L266.3 564.2L257.2 554L249.7 544.1L244 534.5L240.1 525.4L238 516.7L237.8 508.5L239.3 500.9L242.6 493.9L247.6 487.5L254.2 481.7L262.5 476.6L272.2 472.2L283.3 468.5L295.8 465.6L309.4 463.3L324 461.7L339.5 460.8L355.8 460.6L372.8 461.1L390.2 462.2L407.9 463.9L425.8 466.2L443.8 469.1L461.6 472.4L479.1 476.2L496.2 480.4L512.8 484.9L528.8 489.8L543.9 494.9L558.2 500.1L571.5 505.5L583.7 511L594.8 516.5L604.7 521.9L613.4 527.2L620.7 532.4L626.8 537.2L631.5 541.8L635 546.1L637.1 549.9L638 553.3L637.7 556.2L636.2 558.6L633.6 560.4L630 561.5L625.5 562L620.1 561.9L614 561L607.3 559.4L600 557.1L592.3 554.1L584.3 550.3L576.1 545.8L567.9 540.6L559.6 534.7L551.6 528.1L543.8 520.8L536.3 512.9L529.3 504.3L522.9 495.3L517 485.7L511.9 475.6L507.5 465.2L503.9 454.3L501.1 443.2L499.1 431.9L498.1 420.3L497.9 408.7L498.5 397L500.1 385.3L502.4 373.7L505.5 362.3L509.3 351.2L513.7 340.3L518.7 329.9L524.2 319.8L530.2 310.3L536.4 301.3L542.8 293L549.4 285.4L556 278.5L562.4 272.4L568.6 267.1L574.5 262.8L580 259.3L584.9 256.8L589.2 255.3L592.8 254.8L595.5 255.3L597.4 256.8L598.3 259.4L598.1 262.9L596.9 267.5L594.6 273.2L591.1 279.8L586.5 287.4L580.7 295.9L573.8 305.3L565.8 315.6L556.6 326.7L546.5 338.6L535.3 351.2L523.2 364.5L510.3 378.4L496.7 392.8L482.5 407.6L467.7 422.9L452.5 438.5L437.1 454.3L421.5 470.3L405.9 486.4L390.4 502.5L375.2 518.5L360.4 534.4L346.2 550.1L332.6 565.5L319.9 580.6L308.1 595.2L297.4 609.3L287.8 622.9L279.6 635.8L272.7 648L267.3 659.5L263.4 670.3L261.1 680.2L260.5 689.2L261.5 697.3L264.3 704.5L268.7 710.7L274.8 715.9L282.6 720.2L292 723.5L303 725.7L315.4 727L329.3 727.3L344.5 726.6L361 725L378.5 722.4L397 719L416.4 714.7L436.5 709.6L457.1 703.7L478.1 697.2L499.3 689.9L520.6 682L541.8 673.6L562.8 664.7L583.4 655.4L603.4 645.7L622.6 635.7L641.1 625.5L658.5 615.1L674.8 604.7L689.8 594.2L703.5 583.7L715.7 573.4L726.4 563.2L735.4 553.3L742.8 543.6L748.5 534.3L752.4 525.4L754.6 516.9L755 508.9L753.6 501.5L750.6 494.6L745.8 488.3L739.5 482.7L731.6 477.7L722.2 473.3L711.5 469.7L699.5 466.7L686.4 464.4L672.3 462.9L657.2 462L641.4 461.7L625 462.1L608.1 463.1L590.9 464.8L573.5 467L556.1 469.7L538.7 472.9L521.7 476.5L505 480.6L488.8 485L473.2 489.7L458.4 494.6L444.5 499.7L431.5 505L419.5 510.3L408.6 515.6L398.9 520.9L390.4 526.1L383.2 531.1L377.2 535.8L372.5 540.3L369 544.5L366.8 548.3L365.9 551.6L366.1 554.5L367.4 556.8L369.9 558.6L373.3 559.8L377.6 560.3L382.8 560.2L388.7 559.4L395.2 557.9L402.2 555.7L409.7 552.9L417.4 549.2L425.4 544.9L433.4 539.9L441.4 534.2L449.2 527.8L456.8 520.8L464.1 513.1L471 504.9L477.3 496.1L483 486.8L488.1 477.1L492.4 467L496 456.5L498.8 445.7L500.7 434.6L501.8 423.4L502.1 412.1L501.5 400.8L500.1 389.4L497.9 378.2L495 367.1L491.3 356.2L487 345.6L482.2 335.4L476.9 325.6L471.1 316.3L465.1 307.5L458.9 299.4L452.5 291.9L446.1 285.2L439.8 279.2L433.8 274L428 269.7L422.7 266.3L417.8 263.8L413.6 262.2L410.1 261.6L407.3 262L405.5 263.4L404.5 265.8L404.6 269.2L405.7 273.6L407.8 279L411.1 285.4L415.5 292.7L421 300.9L427.7 310L435.4 319.9L444.2 330.7L454 342.2L464.8 354.4L476.5 367.2L488.9 380.7L502.1 394.6L515.9 409L530.3 423.8L545 439L560 454.3L575.1 469.9L590.3 485.5L605.4 501.2L620.2 516.8L634.6 532.2L648.5 547.5L661.7 562.5L674.1 577.2L685.7 591.4L696.2 605.2L705.6 618.4L713.7 631L720.5 643L725.9 654.2L729.7 664.7L732.1 674.4L732.8 683.2L732 691.2L729.4 698.2L725.3 704.4L719.4 709.5L712 713.8L703 717L692.4 719.3L680.4 720.6L667 721L652.3 720.4L636.5 718.9L619.5 716.5L601.6 713.2L582.8 709.1L563.3 704.2L543.4 698.5L523 692.2L502.3 685.2L481.6 677.6L461 669.5L440.6 660.8L420.5 651.8L401 642.4L382.2 632.7L364.3 622.8L347.3 612.7L331.3 602.6L316.6 592.4L303.2 582.2L291.2 572.1L280.7 562.2L271.8 552.5L264.5 543.1L258.8 534L254.9 525.3L252.6 517.1L252.1 509.3L253.3 502L256.1 495.2L260.6 489.1L266.7 483.6L274.2 478.6L283.2 474.4L293.5 470.8L305.1 467.8L317.7 465.6L331.4 464L346 463.1L361.3 462.8L377.2 463.1L393.6 464.1L410.3 465.6L427.2 467.7L444.2 470.3L461 473.4L477.6 476.9L493.9 480.8L509.7 485L524.8 489.6L539.3 494.4L552.9 499.3L565.6 504.4L577.4 509.6L588 514.8L597.6 519.9L605.9 524.9L613.1 529.8L619 534.5L623.7 538.9L627.1 542.9L629.3 546.6L630.4 549.9L630.2 552.7L629 555.1L626.7 556.8L623.5 558L619.3 558.6L614.4 558.5L608.7 557.8L602.4 556.5L595.6 554.4L588.4 551.6L580.9 548.2L573.2 544L565.4 539.2L557.6 533.7L549.9 527.5L542.5 520.8L535.4 513.4L528.7 505.4L522.6 496.9L516.9 488L512 478.5L507.7 468.7L504.1 458.5L501.4 448L499.4 437.3L498.3 426.4L498 415.4L498.5 404.4L499.8 393.4L501.8 382.4L504.6 371.6L508.1 361L512.2 350.7L516.9 340.8L522.1 331.2L527.6 322.1L533.4 313.6L539.5 305.6L545.7 298.3L551.9 291.7L558 285.8L563.9 280.7L569.6 276.4L574.8 273L579.5 270.5L583.7 268.9L587.2 268.3L589.9 268.6L591.8 269.9L592.8 272.1L592.8 275.4L591.8 279.6L589.8 284.7L586.7 290.8L582.5 297.9L577.2 305.8L570.9 314.6L563.4 324.2L555 334.5L545.5 345.7L535.1 357.5L523.8 369.9L511.8 382.9L499 396.5L485.6 410.4L471.7 424.8L457.4 439.5L442.9 454.4L428.1 469.5L413.4 484.7L398.7 499.9L384.3 515.1L370.3 530.2L356.7 545L343.8 559.6L331.6 573.9L320.4 587.8L310.1 601.2L300.9 614.1L292.9 626.4L286.1 638.1L280.8 649.1L276.9 659.3L274.5 668.8L273.7 677.5L274.4 685.3L276.7 692.2L280.6 698.2L286.2 703.3L293.3 707.5L301.9 710.7L312.1 713L323.6 714.4L336.5 714.8L350.7 714.3L366.1 712.9L382.5 710.6L399.9 707.5L418 703.6L436.9 698.9L456.3 693.5L476.1 687.3L496.1 680.6L516.3 673.3L536.3 665.4L556.2 657L575.7 648.3L594.7 639.2L613 629.8L630.6 620.2L647.2 610.4L662.8 600.5L677.2 590.6L690.3 580.7L702.1 570.9L712.4 561.2L721.2 551.8L728.5 542.6L734.1 533.8L738 525.3L740.3 517.2L741 509.6L740 502.5L737.3 495.9L733.1 489.9L727.4 484.4L720.1 479.6L711.5 475.4L701.6 471.9L690.4 468.9L678.2 466.7L665 465.1L650.9 464.1L636.1 463.8L620.6 464.1L604.7 465L588.5 466.4L572.1 468.4L555.6 470.9L539.2 473.9L523 477.2L507.2 481L491.8 485.1L477 489.5L462.9 494.1L449.6 499L437.1 503.9L425.7 508.9L415.2 514L405.9 519L397.6 523.9L390.6 528.6L384.7 533.2L380.1 537.5L376.7 541.4L374.4 545.1L373.3 548.3L373.3 551.1L374.5 553.4L376.6 555.1L379.7 556.3L383.6 556.9L388.4 556.9L393.8 556.3L399.9 555L406.5 553.1L413.5 550.4L420.8 547.1L428.3 543.1L435.8 538.5L443.4 533.2L450.9 527.3L458.1 520.7L465 513.6L471.6 505.9L477.6 497.7L483.1 489L488 479.9L492.2 470.3L495.7 460.5L498.5 450.3L500.4 439.9L501.6 429.3L502 418.7L501.6 407.9L500.4 397.2L498.4 386.5L495.7 376L492.4 365.7L488.4 355.7L483.9 346L479 336.6L473.6 327.8L467.9 319.4L462.1 311.6L456.1 304.5L450 298L444.1 292.2L438.3 287.2L432.8 283L427.7 279.6L423 277.1L418.9 275.5L415.5 274.8L412.8 275L410.9 276.2L409.8 278.3L409.7 281.3L410.6 285.4L412.5 290.3L415.4 296.2L419.4 302.9L424.5 310.5L430.6 319L437.7 328.3L445.9 338.3L455 349.1L465 360.5L475.9 372.6L487.6 385.2L500 398.3L512.9 411.8L526.4 425.8L540.3 440L554.4 454.5L568.7 469.2L583.1 483.9L597.3 498.7L611.3 513.5L625 528.2L638.2 542.6L650.9 556.8L662.7 570.8L673.8 584.3L683.9 597.4L692.9 609.9L700.8 622L707.4 633.4L712.7 644.1L716.6 654.1L719.1 663.4L720 671.9L719.4 679.5L717.3 686.3L713.6 692.3L708.3 697.3L701.6 701.4L693.3 704.6L683.5 706.9L672.4 708.3L660 708.8L646.3 708.4L631.4 707.1L615.5 705L598.7 702L581.1 698.3L562.8 693.7L544 688.5L524.8 682.6L505.3 676.1L485.7 669L466.2 661.4L446.9 653.3L427.9 644.8L409.4 636L391.5 626.9L374.4 617.6L358.1 608.1L342.9 598.5L328.8 588.8L316 579.2L304.4 569.7L294.3 560.3L285.6 551.1L278.4 542.1L272.8 533.5L268.8 525.2L266.5 517.3L265.7 509.9L266.6 502.9L269 496.5L273 490.6L278.5 485.3L285.4 480.5L293.7 476.4L303.2 472.9L314 470L325.8 467.8L338.6 466.2L352.2 465.2L366.6 464.8L381.5 465.1L396.9 465.9L412.7 467.2L428.7 469.1L444.7 471.5L460.6 474.3L476.4 477.6L491.8 481.2L506.8 485.2L521.2 489.5L535 493.9L548 498.6L560.2 503.4L571.4 508.3L581.7 513.2L590.8 518L598.9 522.8L605.8 527.5L611.6 531.9L616.2 536.1L619.7 540L622 543.5L623.1 546.7L623.2 549.5L622.2 551.7L620.2 553.5L617.3 554.7L613.5 555.3L608.9 555.4L603.6 554.8L597.8 553.6L591.4 551.8L584.7 549.3L577.6 546.1L570.3 542.3L563 537.8L555.6 532.7L548.3 527L541.3 520.7L534.5 513.8L528.1 506.4L522.2 498.4L516.8 490L512 481.1L507.9 471.9L504.4 462.3L501.7 452.5L499.7 442.4L498.5 432.1L498.1 421.8L498.4 411.3L499.5 400.9L501.4 390.5L503.9 380.3L507.1 370.2L510.9 360.5L515.2 351L520 341.9L525.2 333.2L530.7 325.1L536.4 317.5L542.2 310.4L548.1 304.1L553.9 298.4L559.5 293.5L564.9 289.3L569.9 286L574.5 283.4L578.5 281.8L581.9 281.1L584.6 281.2L586.5 282.3L587.6 284.3L587.8 287.2L587 291L585.2 295.7L582.5 301.4L578.7 307.9L573.9 315.2L568 323.4L561.1 332.3L553.3 342L544.5 352.4L534.8 363.5L524.3 375.2L513 387.4L501 400.1L488.4 413.2L475.4 426.7L461.9 440.6L448.2 454.6L434.3 468.9L420.4 483.2L406.5 497.6L392.8 512L379.5 526.2L366.6 540.3L354.3 554.2L342.7 567.7L331.9 580.9L322 593.7L313.1 605.9L305.4 617.7L298.8 628.8L293.6 639.3L289.7 649.1L287.2 658.2L286.1 666.5L286.6 674L288.5 680.7L292 686.5L297 691.4L303.5 695.5L311.4 698.7L320.8 701L331.5 702.4L343.5 703L356.7 702.6L371.1 701.5L386.4 699.5L402.7 696.6L419.8 693L437.5 688.7L455.7 683.7L474.4 678L493.3 671.7L512.3 664.9L531.3 657.5L550.2 649.7L568.6 641.5L586.7 632.9L604.1 624.1L620.8 615L636.7 605.8L651.6 596.5L665.3 587.1L678 577.7L689.3 568.5L699.3 559.3L707.8 550.4L714.9 541.7L720.5 533.2L724.5 525.1L726.9 517.5L727.8 510.2L727 503.4L724.8 497.1L721 491.3L715.8 486.1L709.2 481.4L701.3 477.3L692.1 473.9L681.7 471.1L670.3 468.8L658 467.2L644.8 466.2L630.9 465.8L616.4 466L601.4 466.7L586.1 468L570.6 469.8L555 472.1L539.5 474.8L524.2 478L509.1 481.5L494.5 485.3L480.4 489.4L467 493.8L454.3 498.3L442.4 502.9L431.4 507.7L421.4 512.4L412.4 517.2L404.4 521.8L397.6 526.3L391.9 530.7L387.3 534.8L383.9 538.6L381.6 542.1L380.4 545.2L380.2 547.9L381.1 550.1L383 551.9L385.8 553.1L389.4 553.8L393.8 553.9L398.8 553.3L404.5 552.2L410.6 550.5L417.2 548.1L424 545.1L431.1 541.4L438.2 537.1L445.4 532.2L452.5 526.7L459.3 520.6L465.9 514L472.2 506.8L478 499.1L483.3 490.9L488 482.4L492.1 473.4L495.5 464.1L498.2 454.6L500.2 444.8L501.4 434.8L501.9 424.7L501.6 414.6L500.6 404.5L498.8 394.4L496.4 384.4L493.3 374.6L489.7 365.1L485.5 355.9L480.9 347L475.9 338.5L470.6 330.6L465 323.1L459.4 316.2L453.7 310L448 304.4L442.5 299.6L437.3 295.5L432.4 292.2L427.9 289.6L424 288L420.6 287.2L417.9 287.3L416 288.2L414.9 290.1L414.7 292.8L415.3 296.5L417 301L419.6 306.4L423.2 312.7L427.8 319.8L433.4 327.6L440 336.3L447.6 345.7L456 355.7L465.4 366.4L475.6 377.7L486.5 389.5L498.1 401.9L510.2 414.6L522.9 427.7L536 441.2L549.3 454.8L562.8 468.7L576.3 482.6L589.8 496.6L603.1 510.5L616.1 524.4L628.7 538.1L640.7 551.6L652.1 564.8L662.6 577.6L672.3 590.1L681 602L688.6 613.5L695.1 624.4L700.3 634.6L704.2 644.2L706.8 653.1L707.9 661.2L707.6 668.6L705.8 675.1L702.5 680.9L697.8 685.8L691.6 689.8L684 693L675 695.3L664.7 696.7L653.1 697.3L640.4 697.1L626.5 696L611.6 694.1L595.9 691.4L579.3 688L562.2 683.8L544.4 679L526.3 673.5L508 667.4L489.5 660.8L471 653.7L452.7 646.1L434.7 638.2L417.1 629.9L400.1 621.3L383.8 612.5L368.3 603.6L353.8 594.5L340.3 585.4L327.9 576.3L316.8 567.3L307 558.4L298.6 549.6L291.6 541.2L286.1 532.9L282.1 525.1L279.6 517.5L278.6 510.4L279.2 503.8L281.2 497.6L284.8 492L289.7 486.8L296.1 482.3L303.7 478.3L312.5 474.9L322.5 472.1L333.5 469.8L345.5 468.2L358.2 467.2L371.7 466.8L385.7 466.9L400.3 467.6L415.1 468.8L430.2 470.5L445.3 472.7L460.4 475.3L475.3 478.3L490 481.7L504.2 485.4L517.9 489.4L531.1 493.6L543.5 498L555.1 502.5L565.9 507.1L575.7 511.7L584.5 516.3L592.3 520.9L599.1 525.3L604.7 529.5L609.2 533.5L612.7 537.2L615 540.6L616.2 543.7L616.5 546.4L615.7 548.6L613.9 550.3L611.3 551.5L607.8 552.2L603.6 552.4L598.8 551.9L593.3 550.9L587.4 549.2L581 547L574.4 544.1L567.6 540.6L560.6 536.4L553.6 531.7L546.8 526.4L540.1 520.5L533.6 514.1L527.5 507.2L521.9 499.7L516.7 491.8L512 483.5L508 474.9L504.6 465.9L501.9 456.6L500 447.1L498.7 437.4L498.2 427.6L498.4 417.8L499.3 407.9L501 398.1L503.3 388.4L506.2 378.9L509.7 369.6L513.7 360.6L518.2 351.9L523 343.7L528.2 335.9L533.5 328.6L539 321.9L544.6 315.8L550.1 310.3L555.4 305.5L560.6 301.5L565.4 298.2L569.7 295.7L573.6 294L576.9 293.1L579.6 293.2L581.5 294L582.7 295.8L583 298.4L582.4 301.9L580.9 306.2L578.4 311.4L575 317.4L570.6 324.2L565.2 331.8L558.9 340.1L551.6 349.2L543.4 358.9L534.4 369.3L524.6 380.2L514 391.7L502.8 403.6L491 416L478.7 428.7L466.1 441.7L453.1 455L440 468.4L426.8 482L413.7 495.6L400.8 509.2L388.1 522.7L375.8 536L364.1 549.1L353 562L342.7 574.5L333.2 586.6L324.7 598.3L317.2 609.5L310.8 620.1L305.6 630.1L301.7 639.5L299.2 648.1L298 656.1L298.2 663.3L299.8 669.8L302.8 675.4L307.3 680.2L313.2 684.2L320.5 687.4L329.1 689.7L339.1 691.2L350.2 691.8L362.5 691.6L375.9 690.6L390.3 688.8L405.5 686.3L421.6 683L438.2 679L455.4 674.4L473 669.1L490.8 663.3L508.8 656.9L526.8 650L544.6 642.7L562.1 635L579.2 626.9L595.8 618.6L611.7 610.1L626.8 601.4L641 592.6L654.3 583.7L666.4 574.9L677.3 566.1L686.9 557.4L695.2 548.9L702.1 540.7L707.6 532.7L711.6 525L714.2 517.6L715.2 510.7L714.8 504.2L712.9 498.1L709.5 492.6L704.8 487.6L698.8 483.1L691.5 479.2L683 475.8L673.4 473L662.7 470.8L651.2 469.2L638.8 468.2L625.8 467.7L612.2 467.8L598.1 468.4L583.7 469.6L569.1 471.2L554.3 473.3L539.7 475.8L525.1 478.7L510.9 481.9L497 485.5L483.6 489.4L470.8 493.4" opacity="0.1"/></g></svg>