<?xml version="1.0" encoding="UTF-8"?>
<svg width="515px" height="118px" viewBox="0 0 515 118" version="1.1" xmlns="http://www.w3.org/2000/svg" xmlns:xlink="http://www.w3.org/1999/xlink">
    <title>Circa Logo</title>
    <g id="Standard-Logo" stroke="none" stroke-width="1" fill="none" fill-rule="evenodd">
        <g id="Circa-Logo" transform="translate(0.000000, 0.852234)" fill-rule="nonzero">
            <g id="Circa-Icon" transform="translate(0.000000, 4.115330)">
                <polygon id="Path" fill="#59BBB4" points="66.814747 113 97.6049157 113 113 86.0771812 97.6049157 59.1543624 66.814747 59.1543624 51.4294872 86.0771812"></polygon>
                <polygon id="Path" fill="#172D67" points="66.8221154 0 51.4294872 26.9228188 66.8221154 53.8456376 97.6073718 53.8456376 113 26.9228188 97.6073718 0"></polygon>
                <polygon id="Path" fill="#685BC7" points="46.1754285 84.1812081 61.5705128 57.2633502 46.1754285 30.3355705 15.3950843 30.3355705 0 57.2633502 15.3950843 84.1812081"></polygon>
            </g>
            <path d="M250.792208,12.005701 C250.746286,8.81291647 252.016443,5.74236517 254.303371,3.51761354 C256.476648,1.24093266 259.494537,-0.0322335667 262.639227,0.00093943625 C265.805598,-0.0400206027 268.842024,1.26006603 271.000343,3.58086308 C273.249755,5.85695298 274.49209,8.94259866 274.448356,12.14485 C274.506523,15.2276201 273.252837,18.1896764 271.000343,20.29139 C266.265807,24.7117264 258.924237,24.7117264 254.189701,20.29139 C251.936833,18.1359646 250.702145,15.1248478 250.792208,12.005701 M274.410466,28.6656284 L274.410466,101.668241 C274.530074,103.09025 274.853348,104.487625 275.370352,105.81741 C276.001857,108.043794 277.97215,110.700274 281.255972,113.774202 L243.70673,113.774202 C246.780051,111.446619 248.741924,109.270835 249.59235,107.24685 C250.442775,105.222865 250.863778,101.980272 250.855358,97.5190714 L250.855358,50.5373173 L250.855358,46.5146469 L250.855358,28.6656284 C252.563602,30.0399965 254.500385,31.1019747 256.576787,31.8028053 C260.519448,33.1530737 264.80653,33.0994569 268.714298,31.6510064 C270.738023,30.9520236 272.642217,29.9450991 274.359946,28.6656284" id="Shape" fill="#685BC7"></path>
            <path d="M318.428767,28.7251697 L318.428767,41.1513288 L321.789842,37.4854223 C326.844089,32.7071027 333.460941,30.3179429 341.640397,30.3179429 L347.718129,30.7983031 L347.718129,52.1364074 C345.517424,50.6412304 343.172298,49.3707599 340.717997,48.3440903 C338.788158,47.5966167 336.734923,47.2192421 334.665536,47.2316773 C323.8326,47.2316773 318.420344,53.8134543 318.428767,66.9770084 L318.428767,101.67671 C318.76877,106.533725 321.280234,110.978283 325.264636,113.774202 L288.014835,113.774202 C289.553444,112.563537 290.944482,111.176144 292.159318,109.640576 C292.98664,108.598725 293.655158,107.44003 294.14311,106.202208 C294.513554,105.117671 294.755289,103.99333 294.86334,102.852328 C294.964425,101.689351 295.014968,99.9322442 295.014968,97.5936486 L295.014968,51.8456631 C295.090781,44.151473 295.158171,36.4530693 295.217137,28.7504518" id="Path" fill="#685BC7"></path>
            <path d="M439.988937,50.1173559 L439.988937,31.3756919 C445.614902,30.4449388 451.288313,29.8281207 456.98284,29.5281004 C461.951702,29.1542949 466.943795,29.2178128 471.901539,29.7179215 C475.813083,30.1357467 479.674126,30.9368419 483.429048,32.1096666 C486.007131,32.8636195 488.468437,33.9708731 490.74288,35.3998979 C491.625833,35.9783557 492.471117,36.6123714 493.273618,37.2981083 C495.676705,39.0539304 497.564512,41.422625 498.740011,44.1569752 C499.473925,46.3462446 499.853535,50.4843433 499.853535,56.6851639 L499.853535,86.8034356 C499.748245,89.3969449 499.960719,91.9935938 500.48622,94.5354793 C500.996379,96.073191 502.042939,97.3758836 503.434529,98.2053528 C504.978279,99.2177316 507.399351,99.7239211 510.697746,99.7239211 L515,99.5594095 L504.003945,114.745093 C501.506609,115.448052 498.939156,115.872459 496.348464,116.010566 C490.438798,116.16112 484.727626,113.872801 480.556661,109.683198 C478.89914,108.21118 477.641107,106.343565 476.899745,104.254317 C476.46952,102.65982 476.254407,99.0026011 476.254407,93.257351 L476.254407,73.5665817 L472.458301,74.8320553 L466.131457,76.2620405 C459.543103,77.9493386 454.945597,79.7842754 452.338937,81.7668507 C449.782344,83.6357562 448.317908,86.6501834 448.428947,89.8152628 C448.428947,97.4671598 453.532601,101.297327 463.73991,101.305763 C465.433102,101.329659 467.125533,101.219642 468.801385,100.97674 C471.660217,100.484702 474.490342,99.8383663 477.279356,99.0405653 L481.897952,108.734093 C480.910964,109.164354 472.572184,112.682371 470.838629,113.264489 C465.004678,115.34983 458.818228,116.26992 452.629972,115.972602 C448.521125,115.955371 444.459649,115.093906 440.697544,113.441655 C437.916851,112.148352 435.372083,110.398947 433.168599,108.265868 C427.961922,103.509358 425.018436,96.7663782 425.069567,89.7140249 C425.069567,77.4895499 434.239945,69.6225223 452.579357,66.1129422 L462.33535,64.0375655 C464.486477,63.6199592 466.283301,63.2276624 467.611938,62.9239488 C468.758506,62.7024472 469.884429,62.3849613 470.977819,61.9748436 C472.444391,61.5402285 473.759606,60.7028058 474.773926,59.557789 C475.350171,58.7826633 475.755564,57.8941745 475.963372,56.9509134 C476.52333,54.9369833 476.579819,52.816291 476.12787,50.7754022 C475.359066,48.3211873 473.874028,46.1529394 471.863577,44.5492721 C468.447082,41.917087 464.587707,42.0183249 461.361016,42.0183249 C457.451173,42.1470289 453.616495,43.1273712 450.124541,44.8909499" id="Path" fill="#685BC7"></path>
            <path d="M235.732874,111.788024 L230.017318,113.179347 C230.017318,113.179347 223.694799,114.583319 218.194208,115.228387 C206.663153,116.364451 195.021324,115.208126 183.938803,111.825969 C178.160021,109.890764 170.77532,107.361085 163.137718,100.720678 C157.483006,95.7102271 152.972056,89.5416128 149.911009,82.6334739 C146.598653,75.7651311 144.841411,68.2506027 144.764479,60.6252673 C144.764479,44.8653676 150.821452,31.6688759 162.935397,21.0357921 C175.049342,10.4027084 190.126441,5.08195038 208.166694,5.07351812 C212.320293,5.03079157 216.471201,5.30139101 220.58412,5.88301537 C224.01514,6.42268021 229.031005,7.56525186 235.631714,9.31073032 L235.631714,32.3434569 C232.821193,30.231909 229.726228,28.5285876 226.438772,27.2840991 C224.060461,26.4064529 221.604959,25.7543019 219.104651,25.3362463 C213.458012,24.1258144 207.629741,24.0270039 201.945336,25.0453332 C198.442661,25.7409949 190.868284,27.2461539 184.596345,33.6082964 C178.324407,39.9704389 177.009323,47.3065078 176.313846,51.063081 C175.89656,53.2639016 172.760591,71.3890511 184.748086,83.948907 C188.595741,87.8192643 193.281198,90.7533211 198.442661,92.5245185 C203.977372,94.5853542 209.886371,95.4475816 215.779006,95.0541974 C220.410426,94.6955745 224.977852,93.7520973 229.372421,92.2462538 C231.63188,91.3751322 233.793435,90.2686306 235.82139,88.9450228 L235.732874,88.9450228" id="Path" fill="#685BC7"></path>
            <path d="M419.698853,112.987744 L415.196652,114.075798 C415.196652,114.075798 410.137999,115.189157 405.876084,115.695229 C396.791333,116.587674 387.619843,115.676169 378.888171,113.013047 C372.858868,111.270561 367.259334,108.288668 362.447549,104.258001 C357.992547,100.31727 354.438329,95.4627447 352.026724,90.0247261 C349.460951,84.6010518 348.118236,78.6794587 348.093622,72.679108 C348.093622,60.2634747 352.865618,49.8679121 362.409609,41.4924203 C371.953601,33.1169286 383.833004,28.9249654 398.047819,28.9165309 C401.317674,28.8821081 404.585491,29.0935668 407.823666,29.5491209 C410.530045,29.9792821 414.48001,30.8817772 419.67356,32.2566061 L419.67356,50.3992877 C417.463931,48.7269961 415.028387,47.3766758 412.439686,46.388667 C410.564353,45.7016181 408.629647,45.1891562 406.660175,44.8577992 C402.211747,43.9004264 397.619051,43.8230622 393.140926,44.6300668 C388.000432,45.4101683 383.228377,47.7662283 379.482563,51.3734763 C375.929741,55.1665525 373.648511,59.9741322 372.956901,65.1259832 C372.628088,66.8592799 370.161995,81.1431624 379.596382,90.986263 C382.622159,94.0418625 386.314615,96.35438 390.38396,97.7423243 C394.747789,99.3507614 399.403035,100.014836 404.042323,99.6907015 C407.692872,99.4142079 411.292851,98.6701067 414.75402,97.4766365 C416.522631,96.809229 418.217799,95.9612987 419.812673,94.9462765 L419.74944,94.9462765" id="Path" fill="#685BC7"></path>
        </g>
    </g>
</svg>