<svg width="224" height="40" viewBox="0 0 224 40" fill="none" xmlns="http://www.w3.org/2000/svg">
<g clip-path="url(#clip0_216_2)">
<g filter="url(#filter0_ddi_216_2)">
<mask id="path-1-inside-1_216_2" fill="white">
<path d="M23.897 4.97198C23.2822 6.62068 23.9404 8.83375 25.0454 8.83375H33.0756C33.8389 8.83375 34.4577 9.9447 34.4577 11.3151V37.5186C34.4577 38.889 33.8389 40 33.0756 40H19.7257C19.1912 40 18.7579 39.222 18.7579 38.2623C18.7579 37.3026 18.3246 36.5246 17.7901 36.5246H16.3255C15.5622 36.5246 14.9435 35.4136 14.9435 34.0432V31.5618C14.9435 30.1914 15.5622 29.0804 16.3255 29.0804H17.4179C18.1579 29.0804 18.7579 28.0032 18.7579 26.6745C18.7579 24.2964 17.0411 23.3599 16.3043 25.336L11.2474 38.899C10.9909 39.587 10.5602 40 10.099 40H1.38435C0.27934 40 -0.378799 37.7869 0.235911 36.1382L13.2994 1.10101C13.5559 0.412973 13.9867 0 14.4478 0H23.1625C24.2675 0 24.9256 2.21307 24.3109 3.86177L23.897 4.97198Z"/>
<path fill-rule="evenodd" clip-rule="evenodd" d="M57.1779 12.1169C56.5632 13.7656 57.2214 15.9787 58.3264 15.9787H66.1886C66.9518 15.9787 67.5706 17.0897 67.5706 18.4601V37.5172C67.5706 38.8876 66.9518 39.9985 66.1886 39.9985H61.9223C61.922 39.9985 61.9217 39.9988 61.9216 39.9993C61.9214 39.9997 61.9211 40 61.9208 40H37.3292C36.2242 40 35.5661 37.7869 36.1808 36.1382L49.2443 1.10101C49.5008 0.412973 49.9316 0 50.3927 0H59.1074C60.2124 0 60.8706 2.21307 60.2558 3.86177L57.1779 12.1169ZM50.7882 29.2547C50.2156 30.7906 50.8287 32.8521 51.858 32.8521C52.2876 32.8521 52.6889 32.4674 52.9279 31.8265L55.04 26.1615C55.1363 25.9034 55.1877 25.5997 55.1877 25.289C55.1877 24.4228 54.7966 23.7206 54.3141 23.7206H53.5895C53.1284 23.7206 52.6976 24.1336 52.4411 24.8216L50.7882 29.2547Z"/>
<path d="M89.9475 26.8751C90.5818 27.6375 90.7518 29.1787 90.3272 30.3175L87.1276 38.899C86.8711 39.587 86.4403 40 85.9792 40H74.6766C74.6764 40 74.6763 39.9996 74.6764 39.9993C74.6765 39.999 74.6764 39.9985 74.6762 39.9985H69.616C68.8527 39.9985 68.234 38.8876 68.234 37.5172V25.805C68.234 24.4346 68.8527 23.3236 69.616 23.3236H75.531C76.2943 23.3236 76.9131 24.4411 76.9131 25.8116C76.9131 28.2642 78.6836 29.2517 79.4435 27.2135L82.0124 20.3236C82.4371 19.1848 83.2954 18.8796 83.9297 19.6419L89.9475 26.8751Z"/>
<path d="M100.636 38.899C100.38 39.587 99.9491 40 99.4879 40H90.7733C89.6682 40 89.0101 37.7869 89.6248 36.1382L98.995 11.0067C99.6097 9.35802 98.9515 7.14495 97.8465 7.14495H90.125C89.3617 7.14495 88.743 6.03399 88.743 4.66356V2.48139C88.743 1.11096 89.3617 0 90.125 0H112.551C113.656 0 114.315 2.21307 113.7 3.86177L100.636 38.899Z"/>
<path d="M127.242 2.23252C126.887 3.18565 127.267 4.46505 127.906 4.46505H132.249C133.013 4.46505 133.631 5.576 133.631 6.94644V18.6586C133.631 20.029 133.013 21.14 132.249 21.14H123.404C122.946 21.14 122.575 20.4733 122.575 19.6509C122.575 18.1791 121.513 17.5995 121.057 18.8226L113.571 38.899C113.315 39.587 112.884 40 112.423 40H103.708C102.603 40 101.945 37.7869 102.56 36.1382L115.623 1.10101C115.88 0.412973 116.31 0 116.772 0H126.578C127.217 0 127.597 1.2794 127.242 2.23252Z"/>
<path d="M151.706 4.97198C151.091 6.62068 151.75 8.83375 152.855 8.83375H160.885C161.648 8.83375 162.267 9.9447 162.267 11.3151V37.5186C162.267 38.889 161.648 40 160.885 40H147.535C147 40 146.567 39.222 146.567 38.2623C146.567 37.3026 146.134 36.5246 145.599 36.5246H144.246C143.482 36.5246 142.864 35.4136 142.864 34.0432V31.5618C142.864 30.1914 143.482 29.0804 144.246 29.0804H145.227C145.967 29.0804 146.567 28.0032 146.567 26.6745C146.567 24.2964 144.85 23.3599 144.113 25.336L139.057 38.899C138.8 39.587 138.369 40 137.908 40H129.193C128.088 40 127.43 37.7869 128.045 36.1382L141.108 1.10101C141.365 0.412973 141.796 0 142.257 0H150.972C152.077 0 152.735 2.21307 152.12 3.86177L151.706 4.97198Z"/>
<path d="M196.596 0C197.359 0 197.978 1.11096 197.978 2.48139V23.5236C197.978 24.894 197.359 26.005 196.596 26.005H183.219C182.7 26.005 182.278 25.2486 182.278 24.3157C182.278 22.6459 181.073 21.9884 180.556 23.3759L178.573 28.6926C177.959 30.3413 178.617 32.5544 179.722 32.5544H186.259C187.022 32.5544 187.641 33.6653 187.641 35.0358V37.5172C187.641 38.8876 187.022 39.9985 186.259 39.9985H174.359C174.358 39.9985 174.358 39.9988 174.358 39.9993C174.358 39.9997 174.357 40 174.357 40H164.905C163.8 40 163.142 37.7869 163.757 36.1382L176.82 1.10101C177.076 0.412973 177.507 0 177.968 0H196.596Z"/>
<path d="M210.701 38.899C210.444 39.587 210.013 40 209.552 40H200.838C199.733 40 199.074 37.7869 199.689 36.1382L209.059 11.0067C209.674 9.35802 209.016 7.14495 207.911 7.14495H200.023C199.26 7.14495 198.641 6.03399 198.641 4.66356V2.48139C198.641 1.11096 199.26 0 200.023 0H222.616C223.721 0 224.379 2.21307 223.764 3.86177L210.701 38.899Z"/>
<path d="M87.912 14.1921C87.912 15.5625 87.2933 16.6735 86.53 16.6735H81.0807C80.6196 16.6735 80.1888 17.0865 79.9323 17.7745L79.2717 19.5462C78.8471 20.6851 77.9888 20.9902 77.3545 20.2279L71.3366 12.9947C70.7023 12.2324 70.5324 10.6912 70.957 9.55235L74.108 1.10101C74.3646 0.412973 74.7953 0 75.2565 0H86.53C87.2933 0 87.912 1.11096 87.912 2.48139V14.1921Z"/>
</mask>
<path d="M23.897 4.97198C23.2822 6.62068 23.9404 8.83375 25.0454 8.83375H33.0756C33.8389 8.83375 34.4577 9.9447 34.4577 11.3151V37.5186C34.4577 38.889 33.8389 40 33.0756 40H19.7257C19.1912 40 18.7579 39.222 18.7579 38.2623C18.7579 37.3026 18.3246 36.5246 17.7901 36.5246H16.3255C15.5622 36.5246 14.9435 35.4136 14.9435 34.0432V31.5618C14.9435 30.1914 15.5622 29.0804 16.3255 29.0804H17.4179C18.1579 29.0804 18.7579 28.0032 18.7579 26.6745C18.7579 24.2964 17.0411 23.3599 16.3043 25.336L11.2474 38.899C10.9909 39.587 10.5602 40 10.099 40H1.38435C0.27934 40 -0.378799 37.7869 0.235911 36.1382L13.2994 1.10101C13.5559 0.412973 13.9867 0 14.4478 0H23.1625C24.2675 0 24.9256 2.21307 24.3109 3.86177L23.897 4.97198Z" fill="#FDF4CC" fill-opacity="0.95" shape-rendering="crispEdges"/>
<path d="M23.897 4.97198C23.2822 6.62068 23.9404 8.83375 25.0454 8.83375H33.0756C33.8389 8.83375 34.4577 9.9447 34.4577 11.3151V37.5186C34.4577 38.889 33.8389 40 33.0756 40H19.7257C19.1912 40 18.7579 39.222 18.7579 38.2623C18.7579 37.3026 18.3246 36.5246 17.7901 36.5246H16.3255C15.5622 36.5246 14.9435 35.4136 14.9435 34.0432V31.5618C14.9435 30.1914 15.5622 29.0804 16.3255 29.0804H17.4179C18.1579 29.0804 18.7579 28.0032 18.7579 26.6745C18.7579 24.2964 17.0411 23.3599 16.3043 25.336L11.2474 38.899C10.9909 39.587 10.5602 40 10.099 40H1.38435C0.27934 40 -0.378799 37.7869 0.235911 36.1382L13.2994 1.10101C13.5559 0.412973 13.9867 0 14.4478 0H23.1625C24.2675 0 24.9256 2.21307 24.3109 3.86177L23.897 4.97198Z" fill="url(#paint0_linear_216_2)" fill-opacity="0.3" shape-rendering="crispEdges"/>
<path fill-rule="evenodd" clip-rule="evenodd" d="M57.1779 12.1169C56.5632 13.7656 57.2214 15.9787 58.3264 15.9787H66.1886C66.9518 15.9787 67.5706 17.0897 67.5706 18.4601V37.5172C67.5706 38.8876 66.9518 39.9985 66.1886 39.9985H61.9223C61.922 39.9985 61.9217 39.9988 61.9216 39.9993C61.9214 39.9997 61.9211 40 61.9208 40H37.3292C36.2242 40 35.5661 37.7869 36.1808 36.1382L49.2443 1.10101C49.5008 0.412973 49.9316 0 50.3927 0H59.1074C60.2124 0 60.8706 2.21307 60.2558 3.86177L57.1779 12.1169ZM50.7882 29.2547C50.2156 30.7906 50.8287 32.8521 51.858 32.8521C52.2876 32.8521 52.6889 32.4674 52.9279 31.8265L55.04 26.1615C55.1363 25.9034 55.1877 25.5997 55.1877 25.289C55.1877 24.4228 54.7966 23.7206 54.3141 23.7206H53.5895C53.1284 23.7206 52.6976 24.1336 52.4411 24.8216L50.7882 29.2547Z" fill="#FDF4CC" fill-opacity="0.95" shape-rendering="crispEdges"/>
<path fill-rule="evenodd" clip-rule="evenodd" d="M57.1779 12.1169C56.5632 13.7656 57.2214 15.9787 58.3264 15.9787H66.1886C66.9518 15.9787 67.5706 17.0897 67.5706 18.4601V37.5172C67.5706 38.8876 66.9518 39.9985 66.1886 39.9985H61.9223C61.922 39.9985 61.9217 39.9988 61.9216 39.9993C61.9214 39.9997 61.9211 40 61.9208 40H37.3292C36.2242 40 35.5661 37.7869 36.1808 36.1382L49.2443 1.10101C49.5008 0.412973 49.9316 0 50.3927 0H59.1074C60.2124 0 60.8706 2.21307 60.2558 3.86177L57.1779 12.1169ZM50.7882 29.2547C50.2156 30.7906 50.8287 32.8521 51.858 32.8521C52.2876 32.8521 52.6889 32.4674 52.9279 31.8265L55.04 26.1615C55.1363 25.9034 55.1877 25.5997 55.1877 25.289C55.1877 24.4228 54.7966 23.7206 54.3141 23.7206H53.5895C53.1284 23.7206 52.6976 24.1336 52.4411 24.8216L50.7882 29.2547Z" fill="url(#paint1_linear_216_2)" fill-opacity="0.3" shape-rendering="crispEdges"/>
<path d="M89.9475 26.8751C90.5818 27.6375 90.7518 29.1787 90.3272 30.3175L87.1276 38.899C86.8711 39.587 86.4403 40 85.9792 40H74.6766C74.6764 40 74.6763 39.9996 74.6764 39.9993C74.6765 39.999 74.6764 39.9985 74.6762 39.9985H69.616C68.8527 39.9985 68.234 38.8876 68.234 37.5172V25.805C68.234 24.4346 68.8527 23.3236 69.616 23.3236H75.531C76.2943 23.3236 76.9131 24.4411 76.9131 25.8116C76.9131 28.2642 78.6836 29.2517 79.4435 27.2135L82.0124 20.3236C82.4371 19.1848 83.2954 18.8796 83.9297 19.6419L89.9475 26.8751Z" fill="#FDF4CC" fill-opacity="0.95" shape-rendering="crispEdges"/>
<path d="M89.9475 26.8751C90.5818 27.6375 90.7518 29.1787 90.3272 30.3175L87.1276 38.899C86.8711 39.587 86.4403 40 85.9792 40H74.6766C74.6764 40 74.6763 39.9996 74.6764 39.9993C74.6765 39.999 74.6764 39.9985 74.6762 39.9985H69.616C68.8527 39.9985 68.234 38.8876 68.234 37.5172V25.805C68.234 24.4346 68.8527 23.3236 69.616 23.3236H75.531C76.2943 23.3236 76.9131 24.4411 76.9131 25.8116C76.9131 28.2642 78.6836 29.2517 79.4435 27.2135L82.0124 20.3236C82.4371 19.1848 83.2954 18.8796 83.9297 19.6419L89.9475 26.8751Z" fill="url(#paint2_linear_216_2)" fill-opacity="0.3" shape-rendering="crispEdges"/>
<path d="M100.636 38.899C100.38 39.587 99.9491 40 99.4879 40H90.7733C89.6682 40 89.0101 37.7869 89.6248 36.1382L98.995 11.0067C99.6097 9.35802 98.9515 7.14495 97.8465 7.14495H90.125C89.3617 7.14495 88.743 6.03399 88.743 4.66356V2.48139C88.743 1.11096 89.3617 0 90.125 0H112.551C113.656 0 114.315 2.21307 113.7 3.86177L100.636 38.899Z" fill="#FDF4CC" fill-opacity="0.95" shape-rendering="crispEdges"/>
<path d="M100.636 38.899C100.38 39.587 99.9491 40 99.4879 40H90.7733C89.6682 40 89.0101 37.7869 89.6248 36.1382L98.995 11.0067C99.6097 9.35802 98.9515 7.14495 97.8465 7.14495H90.125C89.3617 7.14495 88.743 6.03399 88.743 4.66356V2.48139C88.743 1.11096 89.3617 0 90.125 0H112.551C113.656 0 114.315 2.21307 113.7 3.86177L100.636 38.899Z" fill="url(#paint3_linear_216_2)" fill-opacity="0.3" shape-rendering="crispEdges"/>
<path d="M127.242 2.23252C126.887 3.18565 127.267 4.46505 127.906 4.46505H132.249C133.013 4.46505 133.631 5.576 133.631 6.94644V18.6586C133.631 20.029 133.013 21.14 132.249 21.14H123.404C122.946 21.14 122.575 20.4733 122.575 19.6509C122.575 18.1791 121.513 17.5995 121.057 18.8226L113.571 38.899C113.315 39.587 112.884 40 112.423 40H103.708C102.603 40 101.945 37.7869 102.56 36.1382L115.623 1.10101C115.88 0.412973 116.31 0 116.772 0H126.578C127.217 0 127.597 1.2794 127.242 2.23252Z" fill="#FDF4CC" fill-opacity="0.95" shape-rendering="crispEdges"/>
<path d="M127.242 2.23252C126.887 3.18565 127.267 4.46505 127.906 4.46505H132.249C133.013 4.46505 133.631 5.576 133.631 6.94644V18.6586C133.631 20.029 133.013 21.14 132.249 21.14H123.404C122.946 21.14 122.575 20.4733 122.575 19.6509C122.575 18.1791 121.513 17.5995 121.057 18.8226L113.571 38.899C113.315 39.587 112.884 40 112.423 40H103.708C102.603 40 101.945 37.7869 102.56 36.1382L115.623 1.10101C115.88 0.412973 116.31 0 116.772 0H126.578C127.217 0 127.597 1.2794 127.242 2.23252Z" fill="url(#paint4_linear_216_2)" fill-opacity="0.3" shape-rendering="crispEdges"/>
<path d="M151.706 4.97198C151.091 6.62068 151.75 8.83375 152.855 8.83375H160.885C161.648 8.83375 162.267 9.9447 162.267 11.3151V37.5186C162.267 38.889 161.648 40 160.885 40H147.535C147 40 146.567 39.222 146.567 38.2623C146.567 37.3026 146.134 36.5246 145.599 36.5246H144.246C143.482 36.5246 142.864 35.4136 142.864 34.0432V31.5618C142.864 30.1914 143.482 29.0804 144.246 29.0804H145.227C145.967 29.0804 146.567 28.0032 146.567 26.6745C146.567 24.2964 144.85 23.3599 144.113 25.336L139.057 38.899C138.8 39.587 138.369 40 137.908 40H129.193C128.088 40 127.43 37.7869 128.045 36.1382L141.108 1.10101C141.365 0.412973 141.796 0 142.257 0H150.972C152.077 0 152.735 2.21307 152.12 3.86177L151.706 4.97198Z" fill="#FDF4CC" fill-opacity="0.95" shape-rendering="crispEdges"/>
<path d="M151.706 4.97198C151.091 6.62068 151.75 8.83375 152.855 8.83375H160.885C161.648 8.83375 162.267 9.9447 162.267 11.3151V37.5186C162.267 38.889 161.648 40 160.885 40H147.535C147 40 146.567 39.222 146.567 38.2623C146.567 37.3026 146.134 36.5246 145.599 36.5246H144.246C143.482 36.5246 142.864 35.4136 142.864 34.0432V31.5618C142.864 30.1914 143.482 29.0804 144.246 29.0804H145.227C145.967 29.0804 146.567 28.0032 146.567 26.6745C146.567 24.2964 144.85 23.3599 144.113 25.336L139.057 38.899C138.8 39.587 138.369 40 137.908 40H129.193C128.088 40 127.43 37.7869 128.045 36.1382L141.108 1.10101C141.365 0.412973 141.796 0 142.257 0H150.972C152.077 0 152.735 2.21307 152.12 3.86177L151.706 4.97198Z" fill="url(#paint5_linear_216_2)" fill-opacity="0.3" shape-rendering="crispEdges"/>
<path d="M196.596 0C197.359 0 197.978 1.11096 197.978 2.48139V23.5236C197.978 24.894 197.359 26.005 196.596 26.005H183.219C182.7 26.005 182.278 25.2486 182.278 24.3157C182.278 22.6459 181.073 21.9884 180.556 23.3759L178.573 28.6926C177.959 30.3413 178.617 32.5544 179.722 32.5544H186.259C187.022 32.5544 187.641 33.6653 187.641 35.0358V37.5172C187.641 38.8876 187.022 39.9985 186.259 39.9985H174.359C174.358 39.9985 174.358 39.9988 174.358 39.9993C174.358 39.9997 174.357 40 174.357 40H164.905C163.8 40 163.142 37.7869 163.757 36.1382L176.82 1.10101C177.076 0.412973 177.507 0 177.968 0H196.596Z" fill="#FDF4CC" fill-opacity="0.95" shape-rendering="crispEdges"/>
<path d="M196.596 0C197.359 0 197.978 1.11096 197.978 2.48139V23.5236C197.978 24.894 197.359 26.005 196.596 26.005H183.219C182.7 26.005 182.278 25.2486 182.278 24.3157C182.278 22.6459 181.073 21.9884 180.556 23.3759L178.573 28.6926C177.959 30.3413 178.617 32.5544 179.722 32.5544H186.259C187.022 32.5544 187.641 33.6653 187.641 35.0358V37.5172C187.641 38.8876 187.022 39.9985 186.259 39.9985H174.359C174.358 39.9985 174.358 39.9988 174.358 39.9993C174.358 39.9997 174.357 40 174.357 40H164.905C163.8 40 163.142 37.7869 163.757 36.1382L176.82 1.10101C177.076 0.412973 177.507 0 177.968 0H196.596Z" fill="url(#paint6_linear_216_2)" fill-opacity="0.3" shape-rendering="crispEdges"/>
<path d="M210.701 38.899C210.444 39.587 210.013 40 209.552 40H200.838C199.733 40 199.074 37.7869 199.689 36.1382L209.059 11.0067C209.674 9.35802 209.016 7.14495 207.911 7.14495H200.023C199.26 7.14495 198.641 6.03399 198.641 4.66356V2.48139C198.641 1.11096 199.26 0 200.023 0H222.616C223.721 0 224.379 2.21307 223.764 3.86177L210.701 38.899Z" fill="#FDF4CC" fill-opacity="0.95" shape-rendering="crispEdges"/>
<path d="M210.701 38.899C210.444 39.587 210.013 40 209.552 40H200.838C199.733 40 199.074 37.7869 199.689 36.1382L209.059 11.0067C209.674 9.35802 209.016 7.14495 207.911 7.14495H200.023C199.26 7.14495 198.641 6.03399 198.641 4.66356V2.48139C198.641 1.11096 199.26 0 200.023 0H222.616C223.721 0 224.379 2.21307 223.764 3.86177L210.701 38.899Z" fill="url(#paint7_linear_216_2)" fill-opacity="0.3" shape-rendering="crispEdges"/>
<path d="M87.912 14.1921C87.912 15.5625 87.2933 16.6735 86.53 16.6735H81.0807C80.6196 16.6735 80.1888 17.0865 79.9323 17.7745L79.2717 19.5462C78.8471 20.6851 77.9888 20.9902 77.3545 20.2279L71.3366 12.9947C70.7023 12.2324 70.5324 10.6912 70.957 9.55235L74.108 1.10101C74.3646 0.412973 74.7953 0 75.2565 0H86.53C87.2933 0 87.912 1.11096 87.912 2.48139V14.1921Z" fill="#FDF4CC" fill-opacity="0.95" shape-rendering="crispEdges"/>
<path d="M87.912 14.1921C87.912 15.5625 87.2933 16.6735 86.53 16.6735H81.0807C80.6196 16.6735 80.1888 17.0865 79.9323 17.7745L79.2717 19.5462C78.8471 20.6851 77.9888 20.9902 77.3545 20.2279L71.3366 12.9947C70.7023 12.2324 70.5324 10.6912 70.957 9.55235L74.108 1.10101C74.3646 0.412973 74.7953 0 75.2565 0H86.53C87.2933 0 87.912 1.11096 87.912 2.48139V14.1921Z" fill="url(#paint8_linear_216_2)" fill-opacity="0.3" shape-rendering="crispEdges"/>
<path d="M23.897 4.97198C23.2822 6.62068 23.9404 8.83375 25.0454 8.83375H33.0756C33.8389 8.83375 34.4577 9.9447 34.4577 11.3151V37.5186C34.4577 38.889 33.8389 40 33.0756 40H19.7257C19.1912 40 18.7579 39.222 18.7579 38.2623C18.7579 37.3026 18.3246 36.5246 17.7901 36.5246H16.3255C15.5622 36.5246 14.9435 35.4136 14.9435 34.0432V31.5618C14.9435 30.1914 15.5622 29.0804 16.3255 29.0804H17.4179C18.1579 29.0804 18.7579 28.0032 18.7579 26.6745C18.7579 24.2964 17.0411 23.3599 16.3043 25.336L11.2474 38.899C10.9909 39.587 10.5602 40 10.099 40H1.38435C0.27934 40 -0.378799 37.7869 0.235911 36.1382L13.2994 1.10101C13.5559 0.412973 13.9867 0 14.4478 0H23.1625C24.2675 0 24.9256 2.21307 24.3109 3.86177L23.897 4.97198Z" stroke="#DACFC3" stroke-width="1.73774" shape-rendering="crispEdges" mask="url(#path-1-inside-1_216_2)"/>
<path fill-rule="evenodd" clip-rule="evenodd" d="M57.1779 12.1169C56.5632 13.7656 57.2214 15.9787 58.3264 15.9787H66.1886C66.9518 15.9787 67.5706 17.0897 67.5706 18.4601V37.5172C67.5706 38.8876 66.9518 39.9985 66.1886 39.9985H61.9223C61.922 39.9985 61.9217 39.9988 61.9216 39.9993C61.9214 39.9997 61.9211 40 61.9208 40H37.3292C36.2242 40 35.5661 37.7869 36.1808 36.1382L49.2443 1.10101C49.5008 0.412973 49.9316 0 50.3927 0H59.1074C60.2124 0 60.8706 2.21307 60.2558 3.86177L57.1779 12.1169ZM50.7882 29.2547C50.2156 30.7906 50.8287 32.8521 51.858 32.8521C52.2876 32.8521 52.6889 32.4674 52.9279 31.8265L55.04 26.1615C55.1363 25.9034 55.1877 25.5997 55.1877 25.289C55.1877 24.4228 54.7966 23.7206 54.3141 23.7206H53.5895C53.1284 23.7206 52.6976 24.1336 52.4411 24.8216L50.7882 29.2547Z" stroke="#DACFC3" stroke-width="1.73774" shape-rendering="crispEdges" mask="url(#path-1-inside-1_216_2)"/>
<path d="M89.9475 26.8751C90.5818 27.6375 90.7518 29.1787 90.3272 30.3175L87.1276 38.899C86.8711 39.587 86.4403 40 85.9792 40H74.6766C74.6764 40 74.6763 39.9996 74.6764 39.9993C74.6765 39.999 74.6764 39.9985 74.6762 39.9985H69.616C68.8527 39.9985 68.234 38.8876 68.234 37.5172V25.805C68.234 24.4346 68.8527 23.3236 69.616 23.3236H75.531C76.2943 23.3236 76.9131 24.4411 76.9131 25.8116C76.9131 28.2642 78.6836 29.2517 79.4435 27.2135L82.0124 20.3236C82.4371 19.1848 83.2954 18.8796 83.9297 19.6419L89.9475 26.8751Z" stroke="#DACFC3" stroke-width="1.73774" shape-rendering="crispEdges" mask="url(#path-1-inside-1_216_2)"/>
<path d="M100.636 38.899C100.38 39.587 99.9491 40 99.4879 40H90.7733C89.6682 40 89.0101 37.7869 89.6248 36.1382L98.995 11.0067C99.6097 9.35802 98.9515 7.14495 97.8465 7.14495H90.125C89.3617 7.14495 88.743 6.03399 88.743 4.66356V2.48139C88.743 1.11096 89.3617 0 90.125 0H112.551C113.656 0 114.315 2.21307 113.7 3.86177L100.636 38.899Z" stroke="#DACFC3" stroke-width="1.73774" shape-rendering="crispEdges" mask="url(#path-1-inside-1_216_2)"/>
<path d="M127.242 2.23252C126.887 3.18565 127.267 4.46505 127.906 4.46505H132.249C133.013 4.46505 133.631 5.576 133.631 6.94644V18.6586C133.631 20.029 133.013 21.14 132.249 21.14H123.404C122.946 21.14 122.575 20.4733 122.575 19.6509C122.575 18.1791 121.513 17.5995 121.057 18.8226L113.571 38.899C113.315 39.587 112.884 40 112.423 40H103.708C102.603 40 101.945 37.7869 102.56 36.1382L115.623 1.10101C115.88 0.412973 116.31 0 116.772 0H126.578C127.217 0 127.597 1.2794 127.242 2.23252Z" stroke="#DACFC3" stroke-width="1.73774" shape-rendering="crispEdges" mask="url(#path-1-inside-1_216_2)"/>
<path d="M151.706 4.97198C151.091 6.62068 151.75 8.83375 152.855 8.83375H160.885C161.648 8.83375 162.267 9.9447 162.267 11.3151V37.5186C162.267 38.889 161.648 40 160.885 40H147.535C147 40 146.567 39.222 146.567 38.2623C146.567 37.3026 146.134 36.5246 145.599 36.5246H144.246C143.482 36.5246 142.864 35.4136 142.864 34.0432V31.5618C142.864 30.1914 143.482 29.0804 144.246 29.0804H145.227C145.967 29.0804 146.567 28.0032 146.567 26.6745C146.567 24.2964 144.85 23.3599 144.113 25.336L139.057 38.899C138.8 39.587 138.369 40 137.908 40H129.193C128.088 40 127.43 37.7869 128.045 36.1382L141.108 1.10101C141.365 0.412973 141.796 0 142.257 0H150.972C152.077 0 152.735 2.21307 152.12 3.86177L151.706 4.97198Z" stroke="#DACFC3" stroke-width="1.73774" shape-rendering="crispEdges" mask="url(#path-1-inside-1_216_2)"/>
<path d="M196.596 0C197.359 0 197.978 1.11096 197.978 2.48139V23.5236C197.978 24.894 197.359 26.005 196.596 26.005H183.219C182.7 26.005 182.278 25.2486 182.278 24.3157C182.278 22.6459 181.073 21.9884 180.556 23.3759L178.573 28.6926C177.959 30.3413 178.617 32.5544 179.722 32.5544H186.259C187.022 32.5544 187.641 33.6653 187.641 35.0358V37.5172C187.641 38.8876 187.022 39.9985 186.259 39.9985H174.359C174.358 39.9985 174.358 39.9988 174.358 39.9993C174.358 39.9997 174.357 40 174.357 40H164.905C163.8 40 163.142 37.7869 163.757 36.1382L176.82 1.10101C177.076 0.412973 177.507 0 177.968 0H196.596Z" stroke="#DACFC3" stroke-width="1.73774" shape-rendering="crispEdges" mask="url(#path-1-inside-1_216_2)"/>
<path d="M210.701 38.899C210.444 39.587 210.013 40 209.552 40H200.838C199.733 40 199.074 37.7869 199.689 36.1382L209.059 11.0067C209.674 9.35802 209.016 7.14495 207.911 7.14495H200.023C199.26 7.14495 198.641 6.03399 198.641 4.66356V2.48139C198.641 1.11096 199.26 0 200.023 0H222.616C223.721 0 224.379 2.21307 223.764 3.86177L210.701 38.899Z" stroke="#DACFC3" stroke-width="1.73774" shape-rendering="crispEdges" mask="url(#path-1-inside-1_216_2)"/>
<path d="M87.912 14.1921C87.912 15.5625 87.2933 16.6735 86.53 16.6735H81.0807C80.6196 16.6735 80.1888 17.0865 79.9323 17.7745L79.2717 19.5462C78.8471 20.6851 77.9888 20.9902 77.3545 20.2279L71.3366 12.9947C70.7023 12.2324 70.5324 10.6912 70.957 9.55235L74.108 1.10101C74.3646 0.412973 74.7953 0 75.2565 0H86.53C87.2933 0 87.912 1.11096 87.912 2.48139V14.1921Z" stroke="#DACFC3" stroke-width="1.73774" shape-rendering="crispEdges" mask="url(#path-1-inside-1_216_2)"/>
</g>
</g>
<defs>
<filter id="filter0_ddi_216_2" x="-9.26795" y="-8.10946" width="242.536" height="58.5359" filterUnits="userSpaceOnUse" color-interpolation-filters="sRGB">
<feFlood flood-opacity="0" result="BackgroundImageFix"/>
<feColorMatrix in="SourceAlpha" type="matrix" values="0 0 0 0 0 0 0 0 0 0 0 0 0 0 0 0 0 0 127 0" result="hardAlpha"/>
<feOffset dy="1.15849"/>
<feGaussianBlur stdDeviation="1.15849"/>
<feComposite in2="hardAlpha" operator="out"/>
<feColorMatrix type="matrix" values="0 0 0 0 0 0 0 0 0 0 0 0 0 0 0 0 0 0 0.15 0"/>
<feBlend mode="normal" in2="BackgroundImageFix" result="effect1_dropShadow_216_2"/>
<feColorMatrix in="SourceAlpha" type="matrix" values="0 0 0 0 0 0 0 0 0 0 0 0 0 0 0 0 0 0 127 0" result="hardAlpha"/>
<feOffset dy="1.15849"/>
<feGaussianBlur stdDeviation="4.63397"/>
<feComposite in2="hardAlpha" operator="out"/>
<feColorMatrix type="matrix" values="0 0 0 0 0 0 0 0 0 0 0 0 0 0 0 0 0 0 0.15 0"/>
<feBlend mode="normal" in2="effect1_dropShadow_216_2" result="effect2_dropShadow_216_2"/>
<feBlend mode="normal" in="SourceGraphic" in2="effect2_dropShadow_216_2" result="shape"/>
<feColorMatrix in="SourceAlpha" type="matrix" values="0 0 0 0 0 0 0 0 0 0 0 0 0 0 0 0 0 0 127 0" result="hardAlpha"/>
<feOffset dy="0.289623"/>
<feGaussianBlur stdDeviation="5.66214"/>
<feComposite in2="hardAlpha" operator="arithmetic" k2="-1" k3="1"/>
<feColorMatrix type="matrix" values="0 0 0 0 1 0 0 0 0 1 0 0 0 0 1 0 0 0 1 0"/>
<feBlend mode="normal" in2="shape" result="effect3_innerShadow_216_2"/>
</filter>
<linearGradient id="paint0_linear_216_2" x1="112" y1="0" x2="112" y2="40" gradientUnits="userSpaceOnUse">
<stop stop-color="#FDF4CC"/>
<stop offset="1" stop-color="#38362D"/>
</linearGradient>
<linearGradient id="paint1_linear_216_2" x1="112" y1="0" x2="112" y2="40" gradientUnits="userSpaceOnUse">
<stop stop-color="#FDF4CC"/>
<stop offset="1" stop-color="#38362D"/>
</linearGradient>
<linearGradient id="paint2_linear_216_2" x1="112" y1="0" x2="112" y2="40" gradientUnits="userSpaceOnUse">
<stop stop-color="#FDF4CC"/>
<stop offset="1" stop-color="#38362D"/>
</linearGradient>
<linearGradient id="paint3_linear_216_2" x1="112" y1="0" x2="112" y2="40" gradientUnits="userSpaceOnUse">
<stop stop-color="#FDF4CC"/>
<stop offset="1" stop-color="#38362D"/>
</linearGradient>
<linearGradient id="paint4_linear_216_2" x1="112" y1="0" x2="112" y2="40" gradientUnits="userSpaceOnUse">
<stop stop-color="#FDF4CC"/>
<stop offset="1" stop-color="#38362D"/>
</linearGradient>
<linearGradient id="paint5_linear_216_2" x1="112" y1="0" x2="112" y2="40" gradientUnits="userSpaceOnUse">
<stop stop-color="#FDF4CC"/>
<stop offset="1" stop-color="#38362D"/>
</linearGradient>
<linearGradient id="paint6_linear_216_2" x1="112" y1="0" x2="112" y2="40" gradientUnits="userSpaceOnUse">
<stop stop-color="#FDF4CC"/>
<stop offset="1" stop-color="#38362D"/>
</linearGradient>
<linearGradient id="paint7_linear_216_2" x1="112" y1="0" x2="112" y2="40" gradientUnits="userSpaceOnUse">
<stop stop-color="#FDF4CC"/>
<stop offset="1" stop-color="#38362D"/>
</linearGradient>
<linearGradient id="paint8_linear_216_2" x1="112" y1="0" x2="112" y2="40" gradientUnits="userSpaceOnUse">
<stop stop-color="#FDF4CC"/>
<stop offset="1" stop-color="#38362D"/>
</linearGradient>
<clipPath id="clip0_216_2">
<rect width="224" height="40" fill="white"/>
</clipPath>
</defs>
</svg>
