<?xml version="1.0" encoding="UTF-8"?>
<svg width="150px" height="36px" viewBox="0 0 150 36" version="1.1" xmlns="http://www.w3.org/2000/svg" xmlns:xlink="http://www.w3.org/1999/xlink">
    <!-- Generator: Sketch 60.1 (88133) - https://sketch.com -->
    <title>Group 23</title>
    <desc>Created with Sketch.</desc>
    <defs>
        <polygon id="path-1" points="0 0.5632 16.6505 0.5632 16.6505 27.4612 0 27.4612"></polygon>
        <polygon id="path-3" points="0.6551 0.1692 20.2241 0.1692 20.2241 26 0.6551 26"></polygon>
    </defs>
    <g id="Design-2020---component-schetsen" stroke="none" stroke-width="1" fill="none" fill-rule="evenodd">
        <g id="iPhone-8" transform="translate(-21.000000, -16.000000)">
            <g id="Group-23" transform="translate(21.000000, 15.000000)">
                <g id="Group-3" transform="translate(0.000000, 0.437400)">
                    <mask id="mask-2" fill="white">
                        <use xlink:href="#path-1"></use>
                    </mask>
                    <g id="Clip-2"></g>
                    <path d="M15.4595,12.0902 C14.9965,11.3562 14.3505,10.7792 13.5205,10.3642 C12.6895,9.9502 11.5995,9.7422 10.2465,9.7422 C9.6055,9.7422 9.0135,9.8252 8.4685,9.9912 C7.9225,10.1572 7.4475,10.3702 7.0445,10.6312 C6.6415,10.8932 6.2975,11.1892 6.0135,11.5212 C5.7285,11.8542 5.5265,12.1862 5.4075,12.5172 L5.3365,12.5172 L5.3365,0.5632 L-0.0005,0.5632 L-0.0005,27.4612 L5.3365,27.4612 L5.3365,18.8502 C5.3365,18.2812 5.3725,17.7362 5.4435,17.2142 C5.5155,16.6932 5.6625,16.2242 5.8885,15.8092 C6.1135,15.3942 6.4395,15.0612 6.8665,14.8122 C7.2935,14.5632 7.8515,14.4392 8.5385,14.4392 C9.2275,14.4392 9.7545,14.5812 10.1225,14.8652 C10.4895,15.1512 10.7635,15.5182 10.9405,15.9682 C11.1185,16.4192 11.2255,16.9112 11.2615,17.4442 C11.2965,17.9792 11.3135,18.4942 11.3135,18.9922 L11.3135,24.1262 C11.3135,25.9682 12.8075,27.4612 14.6485,27.4612 L16.6505,27.4612 L16.6505,17.9252 C16.6505,16.7642 16.5675,15.6842 16.4015,14.6882 C16.2355,13.6922 15.9215,12.8252 15.4595,12.0902" id="Fill-1" fill="#18243E" mask="url(#mask-2)"></path>
                </g>
                <path d="M31.5406,22.4192 C30.7936,23.2262 29.7436,23.6282 28.3926,23.6282 C27.0406,23.6282 25.9906,23.2262 25.2436,22.4192 C24.4956,21.6122 24.1226,20.5572 24.1226,19.2522 C24.1226,17.9482 24.4956,16.8932 25.2436,16.0862 C25.9906,15.2792 27.0406,14.8762 28.3926,14.8762 C29.7436,14.8762 30.7936,15.2792 31.5406,16.0862 C32.2876,16.8932 32.6616,17.9482 32.6616,19.2522 C32.6616,20.5572 32.2876,21.6122 31.5406,22.4192 M35.2056,12.6522 C34.3396,11.8572 33.3196,11.2472 32.1456,10.8192 C30.9716,10.3932 29.7206,10.1802 28.3926,10.1802 C27.0626,10.1802 25.8126,10.3932 24.6386,10.8192 C23.4646,11.2472 22.4436,11.8572 21.5786,12.6522 C20.7126,13.4472 20.0306,14.4012 19.5326,15.5172 C19.0346,16.6322 18.7856,17.8772 18.7856,19.2522 C18.7856,20.6282 19.0346,21.8732 19.5326,22.9882 C20.0306,24.1042 20.7126,25.0582 21.5786,25.8532 C22.4436,26.6482 23.4646,27.2582 24.6386,27.6852 C25.8126,28.1112 27.0626,28.3252 28.3926,28.3252 C29.7206,28.3252 30.9716,28.1112 32.1456,27.6852 C33.3196,27.2582 34.3396,26.6482 35.2056,25.8532 C36.0706,25.0582 36.7536,24.1042 37.2516,22.9882 C37.7496,21.8732 37.9986,20.6282 37.9986,19.2522 C37.9986,17.8772 37.7496,16.6322 37.2516,15.5172 C36.7536,14.4012 36.0706,13.4472 35.2056,12.6522" id="Fill-4" fill="#18243E"></path>
                <path d="M52.2476,22.4192 C51.5006,23.2262 50.4506,23.6282 49.0996,23.6282 C47.7466,23.6282 46.6976,23.2262 45.9506,22.4192 C45.2026,21.6122 44.8296,20.5572 44.8296,19.2522 C44.8296,17.9482 45.2026,16.8932 45.9506,16.0862 C46.6976,15.2792 47.7466,14.8762 49.0996,14.8762 C50.4506,14.8762 51.5006,15.2792 52.2476,16.0862 C52.9946,16.8932 53.3686,17.9482 53.3686,19.2522 C53.3686,20.5572 52.9946,21.6122 52.2476,22.4192 M55.9126,12.6522 C55.0466,11.8572 54.0266,11.2472 52.8526,10.8192 C51.6786,10.3932 50.4276,10.1802 49.0996,10.1802 C47.7696,10.1802 46.5186,10.3932 45.3456,10.8192 C44.1716,11.2472 43.1506,11.8572 42.2856,12.6522 C41.4196,13.4472 40.7376,14.4012 40.2396,15.5172 C39.7416,16.6322 39.4926,17.8772 39.4926,19.2522 C39.4926,20.6282 39.7416,21.8732 40.2396,22.9882 C40.7376,24.1042 41.4196,25.0582 42.2856,25.8532 C43.1506,26.6482 44.1716,27.2582 45.3456,27.6852 C46.5186,28.1112 47.7696,28.3252 49.0996,28.3252 C50.4276,28.3252 51.6786,28.1112 52.8526,27.6852 C54.0266,27.2582 55.0466,26.6482 55.9126,25.8532 C56.7776,25.0582 57.4606,24.1042 57.9586,22.9882 C58.4566,21.8732 58.7056,20.6282 58.7056,19.2522 C58.7056,17.8772 58.4566,16.6322 57.9586,15.5172 C57.4606,14.4012 56.7776,13.4472 55.9126,12.6522" id="Fill-6" fill="#18243E"></path>
                <path d="M71.229,10.1799 C70.042,10.1799 69.058,10.4469 68.276,10.9799 C67.494,11.5139 66.817,12.3149 66.248,13.3819 L66.176,13.3819 L66.176,10.6069 L60.839,10.6069 L60.839,27.8989 L66.176,27.8989 L66.176,20.6749 C66.176,19.8219 66.224,19.0379 66.319,18.3269 C66.414,17.6159 66.622,17.0049 66.942,16.4949 C67.262,15.9859 67.718,15.5879 68.311,15.3029 C68.904,15.0189 69.71,14.8759 70.731,14.8759 C71.134,14.8759 71.519,14.9069 71.887,14.9649 C72.254,15.0249 72.628,15.1139 73.008,15.2319 L73.008,10.3579 C72.747,10.2859 72.462,10.2399 72.154,10.2149 C71.845,10.1919 71.537,10.1799 71.229,10.1799" id="Fill-8" fill="#18243E"></path>
                <path d="M85.1763,21.4582 C85.1763,22.0042 85.0633,22.4792 84.8383,22.8812 C84.6133,23.2852 84.3103,23.6162 83.9313,23.8772 C83.5513,24.1392 83.1173,24.3402 82.6323,24.4822 C82.1463,24.6252 81.6413,24.6962 81.1193,24.6962 C80.5273,24.6962 79.9573,24.5422 79.4123,24.2332 C78.8663,23.9262 78.5943,23.4502 78.5943,22.8112 C78.5943,22.2182 78.7893,21.7552 79.1813,21.4232 C79.5723,21.0912 80.0463,20.8422 80.6043,20.6752 C81.1613,20.5102 81.7423,20.4082 82.3473,20.3732 C82.9523,20.3372 83.4563,20.3192 83.8603,20.3192 L85.1763,20.3192 L85.1763,21.4582 Z M88.4673,12.4922 C87.8633,11.7332 87.0563,11.1572 86.0483,10.7672 C85.0393,10.3752 83.7533,10.1802 82.1883,10.1802 C80.7643,10.1802 79.3883,10.4102 78.0603,10.8732 C76.7323,11.3362 75.5703,12.0292 74.5733,12.9542 L77.4193,15.8722 C77.9893,15.2312 78.6353,14.7282 79.3593,14.3602 C80.0823,13.9922 80.8823,13.8092 81.7603,13.8092 C82.6863,13.8092 83.4863,14.0882 84.1623,14.6452 C84.8383,15.2022 85.1763,15.9552 85.1763,16.9032 C84.4413,16.9032 83.6403,16.9162 82.7753,16.9392 C81.9083,16.9642 81.0433,17.0342 80.1773,17.1532 C79.3113,17.2712 78.4753,17.4552 77.6683,17.7042 C76.8623,17.9532 76.1443,18.3042 75.5163,18.7542 C74.8873,19.2052 74.3893,19.7742 74.0223,20.4622 C73.6543,21.1502 73.4703,21.9922 73.4703,22.9882 C73.4703,23.8662 73.6363,24.6372 73.9683,25.3012 C74.3003,25.9652 74.7513,26.5222 75.3213,26.9732 C75.8903,27.4242 76.5483,27.7622 77.2953,27.9872 C78.0423,28.2122 78.8193,28.3252 79.6253,28.3252 C80.7163,28.3252 81.7543,28.1232 82.7383,27.7202 C83.7233,27.3172 84.5123,26.6522 85.1053,25.7282 L85.1763,25.7282 L85.1763,27.8982 L90.0863,27.8982 L90.0863,19.1092 C90.0863,17.6632 89.9673,16.3882 89.7303,15.2852 C89.4923,14.1822 89.0723,13.2512 88.4673,12.4922 L88.4673,12.4922 Z" id="Fill-10" fill="#18243E"></path>
                <g id="Group-14" transform="translate(90.000000, 10.437400)">
                    <mask id="mask-4" fill="white">
                        <use xlink:href="#path-3"></use>
                    </mask>
                    <g id="Clip-13"></g>
                    <path d="M10.9371,11.5902 L10.8671,11.5902 L6.4181,0.1692 L0.6551,0.1692 L8.2341,17.6032 L7.8411,18.5992 C7.6521,19.0732 7.4741,19.4882 7.3091,19.8452 C7.1421,20.2002 6.9351,20.5032 6.6861,20.7522 C6.4371,21.0012 6.1221,21.1912 5.7441,21.3212 C5.3641,21.4512 4.8761,21.5172 4.2841,21.5172 C3.4301,21.5172 2.6001,21.3392 1.7931,20.9832 L1.0821,25.3602 C2.3631,25.7862 3.6911,26.0002 5.0671,26.0002 C6.3471,26.0002 7.3791,25.8752 8.1621,25.6262 C8.9451,25.3772 9.5911,25.0092 10.1021,24.5242 C10.6111,24.0362 11.0321,23.4382 11.3651,22.7272 C11.6971,22.0152 12.0411,21.1962 12.3961,20.2722 L20.2241,0.1692 L14.7451,0.1692 L10.9371,11.5902 Z" id="Fill-12" fill="#18243E" mask="url(#mask-4)"></path>
                </g>
                <path d="M117.646,22.7532 C117.391,22.4202 117.075,22.1452 116.697,21.9272 C116.319,21.7092 115.906,21.5702 115.46,21.5112 C115.013,21.4522 114.579,21.4792 114.158,21.5892 C113.736,21.7012 113.358,21.8842 113.026,22.1392 C112.692,22.3942 112.417,22.7102 112.2,23.0882 C111.981,23.4662 111.843,23.8782 111.784,24.3242 C111.724,24.7722 111.75,25.2062 111.862,25.6272 C111.973,26.0492 112.156,26.4262 112.412,26.7592 C112.666,27.0932 112.983,27.3672 113.361,27.5852 C113.739,27.8032 114.15,27.9412 114.597,28.0012 C115.043,28.0612 115.478,28.0342 115.9,27.9232 C116.322,27.8122 116.699,27.6282 117.032,27.3732 C117.365,27.1182 117.64,26.8032 117.858,26.4242 C118.076,26.0462 118.213,25.6342 118.273,25.1882 C118.333,24.7412 118.306,24.3072 118.195,23.8852 C118.083,23.4632 117.9,23.0862 117.646,22.7532" id="Fill-15" fill="#18243E"></path>
                <polygon id="Fill-17" fill="#18243E" points="113.0767 19.1848 118.3677 19.8878 120.5897 3.1698 115.2207 3.1448"></polygon>
                <path d="M143.4878,9.0696 C143.3148,8.9836 143.1168,8.9246 142.8918,8.8936 C142.6688,8.8636 142.4498,8.8476 142.2358,8.8476 L140.6778,8.8476 L140.6778,11.3066 L142.0838,11.3066 C142.2978,11.3066 142.5238,11.2986 142.7618,11.2846 C143.0018,11.2686 143.2178,11.2226 143.4118,11.1466 C143.6048,11.0706 143.7648,10.9506 143.8928,10.7886 C144.0198,10.6256 144.0838,10.3956 144.0838,10.1006 C144.0838,9.8256 144.0278,9.6066 143.9158,9.4436 C143.8038,9.2816 143.6618,9.1566 143.4878,9.0696" id="Fill-19" fill="#18243E"></path>
                <path d="M144.1148,17.6448 L141.8538,13.3238 L140.6778,13.3238 L140.6778,17.6448 L138.2958,17.6448 L138.2958,6.8318 L142.4798,6.8318 C143.0298,6.8318 143.5518,6.8858 144.0458,6.9928 C144.5398,7.0998 144.9718,7.2778 145.3438,7.5278 C145.7158,7.7768 146.0108,8.1128 146.2298,8.5358 C146.4488,8.9578 146.5578,9.4848 146.5578,10.1158 C146.5578,10.8788 146.3598,11.5288 145.9628,12.0628 C145.5648,12.5978 144.9848,12.9358 144.2208,13.0788 L146.9698,17.6448 L144.1148,17.6448 Z M136.5238,17.6448 L134.1418,17.6448 L134.1418,12.9718 L129.5138,12.9718 L129.5138,17.6448 L127.1318,17.6448 L127.1318,6.8318 L129.5138,6.8318 L129.5138,10.8648 L134.1418,10.8648 L134.1418,6.8318 L136.5238,6.8318 L136.5238,17.6448 Z M146.8468,3.2148 L124.0308,3.2038 L121.6988,20.3458 L146.4428,23.5268 C148.3298,23.7688 149.9998,22.2988 149.9998,20.3968 L149.9998,6.3708 C149.9998,4.6278 148.5888,3.2158 146.8468,3.2148 L146.8468,3.2148 Z" id="Fill-21" fill="#18243E"></path>
            </g>
        </g>
    </g>
</svg>