<svg xmlns="http://www.w3.org/2000/svg" xmlns:xlink="http://www.w3.org/1999/xlink" width="320" zoomAndPan="magnify" viewBox="0 0 240 239.999995" height="320" preserveAspectRatio="xMidYMid meet" version="1.0"><path fill="#ffffff" d="M 185.457031 157.496094 L 54.226562 81.730469 L 56.066406 78.550781 L 187.292969 154.316406 Z M 185.457031 157.496094 " fill-opacity="1" fill-rule="evenodd"/><path fill="#ffffff" d="M 117.613281 43.609375 L 121.289062 43.609375 L 121.289062 195.140625 L 117.613281 195.140625 Z M 117.613281 43.609375 " fill-opacity="1" fill-rule="evenodd"/><path fill="#ffffff" d="M 185.464844 81.261719 L 54.234375 157.027344 L 52.398438 153.84375 L 183.628906 78.078125 Z M 185.464844 81.261719 " fill-opacity="1" fill-rule="evenodd"/><path fill="#ffffff" d="M 40.910156 80.9375 C 40.910156 73.339844 47.066406 67.160156 54.6875 67.160156 C 62.308594 67.160156 68.464844 73.3125 68.464844 80.9375 C 68.464844 88.558594 62.308594 94.710938 54.6875 94.710938 C 47.066406 94.710938 40.910156 88.558594 40.910156 80.9375 Z M 40.910156 80.9375 " fill-opacity="1" fill-rule="nonzero"/><path fill="#ffffff" d="M 97.410156 119.046875 C 97.410156 106.898438 107.257812 97.007812 119.453125 97.007812 C 131.648438 97.007812 141.492188 106.851562 141.492188 119.046875 C 141.492188 131.242188 131.648438 141.089844 119.453125 141.089844 C 107.257812 141.089844 97.410156 131.242188 97.410156 119.046875 Z M 97.410156 119.046875 " fill-opacity="1" fill-rule="nonzero"/><path fill="#ffffff" d="M 171.683594 157.496094 C 171.683594 149.902344 177.835938 143.722656 185.457031 143.722656 C 193.078125 143.722656 199.234375 149.875 199.234375 157.496094 C 199.234375 165.117188 193.078125 171.273438 185.457031 171.273438 C 177.835938 171.273438 171.683594 165.117188 171.683594 157.496094 Z M 171.683594 157.496094 " fill-opacity="1" fill-rule="nonzero"/><path fill="#ffffff" d="M 78.703125 72.382812 C 81.746094 72.382812 84.214844 69.914062 84.214844 66.871094 C 84.214844 63.828125 81.746094 61.363281 78.703125 61.363281 C 75.660156 61.363281 73.191406 63.828125 73.191406 66.871094 C 73.191406 69.914062 75.660156 72.382812 78.703125 72.382812 Z M 78.703125 72.382812 " fill-opacity="1" fill-rule="nonzero"/><path fill="#ffffff" d="M 95.40625 62.738281 C 98.449219 62.738281 100.914062 60.273438 100.914062 57.230469 C 100.914062 54.1875 98.449219 51.71875 95.40625 51.71875 C 92.363281 51.71875 89.894531 54.1875 89.894531 57.230469 C 89.894531 60.273438 92.363281 62.738281 95.40625 62.738281 Z M 95.40625 62.738281 " fill-opacity="1" fill-rule="nonzero"/><path fill="#ffffff" d="M 105.675781 43.777344 C 105.675781 36.179688 111.828125 30 119.453125 30 C 127.074219 30 133.226562 36.152344 133.226562 43.777344 C 133.226562 51.398438 127.074219 57.550781 119.453125 57.550781 C 111.828125 57.550781 105.675781 51.398438 105.675781 43.777344 Z M 105.675781 43.777344 " fill-opacity="1" fill-rule="nonzero"/><path fill="#ffffff" d="M 78.429688 177.566406 C 81.472656 177.566406 83.941406 175.101562 83.941406 172.058594 C 83.941406 169.011719 81.472656 166.546875 78.429688 166.546875 C 75.386719 166.546875 72.917969 169.011719 72.917969 172.058594 C 72.917969 175.101562 75.386719 177.566406 78.429688 177.566406 Z M 78.429688 177.566406 " fill-opacity="1" fill-rule="nonzero"/><path fill="#ffffff" d="M 95.132812 187.210938 C 98.175781 187.210938 100.640625 184.742188 100.640625 181.699219 C 100.640625 178.65625 98.175781 176.1875 95.132812 176.1875 C 92.089844 176.1875 89.621094 178.65625 89.621094 181.699219 C 89.621094 184.742188 92.089844 187.210938 95.132812 187.210938 Z M 95.132812 187.210938 " fill-opacity="1" fill-rule="nonzero"/><path fill="#ffffff" d="M 40 157.820312 C 40 150.226562 46.152344 144.046875 53.777344 144.046875 C 61.398438 144.046875 67.550781 150.199219 67.550781 157.820312 C 67.550781 165.445312 61.398438 171.597656 53.777344 171.597656 C 46.152344 171.597656 40 165.445312 40 157.820312 Z M 40 157.820312 " fill-opacity="1" fill-rule="nonzero"/><path fill="#ffffff" d="M 105.675781 196.222656 C 105.675781 188.628906 111.828125 182.449219 119.453125 182.449219 C 127.074219 182.449219 133.226562 188.601562 133.226562 196.222656 C 133.226562 203.847656 127.074219 210 119.453125 210 C 111.828125 210 105.675781 203.847656 105.675781 196.222656 Z M 105.675781 196.222656 " fill-opacity="1" fill-rule="nonzero"/><path fill="#ffffff" d="M 144.554688 63.039062 C 147.597656 63.039062 150.0625 60.570312 150.0625 57.527344 C 150.0625 54.484375 147.597656 52.019531 144.554688 52.019531 C 141.511719 52.019531 139.042969 54.484375 139.042969 57.527344 C 139.042969 60.570312 141.511719 63.039062 144.554688 63.039062 Z M 144.554688 63.039062 " fill-opacity="1" fill-rule="nonzero"/><path fill="#ffffff" d="M 161.253906 72.683594 C 164.296875 72.683594 166.765625 70.214844 166.765625 67.171875 C 166.765625 64.128906 164.296875 61.660156 161.253906 61.660156 C 158.210938 61.660156 155.746094 64.128906 155.746094 67.171875 C 155.746094 70.214844 158.210938 72.683594 161.253906 72.683594 Z M 161.253906 72.683594 " fill-opacity="1" fill-rule="nonzero"/><path fill="#ffffff" d="M 172.136719 81.40625 C 172.136719 73.8125 178.289062 67.632812 185.910156 67.632812 C 193.53125 67.632812 199.6875 73.785156 199.6875 81.40625 C 199.6875 89.027344 193.53125 95.183594 185.910156 95.183594 C 178.289062 95.183594 172.136719 89.027344 172.136719 81.40625 Z M 172.136719 81.40625 " fill-opacity="1" fill-rule="nonzero"/><path fill="#ffffff" d="M 185.675781 114.859375 C 188.71875 114.859375 191.183594 112.390625 191.183594 109.347656 C 191.183594 106.304688 188.71875 103.835938 185.675781 103.835938 C 182.632812 103.835938 180.164062 106.304688 180.164062 109.347656 C 180.164062 112.390625 182.632812 114.859375 185.675781 114.859375 Z M 185.675781 114.859375 " fill-opacity="1" fill-rule="nonzero"/><path fill="#ffffff" d="M 185.675781 134.144531 C 188.71875 134.144531 191.183594 131.675781 191.183594 128.632812 C 191.183594 125.589844 188.71875 123.121094 185.675781 123.121094 C 182.632812 123.121094 180.164062 125.589844 180.164062 128.632812 C 180.164062 131.675781 182.632812 134.144531 185.675781 134.144531 Z M 185.675781 134.144531 " fill-opacity="1" fill-rule="nonzero"/><path fill="#ffffff" d="M 144.261719 186.585938 C 147.304688 186.585938 149.773438 184.117188 149.773438 181.074219 C 149.773438 178.03125 147.304688 175.566406 144.261719 175.566406 C 141.21875 175.566406 138.753906 178.03125 138.753906 181.074219 C 138.753906 184.117188 141.21875 186.585938 144.261719 186.585938 Z M 144.261719 186.585938 " fill-opacity="1" fill-rule="nonzero"/><path fill="#ffffff" d="M 160.964844 176.941406 C 164.007812 176.941406 166.476562 174.476562 166.476562 171.433594 C 166.476562 168.390625 164.007812 165.921875 160.964844 165.921875 C 157.921875 165.921875 155.453125 168.390625 155.453125 171.433594 C 155.453125 174.476562 157.921875 176.941406 160.964844 176.941406 Z M 160.964844 176.941406 " fill-opacity="1" fill-rule="nonzero"/><path fill="#ffffff" d="M 53.992188 115.183594 C 57.035156 115.183594 59.503906 112.714844 59.503906 109.671875 C 59.503906 106.628906 57.035156 104.160156 53.992188 104.160156 C 50.949219 104.160156 48.480469 106.628906 48.480469 109.671875 C 48.480469 112.714844 50.949219 115.183594 53.992188 115.183594 Z M 53.992188 115.183594 " fill-opacity="1" fill-rule="nonzero"/><path fill="#ffffff" d="M 53.992188 134.46875 C 57.035156 134.46875 59.503906 132 59.503906 128.957031 C 59.503906 125.914062 57.035156 123.449219 53.992188 123.449219 C 50.949219 123.449219 48.480469 125.914062 48.480469 128.957031 C 48.480469 132 50.949219 134.46875 53.992188 134.46875 Z M 53.992188 134.46875 " fill-opacity="1" fill-rule="nonzero"/></svg>