<svg width="500" height="500" viewBox="0 0 500 500" fill="none" xmlns="http://www.w3.org/2000/svg">
<g clip-path="url(#clip0_10547_52050)">
<path d="M437.5 0H62.5C27.9822 0 0 27.9822 0 62.5V437.5C0 472.018 27.9822 500 62.5 500H437.5C472.018 500 500 472.018 500 437.5V62.5C500 27.9822 472.018 0 437.5 0Z" fill="#1C1A15"/>
<path d="M406.25 234.647V265.15C387.581 265.155 369.097 268.809 351.853 275.905C334.609 282.998 318.944 293.395 305.753 306.5C292.561 319.603 282.103 335.158 274.977 352.273C267.848 369.391 264.191 387.731 264.214 406.25H235.786C235.777 368.884 220.809 333.053 194.175 306.631C167.539 280.209 131.418 265.362 93.75 265.353V234.85C112.418 234.845 130.903 231.191 148.147 224.095C165.391 217.002 181.056 206.605 194.247 193.5C207.439 180.395 217.897 164.842 225.023 147.726C232.152 130.61 235.808 112.269 235.786 93.75H264.214C264.223 131.115 279.191 166.947 305.825 193.369C332.461 219.791 368.583 234.637 406.25 234.647Z" fill="#FBF9F5"/>
</g>
<defs>
<clipPath id="clip0_10547_52050">
<rect width="500" height="500" fill="white"/>
</clipPath>
</defs>
</svg>
