<svg width="654" height="163" viewBox="0 0 654 163" fill="none" xmlns="http://www.w3.org/2000/svg">
<g clip-path="url(#clip0_435_1432)">
<path d="M206.766 65.6601C206.766 81.5499 195.213 93.8217 181.196 93.8217C174.027 93.8217 168.785 91.3659 165.259 87.3167V110.048H149.212V38.9969H165.259V44.0109C168.793 39.9544 174.034 37.5059 181.196 37.5059C195.213 37.4986 206.766 49.7704 206.766 65.6601ZM190.719 65.6601C190.719 57.6641 185.368 52.6501 177.985 52.6501C170.603 52.6501 165.252 57.6641 165.252 65.6601C165.252 73.6635 170.603 78.6702 177.985 78.6702C185.368 78.6702 190.719 73.6635 190.719 65.6601Z" fill="#111111"/>
<path d="M244.308 37.9297V55.3105C236.698 54.66 228.261 58.0368 228.261 68.2182V92.3233H212.213V38.9968H228.261V48.4912C230.401 41.343 237.571 37.9297 244.308 37.9297Z" fill="#111111"/>
<path d="M246.133 65.6601C246.133 49.7704 258.757 37.4985 274.481 37.4985C290.206 37.4985 302.83 49.763 302.83 65.6601C302.83 81.5572 290.206 93.8217 274.481 93.8217C258.757 93.8217 246.133 81.5499 246.133 65.6601ZM286.782 65.6601C286.782 58.088 281.431 53.074 274.481 53.074C267.524 53.074 262.18 58.088 262.18 65.6601C262.18 73.2323 267.532 78.2462 274.481 78.2462C281.431 78.2462 286.782 73.2323 286.782 65.6601Z" fill="#111111"/>
<path d="M364.666 21.7915V92.3234H348.619V87.3094C345.085 91.3586 339.844 93.8144 332.681 93.8144C318.665 93.8144 307.111 81.5499 307.111 65.6528C307.111 49.7558 318.665 37.4912 332.681 37.4912C339.851 37.4912 345.092 39.9471 348.619 43.9963V21.7915H364.666ZM348.619 65.6601C348.619 57.6641 343.267 52.6501 335.885 52.6501C328.503 52.6501 323.151 57.6641 323.151 65.6601C323.151 73.6635 328.503 78.6702 335.885 78.6702C343.267 78.6702 348.619 73.6635 348.619 65.6601Z" fill="#111111"/>
<path d="M423.657 38.9971V92.3236H407.61V87.3096C404.721 91.2564 399.37 93.8146 392.31 93.8146C381.504 93.8146 372.304 86.1328 372.304 71.7341V38.9897H388.351V69.3879C388.351 76.0026 392.523 79.0943 397.662 79.0943C403.548 79.0943 407.61 75.681 407.61 68.1088V38.9971H423.657Z" fill="#111111"/>
<path d="M429.858 65.6601C429.858 49.7704 441.947 37.4985 458.207 37.4985C468.587 37.4985 477.787 42.9364 482.384 51.1518L468.367 59.2574C466.549 55.5225 462.701 53.286 457.987 53.286C451.03 53.286 445.898 58.3 445.898 65.6601C445.898 73.0203 451.03 78.0343 457.987 78.0343C462.693 78.0343 466.652 75.7977 468.367 72.0628L482.384 80.0589C477.78 88.3765 468.69 93.8217 458.207 93.8217C441.947 93.8217 429.858 81.5499 429.858 65.6601Z" fill="#111111"/>
<path d="M503.988 54.3528V73.232C503.988 77.8221 507.947 78.246 515.006 77.8221V92.3231C494.04 94.4574 487.941 88.1643 487.941 73.232V54.3528V38.9966V33.0471L503.988 27.0537V38.9893H515.006V54.3455H503.988V54.3528Z" fill="#111111"/>
<path d="M522.382 38.9971H538.429V92.3236H522.382V38.9971Z" fill="#111111"/>
<path d="M599.941 38.9971L580.148 92.3309H561.96L542.167 38.9971H559.93L571.058 72.8085L582.186 38.9971H599.941Z" fill="#111111"/>
<path d="M627.967 79.8981C632.351 79.8981 635.65 78.6117 639.015 75.922L651.074 82.8363C645.833 90.0868 637.915 93.8217 627.755 93.8217C609.457 93.8217 598.124 81.5572 598.124 65.6601C598.124 49.763 609.677 37.4985 626.582 37.4985C642.204 37.4985 653.757 49.5511 653.757 65.6601C653.757 67.8967 653.545 69.6435 653.112 71.6681H614.816C616.846 77.2157 622.081 79.8981 627.967 79.8981ZM638.428 60.3392C636.999 54.3239 632.293 51.1371 626.758 51.1371C620.329 51.1371 615.776 54.6089 614.193 60.3392H638.428Z" fill="#111111"/>
<path d="M21.9229 104.928L0.617673 68.9173C-0.624829 66.8196 0.0695107 64.108 2.16715 62.8655L18.9921 52.9109C21.0897 51.6684 23.8013 52.3627 25.0438 54.4604L37.0303 74.7205L49.4626 53.3275C65.0085 27.8416 81.1026 56.0098 73.7718 67.9817L52.3789 104.804C50.5443 107.968 47.1677 109.92 43.5059 109.934L30.8251 109.986C27.1707 110 23.7867 108.071 21.9229 104.928Z" fill="url(#paint0_linear_435_1432)"/>
<path d="M112.031 77.8897C112.031 86.7188 104.876 93.8742 96.0467 93.8742C87.2176 93.8742 80.0623 86.7188 80.0623 77.8897C80.0623 69.0607 87.2176 61.9053 96.0467 61.9053C104.876 61.9053 112.031 69.0607 112.031 77.8897ZM45.718 89.4231C49.2263 95.3798 57.8507 95.3505 61.3224 89.3719L73.7767 67.9424C80.2669 57.3519 87.605 51.6876 96.7776 50.4377C98.9995 50.1381 101.178 49.6265 101.77 46.279L105.175 27.181C105.753 24.4037 103.633 21.7871 100.79 21.7871C84.0748 21.7871 64.6333 28.4162 49.4675 53.2809L37.0278 74.6812L45.718 89.4231Z" fill="url(#paint1_linear_435_1432)"/>
</g>
<path d="M625.549 161.601V127.085H639.167C641.774 127.085 643.998 127.551 645.841 128.484C647.695 129.405 649.105 130.714 650.071 132.411C651.049 134.096 651.538 136.079 651.538 138.36C651.538 140.652 651.043 142.624 650.055 144.276C649.066 145.916 647.633 147.175 645.757 148.051C643.892 148.927 641.633 149.366 638.982 149.366H629.864V143.5H637.802C639.195 143.5 640.352 143.309 641.274 142.927C642.195 142.545 642.881 141.972 643.33 141.208C643.791 140.444 644.021 139.495 644.021 138.36C644.021 137.214 643.791 136.248 643.33 135.461C642.881 134.675 642.19 134.079 641.257 133.675C640.336 133.259 639.173 133.051 637.768 133.051H632.847V161.601H625.549ZM644.189 145.894L652.768 161.601H644.712L636.319 145.894H644.189Z" fill="#3862DE"/>
<path d="M590.221 161.601V127.085H613.479V133.102H597.518V141.326H612.282V147.343H597.518V155.585H613.546V161.601H590.221Z" fill="#3862DE"/>
<path d="M553.223 161.601V127.085H566.841C569.459 127.085 571.689 127.585 573.532 128.585C575.375 129.574 576.779 130.95 577.745 132.714C578.723 134.467 579.212 136.489 579.212 138.781C579.212 141.074 578.717 143.096 577.728 144.849C576.74 146.602 575.307 147.967 573.431 148.944C571.566 149.922 569.307 150.41 566.656 150.41H557.976V144.562H565.476C566.88 144.562 568.038 144.321 568.948 143.838C569.869 143.343 570.554 142.663 571.004 141.798C571.464 140.922 571.695 139.916 571.695 138.781C571.695 137.635 571.464 136.635 571.004 135.781C570.554 134.916 569.869 134.248 568.948 133.776C568.026 133.293 566.858 133.051 565.442 133.051H560.521V161.601H553.223Z" fill="#3862DE"/>
<path d="M541.548 144.343C541.548 148.107 540.835 151.31 539.408 153.95C537.992 156.59 536.059 158.607 533.61 160C531.172 161.382 528.43 162.073 525.385 162.073C522.318 162.073 519.565 161.377 517.127 159.984C514.689 158.59 512.762 156.574 511.346 153.933C509.931 151.293 509.223 148.096 509.223 144.343C509.223 140.579 509.931 137.377 511.346 134.737C512.762 132.096 514.689 130.085 517.127 128.703C519.565 127.31 522.318 126.613 525.385 126.613C528.43 126.613 531.172 127.31 533.61 128.703C536.059 130.085 537.992 132.096 539.408 134.737C540.835 137.377 541.548 140.579 541.548 144.343ZM534.149 144.343C534.149 141.905 533.784 139.849 533.054 138.175C532.335 136.501 531.318 135.231 530.003 134.366C528.689 133.501 527.149 133.068 525.385 133.068C523.621 133.068 522.082 133.501 520.767 134.366C519.453 135.231 518.43 136.501 517.7 138.175C516.981 139.849 516.621 141.905 516.621 144.343C516.621 146.782 516.981 148.838 517.7 150.512C518.43 152.186 519.453 153.456 520.767 154.321C522.082 155.186 523.621 155.618 525.385 155.618C527.149 155.618 528.689 155.186 530.003 154.321C531.318 153.456 532.335 152.186 533.054 150.512C533.784 148.838 534.149 146.782 534.149 144.343Z" fill="#3862DE"/>
<path d="M477.977 161.601V127.085H485.275V155.585H500.072V161.601H477.977Z" fill="#3862DE"/>
<path d="M442.648 161.601V127.085H465.906V133.102H449.946V141.326H464.709V147.343H449.946V155.585H465.973V161.601H442.648Z" fill="#3862DE"/>
<path d="M407.112 127.085L415.455 153.309H415.775L424.135 127.085H432.224L420.326 161.601H410.921L399.006 127.085H407.112Z" fill="#3862DE"/>
<path d="M365.548 161.601V127.085H388.806V133.102H372.846V141.326H387.609V147.343H372.846V155.585H388.873V161.601H365.548Z" fill="#3862DE"/>
<path d="M336.986 161.601H324.75V127.085H337.087C340.559 127.085 343.547 127.776 346.053 129.158C348.559 130.529 350.486 132.501 351.834 135.074C353.193 137.647 353.873 140.725 353.873 144.309C353.873 147.905 353.193 150.995 351.834 153.579C350.486 156.163 348.547 158.146 346.019 159.528C343.503 160.91 340.491 161.601 336.986 161.601ZM332.048 155.349H336.682C338.84 155.349 340.654 154.967 342.126 154.203C343.609 153.427 344.722 152.231 345.463 150.613C346.216 148.984 346.592 146.882 346.592 144.309C346.592 141.759 346.216 139.675 345.463 138.057C344.722 136.439 343.615 135.248 342.143 134.484C340.671 133.72 338.857 133.338 336.699 133.338H332.048V155.349Z" fill="#3862DE"/>
<defs>
<linearGradient id="paint0_linear_435_1432" x1="8.71971" y1="58.2547" x2="41.2684" y2="123.211" gradientUnits="userSpaceOnUse">
<stop stop-color="#55C9FB"/>
<stop offset="1" stop-color="#324ED8"/>
</linearGradient>
<linearGradient id="paint1_linear_435_1432" x1="37.0278" y1="120.163" x2="96.6943" y2="41.9891" gradientUnits="userSpaceOnUse">
<stop stop-color="#1E37B8"/>
<stop offset="1" stop-color="#4ABEF0"/>
</linearGradient>
<clipPath id="clip0_435_1432">
<rect width="653.75" height="88.2562" fill="white" transform="translate(0 21.7915)"/>
</clipPath>
</defs>
</svg>
