<svg width="370" height="64" viewBox="0 0 370 64" fill="none" xmlns="http://www.w3.org/2000/svg"><path d="M93.6489 33.1362C93.3457 34.2426 92.6301 35.2467 91.5788 36.0348C88.6315 38.246 85.3823 40.1982 81.9186 41.8338C78.4567 43.4714 74.7663 44.7989 70.9533 45.7809C70.2753 45.9546 69.5751 46.0431 68.8661 46.0431C68.1591 46.0431 67.4571 45.9546 66.7809 45.7809C62.9662 44.7989 59.2776 43.4714 55.8155 41.8338C52.3519 40.1982 49.1028 38.246 46.1553 36.0348C45.1023 35.2467 44.387 34.2426 44.0854 33.1362H44.0835C43.8826 32.3923 43.8826 31.6077 44.0835 30.864H44.0854C44.387 29.7557 45.1023 28.7533 46.1553 27.9652C49.1028 25.7542 52.3519 23.802 55.8155 22.1662C59.2776 20.5289 62.9662 19.2013 66.7809 18.2174C67.4571 18.0454 68.1591 17.9569 68.8661 17.9569C69.5751 17.9569 70.2753 18.0454 70.9533 18.2174C74.7663 19.2013 78.4567 20.5289 81.9186 22.1662C85.3823 23.802 88.6315 25.7542 91.5788 27.9652C92.6301 28.7533 93.3457 29.7557 93.6489 30.864C93.8517 31.6077 93.8517 32.3923 93.6489 33.1362ZM94.3935 13.3954C94.0544 12.1547 93.2417 11.033 92.0952 10.1734C86.0927 5.66805 78.9508 2.2944 71.1815 0.291195C70.4286 0.0970612 69.6481 0 68.8661 0C68.0858 0 67.3055 0.0970612 66.5524 0.291195C58.7818 2.2944 51.6414 5.66805 45.6392 10.1734C44.4925 11.033 43.6782 12.1547 43.3408 13.3954C42.4463 16.6669 42 20.0013 42 23.334V25.4854V31.9991V38.5148V40.6645C42 43.9989 42.4463 47.3333 43.3408 50.6031C43.6782 51.8455 44.4925 52.9655 45.6392 53.8268C51.6414 58.3305 58.7818 61.7056 66.5524 63.709C67.3055 63.9029 68.0858 64 68.8661 64C69.6481 64 70.4286 63.9029 71.1815 63.709C78.9508 61.7056 86.0927 58.3305 92.0952 53.8268C93.2417 52.9655 94.0544 51.8455 94.3935 50.6031C95.288 47.3333 95.7343 43.9989 95.7343 40.6645V38.5148V31.9991V25.4854V23.334C95.7343 20.0013 95.288 16.6669 94.3935 13.3954Z" fill="#002233" style="fill:#002233;fill:color(display-p3 0.0000 0.1333 0.2000);fill-opacity:1;"/><path d="M141.241 18.2368C141.241 17.5704 141.408 17.0705 141.742 16.7373C142.105 16.3738 142.621 16.192 143.288 16.192H153.931C157.024 16.192 159.708 16.7524 161.982 17.8733C164.287 18.9639 166.061 20.5543 167.304 22.6445C168.547 24.7044 169.169 27.1279 169.169 29.9149V34.2771C169.169 37.0641 168.547 39.5027 167.304 41.593C166.061 43.6529 164.287 45.2433 161.982 46.3642C159.708 47.4547 157.024 48 153.931 48H141.241V18.2368ZM153.931 40.9568C156.145 40.9568 157.858 40.3812 159.071 39.2301C160.284 38.079 160.89 36.428 160.89 34.2771V29.9149C160.89 27.7641 160.299 26.1131 159.117 24.9619C157.934 23.8108 156.251 23.2352 154.068 23.2352H149.428V40.9568H153.931Z" fill="#002233" style="fill:#002233;fill:color(display-p3 0.0000 0.1333 0.2000);fill-opacity:1;"/><path d="M109.205 18.2368C109.205 17.5704 109.372 17.0705 109.705 16.7373C110.069 16.3738 110.585 16.192 111.252 16.192H123.851C127.823 16.192 130.916 17.1311 133.13 19.0093C135.343 20.8572 136.45 23.4473 136.45 26.7795V27.7338C136.45 30.5208 135.829 32.8079 134.585 34.5952C133.372 36.3522 131.583 37.5791 129.218 38.2759L136.814 48H128.672C128.127 48 127.657 47.894 127.262 47.6819C126.899 47.4699 126.55 47.1518 126.216 46.7277L120.576 38.912H117.301V48H109.205V18.2368ZM123.669 31.8688C125.216 31.8688 126.353 31.5507 127.08 30.9146C127.808 30.2784 128.172 29.2333 128.172 27.7792V26.8704C128.172 25.7193 127.793 24.8256 127.035 24.1895C126.307 23.5533 125.2 23.2352 123.715 23.2352H117.301V31.8688H123.669Z" fill="#002233" style="fill:#002233;fill:color(display-p3 0.0000 0.1333 0.2000);fill-opacity:1;"/><path d="M306.932 23.0081H309.251C310.191 23.0081 310.661 23.4776 310.661 24.4167V25.6436C314.573 23.7351 317.514 22.7809 319.485 22.7809H319.804C322.775 22.7809 324.974 23.4928 326.399 24.9166C327.824 26.3101 328.537 28.4003 328.537 31.1873V48.0001H324.58V31.8689C324.58 29.8998 324.11 28.476 323.17 27.5975C322.23 26.6887 320.759 26.2343 318.758 26.2343H318.212C317.241 26.2343 316.195 26.3858 315.073 26.6887C313.951 26.9917 312.557 27.4763 310.889 28.1428V48.0001H306.932V23.0081Z" fill="#002233" style="fill:#002233;fill:color(display-p3 0.0000 0.1333 0.2000);fill-opacity:1;"/><path d="M289.464 48.2273C285.916 48.2273 283.096 47.2276 281.004 45.2282C278.911 43.1986 277.865 40.4116 277.865 36.8673V34.1409C277.865 31.8689 278.35 29.8695 279.321 28.1428C280.291 26.4161 281.64 25.0983 283.369 24.1895C285.128 23.2504 287.159 22.7809 289.464 22.7809H290.373C293.921 22.7809 296.726 23.7957 298.788 25.8254C300.88 27.8247 301.926 30.5966 301.926 34.1409V36.8673C301.926 39.1393 301.441 41.1386 300.471 42.8654C299.531 44.5618 298.182 45.8795 296.423 46.8186C294.664 47.7577 292.648 48.2273 290.373 48.2273H289.464ZM290.373 44.7738C292.648 44.7738 294.467 44.0771 295.832 42.6836C297.196 41.2901 297.878 39.3513 297.878 36.8673V34.0954C297.878 31.6114 297.196 29.6878 295.832 28.3246C294.467 26.9311 292.648 26.2343 290.373 26.2343H289.464C287.159 26.2343 285.325 26.9311 283.96 28.3246C282.596 29.6878 281.913 31.6114 281.913 34.0954V36.8673C281.913 39.3513 282.596 41.2901 283.96 42.6836C285.325 44.0771 287.159 44.7738 289.464 44.7738H290.373Z" fill="#002233" style="fill:#002233;fill:color(display-p3 0.0000 0.1333 0.2000);fill-opacity:1;"/><path d="M268.888 23.0081H271.435C272.375 23.0081 272.845 23.4776 272.845 24.4167V48.0001H268.888V23.0081ZM270.798 18.6004C269.889 18.6004 269.221 18.3883 268.797 17.9642C268.372 17.5401 268.16 16.8737 268.16 15.9649C268.16 14.9955 268.372 14.2836 268.797 13.8292C269.221 13.3748 269.904 13.1476 270.844 13.1476C271.784 13.1476 272.451 13.3596 272.845 13.7837C273.27 14.2078 273.482 14.8895 273.482 15.8285C273.482 16.7979 273.27 17.5098 272.845 17.9642C272.421 18.3883 271.738 18.6004 270.798 18.6004Z" fill="#002233" style="fill:#002233;fill:color(display-p3 0.0000 0.1333 0.2000);fill-opacity:1;"/><path d="M261.656 48.2273C258.623 48.2273 256.258 47.5457 254.56 46.1825C252.892 44.789 252.059 42.4715 252.059 39.2301V16.8737H254.606C255.546 16.8737 256.016 17.3432 256.016 18.2823V23.0081H264.385V26.4161H256.016V39.0484C256.016 41.0477 256.471 42.4867 257.38 43.3652C258.32 44.2437 259.745 44.6829 261.656 44.6829H263.111C264.142 44.6526 264.658 45.107 264.658 46.0461V48.0455C263.778 48.1667 262.778 48.2273 261.656 48.2273Z" fill="#002233" style="fill:#002233;fill:color(display-p3 0.0000 0.1333 0.2000);fill-opacity:1;"/><path d="M234.126 48.2273C231.518 48.2273 229.395 47.6063 227.758 46.3642C226.151 45.1222 225.347 43.4409 225.347 41.3204V40.7297C225.347 38.6091 226.136 36.9582 227.712 35.7767C229.319 34.5953 231.715 34.0046 234.899 34.0046H242.267V31.3236C242.267 29.4757 241.797 28.1277 240.857 27.2794C239.948 26.4312 238.477 26.0071 236.445 26.0071H235.536C233.929 26.0071 232.655 26.2798 231.715 26.825C230.775 27.3703 230.214 28.1428 230.032 29.1425C229.941 29.5666 229.805 29.8544 229.623 30.0058C229.471 30.127 229.168 30.1876 228.713 30.1876H226.12C226.12 28.0671 226.924 26.3101 228.531 24.9166C230.138 23.4928 232.503 22.7809 235.627 22.7809H236.445C239.842 22.7809 242.313 23.5231 243.859 25.0074C245.436 26.4615 246.224 28.6123 246.224 31.4599V48.0001H243.95C243.526 48.0001 243.177 47.8789 242.904 47.6366C242.662 47.3942 242.54 47.0458 242.54 46.5914V45.6826C240.812 46.5612 239.311 47.2125 238.037 47.6366C236.794 48.0304 235.627 48.2273 234.535 48.2273H234.126ZM235.672 45.0919C237.158 45.0919 239.356 44.4406 242.267 43.138V36.9127H235.126C233.064 36.9127 231.594 37.2459 230.714 37.9124C229.835 38.5789 229.395 39.518 229.395 40.7297V41.1841C229.395 42.4261 229.88 43.3955 230.851 44.0922C231.851 44.7587 233.201 45.0919 234.899 45.0919H235.672Z" fill="#002233" style="fill:#002233;fill:color(display-p3 0.0000 0.1333 0.2000);fill-opacity:1;"/><path d="M219.835 48.2273C216.803 48.2273 214.438 47.5457 212.739 46.1825C211.072 44.789 210.238 42.4715 210.238 39.2301V16.8737H212.785C213.725 16.8737 214.195 17.3432 214.195 18.2823V23.0081H222.564V26.4161H214.195V39.0484C214.195 41.0477 214.65 42.4867 215.559 43.3652C216.499 44.2437 217.925 44.6829 219.835 44.6829H221.29C222.321 44.6526 222.837 45.107 222.837 46.0461V48.0455C221.958 48.1667 220.957 48.2273 219.835 48.2273Z" fill="#002233" style="fill:#002233;fill:color(display-p3 0.0000 0.1333 0.2000);fill-opacity:1;"/><path d="M191.909 48.2272C187.967 48.2272 184.919 47.3639 182.766 45.6372C180.614 43.8802 179.537 41.4718 179.537 38.4122H182.221C182.676 38.4122 182.994 38.5182 183.176 38.7303C183.388 38.912 183.555 39.2453 183.676 39.73C183.919 41.3355 184.737 42.5775 186.132 43.456C187.527 44.3346 189.453 44.7738 191.909 44.7738H193.046C195.654 44.7738 197.655 44.2588 199.05 43.2288C200.445 42.1686 201.142 40.7902 201.142 39.0938V38.3668C201.142 37.0944 200.702 36.1099 199.823 35.4132C198.944 34.7164 197.61 34.2317 195.821 33.9591L188.179 32.7776C185.814 32.4141 183.919 31.6265 182.494 30.4148C181.068 29.203 180.356 27.5218 180.356 25.3709V24.4621C180.356 22.9172 180.796 21.5085 181.675 20.2362C182.554 18.9336 183.858 17.9036 185.587 17.1463C187.345 16.3587 189.438 15.9648 191.863 15.9648H192.91C196.821 15.9648 199.702 16.8131 201.552 18.5095C203.432 20.1756 204.387 22.4022 204.417 25.1892H201.643C201.218 25.1892 200.9 25.0983 200.687 24.9165C200.505 24.7348 200.384 24.447 200.323 24.0532C200.111 22.6294 199.414 21.5085 198.231 20.6906C197.079 19.8424 195.32 19.4183 192.955 19.4183H191.818C189.422 19.4183 187.588 19.8727 186.314 20.7815C185.041 21.66 184.404 22.8414 184.404 24.3258V25.0528C184.404 26.2646 184.783 27.2037 185.541 27.8701C186.329 28.5366 187.497 28.991 189.043 29.2333L196.867 30.4148C202.416 31.2933 205.19 33.8379 205.19 38.0487V38.9575C205.19 40.866 204.66 42.517 203.598 43.9104C202.537 45.3039 201.082 46.3794 199.232 47.1367C197.412 47.8637 195.335 48.2272 193 48.2272H191.909Z" fill="#002233" style="fill:#002233;fill:color(display-p3 0.0000 0.1333 0.2000);fill-opacity:1;"/></svg>