<?xml version="1.0" encoding="UTF-8"?>
<svg id="Logo_Lockup" data-name="Logo Lockup" xmlns="http://www.w3.org/2000/svg" viewBox="0 0 1630 302">
  <defs>
    <style>
      .cls-1 {
        fill: #11003a;
      }

      .cls-1, .cls-2, .cls-3 {
        stroke-width: 0px;
      }

      .cls-2 {
        fill: #2e8;
      }

      .cls-3 {
        fill: #fff;
      }
    </style>
  </defs>
  <path class="cls-2" d="M301,301V1s-300,0-300,0v300s300,0,300,0Z"/>
  <path class="cls-1" d="M253.56,135.28c-14.78,0-26.76-11.98-26.76-26.76,0-7.39,2.99-14.08,7.83-18.92,0,0,0,0,0,0l-22.23-22.23s0,0,0,0c-4.84,4.84-11.53,7.83-18.92,7.83-14.78,0-26.76-11.98-26.76-26.76h0s-15.72,0-15.72,0h-15.72c0,14.78-11.98,26.77-26.76,26.77-7.39,0-14.08-2.99-18.92-7.83,0,0,0,0,0,0l-22.23,22.23s0,0,0,0c4.84,4.84,7.83,11.53,7.83,18.92,0,14.78-11.98,26.76-26.76,26.76,0,0,0,0,0,0v31.44s0,0,0,0c14.78,0,26.76,11.98,26.76,26.76,0,7.39-2.99,14.08-7.83,18.92,0,0,0,0,0,0l22.23,22.23s0,0,0,0c4.84-4.84,11.53-7.83,18.92-7.83,14.78,0,26.76,11.98,26.76,26.76h0s15.72,0,15.72,0h15.72c0-14.78,11.98-26.77,26.76-26.77,7.39,0,14.08,2.99,18.92,7.83,0,0,0,0,0,0l22.23-22.23s0,0,0,0c-4.84-4.84-7.83-11.53-7.83-18.92,0-14.78,11.98-26.76,26.76-26.76,0,0,0,0,0,0v-31.44s0,0,0,0ZM202.51,180.74l-51.51,29.74-51.51-29.74v-59.48l51.51-29.74,51.51,29.74v59.48Z"/>
  <g>
    <g>
      <path class="cls-3" d="M458.44,68.81c25.55,0,43.58,14.83,52.93,33.08l-22.13,13.01c-9.13-13.46-17.57-19.62-30.57-19.62-13.46,0-22.36,7.3-22.36,18.25,0,8.44,6.62,15.06,19.62,19.85l10.95,4.11c34.45,12.09,48.82,26.01,48.82,48.14,0,14.83-5.7,26.46-17.11,34.91-11.41,8.44-24.64,12.55-39.47,12.55-13.92,0-26.23-3.65-36.96-10.95-10.49-7.3-17.57-16.65-21.21-28.29l23.04-12.09c7.07,16.2,18.94,24.18,35.13,24.18,15.29,0,25.56-7.3,25.56-20.76,0-11.18-6.62-15.74-26.01-23.04l-10.04-3.88c-27.15-9.81-41.98-22.13-41.98-45.63,0-13.23,5.02-23.73,14.83-31.71,9.81-7.99,22.13-12.09,36.96-12.09Z"/>
      <path class="cls-3" d="M603.3,109.88c12.09,0,22.36,4.34,31.03,13.23,8.9,8.9,13.23,21.9,13.23,39.24v68.44s-29.43,0-29.43,0v-66.62c0-19.16-10.95-28.52-25.55-28.52-7.99,0-14.83,2.97-20.07,8.67-5.25,5.7-8.21,11.18-8.45,16.43v70.04s-29.43,0-29.43,0V69.5s29.43,0,29.43,0v65.93c1.6-5.25,5.93-10.72,13.01-16.65,7.07-5.93,15.74-8.9,26.24-8.9Z"/>
      <path class="cls-3" d="M670.37,69.5h29.43s0,28.06,0,28.06h-29.43s0-28.06,0-28.06ZM670.37,112.16h29.43s0,118.64,0,118.64h-29.43s0-118.64,0-118.64Z"/>
      <path class="cls-3" d="M790.14,109.88c14.83,0,28.29,5.48,40.38,16.43,12.09,10.72,18.25,25.78,18.25,45.17,0,19.39-6.16,34.45-18.25,45.4-12.09,10.72-25.55,16.2-40.38,16.2-18.25,0-31.71-9.81-36.5-19.17h-1.6v59.47s-29.43,0-29.43,0V112.16s29.43,0,29.43,0v16.88h1.6c4.79-9.35,18.25-19.16,36.5-19.16ZM761.62,197.72c7.07,6.16,15.06,9.35,24.41,9.35,9.35,0,17.34-3.19,23.95-9.35,6.85-6.16,10.27-15.06,10.27-26.24,0-11.18-3.42-20.08-10.27-26.24-6.62-6.16-14.6-9.35-23.95-9.35-9.35,0-17.34,3.19-24.41,9.35-6.84,6.16-10.27,15.06-10.27,26.24,0,11.18,3.42,20.08,10.27,26.24Z"/>
      <path class="cls-3" d="M916.45,68.81c25.55,0,43.58,14.83,52.93,33.08l-22.13,13.01c-9.13-13.46-17.57-19.62-30.57-19.62-13.46,0-22.36,7.3-22.36,18.25,0,8.44,6.62,15.06,19.62,19.85l10.95,4.11c34.45,12.09,48.82,26.01,48.82,48.14,0,14.83-5.7,26.46-17.11,34.91-11.41,8.44-24.64,12.55-39.47,12.55-13.92,0-26.23-3.65-36.96-10.95-10.49-7.3-17.57-16.65-21.21-28.29l23.04-12.09c7.07,16.2,18.94,24.18,35.13,24.18,15.29,0,25.56-7.3,25.56-20.76,0-11.18-6.62-15.74-26.01-23.04l-10.04-3.88c-27.15-9.81-41.98-22.13-41.98-45.63,0-13.23,5.02-23.73,14.83-31.71,9.81-7.99,22.13-12.09,36.96-12.09Z"/>
      <path class="cls-3" d="M1052.07,112.16v24.18s-25.32,0-25.32,0v58.63c0,7.53,3.88,11.18,11.41,11.18,3.88,0,8.67-.91,13.92-2.51v23.96c-6.16,2.97-13.46,4.56-22.13,4.56-20.76,0-32.4-7.76-32.4-30.8v-65.02h-16.66s0-24.18,0-24.18h16.66v-30.34s29.2,0,29.2,0v30.34h25.32Z"/>
      <path class="cls-3" d="M1118.67,233.08c-14.83,0-28.52-5.48-40.61-16.2-12.09-10.95-18.03-26.01-18.03-45.4,0-19.39,5.93-34.45,18.03-45.17,12.09-10.95,25.78-16.43,40.61-16.43,18.25,0,31.71,9.81,36.5,19.16h1.6v-16.88s29.2,0,29.2,0v118.64s-29.2,0-29.2,0v-16.88h-1.6c-4.79,9.35-18.25,19.17-36.5,19.17ZM1098.59,197.72c6.84,6.16,14.83,9.35,24.18,9.35,9.35,0,17.34-3.19,24.18-9.35,7.07-6.16,10.49-15.06,10.49-26.24,0-11.18-3.42-20.08-10.49-26.24-6.84-6.16-14.83-9.35-24.18-9.35-9.35,0-17.34,3.19-24.18,9.35-6.62,6.16-10.04,15.06-10.04,26.24,0,11.18,3.42,20.08,10.04,26.24Z"/>
      <path class="cls-3" d="M1273.27,112.16v24.18s-25.32,0-25.32,0v58.63c0,7.53,3.88,11.18,11.41,11.18,3.88,0,8.67-.91,13.92-2.51v23.96c-6.16,2.97-13.46,4.56-22.13,4.56-20.76,0-32.4-7.76-32.4-30.8v-65.02h-16.66s0-24.18,0-24.18h16.66v-30.34s29.2,0,29.2,0v30.34h25.32Z"/>
      <path class="cls-3" d="M1289.38,69.5h29.43s0,28.06,0,28.06h-29.43s0-28.06,0-28.06ZM1289.38,112.16h29.43s0,118.64,0,118.64h-29.43s0-118.64,0-118.64Z"/>
      <path class="cls-3" d="M1376.1,113.99c14.37-5.48,28.06-5.48,42.44,0,14.37,5.25,27.38,14.37,34.9,30.8,7.99,16.2,7.99,37.64,0,53.84-7.53,16.2-20.53,25.32-34.9,30.57-14.37,5.25-28.06,5.25-42.44,0-14.38-5.25-27.15-14.37-35.14-30.57-7.53-16.2-7.53-37.64,0-53.84,7.99-16.43,20.76-25.55,35.14-30.8ZM1363.78,171.71c0,10.95,3.42,19.62,10.27,26.01,6.84,6.16,14.6,9.35,23.27,9.35,8.9,0,16.66-3.19,23.5-9.35,6.84-6.39,10.27-15.06,10.27-26.01,0-11.18-3.42-19.85-10.27-26.24-6.84-6.39-14.6-9.58-23.5-9.58-8.9,0-16.65,3.19-23.5,9.58-6.62,6.39-10.04,15.06-10.04,26.24Z"/>
      <path class="cls-3" d="M1544.57,109.88c12.09,0,22.36,4.34,31.03,13.23,8.9,8.9,13.23,21.9,13.23,39.24v68.44s-29.43,0-29.43,0v-66.62c0-19.16-10.95-28.52-25.55-28.52-7.99,0-14.83,2.97-20.08,8.67-5.25,5.7-8.21,11.18-8.44,16.43v70.04s-29.43,0-29.43,0v-118.64s29.43,0,29.43,0v23.27c1.6-5.25,5.93-10.72,13.01-16.65,7.07-5.93,15.74-8.9,26.23-8.9Z"/>
    </g>
    <path class="cls-3" d="M1612.52,106c3.25,0,6.12,1.19,8.66,3.57,2.54,2.38,3.83,5.36,3.83,8.93s-1.29,6.55-3.83,8.93c-2.54,2.38-5.4,3.57-8.66,3.57-2.11,0-4.11-.53-6.01-1.54-1.9-1.02-3.43-2.52-4.69-4.45-1.22-1.96-1.82-4.13-1.82-6.51s.61-4.55,1.82-6.48c2.47-3.92,6.51-6.02,10.69-6.02ZM1612.52,128.41c2.54,0,4.83-.95,6.8-2.8,2-1.89,3-4.27,3-7.11s-1-5.22-3-7.07c-1.97-1.89-4.26-2.84-6.8-2.84s-4.86.95-6.87,2.84c-1.97,1.86-2.97,4.24-2.97,7.07s1,5.22,2.97,7.11c2,1.86,4.29,2.8,6.87,2.8ZM1607.87,111.78h4.43c3.11,0,5.11,1.75,5.11,4.13,0,2.07-1.04,3.4-3.08,4.06l3.79,4.97h-2.36l-3.54-4.87h-2.29v4.87h-2.07v-13.17ZM1612.48,113.56h-2.58v4.8h2.58c1.9,0,2.83-.81,2.83-2.38s-1.07-2.42-2.83-2.42Z"/>
  </g>
</svg>