<svg width="643" height="120" fill="none" xmlns="http://www.w3.org/2000/svg"><path d="M165.758 78.9935c0 2.8045 3.58 4.4846 8.852 4.4846 2.127 0 5.708-.3307 5.708-2.3547 0-2.0241-2.907-2.4606-13.886-5.2916-11.204-2.9104-18.035-8.2946-18.035-17.8327 0-11.0991 11.085-17.8194 23.293-17.8194 16.238 0 25.42 8.9692 25.42 19.1688h-19.038c0-2.9104-3.964-3.4793-5.708-3.4793-2.233 0-4.928.5689-4.928 2.1299 0 1.561 2.021 1.6933 14.678 5.6091 14.996 4.6037 17.176 12.2236 17.176 17.9385 0 11.7738-11.891 17.6077-25.195 17.6077-16.066.0265-27.429-6.2573-27.429-20.1609h19.092zM265.195 41.3311v56.7258h-17.916l-1.123-6.8129c-5.589 4.7095-12.195 7.9373-19.593 7.9373-14.336 0-20.493-9.075-20.493-23.9973V41.3311h19.039v24.6588c0 11.9986 3.131 15.253 9.249 15.253 5.377 0 11.759-2.8046 11.759-14.1286V41.3311h19.078zM312.002 42.559l-2.471 16.7082a12.8698 12.8698 0 00-5.285-1.1245c-5.708 0-9.962 4.7095-9.962 18.6132v21.2986h-19.013V41.3287h17.916l.78 5.0402c3.475-3.8099 7.399-6.1647 11.534-6.1647a9.2445 9.2445 0 016.501 2.3548M385.12 41.3311l-23.848 56.7258h-22.064l-23.849-56.7258h21.285l13.662 36.3267 13.542-36.3267h21.272zM409.762 98.0562h-19.039V41.3304h19.039v56.7258zm-18.498-71.7539c0-1.774.526-3.5081 1.51-4.9831a8.9568 8.9568 0 014.02-3.3034 8.948 8.948 0 015.176-.5104 8.948 8.948 0 014.586 2.4546 8.9748 8.9748 0 012.452 4.5924 8.9769 8.9769 0 01-.51 5.1822 8.9668 8.9668 0 01-3.299 4.0253 8.9493 8.9493 0 01-4.977 1.5116 8.848 8.848 0 01-6.286-2.5163 8.8744 8.8744 0 01-2.672-6.2281v-.2248zM449.728 58.1715c-5.483 0-11.984 4.0348-11.984 11.5489 0 7.514 6.501 11.5489 11.984 11.5489a16.7533 16.7533 0 006.582-1.1133 16.7679 16.7679 0 005.626-3.5963v17.9385a25.1853 25.1853 0 01-15.564 4.6831c-16.912 0-28.776-13.5597-28.776-29.4874 0-15.6895 11.891-29.4874 28.776-29.4874a25.1876 25.1876 0 0115.564 4.736v17.7136a16.9557 16.9557 0 00-5.658-3.46 16.945 16.945 0 00-6.55-1.0246M496.091 40.2061c8.628 0 14.785 3.9686 17.176 8.6385l1.123-7.5141h17.916v56.7258h-17.969l-1.109-7.514c-2.352 4.6037-8.509 8.6385-17.176 8.6385-16.238 0-27.429-13.229-27.429-29.4874s11.191-29.4873 27.429-29.4873h.039zm3.317 41.0098a11.522 11.522 0 004.648-.6368 11.5287 11.5287 0 004.011-2.4378 11.5458 11.5458 0 002.709-3.8353 11.5658 11.5658 0 00.01-9.199 11.5445 11.5445 0 00-2.7-3.8416 11.5404 11.5404 0 00-4.005-2.4469 11.5207 11.5207 0 00-4.647-.6475c-3.059 0-5.993 1.2168-8.156 3.3826a11.5563 11.5563 0 00-3.378 8.1663c0 3.0629 1.215 6.0005 3.378 8.1663a11.5271 11.5271 0 008.156 3.3826M582.671 59.2696h-13.793V98.057h-19.039V59.2696h-9.737V41.3312h9.737V24.5039h19.039v16.8273h13.793v17.9384zM642.664 75.5268h-37.615c.224 2.6458 2.576 6.8261 10.411 6.8261a12.2373 12.2373 0 005.465-1.1403 12.2533 12.2533 0 004.391-3.4501l16.568 1.6801c-1.083 7.6199-9.962 19.7376-26.543 19.7376-18.022 0-29.331-13.9037-29.331-29.8313 0-15.6896 10.86-29.1038 28.327-29.1038 17.466 0 28.327 13.7846 28.327 30.4267v4.855zm-19.039-12.8983c-.225-2.9103-3.699-5.609-9.249-5.609-5.549 0-9.063 2.6457-9.248 5.609h18.497zM120 59.9934c0-3.9395-.776-7.8403-2.284-11.4798a29.9802 29.9802 0 00-6.505-9.7311 29.977 29.977 0 00-9.734-6.5001 29.9859 29.9859 0 00-11.4803-2.2791H120a30.005 30.005 0 00-8.948-20.8341 30.0037 30.0037 0 00-51.0454 20.6754V0a29.9897 29.9897 0 00-27.723 18.5195 29.9902 29.9902 0 00-2.2803 11.4838V0A30.0031 30.0031 0 00.5531 29.9254a30.0034 30.0034 0 0029.3047 30.068H0a29.9896 29.9896 0 0018.5195 27.723 29.9902 29.9902 0 0011.4838 2.2803H0a30.0015 30.0015 0 008.9532 20.8313 30.0014 30.0014 0 0020.9722 8.619 30.005 30.005 0 0021.0139-8.517 30.002 30.002 0 009.0541-20.7878V120a30.0064 30.0064 0 0021.207-8.792 30.0057 30.0057 0 008.7831-21.2113V120a30.0059 30.0059 0 0020.8345-8.948 30.0037 30.0037 0 008.623-20.9709 30.003 30.003 0 00-8.512-21.0161 30.0056 30.0056 0 00-20.7868-9.0584h29.8448l.013-.0132zM60.0066 89.8512a29.977 29.977 0 00-29.8445-29.8446 29.9902 29.9902 0 0029.8445-29.8445 30.003 30.003 0 0029.8446 29.8445 29.99 29.99 0 00-29.8446 29.8446z" fill="#171D1A"/></svg>