<?xml version="1.0" encoding="UTF-8"?><svg id="a" xmlns="http://www.w3.org/2000/svg"
  xmlns:xlink="http://www.w3.org/1999/xlink" viewBox="0 0 310 290">
  <defs>
    <linearGradient id="yb-gradient" x1="1079.93" y1="-180.63" x2="1216.99" y2="-418.03" gradientTransform="translate(0 429.18)"
      gradientUnits="userSpaceOnUse">
      <stop offset="0" stop-color="#008fa9" />
      <stop offset=".11" stop-color="#2aa07f" />
      <stop offset=".24" stop-color="#56b254" />
      <stop offset=".3" stop-color="#68ba44" />
      <stop offset=".4" stop-color="#74bd3f" />
      <stop offset=".56" stop-color="#93c535" />
      <stop offset=".81" stop-color="#cad918" />
      <stop offset="1" stop-color="#f5ea03" />
    </linearGradient>
  </defs>
  <g style="transform: translate(-990px, 0px)">
    <path style="fill: url(#yb-gradient);"
      d="M1065.51,91.77v21.26c-9.24-9.31-14.95-22.12-14.95-36.27,0-28.44,23.06-51.5,51.5-51.5s51.5,23.06,51.5,51.5c0,2.25-.16,4.47-.44,6.64h-79.81c-4.29,0-7.81,3.77-7.81,8.37Zm0,91.22v-60.5c-5.12-1.71-10.59-2.64-16.28-2.64-28.44,0-51.5,23.06-51.5,51.5s23.06,51.5,51.5,51.5c21.34,0,39.65-12.98,47.46-31.48h-23.37c-4.29,0-7.81-3.77-7.81-8.37Zm129.39,8.37h-93.36c-1.71,5.52-2.64,11.4-2.64,17.48,0,32.55,26.39,58.93,58.93,58.93s58.94-26.39,58.94-58.93c0-14.57-5.3-27.9-14.07-38.19v12.34c0,4.6-3.51,8.37-7.81,8.37Zm31.19-164.39c-33.67,0-61.62,24.37-67.24,56.43h36.06c4.29,0,7.81,3.77,7.81,8.37v67.67c7.29,2.66,15.17,4.11,23.38,4.11,37.71,0,68.29-30.57,68.29-68.29s-30.57-68.29-68.29-68.29Z" />
    <path fill="#ffdb2c"
      d="M1102.06,128.25c26.19,0,47.8-19.55,51.06-44.86h-79.81c-4.29,0-7.81,3.77-7.81,8.37v21.26c9.33,9.4,22.26,15.23,36.55,15.23Z" />
    <path fill="#ffdb2c"
      d="M1065.51,122.48v60.5c0,4.6,3.51,8.37,7.81,8.37h23.37c2.6-6.15,4.04-12.92,4.04-20.02,0-22.75-14.76-42.04-35.22-48.86Z" />
    <path fill="#ffdb2c"
      d="M1157.84,149.91c-26.46,0-48.85,17.44-56.3,41.45h93.36c4.29,0,7.81-3.77,7.81-8.37v-12.34c-10.81-12.69-26.89-20.75-44.87-20.75Z" />
    <path fill="#ffdb2c"
      d="M1194.9,83.4h-36.06c-.67,3.85-1.05,7.81-1.05,11.86,0,29.5,18.71,54.63,44.91,64.18V91.77c0-4.6-3.51-8.37-7.81-8.37Z" />
  </g>
</svg>
