<svg width="697" height="91" viewBox="0 0 697 91" fill="none" xmlns="http://www.w3.org/2000/svg"><path d="M231.916 59.6596C231.44 59.2082 230.809 58.9565 230.153 58.9565C229.497 58.9565 228.866 59.2082 228.39 59.6596C225.319 62.443 221.323 63.9846 217.178 63.9844C209.768 63.9844 203.13 59.1362 203.13 48.2002C203.13 37.2641 209.355 32.3884 216.104 32.3884C217.819 32.3868 219.517 32.7326 221.095 33.4049C222.672 34.0773 224.098 35.0623 225.284 36.3005C226.471 37.5386 227.395 39.0044 227.999 40.6093C228.604 42.2141 228.878 43.9249 228.803 45.6383H211.504C210.773 45.6383 210.073 45.9286 209.556 46.4452C209.039 46.9618 208.749 47.6624 208.749 48.393V50.9549H231.971C232.439 50.9588 232.902 50.8682 233.334 50.6886C233.766 50.509 234.156 50.244 234.483 49.9096C234.81 49.5751 235.066 49.1781 235.235 48.7423C235.405 48.3066 235.484 47.8411 235.47 47.3738C235.056 34.5646 226.958 26.4383 216.187 26.4383C204.7 26.4383 196.188 35.7766 196.188 48.2002C196.061 51.0092 196.506 53.8146 197.494 56.4471C198.482 59.0795 199.994 61.4841 201.938 63.5157C203.882 65.5472 206.218 67.1635 208.804 68.2668C211.391 69.37 214.174 69.9374 216.986 69.9345C220.312 69.9698 223.604 69.2609 226.621 67.8596C229.638 66.4583 232.304 64.4002 234.423 61.8358L231.916 59.6596Z" fill="#BEBEBE"/><path d="M303.896 30.3772C308.683 28.0002 313.95 26.7471 319.295 26.7135C330.782 26.7135 337.117 32.6636 337.117 43.5996V69.1354H333.206C332.475 69.1354 331.775 68.8452 331.258 68.3286C330.741 67.812 330.451 67.1113 330.451 66.3807V63.6261C328.664 65.6922 326.439 67.3332 323.937 68.4293C321.434 69.5254 318.719 70.049 315.989 69.9618C308.441 69.9618 300.315 65.7747 300.315 56.7394C300.315 47.7041 307.064 42.9661 318.275 42.9661H325.3V45.5554C325.3 46.286 325.01 46.9867 324.493 47.5033C323.976 48.0199 323.276 48.3101 322.545 48.3101H318.909C311.609 48.3101 307.284 51.3953 307.284 56.5741C307.284 61.7529 312.436 64.3974 317.284 64.3974C324.859 64.3974 330.671 59.7971 330.671 53.7368V43.8751C330.671 36.8507 326.484 33.0768 318.771 33.0768C315.297 33.1196 311.861 33.8013 308.634 35.0877C308.309 35.226 307.958 35.2932 307.604 35.2846C307.251 35.276 306.903 35.1919 306.585 35.038C306.266 34.8841 305.985 34.6639 305.759 34.3921C305.532 34.1204 305.367 33.8034 305.273 33.4624L303.896 30.3772Z" fill="#BEBEBE"/><path d="M143.574 19.4412H139.524C138.794 19.4412 138.093 19.1509 137.577 18.6343C137.06 18.1177 136.77 17.4171 136.77 16.6865V12.6647H140.819C141.55 12.6647 142.25 12.9549 142.767 13.4715C143.284 13.9881 143.574 14.6888 143.574 15.4193V19.4412Z" fill="#BEBEBE"/><path d="M524.435 19.4412H520.385C519.655 19.4412 518.954 19.1509 518.438 18.6343C517.921 18.1177 517.631 17.4171 517.631 16.6865V12.6647H521.68C522.411 12.6647 523.111 12.9549 523.628 13.4715C524.145 13.9881 524.435 14.6888 524.435 15.4193V19.4412Z" fill="#BEBEBE"/><path d="M98.2039 34.0133C96.1079 31.5623 93.4994 29.6013 90.5626 28.2685C87.6259 26.9358 84.4324 26.2639 81.2076 26.3002C75.4214 26.3002 69.8721 28.5988 65.7806 32.6903C61.6891 36.7817 59.3906 42.331 59.3906 48.1172C59.3906 53.9034 61.6891 59.4527 65.7806 63.5441C69.8721 67.6356 75.4214 69.9342 81.2076 69.9342C84.5194 69.9248 87.7875 69.1784 90.775 67.749C93.7624 66.3196 96.3942 64.2431 98.4794 61.6702L95.9176 59.2461C95.4149 58.8044 94.7686 58.5609 94.0995 58.5609C93.4303 58.5609 92.7841 58.8044 92.2814 59.2461C89.4023 62.1034 85.5382 63.7496 81.4831 63.8464C79.4814 63.8004 77.5088 63.3566 75.6803 62.5409C73.8517 61.7253 72.2037 60.554 70.8322 59.0953C69.4607 57.6366 68.393 55.9197 67.6914 54.0444C66.9898 52.1691 66.6683 50.173 66.7455 48.1723C66.6456 46.1956 66.9433 44.2189 67.6212 42.3593C68.299 40.4998 69.3431 38.7951 70.6917 37.3464C72.0402 35.8976 73.6658 34.7343 75.4721 33.9252C77.2784 33.1161 79.2288 32.6777 81.2076 32.636C85.2278 32.7079 89.0579 34.3606 91.8682 37.2363C92.1176 37.4681 92.4103 37.6486 92.7296 37.7672C93.0488 37.8858 93.3883 37.9402 93.7286 37.9274C94.0689 37.9147 94.4034 37.8349 94.7128 37.6926C95.0223 37.5504 95.3006 37.3485 95.5319 37.0985L98.2039 34.0133Z" fill="#BEBEBE"/><path d="M172.112 69.1355C172.981 69.1176 173.826 68.8478 174.545 68.3588C175.264 67.8699 175.825 67.1827 176.161 66.3808L193.158 27.3472H189.521C188.431 27.3372 187.361 27.6512 186.449 28.2495C185.537 28.8478 184.823 29.7034 184.398 30.7078L172.332 59.7972L160.184 30.7629C159.759 29.7585 159.045 28.9029 158.133 28.3046C157.22 27.7063 156.151 27.3922 155.06 27.4022H151.286L168.145 66.4359C168.483 67.215 169.036 67.8821 169.738 68.36C170.44 68.8378 171.263 69.1067 172.112 69.1355Z" fill="#BEBEBE"/><path d="M126.825 61.8355C124.849 62.8114 122.691 63.3649 120.489 63.4607C119.604 63.5965 118.7 63.5221 117.849 63.2434C116.999 62.9647 116.225 62.4896 115.592 61.8566C114.959 61.2236 114.484 60.4504 114.206 59.5997C113.927 58.749 113.852 57.8446 113.988 56.9597V33.4624H126.963V30.1017C126.963 29.3711 126.673 28.6705 126.156 28.1539C125.639 27.6373 124.939 27.347 124.208 27.347H113.988V15.3642C113.988 14.6336 113.698 13.933 113.181 13.4164C112.665 12.8998 111.964 12.6096 111.234 12.6096H107.239V58.0616C107.21 59.5964 107.484 61.1219 108.047 62.5504C108.609 63.9788 109.448 65.2821 110.515 66.3854C111.583 67.4886 112.857 68.3701 114.267 68.9791C115.676 69.5881 117.191 69.9127 118.726 69.9342C121.599 70.0301 124.448 69.375 126.99 68.0335L126.825 61.8355Z" fill="#BEBEBE"/><path d="M139.524 69.1356H143.574V30.102C143.574 29.3714 143.283 28.6707 142.767 28.1541C142.25 27.6375 141.549 27.3473 140.819 27.3473H136.825V66.436C136.8 66.7969 136.853 67.1587 136.98 67.4973C137.107 67.8359 137.305 68.1434 137.561 68.3991C137.817 68.6548 138.124 68.8529 138.463 68.9799C138.802 69.1069 139.163 69.16 139.524 69.1356Z" fill="#BEBEBE"/><path d="M294.695 21.1767C291.847 18.2183 288.421 15.8773 284.63 14.2992C280.839 12.7212 276.764 11.9398 272.658 12.0036C268.84 11.9531 265.051 12.6775 261.521 14.1331C257.991 15.5886 254.792 17.7451 252.12 20.472C249.447 23.199 247.355 26.4397 245.97 29.9983C244.586 33.5568 243.937 37.3593 244.064 41.1756C243.934 44.9561 244.57 48.7238 245.932 52.2526C247.295 55.7813 249.357 58.9982 251.994 61.7101C254.631 64.4219 257.79 66.5727 261.279 68.0334C264.768 69.494 268.517 70.2343 272.3 70.2098C276.575 70.2541 280.811 69.3821 284.721 67.6525C288.632 65.923 292.127 63.3759 294.971 60.1828L292.216 57.4281C291.713 56.9865 291.067 56.7429 290.398 56.7429C289.729 56.7429 289.082 56.9865 288.58 57.4281C284.27 61.6097 278.497 63.9424 272.492 63.9291C260.62 63.9291 251.447 53.9297 251.447 41.2307C251.447 28.5316 260.482 18.8077 272.492 18.8077C278.273 18.9187 283.827 21.0757 288.167 24.8955C288.704 25.3084 289.375 25.5086 290.051 25.4577C290.727 25.4069 291.36 25.1087 291.83 24.62L294.695 21.1767Z" fill="#BEBEBE"/><path d="M395.241 26.4381C392.359 26.3745 389.511 27.0655 386.979 28.4427C384.447 29.8199 382.319 31.8353 380.806 34.2889C379.572 31.8565 377.67 29.8261 375.324 28.4357C372.977 27.0453 370.283 26.3523 367.556 26.4381C365.008 26.4021 362.493 27.0154 360.247 28.2202C358.001 29.425 356.099 31.1817 354.72 33.3248V30.1018C354.72 29.3713 354.429 28.6706 353.913 28.154C353.396 27.6374 352.695 27.3472 351.965 27.3472H347.916V69.1355H351.965C352.695 69.1355 353.396 68.8453 353.913 68.3287C354.429 67.8121 354.72 67.1114 354.72 66.3808V45.3627C354.72 38.0628 359.32 32.8014 365.738 32.8014C372.157 32.8014 375.958 37.264 375.958 44.674V66.4359C375.958 67.1665 376.248 67.8672 376.765 68.3838C377.282 68.9004 377.982 69.1906 378.713 69.1906H382.762V45.0872C382.762 36.5753 388.272 32.8014 393.781 32.8014C400.282 32.8014 404.056 37.1262 404.056 44.8118V66.4359C404.056 67.1665 404.346 67.8672 404.863 68.3838C405.379 68.9004 406.08 69.1906 406.81 69.1906H410.86V43.3243C410.722 32.9392 404.772 26.4381 395.241 26.4381Z" fill="#BEBEBE"/><path d="M444.081 26.4383C441.029 26.424 438.022 27.1725 435.333 28.6157C432.644 30.0589 430.358 32.1511 428.683 34.7023V30.102C428.683 29.3714 428.392 28.6708 427.876 28.1542C427.359 27.6376 426.659 27.3474 425.928 27.3474H421.879V79.2453C421.879 79.9759 422.169 80.6766 422.685 81.1932C423.202 81.7098 423.903 82 424.633 82H428.683V61.9735C430.408 64.4531 432.712 66.4742 435.396 67.8615C438.079 69.2488 441.061 69.9604 444.081 69.9345C453.805 69.9345 464.08 62.249 464.08 48.2002C464.08 34.1514 453.667 26.4383 444.081 26.4383ZM457.056 48.2002C457.056 57.3733 451.243 63.7365 443.007 63.7365C441.029 63.6911 439.081 63.2501 437.276 62.4398C435.472 61.6294 433.848 60.4659 432.5 59.018C431.152 57.57 430.108 55.8669 429.428 54.009C428.749 52.1511 428.449 50.176 428.545 48.2002C428.445 46.2221 428.743 44.2441 429.42 42.383C430.098 40.5218 431.141 38.8154 432.489 37.3645C433.838 35.9136 435.463 34.7476 437.269 33.9355C439.076 33.1234 441.027 32.6817 443.007 32.6363C451.106 32.6363 457.056 39.2751 457.056 48.2002Z" fill="#BEBEBE"/><path d="M520.248 69.1356H524.297V30.102C524.297 29.3714 524.007 28.6707 523.491 28.1541C522.974 27.6375 522.273 27.3473 521.543 27.3473H517.548V66.436C517.563 67.1476 517.852 67.8261 518.355 68.3293C518.858 68.8326 519.537 69.1215 520.248 69.1356Z" fill="#BEBEBE"/><path d="M535.508 76.0221C541.189 79.9018 547.912 81.9669 554.791 81.9446C568.317 81.9446 576.002 74.5345 576.002 61.56V27.4021H571.953C571.222 27.4021 570.522 27.6924 570.005 28.209C569.488 28.7256 569.198 29.4262 569.198 30.1568V34.0134C567.141 31.3826 564.45 29.3171 561.377 28.0106C558.303 26.7041 554.949 26.1993 551.627 26.5435C548.305 26.8878 545.126 28.0698 542.386 29.9787C539.646 31.8877 537.435 34.4611 535.961 37.4578C534.488 40.4545 533.799 43.7762 533.96 47.1118C534.12 50.4474 535.126 53.6875 536.881 56.5285C538.636 59.3695 541.084 61.7183 543.995 63.3548C546.906 64.9912 550.185 65.8618 553.524 65.8849C556.584 65.9156 559.607 65.2081 562.335 63.8223C565.064 62.4364 567.418 60.4131 569.198 57.9239V61.6978C569.198 70.7606 563.937 75.8843 554.626 75.8843C549.761 75.8818 544.993 74.5276 540.853 71.9727C540.56 71.7694 540.227 71.6316 539.876 71.5687C539.525 71.5058 539.165 71.5193 538.82 71.6081C538.475 71.697 538.153 71.8593 537.876 72.0838C537.6 72.3083 537.374 72.5899 537.216 72.9093L535.508 76.0221ZM569.143 46.1614C569.105 48.0389 568.691 49.8896 567.926 51.6047C567.162 53.3198 566.061 54.8646 564.691 56.1481C563.32 57.4315 561.706 58.4278 559.945 59.0781C558.183 59.7284 556.309 60.0197 554.433 59.9348C552.609 59.9921 550.792 59.6751 549.095 59.0032C547.398 58.3313 545.857 57.3189 544.566 56.0283C543.276 54.7377 542.263 53.1964 541.591 51.4994C540.919 49.8024 540.602 47.9857 540.66 46.1614C540.616 44.3536 540.945 42.5561 541.626 40.8806C542.306 39.2051 543.324 37.6874 544.615 36.4216C545.907 35.1559 547.445 34.1691 549.134 33.5227C550.823 32.8762 552.626 32.5838 554.433 32.6636C556.29 32.5636 558.148 32.8354 559.899 33.4632C561.649 34.0909 563.256 35.0619 564.627 36.3191C565.997 37.5764 567.102 39.0946 567.878 40.7847C568.653 42.4748 569.083 44.3028 569.143 46.1614Z" fill="#BEBEBE"/><path d="M607.488 26.4382C604.77 26.3441 602.074 26.9541 599.66 28.209C597.247 29.4638 595.199 31.321 593.715 33.6004V30.1019C593.715 29.3713 593.425 28.6707 592.908 28.1541C592.392 27.6375 591.691 27.3473 590.96 27.3473H586.911V69.1356H590.96C591.691 69.1356 592.392 68.8454 592.908 68.3288C593.425 67.8122 593.715 67.1115 593.715 66.3809V45.17C593.607 43.5551 593.838 41.9354 594.39 40.4143C594.943 38.8932 595.807 37.504 596.927 36.3352C598.046 35.1664 599.397 34.2437 600.893 33.6258C602.389 33.0079 603.997 32.7084 605.615 32.7464C612.502 32.7464 616.634 37.209 616.634 44.7568V66.3809C616.634 67.1115 616.924 67.8122 617.441 68.3288C617.957 68.8454 618.658 69.1356 619.389 69.1356H623.438V43.1866C623.576 33.077 617.35 26.4382 607.488 26.4382Z" fill="#BEBEBE"/><path d="M688.807 47.236L653.822 70.4854C653.08 70.9939 652.473 71.6765 652.055 72.4737C651.637 73.2708 651.421 74.1582 651.426 75.0582V80.8705L693.82 53.0483C694.765 52.3981 695.54 51.5312 696.082 50.52C696.624 49.5089 696.915 48.3829 696.933 47.236C696.942 46.0879 696.661 44.956 696.117 43.9449C695.573 42.9338 694.783 42.0762 693.82 41.4512L651.426 13.877V19.3863C651.424 20.2887 651.645 21.1777 652.067 21.975C652.49 22.7724 653.102 23.4537 653.85 23.959L688.807 47.236Z" fill="#BEBEBE"/><path d="M667.733 49.1642C668.663 49.7578 669.743 50.0731 670.846 50.0731C671.949 50.0731 673.029 49.7578 673.959 49.1642L676.934 47.1533L654.759 32.1404C654.437 31.9204 654.061 31.7922 653.672 31.7695C653.282 31.7468 652.894 31.8306 652.549 32.0118C652.203 32.193 651.914 32.4648 651.711 32.798C651.508 33.1312 651.4 33.5133 651.398 33.9034V38.3659L662.885 46.0515L667.733 49.1642Z" fill="#BEBEBE"/><path d="M473.804 30.3772C478.591 28.0002 483.858 26.7471 489.202 26.7135C500.662 26.7135 507.025 32.6636 507.025 43.5996V69.1354H503.114C502.383 69.1354 501.682 68.8452 501.166 68.3286C500.649 67.812 500.359 67.1113 500.359 66.3807V63.6261C498.571 65.6906 496.345 67.3306 493.843 68.4266C491.341 69.5226 488.627 70.047 485.897 69.9618C478.322 69.9618 470.223 65.7747 470.223 56.7394C470.223 47.7041 476.972 42.9661 488.183 42.9661H495.208V45.5554C495.208 46.286 494.917 46.9867 494.401 47.5033C493.884 48.0199 493.184 48.3101 492.453 48.3101H488.899C481.6 48.3101 477.275 51.3953 477.275 56.5741C477.275 61.7529 482.398 64.3974 487.274 64.3974C494.85 64.3974 500.634 59.7971 500.634 53.7368V43.8751C500.634 36.8507 496.447 33.0768 488.762 33.0768C485.288 33.1196 481.852 33.8013 478.625 35.0877C478.293 35.2508 477.928 35.3375 477.558 35.3415C477.189 35.3455 476.822 35.2667 476.487 35.1108C476.152 34.955 475.855 34.7261 475.62 34.4408C475.384 34.1556 475.216 33.8213 475.126 33.4624L473.804 30.3772Z" fill="#BEBEBE"/><path d="M53.6611 69.1355H57.5727L33.3591 15.5021C33.0151 14.5975 32.3775 13.8344 31.5485 13.335C30.7195 12.8356 29.7469 12.6287 28.7864 12.7474C27.8367 12.6026 26.8664 12.8001 26.0489 13.3047C25.2314 13.8094 24.62 14.5882 24.3238 15.5021L0 69.1355H3.66371C4.73289 69.1121 5.77534 68.7969 6.67837 68.224C7.58141 67.6511 8.31069 66.8423 8.78741 65.885L13.9111 54.6735H33.1938C33.9244 54.6735 34.6251 54.3832 35.1417 53.8666C35.6583 53.35 35.9485 52.6494 35.9485 51.9188V48.2H16.6658L28.869 21.1767L48.62 65.6921C49.0273 66.6991 49.7231 67.5632 50.62 68.1759C51.5169 68.7885 52.575 69.1224 53.6611 69.1355Z" fill="#BEBEBE"/></svg>