<svg width="231" height="24" fill="none" xmlns="http://www.w3.org/2000/svg"><path d="M4.943 14.17a2.356 2.356 0 0 1 0-4.712h12.393a2.356 2.356 0 1 1 0 4.711H4.943Z" fill="#002C55"/><path fill-rule="evenodd" clip-rule="evenodd" d="M.844 4.746A2.356 2.356 0 0 0 3.2 7.102h18.848a2.356 2.356 0 1 0 0-4.712H3.2A2.356 2.356 0 0 0 .844 4.746ZM3.2 21.237a2.356 2.356 0 1 1 0-4.712h13.193a2.356 2.356 0 1 1 0 4.712H3.2Zm21.204-2.356a2.356 2.356 0 1 1-4.712 0 2.356 2.356 0 0 1 4.712 0Z" fill="#0073CF"/><g clip-path="url(#a)" fill="#0073CF"><path d="m39.667 15.569-.818 3.48a.221.221 0 0 1-.08.123.23.23 0 0 1-.14.048l-3.777-.018a.228.228 0 0 1-.183-.092.217.217 0 0 1-.03-.198l4.978-14.907a.533.533 0 0 1 .438-.345c1.102-.196 2.844-.46 4.075-.682a.388.388 0 0 1 .385.204l4.938 15.833a.17.17 0 0 1-.028.15.177.177 0 0 1-.139.07l-2.203-.02c-.584 0-1.72.037-2.171.051a.226.226 0 0 1-.145-.046.219.219 0 0 1-.082-.127l-.796-3.524h-4.222Zm3.484-3.055c-.313-1.254-.808-3.467-1.251-5.386-.313 1.33-1.071 4.083-1.43 5.386h2.681ZM54.419 8.844c2.706-1.828 4.954-1.42 6.059-.339 1.34 1.35.556 3.11 1.014 10.482a.217.217 0 0 1-.062.167.237.237 0 0 1-.169.069 79.52 79.52 0 0 0-1.584-.03c-.659 0-1.94.055-2.468.078a.232.232 0 0 1-.167-.062.222.222 0 0 1-.07-.16c.054-7.239.107-8.21-1.233-8.21-.455 0-.866.19-1.251.381.022 3.743.076 4.804.2 7.818a.177.177 0 0 1-.049.128.196.196 0 0 1-.13.055l-4.248.054a.174.174 0 0 1-.13-.052.171.171 0 0 1-.053-.126c.098-10.805.018-13.038-.313-15.299a.189.189 0 0 1 .039-.152.196.196 0 0 1 .14-.073c1.877-.276 2.063-.307 4.248-.705a.232.232 0 0 1 .172.069.224.224 0 0 1 .063.171l-.008 5.736ZM68.872 18.07c-.782.57-2.346 1.358-3.575 1.358-1.939 0-3.176-1.38-3.176-3.471 0-3.22 3.831-4.14 6.6-4.504.043-.53.065-1.102-1.34-1.102-1.407 0-2.55.42-3.732.88a.226.226 0 0 1-.288-.109.22.22 0 0 1-.022-.107l.125-2.471a.222.222 0 0 1 .047-.124.23.23 0 0 1 .11-.077c2.47-.733 6.68-1.308 8.471.293 1.087.972 1.034 2.206.995 4.292-.055 3.001-.011 3.832.169 6.068a.22.22 0 0 1-.06.166.222.222 0 0 1-.156.072l-3.931.058a.22.22 0 0 1-.224-.216l-.013-1.006Zm-.064-4.305c-1.016.085-2.554.191-2.554 1.485 0 1.117 1.26 1.493 2.554.7v-2.185ZM75.853 13.854a.231.231 0 0 1-.159-.06.222.222 0 0 1-.072-.152c-.246-5.649-.313-6.266-.637-9.792a.22.22 0 0 1 .045-.153.229.229 0 0 1 .137-.086l4.222-.697a.23.23 0 0 1 .191.055.218.218 0 0 1 .07.184c-.245 2.537-.522 7.322-.573 10.423a.219.219 0 0 1-.066.152.228.228 0 0 1-.155.066l-3.003.06ZM79.357 19.004a.216.216 0 0 1-.066.165.229.229 0 0 1-.169.065 31.956 31.956 0 0 0-3.781.033.223.223 0 0 1-.225-.133.21.21 0 0 1-.016-.09c.022-1.196.026-2.473.015-3.22a.213.213 0 0 1 .072-.165.224.224 0 0 1 .172-.06c1.263.075 2.529.064 3.79-.033a.23.23 0 0 1 .178.056.225.225 0 0 1 .072.172c-.055 1.246-.075 2.316-.042 3.21Z"/></g><path d="M196.152 19.438c-1.131 0-2.179-.129-3.144-.385-.965-.271-1.801-.663-2.51-1.176l1.741-2.465c.754.452 1.44.784 2.059.995a6.037 6.037 0 0 0 1.832.294c.603 0 1.078-.083 1.425-.249.361-.18.542-.415.542-.701a.63.63 0 0 0-.294-.543c-.196-.15-.505-.256-.927-.316l-2.375-.362c-1.191-.181-2.103-.573-2.737-1.176-.618-.619-.927-1.418-.927-2.398 0-.814.204-1.508.611-2.08.422-.589 1.018-1.034 1.787-1.335.769-.317 1.688-.475 2.759-.475.874 0 1.741.12 2.601.362a8.609 8.609 0 0 1 2.397 1.085l-1.741 2.353c-.649-.377-1.267-.649-1.855-.815a5.97 5.97 0 0 0-1.764-.271c-.467 0-.844.083-1.131.249-.286.15-.43.354-.43.61 0 .242.106.438.317.588.211.136.573.242 1.086.317l2.375.362c1.176.166 2.08.558 2.714 1.176.648.603.972 1.372.972 2.307 0 .784-.234 1.478-.701 2.08-.467.604-1.108 1.086-1.922 1.448-.8.347-1.719.52-2.76.52ZM176.759 23.825V7.247h3.619v.882a5.314 5.314 0 0 1 3.212-1.04c1.146 0 2.179.278 3.098.836a6.065 6.065 0 0 1 2.194 2.217c.543.92.814 1.953.814 3.098 0 1.146-.278 2.187-.836 3.122a6.023 6.023 0 0 1-2.239 2.194c-.935.542-1.983.814-3.144.814a6.252 6.252 0 0 1-1.606-.204 6.087 6.087 0 0 1-1.448-.588v5.247h-3.664Zm6.198-7.554c.603 0 1.138-.128 1.605-.384a3.064 3.064 0 0 0 1.109-1.086c.286-.467.429-.988.429-1.56 0-.574-.143-1.086-.429-1.539a2.808 2.808 0 0 0-1.131-1.085 3.096 3.096 0 0 0-1.583-.407c-.513 0-.981.083-1.403.248a3.17 3.17 0 0 0-1.131.702v4.184c.317.286.694.513 1.131.678.438.166.905.25 1.403.25ZM167.661 19.415c-.845 0-1.598-.159-2.262-.475a3.856 3.856 0 0 1-1.538-1.312c-.362-.558-.543-1.199-.543-1.922 0-1.146.43-2.028 1.289-2.647.875-.633 2.089-.95 3.642-.95.935 0 1.839.114 2.714.34v-.588c0-.604-.196-1.048-.588-1.335-.377-.301-.942-.452-1.696-.452-.468 0-.996.075-1.584.226-.573.15-1.251.392-2.035.724l-1.312-2.692c.98-.437 1.922-.761 2.827-.972.92-.226 1.84-.34 2.759-.34 1.659 0 2.948.4 3.868 1.2.92.783 1.38 1.892 1.38 3.324v7.667h-3.619v-.723a5.122 5.122 0 0 1-1.538.723 7.09 7.09 0 0 1-1.764.204Zm-.86-3.777c0 .377.166.67.498.882.332.21.792.317 1.38.317.437 0 .844-.046 1.221-.136a3.5 3.5 0 0 0 1.063-.43v-1.538a8.262 8.262 0 0 0-1.063-.204 8.931 8.931 0 0 0-1.108-.067c-.634 0-1.124.105-1.47.316-.347.196-.521.483-.521.86ZM142.944 19.211V7.247h3.664v.769c.844-.664 1.839-.995 2.985-.995.754 0 1.433.143 2.036.43a4.12 4.12 0 0 1 1.515 1.22 4.982 4.982 0 0 1 1.719-1.22 5.42 5.42 0 0 1 2.171-.43c.905 0 1.704.203 2.398.61a4.297 4.297 0 0 1 1.628 1.697c.407.723.611 1.56.611 2.51v7.373h-3.664v-6.875c0-.664-.181-1.191-.543-1.584-.347-.392-.814-.588-1.402-.588-.407 0-.777.076-1.108.226-.332.151-.619.377-.86.68.015.12.023.248.023.384.015.12.022.248.022.384v7.373h-3.664v-6.875c0-.664-.18-1.191-.542-1.584-.347-.392-.815-.588-1.403-.588a2.65 2.65 0 0 0-1.108.226 2.06 2.06 0 0 0-.814.634v8.187h-3.664ZM133.842 19.37c-1.131 0-2.164-.272-3.099-.815a6.311 6.311 0 0 1-2.194-2.216c-.542-.935-.814-1.975-.814-3.121s.272-2.18.814-3.099a6.188 6.188 0 0 1 2.24-2.216c.949-.543 2.005-.815 3.166-.815.558 0 1.093.068 1.606.204.512.136.995.332 1.447.588v-4.5l3.664-.566V19.21h-3.618v-.882a5.314 5.314 0 0 1-3.212 1.04Zm.633-3.122c.513 0 .98-.075 1.402-.226.423-.166.8-.407 1.131-.723v-4.185a3.055 3.055 0 0 0-1.131-.678 3.916 3.916 0 0 0-1.402-.249 3.22 3.22 0 0 0-1.606.407 3.01 3.01 0 0 0-1.131 1.086 2.934 2.934 0 0 0-.407 1.538c0 .573.136 1.093.407 1.56.287.453.664.814 1.131 1.086a3.371 3.371 0 0 0 1.606.384ZM119.179 19.415c-.844 0-1.598-.159-2.261-.475a3.85 3.85 0 0 1-1.538-1.312c-.362-.558-.543-1.199-.543-1.922 0-1.146.43-2.028 1.289-2.647.875-.633 2.088-.95 3.641-.95.935 0 1.84.114 2.714.34v-.588c0-.604-.196-1.048-.588-1.335-.377-.301-.942-.452-1.696-.452-.467 0-.995.075-1.583.226-.573.15-1.252.392-2.036.724l-1.311-2.692c.98-.437 1.922-.761 2.827-.972a11.51 11.51 0 0 1 2.759-.34c1.659 0 2.948.4 3.868 1.2.919.783 1.379 1.892 1.379 3.324v7.667h-3.619v-.723a5.11 5.11 0 0 1-1.538.723 7.078 7.078 0 0 1-1.764.204Zm-.859-3.777c0 .377.166.67.497.882.332.21.792.317 1.38.317.437 0 .844-.046 1.221-.136a3.49 3.49 0 0 0 1.063-.43v-1.538a8.229 8.229 0 0 0-1.063-.204 8.92 8.92 0 0 0-1.108-.067c-.633 0-1.123.105-1.47.316-.347.196-.52.483-.52.86ZM107.037 19.438c-1.221 0-2.322-.272-3.302-.815a6.388 6.388 0 0 1-2.33-2.239c-.573-.935-.859-1.983-.859-3.144 0-1.16.286-2.209.859-3.143a6.156 6.156 0 0 1 2.33-2.24c.98-.557 2.081-.836 3.302-.836s2.322.279 3.302.836a6.156 6.156 0 0 1 2.33 2.24c.573.934.859 1.982.859 3.143 0 1.161-.286 2.21-.859 3.144a6.388 6.388 0 0 1-2.33 2.24c-.98.542-2.081.814-3.302.814Zm0-3.167c.558 0 1.055-.136 1.493-.407a2.993 2.993 0 0 0 1.04-1.086 3.15 3.15 0 0 0 .385-1.538c0-.573-.129-1.085-.385-1.538a2.888 2.888 0 0 0-1.063-1.108 2.73 2.73 0 0 0-1.47-.407 2.85 2.85 0 0 0-1.493.407c-.437.272-.784.64-1.04 1.108a3.068 3.068 0 0 0-.385 1.538c0 .558.129 1.07.385 1.538.256.453.603.814 1.04 1.086.453.271.95.407 1.493.407ZM86.272 19.211V3.38h8.097c1.086 0 2.051.219 2.895.656.845.422 1.5 1.018 1.968 1.787.483.754.724 1.62.724 2.6 0 .996-.272 1.886-.814 2.67a5.184 5.184 0 0 1-2.149 1.787l3.461 6.332h-4.343l-2.986-5.767h-2.962v5.767h-3.89Zm3.89-8.933h3.846c.603 0 1.085-.166 1.447-.498.377-.332.566-.761.566-1.29 0-.527-.189-.957-.566-1.288-.362-.332-.844-.498-1.447-.498h-3.845v3.574Z" fill="#0073CF"/><defs><clipPath id="a"><path fill="#fff" transform="translate(34.627 2.868)" d="M0 0h45.025v16.561H0z"/></clipPath></defs></svg>