<svg width="66" height="72" viewBox="0 0 66 72" fill="none" xmlns="http://www.w3.org/2000/svg">
<path d="M23.2315 67.1724L18.5495 59.063L15.9042 64.0924L20.4536 71.978H60.6814L56.554 67.1724H23.2315Z" fill="#052B2E"/>
<path d="M28.936 58.1566L24.2541 50.0471L21.6088 55.0765L26.1582 62.9621H65.9226L62.3054 58.1566H28.936Z" fill="#052B2E"/>
<path d="M33.7378 49.149L29.0558 41.0396L26.4105 46.069L30.9601 53.9546H54.8748L51.2848 49.149H33.7378Z" fill="#052B2E"/>
<path fill-rule="evenodd" clip-rule="evenodd" d="M23.9798 5.00066L5.64479 36.7578L7.87496 40.6206L26.0109 9.20827H62.1154L65.7714 14.0139H28.7854L10.6495 45.4262L13.1042 49.678L31.2642 18.2208H61.1148L64.6927 23.0264H34.0387L15.8778 54.4819L15.8781 54.4825L13.1035 59.3119L0.0947266 36.756L0.101077 36.7524L0.0994585 36.7514L21.2053 0.195068H46.6358L50.2688 5.00066H23.9798Z" fill="#04C28F"/>
</svg>
