<svg xmlns="http://www.w3.org/2000/svg" viewBox="0 0 1053.48 209.34"><defs><style>.cls-1{fill:#fe5000}</style></defs><g id="Layer_2" data-name="Layer 2"><g id="Layer_1-2" data-name="Layer 1"><path class="cls-1" d="M385.85 191.56L350 138.39a8.89 8.89 0 012.46-12.39c16.42-11 26.72-30.68 26.72-53.38C379.18 33.75 346.66 3 306.59 3h-86.14a5.89 5.89 0 00-5.89 5.9v37.68a2.92 2.92 0 002.75 2.93c29.15 1.57 52.56 26.7 52.56 55.37 0 28.94-23.66 53.53-52.56 55.09a2.92 2.92 0 00-2.75 2.93v36.55a5.89 5.89 0 005.89 5.89h50.05a5.89 5.89 0 005.89-5.89v-17.61c0-12.55 10.84-15.59 19.13-5.75l21 26.29a10.1 10.1 0 007.14 3h54.84a8.84 8.84 0 007.35-13.82zM413.31 2.9h43.38a5.9 5.9 0 015.89 5.9v190.58a5.89 5.89 0 01-5.89 5.89h-43.38a5.9 5.9 0 01-5.9-5.89V8.8a5.9 5.9 0 015.9-5.9zM533 52.84h-45.71A5.89 5.89 0 01481.4 47V8.8a5.9 5.9 0 015.89-5.9h151.39a5.9 5.9 0 015.89 5.9V47a5.89 5.89 0 01-5.89 5.89h-44.59a3 3 0 00-2.94 2.95v143.54a5.89 5.89 0 01-5.89 5.89h-43.38a5.9 5.9 0 01-5.9-5.89V55.79a3 3 0 00-2.98-2.95zM670.12 2.9h137.45a5.9 5.9 0 015.89 5.9v37.86a5.89 5.89 0 01-5.89 5.89h-85.23a3 3 0 00-3 3v22a2.94 2.94 0 003 2.94h79.13a5.9 5.9 0 015.89 5.9v33.51a5.89 5.89 0 01-5.89 5.89h-79.13a3 3 0 00-3 2.94v24.89a3 3 0 003 2.94h87.55a5.9 5.9 0 015.89 5.9v37a5.89 5.89 0 01-5.89 5.89H670.12a5.89 5.89 0 01-5.89-5.89V8.8a5.89 5.89 0 015.89-5.9zM941.7 0c-61.84 0-111.49 47-111.49 104.81s49.65 104.53 111.49 104.53c62.13 0 111.78-46.75 111.78-104.53S1003.83 0 941.7 0zm0 160a55 55 0 01-55.16-55.17c0-29.9 24.68-55.45 55.16-55.45s55.46 25.84 55.46 55.45C997.21 134.72 972 160 941.75 160zM110.33 0c31.48 0 59.66 13.44 79.8 34.87a5.9 5.9 0 01-.55 8.52L161 67.34a5.9 5.9 0 01-7.89-.34 61.62 61.62 0 00-42.75-17.64c-30.49 0-55.17 23.23-55.17 54.87s24.68 54.59 55.17 54.59a61.66 61.66 0 0042.75-17.64 5.9 5.9 0 017.89-.35l28.6 23.95a5.89 5.89 0 01.56 8.52c-20.14 21.43-48.32 34.87-79.8 34.87C49.36 208.17 0 164.33 0 104.23S49.36 0 110.33 0z"/></g></g></svg>