<?xml version="1.0" encoding="UTF-8"?>
<svg xmlns="http://www.w3.org/2000/svg" width="88" height="48" viewBox="0 0 88 48" fill="none">
  <mask id="mask0_5123_28263" style="mask-type:luminance" maskUnits="userSpaceOnUse" x="0" y="0" width="66" height="48">
    <path d="M65.6203 0H0V47.6677H65.6203V0Z" fill="white"></path>
  </mask>
  <g mask="url(#mask0_5123_28263)">
    <path d="M0.0346536 0V11.078C3.34166 11.1211 6.50104 12.4542 8.83935 14.7931C11.1777 17.132 12.51 20.2917 12.5522 23.5987C12.523 26.9098 11.1949 30.0771 8.85379 32.4188C6.51269 34.7605 3.34576 36.0894 0.0346536 36.1195C-0.0389225 39.4688 0.0346536 47.6677 0.0346536 47.6677H65.6134L23.0768 0H0.0346536Z" fill="#16C0DE"></path>
  </g>
  <path d="M87.2986 11.5514C87.3785 8.19894 87.2986 0 87.2986 0H23.0762L65.6224 47.6645H87.2986V36.5865C83.9916 36.5443 80.8318 35.212 78.4929 32.8737C76.154 30.5354 74.8209 27.376 74.7778 24.069C74.8087 20.7581 76.1379 17.5917 78.4794 15.2508C80.8209 12.9098 83.9877 11.5815 87.2986 11.5514Z" fill="#1B92C1"></path>
</svg>
