<svg width="115" height="16" viewBox="0 0 115 16" fill="none" xmlns="http://www.w3.org/2000/svg">
<mask id="mask0_807_1279" style="mask-type:alpha" maskUnits="userSpaceOnUse" x="0" y="1" width="23" height="14">
<path fill-rule="evenodd" clip-rule="evenodd" d="M13.4318 1C12.4652 1 11.6816 1.78356 11.6816 2.75012C11.6816 3.71669 12.4652 4.50024 13.4318 4.50024H19.2655C21.1986 4.50024 22.7657 2.93313 22.7657 1H13.4318ZM9.12748 6.38525C7.34305 6.38525 5.89648 7.83182 5.89648 9.61625H18.3715C20.1559 9.61625 21.6025 8.16968 21.6025 6.38525H9.12748ZM0.601562 15C0.601562 13.0669 2.16867 11.4998 4.10181 11.4998H9.9355C10.9021 11.4998 11.6856 12.2833 11.6856 13.2499C11.6856 14.2164 10.9021 15 9.9355 15H0.601562ZM15.1857 11.4998C14.2191 11.4998 13.4355 12.2833 13.4355 13.2499C13.4355 14.2164 14.2191 15 15.1857 15H16.3524C17.9633 15 19.2693 13.6941 19.2693 12.0831V11.4998H15.1857Z" fill="white"/>
</mask>
<g mask="url(#mask0_807_1279)">
<path d="M11.6855 2.75012C11.6855 1.78356 12.4691 1 13.4357 1H22.7696V1C22.7696 2.93313 21.2025 4.50024 19.2694 4.50024H13.4357C12.4691 4.50024 11.6855 3.71669 11.6855 2.75012V2.75012Z" fill="white"/>
<path d="M11.6855 2.75012C11.6855 1.78356 12.4691 1 13.4357 1H22.7696V1C22.7696 2.93313 21.2025 4.50024 19.2694 4.50024H13.4357C12.4691 4.50024 11.6855 3.71669 11.6855 2.75012V2.75012Z" fill="url(#paint0_linear_807_1279)"/>
<path d="M5.89453 9.6121C5.89453 7.82767 7.3411 6.3811 9.12552 6.3811H21.6006V6.3811C21.6006 8.16553 20.154 9.6121 18.3696 9.6121H5.89453V9.6121Z" fill="url(#paint1_linear_807_1279)"/>
<path d="M0.601562 14.9958C0.601562 13.0627 2.16867 11.4956 4.10181 11.4956H9.9355C10.9021 11.4956 11.6856 12.2792 11.6856 13.2457V13.2457C11.6856 14.2123 10.9021 14.9958 9.9355 14.9958H0.601562V14.9958Z" fill="#D7613A"/>
<path d="M13.4355 13.2457C13.4355 12.2792 14.2191 11.4956 15.1857 11.4956H19.2693V12.079C19.2693 13.6899 17.9633 14.9958 16.3524 14.9958H15.1857C14.2191 14.9958 13.4355 14.2123 13.4355 13.2457V13.2457Z" fill="url(#paint2_linear_807_1279)"/>
</g>
<path fill-rule="evenodd" clip-rule="evenodd" d="M37.7683 7.56772H31.597C31.5189 7.56772 31.4212 7.62631 31.4017 7.72395L31.0892 9.22772C31.0697 9.30583 31.1283 9.38395 31.2064 9.38395H34.9756C34.3507 12.1571 32.9641 13.1922 30.8354 13.1922C28.57 13.1922 27.3591 11.6689 27.3591 9.36442C27.3591 5.84913 29.4683 2.78302 32.4954 2.78302C34.1944 2.78302 35.4248 3.73996 35.6396 5.39996C35.6591 5.49761 35.7372 5.55619 35.8154 5.55619H37.9636C38.0417 5.55619 38.1198 5.47808 38.1198 5.39996C37.905 2.58773 35.6396 0.888672 32.6321 0.888672C28.2184 0.888672 24.8789 4.81408 24.8789 9.36442C24.8789 12.8602 27.1053 15.1061 30.6596 15.1061C34.3311 15.1061 36.9481 12.9969 37.905 7.72395C37.905 7.64584 37.8464 7.56772 37.7683 7.56772ZM39.8122 14.8327H37.7811C37.703 14.8327 37.6444 14.7546 37.6639 14.6764L39.2849 7.95833L40.7496 1.31834C40.7691 1.2207 40.8668 1.16211 40.9449 1.16211H42.9759C43.0541 1.16211 43.1126 1.24023 43.0931 1.31834L41.4917 7.95833L40.0075 14.6764C39.9879 14.7741 39.8903 14.8327 39.8122 14.8327ZM75.1129 14.8327H72.9842C72.9061 14.8327 72.8475 14.7546 72.8671 14.6764L74.488 7.99739L75.9527 1.31834C75.9722 1.2207 76.0699 1.16211 76.148 1.16211H84.6433C84.7214 1.16211 84.78 1.24023 84.7605 1.31834L84.4285 2.88069C84.4089 2.97834 84.3113 3.03693 84.2332 3.03693H78.0033L76.9292 7.25528H82.9247C83.0028 7.25528 83.0614 7.33339 83.0419 7.41151L82.7099 8.97386C82.6903 9.07151 82.5927 9.1301 82.5146 9.1301H76.5191L75.3082 14.6764C75.2887 14.7741 75.1911 14.8327 75.1129 14.8327ZM83.0233 14.8327H85.0544C85.1325 14.8327 85.2301 14.7741 85.2497 14.6764L86.7339 7.95833L88.3353 1.31834C88.3548 1.24023 88.2962 1.16211 88.2181 1.16211H86.1871C86.1089 1.16211 86.0113 1.2207 85.9918 1.31834L84.5271 7.95833L82.9061 14.6764C82.8866 14.7546 82.9452 14.8327 83.0233 14.8327ZM87.6211 10.8295C87.6211 7.17748 90.0037 4.54102 93.3627 4.54102C95.9797 4.54102 97.7568 6.16195 97.7568 8.75936C97.7568 12.3137 95.4133 15.0674 92.0543 15.0674C89.4569 15.0674 87.6211 13.4464 87.6211 10.8295ZM90.0037 10.9857C90.0037 12.5676 90.7653 13.4074 92.1324 13.4074C94.0853 13.4074 95.3743 11.5911 95.3743 8.66171C95.3743 7.0603 94.5735 6.20101 93.2456 6.20101C91.2926 6.20101 90.0037 8.07583 90.0037 10.9857ZM108.058 14.833H105.617C105.538 14.833 105.46 14.7549 105.46 14.6768V6.65021L101.945 14.6963C101.906 14.7744 101.828 14.833 101.73 14.833H99.289C99.2109 14.833 99.1328 14.7549 99.1328 14.6768L98.9961 4.93163C98.9961 4.85351 99.0742 4.77539 99.1523 4.77539H100.988C101.066 4.77539 101.144 4.85351 101.144 4.93163L100.812 12.9973L104.347 4.9121C104.386 4.83398 104.464 4.77539 104.562 4.77539H107.081C107.159 4.77539 107.237 4.85351 107.237 4.93163L107.081 12.802L110.46 4.9121C110.499 4.83398 110.577 4.77539 110.675 4.77539H112.764C112.842 4.77539 112.881 4.85351 112.862 4.9121L108.273 14.6963C108.233 14.7744 108.155 14.833 108.058 14.833ZM68.7439 8.86244C67.5579 8.54309 66.5215 8.26406 66.5215 7.47042C66.5215 6.70878 67.2246 6.06431 68.4549 6.06431C69.7634 6.06431 70.5641 6.70878 70.5836 7.68524C70.5836 7.78289 70.6617 7.84148 70.7399 7.84148H72.6147C72.6928 7.84148 72.7709 7.76336 72.7904 7.68524C72.9076 5.57607 70.7984 4.54102 68.5916 4.54102C65.7208 4.54102 64.1585 6.08384 64.1585 7.70477C64.1585 9.70467 66.0394 10.2308 67.6371 10.6777C68.8165 11.0076 69.8415 11.2944 69.8415 12.0989C69.8415 12.8801 69.1775 13.505 67.8886 13.505C66.2872 13.505 65.3302 12.7824 65.3693 11.5521C65.3693 11.4739 65.2912 11.3958 65.213 11.3958H63.2406C63.1625 11.3958 63.0648 11.4739 63.0648 11.5521C62.8305 13.6808 64.9201 15.0674 67.7323 15.0674C70.4079 15.0674 72.185 13.6222 72.185 11.6888C72.185 9.78896 70.3305 9.28963 68.7439 8.86244ZM56.459 7.47042C56.459 8.26406 57.4954 8.54309 58.6814 8.86244C60.268 9.28963 62.1225 9.78896 62.1225 11.6888C62.1225 13.6222 60.3454 15.0674 57.6698 15.0674C54.8576 15.0674 52.768 13.6808 53.0023 11.5521C53.0023 11.4739 53.1 11.3958 53.1781 11.3958H55.1505C55.2287 11.3958 55.3068 11.4739 55.3068 11.5521C55.2677 12.7824 56.2247 13.505 57.8261 13.505C59.115 13.505 59.779 12.8801 59.779 12.0989C59.779 11.2944 58.754 11.0076 57.5746 10.6777C55.9769 10.2308 54.096 9.70467 54.096 7.70477C54.096 6.08384 55.6583 4.54102 58.5291 4.54102C60.7359 4.54102 62.8451 5.57607 62.7279 7.68524C62.7084 7.76336 62.6303 7.84148 62.5522 7.84148H60.6774C60.5992 7.84148 60.5211 7.78289 60.5211 7.68524C60.5016 6.70878 59.7009 6.06431 58.3924 6.06431C57.1621 6.06431 56.459 6.70878 56.459 7.47042ZM46.8288 13.3488C45.0907 13.3683 44.3681 11.845 44.954 9.36478C45.3837 7.47043 46.3211 6.31819 47.7467 6.25961H48.0592C49.6411 6.33772 50.3832 7.72431 49.7973 10.2631C49.2896 12.3137 48.2545 13.3683 46.8288 13.3488ZM48.7818 14.833H50.8324C50.9105 14.833 51.0081 14.7744 51.0277 14.6768L52.1018 9.77489L53.2735 4.93161C53.2931 4.85349 53.2345 4.77537 53.1564 4.77537H51.0863C51.0081 4.77537 50.9105 4.83396 50.891 4.93161L50.5785 6.4549C50.0512 5.24408 48.938 4.59961 47.4343 4.59961C44.7197 4.59961 43.1378 6.74784 42.591 9.1109C41.7707 12.5676 43.2745 15.0088 45.9696 15.0088C47.1608 15.0088 48.1373 14.5401 48.9185 13.7394L48.6646 14.6768C48.6451 14.7549 48.7037 14.833 48.7818 14.833Z" fill="url(#paint3_linear_807_1279)"/>
<defs>
<linearGradient id="paint0_linear_807_1279" x1="11.6855" y1="2.75012" x2="22.7696" y2="2.75012" gradientUnits="userSpaceOnUse">
<stop stop-color="#D7613A"/>
<stop offset="0.59" stop-color="#DC8946"/>
<stop offset="1" stop-color="#F9C078"/>
</linearGradient>
<linearGradient id="paint1_linear_807_1279" x1="5.89453" y1="7.9966" x2="21.6006" y2="7.9966" gradientUnits="userSpaceOnUse">
<stop stop-color="#D7613A"/>
<stop offset="0.59" stop-color="#DC8946"/>
<stop offset="1" stop-color="#F9C078"/>
</linearGradient>
<linearGradient id="paint2_linear_807_1279" x1="13.4355" y1="13.2457" x2="19.2693" y2="13.2457" gradientUnits="userSpaceOnUse">
<stop stop-color="#D7613A"/>
<stop offset="0.59" stop-color="#DC8946"/>
<stop offset="1" stop-color="#F9C078"/>
</linearGradient>
<linearGradient id="paint3_linear_807_1279" x1="29.801" y1="15.1806" x2="125.596" y2="-15.1422" gradientUnits="userSpaceOnUse">
<stop stop-color="#E0E0E3"/>
<stop offset="1" stop-color="white"/>
</linearGradient>
</defs>
</svg>