<svg width="264" height="154" viewBox="0 0 264 154" fill="none" xmlns="http://www.w3.org/2000/svg">
<path fill-rule="evenodd" clip-rule="evenodd" d="M186.582 23.5851L155.494 4.25105L143.913 11.4212V11.4349C140.832 13.2364 138.758 16.5931 138.758 20.4389C138.758 24.399 140.955 27.8417 144.188 29.6009L149.318 32.7558L175.133 49.0206L186.43 41.9745C189.739 40.2389 192 36.7566 192 32.7406C192 28.7855 189.808 25.3462 186.582 23.5851Z" fill="#FBAF17"/>
<path fill-rule="evenodd" clip-rule="evenodd" d="M175.134 49.0207L149.318 32.7559L132.097 43.4053V71.2047C132.108 71.2047 132.118 71.2047 132.128 71.2047C137.398 71.2047 142.301 69.6327 146.41 66.937" fill="#E53182"/>
<mask id="mask0_1310_5" style="mask-type:alpha" maskUnits="userSpaceOnUse" x="72" y="16" width="61" height="56">
<path d="M72 16.566H132.095V71.2041H72V16.566Z" fill="white"/>
</mask>
<g mask="url(#mask0_1310_5)">
<path fill-rule="evenodd" clip-rule="evenodd" d="M132.049 43.4345L119.058 35.3727L88.5318 16.566C84.6408 19.0166 80.7108 21.415 76.8568 23.9253C73.8763 25.8665 72 29.1375 72 32.7405C72 36.7151 74.2136 40.168 77.4667 41.9208C77.4667 41.9208 117.821 66.9242 117.823 66.9223C121.928 69.6215 126.828 71.198 132.095 71.2041V43.4052" fill="#9643DC"/>
</g>
<path fill-rule="evenodd" clip-rule="evenodd" d="M88.5332 16.5659L119.061 35.3734L114.621 32.6182L127.228 24.9992V24.9912C130.134 23.149 132.067 19.8925 132.067 16.1799C132.067 12.4669 130.134 9.21072 127.228 7.3685L115.301 0L88.6425 16.497L88.5332 16.5659Z" fill="#17C0FF"/>
<path d="M22.007 141.789C35.1761 141.789 41.2632 133.119 41.2632 124.624V117.594H22.885V125.151H33.0106C33.0106 129.604 29.0891 134.173 21.3632 134.173C13.6373 134.173 8.60382 128.373 8.60382 118.825C8.60382 109.276 16.6223 105.702 21.3632 105.702C26.1041 105.702 29.5573 107.753 31.8985 111.678L40.0926 108.807C37.81 103.652 31.957 97.7351 20.7194 97.7351C9.48175 97.7351 0 107.987 0 120.172C0 132.357 8.83793 141.789 22.007 141.789ZM53.8226 140.094L53.8229 130.932C53.8344 123.626 54.2013 121.944 56.1324 119.696C58.3267 117.175 62.1378 117.351 64.4476 118.465L66.5264 111.49C64.5631 110.317 61.0407 110.141 58.9619 110.903C56.1324 111.958 54.7465 113.365 53.8226 115.651V111.372H46.3158V140.036L53.8226 140.094ZM72.8703 106.207C75.3966 106.207 77.4738 104.194 77.4738 101.547C77.4738 98.9013 75.3966 96.8879 72.8703 96.8879C70.2878 96.8879 68.2106 98.9013 68.2106 101.547C68.2106 104.194 70.2878 106.207 72.8703 106.207ZM76.6317 140.941V111.29H68.2106V140.941H76.6317ZM95.871 141.789C100.106 141.789 102.775 140.194 104.458 137.714L104.748 140.785L112 140.844L111.884 97.7351L104.284 97.7942L104.342 114.152C101.441 111.14 97.6696 110.55 94.7686 110.904C89.605 111.494 83.281 115.333 82.5847 124.781C81.7725 135.883 89.605 141.789 95.871 141.789ZM90.1054 125.78C90.1054 120.838 93.3511 117.161 97.2923 117.221C101.929 117.281 104.421 120.958 104.421 125.72C104.421 129.155 102.972 133.917 97.5241 134.158C93.2351 134.339 90.1054 130.361 90.1054 125.78ZM126.316 140.941V97.7351H117.895V140.941H126.316ZM144.35 153.649L162.526 111.349H154.056L146.821 129.393L138.997 111.349L130.526 111.29L142.585 139.273L135.879 153.649H144.35Z" fill="black"/>
<path d="M199.264 95.512L216.416 141.272H207.648L203.744 130.2H185.376L181.472 141.272H172.64L189.984 95.448L199.264 95.512ZM194.4 104.088L187.36 123.032H201.376L194.4 104.088Z" fill="#9A87ED"/>
<path d="M219.622 141.144V95H235.558C237.18 95 238.822 95.256 240.486 95.768C242.193 96.2373 243.878 97.0053 245.542 98.072C247.206 99.096 248.55 100.589 249.574 102.552C250.641 104.515 251.174 106.797 251.174 109.4C251.174 112.003 250.641 114.285 249.574 116.248C248.55 118.211 247.228 119.725 245.606 120.792C243.985 121.816 242.385 122.584 240.806 123.096C239.228 123.565 237.713 123.8 236.262 123.8H227.75V141.208L219.622 141.144ZM227.814 116.248C233.062 116.12 235.772 116.056 235.942 116.056C236.668 116.056 237.35 115.992 237.99 115.864C238.673 115.693 239.42 115.395 240.23 114.968C241.084 114.541 241.766 113.837 242.278 112.856C242.79 111.832 243.046 110.573 243.046 109.08C243.046 107.885 242.833 106.861 242.406 106.008C241.98 105.112 241.489 104.472 240.934 104.088C240.422 103.661 239.782 103.341 239.014 103.128C238.289 102.872 237.713 102.723 237.286 102.68C236.902 102.637 236.497 102.616 236.07 102.616H227.942L227.814 116.248Z" fill="#9A87ED"/>
<path d="M263.573 95.512V141.336H254.997V95.512H263.573Z" fill="#9A87ED"/>
</svg>
