<svg width="80" height="32" viewBox="0 0 80 32" fill="none" xmlns="http://www.w3.org/2000/svg">
<path d="M32.731 9.49539H32.7304C32.5704 7.27177 32.5443 4.96869 31.1555 3.35744C30.0482 2.07196 28.8394 1.37558 27.399 0.956739C24.6838 0.168425 22.282 0.237665 19.5152 0.159344C13.4607 -0.0120534 7.64852 -0.376982 3.90275 1.24959C0.0911481 2.49818 -0.164246 11.6146 0.0570955 15.462C0.213737 18.1901 0.174577 22.1981 1.37209 24.7452C2.98334 28.1732 6.56168 28.1624 9.94536 28.5761C11.5577 28.7736 16.4409 28.8275 18.1344 28.8332C18.8075 29.9093 20.6776 30.6999 21.4931 31.1919C22.3087 31.684 24.9966 32.3713 25.1935 31.7578C25.3904 31.1442 24.1379 29.9229 24.5942 28.1987C26.8592 27.7401 27.5164 27.9598 29.067 27.4683C31.4137 26.7248 32.2815 23.9552 32.6918 20.9926C33.0704 18.2599 32.9291 12.2457 32.7316 9.49539H32.731Z" fill="#EE164F"/>
<path d="M49.9049 18.4393V18.4308C49.9049 16.7435 49.1432 15.3139 47.7607 14.4052C47.6954 14.361 47.6585 14.2883 47.6636 14.2094C47.6671 14.1504 47.6983 14.0965 47.742 14.0568C48.7227 13.172 49.2408 11.9744 49.2408 10.5925C49.2408 7.60098 46.835 5.42957 43.52 5.42957H36.6585C36.4439 5.42957 36.2703 5.60323 36.2703 5.81776V23.3378C36.2703 23.5523 36.4439 23.726 36.6585 23.726H44.0507C47.4378 23.726 49.8998 21.5023 49.9049 18.4382V18.4393ZM39.9326 9.16285C39.9326 9.04877 40.0251 8.95627 40.1392 8.95627H43.5093C44.3356 8.95627 44.965 9.43584 45.1937 10.1839C45.3645 10.7423 45.2607 11.3467 44.9094 11.8223C44.5513 12.307 43.978 12.5516 43.3764 12.5516H40.1392C40.0251 12.5516 39.9326 12.4591 39.9326 12.3451V9.16285ZM39.9184 20.0063V16.5585C39.9184 16.4768 39.9661 16.4064 40.0348 16.3729L43.7879 16.3513C44.9088 16.3513 45.6914 17.1453 45.6914 18.2821C45.6914 19.4189 44.9088 20.2129 43.7879 20.2129H40.125C40.0109 20.2129 39.9184 20.1204 39.9184 20.0063Z" fill="#3A3A37"/>
<path d="M58.0692 10.3173C54.295 10.3173 51.3381 13.2622 51.3381 17.0222C51.3381 20.7821 54.2945 23.7271 58.0692 23.7271C61.8439 23.7271 64.8002 20.7821 64.8002 17.0222C64.8002 13.2622 61.8439 10.3173 58.0692 10.3173ZM58.0692 20.2367C56.2513 20.2367 54.9324 18.8849 54.9324 17.0216C54.9324 15.1584 56.2513 13.8071 58.0692 13.8071C59.887 13.8071 61.206 15.159 61.206 17.0216C61.206 18.8843 59.887 20.2367 58.0692 20.2367Z" fill="#3A3A37"/>
<path d="M77.7705 21.7945C78.9998 20.5482 79.6763 18.853 79.6763 17.0215C79.6763 15.1901 78.9993 13.4948 77.7705 12.2485C76.5424 11.0027 74.8715 10.3166 73.0656 10.3166C72.0316 10.3166 70.9441 10.5357 70.031 10.9681C69.9895 10.9891 69.9311 10.9874 69.8863 10.9596C69.8426 10.9312 69.8159 10.883 69.8159 10.8325V5.75299C69.8159 5.59976 69.6916 5.47546 69.5384 5.47546H66.5207C66.3675 5.47546 66.2341 5.59976 66.2341 5.75299V17.0227C66.2341 20.7701 69.271 23.7083 73.0276 23.7276H73.0651C74.8704 23.7276 76.5412 23.0414 77.77 21.7957L77.7705 21.7945ZM69.8284 17.0215C69.8284 15.1588 71.2472 13.807 73.0651 13.807C74.8829 13.807 76.0815 15.0987 76.0815 17.0215C76.0815 18.9443 74.8693 20.2361 73.0651 20.2361C71.2608 20.2361 69.8284 18.8842 69.8284 17.0215Z" fill="#3A3A37"/>
<path d="M15.6836 17.0533C15.8136 17.9761 15.9112 22.0391 16.0508 23.3337C16.0713 23.6101 16.1496 23.7656 16.4288 23.7599C16.6507 23.7803 17.0531 23.7905 17.624 23.7905C18.2994 23.7934 18.9793 23.7741 19.5423 23.7712C20.51 23.7798 20.044 21.9602 20.0537 20.9602C19.9606 19.0317 19.901 14.2751 19.7955 12.102C19.7813 11.6457 19.7183 8.10939 19.6825 7.30859C19.6644 6.96579 19.7302 6.1962 19.6178 5.9533C19.4822 5.73252 18.8783 5.66499 18.5321 5.68939C17.6382 5.68939 16.8982 5.69847 16.1842 5.81482C15.548 5.91754 15.3068 6.16045 15.2943 6.70983C15.2903 6.87498 15.3028 7.95274 15.3164 9.0935C15.3283 10.1497 15.3465 11.2712 15.3488 11.8665C15.3255 12.4647 14.3062 12.1554 13.7318 12.2309C12.7909 12.2104 10.4072 12.2893 9.93556 12.3137C9.64669 12.3063 9.61888 12.0589 9.55928 11.7757C9.42705 10.4777 9.27097 8.47658 9.20798 7.11335C9.18641 6.3676 9.14895 5.74841 8.90831 5.70982C8.28969 5.59348 5.42872 5.63207 5.26413 5.94478C5.11998 6.37044 5.16538 7.37555 5.17503 8.1003C5.20511 11.7939 5.53372 16.2746 5.58479 19.8376C5.62225 20.9211 5.64836 23.1526 5.64893 23.2701C5.65176 23.6413 5.6932 23.7395 6.06266 23.7798C7.21591 23.8439 8.62908 23.7554 9.7863 23.7877C10.3817 23.8252 10.0945 22.7196 10.162 22.2786C10.1739 21.2928 10.1319 19.7031 10.0604 18.8535C10.0133 16.9136 9.49005 16.9346 11.4651 16.8359C11.809 16.8092 13.4282 16.7525 14.3811 16.7303C14.9929 16.7774 15.468 16.4812 15.6819 17.0527L15.6836 17.0533Z" fill="white"/>
<path fill-rule="evenodd" clip-rule="evenodd" d="M27.361 7.20412C27.2367 6.0872 26.4064 5.33691 25.2952 5.33691C24.9853 5.33691 24.6675 5.3948 24.3508 5.50888C24.1782 5.57131 24.0199 5.6536 23.8809 5.75519C23.8786 5.75633 23.8769 5.75803 23.8746 5.75916C23.2163 6.23363 22.861 7.02478 22.9484 7.82558C23.0301 8.5719 23.4779 9.17065 24.1782 9.46918C24.1805 9.46975 24.1822 9.47088 24.1839 9.47145C24.5131 9.61106 24.9178 9.69109 25.2946 9.69109C25.6329 9.69109 26.1164 9.62866 26.4966 9.32956C27.2061 8.76997 27.4649 8.13376 27.361 7.20412Z" fill="white"/>
<path d="M27.2761 15.1322C27.2761 14.2763 27.254 13.6679 27.2733 12.7786C27.3465 11.8024 26.2693 12.0107 25.5224 11.9812H25.5218C24.9452 11.9812 24.3748 11.9931 23.8243 11.9925C23.481 12.0067 23.3215 12.0232 23.3402 12.3194C23.1558 16.0295 23.3164 18.4006 23.2522 21.9063C23.1977 24.2866 23.267 23.5885 25.3465 23.7225C25.8113 23.7299 26.7063 23.8212 27.0655 23.6402C27.2466 23.5176 27.2012 23.3201 27.2449 23.0539C27.225 19.6152 27.25 19.3411 27.2755 15.131L27.2761 15.1322Z" fill="white"/>
</svg>
