<svg width="204" height="38" viewBox="0 0 204 38" fill="none" xmlns="http://www.w3.org/2000/svg">
<g clip-path="url(#clip0_662_37753)">
<path d="M57.2799 6.42596C57.2799 4.25687 58.3796 3.31543 60.3372 3.31543C62.3432 3.31543 63.4429 4.25687 63.4429 6.42596C63.4429 8.26115 62.3432 9.39339 60.3372 9.39339C58.3771 9.39339 57.2799 8.26115 57.2799 6.42596ZM62.9185 31.5487C62.9185 32.9621 61.7704 34.0944 60.3372 34.0944C58.904 34.0944 57.756 32.9621 57.756 31.5487V14.4847C57.756 13.0713 58.904 11.9391 60.3372 11.9391C61.7704 11.9391 62.9185 13.0713 62.9185 14.4847V31.5487Z" fill="#FEC400"/>
<path d="M87.0051 19.8591V31.6434C87.0051 33.0569 85.857 34.0937 84.4238 34.0937C82.8964 34.0937 81.8426 33.0569 81.8426 31.6434V20.798C81.8426 18.1118 80.7429 16.2741 77.6372 16.2741C74.053 16.2741 72.8565 18.3478 72.8565 21.1294V31.6409C72.8565 33.0544 71.7568 34.0912 70.2753 34.0912C68.7937 34.0912 67.694 33.0544 67.694 31.6409V14.4841C67.694 13.0706 68.8421 11.9384 70.2753 11.9384C71.7085 11.9384 72.8565 13.0706 72.8565 14.4841C73.7653 13.1183 75.7713 11.6572 78.9737 11.6572C85.4751 11.6547 87.0051 15.7544 87.0051 19.8591Z" fill="#FEC400"/>
<path d="M93.2113 8.35581C93.2113 6.99008 94.3593 5.86035 95.7442 5.86035C97.129 5.86035 98.277 6.99008 98.277 8.35581V12.3174H100.428C101.622 12.3174 102.579 13.2614 102.579 14.4388C102.579 15.6162 101.625 16.5602 100.428 16.5602H98.277V27.9655C98.277 29.05 99.2316 29.6626 100.095 29.6626C101.337 29.6626 102.34 30.6542 102.34 31.8768C102.34 33.1045 101.337 34.0936 100.095 34.0936C95.8409 34.0936 93.2113 31.4049 93.2113 27.6818V16.5577H92.1116C90.9177 16.5577 89.9605 15.6137 89.9605 14.4363C89.9605 13.2588 90.9177 12.3149 92.1116 12.3149H93.2113V8.35581Z" fill="#FEC400"/>
<path d="M111.323 14.7208C112.23 12.8831 114.477 11.7031 116.486 11.7031C117.822 11.7031 118.922 12.7877 118.922 14.1082C118.922 15.4262 117.822 16.5108 116.486 16.5108C113.187 16.5108 111.323 18.587 111.323 21.7427V31.5462C111.323 32.9597 110.175 34.0919 108.742 34.0919C107.309 34.0919 106.161 32.9597 106.161 31.5462V14.4848C106.161 13.0714 107.309 11.9391 108.742 11.9391C110.175 11.9391 111.323 13.0714 111.323 14.4848V14.7208Z" fill="#FEC400"/>
<path d="M126.327 14.4841V25.4677C126.327 27.6367 127.093 29.7104 130.629 29.7104C134.117 29.7104 134.883 27.6367 134.883 25.4677V14.4841C134.883 13.0707 136.031 11.9385 137.464 11.9385C138.9 11.9385 140.046 13.0707 140.046 14.4841V25.4677C140.046 30.087 138.276 34.3298 130.632 34.3298C122.936 34.3298 121.17 30.0895 121.17 25.4677V14.4841C121.17 13.0707 122.315 11.9385 123.748 11.9385C125.182 11.9385 126.327 13.0707 126.327 14.4841Z" fill="#FEC400"/>
<path d="M158.537 13.5429V2.69996C158.537 1.28654 159.685 0.154297 161.118 0.154297C162.551 0.154297 163.699 1.28654 163.699 2.69996V24.9005C163.699 31.1717 159.588 34.3275 153.807 34.3275C147.354 34.3275 143.579 30.6973 143.579 23.0151C143.579 15.3304 147.26 11.655 153.28 11.655C155.574 11.655 157.58 12.5989 158.537 13.5429ZM158.537 18.3982C158.537 18.3982 156.671 15.9932 153.805 15.9932C150.554 15.9932 148.69 18.3505 148.69 23.0151C148.69 27.6344 150.505 29.9918 153.805 29.9918C156.577 29.9918 158.537 28.1516 158.537 24.9005V18.3982Z" fill="#FEC400"/>
<path d="M177.598 11.6553C185.676 11.6553 187.157 17.7834 187.157 21.0371C187.157 22.7819 187.157 24.8054 184.242 24.8054H172.438C172.438 28.1996 174.877 29.7561 178.031 29.7561C180.134 29.7561 181.615 29.0507 182.761 28.295C183.288 27.9661 183.672 27.7778 184.291 27.7778C185.536 27.7778 186.539 28.767 186.539 29.9946C186.539 30.7478 186.157 31.3603 185.727 31.7394C184.912 32.4926 182.382 34.3303 178.031 34.3303C171.387 34.3303 167.278 30.7955 167.278 22.9225C167.276 15.7098 171.099 11.6553 177.598 11.6553ZM172.581 20.5651H182.046C182.046 18.2554 180.709 15.9934 177.601 15.9934C174.826 15.9934 172.82 17.55 172.581 20.5651Z" fill="#FEC400"/>
<path d="M195.901 14.7208C196.808 12.8831 199.053 11.7031 201.061 11.7031C202.398 11.7031 203.5 12.7877 203.5 14.1082C203.5 15.4262 202.398 16.5108 201.061 16.5108C197.762 16.5108 195.901 18.587 195.901 21.7427V31.5462C195.901 32.9597 194.753 34.0919 193.318 34.0919C191.884 34.0919 190.736 32.9597 190.736 31.5462V14.4848C190.736 13.0714 191.884 11.9391 193.318 11.9391C194.753 11.9391 195.901 13.0714 195.901 14.4848V14.7208Z" fill="#FEC400"/>
<path fill-rule="evenodd" clip-rule="evenodd" d="M9.10768 0.154297V3.00045H6.23842V5.8466H3.36917V14.3851H6.23842V25.7697H3.36917V31.462H0.499908V34.3081H3.36917V37.1543H6.23842V34.3081H3.36917V31.462H9.10768V34.3081H11.9769V28.6158H9.10768V25.7697H14.8462V28.6158H17.7155V31.462H20.5847V28.6158H23.454V31.462H26.3232V28.6158H23.454V25.7697H32.0617V28.6158H29.1925V34.3081H32.0617V31.462H37.8003V34.3081H34.931V37.1543H37.8003V34.3081H40.6695V31.462H37.8003V25.7697H34.931V14.3851H37.8003V5.8466H34.931V3.00045H32.0617V0.154297H26.3232V3.00045H32.0617V8.69276H29.1925V5.8466H11.9769V8.69276H9.10768V3.00045H14.8462V0.154297H9.10768ZM20.5847 28.6158H17.7155V25.7697H20.5847V28.6158ZM17.7155 14.3851H14.8462V11.5389H17.7155V14.3851ZM14.8462 14.3851V17.2312H17.7155V20.0774H11.9769V14.3851H14.8462ZM26.3232 14.3851H23.454V11.5389H26.3232V14.3851ZM26.3232 14.3851H29.1925V20.0774H23.454V17.2312H26.3232V14.3851Z" fill="#FEC400"/>
</g>
<defs>
<clipPath id="clip0_662_37753">
<rect width="203" height="37" fill="white" transform="translate(0.5 0.154297)"/>
</clipPath>
</defs>
</svg>
