<svg width="1331" height="1551" viewBox="0 0 1331 1551" fill="none" xmlns="http://www.w3.org/2000/svg">
    <style>
        @media (prefers-color-scheme: dark) {
            .b { fill: #fff }
        }
    </style>
    <g>
        <path d="M665.07 890.43C644.88 890.43 624.43 885.13 605.87 874L55.99 544.06C1.38998 511.3 -16.31 440.48 16.45 385.88C49.2 331.28 120.04 313.56 174.62 346.32L724.49 676.25C779.09 709.01 796.8 779.83 764.04 834.43C742.43 870.46 704.23 890.42 665.08 890.42L665.07 890.43Z"
              fill="#B593F5" class="a"/>
        <path d="M1214.93 1220.33C1194.74 1220.33 1174.3 1215.03 1155.73 1203.9L605.87 873.99C551.27 841.23 533.56 770.41 566.32 715.81C599.07 661.21 669.86 643.52 724.49 676.25L1274.35 1006.16C1328.95 1038.92 1346.66 1109.74 1313.9 1164.34C1292.29 1200.37 1254.09 1220.33 1214.94 1220.33H1214.93Z"
              fill="#B593F5" class="a"/>
        <path d="M665.18 1550.24C601.51 1550.24 549.89 1498.64 549.89 1434.96V775.12C549.89 711.45 601.51 659.84 665.18 659.84C728.85 659.84 780.47 711.44 780.47 775.12V1434.96C780.47 1498.63 728.85 1550.24 665.18 1550.24Z"
              fill="#B593F5" class="a"/>
        <path d="M665.18 890.4C601.51 890.4 549.89 838.8 549.89 775.12V115.28C549.89 51.61 601.51 0 665.18 0C728.85 0 780.47 51.6 780.47 115.28V775.12C780.47 838.79 728.85 890.4 665.18 890.4Z"
              fill="#6B21FC" class="b"/>
        <path d="M665.28 890.43C626.12 890.43 587.93 870.46 566.32 834.44C533.56 779.84 551.26 709.02 605.85 676.26L1155.72 346.33C1210.31 313.65 1281.15 331.31 1313.89 385.89C1346.65 440.49 1328.95 511.31 1274.36 544.07L724.49 874C705.93 885.13 685.48 890.43 665.29 890.43H665.28Z"
              fill="#6B21FC" class="b"/>
        <path d="M115.41 1220.33C76.24 1220.33 38.06 1200.36 16.45 1164.34C-16.31 1109.74 1.39001 1038.92 56 1006.16L605.87 676.25C660.47 643.49 731.28 661.23 764.04 715.81C796.8 770.41 779.1 841.23 724.49 873.99L174.62 1203.9C156.06 1215.03 135.6 1220.33 115.42 1220.33H115.41Z"
              fill="#6B21FC" class="b"/>
    </g>
</svg>
