<svg width="261" height="36" viewBox="0 0 261 36" fill="none" xmlns="http://www.w3.org/2000/svg">
<path d="M38.614 8.46234C36.0758 8.92286 34.7134 9.92539 33.8739 14.5424V8.31112L25.6198 11.0065V29.442H34.7039V19.7357C34.7039 18.3021 35.5992 17.0335 36.9143 16.6044L40.5307 15.4231V8.31309C40.5307 8.31309 39.0906 8.37691 38.613 8.46332L38.614 8.46234Z" fill="#2f2e0c"/>
<path d="M69.8437 7.70044H69.8427C66.484 7.70044 64.0434 9.66819 62.8885 12.0572V8.1256L54.0612 11.0085V29.443H63.1452V16.9854C63.1452 15.1316 64.1173 14.4649 65.1462 14.4649C66.1752 14.4649 66.8895 15.0569 66.8895 16.6231V29.443H75.9736V15.4772C75.9736 10.2426 73.7898 7.70044 69.8437 7.70044Z" fill="#2f2e0c"/>
<path d="M108.954 7.62874V8.31117H106.608V14.8664H108.954V29.444H118.038V14.8664H121.948V8.31117H118.038V7.64642C118.038 6.43179 118.985 5.44693 120.151 5.44693H121.948V-0.285499H116.556C112.357 -0.285499 108.954 3.25725 108.954 7.62874Z" fill="#2f2e0c"/>
<path d="M42.2399 29.4439H51.324V11.901L42.2399 14.8664V29.4439Z" fill="#2f2e0c"/>
<path d="M50.5887 3.00003C49.6924 2.23021 48.3338 1.79129 46.7904 1.79129C46.0409 1.79129 45.3323 1.89636 44.6984 2.0947L44.5336 2.14773C42.9494 2.69269 41.8731 3.83761 41.8731 5.3635C41.8731 5.52355 41.8845 5.6787 41.9082 5.83089C42.1962 7.73974 44.2579 8.93768 46.7904 8.93768C49.5427 8.93768 51.7086 7.54139 51.7086 5.3635C51.7086 4.40712 51.2917 3.60195 50.5887 2.99905V3.00003Z" fill="#2f2e0c"/>
<path d="M89.2794 -0.48584L80.1953 2.47955V8.31114H77.8495V14.8664H80.1953V22.4714C80.1953 26.3224 83.194 29.443 86.8919 29.443H93.1886V22.9692H91.1269C90.1075 22.9692 89.2794 22.109 89.2794 21.0456V14.8654H93.1886V8.31114H89.2794V-0.48584Z" fill="#2f2e0c"/>
<path d="M103.691 3.00003C102.795 2.23021 101.435 1.79129 99.8917 1.79129C99.1432 1.79129 98.4336 1.89636 97.8007 2.0947L97.6358 2.14773C96.0508 2.69269 94.9754 3.83761 94.9754 5.3635C94.9754 5.52355 94.9868 5.6787 95.0105 5.83089C95.2985 7.73974 97.3601 8.93768 99.8917 8.93768C102.645 8.93768 104.81 7.54139 104.81 5.3635C104.81 4.40712 104.394 3.60195 103.691 2.99905V3.00003Z" fill="#2f2e0c"/>
<path d="M95.5315 29.4439H104.616V11.901L95.5315 14.8664V29.4439Z" fill="#2f2e0c"/>
<path d="M138.911 8.31112L135.522 21.9745C135.355 22.5322 134.857 22.9132 134.294 22.9132C133.939 22.9132 133.618 22.7639 133.385 22.5214C133.152 22.2789 133.008 21.944 133.008 21.5739V8.31112H124.196V21.024C124.196 23.4238 124.83 25.7804 125.906 27.3171C127.79 30.0066 132.002 30.4249 134.394 28.2332L131.843 39.483H140.672L148.684 8.3121H138.911V8.31112Z" fill="#2f2e0c"/>
<path d="M15.6641 0.306512H0V8.31109H14.5044C15.1733 8.31109 15.7588 8.82758 15.8204 9.52179C15.8517 9.8635 15.7579 10.1866 15.5779 10.4428C15.4196 10.6677 15.1941 10.8415 14.926 10.9279L0 15.8002V29.4429H9.72739V20.7873C11.5162 20.2031 13.3078 19.6257 15.089 19.0159C17.2833 18.2648 19.5893 17.6442 21.4293 16.1154C23.3393 14.5266 24.3606 11.8754 24.3606 9.35978C24.3606 4.35888 20.4676 0.306512 15.6641 0.306512Z" fill="#2f2e0c"/>
<path d="M156.62 29V15.1H161.82C165.52 15.1 168.96 17.5 168.96 22.06C168.96 26.6 165.52 29 161.82 29H156.62ZM158.84 27H161.5C164.16 27 166.62 25.66 166.62 22.04C166.62 18.42 164.16 17.1 161.5 17.1H158.84V27ZM178.639 25.56L180.339 26.5C179.579 28.02 178.179 29.24 175.799 29.24C172.879 29.24 170.699 27.2 170.699 24.14C170.699 21.14 172.819 19.06 175.659 19.06C178.519 19.06 180.239 21.04 180.239 24C180.239 24.22 180.239 24.5 180.219 24.64H172.979C173.099 26.38 174.139 27.48 175.819 27.48C177.179 27.48 178.019 26.76 178.639 25.56ZM175.599 20.76C174.179 20.76 173.199 21.66 172.999 23.16H178.019C177.899 21.62 177.079 20.76 175.599 20.76ZM184.796 29L181.016 19.3H183.336L186.076 26.78L188.756 19.3H191.056L187.276 29H184.796ZM199.557 25.56L201.257 26.5C200.497 28.02 199.097 29.24 196.717 29.24C193.797 29.24 191.617 27.2 191.617 24.14C191.617 21.14 193.737 19.06 196.577 19.06C199.437 19.06 201.157 21.04 201.157 24C201.157 24.22 201.157 24.5 201.137 24.64H193.897C194.017 26.38 195.057 27.48 196.737 27.48C198.097 27.48 198.937 26.76 199.557 25.56ZM196.517 20.76C195.097 20.76 194.117 21.66 193.917 23.16H198.937C198.817 21.62 197.997 20.76 196.517 20.76ZM203.391 29V15.1H205.551V29H203.391ZM212.635 29.24C209.735 29.24 207.555 27.12 207.555 24.14C207.555 21.16 209.735 19.06 212.635 19.06C215.515 19.06 217.695 21.16 217.695 24.14C217.695 27.12 215.515 29.24 212.635 29.24ZM212.635 27.48C214.315 27.48 215.455 26.2 215.455 24.14C215.455 22.1 214.315 20.82 212.635 20.82C210.955 20.82 209.815 22.08 209.815 24.14C209.815 26.2 210.955 27.48 212.635 27.48ZM219.739 33.2V19.3H221.839V20.84C222.479 19.8 223.619 19.06 225.219 19.06C227.799 19.06 229.739 21.28 229.739 24.14C229.739 27.04 227.799 29.24 225.239 29.24C223.659 29.24 222.559 28.56 221.899 27.54V33.2H219.739ZM224.719 27.48C226.439 27.48 227.479 26.2 227.479 24.14C227.479 22.1 226.439 20.82 224.719 20.82C223.139 20.82 221.899 22.26 221.899 24.14C221.899 26.04 223.139 27.48 224.719 27.48ZM238.991 25.56L240.691 26.5C239.931 28.02 238.531 29.24 236.151 29.24C233.231 29.24 231.051 27.2 231.051 24.14C231.051 21.14 233.171 19.06 236.011 19.06C238.871 19.06 240.591 21.04 240.591 24C240.591 24.22 240.591 24.5 240.571 24.64H233.331C233.451 26.38 234.491 27.48 236.171 27.48C237.531 27.48 238.371 26.76 238.991 25.56ZM235.951 20.76C234.531 20.76 233.551 21.66 233.351 23.16H238.371C238.251 21.62 237.431 20.76 235.951 20.76ZM242.825 29V19.3H244.925V20.98C245.425 19.82 246.305 19.14 247.685 19.14C249.185 19.14 250.365 20.2 250.365 21.94C250.365 22.4 250.285 22.9 250.105 23.44L248.125 23.24C248.165 22.94 248.205 22.68 248.205 22.44C248.205 21.42 247.805 20.94 246.965 20.94C245.865 20.94 244.985 22.18 244.985 24.18V29H242.825ZM255.864 29.24C253.344 29.24 251.344 28.1 251.304 25.82L253.344 25.52C253.484 27.08 254.544 27.6 255.924 27.6C256.984 27.6 257.804 27.18 257.804 26.28C257.804 25.58 257.404 25.3 256.344 25.1L255.224 24.92C253.464 24.6 251.764 24.06 251.764 21.9C251.764 20.16 253.304 19.06 255.824 19.06C258.324 19.06 259.664 20.28 259.944 21.88L258.004 22.36C257.804 21.52 257.184 20.7 255.784 20.7C254.604 20.7 253.924 21.14 253.924 21.88C253.924 22.64 254.364 22.92 255.544 23.12L256.664 23.32C258.384 23.6 260.004 24.16 260.004 26.22C260.004 28.18 258.224 29.24 255.864 29.24Z" fill="#2f2e0c"/>
</svg>
