<?xml version="1.0" encoding="utf-8"?>
<!-- Generator: Adobe Illustrator 27.9.0, SVG Export Plug-In . SVG Version: 6.00 Build 0)  -->
<svg version="1.1" id="Layer_1" xmlns="http://www.w3.org/2000/svg" xmlns:xlink="http://www.w3.org/1999/xlink" x="0px" y="0px"
	 width="565.863px" height="125px" viewBox="0 0 565.863 125" style="enable-background:new 0 0 565.863 125;" xml:space="preserve"
	>
<g>
	<path d="M565.863,52.22V32.986h-22.972V7.908h-22.217v91.427c0,8.401,2.112,14.803,6.281,19.029
		c4.166,4.23,10.657,6.374,19.296,6.374h19.612v-19.235h-14.351c-3.122,0-5.362-0.686-6.658-2.041
		c-1.191-1.24-1.963-4.373-1.963-7.98V52.22H565.863z"/>
	<polygon points="258.016,32.983 235.046,99.824 212.076,32.983 188.736,32.983 221.896,123.951 248.196,123.951 281.356,32.983
		"/>
	<rect x="385.953" width="22.217" height="123.95"/>
	<path d="M484.464,78.554c0,5.759-0.872,10.769-2.593,14.891c-1.708,4.1-4.154,7.243-7.271,9.339
		c-3.117,2.096-6.95,3.16-11.388,3.16c-6.352,0-11.145-2.088-14.245-6.202c-3.132-4.159-4.72-10.462-4.72-18.732V32.986h-22.217
		v50.479c0,7.86,0.983,14.527,2.924,19.813c1.941,5.302,4.607,9.615,7.925,12.817c3.316,3.198,7.188,5.508,11.508,6.868
		c4.298,1.353,8.92,2.038,13.74,2.038c6.947,0,12.696-1.26,17.083-3.745c4.002-2.273,7.354-4.93,9.981-7.91l1.99,10.605h19.499
		V32.986h-22.217L484.464,78.554L484.464,78.554z"/>
	<path d="M351.992,37.783c-7.001-3.882-15.315-5.848-24.707-5.848c-9.277,0-17.56,1.967-24.618,5.847
		c-7.068,3.89-12.62,9.385-16.506,16.329c-3.879,6.939-5.846,15.163-5.846,24.443c0,9.166,1.967,17.333,5.846,24.272
		c3.883,6.943,9.437,12.435,16.506,16.326c7.059,3.88,15.342,5.847,24.618,5.847c9.392,0,17.705-1.967,24.707-5.848
		c7.009-3.888,12.532-9.381,16.416-16.325c3.88-6.942,5.848-15.109,5.848-24.272c0-9.277-1.968-17.501-5.848-24.443
		C364.522,47.165,358.999,41.671,351.992,37.783z M340.255,102.779c-3.579,2.33-7.942,3.513-12.968,3.513
		c-4.911,0-9.246-1.182-12.885-3.514c-3.645-2.334-6.504-5.629-8.499-9.794c-2.003-4.168-3.02-9.023-3.02-14.43
		c0-5.519,1.016-10.401,3.02-14.513c1.994-4.108,4.855-7.404,8.503-9.797c3.638-2.39,7.972-3.602,12.88-3.602
		c5.024,0,9.385,1.212,12.965,3.6c3.59,2.394,6.423,5.691,8.421,9.801c2.002,4.122,3.018,9.005,3.018,14.512
		c0,5.395-1.016,10.251-3.018,14.43C346.674,97.15,343.842,100.445,340.255,102.779z"/>
	<rect y="30.59" width="23.088" height="93.361"/>
	<path d="M95.491,35.929c0-19.81-16.132-35.928-35.962-35.928H0v19.938h56.699c8.974,0,16.408,7.05,16.572,15.715
		c0.082,4.339-1.546,8.434-4.585,11.53c-3.04,3.097-7.102,4.804-11.437,4.804H35.162c-0.784,0-1.423,0.637-1.423,1.421v17.72
		c0,0.301,0.093,0.589,0.268,0.832l37.474,51.989h27.432L61.353,71.82C80.268,70.87,95.491,54.977,95.491,35.929z"/>
	<path d="M166.485,37.254c-6.651-3.53-14.548-5.319-23.472-5.319c-8.935,0-16.924,1.968-23.745,5.851
		c-6.832,3.887-12.208,9.382-15.975,16.331c-3.764,6.933-5.672,15.214-5.672,24.616c0,9.163,1.937,17.327,5.76,24.267
		c3.831,6.956,9.357,12.421,16.423,16.242c7.052,3.822,15.51,5.759,25.138,5.759c7.638,0,14.498-1.431,20.388-4.255
		c5.891-2.832,10.7-6.688,14.295-11.461c3.415-4.537,5.718-9.669,6.846-15.251l0.121-0.595h-22.093l-0.104,0.358
		c-1.217,4.164-3.577,7.453-7.017,9.78c-3.693,2.502-8.229,3.771-13.484,3.771c-4.454,0-8.477-0.955-11.955-2.837
		c-3.461-1.871-6.168-4.547-8.043-7.956c-1.882-3.421-2.953-7.537-3.182-12.209v-0.73h66.735l0.075-0.408
		c0.233-1.28,0.382-2.6,0.447-3.927c0.055-1.293,0.087-2.584,0.087-3.888c-0.119-8.813-2.089-16.566-5.854-23.044
		C178.423,45.862,173.135,40.784,166.485,37.254z M158.39,54.384c3.796,3.194,6.157,7.734,7.023,13.501h-43.933
		c0.502-3.742,1.745-6.983,3.697-9.642c2.048-2.789,4.671-4.98,7.798-6.512c3.131-1.538,6.568-2.318,10.214-2.318
		C149.353,49.413,154.468,51.086,158.39,54.384z"/>
</g>
</svg>
