<svg width="122" height="108" viewBox="0 0 122 108" fill="none" xmlns="http://www.w3.org/2000/svg">
<path d="M115.555 35.8448C112.299 30.7712 107.736 26.2798 102 22.4914C90.9166 15.1833 76.3542 11.1576 60.9946 11.1576C55.8628 11.1576 50.8072 11.6054 45.8993 12.492C42.8542 9.54996 39.2942 6.90347 35.5238 4.81224C21.5345 -2.18687 9.20208 0.4238 2.97319 2.66728C0.92674 3.40615 0.29534 6.00787 1.8089 7.57069C6.20182 12.1203 13.4696 21.1122 11.6829 29.289C4.73304 36.409 0.967041 44.9889 0.967041 53.9225C0.967041 63.0262 4.73304 71.6061 11.6784 78.7216C13.4651 86.8985 6.19735 95.8948 1.80443 100.444C0.295342 102.007 0.922261 104.604 2.96871 105.343C9.1976 107.591 21.5255 110.202 35.5193 103.203C39.2898 101.112 42.8498 98.4651 45.8948 95.5231C50.8027 96.4097 55.8584 96.8575 60.9901 96.8575C76.3542 96.8575 90.9166 92.8363 101.995 85.5282C107.731 81.7398 112.295 77.2529 115.55 72.1748C119.177 66.5236 121.013 60.438 121.013 54.0971C121.018 47.5771 119.177 41.5005 115.555 35.8448ZM60.3677 86.3029C53.7268 86.3029 47.3949 85.4431 41.6228 83.8892L37.4045 87.9597C35.1118 90.1719 32.425 92.1735 29.6218 93.7498C25.9095 95.5723 22.242 96.5709 18.6148 96.871C18.8208 96.4993 19.0089 96.1231 19.2104 95.747C23.4376 87.9553 24.5795 80.9517 22.6316 74.7407C15.7176 69.291 11.5709 62.3142 11.5709 54.7151C11.5709 37.2733 33.4191 23.1317 60.3677 23.1317C87.3163 23.1317 109.169 37.2733 109.169 54.7151C109.164 72.1658 87.3163 86.3029 60.3677 86.3029Z" fill="#F5455C"/>
<path d="M37.0329 47.4563C33.0609 47.4563 29.8412 50.6626 29.8412 54.6166C29.8412 58.5707 33.0609 61.777 37.0329 61.777C41.0048 61.777 44.2245 58.5707 44.2245 54.6166C44.2245 50.6626 41.0048 47.4563 37.0329 47.4563Z" fill="#F5455C"/>
<path d="M60.1619 47.4563C56.1899 47.4563 52.9702 50.6626 52.9702 54.6166C52.9702 58.5707 56.1899 61.777 60.1619 61.777C64.1339 61.777 67.3535 58.5707 67.3535 54.6166C67.3535 50.6626 64.1339 47.4563 60.1619 47.4563Z" fill="#F5455C"/>
<path d="M83.317 47.4563C79.345 47.4563 76.1254 50.6626 76.1254 54.6166C76.1254 58.5707 79.345 61.777 83.317 61.777C87.289 61.777 90.5087 58.5707 90.5087 54.6166C90.5087 50.6626 87.2845 47.4563 83.317 47.4563Z" fill="#F5455C"/>
</svg>
