<svg width="146" height="32" viewBox="0 0 146 32" fill="none" xmlns="http://www.w3.org/2000/svg">
<path d="M11.8665 11.5642L20.1348 4.62625C22.5368 2.61074 26.1179 2.92404 28.1334 5.32604C29.5167 7.14241 29.7907 9.30674 28.964 11.1812C28.6777 11.8303 28.6797 12.6046 29.1292 13.1534C29.7235 13.8789 30.8309 13.9268 31.3384 13.1381C33.1751 10.2843 33.2955 6.46867 30.6 3.25631C27.4415 -0.507952 21.8294 -0.998945 18.0651 2.15965L12.3561 6.95006C11.7341 6.10898 10.735 5.56363 9.60859 5.56363C7.7225 5.56363 6.19352 7.09261 6.19352 8.9787C6.19352 10.8648 7.7225 12.3938 9.60859 12.3938C10.3889 12.3938 11.1082 12.132 11.6833 11.6916C11.747 11.6554 11.8084 11.613 11.8665 11.5642Z" fill="#F56551"/>
<path d="M21.174 11.1879L28.1119 19.4561C30.1274 21.8581 29.8141 25.4393 27.4121 27.4548C25.5957 28.838 23.4314 29.1121 21.5569 28.2854C20.9078 27.9991 20.1335 28.001 19.5847 28.4505C18.8592 29.0449 18.8113 30.1522 19.6 30.6598C22.4538 32.4964 26.2694 32.6169 29.4818 29.9214C33.2461 26.7628 33.7371 21.1507 30.5785 17.3864L25.7881 11.6774C26.6291 11.0554 27.1745 10.0563 27.1745 8.92992C27.1745 7.04383 25.6455 5.51485 23.7594 5.51485C21.8733 5.51485 20.3443 7.04383 20.3443 8.92992C20.3443 9.71028 20.6061 10.4295 21.0466 11.0046C21.0827 11.0683 21.1252 11.1297 21.174 11.1879Z" fill="#F56551"/>
<path d="M21.4907 20.4953L13.2225 27.4332C10.8205 29.4487 7.23936 29.1354 5.22384 26.7334C3.84063 24.917 3.56654 22.7527 4.39325 20.8782C4.67955 20.2291 4.67763 19.4548 4.22806 18.906C3.63375 18.1805 2.52641 18.1326 2.01885 18.9213C0.182179 21.7752 0.0617512 25.5908 2.75724 28.8031C5.91583 32.5674 11.5279 33.0584 15.2922 29.8998L21.0012 25.1094C21.6232 25.9505 22.6223 26.4958 23.7487 26.4958C25.6348 26.4958 27.1638 24.9668 27.1638 23.0807C27.1638 21.1946 25.6348 19.6657 23.7487 19.6657C22.9683 19.6657 22.2491 19.9274 21.674 20.3679C21.6103 20.404 21.5489 20.4465 21.4907 20.4953Z" fill="#F56551"/>
<path d="M12.1669 20.8121L5.22903 12.5439C3.21351 10.1419 3.52682 6.56077 5.92882 4.54526C7.74519 3.16204 9.90952 2.88795 11.784 3.71466C12.4331 4.00096 13.2074 3.99904 13.7562 3.54947C14.4817 2.95516 14.5296 1.84782 13.7409 1.34026C10.8871 -0.49641 7.07145 -0.616837 3.85909 2.07865C0.0948277 5.23725 -0.396165 10.8493 2.76243 14.6136L7.55284 20.3226C6.71176 20.9446 6.16641 21.9437 6.16641 23.0701C6.16641 24.9562 7.69539 26.4852 9.58148 26.4852C11.4676 26.4852 12.9965 24.9562 12.9965 23.0701C12.9965 22.2897 12.7348 21.5705 12.2943 20.9954C12.2582 20.9317 12.2157 20.8703 12.1669 20.8121Z" fill="#F56551"/>
<path d="M54.1948 10.7325C54.0885 9.73784 53.6405 8.96337 52.8509 8.40909C52.0688 7.85482 51.0514 7.57768 49.7985 7.57768C48.9178 7.57768 48.1623 7.71056 47.5321 7.9763C46.9019 8.24205 46.4197 8.60271 46.0857 9.05828C45.7516 9.51385 45.5807 10.034 45.5731 10.6186C45.5731 11.1045 45.6832 11.5259 45.9034 11.8828C46.1312 12.2397 46.4387 12.5434 46.826 12.7939C47.2132 13.0369 47.6422 13.2419 48.1129 13.409C48.5837 13.576 49.0582 13.7165 49.5366 13.8304L51.7233 14.377C52.6041 14.5821 53.4507 14.8592 54.2631 15.2085C55.0831 15.5577 55.8159 15.9981 56.4612 16.5296C57.1142 17.0611 57.6305 17.7027 58.0102 18.4544C58.3898 19.2061 58.5796 20.0868 58.5796 21.0967C58.5796 22.4634 58.2304 23.6669 57.5318 24.7071C56.8333 25.7397 55.8234 26.5483 54.5023 27.133C53.1887 27.71 51.598 27.9986 49.7302 27.9986C47.9155 27.9986 46.34 27.7176 45.0037 27.1558C43.6749 26.5939 42.6347 25.7739 41.883 24.6957C41.1389 23.6175 40.7365 22.3039 40.6758 20.755H44.8328C44.8936 21.5674 45.1442 22.2432 45.5845 22.7823C46.0249 23.3214 46.5982 23.7238 47.3043 23.9896C48.018 24.2553 48.8153 24.3882 49.696 24.3882C50.6148 24.3882 51.4196 24.2515 52.1106 23.9782C52.8091 23.6972 53.3558 23.31 53.7506 22.8165C54.1454 22.3153 54.3466 21.7307 54.3542 21.0625C54.3466 20.4551 54.1682 19.954 53.8189 19.5591C53.4697 19.1567 52.9799 18.8226 52.3497 18.5569C51.7271 18.2835 50.9982 18.0406 50.163 17.828L47.5093 17.1446C45.5883 16.6511 44.0698 15.9032 42.9536 14.901C41.8451 13.8911 41.2908 12.551 41.2908 10.8806C41.2908 9.50625 41.6628 8.30279 42.4069 7.27017C43.1586 6.23755 44.1799 5.43651 45.4706 4.86704C46.7614 4.28999 48.223 4.00146 49.8555 4.00146C51.5107 4.00146 52.961 4.28999 54.2062 4.86704C55.459 5.43651 56.4423 6.22996 57.156 7.24739C57.8697 8.25724 58.238 9.41894 58.2607 10.7325H54.1948Z" fill="#222222"/>
<path d="M68.3055 27.9872C66.5515 27.9872 65.0368 27.6227 63.7612 26.8938C62.4932 26.1573 61.5175 25.1171 60.8341 23.7732C60.1508 22.4216 59.8091 20.8309 59.8091 19.0011C59.8091 17.2016 60.1508 15.6223 60.8341 14.2632C61.5251 12.8964 62.4894 11.8335 63.727 11.0742C64.9646 10.3073 66.4186 9.92386 68.0891 9.92386C69.1672 9.92386 70.1847 10.0985 71.1414 10.4478C72.1057 10.7894 72.9561 11.3209 73.6926 12.0423C74.4367 12.7636 75.0213 13.6823 75.4465 14.7984C75.8717 15.907 76.0843 17.2281 76.0843 18.7619V20.0261H61.7453V17.2471H72.1322C72.1246 16.4575 71.9538 15.7551 71.6197 15.1401C71.2856 14.5175 70.8187 14.0278 70.2189 13.6709C69.6266 13.3141 68.9357 13.1356 68.146 13.1356C67.3032 13.1356 66.5629 13.3406 65.9251 13.7506C65.2873 14.1531 64.79 14.6846 64.4331 15.3451C64.0839 15.9981 63.9054 16.7156 63.8978 17.4977V19.9236C63.8978 20.941 64.0839 21.8142 64.4559 22.5431C64.828 23.2644 65.3481 23.8187 66.0162 24.2059C66.6844 24.5856 67.4665 24.7754 68.3624 24.7754C68.9622 24.7754 69.5051 24.6919 69.9911 24.5248C70.477 24.3502 70.8984 24.0958 71.2553 23.7618C71.6121 23.4277 71.8817 23.0139 72.0639 22.5203L75.9135 22.9531C75.6705 23.9706 75.2073 24.8589 74.524 25.6182C73.8482 26.3699 72.9826 26.9545 71.9272 27.3722C70.8718 27.7822 69.6646 27.9872 68.3055 27.9872Z" fill="#222222"/>
<path d="M85.5994 27.9872C83.8531 27.9872 82.3535 27.6037 81.1007 26.8369C79.8555 26.07 78.895 25.0108 78.2192 23.6593C77.551 22.3001 77.217 20.736 77.217 18.9669C77.217 17.1902 77.5586 15.6223 78.242 14.2632C78.9253 12.8964 79.8896 11.8335 81.1348 11.0742C82.3877 10.3073 83.8683 9.92386 85.5766 9.92386C86.9965 9.92386 88.2531 10.1858 89.3465 10.7097C90.4474 11.226 91.3244 11.9587 91.9774 12.9078C92.6304 13.8493 93.0024 14.9503 93.0935 16.2107H89.1529C88.9934 15.3679 88.6138 14.6656 88.0139 14.1037C87.4217 13.5342 86.6283 13.2495 85.6336 13.2495C84.7908 13.2495 84.0505 13.4773 83.4127 13.9329C82.7749 14.3808 82.2776 15.0262 81.9207 15.869C81.5714 16.7118 81.3968 17.7217 81.3968 18.8986C81.3968 20.0906 81.5714 21.1157 81.9207 21.9737C82.27 22.8241 82.7597 23.4808 83.3899 23.944C84.0277 24.3996 84.7756 24.6273 85.6336 24.6273C86.241 24.6273 86.7839 24.5135 87.2623 24.2857C87.7482 24.0503 88.1544 23.7124 88.4809 23.272C88.8074 22.8316 89.0314 22.2964 89.1529 21.6661H93.0935C92.9948 22.9038 92.6304 24.0009 92.0002 24.9576C91.37 25.9067 90.512 26.6508 89.4262 27.1899C88.3404 27.7214 87.0648 27.9872 85.5994 27.9872Z" fill="#222222"/>
<path d="M102.506 27.9872C100.798 27.9872 99.3172 27.6113 98.0644 26.8596C96.8115 26.1079 95.8397 25.0563 95.1487 23.7048C94.4654 22.3533 94.1237 20.774 94.1237 18.9669C94.1237 17.1598 94.4654 15.5767 95.1487 14.2176C95.8397 12.8585 96.8115 11.8031 98.0644 11.0514C99.3172 10.2997 100.798 9.92386 102.506 9.92386C104.215 9.92386 105.695 10.2997 106.948 11.0514C108.201 11.8031 109.169 12.8585 109.852 14.2176C110.543 15.5767 110.889 17.1598 110.889 18.9669C110.889 20.774 110.543 22.3533 109.852 23.7048C109.169 25.0563 108.201 26.1079 106.948 26.8596C105.695 27.6113 104.215 27.9872 102.506 27.9872ZM102.529 24.6843C103.455 24.6843 104.23 24.4299 104.852 23.9212C105.475 23.4049 105.938 22.714 106.242 21.8484C106.553 20.9828 106.709 20.0185 106.709 18.9555C106.709 17.8849 106.553 16.9168 106.242 16.0513C105.938 15.1781 105.475 14.4833 104.852 13.967C104.23 13.4507 103.455 13.1926 102.529 13.1926C101.58 13.1926 100.79 13.4507 100.16 13.967C99.5374 14.4833 99.0704 15.1781 98.7591 16.0513C98.4554 16.9168 98.3035 17.8849 98.3035 18.9555C98.3035 20.0185 98.4554 20.9828 98.7591 21.8484C99.0704 22.714 99.5374 23.4049 100.16 23.9212C100.79 24.4299 101.58 24.6843 102.529 24.6843Z" fill="#222222"/>
<path d="M119.276 27.953C117.902 27.953 116.672 27.5999 115.586 26.8938C114.5 26.1877 113.642 25.1626 113.012 23.8187C112.382 22.4748 112.067 20.8423 112.067 18.9213C112.067 16.9776 112.386 15.3375 113.024 14.0012C113.669 12.6573 114.538 11.6436 115.632 10.9603C116.725 10.2693 117.944 9.92386 119.288 9.92386C120.313 9.92386 121.155 10.0985 121.816 10.4478C122.477 10.7894 123 11.2032 123.388 11.6892C123.775 12.1675 124.075 12.6193 124.287 13.0445H124.458V4.32036H128.593V27.6455H124.538V24.8893H124.287C124.075 25.3145 123.767 25.7663 123.365 26.2446C122.963 26.7154 122.431 27.1178 121.77 27.4519C121.11 27.786 120.278 27.953 119.276 27.953ZM120.427 24.5704C121.3 24.5704 122.044 24.335 122.659 23.8643C123.274 23.3859 123.741 22.7215 124.06 21.8712C124.379 21.0208 124.538 20.0299 124.538 18.8986C124.538 17.7672 124.379 16.784 124.06 15.9488C123.748 15.1136 123.285 14.4644 122.67 14.0012C122.063 13.538 121.315 13.3065 120.427 13.3065C119.508 13.3065 118.741 13.5456 118.126 14.024C117.511 14.5023 117.048 15.1629 116.736 16.0057C116.425 16.8485 116.269 17.8128 116.269 18.8986C116.269 19.9919 116.425 20.9676 116.736 21.8256C117.055 22.676 117.522 23.348 118.137 23.8415C118.76 24.3274 119.523 24.5704 120.427 24.5704Z" fill="#222222"/>
<path d="M136.416 27.9986C135.308 27.9986 134.309 27.8011 133.421 27.4063C132.54 27.0039 131.842 26.4117 131.325 25.6296C130.817 24.8475 130.562 23.8833 130.562 22.7367C130.562 21.7497 130.745 20.9334 131.109 20.2881C131.473 19.6427 131.971 19.1264 132.601 18.7391C133.231 18.3519 133.941 18.0596 134.731 17.8621C135.528 17.6571 136.352 17.5091 137.202 17.418C138.227 17.3117 139.059 17.2168 139.697 17.1332C140.334 17.0421 140.797 16.9055 141.086 16.7232C141.382 16.5334 141.53 16.2411 141.53 15.8463V15.7779C141.53 14.9199 141.276 14.2556 140.767 13.7848C140.258 13.3141 139.526 13.0787 138.569 13.0787C137.559 13.0787 136.758 13.2989 136.166 13.7393C135.581 14.1796 135.186 14.6997 134.981 15.2996L131.132 14.7529C131.436 13.6899 131.937 12.8015 132.635 12.0878C133.334 11.3665 134.188 10.8274 135.198 10.4705C136.208 10.1061 137.324 9.92386 138.546 9.92386C139.389 9.92386 140.228 10.0226 141.063 10.22C141.898 10.4174 142.662 10.7439 143.352 11.1995C144.043 11.6474 144.598 12.2587 145.015 13.0331C145.44 13.8076 145.653 14.7757 145.653 15.9374V27.6455H141.69V25.2424H141.553C141.302 25.7283 140.949 26.1839 140.494 26.6091C140.046 27.0267 139.48 27.3646 138.797 27.6227C138.121 27.8733 137.328 27.9986 136.416 27.9986ZM137.487 24.969C138.315 24.969 139.032 24.8058 139.64 24.4793C140.247 24.1452 140.714 23.7048 141.04 23.1581C141.375 22.6115 141.542 22.0154 141.542 21.37V19.3086C141.412 19.4149 141.192 19.5136 140.881 19.6047C140.577 19.6958 140.236 19.7755 139.856 19.8439C139.476 19.9122 139.1 19.973 138.728 20.0261C138.356 20.0793 138.034 20.1248 137.76 20.1628C137.145 20.2463 136.595 20.383 136.109 20.5728C135.623 20.7626 135.24 21.0284 134.959 21.37C134.678 21.7041 134.537 22.1369 134.537 22.6684C134.537 23.4277 134.814 24.0009 135.369 24.3882C135.923 24.7754 136.629 24.969 137.487 24.969Z" fill="#222222"/>
</svg>
