<svg width="429" height="500" viewBox="0 0 429 500" fill="none" xmlns="http://www.w3.org/2000/svg">
<path d="M214.502 131.544L333.653 197.469V171.038L214.502 105.266C196.78 115.063 111.133 162.364 95.3514 171.038C110.009 179.151 263.94 264.109 357.504 315.746V342.076C344.787 349.117 214.502 421.012 214.502 421.012C178.854 401.367 107.098 361.772 71.5008 342.076V263.139L214.502 342.076L238.353 328.911L47.6502 223.696V355.291L214.502 447.342C230.948 438.259 369.148 361.976 381.304 355.24V302.633L143.002 171.038L214.502 131.544ZM47.6502 144.709V197.367L285.952 328.962L214.451 368.456L95.3004 302.531V328.962L214.451 394.734C232.173 384.937 317.821 337.636 333.602 328.962C318.945 320.849 165.065 235.891 71.5008 184.202V157.873C84.2177 150.832 214.502 78.9366 214.502 78.9366C250.1 98.6325 321.856 138.228 357.504 157.873V236.81L214.502 157.873L190.652 171.038L381.304 276.304V144.709L214.502 52.6074C198.006 61.741 59.8564 138.024 47.6502 144.709ZM214.502 0L0 118.43V381.57L214.502 500L429.005 381.621V118.43L214.502 0ZM405.103 368.405L214.502 473.671L23.8506 368.405V131.595L214.502 26.3292L405.154 131.595L405.103 368.405Z" fill="white"/>
<path d="M214.502 131.544L333.653 197.469V171.038L214.502 105.266C196.78 115.063 111.133 162.364 95.3514 171.038C110.009 179.151 263.94 264.109 357.504 315.746V342.076C344.787 349.117 214.502 421.012 214.502 421.012C178.854 401.367 107.098 361.772 71.5008 342.076V263.139L214.502 342.076L238.353 328.911L47.6502 223.696V355.291L214.502 447.342C230.948 438.259 369.148 361.976 381.304 355.24V302.633L143.002 171.038L214.502 131.544ZM47.6502 144.709V197.367L285.952 328.962L214.451 368.456L95.3004 302.531V328.962L214.451 394.734C232.173 384.937 317.821 337.636 333.602 328.962C318.945 320.849 165.065 235.891 71.5008 184.202V157.873C84.2177 150.832 214.502 78.9366 214.502 78.9366C250.1 98.6325 321.856 138.228 357.504 157.873V236.81L214.502 157.873L190.652 171.038L381.304 276.304V144.709L214.502 52.6074C198.006 61.741 59.8564 138.024 47.6502 144.709ZM214.502 0L0 118.43V381.57L214.502 500L429.005 381.621V118.43L214.502 0ZM405.103 368.405L214.502 473.671L23.8506 368.405V131.595L214.502 26.3292L405.154 131.595L405.103 368.405Z" fill="white"/>
</svg>
