<svg xmlns="http://www.w3.org/2000/svg" viewBox="0 0 1280 640" role="img" aria-labelledby="title desc">
  <title id="title">Polymetrics CLI social preview</title>
  <desc id="desc">A branded social preview for Polymetrics CLI using the PM command line mark.</desc>
  <style>
    .logo-letter {
      fill: #fff;
      font: 700 58px ui-monospace, SFMono-Regular, Menlo, Monaco, Consolas, monospace;
      letter-spacing: -3px;
      text-rendering: geometricPrecision;
    }

    .logo-m {
      opacity: 0;
      animation: pm-logo-m 1.08s ease-in-out infinite;
    }

    .logo-cursor {
      opacity: 1;
      animation: pm-logo-cursor 1.08s ease-in-out infinite;
    }

    @keyframes pm-logo-m {
      0%, 42% { opacity: 1; transform: translateY(0); }
      48%, 90% { opacity: 0; transform: translateY(-2px); }
      100% { opacity: 1; transform: translateY(0); }
    }

    @keyframes pm-logo-cursor {
      0%, 42% { opacity: 0; transform: translateY(2px); }
      48%, 90% { opacity: 1; transform: translateY(0); }
      100% { opacity: 0; transform: translateY(2px); }
    }

    @media (prefers-reduced-motion: reduce) {
      .logo-m,
      .logo-cursor {
        animation: none;
      }

      .logo-m {
        opacity: 1;
      }

      .logo-cursor {
        opacity: 0;
      }
    }
  </style>
  <defs>
    <linearGradient id="outer-fade" x1="0" x2="1" y1="0" y2="1">
      <stop offset="0" stop-color="#f4faf6" stop-opacity="0.70"/>
      <stop offset="0.58" stop-color="#f4faf6" stop-opacity="0.40"/>
      <stop offset="1" stop-color="#f4faf6" stop-opacity="0.16"/>
    </linearGradient>
    <linearGradient id="panel-wash" x1="0" x2="1" y1="0" y2="1">
      <stop offset="0" stop-color="#f8fbf8"/>
      <stop offset="1" stop-color="#eef7f2"/>
    </linearGradient>
  </defs>

  <rect width="1280" height="640" fill="#f4faf6"/>
  <g transform="translate(-44 -362) scale(1.368)" opacity="0.16">
    <g stroke="#0f3d2e" stroke-width="1.25"><path d="M845.1 500L845.1 569.3L885.8 556.1" opacity="0.28"/><path d="M845.1 569.3L845.1 500L779.2 590.7" opacity="0.28"/><path d="M885.8 625.4L951.8 646.8L885.8 556.1" opacity="0.28"/><path d="M845.1 569.3L885.8 625.4L779.2 590.7" opacity="0.28"/><path d="M885.8 625.4L845.1 569.3L885.8 556.1" opacity="0.28"/><path d="M885.8 443.9L845.1 500L951.8 465.3" opacity="0.28"/><path d="M951.8 422.5L885.8 443.9L951.8 353.2" opacity="0.28"/><path d="M885.8 443.9L951.8 422.5L951.8 465.3" opacity="0.28"/><path d="M951.8 577.5L951.8 646.8L885.8 556.1" opacity="0.28"/><path d="M911 521.4L951.8 577.5L951.8 465.3" opacity="0.28"/><path d="M951.8 577.5L911 521.4L885.8 556.1" opacity="0.28"/><path d="M845.1 500L911 521.4L885.8 556.1" opacity="0.28"/><path d="M911 521.4L845.1 500L951.8 465.3" opacity="0.28"/><path d="M713.3 500L672.6 443.9L672.6 556.1" opacity="0.28"/><path d="M713.3 569.3L713.3 500L779.2 590.7" opacity="0.28"/><path d="M713.3 500L713.3 569.3L672.6 556.1" opacity="0.28"/><path d="M565.9 521.4L500 500L606.6 465.3" opacity="0.28"/><path d="M631.8 500L565.9 521.4L672.6 556.1" opacity="0.28"/><path d="M565.9 521.4L631.8 500L606.6 465.3" opacity="0.28"/><path d="M672.6 443.9L631.8 500L606.6 465.3" opacity="0.28"/><path d="M631.8 500L672.6 443.9L672.6 556.1" opacity="0.28"/><path d="M885.8 443.9L845.1 500L845.1 387.9" opacity="0.28"/><path d="M885.8 374.6L885.8 443.9L951.8 353.2" opacity="0.28"/><path d="M885.8 443.9L885.8 374.6L845.1 387.9" opacity="0.28"/><path d="M738.5 422.5L672.6 443.9L779.2 478.6" opacity="0.28"/><path d="M804.4 443.9L738.5 422.5L845.1 387.9" opacity="0.28"/><path d="M738.5 422.5L804.4 443.9L779.2 478.6" opacity="0.28"/><path d="M845.1 500L804.4 443.9L779.2 478.6" opacity="0.28"/><path d="M804.4 443.9L845.1 500L845.1 387.9" opacity="0.28"/><path d="M845.1 500L779.2 521.4L779.2 478.6" opacity="0.28"/><path d="M779.2 521.4L845.1 500L779.2 590.7" opacity="0.28"/><path d="M713.3 500L672.6 443.9L779.2 478.6" opacity="0.28"/><path d="M779.2 521.4L713.3 500L779.2 590.7" opacity="0.28"/><path d="M713.3 500L779.2 521.4L779.2 478.6" opacity="0.28"/><path d="M779.2 702.8L819.9 646.8L845.1 681.4" opacity="0.28"/><path d="M819.9 646.8L779.2 702.8L779.2 590.7" opacity="0.28"/><path d="M885.8 625.4L951.8 646.8L845.1 681.4" opacity="0.28"/><path d="M819.9 646.8L885.8 625.4L779.2 590.7" opacity="0.28"/><path d="M885.8 625.4L819.9 646.8L845.1 681.4" opacity="0.28"/><path d="M779.2 772.2L779.2 702.8L845.1 793.6" opacity="0.28"/><path d="M819.9 828.2L779.2 772.2L779.2 884.3" opacity="0.28"/><path d="M779.2 772.2L819.9 828.2L845.1 793.6" opacity="0.28"/><path d="M911 702.8L951.8 646.8L845.1 681.4" opacity="0.28"/><path d="M845.1 724.3L911 702.8L845.1 793.6" opacity="0.28"/><path d="M911 702.8L845.1 724.3L845.1 681.4" opacity="0.28"/><path d="M779.2 702.8L845.1 724.3L845.1 681.4" opacity="0.28"/><path d="M845.1 724.3L779.2 702.8L845.1 793.6" opacity="0.28"/><path d="M672.6 625.4L606.6 646.8L672.6 556.1" opacity="0.28"/><path d="M713.3 569.3L672.6 625.4L779.2 590.7" opacity="0.28"/><path d="M672.6 625.4L713.3 569.3L672.6 556.1" opacity="0.28"/><path d="M565.9 521.4L500 500L565.9 590.7" opacity="0.28"/><path d="M606.6 577.5L565.9 521.4L672.6 556.1" opacity="0.28"/><path d="M565.9 521.4L606.6 577.5L565.9 590.7" opacity="0.28"/><path d="M606.6 646.8L606.6 577.5L565.9 590.7" opacity="0.28"/><path d="M606.6 577.5L606.6 646.8L672.6 556.1" opacity="0.28"/><path d="M779.2 772.2L779.2 702.8L713.3 793.6" opacity="0.28"/><path d="M738.5 828.2L779.2 772.2L779.2 884.3" opacity="0.28"/><path d="M779.2 772.2L738.5 828.2L713.3 793.6" opacity="0.28"/><path d="M647.4 702.8L606.6 646.8L713.3 681.4" opacity="0.28"/><path d="M713.3 724.3L647.4 702.8L713.3 793.6" opacity="0.28"/><path d="M647.4 702.8L713.3 724.3L713.3 681.4" opacity="0.28"/><path d="M779.2 702.8L713.3 724.3L713.3 681.4" opacity="0.28"/><path d="M713.3 724.3L779.2 702.8L713.3 793.6" opacity="0.28"/><path d="M779.2 702.8L738.5 646.8L713.3 681.4" opacity="0.28"/><path d="M738.5 646.8L779.2 702.8L779.2 590.7" opacity="0.28"/><path d="M672.6 625.4L606.6 646.8L713.3 681.4" opacity="0.28"/><path d="M738.5 646.8L672.6 625.4L779.2 590.7" opacity="0.28"/><path d="M672.6 625.4L738.5 646.8L713.3 681.4" opacity="0.28"/><path d="M606.6 828.2L540.7 849.6L565.9 884.3" opacity="0.28"/><path d="M540.7 849.6L606.6 828.2L500 793.6" opacity="0.28"/><path d="M500 905.7L500 975L565.9 884.3" opacity="0.28"/><path d="M540.7 849.6L500 905.7L500 793.6" opacity="0.28"/><path d="M500 905.7L540.7 849.6L565.9 884.3" opacity="0.28"/><path d="M672.6 849.6L606.6 828.2L672.6 918.9" opacity="0.28"/><path d="M713.3 905.7L672.6 849.6L779.2 884.3" opacity="0.28"/><path d="M672.6 849.6L713.3 905.7L672.6 918.9" opacity="0.28"/><path d="M565.9 953.6L500 975L565.9 884.3" opacity="0.28"/><path d="M606.6 897.5L565.9 953.6L672.6 918.9" opacity="0.28"/><path d="M565.9 953.6L606.6 897.5L565.9 884.3" opacity="0.28"/><path d="M606.6 828.2L606.6 897.5L565.9 884.3" opacity="0.28"/><path d="M606.6 897.5L606.6 828.2L672.6 918.9" opacity="0.28"/><path d="M565.9 702.8L606.6 646.8L500 681.4" opacity="0.28"/><path d="M500 724.3L565.9 702.8L500 793.6" opacity="0.28"/><path d="M565.9 702.8L500 724.3L500 681.4" opacity="0.28"/><path d="M500 569.3L500 500L565.9 590.7" opacity="0.28"/><path d="M540.7 625.4L500 569.3L500 681.4" opacity="0.28"/><path d="M500 569.3L540.7 625.4L565.9 590.7" opacity="0.28"/><path d="M606.6 646.8L540.7 625.4L565.9 590.7" opacity="0.28"/><path d="M540.7 625.4L606.6 646.8L500 681.4" opacity="0.28"/><path d="M672.6 849.6L606.6 828.2L713.3 793.6" opacity="0.28"/><path d="M738.5 828.2L672.6 849.6L779.2 884.3" opacity="0.28"/><path d="M672.6 849.6L738.5 828.2L713.3 793.6" opacity="0.28"/><path d="M647.4 702.8L606.6 646.8L606.6 758.9" opacity="0.28"/><path d="M647.4 772.2L647.4 702.8L713.3 793.6" opacity="0.28"/><path d="M647.4 702.8L647.4 772.2L606.6 758.9" opacity="0.28"/><path d="M606.6 828.2L647.4 772.2L606.6 758.9" opacity="0.28"/><path d="M647.4 772.2L606.6 828.2L713.3 793.6" opacity="0.28"/><path d="M606.6 828.2L565.9 772.2L606.6 758.9" opacity="0.28"/><path d="M565.9 772.2L606.6 828.2L500 793.6" opacity="0.28"/><path d="M565.9 702.8L606.6 646.8L606.6 758.9" opacity="0.28"/><path d="M565.9 772.2L565.9 702.8L500 793.6" opacity="0.28"/><path d="M565.9 702.8L565.9 772.2L606.6 758.9" opacity="0.28"/><path d="M393.4 828.2L459.3 849.6L434.1 884.3" opacity="0.28"/><path d="M459.3 849.6L393.4 828.2L500 793.6" opacity="0.28"/><path d="M500 905.7L500 975L434.1 884.3" opacity="0.28"/><path d="M459.3 849.6L500 905.7L500 793.6" opacity="0.28"/><path d="M500 905.7L459.3 849.6L434.1 884.3" opacity="0.28"/><path d="M327.4 849.6L393.4 828.2L327.4 918.9" opacity="0.28"/><path d="M286.7 905.7L327.4 849.6L220.8 884.3" opacity="0.28"/><path d="M327.4 849.6L286.7 905.7L327.4 918.9" opacity="0.28"/><path d="M434.1 953.6L500 975L434.1 884.3" opacity="0.28"/><path d="M393.4 897.5L434.1 953.6L327.4 918.9" opacity="0.28"/><path d="M434.1 953.6L393.4 897.5L434.1 884.3" opacity="0.28"/><path d="M393.4 828.2L393.4 897.5L434.1 884.3" opacity="0.28"/><path d="M393.4 897.5L393.4 828.2L327.4 918.9" opacity="0.28"/><path d="M434.1 702.8L393.4 646.8L500 681.4" opacity="0.28"/><path d="M500 724.3L434.1 702.8L500 793.6" opacity="0.28"/><path d="M434.1 702.8L500 724.3L500 681.4" opacity="0.28"/><path d="M500 569.3L500 500L434.1 590.7" opacity="0.28"/><path d="M459.3 625.4L500 569.3L500 681.4" opacity="0.28"/><path d="M500 569.3L459.3 625.4L434.1 590.7" opacity="0.28"/><path d="M393.4 646.8L459.3 625.4L434.1 590.7" opacity="0.28"/><path d="M459.3 625.4L393.4 646.8L500 681.4" opacity="0.28"/><path d="M327.4 849.6L393.4 828.2L286.7 793.6" opacity="0.28"/><path d="M261.5 828.2L327.4 849.6L220.8 884.3" opacity="0.28"/><path d="M327.4 849.6L261.5 828.2L286.7 793.6" opacity="0.28"/><path d="M352.6 702.8L393.4 646.8L393.4 758.9" opacity="0.28"/><path d="M352.6 772.2L352.6 702.8L286.7 793.6" opacity="0.28"/><path d="M352.6 702.8L352.6 772.2L393.4 758.9" opacity="0.28"/><path d="M393.4 828.2L352.6 772.2L393.4 758.9" opacity="0.28"/><path d="M352.6 772.2L393.4 828.2L286.7 793.6" opacity="0.28"/><path d="M393.4 828.2L434.1 772.2L393.4 758.9" opacity="0.28"/><path d="M434.1 772.2L393.4 828.2L500 793.6" opacity="0.28"/><path d="M434.1 702.8L393.4 646.8L393.4 758.9" opacity="0.28"/><path d="M434.1 772.2L434.1 702.8L500 793.6" opacity="0.28"/><path d="M434.1 702.8L434.1 772.2L393.4 758.9" opacity="0.28"/><path d="M220.8 702.8L180.1 646.8L154.9 681.4" opacity="0.28"/><path d="M180.1 646.8L220.8 702.8L220.8 590.7" opacity="0.28"/><path d="M114.2 625.4L48.2 646.8L154.9 681.4" opacity="0.28"/><path d="M180.1 646.8L114.2 625.4L220.8 590.7" opacity="0.28"/><path d="M114.2 625.4L180.1 646.8L154.9 681.4" opacity="0.28"/><path d="M220.8 772.2L220.8 702.8L154.9 793.6" opacity="0.28"/><path d="M180.1 828.2L220.8 772.2L220.8 884.3" opacity="0.28"/><path d="M220.8 772.2L180.1 828.2L154.9 793.6" opacity="0.28"/><path d="M89 702.8L48.2 646.8L154.9 681.4" opacity="0.28"/><path d="M154.9 724.3L89 702.8L154.9 793.6" opacity="0.28"/><path d="M89 702.8L154.9 724.3L154.9 681.4" opacity="0.28"/><path d="M220.8 702.8L154.9 724.3L154.9 681.4" opacity="0.28"/><path d="M154.9 724.3L220.8 702.8L154.9 793.6" opacity="0.28"/><path d="M327.4 625.4L393.4 646.8L327.4 556.1" opacity="0.28"/><path d="M286.7 569.3L327.4 625.4L220.8 590.7" opacity="0.28"/><path d="M327.4 625.4L286.7 569.3L327.4 556.1" opacity="0.28"/><path d="M434.1 521.4L500 500L434.1 590.7" opacity="0.28"/><path d="M393.4 577.5L434.1 521.4L327.4 556.1" opacity="0.28"/><path d="M434.1 521.4L393.4 577.5L434.1 590.7" opacity="0.28"/><path d="M393.4 646.8L393.4 577.5L434.1 590.7" opacity="0.28"/><path d="M393.4 577.5L393.4 646.8L327.4 556.1" opacity="0.28"/><path d="M220.8 772.2L220.8 702.8L286.7 793.6" opacity="0.28"/><path d="M261.5 828.2L220.8 772.2L220.8 884.3" opacity="0.28"/><path d="M220.8 772.2L261.5 828.2L286.7 793.6" opacity="0.28"/><path d="M352.6 702.8L393.4 646.8L286.7 681.4" opacity="0.28"/><path d="M286.7 724.3L352.6 702.8L286.7 793.6" opacity="0.28"/><path d="M352.6 702.8L286.7 724.3L286.7 681.4" opacity="0.28"/><path d="M220.8 702.8L286.7 724.3L286.7 681.4" opacity="0.28"/><path d="M286.7 724.3L220.8 702.8L286.7 793.6" opacity="0.28"/><path d="M220.8 702.8L261.5 646.8L286.7 681.4" opacity="0.28"/><path d="M261.5 646.8L220.8 702.8L220.8 590.7" opacity="0.28"/><path d="M327.4 625.4L393.4 646.8L286.7 681.4" opacity="0.28"/><path d="M261.5 646.8L327.4 625.4L220.8 590.7" opacity="0.28"/><path d="M327.4 625.4L261.5 646.8L286.7 681.4" opacity="0.28"/><path d="M154.9 500L154.9 569.3L114.2 556.1" opacity="0.28"/><path d="M154.9 569.3L154.9 500L220.8 590.7" opacity="0.28"/><path d="M114.2 625.4L48.2 646.8L114.2 556.1" opacity="0.28"/><path d="M154.9 569.3L114.2 625.4L220.8 590.7" opacity="0.28"/><path d="M114.2 625.4L154.9 569.3L114.2 556.1" opacity="0.28"/><path d="M114.2 443.9L154.9 500L48.2 465.3" opacity="0.28"/><path d="M48.2 422.5L114.2 443.9L48.2 353.2" opacity="0.28"/><path d="M114.2 443.9L48.2 422.5L48.2 465.3" opacity="0.28"/><path d="M48.2 577.5L48.2 646.8L114.2 556.1" opacity="0.28"/><path d="M89 521.4L48.2 577.5L48.2 465.3" opacity="0.28"/><path d="M48.2 577.5L89 521.4L114.2 556.1" opacity="0.28"/><path d="M154.9 500L89 521.4L114.2 556.1" opacity="0.28"/><path d="M89 521.4L154.9 500L48.2 465.3" opacity="0.28"/><path d="M286.7 500L327.4 443.9L327.4 556.1" opacity="0.28"/><path d="M286.7 569.3L286.7 500L220.8 590.7" opacity="0.28"/><path d="M286.7 500L286.7 569.3L327.4 556.1" opacity="0.28"/><path d="M434.1 521.4L500 500L393.4 465.3" opacity="0.28"/><path d="M368.2 500L434.1 521.4L327.4 556.1" opacity="0.28"/><path d="M434.1 521.4L368.2 500L393.4 465.3" opacity="0.28"/><path d="M327.4 443.9L368.2 500L393.4 465.3" opacity="0.28"/><path d="M368.2 500L327.4 443.9L327.4 556.1" opacity="0.28"/><path d="M114.2 443.9L154.9 500L154.9 387.9" opacity="0.28"/><path d="M114.2 374.6L114.2 443.9L48.2 353.2" opacity="0.28"/><path d="M114.2 443.9L114.2 374.6L154.9 387.9" opacity="0.28"/><path d="M261.5 422.5L327.4 443.9L220.8 478.6" opacity="0.28"/><path d="M195.6 443.9L261.5 422.5L154.9 387.9" opacity="0.28"/><path d="M261.5 422.5L195.6 443.9L220.8 478.6" opacity="0.28"/><path d="M154.9 500L195.6 443.9L220.8 478.6" opacity="0.28"/><path d="M195.6 443.9L154.9 500L154.9 387.9" opacity="0.28"/><path d="M154.9 500L220.8 521.4L220.8 478.6" opacity="0.28"/><path d="M220.8 521.4L154.9 500L220.8 590.7" opacity="0.28"/><path d="M286.7 500L327.4 443.9L220.8 478.6" opacity="0.28"/><path d="M220.8 521.4L286.7 500L220.8 590.7" opacity="0.28"/><path d="M286.7 500L220.8 521.4L220.8 478.6" opacity="0.28"/><path d="M220.8 297.2L261.5 241.1L220.8 227.8" opacity="0.28"/><path d="M261.5 241.1L220.8 297.2L327.4 262.5" opacity="0.28"/><path d="M261.5 171.8L220.8 115.7L220.8 227.8" opacity="0.28"/><path d="M261.5 241.1L261.5 171.8L327.4 262.5" opacity="0.28"/><path d="M261.5 171.8L261.5 241.1L220.8 227.8" opacity="0.28"/><path d="M154.9 318.6L220.8 297.2L114.2 262.5" opacity="0.28"/><path d="M89 297.2L154.9 318.6L48.2 353.2" opacity="0.28"/><path d="M154.9 318.6L89 297.2L114.2 262.5" opacity="0.28"/><path d="M180.1 171.8L220.8 115.7L220.8 227.8" opacity="0.28"/><path d="M180.1 241.1L180.1 171.8L114.2 262.5" opacity="0.28"/><path d="M180.1 171.8L180.1 241.1L220.8 227.8" opacity="0.28"/><path d="M220.8 297.2L180.1 241.1L220.8 227.8" opacity="0.28"/><path d="M180.1 241.1L220.8 297.2L114.2 262.5" opacity="0.28"/><path d="M327.4 374.6L327.4 443.9L393.4 353.2" opacity="0.28"/><path d="M368.2 318.6L327.4 374.6L327.4 262.5" opacity="0.28"/><path d="M327.4 374.6L368.2 318.6L393.4 353.2" opacity="0.28"/><path d="M459.3 443.9L500 500L393.4 465.3" opacity="0.28"/><path d="M393.4 422.5L459.3 443.9L393.4 353.2" opacity="0.28"/><path d="M459.3 443.9L393.4 422.5L393.4 465.3" opacity="0.28"/><path d="M327.4 443.9L393.4 422.5L393.4 465.3" opacity="0.28"/><path d="M393.4 422.5L327.4 443.9L393.4 353.2" opacity="0.28"/><path d="M154.9 318.6L220.8 297.2L154.9 387.9" opacity="0.28"/><path d="M114.2 374.6L154.9 318.6L48.2 353.2" opacity="0.28"/><path d="M154.9 318.6L114.2 374.6L154.9 387.9" opacity="0.28"/><path d="M261.5 422.5L327.4 443.9L261.5 353.2" opacity="0.28"/><path d="M220.8 366.5L261.5 422.5L154.9 387.9" opacity="0.28"/><path d="M261.5 422.5L220.8 366.5L261.5 353.2" opacity="0.28"/><path d="M220.8 297.2L220.8 366.5L261.5 353.2" opacity="0.28"/><path d="M220.8 366.5L220.8 297.2L154.9 387.9" opacity="0.28"/><path d="M220.8 297.2L286.7 318.6L261.5 353.2" opacity="0.28"/><path d="M286.7 318.6L220.8 297.2L327.4 262.5" opacity="0.28"/><path d="M327.4 374.6L327.4 443.9L261.5 353.2" opacity="0.28"/><path d="M286.7 318.6L327.4 374.6L327.4 262.5" opacity="0.28"/><path d="M327.4 374.6L286.7 318.6L261.5 353.2" opacity="0.28"/><path d="M393.4 171.8L327.4 193.2L327.4 150.4" opacity="0.28"/><path d="M327.4 193.2L393.4 171.8L327.4 262.5" opacity="0.28"/><path d="M261.5 171.8L220.8 115.7L327.4 150.4" opacity="0.28"/><path d="M327.4 193.2L261.5 171.8L327.4 262.5" opacity="0.28"/><path d="M261.5 171.8L327.4 193.2L327.4 150.4" opacity="0.28"/><path d="M434.1 115.7L393.4 171.8L393.4 59.7" opacity="0.28"/><path d="M434.1 46.4L434.1 115.7L500 25" opacity="0.28"/><path d="M434.1 115.7L434.1 46.4L393.4 59.7" opacity="0.28"/><path d="M286.7 94.3L220.8 115.7L327.4 150.4" opacity="0.28"/><path d="M352.6 115.7L286.7 94.3L393.4 59.7" opacity="0.28"/><path d="M286.7 94.3L352.6 115.7L327.4 150.4" opacity="0.28"/><path d="M393.4 171.8L352.6 115.7L327.4 150.4" opacity="0.28"/><path d="M352.6 115.7L393.4 171.8L393.4 59.7" opacity="0.28"/><path d="M434.1 297.2L500 318.6L393.4 353.2" opacity="0.28"/><path d="M368.2 318.6L434.1 297.2L327.4 262.5" opacity="0.28"/><path d="M434.1 297.2L368.2 318.6L393.4 353.2" opacity="0.28"/><path d="M459.3 443.9L500 500L500 387.9" opacity="0.28"/><path d="M459.3 374.6L459.3 443.9L393.4 353.2" opacity="0.28"/><path d="M459.3 443.9L459.3 374.6L500 387.9" opacity="0.28"/><path d="M500 318.6L459.3 374.6L500 387.9" opacity="0.28"/><path d="M459.3 374.6L500 318.6L393.4 353.2" opacity="0.28"/><path d="M434.1 115.7L393.4 171.8L500 137.1" opacity="0.28"/><path d="M500 94.3L434.1 115.7L500 25" opacity="0.28"/><path d="M434.1 115.7L500 94.3L500 137.1" opacity="0.28"/><path d="M500 249.3L500 318.6L434.1 227.8" opacity="0.28"/><path d="M459.3 193.2L500 249.3L500 137.1" opacity="0.28"/><path d="M500 249.3L459.3 193.2L434.1 227.8" opacity="0.28"/><path d="M393.4 171.8L459.3 193.2L434.1 227.8" opacity="0.28"/><path d="M459.3 193.2L393.4 171.8L500 137.1" opacity="0.28"/><path d="M393.4 171.8L393.4 241.1L434.1 227.8" opacity="0.28"/><path d="M393.4 241.1L393.4 171.8L327.4 262.5" opacity="0.28"/><path d="M434.1 297.2L500 318.6L434.1 227.8" opacity="0.28"/><path d="M393.4 241.1L434.1 297.2L327.4 262.5" opacity="0.28"/><path d="M434.1 297.2L393.4 241.1L434.1 227.8" opacity="0.28"/><path d="M606.6 171.8L672.6 193.2L672.6 150.4" opacity="0.28"/><path d="M672.6 193.2L606.6 171.8L672.6 262.5" opacity="0.28"/><path d="M738.5 171.8L779.2 115.7L672.6 150.4" opacity="0.28"/><path d="M672.6 193.2L738.5 171.8L672.6 262.5" opacity="0.28"/><path d="M738.5 171.8L672.6 193.2L672.6 150.4" opacity="0.28"/><path d="M565.9 115.7L606.6 171.8L606.6 59.7" opacity="0.28"/><path d="M565.9 46.4L565.9 115.7L500 25" opacity="0.28"/><path d="M565.9 115.7L565.9 46.4L606.6 59.7" opacity="0.28"/><path d="M713.3 94.3L779.2 115.7L672.6 150.4" opacity="0.28"/><path d="M647.4 115.7L713.3 94.3L606.6 59.7" opacity="0.28"/><path d="M713.3 94.3L647.4 115.7L672.6 150.4" opacity="0.28"/><path d="M606.6 171.8L647.4 115.7L672.6 150.4" opacity="0.28"/><path d="M647.4 115.7L606.6 171.8L606.6 59.7" opacity="0.28"/><path d="M565.9 297.2L500 318.6L606.6 353.2" opacity="0.28"/><path d="M631.8 318.6L565.9 297.2L672.6 262.5" opacity="0.28"/><path d="M565.9 297.2L631.8 318.6L606.6 353.2" opacity="0.28"/><path d="M540.7 443.9L500 500L500 387.9" opacity="0.28"/><path d="M540.7 374.6L540.7 443.9L606.6 353.2" opacity="0.28"/><path d="M540.7 443.9L540.7 374.6L500 387.9" opacity="0.28"/><path d="M500 318.6L540.7 374.6L500 387.9" opacity="0.28"/><path d="M540.7 374.6L500 318.6L606.6 353.2" opacity="0.28"/><path d="M565.9 115.7L606.6 171.8L500 137.1" opacity="0.28"/><path d="M500 94.3L565.9 115.7L500 25" opacity="0.28"/><path d="M565.9 115.7L500 94.3L500 137.1" opacity="0.28"/><path d="M500 249.3L500 318.6L565.9 227.8" opacity="0.28"/><path d="M540.7 193.2L500 249.3L500 137.1" opacity="0.28"/><path d="M500 249.3L540.7 193.2L565.9 227.8" opacity="0.28"/><path d="M606.6 171.8L540.7 193.2L565.9 227.8" opacity="0.28"/><path d="M540.7 193.2L606.6 171.8L500 137.1" opacity="0.28"/><path d="M606.6 171.8L606.6 241.1L565.9 227.8" opacity="0.28"/><path d="M606.6 241.1L606.6 171.8L672.6 262.5" opacity="0.28"/><path d="M565.9 297.2L500 318.6L565.9 227.8" opacity="0.28"/><path d="M606.6 241.1L565.9 297.2L672.6 262.5" opacity="0.28"/><path d="M565.9 297.2L606.6 241.1L565.9 227.8" opacity="0.28"/><path d="M779.2 297.2L738.5 241.1L779.2 227.8" opacity="0.28"/><path d="M738.5 241.1L779.2 297.2L672.6 262.5" opacity="0.28"/><path d="M738.5 171.8L779.2 115.7L779.2 227.8" opacity="0.28"/><path d="M738.5 241.1L738.5 171.8L672.6 262.5" opacity="0.28"/><path d="M738.5 171.8L738.5 241.1L779.2 227.8" opacity="0.28"/><path d="M845.1 318.6L779.2 297.2L885.8 262.5" opacity="0.28"/><path d="M911 297.2L845.1 318.6L951.8 353.2" opacity="0.28"/><path d="M845.1 318.6L911 297.2L885.8 262.5" opacity="0.28"/><path d="M819.9 171.8L779.2 115.7L779.2 227.8" opacity="0.28"/><path d="M819.9 241.1L819.9 171.8L885.8 262.5" opacity="0.28"/><path d="M819.9 171.8L819.9 241.1L779.2 227.8" opacity="0.28"/><path d="M779.2 297.2L819.9 241.1L779.2 227.8" opacity="0.28"/><path d="M819.9 241.1L779.2 297.2L885.8 262.5" opacity="0.28"/><path d="M672.6 374.6L672.6 443.9L606.6 353.2" opacity="0.28"/><path d="M631.8 318.6L672.6 374.6L672.6 262.5" opacity="0.28"/><path d="M672.6 374.6L631.8 318.6L606.6 353.2" opacity="0.28"/><path d="M540.7 443.9L500 500L606.6 465.3" opacity="0.28"/><path d="M606.6 422.5L540.7 443.9L606.6 353.2" opacity="0.28"/><path d="M540.7 443.9L606.6 422.5L606.6 465.3" opacity="0.28"/><path d="M672.6 443.9L606.6 422.5L606.6 465.3" opacity="0.28"/><path d="M606.6 422.5L672.6 443.9L606.6 353.2" opacity="0.28"/><path d="M845.1 318.6L779.2 297.2L845.1 387.9" opacity="0.28"/><path d="M885.8 374.6L845.1 318.6L951.8 353.2" opacity="0.28"/><path d="M845.1 318.6L885.8 374.6L845.1 387.9" opacity="0.28"/><path d="M738.5 422.5L672.6 443.9L738.5 353.2" opacity="0.28"/><path d="M779.2 366.5L738.5 422.5L845.1 387.9" opacity="0.28"/><path d="M738.5 422.5L779.2 366.5L738.5 353.2" opacity="0.28"/><path d="M779.2 297.2L779.2 366.5L738.5 353.2" opacity="0.28"/><path d="M779.2 366.5L779.2 297.2L845.1 387.9" opacity="0.28"/><path d="M779.2 297.2L713.3 318.6L738.5 353.2" opacity="0.28"/><path d="M713.3 318.6L779.2 297.2L672.6 262.5" opacity="0.28"/><path d="M672.6 374.6L672.6 443.9L738.5 353.2" opacity="0.28"/><path d="M713.3 318.6L672.6 374.6L672.6 262.5" opacity="0.28"/><path d="M672.6 374.6L713.3 318.6L738.5 353.2" opacity="0.28"/></g>
  </g>
  <rect width="1280" height="640" fill="url(#outer-fade)"/>
  <rect x="48" y="48" width="1184" height="544" fill="none" stroke="#b8d6c4" stroke-width="2"/>
  <rect x="80" y="80" width="1120" height="480" fill="url(#panel-wash)" stroke="#b8d6c4" stroke-width="2"/>
  <path d="M80 252H1200" stroke="#c7ddcf" stroke-width="2"/>
  <path d="M931 80V560" stroke="#c7ddcf" stroke-width="2" opacity="0.8"/>

  <rect x="128" y="114" width="104" height="104" fill="#065f46"/>
  <text class="logo-letter" x="149" y="182">P</text>
  <text class="logo-letter logo-m" x="184" y="182">M</text>
  <text class="logo-letter logo-cursor" x="184" y="182">_</text>
  <text x="270" y="158" fill="#789285" font-family="ui-monospace, SFMono-Regular, Menlo, Monaco, Consolas, monospace" font-size="22" font-weight="500" letter-spacing="7">COMMAND LINE INTERFACE</text>
  <text x="270" y="200" fill="#092b20" font-family="ui-sans-serif, system-ui, -apple-system, BlinkMacSystemFont, Segoe UI, sans-serif" font-size="30" font-weight="650">Polymetrics CLI</text>

  <image href="polymetrics-cli-social-headline.png" x="128" y="304" width="604" height="58" preserveAspectRatio="xMinYMin meet"/>
  <text fill="#587468" font-family="ui-sans-serif, system-ui, -apple-system, BlinkMacSystemFont, Segoe UI, sans-serif" font-size="24" font-weight="450">
    <tspan x="132" y="402">Local-first ETL, DuckDB SQL, reverse ETL, and scheduling.</tspan>
    <tspan x="132" y="436">Agent-safe automation behind one local binary.</tspan>
  </text>

  <rect x="128" y="482" width="742" height="44" fill="#065f46"/>
  <text x="150" y="511" fill="#eef7f1" font-family="ui-monospace, SFMono-Regular, Menlo, Monaco, Consolas, monospace" font-size="19" font-weight="700">pm init -> pm etl run --json -> pm query run</text>

  <text x="972" y="136" fill="#789285" font-family="ui-monospace, SFMono-Regular, Menlo, Monaco, Consolas, monospace" font-size="16" font-weight="600" letter-spacing="3">LOCAL FIRST</text>
  <text x="972" y="190" fill="#092b20" font-family="ui-serif, Georgia, Cambria, Times New Roman, Times, serif" font-size="54" font-weight="400">646</text>
  <text x="972" y="222" fill="#587468" font-family="ui-sans-serif, system-ui, -apple-system, BlinkMacSystemFont, Segoe UI, sans-serif" font-size="22" font-weight="500">connectors</text>
  <image href="polymetrics-cli-social-features.png" x="972" y="306" width="260" height="137" preserveAspectRatio="xMinYMin meet"/>
  <rect x="972" y="482" width="184" height="44" fill="#065f46"/>
  <text x="986" y="511" fill="#fff" font-family="ui-sans-serif, system-ui, -apple-system, BlinkMacSystemFont, Segoe UI, sans-serif" font-size="17" font-weight="700">cli.polymetrics.ai</text>
</svg>
